<?xml version="1.0" encoding="UTF-8"?> <svg xmlns="http://www.w3.org/2000/svg" height="140" viewBox="0 0 343 140" width="343"><g fill="none"><g fill="#06c"><path d="m129.910261 115.165893c-6.338443 0-13.783423-2.916311-17.003058-7.746609-.703236-.905734-1.005711-1.910599-1.005711-3.017984 0-2.715507 2.51555-5.0302545 5.231057-5.0302545 1.409014 0 2.717203.7032365 4.024544 2.2139225 2.012271 2.513856 4.930276 3.722066 8.753168 3.722066 6.740897 0 10.664615-3.923717 10.664615-8.0490856 0-4.4261495-4.426997-7.4449803-9.959684-9.4572518-5.533535-2.0114243-11.470371-3.9237171-15.393241-8.8531466-1.911446-2.5155514-2.918006-5.5326874-2.918006-9.2556016 0-10.3629857 8.652344-16.3997999 18.311247-16.3997999 6.438421 0 13.480947 3.5212632 17.00221 8.8539942.50328.8049086.804909 1.7097953.804909 2.8163327 0 2.8171802-2.414726 5.031102-5.231906 5.031102-1.508992 0-2.816332-.8057556-4.023695-2.4147253-2.113097-2.9180056-4.930277-4.4269973-8.551518-4.4269973-5.232753 0-8.250737 2.9180053-8.250737 6.5400936 0 3.7229142 4.426997 6.2376183 9.960532 8.2498892 5.533534 2.113097 11.469523 4.2261941 15.39324 9.55723 1.911447 2.7172024 2.917159 5.9359892 2.917159 9.7588808 0 10.7654406-9.557231 17.9079446-20.725125 17.9079446zm38.203757 14.227818c0 3.125587-2.318137 5.040422-5.039575 5.040422-2.721439 0-5.039575-1.914835-5.039575-5.040422v-54.4304585c0-11.9948321 9.675848-21.6706803 21.67068-21.6706803 11.99568 0 21.671528 9.6758482 21.671528 21.6706803v18.6484602c0 11.9939853-9.675848 21.6706803-21.671528 21.6706803-4.535448 0-8.365965-1.411555-11.59153-4.333797zm0-35.7819983c0 6.4502833 5.1404 11.5915303 11.59153 11.5915303s11.59153-5.141247 11.59153-11.5915303v-18.6484602c0-6.4511303-5.1404-11.5915306-11.59153-11.5915306s-11.59153 5.1404003-11.59153 11.5915306zm71.948658-25.9811772c-1.323439 0-2.542664-.5092108-3.661911-1.6276099l-.203345-.2033453c-1.931781-1.5250899-4.066059-2.3384711-6.608723-2.3384711-5.999534 0-9.660597 4.1694263-9.660597 12.4057589v33.8620789c0 3.152701-2.338472 5.084481-5.08448 5.084481-2.746009 0-5.084481-1.93178-5.084481-5.084481v-33.8620789c0-12.7107769 7.219606-22.5747196 19.829558-22.5747196 4.879441 0 10.777302 2.2367986 14.134194 5.5928436 1.016727 1.1183993 1.525091 2.2376458 1.525091 3.5585431 0 2.7460091-2.440144 5.1870003-5.185306 5.1870003zm52.473768 14.3349128c0 2.7172024-2.313901 5.030255-5.030255 5.030255h-28.170952v6.5400939c0 6.0359674 5.836011 11.5695018 12.576908 11.5695018 4.023695 0 7.243329-1.307341 9.758881-3.822892 1.10569-1.5098395 2.413878-2.3139004 4.023695-2.3139004 2.717202 0 5.232753 2.3139004 5.232753 5.0294074 0 2.013118-1.107384 3.32046-2.314748 4.527823-4.12452 4.426996-9.758881 6.640072-16.700581 6.640072-11.771152 0-22.638265-9.657208-22.638265-21.6300118v-18.6128747c0-11.9719559 9.65975-21.6308587 21.631705-21.6308587 11.971956 0 21.630859 9.6589028 21.630859 21.6308587zm-10.06051-5.0302549v-2.0122709c0-6.4392685-5.131928-11.5695017-11.570349-11.5695017-6.439268 0-11.570348 5.1302332-11.570348 11.5695017v2.0122709zm60.30519 5.0302549c0 2.7172024-2.3139 5.030255-5.030255 5.030255h-28.170105v6.5400939c0 6.0359674 5.835163 11.5695018 12.576061 11.5695018 4.023696 0 7.244177-1.307341 9.758881-3.822892 1.106537-1.5098395 2.413878-2.3139004 4.024543-2.3139004 2.716354 0 5.231905 2.3139004 5.231905 5.0294074 0 2.013118-1.106537 3.32046-2.314747 4.527823-4.124522 4.426996-9.758034 6.640072-16.700582 6.640072-11.771153 0-22.638265-9.657208-22.638265-21.6300118v-18.6128747c0-11.9719559 9.65975-21.6308587 21.631706-21.6308587 11.972802 0 21.630858 9.6589028 21.630858 21.6308587zm-10.060509-5.0302549v-2.0122709c0-6.4392685-5.131928-11.5695017-11.570349-11.5695017-6.439269 0-11.569502 5.1302332-11.569502 11.5695017v2.0122709z"></path><path d="m38.5508838 107.039028c0 3.822045-3.097627 6.919672-6.9196718 6.919672-3.8211974 0-6.9188245-3.097627-6.9188245-6.919672s3.0976271-6.919672 6.9188245-6.919672c3.8220448 0 6.9196718 3.097627 6.9196718 6.919672"></path><path d="m67.6407026 107.039028c0 3.822045-3.0984743 6.919672-6.9196718 6.919672s-6.9188246-3.097627-6.9188246-6.919672 3.0976271-6.919672 6.9188246-6.919672 6.9196718 3.097627 6.9196718 6.919672"></path><path d="m63.2632711 93.2005321h-34.1730284c-2.7443146 0-5.217502-1.6538756-6.2647305-4.1906087l-9.0014195-21.7926873h-7.04591533c-3.74324846 0-6.77817737-3.0349289-6.77817737-6.7781773 0-3.7432485 3.03492891-6.7781774 6.77817737-6.7781774h11.57966873c2.7443146 0 5.217502 1.6547226 6.2647304 4.1906082l9.0014196 21.7926877h25.150427l9.2623797-21.8503022c1.4615444-3.4475505 5.439487-5.0539785 8.8870372-3.5958231 3.4458562 1.4615444 5.0556733 5.4394873 3.5949763 8.8861905l-11.0145382 25.9832953c-1.0624794 2.5053844-3.5195688 4.1329943-6.241007 4.1329943"></path></g><g fill="#9c0"><path d="m70.8353425 31.173346c-2.5935-2.7011036-6.8840862-2.7875254-9.5843425-.1940253l-8.4379836 8.1016165v-32.30225148c0-3.74409572-3.0340817-6.77817736-6.7781773-6.77817736-3.7432485 0-6.7781774 3.03408164-6.7781774 6.77817736v32.14381158l-8.1202565-7.910133c-2.6816164-2.6112928-6.9730499-2.5562201-9.58519.1262436-2.6121401 2.6816164-2.5562202 6.9730499.1253962 9.58519l19.6287544 19.1186965c.0898108.087269.1863999.1643708.2795998.245709.0491418.0432108.0965891.0881162.1474254.1304798.230458.1897891.470236.3626325.7184868.5176834.0347381.0211818.0720181.0406691.1076036.0626981.2440143.1457308.4948069.2753634.7515304.3880506.0237236.0101673.0440581.0245709.0677817.0347382.0160982.0067782.0321964.0118618.0474473.0177927.1542035.0643927.3101016.1194654.4676942.171149.0576145.0194873.1143818.0423636.1719963.0601564.1542035.0457526.3109488.0830326.4668469.1186181.0626982.0144036.124549.0330436.1872472.0449053.1567453.0313491.3143379.0516837.4719306.0711709.0626981.0076255.1237017.0211818.1863998.0262654.2118181.0211818.4236362.0313491.6354542.0313491.0067782 0 .0135563.0016946.0211818.0016946h.0008473c.0177927 0 .0364326-.0025419.0542254-.0025419.1982617-.0016945.3965234-.0101672.5930905-.0288072.1169236-.0110145.2329998-.0330436.3482289-.0499891.0974362-.0144035.1948725-.0245708.2914616-.0432109.1381053-.0262654.2745162-.0635454.4109269-.0982835.0720182-.0194873.1457309-.0330436.2169018-.0542254.1406471-.0415164.277058-.0923527.4151634-.143189.0660871-.0237236.133869-.0440581.1999561-.0711709.1313273-.0525308.2592654-.1143817.3880507-.1762326.0703236-.0330436.1414944-.0635454.2101235-.0991308.1169236-.0610036.230458-.1296327.3448398-.1982617.077949-.0466.1575926-.0906581.2338471-.1406472.0999781-.06524.1965671-.1381053.2940034-.2092762.0864218-.0635454.1736908-.1262436.2575708-.1940254.0847272-.068629.1660654-.143189.2482507-.2160543.0626982-.05592.1279381-.1059091.1889417-.1643709l19.9108958-19.1178492c2.7002564-2.5935001 2.7866786-6.8840864.1940253-9.5843428"></path><path d="m47.0818976 139.823631c-6.7908865 0-13.8740818-2.557067-21.4885168-7.670354-3.1077943-2.086832-3.9355792-6.297774-1.8487479-9.405569 2.0868313-3.106947 6.297774-3.934732 9.4064156-1.848747 11.8685886 7.970289 18.5747478 6.05037 25.5503396.371105 2.9036017-2.363043 7.1730062-1.926698 9.5360481.976904 2.3630426 2.903602 1.92585 7.173007-.977752 9.536049-6.5849993 5.360691-13.227613 8.040612-20.1777866 8.040612"></path></g></g></svg> 