<svg height="25.026" viewBox="0 0 20.031 25.026" width="20.031" xmlns="http://www.w3.org/2000/svg" xmlns:xlink="http://www.w3.org/1999/xlink"><path d="m68.826 21.633-1.433-16.133a.69.69 0 0 0 -.686-.629h-2.948a4.944 4.944 0 0 0 -9.888 0h-2.947a.686.686 0 0 0 -.686.629l-1.433 16.133c0 .02-.005.041-.005.061a3.566 3.566 0 0 0 3.756 3.332h12.519a3.566 3.566 0 0 0 3.756-3.332.249.249 0 0 0 -.005-.061zm-10.011-20.251a3.566 3.566 0 0 1 3.562 3.485h-7.123a3.566 3.566 0 0 1 3.561-3.485zm6.259 22.262h-12.518a2.2 2.2 0 0 1 -2.375-1.919l1.372-15.471h2.313v2.1a.691.691 0 1 0 1.382 0v-2.1h7.129v2.1a.691.691 0 1 0 1.382 0v-2.1h2.313l1.377 15.471a2.208 2.208 0 0 1 -2.374 1.919z" fill="currentColor" transform="translate(-48.8)"/></svg>
