<svg width="100%" height="100%" viewBox="0 0 512 512" version="1.1" xmlns="http://www.w3.org/2000/svg" xmlns:xlink="http://www.w3.org/1999/xlink" xml:space="preserve"  style="fill-rule:evenodd;clip-rule:evenodd;stroke-linejoin:round;stroke-miterlimit:2;">
    <g transform="matrix(18.3151,0,0,-18.3533,-16.8313,533.62)" fill="currentColor">
        <path d="M2,3.002C1.715,3 1.442,3.121 1.251,3.333C1.06,3.545 0.969,3.829 1,4.112L1.77,11.112C1.797,11.336 1.9,11.544 2.06,11.702L18.42,28.062C19.02,28.664 19.835,29.002 20.685,29.002C21.535,29.002 22.35,28.664 22.95,28.062L26.06,24.952C26.662,24.352 27,23.537 27,22.687C27,21.837 26.662,21.023 26.06,20.422L9.71,4.072C9.552,3.912 9.344,3.81 9.12,3.782L2.12,3.012L2,3.002ZM3.73,10.552L3.13,5.132L8.55,5.732L24.65,21.832C24.876,22.057 25.003,22.363 25.003,22.682C25.003,23.001 24.876,23.307 24.65,23.532L21.53,26.652C21.305,26.878 20.999,27.005 20.68,27.005C20.361,27.005 20.055,26.878 19.83,26.652L3.73,10.552Z" style="fill-rule:nonzero;"/>
    </g>
    <g transform="matrix(18.3151,0,0,-18.3533,-16.8313,315.135)" fill="currentColor">
        <path d="M23,5.888C22.734,5.886 22.479,5.991 22.29,6.178L16.08,12.408C15.691,12.8 15.692,13.434 16.083,13.825C16.474,14.216 17.107,14.217 17.5,13.828L23.73,7.598C23.919,7.41 24.026,7.154 24.026,6.888C24.026,6.621 23.919,6.366 23.73,6.178C23.536,5.986 23.273,5.881 23,5.888Z" style="fill-rule:nonzero;"/>
    </g>
    <g transform="matrix(12.9508,-12.9778,-12.9508,-12.9778,273.886,649.445)" fill="currentColor">
        <rect x="7.39" y="16.1" width="11.01" height="2"/>
    </g>
    <g transform="matrix(17.7456,2.1377e-16,-2.1377e-16,-16,-40.1047,943)" fill="currentColor">
        <path d="M30,27L14.188,27C13.637,27.002 13.192,27.449 13.192,28C13.192,28.551 13.637,28.998 14.188,29L30,29C30.551,28.998 30.996,28.551 30.996,28C30.996,27.449 30.551,27.002 30,27Z" style="fill-rule:nonzero;"/>
    </g>
</svg>
