<svg height="19.175" viewBox="0 0 19.28 19.175" width="19.28" xmlns="http://www.w3.org/2000/svg"><path d="m369.18 160.127a1.051 1.051 0 0 1 -1.048 1.048h-4.925v-7.439h2.515l.367-2.882h-2.882v-1.834c0-.838.21-1.415 1.415-1.415h1.519v-2.62a17.157 17.157 0 0 0 -2.253-.1 3.5 3.5 0 0 0 -3.72 3.825v2.148h-2.515v2.882h2.515v7.439h-9.221a1.051 1.051 0 0 1 -1.048-1.048v-17.083a1.051 1.051 0 0 1 1.049-1.048h17.132a1.051 1.051 0 0 1 1.048 1.048v17.079z" fill="#0074c2" transform="translate(-349.9 -142)"/></svg>