<svg height="19.895" viewBox="0 0 17.865 19.895" width="17.865" xmlns="http://www.w3.org/2000/svg"><g fill="#0074c2"><path d="m43.723 2.791h-4.062v-.658a2.143 2.143 0 0 0 -2.148-2.133h-3.861a2.143 2.143 0 0 0 -2.152 2.133v.658h-4.058a.538.538 0 1 0 0 1.077h.979v12.648a2.892 2.892 0 0 0 2.9 2.879h8.526a2.892 2.892 0 0 0 2.9-2.879v-12.648h.979a.538.538 0 1 0 0-1.077zm-11.135-.658a1.062 1.062 0 0 1 1.064-1.057h3.862a1.062 1.062 0 0 1 1.064 1.057v.658h-5.99zm9.072 14.383a1.812 1.812 0 0 1 -1.814 1.8h-8.526a1.812 1.812 0 0 1 -1.814-1.8v-12.648h12.158v12.648z" stroke="#0075c5" stroke-width=".5" transform="translate(-26.65 .25)"/><g stroke="#0074c2" stroke-width=".7"><path d="m230.079 155.453c.21 0 .379-.227.379-.511v-9.031c0-.284-.168-.511-.379-.511s-.379.227-.379.511v9.027c0 .284.168.515.379.515z" transform="translate(-220.997 -138.687)"/><path d="m141.979 168.874a.448.448 0 0 0 .379-.5v-7.674a.393.393 0 1 0 -.757 0v7.681a.45.45 0 0 0 .378.493z" transform="translate(-136.355 -152.766)"/><path d="m318.179 168.874a.448.448 0 0 0 .379-.5v-7.674a.393.393 0 1 0 -.757 0v7.681a.448.448 0 0 0 .378.493z" transform="translate(-305.639 -152.766)"/></g></g></svg>