<svg height="19.175" viewBox="0 0 19.227 19.175" width="19.227" xmlns="http://www.w3.org/2000/svg"><path d="m1009.722 142.1h-14.617a2.281 2.281 0 0 0 -2.305 2.253v14.669a2.281 2.281 0 0 0 2.305 2.253h14.617a2.281 2.281 0 0 0 2.305-2.253v-14.669a2.352 2.352 0 0 0 -2.305-2.253zm-3.143 3.039a.581.581 0 0 1 .576-.576h1.781a.581.581 0 0 1 .576.576v1.781a.581.581 0 0 1 -.576.576h-1.781a.581.581 0 0 1 -.576-.576zm-4.191 2.934a3.668 3.668 0 1 1 0 7.335 3.667 3.667 0 1 1 0-7.335zm7.806 10.845a.581.581 0 0 1 -.576.576h-14.408a.582.582 0 0 1 -.576-.576v-9.011h2.41a3.765 3.765 0 0 0 -.419 1.834 5.868 5.868 0 0 0 11.736 0 2.929 2.929 0 0 0 -.472-1.834h2.41v9.011z" fill="#0074c2" transform="translate(-992.8 -142.1)"/></svg>