<?xml version="1.0" encoding="UTF-8" standalone="no"?>
<!DOCTYPE svg PUBLIC "-//W3C//DTD SVG 1.1//EN" "http://www.w3.org/Graphics/SVG/1.1/DTD/svg11.dtd">
<svg width="100%" height="100%" viewBox="0 0 24 24" version="1.1" xmlns="http://www.w3.org/2000/svg" xmlns:xlink="http://www.w3.org/1999/xlink" xml:space="preserve" xmlns:serif="http://www.serif.com/" style="fill-rule:evenodd;clip-rule:evenodd;stroke-linejoin:round;stroke-miterlimit:2;">
    <g transform="matrix(0.927085,0,0,0.952614,0.802548,0.234733)">
        <path d="M11.969,0C8.112,0 4.983,3.17 4.983,7.082C4.983,8.092 5.196,9.052 5.571,9.922L12.091,20.876L18.368,9.922C18.745,9.052 18.956,8.092 18.956,7.082C18.953,3.17 15.826,0 11.969,0ZM11.969,12.104C9.16,12.104 6.886,9.809 6.886,6.979C6.886,4.149 9.16,1.854 11.969,1.854C14.776,1.854 17.052,4.149 17.052,6.979C17.052,9.809 14.776,12.104 11.969,12.104ZM14.927,6.956C14.927,8.579 13.601,9.892 11.968,9.892C10.335,9.892 9.011,8.58 9.011,6.956C9.011,5.337 10.335,4.022 11.968,4.022C13.601,4.022 14.927,5.336 14.927,6.956Z" style="fill-rule:nonzero;"/>
        <g>
            <path d="M7.919,17.894C5.33,18.439 3.974,19.467 3.974,20.27C3.974,21.42 7.015,23.026 11.969,23.026C16.922,23.026 19.964,21.421 19.964,20.27C19.964,19.469 18.617,18.396 16.063,17.829L16.063,17.001C18.874,17.549 20.969,18.647 20.969,20.292C20.969,22.661 16.33,23.938 11.969,23.938C7.606,23.938 2.969,22.661 2.969,20.292C2.969,18.646 5.076,17.526 7.907,16.998L7.919,17.894Z" style="fill-rule:nonzero;stroke:black;stroke-width:1.06px;"/>
        </g>
    </g>
</svg>
