<svg height="52" viewBox="0 0 127 52" width="127" xmlns="http://www.w3.org/2000/svg"><g fill="#232323"><path d="m14.2753364 39.6363969c0 1.4152974-1.1470469 2.5623443-2.5623445 2.5623443-1.4149839 0-2.56203066-1.1470469-2.56203066-2.5623443 0-1.4152977 1.14704676-2.5623446 2.56203066-2.5623446 1.4152976 0 2.5623445 1.1470469 2.5623445 2.5623446"/><path d="m25.047254 39.6363969c0 1.4152974-1.1473605 2.5623443-2.5623444 2.5623443s-2.5620307-1.1470469-2.5620307-2.5623443c0-1.4152977 1.1470468-2.5623446 2.5620307-2.5623446s2.5623444 1.1470469 2.5623444 2.5623446"/><path d="m23.4262975 34.5120218h-12.6542228c-1.01621574 0-1.93203347-.6124277-2.31982063-1.5517763l-3.33321258-8.0698005h-2.60909224c-1.38611948 0-2.50994925-1.1238298-2.50994925-2.5099492 0-1.3861195 1.12382977-2.5099493 2.50994925-2.5099493h4.28793453c1.0162157 0 1.93203341.6127414 2.31982057 1.5517761l3.33321265 8.0698007h9.3131666l3.4298458-8.0911352c.5412077-1.276623 2.0142341-1.8714809 3.2908569-1.3315281 1.2759956.5412078 1.8721085 2.0142343 1.3312145 3.2905435l-4.0786675 9.6215765c-.3934346.9277402-1.3032912 1.5304418-2.3110358 1.5304418"/><path d="m26.2302245 11.5434448c-.9603692-1.0002148-2.5491671-1.0322166-3.5490681-.0718473l-3.124573 3.0000168v-11.96147681c0-1.38643322-1.1235161-2.50994924-2.5099493-2.50994924-1.3861195 0-2.5099492 1.12351602-2.5099492 2.50994924v11.90280681l-3.0069192-2.9291108c-.9929987-.9669579-2.5821103-.9465646-3.54938199.0467478-.96727169.9929987-.94656461 2.5821103.04643405 3.549382l7.26849924 7.0796255c.0332568.0323156.0690236.0608663.1035354.0909857.0181972.0160009.0357668.0326294.0545914.0483165.0853383.0702786.1741278.1342823.2660546.1916974.0128635.0078436.0266683.0150597.0398455.023217.0903582.053964.1832263.1019667.2782906.1436946.0087848.003765.0163147.0090986.0250995.0128635.0059611.00251.0119223.0043924.0175697.0065886.0571013.0238446.1148301.0442379.1731864.0633763.0213346.0072161.0423555.0156872.06369.0222758.0571013.0169421.1151439.0307468.1728728.0439241.023217.0053336.0461203.012236.0693373.0166284.0580426.0116085.1163989.0191384.1747552.0263545.0232171.0028237.0458066.0078436.0690236.009726.078436.0078436.1568719.0116085.2353078.0116085.0025099 0 .0050199.0006275.0078436.0006275h.0003137c.0065886 0 .013491-.0009412.0200796-.0009412.073416-.0006275.146832-.0037649.2196206-.0106673.0432966-.0040787.0862795-.012236.1289486-.0185109.0360805-.0053336.072161-.0090985.1079278-.0160009.0511402-.0097261.101653-.0235308.1521657-.0363943.0266682-.0072161.0539639-.012236.0803184-.0200796.0520814-.0153734.1025942-.034198.1537344-.0530226.024472-.0087849.0495715-.0163147.0740435-.0263545.0486302-.0194521.0960055-.0423554.1436945-.0652587.0260408-.012236.0523952-.0235308.0778085-.036708.0432966-.0225895.0853383-.0480028.1276936-.073416.0288645-.0172559.0583564-.0335706.0865933-.0520815.0370218-.0241582.0727885-.0511402.108869-.0774946.0320019-.0235308.0643175-.0467479.0953781-.0718473.0313744-.0254133.0614938-.0530227.0919269-.0800047.023217-.020707.0473753-.0392179.0699649-.0608662l7.3729758-7.0793119c.999901-.9603693 1.031903-2.5491672.0718472-3.5490682"/><path d="m17.4343584 51.7764879c-2.5146555 0-5.1375524-.9468783-7.95716663-2.8403213-1.15081172-.7727506-1.45733926-2.3320566-.68458864-3.4828683.7727506-1.150498 2.33205657-1.4570256 3.48318207-.6845886 4.3949211 2.9513865 6.8782021 2.2404435 9.4612536.1374197 1.0751996-.8750312 2.6561538-.7134532 3.5311848.3617464.8750312 1.0751996.7131395 2.6561539-.3620601 3.5311849-2.4384157 1.9850561-4.8981659 2.9774272-7.4718051 2.9774272"/><path d="m48.1055811 42.6457631c-2.3471162 0-5.1039816-1.0799056-6.2962075-2.8685582-.2604073-.3353919-.3724136-.7074919-.3724136-1.1175548 0-1.0055486.9315048-1.8626961 1.9370531-1.8626961.5217557 0 1.0061761.2604073 1.4902825.8198122.7451412.9308773 1.8256743 1.3782757 3.2412855 1.3782757 2.4961446 0 3.9490916-1.4529467 3.9490916-2.9805647 0-1.6389968-1.6393106-2.7568654-3.6880567-3.5020067-2.0490599-.7448274-4.2474617-1.4529467-5.7000949-3.2783073-.7078054-.931505-1.0805331-2.0487461-1.0805331-3.4273358 0-3.8373986 3.2039503-6.0728221 6.780628-6.0728221 2.384138 0 4.9919754 1.3039186 6.2958938 3.2786212.1863638.2980565.2980566.6331347.2980566 1.0428839 0 1.0431977-.8941696 1.8630098-1.9373672 1.8630098-.5587774 0-1.0428838-.2983702-1.4899684-.8941693-.7824768-1.0805332-1.8256744-1.6393107-3.1666148-1.6393107-1.9376809 0-3.0552358 1.0805331-3.0552358 2.4217872 0 1.3785897 1.6393106 2.309781 3.6883705 3.054922 2.0490597.7824767 4.2471479 1.5649535 5.7000946 3.5390284.7078057 1.0061761 1.0802196 2.1980882 1.0802196 3.6136994 0 3.9864271-3.5390286 6.6312859-7.6744838 6.6312859zm14.1467957 5.2685404c0 1.1574004-.8584027 1.866461-1.8661472 1.866461-1.0077447 0-1.8661474-.7090606-1.8661474-1.866461v-20.1555198c0-4.441669 3.5829525-8.0246215 8.0246215-8.0246215 4.4419828 0 8.0249353 3.5829525 8.0249353 8.0246215v6.9054977c0 4.4413552-3.5829525 8.0246215-8.0249353 8.0246215-1.6794698 0-3.0979048-.5226968-4.2923269-1.6047988zm0-13.2500221c0 2.3885304 1.9034827 4.2923269 4.2923269 4.2923269s4.2923269-1.9037965 4.2923269-4.2923269v-6.9054977c0-2.3888443-1.9034827-4.292327-4.2923269-4.292327s-4.2923269 1.9034827-4.2923269 4.292327zm26.6424837-9.6207922c-.4900675 0-.9415448-.1885601-1.3560001-.6027016l-.0752984-.0752985c-.7153357-.5647386-1.5056559-.8659325-2.4472007-.8659325-2.2216187 0-3.577305 1.5439326-3.577305 4.5938346v12.5390788c0 1.1674403-.8659326 1.8827758-1.8827757 1.8827758s-1.8827758-.7153355-1.8827758-1.8827758v-12.5390788c0-4.7067823 2.6734098-8.3593859 7.3428565-8.3593859 1.8068499 0 3.9908195.8282832 5.2338717 2.0710218.3764925.4141417.5647387.828597.5647387 1.3177234 0 1.0168432-.9035817 1.9207387-1.9201112 1.9207387zm19.4309605 5.3081974c0 1.0061761-.856834 1.8626961-1.862696 1.8626961h-10.431663v2.4217873c0 2.23511 2.1610662 4.2841696 4.657211 4.2841696 1.489968 0 2.682194-.4841064 3.613699-1.4156114.409436-.5590912.893856-.8568338 1.489969-.8568338 1.006176 0 1.937681.8568338 1.937681 1.8623823 0 .7454548-.410063 1.2295614-.857148 1.6766461-1.527304 1.6393105-3.6137 2.458809-6.184201 2.458809-4.3588409 0-8.382917-3.5760501-8.382917-8.0095618v-6.8923205c0-4.4331979 3.5769915-8.0098756 8.010189-8.0098756 4.433198 0 8.009876 3.5766777 8.009876 8.0098756zm-3.725392-1.8626961v-.745141c0-2.3844518-1.900346-4.2841697-4.284484-4.2841697-2.3844516 0-4.284483 1.8997179-4.284483 4.2841697v.745141zm22.330924 1.8626961c0 1.0061761-.856834 1.8626961-1.862696 1.8626961h-10.431349v2.4217873c0 2.23511 2.160752 4.2841696 4.656897 4.2841696 1.489969 0 2.682508-.4841064 3.613699-1.4156114.409749-.5590912.893856-.8568338 1.490283-.8568338 1.005862 0 1.937367.8568338 1.937367 1.8623823 0 .7454548-.40975 1.2295614-.857148 1.6766461-1.527304 1.6393105-3.613386 2.458809-6.184201 2.458809-4.358841 0-8.382917-3.5760501-8.382917-8.0095618v-6.8923205c0-4.4331979 3.576991-8.0098756 8.010189-8.0098756 4.433512 0 8.009876 3.5766777 8.009876 8.0098756zm-3.725392-1.8626961v-.745141c0-2.3844518-1.900346-4.2841697-4.284484-4.2841697-2.384451 0-4.284169 1.8997179-4.284169 4.2841697v.745141z"/></g></svg>