<svg xmlns="http://www.w3.org/2000/svg" viewBox="0 0 630 430" class="svg-logo" width="315" height="215" style="height: auto;"><rect rx="10" ry="10" width="100%" height="100%" fill="rgba(255, 255, 255, 1.0)"></rect><g data-element="wrapper" transform="translate(-189.00000000000327 -129.00000000000222) scale(1.6000000000000103)"><g><g data-element="icon" transform="scale(0.16191773173795196) translate(1101.4593206686131 1030.196617655193)"><path id="color_x5F_2_14_" fill="#00BFF3" d="M331.529,471.304c-48.234,6.846-94.734-6.728-130.752-34.117    c13.143-2.857,28.176-6.604,45.42-11.424c4.496,5.371,11.283,8.746,18.834,8.611c13.252-0.234,23.807-11.167,23.57-24.421    c-0.234-13.252-11.168-23.807-24.42-23.571c-12.348,0.22-22.34,9.727-23.461,21.74c-21.826,6.094-41.049,10.715-57.475,13.821    c-16.465-16.342-29.787-36.007-38.799-58.117c2.543-0.313,70.408-7.197,142.457-39.261c4.953,3.852,11.393,5.779,18.096,4.828    c13.123-1.862,22.252-14.01,20.389-27.134c-1.861-13.124-14.01-22.253-27.135-20.391c-12.912,1.833-21.934,13.628-20.445,26.508    c-43.535,18.727-95.648,32.761-140.313,37.683c-51.836,5.711-76.02-2.34-80.979-10.97c-2.316-4.034-14.328-27.795,57.203-54.233    c0.6-6.902,1.58-13.718,2.898-20.432c-39.586,12.331-99.764,42.87-76.109,83.86c7.115,12.328,27.732,25.518,84.848,21.414    c2.109,5.626,4.469,11.115,7.063,16.459c-50.898,23.804-29.072,50.695-22.865,55.274c5.543,4.085,31.967,13.195,67.756,4.274    c41.195,36.996,97.832,56.245,156.813,47.875c84.387-11.976,148.451-76.915,163.344-156.394c0.369-1.976,0.527-5.013-3.117-3.235    c-5.156,2.516-8.033,4.673-13.227,8.426c-3.57,2.578-5.15,5.88-5.492,7.087C457.207,410.109,402.258,461.267,331.529,471.304z     M251.684,410.606c-0.125-7.135,5.557-13.023,12.693-13.15c7.137-0.125,13.023,5.558,13.15,12.693    c0.125,7.137-5.557,13.024-12.693,13.15C257.699,423.426,251.813,417.743,251.684,410.606z M300.289,292.778    c7.098-0.74,13.451,4.416,14.191,11.515c0.74,7.1-4.416,13.453-11.514,14.192c-7.1,0.739-13.453-4.415-14.193-11.515    C288.033,299.872,293.189,293.518,300.289,292.778z M118.256,418.058c-2.744-6.897,10.832-14.774,22.891-19.887    c5.898,9.697,12.613,18.805,20.033,27.24C146.189,431.295,123.521,431.295,118.256,418.058z"></path> <path id="color_x5F_1_18_" fill="#273C7A" d="M558.557,219.227c-8.564-25.76-37.77-33.665-86.791-23.523    c-3.182-5.13-6.592-10.091-10.215-14.873c2.211-1.415,33.973-21.535,32.49-37.769c-0.654-7.173-3.768-12.979-9.623-16.742    c-19.131-12.29-63.242,3.082-74.387,7.287c-37.488-23.614-83.188-34.609-130.389-27.911    C173.805,120.716,99.918,219.04,114.939,324.878c0.158,1.116,1.104,3.154,3.83,3.37c2.842,0.227,8.164,0.438,10.994,0.114    c3.773-0.43,3.746-4.015,3.453-6.078c-13.588-95.76,53.262-184.721,149.021-198.311c57.871-8.212,113.252,12.961,151.021,52.132    c-7.602,4.191-49.738,27.856-92.617,43.036c-5.131-4.854-12.334-7.423-19.871-6.354c-13.123,1.863-22.252,14.012-20.389,27.135    c1.861,13.124,14.01,22.253,27.135,20.391c12.166-1.727,20.881-12.297,20.607-24.284c49.396-18.068,88.799-40.779,97.482-45.67    c18.068,23.284,37.248,63.602,36.678,106.596c-25.861,18.558-58.955,37.646-96.828,54.22c-5.166-5.787-13.033-8.973-21.291-7.801    c-13.123,1.861-22.252,14.01-20.389,27.134c1.861,13.123,14.01,22.252,27.133,20.39c11.461-1.627,19.873-11.098,20.58-22.214    c45.256-19.707,88.717-45.317,120.023-70.803C537.791,276.489,567.283,245.479,558.557,219.227z M325.484,249.405    c-7.1,0.738-13.453-4.416-14.193-11.514c-0.74-7.1,4.416-13.455,11.514-14.193c7.1-0.74,13.453,4.416,14.193,11.515    S332.582,248.666,325.484,249.405z M428.455,146.761c11.492-3.586,25.121-9.728,37.066-8.799    c21.174,1.646-10.428,25.153-15.914,28.587C443.049,159.427,435.975,152.814,428.455,146.761z M369.355,379.931    c-7.066,1.002-13.609-3.913-14.611-10.979c-1.004-7.065,3.912-13.608,10.979-14.611s13.609,3.914,14.611,10.979    C381.336,372.386,376.422,378.927,369.355,379.931z M500.213,283.245c-0.32-4.267-4.023-38.617-19.066-70.563    c25.291-4.619,53.961-5.471,59.891,12.369C545.139,237.39,529.604,259.177,500.213,283.245z"></path></g><text transform="translate(284.0390625 233)" fill="rgba(0, 0, 0, 1.0)" font-family="Flamenco" font-size="64" data-element="company-name" dx="0 0 0 0">RAQK</text></g></g></svg>
