<svg height="22.964" viewBox="0 0 22.964 22.964" width="22.964" xmlns="http://www.w3.org/2000/svg" xmlns:xlink="http://www.w3.org/1999/xlink"><clipPath><path d="m0 0h22.964v22.964h-22.964z"/></clipPath><g clip-path="url(#a)"><path d="m21.34 16.507a14.758 14.758 0 0 0 -3.6-2.163 19.579 19.579 0 0 1 -2.765-1.544 9.709 9.709 0 0 0 2.407-5.837 9.174 9.174 0 0 0 -.7-4.212c-.637-1.251-2.053-2.751-5.2-2.751s-4.564 1.5-5.2 2.751a9.164 9.164 0 0 0 -.7 4.212 9.7 9.7 0 0 0 2.407 5.837 19.483 19.483 0 0 1 -2.766 1.544 14.769 14.769 0 0 0 -3.6 2.163 7.059 7.059 0 0 0 -1.623 4.514 1.913 1.913 0 0 0 1.913 1.943h19.137a1.914 1.914 0 0 0 1.914-1.943 7.061 7.061 0 0 0 -1.624-4.514zm.051 4.878a.478.478 0 0 1 -.341.143h-19.137a.478.478 0 0 1 -.34-.143.485.485 0 0 1 -.138-.343 5.731 5.731 0 0 1 1.2-3.52 14.581 14.581 0 0 1 3.227-1.9 15.74 15.74 0 0 0 3.109-1.785l.969-.916-.84-1.027a8.306 8.306 0 0 1 -2.083-4.931 7.934 7.934 0 0 1 .549-3.563c.658-1.3 1.974-1.962 3.916-1.962s3.258.662 3.918 1.962a7.938 7.938 0 0 1 .55 3.566 8.3 8.3 0 0 1 -2.086 4.931l-.841 1.034.969.915a15.774 15.774 0 0 0 3.108 1.782 14.517 14.517 0 0 1 3.227 1.9 5.593 5.593 0 0 1 1.2 3.52.478.478 0 0 1 -.136.338z" fill="currentColor"/></g></svg>
