<svg height="75.682" viewBox="0 0 83.403 75.682" width="83.403" xmlns="http://www.w3.org/2000/svg"><g fill="#4c4c4c" transform="translate(0 -.492)"><path d="m260.629 187.751a1.223 1.223 0 0 0 1.728 0l2.386-2.386 2.386 2.386a1.222 1.222 0 0 0 1.728-1.728l-2.386-2.386 2.386-2.386a1.222 1.222 0 0 0 -1.728-1.728l-2.386 2.386-2.386-2.386a1.222 1.222 0 0 0 -1.728 1.728l2.386 2.386-2.386 2.386a1.221 1.221 0 0 0 0 1.728zm0 0" transform="translate(-217.874 -149.569)"/><path d="m209.009 136.975a17.771 17.771 0 1 0 0 25.132 17.656 17.656 0 0 0 0-25.132zm-23.4 1.728a15.326 15.326 0 0 1 25.53 15.2h-29.397a15.367 15.367 0 0 1 3.863-15.2zm21.676 21.676a15.347 15.347 0 0 1 -24.581-4.035h27.475a15.256 15.256 0 0 1 -2.898 4.034zm0 0" transform="translate(-149.567 -109.893)"/><path d="m198.452 144.413-14.743-14.743a24.182 24.182 0 1 0 -7.137 7.129l14.747 14.747a5.044 5.044 0 0 0 7.133-7.133zm-50.437-12.533a21.758 21.758 0 1 1 30.77 0 21.616 21.616 0 0 1 -30.77-.001zm48.709 17.939a2.6 2.6 0 0 1 -3.677 0l-14.472-14.472a24.22 24.22 0 0 0 1.938-1.74 24.791 24.791 0 0 0 1.74-1.936l14.47 14.47a2.6 2.6 0 0 1 .001 3.677zm0 0" transform="translate(-116.524 -76.847)"/><path d="m19.317 34.686h-16.874v-31.75h75.135v31.75h-3.105a1.222 1.222 0 1 0 0 2.443h4.327a1.222 1.222 0 0 0 1.222-1.222v-34.193a1.222 1.222 0 0 0 -1.222-1.222h-77.578a1.222 1.222 0 0 0 -1.222 1.222v34.193a1.222 1.222 0 0 0 1.222 1.222h18.1a1.222 1.222 0 1 0 0-2.443zm0 0"/><path d="m61.034 52.406a1.222 1.222 0 1 0 0 2.443h58.092a1.222 1.222 0 0 0 0-2.443zm0 0" transform="translate(-50.069 -43.457)"/></g></svg>