<svg height="16.451" viewBox="0 0 19.646 16.451" width="19.646" xmlns="http://www.w3.org/2000/svg"><path d="m883.165 145.014a7.288 7.288 0 0 1 -2.567 1 4.039 4.039 0 0 0 -2.934-1.31 4.093 4.093 0 0 0 -4.034 4.139 5.768 5.768 0 0 0 .1.943 11.344 11.344 0 0 1 -8.278-4.3 4.021 4.021 0 0 0 -.524 2.1 4.364 4.364 0 0 0 1.781 3.458 3.724 3.724 0 0 1 -1.834-.524v.052a4.06 4.06 0 0 0 3.248 4.034 3.377 3.377 0 0 1 -1.048.157 3.223 3.223 0 0 1 -.734-.052 4.11 4.11 0 0 0 3.772 2.881 7.908 7.908 0 0 1 -4.977 1.781 5.694 5.694 0 0 1 -.943-.052 11.283 11.283 0 0 0 6.182 1.834c7.387 0 11.474-6.287 11.474-11.736v-.524a7.793 7.793 0 0 0 1.991-2.148 7.191 7.191 0 0 1 -2.305.629 5.156 5.156 0 0 0 1.63-2.362z" fill="#0074c2" transform="translate(-864.2 -144.7)"/></svg>