<svg height="16.456" viewBox="0 0 19.244 16.456" width="19.244" xmlns="http://www.w3.org/2000/svg"><path d="m1138.151 145c-2.672-.1-4.453 1.415-5.449 4.453a3.457 3.457 0 0 1 1.415-.314c1 0 1.414.524 1.31 1.624a6.818 6.818 0 0 1 -1.31 2.881c-.786 1.257-1.415 1.886-1.834 1.886-.524 0-1-.943-1.415-2.882-.157-.576-.419-1.991-.786-4.348-.367-2.148-1.257-3.143-2.777-3.039a6.2 6.2 0 0 0 -2.829 1.729c-.943.838-1.834 1.624-2.777 2.462l.891 1.153a5.852 5.852 0 0 1 1.519-.891c.681 0 1.257 1.048 1.834 3.091.524 1.886 1.047 3.772 1.572 5.606.786 2.043 1.729 3.039 2.829 3.039 1.834 0 4.034-1.676 6.654-5.03 2.515-3.2 3.825-5.711 3.929-7.6.157-2.462-.786-3.72-2.776-3.82z" fill="#0074c2" transform="translate(-1121.7 -144.99)"/></svg>