<?xml version="1.0" encoding="UTF-8" standalone="no"?>
<svg width="684px" height="294px" viewBox="0 0 684 294" version="1.1" xmlns="http://www.w3.org/2000/svg" xmlns:xlink="http://www.w3.org/1999/xlink" xmlns:sketch="http://www.bohemiancoding.com/sketch/ns">
    <title>integrator-banner</title>
    <description>Created with Sketch (http://www.bohemiancoding.com/sketch)</description>
    <defs>
        <path d="M468.5,8.5 L494.5,35.5" id="path-1"></path>
        <path d="M26.5,8.5 L52.5,35.5" id="path-2"></path>
    </defs>
    <g id="Page-1" stroke="none" stroke-width="1" fill="none" fill-rule="evenodd" sketch:type="MSPage">
        <g id="Oval-1-+--+--copy" sketch:type="MSLayerGroup" transform="translate(251.000000, 99.000000)" stroke="#FFFFFF" stroke-dasharray="2">
            <path d="M179.66214,0.15063493 L179.662141,51.7259526 L91.0087891,102.993652 L1,51.7259526 L0.999999076,0.15063493" id="Polygon-1" sketch:type="MSShapeGroup"></path>
        </g>
        <g id="Oval-1-+--+-" sketch:type="MSLayerGroup" transform="translate(269.000000, 15.000000)" fill="#FFFFFF">
            <path d="M72.9999991,0.859374999 L144.5,42.3839746 L144.5,125.616025 L72.9999991,167.05396 L0.337859183,125.616025 L0.337859183,42.3839746 L72.9999991,0.859374999 Z M112.05625,76.2400568 C113.627083,73.8252841 114.533333,70.9879261 114.533333,67.9090909 C114.533333,59.397017 107.585417,52.4545455 99.0666667,52.4545455 C95.2,52.4545455 91.6958333,53.8430398 89.0375,56.1974432 C84.3854167,44.9083807 73.3291667,37 60.4,37 C43.3020833,37 29.4666667,50.8245739 29.4666667,67.9090909 C29.4666667,68.7542614 29.5270833,69.6598011 29.5875,70.5049716 C20.4041667,74.7911932 14,84.1484375 14,94.9545455 C14,109.865767 26.14375,122 41.0666667,122 L106.8,122 C119.608333,122 130,111.616477 130,98.8181818 C130,87.8309659 122.327083,78.6548295 112.05625,76.2400568 Z M112.05625,76.2400568" id="Polygon-1" sketch:type="MSShapeGroup"></path>
            <path d="M102,98.7272727 C102,98.1136364 101.497768,97.6363636 100.928571,97.6363636 L54.8571429,97.6363636 L54.8571429,91.0909091 C54.8571429,90.4772727 54.3549107,90 53.7857143,90 C53.5178571,90 53.2165179,90.1022727 53.015625,90.3068182 L42.3013393,101.215909 C42.1004464,101.420455 42,101.693182 42,102 C42,102.272727 42.1004464,102.545455 42.3013393,102.75 L52.9821429,113.659091 C53.2165179,113.863636 53.484375,114 53.7857143,114 C54.3883929,114 54.8571429,113.488636 54.8571429,112.909091 L54.8571429,106.363636 L100.928571,106.363636 C101.497768,106.363636 102,105.852273 102,105.272727 C102,105.272727 102,105.852273 102,105.272727 L102,98.7272727 Z M102,81 C102,80.7272727 101.899554,80.4204545 101.698661,80.2159091 L91.0178571,69.3409091 C90.7834821,69.1363636 90.515625,69 90.2142857,69 C89.6116071,69 89.1428571,69.4772727 89.1428571,70.0909091 L89.1428571,76.6363636 L43.0714286,76.6363636 C42.5022321,76.6363636 42,77.1477273 42,77.7272727 L42,84.2727273 C42,84.8522727 42.5022321,85.3636364 43.0714286,85.3636364 L89.1428571,85.3636364 L89.1428571,91.9090909 C89.1428571,92.4886364 89.6450893,93 90.2142857,93 C90.4821429,93 90.7834821,92.8977273 90.984375,92.6931818 L101.698661,81.7840909 C101.899554,81.5795455 102,81.2727273 102,81 C102,81 102,81.2727273 102,81 Z M102,81" id="" sketch:type="MSShapeGroup"></path>
        </g>
        <g id="Group" sketch:type="MSLayerGroup" transform="translate(187.000000, 33.000000)" fill="#FFFFFF">
            <path d="M7,18 L44,18 L44,27 L7,27 L7,27 L7,18 L7,18 Z M42.3775119,0 L8.59458932,0 L6.01521753,16.1800189 L6,28 L45,28 L45,16.1800189 L42.3775119,0 Z M42.3775119,0" id="Fill-1695" sketch:type="MSShapeGroup"></path>
            <path d="M39,21 L42,21 L42,24 L39,24 L39,24 L39,21 L39,21 Z M39,21" id="Fill-1696" sketch:type="MSShapeGroup"></path>
            <path d="M11,21 L14,21 L14,24 L11,24 L11,24 L11,21 L11,21 Z M11,21" id="Fill-1697" sketch:type="MSShapeGroup"></path>
            <path d="M16,21 L19,21 L19,24 L16,24 L16,24 L16,21 L16,21 Z M16,21" id="Fill-1698" sketch:type="MSShapeGroup"></path>
            <path d="M21,21 L24,21 L24,24 L21,24 L21,24 L21,21 L21,21 Z M21,21" id="Fill-1699" sketch:type="MSShapeGroup"></path>
            <path d="M44,30 L44,39 L7,39 L7,30 L44,30 Z M6,40 L45,40 L45,29 L6,29 L6,29 L6,40 L6,40 Z M6,40" id="Fill-1700" sketch:type="MSShapeGroup"></path>
            <path d="M39,32 L42,32 L42,35 L39,35 L39,35 L39,32 L39,32 Z M39,32" id="Fill-1701" sketch:type="MSShapeGroup"></path>
            <path d="M11,32 L14,32 L14,35 L11,35 L11,35 L11,32 L11,32 Z M11,32" id="Fill-1702" sketch:type="MSShapeGroup"></path>
            <path d="M16,32 L19,32 L19,35 L16,35 L16,35 L16,32 L16,32 Z M16,32" id="Fill-1703" sketch:type="MSShapeGroup"></path>
            <path d="M21,32 L24,32 L24,35 L21,35 L21,35 L21,32 L21,32 Z M21,32" id="Fill-1704" sketch:type="MSShapeGroup"></path>
            <path d="M39,44 L42,44 L42,47 L39,47 L39,47 L39,44 L39,44 Z M39,44" id="Fill-1705" sketch:type="MSShapeGroup"></path>
            <path d="M11,44 L14,44 L14,47 L11,47 L11,47 L11,44 L11,44 Z M11,44" id="Fill-1706" sketch:type="MSShapeGroup"></path>
            <path d="M16,44 L19,44 L19,47 L16,47 L16,47 L16,44 L16,44 Z M16,44" id="Fill-1707" sketch:type="MSShapeGroup"></path>
            <path d="M21,44 L24,44 L24,47 L21,47 L21,47 L21,44 L21,44 Z M21,44" id="Fill-1708" sketch:type="MSShapeGroup"></path>
            <path d="M44,42 L44,50 L7,50 L7,42 L44,42 Z M31.9877586,63.0977376 L27.5691516,63.0977376 L27.5691516,51.760181 L45.0932347,51.760181 L45.0932347,41 L5.90931348,41 L5.90931348,51.760181 L23.4283002,51.760181 L23.4283002,63.0977376 L19.007145,63.0977376 L19.007145,64.4099548 L0,64.4099548 L0,68.6615385 L19.007145,68.6615385 L19.007145,70 L31.9877586,70 L31.9877586,68.6615385 L82.7758789,68.6615391 L82.7758789,64.4099547 L31.9877586,64.4099548 L31.9877586,63.0977376 Z M31.9877586,63.0977376" id="Fill-1709" sketch:type="MSShapeGroup"></path>
        </g>
        <g id="Group-copy" sketch:type="MSLayerGroup" transform="translate(126.000000, 33.000000)" fill="#FFFFFF">
            <path d="M7,18 L44,18 L44,27 L7,27 L7,27 L7,18 L7,18 Z M42.3775119,0 L8.59458932,0 L6.01521753,16.1800189 L6,28 L45,28 L45,16.1800189 L42.3775119,0 Z M42.3775119,0" id="Fill-1695" sketch:type="MSShapeGroup"></path>
            <path d="M39,21 L42,21 L42,24 L39,24 L39,24 L39,21 L39,21 Z M39,21" id="Fill-1696" sketch:type="MSShapeGroup"></path>
            <path d="M11,21 L14,21 L14,24 L11,24 L11,24 L11,21 L11,21 Z M11,21" id="Fill-1697" sketch:type="MSShapeGroup"></path>
            <path d="M16,21 L19,21 L19,24 L16,24 L16,24 L16,21 L16,21 Z M16,21" id="Fill-1698" sketch:type="MSShapeGroup"></path>
            <path d="M21,21 L24,21 L24,24 L21,24 L21,24 L21,21 L21,21 Z M21,21" id="Fill-1699" sketch:type="MSShapeGroup"></path>
            <path d="M44,30 L44,39 L7,39 L7,30 L44,30 Z M6,40 L45,40 L45,29 L6,29 L6,29 L6,40 L6,40 Z M6,40" id="Fill-1700" sketch:type="MSShapeGroup"></path>
            <path d="M39,32 L42,32 L42,35 L39,35 L39,35 L39,32 L39,32 Z M39,32" id="Fill-1701" sketch:type="MSShapeGroup"></path>
            <path d="M11,32 L14,32 L14,35 L11,35 L11,35 L11,32 L11,32 Z M11,32" id="Fill-1702" sketch:type="MSShapeGroup"></path>
            <path d="M16,32 L19,32 L19,35 L16,35 L16,35 L16,32 L16,32 Z M16,32" id="Fill-1703" sketch:type="MSShapeGroup"></path>
            <path d="M21,32 L24,32 L24,35 L21,35 L21,35 L21,32 L21,32 Z M21,32" id="Fill-1704" sketch:type="MSShapeGroup"></path>
            <path d="M39,44 L42,44 L42,47 L39,47 L39,47 L39,44 L39,44 Z M39,44" id="Fill-1705" sketch:type="MSShapeGroup"></path>
            <path d="M11,44 L14,44 L14,47 L11,47 L11,47 L11,44 L11,44 Z M11,44" id="Fill-1706" sketch:type="MSShapeGroup"></path>
            <path d="M16,44 L19,44 L19,47 L16,47 L16,47 L16,44 L16,44 Z M16,44" id="Fill-1707" sketch:type="MSShapeGroup"></path>
            <path d="M21,44 L24,44 L24,47 L21,47 L21,47 L21,44 L21,44 Z M21,44" id="Fill-1708" sketch:type="MSShapeGroup"></path>
            <path d="M44,42 L44,50 L7,50 L7,42 L44,42 Z M31.9877586,63.0977376 L27.5691516,63.0977376 L27.5691516,51.760181 L45.0932347,51.760181 L45.0932347,41 L5.90931348,41 L5.90931348,51.760181 L23.4283002,51.760181 L23.4283002,63.0977376 L19.007145,63.0977376 L19.007145,64.4099548 L0,64.4099548 L0,68.6615385 L19.007145,68.6615385 L19.007145,70 L31.9877586,70 L31.9877586,68.6615385 L82.7758789,68.6615391 L82.7758789,64.4099547 L31.9877586,64.4099548 L31.9877586,63.0977376 Z M31.9877586,63.0977376" id="Fill-1709" sketch:type="MSShapeGroup"></path>
        </g>
        <g id="Group-copy-2" sketch:type="MSLayerGroup" transform="translate(64.000000, 33.000000)" fill="#FFFFFF">
            <path d="M7,18 L44,18 L44,27 L7,27 L7,27 L7,18 L7,18 Z M42.3775119,0 L8.59458932,0 L6.01521753,16.1800189 L6,28 L45,28 L45,16.1800189 L42.3775119,0 Z M42.3775119,0" id="Fill-1695" sketch:type="MSShapeGroup"></path>
            <path d="M39,21 L42,21 L42,24 L39,24 L39,24 L39,21 L39,21 Z M39,21" id="Fill-1696" sketch:type="MSShapeGroup"></path>
            <path d="M11,21 L14,21 L14,24 L11,24 L11,24 L11,21 L11,21 Z M11,21" id="Fill-1697" sketch:type="MSShapeGroup"></path>
            <path d="M16,21 L19,21 L19,24 L16,24 L16,24 L16,21 L16,21 Z M16,21" id="Fill-1698" sketch:type="MSShapeGroup"></path>
            <path d="M21,21 L24,21 L24,24 L21,24 L21,24 L21,21 L21,21 Z M21,21" id="Fill-1699" sketch:type="MSShapeGroup"></path>
            <path d="M44,30 L44,39 L7,39 L7,30 L44,30 Z M6,40 L45,40 L45,29 L6,29 L6,29 L6,40 L6,40 Z M6,40" id="Fill-1700" sketch:type="MSShapeGroup"></path>
            <path d="M39,32 L42,32 L42,35 L39,35 L39,35 L39,32 L39,32 Z M39,32" id="Fill-1701" sketch:type="MSShapeGroup"></path>
            <path d="M11,32 L14,32 L14,35 L11,35 L11,35 L11,32 L11,32 Z M11,32" id="Fill-1702" sketch:type="MSShapeGroup"></path>
            <path d="M16,32 L19,32 L19,35 L16,35 L16,35 L16,32 L16,32 Z M16,32" id="Fill-1703" sketch:type="MSShapeGroup"></path>
            <path d="M21,32 L24,32 L24,35 L21,35 L21,35 L21,32 L21,32 Z M21,32" id="Fill-1704" sketch:type="MSShapeGroup"></path>
            <path d="M39,44 L42,44 L42,47 L39,47 L39,47 L39,44 L39,44 Z M39,44" id="Fill-1705" sketch:type="MSShapeGroup"></path>
            <path d="M11,44 L14,44 L14,47 L11,47 L11,47 L11,44 L11,44 Z M11,44" id="Fill-1706" sketch:type="MSShapeGroup"></path>
            <path d="M16,44 L19,44 L19,47 L16,47 L16,47 L16,44 L16,44 Z M16,44" id="Fill-1707" sketch:type="MSShapeGroup"></path>
            <path d="M21,44 L24,44 L24,47 L21,47 L21,47 L21,44 L21,44 Z M21,44" id="Fill-1708" sketch:type="MSShapeGroup"></path>
            <path d="M44,42 L44,50 L7,50 L7,42 L44,42 Z M31.9877586,63.0977376 L27.5691516,63.0977376 L27.5691516,51.760181 L45.0932347,51.760181 L45.0932347,41 L5.90931348,41 L5.90931348,51.760181 L23.4283002,51.760181 L23.4283002,63.0977376 L19.007145,63.0977376 L19.007145,64.4099548 L0,64.4099548 L0,68.6615385 L19.007145,68.6615385 L19.007145,70 L31.9877586,70 L31.9877586,68.6615385 L82.7758789,68.6615391 L82.7758789,64.4099547 L31.9877586,64.4099548 L31.9877586,63.0977376 Z M31.9877586,63.0977376" id="Fill-1709" sketch:type="MSShapeGroup"></path>
        </g>
        <g id="Group-copy-3" sketch:type="MSLayerGroup" transform="translate(1.000000, 33.000000)" fill="#FFFFFF">
            <path d="M7,18 L44,18 L44,27 L7,27 L7,27 L7,18 L7,18 Z M42.3775119,0 L8.59458932,0 L6.01521753,16.1800189 L6,28 L45,28 L45,16.1800189 L42.3775119,0 Z M42.3775119,0" id="Fill-1695" sketch:type="MSShapeGroup"></path>
            <path d="M39,21 L42,21 L42,24 L39,24 L39,24 L39,21 L39,21 Z M39,21" id="Fill-1696" sketch:type="MSShapeGroup"></path>
            <path d="M11,21 L14,21 L14,24 L11,24 L11,24 L11,21 L11,21 Z M11,21" id="Fill-1697" sketch:type="MSShapeGroup"></path>
            <path d="M16,21 L19,21 L19,24 L16,24 L16,24 L16,21 L16,21 Z M16,21" id="Fill-1698" sketch:type="MSShapeGroup"></path>
            <path d="M21,21 L24,21 L24,24 L21,24 L21,24 L21,21 L21,21 Z M21,21" id="Fill-1699" sketch:type="MSShapeGroup"></path>
            <path d="M44,30 L44,39 L7,39 L7,30 L44,30 Z M6,40 L45,40 L45,29 L6,29 L6,29 L6,40 L6,40 Z M6,40" id="Fill-1700" sketch:type="MSShapeGroup"></path>
            <path d="M39,32 L42,32 L42,35 L39,35 L39,35 L39,32 L39,32 Z M39,32" id="Fill-1701" sketch:type="MSShapeGroup"></path>
            <path d="M11,32 L14,32 L14,35 L11,35 L11,35 L11,32 L11,32 Z M11,32" id="Fill-1702" sketch:type="MSShapeGroup"></path>
            <path d="M16,32 L19,32 L19,35 L16,35 L16,35 L16,32 L16,32 Z M16,32" id="Fill-1703" sketch:type="MSShapeGroup"></path>
            <path d="M21,32 L24,32 L24,35 L21,35 L21,35 L21,32 L21,32 Z M21,32" id="Fill-1704" sketch:type="MSShapeGroup"></path>
            <path d="M39,44 L42,44 L42,47 L39,47 L39,47 L39,44 L39,44 Z M39,44" id="Fill-1705" sketch:type="MSShapeGroup"></path>
            <path d="M11,44 L14,44 L14,47 L11,47 L11,47 L11,44 L11,44 Z M11,44" id="Fill-1706" sketch:type="MSShapeGroup"></path>
            <path d="M16,44 L19,44 L19,47 L16,47 L16,47 L16,44 L16,44 Z M16,44" id="Fill-1707" sketch:type="MSShapeGroup"></path>
            <path d="M21,44 L24,44 L24,47 L21,47 L21,47 L21,44 L21,44 Z M21,44" id="Fill-1708" sketch:type="MSShapeGroup"></path>
            <path d="M44,42 L44,50 L7,50 L7,42 L44,42 Z M31.9877586,63.0977376 L27.5691516,63.0977376 L27.5691516,51.760181 L45.0932347,51.760181 L45.0932347,41 L5.90931348,41 L5.90931348,51.760181 L23.4283002,51.760181 L23.4283002,63.0977376 L19.007145,63.0977376 L19.007145,64.4099548 L0,64.4099548 L0,68.6615385 L19.007145,68.6615385 L19.007145,70 L31.9877586,70 L31.9877586,68.6615385 L82.7758789,68.6615391 L82.7758789,64.4099547 L31.9877586,64.4099548 L31.9877586,63.0977376 Z M31.9877586,63.0977376" id="Fill-1709" sketch:type="MSShapeGroup"></path>
        </g>
        <g id="Group-copy" sketch:type="MSLayerGroup" transform="translate(578.500000, 68.000000) scale(-1, 1) translate(-578.500000, -68.000000) translate(537.000000, 33.000000)" fill="#FFFFFF">
            <path d="M7,18 L44,18 L44,27 L7,27 L7,27 L7,18 L7,18 Z M42.3775119,0 L8.59458932,0 L6.01521753,16.1800189 L6,28 L45,28 L45,16.1800189 L42.3775119,0 Z M42.3775119,0" id="Fill-1695" sketch:type="MSShapeGroup"></path>
            <path d="M39,21 L42,21 L42,24 L39,24 L39,24 L39,21 L39,21 Z M39,21" id="Fill-1696" sketch:type="MSShapeGroup"></path>
            <path d="M11,21 L14,21 L14,24 L11,24 L11,24 L11,21 L11,21 Z M11,21" id="Fill-1697" sketch:type="MSShapeGroup"></path>
            <path d="M16,21 L19,21 L19,24 L16,24 L16,24 L16,21 L16,21 Z M16,21" id="Fill-1698" sketch:type="MSShapeGroup"></path>
            <path d="M21,21 L24,21 L24,24 L21,24 L21,24 L21,21 L21,21 Z M21,21" id="Fill-1699" sketch:type="MSShapeGroup"></path>
            <path d="M44,30 L44,39 L7,39 L7,30 L44,30 Z M6,40 L45,40 L45,29 L6,29 L6,29 L6,40 L6,40 Z M6,40" id="Fill-1700" sketch:type="MSShapeGroup"></path>
            <path d="M39,32 L42,32 L42,35 L39,35 L39,35 L39,32 L39,32 Z M39,32" id="Fill-1701" sketch:type="MSShapeGroup"></path>
            <path d="M11,32 L14,32 L14,35 L11,35 L11,35 L11,32 L11,32 Z M11,32" id="Fill-1702" sketch:type="MSShapeGroup"></path>
            <path d="M16,32 L19,32 L19,35 L16,35 L16,35 L16,32 L16,32 Z M16,32" id="Fill-1703" sketch:type="MSShapeGroup"></path>
            <path d="M21,32 L24,32 L24,35 L21,35 L21,35 L21,32 L21,32 Z M21,32" id="Fill-1704" sketch:type="MSShapeGroup"></path>
            <path d="M39,44 L42,44 L42,47 L39,47 L39,47 L39,44 L39,44 Z M39,44" id="Fill-1705" sketch:type="MSShapeGroup"></path>
            <path d="M11,44 L14,44 L14,47 L11,47 L11,47 L11,44 L11,44 Z M11,44" id="Fill-1706" sketch:type="MSShapeGroup"></path>
            <path d="M16,44 L19,44 L19,47 L16,47 L16,47 L16,44 L16,44 Z M16,44" id="Fill-1707" sketch:type="MSShapeGroup"></path>
            <path d="M21,44 L24,44 L24,47 L21,47 L21,47 L21,44 L21,44 Z M21,44" id="Fill-1708" sketch:type="MSShapeGroup"></path>
            <path d="M44,42 L44,50 L7,50 L7,42 L44,42 Z M31.9877586,63.0977376 L27.5691516,63.0977376 L27.5691516,51.760181 L45.0932347,51.760181 L45.0932347,41 L5.90931348,41 L5.90931348,51.760181 L23.4283002,51.760181 L23.4283002,63.0977376 L19.007145,63.0977376 L19.007145,64.4099548 L0,64.4099548 L0,68.6615385 L19.007145,68.6615385 L19.007145,70 L31.9877586,70 L31.9877586,68.6615385 L82.7758789,68.6615391 L82.7758789,64.4099547 L31.9877586,64.4099548 L31.9877586,63.0977376 Z M31.9877586,63.0977376" id="Fill-1709" sketch:type="MSShapeGroup"></path>
        </g>
        <g id="Group-copy-2" sketch:type="MSLayerGroup" transform="translate(639.500000, 68.000000) scale(-1, 1) translate(-639.500000, -68.000000) translate(598.000000, 33.000000)" fill="#FFFFFF">
            <path d="M7,18 L44,18 L44,27 L7,27 L7,27 L7,18 L7,18 Z M42.3775119,0 L8.59458932,0 L6.01521753,16.1800189 L6,28 L45,28 L45,16.1800189 L42.3775119,0 Z M42.3775119,0" id="Fill-1695" sketch:type="MSShapeGroup"></path>
            <path d="M39,21 L42,21 L42,24 L39,24 L39,24 L39,21 L39,21 Z M39,21" id="Fill-1696" sketch:type="MSShapeGroup"></path>
            <path d="M11,21 L14,21 L14,24 L11,24 L11,24 L11,21 L11,21 Z M11,21" id="Fill-1697" sketch:type="MSShapeGroup"></path>
            <path d="M16,21 L19,21 L19,24 L16,24 L16,24 L16,21 L16,21 Z M16,21" id="Fill-1698" sketch:type="MSShapeGroup"></path>
            <path d="M21,21 L24,21 L24,24 L21,24 L21,24 L21,21 L21,21 Z M21,21" id="Fill-1699" sketch:type="MSShapeGroup"></path>
            <path d="M44,30 L44,39 L7,39 L7,30 L44,30 Z M6,40 L45,40 L45,29 L6,29 L6,29 L6,40 L6,40 Z M6,40" id="Fill-1700" sketch:type="MSShapeGroup"></path>
            <path d="M39,32 L42,32 L42,35 L39,35 L39,35 L39,32 L39,32 Z M39,32" id="Fill-1701" sketch:type="MSShapeGroup"></path>
            <path d="M11,32 L14,32 L14,35 L11,35 L11,35 L11,32 L11,32 Z M11,32" id="Fill-1702" sketch:type="MSShapeGroup"></path>
            <path d="M16,32 L19,32 L19,35 L16,35 L16,35 L16,32 L16,32 Z M16,32" id="Fill-1703" sketch:type="MSShapeGroup"></path>
            <path d="M21,32 L24,32 L24,35 L21,35 L21,35 L21,32 L21,32 Z M21,32" id="Fill-1704" sketch:type="MSShapeGroup"></path>
            <path d="M39,44 L42,44 L42,47 L39,47 L39,47 L39,44 L39,44 Z M39,44" id="Fill-1705" sketch:type="MSShapeGroup"></path>
            <path d="M11,44 L14,44 L14,47 L11,47 L11,47 L11,44 L11,44 Z M11,44" id="Fill-1706" sketch:type="MSShapeGroup"></path>
            <path d="M16,44 L19,44 L19,47 L16,47 L16,47 L16,44 L16,44 Z M16,44" id="Fill-1707" sketch:type="MSShapeGroup"></path>
            <path d="M21,44 L24,44 L24,47 L21,47 L21,47 L21,44 L21,44 Z M21,44" id="Fill-1708" sketch:type="MSShapeGroup"></path>
            <path d="M44,42 L44,50 L7,50 L7,42 L44,42 Z M31.9877586,63.0977376 L27.5691516,63.0977376 L27.5691516,51.760181 L45.0932347,51.760181 L45.0932347,41 L5.90931348,41 L5.90931348,51.760181 L23.4283002,51.760181 L23.4283002,63.0977376 L19.007145,63.0977376 L19.007145,64.4099548 L0,64.4099548 L0,68.6615385 L19.007145,68.6615385 L19.007145,70 L31.9877586,70 L31.9877586,68.6615385 L82.7758789,68.6615391 L82.7758789,64.4099547 L31.9877586,64.4099548 L31.9877586,63.0977376 Z M31.9877586,63.0977376" id="Fill-1709" sketch:type="MSShapeGroup"></path>
        </g>
        <g id="Group-copy-2" sketch:type="MSLayerGroup" transform="translate(516.500000, 68.000000) scale(-1, 1) translate(-516.500000, -68.000000) translate(475.000000, 33.000000)" fill="#FFFFFF">
            <path d="M7,18 L44,18 L44,27 L7,27 L7,27 L7,18 L7,18 Z M42.3775119,0 L8.59458932,0 L6.01521753,16.1800189 L6,28 L45,28 L45,16.1800189 L42.3775119,0 Z M42.3775119,0" id="Fill-1695" sketch:type="MSShapeGroup"></path>
            <path d="M39,21 L42,21 L42,24 L39,24 L39,24 L39,21 L39,21 Z M39,21" id="Fill-1696" sketch:type="MSShapeGroup"></path>
            <path d="M11,21 L14,21 L14,24 L11,24 L11,24 L11,21 L11,21 Z M11,21" id="Fill-1697" sketch:type="MSShapeGroup"></path>
            <path d="M16,21 L19,21 L19,24 L16,24 L16,24 L16,21 L16,21 Z M16,21" id="Fill-1698" sketch:type="MSShapeGroup"></path>
            <path d="M21,21 L24,21 L24,24 L21,24 L21,24 L21,21 L21,21 Z M21,21" id="Fill-1699" sketch:type="MSShapeGroup"></path>
            <path d="M44,30 L44,39 L7,39 L7,30 L44,30 Z M6,40 L45,40 L45,29 L6,29 L6,29 L6,40 L6,40 Z M6,40" id="Fill-1700" sketch:type="MSShapeGroup"></path>
            <path d="M39,32 L42,32 L42,35 L39,35 L39,35 L39,32 L39,32 Z M39,32" id="Fill-1701" sketch:type="MSShapeGroup"></path>
            <path d="M11,32 L14,32 L14,35 L11,35 L11,35 L11,32 L11,32 Z M11,32" id="Fill-1702" sketch:type="MSShapeGroup"></path>
            <path d="M16,32 L19,32 L19,35 L16,35 L16,35 L16,32 L16,32 Z M16,32" id="Fill-1703" sketch:type="MSShapeGroup"></path>
            <path d="M21,32 L24,32 L24,35 L21,35 L21,35 L21,32 L21,32 Z M21,32" id="Fill-1704" sketch:type="MSShapeGroup"></path>
            <path d="M39,44 L42,44 L42,47 L39,47 L39,47 L39,44 L39,44 Z M39,44" id="Fill-1705" sketch:type="MSShapeGroup"></path>
            <path d="M11,44 L14,44 L14,47 L11,47 L11,47 L11,44 L11,44 Z M11,44" id="Fill-1706" sketch:type="MSShapeGroup"></path>
            <path d="M16,44 L19,44 L19,47 L16,47 L16,47 L16,44 L16,44 Z M16,44" id="Fill-1707" sketch:type="MSShapeGroup"></path>
            <path d="M21,44 L24,44 L24,47 L21,47 L21,47 L21,44 L21,44 Z M21,44" id="Fill-1708" sketch:type="MSShapeGroup"></path>
            <path d="M44,42 L44,50 L7,50 L7,42 L44,42 Z M31.9877586,63.0977376 L27.5691516,63.0977376 L27.5691516,51.760181 L45.0932347,51.760181 L45.0932347,41 L5.90931348,41 L5.90931348,51.760181 L23.4283002,51.760181 L23.4283002,63.0977376 L19.007145,63.0977376 L19.007145,64.4099548 L0,64.4099548 L0,68.6615385 L19.007145,68.6615385 L19.007145,70 L31.9877586,70 L31.9877586,68.6615385 L82.7758789,68.6615391 L82.7758789,64.4099547 L31.9877586,64.4099548 L31.9877586,63.0977376 Z M31.9877586,63.0977376" id="Fill-1709" sketch:type="MSShapeGroup"></path>
        </g>
        <g id="Group-copy-3" sketch:type="MSLayerGroup" transform="translate(453.500000, 68.000000) scale(-1, 1) translate(-453.500000, -68.000000) translate(412.000000, 33.000000)" fill="#FFFFFF">
            <path d="M7,18 L44,18 L44,27 L7,27 L7,27 L7,18 L7,18 Z M42.3775119,0 L8.59458932,0 L6.01521753,16.1800189 L6,28 L45,28 L45,16.1800189 L42.3775119,0 Z M42.3775119,0" id="Fill-1695" sketch:type="MSShapeGroup"></path>
            <path d="M39,21 L42,21 L42,24 L39,24 L39,24 L39,21 L39,21 Z M39,21" id="Fill-1696" sketch:type="MSShapeGroup"></path>
            <path d="M11,21 L14,21 L14,24 L11,24 L11,24 L11,21 L11,21 Z M11,21" id="Fill-1697" sketch:type="MSShapeGroup"></path>
            <path d="M16,21 L19,21 L19,24 L16,24 L16,24 L16,21 L16,21 Z M16,21" id="Fill-1698" sketch:type="MSShapeGroup"></path>
            <path d="M21,21 L24,21 L24,24 L21,24 L21,24 L21,21 L21,21 Z M21,21" id="Fill-1699" sketch:type="MSShapeGroup"></path>
            <path d="M44,30 L44,39 L7,39 L7,30 L44,30 Z M6,40 L45,40 L45,29 L6,29 L6,29 L6,40 L6,40 Z M6,40" id="Fill-1700" sketch:type="MSShapeGroup"></path>
            <path d="M39,32 L42,32 L42,35 L39,35 L39,35 L39,32 L39,32 Z M39,32" id="Fill-1701" sketch:type="MSShapeGroup"></path>
            <path d="M11,32 L14,32 L14,35 L11,35 L11,35 L11,32 L11,32 Z M11,32" id="Fill-1702" sketch:type="MSShapeGroup"></path>
            <path d="M16,32 L19,32 L19,35 L16,35 L16,35 L16,32 L16,32 Z M16,32" id="Fill-1703" sketch:type="MSShapeGroup"></path>
            <path d="M21,32 L24,32 L24,35 L21,35 L21,35 L21,32 L21,32 Z M21,32" id="Fill-1704" sketch:type="MSShapeGroup"></path>
            <path d="M39,44 L42,44 L42,47 L39,47 L39,47 L39,44 L39,44 Z M39,44" id="Fill-1705" sketch:type="MSShapeGroup"></path>
            <path d="M11,44 L14,44 L14,47 L11,47 L11,47 L11,44 L11,44 Z M11,44" id="Fill-1706" sketch:type="MSShapeGroup"></path>
            <path d="M16,44 L19,44 L19,47 L16,47 L16,47 L16,44 L16,44 Z M16,44" id="Fill-1707" sketch:type="MSShapeGroup"></path>
            <path d="M21,44 L24,44 L24,47 L21,47 L21,47 L21,44 L21,44 Z M21,44" id="Fill-1708" sketch:type="MSShapeGroup"></path>
            <path d="M44,42 L44,50 L7,50 L7,42 L44,42 Z M31.9877586,63.0977376 L27.5691516,63.0977376 L27.5691516,51.760181 L45.0932347,51.760181 L45.0932347,41 L5.90931348,41 L5.90931348,51.760181 L23.4283002,51.760181 L23.4283002,63.0977376 L19.007145,63.0977376 L19.007145,64.4099548 L0,64.4099548 L0,68.6615385 L19.007145,68.6615385 L19.007145,70 L31.9877586,70 L31.9877586,68.6615385 L82.7758789,68.6615391 L82.7758789,64.4099547 L31.9877586,64.4099548 L31.9877586,63.0977376 Z M31.9877586,63.0977376" id="Fill-1709" sketch:type="MSShapeGroup"></path>
        </g>
        <text id="HUB" fill="#FFFFFF" sketch:type="MSTextLayer" font-family="Variable" font-size="40" font-weight="bold" letter-spacing="4.29999828">
            <tspan x="299.28" y="293">HUB</tspan>
        </text>
        <text id="END-POINTS" fill="#FFFFFF" sketch:type="MSTextLayer" font-family="Variable" font-size="14" font-weight="bold" letter-spacing="4.29999828">
            <tspan x="504.098" y="12">END POINTS</tspan>
        </text>
        <text id="THIRD-PARTY-SERVICES" fill="#FFFFFF" sketch:type="MSTextLayer" font-family="Variable" font-size="12" font-weight="bold" letter-spacing="2.99999905">
            <tspan x="467.084" y="256">THIRD-PARTY SERVICES</tspan>
        </text>
        <g id="Line">
            <use stroke="#FFFFFF" stroke-width="1" stroke-linecap="square" stroke-dasharray="2" sketch:type="MSShapeGroup" transform="translate(481.500000, 22.000000) scale(-1, 1) translate(-481.500000, -22.000000) " xlink:href="#path-1"></use>
            <use stroke="none" xlink:href="#path-1"></use>
            <use stroke="none" xlink:href="#path-1"></use>
        </g>
        <path id="Line-decoration-1" d="M470.660961,6.4190749 C469.148288,7.87572247 467.851712,9.12427753 466.339039,10.5809251" stroke="#FFFFFF" stroke-linecap="square" stroke-dasharray="2"></path>
        <path d="M630.5,8.5 L656.5,35.5" id="Line-copy" stroke="#FFFFFF" stroke-linecap="square" stroke-dasharray="2" sketch:type="MSShapeGroup"></path>
        <path id="Line-copy-decoration-1" d="M632.660961,6.4190749 C631.148288,7.87572247 629.851712,9.12427753 628.339039,10.5809251" stroke="#FFFFFF" stroke-linecap="square" stroke-dasharray="2"></path>
        <path d="M523.245449,23.2442368 L541.6939,42.2836483" id="Line-copy" stroke="#FFFFFF" stroke-linecap="square" stroke-dasharray="2" sketch:type="MSShapeGroup" transform="translate(532.469675, 32.763943) scale(-1, 1) rotate(-316.000000) translate(-532.469675, -32.763943) "></path>
        <path id="Line-copy-decoration-1" d="M525.399943,21.1566165 C523.891797,22.6179507 522.599101,23.8705229 521.090956,25.3318571" stroke="#FFFFFF" stroke-linecap="square" stroke-dasharray="2"></path>
        <path d="M440.566788,122.570118 L491.433214,175.243847" id="Line-copy-2" stroke="#FFFFFF" stroke-linecap="square" stroke-dasharray="1" fill="#FFFFFF" sketch:type="MSShapeGroup" transform="translate(466.000001, 148.906983) scale(-1, 1) rotate(-316.000000) translate(-466.000001, -148.906983) "></path>
        <path id="Line-copy-2-decoration-1" d="M446.466805,132.998435 C444.596303,129.54994 442.993016,126.594086 441.122514,123.14559 C444.50363,125.135303 447.401729,126.840772 450.782844,128.830485" stroke="#FFFFFF" stroke-linecap="square" stroke-dasharray="1" fill="#FFFFFF"></path>
        <path d="M447.566788,123.048015 L498.433214,175.721744" id="Line-copy-3" stroke="#FFFFFF" stroke-linecap="square" stroke-dasharray="1" fill="#FFFFFF" sketch:type="MSShapeGroup" transform="translate(473.000001, 149.384880) scale(-1, 1) rotate(-316.000000) translate(-473.000001, -149.384880) "></path>
        <path id="Line-copy-3-decoration-1" d="M488.616518,169.874927 C491.997634,171.86464 494.895732,173.570109 498.276848,175.559822 C496.406346,172.111326 494.803059,169.155473 492.932557,165.706977" stroke="#FFFFFF" stroke-linecap="square" stroke-dasharray="1" fill="#FFFFFF"></path>
        <path d="M503.566788,122.570118 L554.433214,175.243847" id="Line-copy-3" stroke="#FFFFFF" stroke-linecap="square" stroke-dasharray="1" fill="#FFFFFF" sketch:type="MSShapeGroup" transform="translate(529.000001, 148.906983) scale(-1, 1) rotate(-316.000000) translate(-529.000001, -148.906983) "></path>
        <path id="Line-copy-3-decoration-1" d="M509.466805,132.998435 C507.596303,129.54994 505.993016,126.594086 504.122514,123.14559 C507.50363,125.135303 510.401729,126.840772 513.782844,128.830485" stroke="#FFFFFF" stroke-linecap="square" stroke-dasharray="1" fill="#FFFFFF"></path>
        <path d="M510.566788,123.048015 L561.433214,175.721744" id="Line-copy-4" stroke="#FFFFFF" stroke-linecap="square" stroke-dasharray="1" fill="#FFFFFF" sketch:type="MSShapeGroup" transform="translate(536.000001, 149.384880) scale(-1, 1) rotate(-316.000000) translate(-536.000001, -149.384880) "></path>
        <path id="Line-copy-4-decoration-1" d="M551.616518,169.874927 C554.997634,171.86464 557.895732,173.570109 561.276848,175.559822 C559.406346,172.111326 557.803059,169.155473 555.932557,165.706977" stroke="#FFFFFF" stroke-linecap="square" stroke-dasharray="1" fill="#FFFFFF"></path>
        <path d="M565.566788,122.570118 L616.433214,175.243847" id="Line-copy-4" stroke="#FFFFFF" stroke-linecap="square" stroke-dasharray="1" fill="#FFFFFF" sketch:type="MSShapeGroup" transform="translate(591.000001, 148.906983) scale(-1, 1) rotate(-316.000000) translate(-591.000001, -148.906983) "></path>
        <path id="Line-copy-4-decoration-1" d="M571.466805,132.998435 C569.596303,129.54994 567.993016,126.594086 566.122514,123.14559 C569.50363,125.135303 572.401729,126.840772 575.782844,128.830485" stroke="#FFFFFF" stroke-linecap="square" stroke-dasharray="1" fill="#FFFFFF"></path>
        <path d="M572.566788,123.048015 L623.433214,175.721744" id="Line-copy-5" stroke="#FFFFFF" stroke-linecap="square" stroke-dasharray="1" fill="#FFFFFF" sketch:type="MSShapeGroup" transform="translate(598.000001, 149.384880) scale(-1, 1) rotate(-316.000000) translate(-598.000001, -149.384880) "></path>
        <path id="Line-copy-5-decoration-1" d="M613.616518,169.874927 C616.997634,171.86464 619.895732,173.570109 623.276848,175.559822 C621.406346,172.111326 619.803059,169.155473 617.932557,165.706977" stroke="#FFFFFF" stroke-linecap="square" stroke-dasharray="1" fill="#FFFFFF"></path>
        <path d="M626.566788,122.570118 L677.433214,175.243847" id="Line-copy-5" stroke="#FFFFFF" stroke-linecap="square" stroke-dasharray="1" fill="#FFFFFF" sketch:type="MSShapeGroup" transform="translate(652.000001, 148.906983) scale(-1, 1) rotate(-316.000000) translate(-652.000001, -148.906983) "></path>
        <path id="Line-copy-5-decoration-1" d="M632.466805,132.998435 C630.596303,129.54994 628.993016,126.594086 627.122514,123.14559 C630.50363,125.135303 633.401729,126.840772 636.782844,128.830485" stroke="#FFFFFF" stroke-linecap="square" stroke-dasharray="1" fill="#FFFFFF"></path>
        <path d="M633.566788,123.048015 L684.433214,175.721744" id="Line-copy-6" stroke="#FFFFFF" stroke-linecap="square" stroke-dasharray="1" fill="#FFFFFF" sketch:type="MSShapeGroup" transform="translate(659.000001, 149.384880) scale(-1, 1) rotate(-316.000000) translate(-659.000001, -149.384880) "></path>
        <path id="Line-copy-6-decoration-1" d="M674.616518,169.874927 C677.997634,171.86464 680.895732,173.570109 684.276848,175.559822 C682.406346,172.111326 680.803059,169.155473 678.932557,165.706977" stroke="#FFFFFF" stroke-linecap="square" stroke-dasharray="1" fill="#FFFFFF"></path>
        <path d="M325.305725,209.143652 L359.916134,243.754061" id="Line-copy-2" stroke="#FFFFFF" stroke-linecap="square" stroke-dasharray="2" sketch:type="MSShapeGroup" transform="translate(342.805725, 226.143652) rotate(-316.000000) translate(-342.805725, -226.143652) "></path>
        <path id="Line-copy-2-decoration-1" d="M361.36817,240.963457 C359.883246,242.448381 358.610454,243.721173 357.125529,245.206097" stroke="#FFFFFF" stroke-linecap="square" stroke-dasharray="2"></path>
        <path d="M584.429245,23.5740047 L604.56284,44.4343486" id="Line-copy-2" stroke="#FFFFFF" stroke-linecap="square" stroke-dasharray="2" sketch:type="MSShapeGroup" transform="translate(594.496042, 34.004177) scale(-1, 1) rotate(-316.000000) translate(-594.496042, -34.004177) "></path>
        <path id="Line-copy-2-decoration-1" d="M586.587834,21.490619 C585.076822,22.948989 583.781669,24.1990204 582.270657,25.6573904" stroke="#FFFFFF" stroke-linecap="square" stroke-dasharray="2"></path>
        <text id="END-POINTS-copy" fill="#FFFFFF" sketch:type="MSTextLayer" font-family="Variable" font-size="14" font-weight="bold" letter-spacing="4.29999828">
            <tspan x="62.098" y="12">END POINTS</tspan>
        </text>
        <g id="Line-copy">
            <use stroke="#FFFFFF" stroke-width="1" stroke-linecap="square" stroke-dasharray="2" sketch:type="MSShapeGroup" transform="translate(39.500000, 22.000000) scale(-1, 1) translate(-39.500000, -22.000000) " xlink:href="#path-2"></use>
            <use stroke="none" xlink:href="#path-2"></use>
            <use stroke="none" xlink:href="#path-2"></use>
        </g>
        <path id="Line-copy-decoration-1" d="M28.6609606,6.4190749 C27.1482882,7.87572247 25.8517118,9.12427753 24.3390394,10.5809251" stroke="#FFFFFF" stroke-linecap="square" stroke-dasharray="2"></path>
        <path d="M188.5,8.5 L214.5,35.5" id="Line-copy-2" stroke="#FFFFFF" stroke-linecap="square" stroke-dasharray="2" sketch:type="MSShapeGroup"></path>
        <path id="Line-copy-2-decoration-1" d="M190.660961,6.4190749 C189.148288,7.87572247 187.851712,9.12427753 186.339039,10.5809251" stroke="#FFFFFF" stroke-linecap="square" stroke-dasharray="2"></path>
        <path d="M81.2454494,23.2442368 L99.6939003,42.2836483" id="Line-copy-2" stroke="#FFFFFF" stroke-linecap="square" stroke-dasharray="2" sketch:type="MSShapeGroup" transform="translate(90.469675, 32.763943) scale(-1, 1) rotate(-316.000000) translate(-90.469675, -32.763943) "></path>
        <path id="Line-copy-2-decoration-1" d="M83.3999427,21.1566165 C81.8917974,22.6179507 80.5991014,23.8705229 79.0909561,25.3318571" stroke="#FFFFFF" stroke-linecap="square" stroke-dasharray="2"></path>
        <path d="M142.429245,23.5740047 L162.56284,44.4343486" id="Line-copy-3" stroke="#FFFFFF" stroke-linecap="square" stroke-dasharray="2" sketch:type="MSShapeGroup" transform="translate(152.496042, 34.004177) scale(-1, 1) rotate(-316.000000) translate(-152.496042, -34.004177) "></path>
        <path id="Line-copy-3-decoration-1" d="M144.587834,21.490619 C143.076822,22.948989 141.781669,24.1990204 140.270657,25.6573904" stroke="#FFFFFF" stroke-linecap="square" stroke-dasharray="2"></path>
        <path d="M519.518555,205.75 L545.518555,232.75" id="Line-copy-2" stroke="#FFFFFF" stroke-linecap="square" stroke-dasharray="2" sketch:type="MSShapeGroup" transform="translate(532.518555, 219.250000) rotate(-316.000000) translate(-532.518555, -219.250000) "></path>
        <path id="Line-copy-2-decoration-1" d="M547.344258,230.320923 C545.831585,231.77757 544.535009,233.026125 543.022336,234.482773" stroke="#FFFFFF" stroke-linecap="square" stroke-dasharray="2"></path>
        <path d="M456.518555,205.75 L482.518555,232.75" id="Line-copy-3" stroke="#FFFFFF" stroke-linecap="square" stroke-dasharray="2" sketch:type="MSShapeGroup" transform="translate(469.518555, 219.250000) rotate(-316.000000) translate(-469.518555, -219.250000) "></path>
        <path id="Line-copy-3-decoration-1" d="M484.344258,230.320923 C482.831585,231.77757 481.535009,233.026125 480.022336,234.482773" stroke="#FFFFFF" stroke-linecap="square" stroke-dasharray="2"></path>
        <path d="M581.518555,205.75 L607.518555,232.75" id="Line-copy-3" stroke="#FFFFFF" stroke-linecap="square" stroke-dasharray="2" sketch:type="MSShapeGroup" transform="translate(594.518555, 219.250000) rotate(-316.000000) translate(-594.518555, -219.250000) "></path>
        <path id="Line-copy-3-decoration-1" d="M609.344258,230.320923 C607.831585,231.77757 606.535009,233.026125 605.022336,234.482773" stroke="#FFFFFF" stroke-linecap="square" stroke-dasharray="2"></path>
        <path d="M642.518555,205.75 L668.518555,232.75" id="Line-copy-4" stroke="#FFFFFF" stroke-linecap="square" stroke-dasharray="2" sketch:type="MSShapeGroup" transform="translate(655.518555, 219.250000) rotate(-316.000000) translate(-655.518555, -219.250000) "></path>
        <path id="Line-copy-4-decoration-1" d="M670.344258,230.320923 C668.831585,231.77757 667.535009,233.026125 666.022336,234.482773" stroke="#FFFFFF" stroke-linecap="square" stroke-dasharray="2"></path>
        <path d="M640.797457,229.489075 C634.289413,229.489075 629,224.205243 629,217.693478 C629,211.200319 634.289413,205.897882 640.797457,205.897882 C641.160255,205.897882 641.521193,205.916487 641.88027,205.953697 L642.698892,206.028117 L642.871919,205.228101 C644.05706,199.869849 648.898092,196 654.386579,196 C660.198794,196 665.086339,200.148924 666.01287,205.897882 L666.193339,207.014185 L667.251965,206.623479 C668.563621,206.158353 669.919928,205.897882 671.274375,205.897882 C677.778698,205.897882 683.073693,211.200319 683.073693,217.693478 C683.073693,224.205243 677.778698,229.489075 671.274375,229.489075 L640.797457,229.489075 Z M640.797457,229.489075" id="Path" fill="#FFFFFF" sketch:type="MSShapeGroup"></path>
        <path d="M578.797457,229.489075 C572.289413,229.489075 567,224.205243 567,217.693478 C567,211.200319 572.289413,205.897882 578.797457,205.897882 C579.160255,205.897882 579.521193,205.916487 579.88027,205.953697 L580.698892,206.028117 L580.871919,205.228101 C582.05706,199.869849 586.898092,196 592.386579,196 C598.198794,196 603.086339,200.148924 604.01287,205.897882 L604.193339,207.014185 L605.251965,206.623479 C606.563621,206.158353 607.919928,205.897882 609.274375,205.897882 C615.778698,205.897882 621.073693,211.200319 621.073693,217.693478 C621.073693,224.205243 615.778698,229.489075 609.274375,229.489075 L578.797457,229.489075 Z M578.797457,229.489075" id="Path-copy" fill="#FFFFFF" sketch:type="MSShapeGroup"></path>
        <path d="M516.797457,229.489075 C510.289413,229.489075 505,224.205243 505,217.693478 C505,211.200319 510.289413,205.897882 516.797457,205.897882 C517.160255,205.897882 517.521193,205.916487 517.88027,205.953697 L518.698892,206.028117 L518.871919,205.228101 C520.05706,199.869849 524.898092,196 530.386579,196 C536.198794,196 541.086339,200.148924 542.01287,205.897882 L542.193339,207.014185 L543.251965,206.623479 C544.563621,206.158353 545.919928,205.897882 547.274375,205.897882 C553.778698,205.897882 559.073693,211.200319 559.073693,217.693478 C559.073693,224.205243 553.778698,229.489075 547.274375,229.489075 L516.797457,229.489075 Z M516.797457,229.489075" id="Path-copy-2" fill="#FFFFFF" sketch:type="MSShapeGroup"></path>
        <path d="M454.797457,229.489075 C448.289413,229.489075 443,224.205243 443,217.693478 C443,211.200319 448.289413,205.897882 454.797457,205.897882 C455.160255,205.897882 455.521193,205.916487 455.88027,205.953697 L456.698892,206.028117 L456.871919,205.228101 C458.05706,199.869849 462.898092,196 468.386579,196 C474.198794,196 479.086339,200.148924 480.01287,205.897882 L480.193339,207.014185 L481.251965,206.623479 C482.563621,206.158353 483.919928,205.897882 485.274375,205.897882 C491.778698,205.897882 497.073693,211.200319 497.073693,217.693478 C497.073693,224.205243 491.778698,229.489075 485.274375,229.489075 L454.797457,229.489075 Z M454.797457,229.489075" id="Path-copy-3" fill="#FFFFFF" sketch:type="MSShapeGroup"></path>
        <text id="THIRD-PARTY-SERVICES-copy" fill="#FFFFFF" sketch:type="MSTextLayer" font-family="Variable" font-size="12" font-weight="bold" letter-spacing="2.99999905">
            <tspan x="24.084" y="256">THIRD-PARTY SERVICES</tspan>
        </text>
        <path d="M-2.43321227,122.570118 L48.4332138,175.243847" id="Line-copy-3" stroke="#FFFFFF" stroke-linecap="square" stroke-dasharray="1" fill="#FFFFFF" sketch:type="MSShapeGroup" transform="translate(23.000001, 148.906983) scale(-1, 1) rotate(-316.000000) translate(-23.000001, -148.906983) "></path>
        <path id="Line-copy-3-decoration-1" d="M3.46680519,132.998435 C1.5963035,129.54994 -0.00698381527,126.594086 -1.87748559,123.14559 C1.50362983,125.135303 4.40172867,126.840772 7.78284417,128.830485" stroke="#FFFFFF" stroke-linecap="square" stroke-dasharray="1" fill="#FFFFFF"></path>
        <path d="M4.56678773,123.048015 L55.4332138,175.721744" id="Line-copy-4" stroke="#FFFFFF" stroke-linecap="square" stroke-dasharray="1" fill="#FFFFFF" sketch:type="MSShapeGroup" transform="translate(30.000001, 149.384880) scale(-1, 1) rotate(-316.000000) translate(-30.000001, -149.384880) "></path>
        <path id="Line-copy-4-decoration-1" d="M45.6165181,169.874927 C48.9976335,171.86464 51.8957324,173.570109 55.2768478,175.559822 C53.4063461,172.111326 51.8030588,169.155473 49.9325571,165.706977" stroke="#FFFFFF" stroke-linecap="square" stroke-dasharray="1" fill="#FFFFFF"></path>
        <path d="M60.5667877,122.570118 L111.433214,175.243847" id="Line-copy-4" stroke="#FFFFFF" stroke-linecap="square" stroke-dasharray="1" fill="#FFFFFF" sketch:type="MSShapeGroup" transform="translate(86.000001, 148.906983) scale(-1, 1) rotate(-316.000000) translate(-86.000001, -148.906983) "></path>
        <path id="Line-copy-4-decoration-1" d="M66.4668052,132.998435 C64.5963035,129.54994 62.9930162,126.594086 61.1225144,123.14559 C64.5036298,125.135303 67.4017287,126.840772 70.7828442,128.830485" stroke="#FFFFFF" stroke-linecap="square" stroke-dasharray="1" fill="#FFFFFF"></path>
        <path d="M67.5667877,123.048015 L118.433214,175.721744" id="Line-copy-5" stroke="#FFFFFF" stroke-linecap="square" stroke-dasharray="1" fill="#FFFFFF" sketch:type="MSShapeGroup" transform="translate(93.000001, 149.384880) scale(-1, 1) rotate(-316.000000) translate(-93.000001, -149.384880) "></path>
        <path id="Line-copy-5-decoration-1" d="M108.616518,169.874927 C111.997634,171.86464 114.895732,173.570109 118.276848,175.559822 C116.406346,172.111326 114.803059,169.155473 112.932557,165.706977" stroke="#FFFFFF" stroke-linecap="square" stroke-dasharray="1" fill="#FFFFFF"></path>
        <path d="M122.566788,122.570118 L173.433214,175.243847" id="Line-copy-5" stroke="#FFFFFF" stroke-linecap="square" stroke-dasharray="1" fill="#FFFFFF" sketch:type="MSShapeGroup" transform="translate(148.000001, 148.906983) scale(-1, 1) rotate(-316.000000) translate(-148.000001, -148.906983) "></path>
        <path id="Line-copy-5-decoration-1" d="M128.466805,132.998435 C126.596303,129.54994 124.993016,126.594086 123.122514,123.14559 C126.50363,125.135303 129.401729,126.840772 132.782844,128.830485" stroke="#FFFFFF" stroke-linecap="square" stroke-dasharray="1" fill="#FFFFFF"></path>
        <path d="M129.566788,123.048015 L180.433214,175.721744" id="Line-copy-6" stroke="#FFFFFF" stroke-linecap="square" stroke-dasharray="1" fill="#FFFFFF" sketch:type="MSShapeGroup" transform="translate(155.000001, 149.384880) scale(-1, 1) rotate(-316.000000) translate(-155.000001, -149.384880) "></path>
        <path id="Line-copy-6-decoration-1" d="M170.616518,169.874927 C173.997634,171.86464 176.895732,173.570109 180.276848,175.559822 C178.406346,172.111326 176.803059,169.155473 174.932557,165.706977" stroke="#FFFFFF" stroke-linecap="square" stroke-dasharray="1" fill="#FFFFFF"></path>
        <path d="M183.566788,122.570118 L234.433214,175.243847" id="Line-copy-6" stroke="#FFFFFF" stroke-linecap="square" stroke-dasharray="1" fill="#FFFFFF" sketch:type="MSShapeGroup" transform="translate(209.000001, 148.906983) scale(-1, 1) rotate(-316.000000) translate(-209.000001, -148.906983) "></path>
        <path id="Line-copy-6-decoration-1" d="M189.466805,132.998435 C187.596303,129.54994 185.993016,126.594086 184.122514,123.14559 C187.50363,125.135303 190.401729,126.840772 193.782844,128.830485" stroke="#FFFFFF" stroke-linecap="square" stroke-dasharray="1" fill="#FFFFFF"></path>
        <path d="M190.566788,123.048015 L241.433214,175.721744" id="Line-copy-7" stroke="#FFFFFF" stroke-linecap="square" stroke-dasharray="1" fill="#FFFFFF" sketch:type="MSShapeGroup" transform="translate(216.000001, 149.384880) scale(-1, 1) rotate(-316.000000) translate(-216.000001, -149.384880) "></path>
        <path id="Line-copy-7-decoration-1" d="M231.616518,169.874927 C234.997634,171.86464 237.895732,173.570109 241.276848,175.559822 C239.406346,172.111326 237.803059,169.155473 235.932557,165.706977" stroke="#FFFFFF" stroke-linecap="square" stroke-dasharray="1" fill="#FFFFFF"></path>
        <path d="M76.5185547,205.75 L102.518555,232.75" id="Line-copy-3" stroke="#FFFFFF" stroke-linecap="square" stroke-dasharray="2" sketch:type="MSShapeGroup" transform="translate(89.518555, 219.250000) rotate(-316.000000) translate(-89.518555, -219.250000) "></path>
        <path id="Line-copy-3-decoration-1" d="M104.344258,230.320923 C102.831585,231.77757 101.535009,233.026125 100.022336,234.482773" stroke="#FFFFFF" stroke-linecap="square" stroke-dasharray="2"></path>
        <path d="M13.5185547,205.75 L39.5185547,232.75" id="Line-copy-4" stroke="#FFFFFF" stroke-linecap="square" stroke-dasharray="2" sketch:type="MSShapeGroup" transform="translate(26.518555, 219.250000) rotate(-316.000000) translate(-26.518555, -219.250000) "></path>
        <path id="Line-copy-4-decoration-1" d="M41.3442577,230.320923 C39.8315852,231.77757 38.5350088,233.026125 37.0223363,234.482773" stroke="#FFFFFF" stroke-linecap="square" stroke-dasharray="2"></path>
        <path d="M138.518555,205.75 L164.518555,232.75" id="Line-copy-4" stroke="#FFFFFF" stroke-linecap="square" stroke-dasharray="2" sketch:type="MSShapeGroup" transform="translate(151.518555, 219.250000) rotate(-316.000000) translate(-151.518555, -219.250000) "></path>
        <path id="Line-copy-4-decoration-1" d="M166.344258,230.320923 C164.831585,231.77757 163.535009,233.026125 162.022336,234.482773" stroke="#FFFFFF" stroke-linecap="square" stroke-dasharray="2"></path>
        <path d="M199.518555,205.75 L225.518555,232.75" id="Line-copy-5" stroke="#FFFFFF" stroke-linecap="square" stroke-dasharray="2" sketch:type="MSShapeGroup" transform="translate(212.518555, 219.250000) rotate(-316.000000) translate(-212.518555, -219.250000) "></path>
        <path id="Line-copy-5-decoration-1" d="M227.344258,230.320923 C225.831585,231.77757 224.535009,233.026125 223.022336,234.482773" stroke="#FFFFFF" stroke-linecap="square" stroke-dasharray="2"></path>
        <path d="M197.797457,229.489075 C191.289413,229.489075 186,224.205243 186,217.693478 C186,211.200319 191.289413,205.897882 197.797457,205.897882 C198.160255,205.897882 198.521193,205.916487 198.88027,205.953697 L199.698892,206.028117 L199.871919,205.228101 C201.05706,199.869849 205.898092,196 211.386579,196 C217.198794,196 222.086339,200.148924 223.01287,205.897882 L223.193339,207.014185 L224.251965,206.623479 C225.563621,206.158353 226.919928,205.897882 228.274375,205.897882 C234.778698,205.897882 240.073693,211.200319 240.073693,217.693478 C240.073693,224.205243 234.778698,229.489075 228.274375,229.489075 L197.797457,229.489075 Z M197.797457,229.489075" id="Path-copy" fill="#FFFFFF" sketch:type="MSShapeGroup"></path>
        <path d="M135.797457,229.489075 C129.289413,229.489075 124,224.205243 124,217.693478 C124,211.200319 129.289413,205.897882 135.797457,205.897882 C136.160255,205.897882 136.521193,205.916487 136.88027,205.953697 L137.698892,206.028117 L137.871919,205.228101 C139.05706,199.869849 143.898092,196 149.386579,196 C155.198794,196 160.086339,200.148924 161.01287,205.897882 L161.193339,207.014185 L162.251965,206.623479 C163.563621,206.158353 164.919928,205.897882 166.274375,205.897882 C172.778698,205.897882 178.073693,211.200319 178.073693,217.693478 C178.073693,224.205243 172.778698,229.489075 166.274375,229.489075 L135.797457,229.489075 Z M135.797457,229.489075" id="Path-copy-2" fill="#FFFFFF" sketch:type="MSShapeGroup"></path>
        <path d="M73.7974568,229.489075 C67.2894133,229.489075 62,224.205243 62,217.693478 C62,211.200319 67.2894133,205.897882 73.7974568,205.897882 C74.1602551,205.897882 74.521193,205.916487 74.8802703,205.953697 L75.6988921,206.028117 L75.871919,205.228101 C77.0570601,199.869849 81.8980919,196 87.3865792,196 C93.1987941,196 98.0863386,200.148924 99.0128696,205.897882 L99.1933385,207.014185 L100.251965,206.623479 C101.563621,206.158353 102.919928,205.897882 104.274375,205.897882 C110.778698,205.897882 116.073693,211.200319 116.073693,217.693478 C116.073693,224.205243 110.778698,229.489075 104.274375,229.489075 L73.7974568,229.489075 Z M73.7974568,229.489075" id="Path-copy-3" fill="#FFFFFF" sketch:type="MSShapeGroup"></path>
        <path d="M11.7974568,229.489075 C5.28941331,229.489075 5.68434189e-14,224.205243 5.68434189e-14,217.693478 C5.68434189e-14,211.200319 5.28941331,205.897882 11.7974568,205.897882 C12.1602551,205.897882 12.521193,205.916487 12.8802703,205.953697 L13.6988921,206.028117 L13.871919,205.228101 C15.0570601,199.869849 19.8980919,196 25.3865792,196 C31.1987941,196 36.0863386,200.148924 37.0128696,205.897882 L37.1933385,207.014185 L38.2519654,206.623479 C39.5636208,206.158353 40.9199283,205.897882 42.2743754,205.897882 C48.7786979,205.897882 54.0736927,211.200319 54.0736927,217.693478 C54.0736927,224.205243 48.7786979,229.489075 42.2743754,229.489075 L11.7974568,229.489075 Z M11.7974568,229.489075" id="Path-copy-4" fill="#FFFFFF" sketch:type="MSShapeGroup"></path>
    </g>
</svg>