<svg width="90" height="22" viewBox="0 0 90 22" fill="none" xmlns="http://www.w3.org/2000/svg">
<g clip-path="url(#clip0_367_126)">
<g clip-path="url(#clip1_367_126)">
<path d="M9.4315 17.5601C8.84419 17.5566 8.26133 17.4605 7.7055 17.2756C7.21004 17.1115 6.73485 16.8942 6.28867 16.6278C5.73766 16.3036 5.22849 15.9162 4.77203 15.4739V15.4739L5.08196 15.025C5.51956 15.2165 5.97105 15.3763 6.43275 15.5032C6.89275 15.6337 7.36036 15.7372 7.83307 15.8132C8.39734 15.9047 8.96829 15.9514 9.54032 15.9529C10.8834 15.9716 12.2096 15.6589 13.3953 15.044L13.7405 15.4937C13.2111 16.1132 12.5538 16.6173 11.8115 16.9733C11.0692 17.3293 10.2583 17.5292 9.4315 17.5601V17.5601ZM13.1244 13.7219C12.8366 13.7237 12.5588 13.6192 12.347 13.4295C12.2456 13.3413 12.1646 13.2333 12.1091 13.1125C12.0536 12.9918 12.0249 12.8609 12.0249 12.7286C12.0249 12.5963 12.0536 12.4654 12.1091 12.3446C12.1646 12.2239 12.2456 12.1159 12.347 12.0277C12.5605 11.8408 12.8374 11.7374 13.1244 11.7374C13.4114 11.7374 13.6884 11.8408 13.9019 12.0277C14.0032 12.1159 14.0842 12.2239 14.1397 12.3446C14.1952 12.4654 14.2239 12.5963 14.2239 12.7286C14.2239 12.8609 14.1952 12.9918 14.1397 13.1125C14.0842 13.2333 14.0032 13.3413 13.9019 13.4295C13.6902 13.619 13.4127 13.7235 13.1252 13.7219H13.1244ZM5.42792 13.7219C5.14204 13.7365 4.86182 13.6406 4.6482 13.4549C4.43459 13.2692 4.30486 13.0088 4.28725 12.7304C4.30486 12.452 4.43459 12.1917 4.6482 12.006C4.86182 11.8203 5.14204 11.7243 5.42792 11.7389C5.72435 11.7365 6.01129 11.8406 6.23389 12.0314C6.33849 12.1175 6.42255 12.2249 6.48021 12.3459C6.53787 12.467 6.56774 12.5988 6.56774 12.7323C6.56774 12.8657 6.53787 12.9975 6.48021 13.1186C6.42255 13.2396 6.33849 13.347 6.23389 13.4331C6.01093 13.6224 5.72435 13.7252 5.42867 13.7219H5.42792ZM5.85717 10.3657C5.59353 10.3658 5.33166 10.3238 5.08196 10.2414C4.84126 10.1623 4.61542 10.0455 4.41332 9.89551C4.21465 9.74885 4.04331 9.57003 3.90678 9.36685C3.76893 9.16231 3.67098 8.93475 3.61786 8.69559L2.3211 1.34763H0V9.30163e-06H2.80814C3.0131 -0.000888873 3.21278 0.0632818 3.37697 0.182813C3.53402 0.297195 3.64415 0.46231 3.68765 0.648595L4.05236 2.42105H15.2526C15.3824 2.41976 15.5109 2.44513 15.6299 2.49553C15.7488 2.54593 15.8556 2.62022 15.9431 2.71354C16.0263 2.80219 16.0868 2.90872 16.1198 3.02446C16.1528 3.14021 16.1573 3.26192 16.1329 3.37968L15.0088 8.68974C14.9556 8.93014 14.8574 9.15893 14.7191 9.36465C14.582 9.56854 14.4099 9.74788 14.2103 9.89478C14.0061 10.0455 13.778 10.1626 13.5349 10.2414C13.2819 10.324 13.0168 10.366 12.7499 10.3657H5.85867H5.85717ZM14.5142 3.86959H4.33678L5.15251 8.37971C5.17646 8.48605 5.23877 8.58049 5.32811 8.64587C5.42103 8.71358 5.53402 8.75002 5.65005 8.7497H5.6598H12.9976H13.0088C13.1246 8.75547 13.2388 8.72229 13.3324 8.65572C13.426 8.58915 13.4933 8.49325 13.5229 8.38409L14.5142 3.87397V3.86959Z" fill="url(#paint0_linear_367_126)"/>
<path d="M38.8165 22.0002H36.3934V2.69177H38.5614L38.8173 5.24224L38.821 5.28172H39.0619L39.0754 5.26198C39.3194 4.81659 39.628 4.40779 39.9917 4.04817C40.3534 3.69441 40.7656 3.39345 41.2157 3.15463C41.6861 2.9058 42.1886 2.71939 42.7098 2.60037C43.2756 2.47178 43.8548 2.40798 44.4358 2.41025C45.3352 2.39737 46.2274 2.56825 47.0548 2.91186C47.8145 3.2399 48.4832 3.73914 49.006 4.36844C49.5711 5.06286 49.9881 5.86042 50.2322 6.71417C50.5278 7.74546 50.6708 8.81258 50.6569 9.88325C50.6713 10.9633 50.5282 12.0399 50.2322 13.0808C49.9891 13.937 49.5722 14.7369 49.006 15.4332C48.4835 16.0618 47.8146 16.5599 47.0548 16.8861C46.2269 17.228 45.3349 17.3979 44.4358 17.3848C43.8392 17.3875 43.2443 17.3223 42.6633 17.1903C42.1393 17.0702 41.6344 16.8815 41.1624 16.6294C40.2669 16.1511 39.5398 15.4214 39.0754 14.5352L39.0627 14.5118H38.8173L38.8165 22.0002ZM43.7439 4.35016C43.0588 4.34358 42.378 4.45727 41.7342 4.68579C41.1539 4.8934 40.624 5.2158 40.1778 5.63271C39.7403 6.04531 39.3978 6.5438 39.173 7.09513C38.9318 7.6958 38.8111 8.33596 38.8173 8.98093V10.809C38.8109 11.4523 38.9317 12.0908 39.173 12.6896C39.3977 13.2389 39.7403 13.735 40.1778 14.1448C40.6251 14.5582 41.1552 14.8771 41.735 15.0814C42.3792 15.3072 43.0594 15.4196 43.7439 15.4134C44.9254 15.4651 46.0825 15.0742 46.9775 14.321C47.3783 13.9386 47.6922 13.4786 47.899 12.9706C48.1058 12.4626 48.201 11.918 48.1782 11.372V8.41936C48.2003 7.87133 48.1049 7.32483 47.8981 6.81471C47.6914 6.30458 47.3779 5.84201 46.9775 5.45648C46.0861 4.69578 44.9278 4.29949 43.7439 4.35016V4.35016ZM83.292 17.5807C82.2836 17.5933 81.2825 17.4124 80.3458 17.0484C79.4974 16.7102 78.7384 16.1898 78.1252 15.526C77.4921 14.8271 77.0139 14.0084 76.7204 13.1211C76.3827 12.0931 76.2172 11.0188 76.2304 9.93955C76.2167 8.86575 76.3822 7.79693 76.7204 6.77486C77.0127 5.89952 77.4903 5.09367 78.1222 4.40939C78.7356 3.75729 79.4924 3.24884 80.336 2.9221C82.1721 2.25619 84.1892 2.2355 86.0393 2.8636C86.8268 3.14579 87.5416 3.59197 88.1338 4.17101C88.7236 4.76 89.1759 5.4661 89.4598 6.24108C89.7784 7.12098 89.9354 8.04869 89.9236 8.98166C89.9264 9.47489 89.8993 9.96786 89.8426 10.458H78.7143V11.3464C78.708 11.9552 78.8203 12.5596 79.0453 13.1276C79.2537 13.646 79.5741 14.1146 79.9848 14.5016C80.4047 14.8921 80.9036 15.1929 81.4497 15.3849C82.0602 15.5974 82.7045 15.7028 83.3528 15.6964C84.3223 15.7157 85.276 15.4546 86.0934 14.9462C86.821 14.4802 87.3561 13.7786 87.604 12.9653H89.9994C89.7064 14.3264 88.8902 15.5267 87.7181 16.3201C87.4109 16.5288 87.0869 16.7129 86.7493 16.8707C86.408 17.0293 86.0541 17.1609 85.6911 17.2641C85.3143 17.3708 84.9297 17.4497 84.5407 17.5003C84.1275 17.5539 83.7111 17.5805 83.2942 17.58L83.292 17.5807ZM83.2657 4.29313C82.6396 4.28863 82.0171 4.38753 81.4249 4.58561C80.8941 4.76288 80.4048 5.04127 79.9856 5.40457C79.5827 5.75648 79.2629 6.1893 79.0483 6.67322C78.8226 7.19028 78.709 7.74713 78.7143 8.30895V8.74767H87.5282V8.14077C87.5334 7.60168 87.4283 7.06698 87.219 6.56793C87.0223 6.10531 86.7251 5.68972 86.3478 5.34973C85.9564 5.00316 85.4968 4.73772 84.997 4.56952C84.4404 4.38161 83.8548 4.28812 83.2657 4.29313V4.29313ZM67.463 17.58C66.4546 17.5926 65.4535 17.4117 64.5168 17.0477C63.6684 16.7097 62.9093 16.1892 62.2962 15.5253C61.6631 14.8264 61.1849 14.0076 60.8914 13.1203C60.5538 12.0924 60.3883 11.0181 60.4014 9.93882C60.3876 8.86502 60.5531 7.79618 60.8914 6.77413C61.1838 5.89879 61.6613 5.09294 62.2932 4.40866C62.9058 3.7572 63.6616 3.24903 64.504 2.9221C66.3402 2.25625 68.3572 2.23556 70.2073 2.8636C70.9945 3.14591 71.709 3.59207 72.3011 4.17101C72.8905 4.75909 73.3428 5.46418 73.6271 6.23815C73.9456 7.11806 74.1026 8.04576 74.0909 8.97874C74.0937 9.47197 74.0666 9.96493 74.0098 10.4551H62.8823V11.3435C62.876 11.9523 62.9883 12.5567 63.2133 13.1247C63.4215 13.6431 63.742 14.1118 64.1528 14.4987C64.5728 14.8891 65.0717 15.19 65.6177 15.382C66.2282 15.5945 66.8725 15.7 67.5208 15.6935C68.4903 15.7128 69.444 15.4517 70.2614 14.9432C70.9891 14.4774 71.5242 13.7757 71.772 12.9624H74.1674C73.8745 14.3234 73.0582 15.5237 71.8861 16.3172C71.2682 16.7375 70.5837 17.0561 69.8599 17.2605C69.483 17.3671 69.0985 17.4461 68.7095 17.4966C68.2963 17.5514 67.8799 17.5793 67.463 17.58V17.58ZM67.4345 4.29313C66.8083 4.2886 66.1859 4.3875 65.5937 4.58561C65.0629 4.76285 64.5736 5.04124 64.1543 5.40457C63.7513 5.75631 63.4315 6.18918 63.217 6.67322C62.9914 7.19028 62.8777 7.74713 62.8831 8.30895V8.74767H71.697V8.14077C71.7023 7.60167 71.5972 7.06695 71.3878 6.56793C71.1918 6.10548 70.8953 5.68989 70.5188 5.34973C70.1275 5.00303 69.6679 4.73757 69.168 4.56952C68.6107 4.38136 68.0243 4.28787 67.4345 4.29313V4.29313ZM28.3742 17.58C26.7749 17.6545 25.1966 17.2002 23.8956 16.2909C23.3814 15.8957 22.9676 15.3902 22.6866 14.8138C22.4084 14.2263 22.2648 13.5868 22.2656 12.9397H24.661C24.6578 13.3351 24.7489 13.7259 24.927 14.0812C25.1052 14.4364 25.3655 14.7466 25.6876 14.9871C26.4716 15.5248 27.4164 15.794 28.3742 15.7527C28.8561 15.758 29.3367 15.7022 29.8038 15.5867C30.1912 15.4915 30.5569 15.3266 30.8822 15.1005C31.1709 14.896 31.4047 14.6266 31.5636 14.3151C31.7243 13.9857 31.8052 13.6247 31.7999 13.26C31.8033 13.0017 31.7601 12.7448 31.6724 12.501C31.5892 12.2767 31.4585 12.0719 31.2889 11.8999C31.1059 11.7175 30.8906 11.5689 30.6533 11.4612C30.3716 11.3355 30.0749 11.2446 29.77 11.1907L26.5334 10.5998C25.9307 10.4988 25.3428 10.3269 24.7826 10.088C24.323 9.89395 23.9027 9.62157 23.5414 9.28365C23.216 8.96927 22.9637 8.5905 22.8014 8.17294C22.6317 7.71984 22.5483 7.24034 22.5553 6.75804C22.5468 6.13037 22.6824 5.50879 22.9523 4.93879C23.2144 4.40352 23.6017 3.93567 24.0832 3.57288C25.2852 2.75066 26.7339 2.34162 28.2008 2.41025C29.0107 2.40162 29.8174 2.50853 30.5955 2.7276C31.2497 2.91055 31.8613 3.21523 32.3965 3.6248C32.8811 4.007 33.2709 4.49077 33.537 5.04008C33.8031 5.5894 33.9386 6.19012 33.9334 6.79753H31.5373C31.4622 5.07918 30.3366 4.20757 28.2008 4.20757C27.7379 4.20235 27.2763 4.25593 26.8275 4.36698C26.4639 4.45585 26.1208 4.61064 25.8159 4.82325C25.5506 5.01441 25.3366 5.26529 25.1923 5.55447C25.0484 5.85151 24.9758 6.17658 24.98 6.50504C24.971 6.86478 25.059 7.22051 25.2351 7.53679C25.404 7.82303 25.6548 8.05504 25.957 8.20438V8.20438C26.4284 8.41905 26.9271 8.57151 27.4399 8.65773L30.4154 9.19225C31.0072 9.28653 31.5842 9.45412 32.1324 9.69094C32.5886 9.88863 33.0035 10.1665 33.3563 10.5106C33.6809 10.8358 33.931 11.2243 34.0903 11.6506C34.2598 12.1222 34.3429 12.6192 34.3357 13.1189C34.3447 13.7657 34.2017 14.406 33.9177 14.9908C33.639 15.5427 33.2304 16.0228 32.7252 16.3918C31.4447 17.2354 29.9182 17.6523 28.3742 17.58V17.58ZM55.2264 17.2985H52.8024V4.81594C52.7966 4.50062 52.8435 4.18648 52.9413 3.88584C53.0246 3.63789 53.1664 3.41248 53.3555 3.22775C53.5526 3.04442 53.7908 2.90824 54.0512 2.82997C54.3714 2.73363 54.7052 2.68699 55.0402 2.69177H60.2243V4.63095H55.2264V17.2985Z" fill="white"/>
</g>
</g>
<defs>
<linearGradient id="paint0_linear_367_126" x1="2.59989" y1="1.14141" x2="14.0435" y2="16.2557" gradientUnits="userSpaceOnUse">
<stop stop-color="#4BA5FF"/>
<stop offset="1" stop-color="#0FE770"/>
</linearGradient>
<clipPath id="clip0_367_126">
<rect width="90" height="22" fill="white"/>
</clipPath>
<clipPath id="clip1_367_126">
<rect width="90" height="22" fill="white"/>
</clipPath>
</defs>
</svg>
