<svg viewBox="0 0 512 512" xmlns="http://www.w3.org/2000/svg" fill-rule="evenodd" clip-rule="evenodd" stroke-linejoin="round" stroke-miterlimit="2">
  <path fill="currentColor" d="M266.301 245.224V37.293c0-5.682-4.603-10.285-10.286-10.285a10.283 10.283 0 00-10.285 10.285v207.931H37.799a10.283 10.283 0 00-10.286 10.286c0 5.682 4.603 10.285 10.286 10.285H245.73v207.931c0 5.683 4.603 10.286 10.285 10.286 2.842 0 5.408-1.146 7.274-3.012a10.243 10.243 0 003.012-7.274V265.795h207.931c2.841 0 5.408-1.146 7.273-3.011a10.243 10.243 0 003.012-7.274c0-5.683-4.603-10.286-10.285-10.286H266.301z" fill-rule="nonzero" stroke="currentColor" stroke-width="38"/>
</svg>
