<svg viewBox="0 0 2075 892" xmlns="http://www.w3.org/2000/svg" fill-rule="evenodd" clip-rule="evenodd" stroke-linejoin="round" stroke-miterlimit="2">
  <g fill-rule="nonzero" fill="currentColor">
    <path d="M774.897 704.867c-37.553 0-81.661-17.277-100.736-45.895-4.166-5.366-5.958-11.32-5.958-17.88 0-16.089 14.903-29.803 30.991-29.803 8.348 0 16.099 4.167 23.844 13.117 11.922 14.894 29.21 22.052 51.859 22.052 39.937 0 63.184-23.247 63.184-47.688 0-26.223-26.229-44.108-59.008-56.03-32.783-11.917-67.957-23.246-91.198-52.451-11.325-14.904-17.288-32.779-17.288-54.836 0-61.396 51.261-97.162 108.486-97.162 38.145 0 79.87 20.862 100.732 52.456 2.981 4.769 4.768 10.13 4.768 16.686 0 16.691-14.306 29.807-30.997 29.807-8.94 0-16.685-4.774-23.838-14.306-12.52-17.288-29.21-26.228-50.665-26.228-31.001 0-48.882 17.288-48.882 38.747 0 22.057 26.228 36.955 59.012 48.877 32.784 12.519 67.953 25.039 91.199 56.623 11.324 16.098 17.283 35.168 17.283 57.817 0 63.781-56.623 106.097-122.788 106.097zm226.342 84.294c0 18.518-13.734 29.863-29.858 29.863-16.123 0-29.857-11.345-29.857-29.863V466.683c0-71.064 57.325-128.389 128.39-128.389 71.069 0 128.395 57.325 128.395 128.389v110.485c0 71.059-57.326 128.39-128.395 128.39-26.871 0-49.565-8.363-68.675-25.676v109.279zm0-211.993c0 38.215 30.454 68.675 68.675 68.675 38.22 0 68.675-30.46 68.675-68.675V466.683c0-38.22-30.455-68.675-68.675-68.675-38.221 0-68.675 30.455-68.675 68.675v110.485zm426.266-153.928c-7.841 0-15.064-3.017-21.696-9.643l-1.204-1.205c-11.445-9.035-24.09-13.854-39.154-13.854-35.545 0-57.235 24.702-57.235 73.499v200.619c0 18.678-13.855 30.123-30.124 30.123s-30.123-11.445-30.123-30.123V472.037c0-75.306 42.773-133.746 117.482-133.746 28.908 0 63.851 13.252 83.739 33.135 6.024 6.626 9.036 13.257 9.036 21.083 0 16.269-14.457 30.731-30.721 30.731zm310.885 84.928c0 16.099-13.709 29.803-29.802 29.803h-166.901v38.747c0 35.761 34.576 68.545 74.513 68.545 23.839 0 42.914-7.746 57.817-22.649 6.551-8.946 14.301-13.709 23.839-13.709 16.098 0 31.002 13.709 31.002 29.797 0 11.927-6.561 19.672-13.714 26.825-24.436 26.228-57.818 39.34-98.944 39.34-69.739 0-134.123-57.215-134.123-128.149V466.444c0-70.928 57.23-128.154 128.159-128.154s128.154 57.226 128.154 128.154v41.724zm-59.604-29.802v-11.922c0-38.15-30.405-68.544-68.55-68.544-38.15 0-68.549 30.394-68.549 68.544v11.922h137.099zm357.283 29.802c0 16.099-13.709 29.803-29.802 29.803h-166.896v38.747c0 35.761 34.571 68.545 74.508 68.545 23.839 0 42.919-7.746 57.817-22.649 6.556-8.946 14.301-13.709 23.844-13.709 16.093 0 30.997 13.709 30.997 29.797 0 11.927-6.556 19.672-13.714 26.825-24.436 26.228-57.812 39.34-98.944 39.34-69.739 0-134.123-57.215-134.123-128.149V466.444c0-70.928 57.23-128.154 128.159-128.154 70.934 0 128.154 57.226 128.154 128.154v41.724zm-59.604-29.802v-11.922c0-38.15-30.405-68.544-68.55-68.544-38.15 0-68.544 30.394-68.544 68.544v11.922h137.094zM241.964 660.886c0 22.644-18.352 40.996-40.996 40.996-22.64 0-40.992-18.352-40.992-40.996 0-22.644 18.352-40.996 40.992-40.996 22.644 0 40.996 18.352 40.996 40.996M414.309 660.886c0 22.644-18.357 40.996-40.996 40.996-22.639 0-40.991-18.352-40.991-40.996 0-22.644 18.352-40.996 40.991-40.996s40.996 18.352 40.996 40.996M388.374 578.898H185.913a40.149 40.149 0 01-37.116-24.827L95.468 424.958H53.724c-22.178 0-40.158-17.981-40.158-40.158s17.98-40.158 40.158-40.158h68.604a40.156 40.156 0 0137.116 24.828l53.33 129.113H361.78l54.876-129.454c8.659-20.426 32.226-29.943 52.652-21.304 20.415 8.659 29.952 32.226 21.298 52.647l-65.256 153.94a40.164 40.164 0 01-36.976 24.486"/>
    <path d="M433.236 211.413c-15.366-16.003-40.786-16.515-56.783-1.15l-49.992 47.999V66.885c0-22.183-17.976-40.158-40.158-40.158-22.177 0-40.158 17.975-40.158 40.158v190.438l-48.109-46.864c-15.887-15.471-41.312-15.144-56.788.748-15.476 15.888-15.145 41.313.743 56.788l116.292 113.271c.532.517 1.104.974 1.656 1.455.292.256.573.523.874.774a40.237 40.237 0 004.257 3.067c.205.125.426.241.637.371a40.349 40.349 0 004.453 2.299c.14.06.261.146.401.206.096.04.191.07.281.105.914.382 1.837.708 2.771 1.014.342.116.678.251 1.019.357.914.271 1.842.492 2.766.702.372.086.738.196 1.109.267.929.185 1.863.306 2.796.421.372.045.733.126 1.105.156 1.255.125 2.51.186 3.765.186.04 0 .08.01.125.01h.005c.105 0 .216-.016.321-.016 1.175-.01 2.35-.06 3.514-.17.693-.065 1.381-.196 2.063-.296.578-.086 1.155-.146 1.727-.256.818-.156 1.626-.377 2.435-.583.426-.115.863-.195 1.285-.321.833-.246 1.641-.547 2.459-.848.392-.141.793-.261 1.185-.422.778-.311 1.536-.678 2.299-1.044.417-.196.838-.376 1.245-.587.693-.362 1.365-.768 2.043-1.175.462-.276.934-.537 1.385-.833.593-.387 1.165-.818 1.742-1.24.512-.377 1.029-.748 1.526-1.15.502-.406.984-.848 1.471-1.28.372-.331.758-.627 1.119-.973l117.964-113.266c15.998-15.365 16.51-40.785 1.15-56.783M292.506 855.121c-40.233 0-82.198-15.149-127.31-45.444-18.413-12.363-23.317-37.311-10.953-55.724 12.363-18.407 37.311-23.311 55.729-10.953 70.316 47.221 110.048 35.846 151.375 2.199 17.203-14 42.497-11.415 56.497 5.788 14 17.202 11.41 42.497-5.792 56.497-39.014 31.76-78.369 47.637-119.546 47.637"/>
  </g>
</svg>
