<?xml version="1.0" encoding="UTF-8" standalone="no"?><!DOCTYPE svg PUBLIC "-//W3C//DTD SVG 1.1//EN" "http://www.w3.org/Graphics/SVG/1.1/DTD/svg11.dtd"><svg width="100%" height="100%" viewBox="0 0 512 512" version="1.1" xmlns="http://www.w3.org/2000/svg" xmlns:xlink="http://www.w3.org/1999/xlink" xml:space="preserve"  style="fill-rule:evenodd;clip-rule:evenodd;stroke-linejoin:round;stroke-miterlimit:2;"><g><path d="M32,496c-4.567,0.028 -8.928,-1.897 -11.985,-5.29c-3.056,-3.393 -4.517,-7.931 -4.015,-12.47l14.4,-130.72c0.404,-3.636 2.041,-7.025 4.64,-9.6l305.28,-305.12c10.692,-10.758 25.233,-16.807 40.4,-16.807c15.167,0 29.708,6.049 40.4,16.807l58.88,58.08c10.758,10.692 16.807,25.233 16.807,40.4c0,15.167 -6.049,29.708 -16.807,40.4l-305.92,305.12c-2.575,2.599 -5.964,4.236 -9.6,4.64l-130.72,14.56l-1.76,0Zm29.76,-139.52l-11.68,105.44l105.44,-11.68l301.12,-301.28c9.719,-9.845 9.719,-25.675 0,-35.52l-58.08,-58.08c-9.845,-9.719 -25.675,-9.719 -35.52,0l-301.28,301.12Z" style="fill-rule:nonzero;"/><path d="M424.32,219.84c-4.197,-0.018 -8.22,-1.684 -11.2,-4.64l-116.32,-116.32c-6.182,-6.414 -6.016,-16.618 0.37,-22.828c6.387,-6.21 16.591,-6.09 22.83,0.268l115.68,115.68c6.204,6.241 6.204,16.319 0,22.56c-2.912,3.231 -7.013,5.137 -11.36,5.28Z" style="fill-rule:nonzero;"/><path d="M319.313,215.276l-145.268,145.268l-22.627,-22.627l145.268,-145.268l22.627,22.627Z"/></g></svg>
