<svg viewBox="0 0 512 512" xmlns="http://www.w3.org/2000/svg" fill-rule="evenodd" clip-rule="evenodd" stroke-linejoin="round" stroke-miterlimit="2">
  <g fill-rule="nonzero" stroke="currentColor" fill="currentColor">
    <path fill="currentColor" d="M272.238 93.53c0 36.41 29.62 66.03 66.03 66.03s66.03-29.62 66.03-66.03-29.62-66.03-66.03-66.03-66.03 29.62-66.03 66.03zm100.06 0c0 18.76-15.26 34.03-34.03 34.03-18.77 0-34.03-15.26-34.03-34.03 0-18.77 15.27-34.03 34.03-34.03s34.03 15.26 34.03 34.03zM338.268 322.03c36.41 0 66.03-29.62 66.03-66.03s-29.62-66.03-66.03-66.03-66.03 29.62-66.03 66.03 29.62 66.03 66.03 66.03zm0-100.06c18.76 0 34.03 15.26 34.03 34.03 0 18.77-15.26 34.03-34.03 34.03-18.77 0-34.03-15.26-34.03-34.03 0-18.77 15.27-34.03 34.03-34.03zM404.298 418.47c0-36.41-29.62-66.03-66.03-66.03s-66.03 29.62-66.03 66.03 29.62 66.03 66.03 66.03 66.03-29.62 66.03-66.03zm-100.06 0c0-18.76 15.26-34.03 34.03-34.03 18.77 0 34.03 15.26 34.03 34.03 0 18.77-15.27 34.03-34.03 34.03s-34.03-15.26-34.03-34.03zM106.174 93.53c0 36.41 29.62 66.03 66.03 66.03s66.03-29.62 66.03-66.03-29.62-66.03-66.03-66.03-66.03 29.62-66.03 66.03zm100.06 0c0 18.76-15.26 34.03-34.03 34.03-18.77 0-34.03-15.26-34.03-34.03 0-18.77 15.27-34.03 34.03-34.03s34.03 15.26 34.03 34.03zM172.204 322.03c36.41 0 66.03-29.62 66.03-66.03s-29.62-66.03-66.03-66.03-66.03 29.62-66.03 66.03 29.62 66.03 66.03 66.03zm0-100.06c18.76 0 34.03 15.26 34.03 34.03 0 18.77-15.26 34.03-34.03 34.03-18.77 0-34.03-15.26-34.03-34.03 0-18.77 15.27-34.03 34.03-34.03zM238.234 418.47c0-36.41-29.62-66.03-66.03-66.03s-66.03 29.62-66.03 66.03 29.62 66.03 66.03 66.03 66.03-29.62 66.03-66.03zm-100.06 0c0-18.76 15.26-34.03 34.03-34.03 18.77 0 34.03 15.26 34.03 34.03 0 18.77-15.27 34.03-34.03 34.03s-34.03-15.26-34.03-34.03z"/>
  </g>
</svg>
