<svg xmlns="http://www.w3.org/2000/svg" width="13.636" height="13.937">
  <g transform="rotate(180 4.318 6.968)" clip-path="url(#clip-path)">
    <path d="M6.873 12.809a.436.436 0 00.617 0 .438.438 0 000-.618L2.064 6.757 7.49 1.323a.437.437 0 00-.617-.618L1.128 6.448a.438.438 0 000 .618z" fill="#232323" stroke="#232323" stroke-width=".5"/>
  </g>
  <g data-name="left-arrow" transform="rotate(180 6.818 6.968)" clip-path="url(#clip-path)">
    <path d="M6.873 12.809a.436.436 0 00.617 0 .438.438 0 000-.618L2.064 6.757 7.49 1.323a.437.437 0 00-.617-.618L1.128 6.448a.438.438 0 000 .618z" fill="#232323" stroke="#232323" stroke-width=".5"/>
  </g>
</svg>
