<svg viewBox="0 0 512 512" xmlns="http://www.w3.org/2000/svg" fill-rule="evenodd" clip-rule="evenodd" stroke-linejoin="round" stroke-miterlimit="2">
  <path fill="currentColor" d="M340.885 108.212v-5.597c0-8.153-6.616-14.769-14.77-14.769H34.442c-8.154 0-14.769 6.616-14.769 14.769V370c0 8.154 6.615 14.769 14.769 14.769h60.94c6.476 22.659 27.137 39.385 51.849 39.385 24.711 0 45.372-16.726 51.848-39.385h151.784c6.476 22.659 27.137 39.385 51.849 39.385 24.711 0 45.372-16.726 51.848-39.385h19.575c.607 0 1.123-.275 1.711-.346.588.071 1.105.346 1.712.346 8.154 0 14.769-6.615 14.769-14.769V256.971c0-77.912-66.695-142.007-151.442-148.759zM462.22 247.125h-55.47c-14.154-3.875-17.019-29.221-17.019-68.692v-27.489c40.252 18.661 68.591 54.411 72.489 96.181zm-92.182-103.579v34.887c0 42.807 2.558 81.759 33.558 88.182a9.913 9.913 0 002 .202h57.192v88.414h-8.228c-6.476-22.659-27.137-39.385-51.848-39.385-24.712 0-45.373 16.726-51.849 39.385H199.079a53.769 53.769 0 00-11.057-20.462h138.093c3.966 0 7.331-2.369 8.892-5.743 3.487-2.703 5.878-6.738 5.878-11.488V137.806c10.101.957 19.83 2.952 29.153 5.74zm-58.692 171.531H49.212V117.385h262.134v197.692zM49.212 334.769h57.228a53.757 53.757 0 00-11.058 20.462h-46.17v-20.462zm98.019 59.846c-13.577 0-24.616-11.038-24.616-24.615 0-13.577 11.039-24.615 24.616-24.615 13.56 0 24.579 11.014 24.606 24.567 0 .017-.01.031-.01.048s.01.031.01.048c-.027 13.553-11.046 24.567-24.606 24.567zm255.481 0c-13.577 0-24.616-11.038-24.616-24.615 0-13.577 11.039-24.615 24.616-24.615 13.576 0 24.615 11.038 24.615 24.615 0 13.577-11.039 24.615-24.615 24.615z" fill-rule="nonzero" stroke="currentColor"/>
</svg>
