<svg viewBox="0 0 512 512" xmlns="http://www.w3.org/2000/svg" fill-rule="evenodd" clip-rule="evenodd" stroke-linejoin="round" stroke-miterlimit="2">
  <path fill="currentColor" d="M342.635 23.189a10 10 0 00-7.071 17.071l43.495 43.495a9.999 9.999 0 010 14.142l-71.139 71.139a10.001 10.001 0 000 14.142l27.028 27.028a9.997 9.997 0 0014.142 0l71.139-71.139a10.003 10.003 0 0114.143 0l43.494 43.495a10.002 10.002 0 0017.072-7.071V33.189c0-5.523-4.478-10-10-10H342.635zM183.803 40.25a9.995 9.995 0 00-7.067-17.061H34.414c-5.52 0-9.994 4.474-9.994 9.994v142.322a9.993 9.993 0 0017.06 7.067l43.51-43.509a9.994 9.994 0 0114.133 0l128.221 128.22a9.998 9.998 0 012.927 7.067v209.363a9.994 9.994 0 009.994 9.994h38.827a9.994 9.994 0 009.994-9.994V250.824a9.994 9.994 0 00-2.927-7.066L140.294 97.892a9.99 9.99 0 010-14.133l43.509-43.509z"/>
</svg>
