<svg viewBox="0 0 512 512" xmlns="http://www.w3.org/2000/svg" fill-rule="evenodd" clip-rule="evenodd" stroke-linejoin="round" stroke-miterlimit="2">
  <g fill-rule="nonzero">
    <path fill="currentColor"  d="M471.46 212.99l-42.07-7.92c-3.63-12.37-8.58-24.3-14.79-35.64l24.16-35.37c4.34-6.35 3.54-14.9-1.9-20.34l-38.58-38.58c-5.44-5.44-13.99-6.24-20.34-1.9L342.57 97.4a178.57 178.57 0 00-35.64-14.78l-7.92-42.07a16 16 0 00-15.72-13.04h-54.57A16 16 0 00213 40.55l-7.92 42.07c-12.37 3.63-24.3 8.58-35.64 14.78l-35.37-24.16c-6.35-4.34-14.9-3.54-20.34 1.9l-38.58 38.58a16.003 16.003 0 00-1.9 20.34l24.16 35.37a179.197 179.197 0 00-14.79 35.64l-42.07 7.92a16 16 0 00-13.04 15.72v54.57A16 16 0 0040.55 299l42.07 7.92c3.63 12.37 8.58 24.3 14.79 35.64l-24.16 35.37c-4.34 6.35-3.54 14.9 1.9 20.34l38.58 38.58c5.44 5.44 13.99 6.24 20.34 1.9l35.37-24.16a179.197 179.197 0 0035.64 14.79l7.92 42.07a16 16 0 0015.72 13.04h54.57a16 16 0 0015.72-13.04l7.92-42.07c12.37-3.63 24.3-8.58 35.64-14.79l35.37 24.16c6.35 4.34 14.9 3.54 20.34-1.9l38.58-38.58a16.003 16.003 0 001.9-20.34l-24.16-35.37a179.197 179.197 0 0014.79-35.64l42.07-7.92a16 16 0 0013.04-15.72v-54.57c0-7.69-5.48-14.29-13.04-15.72zm-18.96 57.02l-38.98 7.34a15.991 15.991 0 00-12.63 12.14c-3.69 16.02-10 31.25-18.77 45.25a15.992 15.992 0 00.35 17.51l22.39 32.78-19.82 19.82-32.78-22.39a15.973 15.973 0 00-17.51-.35 147.573 147.573 0 01-45.25 18.77 16.004 16.004 0 00-12.14 12.63l-7.34 38.98h-28.03l-7.34-38.98a15.991 15.991 0 00-12.14-12.63c-16.02-3.69-31.24-10-45.25-18.77a15.992 15.992 0 00-17.51.35l-32.78 22.39-19.82-19.82 22.39-32.78c3.59-5.25 3.72-12.12.35-17.51a147.573 147.573 0 01-18.77-45.25 16.004 16.004 0 00-12.63-12.14l-38.98-7.34v-28.03l38.98-7.34a15.991 15.991 0 0012.63-12.14c3.69-16.02 10-31.25 18.77-45.25a15.992 15.992 0 00-.35-17.51l-22.39-32.78 19.82-19.82 32.78 22.39a16.011 16.011 0 0017.51.35 147.573 147.573 0 0145.25-18.77c6.2-1.43 10.96-6.38 12.14-12.63l7.34-38.98h28.03l7.34 38.98a15.991 15.991 0 0012.14 12.63c16.02 3.69 31.24 10 45.25 18.77a15.992 15.992 0 0017.51-.35l32.78-22.39 19.82 19.82-22.39 32.78a15.992 15.992 0 00-.35 17.51 147.573 147.573 0 0118.77 45.25c1.43 6.2 6.38 10.96 12.63 12.14l38.98 7.34v28.03z"/>
    <path fill="currentColor"  d="M256 148.26c-59.41 0-107.74 48.33-107.74 107.74S196.59 363.74 256 363.74 363.74 315.41 363.74 256 315.41 148.26 256 148.26zm0 183.48c-41.76 0-75.74-33.98-75.74-75.74s33.98-75.74 75.74-75.74 75.74 33.98 75.74 75.74-33.98 75.74-75.74 75.74z"/>
  </g>
</svg>
