<?xml version="1.0" encoding="UTF-8"?>
<svg width="469px" height="504px" viewBox="0 0 469 504" version="1.1" xmlns="http://www.w3.org/2000/svg" xmlns:xlink="http://www.w3.org/1999/xlink">
    <title>Untitled</title>
    <g stroke="none" stroke-width="1" fill="none" fill-rule="evenodd">
        <g fill="currentColor" fill-rule="nonzero">
            <path d="M36.275,467.857 L117.25,467.857 L117.25,386.881 L36.275,386.881 L36.275,467.857 Z M135.244,467.857 L225.217,467.857 L225.217,386.881 L135.244,386.881 L135.244,467.857 L135.244,467.857 Z M36.275,368.887 L117.25,368.887 L117.25,278.914 L36.275,278.914 L36.275,368.887 Z M135.244,368.887 L225.217,368.887 L225.217,278.914 L135.244,278.914 L135.244,368.887 L135.244,368.887 Z M36.275,260.92 L117.25,260.92 L117.25,179.945 L36.275,179.945 L36.275,260.92 Z M243.211,467.857 L333.184,467.857 L333.184,386.881 L243.211,386.881 L243.211,467.857 Z M135.244,260.92 L225.217,260.92 L225.217,179.945 L135.244,179.945 L135.244,260.92 L135.244,260.92 Z M351.178,467.857 L432.153,467.857 L432.153,386.881 L351.178,386.881 L351.178,467.857 Z M243.211,368.887 L333.184,368.887 L333.184,278.914 L243.211,278.914 L243.211,368.887 Z M144.242,125.961 L144.242,44.986 C144.242,41.331 141.571,38.66 141.571,38.66 C138.899,35.989 135.244,35.989 135.244,35.989 L117.25,35.989 C113.595,35.989 110.924,38.66 110.924,38.66 C108.253,41.331 108.253,44.986 108.253,44.986 L108.253,125.961 C108.253,129.617 110.924,132.288 110.924,132.288 C113.595,134.959 117.25,134.959 117.25,134.959 L135.244,134.959 C138.899,134.959 141.571,132.288 141.571,132.288 C144.242,129.617 144.242,125.961 144.242,125.961 L144.242,125.961 Z M351.178,368.887 L432.153,368.887 L432.153,278.914 L351.178,278.914 L351.178,368.887 Z M243.211,260.92 L333.184,260.92 L333.184,179.945 L243.211,179.945 L243.211,260.92 Z M351.178,260.92 L432.153,260.92 L432.153,179.945 L351.178,179.945 L351.178,260.92 Z M360.175,125.961 L360.175,44.986 C360.175,41.331 357.504,38.66 357.504,38.66 C354.833,35.989 351.178,35.989 351.178,35.989 L333.184,35.989 C329.529,35.989 326.857,38.66 326.857,38.66 C324.186,41.331 324.186,44.986 324.186,44.986 L324.186,125.961 C324.186,129.617 326.857,132.288 326.857,132.288 C329.529,134.959 333.184,134.959 333.184,134.959 L351.178,134.959 C354.833,134.959 357.504,132.288 357.504,132.288 C360.175,129.617 360.175,125.961 360.175,125.961 L360.175,125.961 Z M468.142,107.967 L468.142,467.857 C468.142,482.477 457.458,493.161 457.458,493.161 C446.774,503.846 432.153,503.846 432.153,503.846 L36.275,503.846 C21.654,503.846 10.97,493.161 10.97,493.161 C0.286,482.477 0.286,467.857 0.286,467.857 L0.286,107.967 C0.286,93.346 10.97,82.662 10.97,82.662 C21.654,71.978 36.275,71.978 36.275,71.978 L72.264,71.978 L72.264,44.986 C72.264,26.429 85.478,13.215 85.478,13.215 C98.693,0 117.25,0 117.25,0 L135.244,0 C153.801,0 167.016,13.215 167.016,13.215 C180.231,26.429 180.231,44.986 180.231,44.986 L180.231,71.978 L288.197,71.978 L288.197,44.986 C288.197,26.429 301.412,13.215 301.412,13.215 C314.627,0 333.184,0 333.184,0 L351.178,0 C369.735,0 382.95,13.215 382.95,13.215 C396.164,26.429 396.164,44.986 396.164,44.986 L396.164,71.978 L432.153,71.978 C446.774,71.978 457.458,82.662 457.458,82.662 C468.142,93.346 468.142,107.967 468.142,107.967 Z"></path>
        </g>
    </g>
</svg>
