<svg viewBox="0 0 512 512" xmlns="http://www.w3.org/2000/svg" fill-rule="evenodd" clip-rule="evenodd" stroke-linejoin="round" stroke-miterlimit="2">
  <g fill-rule="nonzero" stroke="currentColor" stroke-width=".5">
    <path fill="currentColor" d="M132.923 364.308H34.462c-8.154 0-14.77 6.615-14.77 14.769v98.461c0 8.154 6.616 14.77 14.77 14.77h98.461c8.154 0 14.769-6.616 14.769-14.77v-98.461c0-8.154-6.615-14.769-14.769-14.769zm-14.769 98.461H49.231v-68.923h68.923v68.923zM477.538 364.308h-98.461c-8.154 0-14.769 6.615-14.769 14.769v98.461c0 8.154 6.615 14.77 14.769 14.77h98.461c8.154 0 14.77-6.616 14.77-14.77v-98.461c0-8.154-6.616-14.769-14.77-14.769zm-14.769 98.461h-68.923v-68.923h68.923v68.923zM305.231 364.308h-98.462c-8.154 0-14.769 6.615-14.769 14.769v98.461c0 8.154 6.615 14.77 14.769 14.77h98.462c8.154 0 14.769-6.616 14.769-14.77v-98.461c0-8.154-6.615-14.769-14.769-14.769zm-14.769 98.461h-68.924v-68.923h68.924v68.923zM132.923 192H34.462c-8.154 0-14.77 6.615-14.77 14.769v98.462c0 8.154 6.616 14.769 14.77 14.769h98.461c8.154 0 14.769-6.615 14.769-14.769v-98.462c0-8.154-6.615-14.769-14.769-14.769zm-14.769 98.462H49.231v-68.924h68.923v68.924zM477.538 192h-98.461c-8.154 0-14.769 6.615-14.769 14.769v98.462c0 8.154 6.615 14.769 14.769 14.769h98.461c8.154 0 14.77-6.615 14.77-14.769v-98.462c0-8.154-6.616-14.769-14.77-14.769zm-14.769 98.462h-68.923v-68.924h68.923v68.924zM305.231 192h-98.462c-8.154 0-14.769 6.615-14.769 14.769v98.462c0 8.154 6.615 14.769 14.769 14.769h98.462c8.154 0 14.769-6.615 14.769-14.769v-98.462c0-8.154-6.615-14.769-14.769-14.769zm-14.769 98.462h-68.924v-68.924h68.924v68.924zM132.923 19.692H34.462c-8.154 0-14.77 6.616-14.77 14.77v98.461c0 8.154 6.616 14.769 14.77 14.769h98.461c8.154 0 14.769-6.615 14.769-14.769V34.462c0-8.154-6.615-14.77-14.769-14.77zm-14.769 98.462H49.231V49.231h68.923v68.923zM477.538 19.692h-98.461c-8.154 0-14.769 6.616-14.769 14.77v98.461c0 8.154 6.615 14.769 14.769 14.769h98.461c8.154 0 14.77-6.615 14.77-14.769V34.462c0-8.154-6.616-14.77-14.77-14.77zm-14.769 98.462h-68.923V49.231h68.923v68.923zM305.231 19.692h-98.462c-8.154 0-14.769 6.616-14.769 14.77v98.461c0 8.154 6.615 14.769 14.769 14.769h98.462c8.154 0 14.769-6.615 14.769-14.769V34.462c0-8.154-6.615-14.77-14.769-14.77zm-14.769 98.462h-68.924V49.231h68.924v68.923z"/>
  </g>
</svg>
