<svg viewBox="0 0 512 512" xmlns="http://www.w3.org/2000/svg" fill-rule="evenodd" clip-rule="evenodd" stroke-linejoin="round" stroke-miterlimit="2">
  <g fill-rule="nonzero" stroke="currentColor" fill="currentColor">
    <path fill="currentColor" d="M56.25 167.83h95.01c8.84 0 16-7.16 16-16V79.61c0-8.84-7.16-16-16-16H56.25c-8.84 0-16 7.16-16 16v72.22c0 8.84 7.16 16 16 16zm16-72.22h63.01v40.22H72.25V95.61zM471.75 79.61c0-8.84-7.16-16-16-16H219.21c-8.84 0-16 7.16-16 16v72.22c0 8.84 7.16 16 16 16h236.54c8.84 0 16-7.16 16-16V79.61zm-32 56.22H235.21V95.61h204.54v40.22zM40.25 292.11c0 8.84 7.16 16 16 16h95.01c8.84 0 16-7.16 16-16v-72.22c0-8.84-7.16-16-16-16H56.25c-8.84 0-16 7.16-16 16v72.22zm32-56.22h63.01v40.22H72.25v-40.22zM471.75 219.89c0-8.84-7.16-16-16-16H219.21c-8.84 0-16 7.16-16 16v72.22c0 8.84 7.16 16 16 16h236.54c8.84 0 16-7.16 16-16v-72.22zm-32 56.22H235.21v-40.22h204.54v40.22zM40.25 432.39c0 8.84 7.16 16 16 16h95.01c8.84 0 16-7.16 16-16v-72.22c0-8.84-7.16-16-16-16H56.25c-8.84 0-16 7.16-16 16v72.22zm32-56.22h63.01v40.22H72.25v-40.22zM455.75 448.39c8.84 0 16-7.16 16-16v-72.22c0-8.84-7.16-16-16-16H219.21c-8.84 0-16 7.16-16 16v72.22c0 8.84 7.16 16 16 16h236.54zm-220.54-72.22h204.54v40.22H235.21v-40.22z"/>
  </g>
</svg>
