<svg viewBox="0 0 1000 1000" xmlns="http://www.w3.org/2000/svg" fill-rule="evenodd" clip-rule="evenodd" stroke-linecap="round" stroke-linejoin="round" stroke-miterlimit="1.5">
  <path d="M452.624 94.233c0-34.377-27.91-62.287-62.288-62.287H99.381c-34.377 0-62.287 27.91-62.287 62.287v808.965c0 34.377 27.91 62.287 62.287 62.287h290.955c34.378 0 62.288-27.91 62.288-62.287V94.233zM958.245 94.097c0-34.447-27.967-62.414-62.414-62.414H605.129c-34.447 0-62.414 27.967-62.414 62.414v304.939c0 34.447 27.967 62.414 62.414 62.414h290.702c34.447 0 62.414-27.967 62.414-62.414V94.097zM958.245 598.525c0-34.868-28.309-63.177-63.177-63.177H605.892c-34.868 0-63.177 28.309-63.177 63.177v303.413c0 34.868 28.309 63.177 63.177 63.177h289.176c34.868 0 63.177-28.309 63.177-63.177V598.525z" fill="none" stroke="currentColor" stroke-width="41.67"/>
  <text x="652.782" y="355.618" font-family="Helvetica" font-size="300">A</text>
  <text x="637.342" y="859.271" font-family="Helvetica" font-size="300">C</text>
  <text x="139.772" y="607.221" font-family="Helvetica" font-size="300">B</text>
</svg>
