<svg width="100%" height="100%" viewBox="0 0 512 512" version="1.1" xmlns="http://www.w3.org/2000/svg" xmlns:xlink="http://www.w3.org/1999/xlink" xml:space="preserve" style="fill-rule:evenodd;clip-rule:evenodd;stroke-linejoin:round;stroke-miterlimit:2;">
    <g transform="matrix(-8.69966,-8.69966,-8.69966,8.69966,481.449,256.527)">
        <path d="M14.061,12.927L24.78,23.646C25.073,23.939 25.073,24.414 24.78,24.707C24.487,25 24.013,25 23.72,24.707L13,13.987L2.28,24.707C1.987,25 1.513,25 1.22,24.707C0.927,24.414 0.927,23.939 1.22,23.646L11.939,12.927L1.22,2.207C0.927,1.914 0.927,1.439 1.22,1.146C1.366,1 1.558,0.927 1.75,0.927C1.942,0.927 2.134,1 2.28,1.146L13,11.866L23.72,1.146C23.866,1 24.058,0.927 24.25,0.927C24.442,0.927 24.634,1 24.78,1.146C25.073,1.439 25.073,1.914 24.78,2.207L14.061,12.927Z" style="fill-rule:nonzero;stroke:currentColor;stroke-width:2.76px;"/>
    </g>
</svg>
