<svg viewBox="0 0 512 512" xmlns="http://www.w3.org/2000/svg" fill-rule="evenodd" clip-rule="evenodd" stroke-linejoin="round" stroke-miterlimit="2">
  <path fill="currentColor" d="M256.24 283.815c51.348 0 93.105-41.773 93.105-93.105s-41.757-93.105-93.105-93.105c-51.347 0-93.104 41.758-93.104 93.105s41.757 93.105 93.104 93.105zm0-170.692c42.797 0 77.588 34.79 77.588 77.587 0 42.797-34.79 77.587-77.588 77.587-42.797 0-77.587-34.79-77.587-77.587 0-42.797 34.79-77.587 77.587-77.587z" stroke="currentColor" stroke-width="9.4656384"/>
  <path fill="currentColor" d="M256.21 8.442C153.514 8.442 70 90.932 70 194.667c0 108.622 93.12 219.742 161.009 297.842.248.31 11.141 12.491 24.61 12.491h1.195c13.454 0 24.363-12.181 24.611-12.491 67.92-78.1 161.025-189.205 161.025-297.842 0-103.734-83.53-186.225-186.24-186.225zm1.815 463.708c-.326.31-1.273.993-2.095 1.52-.155-.419-1.303-1.334-2.002-2.063-56.871-65.437-152.893-175.875-152.893-276.94 0-85.563 69.627-155.19 155.174-155.19 85.594 0 155.206 69.627 155.206 155.205 0 101.05-96.022 211.488-153.39 277.468z" stroke="currentColor" stroke-width="11.0173824"/>
</svg>
