<svg viewBox="0 0 512 512" xmlns="http://www.w3.org/2000/svg" fill-rule="evenodd" clip-rule="evenodd" stroke-linejoin="round" stroke-miterlimit="2">
  <path fill="currentColor" d="M477.538 19.692h-241.23c-8.154 0-14.77 6.616-14.77 14.77v80H34.462c-8.154 0-14.77 6.615-14.77 14.769v348.307c0 8.154 6.616 14.77 14.77 14.77h241.134c8.154 0 14.769-6.616 14.769-14.77v-79.865h187.173c8.154 0 14.77-6.615 14.77-14.769V34.462c0-8.154-6.616-14.77-14.77-14.77zM260.827 462.769H49.231V313.231H163.37l-47.408 47.423a9.84 9.84 0 000 13.923 9.814 9.814 0 006.961 2.885 9.816 9.816 0 006.962-2.885l64.199-64.219a9.845 9.845 0 002.14-3.214 9.843 9.843 0 000-7.519 9.845 9.845 0 00-2.14-3.214l-64.199-64.219a9.843 9.843 0 00-13.923 0 9.84 9.84 0 000 13.923l47.408 47.423H49.231V144h186.982c.033 0 .061.019.095.019.033 0 .061-.019.095-.019h24.424v318.769zm29.538-94.634V129.231c0-8.154-6.615-14.769-14.769-14.769h-24.519V49.231h211.692v149.615H348.572L396 151.404a9.843 9.843 0 000-13.923 9.843 9.843 0 00-13.923 0l-64.219 64.238a9.842 9.842 0 00-2.139 3.214 9.843 9.843 0 000 7.519 9.853 9.853 0 002.139 3.214l64.219 64.238a9.813 9.813 0 006.961 2.884c2.52 0 5.039-.961 6.962-2.884a9.843 9.843 0 000-13.923l-47.428-47.443h114.197v149.597H290.365z" fill-rule="nonzero" stroke="currentColor" stroke-width="9.5"/>
</svg>
