<svg viewBox="0 0 512 512" xmlns="http://www.w3.org/2000/svg" fill-rule="evenodd" clip-rule="evenodd" stroke-linejoin="round" stroke-miterlimit="2">
  <g fill-rule="nonzero" stroke="currentColor" stroke-width="4.5">
    <path fill="currentColor" d="M323.875 484.003H111.146c-27.408-.062-49.601-22.281-49.632-49.688V153.829c.031-27.429 22.259-49.658 49.688-49.689h139.516a17.052 17.052 0 0112.052 4.992l105.745 105.847a17.056 17.056 0 015.003 12.064v207.272c-.031 27.411-22.231 49.632-49.643 49.688zM111.146 138.251c-8.579.038-15.515 6.999-15.521 15.578v280.486c.012 8.575 6.945 15.533 15.521 15.577h212.729c8.598-.013 15.565-6.979 15.577-15.577V234.104L243.6 138.251H111.146z"/>
    <path fill="currentColor" d="M400.057 407.821h-43.549c-9.39-.042-16.98-7.665-16.98-17.055s7.59-17.014 16.98-17.056h43.549c8.598-.012 15.565-6.979 15.577-15.577V77.647c-.012-8.598-6.979-15.565-15.577-15.577h-212.73c-8.575.043-15.508 7.001-15.52 15.577v43.549c-.042 9.39-7.666 16.979-17.056 16.979s-17.013-7.589-17.055-16.979V77.647c.025-27.432 22.256-49.664 49.688-49.689h212.673c27.432.025 49.663 22.257 49.689 49.689v280.486c-.026 27.432-22.257 49.663-49.689 49.688z"/>
    <path fill="currentColor" d="M356.508 244.087h-73.214c-27.429-.031-49.658-22.259-49.689-49.688v-73.203c.042-9.39 7.666-16.98 17.056-16.98s17.013 7.59 17.055 16.98v73.214c.007 8.601 6.977 15.571 15.578 15.577h73.214a17.055 17.055 0 110 34.112v-.012z"/>
  </g>
</svg>
