<svg viewBox="0 0 500 500" xmlns="http://www.w3.org/2000/svg" fill="currentColor" fill-rule="evenodd" clip-rule="evenodd" stroke-linejoin="round" stroke-miterlimit="2"><path d="M219.139 381.189c0 13.505-10.945 24.451-24.45 24.451-13.502 0-24.448-10.946-24.448-24.451s10.946-24.451 24.448-24.451c13.505 0 24.45 10.946 24.45 24.451M321.928 381.189c0 13.505-10.948 24.451-24.45 24.451-13.503 0-24.448-10.946-24.448-24.451s10.945-24.451 24.448-24.451c13.502 0 24.45 10.946 24.45 24.451M306.461 332.291H185.71a23.944 23.944 0 01-22.136-14.808l-31.807-77.004h-24.896c-13.227 0-23.951-10.724-23.951-23.951s10.724-23.951 23.951-23.951h40.916a23.95 23.95 0 0122.137 14.808l31.806 77.004h88.869l32.729-77.208c5.164-12.182 19.22-17.858 31.402-12.705 12.176 5.164 17.864 19.22 12.703 31.399l-38.92 91.812a23.953 23.953 0 01-22.052 14.604" fill-rule="nonzero"/><path d="M333.217 113.118c-9.165-9.545-24.325-9.85-33.867-.686l-29.815 28.627V26.919c0-13.23-10.721-23.95-23.951-23.95-13.227 0-23.951 10.72-23.951 23.95v113.58l-28.693-27.95c-9.475-9.227-24.639-9.032-33.869.446-9.23 9.475-9.032 24.639.443 33.869l69.358 67.556c.318.309.659.581.988.868.174.153.342.312.521.461a24.027 24.027 0 002.539 1.83c.123.074.255.143.38.221a24.01 24.01 0 002.656 1.371c.084.036.156.087.239.123.057.024.114.042.168.063.545.228 1.096.422 1.653.605.203.069.404.149.607.212.545.162 1.099.294 1.65.419.222.051.44.117.662.159.553.111 1.11.183 1.667.252.222.027.437.074.659.092.748.075 1.497.111 2.245.111.024 0 .048.006.075.006h.003c.063 0 .129-.009.192-.009.7-.006 1.401-.036 2.095-.102.413-.039.824-.116 1.231-.176.344-.051.688-.087 1.03-.153.488-.093.97-.224 1.452-.347.254-.069.515-.117.766-.192.497-.147.979-.326 1.467-.506.234-.084.473-.155.707-.251.464-.186.916-.404 1.371-.623.248-.117.5-.225.742-.35.413-.216.815-.458 1.219-.701.275-.164.557-.32.826-.497.353-.23.695-.488 1.039-.739.305-.225.614-.446.91-.686.299-.242.587-.506.877-.763.222-.198.452-.375.668-.581l70.355-67.553c9.541-9.164 9.847-24.325.686-33.866M249.284 497.033c-23.996 0-49.024-9.035-75.93-27.103-10.981-7.374-13.906-22.253-6.532-33.234 7.373-10.979 22.253-13.904 33.237-6.533 41.938 28.163 65.634 21.379 90.282 1.311 10.26-8.349 25.346-6.808 33.696 3.452 8.35 10.26 6.805 25.346-3.455 33.696-23.268 18.942-46.74 28.411-71.298 28.411" fill-rule="nonzero"/></svg>
