<svg viewBox="0 0 512 512" xmlns="http://www.w3.org/2000/svg" fill-rule="evenodd" clip-rule="evenodd" stroke-linejoin="round" stroke-miterlimit="2">
  <path fill="currentColor"  d="M467.684 67.368H43.42c-20.261 0-36.728 17.504-36.728 39.01v295.271c0 21.506 16.467 39.009 36.728 39.009h424.264c20.261 0 36.727-17.503 36.727-39.009V106.377c0-21.505-16.466-39.009-36.727-39.009zM310.861 254.013L473.304 136.78v234.468L310.861 254.013zM467.684 98.476c1.12 0 2.24.663 3.214 1.68L255.552 255.568 40.205 100.156c.975-1.017 2.095-1.68 3.215-1.68h424.264zM37.8 371.246V136.78l162.443 117.234L37.8 371.247zm5.62 38.304c-1.12 0-2.24-.663-3.215-1.68L226.81 273.197l19.66 14.164c.456.353.995.477 1.493.768.477.27.912.497 1.43.725 1.992.85 4.045 1.452 6.14 1.452h.04c2.095 0 4.148-.601 6.14-1.452.518-.228.953-.456 1.43-.725.498-.29 1.037-.415 1.493-.768l19.64-14.164 186.623 134.675c-.974 1.016-2.094 1.68-3.214 1.68H43.42z" fill-rule="nonzero" stroke="currentColor" stroke-width="12.028213999999998"/>
</svg>
