<svg width="100%" height="100%" viewBox="0 0 100 100" version="1.1" xmlns="http://www.w3.org/2000/svg" xmlns:xlink="http://www.w3.org/1999/xlink" xml:space="preserve"  style="fill-rule:evenodd;clip-rule:evenodd;stroke-linejoin:round;stroke-miterlimit:2;">
    <g>
        <g fill="currentColor">
            <path d="M50,94C74.301,94 94,74.301 94,50C94,25.699 74.301,6 50,6C25.699,6 6,25.699 6,50C6,74.301 25.699,94 50,94ZM50,86C69.882,86 86,69.882 86,50C86,30.118 69.882,14 50,14C30.118,14 14,30.118 14,50C14,69.882 30.118,86 50,86ZM57,31.013C57,32.671 56.431,34.085 55.286,35.248C54.145,36.417 52.769,37 51.161,37C49.547,37 48.168,36.417 47.013,35.248C45.861,34.085 45.283,32.671 45.283,31.013C45.283,29.359 45.861,27.942 47.013,26.764C48.165,25.586 49.547,25 51.161,25C52.769,25 54.145,25.589 55.286,26.764C56.431,27.942 57,29.359 57,31.013ZM56.427,70.466C54.71,71.292 53.336,71.919 52.314,72.352C51.291,72.785 50.101,73 48.746,73C46.666,73 45.047,72.381 43.892,71.149C42.738,69.913 42.161,68.345 42.161,66.445C42.161,65.709 42.203,64.952 42.29,64.181C42.377,63.41 42.516,62.539 42.707,61.567L44.856,52.321C45.047,51.436 45.21,50.596 45.339,49.802C45.471,49.014 45.535,48.289 45.535,47.635C45.535,46.454 45.334,45.629 44.934,45.165C44.533,44.7 43.77,44.465 42.637,44.465C42.081,44.465 41.51,44.574 40.928,44.783C40.344,44.993 40,42.534 40,42.534C41.407,41.837 42.752,41.241 44.039,40.745C45.325,40.249 46.541,40 47.691,40C49.757,40 51.352,40.608 52.471,41.823C53.591,43.038 54.151,44.614 54.151,46.558C54.151,46.959 54.114,47.667 54.036,48.678C53.958,49.693 53.814,50.622 53.605,51.467L51.465,60.679C51.291,61.418 51.133,62.264 50.996,63.215C50.855,64.161 50.787,64.883 50.787,65.368C50.787,66.591 51.011,67.425 51.461,67.87C51.913,68.314 52.693,68.535 53.8,68.535C54.321,68.535 54.912,68.423 55.57,68.202C56.227,67.982 56.427,70.466 56.427,70.466Z"/>
        </g>
    </g>
</svg>
