<svg viewBox="0 0 512 512" xmlns="http://www.w3.org/2000/svg" fill-rule="evenodd" clip-rule="evenodd" stroke-linejoin="round" stroke-miterlimit="2">
  <g fill-rule="nonzero" stroke="currentColor">
    <path fill="currentColor" d="M201.062 248.841c-10.941 0-21.163 4.319-28.937 11.949-15.98 15.98-15.98 41.893 0 57.873 7.774 7.774 17.996 11.949 28.937 11.949 10.941 0 21.162-4.319 28.936-11.949 15.98-15.98 15.98-41.893 0-57.873-7.774-7.63-17.995-11.949-28.936-11.949zm13.676 54.706c-3.599 3.599-8.494 5.615-13.676 5.615-5.183 0-10.078-2.016-13.677-5.615-7.486-7.486-7.486-19.867 0-27.353 3.599-3.599 8.494-5.615 13.677-5.615 5.182 0 10.077 2.016 13.676 5.615 7.63 7.486 7.63 19.723 0 27.353zM373.961 248.841c-10.941 0-21.162 4.319-28.936 11.949-15.98 15.98-15.98 41.893 0 57.873 7.774 7.774 17.995 11.949 28.936 11.949 10.941 0 21.163-4.319 28.937-11.949 15.98-15.98 15.98-41.893 0-57.873-7.774-7.63-17.996-11.949-28.937-11.949zm13.677 54.706c-3.599 3.599-8.494 5.615-13.677 5.615s-10.077-2.016-13.676-5.615c-7.486-7.486-7.486-19.867 0-27.353 3.599-3.599 8.493-5.615 13.676-5.615s10.078 2.016 13.677 5.615c7.486 7.486 7.486 19.723 0 27.353z" stroke-width=".2"/>
    <path fill="currentColor" d="M287.583 161.312c-5.902 0-10.797 4.894-10.797 10.797v235.235c0 5.903 4.895 10.797 10.797 10.797 5.903 0 10.798-4.894 10.798-10.797V172.109c0-5.903-4.895-10.797-10.798-10.797z" stroke-width="8"/>
    <path fill="currentColor" d="M257.164 43.242c-1.584-1.584-3.743-2.735-6.047-3.023L118.096 19.776c-3.455-.576-6.91.576-9.214 3.023l-85.37 85.37c-2.447 2.448-3.599 5.903-3.023 9.214l20.443 133.022c.288 2.303 1.439 4.318 3.023 6.046l222.422 222.423c7.199 7.198 16.844 11.229 27.209 11.229 10.222 0 19.867-4.031 27.209-11.229L479.73 319.939c7.199-7.199 11.23-16.844 11.23-27.209 0-10.222-4.031-19.867-11.23-27.209L257.164 43.242zm207.162 261.437L305.391 463.614c-3.167 3.167-7.342 4.894-11.948 4.894-4.463 0-8.782-1.727-11.949-4.894L61.662 243.782 42.659 119.686l77.74-77.74 124.096 19.003 219.831 219.832c3.168 3.167 4.895 7.342 4.895 11.949 0 4.462-1.727 8.637-4.895 11.949z" stroke-width="9.5"/>
    <path fill="currentColor" d="M152.359 94.637c-7.63-7.63-17.708-11.805-28.505-11.805S102.98 87.007 95.35 94.637c-15.692 15.692-15.692 41.317 0 57.009 7.63 7.63 17.707 11.805 28.504 11.805s20.875-4.175 28.505-11.805c15.692-15.692 15.692-41.317 0-57.009zm-15.26 41.749c-3.599 3.599-8.206 5.471-13.245 5.471-5.038 0-9.645-2.016-13.244-5.471a18.681 18.681 0 010-26.489c3.599-3.599 8.206-5.471 13.244-5.471 5.039 0 9.646 2.016 13.245 5.471a18.681 18.681 0 010 26.489z" stroke-width="4"/>
  </g>
</svg>
