<?xml version="1.0" encoding="UTF-8" standalone="no"?><!DOCTYPE svg PUBLIC "-//W3C//DTD SVG 1.1//EN" "http://www.w3.org/Graphics/SVG/1.1/DTD/svg11.dtd"><svg width="100%" height="100%" viewBox="0 0 2134 2134" version="1.1" xmlns="http://www.w3.org/2000/svg" xmlns:xlink="http://www.w3.org/1999/xlink" xml:space="preserve"  style="fill-rule:evenodd;clip-rule:evenodd;stroke-linejoin:round;stroke-miterlimit:2;"><g><path d="M1066.67,133.333c-515.496,0 -933.334,417.838 -933.334,933.334c0,515.429 417.838,933.333 933.334,933.333c515.429,0 933.333,-417.904 933.333,-933.333c0,-515.496 -417.904,-933.334 -933.333,-933.334Zm0,1666.67c-404.429,0 -733.334,-328.971 -733.334,-733.333c0,-404.363 328.909,-733.334 733.334,-733.334c404.296,0 733.333,328.971 733.333,733.334c0,404.362 -329.037,733.333 -733.333,733.333Zm333.333,-527.279c0,123.046 -84.375,245.9 -266.667,282.225l0,83.596c0,15.558 -12.629,28.125 -28.125,28.125l-77.083,0c-15.558,0 -28.125,-12.567 -28.125,-28.125l0,-72.525c-92.708,-3.321 -193.554,-28.517 -251.433,-63.804c-12.763,-7.813 -18.229,-22.267 -13.671,-35.68l36.783,-107.091c2.538,-7.167 8.529,-12.954 16.275,-15.625c7.879,-2.538 16.538,-1.692 23.567,2.475l8.4,5.012c58.725,34.442 134.896,54.234 209.246,54.234c108.204,0 172.916,-46.159 172.916,-123.371c0,-57.617 -27.604,-102.734 -164.325,-149.609c-190.95,-63.666 -283.854,-157.937 -283.854,-288.02c0,-133.138 97.525,-232.421 246.096,-265.234l0,-84.512c0,-15.559 12.567,-28.125 28.125,-28.125l77.083,0c15.496,0 28.125,12.566 28.125,28.125l0,73.046c81.9,2.995 157.617,19.466 210.025,47.462c14.063,7.554 20.38,23.113 15.171,37.304l-38.346,104.038c-2.67,6.966 -8.595,12.5 -16.27,15.104c-7.688,2.475 -16.146,1.629 -23.046,-2.279l-8.209,-4.559c-32.683,-18.62 -94.2,-38.412 -168.62,-38.412c-112.371,0 -152.28,56.317 -152.28,104.492c0,64.129 40.888,98.241 175.067,145.766c135.154,48.896 273.175,122.334 273.175,295.967Z" style="fill:currentColor;fill-rule:nonzero;"/></g></svg>
