<svg viewBox="0 0 512 512" xmlns="http://www.w3.org/2000/svg" fill-rule="evenodd" clip-rule="evenodd" stroke-linejoin="round" stroke-miterlimit="2">
  <g fill-rule="nonzero" stroke="currentColor">
    <path fill="currentColor" d="M122.615 477.538V345.987c25.506-6.608 44.481-29.616 44.481-57.16 0-27.545-18.975-50.552-44.481-57.16V34.462c0-8.154-6.615-14.77-14.769-14.77s-14.769 6.616-14.769 14.77v197.205c-25.506 6.608-44.481 29.615-44.481 57.16 0 27.544 18.975 50.552 44.481 57.16v131.551c0 8.154 6.615 14.77 14.769 14.77s14.769-6.616 14.769-14.77zm-44.48-188.711c0-16.385 13.327-29.712 29.711-29.712 16.385 0 29.712 13.327 29.712 29.712 0 16.385-13.327 29.711-29.712 29.711-16.384 0-29.711-13.326-29.711-29.711zM241.231 34.462V66.09c-25.506 6.608-44.481 29.616-44.481 57.16 0 27.544 18.975 50.552 44.481 57.16v297.128c0 8.154 6.615 14.77 14.769 14.77s14.769-6.616 14.769-14.77V180.41c25.506-6.608 44.481-29.616 44.481-57.16 0-27.544-18.975-50.552-44.481-57.16V34.462c0-8.154-6.615-14.77-14.769-14.77s-14.769 6.616-14.769 14.77zm44.481 88.788c0 16.385-13.327 29.712-29.712 29.712-16.385 0-29.712-13.327-29.712-29.712 0-16.385 13.327-29.712 29.712-29.712 16.385 0 29.712 13.327 29.712 29.712zM389.385 34.462v286.165c-25.506 6.607-44.481 29.613-44.481 57.142 0 27.545 18.975 50.552 44.481 57.16v42.609c0 8.154 6.615 14.77 14.769 14.77s14.769-6.616 14.769-14.77v-42.609c25.506-6.608 44.481-29.615 44.481-57.16 0-27.529-18.975-50.535-44.481-57.142V34.462c0-8.154-6.615-14.77-14.769-14.77s-14.769 6.616-14.769 14.77zm44.48 343.307c0 16.385-13.327 29.712-29.711 29.712-16.385 0-29.712-13.327-29.712-29.712 0-16.365 13.327-29.692 29.712-29.692 16.384 0 29.711 13.327 29.711 29.692z"/>
  </g>
</svg>
