<svg xmlns="http://www.w3.org/2000/svg" width="100" height="100" viewBox="0 0 512 512" stroke-linejoin="round">
  <path fill="currentColor" d="M492.3 256c0-130.3-106-236.3-236.3-236.3 -130.3 0-236.3 106-236.3 236.3 0 66.6 27.8 126.8 72.3 169.8 1 1.4 2.3 2.5 3.7 3.4 42.2 39 98.4 63.1 160.2 63.1 61.9 0 118.1-24.1 160.2-63.1 1.4-0.9 2.7-2 3.7-3.4 44.5-43 72.3-103.2 72.3-169.8Zm-236.3-206.8c114 0 206.8 92.8 206.8 206.8 0 48.3-16.8 92.8-44.7 128 -12.8-41.3-49.4-73.7-99-88.5 27-19.6 44.7-51.3 44.7-87.1 0-59.4-48.3-107.6-107.8-107.6 -59.4 0-107.8 48.3-107.8 107.6 0 35.8 17.7 67.6 44.7 87.1 -49.6 14.9-86.2 47.2-99 88.5 -27.9-35.2-44.7-79.7-44.7-128 0-114 92.8-206.8 206.8-206.8Zm-78.2 159.1c0-43.1 35.1-78.1 78.3-78.1 43.2 0 78.3 35 78.3 78.1 0 43.1-35.1 78.1-78.2 78.1 -43.2 0-78.2-35-78.2-78.1Zm-59 201.9c4.4-54.2 61.9-94.2 137.2-94.2 75.4 0 132.8 40.1 137.2 94.2 -36.6 32.6-84.5 52.5-137.2 52.5 -52.7 0-100.7-20-137.2-52.5Z" style="stroke-width:10px;stroke:currentColor"/>
</svg>
