<svg viewBox="0 0 512 512" xmlns="http://www.w3.org/2000/svg" fill-rule="evenodd" clip-rule="evenodd" stroke-linejoin="round" stroke-miterlimit="2">
  <g fill-rule="nonzero">
    <path fill="currentColor" d="M433.231 19.692H78.769C70.615 19.692 64 26.308 64 34.462v362.365c0 1.923.393 3.839 1.141 5.644a14.762 14.762 0 003.186 4.798l80.711 80.712a14.798 14.798 0 004.799 3.186 14.754 14.754 0 005.644 1.141h273.75c8.154 0 14.769-6.616 14.769-14.77V34.462c0-8.154-6.615-14.77-14.769-14.77zM144.712 441.885l-30.289-30.289h30.289v30.289zm273.75 20.884H174.25v-65.942c0-8.154-6.615-14.769-14.769-14.769H93.538V49.231h324.924v413.538z" stroke="currentColor" stroke-width="5"/>
    <path fill="currentColor" d="M138.817 108.308h106.106a9.84 9.84 0 009.846-9.846 9.84 9.84 0 00-9.846-9.847H138.817a9.84 9.84 0 00-9.846 9.847 9.84 9.84 0 009.846 9.846zM138.817 147.692h53.048a9.84 9.84 0 009.847-9.846 9.84 9.84 0 00-9.847-9.846h-53.048a9.84 9.84 0 00-9.846 9.846 9.84 9.84 0 009.846 9.846zM278.85 364.676h53.048a9.84 9.84 0 009.846-9.846 9.84 9.84 0 00-9.846-9.846H278.85a9.84 9.84 0 00-9.847 9.846 9.84 9.84 0 009.847 9.846zM214.154 137.846a9.84 9.84 0 009.846 9.846h64a9.84 9.84 0 009.846-9.846A9.84 9.84 0 00288 128h-64a9.84 9.84 0 00-9.846 9.846zM137.846 310.154h236.308a9.84 9.84 0 009.846-9.846V182.154a9.84 9.84 0 00-9.846-9.846H137.846a9.84 9.84 0 00-9.846 9.846v118.154a9.84 9.84 0 009.846 9.846zm187.077-92.923v19.692h-32v-19.692h32zm-32-9.846V192h32v15.385h-32zm0 59.077v-19.693h32v19.693h-32zm32 9.846v14.154h-32v-14.154h32zm-177.231-29.539h135.385v19.693H147.692v-19.693zm187.077 0h29.539v19.693h-29.539v-19.693zm29.539-9.846h-29.539v-19.692h29.539v19.692zm-81.231 0H147.692v-19.692h135.385v19.692zm-135.385 39.385h135.385v14.154H147.692v-14.154zm187.077 14.154v-14.154h29.539v14.154h-29.539zm29.539-83.077h-29.539V192h29.539v15.385zM283.077 192v15.385H147.692V192h135.385zM244.923 344.615H138.817a9.84 9.84 0 00-9.846 9.847 9.84 9.84 0 009.846 9.846h106.106a9.84 9.84 0 009.846-9.846 9.84 9.84 0 00-9.846-9.847zM333.805 383.007H227.699a9.84 9.84 0 00-9.846 9.846 9.84 9.84 0 009.846 9.846h106.106a9.84 9.84 0 009.846-9.846 9.84 9.84 0 00-9.846-9.846z"/>
  </g>
</svg>
