<svg viewBox="0 0 512 512" xmlns="http://www.w3.org/2000/svg" fill-rule="evenodd" clip-rule="evenodd" stroke-linejoin="round" stroke-miterlimit="2">
  <g fill-rule="nonzero" stroke="currentColor">
    <path fill="currentColor" d="M77.188 231.177h133.099c11.436 0 20.698-9.262 20.698-20.697V77.381c0-11.436-9.262-20.698-20.698-20.698H77.188c-11.435 0-20.697 9.262-20.697 20.698V210.48c0 11.435 9.262 20.697 20.697 20.697zM97.886 98.079h91.704v91.703H97.886V98.079zM300.84 231.177h133.098c11.436 0 20.698-9.262 20.698-20.697V77.381c0-11.436-9.262-20.698-20.698-20.698H300.84c-11.436 0-20.698 9.262-20.698 20.698V210.48c0 11.435 9.262 20.697 20.698 20.697zm20.697-133.098h91.704v91.703h-91.704V98.079zM56.491 434.131c0 11.436 9.262 20.698 20.697 20.698h133.099c11.436 0 20.698-9.262 20.698-20.698V301.032c0-11.435-9.262-20.698-20.698-20.698H77.188c-11.435 0-20.697 9.263-20.697 20.698v133.099zM97.886 321.73h91.704v91.703H97.886V321.73zM280.142 434.131c0 11.436 9.262 20.698 20.698 20.698h133.098c11.436 0 20.698-9.262 20.698-20.698V301.032c0-11.435-9.262-20.698-20.698-20.698H300.84c-11.436 0-20.698 9.263-20.698 20.698v133.099zm41.395-112.401h91.704v91.703h-91.704V321.73z"/>
  </g>
</svg>
