<svg
  fill="currentColor"
  width="100%"
  height="100%"
  viewBox="0 0 2134 2134"
  version="1.1"
  xmlns="http://www.w3.org/2000/svg"
  xmlns:xlink="http://www.w3.org/1999/xlink"
  xml:space="preserve"

  style="fill-rule:evenodd;clip-rule:evenodd;stroke-linejoin:round;stroke-miterlimit:2;"><path
  d="M936.585,1110.18l923.077,923.077c24.039,24.039 62.981,24.039 87.02,0c24.038,-24.038 24.038,-62.98 0,-87.019l-879.568,-879.567l879.568,-879.568c24.038,-24.038 24.038,-62.98 0,-87.019c-12.02,-12.019 -27.725,-18.029 -43.51,-18.029c-15.785,0 -31.49,6.01 -43.51,18.029l-923.077,923.077c-24.038,24.039 -24.038,62.981 0,87.019Z"
  style="fill-rule:nonzero;stroke:currentColor;stroke-width:75px;"/><path
  d="M177.698,1110.18l923.077,923.077c24.038,24.039 62.98,24.039 87.019,0c24.038,-24.038 24.038,-62.98 0,-87.019l-879.568,-879.567l879.568,-879.568c24.038,-24.038 24.038,-62.98 0,-87.019c-12.019,-12.019 -27.725,-18.029 -43.51,-18.029c-15.785,0 -31.49,6.01 -43.509,18.029l-923.077,923.077c-24.039,24.039 -24.039,62.981 0,87.019Z"
  style="fill-rule:nonzero;stroke:currentColor;stroke-width:75px;"/></svg>
