<svg viewBox="0 0 512 512" xmlns="http://www.w3.org/2000/svg" fill-rule="evenodd" clip-rule="evenodd" stroke-linejoin="round" stroke-miterlimit="2">
  <g fill-rule="nonzero" stroke="currentColor" stroke-width="9.5">
    <path fill="currentColor"  d="M401.722 230.445c23.142-14.24 38.654-39.707 38.654-68.787 0-44.569-36.308-80.829-80.932-80.829-44.623 0-80.932 36.26-80.932 80.829 0 29.08 15.512 54.547 38.655 68.787-49.972 11.194-85.037 41.775-85.037 78.782 0 30.285 80.031 38.366 127.314 38.366 47.283 0 127.314-8.081 127.314-38.366 0-37.007-35.065-67.588-85.036-78.782zm-106.538-68.787c0-35.375 28.83-64.156 64.26-64.156 35.43 0 64.26 28.781 64.26 64.156 0 35.376-28.83 64.151-64.26 64.151-35.43 0-64.26-28.775-64.26-64.151zm64.26 169.262c-67.969 0-108.655-14.338-110.637-21.749.052-36.777 49.666-66.689 110.637-66.689 60.965 0 110.575 29.907 110.636 66.678-1.932 7.406-42.622 21.76-110.636 21.76z"/>
    <path fill="currentColor"  d="M218.769 305.288c26.479-15.872 44.227-44.258 44.227-76.67 0-49.677-41.543-90.092-92.599-90.092-51.056 0-92.599 40.415-92.599 90.092 0 32.412 17.748 60.798 44.227 76.67-57.175 12.477-97.294 46.562-97.294 87.811 0 33.755 91.567 42.762 145.666 42.762 54.099 0 145.666-9.007 145.666-42.762 0-41.249-40.119-75.334-97.294-87.811zm-121.895-76.67c0-39.429 32.986-71.509 73.523-71.509s73.523 32.08 73.523 71.509c0 39.43-32.986 71.503-73.523 71.503s-73.523-32.073-73.523-71.503zm73.523 188.66c-77.767 0-124.318-15.982-126.585-24.242.059-40.991 56.825-74.331 126.585-74.331 69.753 0 126.514 33.333 126.584 74.319-2.21 8.254-48.766 24.254-126.584 24.254z"/>
  </g>
</svg>
