<?xml version="1.0" encoding="UTF-8" standalone="no"?>
<!DOCTYPE svg PUBLIC "-//W3C//DTD SVG 1.1//EN" "http://www.w3.org/Graphics/SVG/1.1/DTD/svg11.dtd">
<svg width="100%" height="100%" viewBox="0 0 512 512" version="1.1" xmlns="http://www.w3.org/2000/svg" xmlns:xlink="http://www.w3.org/1999/xlink" xml:space="preserve" xmlns:serif="http://www.serif.com/" style="fill-rule:evenodd;clip-rule:evenodd;stroke-linejoin:round;stroke-miterlimit:2;">
    <g id="_1" transform="matrix(1.19789,0,0,1.19789,-79.2207,-40.1571)">
        <g transform="matrix(1,0,0,1,2.50441,-1.66961)">
            <path d="M391.89,450L163,450C135.523,449.967 112.923,427.367 112.89,399.89L112.89,98.11C112.923,70.633 135.523,48.033 163,48L313.1,48C317.077,47.998 320.897,49.578 323.71,52.39L437.61,166.27C440.422,169.083 442.002,172.903 442,176.88L442,399.88C441.973,427.361 419.371,449.967 391.89,450ZM163,78C151.972,78.011 142.901,87.082 142.89,98.11L142.89,399.89C142.901,410.918 151.972,419.989 163,420L391.89,420C402.918,419.989 411.989,410.918 412,399.89L412,183.09L306.91,78L163,78Z" style="fill:currentColor;"/>
        </g>
        <path d="M427,191.88L348.23,191.88C320.753,191.847 298.153,169.247 298.12,141.77L298.12,63C298.12,54.771 304.891,48 313.12,48C321.349,48 328.12,54.771 328.12,63L328.12,141.77C328.131,152.798 337.202,161.869 348.23,161.88L427,161.88C435.229,161.88 442,168.651 442,176.88C442,185.109 435.229,191.88 427,191.88Z" style="fill:currentColor;"/>
    </g>
</svg>
