<svg viewBox="0 0 512 512" xmlns="http://www.w3.org/2000/svg" fill-rule="evenodd" clip-rule="evenodd" stroke-linejoin="round" stroke-miterlimit="2">
  <g fill-rule="nonzero" stroke="currentColor">
    <path fill="currentColor" d="M248.888 337.427c3.915 3.915 10.261 3.915 14.176 0l13.573-13.573a5.177 5.177 0 018.836 3.66v75.995h34.809a10.017 10.017 0 017.084 17.101l-64.306 64.306c-3.913 3.913-10.255 3.913-14.168 0l-64.306-64.306a10.017 10.017 0 017.084-17.101h34.809v-75.995a5.175 5.175 0 018.836-3.66l13.573 13.573zM262.952 175.207a10.025 10.025 0 00-13.952 0l-13.743 13.317a5.176 5.176 0 01-8.778-3.717v-76.268H191.67a10.017 10.017 0 01-7.084-17.101l64.306-64.306c3.913-3.912 10.255-3.912 14.168 0l64.306 64.306a10.017 10.017 0 01-7.084 17.101h-34.809v76.268a5.178 5.178 0 01-8.778 3.717l-13.743-13.317zM174.573 248.936c-3.915 3.915-3.915 10.261 0 14.176l13.573 13.573a5.178 5.178 0 01-3.66 8.836h-75.995v34.809a10.017 10.017 0 01-17.101 7.084l-64.306-64.306c-3.913-3.913-3.913-10.255 0-14.168l64.306-64.306a10.017 10.017 0 0117.101 7.084v34.809h75.995a5.175 5.175 0 013.66 8.836l-13.573 13.573zM336.793 263a10.025 10.025 0 000-13.952l-13.317-13.743a5.176 5.176 0 013.717-8.778h76.268v-34.809a10.017 10.017 0 0117.101-7.084l64.306 64.306c3.912 3.913 3.912 10.255 0 14.168l-64.306 64.306a10.017 10.017 0 01-17.101-7.084v-34.809h-76.268a5.176 5.176 0 01-3.717-8.778L336.793 263z"/>
  </g>
</svg>
