<svg viewBox="0 0 512 512" xmlns="http://www.w3.org/2000/svg" fill-rule="evenodd" clip-rule="evenodd" stroke-linejoin="round" stroke-miterlimit="2">
  <path fill="currentColor" d="M111.173 321.331c-.063 28.828-23.738 52.545-52.566 52.628C29.76 373.897 6.063 350.18 6 321.331c.083-28.827 23.78-52.503 52.607-52.565h52.566v52.565zm26.512 0c.083-28.806 23.78-52.503 52.586-52.565 28.807.062 52.503 23.759 52.586 52.565v131.685c-.062 28.828-23.758 52.524-52.586 52.607-28.827-.083-52.524-23.78-52.586-52.607V321.331zm52.586-211.158c-28.807-.084-52.503-23.76-52.586-52.566C137.747 28.78 161.444 5.083 190.27 5c28.828.083 52.524 23.78 52.586 52.607v52.566h-52.586zm0 26.512c28.828.083 52.503 23.759 52.586 52.586-.083 28.828-23.758 52.503-52.586 52.586H58.607C29.78 241.795 6.083 218.1 6 189.271c.083-28.827 23.78-52.524 52.607-52.586h131.664zM401.41 189.27c.083-28.827 23.78-52.524 52.607-52.586 28.828.062 52.524 23.759 52.607 52.586-.083 28.828-23.78 52.524-52.607 52.586h-52.607v-52.586zm-26.45 0c-.083 28.828-23.8 52.524-52.628 52.586-28.806-.083-52.503-23.78-52.565-52.586V57.607C269.828 28.78 293.504 5.083 322.33 5c28.849.063 52.566 23.759 52.628 52.607v131.664zM322.331 400.41c28.849.062 52.566 23.759 52.628 52.607-.062 28.848-23.78 52.545-52.628 52.607-28.827-.083-52.503-23.78-52.565-52.607v-52.607h52.565zm0-26.45c-28.827-.083-52.523-23.8-52.565-52.628.062-28.806 23.759-52.503 52.565-52.565h131.685c28.828.062 52.524 23.738 52.607 52.565-.062 28.849-23.759 52.566-52.607 52.628H322.331z" fill-rule="nonzero"/>
</svg>
