<svg viewBox="0 0 512 512" xmlns="http://www.w3.org/2000/svg" fill-rule="evenodd" clip-rule="evenodd" stroke-linejoin="round" stroke-miterlimit="2">
  <path fill="currentColor" d="M393.125 111.801V33.08a3.896 3.896 0 00-3.896-3.896 3.89 3.89 0 00-3.893 3.892v78.73h-78.729a3.89 3.89 0 00-3.892 3.892 3.896 3.896 0 003.896 3.896h78.722l.003 78.726a3.896 3.896 0 003.897 3.896 3.88 3.88 0 002.75-1.142 3.88 3.88 0 001.142-2.75v-78.73h78.73a3.88 3.88 0 002.75-1.142 3.88 3.88 0 001.142-2.75 3.896 3.896 0 00-3.896-3.896l-78.726-.004z" fill-rule="nonzero" stroke="currentColor" stroke-width="49.022864"/>
  <path fill="currentColor" d="M32.262 225.097h167.202c14.366 0 26.001-11.635 26.001-26V31.893c0-14.366-11.635-26.001-26-26.001H32.261c-14.365 0-26 11.635-26 26v167.203c0 14.366 11.635 26.001 26 26.001zM58.263 57.895h115.2v115.2h-115.2v-115.2zM6.261 480.053c0 14.365 11.636 26 26.001 26h167.202c14.366 0 26.001-11.635 26.001-26V312.85c0-14.365-11.635-26-26-26H32.261c-14.365 0-26 11.635-26 26v167.203zM58.263 338.85h115.2v115.2h-115.2v-115.2zM287.218 480.053c0 14.365 11.635 26 26 26h167.203c14.365 0 26-11.635 26-26V312.85c0-14.365-11.635-26-26-26H313.219c-14.366 0-26.001 11.635-26.001 26v167.203zm52.001-141.202h115.2v115.2h-115.2v-115.2z" fill-rule="nonzero" stroke="currentColor" stroke-width="1.0075372"/>
</svg>
