<svg viewBox="0 0 512 512" xmlns="http://www.w3.org/2000/svg" fill-rule="evenodd" clip-rule="evenodd" stroke-linejoin="round" stroke-miterlimit="2">
  <g fill-rule="nonzero">
    <path fill="currentColor" d="M461.462 174.846h-44.383l-12.714-72.038c-2.923-16.731-19.057-27.904-35.673-25.02L45.173 134.846c-16.711 2.942-27.923 18.962-24.961 35.692l34.5 195.616c1.423 8.096 5.903 15.173 12.634 19.904 5.25 3.673 11.346 5.596 17.616 5.596 1.807 0 3.615-.154 5.423-.481l11.788-2.082v14.794c0 16.98 13.808 30.788 30.789 30.788h328.5c16.98 0 30.807-13.808 30.807-30.788v-198.25c0-16.981-13.827-30.789-30.807-30.789zm-86.174-66.923l5.646 32-198.097 34.923h-49.875c-10.458 0-19.683 5.261-25.25 13.253l-52.783 9.302-.064-.363-4.557-33.115 324.98-56zm-291.5 253.115l-19.861-112.62 38.246-6.745v116.91l-18.385 2.455zm378.943 42.847c0 .692-.577 1.25-1.269 1.25l-329.75-1.25V237.692l1.25-33.307 329.769 1.25v198.25z" stroke="currentColor" stroke-width="3"/>
    <path fill="currentColor" d="M177.885 332.442h24.327c14.634 0 26.538-11.904 26.538-26.538v-24.327c0-14.615-11.904-26.519-26.538-26.519h-24.327c-14.616 0-26.52 11.904-26.52 26.519v24.327c0 14.634 11.904 26.538 26.52 26.538zm-6.827-50.865a6.828 6.828 0 016.827-6.827h24.327c3.769 0 6.846 3.058 6.846 6.827v24.327c0 3.769-3.077 6.846-6.846 6.846h-24.327c-3.77 0-6.827-3.077-6.827-6.846v-24.327zM369.962 344.596a9.84 9.84 0 000 13.923 9.814 9.814 0 006.961 2.885 9.816 9.816 0 006.962-2.885c29.653-29.634 29.653-77.884 0-107.519a9.843 9.843 0 00-13.923 0 9.84 9.84 0 000 13.923c21.961 21.962 21.961 57.712 0 79.673z"/>
    <path fill="currentColor" d="M346.558 332.904a9.843 9.843 0 000 13.923 9.814 9.814 0 006.961 2.885 9.816 9.816 0 006.962-2.885c23.192-23.192 23.192-60.942 0-84.135a9.843 9.843 0 00-13.923 0 9.843 9.843 0 000 13.923c15.519 15.52 15.519 40.77 0 56.289z"/>
    <path fill="currentColor" d="M323.154 335.135a9.813 9.813 0 006.961 2.884c2.52 0 5.039-.961 6.962-2.884 16.731-16.75 16.731-44 0-60.731a9.843 9.843 0 00-13.923 0 9.843 9.843 0 000 13.923c9.058 9.058 9.058 23.808 0 32.885-3.846 3.846-3.846 10.096 0 13.923zM414.712 304.769c0 19.443-7.577 37.75-21.366 51.539a9.843 9.843 0 000 13.923 9.814 9.814 0 006.962 2.884 9.813 9.813 0 006.961-2.884c17.5-17.5 27.135-40.75 27.135-65.462 0-24.731-9.635-47.961-27.135-65.461a9.843 9.843 0 00-13.923 0 9.843 9.843 0 000 13.923c13.789 13.769 21.366 32.077 21.366 51.538zM161.212 386.712h43.519a9.84 9.84 0 009.846-9.847 9.84 9.84 0 00-9.846-9.846h-43.519a9.84 9.84 0 00-9.847 9.846 9.841 9.841 0 009.847 9.847zM236.019 386.712h58.289a9.84 9.84 0 009.846-9.847 9.84 9.84 0 00-9.846-9.846h-58.289a9.84 9.84 0 00-9.846 9.846 9.84 9.84 0 009.846 9.847z"/>
  </g>
</svg>
