<svg viewBox="0 0 512 512" xmlns="http://www.w3.org/2000/svg" fill-rule="evenodd" clip-rule="evenodd" stroke-linejoin="round" stroke-miterlimit="2">
  <g fill-rule="nonzero" stroke="currentColor" stroke-width="5">
    <path fill="currentColor" d="M379.692 486.413H133.071c-25.538 0-46.241-20.703-46.241-46.241V147.31c.038-8.486 6.928-15.345 15.414-15.345s15.376 6.859 15.414 15.345v292.862c0 8.513 6.901 15.414 15.413 15.414h246.621c8.513 0 15.414-6.901 15.414-15.414V147.31c.038-8.486 6.927-15.345 15.413-15.345s15.376 6.859 15.414 15.345v292.862c0 25.538-20.703 46.241-46.241 46.241zM441.347 116.483H71.416c-8.485-.038-15.345-6.928-15.345-15.414s6.86-15.376 15.345-15.414h369.931c8.486.038 15.345 6.928 15.345 15.414s-6.859 15.376-15.345 15.414z"/>
    <path fill="currentColor" d="M318.037 116.483c-8.513 0-15.414-6.901-15.414-15.414V54.828H210.14v46.241c-.038 8.486-6.927 15.345-15.413 15.345s-15.376-6.859-15.414-15.345V39.414c0-8.513 6.901-15.414 15.414-15.414h123.31c8.513 0 15.414 6.901 15.414 15.414v61.655c0 8.513-6.901 15.414-15.414 15.414zM256.382 409.344c-8.513 0-15.414-6.901-15.414-15.413V178.138c.038-8.486 6.928-15.345 15.414-15.345s15.375 6.859 15.413 15.345v215.793c0 8.512-6.901 15.413-15.413 15.413zM333.451 378.517c-8.513 0-15.414-6.901-15.414-15.414V208.965c.038-8.486 6.928-15.345 15.414-15.345s15.375 6.859 15.413 15.345v154.138c0 8.513-6.901 15.414-15.413 15.414zM179.313 378.517c-8.513 0-15.414-6.901-15.414-15.414V208.965c.038-8.486 6.928-15.345 15.414-15.345s15.376 6.859 15.414 15.345v154.138c0 8.513-6.901 15.414-15.414 15.414z"/>
  </g>
</svg>
