<svg viewBox="0 0 512 512" xmlns="http://www.w3.org/2000/svg" fill-rule="evenodd" clip-rule="evenodd" stroke-linejoin="round" stroke-miterlimit="2">
  <path fill="currentColor" d="M57.275 470.857h80.975v-80.976H57.275v80.976zm98.969 0h89.973v-80.976h-89.973v80.976zm-98.969-98.97h80.975v-89.973H57.275v89.973zm98.969 0h89.973v-89.973h-89.973v89.973zM57.275 263.92h80.975v-80.975H57.275v80.975zm206.936 206.937h89.973v-80.976h-89.973v80.976zM156.244 263.92h89.973v-80.975h-89.973v80.975zm215.934 206.937h80.975v-80.976h-80.975v80.976zm-107.967-98.97h89.973v-89.973h-89.973v89.973zm-98.969-242.926V47.986c0-3.655-2.671-6.326-2.671-6.326-2.672-2.671-6.327-2.671-6.327-2.671H138.25c-3.655 0-6.326 2.671-6.326 2.671-2.671 2.671-2.671 6.326-2.671 6.326v80.975c0 3.656 2.671 6.327 2.671 6.327 2.671 2.671 6.326 2.671 6.326 2.671h17.994c3.655 0 6.327-2.671 6.327-2.671 2.671-2.671 2.671-6.327 2.671-6.327zm206.936 242.926h80.975v-89.973h-80.975v89.973zM264.211 263.92h89.973v-80.975h-89.973v80.975zm107.967 0h80.975v-80.975h-80.975v80.975zm8.997-134.959V47.986c0-3.655-2.671-6.326-2.671-6.326-2.671-2.671-6.326-2.671-6.326-2.671h-17.994c-3.655 0-6.327 2.671-6.327 2.671-2.671 2.671-2.671 6.326-2.671 6.326v80.975c0 3.656 2.671 6.327 2.671 6.327 2.672 2.671 6.327 2.671 6.327 2.671h17.994c3.655 0 6.326-2.671 6.326-2.671 2.671-2.671 2.671-6.327 2.671-6.327zm107.967-17.994v359.89c0 14.62-10.684 25.304-10.684 25.304-10.684 10.685-25.305 10.685-25.305 10.685H57.275c-14.621 0-25.305-10.685-25.305-10.685-10.684-10.684-10.684-25.304-10.684-25.304v-359.89c0-14.621 10.684-25.305 10.684-25.305 10.684-10.684 25.305-10.684 25.305-10.684h35.989V47.986c0-18.557 13.214-31.771 13.214-31.771C119.693 3 138.25 3 138.25 3h17.994c18.557 0 31.772 13.215 31.772 13.215 13.215 13.214 13.215 31.771 13.215 31.771v26.992h107.966V47.986c0-18.557 13.215-31.771 13.215-31.771C335.627 3 354.184 3 354.184 3h17.994c18.557 0 31.772 13.215 31.772 13.215 13.214 13.214 13.214 31.771 13.214 31.771v26.992h35.989c14.621 0 25.305 10.684 25.305 10.684 10.684 10.684 10.684 25.305 10.684 25.305z" fill-rule="nonzero"/>
</svg>
