<svg viewBox="0 0 512 512" xmlns="http://www.w3.org/2000/svg" fill-rule="evenodd" clip-rule="evenodd" stroke-linejoin="round" stroke-miterlimit="2">
  <path fill="currentColor" d="M255.779 238.606L77.688 60.515c-4.867-4.867-12.752-4.867-17.619 0-4.867 4.867-4.867 12.752 0 17.619L238.16 256.225 60.069 434.316c-4.867 4.867-4.867 12.752 0 17.619 4.867 4.867 12.752 4.867 17.619 0l178.091-178.091L433.87 451.935c4.867 4.867 12.752 4.867 17.619 0a12.408 12.408 0 003.65-8.81c0-3.196-1.217-6.376-3.65-8.809L273.398 256.225 451.489 78.134a12.406 12.406 0 003.65-8.809 12.41 12.41 0 00-3.65-8.81c-4.867-4.867-12.752-4.867-17.619 0L255.779 238.606z" fill-rule="nonzero" stroke="currentColor" stroke-width="30"/>
</svg>
