<?xml version="1.0" encoding="UTF-8" standalone="no"?><!DOCTYPE svg PUBLIC "-//W3C//DTD SVG 1.1//EN" "http://www.w3.org/Graphics/SVG/1.1/DTD/svg11.dtd"><svg width="100%" height="100%" viewBox="0 0 2134 2134" version="1.1" xmlns="http://www.w3.org/2000/svg" xmlns:xlink="http://www.w3.org/1999/xlink" xml:space="preserve" xmlns:serif="http://www.serif.com/" style="fill-rule:evenodd;clip-rule:evenodd;stroke-linejoin:round;stroke-miterlimit:2;"><g id="double-chevron-right"><path id="double-chevron-left" d="M1187.79,1023.16l-923.077,-923.077c-24.039,-24.038 -62.981,-24.038 -87.019,0c-24.039,24.039 -24.039,62.981 0,87.019l879.567,879.568l-879.567,879.567c-24.039,24.039 -24.039,62.981 0,87.019c12.019,12.02 27.724,18.029 43.509,18.029c15.785,0 31.491,-6.009 43.51,-18.029l923.077,-923.077c24.038,-24.038 24.038,-62.98 0,-87.019Z" style="fill-rule:nonzero;stroke:#000;stroke-width:75px;"/><path id="double-chevron-left1" serif:id="double-chevron-left" d="M1946.68,1023.16l-923.077,-923.077c-24.039,-24.038 -62.981,-24.038 -87.02,0c-24.038,24.039 -24.038,62.981 0,87.019l879.568,879.568l-879.568,879.567c-24.038,24.039 -24.038,62.981 0,87.019c12.02,12.02 27.725,18.029 43.51,18.029c15.785,0 31.49,-6.009 43.51,-18.029l923.077,-923.077c24.038,-24.038 24.038,-62.98 0,-87.019Z" style="fill-rule:nonzero;stroke:#000;stroke-width:75px;"/></g></svg>