<svg viewBox="0 0 512 512" xmlns="http://www.w3.org/2000/svg" fill-rule="evenodd" clip-rule="evenodd" stroke-linejoin="round" stroke-miterlimit="2">
  <g fill-rule="nonzero" stroke="currentColor" stroke-width="5">
    <path fill="currentColor" d="M385.755 426.767H48.337c-8.47 0-15.337-6.867-15.337-15.338V43.337C33 34.867 39.867 28 48.337 28h337.418c8.47 0 15.337 6.867 15.337 15.337v368.092c0 8.471-6.867 15.338-15.337 15.338zM63.674 396.092h306.744V58.674H63.674v337.418z"/>
    <path fill="currentColor" d="M464.778 483.115H127.36c-8.443-.038-15.269-6.893-15.269-15.337 0-8.444 6.826-15.299 15.269-15.337h322.081V115.023h-15.337c-8.444-.038-15.269-6.893-15.269-15.337 0-8.444 6.825-15.3 15.269-15.337h30.674c8.471 0 15.337 6.866 15.337 15.337v368.092c0 8.471-6.866 15.337-15.337 15.337z"/>
    <path fill="currentColor" d="M48.337 347.933a15.336 15.336 0 01-10.736-4.447c-5.946-5.982-5.946-15.644 0-21.626l62.116-63.802c14.221-14.524 36.944-16.418 53.373-4.448l55.061 39.876a10.428 10.428 0 0013.496-1.226l56.748-57.055c16.343-15.777 42.245-15.777 58.588 0l59.508 60.275c5.171 6.122 4.758 15.193-.949 20.819-5.706 5.626-14.782 5.911-20.83.653l-59.508-60.275a10.586 10.586 0 00-15.337 0l-56.901 57.515c-14.211 14.509-36.889 16.464-53.373 4.601l-55.061-39.877a10.277 10.277 0 00-13.497 1.074l-61.808 63.342a15.336 15.336 0 01-10.89 4.601zM162 210.279c-33.882 0-61.348-27.466-61.348-61.348S128.118 87.582 162 87.582s61.349 27.467 61.349 61.349-27.467 61.348-61.349 61.348zm0-92.023c-16.941 0-30.674 13.734-30.674 30.675 0 16.941 13.733 30.674 30.674 30.674s30.675-13.733 30.675-30.674-13.734-30.675-30.675-30.675h0z"/>
  </g>
</svg>
