<svg viewBox="0 0 512 512" xmlns="http://www.w3.org/2000/svg" fill-rule="evenodd" clip-rule="evenodd" stroke-linejoin="round" stroke-miterlimit="2">
  <g fill-rule="nonzero"  stroke="currentColor"  fill="currentColor" stroke-width="10">
    <path d="M477.538 241.231H34.462c-8.154 0-14.77 6.615-14.77 14.769s6.616 14.769 14.77 14.769h443.076c8.154 0 14.77-6.615 14.77-14.769s-6.616-14.769-14.77-14.769zM34.462 121.615h443.076c8.154 0 14.77-6.615 14.77-14.769s-6.616-14.769-14.77-14.769H34.462c-8.154 0-14.77 6.615-14.77 14.769s6.616 14.769 14.77 14.769zM477.538 391.385H34.462c-8.154 0-14.77 6.615-14.77 14.769s6.616 14.769 14.77 14.769h443.076c8.154 0 14.77-6.615 14.77-14.769s-6.616-14.769-14.77-14.769z"/>
  </g>
</svg>
