<svg viewBox="0 0 512 512" xmlns="http://www.w3.org/2000/svg" fill-rule="evenodd" clip-rule="evenodd" stroke-linejoin="round" stroke-miterlimit="9">
  <path fill="currentColor" d="M256 32C132.281 32 32 132.281 32 256c0 123.703 100.281 224 224 224 123.703 0 224-100.297 224-224 0-123.719-100.297-224-224-224zm0 400c-97.063 0-176-78.953-176-176S158.938 80 256 80c97.031 0 176 78.953 176 176s-78.969 176-176 176zm80-126.547c0 29.531-20.25 59.016-64 67.734v20.063a6.752 6.752 0 01-6.75 6.75h-18.5a6.742 6.742 0 01-6.75-6.75v-17.406c-22.25-.797-46.453-6.844-60.344-15.313-3.063-1.875-4.375-5.344-3.281-8.563l8.828-25.702c.609-1.72 2.047-3.109 3.906-3.75 1.891-.609 3.969-.406 5.656.594l2.016 1.203c14.094 8.266 32.375 13.016 50.219 13.016 25.969 0 41.5-11.078 41.5-29.609 0-13.828-6.625-24.656-39.438-35.906-45.828-15.28-68.125-37.905-68.125-69.125 0-31.953 23.406-55.781 59.063-63.656V118.75a6.742 6.742 0 016.75-6.75h18.5a6.752 6.752 0 016.75 6.75v17.531c19.656.719 37.828 4.672 50.406 11.391 3.375 1.813 4.891 5.547 3.641 8.953l-9.203 24.969c-.641 1.672-2.063 3-3.905 3.625-1.845.594-3.875.391-5.531-.547l-1.97-1.094c-7.844-4.469-22.608-9.219-40.469-9.219-26.969 0-36.547 13.516-36.547 25.078 0 15.391 9.813 23.578 42.016 34.984C302.875 246.156 336 263.781 336 305.453z" fill="currentColor"/>
</svg>
