<svg xmlns="http://www.w3.org/2000/svg" xmlns:xlink="http://www.w3.org/1999/xlink" version="1.1" id="Layer_1" x="0px" y="0px" viewBox="0 0 141.5 17.8" style="enable-background:new 0 0 141.5 17.8" xml:space="preserve" class="footer-spree-copyright-logo-spark mx-2">
  <style type="text/css">
    .st1{fill:#06c}.st2{fill:#39f}
  </style>
  <g id="Group_615" transform="translate(-424.246 -339.241)">
    <g id="Group_612" transform="translate(471.209 339.241)">
      <g>
        <defs>
          <path id="SVGID_1_" d="M8.1,0.1C8.1,0,8.2,0,8.3,0c0.1,0,0.3,0.1,0.3,0.2c0,0,0,0,0,0L7.7,6.7l8.6,1.5l-8.1,9.5      c-0.1,0.1-0.2,0.1-0.3,0.1c-0.1,0-0.3-0.1-0.3-0.2c0,0,0,0,0,0l0.8-6.4L0,9.6L8.1,0.1z"/>
        </defs>
        <clipPath id="SVGID_2_">
          <use xlink:href="#SVGID_1_" style="overflow:visible"/>
        </clipPath>
        <g id="Group_611" style="clip-path:url(#SVGID_2_)">
          <g id="Group_610" transform="translate(0 -.622)">
            <path id="Path_391" class="st1" d="M16.3,8.8L7.6,19.1l1-7.3L16.3,8.8z"/>
            <path id="Path_392" class="st2" d="M7.7,7.3l8.6,1.5l-7.7,2.9L7.7,7.3z"/>
            <path id="Path_393" class="st1" d="M7.7,7.3l0.9,4.4L0,10.3L7.7,7.3z"/>
            <path id="Path_394" class="st2" d="M8.7,0l-1,7.3L0,10.3L8.7,0z"/>
          </g>
        </g>
      </g>
    </g>
    <g id="Group_613" transform="translate(488.701 342.888)">
      <path id="Path_396" d="M2.7,6C1.2,5.3,0.6,4.5,0.8,3c0.3-2.3,1.5-3,4.6-3C6.6,0,7.8,0.1,9,0.5l-0.5,2c-0.9,0-2.3,0-3.6,0    C4.3,2.5,4,2.6,4,2.9c0,0.3,0.1,0.4,0.8,0.7l1.7,0.8C8.1,5.1,8.6,6,8.4,7.4C8.1,9.7,7,10.5,3.9,10.5c-1.3,0-2.6-0.2-3.9-0.5    l0.5-2.2c1.7,0,3.1,0.1,3.7,0.1c0.8,0,1-0.1,1-0.4S5.1,7.1,4.6,6.9L2.7,6z"/>
      <path id="Path_397" d="M18.4,5.3c-0.5,4.2-1.9,5.3-5.4,5.3s-4.6-1.1-4-5.3S10.9,0,14.3,0S18.9,1.1,18.4,5.3z M12.3,5.3    c-0.3,2.3-0.1,2.9,1,2.9s1.4-0.6,1.7-2.9s0.1-2.9-1-2.9S12.6,2.9,12.3,5.3L12.3,5.3z"/>
      <path id="Path_398" d="M21.9,7.3c0,0.3,0.2,0.5,0.5,0.5h3.4l-0.2,2.4c-1.7,0.2-3.3,0.2-5,0.2c-1.1,0.1-2-0.6-2.1-1.7    c0-0.2,0-0.4,0-0.6l1-7.9h3.2L21.9,7.3z"/>
      <path id="Path_399" d="M35.3,6.1c-0.4,3.2-1.7,4.4-4.9,4.4c-3.4,0-4.5-1.2-4.1-4.4l0.8-5.9h3.2l-0.8,5.9c-0.2,1.6,0,2,1,2    s1.3-0.4,1.6-2l0.8-5.9h3.2L35.3,6.1z"/>
      <path id="Path_400" d="M42.1,2.6l-1,7.7h-3.2l1-7.7h-2.8l0.3-2.4h8.8l-0.3,2.4H42.1z"/>
      <path id="Path_401" d="M44.2,10.3l1.3-10.1h3.2l-1.3,10.1L44.2,10.3z"/>
      <path id="Path_402" d="M58.1,5.3c-0.5,4.2-1.9,5.3-5.4,5.3s-4.6-1.1-4-5.3S50.6,0,54.1,0C57.5,0,58.6,1.1,58.1,5.3L58.1,5.3z     M52,5.3c-0.3,2.3-0.1,2.9,1,2.9s1.4-0.6,1.7-2.9s0.1-2.9-1-2.9S52.3,2.9,52,5.3z"/>
      <path id="Path_403" d="M67.5,9.2c0,0.6-0.6,1.1-1.2,1.1c0,0,0,0-0.1,0H65c-0.7,0-0.9-0.3-1.1-0.9l-1.7-3.5    c-0.2-0.6-0.4-1.1-0.4-1.7h-0.1c0,0.6,0,1.2-0.1,1.8L61,10.3H58l1.2-9c0-0.6,0.6-1.1,1.2-1.1c0,0,0,0,0.1,0h1.2    c0.7,0,0.8,0.3,1.1,0.9l1.7,3.3C64.7,5,64.9,5.6,65,6.2h0.1c0-0.6,0-1.2,0.1-1.8l0.5-4.1h2.9L67.5,9.2z"/>
      <path id="Path_404" d="M70.7,6c-1.5-0.7-2.1-1.6-1.9-3.1c0.3-2.3,1.5-3,4.6-3c1.2,0,2.4,0.1,3.6,0.5l-0.5,2c-0.9,0-2.3,0-3.6,0    c-0.7,0-0.9,0.1-1,0.4c0,0.3,0.1,0.4,0.8,0.7l1.7,0.8c1.6,0.7,2.1,1.6,1.9,3.1c-0.3,2.3-1.4,3.1-4.5,3.1c-1.3,0-2.6-0.2-3.9-0.5    l0.5-2.2c1.7,0,3.1,0.1,3.7,0.1c0.8,0,1-0.1,1-0.4s-0.1-0.4-0.6-0.6L70.7,6z"/>
    </g>
    <g id="Group_614" transform="translate(424.246 342.888)">
      <path id="Path_405" d="M2.7,6C1.2,5.3,0.6,4.5,0.8,3c0.3-2.3,1.5-3,4.6-3C6.6,0,7.8,0.1,9,0.5l-0.5,2c-0.9,0-2.3,0-3.6,0    C4.3,2.5,4,2.6,4,2.9c0,0.3,0.1,0.4,0.8,0.7l1.7,0.8C8.1,5.1,8.6,6,8.4,7.4C8.1,9.7,7,10.5,3.9,10.5c-1.3,0-2.6-0.2-3.9-0.5    l0.5-2.2c1.7,0,3.1,0.1,3.7,0.1c0.8,0,1-0.1,1-0.4S5.1,7.1,4.6,6.9L2.7,6z"/>
      <path id="Path_406" d="M9.8,0.2c1.4-0.1,2.9-0.2,4.3-0.1c3.2,0,4.1,0.7,3.7,3.4c-0.4,2.7-1.4,3.4-4.2,3.4c-0.5,0-1,0-1.5-0.1    l-0.5,3.5H8.5L9.8,0.2z M13.5,4.7c0.9,0,1.1-0.2,1.2-1.2c0.1-1-0.1-1.2-0.9-1.2h-1l-0.3,2.4L13.5,4.7z"/>
      <path id="Path_407" d="M20.1,8.1l-0.8,2.2h-3.2L19.9,1c0.2-0.5,0.7-0.8,1.2-0.8H24c0.5,0,0.9,0.3,1,0.8l1.4,9.3h-3.2l-0.2-2.2    H20.1z M22.5,3.7c0-0.4,0-0.8,0-1.2H22C22,3,21.8,3.4,21.7,3.7l-0.8,2.2h1.7L22.5,3.7z"/>
      <path id="Path_408" d="M32.2,10.3l-0.3-3c0-0.6-0.2-0.7-0.8-0.7h-1l-0.5,3.7h-3.1l1.3-10.1c1.4-0.1,2.9-0.2,4.3-0.1    c3,0,4.2,0.7,3.9,3.1c0,1.3-1.1,2.3-2.4,2.4l0,0.1c0.8,0.1,1.5,0.8,1.4,1.6l0.4,3.1L32.2,10.3z M31.6,4.4c0.9,0,1.2-0.2,1.3-1    s-0.1-1-1-1h-1.1l-0.3,2.1L31.6,4.4z"/>
      <path id="Path_409" d="M39.5,6.1c0,0.3,0,0.6,0,0.9l-0.4,3.3h-3.2l1.3-10.1h3.2l-0.3,2.6c-0.1,0.4-0.2,0.9-0.3,1.3h0.6l2.6-3.8    h3.4l-2.9,4c-0.2,0.4-0.6,0.7-1,0.9l0,0.1c0.4,0.2,0.7,0.6,0.9,1l1.8,4.2h-3.5l-1.6-4.2L39.5,6.1z"/>
    </g>
  </g>
</svg>
