<?xml version="1.0" encoding="UTF-8" standalone="no"?>
<!DOCTYPE svg PUBLIC "-//W3C//DTD SVG 1.1//EN" "http://www.w3.org/Graphics/SVG/1.1/DTD/svg11.dtd">
<svg width="100%" height="100%" viewBox="0 0 512 512" version="1.1" xmlns="http://www.w3.org/2000/svg" xmlns:xlink="http://www.w3.org/1999/xlink" xml:space="preserve" xmlns:serif="http://www.serif.com/" style="fill-rule:evenodd;clip-rule:evenodd;stroke-linejoin:round;stroke-miterlimit:2;">
    <g id="icon-envelope" transform="matrix(20.7383,0,0,-20.7383,-14.046,523.611)">
        <path d="M23.229,22L2.771,22C1.794,22 1,21.156 1,20.119L1,5.881C1,4.844 1.794,4 2.771,4L23.229,4C24.206,4 25,4.844 25,5.881L25,20.119C25,21.156 24.206,22 23.229,22ZM15.667,13L23.5,18.653L23.5,7.347L15.667,13ZM23.229,20.5C23.283,20.5 23.337,20.468 23.384,20.419L13,12.925L2.616,20.419C2.663,20.468 2.717,20.5 2.771,20.5L23.229,20.5ZM2.5,7.347L2.5,18.653L10.333,13L2.5,7.347ZM2.771,5.5C2.717,5.5 2.663,5.532 2.616,5.581L11.614,12.075L12.562,11.392C12.584,11.375 12.61,11.369 12.634,11.355C12.657,11.342 12.678,11.331 12.703,11.32C12.799,11.279 12.898,11.25 12.999,11.25C12.999,11.25 13,11.25 13,11.25C13,11.25 13.001,11.25 13.001,11.25C13.102,11.25 13.201,11.279 13.297,11.32C13.322,11.331 13.343,11.342 13.366,11.355C13.39,11.369 13.416,11.375 13.438,11.392L14.385,12.075L23.384,5.581C23.337,5.532 23.283,5.5 23.229,5.5L2.771,5.5Z" style="fill-rule:nonzero;stroke:black;stroke-width:0.58px;"/>
    </g>
</svg>
