<?xml version="1.0" encoding="UTF-8" standalone="no"?><!DOCTYPE svg PUBLIC "-//W3C//DTD SVG 1.1//EN" "http://www.w3.org/Graphics/SVG/1.1/DTD/svg11.dtd"><svg width="100%" height="100%" viewBox="0 0 512 512" version="1.1" xmlns="http://www.w3.org/2000/svg" xmlns:xlink="http://www.w3.org/1999/xlink" xml:space="preserve" xmlns:serif="http://www.serif.com/" style="fill-rule:evenodd;clip-rule:evenodd;stroke-linejoin:round;stroke-miterlimit:2;"><path id="icon-calendar" d="M57.275,470.857l80.975,0l0,-80.976l-80.975,0l0,80.976Zm98.969,0l89.973,0l0,-80.976l-89.973,0l0,80.976Zm-98.969,-98.97l80.975,0l0,-89.973l-80.975,0l0,89.973Zm98.969,0l89.973,0l0,-89.973l-89.973,0l0,89.973Zm-98.969,-107.967l80.975,0l0,-80.975l-80.975,0l0,80.975Zm206.936,206.937l89.973,0l0,-80.976l-89.973,0l0,80.976Zm-107.967,-206.937l89.973,0l0,-80.975l-89.973,0l0,80.975Zm215.934,206.937l80.975,0l0,-80.976l-80.975,0l0,80.976Zm-107.967,-98.97l89.973,0l0,-89.973l-89.973,0l0,89.973Zm-98.969,-242.926l0,-80.975c0,-3.655 -2.671,-6.326 -2.671,-6.326c-2.672,-2.671 -6.327,-2.671 -6.327,-2.671l-17.994,0c-3.655,0 -6.326,2.671 -6.326,2.671c-2.671,2.671 -2.671,6.326 -2.671,6.326l0,80.975c0,3.656 2.671,6.327 2.671,6.327c2.671,2.671 6.326,2.671 6.326,2.671l17.994,0c3.655,0 6.327,-2.671 6.327,-2.671c2.671,-2.671 2.671,-6.327 2.671,-6.327Zm206.936,242.926l80.975,0l0,-89.973l-80.975,0l0,89.973Zm-107.967,-107.967l89.973,0l0,-80.975l-89.973,0l0,80.975Zm107.967,0l80.975,0l0,-80.975l-80.975,0l0,80.975Zm8.997,-134.959l0,-80.975c0,-3.655 -2.671,-6.326 -2.671,-6.326c-2.671,-2.671 -6.326,-2.671 -6.326,-2.671l-17.994,0c-3.655,0 -6.327,2.671 -6.327,2.671c-2.671,2.671 -2.671,6.326 -2.671,6.326l0,80.975c0,3.656 2.671,6.327 2.671,6.327c2.672,2.671 6.327,2.671 6.327,2.671l17.994,0c3.655,0 6.326,-2.671 6.326,-2.671c2.671,-2.671 2.671,-6.327 2.671,-6.327Zm107.967,-17.994l0,359.89c0,14.62 -10.684,25.304 -10.684,25.304c-10.684,10.685 -25.305,10.685 -25.305,10.685l-395.878,0c-14.621,0 -25.305,-10.685 -25.305,-10.685c-10.684,-10.684 -10.684,-25.304 -10.684,-25.304l0,-359.89c0,-14.621 10.684,-25.305 10.684,-25.305c10.684,-10.684 25.305,-10.684 25.305,-10.684l35.989,0l0,-26.992c0,-18.557 13.214,-31.771 13.214,-31.771c13.215,-13.215 31.772,-13.215 31.772,-13.215l17.994,0c18.557,0 31.772,13.215 31.772,13.215c13.215,13.214 13.215,31.771 13.215,31.771l0,26.992l107.966,0l0,-26.992c0,-18.557 13.215,-31.771 13.215,-31.771c13.215,-13.215 31.772,-13.215 31.772,-13.215l17.994,0c18.557,0 31.772,13.215 31.772,13.215c13.214,13.214 13.214,31.771 13.214,31.771l0,26.992l35.989,0c14.621,0 25.305,10.684 25.305,10.684c10.684,10.684 10.684,25.305 10.684,25.305Z" style="fill-rule:nonzero;"/></svg>