<?xml version="1.0" encoding="UTF-8" standalone="no"?><!DOCTYPE svg PUBLIC "-//W3C//DTD SVG 1.1//EN" "http://www.w3.org/Graphics/SVG/1.1/DTD/svg11.dtd"><svg width="100%" height="100%" viewBox="0 0 512 512" version="1.1" xmlns="http://www.w3.org/2000/svg" xmlns:xlink="http://www.w3.org/1999/xlink" xml:space="preserve" xmlns:serif="http://www.serif.com/" style="fill-rule:evenodd;clip-rule:evenodd;stroke-linejoin:round;stroke-miterlimit:2;"><g id="icon-menu"><path d="M477.538,241.231l-443.076,0c-8.154,0 -14.77,6.615 -14.77,14.769c0,8.154 6.616,14.769 14.77,14.769l443.076,0c8.154,0 14.77,-6.615 14.77,-14.769c0,-8.154 -6.616,-14.769 -14.77,-14.769Z" style="fill-rule:nonzero;stroke:#000;stroke-width:9.5px;"/><path d="M34.462,121.615l443.076,0c8.154,0 14.77,-6.615 14.77,-14.769c0,-8.154 -6.616,-14.769 -14.77,-14.769l-443.076,0c-8.154,0 -14.77,6.615 -14.77,14.769c0,8.154 6.616,14.769 14.77,14.769Z" style="fill-rule:nonzero;stroke:#000;stroke-width:9.5px;"/><path d="M477.538,391.385l-443.076,0c-8.154,0 -14.77,6.615 -14.77,14.769c0,8.154 6.616,14.769 14.77,14.769l443.076,0c8.154,0 14.77,-6.615 14.77,-14.769c0,-8.154 -6.616,-14.769 -14.77,-14.769Z" style="fill-rule:nonzero;stroke:#000;stroke-width:9.5px;"/></g></svg>