<?xml version="1.0" encoding="UTF-8" standalone="no"?><!DOCTYPE svg PUBLIC "-//W3C//DTD SVG 1.1//EN" "http://www.w3.org/Graphics/SVG/1.1/DTD/svg11.dtd"><svg width="100%" height="100%" viewBox="0 0 512 512" version="1.1" xmlns="http://www.w3.org/2000/svg" xmlns:xlink="http://www.w3.org/1999/xlink" xml:space="preserve" xmlns:serif="http://www.serif.com/" style="fill-rule:evenodd;clip-rule:evenodd;stroke-linecap:round;stroke-linejoin:round;stroke-miterlimit:1.5;"><g id="icon-move-x"><circle cx="255.986" cy="256.004" r="17.089" style="stroke:#000;stroke-width:41px;"/><path d="M174.573,248.936c-3.915,3.915 -3.915,10.261 0,14.176c4.077,4.077 9.234,9.234 13.573,13.573c1.48,1.481 1.923,3.707 1.122,5.641c-0.801,1.934 -2.688,3.195 -4.782,3.195l-75.995,0l0,34.809c0,4.052 -2.441,7.705 -6.184,9.255c-3.743,1.551 -8.052,0.694 -10.917,-2.171c-19.502,-19.502 -50.47,-50.47 -64.306,-64.306c-3.913,-3.913 -3.913,-10.255 0,-14.168c13.836,-13.836 44.804,-44.804 64.306,-64.306c2.865,-2.865 7.174,-3.722 10.917,-2.171c3.743,1.55 6.184,5.203 6.184,9.255c0,16.287 0,34.809 0,34.809l75.995,0c2.094,0 3.981,1.261 4.782,3.195c0.801,1.934 0.358,4.161 -1.122,5.641c-4.339,4.339 -9.496,9.496 -13.573,13.573Z" style="fill-rule:nonzero;stroke:#000;stroke-width:1px;stroke-linecap:butt;stroke-miterlimit:2;"/><path d="M336.793,263c3.767,-3.888 3.767,-10.064 0,-13.952c-3.984,-4.112 -9.063,-9.352 -13.317,-13.743c-1.447,-1.493 -1.86,-3.706 -1.05,-5.62c0.811,-1.914 2.688,-3.158 4.767,-3.158c24.28,0 76.268,0 76.268,0l0,-34.809c0,-4.052 2.441,-7.705 6.184,-9.255c3.743,-1.551 8.052,-0.694 10.917,2.171c19.502,19.502 50.47,50.47 64.306,64.306c3.912,3.913 3.912,10.255 0,14.168c-13.836,13.836 -44.804,44.804 -64.306,64.306c-2.865,2.865 -7.174,3.722 -10.917,2.171c-3.743,-1.55 -6.184,-5.203 -6.184,-9.255c0,-16.287 0,-34.809 0,-34.809l-76.268,0c-2.079,0 -3.956,-1.243 -4.767,-3.158c-0.81,-1.914 -0.397,-4.127 1.05,-5.62c4.254,-4.391 9.333,-9.631 13.317,-13.743Z" style="fill-rule:nonzero;stroke:#000;stroke-width:1px;stroke-linecap:butt;stroke-miterlimit:2;"/></g></svg>