<?xml version="1.0" encoding="UTF-8" standalone="no"?><!DOCTYPE svg PUBLIC "-//W3C//DTD SVG 1.1//EN" "http://www.w3.org/Graphics/SVG/1.1/DTD/svg11.dtd"><svg width="100%" height="100%" viewBox="0 0 512 512" version="1.1" xmlns="http://www.w3.org/2000/svg" xmlns:xlink="http://www.w3.org/1999/xlink" xml:space="preserve" xmlns:serif="http://www.serif.com/" style="fill-rule:evenodd;clip-rule:evenodd;stroke-linejoin:round;stroke-miterlimit:2;"><g id="icon-split"><path d="M342.635,23.189c-4.044,0 -7.691,2.436 -9.238,6.173c-1.548,3.737 -0.693,8.038 2.167,10.898c14.056,14.055 33.273,33.273 43.495,43.495c1.876,1.875 2.929,4.418 2.929,7.071c0,2.652 -1.053,5.195 -2.929,7.071c-16.051,16.051 -55.088,55.088 -71.139,71.139c-1.875,1.875 -2.929,4.419 -2.929,7.071c0,2.652 1.054,5.196 2.929,7.071c7.558,7.558 19.47,19.47 27.028,27.028c1.875,1.876 4.419,2.929 7.071,2.929c2.652,0 5.196,-1.053 7.071,-2.929c16.051,-16.051 55.088,-55.088 71.139,-71.139c1.876,-1.875 4.419,-2.929 7.072,-2.929c2.652,0 5.195,1.054 7.071,2.929c10.221,10.222 29.439,29.44 43.494,43.495c2.86,2.86 7.162,3.715 10.898,2.168c3.737,-1.548 6.174,-5.195 6.174,-9.239c0,-39.215 0,-115.106 0,-142.302c0,-5.523 -4.478,-10 -10,-10l-142.303,0Z"/><path d="M183.803,40.25c2.858,-2.859 3.713,-7.157 2.166,-10.892c-1.547,-3.734 -5.191,-6.169 -9.233,-6.169c-39.213,0 -115.128,0 -142.322,0c-5.52,0 -9.994,4.474 -9.994,9.994l0,142.322c0,4.042 2.435,7.687 6.169,9.233c3.735,1.547 8.033,0.692 10.891,-2.166c14.059,-14.058 33.287,-33.286 43.51,-43.509c1.874,-1.874 4.416,-2.927 7.067,-2.927c2.65,0 5.192,1.053 7.066,2.927c25.371,25.37 111.25,111.25 128.221,128.22c1.874,1.875 2.927,4.417 2.927,7.067c0,26.274 0,169.964 0,209.363c0,2.65 1.053,5.192 2.927,7.066c1.875,1.875 4.417,2.928 7.067,2.928c10.827,0 28,0 38.827,0c2.65,0 5.192,-1.053 7.067,-2.928c1.874,-1.874 2.927,-4.416 2.927,-7.066l0,-232.889c0,-2.65 -1.053,-5.192 -2.927,-7.066c-18.407,-18.407 -118.272,-118.272 -145.865,-145.866c-1.875,-1.874 -2.927,-4.416 -2.927,-7.066c0,-2.651 1.052,-5.193 2.927,-7.067c10.223,-10.223 29.451,-29.451 43.509,-43.509Z"/></g></svg>