<?xml version="1.0" encoding="UTF-8" standalone="no"?><!DOCTYPE svg PUBLIC "-//W3C//DTD SVG 1.1//EN" "http://www.w3.org/Graphics/SVG/1.1/DTD/svg11.dtd"><svg width="100%" height="100%" viewBox="0 0 512 512" version="1.1" xmlns="http://www.w3.org/2000/svg" xmlns:xlink="http://www.w3.org/1999/xlink" xml:space="preserve" xmlns:serif="http://www.serif.com/" style="fill-rule:evenodd;clip-rule:evenodd;stroke-linejoin:round;stroke-miterlimit:2;"><g id="icon-enter"><path d="M420.084,27.085l-177.673,0l0,32.74l177.673,0c10.83,0 19.742,7.39 19.742,16.37l0,360.14c0,8.98 -8.912,16.37 -19.742,16.37l-177.673,0l0,32.74l177.673,0c32.49,0 59.225,-22.169 59.225,-49.11l0,-360.14c0,-26.941 -26.735,-49.11 -59.225,-49.11Z" style="fill-rule:nonzero;stroke:#000;stroke-width:10px;"/><path d="M38.175,244.711l0,35.993l262.387,0l-71.985,71.986l25.555,26.095l89.982,-89.983c6.756,-6.748 10.556,-15.915 10.556,-25.464c0,-9.55 -3.8,-18.717 -10.556,-25.465l-89.982,-89.982l-25.555,24.835l71.985,71.985l-262.387,0Z" style="fill-rule:nonzero;stroke:#000;stroke-width:10px;"/></g></svg>