<?xml version="1.0" encoding="UTF-8" standalone="no"?><!DOCTYPE svg PUBLIC "-//W3C//DTD SVG 1.1//EN" "http://www.w3.org/Graphics/SVG/1.1/DTD/svg11.dtd"><svg width="100%" height="100%" viewBox="0 0 512 512" version="1.1" xmlns="http://www.w3.org/2000/svg" xmlns:xlink="http://www.w3.org/1999/xlink" xml:space="preserve" xmlns:serif="http://www.serif.com/" style="fill-rule:evenodd;clip-rule:evenodd;stroke-linejoin:round;stroke-miterlimit:2;"><g id="icon-cart"><path d="M163.024,309.596c-7.457,0.151 -13.957,-5.049 -15.447,-12.357l-36.145,-182.118c-4.341,-21.641 -23.342,-37.217 -45.414,-37.227l-26.569,0c-8.504,-0.038 -15.378,-6.943 -15.378,-15.447c0,-8.504 6.874,-15.409 15.378,-15.447l26.569,0c36.707,-0.007 68.348,25.822 75.689,61.787l36.764,182.273c0.907,4.105 0.101,8.402 -2.231,11.9c-2.332,3.498 -5.989,5.895 -10.127,6.636l-3.089,0Z" style="fill-rule:nonzero;stroke:#000;stroke-width:9.5px;"/><path d="M178.471,417.724l-28.731,0c-34.022,-0.21 -61.923,-27.023 -63.487,-61.01c-1.563,-33.986 23.758,-63.247 57.617,-66.581l284.376,-25.796l24.87,-124.656l-320.986,0c-8.504,-0.038 -15.378,-6.943 -15.378,-15.447c0,-8.504 6.874,-15.409 15.378,-15.447l339.831,0c4.62,0.031 8.984,2.128 11.894,5.716c3.058,3.518 4.364,8.23 3.553,12.821l-30.894,154.468c-1.34,6.709 -6.934,11.737 -13.748,12.358l-296.116,26.877c-18.109,0.931 -32.06,16.326 -31.21,34.44c0.851,18.114 16.182,32.133 34.3,31.364l28.731,0c8.504,0.038 15.378,6.942 15.378,15.446c0,8.505 -6.874,15.409 -15.378,15.447Z" style="fill-rule:nonzero;stroke:#000;stroke-width:9.5px;"/><path d="M410.174,464.065c-34.125,0 -61.788,-27.663 -61.788,-61.788c0,-34.124 27.663,-61.787 61.788,-61.787c34.124,0 61.787,27.663 61.787,61.787c0,34.125 -27.663,61.788 -61.787,61.788Zm0,-92.681c-17.063,0 -30.894,13.831 -30.894,30.893c0,17.063 13.831,30.894 30.894,30.894c17.062,0 30.893,-13.831 30.893,-30.894c0,-17.062 -13.831,-30.893 -30.893,-30.893Z" style="fill-rule:nonzero;stroke:#000;stroke-width:9.5px;"/><path d="M224.811,464.065c-34.124,0 -61.787,-27.663 -61.787,-61.788c0,-34.124 27.663,-61.787 61.787,-61.787c34.125,0 61.788,27.663 61.788,61.787c0,34.125 -27.663,61.788 -61.788,61.788Zm0,-92.681c-17.062,0 -30.893,13.831 -30.893,30.893c0,17.063 13.831,30.894 30.893,30.894c17.063,0 30.894,-13.831 30.894,-30.894c0,-17.062 -13.831,-30.893 -30.894,-30.893Z" style="fill-rule:nonzero;stroke:#000;stroke-width:9.5px;"/><path d="M363.833,417.724l-92.681,0c-8.504,-0.038 -15.378,-6.942 -15.378,-15.447c0,-8.504 6.874,-15.408 15.378,-15.446l92.681,0c8.504,0.038 15.378,6.942 15.378,15.446c0,8.505 -6.874,15.409 -15.378,15.447Z" style="fill-rule:nonzero;stroke:#000;stroke-width:9.5px;"/></g></svg>