<?xml version="1.0" encoding="UTF-8" standalone="no"?><!DOCTYPE svg PUBLIC "-//W3C//DTD SVG 1.1//EN" "http://www.w3.org/Graphics/SVG/1.1/DTD/svg11.dtd"><svg width="100%" height="100%" viewBox="0 0 512 512" version="1.1" xmlns="http://www.w3.org/2000/svg" xmlns:xlink="http://www.w3.org/1999/xlink" xml:space="preserve" xmlns:serif="http://www.serif.com/" style="fill-rule:evenodd;clip-rule:evenodd;stroke-linejoin:round;stroke-miterlimit:2;"><g id="Layer_2"><path d="M457.762,266.084c0,-66.339 -35.773,-128.09 -93.363,-161.144c-8.008,-4.6 -18.231,-1.84 -22.831,6.178c-4.6,8.007 -1.829,18.231 6.178,22.831c47.23,27.117 76.564,77.745 76.564,132.135c0,80.38 -62.619,146.406 -141.628,151.873l27.744,-27.744c6.534,-6.534 6.534,-17.124 0,-23.657c-6.533,-6.534 -17.123,-6.534 -23.657,0l-53.074,53.073c-3.136,3.137 -4.902,7.391 -4.902,11.824c0,4.432 1.766,8.687 4.902,11.823l53.074,53.084c3.262,3.262 7.548,4.903 11.823,4.903c4.276,0 8.562,-1.631 11.824,-4.903c6.533,-6.533 6.533,-17.123 0,-23.657l-21.681,-21.681c94.617,-8.457 169.027,-88.167 169.027,-184.938Z" style="fill-rule:nonzero;stroke:#000;stroke-width:12px;"/><path d="M201.695,146.007c3.262,3.261 7.548,4.903 11.824,4.903c4.275,0 8.561,-1.631 11.823,-4.903l53.074,-53.074c3.136,-3.136 4.903,-7.391 4.903,-11.823c0,-4.433 -1.767,-8.687 -4.903,-11.823l-53.064,-53.074c-6.533,-6.534 -17.123,-6.534 -23.657,0c-6.533,6.533 -6.533,17.123 0,23.657l25.006,25.005c-96.185,6.868 -172.341,87.31 -172.341,185.22c0,66.381 35.804,128.153 93.457,161.208c2.624,1.505 5.488,2.216 8.3,2.216c5.802,0 11.436,-3.021 14.52,-8.405c4.6,-8.018 1.819,-18.231 -6.188,-22.831c-47.272,-27.107 -76.637,-77.755 -76.637,-132.188c0,-79.041 60.548,-144.21 137.708,-151.548l-23.825,23.824c-6.533,6.512 -6.533,17.102 0,23.636Z" style="fill-rule:nonzero;stroke:#000;stroke-width:12px;"/></g></svg>