<?xml version="1.0" encoding="UTF-8" standalone="no"?><!DOCTYPE svg PUBLIC "-//W3C//DTD SVG 1.1//EN" "http://www.w3.org/Graphics/SVG/1.1/DTD/svg11.dtd"><svg width="100%" height="100%" viewBox="0 0 512 512" version="1.1" xmlns="http://www.w3.org/2000/svg" xmlns:xlink="http://www.w3.org/1999/xlink" xml:space="preserve" xmlns:serif="http://www.serif.com/" style="fill-rule:evenodd;clip-rule:evenodd;stroke-linejoin:round;stroke-miterlimit:2;"><path id="icon-shipping" d="M340.885,108.212l0,-5.597c0,-8.153 -6.616,-14.769 -14.77,-14.769l-291.673,0c-8.154,0 -14.769,6.616 -14.769,14.769l0,267.385c0,8.154 6.615,14.769 14.769,14.769l60.94,0c6.476,22.659 27.137,39.385 51.849,39.385c24.711,0 45.372,-16.726 51.848,-39.385l151.784,0c6.476,22.659 27.137,39.385 51.849,39.385c24.711,0 45.372,-16.726 51.848,-39.385l19.575,0c0.607,0 1.123,-0.275 1.711,-0.346c0.588,0.071 1.105,0.346 1.712,0.346c8.154,0 14.769,-6.615 14.769,-14.769l0,-113.029c0,-77.912 -66.695,-142.007 -151.442,-148.759Zm121.335,138.913l-55.47,0c-14.154,-3.875 -17.019,-29.221 -17.019,-68.692l0,-27.489c40.252,18.661 68.591,54.411 72.489,96.181Zm-92.182,-103.579l0,34.887c0,42.807 2.558,81.759 33.558,88.182c0.654,0.135 1.327,0.202 2,0.202l57.192,0l0,88.414l-8.228,0c-6.476,-22.659 -27.137,-39.385 -51.848,-39.385c-24.712,0 -45.373,16.726 -51.849,39.385l-24.748,0l-127.036,0c-2.191,-7.666 -5.977,-14.588 -11.057,-20.462l138.093,0c3.966,0 7.331,-2.369 8.892,-5.743c3.487,-2.703 5.878,-6.738 5.878,-11.488l0,-179.732c10.101,0.957 19.83,2.952 29.153,5.74Zm-58.692,171.531l-262.134,0l0,-197.692l262.134,0l0,197.692Zm-262.134,19.692l57.228,0c-5.081,5.874 -8.867,12.796 -11.058,20.462l-46.17,0l0,-20.462Zm98.019,59.846c-13.577,0 -24.616,-11.038 -24.616,-24.615c0,-13.577 11.039,-24.615 24.616,-24.615c13.56,0 24.579,11.014 24.606,24.567c0,0.017 -0.01,0.031 -0.01,0.048c0,0.017 0.01,0.031 0.01,0.048c-0.027,13.553 -11.046,24.567 -24.606,24.567Zm255.481,0c-13.577,0 -24.616,-11.038 -24.616,-24.615c0,-13.577 11.039,-24.615 24.616,-24.615c13.576,0 24.615,11.038 24.615,24.615c0,13.577 -11.039,24.615 -24.615,24.615Z" style="fill-rule:nonzero;stroke:#000;stroke-width:1px;"/></svg>