<?xml version="1.0" encoding="UTF-8" standalone="no"?>
<!DOCTYPE svg PUBLIC "-//W3C//DTD SVG 1.1//EN" "http://www.w3.org/Graphics/SVG/1.1/DTD/svg11.dtd">
<svg width="100%" height="100%" viewBox="0 0 512 512" version="1.1" xmlns="http://www.w3.org/2000/svg" xmlns:xlink="http://www.w3.org/1999/xlink" xml:space="preserve" xmlns:serif="http://www.serif.com/" style="fill-rule:evenodd;clip-rule:evenodd;stroke-linejoin:round;stroke-miterlimit:2;">
    <g id="Layer_2">
        <path d="M256,27.5C194.97,27.5 137.58,51.27 94.43,94.43C51.27,137.58 27.5,194.97 27.5,256C27.5,317.03 51.27,374.42 94.43,417.57C137.58,460.73 194.97,484.5 256,484.5C317.03,484.5 374.42,460.73 417.57,417.57C460.73,374.42 484.5,317.03 484.5,256C484.5,194.97 460.73,137.58 417.57,94.43C374.42,51.27 317.03,27.5 256,27.5ZM256,452.5C147.65,452.5 59.5,364.35 59.5,256C59.5,147.65 147.65,59.5 256,59.5C364.35,59.5 452.5,147.65 452.5,256C452.5,364.35 364.35,452.5 256,452.5Z" style="fill-rule:nonzero;stroke:black;stroke-width:22px;"/>
        <g transform="matrix(1,0,0,1,0,-8)">
            <path d="M323.39,133.21C305.92,115.74 282.8,105.79 258.29,105.22C232.36,104.61 207.87,114.24 189.34,132.34C170.8,150.45 160.59,174.69 160.59,200.59C160.59,209.43 167.75,216.59 176.59,216.59C185.43,216.59 192.59,209.43 192.59,200.59C192.59,183.37 199.38,167.26 211.7,155.23C224.01,143.2 240.29,136.81 257.54,137.21C290.86,137.99 318.6,165.74 319.39,199.06C319.94,222.66 307.49,244.47 286.89,255.99C257.97,272.16 240,302.39 240,334.98C240,343.82 247.16,350.94 256,350.94C264.84,350.94 272,343.73 272,334.9C272,313.98 283.69,294.45 302.5,283.93C333.48,266.61 352.21,233.8 351.37,198.32C350.8,173.8 340.86,150.68 323.39,133.21Z" style="fill-rule:nonzero;stroke:black;stroke-width:22px;"/>
        </g>
        <g transform="matrix(1,0,0,1,0,8)">
            <path d="M271.69,387.68C271.58,387.17 271.45,386.66 271.3,386.16C271.15,385.66 270.97,385.17 270.77,384.69C270.57,384.21 270.35,383.73 270.11,383.27C269.86,382.81 269.59,382.36 269.3,381.93C269.01,381.49 268.7,381.07 268.37,380.66C268.04,380.26 267.68,379.86 267.31,379.49C266.94,379.13 266.55,378.77 266.15,378.44C265.74,378.11 265.32,377.79 264.88,377.51C264.45,377.22 264,376.95 263.54,376.7C263.08,376.46 262.6,376.23 262.12,376.03C261.64,375.84 261.14,375.66 260.65,375.51C260.15,375.35 259.64,375.22 259.13,375.12C258.61,375.02 258.09,374.94 257.57,374.89C256.53,374.78 255.47,374.78 254.43,374.89C253.91,374.94 253.39,375.02 252.87,375.12C252.36,375.22 251.85,375.35 251.35,375.51C250.86,375.66 250.36,375.84 249.88,376.03C249.4,376.23 248.92,376.46 248.46,376.7C248,376.95 247.55,377.22 247.12,377.51C246.68,377.79 246.26,378.11 245.85,378.44C245.45,378.77 245.06,379.13 244.69,379.49C244.32,379.86 243.96,380.26 243.63,380.66C243.3,381.07 242.99,381.49 242.7,381.93C242.41,382.36 242.14,382.81 241.89,383.27C241.65,383.73 241.42,384.21 241.23,384.69C241.03,385.17 240.85,385.66 240.7,386.16C240.54,386.66 240.42,387.17 240.31,387.68C240.21,388.19 240.13,388.72 240.08,389.23C240.03,389.76 240,390.28 240,390.81C240,391.33 240.03,391.86 240.08,392.38C240.13,392.9 240.21,393.42 240.31,393.93C240.42,394.44 240.54,394.95 240.7,395.45C240.85,395.95 241.03,396.45 241.23,396.93C241.42,397.41 241.65,397.89 241.89,398.34C242.14,398.81 242.41,399.26 242.7,399.69C242.99,400.13 243.3,400.55 243.63,400.95C243.96,401.36 244.32,401.75 244.69,402.12C245.06,402.49 245.45,402.85 245.85,403.18C246.26,403.51 246.68,403.82 247.12,404.11C247.55,404.4 248,404.67 248.46,404.91C248.92,405.16 249.4,405.38 249.88,405.58C250.36,405.78 250.86,405.96 251.35,406.11C251.85,406.26 252.36,406.39 252.87,406.5C253.39,406.6 253.91,406.68 254.43,406.73C254.95,406.78 255.48,406.81 256,406.81C256.52,406.81 257.05,406.78 257.57,406.73C258.09,406.68 258.61,406.6 259.13,406.5C259.64,406.39 260.15,406.26 260.65,406.11C261.14,405.96 261.64,405.78 262.12,405.58C262.6,405.38 263.08,405.16 263.53,404.91C263.99,404.67 264.45,404.4 264.88,404.11C265.32,403.82 265.74,403.51 266.14,403.18C266.55,402.85 266.94,402.49 267.31,402.12C267.68,401.75 268.04,401.36 268.37,400.95C268.7,400.55 269.01,400.13 269.3,399.69C269.59,399.26 269.86,398.81 270.11,398.34C270.35,397.89 270.57,397.41 270.77,396.93C270.97,396.45 271.15,395.95 271.3,395.45C271.45,394.95 271.58,394.44 271.69,393.93C271.79,393.42 271.87,392.9 271.92,392.38C271.97,391.86 272,391.33 272,390.81C272,390.28 271.97,389.76 271.92,389.23C271.87,388.72 271.79,388.19 271.69,387.68Z" style="fill-rule:nonzero;stroke:black;stroke-width:22px;"/>
        </g>
    </g>
</svg>
