<?xml version="1.0" encoding="UTF-8" standalone="no"?><!DOCTYPE svg PUBLIC "-//W3C//DTD SVG 1.1//EN" "http://www.w3.org/Graphics/SVG/1.1/DTD/svg11.dtd"><svg width="100%" height="100%" viewBox="0 0 512 512" version="1.1" xmlns="http://www.w3.org/2000/svg" xmlns:xlink="http://www.w3.org/1999/xlink" xml:space="preserve" xmlns:serif="http://www.serif.com/" style="fill-rule:evenodd;clip-rule:evenodd;stroke-linejoin:round;stroke-miterlimit:2;"><path id="icon-user" d="M330.901,284.761c41.002,-25.229 68.484,-70.348 68.484,-121.867c0,-78.961 -64.327,-143.202 -143.385,-143.202c-79.058,0 -143.385,64.241 -143.385,143.202c0,51.519 27.482,96.638 68.484,121.867c-88.533,19.833 -150.657,74.011 -150.657,139.576c0,53.653 141.789,67.971 225.558,67.971c83.769,0 225.558,-14.318 225.558,-67.971c0,-65.565 -62.124,-119.743 -150.657,-139.576Zm-188.747,-121.867c0,-62.673 51.077,-113.663 113.846,-113.663c62.769,0 113.846,50.99 113.846,113.663c0,62.673 -51.077,113.654 -113.846,113.654c-62.769,0 -113.846,-50.981 -113.846,-113.654Zm113.846,299.875c-120.418,0 -192.5,-25.402 -196.011,-38.532c0.092,-65.156 87.991,-118.15 196.011,-118.15c108.01,0 195.901,52.984 196.01,118.131c-3.423,13.12 -75.512,38.551 -196.01,38.551Z" style="fill-rule:nonzero;stroke:#000;stroke-width:3.5px;"/></svg>