<?xml version="1.0" encoding="UTF-8" standalone="no"?>
<!DOCTYPE svg PUBLIC "-//W3C//DTD SVG 1.1//EN" "http://www.w3.org/Graphics/SVG/1.1/DTD/svg11.dtd">
<svg width="100%" height="100%" viewBox="0 0 512 512" version="1.1" xmlns="http://www.w3.org/2000/svg" xmlns:xlink="http://www.w3.org/1999/xlink" xml:space="preserve" xmlns:serif="http://www.serif.com/" style="fill-rule:evenodd;clip-rule:evenodd;stroke-linejoin:round;stroke-miterlimit:2;">
    <g id="icon-location" transform="matrix(0.96984,0,0,0.96984,7.93026,8.44207)">
        <g transform="matrix(16,0,0,-16,0,375.872)">
            <path d="M16.002,5.746C19.311,5.746 22.002,8.438 22.002,11.746C22.002,15.054 19.311,17.746 16.002,17.746C12.693,17.746 10.002,15.055 10.002,11.746C10.002,8.437 12.693,5.746 16.002,5.746ZM16.002,16.746C18.76,16.746 21.002,14.504 21.002,11.746C21.002,8.988 18.76,6.746 16.002,6.746C13.244,6.746 11.002,8.988 11.002,11.746C11.002,14.504 13.244,16.746 16.002,16.746Z" style="stroke:black;stroke-width:0.61px;"/>
        </g>
        <g transform="matrix(16,0,0,-16,0,512)">
            <path d="M16,32C9.382,32 4,26.684 4,19.999C4,12.999 10.001,5.838 14.376,0.805C14.392,0.785 15.094,0 15.962,0L16.039,0C16.906,0 17.609,0.785 17.625,0.805C22.002,5.838 28.002,12.998 28.002,19.999C28.002,26.684 22.619,32 16,32ZM16.117,2.117C16.096,2.097 16.035,2.053 15.982,2.019C15.972,2.046 15.898,2.105 15.853,2.152C12.188,6.369 6,13.486 6,19.999C6,25.513 10.487,30 16,30C21.516,30 26.002,25.513 26.002,19.998C26.002,13.486 19.814,6.369 16.117,2.117Z" style="stroke:black;stroke-width:0.71px;"/>
        </g>
    </g>
</svg>
