<?xml version="1.0" encoding="UTF-8" standalone="no"?><!DOCTYPE svg PUBLIC "-//W3C//DTD SVG 1.1//EN" "http://www.w3.org/Graphics/SVG/1.1/DTD/svg11.dtd"><svg width="100%" height="100%" viewBox="0 0 512 512" version="1.1" xmlns="http://www.w3.org/2000/svg" xmlns:xlink="http://www.w3.org/1999/xlink" xml:space="preserve" xmlns:serif="http://www.serif.com/" style="fill-rule:evenodd;clip-rule:evenodd;stroke-linejoin:round;stroke-miterlimit:2;"><g id="icon-adjustments"><path d="M34.462,122.615l131.551,0c6.608,25.506 29.616,44.481 57.16,44.481c27.545,0 50.552,-18.975 57.16,-44.481l197.205,0c8.154,0 14.77,-6.615 14.77,-14.769c0,-8.154 -6.616,-14.769 -14.77,-14.769l-197.205,0c-6.608,-25.506 -29.615,-44.481 -57.16,-44.481c-27.544,0 -50.552,18.975 -57.16,44.481l-131.551,0c-8.154,0 -14.77,6.615 -14.77,14.769c0,8.154 6.616,14.769 14.77,14.769Zm188.711,-44.48c16.385,0 29.712,13.327 29.712,29.711c0,16.385 -13.327,29.712 -29.712,29.712c-16.385,0 -29.711,-13.327 -29.711,-29.712c0,-16.384 13.326,-29.711 29.711,-29.711Z" style="fill-rule:nonzero;stroke:#000;stroke-width:1px;"/><path d="M477.538,241.231l-31.628,0c-6.608,-25.506 -29.616,-44.481 -57.16,-44.481c-27.544,0 -50.552,18.975 -57.16,44.481l-297.128,0c-8.154,0 -14.77,6.615 -14.77,14.769c0,8.154 6.616,14.769 14.77,14.769l297.128,0c6.608,25.506 29.616,44.481 57.16,44.481c27.544,0 50.552,-18.975 57.16,-44.481l31.628,0c8.154,0 14.77,-6.615 14.77,-14.769c0,-8.154 -6.616,-14.769 -14.77,-14.769Zm-88.788,44.481c-16.385,0 -29.712,-13.327 -29.712,-29.712c0,-16.385 13.327,-29.712 29.712,-29.712c16.385,0 29.712,13.327 29.712,29.712c0,16.385 -13.327,29.712 -29.712,29.712Z" style="fill-rule:nonzero;stroke:#000;stroke-width:1px;"/><path d="M477.538,389.385l-286.165,0c-6.607,-25.506 -29.613,-44.481 -57.142,-44.481c-27.545,0 -50.552,18.975 -57.16,44.481l-42.609,0c-8.154,0 -14.77,6.615 -14.77,14.769c0,8.154 6.616,14.769 14.77,14.769l42.609,0c6.608,25.506 29.615,44.481 57.16,44.481c27.529,0 50.535,-18.975 57.142,-44.481l286.165,0c8.154,0 14.77,-6.615 14.77,-14.769c0,-8.154 -6.616,-14.769 -14.77,-14.769Zm-343.307,44.48c-16.385,0 -29.712,-13.327 -29.712,-29.711c0,-16.385 13.327,-29.712 29.712,-29.712c16.365,0 29.692,13.327 29.692,29.712c0,16.384 -13.327,29.711 -29.692,29.711Z" style="fill-rule:nonzero;stroke:#000;stroke-width:1px;"/></g></svg>