<?xml version="1.0" encoding="UTF-8" standalone="no"?><!DOCTYPE svg PUBLIC "-//W3C//DTD SVG 1.1//EN" "http://www.w3.org/Graphics/SVG/1.1/DTD/svg11.dtd"><svg width="100%" height="100%" viewBox="0 0 512 512" version="1.1" xmlns="http://www.w3.org/2000/svg" xmlns:xlink="http://www.w3.org/1999/xlink" xml:space="preserve" xmlns:serif="http://www.serif.com/" style="fill-rule:evenodd;clip-rule:evenodd;stroke-linejoin:round;stroke-miterlimit:2;"><path d="M293.408,26.692c-106.801,0 -193.695,86.36 -193.695,192.515c0,47.917 17.819,91.697 47.068,125.426l-117.855,117.131c-5.645,5.61 -5.645,14.699 0,20.309c2.822,2.805 6.51,4.208 10.217,4.208c3.707,0 7.395,-1.403 10.218,-4.208l117.853,-117.129c33.935,29.069 77.986,46.777 126.194,46.777c106.82,0 193.714,-86.36 193.714,-192.514c0,-106.155 -86.894,-192.515 -193.714,-192.515Zm0,356.305c-90.864,0 -164.793,-73.475 -164.793,-163.79c0,-90.315 73.929,-163.79 164.793,-163.79c90.883,0 164.812,73.475 164.812,163.79c0,90.315 -73.929,163.79 -164.812,163.79Z" style="fill-rule:nonzero;stroke:#000;stroke-width:9.5px;"/></svg>