<?xml version="1.0" encoding="UTF-8" standalone="no"?><!DOCTYPE svg PUBLIC "-//W3C//DTD SVG 1.1//EN" "http://www.w3.org/Graphics/SVG/1.1/DTD/svg11.dtd"><svg width="100%" height="100%" viewBox="0 0 512 512" version="1.1" xmlns="http://www.w3.org/2000/svg" xmlns:xlink="http://www.w3.org/1999/xlink" xml:space="preserve" xmlns:serif="http://www.serif.com/" style="fill-rule:evenodd;clip-rule:evenodd;stroke-linejoin:round;stroke-miterlimit:2;"><g id="icon-move-y"><path d="M248.888,337.427c3.915,3.915 10.261,3.915 14.176,0c4.077,-4.077 9.234,-9.234 13.573,-13.573c1.48,-1.48 3.707,-1.923 5.641,-1.122c1.934,0.801 3.195,2.688 3.195,4.782l0,75.995l34.809,0c4.052,0 7.705,2.441 9.255,6.184c1.551,3.743 0.694,8.052 -2.171,10.917c-19.502,19.502 -50.47,50.47 -64.306,64.306c-3.913,3.913 -10.255,3.913 -14.168,0c-13.836,-13.836 -44.804,-44.804 -64.306,-64.306c-2.865,-2.865 -3.722,-7.174 -2.171,-10.917c1.55,-3.743 5.203,-6.184 9.255,-6.184c16.287,0 34.809,0 34.809,0l0,-75.995c0,-2.094 1.261,-3.981 3.195,-4.782c1.934,-0.801 4.16,-0.358 5.641,1.122c4.339,4.339 9.496,9.496 13.573,13.573Z" style="fill-rule:nonzero;stroke:#000;stroke-width:1px;"/><path d="M262.952,175.207c-3.888,-3.767 -10.064,-3.767 -13.952,0c-4.112,3.984 -9.352,9.063 -13.743,13.317c-1.493,1.447 -3.706,1.86 -5.62,1.05c-1.915,-0.811 -3.158,-2.688 -3.158,-4.767c0,-24.28 0,-76.268 0,-76.268l-34.809,0c-4.052,0 -7.705,-2.441 -9.255,-6.184c-1.551,-3.743 -0.694,-8.052 2.171,-10.917c19.502,-19.502 50.47,-50.47 64.306,-64.306c3.913,-3.912 10.255,-3.912 14.168,0c13.836,13.836 44.804,44.804 64.306,64.306c2.865,2.865 3.722,7.174 2.171,10.917c-1.55,3.743 -5.203,6.184 -9.255,6.184c-16.287,0 -34.809,0 -34.809,0l0,76.268c0,2.079 -1.244,3.956 -3.158,4.767c-1.914,0.81 -4.127,0.397 -5.62,-1.05c-4.391,-4.254 -9.631,-9.333 -13.743,-13.317Z" style="fill-rule:nonzero;stroke:#000;stroke-width:1px;"/></g></svg>