<?xml version="1.0" encoding="UTF-8" standalone="no"?><!DOCTYPE svg PUBLIC "-//W3C//DTD SVG 1.1//EN" "http://www.w3.org/Graphics/SVG/1.1/DTD/svg11.dtd"><svg width="100%" height="100%" viewBox="0 0 512 512" version="1.1" xmlns="http://www.w3.org/2000/svg" xmlns:xlink="http://www.w3.org/1999/xlink" xml:space="preserve" xmlns:serif="http://www.serif.com/" style="fill-rule:evenodd;clip-rule:evenodd;stroke-linejoin:round;stroke-miterlimit:2;"><g id="icon-sort"><path d="M272.238,93.53c0,36.41 29.62,66.03 66.03,66.03c36.41,0 66.03,-29.62 66.03,-66.03c0,-36.41 -29.62,-66.03 -66.03,-66.03c-36.41,0 -66.03,29.62 -66.03,66.03Zm100.06,0c0,18.76 -15.26,34.03 -34.03,34.03c-18.77,0 -34.03,-15.26 -34.03,-34.03c0,-18.77 15.27,-34.03 34.03,-34.03c18.76,0 34.03,15.26 34.03,34.03Z" style="fill-rule:nonzero;stroke:#000;stroke-width:1px;"/><path d="M338.268,322.03c36.41,0 66.03,-29.62 66.03,-66.03c0,-36.41 -29.62,-66.03 -66.03,-66.03c-36.41,0 -66.03,29.62 -66.03,66.03c0,36.41 29.62,66.03 66.03,66.03Zm0,-100.06c18.76,0 34.03,15.26 34.03,34.03c0,18.77 -15.26,34.03 -34.03,34.03c-18.77,0 -34.03,-15.26 -34.03,-34.03c0,-18.77 15.27,-34.03 34.03,-34.03Z" style="fill-rule:nonzero;stroke:#000;stroke-width:1px;"/><path d="M404.298,418.47c0,-36.41 -29.62,-66.03 -66.03,-66.03c-36.41,0 -66.03,29.62 -66.03,66.03c0,36.41 29.62,66.03 66.03,66.03c36.41,0 66.03,-29.62 66.03,-66.03Zm-100.06,0c0,-18.76 15.26,-34.03 34.03,-34.03c18.77,0 34.03,15.26 34.03,34.03c0,18.77 -15.27,34.03 -34.03,34.03c-18.76,0 -34.03,-15.26 -34.03,-34.03Z" style="fill-rule:nonzero;stroke:#000;stroke-width:1px;"/><g id="icon-sort1" serif:id="icon-sort"><path d="M106.174,93.53c0,36.41 29.62,66.03 66.03,66.03c36.41,0 66.03,-29.62 66.03,-66.03c0,-36.41 -29.62,-66.03 -66.03,-66.03c-36.41,0 -66.03,29.62 -66.03,66.03Zm100.06,0c0,18.76 -15.26,34.03 -34.03,34.03c-18.77,0 -34.03,-15.26 -34.03,-34.03c0,-18.77 15.27,-34.03 34.03,-34.03c18.76,0 34.03,15.26 34.03,34.03Z" style="fill-rule:nonzero;stroke:#000;stroke-width:1px;"/><path d="M172.204,322.03c36.41,0 66.03,-29.62 66.03,-66.03c0,-36.41 -29.62,-66.03 -66.03,-66.03c-36.41,0 -66.03,29.62 -66.03,66.03c0,36.41 29.62,66.03 66.03,66.03Zm0,-100.06c18.76,0 34.03,15.26 34.03,34.03c0,18.77 -15.26,34.03 -34.03,34.03c-18.77,0 -34.03,-15.26 -34.03,-34.03c0,-18.77 15.27,-34.03 34.03,-34.03Z" style="fill-rule:nonzero;stroke:#000;stroke-width:1px;"/><path d="M238.234,418.47c0,-36.41 -29.62,-66.03 -66.03,-66.03c-36.41,0 -66.03,29.62 -66.03,66.03c0,36.41 29.62,66.03 66.03,66.03c36.41,0 66.03,-29.62 66.03,-66.03Zm-100.06,0c0,-18.76 15.26,-34.03 34.03,-34.03c18.77,0 34.03,15.26 34.03,34.03c0,18.77 -15.27,34.03 -34.03,34.03c-18.76,0 -34.03,-15.26 -34.03,-34.03Z" style="fill-rule:nonzero;stroke:#000;stroke-width:1px;"/></g></g></svg>