<svg width="780" height="500" enable-background="new 0 0 780 500" version="1.1" viewBox="0 0 780 500" xml:space="preserve" xmlns="http://www.w3.org/2000/svg"><path d="m40 1e-3h700c22.092 0 40 17.909 40 40v420c0 22.092-17.908 40-40 40h-700c-22.091 0-40-17.908-40-40v-420c0-22.091 17.909-40 40-40z" fill="#2557D6"/><path d="m0.253 235.69h37.441l8.442-19.51h18.9l8.42 19.51h73.668v-14.915l6.576 14.98h38.243l6.576-15.202v15.138h183.08l-0.085-32.026h3.542c2.479 0.083 3.204 0.302 3.204 4.226v27.8h94.689v-7.455c7.639 3.92 19.518 7.455 35.148 7.455h39.836l8.525-19.51h18.9l8.337 19.51h76.765v-18.532l11.626 18.532h61.515v-122.51h-60.88v14.468l-8.522-14.468h-62.471v14.468l-7.828-14.468h-84.38c-14.123 0-26.539 1.889-36.569 7.153v-7.153h-58.229v7.153c-6.383-5.426-15.079-7.153-24.75-7.153h-212.74l-14.274 31.641-14.659-31.641h-67.005v14.468l-7.362-14.468h-57.145l-26.539 58.246v64.261h3e-3zm236.34-17.67h-22.464l-0.083-68.794-31.775 68.793h-19.24l-31.858-68.854v68.854h-44.57l-8.42-19.592h-45.627l-8.505 19.592h-23.801l39.241-87.837h32.559l37.269 83.164v-83.164h35.766l28.678 59.587 26.344-59.587h36.485l1e-3 87.838zm-165.9-37.823l-14.998-35.017-14.915 35.017h29.913zm255.3 37.821h-73.203v-87.837h73.203v18.291h-51.289v15.833h50.06v18.005h-50.061v17.542h51.289l1e-3 18.166zm103.16-64.18c0 14.004-9.755 21.24-15.439 23.412 4.794 1.748 8.891 4.838 10.84 7.397 3.094 4.369 3.628 8.271 3.628 16.116v17.255h-22.104l-0.083-11.077c0-5.285 0.528-12.886-3.458-17.112-3.202-3.09-8.083-3.76-15.973-3.76h-23.523v31.95h-21.914v-87.838h50.401c11.199 0 19.451 0.283 26.535 4.207 6.933 3.924 11.09 9.652 11.09 19.45zm-27.699 13.042c-3.013 1.752-6.573 1.81-10.841 1.81h-26.62v-19.51h26.982c3.818 0 7.804 0.164 10.393 1.584 2.842 1.28 4.601 4.003 4.601 7.765 0 3.84-1.674 6.929-4.515 8.351zm62.844 51.138h-22.358v-87.837h22.358v87.837zm259.56 0h-31.053l-41.535-65.927v65.927h-44.628l-8.527-19.592h-45.521l-8.271 19.592h-25.648c-10.649 0-24.138-2.257-31.773-9.715-7.701-7.458-11.708-17.56-11.708-33.533 0-13.027 2.395-24.936 11.812-34.347 7.085-7.01 18.18-10.242 33.28-10.242h21.215v18.821h-20.771c-7.997 0-12.514 1.14-16.862 5.203-3.735 3.699-6.298 10.69-6.298 19.897 0 9.41 1.951 16.196 6.023 20.628 3.373 3.476 9.506 4.53 15.272 4.53h9.842l30.884-69.076h32.835l37.102 83.081v-83.08h33.366l38.519 61.174v-61.174h22.445v87.833zm-133.2-37.82l-15.165-35.017-15.081 35.017h30.246zm189.04 178.08c-5.322 7.457-15.694 11.238-29.736 11.238h-42.319v-18.84h42.147c4.181 0 7.106-0.527 8.868-2.175 1.665-1.474 2.605-3.554 2.591-5.729 0-2.561-1.064-4.593-2.677-5.811-1.59-1.342-3.904-1.95-7.722-1.95-20.574-0.67-46.244 0.608-46.244-27.194 0-12.742 8.443-26.156 31.439-26.156h43.649v-17.479h-40.557c-12.237 0-21.129 2.81-27.425 7.174v-7.175h-59.985c-9.595 0-20.854 2.279-26.179 7.175v-7.175h-107.12v7.175c-8.524-5.892-22.908-7.175-29.549-7.175h-70.656v7.175c-6.745-6.258-21.742-7.175-30.886-7.175h-79.077l-18.094 18.764-16.949-18.764h-118.13v122.59h115.9l18.646-19.062 17.565 19.062 71.442 0.061v-28.838h7.021c9.479 0.14 20.66-0.228 30.523-4.312v33.085h58.928v-31.952h2.842c3.628 0 3.985 0.144 3.985 3.615v28.333h179.01c11.364 0 23.244-2.786 29.824-7.845v7.845h56.78c11.815 0 23.354-1.587 32.134-5.649l2e-3 -22.84zm-354.94-47.155c0 24.406-19.005 29.445-38.159 29.445h-27.343v29.469h-42.591l-26.984-29.086-28.042 29.086h-86.802v-87.859h88.135l26.961 28.799 27.875-28.799h70.021c17.389 0 36.929 4.613 36.929 28.945zm-174.22 40.434h-53.878v-17.48h48.11v-17.926h-48.11v-15.974h54.939l23.969 25.604-25.03 25.776zm86.81 10.06l-33.644-35.789 33.644-34.65v70.439zm49.757-39.066h-28.318v-22.374h28.572c7.912 0 13.404 3.09 13.404 10.772 0 7.599-5.238 11.602-13.658 11.602zm148.36-40.373h73.138v18.17h-51.315v15.973h50.062v17.926h-50.062v17.48l51.314 0.08v18.23h-73.139l2e-3 -87.859zm-28.119 47.029c4.878 1.725 8.865 4.816 10.734 7.375 3.095 4.291 3.542 8.294 3.631 16.037v17.418h-22.002v-10.992c0-5.286 0.531-13.112-3.542-17.198-3.201-3.147-8.083-3.899-16.076-3.899h-23.42v32.09h-22.02v-87.859h50.594c11.093 0 19.173 0.47 26.366 4.146 6.915 4.004 11.266 9.487 11.266 19.511-1e-3 14.022-9.764 21.178-15.531 23.371zm-12.385-11.107c-2.932 1.667-6.556 1.811-10.818 1.811h-26.622v-19.732h26.982c3.902 0 7.807 0.08 10.458 1.587 2.84 1.423 4.538 4.146 4.538 7.903 0 3.758-1.699 6.786-4.538 8.431zm197.82 5.597c4.27 4.229 6.554 9.571 6.554 18.613 0 18.9-12.322 27.723-34.425 27.723h-42.68v-18.84h42.51c4.157 0 7.104-0.525 8.95-2.175 1.508-1.358 2.589-3.333 2.589-5.729 0-2.561-1.17-4.592-2.675-5.811-1.675-1.34-3.986-1.949-7.803-1.949-20.493-0.67-46.157 0.609-46.157-27.192 0-12.744 8.355-26.158 31.33-26.158h43.932v18.7h-40.198c-3.984 0-6.575 0.145-8.779 1.587-2.4 1.422-3.29 3.534-3.29 6.319 0 3.314 2.037 5.57 4.795 6.546 2.311 0.77 4.795 0.995 8.526 0.995l11.797 0.306c11.895 0.276 20.061 2.248 25.024 7.065zm86.955-23.52h-39.938c-3.986 0-6.638 0.144-8.867 1.587-2.312 1.423-3.202 3.534-3.202 6.322 0 3.314 1.951 5.568 4.791 6.544 2.312 0.771 4.795 0.996 8.444 0.996l11.878 0.304c11.983 0.284 19.982 2.258 24.86 7.072 0.891 0.67 1.422 1.422 2.033 2.175v-25h1e-3z" fill="#fff"/></svg>
