<svg width="780" height="500" enable-background="new 0 0 780 500" version="1.1" viewBox="0 0 780 500" xml:space="preserve" xmlns="http://www.w3.org/2000/svg"><path d="M40,0h700c22.092,0,40,17.909,40,40v420c0,22.092-17.908,40-40,40H40c-22.091,0-40-17.908-40-40V40  C0,17.909,17.909,0,40,0z" fill="#000C9D"/><rect x="66.908" y="106.91" width="110.32" height="99.679" fill="#9D9400"/><path d="m94.714 284.15v-3.795h-5.117v-11.27h-4.198l-0.402 11.27h-11.443l10.58-25.07-3.967-1.725-11.673 27.141v3.449h16.445v9.66h4.658v-9.66h5.117zm19.586-30.589c-4.025 0-7.878 1.381-11.213 4.6l2.588 2.934c2.645-2.473 5.002-3.68 8.395-3.68 4.197 0 7.532 2.357 7.532 6.727 0 4.773-3.737 6.959-7.532 6.959h-2.358l-0.575 3.795h3.335c4.658 0 8.223 1.84 8.223 7.531 0 4.945-3.278 8.107-8.855 8.107-3.22 0-6.555-1.322-8.798-3.967l-3.22 2.645c2.99 3.68 7.705 5.232 12.133 5.232 8.165 0 13.742-5.174 13.742-12.018 0-6.152-4.37-9.371-9.027-9.717 4.197-0.807 7.762-4.43 7.762-9.199 0-5.406-4.715-9.949-12.132-9.949zm34.477 0c-5.347 0-8.912 1.896-12.075 5.693l3.335 2.529c2.53-2.934 4.658-4.197 8.568-4.197 4.427 0 7.072 2.76 7.072 7.188 0 6.496-3.22 10.809-18.17 25.127v3.908h23.518l0.575-4.08h-18.63c13.052-11.904 17.71-17.826 17.71-25.07 0-6.325-4.428-11.098-11.903-11.098zm48.738 36.339h-8.28v-35.648h-4.198l-11.73 7.244 2.07 3.393 9.085-5.463v30.476h-9.775v3.908h22.828v-3.91zm69.587-5.75v-3.795h-5.117v-11.27h-4.198l-0.402 11.27h-11.443l10.58-25.07-3.967-1.725-11.673 27.141v3.449h16.445v9.66h4.658v-9.66h5.117zm19.585-30.589c-4.025 0-7.877 1.381-11.212 4.6l2.587 2.934c2.645-2.473 5.003-3.68 8.395-3.68 4.198 0 7.533 2.357 7.533 6.727 0 4.773-3.738 6.959-7.533 6.959h-2.357l-0.575 3.795h3.335c4.657 0 8.222 1.84 8.222 7.531 0 4.945-3.277 8.107-8.855 8.107-3.22 0-6.555-1.322-8.797-3.967l-3.22 2.645c2.99 3.68 7.705 5.232 12.132 5.232 8.165 0 13.743-5.174 13.743-12.018 0-6.152-4.37-9.371-9.028-9.717 4.198-0.807 7.763-4.43 7.763-9.199 0-5.406-4.715-9.949-12.133-9.949zm34.478 0c-5.348 0-8.913 1.896-12.075 5.693l3.335 2.529c2.53-2.934 4.657-4.197 8.567-4.197 4.428 0 7.073 2.76 7.073 7.188 0 6.496-3.221 10.809-18.171 25.127v3.908h23.518l0.575-4.08h-18.63c13.053-11.904 17.71-17.826 17.71-25.07 0-6.325-4.427-11.098-11.902-11.098zm48.737 36.339h-8.28v-35.648h-4.196l-11.729 7.244 2.069 3.393 9.085-5.463v30.476h-9.774v3.908h22.827l-2e-3 -3.91zm69.588-5.75v-3.795h-5.119v-11.27h-4.197l-0.401 11.27h-11.443l10.58-25.07-3.969-1.725-11.672 27.141v3.449h16.445v9.66h4.656v-9.66h5.12zm19.584-30.589c-4.023 0-7.877 1.381-11.213 4.6l2.588 2.934c2.646-2.473 5.002-3.68 8.396-3.68 4.195 0 7.531 2.357 7.531 6.727 0 4.773-3.736 6.959-7.531 6.959h-2.358l-0.574 3.795h3.334c4.658 0 8.225 1.84 8.225 7.531 0 4.945-3.278 8.107-8.854 8.107-3.222 0-6.556-1.322-8.799-3.967l-3.22 2.645c2.988 3.68 7.703 5.232 12.134 5.232 8.163 0 13.741-5.174 13.741-12.018 0-6.152-4.371-9.371-9.026-9.717 4.196-0.807 7.762-4.43 7.762-9.199-3e-3 -5.406-4.718-9.949-12.136-9.949zm34.479 0c-5.348 0-8.912 1.896-12.076 5.693l3.337 2.529c2.528-2.934 4.657-4.197 8.565-4.197 4.428 0 7.072 2.76 7.072 7.188 0 6.496-3.219 10.809-18.17 25.127v3.908h23.518l0.576-4.08h-18.631c13.053-11.904 17.711-17.826 17.711-25.07 0-6.326-4.428-11.098-11.904-11.098h2e-3zm48.736 36.339h-8.279v-35.648h-4.197l-11.729 7.244 2.07 3.393 9.084-5.463v30.476h-9.775v3.908h22.828l-2e-3 -3.91zm69.588-5.75v-3.795h-5.117v-11.27h-4.197l-0.401 11.27h-11.443l10.58-25.07-3.967-1.725-11.672 27.141v3.449h16.445v9.66h4.655v-9.66h5.117zm19.584-30.589c-4.023 0-7.877 1.381-11.211 4.6l2.588 2.934c2.646-2.473 5.002-3.68 8.396-3.68 4.196 0 7.532 2.357 7.532 6.727 0 4.773-3.737 6.959-7.532 6.959h-2.357l-0.574 3.795h3.334c4.658 0 8.224 1.84 8.224 7.531 0 4.945-3.277 8.107-8.855 8.107-3.219 0-6.555-1.322-8.797-3.967l-3.221 2.645c2.99 3.68 7.705 5.232 12.133 5.232 8.166 0 13.742-5.174 13.742-12.018 0-6.152-4.369-9.371-9.027-9.717 4.197-0.807 7.764-4.43 7.764-9.199 0-5.406-4.715-9.949-12.133-9.949h-6e-3zm34.478 0c-5.347 0-8.912 1.896-12.074 5.693l3.334 2.529c2.531-2.934 4.658-4.197 8.567-4.197 4.429 0 7.072 2.76 7.072 7.188 0 6.496-3.221 10.809-18.17 25.127v3.908h23.519l0.575-4.08h-18.631c13.054-11.904 17.711-17.826 17.711-25.07 2e-3 -6.325-4.428-11.098-11.903-11.098zm48.739 36.339h-8.278v-35.648h-4.2l-11.729 7.244 2.068 3.393 9.086-5.463v30.476h-9.775v3.908h22.828v-3.91z" fill="#fff"/><path d="m72.219 389.2h6.445v-22.246l-7.012 1.406v-3.594l6.973-1.406h3.945v25.84h6.446v3.32h-16.797v-3.32zm25.468 0h6.446v-22.246l-7.012 1.406v-3.594l6.973-1.406h3.945v25.84h6.445v3.32h-16.797v-3.32zm40.918 0h13.77v3.32h-18.516v-3.32c1.497-1.549 3.535-3.625 6.114-6.229 2.591-2.617 4.218-4.305 4.882-5.061 1.263-1.42 2.142-2.617 2.637-3.594 0.508-0.988 0.762-1.959 0.762-2.91 0-1.549-0.547-2.811-1.64-3.789-1.081-0.977-2.495-1.465-4.24-1.465-1.237 0-2.545 0.215-3.925 0.646-1.367 0.43-2.831 1.08-4.394 1.953v-3.986c1.588-0.637 3.072-1.119 4.453-1.443 1.38-0.326 2.643-0.486 3.789-0.486 3.021 0 5.429 0.754 7.226 2.264 1.797 1.512 2.696 3.529 2.696 6.055 0 1.199-0.228 2.338-0.684 3.418-0.442 1.068-1.256 2.332-2.441 3.789-0.326 0.377-1.361 1.471-3.106 3.281-1.745 1.796-4.206 4.315-7.383 7.557zm34.024-12.402c1.888 0.404 3.359 1.244 4.414 2.521 1.067 1.275 1.601 2.852 1.601 4.727 0 2.877-0.99 5.104-2.968 6.682-1.979 1.574-4.792 2.361-8.438 2.361-1.224 0-2.487-0.125-3.789-0.371-1.289-0.234-2.623-0.594-4.004-1.074v-3.809c1.093 0.639 2.292 1.119 3.594 1.445 1.302 0.324 2.663 0.488 4.082 0.488 2.474 0 4.356-0.488 5.645-1.465 1.302-0.979 1.953-2.396 1.953-4.26 0-1.719-0.605-3.061-1.817-4.021-1.198-0.979-2.872-1.465-5.02-1.465h-3.398v-3.242h3.555c1.94 0 3.425-0.385 4.453-1.152 1.029-0.781 1.543-1.9 1.543-3.359 0-1.496-0.534-2.645-1.601-3.438-1.055-0.809-2.572-1.211-4.551-1.211-1.081 0-2.24 0.117-3.477 0.354-1.237 0.232-2.597 0.598-4.082 1.092v-3.514c1.498-0.418 2.897-0.73 4.2-0.939 1.314-0.207 2.551-0.311 3.71-0.311 2.995 0 5.365 0.682 7.11 2.049 1.745 1.354 2.617 3.189 2.617 5.508 0 1.615-0.462 2.98-1.387 4.102-0.925 1.105-2.24 1.872-3.945 2.302zm26.289-13.438h15.488v3.32h-11.874v7.148c0.573-0.195 1.146-0.34 1.719-0.43 0.573-0.105 1.146-0.156 1.719-0.156 3.255 0 5.833 0.893 7.734 2.676s2.852 4.199 2.852 7.246c0 3.139-0.977 5.578-2.93 7.324-1.954 1.732-4.708 2.598-8.262 2.598-1.224 0-2.474-0.104-3.75-0.312-1.263-0.207-2.571-0.521-3.926-0.938v-3.965c1.172 0.639 2.383 1.113 3.633 1.426s2.572 0.469 3.965 0.469c2.253 0 4.037-0.594 5.352-1.777s1.972-2.793 1.972-4.824-0.657-3.639-1.972-4.824-3.099-1.775-5.352-1.775c-1.055 0-2.109 0.117-3.164 0.352-1.041 0.234-2.109 0.6-3.203 1.092l-1e-3 -14.65zm33.867 15.313c-1.875 0-3.353 0.502-4.434 1.506-1.067 1.002-1.601 2.383-1.601 4.141s0.534 3.137 1.601 4.139c1.082 1.004 2.56 1.506 4.434 1.506 1.875 0 3.354-0.502 4.434-1.504 1.08-1.016 1.62-2.396 1.62-4.141 0-1.758-0.54-3.139-1.62-4.141-1.068-1.004-2.546-1.506-4.434-1.506zm-3.945-1.68c-1.693-0.416-3.015-1.203-3.965-2.363-0.938-1.158-1.406-2.57-1.406-4.236 0-2.332 0.827-4.174 2.48-5.527 1.667-1.354 3.945-2.029 6.836-2.029 2.904 0 5.183 0.676 6.836 2.027 1.653 1.355 2.48 3.197 2.48 5.529 0 1.666-0.475 3.078-1.425 4.236-0.938 1.16-2.247 1.947-3.926 2.363 1.9 0.443 3.378 1.311 4.434 2.598 1.067 1.289 1.601 2.865 1.601 4.729 0 2.824-0.866 4.992-2.598 6.504-1.719 1.51-4.186 2.266-7.402 2.266s-5.69-0.756-7.422-2.266c-1.719-1.512-2.578-3.68-2.578-6.504 0-1.863 0.534-3.439 1.602-4.729 1.067-1.289 2.551-2.154 4.453-2.598zm-1.446-6.228c0 1.51 0.469 2.688 1.407 3.533 0.95 0.848 2.278 1.271 3.984 1.271 1.693 0 3.015-0.424 3.965-1.271 0.963-0.848 1.445-2.023 1.445-3.535 0-1.51-0.481-2.688-1.445-3.535-0.951-0.846-2.272-1.271-3.965-1.271-1.706 0-3.034 0.426-3.984 1.271-0.938 0.847-1.407 2.025-1.407 3.537z" fill="#fff" fill-opacity=".784"/><path d="m325.45 388.23h6.444v-22.246l-7.012 1.406v-3.594l6.973-1.406h3.946v25.84h6.444v3.32h-16.797l2e-3 -3.32zm36.738-12.404c1.889 0.404 3.359 1.244 4.415 2.521 1.067 1.275 1.602 2.852 1.602 4.727 0 2.877-0.989 5.105-2.969 6.68-1.979 1.576-4.791 2.363-8.438 2.363-1.224 0-2.487-0.123-3.79-0.371-1.288-0.232-2.622-0.592-4.003-1.074v-3.809c1.094 0.639 2.292 1.121 3.595 1.445 1.303 0.326 2.662 0.488 4.082 0.488 2.474 0 4.354-0.488 5.645-1.465 1.302-0.977 1.953-2.396 1.953-4.258 0-1.719-0.605-3.061-1.816-4.023-1.197-0.977-2.871-1.465-5.02-1.465h-3.398v-3.242h3.556c1.939 0 3.425-0.385 4.453-1.152 1.028-0.781 1.543-1.9 1.543-3.359 0-1.496-0.533-2.643-1.603-3.438-1.055-0.807-2.571-1.209-4.55-1.209-1.081 0-2.24 0.115-3.479 0.35-1.236 0.234-2.598 0.6-4.081 1.096v-3.518c1.497-0.416 2.896-0.729 4.198-0.938 1.315-0.209 2.553-0.312 3.71-0.312 2.996 0 5.365 0.686 7.11 2.053 1.744 1.354 2.616 3.189 2.616 5.508 0 1.613-0.462 2.98-1.386 4.102-0.923 1.103-2.239 1.872-3.945 2.3zm16.915 12.404h13.771v3.32h-18.518v-3.32c1.498-1.551 3.536-3.627 6.114-6.23 2.59-2.617 4.218-4.305 4.883-5.059 1.264-1.42 2.143-2.617 2.637-3.594 0.508-0.99 0.762-1.961 0.762-2.91 0-1.549-0.547-2.812-1.64-3.789-1.081-0.977-2.494-1.465-4.239-1.465-1.236 0-2.545 0.215-3.926 0.645-1.367 0.43-2.831 1.08-4.396 1.953v-3.984c1.589-0.639 3.073-1.119 4.453-1.445s2.645-0.488 3.789-0.488c3.021 0 5.43 0.756 7.227 2.268 1.797 1.51 2.695 3.527 2.695 6.055 0 1.195-0.227 2.336-0.684 3.418-0.441 1.066-1.256 2.33-2.441 3.789-0.325 0.377-1.36 1.471-3.104 3.279-1.746 1.796-4.206 4.315-7.383 7.557zm22.753 0h6.447v-22.246l-7.014 1.406v-3.594l6.975-1.406h3.943v25.84h6.445v3.32h-16.798l2e-3 -3.32zm49.472-12.404c1.889 0.404 3.358 1.244 4.414 2.521 1.067 1.275 1.604 2.852 1.604 4.727 0 2.877-0.99 5.105-2.971 6.68-1.979 1.576-4.791 2.363-8.438 2.363-1.223 0-2.485-0.123-3.788-0.371-1.289-0.232-2.623-0.592-4.005-1.074v-3.809c1.095 0.639 2.293 1.121 3.595 1.445 1.303 0.326 2.664 0.488 4.082 0.488 2.475 0 4.354-0.488 5.645-1.465 1.303-0.977 1.953-2.396 1.953-4.258 0-1.719-0.605-3.061-1.814-4.023-1.198-0.977-2.873-1.465-5.021-1.465h-3.396v-3.242h3.554c1.94 0 3.424-0.385 4.453-1.152 1.028-0.781 1.543-1.9 1.543-3.359 0-1.496-0.533-2.643-1.603-3.438-1.055-0.807-2.569-1.209-4.551-1.209-1.08 0-2.238 0.115-3.477 0.35-1.236 0.234-2.599 0.6-4.082 1.096v-3.518c1.497-0.416 2.897-0.729 4.2-0.938 1.314-0.209 2.552-0.312 3.709-0.312 2.996 0 5.365 0.686 7.109 2.053 1.746 1.354 2.617 3.189 2.617 5.508 0 1.613-0.461 2.98-1.387 4.102-0.923 1.103-2.238 1.872-3.945 2.3zm24.356-10l-9.959 15.568h9.959v-15.568zm-1.036-3.435h4.961v19.004h4.159v3.281h-4.159v6.875h-3.925v-6.875h-13.166v-3.811l12.132-18.477h-2e-3v3e-3zm15.706 0h15.486v3.32h-11.875v7.146c0.574-0.195 1.146-0.338 1.721-0.43 0.572-0.104 1.146-0.156 1.718-0.156 3.256 0 5.834 0.893 7.735 2.676 1.9 1.785 2.851 4.199 2.851 7.246 0 3.139-0.978 5.58-2.931 7.324-1.953 1.73-4.707 2.598-8.262 2.598-1.223 0-2.473-0.104-3.75-0.311-1.262-0.209-2.57-0.521-3.926-0.939v-3.965c1.172 0.639 2.383 1.113 3.633 1.426 1.25 0.314 2.572 0.469 3.967 0.469 2.252 0 4.035-0.592 5.351-1.775 1.315-1.186 1.973-2.793 1.973-4.824s-0.656-3.641-1.973-4.824c-1.314-1.186-3.099-1.777-5.351-1.777-1.055 0-2.108 0.117-3.164 0.352-1.043 0.234-2.11 0.6-3.203 1.094v-14.65zm25.466 0h15.489v3.32h-11.877v7.146c0.572-0.195 1.146-0.338 1.72-0.43 0.571-0.104 1.146-0.156 1.719-0.156 3.256 0 5.832 0.893 7.733 2.676 1.9 1.785 2.853 4.199 2.853 7.246 0 3.139-0.978 5.58-2.93 7.324-1.953 1.73-4.707 2.598-8.263 2.598-1.225 0-2.475-0.104-3.75-0.311-1.264-0.209-2.571-0.521-3.926-0.939v-3.965c1.172 0.639 2.383 1.113 3.633 1.426 1.25 0.314 2.572 0.469 3.965 0.469 2.252 0 4.037-0.592 5.353-1.775 1.313-1.186 1.973-2.793 1.973-4.824s-0.658-3.641-1.973-4.824c-1.316-1.186-3.101-1.777-5.353-1.777-1.055 0-2.108 0.117-3.164 0.352-1.043 0.234-2.108 0.6-3.202 1.094v-14.65z" fill="#fff" fill-opacity=".784"/></svg>
