<svg width="780" height="500" enable-background="new 0 0 780 500" version="1.1" viewBox="0 0 780 500" xml:space="preserve" xmlns="http://www.w3.org/2000/svg"><path d="M40,0h700c22.092,0,40,17.909,40,40v420c0,22.092-17.908,40-40,40H40c-22.091,0-40-17.908-40-40V40C0,17.909,17.909,0,40,0   z"/><path d="m690 250.01c0 99.135-80.35 179.5-179.48 179.5-99.12 0-179.48-80.361-179.48-179.5 0-99.141 80.359-179.51 179.48-179.51 99.133 0 179.48 80.367 179.48 179.51" fill="#D9222A"/><path d="m371.87 363.99c-4.971-6.029-9.538-12.379-13.674-19.01h63.611c3.829-6.122 7.282-12.471 10.343-19.012h-84.292c-2.894-6.183-5.43-12.526-7.597-19h99.477c5.986-17.904 9.229-37.05 9.229-56.963 0-13.046-1.392-25.762-4.03-38.012h-109.86c1.384-6.428 3.123-12.773 5.208-19.01h99.441c-2.171-6.472-4.705-12.816-7.592-19.003h-84.254c3.063-6.537 6.516-12.884 10.338-19.008h63.57c-4.144-6.619-8.71-12.962-13.67-18.992h-36.226c5.57-6.763 11.623-13.113 18.112-19-31.854-28.883-74.137-46.483-120.52-46.483-99.129 1e-3 -179.49 80.368-179.49 179.51 0 99.135 80.358 179.5 179.49 179.5 46.388 0 88.667-17.596 120.52-46.475 6.5-5.896 12.561-12.26 18.134-19.037h-36.268" fill="#0097D0"/><path d="m666.08 350.04c0-3.2 2.596-5.796 5.8-5.796 3.2 0 5.792 2.596 5.792 5.796 0 3.204-2.592 5.8-5.792 5.8-3.203 1e-3 -5.8-2.596-5.8-5.798v-2e-3zm5.8 4.408c2.431 1e-3 4.402-1.968 4.404-4.397v-0.011c0-2.428-1.969-4.396-4.396-4.396h-8e-3c-2.43-5e-3 -4.403 1.961-4.408 4.392v4e-3c-2e-3 2.433 1.97 4.406 4.402 4.408h6e-3zm-0.787-1.862h-1.184v-5.092h2.149c0.446 0 0.904 4e-3 1.3 0.258 0.418 0.284 0.646 0.775 0.646 1.271 0 0.582-0.337 1.113-0.88 1.316l0.934 2.246h-1.315l-0.775-2.009h-0.875v2.01zm0-2.88h0.658c0.246 0 0.504 0.017 0.725-0.101 0.196-0.129 0.301-0.365 0.301-0.59-0.01-0.207-0.116-0.398-0.288-0.514-0.212-0.125-0.541-0.1-0.763-0.1h-0.633v1.305zm-283.64-51.204c-7.671 2.034-15.088 3.025-22.931 3.01-25.016-0.025-38.045-11.418-38.045-33.201 0-25.459 16.587-44.184 39.101-44.184 18.416 0 30.175 10.5 30.175 26.946 0 5.458-0.796 10.771-2.746 18.296h-44.488c-1.583 10.633 6.188 15.304 19.413 15.304 7.925 0 15.092-1.425 23.025-4.612l-3.504 18.441zm-11.963-44.151c0-1.607 2.475-13.032-10.4-13.282-7.108 0-12.208 4.725-14.27 13.282h24.67zm27.034-4.99c0 9.404 5.296 15.9 17.329 20.736 9.2 3.771 10.65 4.858 10.65 8.221 0 4.662-4.067 6.805-13.092 6.746-6.779-0.049-12.962-0.87-20.263-2.896l-3.229 17.154c6.488 1.504 15.588 2 23.649 2.188 24.026 0 35.117-7.867 35.117-24.867 0-10.217-4.625-16.233-16.032-20.713-9.538-3.809-10.658-4.638-10.658-8.084 0-4.05 3.778-6.1 11.149-6.1 4.462 0 10.579 0.413 16.379 1.107l3.259-17.24c-5.912-0.825-14.884-1.484-20.075-1.484-25.45 2e-3 -34.258 11.461-34.183 25.232m-88.242 50.92h-18.662l0.445-7.82c-5.691 6.17-13.27 9.041-23.558 9.041-12.175 0-20.517-8.324-20.517-20.296 0-18.194 14.5-28.69 39.43-28.69 2.562 0 5.82 0.19 9.166 0.562 0.692-2.433 0.88-3.479 0.88-4.808 0-4.98-3.921-6.813-14.413-6.813-10.342 0.042-17.321 1.571-23.796 3.313l3.187-16.7c11.196-2.847 18.53-3.942 26.825-3.942 19.305 0 29.5 7.567 29.5 21.796 0.167 3.796-1.158 11.413-1.82 14.746-0.759 4.853-6.109 32.974-6.667 39.611zm-16.38-33.191c-2.366-0.242-3.395-0.312-5.012-0.312-12.729 0-19.183 3.787-19.183 11.267 0 4.692 3.15 7.634 8.058 7.634 9.146-1e-3 15.75-7.652 16.137-18.589zm194.11 32.011c-6.125 1.681-10.896 2.41-16.058 2.41-11.434 0-17.675-5.843-17.675-16.25-0.358-2.859 2.433-16.06 3.066-19.738 0.633-3.692 10.537-57.492 10.537-57.492h22.213l-3.363 17.8h11.393l-3.097 18.171h-11.441s-6.279 31.53-6.279 33.934c0 3.826 2.317 5.487 7.633 5.487 2.546 0 4.51-0.237 6.03-0.692l-2.959 16.37m99.246-74.974c-16.28 0-29 6.7-36.387 17.893l6.412-16.597c-11.817-4.337-19.434 1.851-26.325 10.65 0 0-1.154 1.463-2.3 2.8v-13.05h-20.858c-2.825 23.03-7.821 46.38-11.73 69.446l-0.94 5.02h22.437c2.125-11.708 3.875-21.212 5.617-28.787 4.768-20.787 12.788-27.141 24.83-24.333-2.78 5.979-4.305 12.892-4.305 20.554 0 18.58 10.092 33.789 35.149 33.789 25.288 0 43.597-13.51 43.597-44.31-1e-3 -18.579-12.201-33.075-35.197-33.075zm-6.53 59.317c-7.924 0.125-12.728-6.525-12.728-16.47 0-11.793 7.012-25.113 18.274-25.113 9.087 0 12.2 7.203 12.2 14.879 1e-3 16.779-6.874 26.704-17.746 26.704zm-343.19 16.846h-22.343l13.28-69.954-30.571 69.954h-20.367l-3.725-69.55-13.32 69.55h-20.272l17.267-90.996h34.913l2.912 50.726 22.117-50.726h37.72l-17.611 90.996"/><path d="m628.15 288.88c2e-3 -3.199 2.596-5.793 5.796-5.795 3.204 0 5.796 2.6 5.796 5.795 6e-3 3.201-2.584 5.801-5.785 5.807s-5.801-2.584-5.807-5.785v-0.022zm5.796 4.413c2.435-3e-3 4.407-1.978 4.408-4.413-2e-3 -2.434-1.976-4.404-4.408-4.404-2.434 0-4.407 1.971-4.408 4.404 1e-3 2.435 1.973 4.41 4.408 4.413zm-0.783-1.866h-1.188v-5.084h2.15c0.45 0 0.908 0 1.304 0.25 0.409 0.28 0.646 0.768 0.646 1.271 0 0.58-0.337 1.116-0.883 1.317l0.933 2.246h-1.317l-0.77-2.009h-0.875v2.009zm0-2.888h0.658c0.242 0 0.504 0.017 0.725-0.096 0.19-0.135 0.301-0.355 0.296-0.589-6e-3 -0.206-0.111-0.396-0.284-0.512-0.212-0.13-0.541-0.096-0.762-0.096h-0.633v1.293zm-240.11 4.354c-7.666 2.033-15.087 3.029-22.925 3.012-25.017-0.025-38.046-11.42-38.046-33.208 0-25.45 16.58-44.181 39.096-44.181 18.421 0 30.175 10.498 30.175 26.943 0 5.467-0.8 10.77-2.74 18.301h-44.488c-1.583 10.629 6.18 15.308 19.408 15.308 7.925 0 15.088-1.425 23.029-4.617l-3.509 18.442zm-11.962-44.15c0-1.604 2.47-13.033-10.399-13.28-7.109 0-12.204 4.73-14.271 13.28h24.67zm27.038-4.996c0 9.408 5.287 15.9 17.324 20.746 9.204 3.768 10.649 4.857 10.649 8.212 0 4.667-4.065 6.81-13.087 6.75-6.783-0.045-12.967-0.87-20.263-2.896l-3.237 17.146c6.491 1.517 15.597 2.013 23.654 2.2 24.025 0 35.12-7.87 35.12-24.87 0-10.217-4.628-16.238-16.041-20.713-9.537-3.808-10.654-4.638-10.654-8.083 0-4.051 3.783-6.1 11.146-6.1 4.47 0 10.583 0.416 16.387 1.111l3.25-17.246c-5.912-0.824-14.879-1.482-20.066-1.482-25.458 0-34.262 11.453-34.182 25.225m-88.243 50.93h-18.666l0.45-7.82c-5.696 6.158-13.275 9.033-23.558 9.033-12.176 0-20.521-8.326-20.521-20.289 0-18.203 14.495-28.695 39.429-28.695 2.562 0 5.816 0.191 9.17 0.562 0.692-2.433 0.876-3.475 0.876-4.808 0-4.983-3.917-6.813-14.409-6.813-10.341 0.043-17.32 1.575-23.796 3.313l3.184-16.696c11.2-2.85 18.529-3.945 26.829-3.945 19.304 0 29.496 7.566 29.496 21.791 0.167 3.801-1.159 11.412-1.817 14.754-0.762 4.85-6.112 32.97-6.667 39.613zm-16.387-33.198c-2.358-0.244-3.392-0.312-5.012-0.312-12.721 0-19.18 3.787-19.18 11.267 0 4.695 3.154 7.634 8.055 7.634 9.154 0 15.758-7.654 16.137-18.589zm194.11 32.018c-6.12 1.675-10.896 2.408-16.055 2.408-11.433 0-17.67-5.846-17.67-16.254-0.362-2.854 2.434-16.059 3.062-19.737 0.633-3.692 10.537-57.492 10.537-57.492h22.209l-3.354 17.8h11.391l-3.096 18.17h-11.44s-6.284 31.53-6.284 33.935c0 3.825 2.32 5.479 7.634 5.479 2.541 0 4.508-0.229 6.029-0.691l-2.963 16.382m110.47-42.367c0 16.775-6.88 26.709-17.755 26.709-7.92 0.112-12.726-6.525-12.726-16.475 0-11.792 7.009-25.113 18.271-25.113 9.093 0 12.21 7.213 12.21 14.879zm23.978 0.467c0-18.58-12.208-33.08-35.194-33.08-26.45 0-43.55 17.627-43.55 43.598 0 18.579 10.083 33.791 35.149 33.791 25.287-1e-3 43.596-13.513 43.595-44.309zm-114.66-31.383c-2.821 23.029-7.817 46.375-11.722 69.45l-0.946 5.021h22.435c8.087-44.559 10.8-57.254 27.741-52.783l8.149-21.088c-11.815-4.338-19.425 1.854-26.308 10.658 0.62-3.961 1.792-7.783 1.508-11.258h-20.857m-270.26 74.47h-22.337l13.275-69.959-30.575 69.959h-20.363l-3.725-69.555-13.32 69.555h-20.272l17.262-91h34.921l1.846 56.334 24.575-56.334h36.325l-17.613 91" fill="#fff"/></svg>
