<svg xmlns="http://www.w3.org/2000/svg" fill-rule="evenodd" stroke-linejoin="round" stroke-miterlimit="2" clip-rule="evenodd" viewBox="0 0 240 240">
  <defs/>
  <g fill-rule="nonzero">
    <path fill="#06c" d="M93.562 99.358c-4.104 0-8.926-1.888-11.01-5.016-.456-.587-.652-1.238-.652-1.955 0-1.759 1.629-3.257 3.388-3.257.912 0 1.76.455 2.606 1.433 1.303 1.628 3.193 2.41 5.668 2.41 4.366 0 6.907-2.54 6.907-5.212 0-2.866-2.867-4.821-6.45-6.125-3.584-1.302-7.428-2.54-9.969-5.733-1.238-1.63-1.89-3.583-1.89-5.994 0-6.711 5.604-10.62 11.86-10.62 4.168 0 8.73 2.28 11.01 5.733.326.522.521 1.108.521 1.824 0 1.824-1.564 3.258-3.388 3.258-.977 0-1.824-.521-2.606-1.563-1.369-1.89-3.193-2.867-5.538-2.867-3.389 0-5.343 1.89-5.343 4.235 0 2.411 2.867 4.04 6.45 5.343 3.584 1.368 7.428 2.737 9.97 6.19 1.237 1.759 1.888 3.843 1.888 6.319 0 6.972-6.189 11.597-13.422 11.597zm24.742 9.214c0 2.025-1.501 3.265-3.264 3.265-1.762 0-3.264-1.24-3.264-3.265v-35.25a14.013 14.013 0 0114.035-14.033 14.012 14.012 0 0114.034 14.034V85.4a14.013 14.013 0 01-14.034 14.034c-2.938 0-5.418-.914-7.507-2.807v11.945zm0-23.172a7.467 7.467 0 007.507 7.506 7.467 7.467 0 007.506-7.506V73.323a7.466 7.466 0 00-7.506-7.507 7.466 7.466 0 00-7.507 7.507V85.4zm46.594-16.826c-.856 0-1.646-.33-2.37-1.054l-.133-.132c-1.25-.987-2.633-1.514-4.28-1.514-3.885 0-6.256 2.7-6.256 8.034v21.93c0 2.041-1.514 3.292-3.293 3.292-1.778 0-3.293-1.251-3.293-3.292v-21.93c0-8.232 4.676-14.62 12.842-14.62 3.16 0 6.98 1.449 9.154 3.622.658.724.987 1.45.987 2.305 0 1.778-1.58 3.36-3.358 3.36zm33.983 9.284c0 1.76-1.498 3.257-3.258 3.257H177.38v4.236c0 3.908 3.78 7.492 8.145 7.492 2.606 0 4.691-.846 6.32-2.476.716-.978 1.564-1.498 2.606-1.498 1.76 0 3.389 1.498 3.389 3.257 0 1.304-.717 2.15-1.499 2.932-2.671 2.867-6.32 4.3-10.816 4.3-7.623 0-14.66-6.254-14.66-14.007V73.297a13.988 13.988 0 0114.008-14.009 13.987 13.987 0 0114.009 14.009v4.56zm-6.515-3.258v-1.303a7.452 7.452 0 00-7.494-7.493 7.452 7.452 0 00-7.493 7.493V74.6h14.987zm39.054 3.258c0 1.76-1.499 3.257-3.258 3.257H209.92v4.236c0 3.908 3.779 7.492 8.144 7.492 2.606 0 4.692-.846 6.32-2.476.717-.978 1.564-1.498 2.607-1.498 1.759 0 3.388 1.498 3.388 3.257 0 1.304-.717 2.15-1.499 2.932-2.671 2.867-6.32 4.3-10.816 4.3-7.623 0-14.66-6.254-14.66-14.007V73.297a13.988 13.988 0 0114.008-14.009 13.987 13.987 0 0114.009 14.009v4.56zm-6.515-3.258v-1.303a7.452 7.452 0 00-7.494-7.493 7.452 7.452 0 00-7.492 7.493V74.6h14.986zM34.397 94.095a4.48 4.48 0 11-8.961.001 4.48 4.48 0 018.961 0M53.236 94.095a4.481 4.481 0 11-8.962 0 4.481 4.481 0 018.962 0M50.401 85.133h-22.13a4.39 4.39 0 01-4.058-2.713l-5.83-14.114h-4.562a4.39 4.39 0 010-8.779h7.5a4.389 4.389 0 014.056 2.714l5.83 14.113h16.287l5.999-14.15a4.39 4.39 0 018.084 3.426l-7.134 16.827a4.39 4.39 0 01-4.042 2.676"/>
    <path fill="#9c0" d="M55.305 44.964a4.39 4.39 0 00-6.207-.126l-5.465 5.247v-20.92a4.389 4.389 0 10-8.778 0v20.818l-5.26-5.123a4.39 4.39 0 00-6.126 6.289L36.181 63.53c.058.057.12.107.181.16l.095.084c.15.123.305.235.466.335.022.014.047.026.07.04.158.095.32.18.486.252.016.007.029.016.044.022.01.005.021.008.031.012.1.042.201.077.303.111.037.013.074.028.111.039.1.03.202.054.303.077.04.01.08.021.12.029.102.02.204.034.307.046.04.005.08.014.12.017.137.014.274.02.412.02l.013.001.036-.001c.128-.001.257-.007.384-.02.076-.006.151-.02.226-.031.063-.01.126-.016.189-.028.089-.017.177-.042.265-.064.047-.012.095-.021.141-.035.091-.027.18-.06.269-.093.043-.015.087-.028.13-.046.084-.034.167-.074.25-.114.046-.021.092-.041.137-.064.076-.04.149-.084.223-.128.05-.03.102-.06.151-.091.065-.043.128-.09.19-.136.057-.041.113-.082.168-.126.055-.044.108-.092.16-.14.041-.036.083-.068.123-.106l12.894-12.381a4.39 4.39 0 00.126-6.207M39.922 115.327c-4.398 0-8.985-1.656-13.916-4.967a4.39 4.39 0 114.894-7.289c7.687 5.162 12.03 3.918 16.547.24a4.39 4.39 0 115.542 6.809c-4.264 3.472-8.566 5.207-13.067 5.207"/>
  </g>
  <text x="30.574" y="172.871" fill="#06c" font-family="'Arial-BoldMT','Arial',sans-serif" font-size="36.946" font-weight="700" transform="translate(-2)">
    NO IMAGE
  </text>
  <text x="30.574" y="172.871" fill="#06c" font-family="'Arial-BoldMT','Arial',sans-serif" font-size="36.946" font-weight="700" transform="translate(-11 40.508)">
    AVAILABLE
  </text>
</svg>
