<svg width="38" height="24" viewBox="0 0 38 24" version="1.1" xmlns="http://www.w3.org/2000/svg" role="img" aria-labelledby="pi-ab"><title id="pi-ab">Aruba Bank</title><path opacity=".07" d="M35 0H3C1.3 0 0 1.3 0 3v18c0 1.7 1.4 3 3 3h32c1.7 0 3-1.3 3-3V3c0-1.7-1.4-3-3-3z"/><path fill="#fff" d="M35 1c1.1 0 2 .9 2 2v18c0 1.1-.9 2-2 2H3c-1.1 0-2-.9-2-2V3c0-1.1.9-2 2-2h32"/><g fill-rule="nonzero"><path d="M5.087 16.158h7.175l22.735-4.512-29.91 4.512zm11.18 0h6.713l12.018-4.512-18.731 4.512z" fill="#134B8D"/><path d="M7.156 13.038l-.21-.603H5.8l-.211.603h-.587l1.06-2.948h.659l1.081 2.948h-.646zm-.646-1.826a3.615 3.615 0 01-.14-.471h-.004c-.04.167-.087.331-.143.493l-.274.751h.843l-.282-.773zM8.552 11.304h.01c.106-.275.322-.515.708-.485l-.027.55c-.413-.082-.62.18-.62.782v.887h-.57v-1.743a4.63 4.63 0 00-.39-.043v-.35c.283-.035.629-.048.93-.04 0 .115-.014.289-.041.442M11.321 13.042c0-.1.004-.266.027-.389l-.01-.004c-.13.258-.39.437-.753.437-.507 0-.669-.315-.669-.695v-1.095a4.357 4.357 0 00-.386-.044v-.35c.296-.035.651-.048.96-.04v1.394c0 .227.064.362.274.362.292 0 .521-.323.521-.702v-1.049h.57v1.743c.107.017.26.035.39.043v.35a6.502 6.502 0 01-.924.039M13.127 10.784c0 .131-.013.31-.035.424h.004c.112-.236.359-.384.673-.384.534 0 .822.376.822 1.017 0 .734-.44 1.24-1.208 1.24-.323 0-.574-.035-.83-.105v-2.698c-.13-.02-.26-.035-.39-.044v-.35c.287-.034.633-.047.964-.038V10.784zm.476.503c-.296 0-.476.336-.476.698v.612a.963.963 0 00.297.039c.328 0 .56-.2.56-.738 0-.406-.12-.611-.381-.611M16.203 13.042c0-.127.005-.258.023-.371l-.004-.004c-.108.244-.382.414-.714.414-.404 0-.637-.222-.637-.571 0-.52.53-.796 1.288-.796v-.117c0-.227-.113-.345-.435-.345-.202 0-.472.065-.66.17l-.05-.467c.225-.08.512-.135.8-.135.717 0 .92.279.92.755v1.035c.107.017.26.035.39.043v.35a6.438 6.438 0 01-.92.039m-.045-.965c-.606 0-.74.17-.74.345 0 .14.098.231.264.231.283 0 .476-.261.476-.524v-.052z" fill="#C51E54"/><path d="M17.954 10.784c0 .131-.014.31-.036.424h.004c.112-.236.359-.384.673-.384.534 0 .822.376.822 1.017 0 .734-.44 1.24-1.208 1.24-.323 0-.574-.035-.83-.105v-2.698a4.51 4.51 0 00-.39-.044v-.35a6.95 6.95 0 01.965-.038V10.784zm.475.503c-.296 0-.475.336-.475.698v.612c.08.026.175.039.296.039.327 0 .56-.2.56-.738 0-.406-.12-.611-.38-.611M21.022 13.042c0-.127.003-.258.021-.371l-.004-.004c-.108.244-.381.414-.713.414-.404 0-.638-.222-.638-.571 0-.52.53-.796 1.288-.796v-.117c0-.227-.112-.345-.435-.345-.202 0-.47.065-.66.17l-.049-.467a2.49 2.49 0 01.799-.135c.718 0 .92.279.92.755v1.035c.108.017.26.035.39.043v.35a6.44 6.44 0 01-.92.039m-.045-.965c-.605 0-.74.17-.74.345 0 .14.099.231.265.231.282 0 .475-.261.475-.524v-.052zM22.779 11.252l.005.004c.135-.258.395-.437.758-.437.502 0 .664.315.664.695v1.524h-.57v-1.389c0-.227-.063-.362-.273-.362-.292 0-.52.323-.52.703v1.048h-.57v-1.743a4.66 4.66 0 00-.391-.043v-.35c.283-.035.628-.048.929-.04 0 .106-.009.276-.032.39M25.937 13.038l-.691-1.075v1.308h-.574v-2.993c-.13-.02-.26-.035-.39-.044v-.35c.286-.034.632-.047.964-.038v1.925l.65-.904h.7l-.785.992.844 1.179h-.718z" fill="#134B8D"/><path d="M27.235 11.663a.412.412 0 01-.415.403.405.405 0 01-.417-.402c0-.223.186-.402.417-.402.232 0 .415.176.415.402m-.717-.002c0 .161.134.301.302.301a.3.3 0 00.301-.295.303.303 0 00-.514-.217.298.298 0 00-.089.211m.362.21l-.1-.176h-.007v.175h-.093v-.418h.15c.105 0 .146.045.146.11 0 .068-.04.109-.1.12.01.011.023.033.036.055l.081.134h-.113zm-.068-.35h-.04v.116h.027c.058 0 .079-.033.079-.064 0-.035-.017-.052-.066-.052" fill="#134B8D"/></g></svg>
