<svg width="38" height="24" viewBox="0 0 38 24" fill="none" xmlns="http://www.w3.org/2000/svg" role="img" aria-labelledby="pi-abn"><title id="pi-abn">ABN</title><g clip-path="url(#clip0_39_228)"><path opacity=".07" d="M35 0H3C1.3 0 0 1.3 0 3v18c0 1.7 1.4 3 3 3h32c1.7 0 3-1.3 3-3V3c0-1.7-1.4-3-3-3z" fill="#000"/><path d="M35 1c1.1 0 2 .9 2 2v18c0 1.1-.9 2-2 2H3c-1.1 0-2-.9-2-2V3c0-1.1.9-2 2-2h32z" fill="#fff"/><path d="M13.794 6.044h10.412L22.5 10.637l-3.5 9.32-5.206-5.207V6.044z" fill="#009286"/><path d="M13.75 6h10.5v8.75s-.656.481-2.581 2.406C19.744 19.081 19 20 19 20l-5.25-5.25V6z" fill="#009286"/><path d="M18.956 9.456l5.294 5.294L19 20" fill="#F3C000"/></g><defs><clipPath id="pi-abn-clip0_39_228"><path fill="#fff" d="M0 0h38v24H0z"/></clipPath></defs></svg>