<svg xmlns="http://www.w3.org/2000/svg" viewBox="0 0 38 24" width="38" height="24" role="img" aria-labelledby="pi-acima_leasing"><title id="pi-acima_leasing">Acima Leasing</title><path fill="#000" opacity=".07" d="M35 0H3C1.3 0 0 1.3 0 3v18c0 1.7 1.4 3 3 3h32c1.7 0 3-1.3 3-3V3c0-1.7-1.4-3-3-3z"/><path fill="#fff" d="M35 1c1.1 0 2 .9 2 2v18c0 1.1-.9 2-2 2H3c-1.1 0-2-.9-2-2V3c0-1.1.9-2 2-2h32"/><path fill="#6BC4E8" d="M6.928 7.14a3.017 3.017 0 10-.07 6.034h.07a2.99 2.99 0 001.668-.509v.43h1.345v-2.947A3.017 3.017 0 006.924 7.13l.004.01zm-.004 4.629a1.63 1.63 0 111.633-1.62 1.63 1.63 0 01-1.63 1.628m24.185-4.638a3.017 3.017 0 000 6.035 2.97 2.97 0 001.664-.509v.43h1.35v-2.947a3.017 3.017 0 00-3.018-3.018l.004.01zm-.004 4.63a1.63 1.63 0 110-3.26 1.63 1.63 0 010 3.26zm-17.697 1.4a3.017 3.017 0 112.448-4.771l-1.112.801a1.633 1.633 0 10.06 1.824l1.156.715a3.018 3.018 0 01-2.561 1.431m4.487-.09h-1.315v-4.81l1.315-.953v5.763zm9.59-3.419v3.419h-1.43V9.66a.987.987 0 00-1.975 0v3.419h-1.448V9.66a.99.99 0 00-1.385-.974.992.992 0 00-.595.974v3.419h-1.43V9.66a2.422 2.422 0 014.141-1.702A2.41 2.41 0 0127.48 9.66zM14.8 5.868l1.887 1.258.021-.03.005-1.228h-1.914z"/><path fill="#0033A1" d="M16.686 5.204l1.31.69L16.7 5.89l-.013-.022v-.664z"/><path fill="#EB5E1B" d="M18.014 6.243l-1.328.884v-1.26h1.211a.203.203 0 01.207.207.241.241 0 01-.09.168zM13.03 17.65h-1.719a.133.133 0 01-.133-.134v-3.254a.133.133 0 01.133-.133h.104a.133.133 0 01.133.133v3.027h1.482a.133.133 0 01.133.134v.078a.133.133 0 01-.133.134m1.417.079a1.193 1.193 0 01-.494-.1 1.13 1.13 0 01-.375-.265 1.18 1.18 0 01-.247-.41 1.516 1.516 0 01-.084-.494 1.304 1.304 0 01.09-.494c.054-.144.136-.276.24-.39.101-.114.226-.203.366-.262a1.19 1.19 0 01.939 0 1.039 1.039 0 01.558.633c.044.131.068.27.069.409v.09a.138.138 0 01-.138.132h-1.734c.01.07.025.14.044.208a.933.933 0 00.149.296.807.807 0 00.819.261.821.821 0 00.465-.32.143.143 0 01.197 0l.074.064a.144.144 0 010 .187 1.25 1.25 0 01-.41.346 1.207 1.207 0 01-.543.119l.015-.01zm-.81-1.471h1.481a.787.787 0 00-.048-.193.726.726 0 00-.154-.247.645.645 0 00-.233-.158.815.815 0 00-.646.024.74.74 0 00-.237.208.891.891 0 00-.138.262c0 .039 0 .074-.024.104h-.001zm2.992 1.47a1.017 1.017 0 01-.558-.172.686.686 0 01-.281-.568.667.667 0 01.148-.45.958.958 0 01.34-.251c.133-.057.273-.093.415-.109.127-.015.254-.023.381-.024h.232v-.035a.532.532 0 00-.143-.415.578.578 0 00-.405-.128.822.822 0 00-.297.054.994.994 0 00-.256.163.148.148 0 01-.104.035.124.124 0 01-.094-.06l-.054-.078a.138.138 0 010-.179c.11-.094.237-.168.375-.216.131-.05.27-.077.41-.08a.952.952 0 01.661.222.875.875 0 01.263.687v1.17a1.685 1.685 0 000 .213.144.144 0 01-.03.108.139.139 0 01-.104.049h-.099a.133.133 0 01-.128-.108v-.109a.742.742 0 01-.154.119.98.98 0 01-.552.162h.034zm.46-1.219h-.35a1.223 1.223 0 00-.322.079.495.495 0 00-.212.148.35.35 0 00-.069.233.365.365 0 00.039.177c.024.046.06.086.104.114.049.03.102.054.158.069a.636.636 0 00.493-.049.564.564 0 00.237-.159.81.81 0 00.11-.251c.023-.096.034-.194.034-.292v-.048l-.222-.02zm1.837 1.21a1.096 1.096 0 01-.494-.104.988.988 0 01-.37-.306.153.153 0 010-.104.134.134 0 01.059-.089l.079-.054a.138.138 0 01.187.035.622.622 0 00.549.267.691.691 0 00.167-.025.445.445 0 00.143-.08.321.321 0 00.138-.271.306.306 0 00-.039-.162.355.355 0 00-.123-.104.83.83 0 00-.193-.08l-.227-.064a1.592 1.592 0 01-.232-.074.824.824 0 01-.212-.123.548.548 0 01-.154-.198.65.65 0 01-.059-.291.633.633 0 01.257-.514.74.74 0 01.251-.118.895.895 0 01.278-.045.864.864 0 01.754.365.143.143 0 010 .11.128.128 0 01-.063.089l-.084.049a.138.138 0 01-.178-.035.493.493 0 00-.192-.167.583.583 0 00-.41-.03.494.494 0 00-.138.054.346.346 0 00-.09.099.247.247 0 00-.034.143.296.296 0 00.03.153.153.153 0 00.074.084.452.452 0 00.158.069c.076.026.153.047.232.065.087.022.173.05.256.083a.89.89 0 01.237.123.6.6 0 01.183.203c.05.094.073.2.07.306a.692.692 0 01-.252.548.71.71 0 01-.262.144.895.895 0 01-.312.048m1.418-.053h-.099a.138.138 0 01-.138-.134v-2.113a.143.143 0 01.138-.138h.099a.138.138 0 01.133.138v2.098a.134.134 0 01-.133.134v.015zm-.05-2.924a.237.237 0 01-.167-.069.252.252 0 01-.043-.297.243.243 0 01.45.08.242.242 0 01-.076.217.228.228 0 01-.164.07zm2.509 2.924h-.104a.132.132 0 01-.128-.093.133.133 0 01-.005-.056v-1.254a1.542 1.542 0 00-.025-.252.641.641 0 00-.084-.217.454.454 0 00-.162-.158.612.612 0 00-.53 0 .733.733 0 00-.216.173.84.84 0 00-.158.282 1.156 1.156 0 00-.06.39v1.036a.133.133 0 01-.133.134h-.099a.138.138 0 01-.138-.134v-2.088a.138.138 0 01.035-.104.144.144 0 01.099-.044h.103a.138.138 0 01.134.123v.124c.042-.044.089-.084.137-.119a.858.858 0 01.277-.144c.1-.03.203-.047.306-.048a.958.958 0 01.435.093c.112.061.209.147.282.252.066.103.114.216.142.336.026.116.04.236.04.355v1.264a.133.133 0 01-.134.134m1.685 1.16a1.401 1.401 0 01-.588-.114 1.263 1.263 0 01-.444-.325.133.133 0 010-.183l.069-.069a.137.137 0 01.099-.04.154.154 0 01.098.045.846.846 0 00.346.252 1.018 1.018 0 00.81 0 .618.618 0 00.242-.223c.062-.101.105-.213.128-.33.028-.137.04-.276.04-.415-.058.058-.12.11-.187.153a.987.987 0 01-.307.138 1.21 1.21 0 01-.815-.049 1.195 1.195 0 01-.376-.262 1.112 1.112 0 01-.246-.4 1.323 1.323 0 01-.09-.493 1.347 1.347 0 01.09-.495 1.177 1.177 0 011.733-.587c.071.047.138.102.197.162v-.143a.143.143 0 01.138-.137h.1a.138.138 0 01.133.137v1.976c0 .166-.018.332-.054.494a1.298 1.298 0 01-.198.454.989.989 0 01-.37.317 1.176 1.176 0 01-.553.117l.005.02zm-.005-3.254a.744.744 0 00-.336.07.794.794 0 00-.262.197.902.902 0 00-.162.286c-.08.226-.08.47 0 .696.035.106.09.205.162.292a.8.8 0 00.928.187.839.839 0 00.44-.479.988.988 0 000-.7.838.838 0 00-.44-.48.719.719 0 00-.33-.07zm1.748 1.59h-.188v-.099h.484v.1h-.188v.518h-.108v-.52.001zm.37-.099h.168l.162.44.158-.44h.173v.617h-.108v-.493l-.188.494h-.079l-.182-.494v.494H26.6v-.617z"/></svg>