<svg xmlns="http://www.w3.org/2000/svg" role="img" width="38" height="24" viewBox="0 0 38 24" aria-labelledby="pi-acuotaz"><title id="pi-acuotaz">acuotaz</title><path d="M35 0H3C1.3 0 0 1.3 0 3v18c0 1.7 1.4 3 3 3h32c1.7 0 3-1.3 3-3V3c0-1.7-1.4-3-3-3z" fill="#000" fill-rule="nonzero" opacity=".07"/><path d="M35 1c1.1 0 2 .9 2 2v18c0 1.1-.9 2-2 2H3c-1.1 0-2-.9-2-2V3c0-1.1.9-2 2-2h32" fill="#fff" fill-rule="nonzero" opacity="1"/><g transform="translate(6.52 11.956) scale(.31596)"><linearGradient id="pi-acuotaz-g" gradientUnits="userSpaceOnUse" gradientTransform="matrix(33 0 0 -28.72 2950.34 20426.7)" x1="-89.15" y1="710.65" x2="-88.55" y2="710.7"><stop offset="0%" stop-color="#4bbed2" stop-opacity="1"/><stop offset="100%" stop-color="#64b879" stop-opacity="1"/></linearGradient><path transform="translate(-16.5 -14.36)" d="M3.53 11.82c3.19 2.76 7.85 7 7.85 7S22.09 6.11 32.22 0L33 2.13c-3.68 2.35-14.81 15.21-19.17 26.59 0 0-11.62-11.53-13.83-14.16l3.53-2.74z" fill="url(#pi-acuotaz-g)" fill-rule="nonzero" opacity="1"/></g><path d="M17.736 9.684a2.755 2.755 0 01.36.023 2.502 2.502 0 01.904.29.136.136 0 01.066.193 1.017 1.017 0 01-.483.56.133.133 0 01-.152 0 1.22 1.22 0 00-1.1-.086c-.552.221-.723.89-.676 1.466a1.44 1.44 0 00.414.948 1.242 1.242 0 001.479 0 .076.076 0 01.095 0 1.049 1.049 0 01.515.632.107.107 0 01-.048.142 2.749 2.749 0 01-2.16.243 2.095 2.095 0 01-1.473-1.937 2.493 2.493 0 01.363-1.52 1.915 1.915 0 01.5-.52 2.133 2.133 0 01.631-.317 2.569 2.569 0 01.765-.117zm7.267 4.525a1.896 1.896 0 01-.976-.202 1.359 1.359 0 01-.737-.964 2.104 2.104 0 01.098-1.343 1.485 1.485 0 01.948-.812 2.212 2.212 0 01.948-.076 1.532 1.532 0 011.334.885 2.092 2.092 0 01.145 1.005 1.551 1.551 0 01-.3.869 1.5 1.5 0 01-.815.556 2.003 2.003 0 01-.645.082zm0-.822a.594.594 0 00.632-.47c.057-.25.057-.509 0-.759a.632.632 0 00-.294-.458.736.736 0 00-.417-.07.61.61 0 00-.553.528 2.032 2.032 0 000 .632.632.632 0 00.632.597zm8.313-.53c0 .132-.025.767-.022.948a.139.139 0 01-.108.158c-.219.069-.441.126-.666.17a5.738 5.738 0 01-.699.067c-.508.022-1.175 0-1.516-.459a.998.998 0 01.158-1.308 1.374 1.374 0 01.72-.275 3.675 3.675 0 01.746 0c.126 0 .265.092.259-.104a.392.392 0 00-.357-.385 1.56 1.56 0 00-1.02.19.095.095 0 01-.108 0 .907.907 0 01-.44-.503c-.018-.06-.015-.092.035-.127a2.547 2.547 0 011.552-.4 1.823 1.823 0 011.008.315 1.191 1.191 0 01.414.834c.028.288.044.585.044.879zm-1.128.044c0-.05 0-.085-.063-.098a1.2 1.2 0 00-.632 0 .341.341 0 00-.262.341.37.37 0 00.278.364 1.185 1.185 0 00.613 0c.047 0 .06-.038.06-.083zm-17.2-.003v.91c0 .1-.036.155-.124.177a7.153 7.153 0 01-1.093.218 4.183 4.183 0 01-1.141-.06 1.128 1.128 0 01-.524-.285 1.008 1.008 0 01-.13-1.197 1.049 1.049 0 01.49-.386 2.297 2.297 0 011.305-.091c.11.022.142-.041.123-.152a.42.42 0 00-.285-.335.91.91 0 00-.29-.038 1.58 1.58 0 00-.784.193.13.13 0 01-.142 0 .948.948 0 01-.42-.47.12.12 0 01.047-.165 2.528 2.528 0 011.624-.38 1.725 1.725 0 01.711.178 1.153 1.153 0 01.575.67c.065.311.083.63.054.947zm-1.088.259v-.193c0-.066 0-.142-.063-.161a1.163 1.163 0 00-.673 0 .316.316 0 00-.224.316.344.344 0 00.167.335.828.828 0 00.506.085c.075 0 .224 0 .268-.088a.367.367 0 00.02-.155zm8.815.61a.174.174 0 01-.123.192 4.057 4.057 0 01-1.324.26 2.281 2.281 0 01-1.263-.228.948.948 0 01-.42-.502 1.779 1.779 0 01-.064-.563v-1.87c0-.086.035-.161.126-.165h.844c.117 0 .133.086.133.193v1.82a.588.588 0 00.057.26.449.449 0 00.37.21 2.028 2.028 0 00.476-.043c.083-.016.114-.067.114-.162v-2.11c0-.164 0-.168.152-.17h.755c.17 0 .18 0 .18.201zm4.85-1.248v-.705c0-.088-.028-.123-.113-.12h-.316c-.073 0-.108-.032-.127-.11a1.479 1.479 0 010-.601c0-.063.05-.07.098-.07h.316c.098 0 .136-.031.133-.135v-.509c0-.095.032-.133.123-.14a4.329 4.329 0 01.834 0c.13 0 .142.023.142.165v.496c0 .089.029.124.111.12h.856c.14 0 .143 0 .158.161a2.638 2.638 0 010 .474c0 .108-.047.149-.145.146h-.84c-.133 0-.14 0-.14.145v1.204a.316.316 0 00.316.341.67.67 0 00.474-.12c.089-.066.149 0 .209.041.135.12.24.269.306.436.051.114.041.155-.066.218a1.836 1.836 0 01-.55.218 2.212 2.212 0 01-.717.029 1.179 1.179 0 01-.875-.42.926.926 0 01-.187-.572c-.003-.231 0-.462 0-.692zm7.669-.831c0-.022-.073 0-.108 0h-1.181c-.089 0-.14-.016-.165-.114a1.052 1.052 0 010-.515c.041-.164.234-.133.354-.133h2.234c.202 0 .262.092.24.316a1.305 1.305 0 01-.316.689 184.76 184.76 0 01-.97 1.232l-.107.127a.047.047 0 000 .044c0 .038.06.022.091.022h1.182c.08 0 .168 0 .202.092.048.173.048.357 0 .53-.019.105-.05.168-.151.168h-2.607a.193.193 0 01-.174-.187.828.828 0 01.247-.704l1.204-1.466c-.007-.041.028-.08.025-.101z" fill="#31ae78" fill-rule="nonzero" opacity="1"/></svg>