<svg width="38" height="24" viewBox="0 0 38 24" fill="none" xmlns="http://www.w3.org/2000/svg" role="img" aria-labelledby="pi-addi"><title id="pi-addi">ADDI</title><path opacity=".07" d="M35 0H3C1.3 0 0 1.3 0 3v18c0 1.7 1.4 3 3 3h32c1.7 0 3-1.3 3-3V3c0-1.7-1.4-3-3-3z" fill="#000"/><path d="M35 1c1.1 0 2 .9 2 2v18c0 1.1-.9 2-2 2H3c-1.1 0-2-.9-2-2V3c0-1.1.9-2 2-2h32z" fill="#fff"/><path d="M28.724 16.28h1.834v-5.313h-1.834v5.313zM30.82 9.161A1.17 1.17 0 0029.641 8c-.65 0-1.178.52-1.178 1.161a1.17 1.17 0 001.178 1.162c.65 0 1.177-.52 1.177-1.162zM24.807 14.626a1.265 1.265 0 01-1.274-1.256c0-.694.57-1.257 1.274-1.257.704 0 1.274.563 1.274 1.257 0 .693-.57 1.256-1.274 1.256zm3.113-1.256V8.303h-1.84v2.363c-.347-.22-.819-.343-1.273-.343-1.719 0-3.113 1.364-3.113 3.046 0 1.683 1.394 3.047 3.113 3.047 1.662 0 3.113-1.261 3.113-3.046zM17.979 14.626a1.265 1.265 0 01-1.274-1.256c0-.694.57-1.257 1.274-1.257.704 0 1.274.563 1.274 1.257 0 .693-.57 1.256-1.274 1.256zm3.113-1.256V8.303h-1.84v2.363c-.348-.22-.819-.343-1.273-.343-1.72 0-3.113 1.364-3.113 3.046 0 1.683 1.394 3.047 3.113 3.047 1.662 0 3.113-1.261 3.113-3.046zM11.113 11.874c-.583 0-1.08.36-1.274.867v-1.687c0-.694.57-1.256 1.274-1.256.703 0 1.274.562 1.274 1.256v1.688a1.362 1.362 0 00-1.274-.868zm1.274 1.823v2.555h1.834v-5.076c.002-.04.005-.08.005-.122 0-1.682-1.394-3.046-3.113-3.046C9.393 8.008 8 9.372 8 11.054v5.198h1.834V13.68c.192.513.692.879 1.279.879.574 0 1.065-.35 1.265-.846l.009-.017z" fill="#4E7EFF"/></svg>