<svg viewBox="0 0 38 24" xmlns="http://www.w3.org/2000/svg" role="img" width="38" height="24" aria-labelledby="pi-aeropay"><title id="pi-aeropay">Aeropay</title><path fill="#000" opacity=".07" d="M35 0H3C1.3 0 0 1.3 0 3v18c0 1.7 1.4 3 3 3h32c1.7 0 3-1.3 3-3V3c0-1.7-1.4-3-3-3z"/><path fill="#fff" d="M35 1c1.1 0 2 .9 2 2v18c0 1.1-.9 2-2 2H3c-1.1 0-2-.9-2-2V3c0-1.1.9-2 2-2h32"/><path fill="#24C3D2" d="M13.693 12.474c.723-.392 9.478-5.533 9.784-5.692.086-.086.245-.123.368-.184.122-.062.269-.025.368.024.169.042.122.208.085.331-.06.086-.122.208-.245.269-.159.099-9.512 5.849-10.051 6.18-.368.245-.699.49-.723.968-.024.246.086.43.245.601.147.122.406.175.601.208.194.033.472.039.68.029.813-.04 1.237.445 1.273.499.724.849.794 1.279 1.119 1.991.042.158.516 1.052 1.091 1.079l-.005.003.183.006c.454.025.846-.392 1.128-.784 1.213-1.57 7.796-12.186 8.226-12.885.146-.245.122-.699-.306-.76-.294-.061-14.102 3.954-14.919 4.195l-1.094.353c-.086.025-.184.061-.27.086l-.254.088c-.181.064-.354.115-.52.187a9.436 9.436 0 00-1.138.423c-.098.061-.22.123-.27.209-.086.086-.087.226-.087.348 0 .27.238.486.52.598.367.147.469.213 1.127.429.732.241 1.266.411 1.711 1.041.135.19.259.334.491.368.184.026.367 0 .552-.061l.33-.147z"/></svg>