<svg width="38" height="24" viewBox="0 0 38 24" role="img" fill="none" xmlns="http://www.w3.org/2000/svg" aria-labelledby="pi-affirm"><title id="pi-affirm">Affirm</title><path opacity=".07" d="M35 0H3C1.3 0 0 1.3 0 3v18c0 1.7 1.4 3 3 3h32c1.7 0 3-1.3 3-3V3c0-1.7-1.4-3-3-3z" fill="#000"/><path d="M35 1c1.1 0 2 .9 2 2v18c0 1.1-.9 2-2 2H3c-1.1 0-2-.9-2-2V3c0-1.1.9-2 2-2h32z" fill="#fff"/><path fill-rule="evenodd" clip-rule="evenodd" d="M5.968 16.938c-.37 0-.56-.183-.56-.484 0-.56.625-.748 1.764-.869 0 .746-.505 1.352-1.207 1.352h.003zm.49-4.197c-.814 0-1.75.383-2.258.788l.464.98c.408-.373 1.066-.692 1.66-.692.566 0 .878.189.878.57 0 .255-.207.385-.597.436C5.145 15.012 4 15.415 4 16.54c0 .892.635 1.431 1.627 1.431.708 0 1.338-.393 1.638-.91v.77h1.32v-3.226c0-1.33-.923-1.867-2.126-1.867v.003zM19.708 12.886v4.94h1.413v-2.38c0-1.131.684-1.464 1.161-1.464.215-.002.425.06.604.179l.259-1.306a1.6 1.6 0 00-.63-.114c-.726 0-1.183.321-1.484.975v-.83h-1.323zM29.69 12.74c-.746 0-1.305.442-1.595.867-.27-.55-.84-.866-1.526-.866-.746 0-1.264.414-1.502.892v-.747h-1.363v4.939h1.414v-2.543c0-.91.478-1.35.924-1.35.404 0 .775.26.775.934v2.959h1.411v-2.543c0-.924.467-1.35.933-1.35.374 0 .77.27.77.925v2.968h1.412V14.41c0-1.11-.747-1.67-1.65-1.67M16.27 12.886h-1.279v-.502c0-.654.373-.84.694-.84.22.003.435.057.63.157l.436-.996s-.442-.288-1.245-.288c-.902 0-1.929.509-1.929 2.106v.363h-2.138v-.502c0-.654.372-.84.694-.84.22 0 .436.054.63.157l.435-.996c-.26-.152-.677-.288-1.244-.288-.902 0-1.929.509-1.929 2.106v.363h-.817v1.089h.82v3.85h1.41v-3.85h2.142v3.85h1.411v-3.85h1.28v-1.09z" fill="#101820"/><path d="M18.523 12.886h-1.41v4.937h1.41v-4.937z" fill="#101820"/><path fill-rule="evenodd" clip-rule="evenodd" d="M17.165 12.046h1.381c.806-2.533 3.54-4.76 6.79-4.76 3.954 0 7.37 3.01 7.37 7.696.012.962-.12 1.92-.392 2.843h1.34l.014-.046c.226-.914.337-1.852.332-2.793C34 9.761 30.192 6 25.339 6c-3.812 0-7.21 2.646-8.173 6.048v-.002z" fill="#4A4AF4"/></svg>