<svg xmlns="http://www.w3.org/2000/svg" role="img" viewBox="0 0 38 24" width="38" height="24" aria-labelledby="pi-afterpay"><title id="pi-afterpay">Afterpay</title><path fill="#b2fce4" d="M35 0H3C1.3 0 0 1.3 0 3v18c0 1.7 1.4 3 3 3h32c1.7 0 3-1.3 3-3V3c0-1.7-1.4-3-3-3z"/><path d="m27.4 6.8-2.7-1.6-2.7-1.6c-1.8-1-4.1.3-4.1 2.4v.4c0 .2.1.4.3.5l1.3.7c.4.2.8-.1.8-.5v-.8c0-.4.4-.7.8-.5l2.5 1.4 2.4 1.5c.4.2.4.7 0 .9l-2.5 1.4-2.5 1.6c-.4.2-.8-.1-.8-.5v-.4c0-2.1-2.3-3.4-4.1-2.4l-2.7 1.6-2.7 1.6c-1.8 1-1.8 3.7 0 4.7l2.7 1.6 2.7 1.6c1.8 1 4.1-.3 4.1-2.4v-.4c0-.2-.1-.4-.3-.5l-1.3-.7c-.4-.2-.8.1-.8.5v.8c0 .4-.4.7-.8.5l-2.5-1.4-2.5-1.5c-.4-.2-.4-.7 0-.9l2.5-1.4 2.5-1.4c.4-.2.8.1.8.5v.4c0 2.1 2.3 3.4 4.1 2.4l2.7-1.6 2.7-1.6c1.9-1.2 1.9-3.8.1-4.9z"/></svg>