<svg xmlns="http://www.w3.org/2000/svg" role="img" viewBox="0 0 38 24" width="38" height="24" aria-labelledby="pi-aftee"><title id="pi-aftee">AFTEE</title><path fill="#000" opacity=".07" d="M35 0H3C1.3 0 0 1.3 0 3v18c0 1.7 1.4 3 3 3h32c1.7 0 3-1.3 3-3V3c0-1.7-1.4-3-3-3z"/><path fill="#fff" d="M35 1c1.1 0 2 .9 2 2v18c0 1.1-.9 2-2 2H3c-1.1 0-2-.9-2-2V3c0-1.1.9-2 2-2h32"/><path d="M7.339 11.797l-1.742-.933v.523L6.742 12l-1.145.613v.523l1.742-.932a.227.227 0 00.089-.085.227.227 0 000-.238.234.234 0 00-.089-.085zM7.772 10.89h.44v2.22h-.44z" fill="#5ac0b1"/><path d="M6.844 8.859c-1.732 0-3.141 1.409-3.141 3.141s1.409 3.141 3.141 3.141S9.985 13.732 9.985 12 8.576 8.859 6.844 8.859zm0 5.842c-1.489 0-2.701-1.212-2.701-2.701s1.212-2.701 2.701-2.701S9.545 10.511 9.545 12s-1.212 2.701-2.701 2.701zM20.301 12.396h-1.869v-.847h2.101v-.642h-2.815v3.527h.714v-1.396h1.869v-.642zM25.149 10.907h-3.131v.653h1.209v2.874h.714V11.56h1.208v-.653zM29.431 12.971v-.627h-1.848v-.81h2.08v-.627h-2.789v3.527h2.815v-.626h-2.106v-.837h1.848zM34.039 12.971v-.627h-1.848v-.81h2.08v-.627h-2.789v3.527h2.815v-.626h-2.106v-.837h1.848zM15.156 14.436h.777l-1.765-3.484a.339.339 0 00-.478-.134.346.346 0 00-.126.134l-1.765 3.484h.777l1.289-2.582 1.289 2.582zM11.774 9.564h4.186v.545h-4.186z" fill="#5ac0b1"/></svg>