<svg xmlns="http://www.w3.org/2000/svg" role="img" viewBox="0 0 38 24" width="38" height="24" aria-labelledby="pi-aktia"><title id="pi-aktia">Aktia</title><path fill="#000" opacity=".07" d="M35 0H3C1.3 0 0 1.3 0 3v18c0 1.7 1.4 3 3 3h32c1.7 0 3-1.3 3-3V3c0-1.7-1.4-3-3-3z"/><path fill="#fff" d="M35 1c1.1 0 2 .9 2 2v18c0 1.1-.9 2-2 2H3c-1.1 0-2-.9-2-2V3c0-1.1.9-2 2-2h32"/><path d="M28 9.82h-1.77v7.79H28zM9 13.05H6l1.47-4zm1.71 4.56h1.86L8.39 6.84H6.64L2.5 17.61h1.84l1.11-3h4.12zm6.12-4.42l3.32-3.37h-2.28L14.82 13V6.21h-1.75v11.4h1.75V15l.72-.73 2.58 3.31h2.12zm6.91 4.6a2.79 2.79 0 001.26-.28v-1.6a1.83 1.83 0 01-1 .32.82.82 0 01-.93-.91v-4h1.76v-1.5H23.1V7.74h-1.75v2.08h-1.23v1.46h1.23v4.23a2.12 2.12 0 002.36 2.28m4.48-10.32a1.09 1.09 0 10-1.08 1.07 1.09 1.09 0 001.08-1.07m5.64 8.07a1.67 1.67 0 01-1.59.79c-.79 0-1.62-.33-1.62-1.12s.83-1.1 1.62-1.1a1.68 1.68 0 011.59.78zm1.67 2.07v-5.1c0-1.77-1.16-2.86-3.12-2.86A3 3 0 0029.32 12H31a1.26 1.26 0 011.33-.84 1.34 1.34 0 011.49 1.4v.64a3.59 3.59 0 00-1.82-.5c-1.72 0-3 1-3 2.51a2.63 2.63 0 002.91 2.54 3.14 3.14 0 001.93-.57v.43z" fill="#00eb64"/></svg>