<svg viewBox="0 0 38 24" width="38" height="24" xmlns="http://www.w3.org/2000/svg" version="1.1" xml:space="preserve" aria-labelledby="pi-akulakupaylater" role="img"><title id="pi-akulakupaylater">Akulaku PayLater</title><path fill="#000" opacity=".07" d="M35 0H3C1.3 0 0 1.3 0 3v18c0 1.7 1.4 3 3 3h32c1.7 0 3-1.3 3-3V3c0-1.7-1.4-3-3-3z"/><path fill="#fff" d="M35 1c1.1 0 2 .9 2 2v18c0 1.1-.9 2-2 2H3c-1.1 0-2-.9-2-2V3c0-1.1.9-2 2-2h32"/><g stroke="null" fill="#eb3223"><path d="M6.878 9.696a1.538 1.972 0 00-.593-.286 1.636 2.097 0 00-.608.027 1.588 2.036 0 00-1.075 1.105c-.136.365-.185.8-.14 1.268a1.535 1.967 0 00.32.968c.352.577.944.88 1.502.762a1.62 2.078 0 001.078-.88c.229-.44.305-.993.245-1.53a1.576 2.02 0 00-.73-1.434h0z"/><path d="M7.28 5.665a4.997 6.406 0 104.2 7.286 4.997 6.406 0 00-4.2-7.286zm1.545 8.447a.533.684 0 01-.353.194.541.694 0 01-.343-.15.486.624 0 01-.133-.207.084.108 0 00-.139-.041c-.036.045-.075.084-.115.128a2.397 3.072 0 01-.417.374 2.718 3.485 0 01-.844.368 2.574 3.3 0 01-.624.029 2.615 3.352 0 01-1.107-.448 2.667 3.419 0 01-.843-1.014 2.605 3.34 0 01.914-4.804 2.653 3.401 0 01.85-.364c.752-.154 1.479.144 2.02.683a2.447 3.137 0 01.563.795c.061.11.202.36.36 1.039a9.325 11.955 0 01.275 1.696 14.912 14.912 0 01.09 1.242.53.68 0 01-.154.48h0zm1.555-.241a.5.641 0 01-.343.18h0a.501.642 0 01-.5-.643l-.006-.143a8.684 11.133 0 00-.076-1.238 22.537 22.537 0 00-.172-1.386 12.47 15.987 0 00-.737-3.062c-.055-.162-.105-.32-.153-.445a.6.769 0 01-.067-.232.2.258 0 01.046-.194.204.262 0 01.163-.1.831 1.066 0 01.206.053 1.143 1.465 0 01.271.155 1.22 1.565 0 01.367.422 1.63 2.09 0 01.153.333l.12.359a24.76 24.76 0 01.414 1.441c.026.1.054.209.077.31.03.14.067.29.099.439.015.074.035.164.047.246.027.166.045.33.066.49a23.108 23.108 0 01.174 2.371l.003.185a.502.644 0 01-.152.459h0zM15.103 11.507h-1.566v5.364h.828v-1.756h.738c.419 0 .768-.17 1.04-.509s.403-.775.403-1.299-.135-.953-.404-1.292-.62-.508-1.039-.508h0zm.442 2.36a.593.76 0 01-.442.222h-.738v-1.556h.738a.595.763 0 01.443.224.569.73 0 01.172.55.576.738 0 01-.173.56h0zM27.448 12.796a1.59 2.037 0 10.793 3.802v.273h.797v-2.07h0a1.59 2.04 0 00-1.59-2.005h0zm0 3.054a.793 1.017 0 11.793-1.017.794 1.017 0 01-.793 1.017zM25.6 15.845h-1.35v-4.338h-.828v5.364h2.816a1.986 2.546 0 01-.637-1.026h0zM18.266 12.796a1.59 2.037 0 10.792 3.802v.273h.795v-2.07h0a1.59 2.039 0 00-1.587-2.005h0zm0 3.054a.793 1.017 0 11.792-1.017.794 1.017 0 01-.792 1.017zM31.462 12.816h-.941v-1.063l-.829.284v.779h-.9l.011.026a1.983 2.542 0 01.521 1.002h.369v3.03h.828v-3.03h.366a1.835 2.353 0 01.44-.871q.066-.086.135-.157h0zM21.471 15.333l-.745-2.536h-.871l1.15 4.002-.416 1.53h.88l1.614-5.532h-.872l-.74 2.536zM13.724 10.462a.218.28 0 00.281-.16l.216-.718h1.176l.215.717a.218.28 0 00.204.18.213.274 0 00.078-.02.218.28 0 00.125-.36l-.857-2.856a.378.485 0 00-.706 0l-.857 2.855a.218.28 0 00.125.362h0zm1.085-2.837l.422 1.4h-.842l.42-1.4zM21.33 10.48h0a.219.28 0 00.218-.28l-.008-3.03a.219.28 0 00-.218-.279h0a.219.28 0 00-.218.28l.006 3.029a.218.28 0 00.218.279h0zM16.85 10.384l.542-.78.627.795a.218.28 0 00.309-.396l-.64-.813a.018.024 0 00-.004-.005l.654-.948a.219.28 0 10-.33-.369l-1.101 1.585V7.174a.219.28 0 10-.438 0v3.028a.218.28 0 00.142.262.215.276 0 00.077.018.219.28 0 00.163-.098h0zM19.751 10.48a.924 1.185 0 00.923-1.182V8.069a.219.28 0 00-.438 0v1.229a.485.622 0 01-.97 0V8.069a.219.28 0 10-.437 0v1.229a.924 1.185 0 00.922 1.182zM23.028 10.48a1.046 1.34 0 00.613-.254.219.28 0 00.437-.026V9.134a1.05 1.346 0 10-1.05 1.346zm0-2.13a.612.785 0 11-.612.784.613.786 0 01.612-.784zM24.656 10.462a.215.276 0 00.077.018.219.28 0 00.165-.096l.541-.78.627.795a.218.28 0 10.309-.396l-.64-.813a.018.024 0 00-.004-.005l.654-.948a.219.28 0 10-.329-.369l-1.102 1.585V7.174a.219.28 0 10-.438 0v3.027a.218.28 0 00.14.261h0zM27.799 10.48a.924 1.185 0 00.922-1.182V8.069a.219.28 0 00-.438 0v1.229a.485.622 0 01-.97 0V8.069a.219.28 0 10-.437 0v1.229a.924 1.185 0 00.923 1.182h0zM32.78 12.798c-.46 0-.848.195-1.152.58s-.454.871-.454 1.457.153 1.076.454 1.458.692.58 1.151.58a1.623 2.08 0 00.933-.353 1.529 1.96 0 00.569-.941l.015-.05h-.94 0l-.035.045-.035.04-.008.008a.864.864 0 01-.054.051l-.011.01-.043.033a.79 1.012 0 01-1.115-.477h2.3l.007-.057a1.901 2.437 0 00.024-.348c0-.585-.155-1.076-.46-1.455s-.687-.581-1.147-.581h0zm0 1.023a.79 1.013 0 01.724.61h-1.45a.79 1.013 0 01.725-.61h0zM36.3 12.798a1.553 1.99 0 00-.738.238v-.238h-.828v4.073h.828v-2.084a.739.947 0 01.725-.936h.172v-1.043a1.578 2.024 0 00-.159-.01h0z"/></g></svg>