<svg xmlns="http://www.w3.org/2000/svg" role="img" viewBox="0 0 38 24" width="38" height="24" aria-labelledby="pi-akulaku"><title id="pi-akulaku">Akulaku Cardless Credit</title><path fill="#000" opacity=".07" d="M35 0H3C1.3 0 0 1.3 0 3v18c0 1.7 1.4 3 3 3h32c1.7 0 3-1.3 3-3V3c0-1.7-1.4-3-3-3z"/><path fill="#fff" d="M35 1c1.1 0 2 .9 2 2v18c0 1.1-.9 2-2 2H3c-1.1 0-2-.9-2-2V3c0-1.1.9-2 2-2h32"/><path d="M6.526 13.518c-.27.123-.62.597-1.536.549-.655-.035-1.08-.383-1.377-.702-.835-.897-.46-2.324.367-2.876 1.132-.757 2.338-.234 2.854.633.254.426.68 2.221.375 2.526-.337.336-.661-.111-.683-.13zm.336-4.262c.758-.192 1.1 1.045 1.3 1.654.14.427.53 2.312.209 2.608a.393.393 0 01-.512-.002c-.172-.16-.116-.381-.135-.647a10.7 10.7 0 00-.188-1.3 9.152 9.152 0 00-.533-1.733c-.085-.2-.218-.364-.14-.58zM5.04 8.664c-1.937.234-3.588 1.96-3.31 4.211.238 1.923 1.997 3.543 4.205 3.274a3.727 3.727 0 002.443-1.334c.546-.664 1.004-1.702.843-2.869-.283-2.064-2.1-3.532-4.18-3.282z" fill="red"/><path d="M4.913 10.887c.709-.114 1.276.406 1.362 1 .11.76-.364 1.307-.976 1.422-.713.135-1.31-.422-1.388-1.009-.1-.757.366-1.31 1.002-1.413zm1.613 2.63c.022.02.346.467.683.131.305-.305-.12-2.1-.375-2.526-.516-.867-1.722-1.39-2.854-.633-.826.552-1.202 1.979-.367 2.876.297.32.722.667 1.377.702.915.048 1.265-.426 1.536-.55z" fill="#fff"/><path d="M31.15 12.93c.094-.166.337-.42.467-.559.171-.182.312-.335.462-.515.119-.142.407-.357.215-.652-.154-.238-.428-.234-.619-.03l-1.627 1.828c-.163.163-.12.175-.258.248-.036-.965.007-1.969-.003-2.939-.007-.646-.65-.546-.737-.196-.052.205-.03 4.23.025 4.347a.379.379 0 00.482.177c.204-.083.872-1.011 1.082-1.127.67.492 1.168 1.506 1.616 1.034.326-.344-.236-.746-.386-.891-.178-.171-.603-.548-.72-.725zM18.185 11.85c.115-.135.428-.38.205-.665-.172-.22-.47-.17-.626.002-.249.273-1.738 1.986-1.868 2.074-.06-.9-.002-1.993-.004-2.915 0-.695-.642-.583-.735-.232-.051.195-.036 4.22.026 4.351.066.14.265.262.483.173.212-.088.861-1.004 1.084-1.124.681.57 1.227 1.515 1.627 1.008.373-.472-.686-.958-1.123-1.592l.93-1.08zM12.348 11.83c.616-.14 1.147.29 1.255.8a1.06 1.06 0 01-.804 1.26c-1.373.287-1.81-1.751-.451-2.06zm1.28 2.523c.125.313.354.402.579.256.232-.151.179-.441.178-.772 0-.602.067-1.215-.166-1.728-.345-.764-1.424-1.434-2.493-.853-1.452.789-1.217 2.926.38 3.352.721.193 1.008-.045 1.523-.255zM26.238 11.83c1.372-.317 1.804 1.784.448 2.061-1.358.278-1.813-1.744-.448-2.06zm1.316 2.615c.12.201.305.294.522.18.247-.13.205-.417.205-.753 0-.593.064-1.229-.156-1.74a1.814 1.814 0 00-2.486-.886c-1.396.686-1.326 2.902.357 3.36.677.184 1.02-.02 1.502-.252l.056.091zM33.371 11.077c-.363.153-.261.488-.261.946 0 .38-.025.853.01 1.222.06.659.54 1.164 1.067 1.337.771.254 1.365-.073 1.735-.487.464-.517.37-1.251.37-2.072 0-.38.081-.823-.238-.95a.375.375 0 00-.424.113c-.123.144-.091.314-.09.522v1.187c.003 1.04-.846 1.174-1.288.889-.268-.173-.385-.413-.385-.854v-1.222c0-.185.013-.376-.074-.501a.343.343 0 00-.422-.13zM22.369 13.383c.06-.316.03-.84.03-1.186 0-.341.086-.886-.146-1.071-.173-.14-.608-.159-.607.441l.001 1.188c.001.474-.003.691-.284.948a.832.832 0 01-.912.131c-1.067-.516.039-2.75-.841-2.785-.448-.018-.394.444-.394.834 0 .765-.11 1.582.299 2.122.85 1.122 2.594.746 2.854-.622zM4.913 10.887c-.636.103-1.102.656-1.002 1.413.077.587.675 1.144 1.388 1.01.612-.116 1.085-.663.976-1.422-.086-.595-.653-1.115-1.362-1zM23.157 14.29c.024.476.622.486.73.123.047-.153.023-3.926.011-4.169-.026-.52-.639-.512-.736-.124-.041.163-.017 3.923-.005 4.17z" fill="red"/><path d="M7.86 13.516c.135.125.373.129.51.002.323-.296-.068-2.18-.208-2.608-.2-.609-.542-1.846-1.3-1.654-.077.216.056.38.14.58.233.55.41 1.132.534 1.733.084.415.156.879.188 1.3.02.266-.037.488.135.647z" fill="#fff"/></svg>