<svg xmlns="http://www.w3.org/2000/svg" role="img" viewBox="0 0 38 24" width="38" height="24" aria-labelledby="pi-alfamidi"><title id="pi-alfamidi">Alfamidi</title><path fill="#000" opacity=".07" d="M35 0H3C1.3 0 0 1.3 0 3v18c0 1.7 1.4 3 3 3h32c1.7 0 3-1.3 3-3V3c0-1.7-1.4-3-3-3z"/><path fill="#fff" d="M35 1c1.1 0 2 .9 2 2v18c0 1.1-.9 2-2 2H3c-1.1 0-2-.9-2-2V3c0-1.1.9-2 2-2h32"/><path fill="#FF2D15" d="M6.4 13.07c-2.483.005-1.115 1.887-2.528 1.8a.819.819 0 01-.647-.435c-.133-.29-.003-.628.092-.897l1.136-3.221c.246-.69.257-1.056 1.045-1.136.95-.095 1.164.19 1.376.774.192.531.403 1.091.572 1.61.56-.23.689-.621.838-.754.076 1.336-.292 1.435-.423 1.742-.102.238.467 1.202.425 1.671-.054.59-.892.858-1.297.457-.158-.157-.238-.49-.32-.77l-.25-.81a.38.38 0 00-.02-.032zM2.127 8.816v6.41c0 .24.251.435.48.435H8.84c.367 0 .523-.333.523-.697V9.079c0-.376-.156-.741-.523-.741H2.606a.493.493 0 00-.48.48z"/><path fill="#FFFEFE" d="M5.234 12.417c.008-.215.412-1.494.51-1.646.072.264.333.97.334 1.186-.389.193-.56.224-.844.46zm1.166.652l.02.032.248.81c.083.28.163.613.32.77.406.401 1.244.133 1.298-.457.042-.469-.527-1.433-.425-1.671.13-.307.499-.406.423-1.742-.15.133-.278.524-.838.754-.169-.519-.38-1.079-.572-1.61-.212-.585-.426-.87-1.376-.774-.788.08-.8.445-1.045 1.136l-1.136 3.221c-.095.269-.225.608-.092.897.102.223.38.42.647.435 1.413.087.045-1.795 2.528-1.8z"/><path fill="#FF2D15" d="M24.842 11.782c.085-.365.272-.915-.349-.915-.266 0-.398.081-.61.13.178.765-.269 1.968-.449 2.738-.036.155-.03.287.085.417.222.254.557.079.887.072-.052-.626-.112-.23.18-.953l.667-1.165c.12-.166.26-.4.461-.455 0 .67-.436 1.837-.436 2.268 0 .48.643.413.96.261-.13-.551.138-.853.494-1.511.136-.253.55-.947.813-1.018 0 .275-.115.711-.174.96-.102.43-.493 1.605.275 1.683.243.024.486-.098.64-.201-.059-.256-.13-.174-.13-.567 0-.27.076-.535.12-.752.114-.575.573-1.95-.164-1.95-.512 0-.88.408-1.189.728l-.293.36c0-.318.254-1.089-.436-1.089-.687 0-1.146.904-1.352.959z"/><path fill="#0055AE" d="M13.245 11.04l.436 1.353h-.829c.08-.342.374-1.13.393-1.352zm-2.006 2.617c0 .195.042.329.192.462.152.135.292.148.506.148.41 0 .53-.486.61-.828h1.439c.106.455.164.828.698.828.207 0 .294-.048.406-.16.372-.372.15-.756-.126-1.471l-.773-2.193c-.259-.663-.302-.666-1.12-.666-.182 0-.418.092-.512.186-.085.085-.18.359-.223.474-.153.413-1.097 2.997-1.097 3.22zm9.418-.872c0-.367-.033-.985.531-1.036.808-.075.647 1.69.21 1.69-.312 0-.741-.005-.741-.654zm-1.177-.305c0 .57.032.94.46 1.37.399.398.808.46 1.37.46.234 0 .451-.133.611-.217.235.35 1.046.418 1.046-.654 0-.502.073-1.939-.113-2.285-.189-.35-.714-.395-.933-.07-.598-.4-1.447-.232-1.952.272a1.231 1.231 0 00-.323.462c-.074.182-.166.392-.166.662z"/><path fill="#FF2D15" d="M31.513 13.483c-.204-.424.18-1.963.698-1.963.272 0 .422.09.566.306-.077.146-.171.3-.261.435-.202.303-.596 1.187-1.003 1.222zm.959-2.573c-.791 0-1.107.226-1.544.854-.922 1.329-.635 2.93.542 2.46.488-.194.776-.736 1.046-1.047-.041.412-.166.94.391 1.095.315.087.515-.059.743-.18-.29-.6-.037-1.585.113-2.24.054-.239.098-.437.156-.672.112-.448.374-1.035-.199-1.127-.133-.02-.568.087-.648.15-.143.112.046.203-.068.676-.072.3-.187.031-.532.031z"/><path fill="#0055AE" d="M17.605 10.954c-.425.099-.48.126-.48.523 0 .154.197.305.48.305v1.962c0 .139.086.28.16.363.242.264.946.261.975-.36.015-.317-.001-.683-.001-1.006 0-.204-.085-.85.063-.938.188-.112.678.153.678-.457 0-.362-.377-.392-.741-.392.014-.635.505-.251.72-.457.17-.165.274-.764-.852-.764-.895 0-1.002.562-1.002 1.22zm-1.962-.349v2.79c0 1.21 1.22 1.123 1.22.088v-2.965c0-.932-.837-.941-1.091-.525-.086.141-.13.378-.13.612z"/><path fill="#FF2D15" d="M29.159 10.997c.084 1.017.077.414-.171 1.617-.13.628-.517 1.497.203 1.668.256.06.549-.082.753-.19-.068-.288-.132-.08-.132-.566 0-1.56 1.093-2.66-.043-2.66a1.97 1.97 0 00-.61.131zm5.362 0c.076.904.096.365-.134 1.479-.126.613-.497 1.524.033 1.762.323.145.644-.017.886-.145-.067-.29-.13-.08-.13-.567 0-1.525 1.089-2.66-.045-2.66a1.99 1.99 0 00-.61.131zm.349-1.133c0 .264-.043.349-.043.567.394.264 1.046.148 1.046-.306 0-.57-.593-.357-1.003-.261zm-5.363 0c0 .264-.043.349-.043.567.394.264 1.046.148 1.046-.306 0-.562-.597-.356-1.003-.261zM5.234 12.417c.284-.236.455-.267.844-.46 0-.216-.262-.922-.334-1.186-.098.152-.502 1.431-.51 1.646z"/></svg>