<svg role="img" width="38" height="24" viewBox="0 0 38 24" aria-labelledby="pi-alfamart" xmlns="http://www.w3.org/2000/svg"><title id="pi-alfamart">Alfamart</title><path d="M35 0H3a3 3 0 00-3 3v18a3 3 0 003 3h32a3 3 0 003-3V3a3 3 0 00-3-3z" opacity=".07" style="isolation:isolate"/><path d="M35 1a2 2 0 012 2v18a2 2 0 01-2 2H3a2 2 0 01-2-2V3a2 2 0 012-2h32" fill="#fff"/><g clip-path="url(#pi-mandiri-clip0)" fill-rule="evenodd" clip-rule="evenodd"><path d="M5.428 8.58c.091.143.47 1.428.526 1.678l-1.036-.009.51-1.669zm3.41-1.543c-.503.148-.502.675-.502 1.235 0 .91-.036 2.627 0 3.432.045.95 1.101 1.046 1.368.303.111-.306.065-2.11.065-2.504 0-.552.026-1.17 0-1.714-.031-.496-.37-.919-.931-.752zm1.836 1.477c-.8.005-.817.907 0 .967v1.85c0 .299-.036.565.093.807.259.485 1.002.439 1.207.021.195-.389.008-1.943.096-2.678.432 0 .89-.014.877-.494-.012-.479-.437-.473-.886-.473 0-.3-.034-.473.285-.503.277-.025.492.065.617-.152.228-.395-.093-.752-.651-.833-.494-.071-.977.03-1.295.259-.362.259-.343.81-.343 1.23v-.001zm4.258.925c.574-.122.728.405.759.89.033.518-.024 1.14-.541 1.186-.598.053-.786-.388-.812-.927-.028-.572.107-1.046.594-1.15zm.93 2.849c-.329.107-.393.291-1.086.24a2.165 2.165 0 01-.99-.32c-.489-.306-.886-.913-.858-1.761.027-.839.424-1.425.888-1.732.297-.189.637-.3.988-.324.7-.058.83.181 1.097.236.287-.428.961-.27 1.147.176l-.028 3.37a.706.706 0 01-.924.296c-.13-.061-.13-.11-.234-.184v.003zm-11.281-.835l1.714-.008c.072.306.195.75.384.895.297.23.732.173.979-.064.312-.304.243-.588.095-1.008-.115-.329-.225-.643-.342-.971-.23-.648-.453-1.292-.677-1.924-.288-.825-.277-1.335-1.304-1.33-.43.002-.759.087-.924.363-.165.277-1.15 3.216-1.38 3.851-.14.387-.2.723.068.995.313.318 1.019.404 1.23-.294.056-.17.105-.33.157-.505z" fill="#005AAB"/><path d="M3 15.59l.005.564h25.806c1.429 0 2.86.008 4.288 0 .567 0 1.165-.259 1.467-.668.433-.594.434-.837.434-1.713-.318-.05-27.323-.013-30.111-.013-1.021 0-1.889.81-1.889 1.83zM32.611 7.561c.081.199.125.13.116.454a3.51 3.51 0 01-.07.533c-.059.312-.15.63-.222.946-.284 1.242-.885 3.256 1.013 3.015.636-.08 1.374-.444.963-1.145-.273.158-1.114.746-1.115-.147 0-.552.204-1.085.28-1.608.6 0 1.385.13 1.425-.782a4.862 4.862 0 01-1.257.103c.055-.349.374-1.108.182-1.37-.246-.339-.963-.085-1.314 0v.001zm-13.228 2.04c.055-.324.293-.921 0-1.131-.269-.194-.897-.056-1.166.094.164.133.13.355.095.618-.093.629-.223 1.252-.389 1.866-.075.283-.323.943-.183 1.204.19.351.769.25 1.149.13-.036-.292-.188-.312.12-.931.136-.276.265-.534.401-.8.138-.257.29-.507.453-.747.08-.12.167-.234.26-.344.051-.064.093-.084.145-.14.075-.08.064-.103.198-.117.047.343-.317 1.701-.413 2.104-.074.312-.246.758.013.981.222.194.796.112 1.027-.027-.143-.372-.033-.602.129-.93.136-.28.26-.53.407-.795.171-.306.764-1.32 1.036-1.332.047.13-.352 1.864-.407 2.163-.078.42-.056.835.29.981.417.178.756-.077 1.037-.188-.043-.098.006 0-.05-.084-.047-.065-.014 0-.058-.087-.203-.399-.011-1.105.076-1.523.081-.395.339-1.4.29-1.761-.088-.662-.827-.524-1.32-.184-.225.156-.369.324-.532.497-.206.217-.358.468-.472.587.03-.341.2-.712.054-1.056-.13-.309-.48-.383-.87-.247-.477.165-.742.504-1.04.845-.055.065-.079.096-.139.177l-.141.177zm7.6-.117c-.08.103-.496.917-.787 1.317-.129.176-.938 1.415-.865.3.035-.512.33-2.194 1.062-2.066.235.042.526.297.59.449zm-.37 1.677c-.097.079-.252.357-.35.477-.252.307-.203.22-.381.42-.217.242-.648.532-1.144.453-.9-.14-.724-1.619-.432-2.345.44-1.09 1.416-2.122 2.573-1.763.07.022.253.114.284.12.107.017.19-.079.305-.11.279-.078.807.01 1 .143l-.305.808a7.304 7.304 0 00-.334 1.91c-.025.642.045.593.155.982-.259.226-.754.361-1.137.124-.345-.213-.25-.763-.237-1.22h.003zm3.61-1.529c.294-.397.833-1.197 1.377-1.286.896-.148.28 1.255-.188 1.549-.088-.117-.176-.254-.389-.181-.259.09-.671.74-.8.971a7.567 7.567 0 00-.385.788c-.274.662-.138.567-.094.902-.369.13-.981.24-1.197-.095-.153-.238.106-.96.179-1.239.107-.408.208-.83.296-1.247.111-.53.201-.82.029-1.256.327-.093.866-.293 1.173-.05.323.26.003.788-.003 1.144h.003z" fill="#ED1C24"/><path d="M3 17.247h29.326c.732 0 1.24.065 1.8-.286.304-.19.827-.74.83-1.249-.102.069-.154.17-.25.255-.907.804-1.697.633-2.98.633H3v.647z" fill="#FFD503"/></g><defs><clipPath id="pi-mandiri-clip0"><path fill="#fff" transform="translate(3 7)" d="M0 0h32v10.252H0z"/></clipPath></defs></svg>