<svg width="38" height="24" viewBox="0 0 38 24" fill="none" xmlns="http://www.w3.org/2000/svg" role="img" aria-labelledby="pi-alifpay"><title id="pi-alifpay">Alifpay</title><g clip-path="url(#pi-alifpay-clip0)"><path d="M35 .5H3A2.5 2.5 0 00.5 3v18A2.5 2.5 0 003 23.5h32a2.5 2.5 0 002.5-2.5V3A2.5 2.5 0 0035 .5z" stroke="#000" stroke-opacity=".07"/><g clip-path="url(#pi-alifpay-clip1)"><path d="M1 1h36v22H1V1z" fill="#FDFDFD"/><path d="M30.487 8.608h1.018v1.169h.26l.474.069.474.137.38.184.307.206.213.183.237.298.19.344.118.435.024.184v.504l-.095.458-.119.298-.165.252-.213.252h-.048v.046l-.308.23-.284.16-.497.183-.45.092-.474.045-.024.092v1.054l-.023.023h-.971l-.024-.023-.024-1.146-.616-.068-.45-.115-.379-.16-.26-.138-.237-.183-.19-.16-.236-.321-.166-.321-.118-.482-.024-.412.047-.412.119-.367.19-.367.189-.229.213-.206.331-.23.38-.183.354-.114.356-.07.497-.045.024-1.146zM14.168 9.777h.45l.403.069.379.137.284.16.166.115.024-.366h1.018v4.102l-.024.229H15.85l.024-.39-.308.207-.332.16-.331.092-.143.023h-.734l-.331-.07-.38-.137-.33-.206-.238-.206-.19-.206-.189-.298-.118-.252-.095-.321-.047-.298v-.55l.071-.413.118-.32.166-.298.237-.298.26-.23.261-.16.284-.137.332-.092.331-.046z" fill="#010001"/><path d="M7.821 7.646h.237l.095.183.237.55.047.115v.069l-.521.068-.545.138-.497.206-.427.252-.331.252-.284.252-.285.344-.19.298-.189.367-.094.252-.119.458-.047.527v.275l.071.435.142.482.19.412.213.344.308.367.213.206.308.23.355.205.45.184.403.114.402.069.26.023h.238l.45-.046.52-.114.45-.16.498-.253.426-.298.095-.023.118.275.214.527v.138l-.356.229-.379.206-.473.207-.427.137-.426.092-.64.068h-.426l-.568-.068-.497-.115-.498-.183-.379-.184-.379-.229-.308-.229-.308-.275-.26-.275-.26-.344-.214-.344-.237-.48-.165-.505-.095-.458-.024-.275v-.665l.048-.435.142-.55.165-.436.285-.504.26-.366.26-.298.356-.344.332-.252.331-.23.592-.297.498-.184.473-.114.166-.023z" fill="#5CC39A"/><path d="M22.813 9.869l1.042.023v1.03l.024 1.65.355-.366.166-.183.237-.252.166-.184.213-.229.166-.183.213-.23.166-.183.213-.229.165-.183.285-.32.118-.138h.71v4.33h-1.041v-2.68l-.119.091-.213.252-.355.367-.166.183-.308.321-.213.252-.19.184-.165.183-.285.298-.166.183-.307.344-.024.023h-.71V9.892l.023-.023zM20.113 9.869h1.73l.023.023v4.33h-1.09v-3.368l-.994-.023-.024.298-.166 1.123-.166.688-.142.366-.165.321-.166.206-.19.184-.331.183-.213.069-.143.023h-.426l-.071-.023-.024-.069-.047-.688.213-.068.237-.092.166-.137.166-.252.165-.436.142-.71.142-1.009.095-.779.024-.137 1.255-.023z" fill="#010001"/><path d="M7.726 9.754h1.185l.142.275.758 1.81.473 1.123.213.505v.068h-.615l-.427-.023-.331-.847-.427-1.055-.307-.779-.048-.114-.047.045-.332.848-.379.94-.284.71-.142.275h-.734l-.26-.023.023-.114.26-.619.308-.733.26-.619.38-.894.308-.756.023-.023z" fill="#5CC39A"/><path d="M14.216 10.74h.545l.284.068.284.138.26.229.19.298.095.275.023.138v.297l-.047.275-.118.275-.166.23-.166.16-.19.115-.331.114-.118.023h-.521l-.308-.092-.237-.137-.142-.115-.214-.298-.118-.275-.047-.206v-.39l.094-.343.143-.252.189-.23.237-.16.284-.115.095-.022z" fill="#FBFDFC"/><path d="M30.369 10.67l.118.024v2.727l-.024.023-.308-.023-.331-.069-.285-.115-.26-.16-.19-.206-.142-.23-.094-.297-.024-.184v-.229l.071-.344.166-.32.213-.23.284-.183.332-.114.474-.07z" fill="#F9FCFB"/><path d="M31.529 10.67l.403.047.308.068.331.16.237.207.142.16.142.298.047.23v.412l-.07.32-.166.299-.19.206-.26.16-.285.115-.497.092h-.166v-2.75l.024-.023z" fill="#FCFDFC"/></g></g><defs><clipPath id="pi-alifpay-clip0"><path fill="#fff" d="M0 0h38v24H0z"/></clipPath><clipPath id="pi-alifpay-clip1"><rect x="1" y="1" width="36" height="22" rx="2" fill="#fff"/></clipPath></defs></svg>