<svg xmlns="http://www.w3.org/2000/svg" role="img" viewBox="0 0 38 24" width="38" height="24" aria-labelledby="pi-alipaypaynlversion"><title id="pi-alipaypaynlversion">Alipay (PAY. version)</title><path vector-effect="non-scaling-stroke" opacity=".07" fill-rule="nonzero" fill="#000" d="M35 0H3C1.3 0 0 1.3 0 3v18c0 1.7 1.4 3 3 3h32c1.7 0 3-1.3 3-3V3c0-1.7-1.4-3-3-3z"/><path vector-effect="non-scaling-stroke" fill-rule="nonzero" fill="#008ed7" d="M35 1c1.1 0 2 .9 2 2v18c0 1.1-.9 2-2 2H3c-1.1 0-2-.9-2-2V3c0-1.1.9-2 2-2h32"/><path fill-rule="nonzero" fill="#fff" d="M12.837 18.74c-3.713 0-4.811-2.95-2.976-4.565.613-.545 1.732-.812 2.328-.871 2.206-.22 4.248.628 6.658 1.815-1.694 2.228-3.851 3.62-6.01 3.62m13.203-3.397c-.955-.322-2.236-.816-3.664-1.336a19.527 19.527 0 001.992-5.075h-4.705V7.22h5.764v-.954h-5.764V3.418h-2.352c-.413 0-.413.41-.413.41v2.44h-5.83v.953h5.83v1.71h-4.813v.953h9.335a16.861 16.861 0 01-1.345 3.314c-3.029-1.008-6.26-1.825-8.291-1.322-1.299.323-2.135.899-2.627 1.502-2.255 2.767-.637 6.97 4.125 6.97 2.816 0 5.529-1.583 7.631-4.192 3.136 1.52 9.345 4.13 9.345 4.13v-3.72s-.78-.063-4.218-1.224" stroke="null"/></svg>
