<svg width="38" height="24" viewBox="0 0 38 24" role="img" aria-labelledby="pi-almapaynlversion" version="1.1" xmlns="http://www.w3.org/2000/svg"><title id="pi-almapaynlversion">Alma</title><path fill="#000" opacity=".07" d="M35 0H3C1.3 0 0 1.3 0 3v18c0 1.7 1.4 3 3 3h32c1.7 0 3-1.3 3-3V3c0-1.7-1.4-3-3-3z"/><path fill="#fa5122" d="M35 1c1.1 0 2 .9 2 2v18c0 1.1-.9 2-2 2H3c-1.1 0-2-.9-2-2V3c0-1.1.9-2 2-2h32" fill-opacity="1"/><path d="M34.088 9.28v1.05c-.565-.764-1.385-1.24-2.358-1.24-1.878 0-3.333 1.77-3.333 3.955S29.852 17 31.73 17c1.042 0 1.908-.545 2.473-1.404v1.215H36V9.28h-1.912zm-1.891 5.834c-1.045 0-1.89-.927-1.89-2.07 0-1.142.846-2.069 1.89-2.069s1.89.927 1.89 2.07c0 1.143-.846 2.069-1.89 2.069zM12.065 7.189h1.91v9.62h-1.91V7.19zm4.109 5.353c0-2.07 1.206-3.452 2.876-3.452 1.037 0 1.857.486 2.35 1.314.496-.828 1.314-1.314 2.351-1.314 1.67 0 2.876 1.381 2.876 3.452v4.269h-1.91v-4.487c0-.808-.509-1.335-1.18-1.335-.673 0-1.18.528-1.18 1.335v4.487h-1.912v-4.487c0-.808-.508-1.335-1.18-1.335-.672 0-1.18.528-1.18 1.335v4.487h-1.911v-4.27zm-7.57-3.184C8.152 7.571 7.194 7 6.284 7c-.91 0-1.867.571-2.32 2.358L2 16.812h1.936c.315-1.245 1.287-1.939 2.348-1.939 1.06 0 2.033.695 2.348 1.939h1.937L8.604 9.358zm-2.32 3.779a2.27 2.27 0 00-1.587.646l1.11-4.338c.106-.414.263-.546.478-.546.215 0 .372.132.479.546l1.109 4.338a2.276 2.276 0 00-1.589-.646z" fill="#fff" fill-opacity="1"/></svg>