<svg xmlns="http://www.w3.org/2000/svg" viewBox="0 0 38 24" width="38" height="24" aria-labelledby="pi-aman" role="img"><title id="pi-aman">Aman</title><path d="M35 0H3a2.946 2.946 0 0 0-3 3v18a3.009 3.009 0 0 0 3 3h32a2.946 2.946 0 0 0 3-3V3a3.009 3.009 0 0 0-3-3Z" data-name="Path 1666" opacity=".07"/><path fill="#2abcc4" d="M35 1a2.006 2.006 0 0 1 2 2v18a2.006 2.006 0 0 1-2 2H3a2.006 2.006 0 0 1-2-2V3a2.006 2.006 0 0 1 2-2h32" data-name="Path 1667"/><path fill="#fff" d="M33.872 3.381a1.71 1.71 0 0 1 1.816 1.565V19.03a1.71 1.71 0 0 1-1.816 1.565H4.816A1.71 1.71 0 0 1 3 19.03V4.946a1.71 1.71 0 0 1 1.816-1.565h29.056" data-name="Path 53918"/><g data-name="aman (1)"><g fill-rule="evenodd" data-name="Group 7736"><path fill="#f25104" d="m11.199 6.474-.261.2-.273.2-.271.2c-.081.058-.206.149-.273.2s-.188.138-.272.2l-.271.2-.274.2c-.084.062-.187.135-.23.169s-.477.346-.965.7-.888.642-.893.649a1.6 1.6 0 0 1-.136.1 1.583 1.583 0 0 0-.139.1.255.255 0 0 1-.076.043 1.582 1.582 0 0 0-.2.129c-.2.149-.337.246-.683.495l-.321.235a1.6 1.6 0 0 1-.136.1c-.069.05-.131.093-.136.1s-.067.05-.136.1a1.45 1.45 0 0 0-.136.1q-.067.051-.138.1l-.136.1a1.6 1.6 0 0 1-.136.1 1.291 1.291 0 0 0-.136.1c-.007.007-.068.052-.136.1s-.131.093-.138.1a1.41 1.41 0 0 1-.136.1 1.464 1.464 0 0 0-.136.1 1.257 1.257 0 0 1-.127.1c-.416.293-.407.276-.219.407.076.054.174.126.217.158l.2.149c.07.048.183.129.254.181s.19.139.264.2l.264.2.253.182a1.435 1.435 0 0 1 .133.1c.007.007.068.052.136.1a1.536 1.536 0 0 1 .138.1 1.013 1.013 0 0 0 .133.1c.177.125.263.188 1.3.945.512.374.993.721 1.065.773.153.111.35.251.539.39.266.2.409.293.506.364.052.038.111.081.127.1s.088.063.156.11q.909.67 1.827 1.325l.136.1v-3.443c0-1.854 0-4.392.012-5.655a22.19 22.19 0 0 0-.014-2.291.5.5 0 0 0-.136.084m5.624 1.187q-.05.035-.1.073-.076.06-.156.113a1.45 1.45 0 0 0-.136.1q-.066.051-.136.1a1.41 1.41 0 0 0-.136.1c-.007 0-.067.05-.138.1s-.129.093-.136.1q-.066.051-.136.1c-.069.05-.131.093-.136.1s-.067.05-.136.1q-.069.046-.136.1a.722.722 0 0 1-.063.048c-.074.048-.067.072.032.139.048.029.142.1.211.147l.278.2.293.21a1.783 1.783 0 0 0 .2.133 4.7 4.7 0 0 1 .321.218 2.342 2.342 0 0 0 .285.187 4.417 4.417 0 0 0 .029-.886c.009-1.709.02-1.554-.1-1.464m-8.318 3.853c0 .012-.012.02-.027.02s-.029-.009-.029-.02.011-.02.029-.02.027.009.027.02m-1.164.2a.431.431 0 0 0 .02.19 1.1 1.1 0 0 0 .4.012c.1-.052 0-.177-.139-.2-.052 0-.091-.02-.091-.034 0-.045.061-.147.088-.147s.036.023 0 .052 0 .079.067.093a.186.186 0 0 1 .154.2v.088h-.247c-.306.007-.306.009-.316-.215-.007-.161 0-.213.036-.213.012 0 .02.068.02.175m2.969.048c-.008.249-.043.261-.051.017-.007-.2 0-.258.036-.226a.607.607 0 0 1 .014.21m-1.119-.069c-.079.067-.079.079.012.088s.106.07.052.172a.206.206 0 0 1-.366.032c-.034-.055-.043-.187-.012-.187.009 0 .019.027.019.061 0 .2.3.237.316.045 0-.052 0-.059-.068-.063-.045 0-.072-.016-.072-.034a.182.182 0 0 1 .082-.146c.086-.035.1-.02.038.033m-2.026.254a.52.52 0 0 1-.39-.017c-.067-.057-.1-.251-.045-.251.022 0 .031.018.031.083 0 .116.045.156.185.168.161.014.2-.017.2-.144 0-.151.027-.151.034 0a.328.328 0 0 1-.017.16m.97-.036c.113.009.139-.018.139-.144 0-.153.036-.131.043.027.009.2.131.185.131-.02 0-.07.009-.093.032-.093s.027.025.027.115c0 .129.009.142.075.117.036-.014.043-.029.043-.125s.007-.108.029-.108c.041 0 .041.2 0 .251s-.043.043-.309.043-.281 0-.328.049-.091.063-.091.029c0-.009.018-.027.041-.038s.039-.043.039-.177c0-.187.025-.228.038-.059l.009.126h.086m1.393-.2a.272.272 0 0 1 .084.126l.025.081h.463v-.05a.144.144 0 0 0-.222-.108c-.075.038-.11 0-.043-.041a.224.224 0 0 1 .34.2l-.007.058h-.4c-.4.007-.495 0-.418-.036a.522.522 0 0 1 .125-.016h.083l-.007-.072c0-.063-.018-.081-.079-.116-.041-.022-.067-.047-.059-.054.023-.023.048-.016.113.034m.788.323a.133.133 0 0 1-.039.052c-.038.034-.038.034-.038 0a.061.061 0 0 1 .061-.063.016.016 0 0 1 .016.017m-2.635.423a.313.313 0 0 1 .132.427.215.215 0 0 1-.059.066c-.009 0 .009.033.041.075a.365.365 0 0 1 .066.122c.014.118.048.061.274-.452l.091-.2.041-.093h.466l.041.093.089.2a.861.861 0 0 1 .045.111s.059.144.131.3c.05.11.032.133-.117.141h-.137l.014.055c.039.16.039.16-.024.16a.067.067 0 0 1-.077-.054q-.033-.086-.063-.172t-.059-.158c-.009-.02-.031-.081-.052-.136-.049-.129-.067-.129-.106-.007-.052.168-.154.455-.174.493s-.055.033-.385.033c-.421 0-.411 0-.425-.167-.012-.141-.048-.167-.222-.167h-.132l-.007.163v.162l-.2.008c-.142 0-.2 0-.21-.02a9.49 9.49 0 0 1 0-1.026 4.171 4.171 0 0 1 1.026.032m1.721-.039a2.884 2.884 0 0 1-.228.421 2.075 2.075 0 0 1-.22-.419 1.5 1.5 0 0 1 .224-.009 1.725 1.725 0 0 1 .224.007m.918.507c.138.282.249.523.249.534a.609.609 0 0 1-.22.014l-.217-.007-.074-.2-.1-.247q-.034-.081-.061-.165c-.014-.043-.07-.012-.07.041a.212.212 0 0 1-.018.061.82.82 0 0 0-.048.122q-.059.183-.132.36a.858.858 0 0 1-.446.016.02.02 0 0 1 .019-.02 5.536 5.536 0 0 0 .431-.981c.016-.041.027-.043.225-.043h.211l.247.513m-3.247-.2a.2.2 0 0 0-.009.1l.009.063h.136c.136 0 .2-.032.2-.1s-.285-.138-.326-.059" data-name="Path 53905"/><path fill="#04bcc4" d="M2.904 2.729a1.952 1.952 0 0 0-1.144.733 2.515 2.515 0 0 0-.273.524.543.543 0 0 1-.032.117c-.086.251-.086.07-.086 7.963 0 5.356.007 7.5.022 7.6a3.1 3.1 0 0 0 .125.524c.014.029.041.088.059.132A1.918 1.918 0 0 0 3.096 21.4c.2.027 31.585.027 31.763 0a1.907 1.907 0 0 0 1.673-1.547c.041-.177.041-15.4 0-15.591a1.909 1.909 0 0 0-1.352-1.495l-.157-.04c-.106-.029-32.012-.028-32.119 0m30.513 1.94a1.221 1.221 0 0 1 .67.342c.122.117.127.1-.132.463s-.235.355-.363.224a.6.6 0 0 0-.965.074.525.525 0 0 0 .088.565c.138.141.2.151.859.151.316 0 .586.009.6.017a4.379 4.379 0 0 1 .019.828c-.02.02-2.763.018-2.784 0a3.53 3.53 0 0 1 .012-.821.811.811 0 0 1 .231-.023c.127 0 .2-.007.187-.018a1.825 1.825 0 0 1-.052-.819 1.4 1.4 0 0 1 .7-.871 1.155 1.155 0 0 1 .319-.106.3.3 0 0 0 .1-.019 1.454 1.454 0 0 1 .511.012M11.35 8.675c-.007 1.259-.012 3.806-.012 5.655v3.364l-.136-.1q-.918-.656-1.827-1.324l-.156-.11c-.016-.016-.075-.059-.127-.1-.1-.067-.24-.172-.507-.364-.187-.138-.385-.278-.539-.39l-1.065-.773-1.3-.945a1.562 1.562 0 0 1-.133-.1 1.675 1.675 0 0 0-.139-.1q-.069-.048-.136-.1a1.566 1.566 0 0 0-.133-.1c-.068-.048-.182-.129-.254-.182s-.19-.138-.264-.2-.2-.141-.264-.2-.168-.122-.254-.181l-.2-.149c-.043-.032-.141-.1-.217-.158-.188-.132-.2-.116.219-.407a1.309 1.309 0 0 0 .127-.1 1.378 1.378 0 0 1 .136-.1 1.636 1.636 0 0 0 .136-.1c.007-.007.067-.052.138-.1a1.545 1.545 0 0 0 .136-.1 1.291 1.291 0 0 1 .136-.1 1.464 1.464 0 0 0 .136-.1c.007-.007.068-.052.136-.1s.131-.091.138-.1a1.366 1.366 0 0 1 .136-.1c.068-.05.132-.093.136-.1s.065-.05.136-.1a1.619 1.619 0 0 0 .136-.1c.007 0 .148-.11.321-.235l.683-.495a1.572 1.572 0 0 1 .2-.129.255.255 0 0 0 .076-.043 1.6 1.6 0 0 1 .14-.108c.069-.048.131-.091.136-.1s.407-.3.893-.648l.965-.7c.043-.034.147-.108.23-.17s.206-.147.274-.2l.271-.2c.083-.059.206-.147.271-.2s.19-.138.273-.2l.271-.2.274-.2.26-.2a.5.5 0 0 1 .136-.084 22.19 22.19 0 0 1 .011 2.284m11.22-2.055c.012.018.019 1.189.019 3.066 0 3.251 0 3.123.1 3.34.153.344.293.371 1.854.371h1.178l.012-.6c.007-.328.022-.648.033-.711s.029-.167.041-.228a2.612 2.612 0 0 1 .075-.313 2.245 2.245 0 0 1 1.63-1.67 3.068 3.068 0 0 1 1.4.014l.138.039a2.4 2.4 0 0 1 1.472 1.447.083.083 0 0 0 .016.045 1.707 1.707 0 0 1 .1.364 3.377 3.377 0 0 1-.089 1.5 2.272 2.272 0 0 1-1.487 1.485 2.073 2.073 0 0 1-.742.12h-.251l-.16-.141-.416-.366a2.292 2.292 0 0 1-.258-.244c0-.009.19-.182.421-.382l.421-.365h.172a.878.878 0 0 0 .215-.018l.122-.041c.417-.125.586-.4.586-.946 0-.627-.21-.95-.69-1.063a.987.987 0 0 0-1.121.459c-.141.293-.138.256-.138 1.73 0 .721-.007 1.327-.014 1.343-.014.038-4.067.05-4.3.012a1.854 1.854 0 0 1-1.79-1.82c-.039-.407-.024-6.428.014-6.45a9.272 9.272 0 0 1 1.442.017m-5.646 1.4c0 1.515-.012 2.082-.033 2.082a2.342 2.342 0 0 1-.285-.187c-.144-.1-.293-.2-.321-.217a1.9 1.9 0 0 1-.2-.133l-.298-.201a18.165 18.165 0 0 0-.278-.2l-.206-.144c-.1-.066-.106-.091-.031-.139a.76.76 0 0 0 .063-.048q.065-.051.135-.1c.068-.05.132-.093.136-.1s.065-.049.136-.1q.069-.046.136-.1c.007-.007.067-.05.136-.1l.138-.1a1.411 1.411 0 0 1 .136-.1q.069-.046.136-.1a1.366 1.366 0 0 1 .136-.1c.07-.048.141-.1.156-.113.2-.168.2-.165.2.2m16.662 3.4v3.457h-1.5v-6.9a3.059 3.059 0 0 1 .752-.02l.745.007v3.468M13.828 9.358a.229.229 0 1 1-.273.054.228.228 0 0 1 .273-.054m-.2.076a.2.2 0 0 0-.061.182c.045.183.359.12.33-.067a.174.174 0 0 0-.269-.113m.2.039c.048.059.009.235-.043.2a.173.173 0 0 0-.089-.023c-.072.007-.1-.046-.067-.154.014-.055.162-.07.2-.02m5.686.314a23.238 23.238 0 0 1 0 2.417q-.024.112-.043.226c-.014.077-.029.165-.038.2a3.311 3.311 0 0 1-.12.375.073.073 0 0 0-.016.046 2.909 2.909 0 0 1-.554.907 2.851 2.851 0 0 1-1.006.654.072.072 0 0 0-.045.018 3.205 3.205 0 0 1-.651.156 5.482 5.482 0 0 1-1.049 0 3.893 3.893 0 0 1-.613-.138 2.748 2.748 0 0 1-1.411-1.063 2.821 2.821 0 0 1-.268-.527.08.08 0 0 0-.017-.048.457.457 0 0 1-.041-.108l-.043-.138a4.73 4.73 0 0 1-.036-.151l-.043-.208a6.051 6.051 0 0 1 0-1.074l.043-.206a3.651 3.651 0 0 1 .457-1.118c.115-.179.043-.206.67.253.167.12.363.264.44.316.179.125.175.106.086.278a2.262 2.262 0 0 0-.179.48 3.514 3.514 0 0 0 0 .869 1.286 1.286 0 0 0 .676.925 1.445 1.445 0 0 0 .524.17 2.726 2.726 0 0 0 .668-.019 1.311 1.311 0 0 0 1.124-1.162c.014-.079.023-.472.023-1.205a4.95 4.95 0 0 1 .029-1.118 8.427 8.427 0 0 1 1.436 0m2.538 7.391c.006 1.293.031 1.155-.216 1.149l-.2-.007-.007-1.083v-1.108c0-.014.061-.025.211-.02l.2.007.007 1.063m11.6.039v1.1l-.2.007c-.273.007-.247.131-.247-1.108s-.024-1.118.244-1.11l.2.007v1.1m-19.456-.882c.249.12.077.539-.177.43a.23.23 0 0 1-.122-.344.212.212 0 0 1 .3-.086m6.677 0a.224.224 0 0 1 .084.337.216.216 0 0 1-.362.02.231.231 0 0 1 .278-.357m9.591 0a.23.23 0 0 1-.014.427.224.224 0 0 1-.307-.22.22.22 0 0 1 .321-.207m1.832.809a2.963 2.963 0 0 1 .352.656.39.39 0 0 1-.122.411c-.1.091-.127.093-.615.093h-.436v-.372l.359-.012c.2-.006.362-.014.365-.015.025-.017-.023-.106-.2-.357-.237-.362-.237-.342-.025-.481s.182-.138.312.079m-13.711-.12a.843.843 0 0 1 .57.781l.017.108h1.384l.012-.423.009-.423.2-.007c.165 0 .2 0 .217.029a6.855 6.855 0 0 1 0 1.194c-.027.036-6.476.065-6.552.029l-.073-.036c-.054-.027-.054-.029-.067.1a.654.654 0 0 1-.711.6c-.052 0-.075-.07-.075-.224 0-.182.014-.208.111-.208a.293.293 0 0 0 .21-.1c.036-.041.039-.077.045-.633.007-.683-.024-.613.265-.6h.176l.009.309c.007.247.016.318.041.347a15.782 15.782 0 0 0 2.68.055h1.676l-.007-.088a.431.431 0 0 0-.374-.4 1.241 1.241 0 0 0-.411.031c-.084.043-.144-.309-.066-.378a1.3 1.3 0 0 1 .719-.05m7.771.038a.459.459 0 0 1 .136.764.512.512 0 0 0-.061.077s.749.007 1.659.007h1.659v-.183a.619.619 0 0 1 1.159-.378 2.813 2.813 0 0 1 .041.955c-.043.016-4.079.024-4.438.012a1.007 1.007 0 0 1-.419-.057c-.108-.055-.144-.055-.222 0-.287.2-.365.457-.183.62.149.136.457.129.812-.018.061-.027.24.258.2.312a1.372 1.372 0 0 1-.477.206 1.037 1.037 0 0 1-.884-.208.747.747 0 0 1 .244-1.181c.1-.054.1-.058-.05-.243s-.158-.206-.091-.362a.752.752 0 0 1 .911-.321m-2.971 0c.321.1.421.31.421.895 0 .7-.142.887-.76.986-.312.05-.332.039-.324-.22v-.183l.165-.012c.233-.018.3-.033.378-.1.122-.1.1-.122-.129-.125a.478.478 0 0 1-.278-.048.662.662 0 0 1 .522-1.194m2.507.369c-.1.027-.093.043.009.168.16.2.185.2.266.057.113-.2-.016-.3-.275-.224m-2.784.032a.249.249 0 0 0 .183.457l.083-.024v-.119c0-.269-.108-.39-.269-.314m7.12.018c-.041.043-.048.07-.048.177 0 .2.07.263.278.263h.073v-.2c0-.168-.007-.2-.041-.247a.183.183 0 0 0-.263 0m-8.2.995c.032.033.032.232 0 .235h-.081c-.072 0-.116.041-.1.1.012.034.029.041.117.041.126 0 .165.032.165.139 0 .126-.024.138-.321.138-.33 0-.321 0-.321-.141 0-.106 0-.116.05-.127s.048-.025.048-.1a.283.283 0 0 1 .325-.32.287.287 0 0 1 .141.023m11.614.007a.133.133 0 0 1-.081.228c-.182-.009-.156.12.027.136l.113.009v.259h-.278c-.321.007-.333 0-.333-.131 0-.1.023-.141.077-.141.023 0 .029-.025.032-.106 0-.222.305-.4.443-.258m-15.121.158a.23.23 0 0 1-.275.364.215.215 0 0 1-.048-.355.2.2 0 0 1 .323-.009" data-name="Path 53904"/></g></g></svg>