<svg xmlns="http://www.w3.org/2000/svg" version="1.1" role="img" viewBox="0 0 38 24" width="38" height="24" aria-labelledby="pi-amwal"><title id="pi-amwal">Amwal</title><rect x="1" y="1" width="36" height="22" rx="2" ry="2"/><path d="M34.03 15.76V8.11c0-.07 0-.09-.09-.09h-1.33c-.06 0-.08.01-.08.08v7.68c0 .06 0 .07.07.07h1.34c.08 0 .09-.02.09-.09zM11.7 10.79c.84-.63 2.3-.42 2.93.39.03.04.08.04.11 0 .01-.01.02-.02.03-.04s.04-.05.06-.07c.34-.34.76-.53 1.23-.61.5-.09.99-.06 1.46.12.57.22.96.64 1.2 1.2.17.4.26.83.26 1.26v2.7c0 .07-.02.09-.09.09h-1.31c-.07 0-.09-.01-.09-.09v-2.56c0-.25-.04-.49-.16-.71-.38-.7-1.31-.78-1.8-.13-.19.25-.28.53-.28.83v2.57c0 .07-.02.08-.08.08h-1.34c-.06 0-.07-.01-.07-.07v-2.58c0-.16-.01-.32-.05-.48-.11-.42-.46-.74-.89-.8-.66-.09-1.06.41-1.19.84-.05.15-.07.31-.07.47v2.45c0 .09-.07.15-.15.15h-1.27c-.06 0-.07-.02-.07-.07v-5.16c0-.05 0-.07.07-.07h1.37c.05 0 .07 0 .06.06v.14c0 .06.07.09.12.05v.04s.01 0 0 0zm12.39 5.06c-.03.05-.1.05-.13 0-.18-.38-.36-.75-.54-1.12-.04-.09-.09-.18-.13-.28-.13-.28-.27-.55-.4-.84-.03-.06-.1-.06-.13 0l-.26.53c-.27.56-.54 1.13-.81 1.7-.03.05-.1.06-.13 0-.94-1.78-1.88-3.54-2.82-5.32h1.58c.06 0 .08.02.11.07l.9 1.8.3.6s.01.03.02.04.01.02.02.03c.07-.15.14-.3.21-.44.04-.09.08-.17.12-.26s.08-.17.12-.26c.02-.04.02-.07 0-.12-.22-.46-.44-.93-.65-1.39 0 0 0-.02-.01-.03s-.01-.03-.02-.04c.01-.02.03-.01.04-.01h1.32s.07.02.09.06c.39.81.78 1.63 1.17 2.44h.01v.02c.03-.07.06-.13.09-.2l.09-.21c.1-.23.2-.46.3-.68.2-.46.4-.91.6-1.37.02-.05.05-.07.11-.07h1.4c-.86 1.78-1.72 3.54-2.58 5.32v.03zm7.72-5.23v-.03s0-.05-.05-.05h-1.32c-.07 0-.13.06-.13.13v.08c0 .06-.07.09-.12.06a1.94 1.94 0 00-1.06-.37c-.79-.04-1.45.25-1.98.83-.66.72-.88 1.58-.69 2.53.22 1.11 1.11 2.04 2.3 2.16.44.04.87-.03 1.26-.25.06-.03.11-.07.16-.11s.12 0 .12.06v.13c0 .06.01.07.07.07h1.26c.09 0 .17-.07.17-.17v-5.07z" fill="#fff"/><path d="M30.27 13.74c-.19.46-.61.74-1.11.73-.79-.01-1.31-.66-1.23-1.42.06-.57.41-.96.92-1.1.72-.19 1.42.29 1.5 1.04.03.26 0 .51-.09.75h.01z"/><path d="M9.39 10.62v5.13c0 .08-.02.09-.1.09H7.95c-.06 0-.08-.01-.07-.07v-.12c0-.06-.07-.09-.12-.06-.33.26-.7.35-1.11.37-1.17.04-2.21-.76-2.54-1.91-.31-1.07-.09-2.04.68-2.84.51-.54 1.16-.81 1.92-.77.38.02.74.14 1.06.37.05.03.12 0 .12-.06v-.15s0-.06.05-.06h1.4s.06.01.05.05v.02z" fill="#fff"/><path d="M6.78 14.48c.47-.01.84-.24 1.05-.69.12-.26.15-.54.11-.82-.15-.93-1.07-1.27-1.77-.9-.47.25-.7.73-.64 1.3.07.64.59 1.11 1.26 1.11z"/><g opacity=".07"><path d="M35 1c1.1 0 2 .9 2 2v18c0 1.1-.9 2-2 2H3c-1.1 0-2-.9-2-2V3c0-1.1.9-2 2-2h32m0-1H3C1.35 0 0 1.35 0 3v18c0 1.65 1.35 3 3 3h32c1.65 0 3-1.35 3-3V3c0-1.65-1.35-3-3-3z"/></g></svg>