<svg width="38" height="24" viewBox="0 0 38 24" fill="none" xmlns="http://www.w3.org/2000/svg" role="img" aria-labelledby="pi-ansastoredvalue"><title id="pi-ansastoredvalue">Ansa Stored Value</title><rect x="1" y="1" width="36" height="22" rx="2" fill="#271C6A"/><rect x=".5" y=".5" width="37" height="23" rx="2.5" stroke="#000" stroke-opacity=".07"/><path d="M17.337 3.197a8.678 8.678 0 016.034.886 8.946 8.946 0 014.032 4.663 9.165 9.165 0 01.106 6.214 8.963 8.963 0 01-3.87 4.803 8.683 8.683 0 01-6 1.1 8.786 8.786 0 01-5.087-2.91.424.424 0 01.037-.59.404.404 0 01.578.037 7.97 7.97 0 004.615 2.64 7.878 7.878 0 005.442-.998 8.132 8.132 0 003.51-4.357 8.315 8.315 0 00-.096-5.637 8.116 8.116 0 00-3.657-4.23 7.873 7.873 0 00-5.473-.804 7.99 7.99 0 00-4.68 3.005 8.27 8.27 0 00-1.662 5.086.414.414 0 01-.405.423.414.414 0 01-.415-.413A9.116 9.116 0 0112.18 6.51a8.808 8.808 0 015.158-3.312z" fill="#fff"/><path fill-rule="evenodd" clip-rule="evenodd" d="M19.155 14.714c1.48 0 2.68-1.224 2.68-2.733 0-1.508-1.2-2.732-2.68-2.732-1.48 0-2.68 1.223-2.68 2.732 0 1.51 1.2 2.733 2.68 2.733zm0-.836c1.027 0 1.86-.85 1.86-1.897 0-1.047-.833-1.896-1.86-1.896-1.028 0-1.86.85-1.86 1.896 0 1.048.832 1.897 1.86 1.897z" fill="#fff"/><path d="M13.61 13.691a5.91 5.91 0 002.4 3.273 5.717 5.717 0 006.325 0 .423.423 0 00.12-.578.405.405 0 00-.567-.123 4.91 4.91 0 01-5.431 0 5.076 5.076 0 01-2.062-2.81 5.176 5.176 0 01.216-3.505 5.04 5.04 0 012.392-2.525 4.899 4.899 0 013.427-.342 4.987 4.987 0 012.827 2.004 5.14 5.14 0 01.845 2.152.411.411 0 00.467.35.417.417 0 00.344-.475 5.986 5.986 0 00-.984-2.507 5.807 5.807 0 00-3.292-2.333 5.704 5.704 0 00-3.99.399 5.869 5.869 0 00-2.786 2.94 6.027 6.027 0 00-.252 4.08z" fill="#fff"/><path fill-rule="evenodd" clip-rule="evenodd" d="M11.513 16.516c.836 0 1.514-.69 1.514-1.543 0-.852-.678-1.543-1.514-1.543-.835 0-1.513.691-1.513 1.543s.678 1.543 1.513 1.543zm0-.836a.7.7 0 00.694-.707.7.7 0 00-.694-.707.7.7 0 00-.693.707.7.7 0 00.693.707zm13.924-1.477c0 .852-.678 1.543-1.514 1.543-.835 0-1.513-.69-1.513-1.543 0-.852.678-1.543 1.514-1.543.835 0 1.513.69 1.513 1.543zm-.82 0a.7.7 0 01-.694.707.7.7 0 01-.693-.707.7.7 0 01.694-.707.7.7 0 01.693.707z" fill="#fff"/></svg>