<svg width="38" height="24" role="img" viewBox="0 0 38 24" xmlns="http://www.w3.org/2000/svg" aria-labelledby="pi-apc"><title id="pi-apc">APC Bank</title><path opacity=".07" d="M35 0H3C1.3 0 0 1.3 0 3v18c0 1.7 1.4 3 3 3h32c1.7 0 3-1.3 3-3V3c0-1.7-1.4-3-3-3z"/><path fill="#fff" d="M35 1c1.1 0 2 .9 2 2v18c0 1.1-.9 2-2 2H3c-1.1 0-2-.9-2-2V3c0-1.1.9-2 2-2h32"/><path d="M14.102 7.868c.012.02.014.03.014.045h1.694c0-.74-.435-1.291-.981-1.627-.53-.326-1.216-.492-1.95-.532-1.482-.08-3.401.337-5.378 1.415-1.75.944-3.36 1.257-4.477 1.196-.565-.03-.947-.153-1.159-.282a.496.496 0 01-.16-.136c-.01-.017-.011-.024-.011-.034H0c0 .74.442 1.287.985 1.618.53.321 1.213.486 1.947.526 1.48.08 3.398-.331 5.375-1.399h.002l.002-.001c1.751-.956 3.36-1.273 4.476-1.212.563.03.944.154 1.154.284a.5.5 0 01.16.139z" fill="#40009a" transform="translate(11.57 4.095)"/><path d="M7.94 14.102a.068.068 0 01-.043.014v1.694c.741 0 1.292-.436 1.626-.984.324-.53.487-1.215.526-1.95.077-1.48-.34-3.397-1.406-5.373-.946-1.752-1.259-3.362-1.198-4.48.03-.564.153-.946.282-1.158a.496.496 0 01.136-.16c.017-.01.024-.011.034-.011V0C7.157 0 6.61.442 6.28.985c-.322.53-.486 1.213-.526 1.947-.08 1.48.33 3.398 1.398 5.375.946 1.754 1.264 3.365 1.205 4.481-.03.565-.151.945-.28 1.156a.491.491 0 01-.136.158z" fill="#40009a" transform="translate(11.57 4.095)"/><path d="M1.633 8.084a.232.232 0 00.061-.17H0c0-.802.597-1.249 1.11-1.455.517-.207 1.174-.283 1.868-.283 1.408 0 3.26.318 5.182.93 1.806.564 3.483.834 4.673.834.606 0 1.015-.07 1.242-.16a.642.642 0 00.108-.05c-.019.016-.067.073-.067.183h1.694c0 .805-.608 1.245-1.115 1.444-.514.202-1.17.277-1.862.277-1.407 0-3.259-.312-5.18-.913h-.005c-1.806-.576-3.482-.851-4.67-.851-.605 0-1.013.072-1.238.162a.622.622 0 00-.107.052zm.025.056a.116.116 0 01.028-.022.128.128 0 01-.028.022zm12.587-.382a.161.161 0 01-.03.023.132.132 0 01.03-.023z" fill="#40009a" transform="translate(11.57 4.095)"/><path d="M7.727 1.633c.016.017.068.061.17.061V0C8.7 0 9.145.597 9.351 1.11c.207.517.283 1.174.283 1.868 0 1.408-.318 3.26-.929 5.182-.565 1.806-.835 3.483-.835 4.673 0 .606.07 1.015.16 1.242a.642.642 0 00.05.108c-.016-.019-.072-.067-.183-.067v1.694c-.805 0-1.244-.608-1.444-1.115-.202-.514-.277-1.17-.277-1.862 0-1.407.312-3.259.913-5.18V7.65l.001-.002c.575-1.806.85-3.482.85-4.67 0-.605-.071-1.013-.161-1.238a.622.622 0 00-.052-.107zm.029.025c0-.001.008.007.022.028a.128.128 0 01-.022-.028zm.382 12.587a.161.161 0 01-.023-.03c.016.017.024.029.023.03z" fill="#40009a" transform="translate(11.57 4.095)"/></svg>
