<svg xmlns="http://www.w3.org/2000/svg" role="img" viewBox="0 0 38 24" width="38" height="24" aria-labelledby="pi-aqsat"><title id="pi-aqsat">AQSAT</title><path opacity=".07" fill="#000" d="M35 0H3C1.3 0 0 1.3 0 3v18c0 1.7 1.4 3 3 3h32c1.7 0 3-1.3 3-3V3c0-1.7-1.4-3-3-3z"/><path fill="#fff" d="M35 1c1.1 0 2 .9 2 2v18c0 1.1-.9 2-2 2H3c-1.1 0-2-.9-2-2V3c0-1.1.9-2 2-2h32"/><g clip-rule="evenodd" fill-rule="evenodd"><path d="M9.265 9.805a22.184 22.184 0 00-.602-.492 2.81 2.81 0 00-.24-.15.145.145 0 00-.05.04 515.77 515.77 0 01-3.1 5.315c-1.027-1.129-1.358-2.44-.992-3.931.542-1.646 1.669-2.606 3.38-2.879a4.124 4.124 0 011.945.241c.196.082.384.179.561.291l-.902 1.564z" opacity=".993" fill="#fdc507"/><path d="M9.253 9.832c1.051 1.21 1.31 2.572.773 4.091-.58 1.302-1.573 2.081-2.979 2.338a3.68 3.68 0 01-2.487-.492c.239-.406.473-.813.701-1.224a533.99 533.99 0 003.1-5.314.145.145 0 01.05-.04c.082.045.163.095.24.15.205.16.405.324.602.491z" opacity=".995" fill="#00a7a0"/><path d="M28.258 9.564c.23-.016.46.008.681.07a.799.799 0 01.351.312c.5 1.296.999 2.593 1.494 3.89a4.578 4.578 0 01-.852 0l-1.264-3.349c-.073-.15-.182-.186-.33-.11a.57.57 0 00-.09.15l-1.304 3.31c-.277.02-.555.026-.832.02a201.913 201.913 0 011.554-3.931c.137-.2.352-.331.592-.362zm-14.255-.013c.232-.017.46.007.682.07a.746.746 0 01.37.331c.498 1.295.99 2.592 1.476 3.89a8.94 8.94 0 01-.843-.02 856.78 856.78 0 00-1.253-3.329c-.057-.153-.16-.204-.311-.15a.427.427 0 00-.13.19 360.53 360.53 0 01-1.295 3.29 4.32 4.32 0 01-.842 0c.512-1.299 1.03-2.597 1.555-3.891a.849.849 0 01.591-.381z" opacity=".975" fill="#fdc606"/><path d="M18.384 9.584c2.17-.274 3.089.669 2.758 2.829-.1.554-.398.958-.892 1.213l.4.823a5.19 5.19 0 01-.782-.01c-.095-.211-.195-.418-.3-.623a34.06 34.06 0 00-1.184-.03c-.856-.107-1.36-.585-1.514-1.434a4.732 4.732 0 01-.02-1.203c.119-.912.63-1.433 1.534-1.565zm.201.742c.287-.003.575 0 .862.01.488.02.799.265.932.733.11.47.089.963-.06 1.423a.821.821 0 01-.401.442c-.121-.259-.245-.516-.37-.772a4.837 4.837 0 00-.762.01c.137.292.278.583.42.873a3.427 3.427 0 01-.963-.06.956.956 0 01-.63-.794 2.684 2.684 0 01.059-1.223.872.872 0 01.571-.572c.116-.027.23-.05.341-.07z" opacity=".978" fill="#fdc606"/><path d="M22.908 9.589h2.447v.742c-.756-.003-1.512 0-2.267.01-.28.038-.427.198-.44.482.006.24.127.395.36.46l1.665.06c.59.097.921.44.993 1.034.063.448-.062.832-.372 1.153a1.416 1.416 0 01-.682.26c-.882.01-1.765.014-2.647.01v-.74c.823.002 1.644 0 2.467-.01a.476.476 0 00.47-.372c.059-.269-.031-.466-.27-.592a1.158 1.158 0 00-.34-.06 29.364 29.364 0 01-1.465-.04c-.624-.144-.938-.538-.942-1.184.006-.69.348-1.096 1.023-1.213zm7.715-.028h3.23v.742h-1.244v3.47h-.762v-3.47h-1.224v-.742z" opacity=".984" fill="#fdc606"/></g></svg>