<svg width="38" height="24" viewBox="0 0 38 24" fill="none" xmlns="http://www.w3.org/2000/svg" role="img" aria-labelledby="pi-arca"><title id="pi-arca">Arca</title><g clip-path="url(#pi-arca-clip)"><path fill="#fff" d="M1 1h36v22H1z"/><path d="M23.055 7h4.927l-.19.87-.142.505-.118.275-.119.137-.213.115-.26.046-1.872.023-.307.091-.214.138-.142.183-.118.23-.19.687-.568 2.383-.118.482-.024.137v.344l.118.229.19.137.237.07.26.022h.545l1.468-.023.356-.114.213-.16.047-.047h.071l-.047.252-.308 1.307-.118.32-.19.253-.19.114-.307.092-.166.023-.426.023h-3.364l-.497-.046-.545-.115-.379-.16-.236-.138-.214-.183-.166-.252-.118-.275-.095-.458v-.413l.095-.687.237-1.054.284-1.215.213-.894.213-.87.143-.459.118-.298.19-.32.189-.253.213-.252.213-.206.355-.252.38-.184.378-.114.308-.046zM8.49 7h1.657l.19.069.19.137.094.184.047.343.261 3.277.213 2.544.142 1.788.048.275.142.183.26.183.142.092-.023.069H8.182l-.237-.046-.142-.092-.095-.114-.047-.16-.024-1.49h-.592l.023-.252.261-1.26.047-.093h.38l-.048-.412-.118-.756v-.207l.236-1.145.308-1.398.332-1.65L8.49 7zM18.532 8.948h1.208l-.095.435-.26 1.077-.12.275-.212.184-.285.114-.236.046-.971.023-.285.046-.213.091-.165.138-.095.183-.19.757-.26 1.1-.427 1.764-.023.138v.298l.118.229.237.229v.046l-.095.023h-3.41l-.166-.046-.118-.138-.024-.137.213-.894.521-2.154.474-1.97.213-.895.024-.137V9.52l-.095-.184-.284-.252V9.04l.852-.023h2.392l.237.068.142.16.024.047v.298l-.095.343-.023.069.379-.023.355-.527.19-.252.26-.183.142-.046.166-.023zM29.995 9.017h4.713l.379.046.308.114.213.16.166.184.118.23.071.274v.367l-.095.504-.402 1.696-.45 1.856-.237 1.031v.252l.071.138.19.137.118.07.024.068H31.96l-.214-.046-.142-.092-.094-.137.023-.275.213-.963.474-2.268.237-1.1v-.252l-.095-.184-.142-.091-.663-.023H30.09l-.261-.046-.142-.092-.047-.114v-.253L29.9 9.2l.047-.16.048-.023zM5.86 7h2.061l-.047.275-.213.985-.237 1.1-.237 1.032-.166.802-.118.275-.214.39-.236.435-.166.275-.024.068.403.023-.119.596-.19.871-.046.115-.569.023-.355.664-.26.527-.024.092v.16l.118.184.237.183v.069H2.403l-.237-.069-.142-.16-.024-.16.142-.345.284-.527.687-1.283.237-.435.26-.505.237-.435.403-.756.237-.436.474-.893.426-.803.284-.527.403-.756.142-.298.023-.206-.07-.183-.095-.115-.237-.183L5.86 7z" fill="#2A2B6D"/><path d="M29.9 11.56h2.013l-.047.23-.237.87-.024.046-.236.046-.214.16-.142.23-.095.252-.118.55v.32l.095.161.118.069.332.023-.024.252-.095.412-.19.298-.236.298-.26.183-.308.115-.285.046-.284.023h-.876l-.403-.046-.331-.115-.19-.137-.166-.184-.118-.252-.047-.229v-.71l.07-.459.143-.572.166-.482.189-.366.213-.298.213-.23.308-.229.308-.137.332-.092.426-.046z" fill="#2A2B6D"/><path d="M7.921 7h.568l-.047.298-.308 1.535-.331 1.513-.19.916v.207l.166 1.077-.024.114h-.379l-.142.642-.19.94h-.733l.213-.986.118-.55.024-.046h-.427l.072-.16.331-.619.213-.366.119-.253.118-.504.19-.893.236-1.032.285-1.352L7.92 7z" fill="#EABD41"/><path d="M35 .5H3A2.5 2.5 0 00.5 3v18A2.5 2.5 0 003 23.5h32a2.5 2.5 0 002.5-2.5V3A2.5 2.5 0 0035 .5z" stroke="#000" stroke-opacity=".07"/></g><defs><clipPath id="pi-arca-clip"><path fill="#fff" d="M0 0h38v24H0z"/></clipPath></defs></svg>