<svg xmlns="http://www.w3.org/2000/svg" width="38" height="24" viewBox="0 0 38 24" fill="none" role="img" aria-labelledby="pi-areeba"><title id="pi-areeba">Areeba</title><g clip-path="url(#pi-areeba-clip-0)"><path d="M35 .5H3A2.5 2.5 0 00.5 3v18A2.5 2.5 0 003 23.5h32a2.5 2.5 0 002.5-2.5V3A2.5 2.5 0 0035 .5z" stroke="#000" stroke-opacity=".07"/><g clip-path="url(#pi-areeba-clip-1)"><path d="M1 1h36v22H1V1z" fill="#FE4638"/><path d="M25.347 7.692h.427l.023.023v2.383l.119-.092.095-.114.26-.184.379-.16.308-.069.237-.023h.237l.402.046.427.138.26.137.284.206.19.184.213.298.19.366.118.298.095.436.047.32v.963l-.095.504-.118.39-.19.366-.165.252-.261.298-.237.207-.308.183-.331.16-.45.16-.45.092-.45.046h-.735l-.615-.069-.616-.114-.308-.092-.095-.069V7.715l1.113-.023zM14.808 9.456h.332l.473.046.38.115.402.183.284.206.237.207.237.298.237.435.118.39.071.366.024.275v.573l-.048.39-.023.023-3.742.023.047.274.095.276.142.229.165.16.237.137.284.115.19.046.45.023.426-.023.569-.092.473-.137h.119l.166.481.118.527v.138l-.071.068-.568.16-.522.092-.615.046h-.545l-.45-.046-.403-.091-.379-.138-.355-.183-.26-.206-.143-.115-.236-.298-.19-.32-.142-.322-.095-.343-.07-.344-.024-.183v-.71l.094-.574.166-.55.19-.366.19-.275.236-.275.26-.207.332-.206.332-.137.426-.115.379-.046zm6.158 0l.45.023.355.069.332.115.331.183.308.229.19.183.213.275.19.367.141.412.071.344.048.436v.275l-.048.573-.023.023-3.766.023.095.412.094.23.19.228.213.16.26.115.356.092.402.023.427-.023.544-.092.356-.091.236-.07.072.092.165.55.071.344v.207l-.094.068-.521.138-.545.091-.545.046h-.616l-.568-.069-.497-.137-.38-.183-.26-.16-.284-.253-.166-.183-.166-.252-.142-.275-.142-.413-.095-.412-.047-.482v-.32l.095-.665.095-.39.189-.458.166-.275.19-.229.212-.23.237-.182.308-.184.38-.16.378-.092.142-.023.403-.023zm10.966.024h1.065l.403.068.308.092.379.183.26.183.19.184.213.32.118.275.095.367.047.436v3.552l-.118.068-.663.16-.545.092-.52.046h-.782l-.45-.046-.427-.091-.308-.115-.331-.183-.237-.184-.19-.252-.118-.229-.118-.367-.048-.274v-.321l.095-.459.118-.297.214-.276.19-.183.307-.206.379-.16.355-.092.427-.069.26-.023h.64l.355.023-.119-.481-.118-.23-.142-.114-.213-.092-.403-.068-.355-.023-.569.068-.402.092-.237.069-.095-.092-.166-.39-.094-.412-.024-.229.166-.069.52-.137.498-.092.19-.023zm-27.142 0h.994l.427.068.378.114.332.16.237.184.26.252.19.321.118.298.071.32.024.368v3.598l-.19.068-.568.138-.568.091-.521.046h-.806l-.544-.069-.45-.114-.38-.184-.283-.206-.19-.206-.19-.32-.118-.39-.023-.184v-.458l.07-.39.19-.366.213-.252.166-.16.237-.161.355-.16.403-.115.45-.069.26-.023h.521l.45.023-.07-.412-.143-.275-.19-.16-.284-.093-.26-.045h-.592l-.592.091-.427.115-.07-.069-.19-.458-.071-.298-.024-.275.119-.069.473-.137.616-.115.19-.023zm4.144.045h.26l.57.069.047.069.118.595v.115L10 10.35l.166-.206.237-.23.308-.206.189-.091.403-.092h.45l.165.023.048.046.024.206v.642l-.048.504-.805.023-.308.069-.26.16-.19.206-.19.367-.094.344-.024 3.277-.024.023H8.532l-.048-.07-.023-.435v-4.033l.023-1.283.45-.069z" fill="#FDFEFE"/><path d="M26.768 10.762l.356.023.26.092.19.137.19.207.118.252.094.39.048.366v.413l-.048.366-.118.367-.119.23-.213.228-.19.138-.307.137-.379.092h-.592l-.26-.046V11.84l.094-.412.095-.206.166-.184.165-.137.26-.115.19-.023zm5.779 1.903h.687l.213.045.024.16v1.33l-.047.046-.64.069h-.26l-.332-.07-.26-.137-.166-.16-.095-.183-.024-.07v-.32l.095-.275.19-.206.236-.138.38-.091zm-27.165 0h.663l.213.045.024.023.023.207v.893l-.023.39-.237.046-.142.023h-.687l-.308-.092-.19-.137-.165-.184-.071-.16v-.39l.094-.252.166-.183.237-.138.26-.069.143-.022zM20.8 10.648h.308l.308.069.26.16.166.183.142.298.119.436v.069l-.071.022h-2.274l-.024-.068.142-.459.166-.298.119-.137.236-.16.285-.092.118-.023zm-5.968 0h.284l.308.069.237.114.165.16.166.322.071.206.047.344-.023.022h-2.298l.024-.229.142-.412.166-.252.19-.16.236-.115.284-.07z" fill="#FE4638"/></g></g><defs><clipPath id="pi-areeba-clip-0"><path fill="#fff" d="M0 0h38v24H0z"/></clipPath><clipPath id="pi-areeba-clip-1"><rect x="1" y="1" width="36" height="22" rx="2" fill="#fff"/></clipPath></defs></svg>