<svg xmlns="http://www.w3.org/2000/svg" role="img" viewBox="0 0 38 24" width="38" height="24" aria-labelledby="pi-artea"><title id="pi-artea">Artea</title> <g> <path d="M35,0L3,0C1.3,0 0,1.3 0,3L0,21C0,22.7 1.4,24 3,24L35,24C36.7,24 38,22.7 38,21L38,3C38,1.3 36.6,0 35,0Z" style="fill-opacity:0.07;fill-rule:nonzero;"/><path d="M35,1C36.1,1 37,1.9 37,3L37,21C37,22.1 36.1,23 35,23L3,23C1.9,23 1,22.1 1,21L1,3C1,1.9 1.9,1 3,1L35,1Z" style="fill:white;fill-rule:nonzero;"/></g><g transform="matrix(0.13373,0,0,0.13373,2.93558,8.35385)"><path d="M113.69,53.73L108.55,40.34L83.73,40.34L78.59,53.73L70.2,53.73L92.09,0L100.2,0L122.11,53.73L113.69,53.73ZM86.07,34.24L106.21,34.24L96.14,7.99L86.07,34.24Z" style="fill:rgb(7,24,68);fill-rule:nonzero;"/> <path d="M125.16,53.73L125.16,13.63L132.22,13.63L132.22,18.6L132.62,18.6C134.39,15.55 137.03,13.63 142.25,13.63L144.53,13.63L144.53,19.73L142.25,19.73C134.87,19.73 132.22,23.34 132.22,32.56L132.22,53.73L125.16,53.73Z" style="fill:rgb(7,24,68);fill-rule:nonzero;"/> <path d="M148.39,2.45L155.45,2.45L155.45,13.64L165.46,13.64L165.46,19.74L155.45,19.74L155.45,43.72C155.45,46.93 156.49,47.65 159.62,47.65L165.46,47.65L165.46,53.75L158.02,53.75C151.12,53.75 148.39,51.42 148.39,44.13L148.39,2.45Z" style="fill:rgb(7,24,68);fill-rule:nonzero;"/> <path d="M185.41,12.83C175.06,12.83 166.31,20.13 166.31,33.68C166.31,47.23 174.66,54.53 185.25,54.53C195.84,54.53 201.54,48.11 202.99,41.7L195.93,41.7C194.97,44.75 192.32,48.52 185.74,48.52C179.16,48.52 173.94,43.95 173.3,35.69L203.56,35.69C204.6,21.98 196.9,12.84 185.42,12.84M185.25,18.69C191.94,18.69 196.37,23.62 196.63,30.01L173.44,30.01C174.59,22.11 179.49,18.69 185.26,18.69" style="fill:rgb(7,24,68);fill-rule:nonzero;"/> <path d="M224.61,12.83C217.39,12.83 209.36,15.72 207.6,25.02L214.74,25.02C215.94,20.61 219.8,18.52 224.37,18.52C230.07,18.52 233.28,21.57 233.28,27.1L233.28,28.94C218.11,29.98 205.99,32.47 205.99,42.89C205.99,50.59 212.81,54.52 219.71,54.52C225.33,54.52 230.3,51.87 232.79,47.94L233.19,47.94L233.19,53.71L240.25,53.71L240.25,28.45C240.25,17.62 234.15,12.81 224.6,12.81M221.72,49.24C217.39,49.24 213.37,47 213.37,42.74C213.37,36.48 222.12,34.64 233.27,34L233.27,37.37C233.27,44.43 228.05,49.24 221.71,49.24" style="fill:rgb(7,24,68);fill-rule:nonzero;"/> <path d="M65.07,18.83L55.82,3.26C55.52,2.76 54.98,2.45 54.4,2.45L14.15,2.45C13.64,2.45 13.32,3.01 13.58,3.45L22.33,18.18C22.59,18.62 22.27,19.18 21.76,19.18L8.02,19.18C7.35,19.18 6.74,19.59 6.49,20.21L0.12,35.88C-0.07,36.36 -0.03,36.9 0.23,37.34L9.48,52.91C9.78,53.41 10.32,53.72 10.9,53.72L33.61,53.72C34.28,53.72 34.89,53.31 35.14,52.69L40.74,38.89C40.95,38.38 41.64,38.33 41.92,38.8L50.58,53.39C50.86,53.86 51.55,53.81 51.76,53.3L65.18,20.27C65.37,19.79 65.33,19.25 65.07,18.81M45.93,21.94L40.98,34.12C40.73,34.74 40.12,35.15 39.45,35.15L19.99,35.15C19.52,35.15 19.2,34.68 19.38,34.24L24.33,22.06C24.58,21.44 25.19,21.03 25.86,21.03L45.32,21.03C45.79,21.03 46.11,21.5 45.93,21.94" style="fill:rgb(7,24,68);fill-rule:nonzero;"/></g></svg>
