<svg xmlns="http://www.w3.org/2000/svg" viewBox="0 0 38 24" role="img" width="38" height="24" aria-labelledby="pi-arvato"><title id="pi-arvato">Arvato</title><path d="M35 0H3a3 3 0 0 0-3 3v18a3 3 0 0 0 3 3h32a3 3 0 0 0 3-3V3a3 3 0 0 0-3-3z" opacity=".07"/><path d="M35 1a2 2 0 0 1 2 2v18a2 2 0 0 1-2 2H3a2 2 0 0 1-2-2V3a2 2 0 0 1 2-2h32" fill="#fff"/><g><path d="M27.07 8l-1.46.46v1.38h-.85v1.23h.85v3.16a1.44 1.44 0 0 0 1.59 1.58h1v-1.23h-.41a.66.66 0 0 1-.72-.81v-2.7h1.34V9.84h-1.34V8zm4.79 1.65A2.92 2.92 0 0 0 29 12.86 2.87 2.87 0 0 0 31.85 16a2.91 2.91 0 0 0 2.89-3.18 2.86 2.86 0 0 0-2.88-3.16zm-26 .13C5 9.78 4 9.84 4 9.84V11s1.1-.06 1.62-.06a.9.9 0 0 1 1.11.9V12h-1c-1.47.05-2.4.76-2.4 2a1.85 1.85 0 0 0 1.87 2 2.33 2.33 0 0 0 1.66-.65l.12.53h1.29a6.22 6.22 0 0 1-.11-1.58v-2.39c0-1.57-.86-2.13-2.28-2.13zm15.68 0c-.88 0-1.91.06-1.91.06V11s1.1-.06 1.62-.06a.9.9 0 0 1 1.11.9V12h-1c-1.47.05-2.4.76-2.4 2a1.85 1.85 0 0 0 1.88 2 2.33 2.33 0 0 0 1.66-.65l.12.53H24a6.36 6.36 0 0 1-.1-1.58v-2.39c0-1.57-.86-2.13-2.28-2.13zm-12.13.06v6h1.47v-4.19a1.49 1.49 0 0 1 1.12-.39 1.31 1.31 0 0 1 .41.06V9.84a2 2 0 0 0-1.58.63l-.15-.63H9.41zm3.55 0l2.34 6h1.11l2.39-6h-1.5l-1.38 3.88-1.35-3.88H13zm18.88 1c.9 0 1.41.83 1.41 2s-.46 2-1.37 2-1.41-.85-1.41-2 .44-2 1.37-2zM6.7 13v1.36a1.52 1.52 0 0 1-1 .38.84.84 0 0 1-.93-.87c0-.51.35-.82 1.14-.84L6.7 13zm15.69 0v1.36a1.54 1.54 0 0 1-1.05.38.84.84 0 0 1-.93-.87c0-.51.35-.82 1.14-.84h.84z" fill="#0979b8"/></g></svg>
