<svg width="38" height="24" role="img" viewBox="0 0 38 24" aria-labelledby="pi-ashleyplcc" xmlns="http://www.w3.org/2000/svg"><title id="pi-ashleyplcc">Ashley Credit Card</title><path d="M35 0H3a2.946 2.946 0 00-3 3v18a3.01 3.01 0 003 3h32a2.95 2.95 0 003-3V3a3.01 3.01 0 00-3-3" opacity=".07"/><path d="M3.08 1.007h31.84a2.13 2.13 0 012.135 2.135v17.717a2.13 2.13 0 01-2.135 2.135H3.08a2.13 2.13 0 01-2.135-2.135V3.142A2.13 2.13 0 013.08 1.007z" fill="#312d2e"/><g transform="translate(-30.606 80.21)" clip-path="url(#pi-a)"><path d="M33.831-79.206l9.575 21.99-5.78.017-6.059-14.062-.02-5.705c.106-2.045 1.707-2.245 2.284-2.24zM60.44-75.31l-.027-3.888-1.761-.004zm-15.06-3.885c-.4 1.482-.38 1.763-.386 1.883a5.27 5.27 0 00.39 1.73c.488 1.036 1.141 1.516 1.798 2.037.773.597 1.592.983 2.477 1.29l3.997 1.27 3.035 1.023c.853.322 1.854.595 2.567 1.116.86.508 1.42 1.155 2.041 1.813.489.535.832 1.151 1.1 1.808.224.594.316 1.164.388 1.73.09.996.068 1.716-.04 2.228a15.139 15.139 0 01-.435 1.842c-.21.573-.453 1.099-.716 1.596-.305.503-.327.506-.434.615l-1.839-.001c.115-.333.056-.079.191-.637.093-.378.177-.763.174-1.221-.008-.385.084-.491-.082-1.324-.075-.48-.176-.958-.467-1.381a4.017 4.017 0 00-.976-1.139c-.453-.396-.847-.773-1.703-1.195-.68-.318-1.369-.633-2.235-.909-1.562-.438-2.985-.872-4.476-1.308-1.142-.329-2.078-.782-3.064-1.205a8.834 8.834 0 01-2.42-1.94c-.533-.712-1.021-1.45-1.3-2.323-.197-.643-.317-1.372-.4-2.146l.006-.753c.03-.398-.028-.592.164-1.376.07-.286.148-.593.45-1.422.131-.292.23-.557.523-.976.21-.32.253-.421.516-.728l-.004.002z"/></g><path class="st0" d="M21.498 6.735l.221.497h-.444zm-.05-.13l-.445.982h.113l.116-.257h.53l.114.257h.119l-.445-.982zm.997.313c.007.018.02.035.04.05a.3.3 0 00.08.042.945.945 0 00.133.036.575.575 0 01.24.1.218.218 0 01.078.178.262.262 0 01-.198.258.583.583 0 01-.348-.018.605.605 0 01-.184-.117l.068-.081a.574.574 0 00.155.104.445.445 0 00.18.034.25.25 0 00.158-.047c.04-.03.059-.07.059-.12a.165.165 0 00-.011-.063.125.125 0 00-.04-.05.276.276 0 00-.077-.04 1.021 1.021 0 00-.126-.035 1 1 0 01-.146-.042.364.364 0 01-.103-.057.21.21 0 01-.06-.078.262.262 0 01-.02-.106.241.241 0 01.09-.192.322.322 0 01.103-.055.536.536 0 01.316.01.553.553 0 01.155.088l-.064.085a.421.421 0 00-.282-.106.268.268 0 00-.086.013.214.214 0 00-.065.033.138.138 0 00-.056.113c0 .023.003.044.01.063m1.65.669V7.15h-.563v.438h-.11v-.974h.11v.433h.563v-.433h.11v.974zm1.226 0h-.66v-.974h.11v.873h.55zm.384-.974h.705v.1h-.595v.333h.532v.1h-.532v.34h.602v.1h-.712zm1.148 0l.328.487.33-.487h.129l-.405.587v.387h-.11v-.385l-.406-.59zm1.548.309a.134.134 0 00.042.052.29.29 0 00.083.043c.035.013.08.025.136.037a.578.578 0 01.247.103c.053.044.08.104.08.182a.27.27 0 01-.204.265.6.6 0 01-.357-.02.621.621 0 01-.19-.12l.07-.082a.59.59 0 00.16.107.458.458 0 00.184.035.258.258 0 00.163-.047.15.15 0 00.06-.125.17.17 0 00-.01-.064.129.129 0 00-.041-.05.287.287 0 00-.08-.043 1.037 1.037 0 00-.13-.036 1.027 1.027 0 01-.15-.043.37.37 0 01-.105-.058.215.215 0 01-.062-.08.27.27 0 01-.02-.11.248.248 0 01.093-.197.331.331 0 01.105-.057.55.55 0 01.324.01c.055.02.108.05.16.09l-.066.089a.433.433 0 00-.29-.11.276.276 0 00-.088.014.22.22 0 00-.067.034.142.142 0 00-.058.116c0 .024.004.046.011.065m1.247.688v-.897h-.336v-.105h.786v.105h-.337v.897zm.963-.9v.343h.546v.103h-.547v.35h.619v.104h-.732V6.608h.725v.103zm1.35.907h-.095l-.358-1.01h.123l.286.836.275-.838h.094l.274.838.287-.835h.119l-.358 1.01h-.096l-.275-.814zm1.689-.883l-.23.51h.457zm.51.876h-.12l-.118-.265h-.546l-.118.265h-.116l.456-1.01h.106zm.968-.845a.303.303 0 00-.19-.053h-.309v.408h.309a.355.355 0 00.103-.014.255.255 0 00.082-.04.188.188 0 00.073-.154.176.176 0 00-.068-.147m.078.845l-.29-.39h-.287v.39h-.113V6.608h.43c.056 0 .106.007.15.022a.34.34 0 01.114.06.27.27 0 01.1.217c0 .042-.007.08-.02.113a.258.258 0 01-.057.086.318.318 0 01-.087.06.401.401 0 01-.109.035l.308.41zm.449-.897h.337v.897h.113v-.897h.337v-.105h-.787z" fill="#fff"/></svg>
