<svg viewBox="0 0 38 24" xmlns="http://www.w3.org/2000/svg" role="img" xmlns:xlink="http://www.w3.org/1999/xlink" width="38" height="24" aria-labelledby="pi-ask" ><title id="pi-ask">ASK</title><defs><path id="pi-ask-a" d="M3 0C1.3 0 0 1.3 0 3v18c0 1.7 1.4 3 3 3h32c1.7 0 3-1.3 3-3V3c0-1.7-1.4-3-3-3H3z"/><path id="pi-ask-b" d="M35 1c1.1 0 2 .9 2 2v18c0 1.1-.9 2-2 2H3c-1.1 0-2-.9-2-2V3c0-1.1.9-2 2-2h32"/><path id="pi-ask-c" d="M6.37 15.74l-.9 2.81H3.05L7.6 5.45h2.33l4.57 13.1h-2.48l-.91-2.81H6.37zm2.38-7.31l-1.62 5.01h3.24L8.75 8.43zm7.99 9.93c-.75-.29-1.35-.65-1.81-1.1.08-.23.72-2.06.8-2.28.44.41.96.74 1.56.99.61.25 1.21.37 1.81.37.67 0 1.17-.12 1.49-.37.32-.27.48-.61.48-1.03 0-.31-.1-.57-.29-.77-.19-.21-.43-.38-.73-.5-.29-.13-.69-.27-1.2-.42-.77-.23-1.41-.47-1.91-.71-.49-.23-.92-.61-1.28-1.14-.35-.52-.53-1.22-.53-2.09 0-.77.16-1.45.49-2.06.32-.63.8-1.12 1.44-1.48.65-.36 1.44-.54 2.38-.54.65 0 1.29.1 1.91.3.62.2 1.16.48 1.63.86-.07.23-.65 2.07-.73 2.3-.94-.69-1.88-1.03-2.83-1.03-.66 0-1.15.14-1.47.41-.31.28-.47.64-.47 1.09 0 .44.18.78.54 1.01.37.21.93.42 1.68.63.78.24 1.41.48 1.91.71.5.24.92.61 1.27 1.13.36.51.54 1.2.54 2.07 0 .75-.17 1.44-.5 2.06-.32.61-.8 1.1-1.46 1.46-.65.36-1.44.54-2.37.54-.81 0-1.59-.13-2.35-.41zm10.82-3.12v3.31h-2.35V5.45h2.35v6.12l4.52-6.12h2.63l-4.24 5.84 4.48 7.26H32.2l-3.27-5.15-1.37 1.84z"/></defs><use fill-opacity=".07" xlink:href="#pi-ask-a"/><use fill-opacity=".07" stroke="#000" stroke-opacity="0" xlink:href="#pi-ask-a"/><use fill="#fff" xlink:href="#pi-ask-b"/><use fill-opacity="0" stroke="#000" stroke-opacity="0" xlink:href="#pi-ask-b"/><use fill="#05aff2" xlink:href="#pi-ask-c"/><use fill-opacity="0" stroke="#000" stroke-opacity="0" xlink:href="#pi-ask-c"/></svg> 
