<svg xmlns="http://www.w3.org/2000/svg" role="img" viewBox="0 0 38 24" width="38" height="24" aria-labelledby="pi-astrapay"><title id="pi-astrapay">AstraPay</title><g clip-path="url(#pi-astrapay-a)"><path fill="#000" d="M35 0H3C1.3 0 0 1.3 0 3v18c0 1.7 1.4 3 3 3h32c1.7 0 3-1.3 3-3V3c0-1.7-1.4-3-3-3Z" opacity=".07"/><path fill="#fff" d="M35 1c1.1 0 2 .9 2 2v18c0 1.1-.9 2-2 2H3c-1.1 0-2-.9-2-2V3c0-1.1.9-2 2-2h32Z"/><path fill="#0045E5" fill-rule="evenodd" d="m25.013 10.35-3.367-5.832c-1.169-2.024-4.09-2.024-5.258 0L13.02 10.35c-1.168 2.024.293 4.554 2.63 4.554h6.734c2.337 0 3.797-2.53 2.629-4.554Z" clip-rule="evenodd"/><path fill="#EEE809" fill-rule="evenodd" d="M21.532 12.08c-.652.446-1.15-.049-1.584-.5-.486-.508-1.357-.508-1.845 0-.405.423-.83.947-1.487.655-.267-.119-.542-.4-.511-.829.012-.174.064-.341.154-.498l1.763-3.053c.21-.363.585-.58 1.004-.58.419 0 .794.217 1.004.58l1.762 3.052c.233.417.142.9-.26 1.174Zm1.005-1.602-1.763-3.053a1.998 1.998 0 0 0-1.748-1.01c-1.887 0-2.736 2.721-3.511 4.063-.156.269-.246.56-.268.867-.071 1.01.775 1.835 1.762 1.835.485 0 .938-.194 1.276-.547.195-.203.425-.58.74-.58.295 0 .496.323.678.514 1.389 1.448 3.835-.348 2.834-2.089Z" clip-rule="evenodd"/><path fill="#0045E5" fill-rule="evenodd" d="M21.729 20.087v-.984h.423c.393 0 .689-.09.887-.269.198-.179.297-.417.297-.715s-.099-.534-.297-.709c-.256-.225-.698-.299-1.3-.242-.165.015-.523.038-.523.266v2.453c0 .305.341.264.513.2Zm.39-1.398h-.395V17.6c.115-.019.263-.033.41-.033.443 0 .689.171.689.552s-.267.57-.704.57Zm-11.41.685h1.16l.18.547a.375.375 0 0 0 .095.168c.12.106.365.05.462-.06-.286-.9-.578-1.8-.918-2.68-.05-.128-.211-.172-.395-.172a.802.802 0 0 0-.351.08c-.318.811-.634 1.627-.89 2.46a.573.573 0 0 0-.052.213c0 .236.315.24.476.171l.233-.727Zm.58-1.755h.023c.14.452.3.897.447 1.346h-.936c.152-.456.338-1.002.466-1.346Z" clip-rule="evenodd"/><path fill="#0045E5" d="M14.527 19.982c.281-.214.33-.687.066-.936-.216-.204-.53-.257-.808-.328-.21-.051-.286-.13-.286-.257 0-.165.163-.262.428-.262.26 0 .505.107.619.176a.249.249 0 0 0 .119-.218c0-.102-.08-.195-.217-.255-.354-.157-.9-.156-1.212.09-.255.202-.319.636-.074.873.207.202.529.247.799.319.203.05.309.141.309.3 0 .183-.157.284-.442.284-.304 0-.527-.114-.704-.228a.276.276 0 0 0-.098.1.245.245 0 0 0 .027.29c.082.096.233.167.442.204.332.061.753.06 1.032-.152Zm1.497-.222a.82.82 0 0 0 .328-.082c.114.131.115.305-.04.404-.257.166-.72.096-.951-.078-.141-.106-.212-.281-.212-.526v-2.22c.128-.035.317-.079.43.014.043.035.065.094.065.176v.47h.737a.38.38 0 0 1 .052.191c0 .136-.059.204-.176.204h-.613v1.132c0 .229.14.314.38.314Zm1.294.327v-1.735c.263-.148.591-.173.884-.115a.374.374 0 0 0 .062-.194c0-.16-.14-.238-.419-.238-.325 0-1.022.082-1.022.532v1.56c0 .253.315.266.495.19Z"/><path fill="#0045E5" fill-rule="evenodd" d="M20.184 17.997c.174.129.261.33.261.607v1.107c0 .146-.07.212-.185.281-.165.095-.427.176-.77.176-.308 0-.548-.06-.72-.18-.173-.122-.26-.299-.26-.533 0-.21.067-.37.202-.48.135-.112.33-.18.583-.205l.66-.067c0-.15.002-.312-.135-.409a.65.65 0 0 0-.378-.095c-.254 0-.496.083-.68.171-.1-.079-.16-.235-.074-.347.07-.09.245-.154.43-.187.351-.063.77-.057 1.066.162Zm-.694 1.781c.22 0 .396-.053.466-.105v-.604l-.518.053c-.292.032-.438.12-.438.323 0 .21.153.333.49.333Zm5.063-1.973c.589 0 .965.247.965.799v1.107c0 .256-.301.35-.504.405-.535.143-1.431.056-1.431-.661 0-.418.276-.634.784-.685l.661-.067c0-.15.002-.312-.136-.409-.203-.143-.518-.11-.743-.042a2.136 2.136 0 0 0-.314.119c-.131-.105-.187-.332.052-.438.177-.089.412-.128.666-.128Zm.01 1.973c.221 0 .395-.053.465-.105v-.604l-.518.053c-.292.032-.438.12-.438.323 0 .21.154.333.49.333Z" clip-rule="evenodd"/><path fill="#0045E5" d="M26.526 19.578c.12.247.215.315.323.347-.152.293-.454.64-.656.818a.296.296 0 0 0 .309.257c.114 0 .235-.073.364-.219.202-.23.454-.62.696-1.193.267-.628.471-1.312.471-1.56 0-.237-.304-.23-.461-.152-.128.571-.342 1.296-.533 1.702h-.019c-.221-.533-.4-1.018-.57-1.53a.362.362 0 0 0-.11-.174c-.13-.099-.339-.046-.437.074.216.722.464 1.32.623 1.63Z"/></g><defs><clipPath id="pi-astrapay-a"><path fill="#fff" d="M0 0h38v24H0z"/></clipPath></defs></svg>
