<svg xmlns="http://www.w3.org/2000/svg" role="img" viewBox="0 0 38 24" width="38" height="24" aria-labelledby="pi-atmbersama"><title id="pi-atmbersama">ATM Bersama</title><g clip-path="url(#pi-atmbersama-a)"><path opacity=".07" d="M35 0H3C1.3 0 0 1.3 0 3v18c0 1.7 1.4 3 3 3h32c1.7 0 3-1.3 3-3V3c0-1.7-1.4-3-3-3Z" fill="#000"/><path d="M35 1c1.1 0 2 .9 2 2v18c0 1.1-.9 2-2 2H3c-1.1 0-2-.9-2-2V3c0-1.1.9-2 2-2h32Z" fill="#fff"/><path d="M9.81 14.837c.112 0 .224.021.329.061.299.118.384.459.179.729-.138.185-.338.252-.557.281-.222.03-.446.024-.669.018-.108-.002-.172.047-.208.135a2.736 2.736 0 0 1-.029.068c-.048.112-.101.233-.062.325.023.054.116.044.21.033a.847.847 0 0 1 .129-.008c.059.004.118.004.177.004.066 0 .132 0 .198.006.363.029.581.224.599.531.017.284-.195.528-.525.602l-.031.008c-.037.01-.076.019-.114.019a36.655 36.655 0 0 1-.669 0v.01h-.63c-.079 0-.102-.02-.08-.1.229-.846.456-1.689.683-2.535.033-.123.109-.191.239-.191.277 0 .554 0 .831.004Z" fill="#397BBE"/><path fill-rule="evenodd" clip-rule="evenodd" d="M6.485 3.463h25.029a1.64 1.64 0 0 1 1.64 1.639v13.794a1.64 1.64 0 0 1-1.641 1.641H6.485a1.641 1.641 0 0 1-1.64-1.641V5.102a1.64 1.64 0 0 1 1.64-1.639ZM25.63 6.551c-.093-.778-.818-.953-.818-.953-.67-.214-1.221.256-1.221.256l-3.732 3.543V7.813h.362c.498.013.887-.416.887-.416l.541-.51h-2.77v4.606l5.502-4.94s.242-.202.337.107l.039 4.604 4.954-4.645s.267-.214.348.054l.048 6.298c.873-.199.919-1.022.919-1.022V6.646a1.174 1.174 0 0 0-.576-.926c-.791-.537-1.557.335-1.557.335l-3.248 3.073-.015-2.577Zm-1.745 6.27c.859.455 1.438-.188 1.438-.188l3.408-3.209v2.551c.118.743.655.95.936 1.011l-.021-5.722-4.995 4.67s-.294.148-.349-.188l.016-4.577-5.438 4.94s-.324.282-.417-.081L18.449 6.9h-3.465c.143.857.968.899.968.899l1.597.014v4.243c.067.672.551.914.551.914.737.524 1.65-.242 1.65-.242l3.558-3.45.041 2.523c.024.778.536 1.02.536 1.02ZM21.747 5.54h-5.853c-.698.137-.875.631-.918.917h7.109l.122-.295c.176-.55-.281-.604-.281-.604l-.179-.018ZM7.448 10.909l-.305.43c-.252.564-.078.952.063 1.144l6.163-5.781s.323-.267.394.109l.033 6.161c.933-.205.917-1.079.917-1.079V6.542c-.035-.591-.626-.877-.626-.877-.59-.34-1.2.108-1.2.108l-5.439 5.136Zm.081 1.863c.799.519 1.492-.127 1.492-.127l3.401-3.238v2.559c.123.689.628.92.931 1V7.348l-5.824 5.424Zm3.108 5.112c.512-.525.386-1.281-.268-1.607l-.159-.081.058-.015c.166-.042.31-.078.443-.143a.98.98 0 0 0 .373-1.467c-.184-.246-.455-.353-.747-.406-.466-.082-.937-.072-1.405-.039-.518.037-.847.332-.986.844l-.414 1.53c-.158.585-.315 1.17-.475 1.755-.033.115.002.129.105.127.635-.004 1.269-.002 1.904 0h.002c.264.002.528-.026.786-.086.297-.07.567-.191.783-.412Zm1.641-1.001c-.024.096-.01.125.092.123.206-.005.41-.003.618-.002l.189.001v.002h.201c.201 0 .403.001.604-.002.211-.001.287-.066.337-.271l.006-.026c.01-.04.02-.077.027-.119.13-.762-.256-1.41-1.09-1.504-1.199-.131-2.274.987-2.088 2.178.077.5.327.875.816 1.039a1.981 1.981 0 0 0 1.76-.217c.071-.044.074-.086.025-.148a2.757 2.757 0 0 1-.208-.281c-.063-.098-.128-.102-.222-.043-.166.104-.35.152-.546.166-.428.031-.765-.176-.854-.533a1.33 1.33 0 0 1 .025-.689c.135-.494.525-.825 1.004-.848.421-.023.677.239.631.635-.009.078-.034.109-.116.107-.164-.003-.329-.003-.493-.002h-.164c-.44 0-.441.002-.551.424l-.003.01Zm2.696 1.337c.128-.558.273-1.109.453-1.652a.795.795 0 0 1 .486-.518 2.09 2.09 0 0 1 .652-.137c.114-.006.171-.056.197-.16l.023-.092c.029-.112.057-.226.084-.338.036-.15-.001-.199-.156-.197-.37.004-.73.05-1.056.316l.023-.095.042-.167c.014-.06-.003-.082-.065-.08-.143.002-.286.002-.429 0-.126-.002-.201.053-.233.174l-.085.315c-.242.9-.484 1.8-.728 2.695-.025.094.013.096.082.096l.115-.002c.128-.003.255-.005.381.004.13.01.184-.031.214-.162Zm3.919-2.308c.105.078.163.067.232-.035a1.43 1.43 0 0 1 .148-.174l.036-.039c.104-.123.1-.193-.036-.283-.314-.211-.666-.297-1.057-.309-.467.019-.905.14-1.143.607-.221.434-.178.887.305 1.166.121.072.25.13.378.188.067.03.134.06.2.093.081.037.158.082.23.135.172.134.153.363-.034.48a.533.533 0 0 1-.281.072c-.274 0-.528-.07-.767-.205a.553.553 0 0 1-.105-.085c-.06-.057-.12-.113-.188-.093-.074.022-.134.095-.194.168-.024.03-.049.06-.074.086-.145.146-.134.242.041.365.242.162.515.27.802.32.454.082.89.048 1.283-.229.566-.397.544-1.168-.045-1.518-.08-.047-.162-.087-.245-.127l-.077-.037-.13-.062c-.098-.046-.196-.091-.287-.151-.108-.075-.176-.164-.15-.305.026-.139.117-.217.248-.25a.748.748 0 0 1 .267-.02c.233.019.456.103.643.242Zm2.472 2.471c.188-.006.376-.006.564 0 .083.004.118-.024.138-.105.038-.15.08-.3.12-.448.048-.174.096-.348.139-.523.027-.11.058-.22.088-.329.076-.269.152-.537.173-.819.031-.394-.147-.721-.512-.871-.545-.225-1.105-.166-1.655-.02-.187.05-.259.213-.225.402.006.045.014.089.024.133.018.085.027.127.051.14.025.015.065.002.147-.021.336-.095.675-.144 1.02-.064.259.059.387.229.35.475a4.489 4.489 0 0 1-.254.982.911.911 0 0 1-1.01.529c-.166-.039-.285-.131-.33-.297-.047-.166.026-.295.148-.402a1.22 1.22 0 0 1 .659-.312c.223-.027.341-.129.397-.332.003-.015.01-.027.017-.041l.005-.01c.043-.076.022-.111-.069-.115-.615-.032-1.17.119-1.643.521-.341.287-.446.725-.247 1.043a.98.98 0 0 0 .88.479 1.55 1.55 0 0 0 1.002-.344c-.01.035-.017.068-.024.099a1.169 1.169 0 0 1-.038.141c-.041.097.001.111.085.109Zm5.085-.006h.819l.55-2.011s.349-1.117-.753-1.248c0 0-.71-.176-1.327.631 0 0-.216-.752-1.033-.631 0 0-.376-.041-.818.402l.094-.35-.592-.014s-.229 0-.309.283l-.779 2.924h.819l.605-2.094s.214-.485.764-.43c0 0 .512.013.39.658l-.51 1.893h.819l.59-2.068a.763.763 0 0 1 .819-.482s.523.054.321.779l-.469 1.758Zm4.426-1.383c.066-.234.132-.467.165-.709.078-.574-.173-.937-.734-1.084-.389-.094-.777-.068-1.17 0-.452.08-.527.188-.446.631.02.114.052.135.161.098.314-.111.65-.143.979-.092.351.06.482.259.405.605-.056.243-.115.487-.182.729-.141.482-.639.785-1.088.664a.417.417 0 0 1-.316-.299c-.042-.16.032-.279.141-.383.18-.178.414-.292.665-.322.245-.023.346-.156.414-.355.003-.007.005-.015.011-.025.046-.084.019-.117-.078-.121-.608-.029-1.158.125-1.631.52-.326.274-.443.698-.26 1.02.193.34.503.504.889.504.366.008.723-.113 1.008-.342l-.021.083c-.018.069-.03.122-.047.175-.024.072 0 .092.073.09.197-.004.393-.004.59 0 .078.002.108-.024.127-.098.045-.178.093-.355.14-.531.044-.16.087-.32.128-.479.024-.093.05-.186.077-.28Z" fill="#397BBE"/></g><defs><clipPath id="pi-atmbersama-a"><path fill="#fff" d="M0 0h38v24H0z"/></clipPath></defs></svg>