<svg xmlns="http://www.w3.org/2000/svg" role="img" viewBox="0 0 38 24" width="38" height="24" aria-labelledby="pi-atobaraidotcom"><title id="pi-atobaraidotcom">Atobaraidotcom</title><path fill="#000" opacity=".07" d="M35 0H3C1.3 0 0 1.3 0 3v18c0 1.7 1.4 3 3 3h32c1.7 0 3-1.3 3-3V3c0-1.7-1.4-3-3-3z"/><path fill="#fff" d="M35 1c1.1 0 2 .9 2 2v18c0 1.1-.9 2-2 2H3c-1.1 0-2-.9-2-2V3c0-1.1.9-2 2-2h32"/><path fill="#099f3d" opacity="1" d="M7.425 1.98L4.801 4.85l1.335.765 2.512-2.983-1.223-.651zM7.99 3.923s-3.419 4.694-3.412 4.7a56.905 56.905 0 011.427.124c-.006-.007.427-.5.427-.5S6.388 12.033 6.395 12c-.007.034.253.323.26.288-.007.035 1.204.076 1.21.041-.006.035.297-.377.297-.377S8.032 6.6 8.04 6.606c-.007-.007.772-1.2.772-1.2s.173-.7.18-.694a16.156 16.156 0 01-.217-.535 52.631 52.631 0 00-.785-.254zM12.42 1.877s-2.363 2.097-2.357 2.103c-.006-.006 1.824 1.43 1.83 1.436-.006-.006.26.188.266.195a6.187 6.187 0 00-.158.343s-2.477 0-2.472.006a5.21 5.21 0 00.033 1.003c.277.036 6.517-.155 6.517-.155s.228.155.234.162c-.006-.007.642-.162.648-.156a12.942 12.942 0 010-.66l-1.416-1.637s-.571.816-.571.893c0 .078-.191.35-.185.356a2.966 2.966 0 00-.343.155c-.006-.006-.73-.045-.73-.045l-.261-.304c-.006-.006 2.395-2.375 2.395-2.375l-.3-.304a31.047 31.047 0 00-.761-.31c-.006-.007-1.835 2.245-1.835 2.245s-.724-.427-.719-.421a141.79 141.79 0 00-.38-.388c-.006-.007 1.747-1.52 1.752-1.515A54.001 54.001 0 0113.264 2c-.005-.007-.844-.123-.844-.123z"/><path fill="#099f3d" opacity="1" d="M11.247 7.032s-1.944 1.75-1.938 1.756c-.006-.006-.155.85-.15.857-.005-.006.294.329.406.403.112.075.635-.037.635-.111 0-.075.262-.373.3-.41.037-.037.747.484.747.521 0 .038.448.67.41.596-.036-.074-1.793.447-1.788.416-.005.031-.416.403-.416.515 0 .112.15.745.15.782 0 .037.074.075.41.037.337-.037 1.047-.41 1.047-.446 0-.038 1.009-.298 1.046-.336.038-.037.673-.297.71-.297.038 0 .86.186.866.154-.006.032 1.04.367 1.116.404.074.037.635.373.672.373.038 0 .598.223.604.192-.006.03.892-.826.897-.857-.005.031-.23-.415-.224-.447-.006.032-1.314-.117-1.308-.149-.006.032-.79-.006-.785 0-.006-.006-.23-.49-.225-.484-.005-.006 1.864-2.128 1.864-2.091 0 .037.075-.633.08-.627-.005-.006-.305-.379-.342-.379-.037 0-3.925.112-3.92.118a579.378 579.378 0 013.44-4.022 75.578 75.578 0 00-1.122-.484c-.005-.006-3.182 4.016-3.182 4.016z"/><path fill="#fff" opacity="1" d="M11.405 8.435c.966-.195 2.08-.341 2.997-.196-.346.753-.888 1.506-1.477 2.112l-1.52-1.916z"/><path fill="#c2d700" opacity="1" d="M23.31 3.006l-.369-.655-1.08-.065-.295.425-.098 7.827-.623.196-.393.36-.065.557.295.524 1.015.098.95-.196.458-.622.205-8.449z"/><path fill="#c2d700" opacity="1" d="M19.895 3.835s4.203-.588 4.191-.546c.012-.042.39.883.379.925.011-.042.053.546.042.588.011-.042-.787.336-.799.378.012-.042-3.14 0-3.152.042.011-.042-.619-.462-.63-.42.011-.042-.031-.967-.031-.967zM19.78 7.773l4.577-1.443c.01-.043.478.467.516.467.04 0 .078.551.068.594.01-.043-.845.424-.856.467.01-.043-2.867.636-2.877.679.01-.043-1.04-.043-1.05 0"/><path fill="#c2d700" opacity="1" d="M26.615 2.375l.072 1.301v.95l-1.866 5.906-.208.352-1.036.21v.423l.373.632h.456l4.645-.562.83-.14.414-.036.29.598h1.079l.663-.387.083-.598-2.198-3.832-.456-.387-.83.352.042.668c.011-.035.84.914.84 1.125 0 .211.457 1.16.446 1.195a2.132 2.132 0 00-.166.282c.011-.035-3.97.246-3.97.246s.746-2.11.735-2.075c.011-.035.675-2.285.663-2.25l.498-1.441c.011-.035.302-1.688.29-1.653.012-.035-.196-.738-.196-.773 0-.035-.456-.316-.467-.281"/><path fill="#17a447" opacity="1" d="M11.244 15.319l.3-.807-.223-.895-5.375.09c-.597.357-1.015.716-1.389 1.343v5.33c.224.776.627 1.329 1.21 1.657l5.554.006c.28-.762-.077-1.663-.077-1.663H6.72s-.583-.358-.55-.358c-.033 0 .057-4.524.09-4.524-.033 0 .415-.269.447-.269M22.186 13.945l8.658-.09c.897.23 1.302.754 1.636 1.57l-.086 6.326c-.574.164-1.235.24-1.852.09l.043-6.493c-.063-.547-.601-.528-1.202-.528-.6 0-1.392.313-1.328.235.011.078-.086 5.978-.043 6.068.043.09.074-.073-.011.538-.086.61-1.842.346-1.799.268.044-.078.044-6.818.032-6.818.012 0-.252-.354-1.021-.437-.77-.083-1.29.436-1.296.463-.007.026-.04 6.883-.04 6.883-.809.11-1.723-.09-1.723-.09M12.81 17.911c0-2.302 1.784-4.167 3.986-4.167s3.986 1.865 3.986 4.167c0 2.303-1.784 4.168-3.986 4.168s-3.986-1.865-3.986-4.168z"/><path fill="#fff" opacity="1" d="M14.111 17.898c0-1.756 1.208-3.178 2.7-3.178 1.49 0 2.698 1.422 2.698 3.178s-1.207 3.179-2.699 3.179c-1.49 0-2.699-1.423-2.699-3.179z"/></svg>