<svg xmlns="http://www.w3.org/2000/svg" role="img" viewBox="0 0 38 24" width="38" height="24" aria-labelledby="pi-atone"><title id="pi-atone">Atone</title><path opacity=".07" d="M35 0H3C1.3 0 0 1.3 0 3v18c0 1.7 1.4 3 3 3h32c1.7 0 3-1.3 3-3V3c0-1.7-1.4-3-3-3z"/><path fill="#fff" d="M35 1c1.1 0 2 .9 2 2v18c0 1.1-.9 2-2 2H3c-1.1 0-2-.9-2-2V3c0-1.1.9-2 2-2h32"/><path d="M14.2 14.7h-.1c-.6 0-1.1-.5-1.1-1.1v-3.1h.6c.3 0 .6-.2.6-.6s-.2-.6-.6-.6H13v-.5c0-.3-.2-.6-.6-.6-.3 0-.6.2-.6.6v.6h-.6c-.3 0-.6.2-.6.6 0 .3.2.6.6.6h.6v3.1c0 1.2 1 2.2 2.2 2.2h.1c.3 0 .6-.2.6-.6s-.2-.6-.5-.6zM10.1 14.7h-.2c-.6 0-1.1-.5-1.1-1.1v-2c0-1.2-1-2.2-2.2-2.2h-.1c-.3-.1-.5.2-.5.5s.2.6.6.6h.1c.5 0 .9.3 1 .8H6.1c-1.2 0-2.2 1-2.2 2.2 0 1.2 1 2.2 2.2 2.2h.6c.6 0 1.2-.3 1.6-.7.4.5 1 .8 1.7.8h.1c.3 0 .6-.2.6-.6s-.3-.5-.6-.5zm-3.5-.2h-.5c-.6 0-1.1-.5-1.1-1.1 0-.6.5-1.1 1.1-1.1h1.7v1.1c-.1.6-.5 1.1-1.2 1.1zM18.2 9.2c-1.2 0-2.2 1-2.2 2.2v2.2c0 1.2 1 2.2 2.2 2.2 1.2 0 2.2-1 2.2-2.2v-2.2c0-1.2-1-2.2-2.2-2.2zm1.1 4.4c0 .6-.5 1.1-1.1 1.1-.6 0-1.1-.5-1.1-1.1v-2.2c0-.6.5-1.1 1.1-1.1.6 0 1.1.5 1.1 1.1v2.2zM27.7 14.7h-.1c-.6 0-1.1-.5-1.1-1.1v-2.2c0-1.2-1-2.2-2.2-2.2-1.2 0-2.2 1-2.2 2.2v3.8c0 .3.2.6.6.6.3 0 .6-.2.6-.6v-3.8c0-.6.5-1.1 1.1-1.1.6 0 1.1.5 1.1 1.1v2.2c0 1.2 1 2.2 2.2 2.2h.1c.3 0 .6-.2.6-.6s-.4-.5-.7-.5z" fill="#09D"/><path d="M32.7 14.7c-.3 0-.6.2-.6.6s.2.6.6.6c.3 0 .6-.2.6-.6s-.2-.6-.6-.6z" fill="#F00088"/><path d="M31.1 9.2c-1.2 0-2.2 1-2.2 2.2v2.2c0 1.2 1 2.2 2.2 2.2h.1c.3 0 .6-.2.6-.6s-.2-.6-.6-.6h-.1c-.6 0-1.1-.5-1.1-1.1v-.7h2.7c.3 0 .6-.2.6-.6v-.9c0-1.1-1-2.1-2.2-2.1zm1.1 2.6H30v-.4c0-.6.5-1.1 1.1-1.1.6 0 1.1.5 1.1 1.1v.4z" fill="#09D"/></svg>