<svg width="38" height="24" viewBox="0 0 38 24" fill="none" xmlns="http://www.w3.org/2000/svg" role="img" aria-labelledby="pi-atrato"><title id="pi-atrato">Atrato</title><g clip-path="url(#pi-atrato-clip0_127_5038)"><mask id="pi-atrato-mask0_127_5038" style="mask-type:luminance" maskUnits="userSpaceOnUse" x="0" y="0" width="38" height="24"><path d="M38 0H0v24h38V0z" fill="#fff"/></mask><g mask="url(#pi-atrato-mask0_127_5038)"><path opacity=".07" d="M35 0H3C1.3 0 0 1.3 0 3v18c0 1.7 1.4 3 3 3h32c1.7 0 3-1.3 3-3V3c0-1.7-1.4-3-3-3z" fill="#000"/><path d="M35 1c1.1 0 2 .9 2 2v18c0 1.1-.9 2-2 2H3c-1.1 0-2-.9-2-2V3c0-1.1.9-2 2-2h32z" fill="#fff"/><path d="M32.778 9h-3.215c-.675 0-1.222.613-1.222 1.37v3.322c0 .756.547 1.37 1.222 1.37h3.215c.675 0 1.222-.614 1.222-1.37V10.37C34 9.613 33.453 9 32.778 9z" fill="#DED0F9"/><path d="M10.651 12.88v-2.003h1.03v-.74h-1.03v-.939H9.7v.938h-.842v.741H9.7v2.152c0 .616.35.99.982.99h1.154v-.772h-.826c-.25 0-.359-.117-.359-.366zm2.877-1.886v-.857H12.6v3.882h.944v-1.637c0-.951.358-1.349 1.177-1.349.14 0 .28.008.42.024v-.968a1.158 1.158 0 00-.256-.023c-.866 0-1.224.616-1.357.928zm5.434 2.043V11.47c0-.952-.584-1.45-1.652-1.45-1.069 0-1.7.569-1.786 1.146l.866.226c.101-.344.343-.656.92-.656.499 0 .71.234.71.616v.133c-1.272.117-2.441.452-2.441 1.536 0 .686.514 1.115 1.24 1.115.655 0 1.068-.328 1.302-.694.046.343.218.577.71.577h.724v-.749h-.358c-.203 0-.235-.046-.235-.233zm-.942-.617c0 .694-.437.998-.89.998-.39 0-.584-.187-.584-.483 0-.562.678-.74 1.474-.827v.312zm3.445.46v-2.003h1.029v-.74h-1.03v-.939h-.95v.938h-.843v.741h.843v2.152c0 .616.35.99.982.99h1.154v-.772h-.826c-.25 0-.36-.117-.36-.366zm3.579-2.86c-1.139 0-1.965.841-1.965 2.058 0 1.216.834 2.058 1.965 2.058 1.13 0 1.957-.826 1.957-2.058 0-1.232-.819-2.059-1.957-2.059zm0 3.344c-.577 0-.975-.413-.975-1.27 0-.858.398-1.303.975-1.303s.966.437.966 1.302c0 .866-.397 1.271-.966 1.271zM5.839 9.198L4 14.018h1.074l.404-1.119h1.964l.395 1.12h1.087l-1.826-4.82h-1.26zm-.075 2.91l.707-1.958.692 1.959h-1.4zm25.402 1.715c-.533 0-.962-.163-1.312-.498-.348-.334-.518-.748-.518-1.265v-.029a1.84 1.84 0 01.186-.808l.696.408a1.262 1.262 0 00-.072.397v.032c0 .302.095.554.281.747.187.2.434.302.734.302s.553-.096.745-.285c.188-.19.283-.447.283-.764v-.029a1.199 1.199 0 00-.074-.402l.694-.406a1.8 1.8 0 01.19.81.18.18 0 00.005.044c-.004.508-.172.916-.514 1.249-.345.335-.778.497-1.324.497zm-.516-2.6h-.113a.287.287 0 01-.287-.288v-.253c0-.159.128-.288.287-.288h.112c.159 0 .288.13.288.288v.253a.288.288 0 01-.288.287zm1.154 0h-.112a.288.288 0 01-.288-.288v-.253c0-.159.129-.288.288-.288h.112c.159 0 .287.13.287.288v.253a.288.288 0 01-.287.287z" fill="#000"/></g></g><defs><clipPath id="pi-atrato-clip0_127_5038"><path fill="#fff" d="M0 0h38v24H0z"/></clipPath></defs></svg>