<svg xmlns="http://www.w3.org/2000/svg" role="img" viewBox="0 0 38 24" width="38" height="24" aria-labelledby="pi-aupay"><title id="pi-aupay">au PAY</title><path fill="#000" opacity=".07" d="M35 0H3C1.3 0 0 1.3 0 3v18c0 1.7 1.4 3 3 3h32c1.7 0 3-1.3 3-3V3c0-1.7-1.4-3-3-3z"/><path fill="#fff" d="M35 1c1.1 0 2 .9 2 2v18c0 1.1-.9 2-2 2H3c-1.1 0-2-.9-2-2V3c0-1.1.9-2 2-2h32"/><path fill="#eb5505" d="M19.592 11.002h-.855c-.006 0-.012.004-.016.008-.685 1.048-1.475 2.103-2.117 2.708-.221.211-.574.466-.806.466-.198 0-.308-.189-.148-.79l1.168-4.362c.003-.012-.003-.02-.015-.02-.327-.003-1.707-.039-2.176 1.706l-.433 1.609a2.988 2.988 0 0 1-.361.791c-.514.784-1.239 1.115-1.666 1.115-.263 0-.412-.113-.461-.313-.046-.195.048-.593.099-.787.029-.103.466-1.739.781-2.918l.317-1.183v-.004c0-.009-.005-.015-.015-.016-.327-.003-1.705-.039-2.174 1.701l-.524 1.947a2.152 2.152 0 0 1-.273.575c-.336.482-.93.949-1.247.949-.224 0-.313-.21-.158-.79l1.167-4.362c.003-.012-.004-.019-.014-.019h-.5c-1.839 0-3.149.296-4.123.931-1.632 1.067-2.044 3.179-2.044 3.61 0 .464.143 1.432 1.749 1.432h.057c.973-.02 1.662-.534 2.078-1.01l.037-.043c.007-.007.014-.005.016.005.167.927 1.014 1.002 1.279 1.002 1.002 0 1.738-.733 1.942-1.005.008-.007.015-.006.016.004.105.476.476 1.049 1.711 1.049 1.004 0 1.712-.527 2.137-1.011l.035-.043c.007-.008.015-.006.015.005.153.856.895 1.001 1.264 1.001.816 0 1.402-.372 2.048-1.052.775-.82 1.793-2.243 2.215-2.87.006-.01.003-.017-.009-.017M7.755 9.72l-.671 2.506a3.03 3.03 0 0 1-.39.891c-.514.784-1.197 1.115-1.666 1.115-.523 0-.538-.437-.359-1.102.708-2.646 2.294-3.261 3.072-3.426.01-.003.017.004.014.015M30.317 14.989H29.19l-.399-1.165h-2.163l-.4 1.165h-1.126l2.191-5.977h.831l2.192 5.977m-3.367-2.091h1.536l-.757-2.215-.78 2.215ZM35 9.012h-1.23l-1.468 3.007-1.469-3.007h-1.229l2.169 4.203v1.774h1.058v-1.774L35 9.012zM23.102 13.165c1.145 0 2.077-.932 2.077-2.077s-.932-2.077-2.077-2.077h-2.306v5.977h1.057v-1.824h1.249m-1.25-.959V9.977h1.156c.614 0 1.114.5 1.114 1.114s-.5 1.114-1.114 1.114h-1.156Z"/></svg>