<svg width="38" height="24" role="img" viewBox="0 0 38 24" fill="none" aria-labelledby="pi-avardapaylater" xmlns="http://www.w3.org/2000/svg"><title id="pi-avardapaylater">Avarda Pay Later</title><g clip-path="url(#pi-clip0_2625_134)"><rect x="1" y="1" width="36" height="22" rx="2" fill="#004B4B"/><path d="M13.748 9.755l-1.842 3.317a.617.617 0 01-.543.324h-.6v-3.64h-.91v3.97c0 .317.258.58.576.58h.934c.557 0 1.071-.302 1.34-.793l2.088-3.758h-1.043zm8.003 0c-.846 0-1.531.69-1.531 1.526v3.026h.91V11.28c0-.347.278-.625.621-.625h1.344l.505-.9h-1.85zm11.836 4.552h-.911v-.578l-.599.36a1.546 1.546 0 01-.798.218h-.724c-.846 0-1.532-.69-1.532-1.525V11.28c0-.835.686-1.526 1.532-1.526h2.443c.318 0 .588.265.588.581v3.97zm-3.032-3.65a.622.622 0 00-.62.624v1.5c0 .347.277.627.62.627h.724a.648.648 0 00.334-.093l1.062-.64v-2.019h-2.12zm-3.253-2.151v1.25h-2.12c-.846 0-1.531.69-1.531 1.524v1.502c0 .834.685 1.525 1.531 1.525h.725c.28 0 .556-.073.798-.218l.598-.36v.578h.911v-5.8h-.912zm0 4.168l-1.062.641a.648.648 0 01-.334.093h-.724a.623.623 0 01-.62-.627v-1.5c0-.347.277-.625.62-.625h2.12v2.018zm-7.894 1.633h-.91v-.578l-.599.36a1.546 1.546 0 01-.798.218h-.724c-.846 0-1.532-.69-1.532-1.525V11.28c0-.835.686-1.526 1.532-1.526h2.443c.317 0 .588.265.588.581v3.97zm-3.031-3.65a.622.622 0 00-.62.624v1.5c0 .347.277.627.62.627h.724a.648.648 0 00.334-.093l1.062-.64v-2.019h-2.12zm-7.335 3.65H8.13v-.578l-.599.36a1.546 1.546 0 01-.798.218H6.01c-.846 0-1.531-.69-1.531-1.525V11.28c0-.835.685-1.526 1.531-1.526h2.443c.318 0 .589.265.589.581v3.97zm-3.032-3.65a.622.622 0 00-.62.624v1.5c0 .347.277.627.62.627h.725a.648.648 0 00.333-.093l1.062-.64v-2.019H6.01z" fill="#9BF9A4"/></g><rect x=".5" y=".5" width="37" height="23" rx="2.5" stroke="#000" stroke-opacity=".07"/><defs><clipPath id="pi-clip0_2625_134"><rect x="1" y="1" width="36" height="22" rx="2" fill="#fff"/></clipPath></defs></svg>