<svg width="38" height="24" role="img" viewBox="0 0 38 24" fill="none" aria-labelledby="pi-avardapartpayment" xmlns="http://www.w3.org/2000/svg"><title id="pi-avardapartpayment">Avarda Part Payment</title><rect x="1" y="1" width="36" height="22" rx="2" fill="#004B4B"/><rect x=".5" y=".5" width="37" height="23" rx="2.5" stroke="#000" stroke-opacity=".07"/><path d="M26.56 13.955c.415.108.665.523.516.915a8.258 8.258 0 01-1.595 2.608 8.67 8.67 0 01-6.987 2.835 8.697 8.697 0 01-3.716-1.098 8.429 8.429 0 01-4.202-6.184 8.183 8.183 0 01.38-3.778 8.241 8.241 0 011.527-2.646c.275-.321.77-.32 1.073-.018.304.3.3.78.032 1.106a6.859 6.859 0 00-1.16 2.074 6.713 6.713 0 00-.312 3.095 6.774 6.774 0 001.12 2.913 6.953 6.953 0 002.318 2.13c.93.527 1.97.839 3.04.907a7.118 7.118 0 003.136-.508 7.048 7.048 0 002.583-1.816 6.773 6.773 0 001.255-2.037.839.839 0 01.993-.498z" fill="#9BF9A4"/><path fill-rule="evenodd" clip-rule="evenodd" d="M19.445 3.7a8.63 8.63 0 011.165.133 8.696 8.696 0 012.718.995 8.387 8.387 0 012.312 1.926c.304.36.577.747.817 1.154.49.84.828 1.757 1.004 2.705.146.777-.469 1.432-1.253 1.51l-.16.008H20.05l-.104-.004a1.56 1.56 0 01-1.187-.672l-.055-.086-3.05-5.257c-.428-.73-.176-1.665.633-1.95a8.66 8.66 0 012.866-.485l.292.024zm6.428 6.79H20.05l-2.962-4.985a7.086 7.086 0 012.064-.305l.322.007c.32.014.639.05.953.107l.29.06a7.29 7.29 0 011.933.738l.268.16a6.941 6.941 0 011.624 1.393l.181.224c.177.226.34.464.488.712l.145.257a6.66 6.66 0 01.617 1.631z" fill="#9BF9A4"/></svg>