<svg width="38" height="24" viewBox="0 0 38 24" fill="none" xmlns="http://www.w3.org/2000/svg" role="img" aria-labelledby="pi-azericard"><title id="pi-azericard">Azericard</title><g clip-path="url(#pi-azericard-clip)"><path d="M35 .5H3A2.5 2.5 0 00.5 3v18A2.5 2.5 0 003 23.5h32a2.5 2.5 0 002.5-2.5V3A2.5 2.5 0 0035 .5z" stroke="#000" stroke-opacity=".07"/><rect x="1" y="1" width="36" height="22" rx="2" fill="#FEFEFE"/><path d="M16.77 4h1.243l.414.036.332.07.397.143.415.213.265.195.232.196.282.302.248.355.25.427.215.373.232.408.414.711.232.39.216.374.232.39.248.427.2.338.231.409.232.39.266.462.199.338.182.32.199.337.215.373.133.231.166.285.182.302.166.284.199.337.497.853.215.373.05.143-.016.142-.067.106-.132.107-1.11.018H23.25l-.2-.054-.231-.124-.166-.16-.15-.178-.181-.32-.233-.39-.248-.427-.216-.373-.199-.337-.265-.462-.116-.196-.166-.284-.199-.338-.232-.39-.149-.267-.182-.302-.415-.71-.265-.463-.232-.39-.199-.338-.215-.373-.232-.391-.183-.32-.199-.337-.165-.285-.116-.195-.2-.338-.264-.462-.2-.337-.232-.391-.182-.32-.149-.249-.116-.195-.017-.071v-.142l.083-.16.083-.071L16.77 4z" fill="#023474"/><path d="M14.913 8.53l.15.018.148.107.166.267.249.444.116.177.033.071.232.125.182.035.912.09.448.07.348.09.331.123.332.16.248.143.299.213.215.177.249.25.215.23.166.231.166.249-.033.018-.216-.107-.315-.107-.38-.088-.399-.054h-.596l-.813.071-.514.071-.48.09-.067.07-.198.356-.233.39-.199.338-.232.39-.397.676-.166.284-.232.391-.116.16-.083.089-.15.142-.248.124-.133.036h-2.585l-.117-.107-.05-.106v-.178l.084-.178.165-.266.465-.782.165-.266.431-.746.183-.303.497-.852.398-.675.265-.462.182-.303.2-.337.182-.32.149-.249.165-.284.133-.16.083-.035z" fill="#5B9247"/><path d="M34.705 13.772h.133l.082.053.083.107.017.053v5.384l-.1.124-.066.035h-.166l-.116-.07-.05-.09-.016-.426-.182.213-.166.16-.265.142-.216.09-.282.07-.281.018-.299-.053-.281-.09-.233-.106-.215-.16-.199-.195-.116-.142-.15-.249-.132-.338-.066-.302-.017-.124v-.409l.05-.337.1-.302.116-.249.149-.213.132-.16.216-.178.232-.142.282-.106.265-.054.348-.018.249.036.282.089.315.16.198.195.1.089.066.089v-1.404l.017-1.012.116-.143.066-.035z" fill="#043673"/><path d="M3.79 15.69l.249.019.298.07.315.143.2.142.165.178.083.124.016-.409.067-.106.132-.071.166.017.1.09.033.07.016 3.323-.033.124-.1.089-.066.036h-.149l-.116-.054-.066-.124v-.409l-.083.089-.199.231-.249.16-.248.107-.266.07-.232.036-.281-.018-.382-.106-.265-.125-.182-.124-.2-.195-.148-.16-.183-.32-.1-.267-.065-.302L2 17.894v-.444l.033-.249.1-.355.149-.302.116-.16.149-.178.15-.142.248-.16.232-.107.282-.07.331-.036z" fill="#033574"/><path d="M25.406 15.709h.199l.232.035.265.089.265.124.182.142.166.178.067.089.016-.39.05-.108.083-.07.05-.018h.115l.133.07.066.107.017 2.612v.746l-.05.125-.083.07-.1.036h-.099l-.149-.106-.033-.125v-.39h-.033l-.033.07-.15.196-.165.142-.348.178-.216.07-.315.054h-.149l-.298-.053-.282-.089-.216-.107-.165-.106-.166-.16-.216-.231-.149-.284-.132-.302-.067-.32-.016-.196v-.248l.033-.32.066-.249.133-.32.132-.213.183-.213.149-.142.215-.142.266-.125.265-.07.282-.036z" fill="#043673"/><path d="M16.305 11.693l.017.053-.249.427-.398.675-.232.39-.397.676-.166.284-.232.391-.116.16-.083.089-.15.142-.248.124-.133.036h-2.585l-.117-.107-.05-.106v-.178l.084-.178.165-.266.465-.782.099-.142h.033l.083-.089v.036l.265-.143.481-.248.663-.32.68-.284.596-.213.796-.25.431-.106.298-.07z" fill="#386D28"/><path d="M12.161 15.709h.465l.248.053.265.106.216.125.215.178.133.142.166.266.083.196.082.284.05.284.017.32-.067.142-.116.089-2.652.018-.132-.018.066.302.116.249.132.195.117.125.182.124.215.107.232.053h.332l.298-.071.232-.107.233-.177.182-.214.066-.035h.116l.133.07.083.125v.16l-.133.195-.166.178-.232.178-.265.142-.315.089-.15.035-.148.018h-.15l-.298-.053-.331-.107-.315-.177-.166-.143-.166-.177-.182-.285-.116-.248-.1-.373-.033-.338v-.249l.05-.337.083-.302.132-.285.116-.177.183-.213.248-.196.266-.142.265-.089.215-.035z" fill="#043673"/><path d="M33.08 16.26l.299.017.265.071.265.142.15.125.165.177.133.25.083.23.05.338-.017.302-.066.266-.1.249-.132.195-.183.178-.232.142-.248.09-.183.035h-.364l-.266-.072-.265-.142-.215-.195-.15-.213-.116-.249-.066-.231-.017-.107v-.426l.05-.249.083-.213.133-.213.149-.178.15-.124.231-.124.232-.054.183-.018zM25.257 16.277h.414l.298.071.266.142.215.178.15.195.148.303.05.213.017.124v.355l-.067.32-.132.284-.133.178-.116.125-.215.142-.2.088-.198.054-.116.018h-.332l-.265-.072-.265-.142-.166-.142-.133-.142-.149-.267-.083-.23-.033-.16-.016-.16v-.231l.05-.302.099-.267.116-.195.133-.16.198-.16.183-.089.282-.07zM3.558 16.277h.448l.265.071.265.142.15.125.115.106.116.178.133.249.05.213.016.142v.338l-.05.284-.082.213-.15.249-.082.106-.232.178-.216.107-.265.07-.116.019h-.315l-.265-.072-.265-.142-.166-.142-.133-.142-.132-.249-.083-.213-.05-.249v-.426l.05-.266.149-.338.149-.178.116-.124.216-.142.265-.09.1-.017z" fill="#FEFEFE"/><path d="M7.023 15.78h1.425l1.127.017.116.107.034.124v.213l-.05.107-.2.213-.115.142-.249.285-.365.426-.232.267-.248.284-.116.124-.15.196-.215.23-.116.143-.265.302-.017.035.183-.017h1.939l.1.035.082.089.05.124-.033.16-.083.09-.05.035-.613.017H7.304l-.447-.017-.1-.071-.05-.072-.016-.07v-.214l.066-.142.166-.178.116-.142.216-.248.116-.143.199-.23.149-.178.182-.213.15-.178.115-.142.15-.16.149-.196.149-.16.116-.142.199-.23.066-.09-.166.018H7.006l-.1-.07-.066-.09-.016-.053v-.124l.066-.142.05-.054.083-.018z" fill="#053773"/><path d="M21.66 15.709l.281.017.315.071.299.125.182.106.083.09.016.035v.16l-.05.088-.115.107-.034.018h-.116l-.348-.16-.248-.071h-.481l-.282.071-.232.124-.149.125-.083.089-.1.124-.132.249-.066.213-.033.23v.285l.05.284.066.196.116.23.132.178.232.196.265.124.2.054.132.017h.199l.315-.053.232-.089.232-.124.1.018.149.07.05.072v.177l-.117.143-.232.142-.348.124-.282.071h-.265l-.232-.035-.348-.107-.348-.178-.15-.124-.281-.302-.15-.249-.132-.302-.066-.284-.017-.124v-.516l.05-.302.083-.266.133-.267.215-.284.116-.124.215-.16.266-.143.232-.088.248-.054.233-.017zM16.67 15.69l.265.019.2.053.099.106.016.054v.177l-.05.107-.082.089h-.2l-.132-.018h-.199l-.199.053-.166.107-.066.071h-.033l-.033.071-.116.178-.116.284-.083.284-.05.356-.016.302-.017 1.386-.1.124-.082.036h-.15l-.099-.054-.066-.089-.017-.088v-3.305l.066-.125.05-.053.1-.035.149.017.133.125.016.035.017.587.116-.285.1-.177.132-.16.182-.125.182-.07.25-.036z" fill="#043673"/><path d="M30.163 15.69h.15l.281.054.1.071.05.053.016.054v.177l-.066.143-.083.053h-.166l-.133-.018h-.232l-.215.071-.15.107-.149.16-.132.248-.1.267-.066.32-.033.248-.017.285-.016 1.403-.133.125-.05.018h-.165l-.116-.09-.034-.07v-3.412l.05-.089.083-.07.05-.018h.116l.133.07.066.107v.604l.199-.426.1-.142.165-.142.199-.107.149-.035.15-.018z" fill="#033574"/><path d="M12.294 16.242h.182l.216.035.248.089.2.142.148.142.15.249.116.302.033.178-.017.017h-2.453l.016-.16.083-.248.1-.16.116-.16.15-.16.181-.124.216-.09.15-.035.165-.017z" fill="#FEFEFE"/><path d="M18.394 15.78h.116l.1.053.099.124v3.43l-.133.124-.05.017h-.149l-.099-.07-.05-.072-.016-.089v-2.38l.016-.978.1-.124.066-.035z" fill="#043773"/><path d="M18.427 14.09l.182.036.1.053.1.125.032.088v.214l-.066.142-.182.124-.067.018h-.116l-.165-.053-.116-.125-.05-.124v-.195l.066-.143.116-.106.067-.036.1-.018z" fill="#043673"/></g><defs><clipPath id="pi-azericard-clip"><path fill="#fff" d="M0 0h38v24H0z"/></clipPath></defs></svg>