<svg xmlns="http://www.w3.org/2000/svg" role="img" viewBox="0 0 38 24" width="38" height="24" aria-labelledby="pi-babycadeaubon"><title id="pi-babycadeaubon">Babycadeaubon</title><path opacity=".07" d="M35.002.008h-32c-1.7 0-3 1.3-3 3v18c0 1.7 1.4 3 3 3h32c1.7 0 3-1.3 3-3v-18c0-1.7-1.4-3-3-3z" display="inline"/><path d="M35.002 1.008c1.1 0 2 .9 2 2v18c0 1.1-.9 2-2 2h-32c-1.1 0-2-.9-2-2v-18c0-1.1.9-2 2-2z" fill="#c1e0e4" display="inline" fill-opacity="1"/><path d="M12.68 12.576c-.106-1.46-.802-2.807-1.878-3.655.878-.71 1.306-1.82 1.152-3.018-.236-1.84-1.308-3.65-3.587-3.53-.506.025-.751.169-.739.615-.016 1.11-.017 14.065 0 14.103.073.417.47.665.825.759.273.072.55.107.827.107 1.025 0 2.03-.48 2.664-1.32.867-1.148.835-2.698.736-4.06zm-1.862-.262c.117 1.14.024 2.746-.625 3.514a1.24 1.24 0 01-.714.437l-.093-6.308c.775.434 1.326 1.327 1.432 2.356zM9.353 7.728L9.302 4.25c.614.421.78 1.356.825 1.774.077.72-.216 1.35-.774 1.703zm8.94-4.537a1.839 1.839 0 00-1.677-.819c-1.493.099-2.255 1.785-2.47 3.33-.04.28.077.547.32.734.302.234.743.305 1.073.171a.728.728 0 00.46-.6c.063-.461.176-1.073.506-1.55.145-.21.291-.406.374-.367.151.071.047 3.539.044 4.108-1.911.478-3.252 2.278-3.355 4.53-.059 1.282-.049 2.742.809 3.843a3.577 3.577 0 002.82 1.386c.3 0 .602-.037.901-.117.308-.09.55-.27.55-.698l.017-5.847-.03-5.791s.04-1.757-.342-2.312zm-1.49 13.13a1.071 1.071 0 01-.76-.355c-.75-.806-.696-2.752-.563-3.67.13-.902.685-1.753 1.415-2.206l-.093 6.232zm8.274-3.728c-.15-2.081-1.507-3.863-3.32-4.387l-.036-2.687-.036-2.67c-.008-.484-.817-.482-.932-.48-.486.006-.73.127-.727.356.034 2.298-.021 7.02-.021 7.02s.004 7.312.021 7.35c.073.414.47.661.825.755.273.072.55.107.827.107 1.025 0 2.03-.48 2.665-1.316.866-1.144.834-2.69.735-4.048zm-2.486 3.242a1.242 1.242 0 01-.714.435l-.093-6.288c.775.432 1.326 1.323 1.432 2.35.118 1.137.025 2.737-.625 3.503zm7.647-.422V3.317c-.004-.317-.194-.604-.52-.784-.346-.192-.898-.215-1.167-.054-.202.12-.31.328-.306.587l.107 7.458c-.784-.428-1.342-1.32-1.449-2.35-.158-1.522-.129-3.5-.048-4.843.032-.554-.5-.93-1.013-.96-.486-.032-.817.246-.843.682-.057.951-.03 2.334-.014 3.161.003.16.003.321.005.484.006.858.012 1.747.295 2.565.512 1.478 1.69 2.624 3.093 3.024l.108 3.145c.007.502.027.886-.141.815-.07-.03-.089-.05-.177-.156-.378-.448-.504-1.078-.588-1.685-.076-.545-.653-.81-1.143-.743-.473.066-.747.415-.684.871.205 1.469.955 3.131 2.448 3.395.11.02.22.028.328.028.563 0 1.103-.25 1.438-.682.354-.38.27-1.862.27-1.862z" display="inline" fill="#00738a"/><path d="M5.72 18.712c.358 0 .677.127.911.342a.19.19 0 01.02.259.188.188 0 01-.262.02.994.994 0 00-.668-.263c-.573 0-1.02.47-1.02 1.05s.446 1.047 1.02 1.047c.262 0 .49-.104.668-.263a.188.188 0 01.263.02.19.19 0 01-.02.259 1.335 1.335 0 01-.912.342 1.391 1.391 0 01-1.388-1.409c0-.78.612-1.404 1.388-1.404zm4.298 2.538a.184.184 0 11-.342.136l-.227-.597H8.287l-.23.597a.184.184 0 01-.239.108.182.182 0 01-.103-.244l.89-2.347c.048-.111.124-.18.256-.18h.02c.124 0 .203.069.246.18zm-.697-.795l-.454-1.285-.453 1.285zm1.908 1.03a.159.159 0 01-.155-.16v-2.422a.16.16 0 01.155-.16h.907c.78 0 1.233.597 1.233 1.377s-.454 1.364-1.233 1.364h-.907zm.907-.345c.57 0 .863-.442.863-1.02 0-.577-.295-1.03-.863-1.03h-.692v2.049h.692zm2.823-.828v.828h1.146c.096 0 .175.075.175.175 0 .1-.08.17-.175.17h-1.329a.193.193 0 01-.187-.19v-2.36c0-.104.087-.192.187-.192h1.282c.095 0 .175.076.175.171s-.08.176-.175.176h-1.099v.875h.947c.096 0 .175.075.175.175 0 .1-.08.171-.175.171h-.947zm4.815.938a.184.184 0 11-.342.136l-.227-.597h-1.162l-.23.597a.184.184 0 01-.24.108.182.182 0 01-.103-.244l.891-2.347c.048-.111.124-.18.255-.18h.02c.124 0 .204.069.247.18zm-.696-.795l-.454-1.285-.453 1.285zm3.548-1.544c0-.103.08-.187.183-.187s.187.084.187.187v1.631c0 .598-.461.983-1.003.983s-1.002-.386-1.002-.983v-1.63c0-.104.08-.188.182-.188.104 0 .188.084.188.187v1.631c0 .378.294.625.632.625a.615.615 0 00.633-.625zm1.988 2.574a.159.159 0 01-.155-.16v-2.422c0-.088.071-.16.155-.16h.88c.457 0 .743.275.743.708 0 .23-.087.474-.347.573.307.064.493.394.493.668 0 .426-.298.792-.803.792h-.967zm.88-1.603c.241 0 .365-.195.365-.418 0-.239-.16-.378-.406-.378h-.62v.796zm-.66.326v.93h.731c.27 0 .438-.218.438-.45 0-.218-.171-.48-.45-.48zm4.058-1.496a1.39 1.39 0 011.393 1.409c0 .78-.61 1.404-1.393 1.404s-1.385-.629-1.385-1.404c0-.776.605-1.409 1.385-1.409zm0 2.455c.577 0 1.02-.465 1.02-1.046s-.442-1.05-1.02-1.05c-.577 0-1.015.47-1.015 1.05s.442 1.046 1.015 1.046zm3.153-1.747v1.898c0 .104-.08.187-.183.187a.187.187 0 01-.187-.187v-2.411c0-.1.083-.183.183-.183h.051c.084 0 .143.028.187.107l1.182 1.962v-1.882c0-.103.08-.187.183-.187s.187.084.187.187v2.42c0 .095-.08.174-.175.174h-.052a.186.186 0 01-.179-.103l-1.197-1.981z" display="inline" fill="#2ad03d"/></svg>