<svg width="38" height="24" viewBox="0 0 38 24" fill="none" xmlns="http://www.w3.org/2000/svg" role="img" aria-labelledby="pi-bacs"><title id="pi-bacs">Bacs</title><g clip-path="url(#pi-bacs-clip0)"><path d="M35 .5H3A2.5 2.5 0 00.5 3v18A2.5 2.5 0 003 23.5h32a2.5 2.5 0 002.5-2.5V3A2.5 2.5 0 0035 .5z" stroke="#000" stroke-opacity=".07"/><g clip-path="url(#pi-bacs-clip1)"><path d="M1 1h36v22H1V1z" fill="#FDFDFD"/><path d="M14.713 7.394h1.09l-.024.206-.521 2.498-.237 1.123-.047.206.094-.091.166-.23.19-.206.26-.206.19-.138.331-.183.38-.137.354-.07h.593l.378.092.285.115.237.16.165.138.237.32.166.322.118.39.048.274.023.298v.298l-.07.619-.143.573-.19.48-.189.39-.19.298-.236.321-.26.298-.237.23-.332.251-.26.16-.403.207-.45.16-.426.092-.19.023h-.805l-.426-.069-.38-.137-.284-.184-.213-.206-.166-.275-.094-.298-.048-.344.024-.435.095-.642.473-2.314.521-2.498.38-1.856.023-.023z" fill="#272122"/><path d="M23.571 10.167h.805l.592.068.569.115.142.046-.024.229-.355 1.764-.308 1.582-.118.779-.071.688-.048 1.1h-1.018v-.23l.07-.94.048-.412-.142.23-.19.297-.236.298-.142.16-.19.161-.237.183-.331.184-.284.114-.261.069-.166.023h-.592l-.402-.092-.308-.16-.213-.16-.166-.161-.213-.32-.119-.253-.095-.298-.047-.298v-.664l.047-.413.142-.573.19-.504.19-.367.189-.32.284-.39.355-.367.308-.275.403-.275.379-.206.379-.16.45-.138.474-.091.26-.023z" fill="#262122"/><path d="M7.726 7.348h5.424l-.071.39-.237 1.191-.237 1.215-.237 1.191-.236 1.238-.19.894-.166.527-.19.412-.212.39-.19.275-.19.252-.33.344-.167.16-.308.23-.307.183-.38.183-.307.115-.498.114-.544.046H2.61l-.047-.023.024-.206.19-.94.141-.687.214.023.686.114.735.069h.994l.616-.046.64-.092.568-.114.568-.16.474-.161.592-.252.592-.32.403-.276.237-.183.284-.252.237-.23.308-.39.213-.366.166-.366.094-.344.048-.252v-.596l-.048-.275-.165-.481-.26-.482-.214-.275-.19-.229-.118-.114-.308-.252-.355-.253-.355-.206-.403-.206-.474-.183-.568-.184-.379-.114-.024-.046z" fill="#EE1748"/><path d="M4.387 7.531l.379.023.616.092.568.137.521.184.379.183.426.252.237.183.284.252.166.16.26.345.214.39.118.366.048.23.023.343-.07.504-.167.435-.142.253-.213.297-.213.23-.284.275-.355.252-.403.229-.355.16-.45.16-.45.115-.403.069-.284.046-.332.023H3.89l-.331-.023-.379-.069-.024-.069.26-1.283.261-1.306.356-1.834.165-.802.142-.71.048-.092z" fill="#EE1748"/><path d="M16.655 11.06h.355l.285.07.237.137.213.206.19.367.094.366.024.413-.048.481-.118.481-.142.413-.213.435-.166.252-.19.252-.213.23-.166.16-.355.252-.355.16-.308.092-.166.023h-.473l-.285-.069-.237-.137-.142-.16-.094-.207-.048-.275v-.412l.071-.459.213-.916.166-.482.19-.366.142-.252.237-.298.236-.252.308-.23.237-.137.26-.092.261-.046zm6.869-.046h.26l.474.046.166.046.023.069-.331 1.696-.166.687-.213.55-.284.527-.237.321-.26.275-.19.184-.308.206-.308.137-.19.046h-.45l-.213-.069-.236-.137-.166-.184-.142-.297-.095-.39v-.573l.07-.435.12-.413.141-.366.237-.436.26-.367.285-.298.19-.183.284-.206.331-.183.332-.138.402-.092.214-.023z" fill="#FDFDFD"/><path d="M29.634 10.167h.284l.45.046.474.114.26.092-.023.183-.237.642-.024.046-.213-.07-.355-.09-.166-.024h-.71l-.332.069-.379.137-.355.207-.308.252-.237.252-.213.298-.237.435-.166.458-.094.413-.024.183v.642l.095.39.094.229.214.298.236.183.285.138.26.068.19.023h.402l.355-.046.45-.114.427-.16h.047l.071.503.024.344-.19.092-.52.16-.474.092-.213.023h-.806l-.331-.046-.38-.114-.378-.184-.213-.16-.213-.183-.214-.275-.19-.367-.117-.344-.072-.344v-.848l.095-.527.142-.481.213-.481.214-.367.165-.229.237-.298.38-.367.402-.298.402-.229.403-.16.403-.115.402-.068.308-.023z" fill="#272122"/><path d="M33.732 10.167h.64l.425.068.427.138.166.091-.024.138-.26.665-.57-.184-.283-.046h-.521l-.308.092-.237.138-.166.16-.118.23-.024.09v.39l.095.23.142.183.213.183.355.23.38.229.307.252.237.252.19.32.118.344v.573l-.095.39-.19.367-.189.252-.213.206-.355.229-.38.16-.45.115-.189.023h-.686l-.356-.046-.497-.137-.38-.184-.046-.114.26-.688.071-.023.497.207.45.114.143.023h.45l.307-.069.285-.137.142-.115.166-.229.07-.206.024-.115v-.32l-.07-.23-.143-.229-.19-.183-.307-.207-.38-.229-.283-.206-.285-.275-.213-.32-.118-.322-.024-.114v-.482l.095-.366.19-.367.189-.229.213-.206.355-.23.332-.137.308-.091.308-.046z" fill="#262122"/><path d="M5.926 7.348h.545l.545.137.52.184.427.183.355.183.285.184.284.206.237.183v.046l.094.046.26.275.167.23.237.389.142.343.094.413.024.206v.298l-.095.481-.165.436-.214.366-.19.253-.26.275-.236.229-.19.137-.308.207-.308.183-.592.275-.592.206-.545.138-.379.045h-.331l.07-.045.853-.207.522-.183.355-.16.284-.138.426-.275.308-.252.19-.16.284-.321.237-.367.166-.344.094-.275.071-.366v-.642l-.118-.481-.166-.367-.142-.252-.284-.367-.237-.252-.19-.16-.426-.298-.213-.138-.379-.183-.332-.137-.497-.16-.663-.161-.024-.046z" fill="#EE1748"/><path d="M6.85 7.348h.308l.592.114.829.253.497.206.498.252.284.183.331.252.332.321v.046h.047l.26.344.19.39.119.389.047.344-.023.343-.095.39-.213.481-.214.321-.26.298-.26.252-.332.252-.308.23-.403.229-.26.137-.213.046.047-.023v-.046l.497-.298.26-.183.309-.252.166-.16.189-.23.166-.229.213-.39.142-.458.047-.367-.023-.48-.142-.482-.19-.367-.166-.252-.213-.252-.331-.32-.403-.299-.308-.183-.379-.206-.497-.23-.64-.206-.355-.091-.142-.046v-.023z" fill="#EE1748"/></g></g><defs><clipPath id="pi-bacs-clip0"><path fill="#fff" d="M0 0h38v24H0z"/></clipPath><clipPath id="pi-bacs-clip1"><rect x="1" y="1" width="36" height="22" rx="2" fill="#fff"/></clipPath></defs></svg>