<svg xmlns="http://www.w3.org/2000/svg" role="img" viewBox="0 0 38 24" width="38" height="24" aria-labelledby="pi-bancofalabella"><title id="pi-bancofalabella">Banco Falabella</title><g clip-path="url(#pi-clip0_3326_8103)"><path opacity="0.07" d="M35 0H3C1.3 0 0 1.3 0 3V21C0 22.7 1.4 24 3 24H35C36.7 24 38 22.7 38 21V3C38 1.3 36.6 0 35 0Z" fill="black"/><path d="M35 1C36.1 1 37 1.9 37 3V21C37 22.1 36.1 23 35 23H3C1.9 23 1 22.1 1 21V3C1 1.9 1.9 1 3 1H35Z" fill="white"/><path fill-rule="evenodd" clip-rule="evenodd" d="M21.8043 20.9999C18.7736 20.9999 10 18.5473 10 15.5145C10 12.4899 18.7736 10.0332 21.8043 10.0332C24.8331 10.0332 27.2877 12.4899 27.2877 15.5145C27.2877 18.5473 24.8331 20.9999 21.8043 20.9999Z" fill="#1C874E"/><path fill-rule="evenodd" clip-rule="evenodd" d="M19.101 12.0937C17.129 10.898 12.3898 5.83084 13.5865 3.86086C14.7822 1.88982 21.4644 3.7571 23.4354 4.95794C25.4054 6.15161 26.0365 8.72151 24.8376 10.6935C23.6409 12.6646 21.0741 13.2935 19.101 12.0937Z" fill="#ACCD53"/><path fill-rule="evenodd" clip-rule="evenodd" d="M17.4404 10.7756C18.0683 11.3609 18.6553 11.8289 19.101 12.0991C21.0128 13.2616 23.4818 12.7073 24.7221 10.8789C23.877 10.3466 22.8765 10.0386 21.804 10.0386C20.8022 10.0386 19.1729 10.307 17.4404 10.7756Z" fill="#014F2A"/></g><defs><clipPath id="pi-clip0_3326_8103"><rect width="38" height="24" fill="white"/></clipPath></defs></svg>
