<svg xmlns="http://www.w3.org/2000/svg" role="img" viewBox="0 0 38 24" width="38" height="24" aria-labelledby="pi-bancosecurity"><title id="pi-bancosecurity">Banco Security</title><g clip-path="url(#pi-clip0_3326_8112)"><path opacity="0.07" d="M35 0H3C1.3 0 0 1.3 0 3V21C0 22.7 1.4 24 3 24H35C36.7 24 38 22.7 38 21V3C38 1.3 36.6 0 35 0Z" fill="black"/><path d="M35 1C36.1 1 37 1.9 37 3V21C37 22.1 36.1 23 35 23H3C1.9 23 1 22.1 1 21V3C1 1.9 1.9 1 3 1H35Z" fill="url(#pi-paint0_linear_3326_8112)"/><path fill-rule="evenodd" clip-rule="evenodd" d="M18.375 20.2414H18.806V3H18.375V20.2414Z" fill="white"/><path fill-rule="evenodd" clip-rule="evenodd" d="M27.4696 6.01709L27.4695 6.09463L27.8231 6.09476V9.39966H27.2152C27.2135 9.38513 27.2116 9.37061 27.2099 9.35621L26.8537 9.35672C26.6771 7.86478 25.8349 6.98217 24.8231 6.71785C24.7301 6.70775 24.6365 6.7027 24.5425 6.7027C23.4793 6.7027 22.7508 7.27856 22.7508 8.15966C22.7508 10.8913 28.3963 10.1629 28.3963 14.1693C28.3963 15.9583 26.8483 17.4822 24.9951 17.4822C24.871 17.4966 24.7448 17.5037 24.6175 17.5037C23.5459 17.5037 22.5915 16.8607 22.032 16.7309C21.7654 16.8318 21.5882 17.1064 21.567 17.4179L21.1596 17.4177L21.1572 17.4394H20.6377V13.7356H21.1572C21.1579 13.7382 21.1584 13.741 21.1589 13.7436L21.567 13.7435C22.0111 15.9223 23.5933 16.8218 24.9048 16.8745C25.8523 16.7591 26.5457 16.01 26.5457 15.0237C26.5457 11.9947 20.7904 12.8196 20.7904 9.14254C20.7904 7.45536 22.2955 6.01709 24.0979 6.01709C24.4225 6.01709 24.6818 6.06003 24.9039 6.12128C25.4868 6.19743 25.8214 6.42032 26.2026 6.53663L26.302 6.53941C26.5805 6.53941 26.7921 6.38673 26.942 6.01709H27.4696Z" fill="white"/><path fill-rule="evenodd" clip-rule="evenodd" d="M12.6772 6.01709C14.9379 6.01709 16.005 7.48581 16.005 8.88295C16.005 9.88129 15.5154 10.8026 14.5693 11.2757V11.2949C15.8482 11.592 16.7586 12.7086 16.7586 14.0727C16.7586 15.7174 15.5677 17.5327 12.6606 17.5327H9V6.01709H12.6772ZM12.5561 12.5683H11.1204V15.7505H12.4654C13.8873 15.7505 14.5885 15.1233 14.5885 14.0727C14.5885 13.1816 13.8515 12.5683 12.5561 12.5683ZM12.1518 7.79927H11.1204V10.8026H12.3801C13.131 10.8026 13.8873 10.192 13.8873 9.28447C13.8873 8.40985 13.3234 7.79927 12.1518 7.79927Z" fill="white"/></g><defs><linearGradient id="pi-paint0_linear_3326_8112" x1="16" y1="10.625" x2="32.4782" y2="34.2779" gradientUnits="userSpaceOnUse"><stop stop-color="#662D9B"/><stop offset="1" stop-color="#342585"/></linearGradient><clipPath id="pi-clip0_3326_8112"><rect width="38" height="24" fill="white"/></clipPath></defs></svg>
