<svg width="38" height="24" viewBox="0 0 38 24" role="img" fill="none" xmlns="http://www.w3.org/2000/svg" aria-labelledby="pi-bancolombia"><title id="pi-bancolombia">Bancolombia</title><rect width="38" height="24" rx="3" fill="#fff"/><rect x=".5" y=".5" width="37" height="23" rx="2" stroke="#000" style="stroke-opacity: 0.07; stroke-width: 1"/><path fill-rule="evenodd" clip-rule="evenodd" d="M24.168 16.105a64.825 64.825 0 00-6.514 1.959c-.306.115-.638-.035-.718-.329-.173-.626-.326-1.107-.497-1.73a.547.547 0 01.354-.646 57.663 57.663 0 016.516-1.782c.244-.05.5.13.588.405.18.559.335 1.009.51 1.57.078.254-.027.502-.239.553zm-11.085-1.196c-.131-.673-.263-1.178-.391-1.85a.636.636 0 01.332-.673c3.27-1.437 6.72-2.307 10.263-2.755.234-.03.47.142.557.4.187.553.346 1 .527 1.556.088.268-.028.53-.257.567-3.603.572-7.115 1.535-10.437 3.046-.267.13-.538-.003-.594-.29zm1.592-7.65c2.191-.63 4.379-1.04 6.641-1.316a.565.565 0 01.578.375c.21.573.382 1.03.587 1.606.097.272-.047.545-.313.581-2.316.34-4.56.809-6.8 1.492-.273.091-.54-.047-.61-.312-.163-.629-.31-1.112-.47-1.739a.587.587 0 01.387-.687zM19 2C13.477 2 9 6.477 9 12s4.477 10 10 10 10-4.477 10-10S24.523 2 19 2z" fill="#2C2A29" stroke="#000" style="stroke-opacity: 0.01; stroke-width: 0.1"/></svg>