<svg aria-labelledby="pi-bancomat" fill="none" role="img" height="24" viewBox="0 0 38 24" width="38" xmlns="http://www.w3.org/2000/svg"><title id="pi-bancomat">Bancomat</title><g clip-path="url(#clip0_1_3141)"><path d="M35 0H3C1.3 0 0 1.3 0 3v18c0 1.7 1.4 3 3 3h32c1.7 0 3-1.3 3-3V3c0-1.7-1.4-3-3-3z" fill="#000" opacity=".07"/><path d="M35 1c1.1 0 2 .9 2 2v18c0 1.1-.9 2-2 2H3c-1.1 0-2-.9-2-2V3c0-1.1.9-2 2-2h32z" fill="#fff"/><path d="M26.683 11.239l-6.927-6.925a1.083 1.083 0 00-1.526 0l-6.913 6.925a1.07 1.07 0 000 1.522l6.918 6.925a1.084 1.084 0 001.525 0l6.923-6.925a1.072 1.072 0 000-1.522zm-4.721 2.42c-.179 1.451-1.23 2.151-2.948 2.151h-3.478l.202-1.616h3.436c.44 0 .68-.268.736-.738a.787.787 0 000-.145h2.08c0 .098-.028.225-.043.347h.015zm1.407-.94h-7.48l.178-1.457h3.355c.47 0 .643-.343.695-.751.052-.409 0-.667-.526-.667h-3.35l.201-1.678h3.426c1.953 0 2.478.832 2.347 1.974a2.497 2.497 0 01-.38 1.122h.202a1.3 1.3 0 011.295 1.48l.037-.023z" fill="#002D73"/></g><defs><clipPath id="pi-bancomat"><path d="M0 0h38v24H0z" fill="#fff"/></clipPath></defs></svg>
