<svg xmlns="http://www.w3.org/2000/svg" role="img" viewBox="0 0 38 24" width="38" height="24" aria-labelledby="pi-bancoestado"><title id="pi-bancoestado">Banco Estado</title><g clip-path="url(#pi-clip0_3326_8084)"><path opacity="0.07" d="M35 0H3C1.3 0 0 1.3 0 3V21C0 22.7 1.4 24 3 24H35C36.7 24 38 22.7 38 21V3C38 1.3 36.6 0 35 0Z" fill="black"/><path d="M35 1C36.1 1 37 1.9 37 3V21C37 22.1 36.1 23 35 23H3C1.9 23 1 22.1 1 21V3C1 1.9 1.9 1 3 1H35Z" fill="#CD223F"/><path fill-rule="evenodd" clip-rule="evenodd" d="M15.8855 19.2935H22.1942V2.5752C20.6163 4.46862 18.3295 5.7309 15.8855 6.12433V8.6475L7.99902 12.0395V14.4835L15.8855 11.0136V8.6475L18.3295 7.5437V9.98903L15.8855 11.0928V13.4575L18.4087 12.3537V14.7198L15.8855 15.9029V13.5368L7.99902 16.9288V19.2935L15.8855 15.8236V19.2935Z" fill="#FFFFFE"/><path fill-rule="evenodd" clip-rule="evenodd" d="M15.8063 13.458V11.0933L7.99902 14.4839V16.9292L15.8063 13.458Z" fill="#E87D34"/><path fill-rule="evenodd" clip-rule="evenodd" d="M15.8063 15.9019L7.99902 19.2925H15.8063V15.9019Z" fill="#E87D34"/><path fill-rule="evenodd" clip-rule="evenodd" d="M15.8027 11.0931L18.3259 9.98927V7.54395L15.8027 8.64775V11.0931Z" fill="#E87D34"/><path fill-rule="evenodd" clip-rule="evenodd" d="M15.8027 13.4583V15.9036L18.3259 14.7998V12.3545L15.8027 13.4583Z" fill="#E87D34"/><path fill-rule="evenodd" clip-rule="evenodd" d="M22.1935 19.2935H30.0007V9.04231L22.1143 2.5752L22.1935 19.2935Z" fill="#E67C35"/><path fill-rule="evenodd" clip-rule="evenodd" d="M22.1143 19.2935H22.1935L22.1143 2.5752V19.2935Z" fill="#E46B32"/><path d="M1 19H37V21C37 22.1046 36.1046 23 35 23H3C1.89543 23 1 22.1046 1 21V19Z" fill="#005899"/></g><defs><clipPath id="pi-clip0_3326_8084"><rect width="38" height="24" fill="white"/></clipPath></defs></svg>