<svg xmlns="http://www.w3.org/2000/svg" role="img" viewBox="0 0 38 24" width="38" height="24" aria-labelledby="pi-bancodechile"><title id="pi-bancodechile">Banco de Chile</title><path opacity="0.07" d="M35 0H3C1.3 0 0 1.3 0 3V21C0 22.7 1.4 24 3 24H35C36.7 24 38 22.7 38 21V3C38 1.3 36.6 0 35 0Z" fill="black"/><path d="M35 1C36.1 1 37 1.9 37 3V21C37 22.1 36.1 23 35 23H3C1.9 23 1 22.1 1 21V3C1 1.9 1.9 1 3 1H35Z" fill="#0F2B5F"/><path fill-rule="evenodd" clip-rule="evenodd" d="M17.3023 6.58001C16.5194 7.52613 15.15 8.0633 14.4238 9.13773V15.0749C14.4238 15.9631 13.8498 15.7605 13.9042 16.2915L17.0731 13.9954V7.81426L21.1791 4.53929L20.9681 4.43613C19.9061 4.91801 18.8249 3.91524 17.6007 4.00583C15.7933 4.07759 14.197 4.93185 13 6.25161C14.24 5.64268 16.2199 5.51309 17.3023 6.58001Z" fill="#F5F5F5"/><path fill-rule="evenodd" clip-rule="evenodd" d="M22.2336 10.744V7.5156C23.0913 8.18743 23.8799 10.2796 22.2336 10.744ZM22.5479 17.5454L22.2336 17.3466V12.3556C22.5819 12.3669 22.7987 12.8274 22.7873 13.2803C22.7873 13.2803 22.8134 16.7981 22.8134 17.1277C22.8134 17.4561 22.5479 17.5454 22.5479 17.5454ZM22.9405 11.4095C23.8584 10.676 25.0167 10.052 25.6862 8.97626C26.2965 7.93449 24.5856 5.83467 23.7097 4.32877L22.953 4.1123L17.7861 8.21132V15.1964C17.7861 16.0432 17.3788 15.8016 17.4004 16.2709L20.6679 13.8528V6.94938L21.5381 6.23357V17.0447L19.7818 16.5401C17.3436 16.2042 15.0995 17.4233 13.7119 19.3206C15.9572 18.1644 18.9161 18.4512 20.9731 20L25.4899 16.4646C26.2103 15.7098 25.7803 14.3409 25.8041 13.3734C25.6702 11.7504 24.0035 11.6447 22.9405 11.4095Z" fill="#F5F5F5"/><defs><clipPath id="pi-bancodechile-clip0"><rect width="38" height="24" fill="white"/></clipPath></defs></svg>