<svg version="1.1" xmlns="http://www.w3.org/2000/svg" x="0" y="0" width="38" height="24" viewBox="0 0 38 24" xml:space="preserve" role="img" aria-labelledby="pi-bancnet"><title id="pi-bancnet">Banc Net</title><path opacity=".07" d="M35 0H3C1.3 0 0 1.3 0 3v18c0 1.7 1.4 3 3 3h32c1.7 0 3-1.3 3-3V3c0-1.7-1.4-3-3-3z"/><path fill="#FFF" d="M35 1c1.1 0 2 .9 2 2v18c0 1.1-.9 2-2 2H3c-1.1 0-2-.9-2-2V3c0-1.1.9-2 2-2h32"/><path d="M7.193 8.965h2.962c.413 0 1.008.286.57 1.085a2.089 2.089 0 0 1-1.44 1.073l-.007.014c.556.06.76.465.421 1.085-.532.972-1.424 1.187-2.46 1.187H4.76l2.433-4.444zm-.528 3.57h.596c.425 0 .842-.006 1.104-.487.253-.458-.145-.458-.522-.458h-.66l-.518.945zm.996-1.818h.384c.397 0 .869.033 1.172-.52.197-.36-.251-.36-.571-.36h-.503l-.482.88zm4.682 1.205c-.354.141-1.15.22-1.355.593-.113.207.053.266.259.266.128 0 .259-.018.402-.059l-.596.727c-.192.014-.399.039-.583.039-.853 0-1.152-.387-.801-1.027.715-1.305 2.826-.892 3.149-1.485.12-.219-.109-.266-.301-.266-.497 0-1.099.152-1.642.313l.545-.813c.62-.12 1.229-.206 1.825-.206 1.25 0 1.21.526 1.013.886l-1.379 2.519h-1.35l.814-1.487zm3.591-1.358l.007.014c.646-.427 1.181-.574 1.713-.574.767 0 1.213.3.746 1.153l-1.232 2.252h-1.35l.971-1.773c.16-.292.182-.592-.245-.592-.362 0-.93.233-1.463 1.206l-.634 1.16h-1.349l1.82-3.325h1.278l-.262.479zm4.337 2.805c-.385.08-.754.117-1.108.117-1.158 0-1.59-.584-.934-1.784.468-.853 1.364-1.699 2.671-1.699.512 0 .875.04 1.188.125l-.416 1.007c-.26-.093-.525-.18-.832-.18-.561 0-1.016.3-1.283.787-.291.533-.12.791.426.791.299 0 .645-.085.992-.179l-.704 1.015zm2.795-4.404h1.762l.236 2.891h.014l1.584-2.891h1.305l-2.432 4.445h-1.74l-.287-2.839h-.014l-1.553 2.839h-1.309l2.434-4.445zm6.145 4.396c-.436.08-.871.127-1.426.127-1.492 0-1.658-.734-1.105-1.744.549-1 1.578-1.739 2.893-1.739 1.172 0 1.572.566 1.047 1.526l-.227.413h-2.471c-.283.513.117.707.586.707.418 0 .898-.115 1.35-.219l-.647.929zm.207-2.025c.215-.392.115-.586-.227-.586-.383 0-.742.293-.938.586h1.165zm4.236-.378h-.803l-.617 1.126c-.156.286-.162.452.15.452.17 0 .346-.031.555-.092l-.664.94a4.662 4.662 0 0 1-.975.105c-.682 0-1.092-.174-.689-.906l.891-1.625h-.525l.479-.874h.525l.328-.599 1.496-.267-.477.866h.803l-.477.874zm-1.603 2.794H4.572l-.222.404h27.476zM3.869 15.035h27.479l.22-.404H4.091z" fill="red"/></svg>
