<svg xmlns="http://www.w3.org/2000/svg" role="img" viewBox="0 0 38 24" width="38" height="24" aria-labelledby="pi-bancobice"><title id="pi-bancobice">Banco Bice</title><g clip-path="url(#pi-bancobice-clip0)"><path opacity="0.07" d="M35 0H3C1.3 0 0 1.3 0 3V21C0 22.7 1.4 24 3 24H35C36.7 24 38 22.7 38 21V3C38 1.3 36.6 0 35 0Z" fill="black"/><path d="M35 1C36.1 1 37 1.9 37 3V21C37 22.1 36.1 23 35 23H3C1.9 23 1 22.1 1 21V3C1 1.9 1.9 1 3 1H35Z" fill="url(#pi-bancobice-paint0_linear)"/><rect x="13" y="9.41455" width="11.9714" height="1.75714" fill="white"/><rect x="13" y="6" width="11.9714" height="1.75714" fill="white"/><rect x="13" y="12.8286" width="11.9714" height="1.75714" fill="white"/><rect x="13" y="16.2427" width="11.9714" height="1.75714" fill="white"/></g><defs><linearGradient id="pi-bancobice-paint0_linear" x1="37" y1="1.8574" x2="16.6716" y2="32.5293" gradientUnits="userSpaceOnUse"><stop stop-color="#28BDDA"/><stop offset="0.563092" stop-color="#1E5EBF"/></linearGradient><clipPath id="pi-bancobice-clip0"><rect x="0" y="0" width="38" height="24"/></clipPath></defs></svg>