<svg width="38" height="24" viewBox="0 0 38 24" fill="none" xmlns="http://www.w3.org/2000/svg" role="img" aria-labelledby="pi-bancoazteca"><title id="pi-bancoazteca">Banco Azteca</title><g clip-path="url(#clip0_1_2)"><path fill="#fff" d="M0 0h38v24H0z"/><path d="M18.994 8.54c-1.102 0-2 .924-2 2.063 0 1.14.896 2.065 2 2.065s2-.925 2-2.065-.896-2.064-2-2.064z" fill="#992D31"/><path d="M20.035 6.451l-.134-.04A14.533 14.533 0 0121.587 6c-.903 0-1.669.047-2.32.15l-.271.048a11.557 11.557 0 00-.271-.047C18.073 6.047 17.307 6 16.405 6c.642.116 1.223.27 1.685.412l-.134.04c-2.986.965-5.237 3.076-5.075 4.808.134 1.437 1.553 2.165 3.864 1.916-1.285-.24-1.813-.911-1.908-1.93-.147-1.557 1.565-3.4 3.993-4.458l.164-.066.165.066c2.428 1.06 4.138 2.901 3.993 4.459-.095 1.016-.623 1.689-1.909 1.93 2.312.248 3.733-.48 3.866-1.917.162-1.73-2.089-3.842-5.075-4.809z" fill="#2C6245"/><path d="M6.476 15.48h-.301l.13-.64h.206c.301 0 .5.039.5.288 0 .214-.199.351-.534.351m-.349 1.288h-.216l.147-.728h.193c.361 0 .55.04.55.31 0 .302-.27.418-.675.418m.895-1.008v-.009c.473-.057.788-.369.788-.785 0-.586-.538-.71-.849-.71H5.63L5 17.352l1.368-.017c.688-.01 1.234-.32 1.234-.978 0-.341-.235-.546-.58-.599zM8.76 16.874c-.163 0-.262-.124-.262-.231 0-.204.27-.342.641-.33.047 0 .142 0 .207.013-.056.31-.254.547-.584.547m.426-1.889c-.35 0-.594.054-.822.133l-.078.582c.258-.138.448-.182.728-.182.254 0 .413.134.413.298 0 .03 0 .061-.009.092-.108-.009-.262-.022-.417-.022-.684 0-1.235.28-1.235.848 0 .449.267.671.75.671.3 0 .59-.11.753-.378v-.008l.009.008-.034.324h.633c.085-.697.283-1.217.283-1.582 0-.569-.44-.787-.973-.787M12.224 14.986c-.409 0-.641.172-.865.43h-.009l.061-.378h-.718c-.021.21-.057.405-.095.604l-.35 1.71h.776l.22-1.067c.055-.343.25-.636.576-.636.216-.008.3.13.3.267 0 .12-.03.236-.05.351l-.216 1.085h.8l.207-1.08a2.15 2.15 0 00.061-.488c0-.453-.245-.8-.696-.8M14.602 15.573c.172 0 .341.048.5.125l.167-.556a2.001 2.001 0 00-.705-.155c-.861 0-1.446.604-1.446 1.364 0 .582.405 1.058 1.059 1.058.3 0 .508-.035.662-.09l.112-.599a1.18 1.18 0 01-.499.103c-.328 0-.534-.227-.534-.503 0-.479.284-.745.684-.745M16.385 16.848c-.263.004-.422-.204-.422-.516 0-.37.233-.787.606-.787.301 0 .405.227.405.466 0 .525-.227.835-.59.835m.225-1.862c-.878 0-1.446.551-1.446 1.364 0 .582.335 1.058 1.166 1.058.832 0 1.446-.422 1.446-1.386 0-.582-.404-1.034-1.166-1.034M20.037 16.106l.637-1.213h.009l.13 1.213h-.776zm.244-1.852l-1.785 3.1h.87l.356-.662h1.167l.08.663h.81l-.492-3.1H20.28h.001zM22.227 15.626h.96l-1.223 1.124-.112.605h1.95l.115-.588h-1.023l1.23-1.124.12-.603h-1.9l-.117.586zM25.445 15.6h.564l.095-.56h-.534l.155-.724-.818.227-.108.498h-.442l-.095.56h.413l-.134.647c-.052.245-.07.36-.07.475 0 .485.316.684.71.684.155 0 .318-.017.483-.044l.086-.529c-.082.031-.167.067-.25.067-.154 0-.253-.103-.253-.258 0-.112.03-.227.063-.4l.134-.643h.001zM26.805 15.977c.056-.222.237-.458.571-.458.284 0 .38.21.38.458h-.951zm.563-.99c-1 0-1.342.826-1.342 1.364 0 .582.404 1.058 1.152 1.058.224 0 .512-.044.783-.13l.098-.563c-.216.107-.495.16-.701.16-.474 0-.593-.195-.603-.444h1.588c.03-.138.057-.343.057-.435 0-.702-.445-1.008-1.034-1.008M30.074 15.573c.172 0 .34.048.5.125l.167-.556a2 2 0 00-.705-.155c-.86 0-1.446.604-1.446 1.364 0 .582.404 1.058 1.058 1.058.301 0 .508-.035.663-.09l.112-.599a1.18 1.18 0 01-.5.103c-.327 0-.533-.227-.533-.503 0-.479.284-.745.684-.745M31.6 16.874c-.162 0-.262-.124-.262-.231 0-.204.271-.342.642-.33.047 0 .142 0 .207.013-.055.31-.254.547-.585.547m.426-1.889c-.35 0-.593.054-.822.133l-.078.582c.259-.138.449-.182.728-.182.254 0 .413.134.413.298 0 .03 0 .061-.008.092-.108-.009-.263-.022-.418-.022-.683 0-1.235.28-1.235.848 0 .449.266.671.749.671.3 0 .59-.11.753-.378v-.008l.009.008-.034.324h.633c.085-.697.283-1.217.283-1.582 0-.569-.44-.787-.973-.787" fill="#757679"/><rect x=".5" y=".5" width="37" height="23" rx="2" stroke="#000" stroke-opacity=".07"/></g><defs><clipPath id="pi-clip0_1_2"><path fill="#fff" d="M0 0h38v24H0z"/></clipPath></defs></svg>