<svg xmlns="http://www.w3.org/2000/svg" role="img" viewBox="0 0 38 24" width="38" height="24" aria-labelledby="pi-bancoedwards"><title id="pi-bancoedwards">Banco Edwards</title><g clip-path="url(#pi-clip0_3326_8128)"><path opacity="0.07" d="M35 0H3C1.3 0 0 1.3 0 3V21C0 22.7 1.4 24 3 24H35C36.7 24 38 22.7 38 21V3C38 1.3 36.6 0 35 0Z" fill="black"/><path d="M35 1C36.1 1 37 1.9 37 3V21C37 22.1 36.1 23 35 23H3C1.9 23 1 22.1 1 21V3C1 1.9 1.9 1 3 1H35Z" fill="#012B14"/><path d="M19.4892 16.58L19.9467 17.5024C19.9677 17.5448 20.0084 17.5741 20.0553 17.5809L21.0785 17.7288C21.1328 17.7367 21.178 17.7745 21.1949 17.8265C21.2119 17.8785 21.1978 17.9355 21.1585 17.9736L20.4186 18.6916C20.3846 18.7246 20.3691 18.7721 20.3772 18.8187L20.5519 19.8324C20.5612 19.8863 20.539 19.9407 20.4945 19.9728C20.4501 20.005 20.3912 20.0092 20.3426 19.9838L19.4274 19.5051C19.3854 19.4831 19.3352 19.4831 19.2932 19.5051L18.378 19.9838C18.3294 20.0092 18.2705 20.005 18.226 19.9728C18.1816 19.9407 18.1594 19.8863 18.1687 19.8324L18.3435 18.8187C18.3515 18.7721 18.336 18.7246 18.302 18.6916L17.5621 17.9736C17.5228 17.9355 17.5087 17.8785 17.5256 17.8265C17.5426 17.7745 17.5877 17.7367 17.6421 17.7288L18.6652 17.5809C18.7122 17.5741 18.7528 17.5448 18.7738 17.5024L19.2313 16.58C19.2559 16.5315 19.3058 16.501 19.3603 16.501C19.4148 16.501 19.4647 16.5315 19.4892 16.58Z" fill="#C4B264"/><path d="M22.7223 9.89353V10.6746C22.7223 12.0762 22.5102 12.2333 19.7221 12.2333L19.6642 12.2333C19.66 12.2333 19.6559 12.2334 19.652 12.2334L19.6205 12.2334C19.6111 12.2334 19.603 12.2334 19.5958 12.2334L19.5827 12.2335C19.5099 12.2338 19.5751 12.2343 19.513 12.2346L19.5018 12.2346C19.4997 12.2346 19.4975 12.2346 19.4953 12.2346L19.4802 12.2346C19.4775 12.2346 19.4746 12.2346 19.4717 12.2346L19.4034 12.2347C17.343 12.2347 16.501 12.3666 16.501 14.0144H16C16 11.1429 16.6587 10.8644 19.4034 10.8459C19.5623 10.8447 19.6007 10.8441 19.6345 10.8438L19.6415 10.8437C19.6485 10.8437 19.6557 10.8436 19.664 10.8436L19.6727 10.8435C19.6743 10.8435 19.6758 10.8435 19.6775 10.8435L19.6935 10.8435C19.6955 10.8435 19.6975 10.8435 19.6995 10.8435L19.7451 10.8434C19.7482 10.8434 19.7513 10.8434 19.7545 10.8434L19.9416 10.8434C21.4872 10.8434 22.417 10.7931 22.417 9.89353H22.7223ZM22.7223 6.94676V7.72779C22.7223 9.12941 22.5102 9.28659 19.7221 9.28659L19.557 9.28662C19.5561 9.28663 19.5552 9.28663 19.5544 9.28663L19.5464 9.28667C19.546 9.28668 19.5458 9.28668 19.5456 9.28669L19.5445 9.28671C19.5444 9.28672 19.5442 9.28672 19.5442 9.28672C19.5438 9.28676 19.5438 9.28677 19.5438 9.28677C19.5424 9.28699 19.534 9.28733 19.4034 9.28794C17.2953 9.30322 16.501 9.46378 16.501 11.0676H16C16 8.1958 16.5665 7.92365 19.4034 7.89876C19.5568 7.89746 19.5979 7.89686 19.631 7.89659L19.638 7.89654L19.645 7.8965C19.6486 7.89648 19.6522 7.89646 19.656 7.89645L19.6775 7.8964C19.6791 7.8964 19.6808 7.8964 19.6825 7.8964L19.728 7.8964C19.7306 7.8964 19.7334 7.8964 19.7363 7.89641L19.8387 7.89645C19.8436 7.89645 19.8486 7.89645 19.8537 7.89645L19.9416 7.89646C21.4872 7.89619 22.417 7.84601 22.417 6.94676H22.7223ZM22.7223 4V4.78102C22.7223 6.18264 22.5102 6.33996 19.7221 6.33996L19.6407 6.33996C19.637 6.33996 19.6335 6.33996 19.6302 6.33996L19.5544 6.34C19.5536 6.34001 19.5528 6.34001 19.5521 6.34001L19.5464 6.34005C19.546 6.34005 19.5458 6.34005 19.5456 6.34006L19.5442 6.3401L19.544 6.34011C19.5429 6.34032 19.5433 6.34066 19.4034 6.34131C17.2953 6.3566 16.501 6.51716 16.501 8.12086H16C16 5.24918 16.5665 4.97702 19.4034 4.95213C19.5788 4.95058 19.6073 4.95 19.645 4.94982L19.6523 4.94979C19.6535 4.94978 19.6547 4.94978 19.656 4.94977L19.7545 4.94977C19.7578 4.94978 19.7611 4.94978 19.7645 4.94978L19.8537 4.94982C19.8588 4.94982 19.8641 4.94982 19.8695 4.94983L19.9416 4.94983C21.4872 4.94983 22.417 4.89952 22.417 4H22.7223Z" fill="#C4B264"/></g><defs><clipPath id="pi-clip0_3326_8128"><rect width="38" height="24" fill="white"/></clipPath></defs></svg>
