<svg width="38" height="24" viewBox="0 0 38 24" fill="none" role="img" xmlns="http://www.w3.org/2000/svg" aria-labelledby="pi-bankofamerica"><title id="pi-bankofamerica">Bank of America</title><g clip-path="url(#clip0_10420_219351)"><path opacity=".07" d="M35 0H3C1.3 0 0 1.3 0 3v18c0 1.7 1.4 3 3 3h32c1.7 0 3-1.3 3-3V3c0-1.7-1.4-3-3-3z" fill="#000"/><path d="M35 1c1.1 0 2 .9 2 2v18c0 1.1-.9 2-2 2H3c-1.1 0-2-.9-2-2V3c0-1.1.9-2 2-2h32z" fill="#fff"/><path d="M18.958 19.59C23.379 15.8 29.59 12.116 33 10.79a55.952 55.952 0 00-2.274-1.348c-4.4 1.453-9.536 4.674-14.126 8.316.779.59 1.6 1.2 2.358 1.832z" fill="#E31837"/><path d="M16.937 9.295c-.653-.316-1.369-.61-1.916-.863-1.663.82-3.832 2.063-6.568 4.02.59.316 1.22.695 1.894 1.074 2.106-1.558 4.232-3.031 6.59-4.231z" fill="#012169"/><path d="M20.874 7.484c-.8-.442-3.58-1.473-5.495-1.916-.569.21-1.368.527-1.916.758.695.19 3.284.885 5.495 2 .568-.273 1.368-.61 1.916-.842z" fill="#E31837"/><path d="M11.463 7.21C9 8.348 6.411 9.906 5 10.81c.505.232 1.01.422 1.705.758 3.116-2.105 5.558-3.39 6.527-3.81-.695-.253-1.348-.421-1.769-.547z" fill="#012169"/><path d="M22.726 6.832c.569-.19 1.221-.358 1.79-.527-1.642-.694-3.705-1.431-5.558-1.894-.295.084-1.179.315-1.79.505.632.19 2.716.673 5.558 1.916zm-10.379 7.915c.674.4 1.39.948 2.085 1.41 4.61-3.578 9.158-6.336 14.147-7.894-.695-.358-1.305-.674-2.084-1.053-2.99.758-8.105 2.8-14.148 7.537z" fill="#E31837"/></g><defs><clipPath id="pi-bankofamerica-clip0_10420_219351"><path fill="#fff" d="M0 0h38v24H0z"/></clipPath></defs></svg>