<svg width="38" height="24" viewBox="0 0 38 24" fill="none" xmlns="http://www.w3.org/2000/svg" role="img" aria-labelledby="pi-barclays"><title id="pi-barclays">Barclays</title><g clip-path="url(#clip0_39_2)"><path opacity=".07" d="M35 0H3C1.3 0 0 1.3 0 3v18c0 1.7 1.4 3 3 3h32c1.7 0 3-1.3 3-3V3c0-1.7-1.4-3-3-3z" fill="#000"/><path d="M35 1c1.1 0 2 .9 2 2v18c0 1.1-.9 2-2 2H3c-1.1 0-2-.9-2-2V3c0-1.1.9-2 2-2h32z" fill="#fff"/><g clip-path="url(#clip1_39_2)"><path d="M25.959 7.499c-.165-.327-.424-.747-.825-1.073a1.177 1.177 0 00-.66-.327c-.211-.047-.423-.116-.658-.116h-.047c-.283 0-.825.046-1.13.49-.166.163-.213.42-.166.699.047.21.165.373.377.42 0 0 .047 0 .165.046-.047 0-.118.117-.118.117-.117.163-.377.42-1.13.42h-.047c-.377 0-.707-.117-1.083-.583-.212-.327-.377-.816-.377-1.656 0-.42-.047-.816-.165-1.073-.047-.21-.212-.373-.377-.49-.117-.116-.282-.163-.494-.21C19.012 4 18.682 4 18.424 4c-.33 0-.495.047-.59.21 0 0 0 .047-.047.047h-.212c-.164 0-.33.046-.494.046-.33.047-.495.163-.706.327-.048.046-.212.21-.283.42-.047.163 0 .28.047.326 0 0 0 .047.047.047.118-.117.283-.164.542-.164.33 0 .824.164.965.42.212.373.165.653.118 1.027-.118.91-.495 1.399-1.201 1.492h-.377c-.541 0-.918-.163-1.083-.49-.118-.116-.118-.163-.118-.163s.047 0 .118-.046c.212-.117.33-.21.377-.42.047-.21 0-.49-.165-.7-.283-.28-.66-.42-1.13-.42-.283 0-.495.047-.66.117-.66.163-1.13.583-1.507 1.4-.282.536-.494 1.282-.541 2.028-.047.747-.047 1.4 0 1.983.117.956.282 1.563.494 2.146.212.653.542 1.236.871 1.772.118.21.165.327.212.373a.818.818 0 00.165-.21c.118-.116.495-.583.589-.746.165-.116.33-.42.424-.653l.047-.117.117.117c.118.117.165.21.165.373 0 .164-.047.327-.117.653-.118.327-.283.747-.495 1.073 0 .047-.047.117-.047.117-.118.21-.165.326-.118.373.047 0 .212-.047.377-.21.212-.093.589-.42 1.06-1.12.377-.49.66-1.026.918-1.609l.047-.116.118.046c.047 0 .118.047.118.117.047.117.047.21.047.373-.047.373-.283.91-.424 1.283-.283.653-.824 1.4-1.201 1.936 0 0-.118.116-.118.163a.807.807 0 00.212.163l.165.117c.542.42 1.036.816 1.672 1.12.494.28 1.507.816 2.166.956.66-.164 1.672-.7 2.167-.957.659-.373 1.13-.7 1.672-1.12l.164-.116c.118-.046.165-.163.212-.163 0 0-.047-.047-.047-.117l-.047-.046c-.377-.537-.918-1.283-1.2-1.936-.166-.373-.377-.956-.425-1.283 0-.163 0-.28.047-.373 0-.047.047-.047.118-.117.047-.046.118-.046.118-.046l.047.116c.283.583.589 1.073.918 1.61.495.7.872 1.026 1.037 1.12.164.116.33.209.376.209h.07c.048-.047 0-.163-.117-.373 0-.047-.047-.117-.047-.117a7.028 7.028 0 01-.494-1.073c-.118-.326-.165-.49-.165-.653 0-.163.047-.326.165-.373l.117-.047.047.117c.118.21.33.536.377.653.118.163.495.583.589.747l.165.163c.047-.047.117-.163.212-.327v-.046c.33-.537.588-1.12.87-1.773.213-.653.378-1.19.495-2.146.048-.583.118-1.236 0-1.982 0-.747-.14-1.493-.47-2.03z" fill="url(#pi-barclays-paint0_radial_39_2)"/></g></g><defs><clipPath id="pi-barclays-clip0_39_2"><path fill="#fff" d="M0 0h38v24H0z"/></clipPath><clipPath id="pi-barclays-clip1_39_2"><path fill="#fff" transform="translate(11.5 4)" d="M0 0h15v16H0z"/></clipPath><radialGradient id="pi-barclays-paint0_radial_39_2" cx="0" cy="0" r="1" gradientUnits="userSpaceOnUse" gradientTransform="matrix(16.5596 0 0 16.4019 11.912 6.882)"><stop stop-color="#20C4F4"/><stop offset=".304" stop-color="#09B4F0"/><stop offset=".5" stop-color="#00AEEF"/><stop offset=".8" stop-color="#0092C8"/><stop offset="1" stop-color="#006E98"/></radialGradient></defs></svg>