<svg width="38" height="24" viewBox="0 0 38 24" fill="none" xmlns="http://www.w3.org/2000/svg" role="img" aria-labelledby="pi-barion"><title id="pi-barion">Barion</title><g clip-path="url(#pi-barion-clip0)"><path d="M35 .5H3A2.5 2.5 0 00.5 3v18A2.5 2.5 0 003 23.5h32a2.5 2.5 0 002.5-2.5V3A2.5 2.5 0 0035 .5z" stroke="#000" stroke-opacity=".07"/><g clip-path="url(#pi-barion-clip1)"><path d="M1 1h36v22H1V1z" fill="#FEFEFE"/><path d="M4.837 8.242h1.397l.024 2.085.26-.069.427-.091h.64l.354.068.38.138.307.183.237.207.213.229.19.32.142.344.07.344v.78l-.07.366-.166.435-.213.344-.284.298-.285.206-.378.184-.427.137-.379.069-.237.023H6.4l-.544-.046-.497-.092-.498-.16-.047-.069v-2.498l.024-3.735zM12.392 10.144h.782l.592.069.71.16.213.092v4.33l-.379.024-1.634.023h-.663l-.45-.069-.379-.137-.331-.184-.237-.183-.166-.184-.166-.229-.19-.39-.094-.343-.047-.298v-.412l.047-.367.118-.413.119-.275.237-.343.236-.253.332-.229.332-.16.355-.115.45-.091.213-.023zM30.392 10.144h.877l.544.069.474.137.379.183.26.23.19.32.047.16v3.553h-1.42l-.024-3.369-.095-.183-.024-.069-.379-.183-.118-.023h-.64l-.284.069-.024.022-.023 3.736H28.71l-.024-.115v-4.193l.166-.07.663-.16.592-.091.284-.023zM24.471 9.181l.474.023.592.115.474.183.426.23.402.297.119.092v.046l-.45.046-.521.091-.545.138-.474.16-.473.206-.45.23-.119.022-.142-.32v-.046l-.142.023-.284.183-.237.206-.19.207-.189.297-.142.39-.047.252v.435l.094.413.166.367.213.298.237.229v.046l-.616.137-.64.092h-.236l-.142-.16-.213-.436-.142-.458-.071-.344-.024-.184v-.343l.047-.413.119-.458.19-.458.189-.321.308-.39.331-.32.308-.23.403-.229.473-.183.498-.115.426-.046z" fill="#1393D6"/><path d="M27.171 10.694h.237l.142.183.19.39.118.343.095.436.023.206v.39l-.047.39-.118.48-.214.482-.237.366-.26.321-.308.298-.355.252-.38.207-.354.137-.38.115-.378.068h-.735l-.402-.068-.379-.115-.284-.115-.38-.206-.26-.183-.308-.23v-.045l.64-.069.474-.092.686-.206.498-.206.663-.32h.095l.118.343.095.023.26-.16.237-.184.237-.252.19-.298.118-.275.071-.23.024-.16v-.48l-.071-.322-.166-.39-.237-.32-.071-.069v-.046l-.095-.046-.095-.114.64-.138.45-.068.213-.023zM17.366 10.144h.52l.474.023.024.069-.284.801-.047.023-.332-.068h-.616l-.166.068-.023.665-.024 3.07h-1.397l-.024-1.603V10.51l.024-.046.568-.16.474-.092.355-.046.474-.023zM19 10.213h.568l.853.068.024.023v4.492H19v-4.583z" fill="#1393D6"/><path d="M12.416 10.9h.497l.308.092.024.045v2.957l-.119.069-.19.045h-.544l-.308-.091-.26-.184-.166-.229-.119-.298-.07-.343-.024-.298v-.252l.047-.459.142-.458.166-.252.213-.184.213-.114.19-.046zM6.637 10.9h.426l.308.092.213.137.166.184.142.274.071.253.048.39v.457l-.071.436-.095.275-.142.252-.19.206-.237.138-.236.069-.332.022-.355-.045-.095-.046-.024-.092v-2.887l.166-.07.237-.045z" fill="#FEFEFE"/><path d="M19.616 8.38l.308.022.284.115.19.16.118.206v.252l-.142.207-.166.137-.26.115-.072.023h-.379l-.284-.138-.166-.137-.118-.207-.024-.206.071-.183.166-.184.19-.114.284-.069z" fill="#1393D6"/></g></g><defs><clipPath id="pi-barion-clip0"><path fill="#fff" d="M0 0h38v24H0z"/></clipPath><clipPath id="pi-barion-clip1"><rect x="1" y="1" width="36" height="22" rx="2" fill="#fff"/></clipPath></defs></svg>