<svg xmlns="http://www.w3.org/2000/svg" role="img" viewBox="0 0 38 24" width="38" height="24" aria-labelledby="pi-bbvacie"><title id="pi-bbvacie">BBVA CIE</title><path fill="#000" opacity=".07" d="M35 0H3C1.3 0 0 1.3 0 3v18c0 1.7 1.4 3 3 3h32c1.7 0 3-1.3 3-3V3c0-1.7-1.4-3-3-3z"/><path fill="#fff" d="M35 1c1.1 0 2 .9 2 2v18c0 1.1-.9 2-2 2H3c-1.1 0-2-.9-2-2V3c0-1.1.9-2 2-2h32"/><path d="M10.44 11.77c.1.034.213.083.344.148.228.132.424.312.588.542.197.327.294.72.294 1.18 0 1.573-.948 2.36-2.843 2.36H5.147C5.05 16 5 15.95 5 15.852V8.278c0-.098.05-.147.147-.147H9.02c.687 0 1.241.19 1.666.565.425.378.638.878.638 1.5 0 .361-.082.68-.245.96a1.537 1.537 0 01-.638.615zm-1.665 3.098c.555 0 .963-.09 1.225-.27.26-.18.392-.491.392-.934 0-.443-.131-.753-.392-.934-.262-.18-.67-.27-1.225-.27H6.47c-.132 0-.197.049-.197.147v2.115c0 .099.065.148.197.148h2.304v-.002zM6.47 9.262c-.099 0-.148.05-.148.148v1.77c0 .099.05.148.148.148h2.254c.85 0 1.275-.344 1.275-1.033s-.425-1.033-1.275-1.033H6.471zm11.912 2.509c.098.033.196.082.294.147.26.132.457.312.588.542.229.327.343.72.343 1.18 0 1.573-.948 2.36-2.843 2.36h-3.677c-.098 0-.147-.05-.147-.148V8.278c0-.098.05-.147.147-.147h3.873c.654 0 1.2.19 1.643.565.44.378.662.878.662 1.5 0 .361-.082.68-.245.96a1.543 1.543 0 01-.638.615zm-4.02-2.509c-.098 0-.148.05-.148.148v1.77c0 .099.05.148.148.148h2.304c.849 0 1.274-.344 1.274-1.033s-.425-1.033-1.274-1.033h-2.304zm2.353 5.606c.555 0 .963-.09 1.225-.27.26-.18.392-.491.392-.934 0-.443-.131-.753-.392-.934-.262-.18-.67-.27-1.225-.27h-2.353c-.098 0-.148.049-.148.147v2.115c0 .099.05.148.148.148h2.353v-.002zm9.902-6.639c.032-.065.065-.098.098-.098h1.274c.032 0 .065.017.099.049.032.033.032.066 0 .098l-4.069 7.673a.165.165 0 01-.123.049.164.164 0 01-.122-.05l-4.069-7.672c-.033-.032-.041-.065-.024-.098.016-.032.056-.05.122-.05h1.226c.065 0 .114.034.147.1l2.598 4.918c0 .033.032.049.098.049.065 0 .114-.016.147-.05l2.598-4.918zm1.47 6.542c-.033.066-.082.098-.147.098h-1.274c-.033 0-.058-.016-.074-.049a.21.21 0 01-.024-.098l4.069-7.673c.032-.032.081-.049.147-.049.065 0 .114.017.148.05L35 14.721a.22.22 0 01-.025.098c-.017.033-.041.05-.073.05h-1.275c-.066 0-.115-.033-.147-.1l-2.55-4.918c-.032-.065-.081-.098-.146-.098-.067 0-.116.033-.148.098l-2.547 4.919z" fill="#004580"/></svg>