<svg role="img" width="38" height="24" viewBox="0 0 38 24" aria-labelledby="pi-bca" xmlns="http://www.w3.org/2000/svg"><title id="pi-bca">BCA</title><path d="M35 0H3a3 3 0 00-3 3v18a3 3 0 003 3h32a3 3 0 003-3V3a3 3 0 00-3-3z" opacity=".07" style="isolation:isolate"/><path d="M35 1a2 2 0 012 2v18a2 2 0 01-2 2H3a2 2 0 01-2-2V3a2 2 0 012-2h32" fill="#fff"/><g clip-path="url(#pi-bca-clip0)" fill="#039"><path d="M8.306 7c1.467.005 2.981.355 4.541 1.048l.073.031.027.073v.005a13.337 13.337 0 01.545 2.306c.072.5.113 1.003.123 1.508v.592c-.034 1.3-.26 2.587-.668 3.821l-.026.074-.073.032c-1.474.652-2.953.974-4.426.974h-.116v-.359h.115c1.4 0 2.806-.3 4.21-.91.611-1.895.78-3.79.506-5.686a12.653 12.653 0 00-.216-1.12c-.079-.348-.179-.701-.292-1.048-1.488-.65-2.93-.978-4.323-.983V7zM3.984 8.053A9.306 9.306 0 018.274 7h.032v.358h-.033a8.948 8.948 0 00-4.068.984c-.531 1.263-.831 2.548-.847 3.858-.015 1.311.247 2.632.842 3.99 1.369.594 2.737.9 4.106.915v.358c-1.438-.016-2.875-.337-4.313-.973l-.095-.09c-.606-1.369-.893-2.716-.898-4.037v-.169c.016-1.373.337-2.725.9-4.052l.084-.09z"/><path fill-rule="evenodd" clip-rule="evenodd" d="M8.4 15.153c-.073-1.005-.026-2.053-.326-3.011-.28-.895-1.337-1.405-1.358-2.39a1.62 1.62 0 011.658-1.656c1.023-.005 1.663.742 1.736 1.574.09.963-1.079 1.608-1.383 2.526-.318.936-.227 1.972-.327 2.957z"/><path fill-rule="evenodd" clip-rule="evenodd" d="M8.806 14.91c-.043-.876-.043-1.71.2-2.452.267-.842.826-1.553 1.68-1.784.585-.158 1.443.526 1.306 1.226-.116.563-.68 1.226-1.585 1.3-.42.037-.6.374-.862.568 1.178-.115 1.941-.579 2.473-1.063.08.41.132 1.097-.19 1.337-.631.448-1.215.085-1.957.293-.418.121-.677.386-1.065.576zM8 14.91c.048-.876.042-1.71-.194-2.452-.27-.842-.827-1.553-1.682-1.784-.582-.158-1.443.526-1.303 1.224.116.563.679 1.226 1.584 1.3.416.037.6.374.863.568-1.184-.114-1.942-.577-2.473-1.06-.08.41-.132 1.096.189 1.336.631.448 1.216.085 1.958.293.416.121.668.386 1.058.576zM10.806 16.21v-.141l.105-.027-.105-.158v-.263l.473.658-.169.042-.115-.163-.19.052zm0-.589v.263l-.074-.105-.031.316.105-.026v.142l-.121.026-.021.194-.168.043.106-.858.168-.042.033.047h.002zm-1.57 1.047v-.137h.037a.671.671 0 00.111-.015.103.103 0 00.074-.105.115.115 0 00-.027-.064.09.09 0 00-.052-.031.6.6 0 00-.142 0v-.137c.042 0 .069-.005.079-.005a.127.127 0 00.063-.037.064.064 0 00.016-.063.067.067 0 00-.027-.058.072.072 0 00-.062-.026.44.44 0 00-.07.005v-.137a.44.44 0 01.127 0 .223.223 0 01.158.084.256.256 0 01.032.095.19.19 0 01-.1.184.21.21 0 01.12.063c.032.031.05.072.053.116a.38.38 0 01-.016.11.264.264 0 01-.062.09.332.332 0 01-.106.048c-.026.005-.095.01-.195.02h-.01zm.996-.438l.163.02a.315.315 0 01-.285.316.367.367 0 01-.278-.063.492.492 0 01-.107-.608.356.356 0 01.247-.158.34.34 0 01.253.047.273.273 0 01.105.132l-.152.063a.171.171 0 00-.074-.084.177.177 0 00-.19.01.194.194 0 00-.057.059.305.305 0 00-.02.215c.009.077.042.148.094.206a.177.177 0 00.152.041.18.18 0 00.1-.063.246.246 0 00.049-.136v.003zm-.995-.366v.137c-.021 0-.043.005-.069.005l-.094.01.015.184.111-.01a.09.09 0 00.037-.005v.137h-.005l-.127.01.016.22.116-.012v.137l-.263.026L8.9 15.9l.32-.026a.022.022 0 01.008-.004c.003-.001.006-.002.009-.001l-.001-.004zm-1.016.531v-.136c.025 0 .05-.003.073-.011a.119.119 0 00.052-.037.137.137 0 00.017-.063.087.087 0 00-.022-.073.097.097 0 00-.063-.038c-.016 0-.032-.005-.058-.005v-.136a.48.48 0 01.153.015.2.2 0 01.116.079.227.227 0 01.042.158.312.312 0 01-.027.126.345.345 0 01-.068.08.727.727 0 01-.09.036.88.88 0 01-.125 0v.005zm0-.5v.137h-.063l-.08-.005v.232h.143v.136h-.146l-.006.305-.163-.005.016-.804.258.005h.04zm-1.52.422v-.253a.39.39 0 00.094.011.1.1 0 00.052-.026.141.141 0 00.027-.058.104.104 0 00-.01-.069.102.102 0 00-.058-.042.876.876 0 00-.105-.02v-.14l.068.012a.596.596 0 01.18.052.18.18 0 01.078.095c.017.041.02.087.01.131a.212.212 0 01-.079.138.256.256 0 01-.168.046.347.347 0 01.073.08c.028.046.05.095.068.146l.069.174-.19-.038-.082-.193c-.01-.016-.016-.037-.026-.052l-.002.006zm.466-.506l.158.015-.037.439c-.005.068-.005.115-.005.131a.142.142 0 00.042.084.16.16 0 00.105.043c.035.006.072-.001.102-.02a.122.122 0 00.053-.063 1.39 1.39 0 00.016-.137l.036-.448.163.016-.036.421c0 .07-.011.14-.032.206a.208.208 0 01-.158.151.352.352 0 01-.153.01.415.415 0 01-.174-.042.315.315 0 01-.09-.073.237.237 0 01-.036-.095 1.176 1.176 0 010-.206l.046-.432zm-1.279.236l.032-.131.342.09-.084.31a.356.356 0 01-.17.047.592.592 0 01-.194-.016.43.43 0 01-.2-.105.376.376 0 01-.1-.184.525.525 0 01.118-.426.382.382 0 01.385-.09.377.377 0 01.21.121.28.28 0 01.057.195l-.163-.013a.166.166 0 00-.037-.11.206.206 0 00-.105-.063.229.229 0 00-.18.02.308.308 0 00-.115.18.326.326 0 00.005.226.219.219 0 00.147.11c.034.009.07.012.105.01a.51.51 0 00.1-.026l.026-.1-.179-.047v.002zm.816-.326l-.274-.047-.14.795.157.026.058-.332.037.005a.478.478 0 01.08.021c.014.013.028.027.041.043.005.015.021.041.037.079v-.247c-.016 0-.032-.005-.052-.005l-.117-.021.032-.2.126.022H6.7l.004-.14zM31.784 14.737v-1.484h.653v-2.611l-.653 1.305V8.69h2.563L35 16.194h-2.563v-1.457h-.653zm0-6.048v3.258l-.652 1.306h.652v1.484h-1.231l-.506 1.379h-1.59V14.4l1.775-3.826h-.366l1.01-1.885h.908zm-3.326 2.5l.795-1.883-.795-.443v2.326zm-6.321-.72c.037-.208.037-.42 0-.627v.627zm6.32-1.609v2.33l-.105.252c-1.568-1.121-3.883-.1-4.015 1.084-.132 1.237.81 2.237 3.216 1.49l-.826 2.21c-3.174.353-4.405-.905-4.59-2.374v-.83c.049-.38.144-.751.285-1.106 1.563-3.885 4.1-3.011 5.063-3.084l.142-.432.831.463V8.86zm0 5.537l-.794 1.719h.795v-1.72zm-9.173 1.672c1.699-.337 3.369-2.38 1.699-4.006a2.241 2.241 0 001.157-1.594v-.627c-.115-.648-.615-1.174-1.557-1.19l-1.295-.026v1.444h.537c.573 0 .5 1.484-.22 1.484h-.32v1.135c.773.146.5 1.222 0 1.553v1.827zm2.851-3.048v.831c-.03-.276-.03-.555.002-.83h-.002zM17.042 8.58l-1.047 2.031.468-.036-1.263 5.542h3.616c.157 0 .314-.016.468-.047V14.24a.505.505 0 01-.292.1h-1.299l.432-1.668h.974c.061 0 .123.005.184.016v-1.136h-.904l.365-1.484h.543V8.626l-2.245-.047z"/></g><defs><clipPath id="pi-bca-clip0"><path fill="#fff" transform="translate(3 7)" d="M0 0h32v10.463H0z"/></clipPath></defs></svg>