<svg xmlns="http://www.w3.org/2000/svg" role="img" viewBox="0 0 38 24" width="38" height="24" aria-labelledby="pi-bcaklikpay"><title id="pi-bcaklikpay">BCA Klikpay</title><path fill="#000" opacity=".07" d="M35 0H3C1.3 0 0 1.3 0 3v18c0 1.7 1.4 3 3 3h32c1.7 0 3-1.3 3-3V3c0-1.7-1.4-3-3-3z"/><path fill="#fff" d="M35 1c1.1 0 2 .9 2 2v18c0 1.1-.9 2-2 2H3c-1.1 0-2-.9-2-2V3c0-1.1.9-2 2-2h32"/><path d="M4.362 12.754h-.636c.002-.095.121-.503.16-.66.056-.23.015-.18.558-.18.47 0 .592.404.282.692a.655.655 0 01-.364.148zm-.164-1.823l.077-.373c.017-.068.031-.117.046-.18.047-.208-.078-.164.635-.164.329 0 .293.546-.063.674-.18.065-.454.043-.695.043zm-1.763-.553h.307c0 .18-.294 1.195-.352 1.43l-.55 2.134c-.018.072-.085.204.02.204h2.625c.335 0 .792-.176 1-.31.598-.387.988-.973.854-1.726-.059-.33-.179-.556-.458-.71-.082-.045-.07-.025-.084-.08.175-.046.531-.373.665-.544.319-.407.452-.868.225-1.37a.74.74 0 00-.115-.191c-.073-.089-.073-.08-.155-.153-.194-.174-.565-.302-.928-.302H3.296c-.136 0-.231.225-.287.349l-.555 1.084c-.025.043-.136.185-.02.185zm11.172.164v1.413h-.594c.001-.077.225-.593.28-.723l.314-.69zm-1.886-.225c.126.029.257.02.41.02l-.717 1.413-.24.478-.42.83c-.02.04-.04.068-.065.119-.085.165-.159.318-.239.478-.05.1-.217.387-.225.491h1.865c.098-.186.252-.577.336-.79.102-.26.386-.05.92-.126.128-.018.167.007.261.015v.492c0 .125-.043.41.082.41h1.66c0-.476-.034-.901-.04-1.374-.001-.122-.022-.183-.021-.326 0-.13-.001-.233-.015-.334l-.026-.69c.001-.145-.02-.205-.021-.327l-.061-1.353c-.006-.118.002-.25 0-.37 0-.122-.022-.182-.02-.326 0-.113.033-.287-.083-.287h-2.46c-.083 0-.195.277-.242.352-.058.097-.618 1.113-.639 1.205z" fill="#243E8F"/><path d="M10.491 8.883c-.06 0-.278-.082-.45-.082-.535 0-1.043.124-1.415.287a3.511 3.511 0 00-1.616 1.396 3.712 3.712 0 00-.391.9c-.204.69-.11 1.515.31 2.08.229.308.62.606 1.008.715.175.049.27.083.464.11.563.078.8.043 1.33-.062.234-.047.192-.063.391-.51l.574-1.25-.56.26c-.51.223-1.107.202-1.543-.125-.201-.15-.377-.52-.377-.77 0-.759.639-1.433 1.435-1.433.514 0 .766.035 1.197.34.059.041.05.052.115.07l.8-1.455c0-.091-.711-.427-.828-.485-.099-.05-.232-.134-.3-.15-.019.028-.114.164-.144.164zm5.924 5.284c.065.005.073.02.144.02h.758c.168 0 .124-.126.124-.348v-.47c0-.357-.038-.61.184-.759l.275.402.278.418.418.627c.057.088.081.13.218.13h1.004c.151 0 .017-.141 0-.164l-1.172-1.695c-.034-.051-.055-.084-.093-.133-.14-.184-.1-.148.085-.395l1.16-1.507c.025-.034.082-.1-.02-.1h-1.046c-.078 0-.148.128-.188.182l-.626.869c-.056.074-.102.14-.154.215a3.86 3.86 0 01-.154.215c-.04.055-.13.19-.17.22l.002-1.538c.001-.087.02-.162-.063-.162-1.047 0-.968-.071-.964.183.02 1.21 0 2.576 0 3.79zm11.808-2.048h-.225v-1.086c0-.097.137-.061.39-.061.775 0 .669.85.389 1.024-.13.08-.342.123-.554.123zm-1.27-1.843v3.789c0 .055.009.056.02.102.193.045.676.02.902.02.063 0 .123-.019.123-.082v-1.208c.593 0 1.029.013 1.458-.284.694-.478.77-1.514.249-2.036-.243-.242-.636-.383-1.113-.383h-1.558a.079.079 0 00-.082.082zm-3.424-.246v4.137c.16.037.782.037.943 0l.02-.635c0-.104-.087-.553.144-.614.017.064.06.11.096.17.037.062.06.105.1.166l.52.833c.045.078.065.1.186.1.235 0 .788.025.984-.02-.027-.115-.195-.327-.263-.434l-.553-.84c-.097-.146-.189-.271-.27-.426.115-.172.735-.915.922-1.147.021-.026.164-.164.02-.164h-.902c-.173 0-.204.095-.304.228l-.457.609c-.06.079-.171.242-.243.29v-2.028c.002-.315.131-.246-.84-.246a.334.334 0 00-.103.02zm8.425 2.765c.106 0 .061.202.061.491 0 .122-.082.164-.163.206-.206.106-.593.144-.697-.083a.41.41 0 01.025-.384c.136-.183.533-.23.774-.23zm-1.558-1.557c0 .971-.102.778.438.622.322-.094.653-.14.98-.01.124.049.201.16.201.33-.21.018-.437.04-.647.07-.365.054-.797.138-1.025.43-.42.538-.178 1.59.77 1.59.345 0 .595-.138.826-.327.077-.063.076-.097.076.224.065.005.073.02.144.02.214 0 .61.024.8-.02 0-.36.019-2.051-.003-2.25a1.085 1.085 0 00-.158-.396c-.421-.562-1.532-.47-2.14-.35-.11.022-.17.046-.262.067zm3.711 2.827c0 .2-.41 1.065-.41 1.146 0 .047.014.062.061.062 1.102 0 .918.074 1.028-.223l.568-1.52c.036-.098.057-.176.097-.273.069-.17.13-.344.19-.506.069-.185.554-1.459.556-1.574-.19-.045-.64-.02-.86-.02-.148 0-.142.127-.229.386-.052.155-.093.321-.149.486l-.147.467a4.47 4.47 0 01-.073.235c-.013.039-.024.078-.04.124-.025.075-.003.062-.06.103l-.463-1.4c-.171-.511.028-.402-1.054-.402-.092 0-.075.063-.05.13l.692 1.83c.028.07.042.127.07.197l.273.752zm-13.858-3.933v3.933c0 .055.01.056.02.102.242.056.684.021.943 0V10.03c-.191-.045-.658-.02-.881-.02-.063 0-.082.06-.082.122zm1.661 1.045c-.053.225-.021 2.467-.021 2.888 0 .055.01.056.02.102.242.056.684.021.943 0v-2.99c-.137-.032-.83-.044-.943 0zm-.042-1.086v.615c0 .047.015.061.062.061h.902c.047 0 .061-.014.061-.061v-.615a.079.079 0 00-.082-.082h-.86a.079.079 0 00-.083.082z" fill="#243E8F"/></svg>