<svg xmlns="http://www.w3.org/2000/svg" role="img" viewBox="0 0 38 24" width="38" height="24" aria-labelledby="pi-bci"><title id="pi-bci">BCI</title><g clip-path="url(#pi-clip0_3326_8159)"><path opacity="0.07" d="M35 0H3C1.3 0 0 1.3 0 3V21C0 22.7 1.4 24 3 24H35C36.7 24 38 22.7 38 21V3C38 1.3 36.6 0 35 0Z" fill="black"/><path d="M35 1C36.1 1 37 1.9 37 3V21C37 22.1 36.1 23 35 23H3C1.9 23 1 22.1 1 21V3C1 1.9 1.9 1 3 1H35Z" fill="white"/><path fill-rule="evenodd" clip-rule="evenodd" d="M22.2401 13.4643C22.2401 13.4643 24.2694 14.0063 23.6298 16.8576C23.5887 17.01 23.5887 17.1633 23.6024 17.3303C23.6717 18.178 24.409 18.7902 25.2575 18.7208C26.1052 18.6506 26.7174 17.9142 26.6481 17.0657C26.5085 15.0775 22.7684 12.6577 22.2675 12.7133C22.2675 12.7133 21.9755 12.727 21.9609 13.1021C21.9609 13.4086 22.2401 13.4643 22.2401 13.4643Z" fill="#188C44"/><path fill-rule="evenodd" clip-rule="evenodd" d="M21.6129 14.4092C21.6129 14.4092 22.934 14.7568 22.5316 16.6209C22.5316 16.6209 22.1001 18.3728 19.2915 18.8455C16.1063 19.3738 16.1619 18.2058 16.1619 18.2058C16.1345 17.6219 15.9119 16.9266 19.0689 15.0077C19.0689 15.0077 20.6538 14.0342 21.6129 14.4092Z" fill="#F9D339"/><path fill-rule="evenodd" clip-rule="evenodd" d="M11.0036 19.1789C11.0319 20.0823 11.6989 20.8332 12.5886 20.9728C12.7144 20.9865 12.8394 21.0002 12.9645 21.0002C13.4654 20.9865 13.938 20.7639 14.2711 20.4025C14.6196 20.0266 14.7857 19.554 14.772 19.0539C14.772 17.6908 15.3842 16.6753 16.6215 15.7299C17.7346 14.9097 19.3333 13.9087 21.5724 12.6569C24.3672 11.1687 26.1747 9.4168 26.578 7.99799L26.5926 7.95689C26.6482 7.77536 26.6619 7.59469 26.6482 7.41402C26.62 6.51068 25.953 5.75974 25.0625 5.62017C24.9374 5.60647 24.8124 5.59277 24.6874 5.59277C24.1865 5.60647 23.7139 5.8291 23.3799 6.19044C23.0323 6.56548 22.8653 7.03898 22.879 7.53904C22.879 8.97155 22.0176 9.91685 20.8488 11.03C18.3597 12.9762 16.0658 13.9361 16.0658 13.9361C13.2701 15.4243 11.4626 17.1762 11.0593 18.595L11.0456 18.6361C11.0173 18.8167 10.9899 18.9974 11.0036 19.1789Z" fill="#DB3942"/><path fill-rule="evenodd" clip-rule="evenodd" d="M13.965 5.77366C14.1183 8.30388 17.622 11.2391 19.7918 12.4207C20.3757 12.7401 21.0993 12.824 21.405 12.7264C22.3922 12.2812 21.3356 11.8924 21.3356 11.8924C21.3356 11.8924 17.9286 10.9608 19.0271 6.16325C19.0828 5.91237 19.1102 5.64864 19.0965 5.37036C18.9852 3.96611 17.7479 2.90864 16.3291 3.00625C14.9248 3.11756 13.8537 4.35485 13.965 5.77366Z" fill="#3366A1"/></g><defs><clipPath id="pi-clip0_3326_8159"><rect width="38" height="24" fill="white"/></clipPath></defs></svg>
