<svg width="38" height="24" role="img" viewBox="0 0 38 24" version="1.1" xmlns="http://www.w3.org/2000/svg" aria-labelledby="pi-bdc"><title id="pi-bdc">Banco di Caribe</title><path opacity=".07" d="M35 0H3C1.3 0 0 1.3 0 3v18c0 1.7 1.4 3 3 3h32c1.7 0 3-1.3 3-3V3c0-1.7-1.4-3-3-3z"/><path fill="#fff" d="M35 1c1.1 0 2 .9 2 2v18c0 1.1-.9 2-2 2H3c-1.1 0-2-.9-2-2V3c0-1.1.9-2 2-2h32"/><path d="M23.218 16.992l.066-.058c.08-.07.14-.06.18-.013a.189.189 0 01.04.144l-.125.11-.16-.183zm.246.28l.064-.055c.086-.076.158-.096.21-.037.056.064.042.132-.036.2a.451.451 0 01-.09.061l-.148-.169zm-.462-.244l.55.627c.067-.03.18-.103.26-.174.15-.13.192-.295.081-.422a.222.222 0 00-.264-.06.212.212 0 00-.037-.225c-.097-.11-.253-.082-.391.039a1.474 1.474 0 00-.2.215m-4.001.96c.832 0 1.624-.17 2.343-.477l-5.735-.577A5.96 5.96 0 0019 17.987m3.82-1.378l-6.838.232 5.597.564a5.987 5.987 0 001.242-.796m-7.487.125l7.644-.26a6.05 6.05 0 00.54-.546l-3.27-.106-5.257.625c.11.1.225.195.343.287m-.468-.403l4.525-.537-1.4-.046-.075.006v-.008l-3.68-.12c.192.252.402.488.63.705m9.124-1.022l-4.774.35 4.41.143c.13-.158.25-.323.364-.493m-1.383 1.982l.503.714.152-.108-.503-.714-.152.108zm-.41.728l-.137-.244.054-.03c.123-.069.179-.037.213.024s.026.123.005.174l-.136.076zm-.356-.255l.417.75.163-.09-.162-.292.086-.048.34.193.2-.11-.421-.211c.042-.066.083-.179.022-.287-.086-.156-.262-.152-.422-.063-.098.054-.149.098-.223.158m-.409.484l.2.232-.192.075-.008-.307zm-.03-.314l-.188.074.06.062.003.853.172-.067-.005-.16.281-.11.104.121.19-.074-.616-.7zm-1.174.813c.06.25.285.39.562.324a.457.457 0 00.248-.128l-.042-.178a.4.4 0 01-.247.15c-.151.035-.296-.071-.333-.225a.278.278 0 01.21-.348.433.433 0 01.272.018l-.043-.178a.569.569 0 00-.276.009c-.266.064-.413.297-.35.556m-.725-.365l-.186.012.056.872.186-.012-.056-.872zm-1.01.735l.03-.6.063.004c.203.01.31.128.301.325-.008.169-.12.296-.297.287-.036-.001-.065-.01-.096-.016m-.153-.724l-.04.836c.088.026.174.048.282.053.29.014.487-.162.5-.428.014-.292-.16-.463-.456-.477-.114-.005-.19.005-.286.016m-1.345.153c.046-.172.162-.266.309-.226.146.039.2.177.154.35-.046.172-.162.265-.308.226-.148-.04-.2-.178-.155-.35m-.19-.05c-.07.262.052.482.305.55.253.067.468-.063.538-.326.07-.264-.051-.483-.304-.55-.254-.068-.468.06-.538.325m-.891-.37c-.103.236-.009.484.254.598a.456.456 0 00.275.046l.073-.167a.4.4 0 01-.287-.03c-.143-.062-.194-.234-.131-.378a.278.278 0 01.377-.153c.095.041.15.092.207.18l.073-.17a.572.572 0 00-.226-.159.45.45 0 00-.615.233m-.65-.775l-.403.646.14.088.293-.47.083.704.088.054.463-.742-.143-.088-.266.427-.072-.638-.202-.125.018.144zm-.578-.216l-.107.287-.159-.133.266-.154zm.08-.224l-.746.411.141.119.137-.08.232.193-.056.149.155.13.318-.875-.155-.13-.026.083zm-.844-.416l.18-.164.059.064c.073.08.062.139.017.18a.19.19 0 01-.143.044l-.113-.124zm-.038.15c.077.085.1.157.04.21-.061.057-.13.045-.2-.032a.447.447 0 01-.063-.088l.166-.152.057.062zm.177-.53l-.615.564c.03.066.107.177.18.257.134.146.299.185.424.071.079-.073.094-.168.053-.265.07.025.154.023.225-.042.108-.1.077-.255-.048-.39a1.464 1.464 0 00-.219-.195m6.897-6.662l.33.385-.363-.014.033-.371zm-5.656 2.336a.85.85 0 00-.008-.17 2.353 2.353 0 00.406-.169.846.846 0 00.165-.105.935.935 0 00.272-.322l.106.617-.004.008H16.2l.03.035a1 1 0 01-.015.032l-.012.028a.976.976 0 01-.312.222.292.292 0 00-.05.025 1.15 1.15 0 01-.22.098l-.066.023a1.34 1.34 0 00-.167.075.948.948 0 00-.138.089.58.58 0 01.002-.227.273.273 0 01.014-.052l.018-.062a.768.768 0 00.022-.145m9.42.212a5.697 5.697 0 01-.748 2.827h-2.601l.14-.15c.123-.131.25-.266.376-.393l.06-.056a4.285 4.285 0 00.175-.167c.09-.09.16-.17.224-.25.07-.09.14-.189.182-.311l.002-.009a.614.614 0 00-.024-.298 4.497 4.497 0 00.813-.912l-.079-.057a4.718 4.718 0 01-.51.52c-.18.157-.374.301-.58.428-.08.054-.165.106-.255.154l.004-.006c.08-.11.144-.233.198-.376a.97.97 0 00.057-.44l-.002-.018a.304.304 0 00-.005-.042.288.288 0 00-.016-.047l-.005-.011a.917.917 0 00-.046-.093c.058-.014.117-.03.177-.051l.113-.04-.109-.05a1.927 1.927 0 00-.154-.063 1.143 1.143 0 00.136-.243c.062-.147.091-.307.085-.464a1.327 1.327 0 00-.103-.447.299.299 0 00-.048-.09 1.697 1.697 0 00-.127-.16l.076-.03.094-.042-.092-.047c-.056-.027-.111-.048-.165-.069l-.022-.008-.95-.02a4.23 4.23 0 01-.113-.003h-.01l-.003.001.035-.392 1.147.031.028-.007c.063-.018.129-.035.195-.06l.115-.041-.113-.049a1.99 1.99 0 00-.195-.07l-.016-.006-.434-.014.003-.008h-.022l-.558-.652-.064-.074.003-.042v-.06c.001-.2.002-.407-.002-.612l.035-.068-.036.02v-.006l-.01-.424-.087.415-.015.075a1.196 1.196 0 01-.225.088c-.019.004-.033.013-.044.02l-.011.006a1.933 1.933 0 01-.47.144l-.104.016v.048a1.927 1.927 0 00-.1-.04l-.022-.038.009-.014-.018-.001-.534-.945.018-.308a31.71 31.71 0 00-.017-.887l.008-.052-.036.043-.07-.005-.008.062-.003.022a3.612 3.612 0 01-.308.135.258.258 0 00-.053.027l-.02.011a1.942 1.942 0 01-.131.063 3.965 3.965 0 01-.565.185l-.095.02.012.718h-.003l.003.003.004.235.133-.022c.031-.005.063-.01.094-.017l.008.007v-.008a2.864 2.864 0 00.504-.153l.01-.004a.83.83 0 00.267-.165l.018-.016-.006.105-.35.432a5.56 5.56 0 01-.095.116l-.005.005-.051.085-.028.047a7.323 7.323 0 00-.11.191l-.023-.001-.019.001c-.074.016-.152.032-.23.056l-.121.037.116.054c.074.033.148.059.225.085l.014.003.143.008.08.005.387.025-.03.503-.413-.034-.14-.141.007-.016-.027-.003-.608-.61.031-.355V8.19a18.273 18.273 0 00-.01-.57l.056-.072-.058.027v-.02l-.017-.36-.08.351-.018.082-.01.005a2.48 2.48 0 01-.308.116.204.204 0 00-.052.022l-.016.008a2.8 2.8 0 01-.615.18l-.1.016-.01.865h.121a1.3 1.3 0 00.108-.004l.006.007v-.007a1.782 1.782 0 00.285-.047l-.002.001-.149.124-.09.078-.015.013-.16-.015a6.491 6.491 0 01-.14-.014h-.007l-.014.002a2.184 2.184 0 00-.22.05l-.117.034.11.055c.069.036.139.063.206.09l.02.005.138.012.077.007.434.04a.646.646 0 00.123.018c.02.002.041.003.064.007l.125.012-.012.131-.04-.007-.036-.006c-.024-.005-.048-.01-.073-.013a1.347 1.347 0 00-.11-.008l-.788-.074-.006-.014-.01.013-.246-.023.069.177.02.055-.009.011.015.002a7.7 7.7 0 01.169.495c.023.078.052.18.07.282a.79.79 0 01.016.128c0 .037-.004.083-.01.137a3.103 3.103 0 01-.15.616l-.051-.3-.013-.046c-.048-.17-.098-.346-.154-.519l-.104-.323.009.34c.004.138.011.277.019.398a3.669 3.669 0 01-.269.279 1.066 1.066 0 01-.186.162 1.887 1.887 0 01-.426.19v-.001l-.002.001a1.17 1.17 0 01-.103.03l-.123.032.04.12a.534.534 0 01.022.201.541.541 0 01-.015.101l-.013.042a.814.814 0 00-.03.369c.013.08.032.152.059.222l-.011.028.022-.002a.612.612 0 00.01.024l.113.245.102-.252.002-.005a.22.22 0 01.019-.025h.006l-.002-.005.001-.002a.69.69 0 01.165-.123 1.17 1.17 0 01.138-.061l.057-.02a1.44 1.44 0 00.103-.038c.05-.02.1-.045.146-.069l.017-.009c.027-.013.048-.032.067-.049l.014-.012a1 1 0 00.197-.231l.052-.012.073.429-.057.121a3.87 3.87 0 00-.137.339l-.02.112c-.014.082-.028.165-.04.247-.043.27-.072.496-.09.709a5.263 5.263 0 00-.02.36 1.98 1.98 0 00.022.376.776.776 0 00.046.154l.004.01.016.033c.008.017.016.03.025.046h-2.087A5.725 5.725 0 1124.724 12m-8.491 2.212c0-.066.004-.138.01-.222l.053.01.01.002.01-.002a3.005 3.005 0 01.247-.04l-.029.097.016.034a.114.114 0 01.004.024.323.323 0 01-.016.121.553.553 0 01-.038.086v.001a.787.787 0 01-.053.084l-.08.11.12.065a.164.164 0 01.044.035c.009.01.014.02.015.03a.04.04 0 010 .012l-.035.147-.006.021h-.12l-.004-.006-.004-.007a.973.973 0 01-.091-.161l-.006-.012a.552.552 0 01-.028-.1c-.02-.11-.02-.228-.02-.329m.168-1.453v-.221l.11.649a3.286 3.286 0 00-.178.037l.008-.048c.02-.124.037-.235.059-.345v-.072zm.201.96a5.767 5.767 0 00-.332.05l-.008.002.037-.306.013.003.012.002.012-.003a2.076 2.076 0 01.215-.048l.051.3zm.022-1.273l.01.018.007.01-.01.013-.007-.041zm.007.043l.024.01c.114.194.226.398.332.608l-.009.002-.068.01a4.32 4.32 0 00-.167.027l-.112-.657zm.068 1.962a.48.48 0 00.024-.045l.043.151a.3.3 0 00-.067-.106m.05.376l.027-.118a.279.279 0 000-.114l.072.232h-.1zm.127-.904l.177-.018.045-.004c.034-.004.068-.007.103-.009h.01l.014-.007c.029-.016.06-.03.09-.048l.04.11c.023.066.043.135.06.195l.004.013c.018.059.037.12.05.18.027.115.05.25.022.366a.745.745 0 01-.047.126h-.471a16.642 16.642 0 00-.024-.47l-.073-.434zm.135-.58h.013l.01-.009.048-.035c.064.134.12.258.168.375l-.05-.016-.01-.003-.01.001-.088.009-.062.006-.194.02-.053-.314.114-.018.035-.005c.026-.004.052-.008.079-.01m4.871-.481c-.046.12-.102.228-.168.32a.92.92 0 01-.178.186l-.002.001a1.03 1.03 0 00-.482-.213 1.014 1.014 0 00-.157-.012h-.011a.42.42 0 01-.02 0h-.047c-.02.003-.039.008-.059.012l-.015.004c-.036.009-.077.02-.118.035l.088-.982.088.032.015.003a5.517 5.517 0 01.203.008l.88.04a.853.853 0 01.018.139v.018a.344.344 0 00.006.057.738.738 0 01-.04.352m-1.033-2.168l.012.005.008.003h.014l.108.001.91.02a1.39 1.39 0 01.084.228.302.302 0 00.026.072c.051.12.081.246.087.367a.854.854 0 01-.067.365.97.97 0 01-.135.228 1.449 1.449 0 00-.2-.148.926.926 0 00-.361-.138 1.519 1.519 0 00-.25-.023h-.023a.362.362 0 00-.106.01 1.469 1.469 0 00-.201.06l.094-1.05zm-.108 1.204c.078-.003.157 0 .227.007l.012.001a.318.318 0 00.08.003 1.325 1.325 0 01.233.02.705.705 0 01.281.107l.018.011-.635-.029a5.736 5.736 0 01-.131-.007h-.008l-.007.002-.083.022.013-.137zm-.477-3.004a2.023 2.023 0 00.452-.153.149.149 0 00.047-.027 1.28 1.28 0 00.073-.069l-.066.364-.01.05a3.8 3.8 0 00-.074.015l-.06.013a.137.137 0 00-.049.017c-.018.01-.038.018-.057.026l-.028.013a.794.794 0 01-.222.06l-.006-.309zm-1.015.712l.496.016.3.007.079.001c.037.027.071.06.104.1l-.084.117.121-.068a1.103 1.103 0 01.143.302 1.599 1.599 0 01.07.432c.002.048.001.095-.003.14v.01c-.009.093-.017.18-.043.267a1.197 1.197 0 01-.11.257 1.408 1.408 0 01-.29.358 1.762 1.762 0 00-.469-.336 1.419 1.419 0 00-.4-.125l.086-1.478zm-.245-2.162c-.054.02-.102.045-.148.07-.04.02-.076.04-.115.055a2.129 2.129 0 01-.414.129l-.009-.49A3.489 3.489 0 0019 6.955a.266.266 0 00.058-.034 2.598 2.598 0 00.167-.146c-.03.213-.057.42-.08.601a3.11 3.11 0 01-.14.069m.13 4.143l.015-.268a1.187 1.187 0 01.312.101 1.495 1.495 0 01.323.216l-.65-.049zm1.339.66a1.225 1.225 0 00-.12-.29l-.006-.009a1.052 1.052 0 00-.092-.093l.087-.012.17-.027-.04.432zm.151 1.113c.041.001.084.005.13.011l.067.01h.008l.032-.001.025-.001h.01a.763.763 0 01.45.143l.031.023a3.41 3.41 0 01-.54.133l-.06.01-.16.302-.122.004c.041-.202.077-.403.111-.596l.003-.038h.015zm.048-3.327l-.021.243a1.733 1.733 0 00-.096-.279l.036.008.013.003c.023.01.046.017.068.025m-.144 1.27a1.69 1.69 0 00.036-.069l-.05.566-.165-.052a3.5 3.5 0 00-.145-.042 1.613 1.613 0 00.324-.403m-.043-1.44a1.081 1.081 0 00-.083-.123l-.021-.025c.04-.023.083-.047.127-.074l.053-.033c.038-.023.078-.046.115-.073l.006-.005.04-.037-.031.339a4.75 4.75 0 00-.206.032m-.112 4.134l-.602.018-.119-.257c.059-.008.12-.022.186-.042l.009-.003a1.45 1.45 0 00.278-.19 1.16 1.16 0 00.263-.341l-.018.198c0 .198-.001.408.003.617m-2.38-2.496a4.77 4.77 0 01.287-.09 2.81 2.81 0 01.61-.108h.024l-.015.266-.907-.068zm.178.752a.652.652 0 00-.006-.106.821.821 0 00-.189-.41l.909.067-.054.92.006.3.001.114-.028-.073-.792-.301a.682.682 0 00.031-.03l.006-.006.004-.008a1.085 1.085 0 00.104-.37l.004-.043.004-.054zm-1.173-3.67a1.297 1.297 0 01-.12.014l.004-.424a2.778 2.778 0 00.596-.187.204.204 0 00.056-.03 1.943 1.943 0 00.18-.154l-.069.356-.02.218-.152.048a.799.799 0 00-.167.06c-.026.012-.052.024-.08.035a1.145 1.145 0 01-.228.063m.188.448l.094-.04a.266.266 0 00.046-.028l.014-.01.247-.151-.024.264-.377-.035zm.469 2.684a1.052 1.052 0 00-.087-.036l.002-.03.078.023.002.004c.01.017.018.033.026.05a.925.925 0 00-.021-.011m-.117.296l.012-.134a1.571 1.571 0 01.316.117.528.528 0 01.07.251l-.007.08a.982.982 0 01-.082.294l-.004.008v.01a.76.76 0 01-.008.058l-.401-.153c.039-.184.074-.373.104-.531m-.234-.016c.001.176.003.338.008.501l-.498-.19-.014-.024-.012.015-.204-.078-.064-.375c.089-.015.17-.026.245-.032a2.23 2.23 0 01.417 0c.023.002.046.006.07.01l.066.01-.014.163zm-.497-1.539a1 1 0 00-.02-.17 3.187 3.187 0 00-.077-.306 7.263 7.263 0 00-.136-.404l.676.063.042.005.067.007.075.001.077.001-.17 1.917-.011.002.01.003-.001.022a.486.486 0 00-.099-.015 2.445 2.445 0 00-.496-.005 3.047 3.047 0 00-.23.03c.054-.133.1-.256.138-.374.074-.233.12-.427.143-.61.005-.05.01-.104.012-.167m1.127-1.345l-.026-.01-.11-.013.02-.229.267.267-.151-.015zm.172.792a.86.86 0 01.01.53c-.045.176-.12.355-.22.532-.09.155-.194.3-.302.422l.154-1.733c.07 0 .141 0 .212-.002h.007a.909.909 0 01.14.25m.282.257a1.038 1.038 0 00-.061-.336 1.14 1.14 0 00-.163-.3l.85.07-.087 1.476h-.049a3.1 3.1 0 00-.662.116 4.77 4.77 0 00-.226.07 2.433 2.433 0 00.353-.763c.032-.117.047-.23.045-.333m.682-1.549l-.06.005-.353-.022.089-.08.04-.038.072-.067.004-.006c.03-.04.062-.078.094-.117l.144-.177-.03.502zm.049 3.213l.86.063.075-.008a.99.99 0 01.089.188l.004.01c.045.074.08.159.103.253.042.172.04.365-.003.558a.897.897 0 01-.28.46c-.067.06-.145.114-.23.158l-.009.006a1.433 1.433 0 01-.145.104l-.601-.103-.016-.041c.021-.148.04-.297.06-.445l.04-.291.053-.912zm.187-3.207l.028-.477.28.495-.308-.018zm.702.238a.884.884 0 00.019-.005v.04l-.019-.035zm.02.04l.01.546.11.005a.85.85 0 00.118-.004l.008.01v-.01a1.146 1.146 0 00.208-.044l-.052.066a3.782 3.782 0 01-.059.074c-.2-.03-.407-.06-.613-.088l-.497-.066.03-.514.511.033.075-.016.15.008zm-.768 5.287l-.1-.07a2.18 2.18 0 00-.193-.116l-.018-.008a5.318 5.318 0 01-.133-.03l-.076-.018-.839-.195-.216-.05h-.007c-.058.003-.11.006-.164.012a6.669 6.669 0 00-.129-.308l.789.19.06.014.106.027.008.002.016-.002a1.53 1.53 0 00.182-.027l.094-.023-.073-.062a1.541 1.541 0 00-.155-.112l-.008-.004-.009-.002-.105-.025-.06-.015-.842-.203-.008.001-.101.013a8.41 8.41 0 00-.283-.542l1.632.62.183.474.612.104.2.43 1.138-.035.168-.32a3.792 3.792 0 001.026-.34c.116-.06.227-.124.332-.193l.07-.051a.528.528 0 01-.045.097l-.005.01a.81.81 0 01-.142.24 2.72 2.72 0 01-.206.23 4.39 4.39 0 01-.113.11l-.051.048-.07.064-.125.128-.252.067a3.608 3.608 0 01-.462.088l-.006.001a4.033 4.033 0 01-.455.094 3.548 3.548 0 01-.925.037 8.256 8.256 0 01-.932-.137 13.42 13.42 0 01-.462-.101l-.427-.046a1.875 1.875 0 00-.094-.35l.04.022 1.135.266.135.033.007.001h.014c.072-.004.147-.008.224-.02l.12-.018zm-1.624.645a.724.724 0 00.068-.309c0-.043-.002-.089-.007-.138.122.054.243.101.349.141l.006.002c.16.038.32.072.47.102.37.073.674.118.959.141a3.783 3.783 0 00.979-.039 4.64 4.64 0 00.48-.097l.007-.002c.139-.057.3-.128.442-.23l.198-.14-.24.254-.29.311-.002.004h-3.419zm6.44.346a5.987 5.987 0 10-9.94.321l3.85.125 6.09-.446zm.205 1.836l.33-.37-.079-.143-.241.272-.162-.144.157-.177-.077-.134-.19.214-.157-.14.195-.22-.077-.136-.353.397.654.58zM26.642 12a7.642 7.642 0 11-15.284 0 7.642 7.642 0 0115.285 0m.262 0a7.905 7.905 0 10-15.81 0 7.905 7.905 0 0015.81 0" fill="#F68B1F"/></svg>
