<svg xmlns="http://www.w3.org/2000/svg" role="img" viewBox="0 0 38 24" width="38" height="24" aria-labelledby="pi-bdo"><title id="pi-bdo">BDO</title><path fill="#000" opacity=".07" d="M35 0H3C1.3 0 0 1.3 0 3v18c0 1.7 1.4 3 3 3h32c1.7 0 3-1.3 3-3V3c0-1.7-1.4-3-3-3z"/><path fill="#fff" d="M35 1c1.1 0 2 .9 2 2v18c0 1.1-.9 2-2 2H3c-1.1 0-2-.9-2-2V3c0-1.1.9-2 2-2h32"/><g stroke-width=".017"><path d="M28.82 18.36l-.28-.036-.599-.122-.61-.184-.497-.2-.594-.301-.457-.286-.526-.393-.694-.692-.429-.581-.108-.13v-.048l-.173-.292-.218-.47-.219-.635-.14-.666-.03-1.043.068-.59.09-.36.09-.359.208-.525.339-.664.03-.028.27-.388.316-.39.489-.49.526-.42.525-.34.597-.307.648-.254.582-.167.725-.134.768-.065.83.034.47.06.68.136.846.277.737.36.467.282.541.401.57.546.416.498.38.581.298.608.19.553.159.637v1.633l-.13.58-.191.582-.353.726-.386.574-.446.531-.403.377-.415.332-.56.372-.671.34-.624.24-.608.17-.608.113-.497.056-1.107-.006zm1.68-1.433l.27-.071.488-.215.465-.305.422-.367.358-.43.314-.484.272-.568.097-.296.096-.296.111-.554.066-.756-.066-.781-.111-.553-.22-.66-.26-.53-.387-.58-.612-.61-.428-.293-.442-.222-.398-.135-.474-.092-.664-.002-.415.073-.488.16-.498.257-.34.248-.352.306-.376.448-.304.47-.205.41-.185.485-.167.683-.065.541.03 1.092.141.669.2.578.268.553.334.497.348.391.376.34.378.25.435.217.423.142.434.081.858-.019.27-.071z" fill="#fdb10d"/><path d="M2.931 18.024l-.012-.02-.034-6.25L2.85 7.15l4.065.006 3.04.042.527.119.526.171.547.28.407.323.252.318.185.332.14.398.095.488-.002.317-.001.318-.059.221-.058.222-.195.41-.24.338-.436.415-.346.222.016.048.595.208.418.199.459.299.398.374.309.466.046-.074v-3.225l.001-3.226h4.923l.714.057.72.104.664.147.845.28.815.4.497.33.415.334.506.523.34.457v.047l-.302.57-.232.581-.18.719-.07.59.03 1.043.142.665.218.635.219.47.173.293v.085l-.26.34-.412.46-.533.445-.534.353-.6.302-.553.218-.608.175-.672.136-.74.085-5.442.041-.07-.021v-1.64l-.047-.074-.26.388-.384.414-.401.305-.415.224-.664.222-.774.15-4.1.04-3.544.006zm6.888-1.522l.222-.062.47-.23.388-.393.152-.316.089-.347-.026-.61-.118-.328-.18-.297-.277-.284-.32-.207-.401-.167-.57-.116-3.78.037-.069.055v3.31l.04.038 4.149-.017zm8.602.047l.302-.03.536-.107.548-.187.519-.268.422-.318.334-.358.249-.35.194-.359.172-.435.134-.517.091-.654-.028-1.051-.117-.54-.171-.51-.25-.498-.271-.401-.344-.37-.404-.32-.393-.23-.504-.21-.47-.12-.415-.079-2.335-.061-.048.049-.04 7.93.299.02 1.697.01zM8.71 11.66l.213-.043.46-.218.323-.323.173-.342.082-.316v-.476l-.085-.329-.15-.304-.368-.37-.517-.25-.439-.113H5.48l-.088.033v3.058l.037.037h3.058z" fill="#0a2871"/></g></svg>