<svg viewBox="0 0 38 24" width="38" height="24" role="img" aria-labelledby="pi-beautyandmorecadeaukaart" version="1.1" xmlns="http://www.w3.org/2000/svg"><title id="pi-beautyandmorecadeaukaart">Beauty &amp; More cadeaukaart</title><path opacity=".07" d="M35 0H3C1.3 0 0 1.3 0 3v18c0 1.7 1.4 3 3 3h32c1.7 0 3-1.3 3-3V3c0-1.7-1.4-3-3-3z" fill="#000"/><path d="M35 1c1.1 0 2 .9 2 2v18c0 1.1-.9 2-2 2H3c-1.1 0-2-.9-2-2V3c0-1.1.9-2 2-2h32z" fill="#e1362a" fill-opacity="1"/><path d="M30.041 10.993a47.227 47.227 0 01-2.81 2.06c-2.083 1.4-4.003 2.59-6.542 3.013-5.022.84-9.013-2.214-12.732-5.076L15.1 8.16c.536-.113 1.248-.23 1.788-.116.912.187 1.451 1.51 2.602.983 1.21-.557 1.085-1.171 2.79-.992 2.685.673 5.158 2.026 7.757 2.96zm-4.363.65c-1.75.027-3.496.057-5.245.09-2.128.038-4.26.06-6.402.008-.197-.006-2.179-.23-2.179-.05 1.32.247 2.64.554 3.973.763 2.146.336 4.006.551 6.16 0l3.693-.805z" fill="#fccbbf"/></svg>