<svg width="38" height="24" viewBox="0 0 38 24" fill="none" xmlns="http://www.w3.org/2000/svg" role="img" aria-labelledby="pi-benefitpay"><title id="pi-benefitpay">Benefitpay</title><g clip-path="url(#pi-benefitpay-clip)"><path d="M35 .5H3A2.5 2.5 0 00.5 3v18A2.5 2.5 0 003 23.5h32a2.5 2.5 0 002.5-2.5V3A2.5 2.5 0 0035 .5z" stroke="#000" stroke-opacity=".07"/><rect x="1" y="1" width="36" height="22" rx="2" fill="#fff"/><path d="M16.155 6.023h1.966l.9.023v.046h.166l.118.137-.047.092-.095.023-.023.091.094.184.095.023.047.068v.07l.095.045.119.115.07.045.119.253.071.229v.068h-.047v.07l.07.022-.023.046.024.069-.024.023.071.023.024.068-1.421.023h-.592l-.024.206-.142.596-.071.344-.237 1.123-.047.092-.024.16 2.723-.023.403-.069.38-.114.354-.184.237-.206.095-.137.142.046.024.229v.16h.165l.166.046.166.137.047.115.119.046.024.091.07.07-.023.137.047.069h.071l.095.022.024.115-.45.275-.166.092-.118.114-.45.252-.64.367-.45.252-.734-.023h-2.7l-.142.55-.26 1.192-.072.275-.047.229-.047.092-.308.183-1.256.71-.829.482H14l.118-.596.214-.963.284-1.306.213-1.008.166-.734.308-1.443.331-1.536.355-1.604.166-.779z" fill="#EE3940"/><path d="M16.179 6h5.234l.545.046.379.091.402.138.356.183.308.23.213.229.19.298.165.366.095.39.024.137v.505l-.072.412-.142.481-.166.367-.213.367-.213.275-.26.275-.308.206-.592.344-.048-.023.38-.23.236-.137-.024-.115-.118-.023-.047.023-.048-.137.024-.115-.071-.068v-.07l-.119-.022-.07-.138-.143-.114-.236-.046-.095-.023-.024-.16v-.138l-.024-.091-.118-.046-.047.091-.166.184-.237.16-.355.16-.474.115-.19.023h-2.723v-.16l.07-.207.214-1.008.142-.642.119-.504.592-.023 1.397-.023v-.046l-.095-.022.024-.046-.024-.069.024-.023-.047-.023v-.069h.047l-.142-.412-.047-.069v-.069l-.119-.045-.118-.138-.048-.023-.047-.137-.119-.023-.094-.184.047-.114.071-.046.048-.046-.095-.091v-.046h-.166l-.095-.023-.805-.023-1.942-.023V6z" fill="#F3986D"/><path d="M23.166 11.73l.095.045.118.23.142.412.071.366v.505l-.095.527-.142.458-.19.412-.189.321-.236.321-.261.298-.379.367-.308.229-.474.275-.402.183-.474.16-.379.092-.426.07-.592.045h-4.169l-.805-.023.095-.092.52-.298.427-.252.948-.55.663-.39.45-.251.118-.07 2.108-.022.45-.069.426-.137.356-.207.094-.045v-.046l.119-.115.166-.183.165-.275.119-.298.07-.344v-.343l-.047-.138v-.115l.119-.091.26-.138.948-.55.45-.252.07-.023z" fill="#EE3A40"/><path d="M18.926 7.88h1.492l.64.045.308.069.26.137.142.16.072.161.023.32-.07.368-.143.366-.166.252-.237.23-.331.183-.332.114-.355.07-.308.022h-2.51v-.16l.165-.734.119-.55.165-.779.072-.252.994-.023z" fill="#FEFEFE"/><path d="M15.326 9.85h.048v.436l-.024.183.024.069.023.32h.071l.048-.045.07.045v.046h.096l.07.069v-.046l.072.023.047.115.024.046.095.022.023-.068.095.068.024.023.07.092v.046h.095v.046l.119.046.047.091v.069l.095.137.07.23v.091h.048l-.023-.091.07.022.048.07-.047.022.023.046-.023.046.236.046.024.023.237.022v.023h-.213l-.095.39-.308 1.398-.07.275-.048.23-.047.09-.308.184-1.256.71-.829.482H14l.118-.596.214-.963.284-1.306.213-1.008.166-.733.308-1.444.023-.092zM19.637 15.098l.095.023-.19.046-.047.16.023.16v.023h.119l.166.115.094.092.048.023.023.183.095.115.024.114-.071.023-.024.206-.024.069-.023.092.023.114h.095l.024.069h.166v.069l.07.023v.046l-.26.068-.426.069-.592.046h-4.169l-.805-.023.095-.092.52-.298.427-.252.948-.55.663-.39.45-.251.07-.046 2.203-.023.19-.023z" fill="#B72C64"/></g><defs><clipPath id="pi-benefitpay-clip"><path fill="#fff" d="M0 0h38v24H0z"/></clipPath></defs></svg>