<svg xmlns="http://www.w3.org/2000/svg" role="img" viewBox="0 0 38 24" width="38" height="24" aria-labelledby="pi-bestbuycard"><title id="pi-bestbuycard">Best Buy Card</title><g clip-path="url(#pi-a)"><path d="M34.99.99h-32a2 2 0 0 0-2 2v18a2 2 0 0 0 2 2h32a2 2 0 0 0 2-2v-18a2 2 0 0 0-2-2Z" fill="#fff"/><path opacity=".07" d="M34.99.99c1.1 0 2 .9 2 2v18c0 1.1-.9 2-2 2h-32c-1.1 0-2-.9-2-2v-18a2 2 0 0 1 2-2h32Zm0-.99h-32C1.33 0 0 1.34 0 2.99v18c0 1.65 1.35 3 3 3h32c1.65 0 3-1.35 3-3v-18A3 3 0 0 0 35 0h-.01Z" fill="#000"/><circle cx="11" cy="8" r="1" fill="#0046BE"/><circle cx="14" cy="8" r="1" fill="#0046BE"/><circle cx="17" cy="8" r="1" fill="#0046BE"/><path d="M19 8a1 1 0 0 1 1-1h10v2H20a1 1 0 0 1-1-1Z" fill="#0046BE"/><path fill-rule="evenodd" clip-rule="evenodd" d="M6 6a4 4 0 0 1 4-4h18a4 4 0 0 1 4 4v6.257a5.486 5.486 0 0 0-2-1.05V6a2 2 0 0 0-2-2H10a2 2 0 0 0-2 2v10a2 2 0 0 0 2 2h13.207c.21.742.572 1.421 1.05 2H10a4 4 0 0 1-4-4V6Z" fill="#0046BE"/><path fill-rule="evenodd" clip-rule="evenodd" d="M28.5 22a5.5 5.5 0 1 0 0-11 5.5 5.5 0 0 0 0 11Zm0-2a3.5 3.5 0 1 0 0-7 3.5 3.5 0 0 0 0 7Z" fill="#0046BE"/><path d="M30.678 14.676a.837.837 0 0 0-.63-.168.863.863 0 0 0-.565.326l-1.51 1.98-.49-.557a.88.88 0 0 0-.584-.289.866.866 0 0 0-.611.214.887.887 0 0 0-.287.586.873.873 0 0 0 .213.614l1.176 1.33a.855.855 0 0 0 .63.288h.037c.25-.01.482-.13.639-.335l2.13-2.808a.846.846 0 0 0 .167-.633.804.804 0 0 0-.315-.548Z" fill="#0046BE"/></g><defs><clipPath id="pi-a"><path fill="#fff" d="M0 0h38v24H0z"/></clipPath></defs></svg>