<svg width="38" height="24" viewBox="0 0 38 24" fill="none" xmlns="http://www.w3.org/2000/svg" role="img" aria-labelledby="pi-betalingsservice"><title id="pi-betalingsservice">Betalingsservice</title><g clip-path="url(#pi-betalingsservice-clip0)"><path d="M35 .5H3A2.5 2.5 0 00.5 3v18A2.5 2.5 0 003 23.5h32a2.5 2.5 0 002.5-2.5V3A2.5 2.5 0 0035 .5z" stroke="#000" stroke-opacity=".07"/><g clip-path="url(#pi-betalingsservice-clip1)"><path d="M1 1h36v22H1V1z" fill="#FFFDFE"/><path d="M7.182 6.798h12.623l-.07.206-.214.344-.213.252-.213.23-.355.274-.498.275-.52.184.212.091.237.138.308.298.166.252.142.298.095.343.047.321v.298l-2.274.023H9.1l-2.818-.023.047-.298.332-1.42.307-1.307.19-.756.024-.023zM9.384 11.404h3.695l5.779.023-.095.39-.118.39-.237.526-.166.275-.118.207-.237.32-.19.23-.284.297-.166.16-.331.253-.237.16-.379.207-.474.183-.45.115-.308.045-.757.023H5.618l-.379-.023.024-.206.284-1.283.214-.894.26-1.146.047-.206.024-.023 3.292-.023zM19.331 11.427h12.79l-.118.367-.19.435-.19.367-.284.458-.284.367-.308.344-.355.343-.26.207-.332.229-.426.229-.308.138-.498.16-.473.091-.403.023-.876.023H19.9l-1.563-.023.023-.16.9-3.483.071-.115zM8.224 2.283l9.592.023.379.092.308.114.331.184.237.183.237.206.237.275.237.39.19.481.117.573.024.23v.526l-.047.344-.024.046-.947.023H7.75l-.379-.023.024-.206.331-1.444.427-1.833.07-.184zM20.232 6.798h9.118l.497.046.45.114.356.138.355.183.26.184.237.206.213.229.214.32.189.39.166.55.07.527v.505l-.047.32-.023.092-3.482.023h-4.618l-1.421-.023-.45-.069-.403-.114-.497-.23-.284-.206-.237-.206-.19-.229-.213-.344-.142-.344-.118-.412-.072-.458v-.894l.024-.23.048-.068zM33.708 2.283h.047l-.047.298-.119.481-.189.825-.426 1.88-.071.183-.166.023h-7.769l-4.5-.023-.023-.092.19-.48.212-.436.26-.413.309-.412.284-.321.426-.413.26-.206.332-.23.356-.205.497-.23.426-.137.308-.069 9.403-.023z" fill="#EE1E25"/><path d="M3.558 17.66h1.231l.332.046.284.138.142.183.071.206v.184l-.07.229-.214.229-.284.137-.118.023v.023l.284.07.19.09.165.161.118.275v.252l-.07.23-.143.206-.26.183-.284.092-.119.023H3.558l-.024-.986v-1.97l.024-.024z" fill="#2D2426"/><path d="M17.484 18.508h1.28l.047.023v.184l-.024.023-.332-.023.166.275.024.091v.207l-.048.183-.118.183-.166.138-.237.091-.236.046-.332.023-.047.092.023.114.142.092.71.046.238.069.142.091.095.138.047.183-.024.275-.095.252-.213.23-.213.137-.308.091-.142.023h-.45l-.26-.068-.142-.07-.166-.137-.071-.137-.024-.092v-.16l.071-.183.142-.16.166-.093-.142-.16-.047-.092v-.183l.07-.183.166-.138.048-.023v-.046l-.19-.114-.118-.115-.095-.16-.047-.183v-.184l.07-.229.12-.16.236-.138.284-.069z" fill="#2E2426"/><path d="M10.284 18.508h.45l.284.092.214.137.118.207.024.091.023 1.375.166.07.024.068-.095.092-.308.091-.19-.046-.189-.16-.094-.092-.166.16-.19.092-.07.023H10l-.237-.091-.118-.092-.095-.137-.047-.184.023-.298.119-.183.213-.138.237-.091.426-.115.166-.091v-.207l-.095-.137-.142-.092-.071-.023h-.166l-.237.069-.19.137h-.094l-.024-.252.119-.091.237-.115.26-.069z" fill="#2F2426"/><path d="M21.653 17.592h.426l.284.068.19.115.047.069-.142.39h-.095l-.142-.207-.118-.092-.166-.045h-.213l-.19.091-.095.092-.023.069v.252l.095.137.189.138.545.275.237.183.142.16.095.207.023.091v.344l-.095.252-.142.184-.213.183-.284.115-.166.045-.355.023-.332-.046-.308-.114-.023-.023.023-.23.095-.343h.095l.142.252.166.138.284.068.26-.046.166-.114.071-.115.024-.229-.118-.229-.237-.16-.38-.184-.236-.137-.118-.092-.142-.206-.072-.183-.023-.298.047-.23.142-.275.19-.183.26-.114.19-.046z" fill="#2C2426"/><path d="M15.518 18.508h.356l.213.07.142.114.118.206.048.206v1.559h-.64l-.023-1.353-.048-.206-.095-.137-.07-.046h-.237l-.119.091-.095.184-.023.137-.024 1.33h-.616l-.023-.023v-2.086h.615v.23l.166-.092.213-.138.142-.046z" fill="#2E2426"/><path d="M23.832 18.508h.473l.26.092.238.206.142.275.047.207v.32h-1.279l.048.367.142.275.142.092.19.046h.165l.284-.092.19-.092h.023l-.023.183-.166.184-.213.091-.213.046h-.26l-.356-.068-.213-.115-.166-.137-.166-.253-.07-.229-.025-.137v-.436l.095-.298.142-.206.166-.16.284-.138.119-.023zM6.779 18.508h.426l.237.07.213.137.142.183.095.23.024.137v.343l-1.256.023v.23l.095.252.095.137.19.115.07.023h.214l.236-.07.237-.114.048.046-.071.183-.119.115-.237.115-.213.045h-.284l-.379-.091-.213-.138-.166-.16-.142-.275-.071-.298v-.344l.047-.23.166-.32.19-.183.236-.115.19-.046zM33.4 18.508h.45l.284.092.237.206.142.275.047.207v.297l-.023.023-1.255.023.047.344.142.275.142.092.166.046h.19l.236-.07.26-.114-.023.183-.166.184-.213.091-.19.046h-.307l-.38-.091-.236-.138-.166-.183-.142-.275-.047-.206v-.482l.095-.298.142-.206.165-.16.285-.138.118-.023zM11.966 17.363h.616v3.3h-.616l-.024-1.352v-1.49l.024-.459z" fill="#2C2426"/><path d="M8.863 17.798h.071v.733h.355v.298l-.094.023h-.237l-.024 1.215.024.252.118.114h.26v.138l-.141.092-.19.045h-.284l-.19-.068-.118-.092-.095-.183-.047-.298-.024-1.215h-.213l-.047-.046v-.252l.024-.023h.26v-.458l.095-.069.497-.206z" fill="#332426"/><path d="M19.592 18.508h.403l.308.092.165.115-.118.39-.118.022-.142-.206-.143-.115-.07-.023h-.214l-.118.07-.048.068v.137l.119.115.19.092.354.137.143.092.142.16.07.183v.321l-.094.23-.166.16-.237.115-.236.045h-.26l-.309-.068-.19-.115.024-.298.071-.16.119.068.095.138.142.114.118.046h.213l.142-.068.071-.092v-.138l-.118-.114-.616-.298-.142-.115-.095-.16-.047-.252.047-.252.142-.206.166-.138.237-.092zM27.55 18.531l.095.023.284.825.19.573.047.023.023-.115.332-.916.142-.39h.38l-.072.23-.213.48-.284.688-.285.71h-.473l-.095-.229-.403-1.1-.236-.618-.048-.16.616-.024z" fill="#2D2426"/><path d="M31.316 18.508h.544l.332.092.142.092.024.091-.166.39h-.095l-.165-.275-.048-.092-.213-.069-.19.023-.142.092-.118.138-.095.229-.023.114v.482l.094.275.143.183.189.092.118.023h.166l.213-.07.213-.114h.048l-.024.206-.095.138-.236.115-.214.045h-.308l-.331-.068-.284-.138-.213-.206-.143-.275-.047-.206v-.367l.071-.275.142-.252.213-.206.19-.115.308-.092z" fill="#2C2426"/><path d="M26.674 18.485l.095.023v.62l-.048.022-.19-.046-.189.023-.142.092-.095.114-.023.07-.048 1.26h-.615v-2.109h.639v.39l.142-.206.166-.138.19-.092.118-.023z" fill="#2D2426"/><path d="M29.942 18.531h.047l.024.16v1.788l-.024.184h-.639v-2.109l.592-.023z" fill="#342426"/><path d="M13.79 18.531l.047.023v2.109h-.616v-2.109l.569-.023z" fill="#292426"/><path d="M17.555 20.708h.284l.237.046.119.069.094.114.024.07v.205l-.095.184-.165.137-.237.07-.26-.024-.19-.091-.142-.16-.048-.116v-.206l.095-.183.142-.092.142-.023zM4.268 19.196l.356.046.213.137.118.23.024.251-.071.23-.19.206-.142.069-.308.023-.023-.023-.024-.207v-.39l.024-.55.023-.022zM4.245 17.935h.379l.19.115.094.16.024.252-.071.23-.143.16-.142.069-.118.023h-.19l-.047-.069v-.71l.024-.23zM17.626 18.692h.19l.118.137.048.138v.48l-.095.207-.095.069-.095.023-.142-.069-.118-.23v-.457l.07-.184.12-.114z" fill="#FFFDFE"/><path d="M29.587 17.408h.19l.141.07.095.114.047.206-.07.16-.143.115-.19.046-.141-.046-.142-.115-.048-.114v-.184l.095-.16.095-.069.07-.023z" fill="#2C2426"/><path d="M13.434 17.408h.166l.142.07.119.137.023.068v.184l-.118.16-.19.092-.19-.023-.141-.092-.071-.114-.024-.16.071-.184.142-.115.071-.023z" fill="#2E2426"/><path d="M10.64 19.54h.07v.595l-.07.138-.143.114-.142.023-.118-.068-.071-.138v-.32l.095-.138.118-.092.26-.114zM6.945 18.715l.142.023.095.114.07.183.024.115v.23l-.568.022-.071-.023v-.183l.047-.206.119-.184.07-.069.072-.022zM24.021 18.715l.166.045.095.138.07.32v.161l-.52.023-.119-.023v-.206l.071-.252.095-.138.142-.068zM33.59 18.715l.142.045.094.092.071.206.024.298-.024.023h-.615v-.229l.094-.275.119-.115.095-.045z" fill="#FFFDFE"/></g></g><defs><clipPath id="pi-betalingsservice-clip0"><path fill="#fff" d="M0 0h38v24H0z"/></clipPath><clipPath id="pi-betalingsservice-clip1"><rect x="1" y="1" width="36" height="22" rx="2" fill="#fff"/></clipPath></defs></svg>