<svg xmlns="http://www.w3.org/2000/svg" role="img" viewBox="0 0 38 24" width="38" height="24" aria-labelledby="pi-bierchequepaynlversion"><title id="pi-bierchequepaynlversion">Biercheque (PAY. version)</title><g clip-path="url(#pi-bierchequepaynlversion-a)"><path fill="#000" d="M35 0H3C1.3 0 0 1.3 0 3v18c0 1.7 1.4 3 3 3h32c1.7 0 3-1.3 3-3V3c0-1.7-1.4-3-3-3Z" opacity=".07"/><path fill="#2B2B2B" d="M35 1c1.1 0 2 .9 2 2v18c0 1.1-.9 2-2 2H3c-1.1 0-2-.9-2-2V3c0-1.1.9-2 2-2h32Z"/><path fill="#fff" fill-rule="evenodd" d="M14.138 4.159c.052.037.107.07.163.098.65.241 1.033.94 1.151 1.59.163.811.156 1.743-.207 2.503a.113.113 0 0 0 .015.088 5.076 5.076 0 0 1 1.668 2.294c.188.546.29 1.135.306 1.727a5.932 5.932 0 0 1-.302 2.242c-.06.157-.122.314-.18.473-.034.085-.161.052-.233.05a1.822 1.822 0 0 0-.28.003c-.11-.007-.21.127-.193.259v.737a.248.248 0 0 1-.068.195l-.402.41a.252.252 0 0 1-.065.035.439.439 0 0 1-.02-.095v-1.25c.004-.046.014-.173-.053-.165-.053.006-.025.074-.025.112v1.748c0 .068.02.095.076.095h.562c.063 0 .075-.037.075-.105v-1.69c0-.143.04-.194.154-.194h.301c.095 0 .137.048.137.163v3.887c0 .115-.042.166-.134.166h-.317c-.102 0-.143-.054-.143-.178v-1.25c0-.125 0-.128-.102-.128h-.51c-.106 0-.11 0-.11.13v1.233c0 .166-.025.193-.164.193h-.285c-.1 0-.14-.05-.14-.172v-3.887c0-.296.038-.625.045-.939a1.697 1.697 0 0 0-.046-.364c0-.02-.05-.042-.078-.042-.086 0-.17-.028-.17-.127a3.513 3.513 0 0 1-.034-.52c.03-.125.082-.241.15-.342.015-.027.066-.027.1-.036.034-.009.134-.03.217-.043a.432.432 0 0 1-.054-.294c.032-.116.076-.14.17-.107.035 0 .067.033.103.044h.127c-.098.068-.088.146-.079.23l.001.007a.196.196 0 0 1-.034.107.114.114 0 0 0-.036.085c0 .033.014.066.036.085a.2.2 0 0 1 .034.126.635.635 0 0 0 .03.345c.05.079.145.105.218.06a.424.424 0 0 1 .08-.043c0 .048.042.11.027.146a.502.502 0 0 0-.015.206c0 .167 0 .336.013.5a.116.116 0 0 1-.013.052h-.024c0-.115 0-.228-.012-.343-.008-.077-.005-.13-.003-.181.002-.026.003-.051.003-.08 0-.024-.02-.062-.032-.065h-.187c-.03.219.009.444.11.628.025.096.037.196.036.296 0 .08 0 .157.015.234.008.032.02.063.038.089.022-.027.054-.05.064-.083a.853.853 0 0 0 .017-.142c.053.08.078.056.104 0 .037-.083.076-.165.115-.246a3.522 3.522 0 0 0 .36-1.114c.045-.284.07-.571.073-.86 0-.311-.035-.62-.105-.92a4.004 4.004 0 0 0-.586-1.41 3.172 3.172 0 0 0-.803-.842 2.504 2.504 0 0 0-.998-.435c-.175-.053-.306.138-.302.296-.015.276-.023.553-.024.83 0 1.479.014 2.958.014 4.437.008.177-.139.337-.282.308h-.553c-.131.019-.258-.136-.243-.296 0-2.999-.013-5.994-.024-8.988 0-.323-.468-.234-.686-.234-.146.014-.292-.1-.343-.267a.495.495 0 0 1-.02-.174 5.197 5.197 0 0 0 0-.477.41.41 0 0 1 .165-.362.15.15 0 0 0 .037-.053h2.61l-.001.001Zm-.665 3.585c0 .083.022.115.09.106.105-.006.209-.02.312-.044a.766.766 0 0 0 .454-.342c.113-.176.17-.395.162-.618a1.942 1.942 0 0 0-.13-.797 1.034 1.034 0 0 0-.313-.45.637.637 0 0 0-.455-.113c-.117 0-.12 0-.12.148v2.11Zm1.621 6.736c0 .2-.032.4-.068.595-.022.1 0 .175.056.208a.403.403 0 0 0 .207 0s.022-.036.022-.054v-.503a.05.05 0 0 0 0-.027l-.217-.219Z" clip-rule="evenodd"/><path fill="#fff" d="M22.885 8.448c-.027-.2.097-.413.314-.421h.446c.167-.014.323.177.311.38V9.92c0 .133 0 .145.107.15.722.09 1.262-.513 1.276-1.202.044-.618-.175-1.788-1.001-1.79h-1.144c-.153.013-.299-.151-.3-.337v-.623c-.003-.183.131-.351.281-.352h1.5c.41.05.794.329 1.043.648.425.514.593 1.22.621 1.873.066.82-.01 1.755-.486 2.453a.268.268 0 0 0-.032.263c.351 1.146.577 2.342.822 3.516.059.203-.067.514-.314.483h-.486c-.2.016-.282-.178-.316-.34-.214-.997-.447-1.982-.675-2.983-.016-.126-.126-.22-.229-.196-.143 0-.287 0-.43.018-.127-.024-.256.122-.244.278v2.806c.008.21-.147.406-.32.405h-.432c-.178.008-.34-.202-.32-.417.022-2.042.008-4.083.008-6.125Zm-.718-2.683c.212-.036.345.209.324.394v.503c0 .264-.097.39-.314.39h-.95c-.22-.01-.289.243-.279.418v1.974c0 .296.095.397.326.397a3.21 3.21 0 0 1 .438.018c.128.014.23.164.22.32v.592c.013.202-.14.393-.307.382h-.41c-.14-.008-.271.149-.267.32v1.908c.008.173.138.319.28.314h.954c.204-.03.33.203.311.382v.542c.019.201-.132.397-.34.373h-1.967c-.16.006-.292-.104-.297-.269V6.034c.03-.158.151-.276.314-.275.654.006 1.31.006 1.964.006Z"/><path fill="#fff" fill-rule="evenodd" d="M17.446 9.338c-.01-.32.131-.634.357-.797a.591.591 0 0 0 .212-.474c.02-.33.048-.656.076-.983.021-.248.057-.494.082-.741 0-.046-.001-.086-.036-.13-.008-.009-.015-.018-.015-.027a3.692 3.692 0 0 1 0-.402c0-.066.054-.101.115-.101h.516c.065.002.125.065.135.144.011.082-.01.165-.004.247-.01.106-.044.207-.051.314.05.543.12 1.088.155 1.632l.009.136c.008.149.08.288.186.362.122.085.222.21.291.358.07.15.104.318.101.489v5.223c.005.222-.16.426-.343.423h-1.44c-.226.028-.364-.228-.346-.426-.006-1.755 0-3.499 0-5.247Zm.973-3.022h-.03c-.026.058-.032.12-.042.181-.085.56-.109 1.145-.152 1.72a.479.479 0 0 1-.207.35c-.23.182-.371.513-.36.847v4.906c-.005.167.131.527.354.4-.174-.116-.176-.296-.176-.51V9.408c-.011-.347.14-.689.382-.87a.518.518 0 0 0 .19-.412c0-.553.02-1.113.044-1.659a.943.943 0 0 0-.003-.151Z" clip-rule="evenodd"/><path fill="#fff" d="M10.38 10.018c-.152-.033-.315.061-.39.226-1.15 2.426-.518 6.148 2.184 7.225.09.03.09.03.09-.075v-1.08c.006-.058-.026-.118-.073-.134-1.84-.959-2.183-3.64-1.327-5.362.227-.358-.146-.714-.484-.8Z"/><path fill="#fff" fill-rule="evenodd" d="M19.697 16.29c-.01-.628.488-1.084 1.12-1.01.592-.005.854.638.857 1.14v2.056a1.5 1.5 0 0 1-.113.566c-.032.056-.02.14.025.18.102.128.202.255.297.392.056.088.033.226-.088.228h-.47a.163.163 0 0 1-.12-.077c-.104-.214-.245-.217-.435-.193a.902.902 0 0 1-.76-.22.856.856 0 0 1-.274-.592c-.046-.822-.03-1.648-.039-2.47Zm.616 2.311c0 .296.274.305.506.287.227-.035.262-.224.265-.422v-2.239c-.004-.107-.066-.205-.15-.237a.555.555 0 0 0-.414-.02c-.111.027-.197.157-.195.295-.052.77-.061 1.564-.012 2.336Z" clip-rule="evenodd"/><path fill="#fff" d="M23.012 18.493c-.006.153.052.403.252.382.27 0 .338-.185.342-.431v-2.936c0-.184.024-.213.18-.213h.243c.134 0 .168.04.168.2v2.946c.011.424-.177.965-.633 1.081a.873.873 0 0 1-.632-.05c-.485-.22-.523-.823-.517-1.286v-2.708c0-.124.05-.186.15-.186h.294c.104 0 .153.059.153.19v3.011Zm1.903-2.945c-.006-.08-.012-.256.112-.243h1.46c.115 0 .144.042.147.18v.28c0 .168-.032.207-.166.207h-.844c-.105 0-.105 0-.105.13v1.073c0 .089.02.124.095.12h.51c.084-.015.166.086.154.188v.296c0 .163-.044.22-.177.216h-.492c-.06 0-.088.018-.088.098v.693c0 .077.027.098.088.098h.908c.12 0 .158.044.158.187v.296c0 .136-.044.19-.158.19h-1.45c-.096 0-.13-.033-.147-.15l-.005-3.859Zm-7.494-.073c0-.118.044-.17.144-.17h1.39c.097-.011.2.031.185.15v.343c0 .115-.032.169-.144.172h-.905c-.052 0-.076.024-.076.089v1.15c0 .073.032.085.083.085h.516c.114 0 .16.056.16.199v.296c.014.102-.07.203-.153.187h-.516c-.066 0-.092.023-.09.106v.673c0 .088.027.112.095.11h.9c.113 0 .151.047.151.183v.329c.008.085-.06.166-.129.154H17.55c-.087 0-.129-.057-.129-.166v-3.89Zm-5.071.83c-.003-.48.313-1.04.846-1.043.298-.024.597.145.774.438.099.175.156.38.165.593v.243c.007.077-.052.153-.116.15h-.348c-.116 0-.125-.047-.125-.165a.893.893 0 0 0-.075-.43c-.107-.216-.427-.212-.498.039a.887.887 0 0 0-.04.225v2.139c0 .14.017.296.14.358.242.13.432 0 .46-.296 0-.098.011-.198.013-.296.002-.098.027-.13.093-.136h.382c.061.002.114.068.114.142.027.29-.015.584-.119.847-.11.244-.314.419-.54.465a.905.905 0 0 1-.662-.071c-.303-.168-.478-.581-.465-.986.01-.739 0-1.478.001-2.216Z"/><path fill="#fff" d="M14.734 17.266c0-.377-.002-.753 0-1.13 0-.077-.018-.099-.078-.059a1.25 1.25 0 0 1-.263.148c-.152.038-.187.142-.172.313.01.132-.09.258-.198.25-.125 0-.305.038-.423-.012-.075-.032-.128-.125-.127-.222-.002-.057-.017-.084-.068-.084h-.314c-.052-.004-.072.023-.072.086v1.025c0 .062.016.094.07.094h.518a2.89 2.89 0 0 0 1.047-.263c.052-.016.088-.082.08-.146Z"/></g><defs><clipPath id="pi-bierchequepaynlversion-a"><path fill="#fff" d="M0 0h38v24H0z"/></clipPath></defs></svg>
