<svg xmlns="http://www.w3.org/2000/svg" role="img" viewBox="0 0 38 24" width="38" height="24" aria-labelledby="pi-bigc"><title id="pi-bigc">Big C</title><g clip-path="url(#pi-bigc-a)"><path fill="#000" d="M35 0H3C1.3 0 0 1.3 0 3v18c0 1.7 1.4 3 3 3h32c1.7 0 3-1.3 3-3V3c0-1.7-1.4-3-3-3Z" opacity=".07"/><path fill="#B2D235" d="M35 1c1.1 0 2 .9 2 2v18c0 1.1-.9 2-2 2H3c-1.1 0-2-.9-2-2V3c0-1.1.9-2 2-2h32Z"/><path fill="#fff" fill-rule="evenodd" d="M19.065 4.27c-3.448 1.249-6.006 4.387-6.586 8.215-.67 4.797 2.469 8.545 7.346 8.495 1.07-.01 3.398-.24 4.467-.7l1.06-6.326c-1.11.93-2.329 1.599-3.748 1.609-1.829.02-3.168-1.45-2.928-3.288.29-1.84 1.998-3.328 3.837-3.348 1.37-.01 2.499.79 3.368 1.699l.89-6.427s-2.629-.58-4.328-.5c-1.329.05-3.378.57-3.378.57Z" clip-rule="evenodd"/><path fill="#fff" fill-rule="evenodd" d="M22.453 3.72c1.6-.07 4.058.45 4.298.5-.01.05-.87 6.256-.88 6.356-1.099-1.14-2.198-1.69-3.348-1.68-1.839.02-3.568 1.53-3.857 3.369-.11.89.13 1.719.68 2.338.559.63 1.368.98 2.268.97 1.24-.01 2.428-.52 3.708-1.58-.02.13-1.04 6.227-1.05 6.247-1.089.47-3.428.69-4.447.7-2.309.02-4.328-.82-5.687-2.369-1.12-1.28-1.719-2.938-1.729-4.767 0-.44.03-.88.09-1.33.57-3.787 3.088-6.925 6.566-8.195.05 0 2.08-.51 3.388-.56Zm0-.05c-1.319.06-3.368.57-3.388.57-3.498 1.269-6.026 4.427-6.596 8.235-.34 2.368.24 4.557 1.64 6.146 1.368 1.56 3.397 2.399 5.726 2.379 1.03-.01 3.388-.23 4.477-.71l.01-.01 1.07-6.406-.05.05c-1.3 1.08-2.479 1.599-3.728 1.609-.89.01-1.68-.33-2.239-.95-.55-.62-.78-1.429-.67-2.298.28-1.82 1.99-3.308 3.808-3.328 1.16-.01 2.25.55 3.348 1.699l.03.04.9-6.507-.03-.01c0-.01-2.629-.58-4.308-.51Z" clip-rule="evenodd"/><path fill="#ED1D24" fill-rule="evenodd" d="M18.596 3.95c-3.448 1.259-6.007 4.387-6.587 8.215-.67 4.797 2.469 8.545 7.346 8.495 1.07-.01 3.408-.24 4.468-.71l1.059-6.326c-1.11.93-2.319 1.599-3.748 1.609-1.829.02-3.168-1.45-2.928-3.288.29-1.84 2.009-3.328 3.838-3.348 1.369-.02 2.498.79 3.368 1.699l.89-6.426s-2.47-.67-4.078-.63c-1.43.06-3.628.71-3.628.71Z" clip-rule="evenodd"/><path fill="#000" fill-rule="evenodd" d="m15.357 4.929-.39 2.758 1.28-.01.38-2.758-1.27.01Zm1.41-.879c.1-.36-.16-.61-.56-.61-.41 0-.76.26-.81.62-.05.46.26.659.62.659.35-.01.7-.21.75-.67Zm-4.887-.26-.57 3.877 1.829-.02c.66 0 1.419-.27 1.519-1.03.05-.509-.16-.809-.52-.969.35-.1.55-.46.6-.77.09-.919-.62-1.118-1.33-1.108l-1.528.02Zm1.139 1.519h-.1l.04-.56h.1c.2 0 .46-.05.41.25-.04.25-.25.31-.45.31Zm-.34 1.429.09-.61h.15c.2 0 .56 0 .51.3-.05.31-.35.31-.61.31h-.14Zm7.176.749.38-2.598-1.27.01v.41h-.05a.657.657 0 0 0-.67-.45c-.759.01-1.258.73-1.358 1.44-.1.659.21 1.428.93 1.418.309 0 .659-.16.859-.47l-.05.25c-.05.36-.3.62-.65.62-.31 0-.67-.1-.87-.3l-.4.92.1.05c.36.15.67.2 1.07.2.92-.01 1.829-.43 1.979-1.5Zm-1.38-.85c-.21 0-.36-.149-.31-.349.05-.21.2-.41.4-.41s.31.2.26.41c0 .19-.15.34-.35.35Z" clip-rule="evenodd"/><path fill="#FD0" fill-rule="evenodd" d="m15.048 4.49-.38 2.758 1.22-.01.379-2.759-1.22.01Zm1.409-.88c.05-.36-.21-.61-.62-.61-.41 0-.71.26-.76.62-.1.46.21.66.57.66.41 0 .77-.21.81-.67Zm-4.927-.26L11 7.228l1.829-.02c.66 0 1.37-.27 1.52-1.03.049-.51-.16-.81-.57-.96.35-.1.55-.459.6-.819.149-.87-.57-1.07-1.28-1.06l-1.57.01Zm1.179 1.519h-.15l.1-.56h.1c.2 0 .46-.06.41.25-.05.25-.26.31-.46.31Zm-.34 1.43.1-.61h.15c.21 0 .56-.01.51.3-.05.31-.4.31-.61.31h-.15Zm5.797-.101c-.26 0-.36-.15-.31-.35 0-.21.2-.41.4-.41s.31.2.26.41c-.05.19-.15.34-.35.35Zm1.38.85.329-2.599-1.22.01v.41h-.05c-.15-.3-.36-.46-.709-.45-.71 0-1.22.72-1.31 1.44-.09.659.22 1.429.93 1.419.31 0 .66-.16.81-.47h.05l-.05.26c-.05.36-.35.62-.71.62-.31 0-.61-.1-.87-.3l-.4.919.16.04c.35.1.66.2 1.07.19.91 0 1.82-.42 1.97-1.49Z" clip-rule="evenodd"/></g><defs><clipPath id="pi-bigc-a"><path fill="#fff" d="M0 0h38v24H0z"/></clipPath></defs></svg>
