<svg xmlns="http://www.w3.org/2000/svg" viewBox="0 0 38 24" role="img" width="38" height="24" aria-labelledby="pi-billinkmethod"><title id="pi-billinkmethod">Billink</title><path opacity=".07" d="M35 0H3C1.3 0 0 1.3 0 3v18c0 1.7 1.4 3 3 3h32c1.7 0 3-1.3 3-3V3c0-1.7-1.4-3-3-3z"/><path fill="#F28D20" d="M35 1c1.1 0 2 .9 2 2v18c0 1.1-.9 2-2 2H3c-1.1 0-2-.9-2-2V3c0-1.1.9-2 2-2h32"/><path d="M5.973 9.172c-.915 0-1.755.345-2.393.9.158-.375.458-.682.833-.847v-.338c0-.735-.6-1.335-1.335-1.335-.053 0-.105 0-.158.008v-.007h-.585v5.242c0 2.01 1.628 3.63 3.63 3.63 2.01 0 3.63-1.628 3.63-3.63a3.62 3.62 0 0 0-3.622-3.623zm4.725 1.403h1.68v5.865h-1.68zm1.642-2.573a1.313 1.313 0 0 0-.36-.24 1.076 1.076 0 0 0-.435-.09c-.157 0-.3.03-.435.09s-.255.143-.352.24c-.098.098-.18.218-.24.353a1.05 1.05 0 0 0-.09.435c0 .158.03.3.09.435s.135.255.24.353c.097.097.217.18.352.24.135.06.285.09.435.09a1.164 1.164 0 0 0 .795-.33 1.05 1.05 0 0 0 .24-.353 1.102 1.102 0 0 0-.24-1.223zm1.313-.037h1.68v8.475h-1.68zm2.955 0h1.68v8.475h-1.68zm4.597.037a1.313 1.313 0 0 0-.36-.24 1.076 1.076 0 0 0-.435-.09c-.157 0-.3.03-.435.09s-.255.143-.352.24c-.098.098-.18.218-.24.353a1.05 1.05 0 0 0-.09.435c0 .158.03.3.09.435s.135.255.24.353c.097.097.217.18.352.24.135.06.285.09.435.09a1.164 1.164 0 0 0 .795-.33 1.05 1.05 0 0 0 .24-.353 1.102 1.102 0 0 0-.24-1.223zm-1.642 2.573h1.68v5.865h-1.68zm7.957.045a2.835 2.835 0 0 0-.93-.63 2.885 2.885 0 0 0-2.197-.03 3.105 3.105 0 0 0-.915.562l-.548-.637h-.405v6.555h1.673v-3.743c0-.172.03-.33.097-.487.068-.15.158-.285.27-.398a1.277 1.277 0 0 1 .9-.367c.173 0 .33.03.48.097.15.068.285.158.398.27.112.113.202.248.27.398.067.15.097.315.097.487v3.743h1.673v-3.743c0-.405-.075-.787-.233-1.14a2.905 2.905 0 0 0-.63-.937zm8.145-.72h-1.927l-2.49 3.158V7.965h-1.68v8.475h1.68v-.84l1.162-1.537 1.328 2.377h1.927l-2.175-3.81 2.175-2.73" fill="#FFF"/><path d="M7.923 12.803v-.015h-3.9v.014a1.95 1.95 0 0 0 3.9 0z" fill="#F28D20"/></svg>
