<svg xmlns="http://www.w3.org/2000/svg" width="38" height="24" viewBox="0 0 38 24" role="img" aria-labelledby="pi-billease"><title id="pi-billease">BillEase</title><path fill="#000" opacity=".07" d="M35 0H3C1.3 0 0 1.3 0 3v18c0 1.7 1.4 3 3 3h32c1.7 0 3-1.3 3-3V3c0-1.7-1.4-3-3-3z"/><path fill="#fff" d="M35 1c1.1 0 2 .9 2 2v18c0 1.1-.9 2-2 2H3c-1.1 0-2-.9-2-2V3c0-1.1.9-2 2-2h32"/><g fill-rule="nonzero" stroke="none" stroke-width="1" fill="none"><path d="M3.754 18.68c.34 0 .675-.043 1.005-.128a2.35 2.35 0 00.888-.444c.263-.21.474-.505.633-.883.159-.378.239-.859.239-1.444 0-.87-.211-1.545-.633-2.027-.422-.481-1.055-.722-1.899-.722-.155 0-.342.022-.56.064a5.028 5.028 0 00-.767.217l-.106.046V11H1.4v6.46c0 .25.065.453.194.61.13.157.306.28.528.37.222.088.473.15.755.187.281.035.573.053.877.053zm-.056-.973c-.177 0-.353-.013-.527-.038a1.056 1.056 0 01-.439-.155.375.375 0 01-.177-.331v-2.889a2.31 2.31 0 01.627-.235c.226-.05.435-.075.627-.075.348 0 .633.072.855.214.222.143.389.35.5.62.111.272.167.607.167 1.006 0 .35-.045.665-.134.947a1.298 1.298 0 01-.488.679c-.237.171-.574.257-1.01.257zm5.139-5.413v-1.016H7.593v1.016h1.244zm-.033 6.226l-.011-5.338H7.627v5.338h1.177zm2.551 0v-7.402H10.2v7.402h1.155zm2.525 0v-7.402h-1.155v7.402h1.155z" fill="#203AA9"/><path d="M17.5 18.68c.403 0 .766-.034 1.089-.103.322-.07.611-.158.868-.267v-1.056c-.132.065-.29.132-.473.201a3.87 3.87 0 01-.599.169 3.534 3.534 0 01-.698.065c-.557 0-.978-.158-1.264-.473-.245-.271-.385-.65-.42-1.136l-.002-.035h3.874a4.927 4.927 0 00-.19-1.496l-.047-.143c-.165-.468-.43-.833-.797-1.094-.366-.261-.846-.392-1.44-.392-.806 0-1.434.245-1.885.735-.45.49-.676 1.21-.676 2.161 0 .617.108 1.14.324 1.568.216.429.524.752.924.97.4.217.87.326 1.412.326zm1.2-3.484h-2.67l.004-.04a2.6 2.6 0 01.09-.42l.03-.09c.106-.287.262-.49.467-.61.205-.12.454-.18.747-.18.455 0 .788.13 1 .387.164.198.271.486.322.862l.01.09zm4.234 3.484c.484 0 .916-.034 1.297-.103.381-.07.683-.2.907-.392.223-.193.335-.467.335-.823V14.75c0-.276-.04-.515-.12-.718a1.49 1.49 0 00-.336-.518 1.679 1.679 0 00-.49-.337 2.582 2.582 0 00-.587-.185 3.302 3.302 0 00-.621-.06c-.418 0-.823.042-1.215.125-.392.084-.69.194-.896.332v1.067c.213-.174.484-.31.814-.408.33-.098.648-.147.956-.147.432 0 .766.089 1 .267.235.178.352.459.352.844v.515l-.078-.044a2.443 2.443 0 00-.098-.049l-.104-.047a3.029 3.029 0 00-.605-.18 3.954 3.954 0 00-.753-.065c-.418 0-.777.066-1.077.196-.3.13-.532.327-.693.588-.161.262-.242.595-.242 1.002 0 .341.065.626.193.855.128.228.3.408.516.539.217.13.457.223.72.277.264.055.54.082.825.082zm.132-.893c-.205 0-.401-.03-.588-.092a1.09 1.09 0 01-.467-.294.746.746 0 01-.187-.528c0-.29.108-.509.324-.654.216-.145.533-.218.95-.218a3.239 3.239 0 011.199.222l.033.014v1.06c0 .19-.083.317-.25.383l-.058.02c-.205.058-.524.087-.956.087zm5.359.893c.359 0 .707-.058 1.044-.174.337-.116.61-.301.819-.556.209-.254.317-.584.324-.99 0-.305-.053-.552-.16-.74a1.35 1.35 0 00-.411-.458 2.026 2.026 0 00-.55-.267c-.198-.062-.388-.121-.572-.18a14.68 14.68 0 01-.555-.174 1.105 1.105 0 01-.417-.24.546.546 0 01-.16-.413c0-.203.095-.358.286-.463.19-.105.429-.158.715-.158.307 0 .578.051.813.153.234.101.484.221.747.36l-.01-.98a5.48 5.48 0 00-.72-.317c-.246-.087-.563-.134-.951-.141-.235 0-.475.03-.72.092a2.14 2.14 0 00-.671.294 1.563 1.563 0 00-.49.523 1.524 1.524 0 00-.186.778c0 .276.05.509.148.697.1.19.231.343.396.463s.346.214.544.283c.198.07.396.13.594.18.19.065.374.13.55.196.175.065.32.145.434.24.113.094.17.224.17.391 0 .196-.09.36-.27.49-.179.131-.426.196-.741.196-.25 0-.475-.025-.676-.076a2.886 2.886 0 01-.577-.212 7.327 7.327 0 01-.561-.31v1.077c.264.124.533.227.808.31.275.084.61.126 1.006.126zm5.64 0c.403 0 .766-.034 1.088-.103.323-.07.612-.158.869-.267v-1.056c-.132.065-.29.132-.473.201a3.87 3.87 0 01-.599.169 3.534 3.534 0 01-.698.065c-.557 0-.978-.158-1.264-.473-.245-.271-.385-.65-.42-1.136l-.002-.035h3.874a4.927 4.927 0 00-.19-1.496l-.047-.143c-.165-.468-.43-.833-.797-1.094-.366-.261-.846-.392-1.44-.392-.806 0-1.434.245-1.885.735-.45.49-.676 1.21-.676 2.161 0 .617.108 1.14.324 1.568.216.429.524.752.924.97.399.217.87.326 1.412.326zm1.2-3.484h-2.671l.005-.04a2.6 2.6 0 01.09-.42l.03-.09c.106-.287.261-.49.467-.61.205-.12.454-.18.747-.18.455 0 .788.13 1 .387.164.198.271.486.322.862l.01.09z" fill="#F84040"/><path d="M19.102 6.561v-.917h.592c.292 0 .518-.072.678-.216.16-.143.24-.349.24-.618s-.08-.47-.24-.606c-.16-.136-.386-.204-.678-.204H18.68v2.561h.422zm.538-1.278h-.538v-.926h.538c.11 0 .2.013.269.039.069.025.123.06.161.105a.367.367 0 01.079.152.71.71 0 010 .342.369.369 0 01-.079.147.367.367 0 01-.161.104.825.825 0 01-.269.037zm1.662 1.278l.251-.695h1.048l.253.695h.445L22.328 4h-.45l-.998 2.561h.422zm1.173-1.04h-.797l.397-1.1.4 1.1zm2.336 1.04V5.417L25.74 4h-.458l-.657 1.065L23.943 4h-.518l.964 1.413v1.148h.422zm3.391 0l.605-1.923.601 1.923h.423L30.61 4h-.458l-.559 2.025L28.99 4h-.365l-.6 2.028L27.457 4h-.456l.775 2.561h.426zm3.235 0V4h-.426v2.561h.426zm1.635 0V4.357h.83V4H31.82v.357h.83v2.204h.422zm1.638 0v-1.09h1.182v1.09h.427V4h-.427v1.102H34.71V4h-.423v2.561h.423z" fill="#5B5D68"/></g></svg>