<svg xmlns="http://www.w3.org/2000/svg" role="img" viewBox="0 0 38 24" width="38" height="24" aria-labelledby="pi-billink"><title id="pi-billink">Billink</title><path d="M35 0H3C1.3 0 0 1.3 0 3v18c0 1.7 1.4 3 3 3h32c1.7 0 3-1.3 3-3V3c0-1.7-1.4-3-3-3z" opacity=".07"/><path fill="#f18918" d="M35 1c1.1 0 2 .9 2 2v18c0 1.1-.9 2-2 2H3c-1.1 0-2-.9-2-2V3c0-1.1.9-2 2-2h32"/><path fill="#fff" stroke="#f18918" stroke-miterlimit="10" stroke-width=".125" d="M8.54 9.89l-5.21.5a.577.577 0 00-.59.55l-.14 3.18c-.01.31.24.58.55.59l4.94.15c.31.01.58-.24.59-.55l.42-3.83a.572.572 0 00-.56-.59zm-3.99 2.75c-.38.48-.76.96-1.14 1.43-.05.08-.16 0-.11-.07.38-.48.76-.96 1.14-1.43.05-.08.17 0 .11.07zm3.25 1.44l-1.42-1.57c-.06-.07.04-.15.1-.09l1.42 1.57c.06.06-.04.15-.1.09zm-1.96-1.83c-.12.08-.26.12-.39.12s-.27-.04-.39-.12l-1.73-.94-.01-.01a.187.187 0 010-.26c.03-.03.08-.05.13-.05s.09.02.12.05l1.72.94c.11.05.21.06.3 0l2.46-1.53c.03-.03.08-.05.12-.05.05 0 .1.02.13.05l-2.46 1.8z"/><path d="M12.05 12.66a.979.979 0 00.31.74c.09.09.21.17.33.22.12.06.26.08.4.08s.27-.03.4-.08c.13-.06.24-.13.34-.22.09-.09.17-.2.23-.33s.08-.26.08-.41a.979.979 0 00-.31-.74.998.998 0 00-.34-.22c-.13-.06-.26-.08-.4-.08s-.28.03-.4.09-.24.14-.33.24c-.09.09-.17.21-.23.34a.91.91 0 00-.08.37m-.61-3.7a.558.558 0 01.44.18c.06.06.1.12.14.2.03.08.05.16.05.24v1.08c.22-.11.45-.19.68-.22.24-.03.47-.03.7 0s.45.1.67.21c.22.1.42.24.61.42a2.227 2.227 0 01.66 1.61 2.243 2.243 0 01-.67 1.6c-.21.21-.45.37-.72.49s-.57.18-.87.18-.59-.06-.86-.18c-.28-.12-.52-.28-.73-.49-.21-.21-.38-.45-.5-.72-.12-.28-.19-.57-.19-.87V9.53c0-.07.02-.15.06-.22.04-.07.08-.13.14-.19.06-.05.12-.09.19-.13.05-.02.12-.03.2-.03m5.01 1.47c.16 0 .3.06.4.18.11.12.17.26.18.43v3.31c0 .17-.05.31-.16.42s-.25.17-.43.19c-.16 0-.3-.05-.41-.15a.703.703 0 01-.21-.42V11c.01-.16.08-.3.19-.4.14-.11.28-.17.44-.17m0-1.43c.16 0 .3.06.42.18s.17.26.17.43-.06.31-.17.43a.56.56 0 01-.42.18c-.18 0-.33-.07-.44-.17-.12-.11-.17-.26-.17-.46.01-.16.07-.3.19-.41.12-.12.26-.18.42-.18m1.84-.02c.17 0 .31.06.43.18s.18.26.19.44v3.69c0 .12.04.23.12.32s.19.13.31.13c.16 0 .31.06.43.17s.19.25.19.42c0 .15-.05.28-.15.4s-.24.19-.4.21h-.13c-.22 0-.43-.05-.62-.14s-.36-.21-.51-.36c-.14-.15-.26-.33-.35-.52-.08-.2-.13-.41-.13-.63V9.56c.02-.16.08-.29.19-.4.12-.12.26-.17.43-.18m2.61 0c.17 0 .31.06.43.18s.18.26.19.44v3.69c0 .12.04.23.12.32s.19.13.31.13c.16 0 .31.06.43.17s.19.25.19.42c0 .15-.05.28-.15.4s-.24.19-.4.21h-.13c-.22 0-.43-.05-.62-.14s-.36-.21-.51-.36-.26-.33-.35-.52c-.08-.2-.13-.41-.13-.63V9.56c.02-.16.08-.29.2-.4.12-.12.26-.17.42-.18m2.64 1.45c.16 0 .3.06.4.18.11.12.17.26.18.43v3.31c0 .17-.05.31-.16.42s-.25.17-.43.19c-.16 0-.3-.05-.41-.15a.703.703 0 01-.21-.42V11c.01-.16.08-.3.19-.4.14-.11.28-.17.44-.17m0-1.43c.16 0 .3.06.42.18s.17.26.17.43-.06.31-.17.43a.56.56 0 01-.42.18c-.18 0-.33-.07-.44-.17-.12-.11-.17-.26-.17-.46 0-.16.07-.3.19-.41.12-.12.26-.18.42-.18m3.49 1.37c.3 0 .59.05.86.17.27.11.52.26.72.46.21.2.37.43.5.7.12.27.19.56.19.87v1.73c0 .16-.06.3-.17.42-.12.12-.26.18-.43.19-.17 0-.31-.05-.43-.17a.545.545 0 01-.18-.42v-1.68c0-.14-.02-.28-.08-.41a.998.998 0 00-.56-.55.99.99 0 00-.42-.09c-.14 0-.27.02-.39.08-.12.05-.24.12-.33.21s-.17.19-.22.32a.79.79 0 00-.09.38v1.7c0 .16-.06.31-.19.43-.12.12-.27.18-.43.18s-.31-.06-.43-.17-.19-.25-.19-.41v-1.68c0-.31.07-.61.18-.88.12-.27.28-.52.48-.72s.44-.37.71-.49c.28-.11.58-.17.9-.17m6.45 3.49c.12.12.19.27.19.45s-.06.32-.19.45c-.12.11-.27.17-.44.18s-.32-.05-.45-.18l-1.41-1.4v.95c0 .16-.06.31-.19.43-.12.13-.27.19-.44.19-.16 0-.31-.06-.44-.18s-.19-.27-.19-.45V9.58c0-.16.06-.31.19-.43.12-.13.27-.19.45-.19s.32.06.44.18.18.27.18.45v2.35l1.41-1.41c.12-.12.27-.19.44-.18.17 0 .32.07.45.18.12.12.19.27.19.45s-.06.32-.19.45l-1.23 1.23 1.23 1.2zm1.92.55c0 .17-.06.33-.19.45a.642.642 0 01-.91 0c-.12-.12-.18-.28-.18-.45s.06-.33.18-.45.27-.19.45-.19.33.06.46.19c.12.13.19.28.19.45"/></svg>