<svg viewBox="0 0 38 24" width="38" height="24" xmlns="http://www.w3.org/2000/svg" aria-labelledby="pi-billerpaynlversion" role="img"><title id="pi-billerpaynlversion">Biller (PAY. version)</title><path d="M35 0H3C1.3 0 0 1.3 0 3v18c0 1.7 1.4 3 3 3h32c1.7 0 3-1.3 3-3V3c0-1.7-1.4-3-3-3z" fill="#000" opacity=".07"/><path d="M35 1c1.1 0 2 .9 2 2v18c0 1.1-.9 2-2 2H3c-1.1 0-2-.9-2-2V3c0-1.1.9-2 2-2h32" fill="#fff"/><path d="M18.855 4.379h-3.163c-1.656 0-3.012 1.37-3.012 3.045v6.395s0-2.589 3.163-2.589h3.615c1.657 0 2.861-1.37 2.861-3.045 0-2.131-1.506-3.806-3.464-3.806z" fill="#049483"/><path d="M20.361 19.509h-4.066c-1.958 0-3.615-1.675-3.615-3.807V7.937s0 3.198 3.916 3.198h4.519c1.958 0 3.614 1.674 3.614 3.806-.15 2.436-1.958 4.568-4.368 4.568z" fill="#00ab97"/></svg>