<svg width="38" height="24" role="img" xmlns="http://www.w3.org/2000/svg" viewBox="0 0 38 24" aria-labelledby="pi-bitcoin_cash"><title id="pi-bitcoin_cash">Bitcoin Cash</title><path d="M35 0H3a3 3 0 0 0-3 3v18a3 3 0 0 0 3 3h32a3 3 0 0 0 3-3V3a3 3 0 0 0-3-3z" style="isolation:isolate" opacity=".07"/><path d="M35 1a2 2 0 0 1 2 2v18a2 2 0 0 1-2 2H3a2 2 0 0 1-2-2V3a2 2 0 0 1 2-2h32" fill="#fff"/><circle cx="19" cy="12" r="8" fill="#8dc451"/><path d="M21.22 11.43a1.79 1.79 0 0 0 .16-1.12 1.81 1.81 0 0 0-2.15-1.74L19 7a.1.1 0 0 0-.11-.09l-.58.09a.1.1 0 0 0-.07.12l.27 1.58-.72.13-.27-1.54a.1.1 0 0 0-.11-.09l-.54.1a.1.1 0 0 0-.07.11L17.08 9l-1.52.27a.1.1 0 0 0-.07.12l.1.61a.1.1 0 0 0 .11.09h.09a.78.78 0 0 1 .86.7l.58 3.21a.8.8 0 0 1-.51.93.1.1 0 0 0-.07.09v.64a.12.12 0 0 0 0 .09.09.09 0 0 0 .08 0l1.5-.26.27 1.54a.1.1 0 0 0 .11.08l.54-.1a.1.1 0 0 0 .07-.12l-.22-1.5.71-.13.27 1.54a.1.1 0 0 0 .11.08l.54-.09a.1.1 0 0 0 .07-.12l-.27-1.54.36-.06a1.8 1.8 0 0 0 1.43-2.37 1.7 1.7 0 0 0-1-1.28zM18 10.06l1.07-.19a.84.84 0 0 1 .29 1.64l-1.07.19-.29-1.64zm2.16 3.85l-1.43.25-.29-1.64 1.43-.25a.84.84 0 0 1 .29 1.64z" fill="#fff"/></svg>