<svg role="img" width="38" height="24" viewBox="0 0 38 24" aria-labelledby="pi-bizumpaynlversion" version="1.1" xmlns="http://www.w3.org/2000/svg"><title id="pi-bizumpaynlversion">Bizum</title><path d="M35 0H3C1.3 0 0 1.3 0 3v18c0 1.7 1.4 3 3 3h32c1.7 0 3-1.3 3-3V3c0-1.7-1.4-3-3-3z" fill="#000" fill-rule="nonzero" opacity=".07"/><path d="M35 1c1.1 0 2 .9 2 2v18c0 1.1-.9 2-2 2H3c-1.1 0-2-.9-2-2V3c0-1.1.9-2 2-2h32" fill="#05c0c7" fill-rule="nonzero" opacity="1" fill-opacity="1"/><path d="M15.599 9.498c.62.45 1.517.31 1.966-.31l1.657-2.276c.45-.62.31-1.517-.31-1.967a1.423 1.423 0 00-1.967.31L15.29 7.532c-.45.62-.31 1.484.31 1.966zm7.52-3.209a1.423 1.423 0 00-1.966.31l-6.624 9.073c-.45.62-.31 1.517.31 1.966.62.45 1.517.31 1.967-.31l6.59-9.072a1.385 1.385 0 00-.277-1.967zm-8.143-.724c.45-.62.31-1.516-.31-1.966-.62-.45-1.516-.346-1.966.31-.45.62-.346 1.483.31 1.966.62.45 1.484.31 1.966-.31zM24.981 18.02a1.423 1.423 0 00-1.966.31c-.45.62-.31 1.516.31 1.966.62.45 1.517.31 1.966-.31.45-.62.31-1.484-.31-1.966zm-2.586-3.588a1.423 1.423 0 00-1.966.31l-1.657 2.277c-.45.62-.31 1.516.31 1.966.62.45 1.517.31 1.966-.31l1.657-2.276c.45-.62.31-1.517-.31-1.967z" fill="#fff" fill-rule="evenodd"/></svg>