<svg width="38" height="24" viewBox="0 0 38 24" fill="none" xmlns="http://www.w3.org/2000/svg" role="img" aria-labelledby="pi-bmo"><title id="pi-bmo">BMO</title><g clip-path="url(#pi-bmo-clip0_10420_219342)"><path opacity=".07" d="M35 0H3C1.3 0 0 1.3 0 3v18c0 1.7 1.4 3 3 3h32c1.7 0 3-1.3 3-3V3c0-1.7-1.4-3-3-3z" fill="#000"/><path d="M35 1c1.1 0 2 .9 2 2v18c0 1.1-.9 2-2 2H3c-1.1 0-2-.9-2-2V3c0-1.1.9-2 2-2h32z" fill="#fff"/><path d="M19 4a8 8 0 100 16 8 8 0 000-16z" fill="#ED1C24"/><path d="M18.755 9.556l-1.389-1.812a.31.31 0 00-.38-.091.301.301 0 00-.106.087l-1.653 2.082v3.267l1.648-2.109a.323.323 0 01.393-.09.318.318 0 01.112.092l1.396 1.825a.294.294 0 00.222.115.29.29 0 00.222-.115l1.396-1.825a.324.324 0 01.393-.093.312.312 0 01.11.091l1.645 2.107V9.82l-1.653-2.082a.303.303 0 00-.38-.085.316.316 0 00-.109.09l-1.378 1.813a.302.302 0 01-.244.12.311.311 0 01-.245-.12zm4.02 5.926H15.22v-2.395h7.556v2.395z" fill="#fff"/></g><defs><clipPath id="pi-bmo-clip0_10420_219342"><path fill="#fff" d="M0 0h38v24H0z"/></clipPath></defs></svg>