<svg viewBox="0 0 38 24" xmlns="http://www.w3.org/2000/svg" width="38" height="24" role="img" aria-labelledby="pi-bnbchain"><title id="pi-bnbchain">BNB Chain</title><rect width="38" height="24" rx="3" fill-opacity=".07"/><rect x="1" y="1" width="36" height="22" rx="2" fill="#fff"/><path d="M14.62 6.53l4-2.32 4 2.32-1.47.86-2.51-1.47-2.54 1.47zm8 2.93l-1.43-.86-2.55 1.46L16.1 8.6l-1.48.86v1.71l2.54 1.46v2.93l1.48.86 1.48-.86v-2.93l2.54-1.46zm0 4.64v-1.72l-1.47.86V15zm1.05.6l-2.54 1.47v1.71l4-2.32v-4.64l-1.48.86zM22.24 8l1.47.86v1.71l1.48-.85V8l-1.48-.86zm-5.08 8.8v1.7l1.48.86 1.48-.86v-1.71l-1.48.86zm-2.54-2.7l1.48.9v-1.76l-1.48-.86zM17.16 8l1.48.86L20.12 8l-1.48-.86zm-3.59.86L15.05 8l-1.48-.86-1.48.86v1.71l1.48.85zm0 2.93l-1.48-.86v4.64l4 2.32v-1.72l-2.52-1.47z" fill="#f0b90b"/></svg>