<svg role="img" width="38" height="24" viewBox="0 0 38 24" aria-labelledby="pi-bni" xmlns="http://www.w3.org/2000/svg"><title id="pi-bni">BNI</title><path d="M35 0H3a3 3 0 00-3 3v18a3 3 0 003 3h32a3 3 0 003-3V3a3 3 0 00-3-3z" opacity=".07" style="isolation:isolate"/><path d="M35 1a2 2 0 012 2v18a2 2 0 01-2 2H3a2 2 0 01-2-2V3a2 2 0 012-2h32" fill="#fff"/><g clip-path="url(#pi-bni-clip0)" fill-rule="evenodd" clip-rule="evenodd"><path d="M3.483 11.161l2.635 3.325-2.635 2.184V11.16zM4.543 16.67l1.984-1.66 1.37 1.66H4.543zM3.483 9.382l.687.87 2.828 3.534.917-.73s-.761-.895-1.272-1.895c-.998-1.954-.291-3.17-.291-3.17h-2.87v1.391zM7.402 14.331l.933-.77s.891 1.173 1.925 1.45c1.354.363 1.954-.525 1.954-.525v2.184H9.239l.67-.58s-.35.233-1.205-.36c-.505-.35-1.302-1.399-1.302-1.399zM7.487 7.984s-.297.406-.086 1.398c.227 1.06 1.128 2.183 1.126 2.158 0 0 .058-1.114.712-1.769 1.394-1.394 2.975-.564 2.975-.564V7.991l-4.727-.007z" fill="#F15A23"/><path d="M12.214 10.677s-.882-.755-1.649-.755c-.98 0-1.516.846-1.516 1.46 0 .895.43 1.392.86 1.823.62.62 1.373 1.287 2.305.75v-3.278z" fill="#F15A23"/><path d="M22.256 8.075h2.08s1.844 2.791 2.75 3.944a132.962 132.962 0 011.88 2.467V8.7c0-.25-.656-.625-.656-.625h2.4s-.788.324-.788.625v8.417s-.755-.419-1.612-1.414c-.962-1.119-4.386-5.634-4.386-5.634v5.848c0 .3.656.753.656.753h-2.324s.637-.457.637-.753V8.7c0-.265-.637-.625-.637-.625zM32.054 8.075h2.67s-.717.34-.717.625v7.217c0 .312.717.753.717.753h-2.67s.667-.451.667-.753V8.7c0-.274-.667-.625-.667-.625zM14.399 8.075s.692.345.692.625v7.217c0 .307-.692.753-.692.753h3.956c.247 0 3.017-.453 3.017-2.588 0-2.135-2.151-2.335-2.151-2.335s1.31-.364 1.31-1.825c0-1.575-1.929-1.847-2.176-1.847h-3.956zm2.101 3.53V8.918h1.608c.247 0 1.113.29 1.113 1.36 0 .883-.866 1.327-1.113 1.327H16.5zm0 .705h1.855c.247 0 1.706.379 1.706 1.645 0 1.29-1.459 1.748-1.706 1.748H16.5V12.31z" fill="#005E6A"/></g><defs><clipPath id="pi-bni-clip0"><path fill="#fff" transform="translate(3 7)" d="M0 0h32v10.423H0z"/></clipPath></defs></svg>