<svg width="38" height="24" viewBox="0 0 38 24" fill="none" xmlns="http://www.w3.org/2000/svg" role="img" aria-labelledby="pi-bnp"><title id="pi-bnp">BNP</title><g clip-path="url(#pi-bnp-clip0_39_283)"><path opacity=".07" d="M35 0H3C1.3 0 0 1.3 0 3v18c0 1.7 1.4 3 3 3h32c1.7 0 3-1.3 3-3V3c0-1.7-1.4-3-3-3z" fill="#000"/><path d="M35 1c1.1 0 2 .9 2 2v18c0 1.1-.9 2-2 2H3c-1.1 0-2-.9-2-2V3c0-1.1.9-2 2-2h32z" fill="#fff"/><g clip-path="url(#pi-bnp-clip1_39_283)"><path d="M26.4 19.4H11V4h15.4v15.4z" fill="url(#pi-bnp-paint0_linear_39_283)"/><path d="M25.925 11.802c0 3.222.136 6.512.136 6.512 0 .374-.238.611-.543.611h-13.33c-.306 0-.51-.271-.543-.61 0 0-.374-2.816-.374-7.09s.373-6.31.373-6.31c.034-.338.238-.61.543-.61h13.331c.305 0 .543.272.543.61 0-.033-.136 3.664-.136 6.887z" fill="url(#pi-bnp-paint1_linear_39_283)"/><path d="M22.94 8.172c-.95.543-1.221.577-2.273 1.221l.068-.135c.543-.577.78-.848 1.12-1.357-.95.068-2.34.17-3.325.373l.068-.102c.882-.44 2.578-.882 3.426-.983-.203-.306-1.9-1.222-2.306-1.391l.034-.102c1.289.136 2.985.746 3.697 1.187.305-.101.644-.101 1.221-.17 0 0-.102.34-.712.78.17.408-.204 2.748-.543 3.359 0-.95-.102-2.17-.475-2.68z" fill="url(#pi-bnp-paint2_linear_39_283)"/><path d="M15.986 16.483l.034-.102c-.508-.204-1.017-.34-1.424-.746a3.88 3.88 0 01.508-.984l.034-.102c-.44.068-.814.238-1.187.306-.305-.51-.407-1.222-.577-1.9l-.033.102c-.068.78-.102 1.323 0 1.933-.306.102-.577.102-.848.204l-.034.102c.407.237.712.44 1.187.644.237.509.509.882.916 1.29l.034-.103c-.068-.305-.17-.542-.136-.882a7.92 7.92 0 001.526.238z" fill="url(#pi-bnp-paint3_linear_39_283)"/><path d="M17.411 8.749s-.204.373-.373.848h-.034c1.187.17 2.307.644 2.578.814l-.034.102c-1.255-.238-1.9-.204-2.34-.17-.475.068-.543.102-.543.102-.272.577-.441 1.526-.509 1.865l-.034.102c-.237-.542-.543-1.628-.543-1.628-.61.34-2.035 1.662-2.035 1.662.78-1.56 1.594-2.272 1.594-2.272-.271-.272-.983-.408-1.526-.441l.034-.102c.339-.102 1.018-.136 1.458-.17h.848c.475-.339 1.188-.678 1.459-.712z" fill="url(#pi-bnp-paint4_linear_39_283)"/><path d="M18.904 15.5a9.86 9.86 0 01-.747.915c-.407.102-.882.068-1.255.068l-.034.102c.272.135.543.237.848.305-.237.203-.542.373-.78.543l-.034.101c.475-.101 1.12-.305 1.595-.61.237 0 .474 0 .644-.034l.034-.102c-.034-.102-.136-.17-.17-.34.441-.338.747-.644 1.12-1.017l.067-.101c-.373.237-.814.61-1.22.814-.035-.238-.035-.407-.069-.645z" fill="url(#pi-bnp-paint5_linear_39_283)"/><path d="M23.008 8.07c-.95.543-1.255.577-2.273 1.222.61-.645.814-.916 1.188-1.493-.95.034-2.341.17-3.325.373.848-.475 2.578-.983 3.46-1.085-.203-.272-1.9-1.187-2.306-1.39 1.323.1 2.985.61 3.765 1.085.305-.102.644-.102 1.22-.17-.135.237-.169.407-.711.78.17.407-.204 2.748-.543 3.358-.034-.95-.102-2.17-.475-2.68zm-6.954 8.311c-.542-.204-.95-.44-1.357-.848.136-.373.272-.644.51-.984-.442.068-.78.102-1.154.204-.305-.543-.441-1.086-.61-1.798-.102.78-.102 1.323 0 1.934-.34.101-.611.17-.883.305.407.237.747.44 1.188.644.237.51.509.882.916 1.29-.102-.34-.136-.611-.068-.984.44.135.882.203 1.458.237zm1.425-7.734c-.17.238-.373.645-.407.814 1.39.204 2.51.95 2.51.95-1.221-.237-1.866-.204-2.34-.17-.442.034-.543.102-.543.102-.34.713-.543 1.968-.543 1.968-.203-.543-.543-1.629-.543-1.629-.61.34-2.035 1.662-2.035 1.662.78-1.56 1.594-2.272 1.594-2.272-.271-.272-.983-.407-1.526-.441.271-.102.983-.238 1.526-.272h.848c.475-.339 1.188-.678 1.459-.712zm1.492 6.75a9.58 9.58 0 01-.746.916 4.43 4.43 0 01-1.323.17c.272.136.543.237.848.305a6.992 6.992 0 01-.848.645c.475-.102 1.12-.306 1.595-.611.237 0 .474 0 .644-.034-.034-.136-.068-.237-.102-.44a8.28 8.28 0 001.12-1.018 8.234 8.234 0 01-1.188.678v-.61z" fill="#fff"/></g></g><defs><linearGradient id="pi-bnp-paint0_linear_39_283" x1="18.7" y1="3.629" x2="18.7" y2="19.869" gradientUnits="userSpaceOnUse"><stop stop-color="#00774A"/><stop offset=".6" stop-color="#8CCAAE"/><stop offset="1" stop-color="#00975F"/></linearGradient><linearGradient id="pi-bnp-paint1_linear_39_283" x1="18.676" y1=".186" x2="18.676" y2="18.436" gradientUnits="userSpaceOnUse"><stop stop-color="#00975F"/><stop offset=".3" stop-color="#8CCAAE"/><stop offset=".55" stop-color="#00975F"/><stop offset=".835" stop-color="#00774A"/><stop offset=".869" stop-color="#007C4E"/><stop offset=".924" stop-color="#00895A"/><stop offset=".994" stop-color="#009E6E"/><stop offset="1" stop-color="#00A070"/></linearGradient><linearGradient id="pi-bnp-paint2_linear_39_283" x1="21.599" y1="17.428" x2="21.599" y2="5.618" gradientUnits="userSpaceOnUse"><stop stop-color="#00A97C"/><stop offset="1" stop-color="#00975F"/></linearGradient><linearGradient id="pi-bnp-paint3_linear_39_283" x1="14.272" y1="17.428" x2="14.272" y2="5.615" gradientUnits="userSpaceOnUse"><stop stop-color="#00A97C"/><stop offset="1" stop-color="#00975F"/></linearGradient><linearGradient id="pi-bnp-paint4_linear_39_283" x1="16.554" y1="17.426" x2="16.554" y2="5.62" gradientUnits="userSpaceOnUse"><stop stop-color="#00A97C"/><stop offset="1" stop-color="#00975F"/></linearGradient><linearGradient id="pi-bnp-paint5_linear_39_283" x1="18.528" y1="17.428" x2="18.528" y2="5.62" gradientUnits="userSpaceOnUse"><stop stop-color="#00A97C"/><stop offset="1" stop-color="#00975F"/></linearGradient><clipPath id="pi-bnp-clip0_39_283"><path fill="#fff" d="M0 0h38v24H0z"/></clipPath><clipPath id="pi-bnp-clip1_39_283"><path fill="#fff" transform="matrix(1 0 0 -1 11 19.4)" d="M0 0h15.4v15.4H0z"/></clipPath></defs></svg>