<svg width="38" height="24" viewBox="0 0 38 24" fill="none" xmlns="http://www.w3.org/2000/svg" role="img" aria-labelledby="pi-bny"><title id="pi-bny">BNY</title><g clip-path="url(#pi-bny-clip0_10420_219291)"><path opacity=".07" d="M35 0H3C1.3 0 0 1.3 0 3v18c0 1.7 1.4 3 3 3h32c1.7 0 3-1.3 3-3V3c0-1.7-1.4-3-3-3z" fill="#000"/><path d="M35 1c1.1 0 2 .9 2 2v18c0 1.1-.9 2-2 2H3c-1.1 0-2-.9-2-2V3c0-1.1.9-2 2-2h32z" fill="#fff"/><path d="M11.027 12.021L7.65 13.305 5 14.337l1.702-2.316L5 9.705l2.65 1.005 3.377 1.311z" fill="#2B9CAE"/><path d="M11.962 8.994h4.366c1.689 0 2.107.725 2.107 1.395v.083c0 .726-.642 1.186-1.088 1.228.655.084 1.381.586 1.381 1.52v.084c0 .81-.488 1.702-2.372 1.702h-4.394v-6.04.028zm1.841 1.255v1.046h2.065c.488 0 .642-.237.642-.516s-.168-.53-.642-.53h-2.065zm0 2.246v1.144h2.177c.572 0 .725-.292.725-.6 0-.293-.167-.544-.725-.544h-2.177zm7.701-3.501l2.47 3.362V8.994h1.841v6.04H23.64l-2.442-3.32v3.32h-1.841v-6.04h2.148zm6.92 3.516L25.83 8.993h2.288l1.298 1.771 1.297-1.771H33l-2.595 3.515v2.511H28.41v-2.51h.014z" fill="#04243C"/></g><defs><clipPath id="pi-bny-clip0_10420_219291"><path fill="#fff" d="M0 0h38v24H0z"/></clipPath></defs></svg>