<svg width="38" height="24" viewBox="0 0 38 24" role="img" fill="none" xmlns="http://www.w3.org/2000/svg" aria-labelledby="pi-bobpayinstanteft"><title id="pi-bobpayinstanteft">Bob Pay Instant EFT</title><path d="M1 3a2 2 0 012-2h32a2 2 0 012 2v18a2 2 0 01-2 2H3a2 2 0 01-2-2V3z" fill="#fff"/><path d="M0 21V3a3 3 0 013-3v1a2 2 0 00-2 2v18l.01.204A2 2 0 003 23h32l.204-.01A2 2 0 0037 21V3a2 2 0 00-1.796-1.99L35 1V0a3 3 0 013 3v18a3 3 0 01-3 3H3a3 3 0 01-3-3zM35 0v1H3V0h32z" fill="#000" fill-opacity=".07"/><path d="M5.322 11.677a2.216 2.216 0 00-1.445.453V9.876a.439.439 0 00-.877 0v3.986c0 1.24.998 2.268 2.237 2.26A2.224 2.224 0 007.445 13.8a2.231 2.231 0 00-2.122-2.123zm-.099 3.568A1.348 1.348 0 013.877 13.9a1.347 1.347 0 111.346 1.346z" fill="#1E055B"/><path d="M10.552 13.899H8.687a.438.438 0 000 .877h1.865a.438.438 0 100-.877zM6.748 8.405l-.806 1.94a.438.438 0 00.81.337l.805-1.94a.438.438 0 00-.81-.337zm3.659 3.11l-2.023.838a.439.439 0 00.336.81l2.022-.837a.439.439 0 00-.335-.81zm-.829-2.608l-2.185 2.185a.439.439 0 00.62.62l2.185-2.185a.439.439 0 00-.62-.62zm23.892 5.841v-2.631h-.981v-.506H35v.506h-.98v2.63h-.55zm-3.43 0V11.61h2.191v.506h-1.637v.936h1.402v.505h-1.402v1.19h-.555zm-2.731-.006v-3.137h2.214v.506h-1.66v.825h1.442v.497h-1.442v.803h1.66v.505h-2.214z" fill="#007AF9"/><path d="M26.551 14.748a.99.99 0 01-.43-.08.494.494 0 01-.235-.249 1.105 1.105 0 01-.071-.426v-1.25h-.382v-.334h.382v-.696h.377v.696h.625v.333h-.625v1.211c0 .16.028.278.084.355.06.074.177.111.355.111h.173v.329h-.253zm-3.571 0v-2.339h.364l.018.355a.702.702 0 01.204-.213.9.9 0 01.27-.124c.101-.03.199-.044.294-.044.227 0 .405.047.532.142.13.094.222.223.275.386.056.16.084.341.084.545v1.292h-.377v-1.19c0-.109-.007-.214-.022-.315a.781.781 0 00-.08-.27.43.43 0 00-.169-.187.546.546 0 00-.297-.07.62.62 0 00-.395.128.808.808 0 00-.244.346c-.053.145-.08.308-.08.488v1.07h-.377zm-1.71.026c-.107 0-.21-.013-.311-.04a.925.925 0 01-.267-.129.695.695 0 01-.186-.217.676.676 0 01-.066-.306.73.73 0 01.07-.337.59.59 0 01.2-.218.869.869 0 01.289-.115c.109-.024.223-.035.341-.035h.688a.941.941 0 00-.058-.347.439.439 0 00-.177-.226.575.575 0 00-.329-.084.947.947 0 00-.23.027.492.492 0 00-.182.084.334.334 0 00-.111.155h-.404a.612.612 0 01.12-.27.745.745 0 01.222-.187 1.07 1.07 0 01.284-.11c.1-.024.2-.036.301-.036.338 0 .577.099.72.297.141.198.212.466.212.803v1.264h-.315l-.022-.297a.672.672 0 01-.235.204.916.916 0 01-.284.094 1.475 1.475 0 01-.27.026zm.035-.333a.935.935 0 00.381-.07.57.57 0 00.342-.564v-.115h-.413c-.097 0-.193.001-.288.004-.095.003-.18.015-.257.036a.388.388 0 00-.187.106c-.044.05-.066.123-.066.217a.34.34 0 00.066.218.452.452 0 00.182.128.72.72 0 00.24.04zm-1.666.333c-.246 0-.419-.066-.52-.2-.097-.133-.146-.322-.146-.567v-1.265h-.381v-.333h.381v-.7h.378v.7h.718v.333h-.718v1.216c0 .088.007.17.022.244a.32.32 0 00.093.173c.047.041.118.063.213.066a.412.412 0 00.177-.035.485.485 0 00.133-.085l.165.276a.768.768 0 01-.515.177zm-2.284 0a1.74 1.74 0 01-.324-.031 1.077 1.077 0 01-.302-.107.693.693 0 01-.23-.204.7.7 0 01-.12-.319h.381a.43.43 0 00.142.195.68.68 0 00.227.102c.085.021.167.031.244.031.047 0 .102-.003.164-.009a.709.709 0 00.177-.04.338.338 0 00.142-.101.276.276 0 00.058-.187.252.252 0 00-.04-.146.288.288 0 00-.11-.093.54.54 0 00-.174-.058 8.869 8.869 0 00-.448-.084 1.17 1.17 0 01-.417-.151.855.855 0 01-.115-.089.635.635 0 01-.142-.257.799.799 0 01-.018-.173c0-.116.022-.215.066-.298a.574.574 0 01.196-.208.881.881 0 01.284-.124c.109-.027.226-.04.35-.04.154 0 .291.025.413.075a.734.734 0 01.306.213c.08.092.127.206.142.342h-.35a.33.33 0 00-.17-.209.662.662 0 00-.35-.084c-.047 0-.1.004-.16.013a.547.547 0 00-.168.045.312.312 0 00-.133.097.25.25 0 00-.053.169c0 .065.016.12.048.164a.37.37 0 00.147.106c.062.027.133.05.213.067l.341.066c.125.021.222.043.293.067.095.03.173.071.235.124a.47.47 0 01.142.191c.033.074.049.16.049.257a.63.63 0 01-.084.342.566.566 0 01-.218.208c-.091.05-.193.086-.306.107a1.83 1.83 0 01-.328.031zm-3.473-.026v-2.339h.364l.017.355a.701.701 0 01.204-.213.9.9 0 01.271-.124c.1-.03.198-.044.293-.044.228 0 .405.047.532.142.13.094.222.223.275.386.057.16.085.341.085.545v1.292h-.377v-1.19c0-.109-.008-.214-.023-.315a.781.781 0 00-.08-.27.428.428 0 00-.168-.187.546.546 0 00-.297-.07.62.62 0 00-.395.128.808.808 0 00-.244.346c-.053.145-.08.308-.08.488v1.07h-.377zm-1.068 0V11.61h.386v3.137h-.386z" fill="#1E055B"/></svg>