<svg width="38" height="24" viewBox="0 0 38 24" role="img" fill="none" xmlns="http://www.w3.org/2000/svg" aria-labelledby="pi-bobpaymanualeft"><title id="pi-bobpaymanualeft">Bob Pay Manual EFT</title><path d="M1 3a2 2 0 012-2h32a2 2 0 012 2v18a2 2 0 01-2 2H3a2 2 0 01-2-2V3z" fill="#fff"/><path d="M0 21V3a3 3 0 013-3v1a2 2 0 00-2 2v18l.01.204A2 2 0 003 23h32l.204-.01A2 2 0 0037 21V3a2 2 0 00-1.796-1.99L35 1V0a3 3 0 013 3v18a3 3 0 01-3 3H3a3 3 0 01-3-3zM35 0v1H3V0h32z" fill="#000" fill-opacity=".07"/><path d="M5.297 11.637a2.192 2.192 0 00-1.43.448v-2.23a.434.434 0 00-.867 0V13.8c0 1.226.987 2.243 2.213 2.236a2.2 2.2 0 002.184-2.298 2.207 2.207 0 00-2.1-2.1zm-.098 3.53a1.333 1.333 0 01-1.331-1.332c0-.734.597-1.332 1.331-1.332s1.332.598 1.332 1.332c0 .734-.598 1.332-1.332 1.332z" fill="#1E055B"/><path d="M10.47 13.835H8.625a.434.434 0 100 .867h1.845a.434.434 0 000-.867zM6.707 8.4l-.797 1.92a.434.434 0 00.801.333l.797-1.92a.434.434 0 00-.801-.332zm3.62 3.077l-2.001.83a.434.434 0 00.332.8l2-.828a.434.434 0 00-.331-.802zm-.821-2.58l-2.16 2.161a.434.434 0 00.613.614l2.16-2.162a.434.434 0 00-.613-.613zm23.98 5.777v-2.602h-.97v-.5H35v.5h-.97v2.602h-.544zm-3.393 0v-3.102h2.168v.5h-1.62v.926h1.388v.5h-1.387v1.176h-.549zm-2.713 0v-3.102h2.19v.5h-1.64v.816h1.426v.492H27.93v.794h1.641v.5h-2.19z" fill="#007AF9"/><path d="M26.368 14.674v-3.102h.373v3.102h-.373zm-1.693.026a.913.913 0 01-.57-.167.687.687 0 01-.185-.214.668.668 0 01-.065-.303.72.72 0 01.07-.334.584.584 0 01.197-.215.856.856 0 01.286-.114c.108-.023.22-.035.337-.035h.68a.93.93 0 00-.056-.342.434.434 0 00-.176-.224.57.57 0 00-.325-.083.938.938 0 00-.228.026.487.487 0 00-.18.083.33.33 0 00-.11.154h-.399a.605.605 0 01.119-.268.737.737 0 01.22-.184c.087-.05.18-.086.28-.11.1-.023.199-.035.298-.035.334 0 .57.098.711.294.14.196.21.461.21.795v1.25h-.31l-.023-.294a.666.666 0 01-.232.202.902.902 0 01-.281.092 1.449 1.449 0 01-.268.027zm.035-.329a.925.925 0 00.378-.07.564.564 0 00.338-.557v-.114h-.408c-.097 0-.192.001-.286.004a1.122 1.122 0 00-.254.035.383.383 0 00-.184.106c-.044.05-.066.121-.066.215 0 .087.022.159.066.215a.448.448 0 00.18.127.72.72 0 00.236.04zm-2.34.329c-.318 0-.561-.084-.728-.254-.164-.17-.246-.43-.246-.781v-1.303h.373v1.285c0 .152.022.283.066.39.044.11.11.192.198.251.09.056.203.083.337.083a.65.65 0 00.347-.083.497.497 0 00.198-.25c.044-.108.066-.239.066-.39V12.36h.373v1.304c0 .35-.085.611-.255.781-.167.17-.41.255-.729.255zm-3.558-.026v-2.313h.36l.018.352a.692.692 0 01.202-.211.892.892 0 01.267-.123c.1-.03.196-.044.29-.044.225 0 .4.047.526.14.13.094.22.222.273.382.055.158.083.338.083.54v1.277h-.373v-1.176a2.08 2.08 0 00-.022-.311.772.772 0 00-.079-.268.424.424 0 00-.167-.184.54.54 0 00-.294-.07.614.614 0 00-.39.127.8.8 0 00-.242.342 1.392 1.392 0 00-.079.483v1.057h-.373zm-1.692.026a.913.913 0 01-.57-.167.686.686 0 01-.185-.214.668.668 0 01-.066-.303.72.72 0 01.07-.334.583.583 0 01.198-.215.857.857 0 01.285-.114c.108-.023.22-.035.338-.035h.68a.932.932 0 00-.057-.342.434.434 0 00-.175-.224.57.57 0 00-.325-.083.937.937 0 00-.228.026.486.486 0 00-.18.083.33.33 0 00-.11.154h-.4a.606.606 0 01.12-.268.737.737 0 01.218-.184 1.08 1.08 0 01.281-.11c.1-.023.2-.035.299-.035.333 0 .57.098.71.294.141.196.211.461.211.795v1.25h-.311l-.022-.294a.665.665 0 01-.233.202.901.901 0 01-.28.092 1.45 1.45 0 01-.268.027zm.035-.329a.925.925 0 00.377-.07.564.564 0 00.338-.557v-.114h-.408c-.097 0-.192.001-.285.004a1.122 1.122 0 00-.255.035.383.383 0 00-.184.106c-.044.05-.066.121-.066.215 0 .087.022.159.066.215a.448.448 0 00.18.127.72.72 0 00.237.04zm-4.448.303v-3.102h.58l.93 1.707.917-1.707h.566v3.102h-.381v-2.699l-1.023 1.887h-.176l-1.03-1.887v2.7h-.383z" fill="#1E055B"/></svg>