<svg width="38" height="24" viewBox="0 0 38 24" fill="none" role="img" aria-labelledby="pi-boekencadeau" version="1.1" xmlns="http://www.w3.org/2000/svg"><title id="pi-boekencadeau">Boeken Cadeau</title><path opacity=".07" d="M35 0H3C1.3 0 0 1.3 0 3v18c0 1.7 1.4 3 3 3h32c1.7 0 3-1.3 3-3V3c0-1.7-1.4-3-3-3z" fill="#000"/><path d="M35 1c1.1 0 2 .9 2 2v18c0 1.1-.9 2-2 2H3c-1.1 0-2-.9-2-2V3c0-1.1.9-2 2-2h32z" fill="#fff" fill-opacity="1"/><path d="M8.994 10.42c.08.654-1.12 1.16-1.408.535-.05-.366.09-.713-.01-1.07-.327-2.34 1.606-.902 1.418.525M7.537 7.357l-.12-.902.1-.159c.902-.337.674 1.775.03 1.07zm2.498 2.419c-.02-.258-.149-.546-.268-.774v-.04c-.347-.703-1.249-1.01-.793-1.903.189-1.278-1.358-1.943-2.38-1.407.08 1.992.308 4.163.259 6.166.912-.12 2.33.347 2.914-.536.189-.505.337-.971.268-1.496" fill="#450f11"/><path d="M13.326 9.647c.248.961-.882 1.844-1.21.614-.079-.862-.257-1.784-.158-2.666-.04-.932.813-1.735 1.299-.575.089.892.129 1.735.07 2.627zm1.1-.397c-.03-.902 0-1.992-.089-2.885-1.318-2.17-3.965-.297-3.45 1.874.04.605.03 1.428.11 2.032.376 2.875 4.242 1.795 3.43-1.02" fill="#e3171c"/><path d="M18.61 11.431c.119-1.15-1.874.08-1.933-.882l-.05-.02c.1-.277.12-.654.12-.942.019-1.11 1.833.248 1.367-1.09-1.02.158-1.834.198-1.576-1.11-.258-1.28.724-.992 1.596-1.061l-.07-.704c-.822-.119-1.665.129-2.488.03-.059 1.992.268 3.995.11 5.987 0 0 .02.01.03.02.97-.119 1.952.06 2.914-.07 0-.059-.01-.098-.02-.168" fill="#d01319"/><path d="M22.07 10.202c-1.993-1.23.188-2.806.763-4.183l-.674-.437c-.407.327-.466.992-.793 1.398-.05.06-.1.139-.149.198-.178.238-.238.565-.505.724-.605-.456.148-1.626-.15-2.31-.267.04-.842-.129-.911.228.08 1.011-.03 1.983-.02 2.994.208.991-.803 3.321.862 2.944.417-.208-.188-1.13.338-1.328.376.208.574.496.892.783.079.198.347.387.495.535h.05c.178-.069.525-.277.674-.426l-.862-1.12z" fill="#b41918"/><path d="M26.838 11.431c.119-1.15-1.874.08-1.933-.882l-.05-.02c.1-.277.12-.654.12-.942.01-1.11 1.833.248 1.367-1.09-1.02.158-1.834.198-1.576-1.11-.248-1.28.724-.992 1.596-1.061l-.07-.704c-.822-.119-1.665.129-2.487.03-.06 1.992.267 3.995.109 5.987.01 0 .02.01.03.02.97-.119 1.952.06 2.914-.07 0-.059-.01-.098-.02-.168" fill="#eb652a"/><path d="M31.468 6.365a4.409 4.409 0 010-.723c-.01-.01-.02-.03-.03-.04l-.773.05s-.02.02-.02.03c-.04 1.417.248 2.854-.238 4.203-.298-.12-.347-.357-.407-.595-.099-.307-.257-.654-.386-.952v-.05c-.09-.237-.397-.485-.387-.773-.446-.594-.367-1.943-1.279-1.903-.129-.01-.119.198-.129.278.219 1.705-.02 3.896.12 5.561.287-.03.535 0 .832-.02-.119-.733-.06-1.546-.05-2.28.635-.09.576.863.823 1.26.11.326.06.733.218 1.06.357.188 1.051.228 1.408 0 .238-1.586.159-3.51.307-5.125" fill="#961914"/><path d="M8.835 18.34c-.01-.128 0-.267-.01-.386-1.546-.089-1.467-1.526-1.407-2.726.03-.902.129-1.983 1.328-1.923v-.674c-2.627-1.309-2.151 3.4-2.21 4.897.247.852 1.01 1.18 1.903 1.15.248.04.476-.04.406-.337" fill="#ed712f"/><path d="M12.612 15.674a.566.566 0 01-.129.208c-3.598.813.228-6.394.13-.208zm1.071 2.687c-.198-1.715.149-3.52-.456-5.175-.654-2.052-3.063-.179-2.984 1.279-.327 1.338-.06 2.746.07 4.094.148.377.743.149 1.08.188-.228-.277-.327-1.784-.387-2.141 2.191-.397 1.517.287 1.864 1.953.02.01.04.03.06.04.237 0 .515-.03.753 0 .03-.16.02-.11.01-.228" fill="#d62917"/><path d="M16.726 16.358c-.03.456-.089 2.022-.842 1.388-.02-1.408-.258-3.192.02-4.461 1.18.406.703 2.092.822 3.063zm.902.347c.12-2.012-.01-4.877-2.835-4.243.08 2.102.268 4.203.337 6.305h.01l.01.05s.01 0 .02.01c1.358.03 2.776-.516 2.458-2.122" fill="#621f15"/><path d="M21.812 18.41c.119-1.15-1.874.08-1.933-.882l-.05-.02.05-.129c-.1-2.607 1.814-.248 1.437-1.903-1.02.158-1.834.198-1.576-1.11-.248-1.28.724-1.002 1.596-1.061l-.07-.704c-.822-.119-1.665.129-2.488.03-.059 1.992.268 3.995.11 5.987 0 0 .02.01.03.02.97-.119 1.952.06 2.914-.07 0-.059-.01-.098-.02-.168m3.509-2.726a.566.566 0 01-.129.208c-3.598.823.228-6.394.13-.208zm1.061 2.687c-.198-1.715.149-3.52-.456-5.175-.664-2.052-3.063-.179-2.984 1.279-.327 1.338-.06 2.746.07 4.094.148.377.743.149 1.08.188-.228-.277-.327-1.784-.387-2.141 2.191-.397 1.517.297 1.864 1.953.02.01.04.03.06.04.237 0 .515-.03.753 0 .03-.16.02-.11.01-.228" fill="#d62917"/><path d="M31.468 17.746c-.12-1.646-.07-3.291-.169-4.917-.962-.178-1.15.03-1.07.942-.308 1.08.416 3.44-.962 3.787-1.418-1.002-.595-3.103-.714-4.56-.466-.209-1.07-.179-.942.465-.099 1.686-.694 5.582 1.993 5.165.515-.287.813-.753 1.05.06.308-.05.496 0 .804-.04.069-.287-.03-.605 0-.892z" fill="#da3f15"/></svg>