<svg width="38" height="24" viewBox="0 0 38 24" fill="none" xmlns="http://www.w3.org/2000/svg" role="img" aria-labelledby="pi-bogpay"><title id="pi-bogpay">Bogpay</title><g clip-path="url(#pi-bogpay-clip0)"><path d="M35 .5H3A2.5 2.5 0 00.5 3v18A2.5 2.5 0 003 23.5h32a2.5 2.5 0 002.5-2.5V3A2.5 2.5 0 0035 .5z" stroke="#000" stroke-opacity=".07"/><g clip-path="url(#pi-bogpay-clip1)"><path d="M1 1h36v22H1V1z" fill="#FEFDFD"/><path d="M26.271 4.162h.474l.497.07.332.09.379.138.308.16.331.23.308.275.26.23V5.4h.048l.166.183.308.321.213.252.236.275.237.298.308.413.142.252v.183l-.19.32-.165.253-.332.458-.473.596-.308.367-.284.32-.213.207-.143.069-.094.023h-.355l-.308-.115-.593-.252-.07.069-.237.39-.214.48-.19.573-.165.665-.118.756-.048.596v.894l.048.298.118.275.024.183-.071.183-.095.115-.331.206-.38.115v.023h.214l.402-.069.332-.137.237-.207.118-.137.095.046.142.229v.275l-.071.183-.213.23-.237.137-.26.091-.403.07h-.616l-.379-.047-.024.184v.527l.048.229.118.298.166.252.26.275.119.206.047.138-.023.229-.142.275-.19.229-.237.183-.402.207-.356.114-.355.069-.237.023h-.592l-.45-.069-.355-.114-.355-.184-.261-.206-.237-.252-.19-.298-.141-.344-.095-.39-.047-.412-.024-1.123-.071-.481-.142-.458-.214-.39-.26-.275-.166-.137-.331-.184-.308-.091-.569-.07-1.42-.137-.782-.069h-.545l-.19.115-.142.16-.094.276v.39l.07.251-.023.206-.142.207-.213.16-.26.138-.332.091h-.048v.046l.64-.046.308-.091.236-.115.166-.137h.048l.094.229v.206l-.094.183-.143.16-.307.161-.38.069h-1.018l.095.435.142.252.284.344.142.275.024.092v.32l-.166.321-.237.23-.236.137-.285.115-.355.091-.426.046h-.356l-.355-.046-.331-.091-.285-.115-.284-.183-.331-.321-.213-.32-.024-.047h-.047l-.095.138-.308.298-.26.183-.45.23-.427.137-.379.068h-.663l-.474-.114-.355-.138-.308-.183-.118-.115-.119-.137-.023-.046v-.183l.118-.138h.166l.45.23.284.068.166.023h.402l.45-.115.38-.183.26-.206.19-.206.189-.321.118-.367.024-.137v-.55l-.071-.459-.166-.618-.308-.871-.308-.802-.213-.642-.118-.504-.071-.481v-.642l.07-.436.12-.412.165-.344.19-.32.26-.321.284-.275.403-.275.355-.184.474-.16.402-.092.38-.046h1.112l1.848.115.402.023h1.066l.853-.069.616-.092.52-.114.57-.16.615-.207.64-.252.568-.252.497-.23.521-.274.521-.298.403-.252.332-.23.094-.206.213-.39.213-.297.285-.32.308-.253.26-.183.38-.207.354-.137.45-.115.403-.046z" fill="#F47235"/><path d="M27.337 9.8l.237.092.544.229.143.046h.355l.095-.023h.213l.023.023v6.6l-.023.55-.095.573-.19.595-.236.55-.237.413-.308.435-.26.298-.261.275-.237.23-.332.252-.402.274-.427.23-.45.206-.52.183-.498.115-.545.069-.52.023h-9.664l-.403-.023-.592-.092-.615-.16-.569-.207-.379-.183-.379-.206-.379-.275-.26-.206-.45-.436v-.046l-.071-.023-.308-.39-.19-.206-.07-.137h.047v-.046h.047v-.046l.095-.046.355-.045v-.046l.426-.138.498-.252.308-.252.236-.229.072-.115.07.023.166.275.26.275.214.184.332.183.355.115.237.045.237.023h.355l.426-.046.497-.137.308-.16.237-.207.142-.206.071-.16v-.321l-.094-.252-.166-.23-.237-.297-.095-.184-.07-.32v-.115l1.018-.023.379-.069.307-.16.166-.207.048-.114v-.206l-.071-.23-.26.184-.19.091-.308.092-.213.023h-.427v-.046l.427-.137.284-.16.166-.138.118-.23-.024-.229-.047-.16v-.39l.095-.274.213-.23.142-.068h.545l1.99.183.662.069.308.069.38.183.212.16.237.23.166.252.142.297.119.39.07.481.024 1.123.048.413.094.39.142.343.214.32.26.276.308.206.355.16.332.092.355.046h.592l.498-.069.378-.114.403-.184.308-.229.213-.275.095-.206.024-.23-.095-.229-.142-.183-.213-.229-.19-.32-.095-.276-.023-.16v-.527l.023-.184.119-.023.284.046h.616l.403-.069.307-.114.213-.137.166-.184.071-.183v-.275l-.142-.23-.07-.022-.214.229-.19.137-.355.138-.331.046h-.213v-.069l.378-.115.261-.16.119-.115.07-.114.024-.183-.118-.321-.048-.138-.023-.206v-.894l.047-.596.119-.756.165-.665.19-.573.213-.48.19-.322.118-.16z" fill="#FDFCFC"/><path d="M14.855 3.75h1.042l7.816.023.355.046.38.091.497.16.213.092.19.092.118.023.19-.023-.095.046-.45.16-.356.184-.237.16-.26.206-.213.184-.26.32-.238.367-.142.298-.07.138-.214.16-.474.298-.355.206-.545.298-.402.206-.663.298-.664.275-.805.275-.568.16-.521.115-.616.092-.853.069H15.59l-2.25-.138h-1.113l-.52.069-.427.115-.45.183-.355.206-.308.23-.26.251-.261.344-.166.275-.047.115-.024-.092.19-.32.141-.184.071-.115.095-.137h.048L10 9.456h.047l.024-.069.024-1.925.047-.618.095-.459.166-.435.26-.481.26-.344.261-.275.19-.183.236-.184.308-.206.237-.137.427-.184.331-.091.332-.07.355-.022 1.255-.023z" fill="#FEFDFD"/><path d="M13.695 2.008h9.97l.498.023.497.092.498.137.473.184.38.183.331.183.45.298.332.275.236.207.048.022v.046l.095.046.213.252.19.23.094.16-.024.069-.26-.023-.38-.115-.354-.069-.237-.023h-.474l-.734.092-.166.023-.237-.138-.402-.137-.427-.138-.355-.068-.237-.023-7.816-.023h-1.042l-1.255.023-.355.023-.45.091-.38.138-.378.183-.26.16-.285.207-.308.275-.166.16-.237.298-.213.344-.19.39-.141.412-.071.367-.048.618-.023 1.925-.048.07H10l-.047.114h-.048l-.047.114-.071.07-.095.16-.166.229-.094.183-.048.183-.118.344-.095.436-.024.183v.642l.095.595.142.55.308.871.308.802.213.642.142.573.048.344v.55l-.095.39-.19.366-.19.23-.26.228-.331.184-.355.114-.38.023-.165-.573-.071-.367-.071-.55-.024-.71v-8.96l.047-.757.095-.55.119-.39.189-.458.19-.39.236-.389.332-.458.26-.275.166-.183.332-.298.402-.298.356-.23.426-.229.592-.229.474-.137.52-.092.214-.023.474-.023zM27.408 9.846l.118.023.592.252.143.046h.355l.095-.023h.213l.023.023v6.6l-.023.55-.095.573-.19.595-.236.55-.237.413-.308.435-.26.298-.261.275-.237.23-.332.252-.402.274-.427.23-.45.206-.52.183-.498.115-.545.069-.52.023h-9.664l-.403-.023-.592-.092-.615-.16-.569-.207-.379-.183-.379-.206-.379-.275-.26-.207-.45-.435v-.046l-.071-.023-.308-.39-.19-.206-.07-.137h.047v-.046h.047v-.046l.095-.046.355-.045v-.046l.308-.092.237-.046.308-.137.26-.092h.119l.094.115.166.137.095.092v.046l.095.046.473.343.498.275.497.184.379.091.379.046.64.023h8.36l1.303-.046.355-.046.545-.137.189-.092.213-.069.284-.16.26-.183.261-.207.072-.022v-.046l.118-.115.308-.367.213-.343.19-.367.165-.39.095-.412.047-.39.048-1.168.023-.16-.047-.367v-2.27l.071-1.19.024-.528-.024-.504-.047-.16-.024-.184.024-.069v-.137l.142-.23.07-.045z" fill="#E7E8E8"/><path d="M12.203 9.25h.805l1.918.115.853.045h1.137l.331-.023.071.184.166.481.26.573.261.458.237.367.284.39.26.32.309.367.284.298.26.275.19.183.19.16.236.207.26.206.403.298.308.206.332.207-.071.023-.45-.23-.45-.275-.782-.527-.331-.229-.356-.275-.26-.183-.308-.23-.355-.274-.332-.252-.426-.321-.284-.207-.332-.229-.426-.275-.592-.343-.545-.252-.592-.23-.545-.16-.474-.092-.402-.046h-.569l-.497.07-.355.114-.332.16-.284.206-.213.207-.213.32-.143.298-.094.298-.048.252v.596l.071.344v.092h-.07l-.261-.367-.142-.275-.095-.252-.071-.344v-.481l.071-.344.118-.298.119-.229.19-.252.165-.183.308-.23.332-.183.379-.137.378-.07.214-.022z" fill="#FDFCFC"/><path d="M27.337 9.8l.095.046-.119.114-.095.16v.161l-.023.069.047.275.024.069.024.573-.024.458-.071 1.192v2.52l-.048-.068-.142-.23-.07-.022-.214.229-.19.137-.355.138-.331.046h-.213v-.069l.378-.115.261-.16.119-.115.07-.114.024-.183-.118-.321-.048-.138-.023-.206v-.894l.047-.596.119-.756.165-.665.19-.573.213-.48.19-.322.118-.16z" fill="#FEFDFD"/><path d="M27.455 5.377h.26l.332.069.237.114.237.184.19.252.07.16.024.115v.252l-.07.23-.143.205-.166.138-.236.114-.285.07h-.355l-.379-.093-.26-.137-.237-.206-.142-.23-.048-.16v-.367l.095-.229.166-.206.308-.183.236-.069.166-.023z" fill="#FDFCFC"/><path d="M15.353 13.031h.402l.427.069.237.069.023.046-.616.045-.426.092-.308.115-.331.16-.261.183-.284.252-.237.321-.213.436-.142.458-.071.413v.641l.094.596.143.481.165.367.048.092-.024.068-.142-.114-.166-.184-.213-.274-.213-.367-.166-.436-.095-.39-.023-.16v-.573l.094-.458.166-.435.213-.39.26-.298.143-.16.26-.206.308-.184.38-.16.402-.092.166-.023z" fill="#FEFDFD"/><path d="M24.495 15.644l.047.023-.047.527v.32l.047.413.119.481.118.298.166.275.213.23.047.045-.023.115-.142.16-.237.16-.332.138-.402.092-.166.023-.734.023v-.069l.473-.16.403-.207.213-.16h.047v-.16l-.094-.436-.048-.39v-.504l.071-.504.142-.481.095-.23.024-.022zM19.45 8.792h.166l.095.114.307.665.213.458.285.481.237.321.26.298.213.252.213.207.142.16.048.023v.046l.095.046.284.252.355.252.308.183.426.23.521.228.64.207.616.137.402.069.024.046-.403-.023-.615-.115-.498-.137-.52-.184-.688-.32-.497-.299-.284-.206-.26-.206-.285-.252-.379-.367v-.046h-.047l-.19-.229-.26-.298-.26-.343-.309-.459-.284-.504-.166-.435-.024-.16.119-.092z" fill="#FDFCFC"/><path d="M27.503 5.675h.426l.26.092.19.137.166.184v.045l-.142-.023-.142-.045h-.19l-.19.091-.094.138-.024.114.071.207.142.114.071.023h.403l-.047.115-.237.137L28 7.05h-.19l-.378-.092-.214-.137-.19-.206-.07-.16v-.276l.07-.16.167-.184.118-.091.19-.069z" fill="#F47235"/><path d="M26.745 4.781h.64l.402.092.379.16.308.207.237.206.142.183v.046l-.095-.046-.237-.206-.332-.206-.26-.092-.284-.046h-.403l-.331.069-.356.137-.308.207-.26.252-.118.137-.072.046h-.165l-.166-.114-.071-.16.047-.138.213-.23.19-.16.331-.183.356-.115.213-.046z" fill="#FDFCFC"/><path d="M21.534 7.875h.166l.237.39.284.504.332.481.236.298.214.23.284.274.26.206.332.252.331.207.427.229.45.183.308.115-.095.023-.474-.138-.497-.206-.45-.23-.45-.297-.379-.275-.166-.16-.19-.161-.307-.298-.166-.183-.26-.321-.237-.344-.213-.39-.095-.229.023-.114.095-.046zM23.429 6.89h.118l.095.114.19.32.236.345.214.275.213.252.426.412.403.298.331.206.545.275.568.207v.023l-.236-.023-.474-.138-.497-.206-.427-.23-.426-.274-.26-.206-.38-.344-.26-.275-.332-.436-.19-.343v-.138l.143-.114zM28.995 6.82l.023.07-.094.229-.213.275-.166.16-.332.206-.237.092-.379.069h-.355l-.45-.069-.284-.092-.26-.137-.072-.115.024-.137.118-.092.142.023.356.183.308.092.331.046h.403l.355-.069.284-.137.26-.23.19-.275.048-.091z" fill="#FEFDFD"/></g></g><defs><clipPath id="pi-bogpay-clip0"><path fill="#fff" d="M0 0h38v24H0z"/></clipPath><clipPath id="pi-bogpay-clip1"><rect x="1" y="1" width="36" height="22" rx="2" fill="#fff"/></clipPath></defs></svg>