<svg viewBox="0 0 38 24" xmlns="http://www.w3.org/2000/svg" role="img" width="38" height="24" aria-labelledby="pi-bol"><title id="pi-bol">Checkout via bol</title><path opacity=".07" d="M35 0H3C1.3 0 0 1.3 0 3v18c0 1.7 1.4 3 3 3h32c1.7 0 3-1.3 3-3V3c0-1.7-1.4-3-3-3z"/><path fill="#0000a4" d="M35 1c1.1 0 2 .9 2 2v18c0 1.1-.9 2-2 2H3c-1.1 0-2-.9-2-2V3c0-1.1.9-2 2-2h32"/><g fill="#fff"><path d="M19.75 9.27c3.03 0 4.19 1.97 4.19 3.71 0 1.9-1.33 3.71-4.16 3.71-3.03 0-4.22-1.96-4.22-3.71 0-1.85 1.25-3.71 4.19-3.71zm0 5.11c.86 0 1.45-.57 1.45-1.39s-.59-1.39-1.45-1.39-1.45.57-1.45 1.39.59 1.39 1.45 1.39zM24.49 7.3h2.74v9.28h-2.74V7.3z"/><circle cx="29.33" cy="15.03" r="1.67"/><path d="M7 7.3h2.74v2.27c.54-.2 1.1-.3 1.67-.3 2.16 0 3.72 1.58 3.72 3.74 0 1.63-1.12 3.57-3.66 3.57H7V7.3zm2.74 6.97c.37.07.78.1 1.05.1 1 0 1.65-.55 1.65-1.39s-.64-1.39-1.57-1.39c-.34 0-.75.05-1.13.17v2.51z"/></g></svg>
