<svg viewBox="0 0 38 24" xmlns="http://www.w3.org/2000/svg" role="img" width="38" height="24" aria-labelledby="pi-boleto"><title id="pi-boleto">Boleto</title><path fill="#fff" d="M35.7 23.965H2.3a2.307 2.307 0 0 1-2.3-2.3v-19.4C0 1 1.035-.035 2.3-.035h33.4c1.265 0 2.3 1.035 2.3 2.3v19.4c0 1.265-1.035 2.3-2.3 2.3z"/><path fill="#A7A8AB" d="M35.564 23.965H2.436c-1.344 0-2.436-1.077-2.436-2.4v-19.2c0-1.323 1.092-2.4 2.436-2.4h33.128c1.344 0 2.436 1.077 2.436 2.4v19.2c0 1.323-1.092 2.4-2.436 2.4zM2.436.925c-.806 0-1.462.646-1.462 1.44v19.2c0 .794.656 1.44 1.462 1.44h33.128c.806 0 1.462-.646 1.462-1.44v-19.2c0-.794-.656-1.44-1.462-1.44H2.436z" opacity=".25"/><path d="M8.079 4.945h.7v6.298h-.7zm-1.83 0h.7v6.298h-.7zm7.256 0h1.901v6.298h-1.901zm9.715 0h.95v6.298h-.95zm2.324 0h.95v6.298h-.95zm3.804 0h1.221v6.298h-1.221zm-1.375 0h.395v6.298h-.395zm-6.389 0h.395v6.298h-.395zm-.845 0h.395v6.298h-.395zm-2.746 0h.395v6.298h-.395zm-6.31 0h.395v6.298h-.395zm-1.163 0h.733v6.298h-.733zM6.249 19.3v-6.478H8.68c.495 0 .891.065 1.191.196.299.131.532.333.701.606.17.271.255.556.255.855 0 .276-.075.537-.225.781a1.604 1.604 0 0 1-.679.593c.392.115.694.311.903.588.211.276.317.603.317.98 0 .305-.065.587-.193.847a1.644 1.644 0 0 1-.475.603c-.189.14-.425.247-.709.32a4.328 4.328 0 0 1-1.046.109H6.248zm.86-3.755H8.51c.38 0 .653-.026.817-.075a.903.903 0 0 0 .493-.324.936.936 0 0 0 .166-.567 1.03 1.03 0 0 0-.155-.568c-.103-.164-.25-.278-.442-.338s-.52-.09-.985-.09H7.109v1.963zm0 2.995h1.614c.277 0 .472-.011.585-.032.196-.035.362-.094.495-.176a.946.946 0 0 0 .327-.362c.086-.158.128-.341.128-.547 0-.243-.062-.452-.187-.632a.978.978 0 0 0-.516-.377c-.219-.072-.535-.109-.947-.109H7.109v2.235zm4.813-1.588c0-.867.241-1.509.725-1.927.403-.347.896-.52 1.476-.52.644 0 1.172.211 1.582.633.409.421.614 1.004.614 1.748 0 .603-.09 1.077-.271 1.422a1.92 1.92 0 0 1-.792.805 2.292 2.292 0 0 1-1.132.286c-.657 0-1.188-.21-1.594-.63-.406-.421-.608-1.027-.608-1.817zm.814.002c0 .6.131 1.05.394 1.347.264.299.594.448.994.448.395 0 .724-.149.988-.449.262-.3.394-.757.394-1.371 0-.579-.133-1.018-.397-1.315a1.261 1.261 0 0 0-.985-.448c-.4 0-.73.148-.994.445-.262.297-.394.745-.394 1.344zm4.498 2.346v-6.478h.796V19.3h-.796zm5.231-1.52l.823.109c-.128.478-.368.85-.718 1.114-.35.264-.796.397-1.341.397-.685 0-1.227-.211-1.629-.633-.401-.421-.602-1.013-.602-1.775 0-.787.202-1.399.608-1.834.406-.436.932-.653 1.579-.653.626 0 1.137.213 1.534.639.397.427.596 1.027.596 1.8l-.004.211h-3.497c.03.514.175.909.437 1.182a1.3 1.3 0 0 0 .979.41c.291 0 .54-.077.745-.231.207-.154.369-.4.49-.737zm-2.606-1.276h2.615c-.035-.395-.136-.691-.3-.888a1.216 1.216 0 0 0-.983-.46c-.365 0-.671.122-.92.366-.247.244-.385.572-.412.982zm6.164 2.086l.109.703a2.951 2.951 0 0 1-.599.071c-.288 0-.511-.045-.671-.137-.158-.092-.27-.211-.335-.36s-.097-.463-.097-.941v-2.705h-.588v-.615h.588v-1.161l.796-.478v1.639h.796v.615h-.796v2.751c0 .228.014.374.042.439a.324.324 0 0 0 .136.155.53.53 0 0 0 .271.057l.347-.032zm.487-1.638c0-.867.241-1.509.725-1.927.403-.347.896-.52 1.476-.52.644 0 1.172.211 1.582.633.409.421.614 1.004.614 1.748 0 .603-.09 1.077-.271 1.422a1.92 1.92 0 0 1-.792.805 2.292 2.292 0 0 1-1.132.286c-.657 0-1.188-.21-1.594-.63-.406-.421-.608-1.027-.608-1.817zm.814.002c0 .6.131 1.05.394 1.347.264.299.594.448.994.448.395 0 .724-.149.988-.449.262-.3.394-.757.394-1.371 0-.579-.133-1.018-.397-1.315a1.261 1.261 0 0 0-.985-.448c-.4 0-.73.148-.994.445-.262.297-.394.745-.394 1.344z" fill="#221F1F"/></svg>