<svg width="38" height="24" id="pi-boodil" xmlns="http://www.w3.org/2000/svg" role="img" aria-labelledby="pi-boodil" viewBox="0 0 38 24" xml:space="preserve"><title id="pi-boodil">Boodil</title><path opacity=".07" d="M35 0H3C1.3 0 0 1.3 0 3v18c0 1.7 1.4 3 3 3h32c1.7 0 3-1.3 3-3V3c0-1.7-1.4-3-3-3z"/><path fill="#fff" d="M35 1c1.1 0 2 .9 2 2v18c0 1.1-.9 2-2 2H3c-1.1 0-2-.9-2-2V3c0-1.1.9-2 2-2h32"/><g transform="matrix(0.02143899,0,0,0.02143899,2.4668941,6.932857)"><path d="M58.92 52.93H201.9c23.83 0 42.12 5.9 54.88 17.7 12.76 11.8 19.14 26.42 19.14 43.84 0 14.61-4.55 27.15-13.66 37.6-6.07 6.97-14.95 12.48-26.64 16.52 17.76 4.27 30.83 11.61 39.2 22 8.37 10.4 12.56 23.46 12.56 39.2 0 12.81-2.98 24.34-8.94 34.56-5.96 10.23-14.11 18.32-24.45 24.28-6.41 3.71-16.08 6.41-29 8.09-17.2 2.25-28.61 3.37-34.23 3.37H58.92V52.93zm77.05 96.95h33.22c11.91 0 20.2-2.05 24.87-6.15 4.66-4.1 7-10.03 7-17.79 0-7.19-2.33-12.81-7-16.86-4.67-4.05-12.79-6.07-24.36-6.07h-33.72v46.87zm0 97.12h38.95c13.15 0 22.42-2.33 27.82-7 5.39-4.66 8.09-10.93 8.09-18.8 0-7.31-2.67-13.18-8.01-17.62-5.34-4.44-14.7-6.66-28.07-6.66h-38.78V247zM318.54 176.02c0-40.3 11.22-71.67 33.68-94.12 22.45-22.45 53.71-33.68 93.79-33.68 41.09 0 72.74 11.03 94.97 33.09 22.23 22.06 33.34 52.96 33.34 92.69 0 28.85-4.86 52.51-14.56 70.97-9.71 18.47-23.74 32.83-42.1 43.11-18.35 10.27-41.23 15.41-68.61 15.41-27.84 0-50.88-4.43-69.12-13.3-18.24-8.87-33.03-22.9-44.37-42.1-11.36-19.2-17.02-43.22-17.02-72.07zm76.27.33c0 24.92 4.63 42.83 13.89 53.71 9.26 10.89 21.86 16.33 37.8 16.33 16.39 0 29.07-5.33 38.05-16 8.98-10.66 13.47-29.8 13.47-57.42 0-23.24-4.69-40.21-14.06-50.94-9.37-10.72-22.09-16.08-38.14-16.08-15.38 0-27.73 5.45-37.04 16.33-9.31 10.91-13.97 28.93-13.97 54.07zM605.65 176.02c0-40.3 11.22-71.67 33.68-94.12 22.45-22.45 53.71-33.68 93.79-33.68 41.09 0 72.74 11.03 94.97 33.09 22.23 22.06 33.34 52.96 33.34 92.69 0 28.85-4.86 52.51-14.56 70.97-9.71 18.47-23.74 32.83-42.1 43.11-18.35 10.27-41.23 15.41-68.61 15.41-27.84 0-50.88-4.43-69.12-13.3-18.24-8.87-33.03-22.9-44.37-42.1-11.36-19.2-17.02-43.22-17.02-72.07zm76.27.33c0 24.92 4.63 42.83 13.89 53.71 9.26 10.89 21.86 16.33 37.8 16.33 16.39 0 29.07-5.33 38.05-16 8.98-10.66 13.47-29.8 13.47-57.42 0-23.24-4.69-40.21-14.06-50.94-9.37-10.72-22.09-16.08-38.14-16.08-15.38 0-27.73 5.45-37.04 16.33-9.31 10.91-13.97 28.93-13.97 54.07zM905.59 52.5h113.25c22.32 0 40.36 3.03 54.1 9.09 13.74 6.06 25.1 14.75 34.08 26.08 8.97 11.33 15.48 24.51 19.52 39.55 4.04 15.04 6.06 30.96 6.06 47.79 0 26.37-3 46.81-9 61.34-6 14.53-14.33 26.7-24.99 36.52-10.66 9.82-22.1 16.35-34.33 19.61-16.72 4.49-31.86 6.73-45.44 6.73H905.59V52.5zm76.23 55.87v134.79h18.68c15.93 0 27.26-1.77 33.99-5.3s12-9.7 15.82-18.51c3.81-8.81 5.72-23.08 5.72-42.83 0-26.14-4.26-44.03-12.79-53.68-8.53-9.65-22.66-14.47-42.41-14.47h-19.01zM1169.9 119.15h69.5v178.67h-69.5V119.15z"/><path fill="#6cd7bc" d="M1169.9 50.41h69.5v49.04h-69.5V50.41z"/><path d="M1289.3 53.87h75.81v184.91h118.31v60.41H1289.3V53.87z"/><path fill="#6cd7bc" d="M774.15 313.82c4.04-2.74 8.6 2.59 5.29 6.18-22.26 24.09-49.98 45.36-77.54 61.79-97.47 58.53-225.04 54.89-323.62 1.25l-2.67-1.59c-4.7-2.8-1.58-10.02 3.68-8.49 37.1 10.78 94.98 22.5 165.56 19.7 105.8-6.34 187.16-50.22 229.3-78.84z"/></g></svg>