<svg xmlns="http://www.w3.org/2000/svg" role="img" viewBox="0 0 38 24" width="38" height="24" aria-labelledby="pi-bpi"><title id="pi-bpi">BPI</title><path fill="#000" opacity=".07" d="M35 0H3C1.3 0 0 1.3 0 3v18c0 1.7 1.4 3 3 3h32c1.7 0 3-1.3 3-3V3c0-1.7-1.4-3-3-3z"/><path fill="#fff" d="M35 1c1.1 0 2 .9 2 2v18c0 1.1-.9 2-2 2H3c-1.1 0-2-.9-2-2V3c0-1.1.9-2 2-2h32"/><g stroke-width=".008"><path d="M2.24 16.595l-.268-.348-.135-.299-.068-.387.034-.358L3 8.848l.874-.192-.066.689-.276 1.537-.784 4.686.012.144.109.222.136.134 4.73 3.135h.086V8.411l.913.018 1.7.078 2.239.28 1.162 6.781-.057.42-.147.32-.227.284-5.56 3.798zm8.484-.348l.097-.02.146-.325.088-.097.078.03.031-.058.031-.112.147-.335.146-.281v-.282h-.084l-.036.057h-.112l-.096-.142.022-.458.122-.162.09-.017.063.1.213.174.287.074.202-.083.118-.19-.001-.23-.174-.311v-.149l.117-.253-.028-.028-.153.1-.03-.03.12-.263h-.082l-.036.058h-.084l.093-.216.03-.072h-.076l-.195.186-.055-.085v-.216l.057-.582.119-.603.132-.362.071-.126v-.022h-.114l-.163.201h-.019l-.054-.086-.264-.287h-.087v.03l.128.243.012.292-.069.785-.081.493.073.349.179.348.349.54.046.16-.085.12h-.06l-.219-.158-.34-.568-.516-.511v-.032l.176-.215.121-.34.083-.06.022-.62.066-.274-.095-.311-.241-.238-.234-.064-.292.005-.32.066-.018.317.09.114.061-.1h.084l.093.14-.019.19-.19.018v.193l.036.09h.052l.12-.116.056.034v.087l-.08.08-.208.098-.127.02-.214.109-.18.191-.445.533-.119.094v.05l.27.285-.162.216-.148.158h-.05l-.085-.043-.036-.043H8.73l-.086.054.075.205-.125.172.01.05.196.11-.054.084-.001.187h.112l.189-.085.167-.054.09.031.037-.036.015-.342.067-.123.185.027.16-.055v-.047l-.102-.175.103-.1.24.009.242.153.334.352v.201l-.203-.215v-.141l-.065-.045-.065-.045h-.166l-.303.28-.131.067v.061l.17.157.04.226.174.307-.038.037-.341-.002-.323-.3h-.12v.067l.033.099.034.033-.076.019-.109.056-.032.038.038.06.09.06h.05v.031l-.09.171.031.049.177.034v.175l.124-.019.221-.108.097-.09.117.141.098-.07.188-.085h.228l.154-.119v-.06l-.088-.098-.143-.206-.077-.215.07-.242h.23l.029.465.153.316v.187h.056l.091-.043.077-.043h.04v.054l-.064.11-.159.227-.182.153-.204-.025-.12-.06h-.086l-.208.121v.034l.127.133-.069.146v.042l.056.042.149.035v.106l.057.034.106-.056.03.02.05.074.02.054.102-.088.098-.02zm-.283-5.36l.01-.051.19-.018v.062l-.15.056zm-1.057 1.636l.09-.108v-.124l-.207-.244-.057-.105.008-.437-.094-.092-.065.184h-.03l-.173-.144h-.054v.088l.032.146.031.058-.033.033-.113-.1-.121.037.076.169.077.113.029.252-.101.151.138.051.117-.08.018-.028.07.003.223.284h.05l.09-.107zm.624-1.048l.13-.09.065-.06v-.042l-.29.091-.109-.096-.039.038v.05l.092.142h.044l.107-.033zm1.217-1.057v-.135l-.103-.09-.407-.14-.077-.153h-.108l-.058.165-.137.032-.263.095-.102.09v.163l.229.142.028.046.73-.007zm-1.17-.004v-.104l.087-.071.086.234-.046.028zm.292.004l-.058-.088.074-.102.074-.073.07.023.003.149.003.148h-.107zm.321-.1v-.159h.075l.13.09v.068l-.046.113-.158.045zm.35.068v-.146l.1.071.032.049-.064.1-.126.019zM4.377 15.64l-.035-.035v-.728l.04-.032 2.488-.018v.834l-.589.002-.064-.016-.018-.186h-1.14l-.02.172-.034.02-.592.023-.035-.034zm.237-1.02l-.018-.046.393-3.139.054-.129h1.166l.037.059.408 3.22-.032.08H4.632zm1.31-.968l-.588-.04v.156l.02.02.55.004.02-.14zm-.02-.607v-.087h-.555l-.02.104.032.085.542-.016zm0-.66v-.087l-.57-.016v.164l.041.04.527-.016zM4.72 10.328l.365.017.03.287h.291l.046-.333.364.017.03.316h.292l.029-.287h.35v.806l-1.797.015zm-.523-2.414l.001-.07.135-.68.08-.05.397-.07-.018-.052-.203-.084-.386-.22-.298-.288-.178-.316-.051-.397.101-.416.247-.338.418-.278.758-.243.408-.062.18-.112.356-.184.419-.142.484-.104.241-.037.025-.04-.077-.107-.09-.277.063-.295.195-.208.295-.094.303.035.231.16.139.231v.25l-.093.21-.057.106.234.062.234.035.452.116.422.173.341.217.607.1.383.115.415.199.327.287.208.436.01.497-.183.387-.629.504-.286.12v.024l.195.072.194.048.044.07.134.717-.039.038-1.241-.127-.787-.07-2.863.002-1.08.1-.758.086-.364.035.001-.069zM7.438 6.8v-.025l-.142-.316-.097-.451-.03-.717.09-.579.148-.398-.043-.041-.379.078-.36.144-.32.209-.235.25-.164.308-.053.292.053.282.2.362.34.31.422.205.437.111.132.003v-.025zm1-.03l.222-.056.36-.177.282-.203.179-.222.16-.335v-.46l-.196-.391-.326-.315-.53-.25-.409-.089-.05.05.12.314.09.472v.838l-.11.525-.123.274v.078h.107l.222-.055zm-2.498.002l.038-.024-.404-.236-.3-.265-.203-.397-.04-.316.063-.351.173-.34-.053-.031-.248.065-.28.14-.237.21-.148.287-.03.328.071.292.176.261.32.226.361.118.35.05.35.006zm4.404-.048l.183-.042.293-.146.235-.208.14-.235.052-.33-.045-.282-.1-.193-.118-.165-.332-.21-.36-.108-.04.038.154.301.069.275-.028.444-.18.348-.371.341-.32.167-.027.023.086.058.527-.033z" fill="#d9b430"/><path d="M16.373 8.43l4.513.022.761.12.488.122.47.169.328.181.34.262.267.348.16.345.094.412v.624l-.115.444-.18.33-.265.3-.36.25-.352.174-.567.185v.024l.248.086.499.147.584.294.444.433.161.287.155.43v.518l.001.519-.136.43-.21.4-.502.49-.48.247-.513.17-.614.114-.642.058h-4.585zm4.296 7.242l.19-.051.275-.136.21-.182.142-.274.064-.4-.063-.332-.12-.247-.291-.256-.333-.124-.38-.085-1.512-.032-.078.105v1.96l.037.134 1.672-.025.19-.05zm-.024-3.728l.315-.141.205-.154.19-.38v-.259l-.001-.26-.124-.266-.231-.228-.325-.15-.369-.093-1.454-.03-.078.104v1.853l.035.091h1.39l.448-.084zm4.332 5.36l-.014-.035.016-8.84 4.656-.016.74.091.546.143.483.194.488.32.338.358.201.31.162.387.093.369.067.547-.034.61-.095.451-.169.43-.22.365-.343.37-.34.256-.429.227-.614.2-.527.099-2.454.025-.073.06v3.123H24.97zM29.49 12.3l.289-.143.209-.18.148-.25.082-.303.001-.433-.087-.328-.142-.222-.249-.209-.326-.12-.43-.081h-1.48l-.035.09v2.227l.073.073 1.578-.026zm4.151 5.006l-.02-.02v-8.91l2.499.015.016 8.804-.032.13H33.66z" fill="#a32b26"/></g></svg>