<svg xmlns="http://www.w3.org/2000/svg" role="img" viewBox="0 0 38 24" width="38" height="24" aria-labelledby="pi-bread"><title id="pi-bread">Bread</title><path fill="#000" opacity=".07" d="M35 0H3C1.3 0 0 1.3 0 3v18c0 1.7 1.4 3 3 3h32c1.7 0 3-1.3 3-3V3c0-1.7-1.4-3-3-3z"/><path fill="#fff" d="M35 1c1.1 0 2 .9 2 2v18c0 1.1-.9 2-2 2H3c-1.1 0-2-.9-2-2V3c0-1.1.9-2 2-2h32"/><path d="M16.64 11.733a1.15 1.15 0 00.566-.443c.125-.196.19-.452.19-.765 0-.44-.16-.776-.48-1.01-.32-.232-.83-.349-1.534-.349h-2.04v5.26h2.131c.687 0 1.197-.13 1.53-.389.331-.263.496-.629.496-1.108 0-.324-.074-.58-.22-.77a1.315 1.315 0 00-.64-.426zM14.3 9.95h1.112c.36 0 .62.053.78.166.157.11.238.28.238.513 0 .25-.088.433-.259.545-.172.114-.422.17-.752.17h-1.12zm1.934 3.459c-.171.13-.468.193-.889.193H14.3v-1.478h1.062c.385 0 .668.056.857.173.186.113.28.296.28.552 0 .247-.087.433-.264.56zm3.349-3.007c-.233.17-.391.43-.475.78l-.129-.996h-.792v4.241h.964v-1.96c0-.33.035-.593.101-.786a.696.687 0 01.371-.42 1.27 1.27 0 01.328-.1c.13-.02.28-.034.448-.034h.428v-.98h-.293c-.401 0-.722.086-.951.256zm5.357.337a1.759 1.759 0 00-.656-.48c-.267-.12-.584-.176-.952-.176-.449 0-.836.09-1.163.272-.326.181-.58.437-.758.767-.092.166-.159.349-.203.542a2.926 2.926 0 00-.067.633v.103c0 .653.178 1.175.54 1.561.357.386.897.58 1.621.58.563 0 1.019-.124 1.366-.363.343-.24.58-.576.704-1.006h-1.051a.89.878 0 01-.354.423c-.16.097-.368.146-.628.146-.354 0-.637-.093-.85-.28-.209-.186-.337-.452-.377-.798h3.321v-.45a2.78 2.744 0 00-.118-.789 2.039 2.013 0 00-.375-.685zm-2.818 1.165c.054-.332.186-.592.395-.78.209-.182.481-.275.822-.275.344 0 .607.096.79.283.18.189.29.449.323.772zm7.094-1.638a1.873 1.85 0 00-.485-.14 3.92 3.871 0 00-.628-.043c-.613 0-1.096.146-1.442.44-.352.29-.544.679-.577 1.161h1.008c.018-.273.108-.479.277-.629.172-.147.431-.22.785-.22.334 0 .57.05.704.154a.5.5 0 01.199.422.371.366 0 01-.249.363c-.165.074-.442.133-.826.184-.27.039-.492.076-.664.109a2.834 2.834 0 00-.45.12c-.06.017-.12.042-.184.073-.06.03-.12.063-.182.103a1.164 1.15 0 00-.412.423 1.239 1.223 0 00-.15.616c0 .346.12.622.356.829.236.207.587.31 1.05.31.444 0 .81-.094 1.101-.273a1.821 1.798 0 00.658-.686l.104.849h.793v-2.866c0-.304-.065-.567-.186-.79-.12-.223-.32-.392-.6-.51zm-.148 2.244c0 .203-.058.403-.17.602a1.356 1.339 0 01-1.216.682c-.223 0-.391-.046-.503-.132-.11-.09-.168-.223-.168-.4a.522.516 0 01.253-.444 1.303 1.287 0 01.347-.149c.135-.036.33-.076.59-.116.192-.03.365-.066.51-.11.147-.043.266-.1.357-.162zM34 8.744v2.17a1.422 1.404 0 00-.542-.61c-.236-.142-.53-.216-.884-.216-.364 0-.688.08-.964.243a1.626 1.606 0 00-.65.716 2.115 2.088 0 00-.182.533 3.53 3.486 0 00-.058.64v.106c0 .712.165 1.255.5 1.627.332.377.774.563 1.324.563.384 0 .698-.09.944-.273a1.597 1.577 0 00.543-.702l.104.885h.816V8.744zm.024 3.571c0 .42-.107.753-.316 1-.213.242-.5.366-.864.366a1.027 1.014 0 01-.802-.343c-.21-.227-.314-.57-.314-1.023v-.079c0-.423.101-.752.3-.989.198-.236.482-.356.854-.356.353 0 .63.123.835.37.206.246.307.572.307.981zm0 0" fill="#0f2233"/><path d="M6.858 7.535c-1.16 0-1.99.343-1.99.69 0 .136.092.206.244.246.327.086 2.74.718 2.903.769.192.056 1.16.306 1.16 1.271v-.003S4.498 9.256 4.17 9.187c-.23-.051-.402-.007-.52.109-.286.283-.637 1.585-.637 2.51 0 2.467 1.528 4.252 3.844 4.252 1.16 0 1.99-.343 1.99-.69 0-.136-.092-.206-.243-.246-.328-.086-2.741-.725-2.9-.769-.162-.04-1.163-.307-1.163-1.275l5.003 1.329c.23.05.401.006.52-.11.286-.283.637-1.585.637-2.51 0-2.467-1.528-4.252-3.844-4.252zm-1.153 4.44c-.152-.039-1.163-.312-1.163-1.278l3.476.923c.118.03 1.157.316 1.157 1.275 0 0-3.322-.882-3.47-.919zm0 0" fill="#5156ea"/></svg>
