<svg xmlns="http://www.w3.org/2000/svg" role="img" viewBox="0 0 38 24" width="38" height="24" aria-labelledby="pi-breadpay"><title id="pi-breadpay">Bread Pay</title><g clip-path="url(#pi-breadpay-a)" id="pi-breadpay-g4"><path fill="#000" d="M35 0H3C1.3 0 0 1.3 0 3v18c0 1.7 1.4 3 3 3h32c1.7 0 3-1.3 3-3V3c0-1.7-1.4-3-3-3z" opacity=".07" id="pi-breadpay-path1"/><path fill="#fff" d="M35 1c1.1 0 2 .9 2 2v18c0 1.1-.9 2-2 2H3c-1.1 0-2-.9-2-2V3c0-1.1.9-2 2-2z" id="pi-breadpay-path2"/><g id="pi-breadpay-g3" transform="translate(-64.256 -71.154) scale(.94493)" opacity="1"><path class="st0" d="M88 77.843c-5.607 0-10.157 4.55-10.157 10.157S82.393 98.157 88 98.157 98.157 93.607 98.157 88c.012-5.607-4.539-10.157-10.157-10.157zm1.95 17.551l-.128.082c-.893.487-2.008.139-2.495-.755L81.8 84.46c-.487-.894-.139-2.009.755-2.496l.128-.081a1.834 1.834 0 012.495.754L90.705 92.9a1.85 1.85 0 01-.755 2.495zm2.24-2.844l-4.294-7.963a4.522 4.522 0 016.129 1.846c1.184 2.182.36 4.922-1.835 6.117z" id="pi-breadpay-path1-7" fill="#59bec9" stroke-width=".116"/><path class="st1" d="M97.066 96.137a.917.917 0 00-.929.929c0 .522.406.928.929.928a.917.917 0 00.928-.928.917.917 0 00-.928-.929zm0 1.718a.79.79 0 11.001-1.58.79.79 0 01-.001 1.58z" id="pi-breadpay-path2-3" clip-rule="evenodd" fill="#59bec9" fill-rule="evenodd" stroke-width=".116"/><path class="st0" d="M97.1 97.159h-.22v.36h-.128v-.952h.383a.3.3 0 01.302.301c0 .175-.081.233-.185.267l.22.384h-.14l-.208-.36zm-.22-.105h.255a.179.179 0 00.175-.174.179.179 0 00-.175-.174h-.255z" id="pi-breadpay-path3" fill="#59bec9" stroke-width=".116"/></g></g><defs id="pi-breadpay-defs5"><clipPath id="pi-breadpay-a"><path fill="#fff" d="M0 0h38v24H0z" id="pi-breadpay-path5"/></clipPath></defs></svg>
