<svg role="img" width="38" height="24" viewBox="0 0 38 24" aria-labelledby="pi-bri" xmlns="http://www.w3.org/2000/svg"><title id="pi-bri">BRI</title><path d="M35 0H3a3 3 0 00-3 3v18a3 3 0 003 3h32a3 3 0 003-3V3a3 3 0 00-3-3z" opacity=".07" style="isolation:isolate"/><path d="M35 1a2 2 0 012 2v18a2 2 0 01-2 2H3a2 2 0 01-2-2V3a2 2 0 012-2h32" fill="#fff"/><g clip-path="url(#pi-bri-clip0)" fill-rule="evenodd" clip-rule="evenodd" fill="#034EA2"><path d="M4.12 9h4.972c.616 0 1.12.46 1.12 1.023v4.63c0 .563-.504 1.023-1.12 1.023H4.12c-.616 0-1.12-.46-1.12-1.023v-4.63C3 9.46 3.504 9 4.12 9zm.12.475h.882c.227.094.425.247.572.443.162.22.232.463.183.667a.607.607 0 01-.008.029c-.122.399-.536.765-.96 1.138-.12.107-.243.216-.364.33l-.25.233.252.231c.12.112.241.22.362.326.422.373.837.74.959 1.138a.516.516 0 01.008.029c.049.204-.02.448-.183.666a1.39 1.39 0 01-.719.496H4.24a.449.449 0 01-.447-.448v-4.83a.449.449 0 01.447-.448zm1.996 0h.89c.227.094.425.247.572.443.162.22.233.463.183.667a.599.599 0 01-.008.029c-.122.399-.537.765-.959 1.138-.122.107-.243.216-.365.33l-.244.228.242.23 2.693 2.57a.443.443 0 01-.268.09h-2.78c.037-.04.07-.082.102-.125.27-.365.38-.796.288-1.18a1.116 1.116 0 00-.017-.062c-.176-.573-.66-1.002-1.155-1.438l-.094-.084.094-.083c.494-.436.979-.864 1.154-1.438a.892.892 0 00.017-.063c.093-.383-.018-.815-.287-1.179a2.134 2.134 0 00-.057-.073zm2.005 0h.73a.45.45 0 01.447.449v4.402l-2.104-2.009.101-.089c.494-.436.979-.864 1.154-1.438a.886.886 0 00.017-.063c.093-.383-.018-.815-.287-1.179a3.012 3.012 0 00-.057-.073zM22.04 10.815h.934v1.339l1.166-1.34h1.11l-1.275 1.427 1.337 1.65h-1.184l-1.154-1.439v1.44h-.934v-3.077zm-3.707 0h1.29l1.115 2.273v-2.273h.824v3.077H20.27l-1.111-2.308v2.308h-.825v-3.077zm-2.732 0h1.194l1.39 3.077H17.07l-.236-.67H15.45l-.23.67h-1.042l1.424-3.077zm.964 1.874l-.42-1.241-.466 1.241h.886zm-5.272-1.874h1.516l.263.013c.126.006.25.026.372.06.165.042.321.117.457.22.14.105.219.265.238.48v.015c0 .005.001.01.004.015v.03c0 .17-.067.315-.202.436a.885.885 0 01-.532.208 1.714 1.714 0 01.556.249c.166.113.248.286.248.518 0 .3-.118.514-.354.641-.236.128-.586.192-1.049.192h-1.517v-3.077zm.963 2.473h.516c.14.003.244-.02.31-.07a.309.309 0 00.128-.196.34.34 0 00-.002-.085.371.371 0 00-.143-.208.412.412 0 00-.256-.07l-.554-.004v.633zm0-1.27h.478c.146.002.251-.022.315-.074.063-.051.094-.126.094-.225a.268.268 0 00-.108-.211.46.46 0 00-.3-.09l-.48-.004v.605-.002zM34.03 10.815H35v3.077h-.97v-3.077zm-3.517 0h1.528c.015.003.03.004.045.004h.045c.303.002.603.058.886.166.268.105.402.317.402.637 0 .25-.08.432-.241.546-.172.12-.37.196-.578.223.338.012.547.114.627.306.165.395.31.81.468 1.195h-1.041c-.137-.278-.26-.668-.37-.965-.051-.136-.17-.204-.356-.204l-.445-.004v1.173h-.97v-3.077zm.97.633v.671h.374a.25.25 0 00.044.004h.046a.91.91 0 00.321-.073c.098-.042.146-.13.146-.263a.27.27 0 00-.151-.255.791.791 0 00-.374-.081l-.407-.004zm-4.358-.633h1.528l.266.013c.126.006.25.026.373.06.167.041.324.116.462.22.141.105.22.265.24.48v.015c0 .005.002.01.004.015v.03c0 .17-.068.315-.203.436-.136.12-.317.188-.545.205.003 0 .006.001.008.003a1.735 1.735 0 01.56.249c.168.113.251.286.251.518 0 .3-.119.514-.357.641-.238.128-.59.192-1.058.192h-1.529v-3.077zm.97 2.473h.52c.143.003.247-.02.313-.07a.309.309 0 00.13-.196.307.307 0 00-.003-.085.371.371 0 00-.144-.208.42.42 0 00-.258-.07l-.558-.004v.633zm0-1.27h.483c.148.002.253-.022.316-.074.063-.051.095-.126.095-.225a.267.267 0 00-.109-.212.466.466 0 00-.303-.09l-.483-.004v.606-.002z"/></g><defs><clipPath id="pi-bri-clip0"><path fill="#fff" transform="translate(3 9)" d="M0 0h32v6.676H0z"/></clipPath></defs></svg>