<svg width="38" height="24" viewBox="0 0 38 24" role="img" aria-labelledby="pi-brite" version="1.1" xmlns="http://www.w3.org/2000/svg"><title id="pi-brite">Brite</title><path opacity=".07" d="M35 0H3C1.3 0 0 1.3 0 3v18c0 1.7 1.4 3 3 3h32c1.7 0 3-1.3 3-3V3c0-1.7-1.4-3-3-3z" fill="#000"/><path d="M35 1c1.1 0 2 .9 2 2v18c0 1.1-.9 2-2 2H3c-1.1 0-2-.9-2-2V3c0-1.1.9-2 2-2h32z" fill="#f7ff99" fill-opacity="1"/><g stroke-width="2.412" fill="#2a1243"><path d="M15.25 10.637l1.792-.494V8.385l-1.792.494zm0 5.407h1.792V10.98l-1.792.493zm4.396-8.297l-1.78.485v5.751c0 .813.13 1.364.498 1.742.349.348.805.522 1.572.522a3.056 3.056 0 001.654-.568v-1.385c-.402.162-.77.37-1.144.373-.274 0-.46-.045-.63-.215-.141-.141-.183-.299-.183-.697v-2.53l1.978-.613V9.173l-1.965.51zm-7.211 3.172l-.062.016V9.588l-1.742.477v5.975h1.779v-2.476c0-1.845.65-2.405 1.58-2.662l.456-.128V9.007a3.23 3.23 0 00-.75.303c-.573.336-1.079.771-1.265 1.6zm-4.317.472c.668-.315 1.004-.891 1.041-1.617.062-1.17-.937-1.87-2.787-1.82-.348.008-.763.041-1.16.079-.842.083-1.622.199-1.622.199v7.82s1.153.166 3.234-.05c2.078-.215 3.193-1.326 3.044-2.89-.112-1.136-.846-1.5-1.75-1.725zM5.332 9.405s.24-.054.958-.153c.762-.108 1.132.228 1.144.696.017.668-.336.867-.66 1.008a9.03 9.03 0 01-1.438.444V9.41zm1.322 5.13c-.435.095-.879.128-1.326.095v-1.77s.356-.187 1.322-.415c.747-.174 1.365.112 1.377.709.012.742-.568 1.223-1.373 1.38zm18.846.306c-.87.096-1.534-.394-1.687-1.003l4.3-1.145c-.046-1.608-.945-3.105-2.903-3.168-1.766-.053-3.396 1.24-3.246 3.666.087 1.464 1.078 2.92 3.093 3.052 1.758.116 2.998-1.136 3.09-2.592l-1.535.407c-.162.352-.373.696-1.115.78zm-.5-3.91c.763-.083 1.165.324 1.277.792l-2.641.718A1.491 1.491 0 0125 10.931z"/><path d="M34.412 10.915l-.009-.03-.302-1.131-.009-.03-1.832.606.605-1.833-.029-.008-1.132-.303-.029-.008-.394 1.89-1.285-1.442-.021.02-.415.415-.414.415-.021.025 1.439 1.285-1.891.394.008.029.303 1.132.008.029 1.833-.605-.605 1.832.029.009 1.132.302.029.009.394-1.891 1.285 1.439.87-.871-1.442-1.285 1.89-.39z" fill-rule="evenodd"/></g></svg>