<svg xmlns="http://www.w3.org/2000/svg" role="img" viewBox="0 0 38 24" width="38" height="24" aria-labelledby="pi-bsi"><title id="pi-bsi">BSI</title><g clip-path="url(#pi-bsi-a)"><path fill="#000" d="M35 0H3C1.3 0 0 1.3 0 3v18c0 1.7 1.4 3 3 3h32c1.7 0 3-1.3 3-3V3c0-1.7-1.4-3-3-3Z" opacity=".07"/><path fill="#fff" d="M35 1c1.1 0 2 .9 2 2v18c0 1.1-.9 2-2 2H3c-1.1 0-2-.9-2-2V3c0-1.1.9-2 2-2h32Z"/><path fill="#168F8C" d="M26.327 6.647v9.483h2.923V9.025c0-.532-.372-2.134-2.923-2.378Zm-15.533 7.835c.371 0 .675-.038.91-.109.237-.071.42-.165.555-.28a.9.9 0 0 0 .274-.387c.05-.14.075-.289.075-.438 0-.168-.029-.322-.088-.457a.78.78 0 0 0-.299-.343 1.668 1.668 0 0 0-.562-.215 4.249 4.249 0 0 0-.881-.077H8.81v2.305h1.982l.001.001ZM8.811 8.454v2.285h1.466c.28.002.56-.014.84-.05.25-.033.46-.092.637-.177a.933.933 0 0 0 .4-.35c.097-.17.144-.363.137-.558a1.238 1.238 0 0 0-.11-.55.838.838 0 0 0-.332-.352 1.642 1.642 0 0 0-.57-.19 5.091 5.091 0 0 0-.819-.056l-1.649-.002Zm1.65-1.605c.837 0 1.549.058 2.138.177.587.12 1.068.286 1.44.502.37.216.64.479.811.786.168.31.254.655.254 1.035 0 .209-.04.409-.117.602a1.622 1.622 0 0 1-.366.538 2.72 2.72 0 0 1-.64.462c-.262.14-.574.258-.942.36.8.149 1.39.388 1.774.718.383.33.573.758.573 1.283 0 .393-.098.759-.3 1.098a2.71 2.71 0 0 1-.878.885c-.384.252-.86.449-1.426.59a8.007 8.007 0 0 1-1.94.214H6V6.85h4.461v-.001Zm13.382 1.88a.924.924 0 0 1-.261.229.723.723 0 0 1-.354.075 1.074 1.074 0 0 1-.413-.092 97.004 97.004 0 0 0-.499-.206 4.916 4.916 0 0 0-.636-.207 3.283 3.283 0 0 0-.816-.092c-.527 0-.92.087-1.177.257a.796.796 0 0 0-.388.695.57.57 0 0 0 .234.465c.154.123.36.228.611.317.252.088.541.17.867.244.323.074.655.156.993.247a11 11 0 0 1 .995.322c.326.122.614.28.867.47.252.19.456.42.61.695.155.273.233.601.233.986 0 .428-.096.828-.29 1.2a2.874 2.874 0 0 1-.846.975c-.369.277-.825.495-1.365.654-.54.158-1.155.238-1.843.238-.378 0-.762-.03-1.152-.09a8.541 8.541 0 0 1-1.136-.25 7.602 7.602 0 0 1-1.032-.383 4.44 4.44 0 0 1-.84-.496l.831-1.003a.852.852 0 0 1 .616-.253c.166 0 .334.039.503.12l.574.266c.214.098.46.187.737.267.278.08.605.121.983.121.509 0 .906-.086 1.189-.257.284-.172.425-.443.425-.817a.667.667 0 0 0-.234-.527 1.867 1.867 0 0 0-.61-.336 6.882 6.882 0 0 0-.862-.235 30.493 30.493 0 0 1-.99-.225 8.67 8.67 0 0 1-.99-.305c-.322-.12-.61-.28-.862-.475a2.25 2.25 0 0 1-.613-.737c-.154-.294-.232-.658-.232-1.09 0-.347.09-.685.274-1.015a2.73 2.73 0 0 1 .807-.881 4.286 4.286 0 0 1 1.308-.62c.516-.154 1.106-.232 1.772-.232.372 0 .734.022 1.087.067.352.043.685.11 1.002.196.316.087.611.191.887.312.274.12.52.257.736.41l-.7.995Z"/><path fill="#F9AD3C" d="M29.57 3.23a1.99 1.99 0 0 0-.032-.23c.654.515 1.588.817 2.6.77a4.153 4.153 0 0 0 1.337-.289c-.311.417-.475.905-.432 1.42.053.636.41 1.203.957 1.622a4.342 4.342 0 0 0-.868-.043c-1.184.056-2.182.579-2.711 1.319-.21-1.094-1.32-1.943-2.71-2.13 1.176-.438 1.948-1.384 1.861-2.44h-.003Z"/></g><defs><clipPath id="pi-bsi-a"><path fill="#fff" d="M0 0h38v24H0z"/></clipPath></defs></svg>
