<svg xmlns="http://www.w3.org/2000/svg" role="img" viewBox="0 0 38 24" width="38" height="24" aria-labelledby="pi-bss"><title id="pi-bss">BSS</title><path fill="#000" opacity=".07" d="M35 0H3C1.3 0 0 1.3 0 3v18c0 1.7 1.4 3 3 3h32c1.7 0 3-1.3 3-3V3c0-1.7-1.4-3-3-3z"/><path fill="#fff" d="M35 1c1.1 0 2 .9 2 2v18c0 1.1-.9 2-2 2H3c-1.1 0-2-.9-2-2V3c0-1.1.9-2 2-2h32"/><path d="M15.867 10.34a.508.508 0 0 0-.177-.164.893.893 0 0 0-.234-.093 1.357 1.357 0 0 0-.127-.025c.046-.015.09-.032.13-.05a.766.766 0 0 0 .2-.13.57.57 0 0 0 .133-.177.495.495 0 0 0 .047-.215.396.396 0 0 0-.101-.282.573.573 0 0 0-.298-.151 2.19 2.19 0 0 0-.483-.045h-.777V11.3h.573c.12 0 .225-.002.313-.007.087-.004.177-.017.269-.037a.883.883 0 0 0 .243-.092c.238-.142.357-.335.357-.575a.446.446 0 0 0-.068-.249ZM14.57 9.175h.256c.14 0 .257.012.349.035.089.023.158.063.204.118a.342.342 0 0 1 .073.228.376.376 0 0 1-.073.226.47.47 0 0 1-.206.152.883.883 0 0 1-.212.054c-.073.01-.16.014-.26.014h-.13v-.827h-.001Zm.88 1.72a.522.522 0 0 1-.217.175.79.79 0 0 1-.325.063h-.338v-.964h.188c.248 0 .442.036.575.108.13.071.195.191.195.367a.432.432 0 0 1-.077.252ZM17.98 11.14c-.091.018-.14.018-.16.001a.058.058 0 0 1-.02-.038.62.62 0 0 1-.005-.092v-.766c0-.19-.056-.335-.165-.432-.11-.096-.272-.145-.482-.145-.21 0-.424.062-.633.186l-.012.007v.217h.088l.006-.015a.242.242 0 0 1 .07-.089.484.484 0 0 1 .148-.086.606.606 0 0 1 .214-.037c.136 0 .24.032.314.094a.34.34 0 0 1 .11.27c0 .047-.011.082-.032.104a.205.205 0 0 1-.1.05c-.05.014-.136.028-.254.046a3.276 3.276 0 0 0-.38.07.55.55 0 0 0-.25.141.388.388 0 0 0-.102.285c0 .124.053.228.16.307a.615.615 0 0 0 .377.118c.224 0 .42-.072.585-.213a.207.207 0 0 0 .088.123c.053.033.12.051.203.053a.585.585 0 0 0 .248-.045l.016-.006v-.115l-.032.007Zm-.543-.195c-.002.002-.004.008-.015.018a.258.258 0 0 1-.039.037l-.041.035a.527.527 0 0 1-.14.082.376.376 0 0 1-.15.037.41.41 0 0 1-.26-.072c-.06-.047-.09-.12-.09-.217 0-.065.019-.12.057-.162a.373.373 0 0 1 .144-.098 1.2 1.2 0 0 1 .195-.054c.073-.013.151-.027.235-.039l.104-.018v.451ZM19.323 9.668c-.249 0-.447.09-.59.266v-.248l-.028.002a4.12 4.12 0 0 0-.091.006.63.63 0 0 1-.124 0 6.055 6.055 0 0 0-.088-.006l-.028-.002v1.626l.028-.003.065-.006.042-.003a1.07 1.07 0 0 1 .195.009l.029.003v-.79c0-.217.035-.38.106-.486.069-.103.19-.153.37-.153a.41.41 0 0 1 .246.065.326.326 0 0 1 .12.178c.023.077.034.172.034.283v.902l.028-.002a1.974 1.974 0 0 1 .198-.008l.042.003.063.005.028.003v-.979c0-.225-.05-.393-.149-.5-.1-.11-.267-.165-.496-.165ZM22.125 11.263v.048l-.027-.002-.078-.004-.05-.004a.734.734 0 0 0-.059-.002l-.056.001-.052.004-.08.005-.014.001-.008-.01a7.659 7.659 0 0 0-.282-.293c-.13-.13-.28-.28-.453-.448-.043-.04-.062-.043-.068-.043-.006 0-.023.017-.023.098v.698l-.029-.003-.062-.004-.043-.004a.457.457 0 0 0-.045-.002l-.044.001-.042.004-.065.005-.029.003V9.168h.36v1.12c0 .053.001.073.003.08l.001.005c.048-.005.138-.045.304-.188l.238-.208.307-.29h.014l.088.007c.025.002.046.004.062.004l.057-.004c.026-.002.056-.005.092-.006l.027-.002v.058l-.008.006a2.07 2.07 0 0 1-.107.08c-.03.021-.1.07-.208.15-.106.077-.212.156-.316.237l-.196.154.152.151.247.25.257.257.229.228.006.006ZM15.769 13.188a2.05 2.05 0 0 0-.56-.269 2.52 2.52 0 0 1-.534-.235c-.108-.07-.163-.184-.163-.337a.38.38 0 0 1 .074-.229.488.488 0 0 1 .2-.156.699.699 0 0 1 .28-.055c.128 0 .241.03.337.088.095.058.167.14.211.242l.006.014h.082l.006-.016c.058-.168.1-.277.123-.322l.007-.014-.013-.011a.838.838 0 0 0-.308-.147 1.443 1.443 0 0 0-.367-.049c-.3 0-.552.069-.75.202a.664.664 0 0 0-.3.58c0 .206.066.362.196.464.126.1.312.19.553.272.236.08.414.157.528.23.11.072.165.186.165.342a.517.517 0 0 1-.08.278.574.574 0 0 1-.22.203.66.66 0 0 1-.315.075.789.789 0 0 1-.408-.098 1.063 1.063 0 0 1-.315-.303l-.007-.01h-.085l-.003.019a1.528 1.528 0 0 1-.086.347l-.006.013.01.01c.077.072.195.13.35.173.155.042.296.064.421.064.161 0 .313-.021.452-.062.139-.042.264-.104.372-.184a.826.826 0 0 0 .34-.68c.001-.194-.064-.341-.193-.439ZM18.3 14.31c-.112.022-.17.021-.195 0a.075.075 0 0 1-.026-.048.917.917 0 0 1-.005-.113v-.917c0-.228-.067-.4-.198-.515-.13-.116-.325-.174-.576-.174a1.49 1.49 0 0 0-.757.223l-.011.007v.254h.097l.005-.015a.301.301 0 0 1 .084-.109.59.59 0 0 1 .181-.104.717.717 0 0 1 .26-.045c.163 0 .29.038.38.114.087.076.131.186.131.327 0 .058-.012.1-.038.128a.248.248 0 0 1-.123.062 3.38 3.38 0 0 1-.305.054c-.19.025-.342.054-.456.084a.654.654 0 0 0-.297.169.461.461 0 0 0-.122.338c0 .149.064.272.19.366a.733.733 0 0 0 .45.14c.268 0 .503-.085.701-.256l.006-.004c.017.068.054.12.105.152.062.04.143.06.24.063a.764.764 0 0 0 .296-.054l.015-.005v-.13l-.032.007Zm-.647-.237c-.001.002-.004.008-.019.023a.294.294 0 0 1-.047.045l-.05.041a.686.686 0 0 1-.17.1.46.46 0 0 1-.181.044.498.498 0 0 1-.316-.088c-.073-.058-.11-.146-.11-.263 0-.08.023-.146.07-.197a.447.447 0 0 1 .175-.119c.074-.028.154-.05.237-.066.087-.016.181-.031.28-.046l.132-.024v.55h-.001ZM21.222 12.543a.862.862 0 0 0-.718.365.577.577 0 0 0-.246-.256.869.869 0 0 0-.433-.109.893.893 0 0 0-.292.045.727.727 0 0 0-.232.129.891.891 0 0 0-.131.135v-.287l-.028.002a4.357 4.357 0 0 0-.109.007.755.755 0 0 1-.151 0 5.779 5.779 0 0 0-.105-.007l-.028-.002v1.942l.028-.002.1-.008a.868.868 0 0 1 .19.002c.02 0 .045.003.074.005l.029.003v-1.178c0-.106.014-.2.042-.28a.358.358 0 0 1 .153-.185.635.635 0 0 1 .333-.072c.16 0 .277.043.35.126.075.085.112.221.112.403v1.186l.029-.003.07-.006.051-.004a.826.826 0 0 1 .168.004l.075.006.028.003v-1.095a.88.88 0 0 1 .105-.45c.068-.114.198-.17.398-.17a.5.5 0 0 1 .31.082c.07.054.117.127.141.216.024.092.037.206.037.338v1.079l.028-.003.078-.007.052-.004h.052a.576.576 0 0 1 .107.005l.075.006.029.003v-1.17c0-.261-.058-.46-.173-.592-.119-.134-.32-.201-.598-.201ZM24.638 13.12a.898.898 0 0 0-.189-.297.857.857 0 0 0-.304-.207 1.04 1.04 0 0 0-.399-.072c-.247 0-.426.041-.531.123-.086.067-.162.15-.23.25v-.352l-.028.002c-.042.002-.08.005-.11.008a.762.762 0 0 1-.149 0l-.107-.008-.027-.002v2.72h.42v-1.081c.162.22.394.334.693.334.305 0 .555-.098.742-.29.186-.19.28-.45.28-.776 0-.123-.02-.242-.061-.351Zm-.459.801a.634.634 0 0 1-.197.297.534.534 0 0 1-.346.108c-.218 0-.377-.065-.487-.202a.838.838 0 0 1-.165-.537c0-.136.02-.272.062-.405a.705.705 0 0 1 .206-.33.548.548 0 0 1 .38-.129c.146 0 .267.035.357.105.091.07.156.164.195.277.039.117.058.246.058.383 0 .162-.021.308-.063.433ZM27.137 13.01a.918.918 0 0 0-.387-.346 1.296 1.296 0 0 0-.57-.12c-.17 0-.328.023-.47.069-.143.045-.272.112-.383.2a.882.882 0 0 0-.343.706c0 .206.05.388.147.542a.961.961 0 0 0 .404.355c.17.08.359.122.561.122.184 0 .353-.027.5-.08.147-.054.274-.129.374-.225a.948.948 0 0 0 .303-.7.97.97 0 0 0-.136-.522Zm-.39.882a.83.83 0 0 1-.226.34.561.561 0 0 1-.387.138.66.66 0 0 1-.393-.11.634.634 0 0 1-.228-.29 1.054 1.054 0 0 1-.072-.39c0-.15.024-.293.072-.426a.69.69 0 0 1 .236-.322.69.69 0 0 1 .427-.123c.115 0 .216.024.298.07.083.048.151.111.2.188a.794.794 0 0 1 .11.257 1.126 1.126 0 0 1-.037.668ZM29.51 13.05a.792.792 0 0 0-.21-.283.92.92 0 0 0-.309-.168 1.204 1.204 0 0 0-.366-.056c-.226 0-.423.044-.587.13a.883.883 0 0 0-.371.358 1.05 1.05 0 0 0-.124.51c0 .202.047.38.14.53.093.15.227.267.395.347.169.079.362.12.577.12.136 0 .275-.021.413-.064.137-.042.27-.1.393-.174l.012-.007.005-.272-.044.037c-.215.179-.438.268-.664.268a.923.923 0 0 1-.326-.055.656.656 0 0 1-.398-.385.752.752 0 0 1-.05-.277c0-.025 0-.046.002-.062h.627c.307 0 .62.005.932.012h.025l.002-.02.003-.042.001-.047a.974.974 0 0 0-.078-.4Zm-1.508.306a.947.947 0 0 1 .084-.306.627.627 0 0 1 .208-.248c.09-.061.2-.092.329-.092.198 0 .334.06.415.18.08.12.125.277.133.466H28ZM31.051 12.543c-.203 0-.397.117-.577.35v-.328l-.028.002a4.997 4.997 0 0 0-.11.008.957.957 0 0 1-.149 0l-.106-.008-.028-.002v1.943l.029-.003.078-.007.05-.004h.053l.056.001.052.004.075.006.028.003v-1.05c0-.122.01-.217.029-.284a.492.492 0 0 1 .133-.204.297.297 0 0 1 .123-.07.51.51 0 0 1 .153-.023c.029 0 .067.01.112.027.076.031.094.035.1.036l.027.005.07-.373-.018-.007a.424.424 0 0 0-.152-.021ZM32.714 12.543c-.303 0-.543.111-.715.33v-.308l-.028.002a4.474 4.474 0 0 0-.11.007.915.915 0 0 1-.149 0l-.106-.007-.028-.002v1.942l.03-.002.077-.007.05-.004h.053l.056.001a1.96 1.96 0 0 1 .126.01l.029.002v-.943c0-.26.043-.458.128-.585.084-.125.23-.186.449-.186.128 0 .228.026.299.079.071.052.12.125.146.215.026.094.04.208.04.341v1.079l.028-.003a1.65 1.65 0 0 1 .07-.005l.051-.004a.772.772 0 0 1 .117 0l.05.004c.02 0 .046.003.076.005l.028.003v-1.17c0-.269-.06-.47-.178-.598-.118-.13-.317-.196-.59-.196ZM35.968 14.31c-.111.022-.171.021-.196 0a.07.07 0 0 1-.025-.048.751.751 0 0 1-.006-.113v-.917c0-.228-.066-.4-.198-.515-.13-.116-.324-.174-.574-.174-.253 0-.507.075-.757.223l-.012.007v.254h.096l.006-.015a.293.293 0 0 1 .084-.109.567.567 0 0 1 .181-.104.71.71 0 0 1 .26-.045c.163 0 .29.038.378.114.089.076.133.186.133.327 0 .058-.014.1-.038.128a.256.256 0 0 1-.123.062c-.061.015-.164.033-.306.054-.19.025-.343.054-.455.084a.649.649 0 0 0-.297.169.461.461 0 0 0-.122.338c0 .149.064.272.19.366a.731.731 0 0 0 .45.14c.267 0 .502-.085.7-.256l.005-.004c.019.068.054.12.107.152.06.04.141.06.239.063a.747.747 0 0 0 .297-.054l.015-.005v-.13l-.032.007Zm-.648-.237a.36.36 0 0 1-.065.069 1.222 1.222 0 0 0-.05.04.671.671 0 0 1-.169.1.466.466 0 0 1-.182.044.497.497 0 0 1-.316-.088c-.073-.058-.11-.146-.11-.263 0-.08.023-.146.069-.197a.452.452 0 0 1 .177-.119c.072-.028.152-.05.236-.066.087-.016.181-.031.28-.046l.13-.024v.55Z"/><path d="M24.254 10.03c0-.093-.076-.15-.186-.15-.106 0-.216.065-.292.187-.087.137-.091.298-.108.485-.019.206-.04.377-.16.527-.115.146-.306.228-.529.228-.313 0-.51-.154-.51-.36 0-.115.062-.187.151-.187.058 0 .093.033.093.079 0 .038-.033.067-.076.067a.106.106 0 0 1-.053-.012c-.031.025-.04.056-.04.1 0 .18.167.297.413.297a.512.512 0 0 0 .472-.27c.084-.158.084-.368.117-.617.024-.172.07-.3.18-.4a.547.547 0 0 1 .373-.145c.172 0 .285.077.285.171 0 .045-.03.084-.084.115a.17.17 0 0 1-.084.025l-.02-.002a.208.208 0 0 0 .058-.138ZM24.728 10.594l.162-.007c-.315.362-.452.597-.452.642 0 .029.022.046.058.046.115 0 .352-.175.67-.542l.014.01c-.318.377-.57.556-.708.556-.075 0-.13-.043-.13-.103 0-.037.022-.082.065-.136l-.007-.006c-.15.165-.318.237-.419.237-.09 0-.153-.058-.153-.155 0-.086.076-.236.225-.367.143-.128.31-.194.426-.194.089 0 .148.047.165.136l.084-.117Zm-.251-.005c-.07 0-.223.079-.357.24a.577.577 0 0 0-.148.324c0 .062.033.095.088.095.058 0 .156-.045.264-.144.164-.154.248-.3.248-.41 0-.067-.038-.105-.095-.105Z" fill="#A9AAAC"/><path d="M25.345 10.69c-.014.019-.086.097-.213.243l.012.004c.215-.253.402-.379.567-.379.087 0 .146.048.146.105 0 .091-.098.173-.213.315-.095.117-.153.191-.153.24 0 .03.022.046.065.046.114 0 .37-.167.682-.532l.017.01c-.312.368-.565.547-.723.547-.089 0-.141-.047-.141-.121 0-.089.088-.188.22-.34.089-.103.136-.167.136-.2 0-.024-.026-.047-.057-.047-.168 0-.484.228-.764.687l-.17.01L25.8 9.9l.174-.002-.629.792Z" fill="#A9AAAC"/><path d="m26.862 10.594.163-.007c-.316.362-.453.597-.453.642 0 .029.022.046.058.046.115 0 .352-.175.67-.542l.014.01c-.318.377-.57.556-.708.556-.074 0-.13-.043-.13-.103 0-.037.023-.082.065-.136l-.007-.006c-.15.165-.318.237-.419.237-.09 0-.153-.058-.153-.155 0-.086.076-.236.225-.367.144-.128.311-.194.426-.194.089 0 .149.047.165.136l.084-.117Zm-.251-.005c-.07 0-.223.079-.357.24a.577.577 0 0 0-.148.324c0 .062.034.095.089.095.057 0 .155-.045.263-.144.165-.154.248-.3.248-.41 0-.067-.038-.105-.095-.105Z" fill="#A9AAAC"/><path d="M27.348 10.859c-.105.14-.168.24-.168.321 0 .064.029.093.1.093.08 0 .248-.085.372-.24.105-.13.165-.233.172-.326a.233.233 0 0 1-.024-.086c0-.03.029-.054.06-.054.053 0 .098.051.098.134 0 .033-.012.06-.012.082 0 .037.062.087.16.087.09 0 .177-.041.249-.123l.014.008a.344.344 0 0 1-.27.13.204.204 0 0 1-.163-.07.748.748 0 0 1-.232.285c-.172.128-.33.192-.452.192-.127 0-.194-.056-.194-.159 0-.09.064-.164.134-.257l.732-.97.17-.007c-.143.166-.387.487-.746.96Z" fill="#A9AAAC"/><path d="m28.987 10.594.162-.007c-.316.362-.452.597-.452.642 0 .029.022.046.058.046.114 0 .351-.175.67-.542l.014.01c-.318.377-.57.556-.709.556-.074 0-.129-.043-.129-.103 0-.037.022-.082.065-.136l-.007-.006c-.151.165-.319.237-.42.237-.09 0-.152-.058-.152-.155 0-.086.076-.236.225-.367.143-.128.31-.194.426-.194.088 0 .148.047.165.136l.084-.117Zm-.252-.005c-.07 0-.222.079-.356.24a.577.577 0 0 0-.148.324c0 .062.033.095.088.095.058 0 .156-.045.263-.144.165-.154.249-.3.249-.41 0-.067-.038-.105-.096-.105Z" fill="#A9AAAC"/><path d="M29.673 10.604h.311l-.017.022h-.313l-.301.408a.354.354 0 0 0-.08.177c0 .043.027.062.087.062.12 0 .43-.157.73-.53l.016.009c-.304.37-.607.543-.78.543-.093 0-.16-.06-.16-.14 0-.043.017-.092.053-.14l.287-.388h-.137l.02-.023h.131l.182-.243.15-.006-.179.248Z" fill="#A9AAAC"/><path d="M2.912 9.425s-.193-.383-.297-.417c-.103-.034-.325 1.174-.214 1.434 0 0 .576.39.67.728l.344-.376.23-.706-.733-.663Z" fill="url(#pi-a)" stroke="#A3822E" stroke-width=".3" stroke-miterlimit="10"/><path d="M3.031 10.723s-.32-.574-.343-1.324" stroke="#A3822E" stroke-width=".1" stroke-miterlimit="10"/><path d="M11.187 9.425s.194-.383.297-.417c.103-.034.325 1.174.214 1.434 0 0-.576.39-.67.728l-.344-.376-.23-.706.733-.663Z" fill="url(#pi-b)" stroke="#A3822E" stroke-width=".3" stroke-miterlimit="10"/><path d="M11.068 10.723s.32-.574.343-1.324" stroke="#A3822E" stroke-width=".1" stroke-miterlimit="10"/><path d="M4.054 8.493s-.248-.424-.37-.424c-.123 0-.414.73-.28 1.09.134.358.323.4.276.62-.046.222.746-.384.754-.433.008-.05-.046-.58-.046-.58l-.334-.273Z" fill="url(#pi-c)" stroke="#A3822E" stroke-width=".3" stroke-miterlimit="10"/><path d="M4.674 7.611s-.855.176-.557 1.69c.298 1.513.926-.215.926-.215s.923-.632.593-.784c-.329-.151-.962-.69-.962-.69Z" fill="url(#pi-d)" stroke="#A3822E" stroke-width=".3" stroke-miterlimit="10"/><path d="M4.117 9.3s.286-1.202.968-1.263c.682-.06.797.632.797.632l-1.447.473-.318.158Z" fill="url(#pi-e)" stroke="#A3822E" stroke-width=".3" stroke-miterlimit="10"/><path d="m3.506 14.653-.475.134s.375.33.697.26c.321-.07.724-.442.724-.442s.037-.237-.006-.249c-.043-.012-.919.168-.919.168l-.021.13Z" fill="url(#pi-f)" stroke="#A3822E" stroke-width=".3" stroke-miterlimit="10"/><path d="m2.97 13.732-.61.01s.477.696 1.052.866c0 0 .247.18.712.026.465-.155.569-.42.569-.42l-.839-.678s-.515.05-.553.055c-.038.004-.331.141-.331.141Z" fill="url(#pi-g)" stroke="#A3822E" stroke-width=".3" stroke-miterlimit="10"/><path d="M3.545 13.812s-.777.055-1.138-.488c-.362-.543-.305-.756-.305-.756s-.028-.103.427.172l1.06.065s.054.264.056.376c.003.113.083.464.083.498 0 .035-.183.133-.183.133Z" fill="url(#pi-h)" stroke="#A3822E" stroke-width=".3" stroke-miterlimit="10"/><path d="M4.293 14.458s-.503-.21-.79-.714c-.287-.504-.203-.657-.203-.657l.36-.06s.21.193.297.376c.086.183.449.583.535.647.086.064.091.27.091.27l-.29.138Z" fill="url(#pi-i)" stroke="#A3822E" stroke-width=".3" stroke-miterlimit="10"/><path d="M2.451 11.62s-.314-.177-.44-.177c0 0-.053.464.22.913.274.45.577.684 1.16.742 0 0 .464-.722.176-.949-.288-.227-1.116-.529-1.116-.529Z" fill="url(#pi-j)" stroke="#A3822E" stroke-width=".3" stroke-miterlimit="10"/><path d="M3.072 11.17s.01-.363-.801-.843c0 0-.444 1.066.57 1.586l.213.125.247-.479-.23-.39Z" fill="url(#pi-k)" stroke="#A3822E" stroke-width=".3" stroke-miterlimit="10"/><path d="M3.718 9.764s-.007-.668-.687-.922c0 0-.454.774.411 1.297 0 0 .307-.179.276-.375Z" fill="url(#pi-l)" stroke="#A3822E" stroke-width=".3" stroke-miterlimit="10"/><path d="M3.992 14.404c-.04.008-.35-.037-.796-.237a4.53 4.53 0 0 1-.458-.237M3.217 13.536s-.598-.326-.856-.73M3.008 12.618s-.614-.327-.909-.953M2.912 11.559s-.43-.324-.551-.996M3.37 9.839l-.268-.831" stroke="#A3822E" stroke-width=".1" stroke-miterlimit="10"/><path d="M10.045 8.493s.248-.424.37-.424c.123 0 .414.73.28 1.09-.134.358-.322.4-.276.62.046.222-.746-.384-.754-.433-.008-.05.046-.58.046-.58l.334-.273Z" fill="url(#pi-m)" stroke="#A3822E" stroke-width=".3" stroke-miterlimit="10"/><path d="M9.426 7.611s.855.176.556 1.69c-.298 1.513-.926-.215-.926-.215s-.922-.632-.593-.784c.33-.151.963-.69.963-.69Z" fill="url(#pi-n)" stroke="#A3822E" stroke-width=".3" stroke-miterlimit="10"/><path d="M9.982 9.3s-.286-1.202-.968-1.263c-.681-.06-.796.632-.796.632l1.446.473.318.158Z" fill="url(#pi-o)" stroke="#A3822E" stroke-width=".3" stroke-miterlimit="10"/><path d="m10.593 14.653.475.134s-.375.33-.697.26c-.321-.07-.724-.442-.724-.442s-.037-.237.006-.249c.043-.012.92.168.92.168l.02.13Z" fill="url(#pi-p)" stroke="#A3822E" stroke-width=".3" stroke-miterlimit="10"/><path d="m11.13 13.732.608.01s-.476.696-1.05.866c0 0-.248.18-.713.026-.465-.155-.568-.42-.568-.42l.838-.678s.515.05.553.055c.039.005.332.141.332.141Z" fill="url(#pi-q)" stroke="#A3822E" stroke-width=".3" stroke-miterlimit="10"/><path d="M10.554 13.812s.777.055 1.138-.488c.362-.543.305-.755.305-.755s.028-.104-.427.171l-1.061.066s-.053.263-.056.376c-.002.112-.082.463-.082.498 0 .035.183.132.183.132Z" fill="url(#pi-r)" stroke="#A3822E" stroke-width=".3" stroke-miterlimit="10"/><path d="M9.806 14.458s.502-.21.79-.714c.287-.504.203-.657.203-.657l-.36-.06s-.211.193-.297.376-.449.583-.535.647c-.086.064-.092.27-.092.27l.291.138Z" fill="url(#pi-s)" stroke="#A3822E" stroke-width=".3" stroke-miterlimit="10"/><path d="M11.648 11.62s.314-.177.44-.177c0 0 .054.464-.22.913-.274.45-.577.684-1.16.742 0 0-.463-.722-.176-.949.287-.227 1.116-.529 1.116-.529Z" fill="url(#pi-t)" stroke="#A3822E" stroke-width=".3" stroke-miterlimit="10"/><path d="M11.027 11.17s-.01-.363.801-.843c0 0 .444 1.066-.57 1.586l-.213.125-.247-.479.23-.39Z" fill="url(#pi-u)" stroke="#A3822E" stroke-width=".3" stroke-miterlimit="10"/><path d="M10.38 9.764s.008-.668.688-.922c0 0 .454.774-.411 1.297 0 0-.307-.179-.276-.375Z" fill="url(#pi-v)" stroke="#A3822E" stroke-width=".3" stroke-miterlimit="10"/><path d="M4.557 14.232c-.04-.016-.919.986-.919.986s1.082 1.025 3.512 1.025c2.43 0 3.296-1.117 3.296-1.117l-.942-.983s-1.631 1.39-4.947.089Z" fill="url(#pi-w)" stroke="#A3822E" stroke-width=".3" stroke-miterlimit="10"/><path d="m4.545 15.14.01.005a.207.207 0 0 0 .014.093.15.15 0 0 0 .065.066c.022.013.047.02.073.021a.17.17 0 0 0 .075-.015.149.149 0 0 0 .058-.045c.024-.03.031-.06.02-.087a.457.457 0 0 0-.066-.103.331.331 0 0 1-.063-.11c-.01-.032.001-.067.03-.105a.184.184 0 0 1 .139-.074.295.295 0 0 1 .229.09c.018.02.03.04.035.06a.932.932 0 0 0-.072.048l-.008-.005a.105.105 0 0 0-.004-.071.121.121 0 0 0-.053-.056.161.161 0 0 0-.064-.021.137.137 0 0 0-.064.008.113.113 0 0 0-.05.037c-.024.03-.03.059-.02.085.01.028.032.062.066.104a.35.35 0 0 1 .065.111c.01.031 0 .065-.027.1a.224.224 0 0 1-.161.089.283.283 0 0 1-.095-.006.336.336 0 0 1-.093-.037.283.283 0 0 1-.069-.057.144.144 0 0 1-.039-.069.422.422 0 0 0 .07-.057ZM5.435 15.395l-.107.188a.191.191 0 0 0-.012.024.02.02 0 0 0 0 .015c.002.005.007.009.014.012a.158.158 0 0 0 .03.008l-.01.018a.179.179 0 0 1-.065-.014.084.084 0 0 1-.04-.031c-.006-.013-.006-.028 0-.046l-.012.003a.244.244 0 0 1-.168-.007.134.134 0 0 1-.073-.065.087.087 0 0 1 .003-.087.12.12 0 0 1 .062-.057.16.16 0 0 1 .077-.008c.027.003.061.01.103.022a.8.8 0 0 0 .069.015.07.07 0 0 0 .036-.002.055.055 0 0 0 .025-.026c.017-.03.021-.057.011-.082-.01-.025-.032-.044-.067-.06a.16.16 0 0 0-.06-.013.16.16 0 0 0-.052.006.09.09 0 0 0-.032.016l-.01-.004.025-.045a.341.341 0 0 1 .177.02c.05.02.082.048.095.08.014.035.007.075-.019.12Zm-.174.14.068-.117-.037-.009a1.352 1.352 0 0 0-.062-.014.328.328 0 0 0-.058-.007.122.122 0 0 0-.052.01.081.081 0 0 0-.04.036c-.014.025-.017.048-.009.067.01.02.028.036.058.048a.163.163 0 0 0 .093 0 .164.164 0 0 0 .03-.009.03.03 0 0 0 .01-.004ZM5.519 15.742l.134-.415a1.739 1.739 0 0 1 .04.012l.017.003c.007 0 .015.002.024.004l-.024.075a.248.248 0 0 1 .052-.035.18.18 0 0 1 .123-.01.175.175 0 0 1 .084.045.11.11 0 0 1 .036.077.207.207 0 0 1 .186-.048c.06.014.098.038.113.072.016.034.014.08-.004.136l-.081.251a2.007 2.007 0 0 0-.017-.005l-.01-.004-.013-.003-.012-.003a.173.173 0 0 0-.012-.002l-.018-.002.075-.232a.315.315 0 0 0 .016-.077.084.084 0 0 0-.017-.058c-.012-.016-.034-.028-.065-.036-.046-.01-.081-.005-.106.018a.222.222 0 0 0-.056.095l-.076.235-.016-.005c-.004-.002-.008-.002-.01-.004a.142.142 0 0 0-.027-.006c-.003 0-.008 0-.012-.002l-.016-.002.082-.255c.014-.041.015-.074.004-.098-.01-.023-.035-.04-.072-.048a.154.154 0 0 0-.082-.002.095.095 0 0 0-.05.034.214.214 0 0 0-.03.06l-.081.254a3.28 3.28 0 0 1-.04-.012l-.019-.004-.02-.002ZM6.542 15.858l-.026.31-.017-.002-.011-.002-.014-.002a.11.11 0 0 0-.014 0h-.028l.057-.66a.915.915 0 0 1 .042.005h.042l-.008.09h.002a.26.26 0 0 1 .066-.065c.025-.016.064-.023.12-.019a.22.22 0 0 1 .086.022.192.192 0 0 1 .099.118c.007.025.01.052.007.08a.242.242 0 0 1-.077.169.225.225 0 0 1-.17.053.173.173 0 0 1-.153-.097h-.003Zm.01-.124a.191.191 0 0 0 .028.128c.023.033.06.052.112.055a.131.131 0 0 0 .085-.02.15.15 0 0 0 .052-.067.32.32 0 0 0 .017-.188.135.135 0 0 0-.04-.069.134.134 0 0 0-.083-.03.133.133 0 0 0-.094.025.171.171 0 0 0-.054.074.331.331 0 0 0-.022.092ZM7.055 15.743a.189.189 0 0 1 .062-.162.262.262 0 0 1 .08-.05.33.33 0 0 1 .233-.006c.038.015.069.039.092.07.024.033.038.07.042.115a.205.205 0 0 1-.053.16.227.227 0 0 1-.078.056.32.32 0 0 1-.237.008.217.217 0 0 1-.14-.191Zm.247-.208a.16.16 0 0 0-.098.037.156.156 0 0 0-.049.08.286.286 0 0 0 .018.188.155.155 0 0 0 .06.064.16.16 0 0 0 .096.02.13.13 0 0 0 .09-.04.19.19 0 0 0 .044-.083.273.273 0 0 0-.005-.154.198.198 0 0 0-.032-.058.14.14 0 0 0-.124-.054ZM8.111 15.736l.011.046a.382.382 0 0 1-.076.055.305.305 0 0 1-.219.029.223.223 0 0 1-.165-.17.23.23 0 0 1-.002-.115.178.178 0 0 1 .06-.093.26.26 0 0 1 .121-.052.26.26 0 0 1 .082-.003.213.213 0 0 1 .076.023c.024.013.044.03.062.053a.223.223 0 0 1 .041.094l.002.01a8.22 8.22 0 0 0-.208.036l-.145.028.004.018a.187.187 0 0 0 .028.061.17.17 0 0 0 .114.072.217.217 0 0 0 .214-.092Zm-.368-.093.272-.051a.231.231 0 0 0-.058-.105c-.027-.025-.063-.033-.109-.024a.126.126 0 0 0-.07.036.133.133 0 0 0-.034.066.21.21 0 0 0-.001.079ZM8.315 15.78l-.155-.41.024-.005a.452.452 0 0 0 .017-.004l.016-.006.023-.008.033.086v-.012c.02-.065.051-.103.096-.115A.1.1 0 0 1 8.4 15.3l.014.076-.024-.002a.078.078 0 0 0-.03.001.112.112 0 0 0-.032.015.065.065 0 0 0-.023.024.105.105 0 0 0-.012.055.264.264 0 0 0 .017.064l.084.223c-.006 0-.012.002-.016.003a.121.121 0 0 1-.012.002l-.013.003-.011.003-.011.004-.017.008ZM8.683 15.672l-.198-.396.023-.006a.117.117 0 0 0 .016-.006l.016-.006.022-.01.038.075c.008-.067.046-.113.114-.138.056-.02.102-.022.14-.005.036.017.069.053.096.109l.12.24a.263.263 0 0 0-.016.004l-.01.003a.114.114 0 0 0-.013.005.099.099 0 0 0-.013.005l-.01.005-.015.006-.11-.22a.32.32 0 0 0-.045-.07.11.11 0 0 0-.056-.035.123.123 0 0 0-.076.007c-.047.018-.073.044-.078.078a.249.249 0 0 0 .036.135l.096.192-.016.005a.199.199 0 0 1-.011.003.088.088 0 0 0-.013.004.075.075 0 0 0-.011.005l-.01.005a.14.14 0 0 0-.016.006ZM9.404 15.053l.117.184.016.022a.03.03 0 0 0 .014.01c.006 0 .013 0 .02-.004a.132.132 0 0 0 .025-.016l.01.017a.122.122 0 0 1-.022.021.176.176 0 0 1-.027.016.103.103 0 0 1-.053.01.067.067 0 0 1-.044-.027l-.003.011a.19.19 0 0 1-.104.115.169.169 0 0 1-.104.014.117.117 0 0 1-.08-.053c-.018-.027-.024-.053-.019-.075a.114.114 0 0 1 .037-.06.654.654 0 0 1 .08-.059.583.583 0 0 0 .054-.04.053.053 0 0 0 .018-.026c.002-.01 0-.02-.009-.033a.12.12 0 0 0-.072-.055.14.14 0 0 0-.095.013.15.15 0 0 0-.048.035.11.11 0 0 0-.024.04.065.065 0 0 0-.003.031l-.01.005-.028-.043c.03-.053.07-.09.12-.114a.194.194 0 0 1 .133-.02.17.17 0 0 1 .1.082Zm.034.204-.074-.116-.029.021a1.51 1.51 0 0 0-.05.036.257.257 0 0 0-.04.036.087.087 0 0 0-.02.043.067.067 0 0 0 .011.049c.016.024.036.04.06.044.023.006.05.001.079-.012a.094.094 0 0 0 .032-.027.121.121 0 0 0 .022-.038l.004-.012c.002-.005.004-.01.004-.015.002-.005.002-.008 0-.01Z"/><path d="M5.232 8.616s-.126-.817-.574-1.005c0 0 2.344-1.363 4.767 0 0 0-.64.509-.613.936l-3.58.07Z" fill="url(#pi-x)" stroke="#A3822E" stroke-width=".3" stroke-miterlimit="10"/><path d="m5.883 8.093-.161-.694.232-.04c.06-.01.11-.014.15-.012.041.002.074.012.098.03.025.017.041.043.049.077a.146.146 0 0 1-.027.126.218.218 0 0 1-.05.049.374.374 0 0 1-.069.037.41.41 0 0 1 .078-.002.283.283 0 0 1 .076.016.167.167 0 0 1 .064.04c.018.017.03.04.037.069.017.072-.005.136-.067.19a.242.242 0 0 1-.066.04.458.458 0 0 1-.08.026 2.21 2.21 0 0 1-.095.018l-.169.03Zm-.048-.674.062.269.049-.009a.662.662 0 0 0 .08-.018.26.26 0 0 0 .063-.029.146.146 0 0 0 .056-.06.12.12 0 0 0 .007-.078.12.12 0 0 0-.041-.07.139.139 0 0 0-.077-.028.453.453 0 0 0-.112.008l-.087.015Zm.071.307.072.311.113-.019a.243.243 0 0 0 .099-.038.154.154 0 0 0 .057-.068.138.138 0 0 0 .006-.086c-.013-.056-.044-.092-.092-.108a.406.406 0 0 0-.19-.003l-.065.01ZM6.946 7.648l.015.24c0 .014.002.024.003.03a.025.025 0 0 0 .01.016c.004.004.012.006.022.005.009 0 .02-.003.035-.006l.002.022a.175.175 0 0 1-.074.018.118.118 0 0 1-.06-.013c-.015-.009-.026-.025-.03-.047l-.01.01a.262.262 0 0 1-.175.074.186.186 0 0 1-.115-.03.112.112 0 0 1-.053-.09c-.003-.036.006-.065.024-.086a.158.158 0 0 1 .072-.046.964.964 0 0 1 .117-.027.834.834 0 0 0 .08-.018.07.07 0 0 0 .035-.02c.007-.008.01-.021.009-.038a.114.114 0 0 0-.043-.088.156.156 0 0 0-.105-.026.185.185 0 0 0-.118.046.083.083 0 0 0-.022.032h-.013l-.004-.057a.375.375 0 0 1 .19-.066c.065-.003.114.01.15.037.035.027.054.07.058.128Zm-.083.225-.01-.152-.042.01a1.93 1.93 0 0 0-.072.016.366.366 0 0 0-.063.02.122.122 0 0 0-.047.035.079.079 0 0 0-.015.056c.002.033.013.057.035.072a.14.14 0 0 0 .139.006.17.17 0 0 0 .057-.04.08.08 0 0 0 .012-.013c.004-.005.006-.008.006-.01ZM7.136 7.974l.046-.494.028.004.02.002h.048l-.009.095a.225.225 0 0 1 .203-.088c.07.005.118.025.145.06.027.034.037.086.03.155l-.027.3-.02-.003-.013-.002-.015-.001L7.556 8h-.033l.026-.275a.348.348 0 0 0-.002-.091.107.107 0 0 0-.035-.063.133.133 0 0 0-.08-.027c-.06-.005-.102.01-.128.043a.29.29 0 0 0-.05.153l-.021.24-.02-.002-.013-.002-.015-.001-.014-.001h-.034ZM8.064 7.285l-.114.455-.005.026c0 .004 0 .007.003.008.022.004.061-.009.117-.04l.09-.05.113-.071.027.007a.17.17 0 0 0 .02.005.721.721 0 0 1 .047.006l-.002.007a.74.74 0 0 1-.039.018l-.075.034a4.1 4.1 0 0 0-.195.095l.038.06.057.091.06.094.053.083-.002.005-.023-.006-.015-.004a.226.226 0 0 0-.037-.007L8.166 8.1a.537.537 0 0 0-.025-.002 1.941 1.941 0 0 0-.065-.107l-.104-.164c-.009-.013-.017-.02-.023-.021-.01-.002-.018.01-.025.034l-.052.208-.019-.005-.012-.004a.337.337 0 0 0-.029-.006h-.013l-.02-.003.19-.763.027.007a.17.17 0 0 0 .04.007.195.195 0 0 0 .028.005Z"/><path d="M7.042 15.126c2.224 0 4.026-1.55 4.026-3.461 0-1.912-1.802-3.462-4.026-3.462-2.224 0-4.026 1.55-4.026 3.462 0 1.911 1.802 3.461 4.026 3.461Z" fill="url(#pi-y)" stroke="#A3822E" stroke-width=".3" stroke-miterlimit="10"/><path d="M7.102 14.232c1.717 0 3.109-1.197 3.109-2.673S8.819 8.886 7.102 8.886s-3.109 1.197-3.109 2.673 1.392 2.673 3.11 2.673Z" fill="#fff"/><path d="M7.102 14.32c-1.772 0-3.212-1.238-3.212-2.761 0-1.523 1.44-2.762 3.212-2.762 1.771 0 3.212 1.24 3.212 2.762 0 1.523-1.44 2.762-3.212 2.762Zm0-5.345c-1.657 0-3.006 1.159-3.006 2.584 0 1.424 1.349 2.584 3.006 2.584 1.657 0 3.006-1.16 3.006-2.584 0-1.425-1.349-2.584-3.006-2.584Z"/><path d="M7.102 9.189c-1.522 0-2.756 1.06-2.756 2.37s1.234 2.37 2.756 2.37c1.523 0 2.757-1.06 2.757-2.37S8.625 9.19 7.102 9.19Zm-.095 3.798h.07c-.024.026-.04.04-.04.04l-.03-.04Z" fill="red"/><path d="M9.111 10.43c-1.361-.41-2.067.321-2.067.321-1.097-.775-2.149-.207-2.149-.207.306 1.21 1.38 1.338 1.38 1.338-.334.938.769 1.708.769 1.708.93-.454.89-1.742.89-1.742 1.08-.341 1.177-1.418 1.177-1.418Zm-2.1.852c.075-.087.31.328.265.367-.045.04-.44.057-.473-.022-.035-.078.208-.345.208-.345Zm-.617.23c-.724-.163-.919-.724-.919-.724.825-.105 1.266.245 1.266.245-.347.177-.347.479-.347.479Zm.62 1.467c-.386-.453-.344-1.018-.344-1.018.322.079.731 0 .731 0 .09.606-.388 1.018-.388 1.018Zm.75-1.467c-.082-.232-.41-.501-.41-.501.545-.393 1.206-.27 1.206-.27-.235.524-.796.77-.796.77Z" fill="#fff" stroke="#000" stroke-width=".2" stroke-miterlimit="10"/><path d="m5.843 14.652.006.003c.002.015.008.029.018.042a.08.08 0 0 0 .07.034.08.08 0 0 0 .034-.01.053.053 0 0 0 .023-.023c.009-.017.009-.03 0-.041a.273.273 0 0 0-.048-.042.164.164 0 0 1-.047-.047c-.009-.014-.007-.033.004-.055a.094.094 0 0 1 .062-.05.144.144 0 0 1 .089.008.2.2 0 0 1 .067.043.299.299 0 0 0-.037.034l-.006-.002c0-.007 0-.015-.003-.024a.07.07 0 0 0-.013-.021.05.05 0 0 0-.02-.014.082.082 0 0 0-.049-.004.051.051 0 0 0-.035.028c-.008.016-.008.03 0 .04.01.011.025.026.047.043a.188.188 0 0 1 .047.048c.009.015.008.032-.002.053a.093.093 0 0 1-.043.042.13.13 0 0 1-.062.013.178.178 0 0 1-.063-.012.174.174 0 0 1-.073-.05.442.442 0 0 0 .034-.036ZM6.417 14.683l-.044.138a.192.192 0 0 0-.005.018c0 .004 0 .007.002.01s.006.005.012.007a.128.128 0 0 0 .021.002l-.004.013a.126.126 0 0 1-.045-.003.061.061 0 0 1-.031-.017c-.007-.007-.01-.018-.007-.03l-.008.003a.167.167 0 0 1-.115.013.098.098 0 0 1-.058-.035.06.06 0 0 1-.01-.06.075.075 0 0 1 .033-.044.106.106 0 0 1 .05-.014.67.67 0 0 1 .072.004.462.462 0 0 0 .05.003c.01 0 .017-.003.023-.006.006-.004.01-.01.014-.02.007-.022.005-.04-.005-.056s-.028-.027-.054-.033a.122.122 0 0 0-.043-.002.091.091 0 0 0-.033.01.053.053 0 0 0-.02.014l-.007-.002.01-.033a.236.236 0 0 1 .123-.006c.036.008.062.024.075.045.014.02.015.048.004.081Zm-.096.114.028-.087-.026-.002-.044-.002a.24.24 0 0 0-.04.001.081.081 0 0 0-.034.012.054.054 0 0 0-.021.03c-.006.018-.005.034.004.046.009.012.024.02.046.026a.114.114 0 0 0 .063-.01.139.139 0 0 1 .009-.004.051.051 0 0 0 .01-.005.022.022 0 0 0 .005-.005ZM6.515 14.9l.066-.46.017.002a.066.066 0 0 0 .012.002h.012l.017.001-.032.223a.135.135 0 0 1 .123-.047c.04.004.069.017.084.039s.02.053.014.093l-.025.177a.121.121 0 0 0-.011-.002l-.008-.001-.01-.002h-.017l-.01-.001.022-.163c.005-.036.003-.063-.006-.08-.01-.017-.029-.028-.058-.03-.063-.008-.098.022-.107.088l-.024.166a.122.122 0 0 0-.012-.002l-.007-.001-.01-.001-.008-.001h-.022ZM7.193 14.737l.003.144v.018c.001.004.003.007.006.01.003.002.008.002.014.002a.115.115 0 0 0 .02-.002v.013a.13.13 0 0 1-.02.007.14.14 0 0 1-.024.002.07.07 0 0 1-.035-.008c-.009-.006-.014-.016-.016-.029l-.007.006a.156.156 0 0 1-.105.04.107.107 0 0 1-.068-.02.064.064 0 0 1-.03-.054c0-.022.006-.04.018-.051a.1.1 0 0 1 .044-.026.672.672 0 0 1 .07-.014.431.431 0 0 0 .048-.01.043.043 0 0 0 .021-.01c.005-.006.007-.013.007-.023a.068.068 0 0 0-.023-.053c-.015-.013-.036-.018-.062-.018a.115.115 0 0 0-.043.008.091.091 0 0 0-.029.017.05.05 0 0 0-.013.018H6.96v-.034a.226.226 0 0 1 .115-.036c.038 0 .068.008.088.025.02.018.03.044.03.078Zm-.055.133-.002-.09-.025.005a1.077 1.077 0 0 0-.082.018.076.076 0 0 0-.029.02.05.05 0 0 0-.01.034c0 .019.006.033.019.043a.083.083 0 0 0 .082.006.112.112 0 0 0 .035-.023.06.06 0 0 0 .008-.007l.004-.006ZM7.342 14.923l-.075-.458h.016l.013-.002a.313.313 0 0 1 .028-.005l.037.226a.173.173 0 0 1 .046-.053.137.137 0 0 1 .067-.024.15.15 0 0 1 .083.01c.024.011.043.027.057.048a.17.17 0 0 1 .026.127.148.148 0 0 1-.134.118c-.045.005-.08-.005-.108-.031a1.353 1.353 0 0 1-.042.043h-.014Zm.118-.288c-.038.004-.063.021-.075.05a.19.19 0 0 0 .014.163.098.098 0 0 0 .096.043.09.09 0 0 0 .047-.018.096.096 0 0 0 .028-.038.153.153 0 0 0 .011-.046.186.186 0 0 0-.002-.048.173.173 0 0 0-.02-.06.095.095 0 0 0-.04-.038.103.103 0 0 0-.06-.008ZM7.956 14.622l.041.139a.184.184 0 0 0 .007.017.017.017 0 0 0 .007.008c.004.002.009.002.014 0a.097.097 0 0 0 .02-.006l.004.013a.108.108 0 0 1-.04.017.066.066 0 0 1-.037-.001c-.01-.004-.019-.012-.024-.025l-.005.007a.145.145 0 0 1-.091.061.113.113 0 0 1-.072-.006.072.072 0 0 1-.043-.046c-.006-.021-.005-.039.003-.053a.087.087 0 0 1 .035-.034.578.578 0 0 1 .065-.028.453.453 0 0 0 .044-.019.04.04 0 0 0 .017-.015c.003-.006.003-.013 0-.023a.074.074 0 0 0-.036-.047.096.096 0 0 0-.066-.005.111.111 0 0 0-.038.016.092.092 0 0 0-.024.023.049.049 0 0 0-.008.02l-.008.003-.01-.034c.03-.03.065-.05.102-.058a.134.134 0 0 1 .092.007c.023.013.04.035.05.07Zm-.017.14-.027-.088-.023.01a.98.98 0 0 0-.04.017.19.19 0 0 0-.034.018.061.061 0 0 0-.023.025.045.045 0 0 0-.001.035.059.059 0 0 0 .03.038.086.086 0 0 0 .104-.033l.005-.007c.003-.003.005-.006.006-.01a.013.013 0 0 0 .003-.005ZM8.008 14.438l.047-.034.03.076.073-.021c0 .006.002.01.003.012a.049.049 0 0 0 .006.01l-.072.021.058.147.009.021c.009.023.019.04.031.05.012.012.028.015.049.009a.272.272 0 0 0 .029-.013l.005.014a.194.194 0 0 1-.053.027.12.12 0 0 1-.034.006.06.06 0 0 1-.03-.008.082.082 0 0 1-.028-.024.196.196 0 0 1-.022-.043l-.068-.17-.042.012a.03.03 0 0 0-.003-.012.028.028 0 0 0-.006-.01l.042-.012-.024-.058Z"/><path d="M10.108 14.404c.038.008.35-.037.795-.237.14-.063.295-.141.458-.237M10.883 13.536s.597-.326.856-.73M11.09 12.618s.614-.327.91-.953M11.187 11.559s.431-.324.552-.996M10.73 9.839l.267-.831" stroke="#A3822E" stroke-width=".1" stroke-miterlimit="10"/><defs><linearGradient id="pi-a" x1="2.935" y1="9.989" x2="2.345" y2="10.807" gradientUnits="userSpaceOnUse"><stop stop-color="#F7E349"/><stop offset="1" stop-color="#A3822E"/></linearGradient><linearGradient id="pi-b" x1="11.164" y1="9.989" x2="11.754" y2="10.807" gradientUnits="userSpaceOnUse"><stop stop-color="#F7E349"/><stop offset="1" stop-color="#A3822E"/></linearGradient><linearGradient id="pi-c" x1="3.867" y1="8.938" x2="3.018" y2="9.005" gradientUnits="userSpaceOnUse"><stop stop-color="#F7E349"/><stop offset="1" stop-color="#A3822E"/></linearGradient><linearGradient id="pi-d" x1="4.913" y1="8.306" x2="4.458" y2="9.426" gradientUnits="userSpaceOnUse"><stop stop-color="#F7E349"/><stop offset="1" stop-color="#A3822E"/></linearGradient><linearGradient id="pi-e" x1="5.525" y1="8.667" x2="3.665" y2="8.667" gradientUnits="userSpaceOnUse"><stop stop-color="#F7E349"/><stop offset="1" stop-color="#A3822E"/></linearGradient><linearGradient id="pi-f" x1="2.91" y1="14.559" x2="4.46" y2="14.837" gradientUnits="userSpaceOnUse"><stop stop-color="#F7E349"/><stop offset="1" stop-color="#A3822E"/></linearGradient><linearGradient id="pi-g" x1="3.571" y1="13.807" x2="3.348" y2="14.967" gradientUnits="userSpaceOnUse"><stop stop-color="#F7E349"/><stop offset="1" stop-color="#A3822E"/></linearGradient><linearGradient id="pi-h" x1="2.983" y1="13.022" x2="2.592" y2="13.804" gradientUnits="userSpaceOnUse"><stop stop-color="#F7E349"/><stop offset="1" stop-color="#A3822E"/></linearGradient><linearGradient id="pi-i" x1="3.495" y1="13.365" x2="4.642" y2="14.743" gradientUnits="userSpaceOnUse"><stop stop-color="#F7E349"/><stop offset="1" stop-color="#A3822E"/></linearGradient><linearGradient id="pi-j" x1="2.853" y1="11.983" x2="2.303" y2="13.427" gradientUnits="userSpaceOnUse"><stop stop-color="#F7E349"/><stop offset="1" stop-color="#A3822E"/></linearGradient><linearGradient id="pi-k" x1="2.925" y1="10.906" x2="2.043" y2="12.162" gradientUnits="userSpaceOnUse"><stop stop-color="#F7E349"/><stop offset="1" stop-color="#A3822E"/></linearGradient><linearGradient id="pi-l" x1="3.538" y1="9.454" x2="2.568" y2="9.613" gradientUnits="userSpaceOnUse"><stop stop-color="#F7E349"/><stop offset="1" stop-color="#A3822E"/></linearGradient><linearGradient id="pi-m" x1="10.232" y1="8.938" x2="11.081" y2="9.005" gradientUnits="userSpaceOnUse"><stop stop-color="#F7E349"/><stop offset="1" stop-color="#A3822E"/></linearGradient><linearGradient id="pi-n" x1="9.186" y1="8.306" x2="9.641" y2="9.426" gradientUnits="userSpaceOnUse"><stop stop-color="#F7E349"/><stop offset="1" stop-color="#A3822E"/></linearGradient><linearGradient id="pi-o" x1="8.574" y1="8.667" x2="10.435" y2="8.667" gradientUnits="userSpaceOnUse"><stop stop-color="#F7E349"/><stop offset="1" stop-color="#A3822E"/></linearGradient><linearGradient id="pi-p" x1="11.189" y1="14.559" x2="9.639" y2="14.837" gradientUnits="userSpaceOnUse"><stop stop-color="#F7E349"/><stop offset="1" stop-color="#A3822E"/></linearGradient><linearGradient id="pi-q" x1="10.528" y1="13.807" x2="10.752" y2="14.967" gradientUnits="userSpaceOnUse"><stop stop-color="#F7E349"/><stop offset="1" stop-color="#A3822E"/></linearGradient><linearGradient id="pi-r" x1="11.116" y1="13.022" x2="11.507" y2="13.804" gradientUnits="userSpaceOnUse"><stop stop-color="#F7E349"/><stop offset="1" stop-color="#A3822E"/></linearGradient><linearGradient id="pi-s" x1="10.604" y1="13.365" x2="9.457" y2="14.743" gradientUnits="userSpaceOnUse"><stop stop-color="#F7E349"/><stop offset="1" stop-color="#A3822E"/></linearGradient><linearGradient id="pi-t" x1="11.246" y1="11.983" x2="11.796" y2="13.427" gradientUnits="userSpaceOnUse"><stop stop-color="#F7E349"/><stop offset="1" stop-color="#A3822E"/></linearGradient><linearGradient id="pi-u" x1="11.174" y1="10.906" x2="12.056" y2="12.162" gradientUnits="userSpaceOnUse"><stop stop-color="#F7E349"/><stop offset="1" stop-color="#A3822E"/></linearGradient><linearGradient id="pi-v" x1="10.561" y1="9.454" x2="11.531" y2="9.613" gradientUnits="userSpaceOnUse"><stop stop-color="#F7E349"/><stop offset="1" stop-color="#A3822E"/></linearGradient><linearGradient id="pi-w" x1="7.042" y1="14.143" x2="7.042" y2="16.242" gradientUnits="userSpaceOnUse"><stop stop-color="#F7E349"/><stop offset="1" stop-color="#A3822E"/></linearGradient><linearGradient id="pi-x" x1="7.042" y1="8.616" x2="7.042" y2="7.005" gradientUnits="userSpaceOnUse"><stop stop-color="#F7E349"/><stop offset="1" stop-color="#A3822E"/></linearGradient><linearGradient id="pi-y" x1="7.042" y1="8.203" x2="7.042" y2="15.126" gradientUnits="userSpaceOnUse"><stop stop-color="#F7E349"/><stop offset="1" stop-color="#A3822E"/></linearGradient></defs></svg>