<svg xmlns="http://www.w3.org/2000/svg" role="img" aria-labelledby="pi-buckaroopayments" width="38" height="24" viewBox="0 0 38 24"><title id="pi-buckaroopayments">Buckaroo Payments</title><path fill="#000" opacity=".07" d="M35 0H3a3 3 0 00-3 3v18a3 3 0 003 3h32a3 3 0 003-3V3a3 3 0 00-3-3z"/><path fill="#163255" d="M35 1H3a2 2 0 00-2 2v18a2 2 0 002 2h32a2 2 0 002-2V3a2 2 0 00-2-2z"/><path d="M6.784 11.96c.297.04.633.337.633.856 0 .594-.363 1.016-1.172 1.016H4.503a.05.05 0 01-.05-.05v-3.563c0-.028.019-.051.05-.051h1.738c.657 0 1.075.402 1.075 1.016 0 .464-.317.718-.536.753v.024zm-1.597-.312c0 .028.023.051.054.051h.872c.292 0 .488-.187.488-.469a.426.426 0 00-.442-.43h-.918a.053.053 0 00-.054.055zm.98 1.551c.328 0 .496-.183.496-.457a.458.458 0 00-.46-.453H5.24c-.03 0-.054.023-.054.05v.806c0 .03.023.054.054.054zM11 12.191c0 1.028-.626 1.723-1.563 1.723-.961 0-1.598-.695-1.598-1.723V10.22c0-.028.024-.051.05-.051h.634c.03 0 .054.023.054.05v1.973c0 .614.34 1.012.864 1.012.492 0 .824-.398.824-1.012V10.22c0-.028.023-.051.05-.051h.633c.032 0 .055.023.055.05v1.973zm8.51-1.991l.29.718a.05.05 0 00.047.031h1.535c.023 0 .043-.012.05-.031l.294-.719c.004-.02.023-.035.047-.035h.683c.035 0 .063.04.047.074l-1.527 3.559a.05.05 0 01-.047.031h-.621c-.02 0-.035-.012-.047-.031l-1.527-3.559a.052.052 0 01.046-.074h.684c.02.004.04.016.047.035zm1.153 2.613l.453-1.118c.016-.035-.011-.07-.046-.07h-.907c-.035 0-.058.035-.047.07l.454 1.118c.015.042.074.042.093 0zm4.328 1l-1.054-1.325h-.383v1.293a.053.053 0 01-.055.055h-.633a.053.053 0 01-.054-.055V10.22c0-.028.023-.051.054-.051h1.688c.781 0 1.305.465 1.305 1.16 0 .61-.41 1.047-1.043 1.14l1.023 1.278c.027.031.004.082-.039.082h-.77c-.015.004-.027-.004-.039-.015zm-.437-2c.34 0 .57-.196.57-.485s-.226-.488-.57-.488H23.6a.052.052 0 00-.051.05v.872c0 .031.023.05.05.05zm5.437.191c0 1.066-.843 1.91-1.918 1.91a1.894 1.894 0 01-1.914-1.91c0-1.063.84-1.918 1.914-1.918 1.075 0 1.918.852 1.918 1.918zm-.742 0c0-.7-.515-1.219-1.172-1.219-.656 0-1.172.52-1.172 1.219 0 .703.516 1.21 1.172 1.21.657 0 1.172-.507 1.172-1.21zm4.911 0c0 1.066-.84 1.91-1.915 1.91a1.894 1.894 0 01-1.914-1.91c0-1.063.84-1.918 1.914-1.918a1.9 1.9 0 011.914 1.918zm-.743 0c0-.7-.515-1.219-1.172-1.219-.656 0-1.172.52-1.172 1.219 0 .703.516 1.21 1.172 1.21.657 0 1.172-.507 1.172-1.21zm-19.09.606c-.02 0-.035.011-.047.03-.195.4-.554.579-.96.579-.649 0-1.165-.524-1.165-1.219 0-.695.516-1.215 1.165-1.215.406 0 .761.18.96.574a.05.05 0 00.043.032h.696c.031 0 .058-.036.047-.07-.239-.774-.93-1.235-1.743-1.235-1.07 0-1.91.844-1.91 1.914a1.89 1.89 0 001.91 1.914c.801 0 1.485-.441 1.73-1.238a.05.05 0 00-.046-.067zm3.696 1.222h.757c.043 0 .067-.05.04-.082l-1.633-2.04 1.304-1.452c.032-.035.004-.09-.039-.09h-.789c-.015 0-.027.008-.039.02l-1.3 1.457v-1.422c0-.032-.02-.055-.051-.055h-.633c-.031 0-.05.023-.05.055v3.558c0 .031.019.055.05.055h.637c.027 0 .05-.024.05-.055v-1.11l.391-.44 1.266 1.581a.06.06 0 00.039.02zm0 0" fill="#cdf564" fill-rule="nonzero" clip-rule="evenodd" fill-opacity="1"/></svg>