<svg xmlns="http://www.w3.org/2000/svg" role="img" viewBox="0 0 38 24" width="38" height="24" aria-labelledby="pi-buckaroopaybybank"><title id="pi-buckaroopaybybank">Buckaroo-PayByBank</title><path fill="#000" opacity=".07" d="M35 0H3C1.3 0 0 1.3 0 3v18c0 1.7 1.4 3 3 3h32c1.7 0 3-1.3 3-3V3c0-1.7-1.4-3-3-3z"/><path fill="#163255" fill-rule="evenodd" clip-rule="evenodd" d="M35 1c1.1 0 2 .9 2 2v18c0 1.1-.9 2-2 2H3c-1.1 0-2-.9-2-2V3c0-1.1.9-2 2-2h32"/><path fill="#CDF564" d="M7.602 6.324h1.316v3.844H7.602zm.613 1.727h1.363c.106 0 .2-.016.277-.04a.39.39 0 00.18-.109.236.236 0 00.063-.168v-.453a.262.262 0 00-.063-.176.416.416 0 00-.176-.113.977.977 0 00-.28-.039H8.214v-.625h1.402c.383 0 .707.031.98.098.274.066.481.164.622.297a.61.61 0 01.21.465v.648a.58.58 0 01-.214.457c-.145.125-.352.223-.621.289a4.207 4.207 0 01-.977.098H8.215zm5.601-1.727h.926l1.84 3.844h-1.305l-.996-2.52-.996 2.52h-1.308zm-.59 2.633h2.102v.613h-2.101zm6.047-.262v1.473h-1.316V8.695l-1.441-2.37h1.367l.722 1.593.688-1.594h1.367zm3.883-2.371h1.32v3.844h-1.32zm.754 3.227h1.156c.16 0 .286-.02.38-.063.09-.043.132-.105.132-.183v-.516a.218.218 0 00-.062-.16.393.393 0 00-.184-.106 1.026 1.026 0 00-.289-.035h-1.137v-.605h1.106a.764.764 0 00.363-.074c.086-.051.129-.122.129-.211v-.414c0-.079-.043-.137-.129-.18a.83.83 0 00-.36-.066h-1.109v-.614h1.242c.348 0 .645.031.891.094.25.062.438.152.566.27a.563.563 0 01.196.43v.413a.431.431 0 01-.137.309c-.086.086-.215.16-.383.219a2.7 2.7 0 01-.605.113c.258.02.476.058.66.113.18.059.32.137.418.23a.44.44 0 01.144.329v.523a.575.575 0 01-.191.438c-.129.117-.312.21-.559.273a3.59 3.59 0 01-.882.094h-1.36V9.55zm5.926-.856v1.473H28.52V8.695l-1.446-2.37h1.371l.72 1.593.69-1.594h1.368zM7.707 11.852h1.625v4.71H7.707zm.926 3.957h1.422c.199 0 .355-.028.468-.079.11-.054.165-.128.165-.222v-.633a.28.28 0 00-.075-.2.47.47 0 00-.222-.124 1.225 1.225 0 00-.36-.043H8.637v-.746h1.355c.192 0 .34-.032.45-.094.105-.059.16-.145.16-.258v-.508c0-.093-.055-.168-.16-.222a1.051 1.051 0 00-.442-.078H8.637v-.75h1.527c.426 0 .79.035 1.094.109.305.078.535.187.695.332a.708.708 0 01.238.527v.508c0 .14-.054.266-.164.375-.109.11-.265.2-.472.27-.207.07-.457.117-.746.144.316.02.586.067.812.137.223.07.395.164.512.281a.54.54 0 01.183.402v.645a.696.696 0 01-.238.531c-.152.149-.383.258-.687.336a4.585 4.585 0 01-1.086.117H8.637v-.757zm6.48-3.957h1.133l2.266 4.71h-1.606l-1.222-3.09-1.227 3.09h-1.605zm-.722 3.226h2.582v.754H14.39zm4.824-3.226h1.27l2.23 3.144-.18.125v-3.27h1.477v4.711h-1.285l-2.204-2.964.168-.13v3.095h-1.476zm5.957 0h1.617v4.71h-1.617zm1.285 2.535l1.844-2.535h1.824l-3.672 3.96v-1.425zm.59-.399l1.11-.48 2.269 3.055h-1.774zm0 0"/></svg>