<svg width="38" height="24" viewBox="0 0 38 24" fill="none" role="img" aria-labelledby="pi-bumper"><title id="pi-bumper">Bumper</title><g clip-path="url(#pi-bumper-clip0_2101_67)"><path d="M35 1H3a2 2 0 00-2 2v18a2 2 0 002 2h32a2 2 0 002-2V3a2 2 0 00-2-2z" fill="#FF733C"/><path d="M35 .5H3A2.5 2.5 0 00.5 3v18A2.5 2.5 0 003 23.5h32a2.5 2.5 0 002.5-2.5V3A2.5 2.5 0 0035 .5z" stroke="#000" stroke-opacity=".07"/><path d="M4 9.012h2.714c.112 0 .177-.027.286 0 .122.03.286.16.286.16s.187.075.285.16c.063.055.143.161.143.161s.118.077.143.16c.018.06 0 .098 0 .16v.964c0 .063.018.089 0 .149-.025.083-.143.172-.143.172l-.285.148c.007.055.007-.043 0 .012 0 0-.018-.071 0-.012.025.084 0 .16 0 .16l.285.161.143.16.143.16v1.135c0 .063-.143.309-.143.309v.012l-.143.16-.143.16-.142.161c-.056.063-.073.109-.143.149-.1.056-.174.012-.286.012H4V9.012z" fill="#1B1B1B"/><path d="M7.429 11.245l.285-.148s.118-.088.143-.172c.018-.06 0-.086 0-.149V9.814c0-.063.018-.101 0-.16-.025-.084-.143-.16-.143-.16s-.08-.107-.143-.161c-.098-.086-.285-.16-.285-.16s-.164-.13-.286-.16c-.109-.028-.174 0-.286 0H4v4.971h3c.112 0 .186.044.286-.012.07-.04.087-.086.143-.149l.142-.16.143-.16.143-.16v-.013S8 13.084 8 13.021v-1.134l-.143-.16-.143-.161-.285-.16s.025-.077 0-.16zm0 0c.007.055.007-.043 0 .012 0 0-.018-.071 0-.012z" stroke="#1B1B1B" stroke-width=".05"/><path d="M5.36 9.962h-.217v.958h.871s.283.028.436-.04c.106-.048.133-.077.218-.152 0 0 .096-.095.15-.19.074-.134.033-.25-.041-.383-.054-.097-.327-.172-.327-.172l-.087-.02H5.361zm0 2.245h-.217v.957h.871s.283.028.436-.04c.106-.048.133-.077.218-.152 0 0 .096-.095.15-.19.074-.134.033-.25-.041-.383-.054-.096-.327-.172-.327-.172l-.087-.02H5.361z" fill="#FF733C" stroke="#1B1B1B" stroke-width=".05"/><path d="M9 9v3.611l.25.556.5.555.5.278h1.5l.5-.278.5-.278.25-.555V9h-1.5v3.333l-.25.278h-.5l-.25-.555V9H9zm5 0v5h1.294v-2.833l.47 2h.589l.47-1.834V14H18V9h-1.294l-.47 1.667H16L15.53 9H14z" fill="#1B1B1B" stroke="#1B1B1B" stroke-width=".05"/><path fill-rule="evenodd" clip-rule="evenodd" d="M19 9v5h1.482v-1.167h1.481l.296-.166.297-.167.296-.333L23 12v-1.667L22.852 10l-.148-.333-.148-.167-.297-.333L21.963 9H19zm1.63 1.667v-.334h.592s.445.167.445.334c0 .166-.025.404-.025.404v.033c0 .167-.568.396-.568.396h-.444v-.833z" fill="#1B1B1B" stroke="#1B1B1B" stroke-width=".05"/><path d="M24 9h4v1.167h-2.333v.666h2V12h-2v.667H28V14h-4V9z" fill="#1B1B1B" stroke="#1B1B1B" stroke-width=".05"/><path fill-rule="evenodd" clip-rule="evenodd" d="M29 14h1.482v-1.5h.296v.333l.148.334.148.333.296.333.297.167H33v-1.333h-.889l-.148-.167.148-.167h.148l.148-.166.149-.167.148-.167.148-.166.148-.334V10l-.148-.333-.148-.167-.148-.167-.297-.166L32.111 9H29v5zm2.37-3.667h-.889v1h.741l.296-.166V10.5l-.148-.167z" fill="#1B1B1B" stroke="#1B1B1B" stroke-width=".05"/></g><defs><clipPath id="pi-bumper-clip0_2101_67"><path fill="#fff" d="M0 0h38v24H0z"/></clipPath></defs></svg>