<svg width="38" height="24" viewBox="0 0 38 24" fill="none" xmlns="http://www.w3.org/2000/svg" role="img" aria-labelledby="pi-cacpaywallet"><title id="pi-cacpaywallet">CacpayWallet</title><g clip-path="url(#pi-cacpaywallet-clip)"><rect x="1" y="1" width="36" height="22" rx="2" fill="#1D4C9A"/><path d="M17.034 1.894h2.795l1.042.023.474.046.497.114.379.138.403.183.426.275.308.252.379.367.284.39.213.366.166.367.142.435.095.55v.688l-.095.55-.142.458-.213.481-.26.436-.214.275-.26.275-.214.206-.284.206-.355.206-.403.184-.45.137-.426.092-.403.046-.426.023-2.037.022-.166.07-.07.045-.024 3.69-.048.343-.142.252-.166.138-.19.092-.094.023h-.331l-.237-.092-.166-.138-.118-.206-.048-.114-.024-.436V8.93l.048-.252.118-.229.19-.16.237-.092.308-.023h2.913l.402-.023.474-.092.355-.137.308-.16.237-.184.142-.114.213-.253.19-.252.19-.366.094-.298.047-.23v-.48l-.094-.413-.19-.458-.19-.321-.213-.252-.236-.23-.332-.206-.284-.137-.403-.115-.402-.046-5.069-.023-.26-.068-.19-.138-.142-.183-.071-.206v-.253l.071-.206.095-.137.118-.115.19-.114.166-.046 1.373-.023z" fill="#FEFEFE"/><path d="M18.147 4.988h1.54l1.066.022.236.07.214.16.165.183.095.252v.183l-.047.184-.142.229-.119.114-.213.138-.166.046-3.6.023-.426.068-.379.138-.284.16-.332.252-.237.253-.213.32-.165.367-.095.32-.048.413.024.321.095.39.19.435.165.252.26.298.237.207.024.068v1.673l-.095.023-.379-.16-.473-.275-.355-.298-.119-.092-.166-.183-.308-.367-.213-.344-.19-.366-.165-.436-.095-.366-.07-.459v-.756l.07-.39.142-.48.19-.413.237-.413.236-.298.214-.252.213-.206.26-.206.332-.23.45-.229.402-.137.427-.092.545-.069.355-.023.71-.022z" fill="#FCD314"/><path d="M19.971 15.3h2.558l.474.069.355.114.26.16.19.207.118.23.095.366v.619l-.095.343-.142.252-.142.16-.237.138-.308.115-.402.069-.213.023-.971.023h-.569V19.7l-.45.023h-.474l-.047-.023-.024-1.352v-3.025l.024-.023zm6.063-.023l.948.023.19.367.425.985.45 1.008.545 1.238.284.619.048.091v.092l-.948.023-.118-.046-.237-.573-.166-.435-.118-.023h-1.871l-.071.229-.284.78-.119.068-.924-.023.072-.206.236-.527.19-.459.474-1.077.307-.71.19-.436.237-.55.19-.412.07-.046zm-15.205.023h.995l.19.367.426.985.923 2.085.332.734.07.16v.069l-.97.023-.095-.046-.237-.573-.166-.435-1.99-.023-.07.229-.26.71-.072.115-.07.023-.9-.023.07-.23.38-.893.402-.94.26-.595.38-.871.26-.596.142-.275zm-4.026 0h1.99l.023.023v.71l-1.587.023-.379.046-.237.115-.166.137-.118.207-.095.252-.07.343-.024.344v.39l.047.366.095.275.142.184.142.114.166.069.331.046 1.73.023.023.023v.687l-.024.023-1.729.023-.426-.046-.355-.091-.38-.184-.26-.183-.024-.069h-.047l-.213-.298-.142-.298-.095-.366-.047-.344v-.619l.07-.481.12-.39.189-.343.213-.23.213-.183.379-.183.355-.092.19-.023zm8.715 0h1.99l.024.023v.688l-.024.022-1.445.023-.402.023-.261.092-.213.16-.166.252-.095.298-.047.252-.024.275v.55l.071.39.095.23.095.114v.046l.331.16.356.046 1.705.023.024.023v.687l-.024.023-1.753.023-.402-.046-.356-.091-.402-.184-.308-.252-.213-.298-.166-.367-.095-.435-.024-.206v-.573l.048-.413.118-.435.19-.367.142-.183.213-.206.26-.16.285-.115.284-.069.19-.023zm13.074-.023l.995.023.166.206.355.55.26.39.237.344.095.16h.047l.285-.458.236-.344.26-.39.285-.412.071-.069h1.019l.023.092-.237.32-.544.78-.19.275-.26.366-.38.527-.07.115-.024 1.925-.024.023-.379.023h-.497l-.071-.023-.024-1.948-.687-.985-.686-1.009-.308-.435.047-.046z" fill="#FEFEFE"/><path d="M18.787 11.244h3.434l.26.046.285.137.166.16.118.253.024.229-.048.252-.142.206-.19.16-.284.115-3.244.023h-.38v-1.581z" fill="#FCD312"/><path d="M21.534 16.056h.521l.427.046.236.092.166.183.071.183v.39l-.118.23-.19.137-.26.091-.26.023h-1.185V16.08l.592-.023z" fill="#1D4C9A"/><path d="M11.279 16.217l.071.023.237.618.379.94.024.092h-1.35l.023-.138.308-.78.284-.71.024-.045zm15.158 0l.07.023.261.687.38.94v.023h-1.35l.023-.115.355-.917.237-.596.024-.045z" fill="#1E4D9B"/><path d="M35 .5H3A2.5 2.5 0 00.5 3v18A2.5 2.5 0 003 23.5h32a2.5 2.5 0 002.5-2.5V3A2.5 2.5 0 0035 .5z" stroke="#000" stroke-opacity=".07"/></g><defs><clipPath id="pi-cacpaywallet-clip"><path fill="#fff" d="M0 0h38v24H0z"/></clipPath></defs></svg>