<svg width="38" height="24" viewBox="0 0 38 24" fill="none" xmlns="http://www.w3.org/2000/svg" role="img" aria-labelledby="pi-capitalone"><title id="pi-capitalone">Capital One</title><g clip-path="url(#pi-capitalone-clip0_10420_219297)"><path opacity=".07" d="M35 0H3C1.3 0 0 1.3 0 3v18c0 1.7 1.4 3 3 3h32c1.7 0 3-1.3 3-3V3c0-1.7-1.4-3-3-3z" fill="#000"/><path d="M35 1c1.1 0 2 .9 2 2v18c0 1.1-.9 2-2 2H3c-1.1 0-2-.9-2-2V3c0-1.1.9-2 2-2h32z" fill="#fff"/><path d="M24.004 14.244h-.007c-1.192.844-2.599 1.728-4.12 2.66l-.06.033a.046.046 0 00-.028.051.047.047 0 00.082.023l.047-.027c1.293-.67 2.773-1.467 4.26-2.291l.027-.013a1.658 1.658 0 01-.201-.436zm7.824-6.337c-1.876-2.07-13.973-.207-19.111.918l-.12.027a.054.054 0 00-.041.053c0 .006.003.012.006.017a.04.04 0 00.048.017l.12-.02c4.26-.757 13.123-1.809 15.025.08.583.576.449 1.32-.228 2.197.374.244.638.624.737 1.059 2.633-1.749 4.401-3.423 3.564-4.348z" fill="#CC2427"/><path d="M13.91 12.623a.697.697 0 00-.41.134.63.63 0 00-.22.402c-.04.207-.02.348.06.442a.475.475 0 00.355.134.685.685 0 00.295-.06.543.543 0 00.22-.188.835.835 0 00.128-.308c.033-.188.007-.322-.08-.415a.45.45 0 00-.349-.141zm-2.084 2.599l.556-3.135h1.005l-.08.402a.952.952 0 01.421-.301 1.81 1.81 0 01.65-.134c.261 0 .422.013.616.114a.83.83 0 01.402.442c.08.202.098.423.054.636a1.386 1.386 0 01-.563.918c-.308.22-.583.281-.978.281a1.365 1.365 0 01-.355-.04.81.81 0 01-.228-.087 1.042 1.042 0 01-.187-.174l-.188 1.078h-1.125zm11.595-.81h-1.165l.59-3.256 1.131.027-.556 3.229zm-5.814-2.352l.08-.475 1.192-.255-.127.73h.59l-.114.476h-.57l-.341 1.876h-1.159l.348-1.876h-.435l.087-.469h.449v-.007zm-9.284 1.514c-.313.07-.632.104-.952.1-.542 0-.978-.267-.95-.77.013-.328.408-1.024 1.4-1.024.313-.008.623.076.89.24l.14-.81a2.7 2.7 0 00-1.125-.188c-1.306.014-2.558.603-2.712 1.81-.155 1.205 1.34 1.533 2.002 1.533.382 0 .784-.02 1.153-.053l.154-.838zm12.707-.234l-.195.053-.448.08a.723.723 0 00-.302.095.201.201 0 00-.1.147.147.147 0 00.06.16c.06.04.154.054.288.054.1 0 .199-.013.295-.04a.683.683 0 00.241-.127.341.341 0 00.1-.154c.029-.088.049-.177.06-.268zm1.232-.77c-.006.113-.027.22-.053.388L22 14.13a.214.214 0 00.114.241v.04h-1.2v-.3a2.44 2.44 0 01-.575.247c-.188.048-.382.07-.576.067-.382 0-.603-.04-.757-.174-.154-.134-.228-.228-.221-.416a.636.636 0 01.147-.348.89.89 0 01.315-.22 1.7 1.7 0 01.476-.135c.214-.033.509-.067.904-.1.133-.013.263-.043.388-.088.08-.033.114-.067.128-.133.013-.067-.014-.188-.174-.222-.43-.087-1.233.054-1.648.155l.22-.603a10.84 10.84 0 011.602-.134c.85.006 1.125.254 1.118.562zm-6.846 1.841l.416-2.337h1.145l-.415 2.338h-1.146zm.483-2.873c.033-.194.335-.348.676-.348.342 0 .583.154.55.348-.034.194-.335.348-.677.348s-.583-.16-.55-.348zm-5.172 1.795a.868.868 0 01-.194.054l-.442.08a.724.724 0 00-.308.094.215.215 0 00-.1.154.14.14 0 00.066.154.488.488 0 00.282.06c.1-.002.199-.018.294-.047a.683.683 0 00.242-.127.341.341 0 00.1-.154.987.987 0 00.06-.268zm1.233-.764c-.007.114-.027.215-.054.389l-.207 1.165a.214.214 0 00.114.242v.046h-1.2v-.294a2.69 2.69 0 01-.576.24 2.102 2.102 0 01-.569.075c-.388 0-.61-.04-.757-.175-.147-.133-.234-.227-.228-.422a.643.643 0 01.148-.341.904.904 0 01.315-.228c.154-.065.316-.11.482-.134.208-.033.502-.067.897-.1.134-.004.266-.034.389-.088.087-.033.114-.067.127-.133.014-.067-.013-.188-.174-.222-.429-.08-1.232.054-1.648.161l.221-.61c.53-.083 1.065-.128 1.601-.133.851 0 1.126.248 1.119.562zm16.123.315l.261-.027c.087 0 .161.02.168.101.006.08-.087.402-.107.489l-.181.784c-.067.321-.148.656-.215.924h.456l.255-1.246c.79-.817 1.091-1.085 1.272-1.085a.135.135 0 01.11.039.133.133 0 01.038.108c.006.141-.088.47-.114.563l-.268.904c-.054.208-.1.389-.094.523a.312.312 0 00.301.288c.335 0 .583-.348.79-.69l-.06-.114c-.087.134-.28.435-.442.435-.047 0-.093-.033-.093-.113.005-.126.028-.25.067-.369l.294-1.065c.074-.295.114-.482.114-.583 0-.1-.127-.288-.301-.288-.302 0-.703.221-1.548 1.193h-.013l.107-.476c.06-.261.114-.53.168-.717a7.665 7.665 0 01-.972.275l.007.147zm4.481.027c-.006-.188-.1-.315-.294-.315-.47 0-.965.918-1.052 1.286.764 0 1.366-.455 1.346-.97zm.1 1.44l.088.06c-.228.463-.69.838-1.24.838-.448 0-.81-.295-.83-.85-.04-1.006.904-1.937 1.668-1.937.328 0 .636.148.65.503.027.797-1.092 1.038-1.829 1.051a.959.959 0 00-.027.295c.014.335.215.61.623.61.409 0 .717-.288.898-.57zm-7.897-.65c.02.73.483 1.327 1.085 1.327 1.166 0 1.662-1.434 1.628-2.392-.027-.73-.495-1.326-1.098-1.326-1.005 0-1.655 1.427-1.615 2.391zm-.616-.04c-.047-1.246.931-2.518 2.345-2.518.95 0 1.567.636 1.6 1.6.047 1.313-.864 2.52-2.344 2.52-.951 0-1.567-.63-1.601-1.602z" fill="#013D5B"/></g><defs><clipPath id="pi-capitalone-clip0_10420_219297"><path fill="#fff" d="M0 0h38v24H0z"/></clipPath></defs></svg>