<svg width="38" height="24" viewBox="0 0 38 24" role="img" fill="none" xmlns="http://www.w3.org/2000/svg" aria-labelledby="pi-capitecpay"><title id="pi-capitecpay">Capitec Pay</title><path d="M1 3a2 2 0 012-2h32a2 2 0 012 2v18a2 2 0 01-2 2H3a2 2 0 01-2-2V3z" fill="#fff"/><path d="M0 21V3a3 3 0 013-3v1a2 2 0 00-2 2v18l.01.204A2 2 0 003 23h32l.204-.01A2 2 0 0037 21V3a2 2 0 00-1.796-1.99L35 1V0a3 3 0 013 3v18a3 3 0 01-3 3H3a3 3 0 01-3-3zM35 0v1H3V0h32z" fill="#000" fill-opacity=".07"/><path d="M10.904 9.002H6.46v1.909a1.208 1.208 0 001.21 1.204h2.324a1.553 1.553 0 011.511 1.553v1.808c1.613-.266 2.847-1.67 2.847-3.236 0-1.754-1.552-3.238-3.448-3.238z" fill="#E61414"/><path d="M9.065 12.343H6.75a1.508 1.508 0 01-1.513-1.498V9C3.438 9.103 2 10.545 2 12.234c0 1.755 1.551 3.24 3.448 3.24h4.827v-1.922a1.213 1.213 0 00-1.21-1.209z" fill="#00486D"/><path d="M18.269 14.04c.515 0 .886-.308.886-.823v-.357h-.55v.323c0 .192-.125.322-.327.322-.216 0-.342-.125-.342-.36v-1.763c0-.207.101-.352.337-.352.207 0 .333.13.333.333v.322h.549v-.38c0-.501-.376-.8-.882-.8-.539 0-.953.313-.953.862v1.81c0 .579.395.863.949.863zm1.753 0c.144 0 .385-.077.482-.308h.014c.01.14.024.24.024.26h.52c0-.063-.024-.385-.024-.592v-1.344c0-.428-.294-.684-.751-.684-.462 0-.775.26-.775.655v.227h.515v-.217c0-.12.062-.212.221-.212.154 0 .227.087.227.212v.39h-.15c-.467.01-.866.299-.866.838 0 .544.255.775.563.775zm.212-.443c-.125 0-.207-.115-.207-.4 0-.293.14-.423.313-.423h.135v.53c0 .163-.116.293-.241.293zm1.233 1.17h.568v-.948h.005a.525.525 0 00.434.221c.385 0 .601-.27.601-.607V11.99c0-.337-.159-.612-.549-.612a.601.601 0 00-.496.294h-.01v-.24h-.553v3.336zm.824-1.18c-.14 0-.256-.11-.256-.298v-1.122c0-.217.111-.332.256-.332.144 0 .221.096.221.245v1.257c0 .169-.091.25-.221.25zm1.189.405h.569V11.43h-.569v2.562zm0-2.9h.569v-.62h-.569v.62zm1.681 2.933c.12 0 .265-.019.38-.062v-.453a.876.876 0 01-.207.024c-.105 0-.144-.053-.144-.159v-1.483h.366v-.443h-.366v-.582h-.563v.582h-.236v.443h.236v1.652c0 .342.24.481.534.481zm1.503.02c.27 0 .496-.058.693-.154l-.105-.41a1.49 1.49 0 01-.477.102c-.231 0-.361-.126-.361-.366v-.309h.972v-.79c0-.447-.27-.746-.736-.746-.448 0-.8.29-.8.8v1.112c0 .51.337.76.814.76zm-.25-1.541v-.41c0-.139.072-.269.235-.269.17 0 .232.125.232.265v.414h-.467zm2.104 1.536c.458 0 .752-.236.752-.66v-.23h-.506v.201c0 .111-.053.236-.226.236-.169 0-.236-.125-.236-.279v-1.204c0-.149.072-.27.236-.27.159 0 .226.107.226.232v.202h.506v-.24c0-.376-.285-.656-.742-.656-.433 0-.795.27-.795.77v1.152c0 .49.333.746.785.746zm1.836-.048h.606v-1.286h.337c.593 0 .853-.424.853-1.112 0-.655-.265-1.036-.828-1.036h-.968v3.434zm.606-1.787v-1.141h.26c.241 0 .338.193.338.544 0 .4-.116.597-.347.597h-.25zm2.057 1.835c.144 0 .385-.077.482-.308h.014c.01.14.024.24.024.26h.52c0-.063-.024-.385-.024-.592v-1.344c0-.428-.294-.684-.751-.684-.462 0-.775.26-.775.655v.227h.515v-.217c0-.12.063-.212.221-.212.154 0 .227.087.227.212v.39h-.15c-.467.01-.866.299-.866.838 0 .544.255.775.563.775zm.212-.443c-.125 0-.207-.115-.207-.4 0-.293.14-.423.313-.423h.135v.53c0 .163-.116.293-.241.293zm1.508 1.218c.337 0 .544-.212.654-.66l.617-2.725h-.515l-.28 1.613H35.2l-.328-1.613h-.587l.64 2.538-.053.23c-.033.117-.1.16-.202.16-.057 0-.125-.015-.202-.029l-.058.448c.097.024.197.038.328.038z" fill="#00466E"/></svg>