<svg xmlns="http://www.w3.org/2000/svg" role="img" viewBox="0 0 38 24" width="38" height="24" aria-labelledby="pi-careempay"><title id="pi-careempay">Careem Pay</title><path fill="#000" opacity=".07" d="M35 0H3C1.3 0 0 1.3 0 3v18c0 1.7 1.4 3 3 3h32c1.7 0 3-1.3 3-3V3c0-1.7-1.4-3-3-3z"/><path fill="#fff" d="M35 1c1.1 0 2 .9 2 2v18c0 1.1-.9 2-2 2H3c-1.1 0-2-.9-2-2V3c0-1.1.9-2 2-2h32"/><path d="M20.917 9.528c1.69 0 2.444.916 2.444 1.996 0 1.06-.896 1.996-2.302 1.996h-1.344v2.282h-1.202V9.528h2.404zm.122 2.994c.611 0 1.1-.428 1.1-.957 0-.611-.489-.957-1.1-.957h-1.324v1.914h1.324zM26.742 12.97c0-.631-.244-.998-.937-.998-.57 0-.855.326-.977.713l-1.06-.264c.204-.754.937-1.386 2.119-1.386 1.018 0 2.017.428 2.017 2.16v2.627h-1.06v-.835c-.285.489-.774.917-1.568.917-1.06 0-1.63-.632-1.63-1.467-.02-1.283 1.283-1.61 3.096-1.466zm-1.181 1.976c.53-.02 1.1-.61 1.202-1.242-.937-.143-1.976.06-1.976.672-.02.387.265.59.774.57zM28.046 11.096h1.263l1.08 3.036 1.08-3.036h1.263l-1.854 4.522c-.652 1.61-1.182 2.241-2.017 2.241-.244 0-.509-.04-.631-.06l-.143-1.06c1.019.163 1.202-.285 1.61-1.222l-1.65-4.42zM12.85 8h-2.159a3.517 3.517 0 00-3.503 3.504v2.159a3.517 3.517 0 003.503 3.504h2.16a3.517 3.517 0 003.503-3.504v-2.16C16.334 9.59 14.765 8 12.851 8zm-2.362 1.65c.509 0 .916.407.916.917 0 .509-.407.916-.916.916a.913.913 0 01-.917-.916c.02-.51.428-.917.917-.917zm1.588 6.213a3.277 3.277 0 01-3.28-3.28v-.203h1.447c0 .06-.02.142-.02.203 0 1.019.835 1.834 1.833 1.834.55 0 1.06-.245 1.406-.652l1.08.937a3.176 3.176 0 01-2.466 1.16zm1.549-4.278a1.77 1.77 0 00-1.304-.815l.367-1.385a3.229 3.229 0 012.037 1.304l-1.1.896z" fill="#001942"/></svg>