<svg xmlns="http://www.w3.org/2000/svg" width="38" height="24" viewBox="0 0 38 24" version="1.1" role="img" aria-labelledby="pi-cartebleue" fill="none"><title id="pi-cartebleue">Carte Bleue</title><rect width="38" height="24" rx="2" fill="#fff"/><rect x=".5" y=".5" width="37" height="23" rx="1.5" stroke="#000" stroke-opacity=".07"/><path d="M4.495 7.325c0-1 .81-1.81 1.81-1.81h23.183c.955 0 1.73.774 1.73 1.73v7.205a1.73 1.73 0 01-1.73 1.73H6.225a1.73 1.73 0 01-1.73-1.73V7.325z" fill="#1D4484"/><path fill-rule="evenodd" clip-rule="evenodd" d="M8.049 16.184v.04c.064.52-.11.874.144 1.493.033.077.049.105.093.181.41.692.95.733 1.666.733h21.476c.426 0 .615.004.941-.133.069-.028.117-.06.173-.097.246-.148.246-.2.354-.33.439-.523.362-1.098.362-1.915 0-.688.065-1.046-.29-1.613a1.511 1.511 0 00-.394-.406c-.406-.314-.909-.23-1.34-.254.037.479.02 1.042-.164 1.437-.491 1.034-1.445.86-2.33.86H11.22c-1.034.009-2.149.045-3.17.005z" fill="#B3DBF4"/><path fill-rule="evenodd" clip-rule="evenodd" d="M8.049 16.184c1.025.045 2.14.005 3.174.005h17.513c.885 0 1.839.172 2.33-.861.189-.399.205-.958.165-1.437-.45.049-1.127.008-1.602.008H12.116c-.656 0-2.615-.084-3.078.109a1.653 1.653 0 00-.82.772c-.218.451-.17.87-.17 1.405z" fill="#6BBCE9"/><path fill-rule="evenodd" clip-rule="evenodd" d="M7.863 6.87v4.499c.387.02 2.628.02 2.93-.025 1.03-.152 1.576-1.174 1.106-2.1-.049-.096-.282-.297-.387-.35.069-.201.375-.35.274-1.154-.133-.27-.06-.314-.29-.58l-.04-.068c-.113-.049-.177-.117-.314-.177-.454-.185-1.56-.121-2.136-.121-.266 0-.628.02-.881-.004l-.246-.004-.016.084zm2.012 1.642H8.769l.004-.8c.502 0 1.589-.069 2 .068.051.076.112.12.128.257a.502.502 0 01-.012.19c-.097.382-.728.285-1.014.285zm-1.09 1.983L8.773 9.43H10.2c.466 0 .95-.012.933.527-.016.543-.563.54-.909.54h-1.44zm9.209-2.804h2.209l-.004-.885c-.974 0-2.459-.028-3.372.004v2.824c0 .402-.068.978.14 1.276.19.27.484.45.954.45h2.27l-.005-.808h-2.192c-.008-.234-.024-.95.008-1.131h2.184v-.793H17.99l.004-.937zm9.403 1.754c.028-.024-.008-.032.12-.036l2.077.004v-.768c-.029 0-2.165.02-2.185-.02-.004-.008-.012-.008-.016-.012l.004-.922 2.213-.004-.012-.88-3.36.003c-.036.201-.008.744-.008.982 0 .551-.04 2.683.048 2.933.234.644.882.636 1.364.636.338 0 1.738.044 1.956-.017v-.78c-.17-.04-1.851-.004-2.205-.016l.004-1.103zm-6.309-2.639c0 .664-.052 2.8.072 3.303.222.893.978 1.316 2.048 1.316 1.075 0 1.83-.415 2.048-1.312.12-.499.069-2.623.069-3.279l-1.043.008V9.24c0 .374.06.8-.169 1.034-.205.21-.579.246-.933.242-1.066-.008-1.046-.363-1.046-1.324V6.814l-1.046-.008zm-8.204 1.433l.005.804v1.424l.052.31c.024.032.052.093.084.141.322.475.777.45 1.264.45.595 0 1.36.04 1.935-.003v-.833c-.41-.044-1.054-.008-1.489-.008-.792 0-.684-.024-.684-.797 0-.398.028-2.74-.008-2.925H12.91c-.06.157-.02 1.187-.025 1.437z" fill="#fff"/><mask id="pi-cartebleue-mask" style="mask-type:luminance" maskUnits="userSpaceOnUse" x="4" y="5" width="9" height="6"><path d="M12.888 9.506v-.463l-.004-.804a4.198 4.198 0 01-.242-.35 6.458 6.458 0 00-.708-.861c-.16-.145-.298-.33-.475-.46l-.362-.297a10.64 10.64 0 00-1.21-.752c-.262.032-.697.004-.978.004h-.974c-.752 0-1.867-.145-2.539.221-.338.185-.635.588-.752.95l-.08.338.04.092c.076.032.064-.153.064-.185-.04.036-.016.14-.016.221.097-.028.06.02.093-.072l.004.177c.068-.032.096.012.072-.08.008.225-.008.06.064.128.008-.084.053-.173.008-.221l.012.294c.085-.028.057-.008.089-.077l.012.1c.08-.084.072-.116.052-.051.037.044.02.008.024.104.065-.06.025.04.065-.1l.012.124.072-.056.004.125c.008-.004.016-.016.02-.012.005.004.017-.008.017-.008.076-.025.004-.037.072.04l.044-.117.024.221c.049-.052.008.008.037-.064l.04-.253c-.032.064.012.24.04.305l.012.024c-.008-.217.133-.27.14-.414.077-.048-.031-.105.025-.169.052-.064.068-.068.117-.105a.649.649 0 01.306-.108c.27-.016.7.165.744.463l-.326-.005c-.016-.321-.752-.354-.692.29.02.201.137.35.334.37.257.028.326-.1.39-.29h.302c-.004.125-.064.218-.097.314.06.202.029.097.153.19l.012.076c.097-.052.04.02.073-.1.02.04-.004.096.096.028l.049.072c.068-.109.064-.04.104-.217-.04.157.028.08.052.104.02-.048.033-.032.017-.104 0 .016 0 .048.004.06.02.052.012.032.036.064.036-.044.04-.028.048-.173-.036.141.068.101.077.105l.016.213c.028-.028.052-.048.072-.12.012-.049.008-.073-.004-.101 0 .04 0 .097.004.133.004.028.004.044.012.072.016.057.004.032.028.065.004-.008.008-.025.012-.02l.033-.202c-.005.028.016.137.02.21.004 0 .012-.009.012-.005.016.049.032-.108.056.009.012.06.008.18.012.249.004-.004.008-.024.012-.02l.02-.04c.036-.105.012-.198.053-.266V6.871l.012-.069.245.004c.258.024.616.004.881.004.575 0 1.682-.068 2.136.121.234.097.375.274.483.463.077.137.125.261.141.438.073.737-.189.881-.253 1.074.132.085.257.206.346.334.18.27.189.592.173.922-.008.149.004.261-.012.406.064-.028.048-.02.068-.076l.02.084c0-.004.008.012.012.016l.02-.032c.04-.048.024-.028.04-.008a.743.743 0 01.037.113c.08-.032.072.016.116-.17l.005.178c.068-.028.048-.02.072-.077l.052.069c.028-.037 0-.057.032-.02.024.028.016.076.02.124.005-.004.008-.016.012-.02l.037-.104.064.1c.012-.056.02-.088.032-.153l.008.173c.069-.028.049-.02.073-.076 0 .036 0 .032.008.064l.052-.012c.04-.036.032.028.069.165l.076-.125-.052-.31v-.965zM10.77 7.78c-.41-.133-1.496-.068-2-.068l-.003.8h1.106c.286 0 .917.097 1.014-.281a.502.502 0 00.012-.19c-.016-.14-.076-.18-.129-.261z" fill="#fff"/></mask><g mask="url(#pi-cartebleue-mask)"><path d="M12.94 5.382H4.563v5.524h8.377V5.382z" fill="url(#pi-cartebleue-linear_gradient)"/></g><path fill-rule="evenodd" clip-rule="evenodd" d="M6.585 11.006c.378-.169.277-.684-.274-.684l-.72.004v1.304l.322.004-.004-.511h.281c.463 0 .161.37.374.515h.274c-.117-.406.06-.378-.253-.632zm-.664-.458h.293c.214 0 .379.14.23.31-.085.096-.374.06-.52.06l-.007-.089.004-.281zm.836 4.433v-.213l-.789-.012a.654.654 0 01.008-.33h.692v-.205l-.712-.012.008-.294h.769v-.221H5.654v1.291l1.103-.004zM5.764 9.94c.08-.049.12-.197.14-.294l.556.004.1.29h.34l-.532-1.312c-.338-.004-.33-.036-.406.153-.109.282-.43.982-.475 1.159h.278zm.434-.966l.17.455h-.37l.2-.455zm-.66-1.287c.052.278.213.463.466.535.141.04.322.044.471.004a.568.568 0 00.41-.507h-.301c-.065.19-.133.318-.39.29-.198-.02-.314-.17-.334-.37-.065-.644.672-.612.692-.29l.326.004c-.06-.378-.407-.479-.745-.463a.649.649 0 00-.306.11c-.237.153-.297.426-.29.688zm.061 4.583l.434.003.004 1.07.318-.008V12.27h.435v-.241l-1.191.004v.237z" fill="#fff"/><defs><linearGradient id="pi-cartebleue-linear_gradient" x1="4.562" y1="8.143" x2="12.939" y2="8.143" gradientUnits="userSpaceOnUse"><stop stop-color="#3C8FCE"/><stop offset="1" stop-color="#8BC8EE"/></linearGradient></defs></svg>