<svg xmlns="http://www.w3.org/2000/svg" role="img" viewBox="0 0 38 24" width="38" height="24" aria-labelledby="pi-cashinvoicelatinamerica"><title id="pi-cashinvoicelatinamerica">Cash/Invoice Latin America</title><g clip-path="url(#pi-cashinvoicelatinamerica-clip0_24_47)"><path d="M35 .001H3c-1.7 0-3 1.3-3 3v18C0 22.7 1.4 24 3 24h32c1.7 0 3-1.3 3-3V3c0-1.7-1.4-3-3-3v.001z" fill="#000" fill-opacity=".07"/><path d="M35 1c1.1 0 2.001.9 2.001 2v18a2.006 2.006 0 01-2 2H3A2.007 2.007 0 011 21V3c0-1.1.9-2 2.001-2h32z" fill="#fff"/><path d="M14.39 19.378V5.11c0-.06-.048-.109-.108-.109h-4.174a.109.109 0 00-.108.11v14.268c0 .06.049.11.108.11h4.174c.06 0 .108-.05.108-.11z" fill="#086981"/><path d="M12.854 17.979V6.508c0-.106-.079-.192-.175-.192h-1.187c-.097 0-.175.086-.175.192v11.47c0 .106.078.192.175.192h1.187c.096 0 .175-.086.175-.192z" fill="#fff"/><path d="M27.908 7.48l-16.81-.065.092 9.373 16.81.066-.092-9.374z" fill="#29CFD4"/><path d="M19.312 8.512c.174-.001.315.18.316.403l.03 6.433c.002.224-.138.407-.312.408-.173.001-.315-.18-.316-.403L19 8.92c-.001-.224.139-.406.312-.408zM17.66 8.512c.232-.001.42.18.422.403l.04 6.433a.412.412 0 01-.416.408.413.413 0 01-.422-.403l-.04-6.433a.412.412 0 01.416-.408zM15.904 8.512c.231-.001.42.18.422.403l.04 6.433a.412.412 0 01-.416.408.413.413 0 01-.422-.403l-.04-6.433a.412.412 0 01.416-.408zM14.367 8.512c.232-.001.42.18.422.403l.04 6.433a.412.412 0 01-.416.408.413.413 0 01-.421-.403l-.04-6.433a.412.412 0 01.415-.408z" fill="#fff" fill-opacity=".9"/><path d="M24.302 11.81c-.202-.106-.416-.188-.628-.272a1.466 1.466 0 01-.345-.185c-.206-.156-.17-.405.067-.501a.622.622 0 01.21-.039c.275-.011.538.039.79.155.125.058.166.04.206-.082.043-.13.078-.26.117-.39.026-.088-.008-.146-.096-.184a2.134 2.134 0 00-.5-.145c-.226-.035-.226-.036-.23-.25-.005-.303-.005-.303-.325-.306-.046 0-.093-.002-.14-.001-.149.002-.174.027-.176.17-.001.064.002.127.002.192.001.19 0 .187-.19.25-.463.156-.745.452-.77.93-.021.424.217.713.587.925.229.13.48.209.722.311.095.04.185.086.263.149.234.182.196.482-.077.593a.898.898 0 01-.46.053 2.18 2.18 0 01-.704-.205c-.13-.065-.169-.049-.211.083-.037.115-.069.23-.101.345-.043.156-.026.193.132.267.202.094.416.142.635.177.171.028.177.035.18.202.003.076.004.153.006.229.002.095.052.152.156.155.118.003.237.004.355.002.097-.001.146-.05.145-.143-.002-.104.002-.209-.003-.312-.007-.106.04-.16.148-.186.247-.062.456-.186.616-.372.444-.514.262-1.274-.381-1.614z" fill="#fff"/></g><defs><clipPath id="pi-cashinvoicelatinamerica-clip0_24_47"><path fill="#fff" d="M0 0h38v24H0z"/></clipPath></defs></svg>