<svg width="38" height="24" viewBox="0 0 38 24" role="img" fill="none" xmlns="http://www.w3.org/2000/svg" aria-labelledby="pi-catchpayments"><title id="pi-catchpayments">Catch</title><g clip-path="url(#pi-catchpayments-clip0_4028_62474)"><path opacity=".07" d="M35 0H3C1.3 0 0 1.3 0 3v18c0 1.7 1.4 3 3 3h32c1.7 0 3-1.3 3-3V3c0-1.7-1.4-3-3-3z" fill="#000"/><path d="M35 1c1.1 0 2 .9 2 2v18c0 1.1-.9 2-2 2H3c-1.1 0-2-.9-2-2V3c0-1.1.9-2 2-2h32z" fill="#fff"/><path d="M15.68 14.774c-.76 0-1.4-.25-1.921-.748-.522-.499-.782-1.151-.782-1.958 0-.802.263-1.455.79-1.958a2.666 2.666 0 011.899-.756c.675 0 1.216.169 1.624.506.412.338.678.744.797 1.218l-.969.3a1.397 1.397 0 00-.469-.74c-.238-.206-.566-.308-.983-.308-.432 0-.812.151-1.14.454-.323.304-.484.731-.484 1.284 0 .528.159.946.477 1.254.322.308.71.462 1.162.462.412 0 .74-.105.983-.315.248-.21.415-.46.499-.748l.961.286a2.5 2.5 0 01-.738 1.18 2.183 2.183 0 01-.737.426 2.79 2.79 0 01-.968.161zm2.898-1.093c0-.308.102-.555.306-.74.203-.186.467-.304.79-.352l.9-.132c.184-.025.276-.11.276-.257a.414.414 0 00-.164-.337c-.104-.088-.255-.133-.454-.133-.209 0-.375.057-.499.17a.633.633 0 00-.201.417l-.88-.183c.036-.313.192-.59.47-.829.278-.24.646-.36 1.103-.36.546 0 .948.13 1.206.39.259.254.388.581.388.982v1.775c0 .215.015.406.044.572h-.908a2.004 2.004 0 01-.037-.433c-.234.357-.594.536-1.08.536-.378 0-.684-.108-.917-.323a1.014 1.014 0 01-.343-.763zm1.468.36a.853.853 0 00.573-.191c.154-.132.231-.347.231-.645v-.162l-.827.125c-.302.044-.454.196-.454.455 0 .117.042.217.127.3a.495.495 0 00.35.118zm3.971-4.063v1.078h.738v.865h-.738v1.511c0 .152.035.26.105.323.07.063.178.095.327.095.134 0 .236-.01.306-.03v.807c-.144.06-.33.088-.559.088-.358 0-.64-.097-.85-.293-.208-.2-.312-.474-.312-.821v-1.68h-.663v-.865h.186c.184 0 .323-.052.417-.154a.592.592 0 00.15-.418v-.506h.893zm3.189 1.87a.895.895 0 00-.663.271c-.178.181-.268.428-.268.74 0 .314.09.563.268.749a.92.92 0 00.67.271c.234 0 .42-.058.56-.176a.919.919 0 00.282-.432l.872.286c-.09.332-.283.618-.581.858s-.675.36-1.132.36c-.546 0-1.006-.182-1.378-.544-.368-.366-.552-.823-.552-1.371 0-.553.182-1.01.544-1.371a1.86 1.86 0 011.356-.543c.467 0 .85.12 1.147.36.298.234.49.52.574.857l-.887.294c-.119-.406-.39-.61-.812-.61zm3.44.697v2.12h-.99v-5.31h.99v2.002c.224-.265.554-.397.991-.397.447 0 .785.135 1.013.404.234.264.35.606.35 1.027v2.273h-.99V12.56c0-.215-.057-.388-.172-.52-.109-.133-.278-.198-.506-.198a.643.643 0 00-.492.198.786.786 0 00-.194.506z" fill="#232639"/><path d="M5.645 7.658c.977.39 4.127 1.744 4.618 3.16.309.892-.245 2.42-.83 3.656a4.302 4.302 0 00-.31-1.825c-.34-.879-.928-1.698-1.616-2.366-.616-.636-1.472-1.215-2.056-1.61l-.233-.158a.492.492 0 01-.08-.75.468.468 0 01.507-.107z" fill="#6B27DD"/><path d="M8.292 11.688c.147 1.096-.316 2.777-.588 3.763l-.075.274a.516.516 0 00.415.644.49.49 0 00.501-.23c.07-.119.157-.27.256-.447.471-.95.419-1.975.044-2.941a5.739 5.739 0 00-.553-1.063z" fill="#E1309C"/></g><defs><clipPath id="pi-catchpayments-clip0_4028_62474"><path fill="#fff" d="M0 0h38v24H0z"/></clipPath></defs></svg>
