<svg xmlns="http://www.w3.org/2000/svg" role="img" viewBox="0 0 38 24" fill="none" width="38" height="24" aria-labelledby="pi-cbc"><title id="pi-cbc">CBC</title><rect x="1" y="1" width="36" height="22" rx="2" fill="#fff"/><rect x=".5" y=".5" width="37" height="23" rx="2.5" stroke="#000" stroke-opacity=".07"/>&quot;/&gt;<path fill-rule="evenodd" clip-rule="evenodd" d="M19.047 5.019a3.091 3.091 0 11.114 6.18 3.091 3.091 0 01-.114-6.18z" fill="#009fe4"/><path fill-rule="evenodd" clip-rule="evenodd" d="M21.384 10.61a4.062 4.062 0 01-2.96 1.277 4.102 4.102 0 01-2.49-.849 71.189 71.189 0 00-5.883.856v1.367l17.9-.002v-2.817s-3.066-.02-6.567.168z" fill="#009fe4"/><path fill-rule="evenodd" clip-rule="evenodd" d="M27.952 18.737a6.386 6.386 0 01-1.752.244c-2.104 0-3.648-.598-3.648-2.337 0-1.572 1.497-2.255 3.543-2.255.57 0 1.292.063 1.857.244v1.522a2.586 2.586 0 00-1.438-.412c-.78 0-1.561.385-1.561.943 0 .559.777.942 1.56.942.59 0 1.02-.163 1.438-.405v1.514zm-12.504 0a6.386 6.386 0 01-1.751.244c-2.104 0-3.649-.598-3.649-2.337 0-1.572 1.497-2.255 3.544-2.255.568 0 1.29.063 1.856.244v1.522a2.586 2.586 0 00-1.438-.412c-.78 0-1.56.385-1.56.943 0 .559.776.942 1.56.942.59 0 1.019-.163 1.437-.405l.001 1.514zm.891-4.246h4.299c1.116 0 1.482.435 1.482 1.11 0 .757-.676 1.086-1.37 1.123v.013c.713.056 1.408.136 1.408 1.03 0 .583-.366 1.153-1.595 1.153H16.34v-4.429zm2.127 3.529h1.108c.416 0 .558-.172.558-.426 0-.255-.143-.437-.553-.437h-1.113v.863zm0-1.652h1.059c.41 0 .57-.165.57-.42 0-.291-.162-.437-.54-.437h-1.09v.857z" fill="#003664"/></svg>