<svg width="38" height="24" viewBox="0 0 38 24" fill="none" role="img" xmlns="http://www.w3.org/2000/svg" aria-labelledby="pi-cebuana"><title id="pi-cebuana">Cebuana</title><path fill="#000" opacity=".07" d="M35 0H3C1.3 0 0 1.3 0 3v18c0 1.7 1.4 3 3 3h32c1.7 0 3-1.3 3-3V3c0-1.7-1.4-3-3-3z"/><path fill="#133B63" d="M35 1c1.1 0 2 .9 2 2v18c0 1.1-.9 2-2 2H3c-1.1 0-2-.9-2-2V3c0-1.1.9-2 2-2h32"/><path d="M4.877 6.975c-.412.053-.792.197-1.096.475-.075.069-.31.294-.174.397.133.1.543.03.708.03h1.447c.204 0 .47.044.668-.008.298-.077-.142-.457-.24-.527-.366-.264-.848-.427-1.313-.367Zm.027 1.294c-.68.084-1.282.229-1.849.617-.362.248-.685.58-.91.945-1.159 1.872-.097 4.406 2.196 4.866a3.39 3.39 0 0 0 1.045.063c.362-.041.707-.096 1.046-.232a3.444 3.444 0 0 0 1.443-1.07c.112-.144.363-.421.18-.6-.089-.086-.264-.074-.354.003-.42.357-.671.729-1.216.957-1.097.459-2.371.084-3.1-.79-1.448-1.736.252-4.36 2.537-3.968a2.756 2.756 0 0 1 1.448.745c.146.14.332.486.587.38.153-.063.156-.23.09-.354-.132-.253-.354-.492-.57-.683-.65-.574-1.667-.992-2.573-.88ZM27.2 10.186c.337.283.602.706.885 1.04.523.62 1.07 1.224 1.615 1.827.195.216.4.423.601.634.103.107.237.243.407.224.113-.013.128-.136.134-.224.02-.251.003-.51.003-.761 0-.988.077-1.959.135-2.943.007-.114.02-.264.113-.347.113-.1.433-.047.299-.304-.056-.108-.288-.035-.386-.034-.34.004-.74-.066-1.07-.021-.115.015-.15.179-.082.26.096.114.364.015.498.15.254.256.123.91.147 1.235.038.53.024 1.065.024 1.598-.46-.5-.882-1.033-1.323-1.547a156.34 156.34 0 0 0-.921-1.066c-.153-.175-.326-.479-.543-.583-.24-.115-.725-.026-.991-.026-.17 0-.654-.12-.641.127.008.175.246.132.373.183.179.072.295.234.362.4.109.268.067.582.067.863 0 .61-.054 1.218-.054 1.827 0 .225.005.749-.268.847-.087.031-.204.018-.295.019-.122.001-.286.02-.402-.023-.334-.12-.429-.588-.54-.869-.33-.823-.586-1.676-.88-2.511-.124-.353-.22-.763-.402-1.091-.216.069-.396.226-.617.303-.085.03-.244.046-.302.117-.058.07.025.183.011.265-.035.214-.157.432-.236.634-.312.8-.63 1.6-.985 2.385-.116.259-.228.583-.497.735-.115.065-.29.005-.386.077-.062.047-.063.206 0 .253.082.06.263.002.359 0 .336-.003.683-.02 1.018.003.117.007.343.082.371-.08.058-.334-.48-.09-.561-.405-.07-.271.163-.684.253-.938.034-.097.058-.248.158-.304.096-.055.261-.026.369-.026.3 0 .64-.043.936.003.141.023.155.168.19.276.083.253.168.506.244.761.029.095.097.23.06.328-.062.166-.26.048-.369.13-.062.046-.062.205 0 .252.129.096.619 0 .788 0h2.197c.217 0 .428.003.643.021.08.007.18.012.206-.075.09-.287-.234-.184-.393-.262-.145-.07-.205-.224-.23-.369-.163-.96-.092-1.996-.092-2.968Zm3.832 3.679c.428-.001.857-.028 1.287-.026.114 0 .343.072.44 0 .062-.047.062-.206 0-.253-.167-.124-.428.063-.509-.229-.073-.264.162-.716.258-.964.032-.083.06-.226.144-.278.16-.1.577-.026.765-.026.157 0 .539-.066.648.059.19.217.247.686.329.956.029.097.09.225.076.328-.023.155-.677.123-.393.392.098.093.32.018.44.016.41-.01.821-.001 1.232 0 .113 0 .402.079.481-.016.045-.053.044-.194-.015-.238-.082-.061-.235-.014-.332-.051-.237-.091-.324-.352-.407-.558-.385-.96-.698-1.945-1.04-2.918-.084-.237-.169-.473-.25-.71-.025-.07-.043-.219-.132-.245-.073-.022-.152.056-.208.09-.147.09-.315.16-.482.212-.068.02-.194.032-.222.106-.042.107.035.244-.011.37a37.485 37.485 0 0 1-1.264 3.07c-.088.188-.17.39-.352.516-.275.19-.483-.007-.483.397Zm-20.956-2.258c.56 0 1.035.044 1.18.634l.294-.025c0-.397-.027-.795-.027-1.193 0-.162.031-.364-.211-.326-.143.023-.208.393-.327.5-.222.197-.622.181-.909.181.114-.579.027-1.238.027-1.826.461 0 .962-.057 1.367.191.225.138.428.34.616.52.068.065.161.207.269.21.096.002.155-.077.15-.16-.015-.25-.13-.52-.195-.761-.02-.076-.03-.205-.104-.253-.13-.086-.596 0-.763 0H9.326c-.208 0-.41-.004-.617-.022-.064-.006-.167-.018-.213.036-.05.06-.043.213.034.249.234.109.481-.07.523.294.099.858.005 1.775.005 2.639v.735c0 .102.013.22-.085.29-.129.091-.308-.007-.443.056-.077.036-.084.189-.034.248.066.08.233.023.32.018.31-.02.628-.003.939-.003h1.902c.21 0 .554.087.747.007.197-.082.273-.635.329-.819.022-.073.078-.173.056-.25-.057-.196-.264-.065-.347.022-.493.519-.843.787-1.589.787-.17 0-.38.024-.535-.055-.207-.106-.184-.34-.189-.529-.012-.465-.053-.93-.053-1.395Zm2.707-2.334v.304c.166 0 .429-.05.533.104.174.258.083.746.083 1.038 0 .85.049 1.716-.03 2.562-.035.386-.314.154-.517.305-.068.052-.063.226.02.263.081.037.2-.005.286-.009.214-.008.43 0 .643 0 .669 0 1.345.08 2.01-.024.28-.044.596-.108.802-.308.78-.759.142-2.017-.91-2.104.265-.133.546-.224.737-.457.416-.508.235-1.312-.415-1.546-.525-.19-1.14-.127-1.688-.104-.519.022-1.037-.024-1.554-.024Zm4.1 0c0 .076-.029.224.043.278.136.102.354-.056.458.13.145.257.035.799.035 1.089 0 .552-.039 1.126.038 1.674.058.41.188.822.526 1.109.738.626 2.267.516 2.853-.246.247-.322.3-.684.34-1.066.08-.796-.063-1.618.053-2.41a.285.285 0 0 1 .236-.248c.094-.016.251.028.287-.086.023-.074.016-.192-.076-.216-.135-.036-.336.017-.478.017-.35 0-.698-.025-1.046-.025 0 .074-.024.201.028.264.126.15.368-.006.46.268.191.57.102 1.288.102 1.878 0 .345.039.708-.083 1.04-.285.781-1.57 1.137-2.027.28-.168-.316-.141-.698-.141-1.041 0-.43-.027-.862-.027-1.294 0-.263-.062-.61.022-.862.11-.331.445-.092.594-.27.052-.062.027-.189.027-.263h-2.224Z" fill="#fff"/><path d="M14.418 11.302c.266 0 .567.013.803-.126.415-.244.533-.922.251-1.294-.14-.187-.745-.532-.985-.311-.101.093-.07.341-.07.463v1.268Zm8.977-1.293-.697 1.8h1.287l-.537-1.8h-.053Zm10.022 0a7.681 7.681 0 0 0-.696 1.8h1.286l-.383-1.268-.207-.533Zm-19 1.522v1.014c0 .205-.005.406.027.61.081.512.636.615 1.045.316.583-.427.423-1.58-.268-1.821a2.605 2.605 0 0 0-.803-.12Z" fill="#133B63"/><path d="M16.963 14.727v.152c.27.009.241.202.241.406v.99c0 .133.039.33-.016.454-.043.099-.155.102-.252.104.012.145.1.16.242.148.397-.035.783.004 1.179.004.11 0 .344.042.436-.026.106-.078.138-.385.162-.506.01-.05.025-.163-.063-.152-.14.017-.28.36-.401.445-.166.116-.547.086-.75.087v-1.294c0-.161-.049-.406.016-.556.047-.111.173-.103.278-.104v-.152h-1.072Zm2.144 0v.152c.107 0 .226-.007.275.104.056.127.02.32.02.455v.888c0 .122.03.29-.02.404-.049.11-.168.103-.275.103l.062.137.662-.003.286.003.062-.137c-.332-.01-.232-.358-.242-.583-.004-.093-.063-.24.017-.315.13-.123.69-.048.868-.04.25.01.166.214.162.38-.007.247.082.554-.269.558v.152h1.072v-.152c-.11-.002-.22-.012-.256-.128-.053-.172-.012-.404-.012-.582 0-.35-.054-.745.004-1.091.021-.126.12-.149.237-.152v-.153h-1.018v.152c.352.011.256.587.268.838-.25.03-.498.025-.75.025-.091 0-.234.022-.306-.044-.08-.075-.025-.22-.018-.311.017-.235-.062-.5.27-.508v-.152h-1.099Zm2.868.152c.33.004.268.268.268.508 0 .428-.1 1.01.201 1.37.374.445 1.313.322 1.559-.178.22-.45.06-1.04.118-1.522.024-.193.25-.14.266-.33h-.805v.152c.313.023.25.342.276.559.056.45.118 1.367-.597 1.343-.639-.021-.482-.892-.482-1.293 0-.142-.04-.347.016-.48.047-.114.167-.126.278-.128v-.153c-.233 0-1.076-.117-1.098.152Zm2.599 0c.105 0 .231-.007.279.104.046.109.011.262.017.378a9.46 9.46 0 0 1 0 .889c-.007.143.041.345-.017.479-.044.099-.155.102-.252.104l.062.137.286-.003.688.003.063-.137c-.105 0-.227.003-.275-.104-.06-.132-.02-.339-.02-.48 0-.373-.097-.883.011-1.242.037-.12.144-.126.257-.127-.005-.054-.003-.11-.062-.138-.156-.07-.819-.07-.975 0-.059.027-.058.084-.062.137Zm1.367 1.954c.019.233.282.131.455.127.484-.011.964.025 1.447.025.016-.176.252-.625.027-.71-.113.176-.224.406-.428.503-.17.08-.508.055-.697.055 0-.58-.037-1.172 0-1.75.012-.168.328-.22.301-.298-.023-.07-.136-.057-.194-.058h-.643c-.063 0-.196-.017-.221.058-.03.086.207.122.22.247.04.435.006.86 0 1.294-.002.251.074.504-.267.507Zm2.224-2.106v.152c.27.009.241.202.241.406v.99c0 .133.039.33-.016.454-.043.099-.155.102-.252.104.012.145.1.16.241.148.398-.035.784.002 1.18.004.112 0 .346.042.44-.026.102-.074.135-.39.158-.506.01-.05.025-.163-.064-.152-.138.017-.28.36-.4.445-.167.116-.548.086-.75.087 0-.575-.012-1.15 0-1.725.003-.21.104-.17.259-.244.038-.018.06-.06.032-.097-.047-.064-.194-.04-.265-.04h-.804Zm2.17 0v.152c.107 0 .227-.007.276.104.059.133.02.338.02.48 0 .368.092.864-.012 1.218-.04.133-.156.15-.283.152l.062.137.688-.003.286.003.062-.137c-.099-.001-.208 0-.252-.103-.056-.132-.016-.34-.016-.48 0-.38-.1-.902.009-1.266.03-.102.14-.102.233-.104v-.153h-1.072Zm1.367 0v.152c.13.002.239.02.28.153.109.352.015.85.015 1.218 0 .139.041.348-.016.479-.047.107-.175.103-.279.104.02.248.45.127.644.127.314 0 .625.025.938.025.1 0 .275.031.361-.026.099-.065.172-.369.166-.478-.007-.116-.116-.073-.18-.024-.261.203-.597.55-.99.346-.225-.117-.135-.7-.135-.909.286 0 .462.025.563.305.227-.045.134-.358.134-.533 0-.063.024-.21-.06-.235-.103-.03-.173.194-.24.244-.112.084-.262.067-.397.067v-.863c.235 0 .465-.023.67.105.11.068.31.348.447.325.13-.021-.022-.542-.131-.574-.161-.046-.39-.008-.557-.008h-1.233Zm2.305 2.106.062.137.313-.008.617.023v-.152c-.371-.011-.242-.586-.242-.837.525.055.435.819.859.974.135.049.44.019.588.013.048-.002.117-.015.117-.074 0-.091-.23-.143-.292-.206-.223-.228-.35-.648-.655-.783.126-.06.266-.09.372-.183.296-.26.22-.685-.104-.884-.325-.198-.785-.126-1.153-.126-.117 0-.312-.035-.42.016-.039.018-.06.06-.033.096.107.149.194.097.217.32.042.408 0 .81-.005 1.217-.002.212.051.448-.24.457Z" fill="#EF4139"/><path d="M34.757 15.869c.433-.001.886-.47.521-.854-.096-.102-.416-.237-.5-.056-.058.124-.02.32-.02.453v.457Z" fill="#133B63"/></svg>
