<svg xmlns="http://www.w3.org/2000/svg" width="38" height="24" fill="none" viewBox="0 0 38 24" aria-labelledby="pi-cembrapay" role="img"><title id="pi-cembrapay">CembraPay</title><defs><clipPath id="pi-cembrapay-a"><rect width="38" height="24" rx="0"/></clipPath><clipPath id="pi-cembrapay-b"><rect width="32" height="5.909" x="3" y="9" rx="0"/></clipPath></defs><g clip-path="url(#a)"><path fill="#000" d="M35 0H3C1.3 0 0 1.3 0 3v18c0 1.7 1.4 3 3 3h32c1.7 0 3-1.3 3-3V3c0-1.7-1.4-3-3-3Z" style="opacity:.07000000029802322"/><path fill="#FFF" d="M35 1c1.1 0 2 .9 2 2v18c0 1.1-.9 2-2 2H3c-1.1 0-2-.9-2-2V3c0-1.1.9-2 2-2h32Z"/><g clip-path="url(#b)"><path fill="#BAEC9F" d="M4.315 14.104A.876.876 0 0 1 3 13.344V9.879a.876.876 0 0 1 1.315-.76l3.614 2.087-3.614 2.9v-.001Z"/><path fill="#004D8C" d="M32.771 14.539c.18-.032.323-.077.43-.135a.75.75 0 0 0 .26-.228c.06-.087.131-.212.186-.356h-.13a23.2 23.2 0 0 1-.928-2.717c.11-.022.283-.037.399-.037l.7 2.152c.034.106.074.23.09.347h.022c.022-.117.056-.24.095-.353l.707-2.147c.104 0 .288.01.399.037q-.798 2.346-.94 2.717c-.142.371-.26.573-.453.76-.183.176-.44.285-.77.33a1.47 1.47 0 0 1-.066-.37Zm-2.79-3.27c0-.781-.625-1.17-1.265-1.17-.336 0-.582.025-.965.073v3.648h.435v-1.338h.503c.625 0 1.291-.42 1.291-1.213Zm-.447 0c0 .551-.42.846-.907.846h-.44v-1.628c.215-.021.393-.032.519-.032.404 0 .829.269.829.815Zm2.992 2.194h-.288c-.12 0-.158-.047-.158-.173v-2.004c-.226-.179-.619-.257-.97-.257-.268 0-.478.037-.709.105 0 .12.021.277.053.377.152-.068.414-.115.645-.115.215 0 .456.053.587.126v.76l-.576.027c-.646.026-.976.251-.976.823 0 .504.325.74.792.74.273 0 .52-.074.776-.283h.021c.09.215.273.283.483.283.21 0 .32-.084.32-.288v-.121Zm-.84-.163a1.25 1.25 0 0 1-.687.226c-.31 0-.435-.12-.435-.42 0-.34.126-.471.53-.487l.592-.026v.708ZM7.808 11.15 4.56 9.966a.762.762 0 0 0-1.01.848l.6 3.404a.762.762 0 0 0 1.24.452l2.648-2.222a.762.762 0 0 0-.23-1.3Zm3.592 2.724c-1.071 0-1.645-.656-1.645-1.902 0-1.316.705-1.89 1.59-1.89.344 0 .798.07 1.006.175-.011.207-.06.486-.11.72a2.067 2.067 0 0 0-.852-.185c-.426 0-.765.246-.765 1.175s.262 1.197.798 1.197c.311 0 .677-.115.89-.257.055.218.099.464.115.721-.273.164-.705.246-1.027.246Zm3.556-1.262h-1.574v.033c0 .36.142.535.628.535.252 0 .596-.077.77-.175.066.191.127.464.16.694-.252.114-.684.175-.94.175-.902 0-1.41-.492-1.41-1.443 0-1.006.524-1.52 1.257-1.52.798 0 1.131.51 1.131 1.269 0 .12-.005.3-.022.431Zm-.722-.64c0-.338-.12-.508-.398-.508-.28 0-.449.197-.449.656h.842c.005-.033.005-.12.005-.148Zm4.21 1.847v-1.94c0-.202-.066-.322-.334-.322a.719.719 0 0 0-.443.147v2.115h-.737v-1.934c0-.213-.06-.328-.312-.328a.85.85 0 0 0-.464.147v2.115h-.738v-2.825c.213-.028.503-.044.738-.044v.284h.038c.268-.24.46-.322.727-.322.267 0 .497.093.617.36.279-.284.514-.36.81-.36.48 0 .835.262.835.885v2.022h-.737Zm2.437.055c-.454 0-.885-.11-1.186-.35V9.803c.213-.028.502-.05.738-.05v1.46h.038a.815.815 0 0 1 .667-.301c.579 0 1.038.382 1.038 1.366 0 .983-.476 1.596-1.295 1.596Zm.021-2.318c-.18 0-.355.06-.47.17v1.41c.099.07.257.104.405.104.415 0 .552-.257.552-.897s-.164-.787-.487-.787Zm3.224.154a1.282 1.282 0 0 0-.268-.033.85.85 0 0 0-.53.159v1.983h-.737v-2.825a6.33 6.33 0 0 1 .737-.044v.366h.038c.268-.371.443-.404.624-.404.049 0 .142.01.202.033 0 .256-.028.513-.066.765Zm2.281 2.164c-.245 0-.431-.066-.53-.295h-.032a1.091 1.091 0 0 1-.75.295c-.496 0-.857-.252-.857-.826 0-.628.387-.842 1.07-.868l.449-.017v-.486c-.136-.082-.334-.11-.53-.11-.23 0-.481.05-.645.121a3.65 3.65 0 0 1-.104-.66c.252-.072.525-.116.81-.116.426 0 .89.104 1.174.334v1.7c0 .141.038.19.17.19h.294v.246c0 .378-.224.492-.519.492Zm-.65-1.224-.448.016c-.24.011-.334.077-.334.334 0 .218.093.306.301.306.158 0 .361-.038.48-.131v-.525Z"/></g></g></svg>
