<svg xmlns="http://www.w3.org/2000/svg" viewBox="0 0 38 24" width="38" height="24" fill="none" role="img" aria-labelledby="pi-centrapay"><title id="pi-centrapay">Centrapay</title><g clip-path="url(#a)"><path fill="#FF5C00" d="M1 3a2 2 0 0 1 2-2h32a2 2 0 0 1 2 2v18a2 2 0 0 1-2 2H3a2 2 0 0 1-2-2z"/><path stroke="#000" stroke-opacity=".07" d="M3 .5A2.5 2.5 0 0 0 .5 3v18A2.5 2.5 0 0 0 3 23.5h32a2.5 2.5 0 0 0 2.5-2.5V3A2.5 2.5 0 0 0 35 .5z"/><path fill="#fff" fill-rule="evenodd" d="M19 4h2.13c1.602.128 3.093.816 4.18 1.927C26.397 7.037 27 8.49 27 9.999s-.603 2.96-1.69 4.071-2.578 1.799-4.18 1.927H19v-3.984h-1.995v.016a1.995 1.995 0 0 0-1.994 1.992 1.99 1.99 0 0 0 1.994 1.993H19v3.984h-1.995a6 6 0 0 1-4.246-1.757 5.995 5.995 0 0 1 0-8.483A6 6 0 0 1 17.005 8H19v3.997h2.13c.566 0 1.108-.21 1.507-.586.4-.375.624-.883.624-1.413s-.224-1.04-.624-1.414a2.2 2.2 0 0 0-1.506-.586H19z" clip-rule="evenodd"/></g><defs><clipPath id="pi-centrapay-a"><path fill="#fff" d="M0 0h38v24H0z"/></clipPath></defs></svg>