<svg viewBox="0 0 38 24" xmlns="http://www.w3.org/2000/svg" width="38" height="24" role="img" aria-labelledby="pi-cetelem"><title id="pi-cetelem">Cetelem</title><path d="m35 0h-32a3 3 0 0 0 -3 3v18a3 3 0 0 0 3 3h32a3 3 0 0 0 3-3v-18a3 3 0 0 0 -3-3z" opacity=".07"/><path d="m35 1a2 2 0 0 1 2 2v18a2 2 0 0 1 -2 2h-32a2 2 0 0 1 -2-2v-18a2 2 0 0 1 2-2z" fill="#fff"/><g fill="#3a9044"><path d="m18.54 4.52a5.66 5.66 0 0 0 .46 11.3 5.44 5.44 0 0 0 2.29-.48 5.11 5.11 0 0 0 1.85-1.34 1.06 1.06 0 0 0 -.14-1.36 1.66 1.66 0 0 0 -.31-.23.89.89 0 0 0 -.43-.08 1.1 1.1 0 0 0 -.86.38 3.48 3.48 0 0 1 -2.4.94 3.46 3.46 0 0 1 -3.09-1.87 3.31 3.31 0 0 1 -.4-1.63 3.43 3.43 0 0 1 .57-1.92 4.32 4.32 0 0 1 .83-.88 4.31 4.31 0 0 1 1.2-.58 2.65 2.65 0 0 1 .89-.08 2.7 2.7 0 0 1 .84.07 3.58 3.58 0 0 1 1.65.91 1 1 0 0 0 1.05.33 1.07 1.07 0 0 0 .46-1.83 4.77 4.77 0 0 0 -.44-.39 5.58 5.58 0 0 0 -3.18-1.26h-.47-.38z"/><path d="m14.77 17.56a1 1 0 0 0 -.64.52.71.71 0 0 0 -.1.43.79.79 0 0 0 .08.4 1 1 0 0 0 .43.47c.25.12.3.12 4.35.11h3.87l.17-.08a1 1 0 0 0 .27-1.62c-.31-.28.09-.25-4.38-.26h-4.05z"/></g></svg>
