<svg width="38" height="24" viewBox="0 0 38 24" fill="none" xmlns="http://www.w3.org/2000/svg" role="img" aria-labelledby="pi-charlesschwab"><title id="pi-charlesschwab">Charles Schwab</title><g clip-path="url(#pi-charlesschwab-clip0_10420_219303)"><path opacity=".07" d="M35 0H3C1.3 0 0 1.3 0 3v18c0 1.7 1.4 3 3 3h32c1.7 0 3-1.3 3-3V3c0-1.7-1.4-3-3-3z" fill="#000"/><path d="M35 1c1.1 0 2 .9 2 2v18c0 1.1-.9 2-2 2H3c-1.1 0-2-.9-2-2V3c0-1.1.9-2 2-2h32z" fill="#fff"/><path d="M29.326 11.19c0 .672-.817 1.277-1.456 1.277-.425 0-.795-.303-.795-.482 0-.112.034-.437.19-.437.113 0 .213.09.325.19.157.146.348.314.628.314s.57-.19.57-.504c0-.19-.145-.37-.302-.582-.201-.258-.436-.56-.436-.941 0-.694.694-1.59 1.478-1.59.347 0 .549.201.549.392 0 .156-.168.358-.359.358-.145 0-.257-.056-.37-.1-.111-.046-.223-.102-.358-.102-.268 0-.448.202-.448.516 0 .235.168.459.348.694.201.291.436.616.436.997zm-17.08-4.928c-.01 0-.033.022-.033.033v.19c0 .012.011.023.022.034l.112.012.146.01c.19.034.235.068.235.158 0 .156-.18.66-.426 1.355l-.224.627c-.19.56-.492 1.333-.75 2.016-.314.818-.56 1.456-.56 1.546 0 .1.056.134.291.134.258 0 .37-.045.392-.135.437-1.444 1.647-3.09 2.274-3.09.201 0 .269.067.269.268 0 .325-.27.93-.538 1.512-.235.515-.448.997-.448 1.232 0 .213.1.325.28.325.616 0 1.086-.56 1.467-1.008l.056-.067.011-.023-.01-.022-.124-.157s-.011-.011-.022-.011c-.012 0-.023 0-.023.011-.213.224-.571.56-.672.571-.033 0-.045 0-.056-.01-.011-.012-.011-.046-.011-.102.011-.044.067-.201.168-.425.235-.572.627-1.512.627-2.083 0-.448-.213-.706-.593-.706-.762 0-1.367.862-1.658 1.277a.971.971 0 01-.146.19h-.01c-.012-.022.033-.112.111-.291.079-.19.202-.482.381-.918.571-1.479.806-2.274.806-2.341 0-.09-.078-.101-.168-.101h-1.176v-.011zm-1.668 5.297v-.033l-.135-.135c0-.01-.011-.01-.022-.01s-.011 0-.023.01l-.01.011c-.236.213-.695.583-1.098.617a.548.548 0 01-.415-.135c-.134-.123-.213-.302-.224-.537-.022-.617.493-1.535 1.008-2.084.28-.29.538-.448.717-.448.213 0 .347.157.482.314.112.134.224.269.38.269a.317.317 0 00.18-.079.296.296 0 00.078-.212c0-.258-.224-.639-.773-.65-.627-.011-1.4.37-1.982.963-.549.571-.84 1.243-.807 1.904.023.549.325 1.143 1.087 1.143.773 0 1.445-.695 1.557-.908zm10.08-1.41c-.012.033-.056.122-.068.111h-.01v-.034c0-.033.044-.201.089-.403.09-.38.213-.907.213-1.064 0-.201-.112-.302-.303-.302-.414 0-1.041.683-1.254 1.042l-.011.01c0 .012 0 .012.01.023l.124.123c0 .012.011.012.022.012.012 0 .023-.012.023-.012l.033-.044.034-.045c.134-.18.426-.538.582-.538.079 0 .124.079.124.224 0 .37-.404 1.478-.672 2.218-.146.414-.258.716-.258.772 0 .079.034.112.1.112h.348c.067 0 .1-.044.146-.156 0 0 .168-.404.268-.605.684-1.4 1.064-2.117 1.356-2.397.19-.19.324-.269.425-.269.079 0 .123.068.18.124.055.067.111.134.212.145a.304.304 0 00.19-.067c.09-.078.135-.224.135-.37 0-.257-.18-.347-.336-.347-.616.034-1.075.504-1.702 1.736zm-2.15-1.77c.022-.012.055 0 .089.022 0 0 .011 0 .011.011l.235.157c.056.022.056.09.056.1-.011.08-.19.572-.414 1.143-.291.773-.661 1.736-.672 1.915 0 .067 0 .101.022.112a.096.096 0 00.067.023c.135 0 .359-.28.538-.493l.134-.168a.034.034 0 01.045 0l.135.157.01.022s-.01.022-.01.011c-.19.291-.717 1.064-1.322 1.075-.112 0-.19-.022-.246-.09-.068-.066-.101-.167-.101-.313 0-.29.145-.616.224-.784l.045-.112c.01-.022.01-.033 0-.044h-.012c-.022 0-.156.235-.156.235-.639.974-1.143 1.097-1.512 1.097-.303 0-.594-.246-.594-.795 0-.806.907-3.136 2.643-3.136.157 0 .269.023.359.045.067.011.123.022.179.022.067 0 .1-.056.134-.112a.25.25 0 01.112-.1zm-2.756 3.102c0 .325.09.38.258.38.761 0 1.993-2.15 1.993-2.609 0-.302-.168-.47-.459-.47-.896 0-1.792 1.568-1.792 2.699zm8.389-.112c0-1.411 1.579-2.912 2.688-2.912.526 0 .806.325.806.627 0 .74-1.21 1.053-1.859 1.053l-.37-.011h-.067c0 .01-.022.033-.022.033-.18.27-.415.639-.415 1.131 0 .404.247.661.639.661.325 0 .761-.325.997-.504l.1-.067a.034.034 0 01.045 0l.112.146c.011.01.011.022 0 .033-.179.236-.93.908-1.635.908-.594 0-1.02-.449-1.02-1.098zm2.565-2.666c-.482 0-.997.784-1.176 1.11.963-.012 1.512-.303 1.512-.774a.33.33 0 00-.336-.336zm-2.89 2.71c.011-.01 0-.033 0-.033 0-.011-.134-.168-.134-.168-.012-.011-.012-.011-.023-.011s-.022 0-.022.011l-.045.045c-.336.37-.526.582-.683.582-.023 0-.045 0-.067-.022-.023-.023-.034-.067-.034-.112.011-.213.347-1.187 1.03-2.98l.493-1.287c.258-.672.392-1.008.392-1.053 0-.034-.011-.056-.022-.067-.023-.023-.067-.034-.135-.034h-1.164c-.023 0-.034.011-.034.034l-.011.19c0 .011.011.034.022.034l.258.022c.168.034.235.079.224.19-.011.169-.762 2.028-.762 2.028-.403 1.008-1.086 2.744-1.097 3.158-.012.18.033.325.123.426.078.09.201.123.347.123.47 0 .94-.594 1.254-.986l.09-.09zM7.934 14.92c0 .55.437.84.852 1.064l.179.09c.425.213.593.425.593.75 0 .37-.235.639-.582.639-.549 0-.862-.572-.997-.919v-.01l-.19.066v.011c.056.348.123.729.168.874l.09.034.246.09c.168.055.37.1.571.1.773 0 1.3-.47 1.3-1.153 0-.639-.494-.93-.852-1.098l-.146-.067c-.47-.213-.66-.426-.66-.717s.179-.582.57-.582c.46 0 .64.358.751.716v.011l.202-.033v-.011c-.045-.28-.09-.527-.112-.762v-.011l-.135-.045-.112-.034a1.508 1.508 0 00-.515-.078c-.717-.011-1.22.437-1.22 1.075zm2.655.907c0 .93.65 1.87 2.094 1.87.37 0 .863-.111 1.064-.167.101-.224.235-.706.291-.952v-.011l-.179-.034v.011c-.291.594-.571.919-1.187.919-.795 0-1.333-.717-1.333-1.77 0-.74.347-1.601 1.333-1.601.582 0 .896.246 1.053.828v.011l.179-.022-.022-.258-.079-.66h-.011l-.1-.023c-.191-.045-.516-.123-.92-.123-1.276-.011-2.183.806-2.183 1.982zm7.683-1.915h-1.613v.18h.011c.415.033.47.056.47.683v.75h-1.713v-.75c0-.616.056-.65.46-.683h.01v-.18h-1.635v.18h.012c.481.033.515.078.515.683v1.982c0 .594-.034.65-.493.683h-.011v.18h1.635v-.18h-.011c-.426-.033-.482-.067-.482-.683v-.952h1.703v.952c0 .605-.034.65-.516.683h-.01v.18h1.657v-.18h-.011c-.426-.033-.482-.056-.482-.683v-1.982c0-.605.034-.65.482-.683h.01l.012-.18zm5.678 0h-1.31v.18l.202.01c.112.012.168.034.201.08.023.022.023.055.023.111a.944.944 0 01-.045.258 59.373 59.373 0 01-.571 2.105c-.045-.112-.986-2.677-.986-2.677v-.01h-.224s-.84 2.642-.851 2.687c-.034-.123-.661-2.195-.661-2.195a.756.756 0 01-.034-.19c0-.034.012-.067.023-.079.033-.045.09-.067.19-.078l.18-.011v-.18H18.54v.179h.011c.302.033.392.067.549.548l.93 3.024h.268s.874-2.61.874-2.643c.045.112.963 2.632.963 2.632v.011h.269v-.01c.526-1.748.952-2.98.952-2.991.19-.515.235-.538.582-.571h.011v-.19zm.964.896c0 .011-.426 1.199-.437 1.221h.873c-.01-.022-.425-1.21-.436-1.22zm1.433 2.061c.19.515.28.538.594.571h.011v.18H25.44v-.18l.168-.022c.1-.011.157-.034.18-.067.01-.012.01-.034.01-.056a.622.622 0 00-.033-.168c-.056-.168-.19-.504-.303-.807h-1.041c-.067.146-.146.404-.224.628l-.034.09a.705.705 0 00-.045.223c0 .034.012.056.023.078.033.045.09.068.213.079l.168.022v.18h-1.277v-.18h.011c.347-.044.403-.067.605-.57l1.153-2.969.236-.022h.01l.382 1.03.705 1.96zm1.96-1.344h.213c.504 0 .784-.246.784-.694 0-.627-.538-.684-.706-.684-.179 0-.246.023-.257.023-.045.022-.045.123-.045.246v1.11h.011zm.482-1.613c.425 0 .66.045.873.19.213.146.325.36.325.65 0 .516-.504.762-.784.818.627.09.997.437.997.952 0 .37-.168.65-.515.862-.247.146-.639.224-1.087.224h-1.422v-.179h.011c.426-.034.482-.067.482-.683v-1.983c0-.616-.045-.65-.448-.683h-.011v-.18h1.579v.011zm-.482 1.837v.997c0 .28.023.46.112.549.056.056.146.078.314.078.358 0 .75-.201.75-.784 0-.538-.358-.84-.985-.84h-.19z" fill="#00A0DF"/></g><defs><clipPath id="pi-charlesschwab-clip0_10420_219303"><path fill="#fff" d="M0 0h38v24H0z"/></clipPath></defs></svg>