<svg width="38" height="24" viewBox="0 0 38 24" fill="none" xmlns="http://www.w3.org/2000/svg" role="img" aria-labelledby="pi-chase"><title id="pi-chase">Chase</title><g clip-path="url(#pi-chase-clip0_10420_219345)"><path opacity=".07" d="M35 0H3C1.3 0 0 1.3 0 3v18c0 1.7 1.4 3 3 3h32c1.7 0 3-1.3 3-3V3c0-1.7-1.4-3-3-3z" fill="#000"/><path d="M35 1c1.1 0 2 .9 2 2v18c0 1.1-.9 2-2 2H3c-1.1 0-2-.9-2-2V3c0-1.1.9-2 2-2h32z" fill="#fff"/><path d="M16.723 4a.565.565 0 00-.565.565v3.96H26.62L21.855 4h-5.132zm10.28 5.723a.563.563 0 00-.566-.564h-3.959V19.62l4.523-4.766.002-5.132zM21.278 20a.565.565 0 00.564-.566v-3.959H11.38L16.145 20l5.133.001zm-10.28-5.723c0 .313.253.567.566.567h3.958V4.38l-4.524 4.765v5.131z" fill="#015FB8"/></g><defs><clipPath id="pi-chase-clip0_10420_219345"><path fill="#fff" d="M0 0h38v24H0z"/></clipPath></defs></svg>