<svg xmlns="http://www.w3.org/2000/svg" viewBox="0 0 38 24" width="38" height="24" role="img" aria-labelledby="pi-checkout_finance"><title id="pi-checkout_finance">Checkout Finance</title><path fill="#000" opacity=".07" d="M35 0H3C1.3 0 0 1.3 0 3v18c0 1.7 1.4 3 3 3h32c1.7 0 3-1.3 3-3V3c0-1.7-1.4-3-3-3z"/><path fill="#fff" d="M35 1c1.1 0 2 .9 2 2v18c0 1.1-.9 2-2 2H3c-1.1 0-2-.9-2-2V3c0-1.1.9-2 2-2h32"/><path fill="#2A3156" d="M7.166 15.492a1.787 1.787 0 01-.705-.658 1.789 1.789 0 01-.256-.952 1.787 1.787 0 01.961-1.61 2.124 2.124 0 011.009-.236c.314 0 .598.054.852.162.255.108.467.265.64.47l-.539.489a1.166 1.166 0 00-.912-.418c-.224 0-.424.048-.6.145a1.045 1.045 0 00-.413.406 1.175 1.175 0 00-.148.591c0 .222.05.42.148.593.098.174.236.308.412.405.177.098.377.146.601.146a1.157 1.157 0 00.912-.424l.54.49a1.688 1.688 0 01-.643.475 2.171 2.171 0 01-.855.163c-.37 0-.704-.08-1.003-.237h-.001zm5.49-2.304c.212.204.318.506.318.908v1.572h-.808v-1.449c0-.218-.048-.38-.146-.488-.097-.107-.236-.16-.42-.16a.65.65 0 00-.487.186c-.121.124-.181.309-.181.554v1.357h-.81v-3.786h.81v1.327a1.1 1.1 0 01.388-.243c.152-.056.317-.084.497-.084.346 0 .626.102.838.306h.001z"/><path fill="#2A3156" d="M14.292 14.52H16.4l.015-.214c0-.288-.062-.538-.188-.755a1.284 1.284 0 00-.522-.496 1.571 1.571 0 00-.741-.174c-.28 0-.533.06-.759.182a1.355 1.355 0 00-.534.505 1.384 1.384 0 00-.195.727c0 .272.066.516.198.73.132.213.318.381.56.502.242.121.52.181.834.181.504 0 .888-.147 1.15-.443l-.43-.46a.94.94 0 01-.313.202 1.07 1.07 0 01-.386.064.906.906 0 01-.529-.148.646.646 0 01-.27-.403zm-.011-.466a.649.649 0 01.229-.417.7.7 0 01.46-.153c.18 0 .332.051.456.156.125.102.2.241.229.414H14.28z" clip-rule="evenodd" fill-rule="evenodd"/><path fill="#2A3156" d="M17.45 15.527a1.368 1.368 0 01-.554-.503 1.355 1.355 0 01-.2-.73c0-.272.066-.515.2-.73.133-.214.317-.381.554-.502a1.732 1.732 0 01.802-.182c.293 0 .55.06.77.182.218.12.38.293.479.517l-.628.331c-.146-.25-.354-.377-.627-.377a.715.715 0 00-.522.204c-.14.136-.208.322-.208.557 0 .234.069.42.207.556a.718.718 0 00.523.204c.277 0 .486-.126.627-.377l.628.336a1.102 1.102 0 01-.48.51 1.55 1.55 0 01-.77.184 1.71 1.71 0 01-.8-.18h-.001zm3.64-.937l-.387.378v.7h-.809V11.88h.809v2.143l1.18-1.102h.965l-1.161 1.164 1.264 1.582h-.98l-.88-1.078z"/><path fill="#2A3156" d="M23.134 15.024c.131.214.314.382.547.503.233.121.497.181.79.181.293 0 .557-.06.788-.18s.413-.29.544-.504a1.372 1.372 0 00.198-.73c0-.272-.066-.516-.198-.73a1.361 1.361 0 00-.544-.502 1.672 1.672 0 00-.788-.182c-.294 0-.557.06-.79.182a1.363 1.363 0 00-.547.502 1.372 1.372 0 00-.197.73c0 .273.066.517.197.73zm2.048-.729c0 .232-.067.417-.2.554a.682.682 0 01-.51.206.688.688 0 01-.514-.206c-.135-.139-.203-.323-.203-.554 0-.231.069-.416.203-.553a.688.688 0 01.514-.207c.206 0 .377.069.51.206.133.139.2.323.2.554z" clip-rule="evenodd" fill-rule="evenodd"/><path fill="#2A3156" d="M29.297 12.83v2.747h-.767v-.327a1.072 1.072 0 01-.384.273 1.23 1.23 0 01-.483.095c-.366 0-.656-.104-.871-.311-.214-.208-.32-.515-.32-.924v-1.551h.808v1.433c0 .441.188.663.566.663a.613.613 0 00.465-.186c.118-.124.177-.308.177-.554V12.83h.809zm2.498 2.614a.84.84 0 01-.293.13c-.115.028-.238.043-.365.043-.332 0-.588-.083-.77-.25-.181-.167-.272-.412-.272-.735v-1.127h-.43v-.613h.43v-.668h.808v.668h.695v.613h-.695v1.117c0 .116.03.205.091.267.06.063.146.094.257.094a.526.526 0 00.326-.1l.218.56zM9.157 17.935v.945h1.68v.662h-1.68v1.302h-.839v-3.572h2.742v.663H9.157z"/><path fill="#2A3156" d="M11.371 17.272c0 .126.046.232.14.316a.517.517 0 00.362.128c.15 0 .27-.042.363-.13a.429.429 0 00.14-.33.388.388 0 00-.14-.305.532.532 0 00-.363-.123.519.519 0 00-.362.128.411.411 0 00-.14.316zm.907.826h-.808v2.746h.808v-2.746z" clip-rule="evenodd" fill-rule="evenodd"/><path fill="#2A3156" d="M15.51 18.364c.213.204.319.506.319.908v1.572h-.809v-1.449c0-.218-.048-.38-.145-.488-.097-.107-.237-.16-.42-.16a.65.65 0 00-.487.186c-.121.124-.181.309-.181.554v1.357h-.81v-2.746h.774v.322a1.072 1.072 0 01.398-.267c.16-.063.334-.095.523-.095.346-.001.625.1.838.306z"/><path fill="#2A3156" d="M18.975 19.277c0-.408-.116-.714-.347-.916-.232-.202-.563-.303-.997-.305a2.495 2.495 0 00-.655.086 1.783 1.783 0 00-.547.245l.29.557a1.166 1.166 0 01.366-.187c.144-.045.289-.068.437-.068.215 0 .376.047.483.14a.505.505 0 01.16.401h-.642c-.408 0-.71.073-.905.22a.713.713 0 00-.293.603.763.763 0 00.125.428.829.829 0 00.36.296c.157.072.343.107.558.107.415 0 .698-.128.85-.382v.341h.757v-1.566zm-.808.7a.518.518 0 01-.23.278.724.724 0 01-.366.094.556.556 0 01-.334-.089.286.286 0 01-.122-.243c0-.214.165-.321.497-.321h.555v.28z" clip-rule="evenodd" fill-rule="evenodd"/><path fill="#2A3156" d="M22.186 18.364c.212.204.319.506.319.908v1.572h-.809v-1.449c0-.218-.049-.38-.146-.488-.096-.107-.236-.16-.42-.16a.649.649 0 00-.487.186c-.12.124-.181.309-.181.554v1.357h-.809v-2.746h.773v.322a1.072 1.072 0 01.4-.267c.158-.063.333-.095.522-.095.346-.001.626.1.838.306zm1.576 2.34a1.367 1.367 0 01-.554-.504 1.355 1.355 0 01-.2-.73c0-.272.066-.515.2-.73.132-.214.317-.381.554-.502.237-.121.503-.182.801-.182.293 0 .55.06.77.182.218.12.38.293.48.517l-.628.332c-.145-.252-.354-.378-.626-.378a.715.715 0 00-.523.204c-.14.136-.208.322-.208.557s.069.42.207.556a.718.718 0 00.523.204c.278 0 .486-.126.627-.377l.628.336a1.1 1.1 0 01-.48.51 1.55 1.55 0 01-.77.183 1.712 1.712 0 01-.8-.18v.001z"/><path fill="#2A3156" d="M26.797 19.696h2.109a7.021 7.021 0 00.015-.214c0-.288-.062-.538-.188-.755a1.286 1.286 0 00-.52-.496 1.575 1.575 0 00-.742-.174c-.28 0-.533.06-.76.182a1.357 1.357 0 00-.534.505 1.385 1.385 0 00-.194.726c0 .273.066.517.197.73.131.214.318.382.56.503.241.121.52.181.835.181.504 0 .887-.147 1.15-.443l-.431-.46a.94.94 0 01-.314.202 1.07 1.07 0 01-.386.064.9.9 0 01-.528-.148.646.646 0 01-.269-.403zm-.011-.466a.649.649 0 01.228-.417.703.703 0 01.46-.154c.18 0 .333.052.457.156a.654.654 0 01.228.415h-1.373z" clip-rule="evenodd" fill-rule="evenodd"/><path fill="#4971FF" d="M22.201 3.116h-6.375a.292.292 0 00-.291.292v6.376c0 .161.13.292.291.292h6.375a.292.292 0 00.292-.293V3.408a.292.292 0 00-.292-.291v-.001zm-1.958 4.571c.285-.285.448-.663.46-1.065v-.05a.291.291 0 01.583.001v.067a2.16 2.16 0 01-4.275.345h-.458a.147.147 0 01-.106-.25l.761-.793a.15.15 0 01.214 0l.762.794a.148.148 0 01-.107.25h-.466a1.576 1.576 0 002.632.701zm.197-2.042a.29.29 0 01.075-.406.29.29 0 01.404.075.291.291 0 11-.48.33h.001zm-2.746-.32a.291.291 0 11.438-.384.291.291 0 01-.438.384zm2.07-.235a.291.291 0 11.23-.536.291.291 0 01-.23.536zm-1.2-.351a.291.291 0 11.576-.09.291.291 0 01-.576.09z" clip-rule="evenodd" fill-rule="evenodd"/></svg>