<svg viewBox="0 0 38 24" xmlns="http://www.w3.org/2000/svg" width="38" height="24" role="img" aria-labelledby="pi-cimb"><title id="pi-cimb">CIMB Bank</title><path opacity=".07" d="M35 0H3C1.3 0 0 1.3 0 3v18c0 1.7 1.4 3 3 3h32c1.7 0 3-1.3 3-3V3c0-1.7-1.4-3-3-3z"/><path fill="#FFF" d="M35 1c1.1 0 2 .9 2 2v18c0 1.1-.9 2-2 2H3c-1.1 0-2-.9-2-2V3c0-1.1.9-2 2-2h32"/><path fill="#7A121C" d="M8.167 2h21.667v20H8.167V2z"/><path fill="#EC1C24" d="M28.037 11.972l-5.628 6.872H11.152l5.04-6.872"/><path fill="#FFF" d="M16.192 11.972l-5.04-6.283h11.257l5.629 6.283H16.192z"/></svg>