<svg xmlns="http://www.w3.org/2000/svg" role="img" viewBox="0 0 38 24" width="38" height="24" aria-labelledby="pi-cimbclicks"><title id="pi-cimbclicks">CIMB Clicks</title><g clip-path="url(#pi-cimbclicks-a)"><path fill="#000" d="M35 0H3C1.3 0 0 1.3 0 3v18c0 1.7 1.4 3 3 3h32c1.7 0 3-1.3 3-3V3c0-1.7-1.4-3-3-3Z" opacity=".07"/><path fill="#fff" d="M35 1c1.1 0 2 .9 2 2v18c0 1.1-.9 2-2 2H3c-1.1 0-2-.9-2-2V3c0-1.1.9-2 2-2h32Z"/><path fill="#EC1C24" d="M25.366 12.264a14.03 14.03 0 0 1 .952-1.7c.112-.172.232-.357.406-.476a.378.378 0 0 1 .297-.083c.05.008.099.038.142.064l.016.01c.12.097.012.27-.062.387l-.03.05a4.327 4.327 0 0 1-.223.335l-.122.176c-.27.438-.539.884-.771 1.358a14.585 14.585 0 0 0-.393.876c-.081.194-.241.575-.165.62.088.053.206-.07.283-.152a.792.792 0 0 1 .051-.052l.006-.004c.058-.049.183-.153.255-.126.17.068-.003.347-.076.465l-.017.028c-.158.26-.381.493-.688.502-.26.01-.474-.195-.502-.474a1.617 1.617 0 0 1 .055-.52c.092-.402.304-.78.515-1.156l.071-.128ZM24.51 13.5a.247.247 0 0 1-.027.103c-.056.127-.203.205-.336.276-.042.023-.083.045-.12.068a6.766 6.766 0 0 1-.762.437l-.082.04c-.416.201-.817.396-1.48.1-.54-.242-.632-.912-.372-1.609.223-.595.642-1.116 1.144-1.571.502-.456 1.06-.884 1.46-.93a.527.527 0 0 1 .418.111c.232.205.204.605.074.856-.074.158-.158.26-.325.288-.14.019-.316-.028-.288-.223.005-.034.02-.075.036-.12.037-.106.08-.23.028-.308-.092-.126-.403.127-.525.225l-.032.026a5.93 5.93 0 0 0-.456.39c-.25.242-.465.559-.641.865-.205.363-.391.782-.391 1.21 0 .139.01.287.074.408.177.295.599.132.863.03l.076-.03c.252-.093.493-.204.726-.325.15-.08.292-.172.434-.263.087-.056.174-.112.263-.165.158-.074.242 0 .242.112Zm2.939-2.77c.111.316.242.614.604.716 0-.288-.195-.865-.604-.716Zm-.028 1.776c-.01-.075-.046-.14-.13-.214-.102-.093-.251-.13-.354-.01a.84.84 0 0 0-.109.218 1.586 1.586 0 0 1-.04.099c-.032.083-.062.167-.092.25-.03.084-.06.168-.093.252-.13.362-.233.734-.298 1.106l.027.035c.063.083.127.168.299.151l.119-.242c.139-.282.279-.566.401-.855.084-.195.158-.381.233-.586a.4.4 0 0 0 .037-.204Zm1.887.808.01-.018.012-.023c.016-.03.03-.059.016-.051a.891.891 0 0 0-.266.121l-.078.046a3.392 3.392 0 0 1-.493.223 1.86 1.86 0 0 1-.121.047c-.02.007-.038.016-.057.024-.053.024-.104.048-.166.04-.211-.015-.068-.359.006-.534.014-.034.025-.06.031-.079a2.62 2.62 0 0 1 .335-.613 2.008 2.008 0 0 1 .277-.291.46.46 0 0 1 .169-.118c.098-.025.174.037.248.096l.03.024c.066.056.178.13.233.084.019-.019.028-.046.028-.102 0-.195-.186-.419-.325-.54-.223-.186-.502-.195-.725-.009-.307.251-.772 1.097-.865 1.692-.075.465.14.81.39.902.205.075.39-.009.549-.14.12-.099.229-.213.337-.327.085-.088.169-.177.258-.258.056-.056.112-.111.158-.177 0-.005.004-.011.009-.02Zm2.752-1.412a.469.469 0 0 0-.185-.14c-.121-.028-.307.056-.41.12a2.22 2.22 0 0 0-.325.261c-.112.104-.25.215-.39.329a7.34 7.34 0 0 0-.456.387l.032-.096c.066-.203.142-.433.238-.601a2.73 2.73 0 0 0 .073-.156c.03-.069.06-.138.103-.207.053-.073.1-.15.147-.228a3.72 3.72 0 0 1 .204-.31c.117-.165.256-.358.263-.54.01-.177-.214-.4-.428-.335-.244.339-.43.732-.61 1.115-.087.185-.173.367-.264.54-.043.115-.09.23-.136.348-.147.365-.298.74-.347 1.121l-.028.251a1.497 1.497 0 0 0 0 .456c.028.13.084.232.195.297.18.117.203-.174.213-.294v-.013c.02-.176.057-.344.112-.511l-.083.335a.92.92 0 0 1 .15.14c.07.076.135.147.25.176.344.093.66-.121.92-.298.022-.015.057-.036.098-.06.13-.076.324-.191.395-.312.046-.074.037-.14-.047-.213-.08-.058-.192.024-.283.09a.657.657 0 0 1-.07.049c-.056.031-.11.063-.165.095-.11.064-.22.128-.337.184a4.14 4.14 0 0 1-.319.1c-.125.038-.239.072-.239.077a2.36 2.36 0 0 1 .205-.558c.167-.316.372-.623.65-.856.14-.111.28-.223.428-.325.075-.056.149-.112.214-.158a.349.349 0 0 1 .127-.04c.056-.012.113-.023.143-.053.037-.028 0-.112-.038-.168Zm.307.436a1.228 1.228 0 0 0-.065.28c-.018.13 0 .27.065.38.026.04.176.158.326.276.172.136.344.272.335.292-.168.27-.41.465-.67.641l-.2.126c-.067.042-.135.083-.2.125-.015.01-.034.023-.055.035-.109.067-.268.165-.159.281.14.14.355.016.51-.073.031-.018.06-.035.085-.047l.15-.076c.093-.048.18-.092.26-.129.045-.021.09-.042.137-.062.238-.107.477-.214.625-.394.311-.372-.091-.606-.423-.799a1.474 1.474 0 0 1-.302-.205c-.01-.009-.037-.065-.047-.083-.13-.53.614-1.032.949-1.181.039-.016.073-.022.106-.028a.27.27 0 0 0 .182-.093c.102-.102-.149-.297-.223-.325-.14-.053-.381.044-.525.101l-.024.01a1.357 1.357 0 0 0-.428.26 1.34 1.34 0 0 0-.306.419 1.288 1.288 0 0 0-.103.27Z"/><path fill="#7B303E" d="M7.152 13.65a1.373 1.373 0 0 1-.874.306c-.772 0-1.376-.613-1.376-1.404 0-.79.604-1.404 1.376-1.404.316 0 .623.103.874.307l.01.01.594-.595-.009-.01a2.248 2.248 0 0 0-1.47-.548A2.237 2.237 0 0 0 4 12.543c0 1.246 1.023 2.25 2.278 2.25.54 0 1.06-.195 1.469-.548l.01-.01-.596-.595-.01.01Zm1.422 1.022h.865v-4.258h-.865v4.258Zm4.259-1.543c-.037-.047-1.506-2.724-1.506-2.724h-.837v4.258h.855v-2.538l1.488 2.575s1.413-2.464 1.478-2.575v2.538h.856v-4.258h-.837c-.01 0-1.47 2.677-1.497 2.724Zm5.876-.642c.186-.102.502-.4.502-.874 0-.743-.502-1.2-1.32-1.2H16.18v4.26h1.785c.81 0 1.311-.475 1.311-1.237-.01-.568-.344-.837-.567-.949Zm-1.674-1.301h.79c.335 0 .53.176.53.464 0 .289-.195.465-.53.465h-.79v-.93Zm.837 2.714h-.837v-1.004h.837c.39 0 .53.26.53.502s-.14.502-.53.502Z"/></g><defs><clipPath id="pi-cimbclicks-a"><path fill="#fff" d="M0 0h38v24H0z"/></clipPath></defs></svg>
