<svg viewBox="0 0 38 24" xmlns="http://www.w3.org/2000/svg" width="38" height="24" role="img" aria-labelledby="pi-circlek"><title id="pi-circlek">Circle K</title><defs><style>.b{fill:#fff}</style></defs><path d="M35 0H3a3 3 0 0 0-3 3v18a3 3 0 0 0 3 3h32a3 3 0 0 0 3-3V3a3 3 0 0 0-3-3z" fill="#e8e8e8"/><path class="b" d="M35 1a2 2 0 0 1 2 2v18a2 2 0 0 1-2 2H3a2 2 0 0 1-2-2V3a2 2 0 0 1 2-2h32"/><path d="M19 2.9A9.1 9.1 0 1 1 9.9 12 9.12 9.12 0 0 1 19 2.9z" fill="#fe0000"/><path class="b" d="M22.59 18.76l-4.68-5.58v3a1.815 1.815 0 0 1-3.63 0V8.1a1.815 1.815 0 1 1 3.63 0v1.39l2.39-2.66a1.83 1.83 0 0 1 2.56-.17A1.8 1.8 0 0 1 23 9.22l-2 2.12 4.22 5a7.66 7.66 0 1 0-2.67 2.36z"/></svg>