<svg xmlns="http://www.w3.org/2000/svg" role="img" viewBox="0 0 38 24" width="38" height="24" aria-labelledby="pi-citadele"><title id="pi-citadele">Citadele</title><path d="M35 0H3C1.3 0 0 1.3 0 3v18c0 1.7 1.4 3 3 3h32c1.7 0 3-1.3 3-3V3c0-1.7-1.4-3-3-3z" fill-opacity=".07" fill-rule="nonzero"/><path d="M35 1c1.1 0 2 .9 2 2v18c0 1.1-.9 2-2 2H3c-1.1 0-2-.9-2-2V3c0-1.1.9-2 2-2h32z" fill="#ed193a"/><path d="M18.531 13.826c0 .104-.038.133-.327.133h-.039c-.301 0-.342-.017-.369-.093-.011-.04-.025-.104-.037-.152a.769.769 0 01-.645.295c-.685 0-1.122-.52-1.122-1.37 0-.944.541-1.474 1.182-1.474a.79.79 0 01.611.265l.011-.117c.007-.058.022-.095.333-.095h.034c.321 0 .368.024.368.108v2.5zm8.639-.963c.048.334.252.498.578.498.252 0 .488-.058.762-.179.057-.024.108 0 .17.191l.041.104c.061.195.057.237-.007.274a2.06 2.06 0 01-1.046.258c-.835 0-1.359-.513-1.359-1.393 0-.856.482-1.451 1.308-1.451.817 0 1.238.588 1.238 1.4 0 .271-.025.298-.12.298H27.17zm-4.267 0c.046.334.255.498.578.498.253 0 .491-.058.763-.179.058-.024.109 0 .169.191l.043.104c.062.195.058.237-.009.274a2.057 2.057 0 01-1.043.258c-.836 0-1.361-.513-1.361-1.393 0-.856.481-1.451 1.309-1.451.815 0 1.237.588 1.237 1.4 0 .271-.024.298-.118.298h-1.568zm-8.314-2.442c.317 0 .334.004.334.108v.689h.545c.076 0 .098.014.098.274v.037c0 .26-.022.275-.098.275h-.545v1.238c0 .21.038.319.227.319a.87.87 0 00.269-.049c.09-.037.125.008.185.226l.015.05c.065.238.047.259-.038.299a1.532 1.532 0 01-.609.122c-.673 0-.861-.337-.861-.929v-1.276h-.317c-.079 0-.098-.015-.098-.275v-.037c0-.26.019-.274.098-.274h.356c.038-.222.106-.533.145-.689.025-.088.038-.108.294-.108zm6.986 3.405c0 .104-.038.133-.326.133h-.029c-.301 0-.344-.017-.368-.093-.014-.04-.027-.104-.037-.152-.159.192-.354.295-.649.295-.713 0-1.142-.53-1.142-1.378 0-.921.478-1.466 1.186-1.466.198 0 .382.062.525.175v-1.194c0-.081.007-.112.407-.112h.027c.368 0 .406.031.406.112v3.68zm-11.531-1.764c0-.754.362-1.169.911-1.169.205 0 .371.062.58.166.075.036.137.022.236-.213l.07-.161c.072-.193.077-.277-.011-.317-.253-.152-.644-.243-.985-.243-.967 0-1.7.771-1.7 1.937 0 1.167.733 1.944 1.7 1.944.341 0 .743-.095.996-.246.086-.041.081-.124.009-.315l-.07-.172c-.1-.237-.16-.252-.236-.213-.208.106-.384.166-.589.166-.549 0-.911-.405-.911-1.164zm15.817 1.785c0 .078-.037.112-.407.112h-.028c-.398 0-.407-.034-.407-.112v-3.701c0-.081.009-.112.407-.112h.028c.37 0 .407.031.407.112v3.701zm-13.029-2.629c.369 0 .402.033.402.115v2.514c0 .083-.033.112-.402.112h-.023c-.406 0-.415-.029-.415-.112v-2.514c0-.082.009-.115.415-.115h.023zm4.85.813a.462.462 0 00-.366-.183c-.315 0-.465.278-.465.773 0 .421.112.732.456.732.13 0 .224-.033.288-.1.062-.065.087-.153.087-.352v-.87zm3.053-.021a.527.527 0 00-.383-.168c-.317 0-.467.278-.467.789 0 .291.062.477.15.576.079.098.203.131.32.131.149 0 .262-.035.314-.103.046-.053.066-.133.066-.315v-.91zm7.279.327c-.014-.282-.13-.528-.405-.528-.241 0-.417.181-.449.528h.854zm-4.267 0c-.013-.282-.125-.528-.406-.528-.241 0-.415.181-.448.528h.854zM12.809 9.991c.265 0 .458.207.458.445a.447.447 0 01-.458.437.45.45 0 01-.459-.437c0-.238.197-.445.459-.445z" fill="#fff" fill-rule="nonzero"/></svg>