<svg width="38" height="24" viewBox="0 0 38 24" fill="none" xmlns="http://www.w3.org/2000/svg" role="img" aria-labelledby="pi-citizens"><title id="pi-citizens">Citizens</title><g clip-path="url(#pi-citizens-clip0_10417_218954)"><path opacity=".07" d="M35 0H3C1.3 0 0 1.3 0 3v18c0 1.7 1.4 3 3 3h32c1.7 0 3-1.3 3-3V3c0-1.7-1.4-3-3-3z" fill="#000"/><path d="M35 1c1.1 0 2 .9 2 2v18c0 1.1-.9 2-2 2H3c-1.1 0-2-.9-2-2V3c0-1.1.9-2 2-2h32z" fill="#fff"/><path d="M26.148 19.325a1.209 1.209 0 000-1.71l-2.794-2.795 1.941.02c.759.018 1.198-.513 1.198-1.18a1.2 1.2 0 00-1.198-1.217H22.88c-.531 0-.961.329-1.125.759a3.015 3.015 0 01-1.73 1.729 1.2 1.2 0 00-.758 1.125v2.415c0 .664.53 1.198 1.217 1.198.664 0 1.198-.439 1.179-1.198l-.02-1.94 2.795 2.794a1.214 1.214 0 001.71 0zm0-14.279a1.209 1.209 0 00-1.71 0l-2.794 2.795.019-1.941c.019-.759-.515-1.198-1.18-1.198A1.2 1.2 0 0019.268 5.9v2.415c0 .53.329.96.758 1.125.79.304 1.413.926 1.73 1.73a1.2 1.2 0 001.125.758h2.415c.664 0 1.198-.531 1.198-1.217 0-.664-.44-1.198-1.198-1.18l-1.94.02 2.793-2.795a1.215 1.215 0 000-1.71zm-14.278 0a1.212 1.212 0 000 1.71l2.794 2.795-1.94-.02c-.76-.018-1.199.513-1.199 1.18a1.2 1.2 0 001.198 1.217h2.415a1.2 1.2 0 001.126-.759 3.015 3.015 0 011.729-1.729 1.2 1.2 0 00.759-1.125V5.9c0-.664-.531-1.198-1.217-1.198-.664 0-1.199.44-1.18 1.198l.02 1.94-2.795-2.794a1.209 1.209 0 00-1.71 0zm0 14.279a1.209 1.209 0 001.71 0l2.794-2.794-.019 1.94c-.019.76.512 1.198 1.18 1.198a1.2 1.2 0 001.216-1.198v-2.415c0-.53-.328-.96-.758-1.125a3.024 3.024 0 01-1.73-1.73 1.2 1.2 0 00-1.125-.758h-2.415c-.664 0-1.198.531-1.198 1.217 0 .664.44 1.198 1.198 1.18l1.941-.02-2.794 2.795a1.209 1.209 0 000 1.71z" fill="#00965E"/></g><defs><clipPath id="pi-citizens-clip0_10417_218954"><path fill="#fff" d="M0 0h38v24H0z"/></clipPath></defs></svg>