<svg width="38" height="24" viewBox="0 0 38 24" fill="none" xmlns="http://www.w3.org/2000/svg" role="img" aria-labelledby="pi-citi"><title id="pi-citi">Citi</title><g clip-path="url(#pi-citi-clip0_10420_219339)"><path opacity=".07" d="M35 0H3C1.3 0 0 1.3 0 3v18c0 1.7 1.4 3 3 3h32c1.7 0 3-1.3 3-3V3c0-1.7-1.4-3-3-3z" fill="#000"/><path d="M35 1c1.1 0 2 .9 2 2v18c0 1.1-.9 2-2 2H3c-1.1 0-2-.9-2-2V3c0-1.1.9-2 2-2h32z" fill="#fff"/><path d="M7.121 14.24c0-2.45 2.006-4.357 4.62-4.357 1.513 0 2.894.674 3.683 1.693l-1.135 1.135a3.249 3.249 0 00-2.531-1.25c-1.562 0-2.812 1.168-2.812 2.779 0 1.628 1.25 2.795 2.812 2.795a3.293 3.293 0 002.614-1.299l1.117 1.102c-.756 1.069-2.203 1.775-3.748 1.775-2.614 0-4.62-1.907-4.62-4.373zm11.64-4.061H16.97v8.138h1.792V10.18zM22.1 16.13v-4.438h-1.957v-1.513h2.038V8.436l1.677-.822v2.565h2.664v1.513h-2.664v4.143c0 .822.46 1.184 1.332 1.184a3.16 3.16 0 001.315-.28v1.546a3.906 3.906 0 01-1.644.328c-1.595 0-2.762-.871-2.762-2.482zm7.628-5.951h-1.792v8.138h1.792V10.18z" fill="#255BE3"/><path d="M23.332 5a9.171 9.171 0 017.514 3.88h-2.088a7.296 7.296 0 00-10.852 0H15.82A9.17 9.17 0 0123.332 5z" fill="#FF3C28"/></g><defs><clipPath id="pi-citi-clip0_10420_219339"><path fill="#fff" d="M0 0h38v24H0z"/></clipPath></defs></svg>