<svg xmlns="http://www.w3.org/2000/svg" role="img" viewBox="0 0 38 24" width="38" height="24" aria-labelledby="pi-citipay"><title id="pi-citipay">Citi Pay</title><rect x=".99" y=".99" width="36" height="22" rx="2" ry="2" fill="#fff"/><path d="M34.99.99c1.1 0 2 .9 2 2v18c0 1.1-.9 2-2 2h-32c-1.1 0-2-.9-2-2v-18a2 2 0 012-2h32m0-.99h-32C1.33 0 0 1.34 0 2.99v18c0 1.65 1.35 3 3 3h32c1.65 0 3-1.35 3-3v-18A3 3 0 0035 0z" opacity=".07"/><g><rect x="2.01" y="7.74" width="33.98" height="9.34" rx="4.5" ry="4.5" fill="#c3ebfb"/><path d="M5.36 12.52c0-.15.01-.28.03-.42.01-.15.05-.29.09-.43.02-.09.06-.19.1-.28.09-.21.21-.4.35-.58.05-.06.11-.12.16-.18.15-.16.33-.28.52-.39.24-.14.5-.23.77-.29.26-.06.51-.08.78-.07.08 0 .16.01.23.03.11.02.21.03.31.06.19.06.36.13.53.24.22.14.41.31.59.51v.08c-.17.21-.34.42-.52.63l-.02.02s-.03.02-.05 0c-.08-.08-.16-.16-.25-.22-.08-.06-.16-.12-.25-.16-.07-.03-.14-.09-.23-.09a.887.887 0 00-.32-.08c-.15-.02-.3-.01-.46.01-.14.02-.27.06-.39.11-.16.07-.31.17-.43.29a1.644 1.644 0 00-.46.89c-.03.2-.03.4 0 .6.02.11.05.22.08.33.06.18.16.34.28.48.13.16.29.28.47.37.09.04.18.08.27.11.24.06.49.08.73.03.15-.03.3-.08.44-.16.15-.08.29-.18.41-.29.03-.03.06-.07.09-.1h.06c.1.13.2.25.31.37.08.09.15.19.23.28v.06c-.13.15-.27.29-.43.41a2.256 2.256 0 01-.73.36c-.28.08-.57.09-.86.07-.11 0-.21-.02-.32-.04-.07-.01-.14-.03-.21-.05-.1-.03-.2-.05-.3-.09-.15-.06-.29-.13-.42-.21s-.24-.17-.36-.26l-.12-.12c-.19-.19-.34-.41-.45-.65-.04-.09-.09-.19-.11-.28l-.06-.2c-.02-.08-.04-.16-.05-.25 0-.07-.02-.15-.02-.22 0-.09 0-.17-.01-.24zM14.29 8.39v1.52q0 .06.06.06h.95c.06 0 .05 0 .05.05v.89s0 .02-.02.02h-1s-.02.01-.04.04c-.03.04 0 .02 0 .03v2.58c0 .09 0 .18.02.27.03.17.12.28.27.33.1.03.21.03.31.02.15-.02.29-.07.43-.13.08-.04.15-.08.23-.12.01 0 .02-.02.05-.02-.01.05-.02.1-.04.15-.03.1-.05.21-.08.31l-.12.46c0 .03-.02.05-.05.06-.2.12-.42.18-.65.21-.15.02-.29.01-.44 0a.665.665 0 01-.24-.07c-.1-.04-.19-.1-.28-.17-.1-.08-.17-.18-.24-.29a.973.973 0 01-.11-.23c-.02-.07-.04-.14-.05-.21-.03-.14-.03-.27-.03-.41V11c0-.07 0-.06-.06-.06h-.8s-.02 0-.02-.02v-.88q0-.05.05-.05h.77s.07-.02.07-.07V9s.01-.06.04-.07c.11-.06.23-.12.34-.18.09-.05.18-.1.28-.15l.33-.18h.03v-.03z" fill="#002d72"/><path d="M9.75 9.14s0-.03.01-.03c.1-.14.2-.28.31-.41.03-.04.07-.09.11-.12s.07-.08.1-.12c.06-.06.12-.11.18-.17.33-.31.7-.57 1.1-.78.22-.12.45-.21.68-.3.25-.09.5-.16.76-.21.37-.07.75-.1 1.13-.08.19 0 .39.03.58.06a4.476 4.476 0 01.89.24c.13.04.25.09.37.15.5.23.95.52 1.36.89.27.25.51.52.72.81.01.02.03.04.04.06 0 .01-.02 0-.03 0h-1.12s-.04 0-.06-.03c-.05-.05-.1-.1-.15-.14-.2-.19-.42-.36-.65-.5-.13-.08-.27-.16-.41-.23-.1-.05-.21-.09-.31-.13-.16-.05-.31-.11-.47-.15-.38-.09-.76-.13-1.15-.12-.17 0-.34.03-.51.06-.14.02-.29.06-.43.1-.24.07-.48.16-.71.28-.35.18-.67.4-.96.66-.07.06-.12.13-.19.19-.02.02-.03.02-.06.02H9.72h.03z" fill="red"/><path d="M17.45 12.5v2.48c0 .07 0 .06-.06.06h-.92c-.07 0-.06 0-.06-.06V10s0-.04.04-.04h.96s.04 0 .03.03v2.51zM10.43 12.5v-2.48c0-.07 0-.06.06-.06h.94s.04 0 .04.05v4.98c0 .07.01.06-.06.06h-.94s-.02-.01-.04-.04c-.03-.04 0-.02 0-.04V12.5z" fill="#002d72"/><g fill="#002d72"><path d="M23.71 11.48c0 1.18-.75 1.68-1.75 1.68H20.9v1.81h-.96V9.85h2.11c.91 0 1.66.53 1.66 1.62zm-.99.02c0-.45-.28-.65-.7-.65h-1.11v1.32h1.13c.45 0 .69-.22.69-.67zM28.4 14.98h-1.06l-.38-1.14h-1.77l-.38 1.14h-1.04l1.85-5.12h.94l1.84 5.12zm-1.77-2.11l-.31-.93c-.1-.3-.19-.61-.24-.8-.05.19-.14.5-.24.8l-.31.93h1.1zM32.64 9.86l-1.83 3.09v2.03h-.97v-2l-1.83-3.12h1.11l.68 1.21c.17.31.43.81.52 1 .09-.19.35-.68.52-1l.68-1.21h1.12z"/></g></g></svg>