<svg width="38" height="24" viewBox="0 0 38 24" version="1.1" xmlns="http://www.w3.org/2000/svg" aria-labelledby="pi-clerq" role="img"><title id="pi-clerq">Clerq</title><g id="pi-Page-1" stroke="none" stroke-width="1" fill="none" fill-rule="evenodd"><g id="pi-clerq" fill-rule="nonzero"><path d="M35 0H3C1.3 0 0 1.3 0 3v18c0 1.7 1.4 3 3 3h32c1.7 0 3-1.3 3-3V3c0-1.7-1.4-3-3-3z" id="pi-path3" fill="#000" opacity=".07"/><path d="M35 1c1.1 0 2 .9 2 2v18c0 1.1-.9 2-2 2H3c-1.1 0-2-.9-2-2V3c0-1.1.9-2 2-2h32" id="pi-path5" fill="#FFF"/><g id="pi-g285" transform="translate(13 3)" fill="#000"><path d="M9.699 4H8.572c-.153 0-.283-.13-.303-.303-.138-.985-.886-1.71-1.764-1.711-.878 0-1.626.724-1.765 1.709-.022.172-.15.3-.304.303H3.308a.288.288 0 01-.217-.101.373.373 0 01-.09-.246c-.002-.01 0-.02 0-.03C3.17 1.569 4.685 0 6.499 0c1.813 0 3.33 1.566 3.5 3.618.014.19-.11.357-.277.374h-.03L9.7 4z" id="pi-path7"/><rect id="pi-rect9" x="3" y="11" width="6" height="2" rx=".374"/><path d="M12.675 10H11.33a.332.332 0 01-.232-.093.316.316 0 01-.097-.227V6.955H8.33a.324.324 0 01-.328-.318c-.002-.004 0-.004 0-.006V5.319c0-.176.145-.319.327-.319h2.97C12.237 5 13 5.743 13 6.66v3.016c0 .176-.147.32-.328.32l.003.004z" id="pi-path11"/><path d="M1.672 10H.329A.324.324 0 010 9.68V6.663H0c0-.442.18-.865.499-1.177C.818 5.175 1.25 5 1.702 5H4.67a.33.33 0 01.232.09c.062.06.097.14.098.225v1.313a.327.327 0 01-.328.32H2v2.73a.326.326 0 01-.33.321v-.002l.003.003z" id="pi-path13"/><path d="M11.297 18H8.328A.323.323 0 018 17.684v-1.313c0-.177.146-.32.328-.32H11V13.32c0-.177.146-.32.328-.32h1.344c.18 0 .326.14.328.316v3.019c-.001.919-.763 1.663-1.703 1.664V18z" id="pi-path15"/><path d="M4.672 18H1.704C.764 17.997 0 17.253 0 16.334V13.32c0-.177.145-.32.326-.32h1.345a.33.33 0 01.231.091c.062.06.097.14.097.225v2.73h2.672c.087 0 .17.033.232.093s.097.141.097.226v1.319a.327.327 0 01-.328.316z" id="pi-path17"/></g></g></g></svg>