<svg xmlns="http://www.w3.org/2000/svg" viewBox="0 0 38 24" width="38" height="24" role="img" aria-labelledby="pi-cleverpay"><title id="pi-cleverpay">CleverPay</title><path id="pi-cleverpay" opacity=".07" d="M35 0H3C1.3 0 0 1.3 0 3v18c0 1.7 1.4 3 3 3h32c1.7 0 3-1.3 3-3V3c0-1.7-1.4-3-3-3Z"/><path d="M35 1c1.1 0 2 .9 2 2v18c0 1.1-.9 2-2 2H3c-1.1 0-2-.9-2-2V3c0-1.1.9-2 2-2h32Z" fill="#fff"/><path d="M19 21a9 9 0 1 0 0-18 9 9 0 0 0 0 18Z" fill="#3E64FF"/><path d="M17.869 12.85a.197.197 0 0 0 .184.043.2.2 0 0 0 .138-.13l1.364-5.234a.186.186 0 0 0-.135-.228.193.193 0 0 0-.098 0l-5.164 1.384a.194.194 0 0 0-.135.132.185.185 0 0 0 .047.181l3.799 3.852Z" fill="#00F9FF"/><path d="M20.132 11.156a.197.197 0 0 0-.184-.043.2.2 0 0 0-.138.13l-1.364 5.235a.186.186 0 0 0 .135.227.192.192 0 0 0 .098 0l5.164-1.384a.193.193 0 0 0 .135-.132.187.187 0 0 0-.047-.181l-3.799-3.851v-.001Z" fill="#fff"/></svg>