<svg width="38" height="24" viewBox="0 0 38 24" fill="none" xmlns="http://www.w3.org/2000/svg" role="img" aria-labelledby="pi-clickuz"><title id="pi-clickuz">Clickuz</title><g clip-path="url(#pi-clickuz-clip0)"><path d="M35 .5H3A2.5 2.5 0 00.5 3v18A2.5 2.5 0 003 23.5h32a2.5 2.5 0 002.5-2.5V3A2.5 2.5 0 0035 .5z" stroke="#000" stroke-opacity=".07"/><g clip-path="url(#pi-clickuz-clip1)"><path d="M1 1h36v22H1V1z" fill="#FEFEFE"/><path d="M6.732 8.356l.331.023.474.115.592.275.379.229.379.275.26.206.403.367.332.344.26.32.26.367.238.412.165.367.095.298.047.252v.321l-.094.413-.19.458-.237.412-.308.436-.284.32-.166.184-.213.23h-.047v.045l-.19.16-.236.207-.403.298-.426.252-.356.183-.379.137-.402.092h-.38l-.402-.091-.473-.184-.427-.229-.379-.252-.331-.252-.119-.092v-.046l-.094-.046-.474-.458-.166-.183-.284-.344-.284-.412-.213-.367-.143-.321-.118-.412-.024-.138v-.32l.095-.413.142-.367.19-.367.331-.48.26-.322.214-.229.166-.183.331-.321.26-.206.332-.252.403-.252.403-.207.426-.16.474-.092z" fill="#0764FF"/><path d="M29.871 8.38h1.61l.024.022.024 4.423.26-.32.285-.322.26-.32.26-.298.474-.573h1.943l-.095.137-.26.298-.261.32-.332.39-.924 1.1-.07.092.023.092.26.298.214.252.26.298.213.252.261.298.213.252.26.298.214.252.331.39.143.16v.046l-1.54.023-.426-.023-.308-.344-.213-.252-.26-.298-.214-.252-.26-.298-.214-.252-.26-.298-.213-.252v-.046h-.071l.023.046v2.246l-.047.023H29.87V8.38zM26.271 10.877h.521l.45.069.497.16.356.184.308.229.308.298.236.343.19.367.166.458v.046h-1.706l-.213-.32-.047-.092-.095-.046-.118-.092-.237-.114-.308-.046-.355.023-.26.091-.214.138-.166.16-.19.367-.07.344v.343l.07.321.12.275.165.207.166.137.26.115.166.045h.45l.308-.091.213-.138.19-.206.165-.252.024-.023h1.658l.024.069-.166.458-.19.367-.213.298-.213.229-.237.206-.331.206-.427.184-.45.114-.19.023h-.733l-.498-.091-.473-.184-.356-.206-.26-.206-.26-.252-.238-.321-.19-.367-.141-.39-.071-.412v-.573l.07-.412.12-.344.189-.367.165-.252.214-.229.118-.115.237-.206.331-.206.308-.138.38-.114.473-.069zM15.163 10.877h.521l.474.069.426.137.38.184.283.206.237.206.19.206.26.413.119.252.142.39v.091h-1.682l-.166-.252-.213-.229-.237-.138-.213-.068-.355-.023-.284.046-.237.091-.237.184-.166.229-.118.275-.048.229v.481l.095.344.166.298.213.206.284.138.166.045h.474l.308-.091.26-.183.237-.298.047-.115.048-.023h1.658l.023.046-.165.458-.19.367-.166.252-.284.32-.284.23-.355.206-.356.138-.331.091-.284.046h-.758l-.474-.091-.379-.138-.355-.183-.284-.207-.237-.206-.26-.32-.214-.344-.166-.436-.095-.458v-.642l.048-.32.118-.367.142-.298.143-.252.26-.321.213-.206.355-.252.403-.207.355-.114.332-.069.213-.023zM18.787 8.38h1.61v7.837l-.023.023h-1.587l-.024-.023V8.402l.024-.023zM21.392 10.992h1.61l.024.045v4.148l-.023 1.055h-1.61l-.025-.023v-5.202l.024-.023z" fill="#010000"/><path d="M6.708 10.785h.19l.284.07.379.205.307.252.237.253.237.343.119.321v.275l-.119.298-.213.32-.284.299-.237.206-.332.206-.331.115h-.26l-.356-.138-.26-.16-.285-.252-.213-.206-.213-.298-.142-.298-.024-.092v-.275l.095-.275.166-.252.19-.23.33-.32.309-.206.236-.115.19-.046z" fill="#FEFEFE"/><path d="M22.079 8.31h.213l.284.07.26.137.19.183.142.252.048.183v.344l-.071.23-.142.229-.213.183-.237.114-.166.046h-.403l-.308-.114-.236-.184-.166-.229-.095-.275v-.344l.095-.275.165-.229.19-.16.308-.138.142-.023z" fill="#010000"/></g></g><defs><clipPath id="pi-clickuz-clip0"><path fill="#fff" d="M0 0h38v24H0z"/></clipPath><clipPath id="pi-clickuz-clip1"><rect x="1" y="1" width="36" height="22" rx="2" fill="#fff"/></clipPath></defs></svg>