<svg width="38" height="24" viewBox="0 0 38 24" aria-labelledby="pi-clip" role="img" fill="#fff" xmlns="http://www.w3.org/2000/svg"><title id="pi-clip">Clip</title><rect x=".5" y=".5" width="37" height="23" rx="2.5" stroke="0000" stroke-opacity=".07"/><path fill-rule="evenodd" clip-rule="evenodd" d="M29.5 5.034A3.55 3.55 0 0025.948 1.5c-.486 0-.962.092-1.37.274L11.64 7.27A5.142 5.142 0 008.5 12v6.95a3.55 3.55 0 004.952 3.262l12.882-5.47A5.143 5.143 0 0029.5 12V5.034z" fill="#FC4C02"/><path fill-rule="evenodd" clip-rule="evenodd" d="M17.597 14.79c-.15 0-.273-.136-.273-.303v-6.39c0-.168.122-.303.273-.303.15 0 .273.135.273.303v6.39c0 .167-.122.303-.273.303zM19.971 14.504V9.508c0-.17-.122-.307-.274-.307-.15 0-.272.137-.272.307v4.996c0 .17.122.307.272.307.152 0 .274-.137.274-.307zM19.971 8.075v-.016a.27.27 0 00-.274-.265.269.269 0 00-.272.265v.016c0 .146.122.265.272.265a.27.27 0 00.274-.265zM15.7 14.116a.304.304 0 000-.433.31.31 0 00-.437 0 2.3 2.3 0 01-3.23 0 2.256 2.256 0 010-3.205 2.278 2.278 0 011.615-.664c.61 0 1.184.236 1.615.664.12.12.316.12.437 0a.305.305 0 000-.434 2.893 2.893 0 00-2.052-.843c-.775 0-1.503.3-2.051.843a2.867 2.867 0 000 4.072 2.903 2.903 0 002.051.842c.743 0 1.486-.28 2.052-.842zM22.138 16.039v-3.965a2.266 2.266 0 014.531 0 2.266 2.266 0 01-2.265 2.26c-.72 0-1.208-.274-1.212-.276a.307.307 0 00-.31.528c.025.014.627.36 1.522.36a2.878 2.878 0 002.878-2.872 2.878 2.878 0 00-5.757 0v3.965a.306.306 0 00.613 0z" fill="#fff"/><path fill-rule="evenodd" clip-rule="evenodd" d="M29.446 18.067a.882.882 0 11-1.764 0 .882.882 0 011.764 0zm-.139 0a.75.75 0 00-.743-.753.748.748 0 00-.741.753c0 .415.331.753.74.753a.75.75 0 00.744-.753zm-.373.483h-.156l-.222-.395h-.146v.395h-.134v-.968h.329c.168 0 .305.127.305.29 0 .142-.088.23-.207.266l.231.412zm-.16-.678c0-.097-.076-.17-.184-.17h-.18v.338h.18c.108 0 .183-.07.183-.168z" fill="#FC4C02"/></svg>