<svg xmlns="http://www.w3.org/2000/svg" role="img" viewBox="0 0 38 24" width="38" height="24" aria-labelledby="pi-cliq"><title id="pi-cliq">CliQ</title><path opacity=".07" fill="#000" d="M35 0H3C1.3 0 0 1.3 0 3v18c0 1.7 1.4 3 3 3h32c1.7 0 3-1.3 3-3V3c0-1.7-1.4-3-3-3z"/><path fill="#fff" d="M35 1c1.1 0 2 .9 2 2v18c0 1.1-.9 2-2 2H3c-1.1 0-2-.9-2-2V3c0-1.1.9-2 2-2h32"/><g clip-rule="evenodd" fill-rule="evenodd"><path d="M25.902 6.275c1.572-.053 2.963.418 4.169 1.41 1.286 1.123 1.989 2.539 2.112 4.25a6.025 6.025 0 01-.989 3.647c.438.316.879.627 1.323.935a.156.156 0 01.046.045c-.39.564-.785 1.124-1.185 1.681l-1.63-1.146c-1.418 1.01-2.987 1.36-4.708 1.05-1.493-.308-2.702-1.063-3.627-2.265-1.026-1.399-1.398-2.958-1.114-4.676.31-1.615 1.13-2.898 2.457-3.85a5.995 5.995 0 013.146-1.081zm.138 1.746c1.325-.017 2.433.458 3.327 1.423.929 1.09 1.253 2.341.97 3.753-.334 1.349-1.126 2.324-2.374 2.927a4.243 4.243 0 01-5.888-4.857c.345-1.315 1.128-2.267 2.35-2.858a4.34 4.34 0 011.615-.388z" opacity=".996" fill="#121721"/><path d="M28.41 10.482c.037 0 .053.018.05.054-.687.865-1.373 1.731-2.054 2.6a.043.043 0 01-.043.011l-1.111-1.704c-.002-.053.023-.07.073-.05.311.178.622.358.93.54.055.034.106.03.155-.016a347.55 347.55 0 012-1.435z" opacity=".982" fill="#121723"/><path d="M10.415 6.34a8.41 8.41 0 012.087.183c.363.079.71.206 1.039.38a.03.03 0 01.008.016l-.447 1.477c-.009.009-.017.01-.027.004a4.678 4.678 0 00-1.644-.48 5.365 5.365 0 00-2.095.163c-1.126.35-1.903 1.076-2.331 2.175-.15.404-.25.82-.295 1.249a6.127 6.127 0 00.148 2.218 3.64 3.64 0 001.113 1.835c.447.375.975.638 1.544.769a5.47 5.47 0 001.629.116 5.678 5.678 0 001.613-.334l.396-.174c.12.487.24.975.365 1.462a.042.042 0 01-.009.023 4.352 4.352 0 01-1.116.395 9.053 9.053 0 01-2.848.156 5.658 5.658 0 01-2.381-.83 4.968 4.968 0 01-1.982-2.556 7.063 7.063 0 01-.365-2.49A6.386 6.386 0 015.5 9.28c.763-1.404 1.92-2.313 3.472-2.726.472-.12.956-.191 1.443-.213z" opacity=".995" fill="#121721"/><path d="M14.785 6.632h1.65v11.161h-1.65V6.632zm3.676.535a.99.99 0 01.876.39c.198.313.236.643.112.993a.95.95 0 01-.732.582.997.997 0 01-.928-.296 1.057 1.057 0 01-.174-1.06.945.945 0 01.628-.568 1.65 1.65 0 01.218-.04zm-.768 2.907h1.686v7.717h-1.686v-7.717z" fill="#121721"/></g></svg>