<svg xmlns="http://www.w3.org/2000/svg" role="img" width="38" height="24" viewBox="0 0 38 24" aria-labelledby="pi-cmb"><title id="pi-cmb">Caribbean Mercantile Bank</title><path opacity=".07" d="M35 0H3C1.3 0 0 1.3 0 3v18c0 1.7 1.4 3 3 3h32c1.7 0 3-1.3 3-3V3c0-1.7-1.4-3-3-3z"/><path fill="#fff" d="M35 1c1.1 0 2 .9 2 2v18c0 1.1-.9 2-2 2H3c-1.1 0-2-.9-2-2V3c0-1.1.9-2 2-2h32"/><g fill="none" fill-rule="nonzero"><path fill="#193B66" d="M12.23 3.875v13.541c0 .745.609 1.355 1.354 1.355h4.254a.65.65 0 01.582.35l.004.005.576.999.577-.999c0-.002.002-.003.003-.005a.677.677 0 01.592-.35h4.245a1.36 1.36 0 001.354-1.355V3.876H12.229z"/><path fill="#fff" d="M14.334 9.81s.164.109.362.262c.164-.176-.051-.358-.051-.358s.036-.038.134-.156c.097-.118.183-.305.183-.305a9.544 9.544 0 01-.216-.196.157.157 0 00-.242.066c-.017.043-.209.451-.231.508a.147.147 0 00.06.18m6.545-3.443a.21.21 0 10.13-.4.21.21 0 00-.13.4m.142.464c.08.003.209.023.258.118.06.115-.17.367-.369.514l.26.083c.044-.038.092-.083.138-.134.2-.218.258-.41.175-.57-.087-.167-.26-.22-.389-.236l-.073.225zm.388.792l.26.084a1.83 1.83 0 00.138-.134c.2-.218.259-.41.175-.57a.399.399 0 00-.06-.086l-.21-.067-.053.166a.208.208 0 01.12.094c.06.115-.171.367-.37.513m-1.488-.658c.008.068.02.133.033.19l.26.083c-.075-.235-.115-.574 0-.632.096-.048.213.011.279.055l.072-.225c-.113-.063-.285-.12-.454-.036-.16.082-.225.272-.19.565m-.466.028l.26.084c-.075-.235-.116-.573 0-.632a.204.204 0 01.153-.006l.053-.167-.21-.067a.397.397 0 00-.099.035c-.16.08-.225.27-.19.564.008.068.02.133.033.19m.998.321l.267-.83.22.072-.268.829zm-1.077 6.892c-.59-.386-1.018-1.055-1.018-1.055-1.786 1.088-1.392 2.603-1.392 2.603.019.33.584.135.305.686-.12.236-.803.228-1.24.361-.23.07-.266.35-.17.477.048.065.11.136.278.136-.01-.018-.041-.17.127-.278.003.003-.06.171.033.278h1.905c.5 0 .287-.66.164-.695-.115-.032-.227-.141-.234-.368-.025-.922.537-1.608 1.267-1.703.058-.007.125-.016.133-.046.043-.163-.026-.266-.11-.355l-.048-.041z"/><path fill="#fff" d="M23.545 9.662c.029.106-.082.466-.445.292a.552.552 0 00-.82.478c-.385.003-.789.395-.335 1.717.608 1.77-.379 1.692-.494 1.653-.066-.558-.184-.729-.506-1.057-.296-.302-.72-.634-.291-1.19-.047.145-.056.42.36.664-.173-.515.31-.6-.1-1.315.215 0 .349.173.321.368a.982.982 0 00.048-1.215c.266-.075.401.036.494.113a.725.725 0 00-.297-.947c.168-.147.391-.1.47.062.125-.505-.316-.714-.5-.714a.455.455 0 00.19-.188.422.422 0 00.024-.344.426.426 0 00-.407-.275.462.462 0 00-.137.021l-1.737-.557c-.167.035-.114.203-.072.22-.534.138-1.17.291-1.382.34-.223.052-.224.242-.187.32 0 0 .074-.063.15.016 0 0-.17.084-.17.295 0 .045.034.425.485.327.25-.054.415-.093.54-.05.302.106.295.75-.415.566-.506-.13-.734.126-.651.59.188-.233.428-.335 1.37-.058-.037.084-.03.076-.05.145-1.265-.289-1.012.384-3.002.002-.05-.19-.161-.413-.304-.438-.318-.057-.568-.22-.619-.122-.114.222-.209.33-.209.33.208.233.32-.019.337-.01.046.021.089.043.089.043-.05.257-.354.469-.354.469.142.142.469.33.645.328.175-.002.248-.065.248-.065l1.839.79.2-.287c-.04.482.008.644.116 1.009l-1.455.571-.123-.083.554-.388c.03.051.056.103.078.156l.341-.585-.612.111.089-.615-.526.332-.148-.604-.363.505-.364-.505-.147.604-.526-.332.09.616-.613-.11.341.584c.022-.053.049-.105.078-.156l.39.273a.125.125 0 00-.027.085 2.197 2.197 0 00.112.637l-.856.6a1.575 1.575 0 00.127.18l.941-.658.024.006-.632.974a1.598 1.598 0 00.186.12l.659-1.015-.23 1.188a1.501 1.501 0 00.217.042l.23-1.188.232 1.188a1.552 1.552 0 00.218-.042l-.221-1.133.024-.001.625.96a1.551 1.551 0 00.186-.12l-.567-.873a1.33 1.33 0 00.084-.019l.815.571a1.54 1.54 0 00.127-.182l-.657-.46L19 12.675l-.453.342c.298.462.78.88.957 1.013.29.215.264.47.222.69-.17.89.555 1.16.936 1.126.115-.01.337.131.337.37 0 .534-.448.449-.898.587-.229.07-.266.35-.17.477.116.155.278.136.278.136-.01-.019-.032-.175.127-.278.003.002-.06.171.033.278h.842c.016-.004.463-.114.435-.5-.02-.295-.042-.557.184-.783.339-.338.105-.656.105-.656-.279-.052-.806-.422-.492-1.088 1.262-.105 1.154-1.301.963-1.9-.142-.445-.361-1.055-.358-1.332.007-.643.922-.574.944-.007.363-.102.315-.553.104-.655.67.164.807-.599.448-.833m-4.529-1.715c.123-.042.406-.246.406-.246.25.066.42.426.42.426-.176-.102-.513-.22-.826-.18m-2.277 3.855c.034.033.066.068.097.104l-.61.428.405-.625c.038.03.074.06.108.093m-.557-.32a1.323 1.323 0 01.263.106l-.405.625.142-.731zm-.36-.05c.047 0 .094.003.142.008l-.142.73-.142-.73a1.69 1.69 0 01.142-.008m-.494.097c.043-.018.088-.034.134-.047l.14.721h-.004l-.4-.614c.043-.023.086-.043.13-.06m-.423.274c.034-.033.07-.064.108-.093l.347.534a2.511 2.511 0 00-.052.013l-.5-.35c.03-.037.064-.071.097-.104"/><path fill="#fff" d="M15.28 9.153c.267.13.547.208.827.237l.022-.313a2.158 2.158 0 01-1.313-.64l-.233.21c.195.203.429.375.697.506m1.014-2.08l-.69 1.625c.063.027.126.05.19.07l1.433-3.162.076-.602-.428.43-1.609 3.076c.055.038.112.074.172.106l.856-1.543zm1.596 2.042a.903.903 0 01.477-.012c.216.053.322.027.381-.029.06-.056.046-.185-.042-.23-.117-.058-.409.063-.638.073-.295.014-.795.01-.841-.812-.507.683-.048 1.184.662 1.01"/></g></svg>