<svg xmlns="http://www.w3.org/2000/svg" fill="none" aria-labelledby="pi-codensa" viewBox="0 0 38 24" role="img" width="38" height="24"><title id="pi-codensa">Codensa</title><g clip-path="url(#pi-codensa-clip0_3405_1787)"><path fill="#000" d="M35 0H3C1.3 0 0 1.3 0 3v18a3 3 0 0 0 3 3h32c1.7 0 3-1.3 3-3V3a3 3 0 0 0-3-3z" opacity=".07"/><path fill="#F3CE13" d="M35 1a2 2 0 0 1 2 2v18a2 2 0 0 1-2 2H3a2 2 0 0 1-2-2V3c0-1.1.9-2 2-2h32z"/><path fill="#000" d="M5.95 7.46a1.83 1.83 0 0 0-.9.22c-.26.14-.44.33-.57.57a1.81 1.81 0 0 0-.18.83c0 .23.03.44.1.63.07.2.17.36.3.51.13.14.31.26.53.34.21.07.46.12.74.12.35 0 .72-.07 1.1-.23l.1.38c-.3.17-.73.25-1.27.25a2.7 2.7 0 0 1-.94-.15 1.79 1.79 0 0 1-.68-.42 1.83 1.83 0 0 1-.42-.64 2.28 2.28 0 0 1-.14-.82 2 2 0 0 1 .15-.81c.1-.24.25-.46.44-.63A2 2 0 0 1 5 7.2c.28-.1.6-.15.93-.15.52 0 .96.1 1.31.29l-.21.36a2.43 2.43 0 0 0-1.1-.26l.01.02zm5.95 1.62c0 .3-.04.56-.15.81a1.62 1.62 0 0 1-.42.63c-.18.18-.41.31-.7.42a2.94 2.94 0 0 1-.93.15c-.47 0-.88-.09-1.2-.26a1.71 1.71 0 0 1-.76-.7 2.1 2.1 0 0 1-.25-1.05c0-.62.2-1.12.58-1.48.39-.36.93-.53 1.63-.53s1.22.17 1.6.54c.39.37.58.86.58 1.48l.02-.01zm-3.82 0c0 .5.14.89.42 1.17.27.28.67.43 1.2.43.54 0 .95-.14 1.22-.42.27-.28.4-.68.4-1.17 0-.5-.14-.92-.41-1.2-.27-.28-.68-.42-1.2-.42s-.93.14-1.21.42c-.29.28-.42.68-.42 1.2v-.01zm8.35 0c0 .63-.21 1.11-.64 1.44-.43.33-1.02.5-1.8.5h-1.37V7.13h1.29c.38 0 .73.04 1.04.11.3.08.57.2.8.35.22.16.39.36.51.61a2 2 0 0 1 .18.88zm-.58 0c0-.54-.17-.93-.5-1.18a2.45 2.45 0 0 0-1.46-.37h-.73v3.1h.82a2.2 2.2 0 0 0 1.39-.38c.32-.26.48-.64.48-1.16zm1.4 1.94V7.13h3v.4h-2.46v1.28h2v.4h-2v1.41h2.45v.4h-2.98zm7.81 0h-.66l-2.61-3.06-.17-.18.02.99v2.25h-.55V7.13h.66l2.62 3.06.17.18a55.67 55.67 0 0 1-.03-.97V7.13h.54v3.89h.01zm.87-.64c.48.2 1 .3 1.55.3.67 0 1.02-.26 1.02-.78 0-.17-.06-.3-.16-.41-.1-.11-.3-.19-.6-.24l-.91-.2c-.7-.15-1.05-.46-1.05-.95a.9.9 0 0 1 .45-.83c.3-.18.72-.27 1.26-.27.28 0 .54.03.79.07.24.05.45.13.6.21l-.15.37a2.6 2.6 0 0 0-.56-.17 3.52 3.52 0 0 0-.7-.08c-.76 0-1.14.22-1.14.66 0 .15.06.27.18.36.11.1.29.16.53.2l.88.18c.37.08.66.2.85.37.2.17.3.4.3.7 0 .4-.15.7-.44.9-.29.2-.68.3-1.18.3-.38 0-.7-.03-1-.1a3.08 3.08 0 0 1-.68-.22l.16-.38v.01zm6.98.64-.54-1.23h-1.85l-.56 1.23h-.56l1.79-3.9h.55l1.73 3.9h-.56zM32.2 9.4a77.8 77.8 0 0 1-.73-1.8l-.76 1.8h1.49z"/><path fill="#00559E" d="M24.54 13.93h-.4l-.26.46h.2l.46-.46zm-12.37 1.44h.79v-.22h-.8v-.44H13l.01-.22h-1.1v1.6H13l.01-.21h-.85v-.51zm-3.7-.61a.66.66 0 0 1 .34-.09c.15 0 .3.04.43.1h.02l.12-.17h-.03a.97.97 0 0 0-.54-.13c-.14 0-.26.01-.37.05a.73.73 0 0 0-.47.43.93.93 0 0 0-.01.67.7.7 0 0 0 .45.43c.11.04.24.06.39.06.21 0 .38-.04.51-.1h.02l-.05-.22h-.02a.94.94 0 0 1-.72.06.5.5 0 0 1-.2-.13.77.77 0 0 1-.1-.18.67.67 0 0 1-.05-.25.84.84 0 0 1 .07-.32.48.48 0 0 1 .21-.21zm6.45-.08a.87.87 0 0 0-.33-.14 1.87 1.87 0 0 0-.42-.04h-.54v1.6h.57c.32 0 .56-.07.74-.22.18-.14.26-.33.26-.6a.87.87 0 0 0-.07-.35.63.63 0 0 0-.22-.26v.01zm-1 .03h.26c.24 0 .43.05.56.14.12.1.19.25.19.45s-.06.34-.18.43c-.12.1-.3.15-.54.15h-.29v-1.17zm-.92-.78h-.4l-.26.46h.2l.46-.46zm-2.04 1.49-.05-.09a.45.45 0 0 0 .23-.14.4.4 0 0 0 .1-.27c0-.06 0-.1-.02-.14a.32.32 0 0 0-.06-.12l-.08-.08-.12-.06c-.03 0-.08-.03-.14-.03l-.16-.01h-.8v1.61h.28v-.72h.5c.01.04.06.1.12.21l.26.5h.31l-.32-.58-.06-.08h.02zm0-.51c0 .08-.02.15-.08.19-.06.03-.16.05-.31.05h-.42v-.47h.46c.13 0 .22.02.28.06.06.04.07.1.07.17zm16.54-.42h-.27v1.6h.27v-1.6zm-3.62 0-.73 1.6h.28l.22-.49h.7l.21.5h.29l-.72-1.62h-.25zm.37.9h-.5l.25-.61.24.6h.01zm1.54-.63a.66.66 0 0 1 .34-.09c.15 0 .3.04.43.1h.02l.12-.17h-.03a.96.96 0 0 0-.54-.13c-.14 0-.26.01-.37.05a.73.73 0 0 0-.47.43.98.98 0 0 0-.07.33 1 1 0 0 0 .06.34.7.7 0 0 0 .45.43c.11.04.24.06.38.06.22 0 .39-.04.52-.1h.02l-.05-.22h-.03a.94.94 0 0 1-.71.06.5.5 0 0 1-.2-.13.77.77 0 0 1-.11-.18.7.7 0 0 1-.04-.25.7.7 0 0 1 .08-.32.48.48 0 0 1 .21-.21h-.01zm2.71 1.12V14.5h-.28v1.6h1.08v-.22h-.8zm-12.39-1.39h-.27v1.6h.27v-1.6zm5.7 1.6h.27v-.7h.76v-.2h-.76v-.48h.8v-.22H21.8v1.6zm-5.2-1.38h.57v1.38h.27v-1.38h.58v-.21h-1.41v.21zm2.71-.24c-.28 0-.5.07-.66.22a.78.78 0 0 0-.24.6c0 .16.04.31.1.43.07.13.17.22.31.3.14.06.3.1.5.1.13 0 .27-.02.38-.06a.7.7 0 0 0 .45-.43.97.97 0 0 0 .06-.33.81.81 0 0 0-.24-.6.92.92 0 0 0-.66-.23zm0 .21c.2 0 .36.06.46.16.1.1.15.26.15.45a.69.69 0 0 1-.15.45c-.1.1-.25.16-.46.16-.2 0-.35-.05-.46-.16a.6.6 0 0 1-.16-.45c0-.2.06-.34.16-.45.1-.1.27-.16.46-.16z"/><path fill="#000" d="M34.2 12.5H3v.28h31.2v-.29z"/></g><defs><clipPath id="pi-codensa-clip0_3405_1787"><path fill="#fff" d="M0 0h38v24H0z"/></clipPath></defs></svg>