<svg xmlns="http://www.w3.org/2000/svg" role="img" viewBox="0 0 38 24" width="38" height="24" aria-labelledby="pi-cofidis4x"><title id="pi-cofidis4x">Cofidis en 4 fois</title><path fill="#000" opacity=".07" d="M35 0H3C1.3 0 0 1.3 0 3v18c0 1.7 1.4 3 3 3h32c1.7 0 3-1.3 3-3V3c0-1.7-1.4-3-3-3z"/><path fill="#fff" d="M35 1c1.1 0 2 .9 2 2v18c0 1.1-.9 2-2 2H3c-1.1 0-2-.9-2-2V3c0-1.1.9-2 2-2h32"/><path fill-rule="nonzero" d="M8.4 4.2h22.9c.4 0 .8.4.8.8v4.5c0 2.5-2 4.5-4.5 4.5H8.4c-2.7 0-4.9-2.2-4.9-4.9s2.2-4.9 4.9-4.9z" fill="#fecb05"/><path fill-rule="nonzero" fill="#d0103b" d="M10.8 4.2h22.9c.4 0 .8.4.8.8v4.5c0 2.5-2 4.5-4.5 4.5H10.8c-2.7 0-4.9-2.2-4.9-4.9s2.2-4.9 4.9-4.9zM11.9 18.2c0 .1-.1.3-.2.4-.1.1-.3.2-.5.2h-.3c-.7 0-1-.5-1-1.1s.3-1.2 1-1.2c.2 0 .4 0 .6.1.1.1.3.2.4.3l.5-.2c-.3-.4-.7-.6-1.3-.6-1 0-1.6.6-1.6 1.5s.5 1.5 1.6 1.5c.7 0 1.4-.3 1.5-1l-.7.1zM14 19.2c-.9 0-1.3-.4-1.3-1.1S13.2 17 14 17s1.3.4 1.3 1.1-.4 1.1-1.3 1.1zm0-1.9c-.5 0-.9.3-.9.8s.3.8.9.8.9-.3.9-.8-.4-.8-.9-.8zM16.3 19.2h-.4v-1.8h-.5V17h.5v-.1c0-.6.2-.8.8-.8h.4v.3h-.3c-.3 0-.4.1-.4.5v.1h.6v.3h-.7v1.9zM21.5 16.6h-.4v-.4h.4v.4zM21.5 19.2h-.4v-1.9l.4-.2v2.1zM17.8 16.6h-.4v-.4h.4v.4zM17.8 19.2h-.4v-1.9l.4-.2v2.1zM23 19.2c-.5 0-.9-.2-1-.5l.4-.2c0 .2.3.4.7.4.4 0 .7-.1.7-.4 0-.2-.3-.2-.7-.3-.5-.1-1-.2-1-.6 0-.4.4-.7 1-.7.4 0 .8.1 1 .4l-.4.2c-.1-.2-.3-.3-.6-.3-.4 0-.6.1-.6.3 0 .1.1.2.4.3l.7.1c.4.1.6.3.6.6-.1.5-.4.8-1.2.7zM19.3 19.2c-.6 0-1.2-.5-1.2-1.1 0-.6.5-1.2 1.1-1.2h.1c.3 0 .7.1.9.3v-1l.4-.2v3h-.4v-.3c-.2.4-.6.6-.9.5zm.1-1.9c-.5 0-.8.3-.8.8s.3.8.8.8.8-.3.8-.8-.3-.8-.8-.8z"/><g><path fill-rule="nonzero" fill="#d0103b" d="M26.3 16.2h-.9c-.1 0-.2.1-.2.2v2.5c0 .1.1.2.2.2s.2-.1.2-.2v-.8h.7c.7 0 1.2-.4 1.2-1s-.6-.9-1.2-.9zm-.1 1.6h-.7v-1.2h.7c.4 0 .7.2.7.6 0 .3-.3.6-.7.6zM29.5 17.8c0-.3-.1-.5-.2-.7s-.4-.2-.7-.2c-.3 0-.5 0-.7.1 0 0-.1.1-.1.2s.1.2.2.2h.1c.2-.1.3-.1.5-.1.4 0 .6.2.6.6v.1h-.1c-.2 0-.3-.1-.6-.1-.6 0-.9.2-.9.7 0 .5.4.7.8.7.3 0 .5-.1.7-.3l.1-.1v.1c0 .1.1.2.2.2s.2-.1.2-.2l-.1-1.2zm-.4.5c0 .3-.3.6-.7.6-.3 0-.5-.2-.5-.4 0-.3.2-.4.6-.4.2 0 .4 0 .5.1l.1.1zM31.9 17.2v-.1c0-.1-.1-.2-.2-.2s-.2 0-.2.2l-.6 1.7-.7-1.7c0-.1-.1-.2-.2-.2s-.2.1-.2.2v.1l.9 1.9v.1c-.1.2-.2.3-.4.3h-.2-.1c-.1 0-.2.1-.2.2s.1.1.1.2c.1 0 .2.1.3.1.3 0 .5-.2.7-.6l1-2.2z"/></g><g><path fill-rule="nonzero" fill="#fff" d="M13.9 10.6H12c-.3 0-.5-.2-.5-.5 0-.2.1-.4.2-.6l2-2.3c.3-.2.4-.3.7-.3.3 0 .5.2.5.5v2.4h.2c.2 0 .4.2.4.4s-.2.4-.4.4h-.2v.6c0 .3-.2.5-.5.5s-.5-.2-.5-.5v-.6zm0-.8V8.4l-1.2 1.4h1.2zM16.1 10.9l.9-1.1-.8-1c-.1-.1-.2-.2-.2-.3 0-.3.2-.5.5-.5.2 0 .3.1.5.3l.7.9.7-.9c0-.2.1-.3.3-.3.3 0 .5.2.5.4 0 .1-.1.2-.1.3l-.9 1 .9 1c.1.1.2.3.2.4 0 .3-.2.5-.5.5-.2 0-.3-.1-.5-.3l-.7-.9-.7.9c-.1.1-.3.3-.4.3-.3 0-.5-.2-.5-.4 0-.1 0-.2.1-.3zM19.7 9.3c0-1.3 1-2.4 2.4-2.4.7 0 1.2.2 1.6.5.1.1.2.2.2.4 0 .3-.2.5-.5.5-.1 0-.2 0-.3-.1-.3-.2-.6-.3-.9-.3-.8 0-1.3.6-1.3 1.4 0 .8.5 1.5 1.3 1.5.4 0 .7-.1 1-.4.1-.1.2-.1.3-.1.3 0 .5.2.5.5 0 .2-.1.3-.2.4-.4.4-.9.6-1.6.6-1.5-.1-2.5-1.1-2.5-2.5zM24.6 7.5c0-.3.2-.5.5-.5h1.6c.5 0 .9.1 1.2.4.2.2.3.5.3.8 0 .5-.3.8-.6 1 .5.2.9.5.9 1.1 0 .8-.7 1.3-1.7 1.3h-1.7c-.3 0-.5-.2-.5-.5V7.5zm2 1.4c.4 0 .7-.1.7-.5 0-.3-.2-.5-.7-.5h-1v1h1zm.2 1.8c.4 0 .7-.2.7-.5s-.2-.5-.8-.5h-1.2v1h1.3z"/></g></svg>