<svg xmlns="http://www.w3.org/2000/svg" role="img" viewBox="0 0 38 24" width="38" height="24" aria-labelledby="pi-coop"><title id="pi-coop">Coop</title><path opacity=".07" d="M35 0H3C1.3 0 0 1.3 0 3v18c0 1.7 1.4 3 3 3h32c1.7 0 3-1.3 3-3V3c0-1.7-1.4-3-3-3z"/><path fill="#fff" d="M35 1c1.1 0 2 .9 2 2v18c0 1.1-.9 2-2 2H3c-1.1 0-2-.9-2-2V3c0-1.1.9-2 2-2h32"/><path d="M24.7 4.7c-3.3 0-5.9 1.2-6.8 3.3-.3.7-.6 1.5-.6 5.9v1.8l-1.8-2c-.6.2-1.3.3-2.1.3-2.4 0-3.3-1.5-3.3-3.3 0-1.8.9-3.3 3.3-3.3 1.2 0 2.1.6 2.7 1.2l1.8-3c-1.2-.6-2.7-.9-4.5-.9-4.7 0-7.7 2.7-7.7 6.2 0 3.6 2.7 6.2 7.7 6.2 1.6 0 2.9-.3 3.9-.7v2.8h3.9v-2.7c.9.3 2.1.6 3.3.6 4.7 0 7.7-2.7 7.7-6.2.2-3.6-2.7-6.2-7.5-6.2zm0 9.2c-.6 0-.9 0-1.5-.3l-1.8 2.1v-5.1c0-1.8.9-3.3 3.3-3.3S28 8.8 28 10.6c0 1.8-.9 3.3-3.3 3.3z" fill="#0078d2"/></svg>