<svg xmlns="http://www.w3.org/2000/svg" role="img" viewBox="0 0 38 24" width="38px" height="24px" aria-labelledby="pi-coppelpay"><title id="pi-coppelpay">Coppel Pay</title><g fill-rule="nonzero" fill="none"><path d="M35 0H3C1.3 0 0 1.3 0 3v18c0 1.7 1.4 3 3 3h32c1.7 0 3-1.3 3-3V3c0-1.7-1.4-3-3-3z" fill="#000" opacity=".07"/><path d="M35 1c1.1 0 2 .9 2 2v18c0 1.1-.9 2-2 2H3c-1.1 0-2-.9-2-2V3c0-1.1.9-2 2-2h32z" fill="#FFF"/><g><path d="M29.557 9.98h-7.275a.244.244 0 00-.172.071.24.24 0 00-.07.171v5.36c0 .133.108.241.242.241h7.275a.241.241 0 00.242-.24v-5.36a.24.24 0 00-.07-.172.244.244 0 00-.172-.07z" fill="#195FA7"/><path d="M34.824 10.72l-8.283-4.672c-.153-.086-.335-.054-.408.071l-2.903 5.06c-.071.125-.006.296.146.382l8.284 4.671c.153.086.335.054.408-.071l2.904-5.059c.07-.125.004-.296-.148-.383z" fill="#FD4A5C"/><path d="M33.985 10.312l-8.927-3.305c-.164-.061-.339 0-.39.135l-2.055 5.453c-.051.135.04.294.205.355l8.927 3.305c.164.061.339 0 .39-.134l2.056-5.45c.05-.137-.042-.296-.206-.359z" fill="#6AAAE4"/><path d="M32.871 10.06L23.47 8.517c-.173-.03-.332.063-.356.206l-.96 5.741c-.025.142.096.28.271.31l9.402 1.544c.173.029.333-.063.357-.206l.96-5.74c.022-.143-.1-.283-.272-.31z" fill="#F18A00"/><path d="M31.888 9.98h-9.53c-.176 0-.318.117-.318.262v5.819c0 .144.142.261.317.261h9.53c.176 0 .318-.117.318-.261v-5.82c0-.144-.142-.26-.317-.26z" fill="#195FA7"/><path d="M31.888 9.98h-9.53c-.176 0-.318.117-.318.262v5.819c0 .144.142.261.317.261h9.53c.176 0 .318-.117.318-.261v-5.82c0-.144-.142-.26-.317-.26z" fill="#195FA7"/><path d="M23.735 13.007h-.487v-1.28h.487c.336 0 .677.22.677.639 0 .42-.34.64-.677.64m0-1.868H22.65v3.506h.598v-1.049h.487c.725 0 1.272-.528 1.272-1.229 0-.701-.547-1.23-1.272-1.23M26.609 14.106h-.014a.75.75 0 01-.765-.767.75.75 0 01.765-.767h.014a.75.75 0 01.765.767.75.75 0 01-.765.767m-.007-2.069c-.742 0-1.357.53-1.36 1.303-.002.773.616 1.302 1.36 1.302.273.002.542-.074.772-.22v.18h.585V13.34c0-.767-.615-1.303-1.359-1.303M30.259 12.037v1.368a.613.613 0 01-.615.593.613.613 0 01-.616-.593v-1.368h-.589v1.368a1.203 1.203 0 001.84 1.013.823.823 0 01-1.49.184h-.59a1.36 1.36 0 001.5.911 1.351 1.351 0 001.151-1.319v-2.156h-.591z" fill="#FFE939"/><path d="M7.942 11.87c-.78 0-1.426.555-1.426 1.366 0 .81.647 1.367 1.426 1.367.779 0 1.424-.556 1.425-1.367.001-.811-.646-1.367-1.425-1.367zm.007 2.171h-.015a.787.787 0 01-.804-.805c0-.442.329-.805.804-.805h.015c.476 0 .804.363.804.805a.786.786 0 01-.804.804v.001zM5.913 13.56c-.345.41-.913.564-1.42.383a1.273 1.273 0 01-.85-1.191 1.273 1.273 0 01.838-1.2 1.291 1.291 0 011.424.37l.448-.389a1.923 1.923 0 00-1.447-.646c-1.053 0-1.906.832-1.906 1.858 0 1.026.853 1.858 1.906 1.858a1.921 1.921 0 001.452-.653l-.445-.39zM14.111 11.866c-.78 0-1.428.562-1.428 1.369v2.483h.616V14.37c.242.153.525.233.812.231.78 0 1.427-.557 1.428-1.369.001-.811-.648-1.366-1.428-1.366zm.007 2.175h-.016a.788.788 0 01-.805-.809c0-.444.328-.808.805-.808h.015c.476 0 .804.364.804.808a.786.786 0 01-.803.808zM11.025 11.866c-.78 0-1.427.562-1.427 1.369v2.483h.615V14.37c.243.153.525.233.812.231.78 0 1.427-.557 1.428-1.369.001-.811-.647-1.366-1.428-1.366zm.008 2.175h-.015a.788.788 0 01-.805-.809c0-.444.329-.808.805-.808h.015c.476 0 .804.364.804.808a.787.787 0 01-.804.808zM17.015 11.866c-.722 0-1.322.557-1.322 1.369 0 .812.6 1.369 1.322 1.369.435 0 .894-.135 1.136-.473l-.363-.36a.907.907 0 01-.699.294c-.474 0-.791-.277-.791-.67h2.03c.006-.054.009-.108.009-.161 0-.811-.514-1.368-1.322-1.368zm-.705 1.096c0-.243.317-.574.743-.574.28 0 .653.21.653.574H16.31zM19.184 13.235v-2.307h-.616v2.307c0 .803.635 1.356 1.405 1.368v-.563a.787.787 0 01-.79-.805z" fill="#165B96"/><path d="M31.598 14.365a.291.291 0 01-.497.218.296.296 0 01.205-.505.285.285 0 01.292.287zm-.512 0a.22.22 0 00.225.213.22.22 0 00.215-.224.22.22 0 00-.22-.219.22.22 0 00-.218.23h-.002zm.175.15h-.066v-.287a.544.544 0 01.11-.009.182.182 0 01.098.021.08.08 0 01.028.063.073.073 0 01-.059.067v.003a.085.085 0 01.052.07.21.21 0 00.021.072h-.071a.249.249 0 01-.023-.07c-.005-.032-.022-.046-.059-.046h-.031v.116zm0-.136h.037c.043 0 .077-.016.077-.054 0-.039-.022-.06-.071-.06a.16.16 0 00-.043.004v.11z" fill="#FFE939"/></g></g></svg>