<svg xmlns="http://www.w3.org/2000/svg" role="img" viewBox="0 0 38 24" width="38" height="24" aria-labelledby="pi-credix"><title id="pi-credix">Credix</title><path fill="#000" opacity=".07" d="M35 0H3C1.3 0 0 1.3 0 3v18c0 1.7 1.4 3 3 3h32c1.7 0 3-1.3 3-3V3c0-1.7-1.4-3-3-3z"/><path fill="#fff" d="M35 1c1.1 0 2 .9 2 2v18c0 1.1-.9 2-2 2H3c-1.1 0-2-.9-2-2V3c0-1.1.9-2 2-2h32"/><path fill="#e42313" d="M12.28 7.26c-2.11 0-3.83 1.67-3.91 3.77 0 .05-.01.09-.01.14 0 1.35-1.1 2.45-2.45 2.45s-2.45-1.1-2.45-2.45c0-.4-.33-.73-.73-.73s-.73.33-.73.73a3.91 3.91 0 003.91 3.91c2.11 0 3.83-1.67 3.91-3.77 0-.05.01-.09.01-.14 0-1.35 1.1-2.45 2.45-2.45s2.45 1.1 2.45 2.45c0 .4.33.73.73.73s.73-.33.73-.73a3.91 3.91 0 00-3.91-3.91z"/><path fill="#e42313" d="M5.19 9.35c0 .5-.41.91-.91.91s-.91-.41-.91-.91.41-.91.91-.91.91.41.91.91zm2.67 0c0 .5-.41.91-.91.91s-.91-.41-.91-.91.41-.91.91-.91.91.41.91.91z"/><path d="M12.35 15.38a.923.923 0 01-.38-.33.962.962 0 01-.15-.55c0-.33.1-.57.3-.72.2-.16.43-.23.68-.23.23 0 .54.06.92.17.06.02.12 0 .17-.03.05-.04.08-.1.08-.16v-.84c0-.08-.05-.16-.13-.19-.16-.06-.33-.1-.49-.14-.2-.04-.45-.07-.77-.07-.47 0-.86.08-1.19.24-.32.16-.57.35-.74.59-.17.23-.29.47-.36.72s-.1.47-.1.66c0 .2.03.41.1.66.07.25.19.5.36.73.18.24.43.44.75.6.33.16.72.24 1.19.24.21 0 .4-.01.57-.04.17-.03.33-.06.47-.1l.29-.09c.08-.03.13-.1.13-.19v-.84c0-.06-.03-.12-.08-.16a.175.175 0 00-.17-.03c-.18.05-.35.1-.49.13-.19.04-.36.07-.5.07-.15 0-.31-.03-.46-.1m5.2-3.07c-.33 0-.62.12-.86.37-.2.2-.34.4-.44.6v-.7c0-.05-.02-.1-.06-.14a.197.197 0 00-.14-.06h-1.17c-.05 0-.1.02-.14.06-.04.04-.06.09-.06.14v3.89c0 .05.02.1.06.14.04.04.09.06.14.06h1.17c.05 0 .1-.02.14-.06.04-.04.06-.09.06-.14v-1.65c.14-.38.28-.64.43-.77.14-.13.32-.2.52-.2.17 0 .33.06.5.18.05.04.11.05.17.03.06-.02.1-.06.13-.12l.42-1.15c.03-.09 0-.19-.09-.24-.12-.07-.23-.12-.33-.16-.13-.05-.28-.08-.45-.08m5.28 4.03c.07-.03.11-.1.11-.18v-.57c0-.07-.03-.13-.09-.16-.05-.04-.12-.04-.18-.02-.52.21-.99.32-1.43.32-.28 0-.53-.08-.75-.24-.21-.15-.34-.34-.41-.57h2.77c.05 0 .1-.02.14-.06.04-.04.06-.09.06-.14v-.14c0-.53-.1-.97-.31-1.32 0 0-.5-.94-1.81-.96 0 0-1.59-.09-2.17 1.07 0 0-.61 1.05 0 2.27 0 0 .47 1.06 2.18 1.1 0 0 1.29-.04 1.9-.41zm-2.79-2.22c0-.24.08-.44.22-.59.14-.15.34-.24.57-.24h.02c.24 0 .42.08.54.23.12.15.19.35.19.6h-1.55zm7.94-3.27h-1.17c-.05 0-.1.02-.14.06-.04.04-.06.09-.06.14v1.55c-.12-.08-.26-.15-.41-.2-.18-.06-.4-.09-.68-.09-.45 0-.83.11-1.15.32-.31.21-.54.49-.69.83-.15.34-.22.71-.22 1.09 0 .49.1.91.29 1.23.19.33.44.57.74.72.3.15.61.23.92.23.31 0 .55-.04.74-.13.16-.08.31-.17.45-.29v.15c0 .05.02.1.06.14.04.04.09.06.14.06h1.17c.05 0 .1-.02.14-.06.04-.04.06-.09.06-.14v-5.42c0-.05-.02-.1-.06-.14a.197.197 0 00-.14-.06zm-1.37 2.84v1.58c-.1.08-.2.15-.3.2a.98.98 0 01-.42.08.73.73 0 01-.54-.24c-.16-.16-.24-.42-.24-.79 0-.34.08-.6.23-.79.15-.19.34-.29.55-.29.13 0 .24.02.33.06.09.04.22.1.39.2zm2.84-1.68c.1.06.21.09.33.09.17 0 .34-.07.46-.19.13-.12.2-.29.2-.46a.665.665 0 00-.66-.67.66.66 0 00-.46.19c-.13.13-.19.3-.19.47a.665.665 0 00.33.58m.91.36H29.2c-.05 0-.1.02-.14.06-.04.04-.06.09-.06.14v3.89c0 .05.02.1.06.14.04.04.09.06.14.06h1.17c.05 0 .1-.02.14-.06.04-.04.06-.09.06-.14v-3.89c0-.05-.02-.1-.06-.14a.197.197 0 00-.14-.06zm5.59 3.97l-1.48-1.93 1.37-1.72a.18.18 0 00.02-.21.189.189 0 00-.18-.11h-1.21c-.07 0-.13.03-.16.09l-.71 1.04-.7-1.04c-.04-.05-.1-.09-.16-.09h-1.42a.2.2 0 00-.18.11c-.03.07-.03.15.02.21l1.45 1.86-1.41 1.79a.18.18 0 00-.02.21c.03.07.1.11.18.11h1.21c.07 0 .13-.03.16-.09l.74-1.09.74 1.09c.04.05.1.09.16.09h1.42c.07 0 .14-.04.18-.11.03-.07.03-.15-.02-.21z" fill="#696d6f"/></svg>