<svg xmlns="http://www.w3.org/2000/svg" role="img" viewBox="0 0 38 24" width="38" height="24" aria-labelledby="pi-credova"><title id="pi-credova">Credova</title><path opacity=".07" d="M35 0H3C1.3 0 0 1.3 0 3v18c0 1.7 1.4 3 3 3h32c1.7 0 3-1.3 3-3V3c0-1.7-1.4-3-3-3z"/><path fill="#fff" d="M35 1c1.1 0 2 .9 2 2v18c0 1.1-.9 2-2 2H3c-1.1 0-2-.9-2-2V3c0-1.1.9-2 2-2h32"/><path d="M26.193 14.618l-.558.552-1.833-1.812-.615.61-1.743-1.723-.53.527-1.278-1.267-2.528 2.498-.43-.425-1.522 1.504a5.222 5.222 0 01-1.04-3.128 5.372 5.372 0 019.873-2.86l.23.356 4.213-2.668-.231-.354a10.322 10.322 0 10-8.728 15.773 10.623 10.623 0 008.259-4.06c.746-1.112.654-1.385.654-1.385zm-2.392-.654l1.163 1.148h-.383v.717l-.78-.77zm-9.576 2.662l-1.196.444.79-.781v-.784l1.583 1.564zm3.523-.635h-1.074l.385-.382-.385-1.424 2.962 2.923zm5.053.435L21 16.904l-1.364-1.37h1.61l-2.549-1.14 1.955-.33-1.788-.618 1.191-.315-.42-1.021 5.52 5.464zm4.459.232H26.19v-.897h-.545l.545-.538 1.977 1.952z" fill="#021a26"/></svg>