<svg width="38" height="24" viewBox="0 0 38 24" fill="none" xmlns="http://www.w3.org/2000/svg" role="img" aria-labelledby="pi-creditagricole"><title id="pi-creditagricole">Credit Agricole</title><g clip-path="url(#clip0_39_276)"><path opacity=".07" d="M35 0H3C1.3 0 0 1.3 0 3v18c0 1.7 1.4 3 3 3h32c1.7 0 3-1.3 3-3V3c0-1.7-1.4-3-3-3z" fill="#000"/><path d="M35 1c1.1 0 2 .9 2 2v18c0 1.1-.9 2-2 2H3c-1.1 0-2-.9-2-2V3c0-1.1.9-2 2-2h32z" fill="#fff"/><g clip-path="url(#clip1_39_276)"><path d="M22.806 11.413l-1.47-3.74-1.919 4.132c-.648 1.3-2.766 1.677-4.25 1.886l.269-.552L19.727 5h3.347l2.397 4.934 1.05 2.341 2.165 4.697-1.492-.003-1.165-.004c-.488.006-.967-.03-1.17-.548l-.412-1.004-.69-1.695-.951-2.305zM29.276 18.317H7.184v1.908h22.092v-1.908z" fill="#006F4E"/><path d="M30.905 3.73l-.887.472-3.142 1.66s-1.08.588-1.773.733l.005.012-.005-.006c.19.6.386.985.566 1.29.054.093.13.161.22.214a.773.773 0 00.39.117.86.86 0 00.41-.09l4.218-2.277-.002-2.125z" fill="#ED1C24"/><path d="M25.487 9.949l-2.664 1.481c-3.335 1.828-7.68 3.6-11.44 3.283-1.588-.133-2.546-.735-2.455-1.754.104-1.158 1.105-2.382 2.86-3.604 1.342-.936 2.518-1.441 3.136-1.661a7.488 7.488 0 012.241-.45c.18 0 .345.015.472.052l-.012-.063h.002c-.336-2.167-.9-2.46-1.788-2.432-2.49.08-5.617 1.809-7.275 3.808-.89 1.075-1.343 2.362-1.365 3.283-.032 1.407.526 3.323 2.233 4.3 1.898 1.086 4.619 1.015 7.088.454 2.654-.603 4.97-1.754 7.25-2.914l2.766-1.442 4.378-2.524.017-2.742-5.444 2.925z" fill="#009598"/></g></g><defs><clipPath id="pi-creditagricole-clip0_39_276"><path fill="#fff" d="M0 0h38v24H0z"/></clipPath><clipPath id="pi-creditagricole-clip1_39_276"><path fill="#fff" transform="translate(7 3.5)" d="M0 0h24v17H0z"/></clipPath></defs></svg>