<svg xmlns="http://www.w3.org/2000/svg" role="img" viewBox="0 0 38 24" width="38" height="24" aria-labelledby="pi-creditclickpaynlversion"><title id="pi-creditclickpaynlversion">CreditClick (PAY. version)</title><g clip-path="url(#pi-creditclickpaynlversion-a)"><path opacity=".07" d="M35 0H3C1.3 0 0 1.3 0 3v18c0 1.7 1.4 3 3 3h32c1.7 0 3-1.3 3-3V3c0-1.7-1.4-3-3-3Z" fill="#000"/><path d="M35 1c1.1 0 2 .9 2 2v1.776L18.575 22.984c.018.006.38.011.984.016H3c-.401 0-.776-.12-1.09-.326.005.002.01.002.014.002-.07-.035 13.077-13.165 18.879-18.959v-.001c1.647-1.644 2.702-2.697 2.694-2.692H6.133c-.948-.037-2.753-.006-3.08 0h-.049a2.008 2.008 0 0 0-2.003 2.001v3.629l.003-.001v14.371c0 .074.004.146.01.215A1.996 1.996 0 0 1 1 21V3c0-1.1.9-2 2-2h32ZM36.886 21.646c.035-.094.062-.19.082-.288-.022.117-.054.231-.095.34l.014-.052Z" fill="#30A4C0"/><path d="M37.005 4.771v16.213c0 1.1-.963 2.045-2.063 2.045 0 0-16.24-.003-16.367-.045" fill="#DF8A4A"/><path d="M36.934 21.005v.212c0 1.1-.868 1.778-1.968 1.778" fill="#DB8016"/><path d="M23.497 1.024C23.532 1 1.833 22.631 1.924 22.676c-.133 0-.92-.552-.92-1.652v-18c0-1.1.9-2 2-2h20.493Z" fill="#009DC8"/><path d="M6.158 1.025C6.194 1.001.981 6.72 1.001 6.654V3.025c0-1.1.9-2 2-2 0 0 2.12-.043 3.157 0Z" fill="#0097CC"/><path d="M15.34 6.918h1.046c.036.016.073.03.11.04.427.112.858.204 1.279.336.236.093.466.203.686.33a.887.887 0 0 1-.062.095c-.464.466-.926.932-1.399 1.388a.27.27 0 0 1-.22.033 3.196 3.196 0 0 0-1.368-.101 2.999 2.999 0 1 0 2.86 4.75.337.337 0 0 0 .044-.265 5.127 5.127 0 0 1-.196-2.12 5.06 5.06 0 0 1 3.634-4.284c.289-.081.581-.134.88-.202h1.087c.194.042.39.081.583.125.49.109.96.292 1.393.544a.31.31 0 0 1-.038.066c-.48.48-.957.959-1.44 1.432a.24.24 0 0 1-.19.04c-.204-.031-.405-.097-.61-.113a2.979 2.979 0 0 0-3.211 3.43 2.823 2.823 0 0 0 2.154 2.438c1.214.343 2.257 0 3.1-.944.118-.13.22-.28.33-.44.468.486.941.946 1.41 1.408.088.088.04.147-.018.22a5.086 5.086 0 0 1-6.996.99c-.235-.174-.44-.37-.68-.559l-.092.088a5.095 5.095 0 0 1-8.46-2.301c-.098-.363-.138-.744-.206-1.118v-.482c.026-.169.05-.34.081-.512.357-1.98 1.472-3.318 3.347-4.022a10.3 10.3 0 0 1 1.161-.29Z" fill="#fff"/></g><defs><clipPath id="pi-creditclickpaynlversion-a"><path fill="#fff" d="M0 0h38v24H0z"/></clipPath></defs></svg>