<svg xmlns="http://www.w3.org/2000/svg" width="38" height="24" fill="none" aria-labelledby="pi-crediviva" viewBox="0 0 38 24" role="img"><title id="pi-crediviva">Crediviva</title><g fill="none" fill-rule="nonzero" viewBox="0 0 38 24"><rect width="36" height="22" x="1" y="1" fill="#fff" rx="2.5"/><rect width="37" height="23" x="0.5" y="0.5" stroke="#000" stroke-linejoin="round" stroke-opacity="0.07" rx="2.5"/><g fill="#3939FD"><path d="M5.2 13.4c-.1.1-.3.2-.5.2-.2.1-.5.1-.7.1s-.5-.1-.8-.1-.4-.2-.6-.4c-.2-.2-.3-.4-.3-.6s-.1-.4-.1-.6 0-.5.1-.7l.3-.6c.2-.2.3-.3.6-.4s.5-.1.8-.1.5 0 .7.1c.2.1.4.2.5.2l.5-.9c-.3-.2-.6-.3-.9-.4-.5-.1-.9-.1-1.3-.1s-.8.1-1.1.2c0 .2-.3.4-.6.7-.3.2-.5.6-.6.9-.1.3-.2.7-.2 1.1s.1.8.2 1.1.4.6.6.9.6.4.9.6.7.2 1.1.2c.4 0 .8-.1 1.1-.2.3-.1.5-.2.7-.3l-.4-.9zM9.3 11.1c-.1-.1-.3-.2-.5-.3-.2-.1-.4-.1-.6-.1-.4 0-.8.2-1.1.6l-.1-.5H6v4h1.3v-1.9c0-.3.1-.6.2-.8.2-.2.4-.3.6-.3.1 0 .2 0 .3.1s.2.1.4.1M12.2 11c.3.2.6.4.7.7s.2.6.2 1v.5h-2.9c0 .2.1.4.3.5.2.1.4.2.7.2.2 0 .4 0 .6-.1s.3-.1.5-.2l.6.7c-.2.2-.5.4-.8.5-.3.1-.6.2-1 .2s-.8-.1-1.2-.2c-.3-.2-.6-.4-.8-.7s-.1-.9-.1-1.3.1-.8.3-1.1c.2-.3.4-.6.7-.7s.7-.2 1.1-.2.8.1 1.1.2zm-1.6.9c-.1.1-.2.3-.3.5H12c0-.2-.1-.4-.2-.5s-.4-.2-.6-.2-.4.1-.6.2zM17.7 9.2v5.6h-1l-.1-.5c-.3.4-.7.5-1.2.5-.4 0-.7-.1-.9-.2-.3-.2-.5-.4-.6-.7-.1-.3-.2-.6-.2-1s.1-.7.2-1 .4-.5.6-.7c.3-.2.6-.2.9-.2.5 0 .9.1 1.2.4V9.2h1zm-1.5 4.3c.2-.2.2-.4.2-.7s-.1-.5-.2-.7c-.2-.2-.4-.3-.6-.3s-.5.1-.6.3c-.2.2-.2.4-.2.7s.1.5.2.7c.2.2.4.3.6.3s.5-.1.6-.3zM29.9 10.8h1.3l-1.6 4h-1.3l-1.6-4H28l.5 1.2.5 1.4.4-1.4zM35.4 10.9v3.9h-1l-.1-.5c-.3.4-.8.5-1.3.5-.4 0-.7-.1-1-.2-.3-.2-.5-.4-.6-.7-.1-.3-.2-.6-.2-1s.1-.7.2-1c.1-.3.4-.5.6-.7.3-.2.6-.2 1-.2.3 0 .5.1.7.1.2.1.4.2.6.4l.1-.4h1zM34 13.5c.2-.2.3-.4.3-.7s-.1-.5-.3-.7-.4-.3-.7-.3-.5.1-.7.3c-.2.2-.2.4-.2.7s.1.5.2.7c.2.2.4.3.7.3s.5-.1.7-.3zM25 10h1.2v.8H25zM35.8 14H37v.8h-1.2zM25 10.8v4h1.3v-2.9zM18.4 10h1.2v.8h-1.2zM18.4 10.8v4h1.2v-2.9zM23.8 9.2L22.7 12l-.5 1.4-.5-1.5-1.3.1 1.2 2.8h1.3L25 9.2z"/></g></g></svg>