<svg xmlns="http://www.w3.org/2000/svg" role="img" viewBox="0 0 38 24" width="38" height="24" aria-labelledby="pi-cuotas"><title id="pi-cuotas">Cuotas</title><g clip-path="url(#pi-cuotas-a)"><path fill="#000" d="M35 0H3C1.3 0 0 1.3 0 3v18c0 1.7 1.4 3 3 3h32c1.7 0 3-1.3 3-3V3c0-1.7-1.4-3-3-3Z" opacity=".07"/><path fill="#fff" d="M35 1c1.1 0 2 .9 2 2v18c0 1.1-.9 2-2 2H3c-1.1 0-2-.9-2-2V3c0-1.1.9-2 2-2h32Z"/><path fill="#E4002B" fill-rule="evenodd" d="M24.032 9.008h-1.871v1.121h-.65v1.269c.213 0 .426.011.639.015.02.802.011 1.605.015 2.402-.002.187.014.375.046.559.114.634.468 1.072 1.098 1.242.245.06.496.093.749.099.357.019.707-.053 1.06-.156v-1.071c.017.026.03.054.038.083.125.487.437.81.893.992.434.171.882.198 1.334.125.471-.072.866-.285 1.151-.68l.016-.004c.006-.002.015-.003.026-.007v.592h1.809v-3.492c0-.133-.008-.265-.023-.395-.084-.737-.464-1.265-1.17-1.508a3.805 3.805 0 0 0-2.702.06 1.777 1.777 0 0 0-1.114 1.277c-.034.137-.049.278-.072.422h1.744c.168-.426.202-.486.373-.566a.956.956 0 0 1 .687-.038c.324.095.51.543.4.961-.724 0-1.47-.021-2.174.205-.707.225-1.231.677-1.231 1.577 0 .061-.027.088-.08.095-.137.019-.27.054-.403.057-.391.012-.585-.182-.585-.573v-2.139c0-.039 0-.077.004-.13h1.068c0-.407 0-.806-.004-1.201 0-.023-.058-.061-.088-.061-.324-.01-.654-.003-.983-.003V9.008Zm4.411 4.347c.061 0 .087.023.084.083a2.26 2.26 0 0 0 0 .13c.001.064.002.127-.004.19-.038.369-.319.646-.726.692-.163.015-.33.007-.49-.023-.221-.042-.35-.213-.365-.426-.019-.247.08-.425.285-.524.368-.17.82-.122 1.216-.122Z" clip-rule="evenodd"/><path fill="#E4002B" d="M9.614 10.881c.038 0 .08 0 .118-.003l.001-.007c.026-.126-.029-.31-.054-.434-.221-1.102-.847-1.858-1.927-2.212a4.522 4.522 0 0 0-2.261-.144c-1.372.258-2.341 1.026-2.804 2.356-.342.98-.312 1.983-.004 2.968.312.991.962 1.679 1.942 2.033a4.86 4.86 0 0 0 3.021.11c1.136-.319 1.854-1.06 2.116-2.219a3.5 3.5 0 0 0 .06-.347l.028-.182H7.714c-.054.339-.16.643-.414.874-.289.266-.639.346-1.019.339-2.24-.043-2.116-4.422.133-4.306.422.023.768.198.962.593.067.147.115.301.144.46.019.099.05.125.144.125.65-.004 1.3-.004 1.95-.004Z"/><path fill="#E4002B" fill-rule="evenodd" d="M21.06 14.799c.497-.551.695-1.212.695-1.945a12.629 12.629 0 0 1-.008-.133 4.263 4.263 0 0 0-.03-.369c-.122-.87-.551-1.547-1.326-1.965-.916-.494-1.881-.528-2.854-.175a2.572 2.572 0 0 0-1.539 1.46c-.217.509-.27 1.041-.212 1.588.102.996.588 1.729 1.5 2.159.68.323 1.399.376 2.132.25.642-.11 1.201-.383 1.642-.87Zm-1.327-1.147c-.155.448-.494.695-.95.695-.494.004-.836-.22-.988-.684a2.513 2.513 0 0 1-.015-1.55c.148-.479.51-.73 1-.722.494.007.843.266.972.752.135.483.159 1.032-.019 1.509Z" clip-rule="evenodd"/><path fill="#E4002B" d="M13.653 15.598h1.859v-.001c0-1.824 0-3.636-.004-5.452H13.65c0 1.075.008 2.15-.004 3.225-.008.62-.38.966-.996.947-.346-.012-.577-.187-.657-.525a1.749 1.749 0 0 1-.05-.444c-.003-1.03-.003-2.056 0-3.086 0-.103-.03-.129-.128-.129-.54.007-1.08.004-1.62.004-.04 0-.078.003-.117.007v.137c0 1.144 0 2.284.003 3.428-.002.187.014.374.046.558.133.688.502 1.182 1.197 1.383.313.086.64.105.961.054.559-.076 1.004-.339 1.3-.829.012-.02.035-.087.068-.068v.791Zm20.068-3.843h1.676c.004-.011.004-.015-.004-.008-.062-.694-.438-1.294-1.113-1.534a3.747 3.747 0 0 0-.844-.187c-.558-.06-1.113-.027-1.646.183-.535.209-.934.558-1.09 1.136a2.06 2.06 0 0 0-.031.821c.062.441.27.786.67 1.003.116.07.241.125.372.163.604.143 1.247.194 1.824.426.377.154.173.661-.163.703-.152.015-.312.03-.468.023-.327-.019-.513-.183-.585-.498-.015-.08-.049-.106-.129-.106-.498.003-1 .003-1.497.003-.126.002-.123.06-.107.183.088.714.471 1.208 1.14 1.448.893.319 1.798.307 2.698.011.308-.098.579-.286.779-.54.319-.403.388-.87.346-1.363-.054-.632-.399-1.046-.984-1.24-.617-.209-1.283-.269-1.919-.425-.137-.034-.251-.129-.255-.293-.004-.171.072-.308.232-.364.137-.05.285-.08.429-.08.403-.004.518.212.669.535Z"/></g><defs><clipPath id="pi-cuotas-a"><path fill="#fff" d="M0 0h38v24H0z"/></clipPath></defs></svg>
