<svg width="38" height="24" viewBox="0 0 38 24" role="img" aria-labelledby="pi-curacaopay" fill="none" xmlns="http://www.w3.org/2000/svg"><title id="pi-curacaopay">CuracaoPay</title><rect x="1" y="1" width="36" height="22" rx="2" fill="#fff"/><rect x=".5" y=".5" width="37" height="23" rx="2.5" stroke="#000" stroke-opacity=".07"/><path d="M20.607 9.873c0 1.651-1.195 2.651-3.173 2.651h-1.879v2.303H14.47V7.223h2.965c1.977 0 3.173 1 3.173 2.651zm-1.087 0c0-1.086-.728-1.705-2.119-1.705h-1.847v3.41h1.847c1.391 0 2.12-.618 2.12-1.705zM26.126 11.351v3.477h-.989v-.76c-.347.52-.989.825-1.89.825-1.304 0-2.13-.695-2.13-1.695 0-.924.598-1.684 2.315-1.684h1.65v-.207c0-.88-.51-1.39-1.542-1.39-.685 0-1.38.239-1.825.618l-.435-.782c.597-.478 1.456-.74 2.379-.74 1.575 0 2.466.761 2.466 2.336v.002zm-1.044 1.717v-.804h-1.607c-1.032 0-1.325.402-1.325.891 0 .576.478.935 1.271.935.794 0 1.401-.359 1.663-1.02l-.002-.002zM32.611 9.07l-2.792 6.332C29.31 16.62 28.646 17 27.767 17c-.555 0-1.12-.185-1.478-.532l.445-.783c.283.272.642.424 1.032.424.5 0 .816-.229 1.097-.892l.185-.401-2.542-5.748h1.087l2.01 4.607 1.987-4.607h1.021v.001z" fill="#595A5A"/><path d="M7.47 12.137a2.492 2.492 0 01-.244-.817 84.27 84.27 0 01-.94-2.937c-.57.668-.897 1.54-.897 2.542 0 .838.23 1.59.64 2.206.487-.34.977-.679 1.441-.994z" fill="#FFCE06"/><path d="M7.2 10.925c0-1.247.714-2.096 1.728-2.334.099-.324.287-.934.493-1.589-1.317.03-2.418.542-3.135 1.382.252.831.614 1.997.94 2.938a3.076 3.076 0 01-.025-.396v-.001z" fill="#F26727"/><path d="M10.278 7.054A4.99 4.99 0 009.544 7l-.124.003c-.205.655-.393 1.265-.492 1.59.191-.045.392-.069.601-.069.37 0 .721.079 1.039.242.338.174.637.444.875.822l1.38-.804c-.49-.968-1.396-1.557-2.545-1.73z" fill="#C8202F"/><path d="M11.441 12.262c-.042.067-.086.13-.132.19-.456.6-1.088.874-1.78.874-.651 0-1.226-.22-1.642-.623a2.098 2.098 0 01-.418-.566c-.464.315-.955.653-1.44.994.361.543.862.982 1.47 1.282.32.157.67.276 1.044.352.316.065.65.1.999.1.862 0 1.623-.216 2.226-.619a3.12 3.12 0 001.052-1.178l-1.38-.805h.001z" fill="#99CA3C"/></svg>
