<svg xmlns="http://www.w3.org/2000/svg" role="img" viewBox="0 0 38 24" width="38" height="24" aria-labelledby="pi-d_barai"><title id="pi-d_barai">d Barai</title><path d="M0 4a4 4 0 014-4h30a4 4 0 014 4v16a4 4 0 01-4 4H4a4 4 0 01-4-4V4z" fill="#fff"/><path d="M4 .5h30A3.5 3.5 0 0137.5 4v16a3.5 3.5 0 01-3.5 3.5H4A3.5 3.5 0 01.5 20V4A3.5 3.5 0 014 .5z" stroke="#000" stroke-opacity=".07" fill="none"/><path d="M10.637 6v3.916a3.74 3.74 0 00-1.903-.491c-2.635 0-4.034 2.051-4.034 3.989 0 1.934 1.4 3.986 4.034 3.986 1.98 0 2.72-.956 4.098-1.589V6h-2.195zm-3.74 7.412c0-.97.659-1.926 1.881-1.926 1.226 0 1.864.914 1.887 1.877v.099c-.023.963-.661 1.877-1.887 1.877-1.223 0-1.88-.957-1.88-1.927zM15.435 15.765h.11c1.012 0 1.032-.01 1.032-.532v-1.342c-.381.11-.832.22-1.263.32l-.27-1.232c.541-.1 1.072-.24 1.533-.37v-1.744h-1.283V9.662h1.283V8.119h1.191v1.543h1.113v1.203h-1.113v1.342c.542-.2.933-.38 1.113-.46v1.212c-.19.1-.58.291-1.113.5v1.855c0 1.372-.07 1.673-1.853 1.723l-.48-1.272zm7.475 1.332c-.11-.42-.22-.812-.331-1.172-1.063.36-2.325.641-4.47.962l-.27-1.283c.23-.02.521-.07.682-.09a51.378 51.378 0 001.813-7.335l1.324.22c-.472 2.456-1.043 4.67-1.695 6.885.963-.17 1.654-.35 2.225-.551-.23-.692-.51-1.333-.811-2.044l1.062-.562c.61 1.383 1.093 2.496 1.653 4.36l-1.182.61zM29.54 15.895c-.36.27-1.252.832-2.164.832-1.313 0-2.325-1.063-2.325-4.029 0-1.453.22-2.886.391-3.818h1.363c-.271 1.333-.431 2.646-.431 3.968 0 1.574.4 2.536 1.172 2.536.702 0 1.464-.611 1.995-1.052v1.563zm2.375-.05c0-2.556-.29-4.53-1.743-6.734h1.513c.991 1.583 1.594 3.527 1.594 6.734h-1.364z" fill="#D00F31"/></svg>