<svg xmlns="http://www.w3.org/2000/svg" role="img" viewBox="0 0 38 24" width="38" height="24" aria-labelledby="pi-danamononline"><title id="pi-danamononline">Danamon Direct Debit</title><g clip-path="url(#pi-danamononline-a)"><path fill="#000" d="M35 0H3C1.3 0 0 1.3 0 3v18c0 1.7 1.4 3 3 3h32c1.7 0 3-1.3 3-3V3c0-1.7-1.4-3-3-3Z" opacity=".07"/><path fill="#fff" d="M35 1c1.1 0 2 .9 2 2v18c0 1.1-.9 2-2 2H3c-1.1 0-2-.9-2-2V3c0-1.1.9-2 2-2h32Z"/><path fill="#EE9727" d="m26.842 13.045.02.006.753.163c.1.017.175.04.263.055.097.015.153.034.25.053.095.019.154.033.252.051l2.291.485c.094.02.168.034.262.056.342.075.675.147 1.014.215l3.053.648v-4.43h-8.158v2.698Z"/><path fill="#E9712D" d="m14.228 10.374 12.614 2.67v-2.698H14.136v.014c.037.023.049.028.092.014Z"/><path fill="#FCBD2B" d="m26.861 13.051-.019-.006-12.614-2.671c.028.037.036.034.1.053l1.403.488c.066.02.154.054.225.078.077.025.134.049.215.076.078.026.146.055.214.074.257.075.986.34 1.313.455l.534.185c.034.013.067.028.11.042l.873.3c.078.028.141.052.225.08.042.013.064.023.102.036.482.169 1.067.357 1.526.53.044.016.071.021.115.038.41.154.864.298 1.289.451.069.025.141.044.216.073.049.018.063.023.114.039l1.628.568c.084.026.151.048.226.077.037.016.058.019.104.035.041.014.067.025.112.04l.656.227c.144.048.292.109.428.15.154.048.299.107.442.155.496.165.457.196.455.043-.004-.302-.013-1.562.008-1.616Z"/><path fill="#E9712D" d="m3 10.349 5.067-.002V9.07l-.012-.004c-.045-.028-.945-.2-1.095-.235l-2.834-.604C3.944 8.189 3.081 8 3 8v2.349Z"/><path fill="#046248" d="M3.939 15.592h-.18v-2.458c.516 0 .762-.053.995.428.111.229.155.635.126.886-.01.078.004.167-.003.245-.005.076-.025.156-.039.223-.056.265-.207.5-.458.59-.133.05-.285.086-.441.086Zm-.939.44c.415 0 1.468.04 1.803-.087.15-.058.27-.11.383-.212l.103-.103c.041-.047.053-.053.086-.108.373-.63.371-1.796-.098-2.386-.26-.326-.635-.444-1.076-.444H3v3.34Zm11.118-2.139v-.152c.003-.157.032-.11-.622-.11-.031 0-.04.01-.04.041v2.25c0 .032.009.042.04.042h.58c.067 0 .042-.122.042-.248 0-.277-.022-1.342.022-1.496.084-.291.645-.354.655.073.01.432 0 .986 0 1.437 0 .295-.107.234.662.234v-1.476c0-.29.07-.498.414-.498.36 0 .277.549.277.87v.995c-.002.058-.014.109.041.109h.594c.032 0 .041-.01.041-.041v-1.684c0-.21-.062-.36-.167-.469l-.006-.007a.669.669 0 0 0-.186-.118c-.284-.13-.628-.031-.866.17-.06.051-.07.073-.142.12-.12-.252-.299-.346-.62-.346a.991.991 0 0 0-.571.19c-.053.04-.096.08-.148.114Z"/><path fill="#EE9727" d="m8.067 10.347 5.99-.003c-.107-.05-.589-.131-.75-.166l-3.74-.79c-.502-.107-1.004-.202-1.5-.317v1.276Z"/><path fill="#FCBD2B" d="m8.055 9.066.012.005c.496.115.998.21 1.502.318l3.738.79c.161.034.643.114.75.165l-5.99.003L3 10.35c.07.034 10.102.011 11.136.011v-.014c-.063-.026-.128-.044-.193-.073-.202-.092-.897-.35-1.133-.442l-.569-.219c-.057-.021-.12-.05-.186-.074-.073-.028-.124-.05-.19-.074a3.51 3.51 0 0 1-.188-.075c-.065-.028-.122-.043-.191-.07l-1.9-.737c-.065-.027-1.441-.575-1.53-.582v1.066Z"/><path fill="#046248" d="M20.47 13.88v-.235h-.675v2.278c0 .031.009.04.04.04h.595c.053 0 .042-.043.042-.094-.002-.299-.022-1.493.015-1.628.089-.322.618-.356.659.027v1.587c0 .058-.012.109.043.109h.594c.031 0 .042-.01.042-.041v-1.601c0-.46-.2-.732-.677-.732a.84.84 0 0 0-.54.18c-.058.043-.067.073-.137.11Zm-11.31 0v-.235h-.677v2.278c0 .031.01.04.041.04h.594c.067 0 .041-.12.041-.247 0-.275-.018-1.319.018-1.474.061-.265.475-.347.618-.114.043.07.055.241.055.36v1.476h.662v-1.725c0-.688-.704-.746-1.072-.562-.121.06-.207.164-.28.203Zm-2.127 1.726c-.214 0-.359-.044-.359-.345 0-.275.215-.377.441-.401.073-.008.193-.026.263-.028v.429a.337.337 0 0 1-.345.345Zm-.884-1.23h.552a.6.6 0 0 1 .06-.284c.136-.225.616-.226.616.133v.304c-.259 0-.727.06-.915.134-.332.13-.466.335-.466.708 0 .205.102.432.264.538.034.023.07.042.108.057.233.085.47.06.703-.004.122-.034.18-.084.28-.136l.013.138h.594c.032 0 .041-.01.041-.041V14.35c0-.273-.056-.467-.212-.589a.634.634 0 0 0-.264-.136c-.058-.012-.11-.016-.166-.027-.415-.08-.987-.005-1.19.424-.058.122-.037.172-.053.282-.006.04-.016.073.035.073Zm5.897 1.23c-.13 0-.24.02-.324-.105-.119-.175-.13-.585.391-.643.07-.007.195-.025.264-.025 0 .19.02.478-.069.62a.342.342 0 0 1-.262.153Zm-.939-1.354v.125h.58c0-.562.515-.47.625-.336.073.088.065.311.065.447 0 .053-.1.049-.207.055-.1.004-.168.014-.252.025-.295.036-.594.074-.788.315-.308.382-.141 1.137.488 1.137.208 0 .425-.022.597-.122.037-.022.096-.061.135-.072v.138h.634v-1.697c0-.344-.208-.593-.487-.644-.347-.063-.823-.093-1.104.115-.144.106-.286.27-.286.514Zm6.795.567c0-.275.014-.87.386-.87.189 0 .333.021.406.27.075.257.065.91-.011 1.16-.032.102-.113.215-.216.253-.22.08-.423-.015-.501-.243-.048-.135-.064-.391-.064-.57Zm-.677-.042c0 .389.041.716.27.944.328.327.92.375 1.339.208a.983.983 0 0 0 .331-.235c.261-.317.218-.52.267-.865.013-.096-.023-.412-.042-.518-.159-.863-1.336-.892-1.803-.484-.03.027-.056.04-.082.07-.212.25-.28.534-.28.88Z"/></g><defs><clipPath id="pi-danamononline-a"><path fill="#fff" d="M0 0h38v24H0z"/></clipPath></defs></svg>