<svg xmlns="http://www.w3.org/2000/svg" role="img" viewBox="0 0 38 24" width="38" height="24" aria-labelledby="pi-dandan"><title id="pi-dandan">DanDan</title><g clip-path="url(#pi-dandan-a)"><path fill="#000" d="M35 0H3C1.3 0 0 1.3 0 3v18c0 1.7 1.4 3 3 3h32c1.7 0 3-1.3 3-3V3c0-1.7-1.4-3-3-3Z" opacity=".07"/><path fill="#fff" d="M35 1c1.1 0 2 .9 2 2v18c0 1.1-.9 2-2 2H3c-1.1 0-2-.9-2-2V3c0-1.1.9-2 2-2h32Z"/><path fill="#FC7A30" d="M3.283 5.08h31.456c.412.038.776.162 1.13.516.346.173.48.845.48 1.18v9.932H1.651V6.68c.058-.885.766-1.534 1.632-1.6Z"/><path fill="#009EC2" d="M36.348 16.708H1.652v.334c.004.594.06.999.612 1.49.298.266.66.359 1.038.388h31.454c.125-.012.244-.03.353-.062.686-.2 1.222-.836 1.24-1.488l-.001-.662Z"/><path fill="#FFFEFE" d="M31.892 10.693c-.672-1.007-1.372-2.082-2.053-3.065-.125-.18-.29-.506-.522-.542-.19-.028-.299.066-.369.16-.1.134-.087.27-.087.449v4.314c0 .225-.02.668.368.7.406.034.45-.352.445-.644-.005-.385-.015-3.02.006-3.212.064.064.155.233.216.324l1.91 2.928c.123.192.281.492.498.567.349.12.526-.187.53-.494V8.965c0-.223.03-1.428-.034-1.59-.113-.285-.454-.37-.655-.147-.115.127-.127.211-.128.41-.004 1.04.029 2.22-.002 3.22l-.123-.165Zm-17.589-1.84c.074.082.146.21.21.311l1.91 2.928c.135.2.268.496.505.58.332.116.526-.176.53-.475.02-1.387 0-2.892 0-4.296 0-.148.018-.385-.027-.513-.148-.417-.788-.416-.787.232v1.084c0 .694.032 1.467-.003 2.152-.017-.015-.015-.012-.032-.032l-2.35-3.497c-.21-.296-.483-.33-.68-.092-.104.127-.091.275-.09.46v4.296c0 .357.01.69.37.719.366.03.443-.32.442-.607 0-.437-.017-3.05.002-3.25Zm-4.005 1.592c-.021-.365.342-1.287.598-1.634a2.01 2.01 0 0 1 .58-.56c.191-.124.543-.285.837-.262l-.007 2.459-2.008-.003Zm2.015.918c.025.3-.066.926.068 1.146.192.313.605.256.722-.109.064-.199.024-2.026.024-2.389 0-.803.005-1.607 0-2.41-.003-.443-.276-.513-.694-.52-1.637-.026-2.623 1.368-2.934 3.08-.062.345-.164 1.98-.075 2.26a.403.403 0 0 0 .336.286c.632.076.407-.95.455-1.348l2.098.004Zm9.152.431-.005-3.777c.226-.021.8-.018 1.014.026.304.062.525.216.701.363.13.109.34.39.432.614.444 1.086.063 2.496-1.125 2.744-.234.048-.766.048-1.017.03Zm-.471-4.683c-.39.077-.347.468-.347.864v4.184c-.002.564.299.553.642.553.986 0 1.683.058 2.391-.59 1.473-1.35 1.11-3.976-.543-4.799-.3-.15-.634-.226-.97-.218-.255 0-.977-.033-1.173.006Zm-14.91.906c.219-.018.743-.019.95.014.721.114 1.247.77 1.356 1.553.165 1.181-.506 2.213-1.619 2.213l-.687-.002V8.017Zm3.128 2.237c.152-1.484-.663-2.672-1.715-3.042-.434-.152-1.153-.106-1.679-.107-.224 0-.33.02-.44.15-.166.196-.104.792-.104 1.094v3.586c0 .24-.071.764.414.777.37.01.823.014 1.192-.003 1.305-.06 2.2-1.158 2.332-2.455Zm16.457.194c.06-.61.326-1.234.603-1.638.246-.359.757-.816 1.417-.825v2.463h-2.02Zm-.079.913 2.097-.001c.018.294-.051.93.063 1.138.166.301.572.288.714-.058.082-.202.038-2.008.038-2.373 0-.803-.002-1.606 0-2.41.002-.457-.196-.563-.636-.575-1.024-.027-1.807.473-2.326 1.295-.324.514-.532 1.073-.663 1.766-.064.341-.166 1.98-.08 2.264.11.366.534.404.721.095.132-.217.032-.841.072-1.141Z"/><path fill="#99D100" d="M19.325 10.18c.566-.014.697.087.694-.28-.003-.344-.126-.246-.695-.26-.017-.528.092-.7-.277-.699-.347.003-.25.14-.263.697-.156.011-.328.002-.486.002-.184 0-.215.08-.212.278.004.368.18.231.697.263.027.52-.104.704.283.696.364-.008.227-.18.26-.698l-.001.001Z"/><path fill="#FFFEFE" d="M22.193 14.393h.31c.34 0 .316.255.255.355-.087.14-.363.098-.563.098l-.002-.072v-.381Zm.001-.621a1.91 1.91 0 0 1 .4-.002c.112.02.18.084.174.219-.01.238-.348.218-.574.193v-.41Zm.747.393A.336.336 0 0 0 23 13.97c.01-.493-.62-.45-1.037-.411l.002 1.489c.253.017.762.046.922-.098.213-.192.182-.54-.07-.658l.124-.128Zm-8.821.237h.6l.002.648.23-.001v-1.492l-.23-.002-.002.637-.602-.002v-.635l-.231.002.003 1.494h.227l.003-.65Zm5.234.642c.007-.174.003-.357.002-.532-.001-.185.015-.344.214-.343.303 0 .197.44.214.88h.213c.011-.184.026-.735-.033-.874a.297.297 0 0 0-.252-.195c-.178-.03-.237.025-.356.09v-.511l-.218-.002.003 1.496.213-.01Zm-9.52-1.28.727-.004.001-.205h-.96l.004 1.497.226-.003.003-.63.62-.001-.004-.203h-.618l.001-.451Zm7.264.826c.002.14.008.223-.097.268-.09.038-.241.038-.3-.018-.067-.064-.126-.323.397-.25Zm-.596-.47c.003.002.105.128.11.135 0 0 .53-.304.482.173-.153.014-.327-.025-.467.037-.4.175-.089.86.466.505l.03.082h.19c.017-.226.043-.817-.074-.955-.124-.146-.548-.201-.737.023Zm8.616.465c.002.126.006.226-.1.273-.31.136-.454-.194-.245-.261.076-.025.259-.016.345-.012Zm-.466-.332c.241-.158.502-.127.46.177-.314.01-.666-.032-.643.34.021.323.392.364.631.208l.012.026c.038.062-.007.048.218.048.018-.224.043-.823-.074-.957-.08-.094-.218-.124-.38-.122-.199.003-.254.04-.356.147.064.079.04.084.132.133Zm-1.112.174c-.019-.357.463-.376.465.004l-.465-.004Zm.537.347c-.113.042-.172.15-.373.09-.115-.035-.162-.143-.167-.28l.681-.003c.084-.728-.738-.79-.875-.276-.073.273-.006.587.184.697a.56.56 0 0 0 .663-.098c-.04-.062-.076-.088-.113-.13Zm-8.553-.344a.233.233 0 0 1 .458.002l-.458-.002Zm.537.343c-.106.047-.188.147-.372.09-.11-.035-.165-.132-.17-.28l.682-.003c.077-.732-.732-.787-.875-.276-.194.692.452.978.846.6-.039-.077-.071-.08-.111-.13v-.001Zm9.631-.788c0 .192-.023.73.035.873.09.223.39.274.588.117l.007.014c.05.09.043.063.235.063v-1.07l-.217.01v.557c0 .179-.031.33-.23.32-.187-.008-.2-.16-.2-.338v-.547h-.218Zm1.853 0c.076.243.166.465.253.706.04.11.129.246.095.37-.051.184-.056.203-.246.225l.005.186c.206.018.31-.032.378-.198l.469-1.288-.204-.002c-.055.017-.206.57-.274.732l-.245-.732-.231.002Zm-16.707-.001c0 .185-.021.724.029.86.086.235.386.296.594.132.04.045.009.069.092.078.03.003.114-.003.15-.005v-1.065l-.215.01v.555c.001.18-.034.33-.232.32-.186-.007-.2-.16-.2-.338v-.547h-.218Zm1.455 1.062c.008-.18.003-.372.002-.553 0-.18.03-.33.23-.324.301.01.184.436.208.884l.214-.008c.007-.178.02-.734-.033-.865-.087-.216-.405-.281-.593-.115a.03.03 0 0 1-.007-.014l-.007-.013c-.033-.054-.003-.066-.227-.05l.003 1.064.21-.006Zm8.026.423c.228.028.323-.036.389-.212l.464-1.27c-.25-.003-.22-.02-.255.078l-.032.099-.19.55c-.065-.166-.212-.56-.246-.73h-.23c.074.285.385.947.35 1.075-.047.168-.065.21-.248.226l-.002.184Zm6.521-1.331c.031.029-.002.02.054.034l.068.007c0 .652-.104.874.423.873l-.003-.184c-.268-.001-.201-.068-.202-.693l.203-.003.001-.168-.203-.006v-.317h-.218l-.005.319-.118.005v.133Zm-8.558 0c.049.04-.066.008.123.042 0 .654-.105.872.423.872l-.004-.184c-.268 0-.2-.068-.201-.694l.203-.002.001-.168-.203-.006-.001-.317h-.218l-.004.318-.118.009v.13h-.001Zm-.604-.582v.975c0 .338-.003.59.426.514l-.001-.17c-.156-.028-.208.01-.211-.175l.001-1.145h-.215Z"/></g><defs><clipPath id="pi-dandan-a"><path fill="#fff" d="M0 0h38v24H0z"/></clipPath></defs></svg>
