<svg xmlns="http://www.w3.org/2000/svg" role="img" viewBox="0 0 38 24" width="38" height="24" aria-labelledby="pi-dappmx"><title id="pi-dappmx">Dapp</title><path fill="#000" opacity=".07" d="M35 0H3C1.3 0 0 1.3 0 3v18c0 1.7 1.4 3 3 3h32c1.7 0 3-1.3 3-3V3c0-1.7-1.4-3-3-3z"/><path fill="#fff" d="M35 1c1.1 0 2 .9 2 2v18c0 1.1-.9 2-2 2H3c-1.1 0-2-.9-2-2V3c0-1.1.9-2 2-2h32"/><path d="M9.554 5l-1.31.003a.418.418 0 00-.42.418l.049 3.362C7.04 7.93 5.927 7.778 5.35 7.78c-.421 0-3.358.42-3.35 3.928.01 3.524 2.387 4.294 3.37 4.291.59-.002 1.754-.17 2.588-1.097l.008.438c0 .23.189.416.42.416l1.196-.002a.418.418 0 00.418-.419l-.025-9.92A.42.42 0 009.554 5zm-3.625 9.387c-.552.002-1.79-.601-1.794-2.495-.005-1.894.995-2.5 1.797-2.503.615-.003 1.865.13 1.979 2.262l.007.471c-.058 2.262-1.45 2.262-1.989 2.265zM23.051 8c-.52.002-1.55.157-2.28 1.018l-.002-.419a.373.373 0 00-.369-.378l-1.034.002a.373.373 0 00-.366.38l.022 9.019c0 .21.166.378.368.378l1.147-.002c.203 0 .366-.171.366-.38l-.048-3.064c.727.781 1.709.923 2.214.92.368 0 2.938-.382 2.931-3.57-.009-3.207-2.088-3.906-2.949-3.904zm-.491 6.01c-.565.002-1.734-.13-1.74-2.337-.005-2.206 1.259-2.206 1.742-2.206.483-.003 1.566.546 1.57 2.268.002 1.724-.871 2.275-1.573 2.275zM31.051 8c-.52.002-1.55.157-2.282 1.018v-.419a.373.373 0 00-.369-.378l-1.034.002a.373.373 0 00-.366.38l.022 9.019c0 .21.166.378.368.378l1.147-.002c.203 0 .366-.171.366-.38l-.048-3.064c.727.781 1.709.923 2.214.92.368-.002 2.938-.382 2.931-3.57-.009-3.207-2.088-3.906-2.949-3.904zm-.491 6.01c-.565.002-1.734-.13-1.74-2.337-.005-2.206 1.259-2.206 1.742-2.206.483-.003 1.566.546 1.57 2.268.004 1.724-.871 2.275-1.572 2.275zM17.616 8.163l-1.034.003c-.203 0-.366.183-.366.407l-.007.487C15.475 8.156 14.451 8 13.933 8c-.37.002-2.94.412-2.933 3.825.009 3.43 2.088 4.177 2.949 4.175.494-.002 1.449-.154 2.17-.956v.432c0 .224.165.405.368.405l1.147-.003c.203 0 .366-.183.366-.407l-.015-6.9c0-.227-.166-.408-.369-.408zm-3.178 6.267c-.483.003-1.566-.585-1.57-2.428-.004-1.842.871-2.432 1.572-2.435.53-.002 1.595.122 1.727 2.1l-.015.991c-.192 1.772-1.275 1.77-1.714 1.772z" fill="#004B97"/><path d="M35.018 9.87c0 .406-.32.505-.525.521v.108a.062.062 0 01-.061.063.064.064 0 01-.064-.063v-.108c-.24-.025-.52-.181-.522-.469 0-.071.034-.057.153-.057.12 0 .128.002.14.05.011.049.048.226.302.226.254-.003.281-.164.28-.207 0-.302-.848-.131-.848-.674-.002-.35.332-.43.49-.446v-.097c0-.035.028-.062.062-.062.036 0 .064.027.064.062v.097c.162.02.47.112.47.407 0 .043-.13.048-.147.048-.016 0-.156.011-.156-.069 0-.078-.1-.147-.243-.147-.142 0-.242.048-.242.21.002.231.844.091.847.606z" fill="#fff"/><path d="M34.427 8.015a1.592 1.592 0 00-1.584 1.597c.002.88.714 1.591 1.59 1.591a1.594 1.594 0 00-.006-3.188zm.066 2.376v.108a.062.062 0 01-.061.063.064.064 0 01-.064-.063v-.108c-.24-.025-.52-.181-.522-.469 0-.071.034-.057.153-.057.12 0 .128.002.14.05.011.049.048.226.302.226.254-.003.281-.164.28-.207 0-.302-.848-.131-.848-.674-.002-.35.332-.43.49-.446v-.097c0-.035.028-.062.062-.062.036 0 .064.027.064.062v.097c.162.02.47.112.47.407 0 .043-.13.048-.147.048-.016 0-.156.011-.156-.069 0-.078-.1-.147-.243-.147-.142 0-.242.048-.242.21.002.234.842.096.844.609.003.402-.318.503-.522.52z" fill="#00CF7F"/></svg>
