<svg xmlns="http://www.w3.org/2000/svg" viewBox="0 0 38 24" width="38" height="24" role="img" aria-labelledby="pi-dash" version="1.1"><title id="pi-dash">Dash</title><path opacity=".07" d="M35 0H3C1.3 0 0 1.3 0 3v18c0 1.7 1.4 3 3 3h32c1.7 0 3-1.3 3-3V3c0-1.7-1.4-3-3-3z"/><path fill="#fff" d="M35 1c1.1 0 2 .9 2 2v18c0 1.1-.9 2-2 2H3c-1.1 0-2-.9-2-2V3c0-1.1.9-2 2-2h32"/><path d="M35.6 24H2.4C1.1 24 0 22.9 0 21.6V2.4C0 1.1 1.1 0 2.4 0h33.1C36.9 0 38 1.1 38 2.4v19.2c0 1.3-1.1 2.4-2.4 2.4zM2.4 1C1.6 1 1 1.6 1 2.4v19.2c0 .8.6 1.4 1.4 1.4h33.1c.8 0 1.5-.6 1.5-1.4V2.4c0-.8-.6-1.4-1.4-1.4H2.4z" opacity=".25" fill="#a8aaad"/><circle cx="19" cy="12" r="8.2" fill="#4886ce"/><path class="st0" d="M13 12.9l.5-1.6h4.6l-.5 1.6H13zm10.6 1.6c-.2.7-.9 1.2-1.7 1.2h-8.2l.6-1.8h7.3c.2 0 .3-.1.4-.3l1-3.1c.1-.3-.1-.5-.4-.5h-7.1l.6-1.8h7.1c1.2 0 2.1 1.2 1.7 2.4l-1.3 3.9z" fill="#fff" fill-opacity="1"/></svg>