<svg width="38" height="24" viewBox="0 0 38 24" role="img" fill="none" xmlns="http://www.w3.org/2000/svg" aria-labelledby="pi-daviplata"><title id="pi-daviplata">DaviPlata</title><rect width="38" height="24" rx="3" fill="#fff"/><rect x=".5" y=".5" width="37" height="23" rx="2.5" stroke="#000" stroke-opacity=".07"/><path d="M20.168 12.578c0-.304-.008-.55-.02-.776h.389l.02.408h.01c.177-.29.457-.461.845-.461.575 0 1.008.486 1.008 1.208 0 .855-.52 1.278-1.082 1.278-.314 0-.59-.137-.732-.374h-.01v1.292h-.428v-2.575zm.429.633a.665.665 0 00.41.631.67.67 0 00.259.052c.455 0 .722-.373.722-.918 0-.476-.25-.884-.709-.884a.69.69 0 00-.653.535.69.69 0 00-.029.177l-.001.408v-.001zm2.368-2.52h.432v3.489h-.432V10.69zm2.477 3.489l-.035-.3h-.015a.89.89 0 01-.729.355c-.48 0-.727-.339-.727-.683 0-.576.512-.89 1.43-.885v-.05c0-.197-.054-.55-.54-.55-.221 0-.453.067-.619.177l-.099-.285c.197-.127.481-.211.782-.211.727 0 .904.496.904.972v.89c0 .205.01.408.04.57h-.392 0zm-.064-1.214c-.472-.008-1.007.074-1.007.536 0 .28.185.413.408.413a.591.591 0 00.575-.398.444.444 0 00.025-.138v-.413zm1.618-1.848v.684h.619v.329h-.62v1.282c0 .296.084.463.325.463a.994.994 0 00.251-.03l.02.324c-.084.035-.216.06-.384.06-.201 0-.362-.064-.467-.182-.122-.127-.166-.34-.166-.62v-1.297h-.37v-.33h.37v-.57l.422-.113zm2.423 3.062l-.035-.3h-.015a.89.89 0 01-.728.354c-.48 0-.727-.339-.727-.683 0-.576.511-.89 1.43-.885v-.05c0-.197-.054-.55-.54-.55-.222 0-.453.067-.62.177l-.098-.285c.196-.127.48-.211.781-.211.727 0 .905.496.905.972v.89c0 .205.009.408.04.57h-.393zm-.064-1.214c-.473-.008-1.008.074-1.008.536 0 .28.186.413.409.413a.59.59 0 00.574-.398.444.444 0 00.026-.138l-.001-.413zm-16.939-2.058c-.86-.023-1.972 2.213-2.266 2.954-.166.414.346.711.511.298.274-.69 1.209-2.611 1.756-2.607.549.002 1.452 1.935 1.718 2.627.16.415.675.123.515-.293-.287-.745-1.374-2.994-2.234-2.979zm-2.306 1.62a1.524 1.524 0 00-.268-.69l-.03-.039a1.966 1.966 0 00-.13-.152l-.014-.014c-.906-.894-2.878-.803-3.443-.565-.38.16-.249.633.169.449a3.995 3.995 0 012.005 0c.548.137 1.12.616 1.12 1.13-.039 1.28-1.733 1.33-2.42 1.164v-1.594c0-.38-.49-.383-.49-.003v1.603c0 .321.165.438.386.488.517.118 2.689.245 3.074-1.297.009-.03.014-.059.02-.087l.014-.08c.015-.105.017-.204.01-.298l-.003-.016v0zm9.108-1.273c0-.444-.559-.442-.559-.008v2.8c0 .42.559.436.559.017v-2.809zm-1.397-.162c-.244.694-1.08 2.627-1.587 2.633-.506.005-1.369-1.913-1.626-2.6-.155-.414-.626-.115-.473.299.277.74 1.316 2.973 2.111 2.946.795.012 1.789-2.242 2.052-2.987.146-.416-.33-.707-.477-.291z" fill="#2C2A29" stroke="#000" stroke-opacity=".01" stroke-width=".1"/><path d="M32.133 9.594a34.794 34.794 0 00-1.39-1.08c.029-.34.084-.677.165-1.009.089-.354.167-.659 0-.872-.113-.144-.308-.211-.617-.211h-1.153c-.262 0-.452.076-.567.225a.594.594 0 00-.101.43C27.23 6.403 26.158 6.003 25.563 6h-.002c-.638.003-1.828.464-3.182 1.232-.193.108-1.363.799-1.93 1.236-.01.007-.94.68-1.457 1.113-.209.17-.397.365-.561.58a.143.143 0 00.034.21.144.144 0 00.076.022.141.141 0 00.108-.053s.041-.054.067-.092c.12-.146.27-.298.456-.454.506-.426 1.43-1.093 1.443-1.102.557-.43 1.712-1.11 1.9-1.217 1.314-.745 2.453-1.191 3.046-1.196.594.004 1.732.45 3.047 1.196a.139.139 0 00.204-.153 1.058 1.058 0 00-.027-.1l-.016-.057c-.024-.087-.053-.248.023-.348.073-.096.228-.116.345-.116h1.153c.207 0 .345.036.396.104.083.106.019.363-.05.634-.09.372-.15.75-.179 1.133a.137.137 0 00.056.121c.009.007.936.689 1.44 1.114.612.517.872.998.73 1.356-.155.396-.808.636-1.62.596l-.283-.015-.177-.008a.137.137 0 00-.103.04.14.14 0 00-.042.102c.01.443.142 1.337.894 2.35.676.807.777 1.741.274 2.562-.599.981-2.1 1.77-4.1 1.32a.136.136 0 00-.076.004c-.545.182-1.433.263-1.889.263-.455 0-1.343-.082-1.888-.264a.139.139 0 00-.075-.003c-2.003.451-3.504-.34-4.103-1.32a1.998 1.998 0 01-.217-1.68s.009-.032.005-.055v-.008a.135.135 0 00-.11-.117.135.135 0 00-.145.064l-.002.004c-.016.025-.03.088-.03.088a2.288 2.288 0 00.262 1.848c.524.86 1.67 1.585 3.213 1.585.363 0 .748-.04 1.152-.128.607.194 1.506.265 1.938.265.433 0 1.332-.073 1.94-.265 2.118.462 3.716-.395 4.363-1.455.56-.916.448-1.996-.293-2.879-.625-.842-.79-1.59-.827-2.034h.02l.285.015c.946.046 1.69-.255 1.894-.772.132-.338.1-.903-.812-1.67h.002v-.002z" fill="#2C2A29" stroke="#000" stroke-opacity=".01" stroke-width=".1"/></svg>