<svg xmlns="http://www.w3.org/2000/svg" role="img" viewBox="0 0 38 24" width="38" height="24" aria-labelledby="pi-decadeaukaart"><title id="pi-decadeaukaart">De cadeau kaart</title><g clip-path="url(#pi-decadeaukaart-a)"><path fill="#000" d="M35 0H3C1.3 0 0 1.3 0 3v18c0 1.7 1.4 3 3 3h32c1.7 0 3-1.3 3-3V3c0-1.7-1.4-3-3-3Z" opacity=".07"/><path fill="#FF8200" d="M35 1c1.1 0 2 .9 2 2v18c0 1.1-.9 2-2 2H3c-1.1 0-2-.9-2-2V3c0-1.1.9-2 2-2h32Z"/><path fill="#000" d="M16.791 3.288c1.27 0 2.344.873 2.648 2.087 0 1.337.068 2.7.068 4.048.092 1.591-1.474 2.628-2.919 2.623h-3.353c-.131.004-.26-.107-.262-.238V3.545a.262.262 0 0 1 .17-.257l.012-.014c1.209 0 2.44.014 3.636.014Zm-1.984 7.207a.24.24 0 0 0 .208.208h1.538c.84-.012 1.115-.921 1.115-1.64V6.268c0-.777-.347-1.641-1.274-1.643h-1.29c-.176-.003-.294.1-.294.285l-.003 5.585Z"/><path fill="#fff" d="M12.727 20.258c.045-.025.075-.077.126-.077h12.152c.057-.008.12.01.147.061v.467c-.037.055-.108.074-.174.064H12.881a.202.202 0 0 1-.155-.08v-.435h.001ZM24.228 3.323c.231.059.436.204.576.398.124.178.176.368.227.574.044.554-.205 1.05-.72 1.276a.917.917 0 0 1-.35.108c-1.124 0-2.249.019-3.373.019-.53-.056-.911-.479-1.03-.973-.049-.378.06-.808.313-1.1a1.07 1.07 0 0 1 .54-.309l.117-.03h.36c0 .007.323.096.355.11a.899.899 0 0 1 .234.14c.372.333.587.81.806 1.25.206-.262.325-.605.516-.883.152-.222.334-.44.587-.531l.254-.067c.02 0 .04 0 .052-.019.184-.006.36-.022.536.037Zm-1.483 1.804 1.136-.014c.323.014.614-.368.587-.666 0-.306-.22-.62-.547-.619a.623.623 0 0 0-.603.285c-.203.287-.492.667-.573 1.014Zm-.909 0c-.206-.414-.384-1.024-.82-1.238-.255-.126-.654-.063-.797.199a.76.76 0 0 0-.107.385c0 .33.266.644.605.657l1.119-.003Z"/><path fill="#000" d="M21.607 7.186v1.437h1.97a.202.202 0 0 1 .213.183v.581a.213.213 0 0 1-.194.22h-1.989v1.449h2.47c.09-.008.19.03.227.112.085.164.098.624-.019.79a.21.21 0 0 1-.102.078h-3.7c-.151.013-.234-.126-.217-.267v-5.34c-.005-.12.085-.248.206-.245h3.583c.096-.002.194.072.202.168v.603c.013.143-.113.24-.245.231h-2.405Zm-7.924 11.31v.849c.002.102-.085.202-.187.203h-.507a.206.206 0 0 1-.184-.18v-3.614a.194.194 0 0 1 .14-.161h.519c.112-.002.22.093.216.205v1.91a.136.136 0 0 0 .031-.024c.193-.304.39-.604.587-.906.076-.123.224-.184.369-.185h.48c.088-.002.187.095.111.178l-.925 1.278c-.023.032-.026.035 0 .07.326.433.671.853 1.007 1.278.058.052.018.177-.068.154h-.619a.445.445 0 0 1-.35-.21c-.195-.277-.396-.55-.587-.83-.012-.017-.016-.029-.033-.015Zm6.242-1.659a.18.18 0 0 0 .019-.035c.018-.124.137-.216.262-.219h.327c.102-.005.214.075.205.177v2.545c.016.114-.07.236-.184.243h-.412c-.133-.005-.19-.126-.226-.234l-.148.113a.853.853 0 0 1-.521.177c-.122 0-.24-.006-.36-.033a.685.685 0 0 1-.49-.355c-.083-.156-.105-.334-.126-.507a.322.322 0 0 1 0-.068v-1.145c0-.088.01-.175.03-.26 0-.128.076-.275.168-.392.119-.17.337-.26.535-.297a1.6 1.6 0 0 1 .468.024c.17.049.33.138.453.266Zm-.054.657a.087.087 0 0 0-.03-.068.842.842 0 0 0-.157-.114.395.395 0 0 0-.233-.061c-.07 0-.142.013-.19.065a.313.313 0 0 0-.072.183 1.256 1.256 0 0 0 0 .16v.814a.757.757 0 0 0 .026.234.203.203 0 0 0 .11.142c.09.036.19.036.28 0a.769.769 0 0 0 .245-.152.104.104 0 0 0 .033-.079c-.026-.373-.012-.75-.012-1.124Zm-2.804-.659a.43.43 0 0 0 .014-.04.264.264 0 0 1 .259-.212h.332c.1-.005.21.072.213.173v2.612a.206.206 0 0 1-.185.18h-.404a.238.238 0 0 1-.194-.128c-.016-.035-.023-.074-.035-.11h-.016c-.115.105-.25.184-.398.233-.035 0-.074 0-.11.024a1.054 1.054 0 0 1-.717-.097c-.243-.13-.365-.412-.385-.687-.031-.433-.01-.87-.01-1.304a1.21 1.21 0 0 1 .122-.534.639.639 0 0 1 .399-.341c.125-.037.248-.06.374-.059.224-.03.452.05.631.19.038.03.073.063.11.1Zm-.06.659c.006-.061-.087-.114-.129-.145a.472.472 0 0 0-.407-.091c-.124.046-.165.202-.159.334v.914c-.005.154.03.314.192.359a.34.34 0 0 0 .233-.013c.107-.04.282-.127.272-.25-.006-.37-.002-.738-.002-1.108Zm6.958-.911h.444c.1-.005.208.066.215.166v.322a.2.2 0 0 1-.14.15c-.17.014-.344 0-.514 0a.229.229 0 0 0 0 .037v1.285c0 .16.082.342.259.353.084.005.169.005.253 0a.15.15 0 0 1 .152.08.3.3 0 0 1 .023.1v.266a.234.234 0 0 1-.04.144c-.067.098-.186.103-.294.109-.183 0-.362.008-.542-.03a.735.735 0 0 1-.54-.372 1.255 1.255 0 0 1-.098-.248c0-.04 0-.082-.024-.121a1.105 1.105 0 0 1-.037-.33v-1.257c-.104-.02-.211-.045-.241-.161a1.09 1.09 0 0 1 0-.276c-.009-.161.158-.23.302-.217 0-.167.054-.333.054-.501a.28.28 0 0 1 .05-.147.22.22 0 0 1 .174-.086h.353c.1.005.188.093.191.194v.54Zm-6.059-3.377v-.668c-.004-.08.057-.164.137-.164h.368a.154.154 0 0 1 .133.135v2.541c.007.078-.05.163-.129.168h-.303c-.095-.006-.136-.088-.159-.168-.094.057-.167.131-.274.17-.11.044-.227.035-.343.035a.678.678 0 0 1-.283-.084c-.16-.094-.234-.283-.257-.467a1.99 1.99 0 0 1-.021-.33v-.563c.003-.193.03-.395.145-.549.087-.119.236-.176.383-.192.11-.011.222 0 .33.028a.73.73 0 0 1 .259.131l.014-.023Zm0 .579c0-.081 0-.084-.063-.128a.37.37 0 0 0-.283-.084c-.096.01-.144.123-.147.22v.677a.483.483 0 0 0 .02.154c.022.082.117.12.201.115.083-.004.22-.058.262-.138a.089.089 0 0 0 .01-.047v-.769Zm4.045 3.111c.016-.012.026-.014.03-.021a.88.88 0 0 1 .356-.283.661.661 0 0 1 .233-.056c.07-.01.154.026.166.096v.427c-.001.11-.035.234-.166.229a.701.701 0 0 0-.336.077.521.521 0 0 0-.208.176c-.005.024-.002.05 0 .074v1.7c.011.111-.073.227-.185.233h-.514a.204.204 0 0 1-.18-.17v-2.543c0-.128.061-.258.213-.252h.332a.253.253 0 0 1 .233.15.43.43 0 0 1 .026.163Zm-.009-3.632a.206.206 0 0 1 .194-.175h.233c.096.001.16.074.15.164v1.808c.003.078-.06.158-.138.157h-.273c-.087-.003-.15-.084-.169-.168a.255.255 0 0 0-.04.03.63.63 0 0 1-.415.175c-.11 0-.218 0-.325-.035a.497.497 0 0 1-.339-.339 1.122 1.122 0 0 1-.054-.34v-.753c.003-.1.016-.198.04-.295a.513.513 0 0 1 .327-.392.803.803 0 0 1 .337-.038c.175.013.346.08.472.201Zm-.047.893v-.411a.064.064 0 0 0-.028-.059.49.49 0 0 0-.201-.11c-.084-.012-.19-.009-.227.068a.33.33 0 0 0-.037.15v.7a.49.49 0 0 0 .02.143.14.14 0 0 0 .083.09.27.27 0 0 0 .112.017.49.49 0 0 0 .245-.111.081.081 0 0 0 .033-.07c-.002-.14 0-.274 0-.407Zm-5.947.888a.778.778 0 0 1-.3.185.93.93 0 0 1-.331.02.523.523 0 0 1-.491-.369 1.423 1.423 0 0 1-.051-.423v-.63c-.004-.2.024-.409.144-.568.156-.21.482-.229.713-.162.12.033.23.098.318.187 0-.112.146-.181.241-.168h.191c.077.002.155.058.157.135v1.835c.006.076-.053.155-.129.159h-.299c-.114-.006-.13-.113-.163-.201Zm-.05-.888v-.381c.005-.067-.057-.125-.114-.152a.35.35 0 0 0-.224-.047c-.111 0-.153.127-.154.22v.633c0 .11.015.244.116.285.07.027.152.023.22-.011.058-.028.126-.053.155-.11a.091.091 0 0 0 .009-.051c-.007-.124-.007-.255-.007-.386h-.001Zm3.506.113c-.01.119-.016.263.035.373a.185.185 0 0 0 .15.115c.098.012.21.012.276-.062a.194.194 0 0 0 .049-.118.125.125 0 0 1 .037-.094.125.125 0 0 1 .095-.035h.363a.134.134 0 0 1 .138.138.507.507 0 0 1-.064.234c-.113.206-.324.338-.551.4-.124.03-.253.02-.379.02a.895.895 0 0 1-.446-.128.71.71 0 0 1-.301-.367 1.06 1.06 0 0 1-.054-.365v-.558a.827.827 0 0 1 .121-.416.751.751 0 0 1 .407-.302 1.1 1.1 0 0 1 .393-.044c.079.002.157.012.233.03.16.028.312.108.421.229a.669.669 0 0 1 .192.428v.4a.157.157 0 0 1-.134.123l-.981-.001Zm0-.363.533-.016c.001-.172-.081-.362-.283-.344-.198.007-.25.199-.25.36Zm4.486 1.14a.747.747 0 0 1-.233.16c-.12.056-.248.046-.376.046a.55.55 0 0 1-.372-.178c-.125-.16-.146-.375-.14-.577v-1.25c-.005-.085.074-.16.159-.161h.318c.085 0 .162.078.16.163v1.2c-.005.076-.006.156.034.221.051.094.196.084.287.028.058-.04.136-.082.129-.152v-1.262c0-.134.068-.203.2-.198h.234c.125-.012.203.063.189.182v1.769c.007.085-.054.18-.14.178h-.285c-.12 0-.11-.1-.163-.169h-.001Zm-11.118-.867c0-.305-.027-.617.191-.862.237-.267.713-.338 1.047-.232a.745.745 0 0 1 .384.228.7.7 0 0 1 .163.485.132.132 0 0 1-.119.129h-.404c-.075-.006-.102-.1-.105-.175.004-.225-.284-.266-.426-.145-.106.122-.094.332-.084.482 0 .153-.015.313.021.464.035.21.353.276.458.082.032-.063.035-.138.047-.203a.122.122 0 0 1 .1-.09h.4c.061.01.112.06.12.122a.95.95 0 0 1-.012.183.718.718 0 0 1-.248.406c-.257.197-.616.23-.93.15-.515-.091-.617-.582-.603-1.024Z"/></g><defs><clipPath id="pi-decadeaukaart-a"><path fill="#fff" d="M0 0h38v24H0z"/></clipPath></defs></svg>
