<svg role="img" width="38" height="24" viewBox="0 0 38 24" aria-labelledby="pi-decadeaukaartblack" version="1.1" xmlns="http://www.w3.org/2000/svg"><title id="pi-decadeaukaartblack">De cadeau kaart</title><path d="M35 0H3C1.3 0 0 1.3 0 3v18c0 1.7 1.4 3 3 3h32c1.7 0 3-1.3 3-3V3c0-1.7-1.4-3-3-3z" fill="#000" fill-rule="nonzero" opacity=".07"/><path d="M35 1c1.1 0 2 .9 2 2v18c0 1.1-.9 2-2 2H3c-1.1 0-2-.9-2-2V3c0-1.1.9-2 2-2h32" fill="#0b0703" fill-rule="nonzero" opacity="1" fill-opacity="1"/><g stroke-width="9.163" stroke="none"><path d="M19.746 2.715l.109.109z" fill="#6a5538"/><path d="M19.418 2.824v1.091h.328l.109-1.091z" fill="#fdda9a"/><path d="M17.017 2.933c.011.519-.042 1.416.655 1.31l-.327-1.31z" fill="#e72b72"/><path d="M21.71 3.151c-.193.727-.6 1.538-.437 2.292h.219c.31-.7.588-1.528.655-2.292z" fill="#57b475"/><path d="M15.162 3.37c.18.754.542 1.482.873 2.182h.219c.182-.75-.385-1.596-.655-2.292z" fill="#008ad1"/><path d="M23.565 6.098c.804-.236 1.667-1.498 1.855-2.292-.83.134-1.748 1.492-1.855 2.292z" fill="#e72b72"/><path d="M19.31 3.915v.437h.436a1.963 1.963 0 00-.437-.437z" fill="#cba268"/><path d="M19.418 3.915c.12.16.169.207.328.328-.053-.258-.07-.275-.328-.328z" fill="#dcb579"/><path d="M12.761 4.024c.047.408.13.583.546.655-.078-.377-.174-.538-.546-.655z" fill="#fdda9a"/><path d="M13.307 4.57l-.327.218c.184.116.331.166.545.218a2.008 2.008 0 00-.218-.436z" fill="#efcb8c"/><path d="M12.98 4.897l.218.655c.603-.2.226-.562-.218-.655z" fill="#cea66b"/><path d="M18.218 6.425c.226-.463.415-.83.873-1.091l-.11-.437c-.892.068-1.235.776-.763 1.528z" fill="#ffdc9c"/><path d="M18.982 4.897c.162.541.51.953.655 1.528.597-.692.209-1.431-.655-1.528z" fill="#f1cb8c"/><path d="M10.579 5.661c.24.925 1.481 2.252 2.4 2.51-.14-.908-1.529-2.265-2.4-2.51z" fill="#57b475"/><path d="M17.781 5.661c-.21.544-.41 1.05-.436 1.637a4.667 4.667 0 00-1.2-.764c.054.667.263 1.016.872 1.31-.292.402-.283.743-.109 1.2.22-.096.353-.18.546-.327.161.83.167 2.04 1.2 2.073L18 8.39h.545c-.02-.428-.053-.922-.545-.983.097-.664.27-1.192-.219-1.746z" fill="#edc88a"/><path d="M27.167 6.316c.352-.16.538-.281.654-.655-.463.054-.617.186-.654.655z" fill="#daad71"/><path d="M26.075 6.862c.56-.162.995-.371 1.092-.982-.524.19-.996.394-1.092.982zm-6.657-.873c-.365.448-.726.866-1.2 1.2.08.326.23.987.5 1.198.34.264 1.148.34 1.573.439-.122-.706-.959-.647-1.418-1.091.426-.035.835-.07 1.09-.437-.449.02-.87.128-1.309.218.45-.374 1.16-.906.764-1.527z" fill="#fcd999"/><path d="M14.29 6.098v.436l1.418.437c-.133-.829-.677-.871-1.419-.873z" fill="#d5ae72"/><path d="M14.18 6.207c-.546.828-.157 1.58.764 1.855-.163-.499-.727-.956-.327-1.419z" fill="#c49b61"/><path d="M15.599 6.316c.069.495.179.784.654.982-.068-.494-.166-.803-.654-.982z" fill="#e0b97d"/><path d="M25.966 6.425c-.214.224-.28.349-.327.655.339-.136.465-.3.327-.655z" fill="#e9c486"/><path d="M25.53 6.643c-.164.231-.2.372-.219.655l.437-.109c-.06-.2-.118-.366-.218-.546z" fill="#e0b97d"/><path d="M21.164 7.19h.655v-.328c-.314.034-.473.067-.655.327z" fill="#dbae72"/><path d="M21.82 6.862v.218c1.051.164 1.254 1.748 1.524 2.619.14.451.173.923.658 1.091-.251-.884-.546-1.748-.837-2.619-.122-.365-.21-.875-.519-1.134-.23-.195-.544-.172-.827-.175z" fill="#c7955b"/><path d="M24.33 7.735c.557-.1.934-.274.981-.873-.498.147-.89.33-.982.873z" fill="#c49b61"/><path d="M19.964 7.516c.455-.093.941-.134 1.2-.545-.453.054-1.056.054-1.2.545z" fill="#ecc486"/><path d="M14.835 7.626c.08.365.174.481.545.545-.103-.333-.218-.427-.545-.545z" fill="#d0a86d"/><path d="M15.38 7.844v.436h.546c-.299.162-.572.264-.764.546l1.637-.327v-.546z" fill="#e1bb7e"/><path d="M20.291 8.39c.063.387.178.52.546.654l.11-.436z" fill="#f0c88a"/><path d="M13.198 9.48c.719-.062 1.374-.383 2.073-.545l-.109-.327c-.625.2-1.605.283-1.964.873z" fill="#c49b61"/><path d="M16.58 8.608c-.234.343-.39.566-.326.982.469-.226.74-.559.327-.982z" fill="#dcb579"/><path d="M19.527 8.608l.11.109z" fill="#483c29"/><path d="M7.741 8.935v1.31c.273-.001.605.037.849-.112a.644.644 0 000-1.086c-.244-.15-.576-.111-.849-.112zm1.529 0v1.31h.981c-.252-.192-.446-.21-.764-.219V9.7h.546v-.218h-.546v-.328h.655v-.218z" fill="#fff"/><path d="M8.069 9.263v.763c.51-.195.609-.658 0-.763z" fill="#0b0703"/><path d="M25.202 10.245c.67-.099 2.062-.273 2.292-.982-.684.014-2.155.193-2.292.982z" fill="#008ad1"/><path d="M12.761 9.372c.021.484.154.94.219 1.418h.436c-.135-.478-.24-.961-.436-1.418z" fill="#c49b61"/><path d="M16.035 9.372c-.34.446-.596.852-.655 1.418h.437c.162-.509.645-.958.218-1.418z" fill="#d0a86d"/><path d="M8.614 11.516c-2.52.792-.713 5.199 1.63 3.739.23-.143.674-.743.19-.883-.348-.102-.704.263-1.056.267-.664.007-1.246-.825-1.102-1.448.135-.584.711-1.063 1.32-.926.269.06.745.4.978.095.217-.284-.084-.64-.33-.771-.42-.225-1.181-.213-1.63-.073z" fill="#c49b61"/><path d="M12.761 11.445c.037.848.545 1.489.764 2.292h-.873a3.908 3.908 0 01.11.764c.305 0 .683-.05.958.112.278.163.606.985 1.033.647.337-.269-.062-.906-.18-1.196-.37-.91-.658-2.581-1.812-2.619z" fill="#d4ad71"/><path d="M18.109 15.156a3.856 3.856 0 00-.219-.873c-.523.263-.946.326-1.527.327 0-1.053.074-2.117 0-3.165-1.153.088-.764 1.767-.764 2.62 0 .317-.1.867.112 1.134.15.19.435.17.652.174.617.012 1.162-.005 1.746-.217z" fill="#e2bc7f"/><path d="M16.363 11.445c.059 1.067 1.144.587 1.626 1.42.275.476.056.824-.013 1.308-.043.301.053.587.133.873 1.093-.537 1.15-2.312.291-3.106-.558-.516-1.329-.495-2.037-.495z" fill="#f0cb8d"/><path d="M20.51 12.209c.508 0 1.138.101 1.63-.035.21-.058.433-.236.315-.478-.113-.23-.417-.24-.636-.249-.476-.02-1.658-.203-1.961.251-.171.256-.112.656-.112.948 0 .716-.175 1.7.047 2.384.19.589 1.642.363 2.135.342.214-.01.586-.027.586-.326 0-.254-.284-.303-.479-.32-.41-.038-1.275.172-1.453-.35-.369-1.08 1.688-.244 1.688-.967 0-.436-.73-.317-.996-.329-.599-.026-.746-.313-.764-.871z" fill="#f9d596"/><path d="M24.657 12.755c.154-.052.197-.09.327-.219.1.421.254.81.436 1.2h-.436v.765c.248.008.496-.002.693.175.234.208.372.799.802.626.427-.173.076-.856-.033-1.129-.306-.76-.562-1.828-1.065-2.475-.218-.28-.842-.363-.92.09-.05.292.15.674.196.967z" fill="#e9c082"/><path d="M29.676 14.283c-.173.098-.355.228-.548.287-1.241.378-1.084-1.582-1.089-2.252-.001-.272.044-.773-.331-.822-.565-.073-.432.94-.432 1.259 0 .793-.12 1.783.557 2.355.401.338 1.456.614 1.84.093.195-.264.086-.642.003-.92z" fill="#d9ab6f"/><path d="M29.786 15.265c.834-.656.765-1.756.764-2.729-.001-.326.059-1.021-.437-1.021-.458 0-.434.6-.436.912-.007.957.098 1.891.109 2.838z" fill="#c59258"/><path d="M12.652 11.554a41.366 41.366 0 00-1.2 2.838c-.1.26-.356.873.12.931.48.059.665-.737 1.19-.822-.021-.79-.061-1.236.327-1.965z" fill="#c8a065"/><path d="M24.33 11.882c-.197.505-.575 1.085-.587 1.635-.008.374.211.723.259 1.093.331-.08.641-.106.982-.11v-.763h-.546c.185-.68.408-1.264-.109-1.855z" fill="#f2cb8d"/><path d="M23.565 13.628c-.164.599-.421 1.114-.436 1.746 1.093-.037.825-.983.654-1.746z" fill="#f8d394"/><path d="M14.617 16.138c.11.748.395 1.46.608 2.182.097.328.162.743.507.902.722.331 1.855-.147 2.595-.247l-.11-.436c-.806.166-1.572.326-2.4.327-.107-.727-.378-2.585-1.2-2.728z" fill="#c49b61"/><path d="M19.527 16.138c.09.665.301 1.307.437 1.964l-.546.11c.449.43.986.123 1.528 0-.569-.665-.802-1.202-.982-2.074z" fill="#ecc789"/><path d="M22.365 16.247a3.414 3.414 0 000 1.855c.188-.238.248-.47.327-.764h.218c.118.282.263.513.437.764.26-.432-.19-.614-.138-1.045.037-.311.254-.475.247-.81a6.768 6.768 0 00-.873.764c-.009-.318-.026-.512-.218-.764zm2.182 0c-.337.532-.692 1.216-.654 1.855.513-.396.838-.522 1.31 0 .328-.535-.23-1.484-.656-1.855zm1.856 0c-.354.518-.734 1.219-.655 1.855.513-.396.838-.522 1.31 0 .316-.517-.25-1.484-.655-1.855zm1.309 1.855c.155-.195.185-.295.218-.546.351.106.579.331.873.546.016-.291-.01-.339-.218-.546.166-.23.343-.451.287-.759-.079-.429-.73-.723-1.094-.438-.379.297-.181 1.353-.066 1.743zm1.528-1.855v.327h.436c0 .516-.037 1.03.11 1.528.32-.424.218-1.013.218-1.528h.546c-.286-.44-.831-.327-1.31-.327z" fill="#fff"/><path d="M9.815 18.757c.901-.16 1.817-.798 2.619-1.234.4-.218.734-.395.873-.84-.915.094-1.708.708-2.51 1.118-.468.24-.889.404-.982.956z" fill="#57b475"/><path d="M27.93 16.683v.437c.241-.01.425-.039.655-.11v-.218a2.42 2.42 0 00-.655-.109zm-3.383.219l-.109.436h.328a1.237 1.237 0 00-.219-.436zm1.856 0l-.11.436h.328a1.237 1.237 0 00-.218-.436z" fill="#0c0703"/><path d="M21.82 17.447l-1.092.437c.387.281.763.1 1.2 0a1.162 1.162 0 00-.109-.437z" fill="#f9d596"/><path d="M18.982 18.32c.189.292.32.296.655.219-.23-.212-.34-.232-.655-.219z" fill="#ddb67a"/><path d="M18.218 18.866l.982-.11-.218-.436c-.37.11-.631.166-.764.546z" fill="#d1aa6e"/><path d="M12.98 19.52c.474-.276.721-.531.764-1.09-.482.225-.843.534-.764 1.09z" fill="#fdda9a"/><path d="M24.657 18.866l-.11.11c.186.645.737 2.19 1.528 2.073-.302-.725-.698-1.809-1.418-2.183z" fill="#57b475"/><path d="M12.761 19.084a2.42 2.42 0 00-.109.655c.196 0 .166-.002.328-.11a1.663 1.663 0 00-.219-.545z" fill="#e9c486"/><path d="M22.474 19.084c.063.295.138.305.436.328-.133-.222-.185-.254-.436-.328z" fill="#c49b61"/><path d="M12.543 19.302a1.634 1.634 0 00-.218.764c.34-.197.391-.408.218-.764z" fill="#d5ad72"/><path d="M18.982 21.267h.327l.11-1.855c-.675.223-.437 1.267-.437 1.855z" fill="#e72b72"/><path d="M20.728 19.412l.109 1.418h.436a7.616 7.616 0 01-.109-1.418z" fill="#008ad1"/><path d="M22.474 19.412c.106.323.211.382.546.436-.123-.31-.217-.38-.546-.436z" fill="#ddb67a"/><path d="M12.216 19.63c-.196.311-.126.434.218.546-.06-.2-.117-.366-.218-.546z" fill="#c49b61"/><path d="M14.29 20.94c.479-.249.712-.696.872-1.201-.643-.096-.966.637-.873 1.2z" fill="#008ad1"/><path d="M22.583 19.848v.328h.546c-.168-.238-.257-.281-.546-.328z" fill="#ecc789"/><path d="M16.908 19.957l-.218.873h.546l.109-.873z" fill="#57b475"/><path d="M22.692 20.176l.11.654h.436l-.11-.654z" fill="#ffdc9c"/><path d="M22.801 20.83l.11.437h.436c-.106-.324-.211-.382-.546-.437z" fill="#e5bb7e"/><path d="M23.238 20.83l.109.11z" fill="#9d835a"/><path d="M25.42 20.83l.11.11z" fill="#315e3c"/><path d="M25.966 20.83l.11.11z" fill="#3b744b"/><path d="M14.398 20.94l.11.109z" fill="#073851"/><path d="M22.801 20.94l.11.109z" fill="#947850"/><path d="M22.801 21.049l.11.109z" fill="#4d3d27"/><path d="M25.53 21.049l.109.109z" fill="#315e3c"/></g></svg>