<svg viewBox="0 0 38 24" xmlns="http://www.w3.org/2000/svg" width="38" height="24" role="img" aria-labelledby="pi-depay"><title id="pi-depay">DePay</title><defs><linearGradient gradientTransform="translate(6.935 -3.781) scale(1.31509)" gradientUnits="userSpaceOnUse" id="pi-depay-a" x1="5.6" x2="4.24" y1="6.25" y2="11.1"><stop offset=".09" stop-color="#6fa0d3"/><stop offset=".45" stop-color="#447fc0"/><stop offset=".66" stop-color="#3e75af"/><stop offset="1" stop-color="#275280"/></linearGradient><linearGradient gradientTransform="translate(6.935 -3.781) scale(1.31509)" gradientUnits="userSpaceOnUse" id="pi-depay-b" x1="14.82" x2="13.43" y1="10.99" y2="15.93"><stop offset=".09" stop-color="#6fa0d3"/><stop offset=".45" stop-color="#447fc0"/><stop offset=".66" stop-color="#3e75af"/><stop offset="1" stop-color="#275280"/></linearGradient><linearGradient gradientTransform="translate(6.935 -3.781) scale(1.31509)" gradientUnits="userSpaceOnUse" id="pi-depay-c" x1="17.16" x2="1.44" y1="12.27" y2="13.47"><stop offset=".09" stop-color="#fce876"/><stop offset=".52" stop-color="#ffe63f"/><stop offset=".7" stop-color="#e8cf3a"/><stop offset="1" stop-color="#b9a231"/></linearGradient><linearGradient gradientTransform="translate(6.935 -3.781) scale(1.31509)" gradientUnits="userSpaceOnUse" id="pi-depay-d" x1="16.99" x2="1.28" y1="10.12" y2="11.32"><stop offset="0" stop-color="#fce876"/><stop offset=".16" stop-color="#ffe63f"/><stop offset="1" stop-color="#b9a231"/></linearGradient><linearGradient gradientTransform="translate(6.935 -3.781) scale(1.31509)" gradientUnits="userSpaceOnUse" id="pi-depay-e" x1="10.96" x2="7.54" y1="18.33" y2="5.37"><stop offset=".09" stop-color="#cb296b"/><stop offset=".55" stop-color="#ed3a85"/><stop offset="1" stop-color="#f185b5"/></linearGradient></defs><g fill-rule="evenodd"><path d="M3 0h32a3 3 0 0 1 3 3v18a3 3 0 0 1-3 3H3a3 3 0 0 1-3-3V3a3 3 0 0 1 3-3Z" fill-opacity=".07"/><path d="M3 1h32a2 2 0 0 1 2 2v18a2 2 0 0 1-2 2H3a2 2 0 0 1-2-2V3a2 2 0 0 1 2-2Z" fill="#fff"/><path d="M12.76 11.632c-.762-1.026-1.051-1.947-.696-2.551.355-.605 1.67-.868 3.288-.5.134-.766.336-1.52.605-2.249-2.197-.42-3.946-.092-4.63 1.039-.683 1.13-.118 2.775 1.316 4.458l.118-.197Z" fill="url(#pi-depay-a)"/><path d="m12.76 11.632-.117-.171-.171.223.118.145.17-.197Zm2.592-3.051c.134-.766.336-1.52.605-2.249l-.829-.118c-.27.722-.481 1.465-.631 2.222.29.033.573.08.855.145Z" opacity=".3"/><path d="M25.346 11.829a13.368 13.368 0 0 1-1.683 1.67c1.092 1.236 1.578 2.394 1.157 3.117-.42.723-1.223.776-2.393.644 0 .106-.066.198-.092.303 2.104.368 3.787 0 4.432-1.078.644-1.079.131-2.907-1.42-4.656Z" fill="url(#pi-depay-b)"/><path d="M25.346 11.829a13.368 13.368 0 0 1-1.683 1.67l.381.46c.599-.519 1.15-1.091 1.644-1.71-.066-.13-.17-.249-.342-.42ZM22.48 17.26c0 .106-.066.198-.093.303l.119-.303h-.026Z" opacity=".3"/><path d="M15.286 15.104c-1.565.328-2.749.17-3.17-.526-.617-1.066.697-3.038 3.052-4.84v-.355c-3.21 2.38-4.932 5.26-3.946 6.957.658 1.13 2.407 1.46 4.59 1.052a15.293 15.293 0 0 1-.526-2.288Z" fill="url(#pi-depay-c)"/><path d="M26.78 7.24c-.658-1.118-2.367-1.447-4.498-1.066l.092.237c1.315-.171 2.197 0 2.552.644.486.829-.224 2.223-1.697 3.67v1.315c0 .645-.035 1.29-.105 1.933 3.038-2.368 4.603-5.116 3.656-6.734Z" fill="url(#pi-depay-d)"/><path d="M14.457 15.235c.142.775.35 1.536.618 2.275l.79-.118a15.294 15.294 0 0 1-.58-2.288c-.288.052-.565.105-.828.131Zm.71-5.497v-.355c-.341.25-.67.513-.973.776v.368c.316-.263.632-.526.974-.789Zm8.062.947V12c0 .646-.035 1.291-.105 1.933l.118-.092c.082-.61.13-1.225.145-1.841v-1.315h-.158Zm-.75-4.287-.092-.25h-.105l.092.237.106.013Z" opacity=".3"/><path d="M19.152 3.005c-2.275 0-4.116 4.024-4.116 8.995 0 4.971 1.841 8.995 4.116 8.995 2.275 0 4.116-4.024 4.116-8.995 0-4.971-1.867-8.995-4.116-8.995Zm1.092 16.478c-1.473 0-2.788-3.327-2.788-7.417s1.315-7.43 2.788-7.43c1.473 0 2.775 3.327 2.775 7.43s-1.236 7.417-2.775 7.417Z" fill="url(#pi-depay-e)"/></g></svg>
