<svg width="38" height="24" aria-labelledby="pi-directa24" role="img" viewBox="0 0 38 24" fill="none" xmlns="http://www.w3.org/2000/svg"><title id="pi-directa24">Directa24</title><rect x="1" y="1" width="36" height="22" rx="2" fill="#fff"/><path d="M18.305 16.164v-.97a5.679 5.679 0 01-1.16-.22 3.085 3.085 0 01-.928-.45l.412-1.077c.287.194.612.347.974.459.362.111.742.167 1.142.167.424 0 .727-.065.908-.194.187-.13.28-.288.28-.476 0-.165-.062-.3-.186-.406-.125-.106-.35-.191-.674-.256l-1.03-.212c-1.136-.235-1.704-.806-1.704-1.712 0-.494.178-.912.534-1.253.355-.34.833-.556 1.432-.644V7.914h1.114v.989c.33.035.646.108.945.22.3.112.553.262.759.45l-.412 1.006c-.468-.382-1.067-.574-1.798-.574-.355 0-.64.071-.852.212-.206.141-.308.324-.308.547 0 .165.062.297.187.397.125.1.337.183.636.247l1.02.212c1.174.241 1.76.8 1.76 1.677 0 .5-.18.911-.542 1.235-.356.323-.82.532-1.395.626v1.006h-1.114z" fill="#000"/><path fill-rule="evenodd" clip-rule="evenodd" d="M8.674 4.064H28.9c.916 0 1.658.704 1.658 1.572v1.493h.332V5.636c0-1.042-.891-1.886-1.99-1.886H8.674c-1.099 0-1.99.844-1.99 1.886v12.728c0 1.042.891 1.886 1.99 1.886H28.9c1.099 0 1.99-.844 1.99-1.886v-1.493h-.332v1.493c0 .868-.742 1.572-1.658 1.572H8.674c-.916 0-1.658-.704-1.658-1.572V5.636c0-.868.742-1.572 1.658-1.572z" fill="#000"/><path d="M27.16 11.686a.323.323 0 00-.332.314c0 .174.148.314.331.314h4.89l-1.056.951a.303.303 0 00-.012.444.344.344 0 00.468.012l1.658-1.493a.307.307 0 00.104-.228.307.307 0 00-.104-.228L31.45 10.28a.345.345 0 00-.468.012.303.303 0 00.012.444l1.055.95H27.16z" fill="#000"/><rect x=".5" y=".5" width="37" height="23" rx="2.5" stroke="#000" stroke-opacity=".07"/></svg>