<svg xmlns="http://www.w3.org/2000/svg" viewBox="0 0 38 24" width="38" height="24" role="img" aria-labelledby="pi-directpay"><title id="pi-directpay">DirectPay</title><path opacity=".07" d="M35 0H3C1.3 0 0 1.3 0 3v18c0 1.7 1.4 3 3 3h32c1.7 0 3-1.3 3-3V3c0-1.7-1.4-3-3-3z"/><path fill="#fff" d="M35 1c1.1 0 2 .9 2 2v18c0 1.1-.9 2-2 2H3c-1.1 0-2-.9-2-2V3c0-1.1.9-2 2-2h32"/><path d="M20.791 10.277h-.99l.035-.124c.115-.548-.027-.778-.38-.778-.355 0-.602.23-.717.778l-.39 1.752c-.124.548.018.778.372.778s.602-.23.725-.778l.062-.3h.991l-.026.123c-.23 1.044-.797 1.77-1.93 1.77-1.131 0-1.38-.726-1.149-1.77l.31-1.398c.23-1.044.796-1.77 1.928-1.77 1.115 0 1.371.7 1.159 1.717zm-3.559.053l-.195.885H14.95l-.15.69c-.125.548.017.778.37.778s.602-.23.726-.778l.018-.106h.99c-.238 1.008-.804 1.698-1.91 1.698-1.133 0-1.38-.725-1.15-1.77l.31-1.397c.23-1.044.796-1.77 1.928-1.77s1.38.726 1.15 1.77zm-4.658-.205l-.726 3.273h-.99L11.91 8.64h.947l-.124.557h.018c.336-.407.796-.645 1.265-.645h.203l-.221 1.034c-.168-.044-.327-.097-.62-.097a.818.818 0 00-.804.637zm-2.838 3.273h-.99L9.797 8.64h.99zM8.153 11.47c-.283 1.31-1.027 1.929-2.159 1.929H4.366L5.782 7.01H7.41c1.132 0 1.6.62 1.309 1.929zM24 9.717l.395-1.813H22.96l-.155.745-.177.814-.61 2.743c-.054.247.017.389.247.389h.328l-.186.85a1.821 1.821 0 01-.504.052c-.744 0-1.089-.345-.92-1.07l.654-2.964.177-.814.155-.745H9.821l.177-.893h12.157l.165-.79h.991l-.165.79h1.447l.403-1.849H4.39L2 16.098h20.609L24 9.718z" fill="#00adef"/><path d="M15.906 9.374c-.354 0-.602.23-.717.779l-.061.247h1.096l.062-.247c.115-.549-.026-.779-.38-.779M7.056 7.913h-.38l-1.009 4.583h.38c.584 0 .832-.221.983-.894l.619-2.795c.15-.672-.009-.894-.593-.894" fill="#00adef"/><path d="M31.806 16.458c-.407.867-.858 1.141-1.601 1.141h-.416l.177-.814h.239c.495 0 .716-.265.823-.77.044-.194.044-.397.035-.627l-.142-4.043h1.009l-.036 3.043h.018l1.274-3.043h1zm-2.297-.354h-.947c.018-.132.01-.256.027-.371-.434.3-.779.46-1.256.46-.673 0-.912-.46-.77-1.07.23-1.045 1.044-1.62 2.592-2.16l.062-.282c.088-.399-.027-.611-.354-.611-.451 0-.61.266-.716.672h-.991c.265-.964.99-1.486 1.92-1.486.92 0 1.353.425 1.158 1.292l-.672 3.052c-.035.15-.044.345-.053.504zm-5.1-8.2h-.01l-.397 1.813h1.57c1.353 0 1.866.522 1.565 1.884-.3 1.363-1.044 1.885-2.397 1.885h-.478l-.584 2.618-1.069-.006-.598 2.741h11.604L36 7.903z" fill="#40b93c"/><path d="M27.589 14.945c-.07.31.062.433.363.433.274 0 .54-.203.76-.442l.283-1.247c-1.017.513-1.318.84-1.406 1.256M26.04 11.601c.168-.76-.009-.982-.726-.982h-.424l-.434 1.964h.425c.717 0 .99-.221 1.159-.982" fill="#40b93c"/></svg>