<svg xmlns="http://www.w3.org/2000/svg" role="img" viewBox="0 0 38 24" width="38" height="24" aria-labelledby="pi-divido"><title id="pi-divido">Divido</title><path opacity=".07" d="M35 0H3C1.3 0 0 1.3 0 3v18c0 1.7 1.4 3 3 3h32c1.7 0 3-1.3 3-3V3c0-1.7-1.4-3-3-3z"/><path fill="#fff" d="M35 1c1.1 0 2 .9 2 2v18c0 1.1-.9 2-2 2H3c-1.1 0-2-.9-2-2V3c0-1.1.9-2 2-2h32"/><path d="M6.55 8.12v2.13l-.2-.16c-.29-.22-.67-.45-.97-.55-.37-.14-1.17-.17-1.62-.06-1.08.24-1.97 1.15-2.26 2.31-.14.57-.11 1.62.06 2.12.31.93.91 1.61 1.72 1.96.39.17.72.23 1.22.23.69 0 1.25-.19 1.79-.59l.25-.19v.6h1.54v-9.9H6.54v2.13-.02zm-1.04 2.77c.7.31 1.1.97 1.1 1.83 0 .71-.2 1.2-.63 1.58-.37.32-.61.42-1.17.42-.4 0-.49-.01-.73-.12-1.16-.55-1.46-2.31-.56-3.29.48-.53 1.32-.7 1.99-.41zm4.26-4.81c-.59.26-.77 1.05-.34 1.51.26.29.76.42 1.13.28.2-.06.44-.31.56-.53.39-.79-.51-1.63-1.35-1.27v.01zm10.96-.05c-.22.06-.46.28-.56.48-.19.37-.09.91.2 1.17.44.38 1.19.31 1.52-.16.13-.18.14-.23.14-.56 0-.31-.02-.38-.12-.53-.19-.26-.45-.41-.77-.43-.15-.01-.33 0-.4.02zm6.46 2.08v2.12l-.3-.23c-.56-.43-1.05-.6-1.74-.6-.88 0-1.45.22-2.05.8-.57.56-.87 1.1-.99 1.83-.32 1.88.69 3.62 2.32 3.98.4.08 1.1.08 1.44 0 .37-.09.75-.28 1.05-.51l.26-.2v.6h1.54V6h-1.54v2.13zM25.9 10.8c.95.23 1.52 1.22 1.35 2.32-.11.69-.49 1.22-1.06 1.48-.24.1-.34.12-.73.12-.52 0-.76-.07-1.09-.35-.49-.42-.73-1.02-.7-1.79.02-.4.05-.49.2-.8.41-.82 1.18-1.19 2.03-.97h.01zm6.24-1.34c-1.46.32-2.56 1.57-2.65 3.02-.07 1.06.32 2.03 1.06 2.71.65.58 1.3.84 2.22.87.88.03 1.49-.1 2.15-.51.37-.21.91-.76 1.12-1.1.51-.84.6-2.08.23-2.99-.37-.88-1.17-1.61-2.12-1.91-.34-.11-.48-.13-1.04-.14-.44-.01-.75.01-.96.06h-.01zm1.26 1.32c.94.19 1.5.92 1.5 1.98 0 1.15-.68 1.9-1.77 1.97-1.15.06-1.96-.64-2.04-1.81-.1-1.42.96-2.41 2.32-2.13h-.01zM9.41 12.71v3.17h1.54V9.54H9.41v3.17zm2.57-3.12c.01.09 3.32 6.69 3.37 6.7.05.01 3.41-6.59 3.41-6.7 0-.04-.22-.06-.86-.06h-.87l-.82 1.73c-.45.95-.84 1.73-.86 1.73-.02 0-.4-.78-.86-1.73l-.82-1.73h-.86c-.66 0-.87.01-.87.06h.02zm6.83 3.08c-.81 1.73-1.48 3.16-1.5 3.17-.01.02.34.04.77.04h.79l1.45-3.09c.8-1.71 1.47-3.13 1.49-3.17.04-.08 0-.08-.75-.08h-.78l-1.48 3.14h.01z" fill="#3e445f"/></svg>