<svg xmlns="http://www.w3.org/2000/svg" width="38" height="24" viewBox="-36 25 38 24" role="img" aria-labelledby="pi-dogecoin"><title id="pi-dogecoin">Dogecoin</title><path fill="#fff" d="M-.283 48.947H-33.44a1.94 1.94 0 0 1-1.934-1.934V27.842a1.94 1.94 0 0 1 1.934-1.934H-.283a1.94 1.94 0 0 1 1.934 1.934v19.171a1.94 1.94 0 0 1-1.934 1.934z"/><path fill="#A7A8AB" d="M-.298 49.427h-33.128c-1.344 0-2.436-1.077-2.436-2.4v-19.2c0-1.323 1.092-2.4 2.436-2.4H-.298c1.344 0 2.436 1.077 2.436 2.4v19.2c0 1.323-1.092 2.4-2.436 2.4zm-33.128-23.04c-.806 0-1.462.646-1.462 1.44v19.2c0 .794.656 1.44 1.462 1.44H-.298c.806 0 1.462-.646 1.462-1.44v-19.2c0-.794-.656-1.44-1.462-1.44h-33.128z" opacity=".25"/><circle fill="#CBA747" cx="-17" cy="37" r="7.669"/><path fill="#fff" d="M-12.586 36.004c-.295-1.753-1.7-2.648-2.411-2.878-.711-.227-5.413-.133-5.413-.133-.106.13-.041 1.898-.041 1.898l1.071-.006.021 1.358h-.924a.105.105 0 0 0-.106.106v1.34c0 .059.047.106.106.106h.939c.003.723-.006 1.302-.035 1.313-.08.032-.95-.044-1.036.015-.083.056-.038 1.104-.038 1.505-.003.401.106.384.106.384 4.985-.127 4.864.331 6.269-.511 1.405-.841 1.792-2.742 1.493-4.498zm-5.308 3.099v-1.325l1.601.017a.108.108 0 0 0 .109-.106v-1.34a.108.108 0 0 0-.109-.106l-1.601.003v-1.479s3.666-.406 3.666 2.343c0 2.642-3.666 1.993-3.666 1.993z"/></svg>