<svg viewBox="0 0 38 24" xmlns="http://www.w3.org/2000/svg" role="img" width="38" height="24" aria-labelledby="pi-dopple"><title id="pi-dopple">Dopple</title><rect fill="#fff" width="38" height="24" rx="3" ry="3"/><rect x=".5" y=".5" width="37" height="23" rx="3" ry="3" fill="none" stroke="#000" stroke-opacity=".07" stroke-width="1"/><path d="M18.695 9.082c-.459 0-.9.099-1.278.279V9.1h-1.602v7.128h1.602v-1.746c.387.18.819.279 1.278.279 1.611 0 2.88-1.188 2.88-2.862s-1.269-2.826-2.88-2.826zm0 4.194c-.72 0-1.278-.612-1.278-1.35 0-.738.567-1.35 1.269-1.35.756 0 1.287.639 1.287 1.35s-.531 1.35-1.278 1.35zm6.003-4.194c-.459 0-.9.099-1.278.279V9.1h-1.602v7.128h1.602v-1.746c.387.18.819.279 1.278.279 1.611 0 2.88-1.188 2.88-2.862s-1.269-2.826-2.88-2.826zm0 4.194c-.72 0-1.278-.612-1.278-1.35 0-.738.567-1.35 1.269-1.35.756 0 1.287.639 1.287 1.35s-.531 1.35-1.278 1.35zM7.967 7.804c-.504-.279-1.206-.432-2.088-.432h-2.43v1.602h2.637c1.053 0 1.692.702 1.692 1.971s-.657 1.953-1.71 1.953h-.819V9.082c-.468.207-1.341.621-1.818.855v4.554h2.556c2.223 0 3.618-1.215 3.618-3.564 0-1.458-.639-2.556-1.647-3.132zm4.707 1.17c-1.602 0-2.88 1.188-2.88 2.844s1.251 2.844 2.88 2.844 2.88-1.188 2.88-2.862-1.269-2.826-2.88-2.826zm0 4.194c-.72 0-1.278-.621-1.278-1.35s.567-1.35 1.269-1.35c.756 0 1.287.639 1.287 1.35s-.531 1.35-1.278 1.35zm15.147-5.796h1.602V14.5h-1.602zm7.443 4.518c0-1.656-1.224-2.916-2.826-2.916s-2.808 1.332-2.808 2.871 1.287 2.835 2.835 2.835c1.125 0 2.097-.684 2.61-1.854h-1.638c-.261.333-.54.504-.972.504-.657 0-1.17-.405-1.251-1.008h4.005c.027-.144.036-.27.036-.423zm-4.023-.657c.126-.567.63-.918 1.206-.918.621 0 1.098.369 1.224.918h-2.43zm3.15-3.132v.144h-.252v.684h-.171v-.684h-.252v-.144h.675zm.657 0h.252v.837h-.162V8.227l-.162.702h-.171l-.153-.702v.711h-.162v-.837h.252l.153.657.153-.657z" fill="#f66"/></svg>