<svg xmlns="http://www.w3.org/2000/svg" role="img" viewBox="0 0 38 24" width="38" height="24" aria-labelledby="pi-dropp"><title id="pi-dropp">Dropp</title><g clip-path="url(#pi-dropp-a)"><path opacity=".07" d="M35 0H3C1.3 0 0 1.3 0 3v18c0 1.7 1.4 3 3 3h32c1.7 0 3-1.3 3-3V3c0-1.7-1.4-3-3-3Z" fill="#000"/><path d="M35 1c1.1 0 2 .9 2 2v18c0 1.1-.9 2-2 2H3c-1.1 0-2-.9-2-2V3c0-1.1.9-2 2-2h32Z" fill="#fff"/><path d="M24.558 17.577H1.83V6.423h34.338v11.154h-11.61Zm-7.543-9.973c-.988 1.105-1.972 2.213-2.966 3.312-.532.59-.864 1.255-.872 2.028-.013 1.291.645 2.253 1.802 2.894 1.47.814 3.014.865 4.569.213 1.023-.429 1.766-1.134 2.087-2.154.362-1.153.038-2.172-.81-3.06-.081-.086-.139-.105-.253-.053-.397.18-.808.197-1.224.06-.752-.25-1.163-1.066-.538-1.736.078-.084.15-.173.23-.268l-.781-.871c-.26-.29-.518-.581-.784-.88-.158.176-.302.335-.46.515ZM6.669 9.705c-.123-.083-.237-.18-.37-.248-1.07-.552-2.518-.218-3.187.782-.81 1.21-.847 2.484-.135 3.74.665 1.172 2.285 1.516 3.439.758.266-.175.468-.437.698-.658l.049.904h.929V6.681H6.996v3.384c-.116-.13-.211-.236-.327-.36Zm23.052 3.564v4.054h1.1v-3.004c.157.129.32.287.506.413 1.111.748 2.838.432 3.568-.7.76-1.181.8-2.432.108-3.652-.9-1.586-3.242-1.516-4.17-.213-.03.04-.064.077-.12.145l-.055-.982h-.937v3.94M26.24 9.216c-.07-.005-.14-.012-.21-.015-.931-.032-1.69.27-2.218 1.01-.02.029-.028.064-.042.096l-.06-.037-.053-.94h-.93v7.99h1.086v-3.1c.068.08.097.125.137.16.171.147.326.322.522.434 1.064.612 2.904.39 3.648-1.131.335-.685.404-1.409.303-2.149-.165-1.212-.967-2.14-2.183-2.318Zm-14.772 1.71c.37-.62.95-.836 1.68-.735v-.973c-1.037-.108-1.65.391-2.038 1.225l-.058-.017v-1.1h-1.09v5.654h1.248v-.19c0-.929-.002-1.858 0-2.787.001-.367.058-.724.258-1.077Zm8.698-.363c.094-.035.194-.061.28-.108.406-.222.554-.668.297-1.01-.254-.337-.556-.643-.852-.98-.296.338-.59.642-.846.973-.239.307-.133.735.2.964.27.184.57.218.921.161Z" fill="#FEFEFE"/><path fill-rule="evenodd" clip-rule="evenodd" d="M6.892 9.95c-.072-.082-.14-.157-.212-.236a4.833 4.833 0 0 1-.123-.088 1.96 1.96 0 0 0-.257-.169c-1.072-.552-2.519-.218-3.188.781-.81 1.21-.847 2.485-.136 3.74.666 1.173 2.286 1.517 3.44.759a2.86 2.86 0 0 0 .487-.442c.07-.073.139-.147.211-.216l.048.904h.93V6.681H6.996v3.384l-.104-.115Zm-3.047 1.036a1.65 1.65 0 0 1 .84-.842c1.09-.445 2.27.245 2.309 1.33.014.364.01.729.006 1.093l-.001.104c-.006.818-.564 1.481-1.352 1.612-.838.14-1.561-.258-1.872-1.067-.286-.747-.255-1.498.07-2.23ZM29.72 9.331v3.92l.001-.001v4.073h1.1v-3.004l.142.121c.113.1.233.203.364.291 1.111.749 2.838.433 3.568-.7.761-1.181.799-2.431.107-3.651-.899-1.586-3.241-1.516-4.17-.213-.019.027-.04.052-.07.087l-.05.058-.054-.981h-.938Zm4.336 4.117c-.301.586-.833.876-1.533.886-1.034-.057-1.703-.72-1.704-1.653v-.965c.004-.85.652-1.561 1.544-1.693a1.664 1.664 0 0 1 1.713.891c.42.84.41 1.701-.02 2.534ZM26.257 9.218c1.2.177 2 1.105 2.166 2.317.1.74.032 1.464-.303 2.149-.744 1.52-2.584 1.743-3.648 1.131a2.06 2.06 0 0 1-.375-.3c-.048-.046-.097-.092-.147-.135a.62.62 0 0 1-.078-.087 2.883 2.883 0 0 0-.06-.072v3.1h-1.085v-7.99h.93l.054.94.059.037a.52.52 0 0 0 .012-.032c.009-.022.017-.044.03-.063.529-.741 1.287-1.043 2.218-1.01.048.001.096.005.149.01l.078.005Zm.482 4.662c.036-.048.075-.095.114-.141.083-.1.166-.199.22-.31.406-.82.43-1.654.026-2.478-.28-.573-.774-.913-1.456-.938-.678-.024-1.194.277-1.543.815a1.72 1.72 0 0 0-.29.98c.002.12 0 .242-.003.363-.007.305-.014.61.058.899.338 1.358 1.994 1.614 2.874.81Z" fill="#0A0B0D"/><path d="M11.21 12.004c.001-.367.058-.724.253-1.064.375-.634.955-.849 1.685-.748v-.973c-1.038-.108-1.65.391-2.038 1.225l-.058-.017v-1.1h-1.09v5.654h1.248V12.004Z" fill="#0A0B0D"/><path fill-rule="evenodd" clip-rule="evenodd" d="M17.352 7.226c-.112.123-.219.242-.33.367l-.462.519c-.838.94-1.671 1.875-2.511 2.804-.532.589-.864 1.255-.872 2.028-.013 1.291.645 2.254 1.802 2.894 1.469.814 3.014.865 4.569.213 1.023-.429 1.767-1.134 2.087-2.154.362-1.153.038-2.172-.81-3.06-.081-.086-.14-.105-.253-.053-.397.18-.808.197-1.224.059-.752-.248-1.163-1.065-.538-1.735.06-.065.117-.133.177-.204l.053-.064-.781-.871-.784-.879-.123.136Zm-.733 3.952.355-.395.498-.554.239.262c.139.153.275.302.409.452.108.12.214.242.32.364.196.224.391.448.597.662.883.915.413 1.981-.47 2.435-.8.411-1.953.293-2.6-.283-.647-.578-.713-1.385-.151-2.036.263-.305.533-.606.803-.907Z" fill="#29C3EE"/><path d="M19.246 10.403c.268.184.57.218.904.164l.086-.029c.076-.024.147-.048.21-.082.407-.222.554-.668.297-1.01-.175-.233-.374-.45-.577-.674-.091-.1-.183-.202-.275-.306-.093.106-.186.21-.277.31-.2.222-.393.437-.57.663-.238.307-.132.734.202.964Z" fill="#29C3EE"/></g><defs><clipPath id="pi-dropp-a"><path fill="#fff" d="M0 0h38v24H0z"/></clipPath></defs></svg>