<svg xmlns="http://www.w3.org/2000/svg" role="img" viewBox="0 0 38 24" width="38" height="24" aria-labelledby="pi-duologi"><title id="pi-duologi">Duologi</title><g clip-path="url(#pi-duologi-a)"><path fill="#000" d="M35 0H3C1.3 0 0 1.3 0 3v18c0 1.7 1.4 3 3 3h32c1.7 0 3-1.3 3-3V3c0-1.7-1.4-3-3-3Z" opacity=".07"/><path fill="#fff" d="M35 1c1.1 0 2 .9 2 2v18c0 1.1-.9 2-2 2H3c-1.1 0-2-.9-2-2V3c0-1.1.9-2 2-2h32Z"/><path fill="#410A60" fill-rule="evenodd" d="M27.806 16.714a1.838 1.838 0 0 1-1.297-.527 1.834 1.834 0 0 1-.543-1.306c0-.4.113-.792.342-1.12-1.368 0-2.75.043-4.119-.005-.68-.024-1.417-.348-1.851-.861-.553.554-1.338.864-2.249.864l-2.569.002c-.559.001-1.172-.222-1.486-.484-.329.304-.77.476-1.275.482-.436.036-.907-.135-1.238-.412-.225.216-.538.37-1.003.402-.525.04-1.04-.235-1.371-.632a2.124 2.124 0 0 1-1.562.642 1.833 1.833 0 0 1-1.833-1.833c0-1.248 1.312-2.124 2.464-1.73-.028-.316-.055-.64-.013-.954.04-.308.094-.633.285-.89A.863.863 0 0 1 9.178 8c.27 0 .532.134.69.352.598.807.15 2.908-.053 3.58a3.46 3.46 0 0 1-.196.504c.183.278.488.56.847.53.273-.018.435-.09.557-.234l-.002.001c-.218-.372-.3-.935-.3-1.304s.057-.81.223-1.04c.124-.172.305-.297.523-.297.2.001.393.109.499.277.347.513.2 1.763.006 2.246l-.023.058c.206.206.46.3.784.3.317 0 .587-.1.781-.285v-.002l-.003.003c-.219-.373-.275-.89-.275-1.26 0-.369.054-.804.22-1.034.127-.174.303-.306.527-.306a.597.597 0 0 1 .492.275c.35.516.205 1.765.012 2.247l-.004.012c.325.242.71.348 1.11.348a1.836 1.836 0 1 1 3.052-.06l-.005.008-.002.002c.51-.096.935-.33 1.24-.684v-.002l-.005.005c-.243-.388-.49-1.19-.588-2.128h.005c-.072-.75.011-1.313.246-1.674a.955.955 0 0 1 1.587-.027c.588.863.094 2.875-.153 3.51a3.094 3.094 0 0 1-.152.329 1.86 1.86 0 0 0 1.235.7l.015.002-.007-.01a1.837 1.837 0 1 1 3.034.032h1.183c-.244-.34-.319-.753-.301-1.167a1.83 1.83 0 0 1 .53-1.183c.34-.341.818-.536 1.301-.531.39 0 .75.122 1.048.33 0-.228.147-.433.392-.433.217 0 .392.176.392.392v1.47c.017.394-.099.791-.328 1.117.594-.03.937-.158 1.156-.325-.136-.322-.236-.884-.236-1.253 0-.37.044-.788.21-1.017a.664.664 0 0 1 .524-.283c.231 0 .431.12.563.338.2.332.204.84.188 1.114-.026.458-.132.874-.29 1.156.17.18.372.275.531.275a.392.392 0 0 1 0 .787c-.37 0-.746-.17-1.05-.47h.002l-.001-.001c-.388.283-.915.434-1.604.463.2.269.337.632.337 1.127a1.83 1.83 0 0 1-.532 1.303 1.83 1.83 0 0 1-1.304.531Zm-1.056-1.833a1.053 1.053 0 0 0 2.105 0c0-.279-.06-.485-.183-.655-.186-.25-.5-.378-.896-.464a1.133 1.133 0 0 0-1.026 1.119Zm-3.264-1.91.11.003c-.569.035-1.055-.495-1.055-1.046a1.049 1.049 0 1 1 2.097 0 1.06 1.06 0 0 1-1.152 1.044Zm3.272-1.045v.02c.005.131.035.365.165.578.196.272.544.373.92.45a1.064 1.064 0 0 0 1.012-1.048 1.05 1.05 0 0 0-1.049-1.049 1.037 1.037 0 0 0-1.048 1.05Zm-9.6 1.048c-.036 0-.036 0 0 0a1.049 1.049 0 1 1 .984-1.14c.017.23-.04.46-.162.656a1.03 1.03 0 0 1-.821.484ZM8.982 9.37c.016-.25.06-.448.137-.553.035-.046.085-.045.12.001.238.321.162 1.49-.059 2.449-.035-.171-.07-.343-.101-.515a6.327 6.327 0 0 1-.097-1.382Zm-.62 1.821c.088.469.201.884.355 1.22a1.372 1.372 0 0 1-1.13.563 1.049 1.049 0 1 1 0-2.098 1.1 1.1 0 0 1 .775.315Zm11.832-2.32c-.137.208-.179.68-.114 1.26.046.41.133.815.26 1.208.249-.83.399-2.1.134-2.486-.063-.118-.22-.075-.28.018Z" clip-rule="evenodd"/><path fill="#410A60" d="M31.617 9.031a.64.64 0 1 1-1.28 0 .64.64 0 0 1 1.28 0Z"/></g><defs><clipPath id="pi-duologi-a"><path fill="#fff" d="M0 0h38v24H0z"/></clipPath></defs></svg>
