<svg viewBox="0 0 38 24" xmlns="http://www.w3.org/2000/svg" width="38" height="24" role="img" aria-labelledby="pi-dwolla"><title id="pi-dwolla">Dwolla</title><path fill="#F37421" d="M38 22.5a1.5 1.5 0 0 1-1.5 1.5h-35A1.5 1.5 0 0 1 0 22.5v-21A1.5 1.5 0 0 1 1.5 0h35A1.5 1.5 0 0 1 38 1.5v21z"/><path d="M13.06 10.72c-.34-.37-.85-.56-1.53-.57H9.98v4.47h1.55c.68-.02 1.19-.21 1.53-.58.35-.36.52-.92.52-1.66s-.17-1.29-.52-1.66zm-.14 2.47c-.06.22-.16.39-.29.53s-.3.23-.51.3c-.2.06-.44.09-.73.09h-.8v-3.39h.8c.29 0 .53.03.73.09.21.07.38.16.51.3s.23.31.29.53c.06.21.1.47.1.78 0 .3-.03.56-.1.77zm-4.79-.92c-.26-.38-.58-.72-.87-1.09-.29-.38-.6-.75-.81-1.18-.3-.61-.36-1.46.44-2.03L4.51 9.05c-.54.25-.8.69-.79 1.29.01.57.25 1.06.6 1.49.33.41.67.8 1.02 1.2l.07.09.01.01-.57.26-.4.18c-.72.32-.97.94-.67 1.71.18.46.59.75 1.07.75l.31-.04.01-.01c.12-.04.21-.09.3-.15.79-.35 1.57-.71 2.34-1.08.51-.25.71-.71.72-1.26.01-.46-.14-.84-.4-1.22zm-3.04 3.46l-.24.03c-.37 0-.68-.22-.82-.58-.25-.63-.06-1.1.53-1.37l.4-.18c.2-.09.4-.19.61-.27l.04-.02.21.33c.11.21.19.46.17.74-.03.48-.29 1.07-.9 1.32zm18.45-4.23c-.09-.28-.22-.53-.39-.74-.18-.22-.4-.39-.66-.52-.26-.12-.57-.19-.92-.19-.35 0-.66.07-.93.19-.26.13-.48.3-.66.52-.17.21-.3.46-.39.74-.09.28-.13.57-.13.88s.04.61.13.88c.09.28.22.53.39.74.18.22.4.39.66.51.27.13.58.19.93.19.35 0 .66-.06.92-.19.26-.12.48-.29.66-.51.17-.21.3-.45.39-.74.09-.27.13-.57.13-.88s-.04-.6-.13-.88zm-.71 1.44c-.06.19-.14.36-.25.52-.11.15-.25.28-.42.37-.17.09-.38.14-.62.14s-.45-.05-.62-.14c-.17-.09-.32-.22-.43-.37-.11-.16-.19-.33-.24-.52-.05-.2-.08-.4-.08-.6 0-.2.03-.4.08-.59s.14-.37.24-.52c.11-.15.26-.28.43-.37.17-.09.38-.14.62-.14s.45.05.62.14c.17.09.31.22.42.37.11.15.19.33.25.52.05.19.08.39.08.59 0 .2-.03.4-.08.6zm9.76-2.79h-.76l-1.64 3.93h-2.03v-3.93h-.59v4.47h3.2l.54-1.39h1.81l.46 1.39h.77l-1.76-4.47zm-1.15 2.71l.83-2.12.65 2.12h-1.48zm-11.92-2.7l-1.23 4.47h-.46v-.01h-.16l-1.06-3.71-1.05 3.72h-.46v-.01h-.17l-1.24-4.47h.46v.01h.17l.94 3.63 1.01-3.64h.53v.01h.16l1.02 3.63.95-3.64h.42v.01zm7.62 3.92v.54h-2.93v-4.47h.66v3.93z" fill="#fff"/></svg>