<svg width="38" height="24" viewBox="0 0 38 24" fill="none" xmlns="http://www.w3.org/2000/svg" role="img" aria-labelledby="pi-easypaisa"><title id="pi-easypaisa">Easypaisa</title><g clip-path="url(#pi-easypaisa-clip0)"><path d="M35 .5H3A2.5 2.5 0 00.5 3v18A2.5 2.5 0 003 23.5h32a2.5 2.5 0 002.5-2.5V3A2.5 2.5 0 0035 .5z" stroke="#000" stroke-opacity=".07"/><g clip-path="url(#pi-easypaisa-clip1)"><path d="M1 1h36v22H1V1z" fill="#FDFDFD"/><path d="M18.526 10.58h.853v.458l.095-.046.118-.138.237-.16.308-.115h.497l.285.069.284.138.19.16.212.298.142.32.095.459v.642l-.07.366-.12.321-.141.23-.214.228-.236.138-.285.115-.142.022h-.473l-.285-.091-.236-.138-.237-.229-.024.023-.024 1.742h-.829v-4.813zM10.545 10.556h.118l.024.023v3.392l-.024.114h-.829v-.48l-.142.114-.118.114-.26.16-.309.092h-.402l-.308-.068-.308-.16-.166-.138-.19-.252-.118-.23-.118-.39-.048-.366v-.252l.048-.458.118-.367.166-.32.213-.23.308-.183.308-.092h.545l.237.069.26.137.19.16.07.092.024-.458.71-.023zM25.442 10.556l.095.023v3.506h-.83l-.023-.068v-.207l.024-.206-.095.046-.023.046h-.048v.046l-.284.206-.284.114-.095.023h-.426l-.285-.068-.284-.138-.237-.206-.165-.206-.119-.252-.118-.39-.024-.137v-.734l.095-.412.118-.275.142-.23.237-.229.26-.137.285-.092h.545l.355.115.308.229.095.092v.045h.047l-.024-.206v-.275l.758-.023zM32.287 10.58h.52l.309.09.308.207.142.138v.045h.047l-.023-.48h.852v3.505h-.829l-.023-.068.023-.413-.095.046-.142.16-.26.16-.237.093-.095.022h-.426l-.355-.091-.285-.16-.213-.207-.165-.252-.143-.367-.07-.32v-.734l.094-.412.119-.275.142-.23.213-.206.237-.137.236-.092.119-.023zM14.69 10.58h.852l.024 2.062.07.344.12.206.165.091h.426l.237-.091.19-.16.165-.322.048-.206.024-.229.023-1.696h.83l.023 1.33v1.65l-.024.366-.095.367-.118.252-.142.206-.213.23-.332.205-.308.115-.379.092h-.45l-.473-.092-.38-.16-.236-.138-.284-.252-.024-.114.213-.275.19-.23.094.046.166.184.19.16.331.16.119.023h.45l.284-.091.237-.16.142-.184.118-.275.047-.275.024-.252.024-.046h-.047l-.048.115-.166.229-.213.183-.19.092-.189.046h-.52l-.285-.07-.26-.137-.166-.16-.142-.23-.095-.251-.047-.344v-2.315zM28.995 10.556h.308l.402.046.356.115.26.137.213.184.142.229.048.137v.115l-.213.114-.403.16-.19-.297-.236-.138-.285-.068h-.473l-.284.091-.119.138-.024.069.048.114.118.046.427.115.568.114.284.069.26.114.237.138.166.183.095.184.047.183v.183l-.047.23-.142.274-.119.138-.307.206-.356.138-.379.068h-.544l-.38-.068-.354-.138-.308-.229-.19-.252-.095-.206-.023-.23.094-.068.474-.207.095-.022.118.298.166.183.19.114.284.092h.544l.285-.114.118-.138.024-.046v-.137l-.071-.115-.19-.092-.568-.114-.592-.115-.308-.114-.237-.138-.19-.229-.07-.183-.024-.138v-.206l.07-.275.167-.23.213-.16.284-.137.379-.092.237-.023zM12.51 10.556h.332l.403.046.355.115.26.137.214.206.118.23.024.183-.213.137-.308.16-.095-.022-.095-.183-.166-.138-.213-.092-.213-.045h-.45l-.237.068-.142.092-.047.092.023.091.095.092.19.069 1.042.229.355.137.213.138.119.114.142.207.047.16v.344l-.095.298-.165.206-.213.183-.356.16-.331.092-.166.023h-.569l-.355-.068-.308-.115-.26-.16-.166-.16-.166-.253-.095-.275.024-.114.592-.275.071.023.119.274.142.184.19.114.307.092h.545l.237-.092.095-.091h.047l.047-.207-.07-.137-.143-.092-.379-.091-.734-.138-.379-.114-.26-.16-.166-.184-.095-.183-.024-.092v-.39l.071-.206.166-.206.166-.138.331-.16.356-.092.237-.023zM5.192 10.51H5.5l.379.07.331.137.214.16.19.183.141.23.071.229.024.32-.071.298-.166.23-.237.183-.237.114-.355.092-.308.046h-.473l-.45-.092-.308-.114-.332-.207-.213-.206-.095-.16.048-.275.094-.275.166-.298.26-.275.261-.183.355-.138.403-.069zM26.153 10.58h.829v3.505h-.806l-.023-.022v-3.484z" fill="#373243"/><path d="M32.713 11.267l.26.023.214.091.142.115.142.23.095.251.023.138v.39l-.07.297-.166.298-.19.16-.213.092h-.332l-.236-.091-.142-.115-.143-.206-.094-.252-.024-.115v-.55l.095-.298.142-.206.19-.16.165-.07.142-.022zM23.69 11.29h.378l.214.091.118.092.142.206.119.298.023.16v.298l-.047.275-.119.275-.142.184-.118.091-.213.092h-.332l-.237-.092-.165-.137-.142-.23-.072-.206-.047-.343.024-.344.095-.275.142-.206.189-.16.19-.07zM8.934 11.267l.284.023.237.114.166.16.142.276.047.183v.55l-.07.275-.119.206-.142.16-.237.115-.071.023h-.308l-.237-.091-.19-.16-.165-.322-.071-.32v-.321l.071-.321.142-.252.095-.115.237-.137.19-.046zM19.995 11.313h.355l.19.068.189.138.142.206.095.275.023.115v.48l-.07.276-.119.229-.166.16-.166.092-.308.046-.236-.046-.237-.137-.142-.184-.119-.275-.047-.252v-.298l.071-.343.118-.23.19-.206.237-.114z" fill="#FDFDFD"/><path d="M3.51 12.412l.119.115.095.183.19.23.26.183.331.16.332.092.166.023h.426l.355-.092.284-.16.19-.206.07-.115.096.023.402.23.166.114-.024.114-.165.207-.166.183-.332.206-.26.115-.308.091-.142.023H5.05l-.332-.069-.379-.16-.26-.183-.213-.207-.19-.297-.118-.344-.047-.206v-.252z" fill="#32B36C"/><path d="M5.168 11.267H5.5l.237.069.19.16.07.16-.023.207-.142.16-.214.092-.118.023h-.568l-.332-.07-.19-.09-.047-.092.142-.253.213-.206.237-.114.213-.046z" fill="#FDFDFD"/><path d="M26.39 9.135h.331l.213.138.142.206.048.115v.16l-.119.206-.19.16-.165.07h-.166l-.166-.07-.142-.09-.118-.161-.024-.069v-.298l.095-.183.166-.138.094-.046z" fill="#32B36C"/></g></g><defs><clipPath id="pi-easypaisa-clip0"><path fill="#fff" d="M0 0h38v24H0z"/></clipPath><clipPath id="pi-easypaisa-clip1"><rect x="1" y="1" width="36" height="22" rx="2" fill="#fff"/></clipPath></defs></svg>