<svg xmlns="http://www.w3.org/2000/svg" role="img" viewBox="0 0 38 24" width="38" height="24" aria-labelledby="pi-easywallet"><title id="pi-easywallet">Easywallet</title><path opacity=".07" d="M35 0H3C1.3 0 0 1.3 0 3v18c0 1.7 1.4 3 3 3h32c1.7 0 3-1.3 3-3V3c0-1.7-1.4-3-3-3z"/><path fill="#fff" d="M35 1c1.1 0 2 .9 2 2v18c0 1.1-.9 2-2 2H3c-1.1 0-2-.9-2-2V3c0-1.1.9-2 2-2h32"/><path fill="#1EA137" d="M28.111 8.339c-.495-.912-1.144-1.704-1.878-2.43-.07-.072-.144-.137-.212-.211-.226-.243-.228-.564-.011-.782.22-.22.546-.241.782-.001.435.438.872.881 1.26 1.36 1.078 1.332 1.826 2.838 2.28 4.49.071.261.089.511-.133.705-.22.192-.462.146-.715.038-1.018-.431-2-.37-2.935.243-.305.196-.639.147-.819-.119-.177-.263-.096-.601.203-.806.663-.454 1.404-.669 2.203-.705.04-.002.08-.008.177-.015-1.206-1.176-2.568-1.964-4.168-2.365-.019.017-.015.019-.01 0-.021-.023-.045-.027-.088-.041a116.61 116.61 0 0 0-1.509-.255c-3.513-.19-6.293 1.15-8.347 4.002-.304.421-.61.545-.912.333-.299-.21-.305-.533-.009-.958 1.833-2.615 4.346-4.09 7.51-4.47.189-.023.379-.029.61-.046l1.669.068c1.819.243 3.471.899 4.969 2.016.044.027.062.033.085.052.013-.008.025-.03.03-.061a.082.082 0 0 0-.032-.042Z"/><path fill="#F7B249" d="M12.482 5.961c-.495.992-.793 2.048-.984 3.135-.462 2.626-.268 5.194.709 7.69.051.129.113.257.193.379a9.29 9.29 0 0 1 .362-2.492c.105-.358.23-.709.366-1.054.13-.331.43-.465.722-.35.308.119.438.431.304.763-.454 1.101-.69 2.245-.618 3.432.038.641.169 1.276.281 1.908.047.265.092.509-.128.708-.219.2-.459.157-.714.057-2.148-.834-3.766-2.265-4.872-4.283-.085-.155-.163-.333-.174-.507-.017-.254.187-.461.44-.514.24-.055.463.069.614.306.333.52.629 1.074 1.025 1.539.427.501.955.917 1.465 1.384.041.016.053.014.065.013-.005-.019-.012-.037-.019-.055-.295-.829-.648-1.641-.878-2.488a13.868 13.868 0 0 1-.397-5.429c.109-.862.301-1.715.448-2.592-.008-.02-.011-.02.007-.023.023-.025.029-.046.042-.088.245-.65.484-1.283.718-1.918.021-.055.027-.119.038-.178.168-.205.322-.429.667-.411.441.155.568.424.419.815-.024.063-.03.132-.044.198 0 0 .005-.002-.014-.008-.025.016-.034.039-.043.063Z"/><path fill="#E50280" d="M26.48 19.732c-.313.207-.641.368-.897.604-.789.731-1.811.859-2.774 1.143-.64.186-1.155-.036-1.599-.5-.715-.754-1.249-1.628-1.735-2.535-.187-.355-.374-.708-.551-1.066a2.9 2.9 0 0 1-.23-.582c-.031-.138.007-.293.014-.441.163.022.369-.011.482.075.246.191.47.427.66.677.215.28.356.615.571.895.259.335.534.672.854.945.459.393 1 .266 1.534.141.986-.235 1.886-.698 2.833-1.034.467-.167.964-.245 1.452-.346.13-.028.274-.014.408.008.36.058.529.341.358.66-.136.251-.33.482-.537.678-.255.245-.55.448-.843.678Z"/><path fill="#047EC5" d="M12.56 5.907a.434.434 0 0 1 .023-.199c.149-.391.022-.66-.399-.816.977-.592 2.053-.937 3.183-1.128.001-.024.002-.048.005-.073-.525-.06-1.049-.149-1.576-.173-.479-.022-.962.027-1.443.044-.362.012-.601-.178-.626-.5-.026-.31.202-.563.542-.599 2.241-.235 4.34.206 6.292 1.332.04.023.08.047.117.072.421.278.41.765-.037 1.003a9.41 9.41 0 0 0-2.835 2.317c-.235.281-.565.316-.818.1a.53.53 0 0 1-.035-.799c.502-.527 1.029-1.027 1.547-1.537.05-.049.109-.092.169-.144-.752-.173-2.618.332-4.109 1.1Z"/><path fill="#E50280" d="M18.019 11.339c.288-.888.995-1.425 1.845-1.421a1.91 1.91 0 0 1 1.802 1.341 1.904 1.904 0 0 1-.649 2.056 1.906 1.906 0 0 1-2.149.122 1.882 1.882 0 0 1-.872-1.969c.006-.036.011-.072.023-.129Z"/><path fill="#E50380" d="M22.545 7.462c.49.064.986.147 1.505.256a.175.175 0 0 0 .08.042s-.004-.002-.003-.004c.034.088.059.181.102.264 1.492 2.898 1.505 5.805.044 8.714a.985.985 0 0 1-.414.402c-.199.095-.416.014-.565-.162-.162-.193-.167-.401-.067-.637.256-.599.561-1.19.725-1.817.67-2.562.182-4.915-1.407-7.058Z"/><path fill="#047EC5" d="M11.479 5.309a.37.37 0 0 1-.02.173 93.103 93.103 0 0 1-.732 1.926.53.53 0 0 0-.046.083s.003 0 .004-.002c-.591.554-1.006 1.233-1.36 1.95-.619 1.253-.886 2.585-.837 3.984.014.444-.252.684-.654.629-.28-.04-.47-.268-.453-.645.03-.688.034-1.388.161-2.061.485-2.535 1.81-4.543 3.937-6.037Z"/><path fill="#E40480" d="M23.049 6.358a42.287 42.287 0 0 1-1.633-.057c-.547-.364-1.073-.734-1.616-1.077-.235-.15-.4-.31-.372-.606.038-.404.463-.603.87-.397a9.193 9.193 0 0 1 2.561 1.919c.062.065.12.135.19.218Z"/><path fill="#047EC5" d="M12.499 5.957c-.008-.02.001-.043.027-.061.008.023-.001.041-.027.061Z"/><path fill="#FFF" d="M24.135 7.741c-.023.015-.043.01-.066-.013.021-.014.045-.01.066.013ZM28.092 8.349c.03-.002.042.008.042.04-.01.02-.029.039-.029.039-.015-.005-.033-.011-.059-.029.003-.021.014-.031.046-.05ZM28.137 8.4c.001.012-.011.034-.024.042-.008-.014.011-.033.024-.042ZM10.699 7.488c-.01-.015-.001-.035.022-.061.007.015.001.036-.022.061ZM11.51 18.03c.016.008.023.026.028.045-.012.001-.024.003-.047-.006-.004-.015.002-.023.019-.039Z"/></svg>
