<svg xmlns="http://www.w3.org/2000/svg" role="img" viewBox="0 0 38 24" width="38" height="24" aria-labelledby="pi-ebucks"><title id="pi-ebucks">eBucks</title><g clip-path="url(#pi-ebucks-a)"><path fill="#000" d="M35 0H3C1.3 0 0 1.3 0 3v18c0 1.7 1.4 3 3 3h32c1.7 0 3-1.3 3-3V3c0-1.7-1.4-3-3-3Z" opacity=".07"/><path fill="#fff" d="M35 1c1.1 0 2 .9 2 2v18c0 1.1-.9 2-2 2H3c-1.1 0-2-.9-2-2V3c0-1.1.9-2 2-2h32Z"/><path fill="#EE7203" d="M21.423 10.166v-.121c0-.62-.4-.898-1.225-.898h-.945v1.92h1.038c.742-.001 1.132-.335 1.132-.9Zm-6.057.537c-.704 0-1.001.502-1.001 1.123v.12h2.022v-.176c0-.556-.25-1.067-1.021-1.067Zm5.045 1.243h-1.159v2.068h1.03c.863 0 1.307-.231 1.307-1.047-.009-.705-.445-1.02-1.178-1.02Z"/><path fill="#EE7203" d="M18 4a8 8 0 1 0 .001 16.001A8 8 0 0 0 18 4Zm-.584 8.306a.505.505 0 0 1-.485.53h-2.566v.28c0 .658.296 1.094 1.03 1.094.577 0 .891-.283 1.055-.6a.21.21 0 0 1 .033-.044.226.226 0 0 1 .246-.049l.565.283h.002v.001a.133.133 0 0 1 .036.024.114.114 0 0 1 .024.123v.002l-.074.14c-.354.663-1.014 1-1.887 1-1.374 0-2.088-.78-2.088-1.995v-1.242c0-1.27.844-2.03 2.058-2.03 1.271 0 2.05.667 2.05 2.15v.333h.001Zm5.276.865c0 1.048-.75 1.818-2.132 1.818h-2.294a.12.12 0 0 1-.084-.033.108.108 0 0 1-.032-.085l-.001-.003V8.74l.001-.014a.502.502 0 0 1 .537-.525h1.827c1.29 0 1.994.666 1.994 1.67v.174c0 .687-.39 1.243-.983 1.42.668.13 1.168.706 1.168 1.55v.155Z"/><path fill="#91BE05" d="M26.86 7.096a1.512 1.512 0 1 0 .002-3.024 1.512 1.512 0 0 0-.002 3.024Z"/></g><defs><clipPath id="pi-ebucks-a"><path fill="#fff" d="M0 0h38v24H0z"/></clipPath></defs></svg>
