<svg viewBox="0 0 38 24" width="38" height="24" xmlns="http://www.w3.org/2000/svg" aria-labelledby="pi-edenred" role="img"><title id="pi-edenred">Edenred</title><path opacity=".07" d="M35 0H3C1.3 0 0 1.3 0 3v18c0 1.7 1.4 3 3 3h32c1.7 0 3-1.3 3-3V3c0-1.7-1.4-3-3-3z"/><path d="M35 1c1.1 0 2 .9 2 2v18c0 1.1-.9 2-2 2H3c-1.1 0-2-.9-2-2V3c0-1.1.9-2 2-2h32" fill="#fff"/><path stroke="null" fill="#F72717" d="M15.907 11.055c-.43 0-.704.28-.789.652h1.532c-.052-.41-.339-.652-.743-.652zM11.812 11.218c-.548 0-.894.378-.894.907 0 .522.352.913.894.913s.906-.372.906-.913-.365-.907-.906-.907z" class="st0"/><path stroke="null" fill="#F72717" d="M22.87 10.351c-.822 0-1.462.329-1.567 1.182H21.3c-.258-3.866-3.308-6.922-7.24-6.922a7.423 7.423 0 00-6.872 4.618h2.634l-.137.887H7.618v.94H9.49l-.143.854H7.618v.548c0 .332.144.489.418.489h1.767l-.144.887H7.703c-.095 0-.186-.01-.272-.025v.001s-.34-.037-.55-.31c-.004-.006-.09-.107-.132-.274l-.02-.08c.014.11.037.258.048.313a7.423 7.423 0 007.283 5.995 7.446 7.446 0 007.22-5.62h-.998v-1.813c0-.489-.189-.802-.671-.802-.483 0-.672.313-.672.802v1.813h-.998v-2.06c0-.986.718-1.422 1.67-1.422s1.67.437 1.67 1.421l-.002 2.061h1.005v-1.813c0-.489.13-.802.606-.802.15 0 .332.046.398.078l.189-.874c-.11-.013-.39-.072-.606-.072zm-9.148 1.572c0 1.246-.737 1.976-1.957 1.976-1.128 0-1.891-.757-1.891-1.774 0-1.063.724-1.774 1.806-1.774.496 0 .861.195 1.044.391V9.23h.997v2.694h.001zm2.517 1.226c.294 0 .566-.085.82-.202l-.083.789c-.286.117-.632.163-.978.163-1.148 0-1.956-.672-1.956-1.813 0-.991.723-1.735 1.832-1.735 1.252 0 1.878.796 1.852 2.022h-2.582c.098.561.632.776 1.095.776zM25.134 10.351c-1.109 0-1.832.744-1.832 1.735 0 1.141.808 1.813 1.956 1.813.346 0 .692-.046.978-.163l.083-.79a1.95 1.95 0 01-.82.203c-.462 0-.997-.215-1.094-.776h2.582c.025-1.226-.601-2.022-1.853-2.022zm-.757 1.357c.085-.372.36-.652.79-.652.404 0 .69.241.743.652h-1.533zM29.947 9.23v1.512c-.183-.195-.548-.391-1.044-.391-1.082 0-1.806.71-1.806 1.774 0 1.017.763 1.774 1.891 1.774 1.22 0 1.957-.73 1.957-1.976V9.23h-.998zm-.913 3.808c-.542 0-.894-.391-.894-.913 0-.528.345-.906.894-.906.54 0 .906.365.906.906s-.365.913-.906.913z" class="st0"/></svg>