<svg xmlns="http://www.w3.org/2000/svg" width="38" height="24" role="img" aria-labelledby="pi-efecty" viewBox="0 0 38 24" fill="none"><title id="pi-efecty">Efecty</title><g clip-path="url(#clip0_3427_6721)"><path opacity=".07" d="M35 0H3C1.3 0 0 1.3 0 3v18c0 1.7 1.4 3 3 3h32c1.7 0 3-1.3 3-3V3c0-1.7-1.4-3-3-3z" fill="#000"/><path d="M35 1c1.1 0 2 .9 2 2v18c0 1.1-.9 2-2 2H3c-1.1 0-2-.9-2-2V3c0-1.1.9-2 2-2h32z" fill="#fff"/><path fill-rule="evenodd" clip-rule="evenodd" d="M23.455 3.296C26.812 4.5 28.759 7.945 28.004 12c-.88 4.728-5.116 8.62-9.718 9.116-.366-.012-.371-.224-.383-.538.018-.654.041-1.314.059-1.968.006-.096-.03-.127-.071-.139a7.036 7.036 0 01-1.398-.302c-.496-.2-.997-.49-1.499-.824-.23-.115-.2-.66-.195-.871.042-.388.319-1.29.767-1.332.537-.03.79.26 1.322.527.932.454 2.236.72 3.204.254.466-.29.578-.684.36-1.18-.378-.812-2.19-1.478-3.01-1.883-1.964-.86-3.062-2.603-2.713-4.68.26-1.53 1.657-2.693 3.12-2.905v-.732c-1.805.538-3.18 1.604-4.413 2.845-1.787 1.791-2.838 4.055-2.926 6.949.142 3.541 1.935 5.109 3.811 6.283C11.1 19.343 9.26 15.965 9.997 12c.902-4.854 5.34-8.825 10.089-9.146.189.115.2.133.3.393-.04.612-.076 1.223-.117 1.834.938.194 1.823.466 2.537 1.09.023 1.404-1.003 1.991-1.393 1.78.018-.067-1.546-.509-1.87-.588-.395-.066-.785-.042-1.174.14-.46.224-.679.557-.46 1.077.189.388.501.642.843.86.986.545 1.971 1.095 2.957 1.64.849.49 1.457 1.126 1.846 1.895.283.763.348 1.537.183 2.324-.195.642-.43 1.199-.79 1.55a3.59 3.59 0 01-.986.817c-.502.273-1.003.515-1.522.6-.018.326-.03.647-.047.974.041.024.082.012.13 0 1.115-.37 2.094-1.017 3.05-1.725 1.239-1.12 2.395-2.294 3.003-3.814a9.462 9.462 0 00.885-2.887c.336-3.087-.761-5.993-4.006-7.518zM20.865 2c5.422 0 8.986 4.473 7.959 10-1.027 5.527-6.26 10-11.683 10-5.428 0-8.991-4.473-7.965-10 1.033-5.527 6.26-10 11.689-10z" fill="#020203"/></g><defs><clipPath id="pi-efecty-clip0_3427_6721"><path fill="#fff" d="M0 0h38v24H0z"/></clipPath></defs></svg>
