<svg viewBox="0 0 38 24" xmlns="http://www.w3.org/2000/svg" role="img" width="38" height="24" aria-labelledby="pi-eghl"><title id="pi-eghl">eGHL</title><path d="M35 0H3a3 3 0 00-3 3v18a3 3 0 003 3h32a3 3 0 003-3V3a3 3 0 00-3-3z" opacity=".07"/><path d="M35 1a2 2 0 012 2v18a2 2 0 01-2 2H3a2 2 0 01-2-2V3a2 2 0 012-2h32" fill="#fff"/><path d="M11.79 10.14H5.14V9.9a1.51 1.51 0 011.52-1.44h6.48v.48a1.23 1.23 0 01-1.35 1.2zm-.07 6.25H5.07v-.2a1.5 1.5 0 011.5-1.44h6.48v.48a1.24 1.24 0 01-1.33 1.16zm.01-3.17l-6.64-.05v-.2a1.51 1.51 0 011.51-1.44h6.48V12a1.26 1.26 0 01-1.35 1.22z" fill="#ce222e"/><path fill="#ffca18" d="M31.17 3.97h1.66V16.4h-1.66z"/><path d="M20.49 8.44v.7a4.17 4.17 0 100 6.65 2.38 2.38 0 01-.67 1.69 2.44 2.44 0 01-4-.6l-1.49.74a4.13 4.13 0 003.74 2.28h.1a4.1 4.1 0 004-4.19V8.44zM18 14.9a2.47 2.47 0 112.47-2.47A2.47 2.47 0 0118 14.9z" fill="#303074"/><path d="M30.34 12.1v4.31h-1.71V12.1a1.94 1.94 0 10-3.88 0v4.28H23V3.95h1.7v5.09a3.56 3.56 0 012-.6 3.66 3.66 0 013.64 3.66z" fill="#259449"/></svg>