<svg xmlns="http://www.w3.org/2000/svg" viewBox="0 0 38 24" width="38" height="24" role="img" aria-labelledby="pi-eos" version="1.1"><title id="pi-eos">EOS</title><path opacity=".07" d="M35 0H3C1.3 0 0 1.3 0 3v18c0 1.7 1.4 3 3 3h32c1.7 0 3-1.3 3-3V3c0-1.7-1.4-3-3-3z"/><path fill="#fff" d="M35 1c1.1 0 2 .9 2 2v18c0 1.1-.9 2-2 2H3c-1.1 0-2-.9-2-2V3c0-1.1.9-2 2-2h32"/><path d="M35.6 24H2.4C1.1 24 0 22.9 0 21.6V2.4C0 1.1 1.1 0 2.4 0h33.1C36.9 0 38 1.1 38 2.4v19.2c0 1.3-1.1 2.4-2.4 2.4zM2.4 1C1.6 1 1 1.6 1 2.4v19.2c0 .8.6 1.4 1.4 1.4h33.1c.8 0 1.5-.6 1.5-1.4V2.4c0-.8-.6-1.4-1.4-1.4H2.4z" opacity=".25" fill="#a8aaad"/><circle cx="19" cy="12" r="8.2" fill="#000"/><path fill="#FFF" d="M19 18.3s0-.1 0 0l-4.1-2.6v-.2l1.3-6v-.1l2.7-3.7.1-.1s.1 0 .1.1l2.7 3.7v.1l1.3 6v.2L19 18.3c.1-.1.1 0 0 0zm-3.5-2.6l3.3 2.1-.7-2.1h-2.6zm4.4 0l-.7 2.1 3.3-2.1h-2.6zm-1.5 0l.6 2 .6-2h-1.2zm1.6-.3h2.8L21 12.3l-1 3.1zm-1.7 0h1.4l1.1-3.5L19 8.7l-1.8 3.2 1.1 3.5zm-3.1 0H18l-1-3.2-1.8 3.2zm6-3.5l1.6 2.8-1-4.6-.6 1.8zm-4.9-1.8l-1 4.6 1.6-2.8-.6-1.8zm2.9-1.7l1.8 3.2.6-2-2.4-3.3v2.1zm-2.8 1.2l.6 2 1.8-3.2V6.2l-2.4 3.4z"/></svg>