<svg xmlns="http://www.w3.org/2000/svg" role="img" viewBox="0 0 38 24" width="38" height="24" aria-labelledby="pi-epayments"><title id="pi-epayments">ePayments</title><g clip-path="url(#pi-epayments-a)"><path opacity=".07" d="M35 0H3C1.3 0 0 1.3 0 3v18c0 1.7 1.4 3 3 3h32c1.7 0 3-1.3 3-3V3c0-1.7-1.4-3-3-3Z" fill="#000"/><path d="M35 1c1.1 0 2 .9 2 2v18c0 1.1-.9 2-2 2H3c-1.1 0-2-.9-2-2V3c0-1.1.9-2 2-2h32Z" fill="#fff"/><path fill-rule="evenodd" clip-rule="evenodd" d="M20.524 19.233c1.797.127 3.525-.204 4.624-.883.09-.061.177-.13.26-.203.067-.067.135-.135.197-.205.28-.316.484-.643.603-.955.01-.025.018-.05.026-.075.028-.084.05-.17.068-.257l.006-.04c.011-.063.016-.124.02-.184 0-.04.002-.08 0-.12a1.086 1.086 0 0 0-.034-.23c-.241.231-.5.445-.77.646-2.312 1.738-4.844 1.867-6.232 1.77a8.5 8.5 0 0 1-1.38-.203c-1.068-.287-1.995-.718-2.764-1.27.462.44.984.822 1.552 1.137 1.079.601 2.4.973 3.824 1.072ZM13.208 7.484c-1.194 1.012-1.955 2.28-2.147 3.54a4.467 4.467 0 0 0-.034.282v.012a6.784 6.784 0 0 0-.022.415c-.152 4.286 3.347 7.896 7.966 8.221l.06.002.06.003.045.005.086.008c1.664.116 3.208-.129 4.453-.675-.954.244-2.054.34-3.177.261-1.479-.103-2.855-.49-3.98-1.118-2.2-1.228-2.962-2.883-3.287-3.589l-.034-.073c-.518-1.027-.74-2.216-.634-3.523l.013-.162h.012c.248-2.309 1.809-4.277 3.934-5.279-1.228.349-2.382.916-3.314 1.67Zm7.71 2.594c-.038.46-.336 1.517-2.287 1.38a5.636 5.636 0 0 1-.2-.018c.191.439.744 1.209 2.274 1.317 1.871.131 3.232-1.05 3.329-2.237a1.66 1.66 0 0 0-.033-.492c-.012-.028-.025-.053-.038-.079-.016-.034-.032-.069-.049-.101-.014-.027-.031-.051-.047-.077-.018-.029-.034-.06-.053-.087-.017-.025-.036-.048-.054-.072-.019-.025-.037-.052-.057-.076l-.06-.065c-.02-.022-.04-.045-.061-.066-.021-.021-.043-.04-.065-.059-.02-.019-.041-.039-.063-.057-.023-.019-.046-.035-.069-.053-.021-.016-.043-.034-.066-.05-.023-.016-.048-.03-.072-.045-.022-.015-.044-.03-.067-.043-.025-.015-.05-.027-.075-.04-.023-.012-.045-.025-.068-.036-.024-.013-.05-.023-.075-.034-.023-.01-.046-.022-.069-.031l-.074-.028-.07-.027-.078-.024-.065-.02-.073-.019-.067-.017-.062-.013-.074-.015a1.623 1.623 0 0 0-.062-.01l-.067-.011a3.68 3.68 0 0 0-.106-.013l-.016-.002a3.125 3.125 0 0 0-.437-.016l-.078.002a3.993 3.993 0 0 0-.326.023l-.03.005c-.102.013-.203.03-.303.049l-.076.015c-.107.023-.213.05-.318.08l-.047.014a4.11 4.11 0 0 0-.276.094l-.066.025-.043.02c.5.124.876.556.839 1.009Zm-.504 4.421a13.01 13.01 0 0 1-.325-.037v.004c-2.974-.372-4.226-1.629-4.752-2.618-.15-.282-.26-.58-.327-.888l-.015-.067-.01-.055a3.3 3.3 0 0 1-.056-.486 4.293 4.293 0 0 0-.27 1.192c-.204 2.48 1.802 4.65 4.471 4.838l.035.001a.86.86 0 0 1 .05.001h.007l.021.003a.913.913 0 0 0 .067.008c.127.009.254.011.38.01 1.949-.231 3.253-1.046 4.126-2.001.252-.28.48-.578.68-.892.122-.194.23-.39.328-.582a4.993 4.993 0 0 1-1.992 1.301c-.77.274-1.6.366-2.418.268Zm-2.411-3.27c.06-.727.407-1.437.905-1.852v.001s.068-.057.086-.07c.735-.58 1.793-.916 2.799-.894.135.003.27.013.405.029l.067.01c.044.006.088.012.132.02l.077.016c.038.007.076.015.113.024.027.006.054.014.08.021l.104.028.08.026.096.033.077.031.091.038.074.035.086.043.07.04c.02.01.04.02.057.031-.602-.704-1.66-1.305-3.296-1.419-1.937-.136-3.622.569-4.626 1.934a1.576 1.576 0 0 0-.186.633l-.002.02-.004.058c-.015.199-.005.422.032.66.053.315.16.655.343.993.412.76 1.294 1.675 3.165 2.17-.51-.454-.94-1.252-.825-2.658Zm2.01-6.115c-.192-.014-.382-.02-.572-.024h-.052c-.129-.003-.258-.003-.388 0l-.13.004a11.555 11.555 0 0 0-.718.045c-.101.01-.2.022-.3.035l-.116.014c-.125.017-.249.037-.372.059l-.04.007c-2.405.43-4.313 1.655-5.461 3.154 1.483-2.837 4.71-4.642 8.38-4.384l.03.004.047.005.178.011c1.445.135 2.894.685 4 1.521l.04.03c1.711 1.312 2.602 3.178 2.443 5.12-.212 2.582-2.142 4.631-4.81 5.386a6.592 6.592 0 0 0 1.762-1.323c.325-.334.612-.698.856-1.087.912-1.402 1.045-2.6 1.056-2.72.03-.158.053-.317.068-.477.203-2.484-1.914-4.75-4.93-5.274a36.06 36.06 0 0 0-.58-.075l.002-.009-.176-.012a3.232 3.232 0 0 0-.116-.006c-.034 0-.068-.001-.102-.004Z" fill="#E5353E"/></g><defs><clipPath id="pi-epayments-a"><path fill="#fff" d="M0 0h38v24H0z"/></clipPath></defs></svg>