<svg xmlns="http://www.w3.org/2000/svg" role="img" width="38" height="24" fill="none" viewBox="0 0 38 24" aria-labelledby="pi-escrowcom"><title id="pi-escrowcom">Escrow.com</title><path fill="#fff" d="M35 1H3a2 2 0 0 0-2 2v18a2 2 0 0 0 2 2h32a2 2 0 0 0 2-2V3a2 2 0 0 0-2-2Z"/><path fill="#00BD50" d="M17.937 9.107c-.31 0-.597-.285-.597-.617 0-.31.263-.618.597-.618h1.574V7.42h-1.598c-.596 0-1.05.475-1.05 1.069 0 .593.477 1.069 1.05 1.069h1.598v-.452h-1.574Z"/><path fill="#00416A" d="M17.961 8.157h3.364v.665h-3.364v-.665Zm0 1.663h3.364v.665h-3.364V9.82Zm0-3.326h3.364v.665h-3.364v-.665Zm-2.36-.807c-.073 5.7 3.315 7.007 3.887 7.174.573-.19 3.984-1.473 3.89-7.174l-.383-.547c-.43-.119-2.052-.522-3.507-.546-1.455.047-3.077.427-3.507.546l-.38.547Zm3.911 7.815h-.072c-.047-.024-4.58-1.212-4.437-7.91v-.095l.62-.88.096-.023C15.791 4.57 19.49 4 19.49 4s3.72.57 3.792.594l.096.024.62.879v.095c.072 3.468-1.12 5.44-2.147 6.46-1.098 1.117-2.242 1.45-2.338 1.45Z"/><path fill="#00BD50" d="M22.367 19.345a.366.366 0 0 1-.365-.363c0-.191.173-.363.365-.363a.363.363 0 1 1 0 .726Zm9.232 0-.077-1.969-.614 1.548h-.633l-.615-1.548-.076 1.969h-.557l.115-3.326h.557l.902 2.217.883-2.217h.556l.116 3.326h-.557Zm-7.16 0c-.268 0-.556-.038-.806-.249-.25-.248-.364-.669-.345-1.433-.02-.746.096-1.166.345-1.415.23-.229.538-.248.807-.248.134 0 .268 0 .422.02.173.018.499.076.518.076l.058.019v.535h-.058c-.115-.02-.441-.077-.556-.077-.154-.019-.27-.019-.365-.019-.211 0-.346.039-.422.096-.135.134-.192.459-.192 1.032v.02c-.02.534.057.897.192 1.031.076.058.192.096.422.096.115 0 .25 0 .364-.02.154-.018.538-.076.538-.076l.058-.019v.535l-.058.02c-.02 0-.365.057-.538.076h-.384Zm2.803-2.81c-.326 0-.672.134-.672.516v1.223c0 .345.269.574.672.574.384 0 .672-.249.672-.574v-1.146c-.02-.344-.288-.593-.672-.593Zm0 2.81c-.71 0-1.21-.42-1.21-1.032v-1.338c0-.593.48-.956 1.21-.956.71 0 1.21.42 1.21 1.032v1.28c0 .593-.5 1.014-1.21 1.014Z"/><path fill="#00416A" d="M7.704 19.364c-.307 0-.614-.077-.92-.23l-.058-.019.23-.477.057.019c.25.114.48.172.691.172.538 0 .576-.306.576-.383 0-.152-.019-.344-.23-.42-.058-.02-.154-.057-.288-.096-.345-.057-1.017-.21-1.017-1.032a.85.85 0 0 1 .268-.65c.192-.152.442-.248.826-.248.211 0 .441.038.614.057.077.02.288.039.288.039l-.058.535s-.21-.038-.307-.058c-.153-.019-.364-.038-.556-.057-.5-.02-.538.249-.557.363-.02.115 0 .363.576.497.192.057.364.096.537.191.403.23.46.631.384 1.052a.757.757 0 0 1-.384.535c-.134.152-.403.21-.672.21Zm2.784-.02c-.27 0-.557-.038-.807-.248-.25-.248-.364-.669-.345-1.433-.02-.746.096-1.166.345-1.415.23-.229.538-.248.807-.248.134 0 .25 0 .403.02.172.018.518.076.537.076l.058.019v.535s-.058 0-.116-.02a3.966 3.966 0 0 0-.498-.057c-.154-.019-.27-.019-.365-.019-.211 0-.346.039-.422.096-.135.134-.192.459-.192 1.032v.02c-.02.534.057.897.191 1.031.077.058.193.096.423.096.115 0 .25 0 .364-.02.154-.018.538-.076.538-.076l.057-.019v.535l-.057.02c-.02 0-.365.057-.538.076l-.383-.001Zm5.72-2.809c-.346 0-.692.134-.692.516v1.223c0 .345.288.574.691.574.403 0 .691-.249.691-.574v-1.146c-.019-.344-.307-.593-.69-.593Zm0 2.829c-.75 0-1.248-.42-1.248-1.032v-1.338c0-.593.48-.956 1.247-.956.749 0 1.248.42 1.248 1.032v1.28c-.02.574-.536 1.014-1.247 1.014ZM4 19.287v-3.191h2.092v.458H4.518v.899h1.363v.458H4.518v.918h1.574v.44H4v.018Zm9.367-1.624c.172 0 .384-.191.384-.516 0-.306-.173-.478-.403-.478h-.71v.994h.729Zm.556 1.624-.806-1.05h-.46v1.05h-.576v-3.191h1.343c.403 0 .902.344.902 1.032 0 .745-.556.974-.595.994l.845 1.184-.653-.019Zm6.545 0-.614-2.427-.614 2.427h-.652l-.826-3.268h.595l.595 2.313.557-2.313h.672l.575 2.313.576-2.313h.614l-.825 3.268h-.653ZM34 16.554a.56.56 0 0 1-.575.555.56.56 0 0 1-.576-.555.562.562 0 0 1 .576-.554.56.56 0 0 1 .575.554Zm-.998 0c0 .249.173.44.442.44.25 0 .422-.191.422-.44 0-.248-.173-.44-.422-.44a.42.42 0 0 0-.442.44Zm.346.287h-.135v-.554c.058-.02.115-.02.212-.02.095 0 .153.02.191.039.039.019.058.076.058.114 0 .058-.038.115-.115.134.057.02.077.058.096.134.019.077.019.115.038.134h-.134c-.02-.02-.02-.077-.039-.134-.019-.057-.038-.095-.115-.095h-.057v.248Zm0-.306h.057c.077 0 .135-.019.135-.076 0-.058-.039-.077-.115-.077h-.077v.153Z"/><path stroke="#000" stroke-opacity=".07" d="M35 .5H3A2.5 2.5 0 0 0 .5 3v18A2.5 2.5 0 0 0 3 23.5h32a2.5 2.5 0 0 0 2.5-2.5V3A2.5 2.5 0 0 0 35 .5Z"/></svg>
