<svg width="38" height="24" viewBox="0 0 38 24" fill="none" xmlns="http://www.w3.org/2000/svg" role="img" aria-labelledby="pi-esewa"><title id="pi-esewa">Esewa</title><g clip-path="url(#pi-esewa-clip)"><path d="M35 .5H3A2.5 2.5 0 00.5 3v18A2.5 2.5 0 003 23.5h32a2.5 2.5 0 002.5-2.5V3A2.5 2.5 0 0035 .5z" stroke="#000" stroke-opacity=".07"/><rect x="1" y="1" width="36" height="22" rx="2" fill="#3CA906"/><path d="M7.482 8h.947l.592.115.497.16.545.275.355.252.308.252V9.1l.071.023.166.183.213.252.237.367.237.481.166.504.07.344v.16l-1.491.024-.024.733h.758l.758.023-.024.252-.118.458-.166.436-.26.48-.19.253-.213.252-.45.435-.332.23-.402.229-.474.183-.308.092-.474.091-.26.023H7.6l-.568-.091-.403-.115-.426-.16-.45-.252-.308-.23-.284-.252-.214-.206-.236-.298-.261-.412-.19-.39-.165-.55L4 12.125v-.642l.095-.527.142-.481.118-.275.237-.435.237-.321.26-.298.19-.184.332-.252.355-.229.379-.183.45-.16.379-.092L7.482 8zM14.658 8h.782l.473.092.308.114.095.046h.118l.26-.206h.096l.023.091.071.871.071.734v.183l-.023.023h-.142l-.048-.023-.142-.367-.237-.435-.26-.32-.166-.161-.332-.184-.26-.091-.142-.023h-.498l-.308.091-.26.16-.213.23-.119.252-.07.32v.368l.07.32.119.23.213.229.26.183.38.183.473.184.734.252.45.229.213.16.143.115.236.298.19.39.07.274.024.16v.711l-.07.413-.143.367-.142.275-.19.252-.212.206-.237.16-.308.138-.308.091-.284.046h-.521l-.474-.091-.355-.138-.308-.16-.332-.23-.118-.022-.071.022-.047.092-.095.138-.166.023-.024-.16.119-1.17.07-.687.024-.046h.19l.047.092.048.39.118.389.19.367.213.275.237.206.26.16.403.138.142.023h.497l.284-.092.285-.138.213-.183.165-.229.119-.275.047-.206v-.436l-.118-.435-.166-.298-.213-.23-.355-.228-.545-.252-.64-.252-.378-.184-.285-.16-.308-.252-.165-.16-.166-.253-.119-.275-.094-.367-.048-.39v-.205l.071-.367.119-.298.19-.32.26-.299.284-.206.284-.137.356-.092.118-.023zM22.095 11.14l1.87.022.024.023v.207l-.047.068-.284.07.095.434.45 1.513.26.87.071.184.048.023.07-.252.19-.435.284-.688.308-.756.166-.39v-.16l-.095-.183-.118-.115-.332-.046-.023-.023v-.275l.118-.023 1.729.023.024.069v.16l-.048.07-.355.045-.024.206.166.573.332 1.054.284.917.07.046.048-.207.308-.847.355-.94.166-.573-.047-.206-.095-.092-.237-.046-.047-.091v-.207h1.681v.275l-.023.023-.355.023-.19.092-.142.23-.308.71-.402.985-.474 1.192-.26.641-.143.275-.047.046-.119-.023-.094-.114-.166-.39-.332-.985-.426-1.26-.142-.39h-.047l-.285.664-.402.94-.356.848-.26.573-.119.114-.142-.023-.118-.229-.213-.573-.403-1.1-.355-.962-.332-.894-.118-.23-.071-.068-.142-.046-.38-.023-.047-.114v-.184l.048-.046zM31.403 11.048h.473l.284.069.214.114.118.092.142.229.048.138.023 1.97v.505l.024.458.095.298.07.091.214.023.166-.068.166-.115.094.023.048.069v.137l-.142.206-.19.184-.19.091-.213.046h-.19l-.26-.091-.165-.16-.166-.322-.024-.091-.095.045-.236.207-.237.137-.474.207-.379.068h-.331l-.237-.114-.143-.16-.094-.207-.048-.23v-.32l.095-.298.119-.206.19-.206.307-.207.355-.183.545-.252.355-.183.19-.115h.047v-.298l-.024-.527-.07-.32-.12-.184-.117-.092-.166-.069-.119-.022H31l-.284.091-.142.092-.071.023-.048.114v.573l-.095.23-.118.091-.19.069h-.189l-.095-.046-.07-.115-.024-.183.07-.252.096-.183.284-.321.19-.16.33-.184.309-.114.45-.092z" fill="#FEFDFD"/><path d="M7.718 9.581h.308l.332.07.332.16.26.206.237.32.19.367.047.252-.095.092-.45.114-1.729.253-.45.068h-.142l.024.252.094.482.119.32.166.298.189.23.26.206.285.137.213.046h.497l.38-.114.236-.138.237-.206.166-.23.094-.206.024-.023.237.023.047.092-.094.275-.119.252-.142.23-.213.228-.237.207-.355.183-.38.115-.212.023h-.427l-.379-.07-.284-.114-.26-.16-.237-.206-.213-.23-.166-.252-.142-.297-.119-.413-.07-.367-.024-.206v-.206l.07-.504.095-.298.214-.39.213-.252.166-.16.307-.207.356-.137.379-.092.165-.023z" fill="#3CA906"/><path d="M20.034 11.048h.474l.355.069.284.137.237.206.166.207.19.366.094.321v.298l-.07.046-2.748.023-.024.091v.527l.071.436.119.367.142.252.213.252.237.183.308.138.165.045h.403l.403-.114.308-.184.165-.137.213-.275.095-.023.095.046v.137l-.213.367-.19.23-.19.183-.33.206-.309.114-.331.046h-.237l-.355-.046-.403-.114-.26-.138-.308-.252-.237-.32-.166-.344-.095-.275-.07-.436-.024-.229v-.39l.07-.412.119-.367.19-.366.236-.298.19-.184.331-.206.308-.114.38-.07z" fill="#FEFDFD"/><path d="M31.876 13.225h.095v1.283l-.071.16-.166.207-.237.16-.213.092-.095.023H31l-.19-.069-.118-.091-.095-.138-.047-.183v-.23l.071-.274.142-.23.19-.183.331-.23.569-.274.023-.023zM19.987 11.323h.26l.285.091.19.161.141.252.095.275v.206l-.118.115h-1.777l.024-.16.142-.344.142-.23.166-.16.237-.137.213-.07z" fill="#3CA906"/><path d="M7.363 9.994h.474l.19.091.213.207.142.298.023.229-.118.068-.64.115-.923.138h-.166l.024-.23.118-.366.166-.252.213-.184.19-.091.094-.023z" fill="#FEFDFD"/></g><defs><clipPath id="pi-esewa-clip"><path fill="#fff" d="M0 0h38v24H0z"/></clipPath></defs></svg>