<svg width="38" height="24" role="img" viewBox="0 0 38 24" fill="none" aria-labelledby="pi-etihadguestpay" xmlns="http://www.w3.org/2000/svg"><title id="pi-etihadguestpay">Etihad GuestPay</title><g clip-path="url(#pi-clip0_6_2)"><path opacity=".07" d="M35 0H3C1.3 0 0 1.3 0 3v18c0 1.7 1.4 3 3 3h32c1.7 0 3-1.3 3-3V3c0-1.7-1.4-3-3-3z" fill="#000"/><path d="M35 1c1.1 0 2 .9 2 2v18c0 1.1-.9 2-2 2H3c-1.1 0-2-.9-2-2V3c0-1.1.9-2 2-2h32z" fill="#fff"/><path d="M25.921 13.791l.63-.697v-1.396h.09v-.14h-.854v.094h.09v.883h-1.708l-.405.512v-1.302h.09v-.14H23v.093h.09v2.466H23v.14h.854v-.094h-.09v-1.163h.09l.135-.093h1.842v.837h.09zm8.989-1.162c-.09-.326-.314-.605-.674-.791-.315-.186-.764-.28-1.348-.28h-2.292v.094l.09.046v.28h2.202c.45 0 .764.046.988.185.315.187.45.42.45.745 0 .14 0 .325-.135.418-.09.14-.225.233-.36.326a2.43 2.43 0 01-.943.186h-1.169v-1.675h-.63v1.908H31v.139h1.888c.36 0 .629 0 .854-.046.27-.047.494-.14.719-.326.224-.14.36-.326.45-.512.044-.14.089-.279.089-.465s0-.232-.045-.325l-.045.093zm-8.27 1.535l1.573-1.721-.359-.42-2.023 2.187h.944v-.093l-.134.047z" fill="#B48932"/><path d="M27.989 11.93l.404.466.405.419h-.72l-.404.418h.09c0 .047.09 0 .09 0h1.258l.81.93h-.09v.094h.943l-2.472-2.698-.36.372h.046zm-6.023-.325h.09v2.466h-.09v.14h.854v-.094h-.09v-2.419l.09-.093v-.093h-.854v.093zm-3.506 2.14h-.09c0 .093-.044.093-.044.093h-1.888c-.45 0-.764-.046-.989-.186-.314-.186-.494-.419-.494-.744 0-.14 0-.28.135-.419.18-.233.404-.419.719-.465h1.258v.093h.09l.405-.512h-2.023c-.18 0-.36.14-.539.233-.27.186-.494.372-.584.605-.045.139-.09.279-.09.465 0 .418.225.79.674 1.023.225.093.45.186.674.233.18 0 .45.046.764.046h1.753l.405-.512h-.135v.047z" fill="#B48932"/><path d="M17.607 13.094l.404-.512H15.27l-.27.419h2.517v.093h.09z" fill="#B48932"/><path d="M17.427 12.024h.225c0-.093.045-.093.09-.093h1.528v2.093h-.09v.14h.854v-.093h-.09v-2.187h1.393v.093h.09l.404-.511h-3.955l-.404.511-.045.047zm.315 4.279c0-.558.36-.883.764-.883s.404.093.494.14v.325a.59.59 0 00-.45-.186c-.224 0-.494.186-.494.558 0 .372.18.605.45.605h.18v-.466H19v.605c-.09.093-.27.14-.54.14-.449 0-.763-.28-.763-.884l.045.046zm1.888.093v-.93h.314v.93c0 .326.135.466.36.466.224 0 .359-.14.359-.466v-.93h.315v.93c0 .512-.27.745-.675.745-.404 0-.674-.233-.674-.745zm2.022-.93h1.033l-.09.28h-.629v.371h.45v.233h-.45v.465h.63l.09.28h-1.034v-1.629zm1.528 1.582v-.326c.09.046.224.186.404.186.18 0 .27-.093.27-.233 0-.139-.09-.186-.27-.232h-.045c-.27-.093-.404-.233-.404-.465 0-.233.18-.512.584-.512.405 0 .36.047.405.093v.326c-.09-.047-.225-.186-.405-.186-.18 0-.27.046-.27.186s.045.186.225.232h.045c.27.093.405.233.405.465 0 .233-.18.559-.585.559-.404 0-.36-.093-.404-.093h.045zm1.932-1.303h-.449v-.279h1.258l-.09.28h-.404v1.395h-.315v-1.396zm1.304-.279h.494c.45 0 .63.233.63.558 0 .326-.18.605-.585.605h-.225v.465h-.314v-1.628zm.314.93h.18c.225 0 .315-.14.315-.325 0-.186-.09-.326-.315-.326h-.18v.651zm1.708-.93h.225l.63 1.628h-.316l-.134-.326h-.405l-.09-.232h.405l-.18-.465v-.14l-.09.14-.36 1.023h-.314l.63-1.628zm1.528.977l-.539-.977h.36l.36.698.359-.698h.314l-.54.977v.698h-.314v-.698z" fill="#B48932"/><mask id="pi-mask0_6_2" style="mask-type:luminance" maskUnits="userSpaceOnUse" x="3" y="7" width="13" height="11"><path d="M11.494 17.14L15.134 7h-1.707c0 .047-.584.047-1.124.651C11.584 8.35 3 17.187 3 17.187h8.494v-.046z" fill="#fff"/></mask><g mask="url(#pi-mask0_6_2)"><path d="M11.18 17.978l2.067-5.768 1.888-5.256h-1.708c-.45 0-.63.186-.63.186-.584.558-3.415 3.302-10.651 10.838h9.034z" fill="#F7F1E4"/><mask id="pi-mask1_6_2" style="mask-type:luminance" maskUnits="userSpaceOnUse" x="2" y="6" width="14" height="12"><path d="M15.135 7l-1.843 5.163-2.112 5.815H2.146c.36-.326 9.528-9.908 10.382-10.606 0 0 .36-.372.809-.372 0 0 .989 0 1.843-.046L15.135 7z" fill="#fff"/></mask><g mask="url(#pi-mask1_6_2)"><path d="M12.663 16.861l-2.113-2.325 1.349-.512.764 2.838z" fill="#D6A729"/><path d="M12.528 16.396l2.023-3.349-2.652.977.63 2.372z" fill="#AB812D"/><path d="M11.09 10.489l4.584 2.186-3.775 1.35-.81-3.536z" fill="#80431D"/><path d="M11.09 10.489l-1.798 2.093 1.259 1.954 1.348-.512-.81-3.535z" fill="#DAD5C8"/><path d="M11.09 10.489l4.584 2.186.45-6.512-5.034 4.326z" fill="#D6A729"/><path d="M11.09 10.489l-.584-3.396 5.168-.512-4.584 3.908z" fill="#AB812D"/><path d="M12.213 16.35l-1.662-1.814-.675 1.72 2.293.094" fill="#DAD5C8"/><path d="M11.944 17.466l-5.438.93 3.37-2.14 2.068 1.21z" fill="#DAD5C8"/><path d="M8.079 13.652l2.472.884-.675 1.72-1.797-2.604z" fill="#AB812D"/><path d="M8.079 13.652l2.472.884-1.259-1.954-1.213 1.07zM3.36 16.024c-.225-.325.853-.14.539-.372-.09-.093.584-.14.494-.232l1.528-1.582 1.349 2.047-3.101.14-.405.092H3.36v-.046" fill="#80431D"/><path d="M8.079 13.652l-2.023.325 1.259 1.861.764-2.186zm0 0l-.9-1.07.945-1.07 1.168 1.07-1.213 1.07z" fill="#DAD5C8"/><path d="M11.09 10.489l-.315-1.768-2.337 2.559.18-.047.36-.14 2.112-.604z" fill="#80431D"/><path d="M8.663 11.187l-.27.093-.404.14 1.303 1.162 1.798-2.093-2.427.697zm1.213 5.07l-2.561-.419-.81 2.559 3.371-2.14z" fill="#fff"/><path d="M3.764 16.35c.045 0 2.472 1.674 2.472 1.674h-4.27L3.72 16.35h.045z" fill="#DAD5C8"/></g><mask id="pi-mask2_6_2" style="mask-type:luminance" maskUnits="userSpaceOnUse" x="2" y="7" width="14" height="12"><path d="M2.011 18.024c.135 0 8.764-8.838 8.764-8.838s1.933-2 2.337-2.093c.405-.046 2.023-.046 2.023-.046L11.18 18.024H2.01z" fill="#fff"/></mask><g mask="url(#pi-mask2_6_2)"><path style="mix-blend-mode:overlay" d="M11.405 12.024l-6.562 6.233-3.281-.186 9.258-9.117.27 1.535.315 1.535z" fill="url(#pi-paint0_linear_6_2)" opacity=".5"/><path style="mix-blend-mode:overlay" d="M11.405 12.024l5.483-5.629-2.922-.511-3.146 3.07.27 1.535.315 1.535z" fill="url(#pi-paint1_linear_6_2)"/></g></g></g><defs><linearGradient id="pi-paint0_linear_6_2" x1="-219.913" y1="173.813" x2="-221.658" y2="171.928" gradientUnits="userSpaceOnUse"><stop stop-color="#fff" stop-opacity="0"/><stop offset=".2" stop-color="#fff" stop-opacity=".09"/><stop offset=".3" stop-color="#fff" stop-opacity=".25"/><stop offset=".4" stop-color="#fff" stop-opacity=".49"/><stop offset=".5" stop-color="#fff" stop-opacity=".64"/><stop offset=".6" stop-color="#fff" stop-opacity=".49"/><stop offset=".7" stop-color="#fff" stop-opacity=".25"/><stop offset=".8" stop-color="#fff" stop-opacity=".09"/><stop offset=".9" stop-color="#fff" stop-opacity="0"/><stop offset="1" stop-color="#fff" stop-opacity="0"/></linearGradient><linearGradient id="pi-paint1_linear_6_2" x1="-212.996" y1="167.206" x2="-214.741" y2="165.321" gradientUnits="userSpaceOnUse"><stop stop-color="#fff" stop-opacity="0"/><stop offset=".3" stop-color="#fff" stop-opacity=".04"/><stop offset=".4" stop-color="#fff" stop-opacity=".09"/><stop offset=".5" stop-color="#fff" stop-opacity=".3"/><stop offset=".6" stop-color="#fff" stop-opacity=".09"/><stop offset=".7" stop-color="#fff" stop-opacity=".04"/><stop offset=".9" stop-color="#fff" stop-opacity="0"/><stop offset="1" stop-color="#fff" stop-opacity="0"/></linearGradient><clipPath id="pi-clip0_6_2"><path fill="#fff" d="M0 0h38v24H0z"/></clipPath></defs></svg>