<svg xmlns="http://www.w3.org/2000/svg" role="img" viewBox="0 0 38 24" width="38" height="24" aria-labelledby="pi-etika"><title id="pi-etika">etika</title><style>.s2{fill:#000}.s3{fill:#007e6e}</style><path id="pi-etika-Layer" d="M38 3v18c0 1.7-1.3 3-3 3H3c-1.6 0-3-1.3-3-3V3c0-1.7 1.3-3 3-3h32c1.6 0 3 1.3 3 3z" opacity=".07" fill="#000"/><path id="pi-etika-Layer" d="M35 1c1.1 0 2 .9 2 2v18c0 1.1-.9 2-2 2H3c-1.1 0-2-.9-2-2V3c0-1.1.9-2 2-2z" fill="#fff"/><path id="pi-etika-Layer" class="s2" d="M24.3 13.7v.1l2.5 3.7s0 .1-.1.1h-2.2L23 15h-.1l-.5.6q-.1 0-.1.1v1.9h-1.8V5.7l1.8-.7v8.2c0 .1.1.1.1.1l1.9-2h2.3v.1zm-8.9-2.4h.7v1.5h-.7v4.7q0 .1-.1.1h-1.7q-.1 0-.1-.1v-4.7h-.7v-1.5h.7V8.6h.1l1.7-.7h.1v3.4z"/><path id="pi-etika-Layer" fill-rule="evenodd" class="s2" d="M12.1 14.6v.3q0 .1-.1.1H5.1q-.1 0-.1-.1v-.5c0-1.9 1.4-3.3 3.4-3.4 2-.1 3.7 1.5 3.7 3.6zm-2-.9c-.2-.8-.7-1.2-1.5-1.2s-1.3.4-1.5 1.2h3z"/><path id="pi-etika-Layer" class="s2" d="M18.2 10.1c-.6 0-1-.4-1-.9s.4-.9 1-.9c.5 0 .9.4.9.9s-.4.9-.9.9zm-6.6 6.1c-.3.6-.9 1.1-1.6 1.4q-.6.3-1.4.3-.9 0-1.5-.3c-.7-.3-1.3-.8-1.7-1.4q0-.1.1-.1h6.1v.1zm5.6-4.1c0-.5.4-.8.8-.8h.3c.4 0 .8.3.8.8v4.7c0 .4-.4.8-.8.8H18c-.4 0-.8-.4-.8-.8z"/><path id="pi-etika-Layer" fill-rule="evenodd" class="s2" d="M33.4 13.7v3.8q0 .1-.1.1h-1.6v-.4c-.5.4-1.2.7-2.1.7-1.6 0-2.7-.8-2.7-2.2 0-1.3 1-2.2 2.7-2.2.9 0 1.5.2 1.9.5 0-1-.6-1.4-1.8-1.4-.4 0-.8 0-1.4.2l-.4-1.4h.1c.9-.2 1.4-.3 2.2-.3 2.1 0 3.2 1.1 3.2 2.6zm-1.9 1.9c0-.6-.5-1-1.4-1-.8 0-1.3.4-1.3 1 0 .7.5 1.1 1.3 1.1s1.4-.4 1.4-1.1z"/><path id="pi-etika-Layer" class="s2" d="M11.6 16.2c-.3.6-.9 1.1-1.6 1.4q-.6.3-1.4.3-.9 0-1.5-.3c-.7-.3-1.3-.8-1.7-1.4q0-.1.1-.1h6.1v.1z"/><path id="pi-etika-Layer" class="s2" d="M11.6 16.2c-.3.6-.9 1.1-1.6 1.4q-.6.3-1.4.3-.9 0-1.5-.3c-.7-.3-1.3-.8-1.7-1.4q0-.1.1-.1h6.1v.1z"/><path id="pi-etika-Layer" class="s3" d="M11.6 16.2c-.3.6-.9 1.1-1.6 1.4q-.6.3-1.4.3-.9 0-1.5-.3c-.7-.3-1.3-.8-1.7-1.4q0-.1.1-.1h6.1v.1z"/><path id="pi-etika-Layer" class="s3" d="M11.6 16.2c-.3.6-.9 1.1-1.6 1.4q-.6.3-1.4.3-.9 0-1.5-.3c-.7-.3-1.3-.8-1.7-1.4q0-.1.1-.1h6.1v.1z"/><path id="pi-etika-Layer" class="s3" d="M11.6 16.2c-.3.6-.9 1.1-1.6 1.4q-.6.3-1.4.3-.9 0-1.5-.3c-.7-.3-1.3-.8-1.7-1.4q0-.1.1-.1h6.1v.1z"/><path id="pi-etika-Layer" class="s3" d="M11.6 16.2c-.3.6-.9 1.1-1.6 1.4q-.6.3-1.4.3-.9 0-1.5-.3c-.7-.3-1.3-.8-1.7-1.4q0-.1.1-.1h6.1v.1z"/></svg>