<svg xmlns="http://www.w3.org/2000/svg" role="img" viewBox="0 0 38 24" width="38" height="24" aria-labelledby="pi-ewalletphilippines"><title id="pi-ewalletphilippines">E-wallet Philippines</title><g clip-path="url(#pi-ewalletphilippines_clip0_24_2)"><path d="M35 .001H3c-1.7 0-3 1.3-3 3v18C0 22.7 1.4 24 3 24h32c1.7 0 3-1.3 3-3V3c0-1.7-1.4-3-3-3v.001z" fill="#000" fill-opacity=".07"/><path d="M35 1c1.1 0 2.001.9 2.001 2v18a2.006 2.006 0 01-2 2H3A2.007 2.007 0 011 21V3c0-1.1.9-2 2.001-2h32z" fill="#fff"/><path d="M24.313 12.21l-10.297.02c-.607.001-1.102-.45-1.103-1.004l-.011-4.95c0-.556.492-1.009 1.099-1.01l10.296-.02c.607 0 1.103.45 1.104 1.006l.01 4.95c.005.554-.491 1.008-1.098 1.009z" fill="#E0FAFC"/><path d="M25.404 7.872l.008 3.33c0 .555-.492 1.008-1.1 1.009l-10.296.02c-.607 0-1.102-.45-1.103-1.005l-.007-3.33" fill="#A3EDF0"/><path fill-rule="evenodd" clip-rule="evenodd" d="M16.456 10.983l-2.375.004c-.133 0-.243-.098-.243-.223 0-.121.106-.222.243-.222l2.375-.003c.133 0 .244.097.244.222-.001.122-.112.22-.244.223zM22.566 10.1l-8.533.014c-.133-.001-.243-.098-.243-.223 0-.121.106-.222.243-.222l8.533-.015c.133.001.243.098.243.223 0 .121-.111.22-.243.222z" fill="#29CFD4"/><path d="M14.206 7.404L13.941 6.1h.33l.1.61c.008.069.018.137.028.207.01.068.02.137.028.206h.009l.042-.206.043-.207.154-.61h.273l.154.61.041.205.044.208h.009c.01-.07.02-.14.028-.208l.031-.205.099-.61h.308l-.254 1.305h-.405l-.14-.592a5.895 5.895 0 01-.033-.153 9.117 9.117 0 01-.024-.15h-.009a10.682 10.682 0 01-.059.303l-.133.592h-.399zM16.082 7.428a.368.368 0 01-.135-.024.288.288 0 01-.167-.158.312.312 0 01-.022-.118c0-.104.048-.186.145-.244.096-.059.252-.098.466-.118a.153.153 0 00-.044-.105c-.024-.026-.067-.04-.127-.04a.43.43 0 00-.14.024 1.083 1.083 0 00-.146.067l-.117-.195c.07-.038.143-.07.22-.094a.822.822 0 01.245-.036c.14 0 .246.037.32.11.074.072.111.185.111.339v.568h-.263l-.021-.102h-.01a.735.735 0 01-.146.092.41.41 0 01-.169.034zm.11-.228a.19.19 0 00.094-.022.455.455 0 00.083-.062v-.174a.623.623 0 00-.236.064c-.044.028-.066.061-.066.1 0 .032.011.056.033.072a.17.17 0 00.092.022zM17.26 7.428a.36.36 0 01-.141-.024.237.237 0 01-.092-.066.293.293 0 01-.048-.104.578.578 0 01-.015-.138V6.001h.321v1.107c0 .03.006.052.018.064.013.012.026.018.04.018h.017a.078.078 0 00.022-.004l.04.218a.48.48 0 01-.162.024zM17.886 7.428a.361.361 0 01-.14-.024.237.237 0 01-.092-.066.295.295 0 01-.049-.104.578.578 0 01-.015-.138V6.001h.322v1.107c0 .03.006.052.018.064a.059.059 0 00.039.018h.017a.078.078 0 00.022-.004l.04.218a.479.479 0 01-.162.024zM18.703 7.428a.673.673 0 01-.217-.034.477.477 0 01-.291-.266.55.55 0 01-.042-.22.516.516 0 01.322-.485.517.517 0 01.19-.036c.078 0 .145.012.202.036a.405.405 0 01.232.252.596.596 0 01.016.319h-.65a.245.245 0 00.096.16c.05.033.113.05.186.05a.477.477 0 00.234-.066l.107.178a.74.74 0 01-.385.112zm-.241-.628h.392a.211.211 0 00-.042-.137c-.027-.034-.074-.052-.14-.052a.215.215 0 00-.136.046.227.227 0 00-.074.143zM19.747 7.428a.479.479 0 01-.173-.028.312.312 0 01-.116-.078.328.328 0 01-.066-.12.596.596 0 01-.02-.158V6.64h-.148v-.218l.166-.012.037-.264h.268v.264h.26v.23h-.26v.399c0 .056.012.097.037.122.026.024.06.036.103.036a.372.372 0 00.103-.02l.05.214c-.03.008-.064.016-.103.024a.7.7 0 01-.138.012zM20.466 7.428a.696.696 0 01-.222-.038.702.702 0 01-.195-.1l.145-.184c.05.035.097.06.142.078a.383.383 0 00.138.026.193.193 0 00.105-.022.07.07 0 00.033-.062.055.055 0 00-.02-.042.158.158 0 00-.05-.036.407.407 0 00-.07-.028 3.193 3.193 0 01-.182-.072.452.452 0 01-.092-.058.313.313 0 01-.067-.082.226.226 0 01-.027-.11c0-.046.01-.088.029-.127a.285.285 0 01.085-.098.414.414 0 01.131-.062.569.569 0 01.171-.024c.084 0 .157.013.22.04a.857.857 0 01.164.086l-.145.176a.582.582 0 00-.116-.062.313.313 0 00-.114-.022c-.082 0-.123.026-.123.078 0 .016.006.03.018.043.012.01.027.02.046.03a1.095 1.095 0 00.149.054c.035.012.07.026.103.042a.379.379 0 01.094.056.24.24 0 01.096.2.282.282 0 01-.114.228.47.47 0 01-.14.068.697.697 0 01-.192.024z" fill="#872166"/><path d="M25.363 18.266l-12.398.026c-.552 0-1.003-.438-1.009-.973l-.017-8.31c0-.536.112-.978 1.338-.978l12.064-.026c.552 0 1.003.437 1.01.973l.016 8.31c.005.535-.446.978-1.004.978z" fill="#29CFD4"/><path d="M19.229 18.279c.208-.488.34-.986.348-1.5.016-.917-.362-1.884-.74-2.852-.314-.806-.628-1.612-.715-2.389-.155-1.377.404-2.662.865-3.52l6.354-.013c.552 0 1.004.437 1.01.973l.016 8.31c.005.535-.446.978-1.004.978l-6.134.013z" fill="#086981"/><path d="M26.381 14.327h-2.865c-.34 0-.619-.257-.619-.571v-1.21c0-.314.279-.572.619-.572h2.865c.34 0 .619.258.619.572v1.21c0 .314-.279.571-.619.571z" fill="#29CFD4"/><path d="M23.912 13.534c.23 0 .418-.173.418-.386 0-.213-.187-.386-.418-.386-.231 0-.418.173-.418.386 0 .213.187.386.418.386z" fill="#fff"/><path d="M17.025 20.621a.16.16 0 01-.119-.05c-.045-.052-.028-.127.04-.164.153-.084.323-.196.515-.341.057-.042.147-.042.198.01.051.046.051.12-.011.163-.198.149-.385.27-.55.36a.106.106 0 01-.073.022zm-.917-.009a.147.147 0 01-.13-.07c-.068-.126-.097-.294-.097-.513v-.09c0-.065.068-.116.148-.111.079 0 .141.056.136.121v.084c0 .182.022.327.073.42.028.061 0 .126-.073.154-.017 0-.034.005-.057.005zm2.202-.966a.147.147 0 01-.096-.033c-.057-.042-.062-.117-.011-.163.141-.127.294-.267.447-.416.051-.047.142-.056.198-.014.057.042.068.117.017.163-.158.15-.311.295-.453.42a.14.14 0 01-.102.043zm-2.151-.467h-.028c-.08-.014-.125-.075-.114-.136.04-.172.09-.354.148-.555.017-.06.096-.103.17-.089.073.014.124.08.107.14-.057.192-.102.378-.142.542-.01.06-.073.098-.141.098zm.419-1.41c-.011 0-.029 0-.04-.005-.073-.018-.119-.084-.096-.145.057-.172.125-.354.192-.541.023-.06.102-.098.176-.08.074.02.119.085.096.145-.068.187-.13.364-.192.537-.017.056-.074.089-.136.089zm.515-1.387c-.017 0-.028 0-.045-.004-.074-.02-.113-.084-.09-.15.067-.173.14-.355.214-.532.023-.06.108-.093.181-.075.074.02.114.09.091.15-.073.182-.147.36-.215.532-.023.051-.074.08-.136.08zm.572-1.368c-.017 0-.034 0-.045-.004-.074-.024-.114-.089-.085-.15.079-.182.158-.36.232-.527.028-.06.107-.094.181-.07.074.023.113.088.085.15-.074.167-.153.345-.232.527a.16.16 0 01-.136.074zm.611-1.363c-.017 0-.034-.005-.05-.01-.074-.023-.108-.088-.08-.149.096-.205.176-.382.244-.523.028-.06.113-.088.18-.065.074.024.108.094.08.15-.068.144-.153.322-.243.522-.017.047-.074.075-.13.075zm.697-1.33a.178.178 0 01-.068-.014c-.068-.033-.097-.103-.057-.16l.323-.494a.158.158 0 01.192-.047c.068.033.097.103.057.159-.108.159-.215.327-.323.495-.022.037-.073.06-.124.06zm.838-1.27a.176.176 0 01-.068-.014c-.068-.033-.096-.103-.057-.159.113-.168.22-.332.329-.49.04-.056.124-.075.192-.047.068.033.09.103.057.159-.108.159-.215.322-.329.49a.155.155 0 01-.124.06zm.855-1.265a.177.177 0 01-.068-.014c-.068-.033-.09-.103-.051-.16.113-.167.226-.326.34-.485.039-.056.124-.074.192-.042.068.033.09.103.05.159-.107.159-.22.317-.339.486a.151.151 0 01-.124.056zm.883-1.247a.144.144 0 01-.074-.019c-.068-.032-.09-.102-.05-.158.118-.168.237-.327.35-.481.04-.056.13-.07.193-.038.068.033.085.108.045.16-.113.153-.232.312-.351.475-.017.038-.062.061-.113.061zm3.408-.48a.238.238 0 01-.056-.01c-.074-.024-.108-.094-.074-.154l.255-.518c.028-.061.107-.09.18-.066.074.024.108.089.08.15-.08.172-.17.35-.255.522a.142.142 0 01-.13.075zm-2.485-.752a.132.132 0 01-.074-.02c-.068-.032-.085-.107-.045-.163.124-.163.255-.322.373-.471a.165.165 0 01.199-.033c.062.038.084.108.04.164-.12.149-.244.303-.369.466a.168.168 0 01-.124.056zm3.102-.607c-.017 0-.028 0-.045-.005-.074-.019-.113-.084-.09-.15.073-.177.14-.359.198-.532.022-.06.101-.098.175-.08.074.02.119.085.096.146-.062.177-.13.36-.204.537-.017.056-.073.084-.13.084zm-2.117-.589a.194.194 0 01-.085-.023c-.063-.037-.08-.112-.034-.163.142-.164.277-.313.413-.453a.158.158 0 01.198-.019c.063.042.074.112.023.163-.13.136-.266.285-.408.444a.128.128 0 01-.107.051zm2.576-.807c-.085-.005-.147-.056-.142-.122v-.06a1.19 1.19 0 00-.079-.449c-.028-.06.011-.126.085-.149.074-.023.153.01.181.07.08.177.096.383.096.528v.07c0 .065-.062.112-.141.112zm-1.466-.308a.164.164 0 01-.102-.033c-.057-.047-.057-.122 0-.164.192-.163.373-.289.532-.378a.16.16 0 01.198.033c.045.051.028.126-.04.163-.147.08-.311.201-.492.35a.186.186 0 01-.096.029z" fill="#000" fill-opacity=".16"/><path d="M15.772 20.8c.423 0 .766-.317.766-.708 0-.39-.343-.708-.766-.708s-.767.317-.767.708c0 .391.344.708.767.708z" fill="#872166"/><path d="M9.677 16.868c-.074 0-.132-.053-.132-.12 0-.068.058-.122.132-.122.188 0 .398-.014.619-.029.073-.005.136.044.141.112.005.067-.047.125-.12.13-.226.015-.441.025-.64.03zm-.987-.087c-.01 0-.02 0-.031-.005a1.617 1.617 0 01-.399-.14c-.031-.015-.136-.058-.225-.145a.115.115 0 01.005-.17c.052-.044.136-.044.184.005a.448.448 0 00.136.092l.016.005c.094.048.21.087.34.12.069.015.11.083.095.146-.01.053-.063.092-.12.092zm-.346-1.046a.141.141 0 01-.094-.034c-.053-.049-.053-.126 0-.17.131-.12.299-.247.503-.378a.14.14 0 01.184.03c.042.053.026.13-.031.17a3.413 3.413 0 00-.467.353.194.194 0 01-.095.029zm1.338-.838a.132.132 0 01-.116-.063c-.036-.058-.01-.131.053-.165.173-.087.362-.174.566-.266a.132.132 0 01.173.058c.032.058.006.13-.062.16-.2.087-.383.174-.556.261a.112.112 0 01-.058.015zm1.463-.65a.133.133 0 01-.12-.072c-.027-.063 0-.13.068-.16l.582-.228a.14.14 0 01.173.068c.026.063-.005.13-.073.16-.2.077-.394.15-.577.223-.016.01-.037.01-.053.01zm1.506-.561c-.053 0-.105-.03-.12-.078-.027-.063.01-.13.073-.155.188-.068.388-.136.592-.203a.133.133 0 01.168.072c.026.063-.01.131-.079.155-.199.068-.398.136-.587.204-.016 0-.032.005-.047.005zm1.526-.514a.134.134 0 01-.126-.082c-.026-.063.01-.131.079-.155.194-.063.393-.126.598-.19a.14.14 0 01.168.078c.02.063-.016.131-.084.155-.205.063-.404.126-.593.19-.016 0-.026.004-.042.004zm1.537-.484a.136.136 0 01-.126-.083c-.02-.063.016-.13.084-.155.194-.058.394-.12.598-.179.068-.02.142.014.163.077a.118.118 0 01-.084.15c-.205.059-.404.122-.598.18-.01.01-.021.01-.037.01zm1.548-.456c-.058 0-.11-.034-.126-.087a.118.118 0 01.084-.15c.194-.058.398-.112.603-.17.068-.02.141.015.162.083.021.063-.015.13-.089.15-.204.058-.404.116-.598.17-.01.004-.02.004-.036.004zm1.557-.436c-.057 0-.11-.034-.125-.087-.021-.063.02-.13.089-.15.2-.053.398-.112.603-.165.068-.02.142.02.163.082.02.063-.021.131-.09.15-.204.054-.404.112-.603.165-.016.005-.026.005-.037.005zm8.262-.213a.14.14 0 01-.11-.053c-.042-.058-.021-.131.037-.17.183-.111.361-.218.519-.32a.14.14 0 01.183.03c.042.053.027.13-.031.17-.162.1-.34.212-.525.324a.128.128 0 01-.073.019zm-6.704-.208c-.057 0-.11-.034-.125-.088-.021-.063.02-.13.089-.15l.603-.16c.068-.019.142.02.163.083.02.063-.021.13-.09.15a95.58 95.58 0 00-.603.16c-.01.005-.026.005-.037.005zm1.563-.407c-.057 0-.11-.034-.125-.087-.021-.063.02-.131.089-.15.2-.054.404-.102.608-.156.069-.019.142.02.163.083.02.063-.021.13-.09.15-.204.053-.409.102-.608.155-.01.005-.02.005-.037.005zm6.463-.262a.134.134 0 01-.1-.043c-.047-.054-.037-.126.016-.17.184-.14.336-.271.451-.383a.134.134 0 01.184-.005.111.111 0 01.005.17c-.12.121-.283.257-.477.407-.021.02-.048.024-.08.024zm-4.894-.136a.128.128 0 01-.126-.087c-.02-.063.021-.13.094-.15.2-.048.404-.102.609-.15.068-.02.142.02.163.087.02.063-.021.131-.095.15-.204.049-.409.102-.608.15h-.037zm1.574-.387a.127.127 0 01-.126-.092c-.021-.063.02-.13.094-.15.2-.049.404-.097.609-.146.068-.014.141.025.157.088a.121.121 0 01-.095.145l-.608.145c-.01.01-.021.01-.031.01zm1.573-.378a.126.126 0 01-.126-.092.121.121 0 01.095-.145l.44-.102c.006 0 .074-.015.184-.034.073-.01.142.034.152.097a.123.123 0 01-.105.14c-.105.02-.168.03-.168.03l-.435.101c-.016.005-.026.005-.037.005zm2.224-.199c-.01 0-.026 0-.037-.004a1.714 1.714 0 00-.435-.044c-.047 0-.1 0-.147.005a.126.126 0 01-.136-.116c-.005-.068.052-.122.126-.126.052 0 .105-.005.157-.005.205 0 .378.02.509.053.068.02.11.087.09.15a.128.128 0 01-.127.087z" fill="#000" fill-opacity=".16"/><path d="M11.431 14.165c.244 0 .442-.183.442-.408 0-.225-.198-.408-.442-.408s-.441.183-.441.408c0 .225.197.408.441.408z" fill="#872166"/><path d="M28.177 16.773l-.017-.255c-.055.01-.116.056-.116.122 0 .072.056.113.094.118-.005 0-.038-.01-.182-.03a.13.13 0 01-.116-.149c.01-.072.083-.117.16-.107.083.01.15.02.2.03.143-.02.276-.04.392-.061.077-.015.15.03.166.097.017.072-.033.138-.105.153a7.366 7.366 0 01-.432.072c-.022.01-.033.01-.044.01zm-1.244-.168h-.017l-.044-.006c-.078-.01-.128-.071-.122-.143.006-.071.078-.117.155-.112l.044.005c.078.01.127.072.122.143-.006.066-.067.113-.139.113zm2.588-.332a.217.217 0 01-.055-.01c-.072-.031-.1-.103-.072-.17a.152.152 0 00.017-.07c0-.088-.067-.2-.189-.323a.121.121 0 01.006-.178c.055-.046.144-.046.194.005.177.178.265.342.265.495a.382.382 0 01-.039.174c-.022.05-.077.076-.127.076zm-1.034-1.12a.129.129 0 01-.072-.02c-.166-.097-.36-.199-.57-.301-.066-.036-.094-.113-.055-.174a.144.144 0 01.188-.05c.216.106.41.209.586.31a.12.12 0 01.044.174.156.156 0 01-.121.062zm-1.516-.745c-.022 0-.038-.005-.06-.01a36.732 36.732 0 00-.603-.256c-.072-.03-.1-.102-.072-.168.033-.067.11-.092.182-.067.21.087.415.174.609.256.066.03.1.107.066.168a.13.13 0 01-.122.077zm-1.576-.644c-.017 0-.033-.005-.055-.01-.2-.077-.404-.153-.614-.235a.127.127 0 01-.078-.169c.028-.066.11-.097.183-.071.21.076.42.158.614.235.072.025.105.102.072.168-.017.052-.067.082-.122.082zm-1.593-.592c-.017 0-.033-.006-.05-.01-.204-.072-.41-.149-.62-.22a.129.129 0 01-.082-.164c.027-.066.105-.097.177-.076.21.071.415.148.62.22.071.025.104.096.077.163-.011.056-.067.087-.122.087zm-1.61-.557c-.016 0-.033 0-.05-.01-.204-.072-.414-.138-.624-.21-.072-.025-.111-.097-.083-.163a.14.14 0 01.177-.077c.21.072.42.138.625.21.072.025.11.097.083.163-.017.056-.072.087-.128.087zm-1.615-.537c-.016 0-.033 0-.044-.005-.21-.066-.415-.138-.625-.204-.072-.026-.11-.097-.083-.163a.14.14 0 01.177-.077c.21.066.42.133.63.204.072.026.111.097.083.164a.17.17 0 01-.138.081zm-1.626-.52c-.017 0-.027 0-.044-.006l-.63-.199a.13.13 0 01-.09-.163c.023-.067.106-.103.178-.082l.63.2a.13.13 0 01.089.162.143.143 0 01-.133.087zm-1.626-.506c-.017 0-.028 0-.044-.005-.21-.067-.42-.128-.63-.195a.128.128 0 01-.09-.163c.023-.066.1-.102.178-.082.21.062.42.128.63.194a.13.13 0 01.089.164.149.149 0 01-.133.087zm-7.45-.394a.157.157 0 01-.083-.025 12.888 12.888 0 01-.52-.394c-.056-.046-.067-.127-.017-.178a.142.142 0 01.194-.016c.287.225.508.383.508.389.061.04.072.122.028.178a.144.144 0 01-.11.046zm5.818-.102c-.016 0-.027 0-.044-.005-.216-.066-.426-.128-.63-.189a.125.125 0 01-.089-.158c.022-.067.1-.103.171-.082.21.061.42.128.631.189.072.02.11.092.088.163-.016.046-.071.082-.127.082zm-1.637-.49c-.017 0-.028 0-.044-.005-.216-.062-.426-.128-.636-.19a.125.125 0 01-.089-.158c.022-.066.1-.102.172-.081.204.06.42.122.636.188.072.02.11.092.088.159-.016.056-.066.087-.127.087zm-5.465-.46a.144.144 0 01-.1-.04 4.695 4.695 0 01-.442-.486c-.044-.056-.027-.138.039-.179.06-.04.15-.026.194.036.094.127.232.28.414.454a.117.117 0 01-.005.18.16.16 0 01-.1.035zm3.828-.02c-.011 0-.028 0-.044-.006l-.636-.183a.125.125 0 01-.089-.159c.022-.066.1-.102.171-.082l.636.184c.072.02.111.092.089.159-.017.05-.072.087-.127.087zm-1.643-.48c-.011 0-.028 0-.044-.006-.232-.066-.448-.133-.636-.184a.125.125 0 01-.089-.158c.022-.066.1-.102.172-.082.188.056.403.118.636.184.072.02.11.092.088.158-.016.057-.066.087-.127.087zM9.133 8.62c-.01 0-.022 0-.027-.005a3.897 3.897 0 00-.63-.082c-.078 0-.14-.061-.134-.133 0-.071.067-.127.144-.122.183.005.41.036.68.087.072.015.122.081.106.153a.14.14 0 01-.139.102zM11.158 11.552a.158.158 0 00.083.026.144.144 0 00.11-.046.123.123 0 00-.027-.179c0-.005-.222-.163-.51-.388a.142.142 0 00-.193.015c-.05.051-.039.133.017.179.293.23.509.388.52.393z" fill="#000" fill-opacity=".16"/><path d="M29.368 16.281c.244 0 .442-.183.442-.408 0-.225-.198-.408-.442-.408s-.442.183-.442.408c0 .225.198.408.442.408zM19.196 12.08c.303 0 .548-.226.548-.505s-.245-.505-.548-.505c-.302 0-.547.226-.547.505 0 .28.245.506.547.506zM29.18 10.483c.453 0 .82-.339.82-.757 0-.419-.367-.758-.82-.758-.453 0-.82.34-.82.758s.367.757.82.757zM25.299 4.801c.241 0 .437-.18.437-.4 0-.222-.196-.401-.438-.401-.241 0-.438.18-.438.4 0 .222.197.401.439.401z" fill="#872166"/></g><defs><clipPath id="pi-ewalletphilippines_clip0_24_2"><path fill="#fff" d="M0 0h38v24H0z"/></clipPath></defs></svg>