<svg xmlns="http://www.w3.org/2000/svg" viewBox="0 0 38 24" width="38" height="24" role="img" aria-labelledby="pi-fairstonepayments"><title id="pi-fairstonepayments">Fairstone Payments</title><path fill="#000" opacity=".07" d="M35 0H3C1.3 0 0 1.3 0 3v18c0 1.7 1.4 3 3 3h32c1.7 0 3-1.3 3-3V3c0-1.7-1.4-3-3-3z"/><path fill="#fff" d="M35 1c1.1 0 2 .9 2 2v18c0 1.1-.9 2-2 2H3c-1.1 0-2-.9-2-2V3c0-1.1.9-2 2-2h32"/><path fill="#ff6754" d="M20.79 8.8l2.72 2.72a.38.38 0 010 .54l-2.72 2.72a.38.38 0 000 .54l2.3 2.3a.38.38 0 00.54 0l5.56-5.56a.38.38 0 000-.54L23.63 6a.38.38 0 00-.54 0l-2.3 2.3a.38.38 0 000 .5z"/><path fill="#52356e" d="M8.92 12.06l9.87 9.86a.38.38 0 00.54 0L22.24 19a.38.38 0 000-.54l-3.15-3.15a.38.38 0 010-.54l2.72-2.72a.4.4 0 000-.54L19.09 8.8a.38.38 0 010-.54l3.15-3.15a.38.38 0 000-.54l-2.91-2.91a.38.38 0 00-.54 0l-9.87 9.86a.38.38 0 000 .54z"/></svg>