<svg width="38" height="24" viewBox="0 0 38 24" fill="none" xmlns="http://www.w3.org/2000/svg" aria-labelledby="pi-fam" role="img"><title id="pi-fam">Fam</title><g clip-path="url(#pi-fam-clip0_1998_12701)"><path opacity=".07" d="M35 0H3C1.3 0 0 1.3 0 3v18c0 1.7 1.4 3 3 3h32c1.7 0 3-1.3 3-3V3c0-1.7-1.4-3-3-3z" fill="#000"/><path d="M35 1c1.1 0 2 .9 2 2v18c0 1.1-.9 2-2 2H3c-1.1 0-2-.9-2-2V3c0-1.1.9-2 2-2h32z" fill="#FEE600"/><path d="M8.4 9.78v1.2h4.206v1.78H8.399V15H5V8h8.196v1.78H8.4z" fill="#0F0F0F"/><path d="M18.47 13.78h-3.83L13.962 15h-3.457l4.408-7h3.342l4.407 7h-3.514l-.677-1.22zm-.936-1.7l-.98-1.76-.979 1.76h1.96z" fill="#0F0F0F"/><path d="M29.903 15l-.029-3.19-2.19 2.56h-1.497l-2.19-2.45V15H20.9V8h2.795l3.284 3.73L30.177 8h2.794L33 15h-3.097z" fill="#0F0F0F"/></g><defs><clipPath id="pi-fam-clip0_1998_12701"><path fill="#fff" d="M0 0h38v24H0z"/></clipPath></defs></svg>