<svg viewBox="0 0 38 24" xmlns="http://www.w3.org/2000/svg" width="38" height="24" role="img" aria-labelledby="pi-familymart"><title id="pi-familymart">FamilyMart</title><path d="M0 6.1h38v11.81H0z" fill="#fff"/><path d="M35.89 0H2.11A2.14 2.14 0 0 0 0 2.17V6.1h38V2.2A2.14 2.14 0 0 0 35.92 0z" fill="#00b236"/><path d="M0 21.8A2.14 2.14 0 0 0 2.08 24h33.81A2.14 2.14 0 0 0 38 21.83v-3.92H0z" fill="#0095e3"/><path d="M.96 8.98v5.65H2.1v-2.47h2.4v-1.09H2.1v-1h2.44V8.98H.96zm6.92 4.84V12c0-.61-.31-1.38-1.64-1.38a3.32 3.32 0 0 0-1.24.22v1a2 2 0 0 1 1.09-.31c.36 0 .71.12.71.54a2 2 0 0 0-.63-.1A1.38 1.38 0 0 0 4.6 13.4 1.25 1.25 0 0 0 6 14.66a1.46 1.46 0 0 0 .9-.29.7.7 0 0 0 .09.26h1.13c-.12-.11-.24-.34-.24-.81zm-2.2-.54c0-.31.27-.52.65-.52a1 1 0 0 1 .47.11v.67a.83.83 0 0 1-.57.21c-.36 0-.55-.2-.55-.47zm25.53.54V12c0-.61-.31-1.38-1.64-1.38a3.33 3.33 0 0 0-1.24.23v1a2 2 0 0 1 1.09-.31c.36 0 .71.12.71.54a2 2 0 0 0-.63-.1 1.38 1.38 0 0 0-1.57 1.4 1.25 1.25 0 0 0 1.35 1.26 1.45 1.45 0 0 0 .9-.29.81.81 0 0 0 .09.26h1.18c-.14-.09-.24-.32-.24-.79zM29 13.28c0-.31.27-.52.65-.52a1 1 0 0 1 .47.11v.67a.83.83 0 0 1-.57.21c-.34 0-.55-.2-.55-.47zm-16.35-2.63a1.39 1.39 0 0 0-1.13.46 1.26 1.26 0 0 0-1-.46 1.43 1.43 0 0 0-1 .36v-.33h-1v3.95H9.6V12a.72.72 0 0 1 .57-.3c.32 0 .51.22.51.62v2.33h1.1v-2.7a.68.68 0 0 1 .56-.27c.35 0 .51.25.51.62v2.33H14V11.9a1.19 1.19 0 0 0-1.35-1.25zm3.84-1.67h1.08v5.65h-1.08zm8.36 1.76l-1.43-1.76h-1.18v5.65h1.18v-3.89l1.43 1.89 1.42-1.89v3.89h1.19V8.98h-1.19l-1.42 1.76zm-10.18-.05h1.08v3.94h-1.08zm.53-1.79a.7.7 0 1 0 .7.7.7.7 0 0 0-.7-.7zm17.64 2.2v-.41h-1v3.95h1.08v-2.48a1 1 0 0 1 .77-.38 1 1 0 0 1 .61.2v-1.2a1 1 0 0 0-.52-.14 1.1 1.1 0 0 0-.94.46zm3.74 2.53c-.34 0-.47-.26-.47-.56v-1.35H37v-1h-.92V9.2L35 9.66v1h-.58v1H35v1.51c0 .82.33 1.45 1.29 1.45a2 2 0 0 0 .71-.11v-1.04a.6.6 0 0 1-.42.16zm-17.71 2.02h1.21l1.82-4.96h-1.18l-.75 2.13-.82-2.13h-1.23l1.49 3.58-.54 1.38z" fill="#008cd6"/></svg>