<svg viewBox="0 0 38 24" width="38" height="24" role="img" aria-labelledby="pi-fantom" xml:space="preserve" xmlns="http://www.w3.org/2000/svg"><title id="pi-fantom">Fantom</title><rect width="38" height="24" rx="3" fill-opacity=".07"/><rect x="1" y="1" width="36" height="22" rx="2" fill="#fff"/><g transform="matrix(.02205 0 0 .02205 7.973 .973)"><circle cx="500" cy="500" r="425" fill-rule="evenodd" clip-rule="evenodd" fill="#1969ff"/><path d="M474.1 210.3c14.3-7.4 35.9-7.4 50.2 0l145.9 77.2c8.5 4.8 13.2 11.1 14.3 18.5v387.5c0 7.4-4.8 15.3-14.3 20.1l-145.9 77.2c-14.3 7.4-35.9 7.4-50.2 0l-145.9-77.2c-9.5-4.8-13.7-12.7-14.3-20.1V306c.5-6.9 5.3-13.7 13.7-18.5.1 0 146.5-77.2 146.5-77.2zm187.7 310.3L524.3 593c-14.3 7.4-35.9 7.4-50.2 0l-136.9-71.9v170.7l136.9 71.9c7.9 4.2 16.4 8.5 24.8 9h.5c7.9 0 15.9-4.2 24.3-7.9l138.5-73.5V520.6ZM291.2 684.5c0 14.8 1.6 24.8 5.3 31.7 2.6 5.8 6.9 10 14.8 15.3l.5.5c1.6 1.1 3.7 2.1 5.8 3.7l2.6 1.6 8.5 4.8-11.6 19.6-9-5.8-1.6-1.1c-2.6-1.6-4.8-3.2-6.9-4.2-22.2-14.8-30.1-31.2-30.1-65v-1.1zm197.2-266.4c-1.1.5-2.1.5-3.2 1.1l-145.9 77.2h-.5.5l145.9 77.2c1.1.5 2.1 1.1 3.2 1.1zm23.2 0v157.5c1.1-.5 2.1-.5 3.2-1.1l145.9-77.2h.5-.5l-145.9-78.2c-1.1-.5-2.1-1-3.2-1zM661.8 333l-131.1 68.7 131.1 68.7Zm-324.6 0v138l131.1-68.7c0-.1-131.1-69.3-131.1-69.3Zm177.1-102.1c-7.4-4.2-21.1-4.2-29.1 0l-145.9 77.2h-.5.5l145.9 77.2c7.4 4.2 21.1 4.2 29.1 0l145.9-77.2h.5-.5zm169.1 7.4 9 5.8 1.6 1.1c2.6 1.6 4.8 3.2 6.9 4.2 22.2 14.8 30.1 31.2 30.1 65v1.1h-22.7c0-14.8-1.6-24.8-5.3-31.7-2.6-5.8-6.9-10-14.8-15.3l-.5-.5c-1.6-1.1-3.7-2.1-5.8-3.7l-2.6-1.6-8.5-4.8z" fill="#fff"/></g></svg>
