<svg xmlns="http://www.w3.org/2000/svg" role="img" viewBox="0 0 38 24" width="38" height="24" aria-labelledby="pi-farmlands"><title id="pi-farmlands">Farmlands Card</title><g clip-path="url(#pi-farmlands-a)"><path fill="#000" d="M35 0H3C1.3 0 0 1.3 0 3v18c0 1.7 1.4 3 3 3h32c1.7 0 3-1.3 3-3V3c0-1.7-1.4-3-3-3Z" opacity=".07"/><path fill="#fff" d="M35 1c1.1 0 2 .9 2 2v18c0 1.1-.9 2-2 2H3c-1.1 0-2-.9-2-2V3c0-1.1.9-2 2-2h32Z"/><path fill="#00553D" d="M6.885 13.47H5.078v.97h1.666v.942H5.078v2.177H4.003v-5.03h2.882v.941Zm2.208 3.09v-.79c-.297.032-.74.027-.927.3a.523.523 0 0 0-.073.294c0 .18.04.301.121.368.27.22.68.065.879-.171Zm0 .595c-.288.293-.59.5-1.022.5a.883.883 0 0 1-.708-.339c-.188-.225-.282-.51-.282-.853 0-.283.047-.51.144-.684.19-.35.56-.55 1.06-.63.254-.04.523-.072.814-.094 0-.173-.037-.362-.196-.46-.284-.18-.696-.144-1.001-.043a2.734 2.734 0 0 0-.464.201h-.086v-.912a3.712 3.712 0 0 1 1.16-.189c.554 0 .959.109 1.213.327.252.216.38.55.38.997v2.583H9.094v-.404Zm3.87-2.258c-.162 0-.323-.047-.489-.047-.208 0-.446.082-.665.18v2.529h-1.011V13.76h1.011v.557c.234-.261.563-.556.938-.556.064 0 .151.006.217.013v1.122Zm4.198 2.662v-1.895c0-.188-.001-.345-.008-.472-.02-.385-.113-.548-.442-.548-.155 0-.299.084-.474.226v2.689h-1.01v-1.895c0-.184-.006-.342-.012-.47-.022-.388-.122-.55-.44-.55-.168 0-.327.105-.474.226v2.689H13.29V13.76h1.01v.427c.332-.333.596-.523.96-.523.393 0 .706.222.865.657.387-.425.717-.658 1.072-.658.478 0 .789.334.908.77.046.166.068.386.068.656v2.467H17.16m1.713-5.26h1.012v5.262h-1.012v-5.262Zm3.496 4.264v-.792c-.409.044-1.001.063-1.001.595 0 .61.704.533 1.001.197Zm0 .594c-.296.297-.598.5-1.022.5-.638 0-.989-.614-.989-1.192 0-.566.196-.89.555-1.098.362-.208.885-.266 1.464-.31 0-.174-.039-.362-.198-.46-.283-.181-.696-.144-1.001-.043a2.72 2.72 0 0 0-.465.201h-.085v-.912c.368-.123.77-.189 1.157-.189 1.113 0 1.596.43 1.596 1.324v2.583h-1.013l.001-.404Zm4.739.404h-1.011v-1.882c0-.306-.018-.651-.077-.794-.159-.398-.686-.22-.936-.013v2.69h-1.013v-3.798h1.013v.427c.334-.334.626-.524 1.002-.524.67 0 1.022.506 1.022 1.427v2.467Zm2.612-1.028v-1.88a.897.897 0 0 0-.403-.103c-.48 0-.728.42-.728 1.14 0 .76.183 1.073.616 1.073.178 0 .367-.09.515-.229Zm1.012 1.028H29.72v-.396c-.27.263-.572.515-.965.515-.37 0-.662-.179-.877-.538-.215-.36-.323-.84-.323-1.44 0-.332.037-.62.11-.864.172-.578.602-1.171 1.26-1.171.3 0 .54.102.794.255v-1.623h1.013v5.262Zm.502-.21v-1h.085c.372.335.983.642 1.485.409.161-.075.23-.302.087-.433-.224-.203-.61-.185-.887-.29a1.144 1.144 0 0 1-.569-.41c-.126-.18-.189-.418-.189-.71a1.16 1.16 0 0 1 .392-.877c.255-.228.637-.373 1.115-.373.454 0 .845.122 1.104.27v.963h-.08c-.268-.24-.628-.413-.979-.413-.295 0-.519.125-.519.307 0 .317.455.367.694.42.365.078.675.236.847.482.233.325.233.825.072 1.18-.146.337-.43.56-.787.683-.597.206-1.325.108-1.87-.207Z"/><path fill="#F8971D" d="M4 8.88s5.394-1.223 10.522-1.223c7.545 0 8.972.824 14.426 1.307 1.673.159 3.369.335 5.052.36V7H4v1.88Z"/><path fill="#00553D" d="M4 9.488v1.353h30V9.547s-3.782-.2-5.933-.397c-3.9-.36-6.184-.964-9.516-1.048-1.684-.04-3.18-.155-7.303.208-2.444.217-4.84.73-7.248 1.178Z"/></g><defs><clipPath id="pi-farmlands-a"><path fill="#fff" d="M0 0h38v24H0z"/></clipPath></defs></svg>
