<svg xmlns="http://www.w3.org/2000/svg" role="img" viewBox="0 0 38 24" width="38" height="24" aria-labelledby="pi-fashiongiftcardpaynlversion"><title id="pi-fashiongiftcardpaynlversion">Fashion Giftcard (PAY. version)</title><defs><linearGradient id="pi-fashiongiftcardpaynlversion_gradient" x1=".001" y1=".498" x2="1" y2=".498"><stop offset="0" stop-color="#b99956"/><stop offset="1" stop-color="#d2bd94"/></linearGradient></defs><path d="M35 0H3C1.3 0 0 1.3 0 3v18c0 1.7 1.4 3 3 3h32c1.7 0 3-1.3 3-3V3c0-1.7-1.4-3-3-3z" fill="#000" fill-rule="nonzero" opacity=".07" vector-effect="non-scaling-stroke"/><path d="M35 1c1.1 0 2 .9 2 2v18c0 1.1-.9 2-2 2H3c-1.1 0-2-.9-2-2V3c0-1.1.9-2 2-2h32" fill="#0f1110" fill-rule="nonzero" vector-effect="non-scaling-stroke"/><path d="M10.035 16.534h.327v.088c0 .239-.124.376-.278.376s-.277-.2-.277-.591.088-.604.303-.604c.115 0 .19.088.19.225v.04h.163a.424.424 0 00-.036-.203.326.326 0 00-.326-.202c-.304 0-.454.251-.454.77 0 .467.14.705.427.705a.356.356 0 00.304-.15v.15h.14v-.744h-.49l.007.14zM12.18 15.839h.186v1.149h-.186v.124h.528v-.124h-.189v-1.15h.19v-.136h-.53v.137zM14.536 17.112h.15v-.666h.454v-.14h-.454v-.467h.607v-.137h-.757v1.41zM16.73 15.839h.391v1.273h.163v-1.273h.402v-.137h-.957v.137zM19.628 17.01c-.203 0-.304-.198-.304-.59s.101-.617.327-.617c.1 0 .189.062.202.212h.163a.424.424 0 00-.04-.15.346.346 0 00-.325-.202c-.304 0-.467.251-.467.744s.15.73.453.73a.372.372 0 00.346-.201.467.467 0 00.04-.177h-.164c-.016.177-.104.252-.231.252h0zM21.873 15.702l-.405 1.41h.164l.114-.415h.427l.115.415h.163l-.402-1.41h-.176 0zm-.075.868l.176-.63.177.63h-.353zM24.772 16.103a.372.372 0 00-.392-.401h-.366v1.41h.167v-.578h.199l.326.578h.19l-.38-.617a.43.43 0 00.256-.392h0zm-.467.29h-.137v-.554h.137c.228 0 .303.088.303.264s-.1.29-.303.29zM26.727 15.702h-.366v1.41h.326c.327 0 .48-.212.48-.705s-.127-.705-.44-.705zm-.04 1.29h-.176v-1.153h.163c.242 0 .327.114.327.58.026.415-.062.572-.314.572h0z" fill="#fff" stroke="null"/><path d="M6.226 15.16a.098.098 0 010 .098c-.026.04-.039.065-.026.091a.264.264 0 01.026-.189h0zm4.175-3.456a.16.16 0 00.137-.137.078.078 0 000-.053s0-.022-.026-.036l-.023-.035v-.05a2.794 2.794 0 00-.568 0c-.19 0-.366.036-.555.063s-.365.075-.555.127-.378.101-.564.137a.157.157 0 00.049-.101.186.186 0 000-.088l.1-.088a.49.49 0 01.138-.216.35.35 0 00.114-.199.855.855 0 00.163-.202c.04-.075.088-.154.128-.242a2.118 2.118 0 00.326-.427 1.27 1.27 0 01.356-.379c.088-.137.176-.29.264-.44a3.701 3.701 0 01.287-.415.147.147 0 00.092 0c.023 0 .036 0 .036.023a.153.153 0 01.163-.075.294.294 0 00.202-.04.49.49 0 01.454-.186 4.054 4.054 0 01.744-.228c.251-.049.516-.101.783-.163a.075.075 0 00.098.036.232.232 0 01.114-.036.02.02 0 000-.026s0 0 0 0a.13.13 0 00.14.052.29.29 0 00.15-.052.04.04 0 01-.025 0s0 0 0 0c.19-.023.391-.05.58-.062a2.591 2.591 0 00.556-.088c.026-.05.036-.089 0-.115a.144.144 0 01-.04-.11.731.731 0 00-.437-.196 2.836 2.836 0 00-.542.026 11.061 11.061 0 00-1.36.25l-1.238.304a1.426 1.426 0 01.229-.352 1.038 1.038 0 00.19-.405.408.408 0 00-.167-.264 1.534 1.534 0 00-.239-.163.454.454 0 00-.251.238c-.075.14-.153.268-.215.379s-.19.303-.29.453-.19.29-.278.418v-.052-.023c0-.023-.04.023-.05.049s-.025.04-.078.052a5.261 5.261 0 00-.564.163 2.774 2.774 0 01-.581.124.196.196 0 01-.15.053.28.28 0 00-.154.062.261.261 0 00.075.228.793.793 0 00.167.137.055.055 0 01.036.052.065.065 0 00.026.05.35.35 0 00.326.048 1.802 1.802 0 01.327-.062q-.415.653-.833 1.25c-.277.402-.555.82-.832 1.234a.653.653 0 00-.163.075.212.212 0 00-.114.127.144.144 0 00.062.062c.039 0 .039.04.039.089a8.378 8.378 0 00-.617 1.047c-.202.392-.392.793-.555 1.185-.052.101-.101.202-.153.326s-.102.229-.137.343-.076.225-.102.326a.512.512 0 000 .14h0a.447.447 0 00.026.141h.036s0-.026.04 0c0 .065 0 .101.026.101a.173.173 0 01.1.04v-.053-.023.062c0 .026 0 .036.027.036s0-.075.052-.075 0 .026 0 .053 0 .035.036.022a.95.95 0 00.075-.287c0-.101.04-.202.052-.29.023 0 .05-.026.062-.053s.026-.049 0-.062a.049.049 0 010 .04s-.026 0 0 0a.947.947 0 01.102-.216.274.274 0 00.039-.202h.036c.062-.15.14-.3.202-.44a3.195 3.195 0 01.215-.39.868.868 0 01-.127.252.519.519 0 00-.101.251.692.692 0 00.14-.228.519.519 0 01.15-.212.574.574 0 01.05-.203.836.836 0 01.114-.189c.039-.062.088-.127.127-.19l.114-.188v-.027-.022a.685.685 0 01.111-.177c.04-.052.078-.1.101-.14s.066-.088.101-.137a.894.894 0 00.102-.202.078.078 0 00.052 0 .385.385 0 00.036-.05.18.18 0 00.039-.052s.023-.026.049 0a.27.27 0 01-.05.075c0 .027-.038.053-.051.079a.108.108 0 00.075-.079.76.76 0 01.039-.097.398.398 0 00.176-.053.597.597 0 01.176-.049v-.039-.039c.138-.049.29-.111.441-.163s.326-.101.506-.137a1.368 1.368 0 00.176-.04.712.712 0 00.088-.048c.023 0 .05-.04.075-.053a.712.712 0 01.137-.036l.291-.039a2 2 0 01.29-.026.803.803 0 01.252-.068h0zm-3.998 3.09a.284.284 0 00.039-.065.091.091 0 000-.062.225.225 0 00-.04.128zm9.791-2.17c0 .075.023.127.023.163v.026a.382.382 0 01-.163.229 4.1 4.1 0 00-.216.15.326.326 0 01.079-.062.813.813 0 00.075-.075.855.855 0 00-.176.11 1.926 1.926 0 01-.19.128s0 0 0 0 0-.026-.039 0a.401.401 0 01-.199.088c-.088.026-.14.066-.153.128a3.466 3.466 0 00-.516.202 1.057 1.057 0 01-.529.049s-.026 0-.026-.026 0 0 .026-.036h-.065c-.026 0-.05 0-.075-.026l-.062-.036s-.026-.026 0-.052a.196.196 0 01.137-.05.245.245 0 00.153-.087 6.433 6.433 0 00.653-.242 3.296 3.296 0 00.59-.326.943.943 0 00.141-.102c.036-.035.075-.088.114-.137a.382.382 0 00-.228-.1c-.101-.027-.202-.04-.304-.066a1.452 1.452 0 01-.277-.088.372.372 0 01-.15-.124 2.236 2.236 0 00-.19.124c-.026 0-.062.052-.114.088a1.984 1.984 0 00-.163.14 1.984 1.984 0 01-.176.128.587.587 0 01-.137.075.114.114 0 01-.04.062c-.026.039-.039.039-.026 0l-.528.365a2.451 2.451 0 01-.555.29.12.12 0 01-.088.027.173.173 0 00-.088.036.463.463 0 01-.405-.05.457.457 0 01-.19-.29 1.015 1.015 0 010-.418 1.306 1.306 0 01.203-.44 1.276 1.276 0 00-.176.052 2.255 2.255 0 01-.327.264c-.124.089-.251.177-.375.278s-.242.163-.366.251a2.647 2.647 0 01-.365.216.483.483 0 00-.101.022.359.359 0 01-.101 0 .209.209 0 01-.121-.081.862.862 0 01-.128-.101.326.326 0 01-.088-.128c-.049-.022-.049-.062-.049-.1a.565.565 0 01.128-.301 1.697 1.697 0 00.186-.277c.18-.216.355-.418.532-.608a6.244 6.244 0 01.577-.554c.115-.102.229-.19.343-.288a1.831 1.831 0 01.379-.254.124.124 0 00.062 0h.075a.653.653 0 01.15.277c.04.101.065.203.101.304a.242.242 0 00.114-.114.124.124 0 01.115-.076.101.101 0 01.088.062.457.457 0 01.062.14c0 .05.039.102.052.151a.428.428 0 00.036.114 1.795 1.795 0 00-.19.29 3.897 3.897 0 00-.212.402c-.078.14-.127.278-.189.405a1.74 1.74 0 00-.101.29c.023.05.075.062.176.036a3.437 3.437 0 00.353-.11 2.918 2.918 0 00.427-.213c.154-.088.29-.176.405-.251.215-.14.44-.29.679-.48a.74.74 0 00.101-.075c0-.026-.036-.052-.049-.078a.525.525 0 01.101-.3 1.355 1.355 0 01.225-.252 2.092 2.092 0 01.29-.215 2.64 2.64 0 00.252-.177v.049q.225-.114.49-.225a1.358 1.358 0 01.506-.101h.049c0 .026-.036.049-.05.049a.326.326 0 01.15.088.215.215 0 01.04.176 1.743 1.743 0 00-.277.052.98.98 0 00-.229.102 1.057 1.057 0 00-.212.15l-.215.176a1.113 1.113 0 00-.265.228 1.306 1.306 0 00-.127.15c0 .027-.036.05-.05.076s0 .026-.025.052a2.128 2.128 0 00.277.088 1.603 1.603 0 01.29.101.845.845 0 01.265.137.519.519 0 01.176.216 1.345 1.345 0 01.017.14h-.007 0zm-4.35-.075l-.04.04a.033.033 0 00-.023.035h.043s0-.026.039-.026a.095.095 0 00-.013-.049h-.007 0zm.228-.137s-.04 0-.052.023-.026 0-.036 0h.026a.5.5 0 01.068-.013l-.006-.01zm.3-.783c-.062-.036-.062-.15-.023-.327-.026.023-.039.023-.039 0v-.023l-.705.503a.904.904 0 01-.153.202c-.05.05-.111.102-.177.177h0a.352.352 0 00-.088.127.369.369 0 01-.11.137v-.023-.026a.59.59 0 01-.177.277 1.658 1.658 0 00-.228.226 6.789 6.789 0 00.868-.578c.277-.229.555-.43.822-.62h0c.004-.026.017-.04.017-.052h-.007 0zm8.888.528v-.023h0l-.027.05s.02-.014.033-.027h-.006zm.92-1.475s.04 0 .075-.049c-.023.026-.023.04 0 .04s.023 0 .049-.027 0 .026 0 .05.04 0 .052-.024a.111.111 0 01.05-.065.03.03 0 01-.027.026.104.104 0 00.088-.088.163.163 0 01.088-.114c-.022.039-.022.052 0 .052s0-.04.023-.052.026 0 .026 0a1.24 1.24 0 00.203-.225c.062-.089.114-.177.176-.265a2.7 2.7 0 01.176-.267 1.772 1.772 0 01.203-.239V9.36v-.062a.095.095 0 01-.076-.026.284.284 0 00-.065-.04h-.036c-.039 0-.065 0-.075.04a.186.186 0 01-.114.062h-.026a.049.049 0 00-.04 0h-.048a.124.124 0 010 .114 1.074 1.074 0 01-.101.128l-.115.11c-.036.04-.049.066-.036.076a.346.346 0 01-.065.078.078.078 0 00-.023.088s-.039 0-.065.05a.222.222 0 00-.036.1.17.17 0 00-.075.128.287.287 0 01-.088.15v.062c0 .023-.04 0-.065.088h0c0 .026-.026.065-.036.088a.059.059 0 000 .065.023.023 0 00.01.023h-.007zm10.173 2.334a1.87 1.87 0 01-.378.062l-.402.039s0 0 0 0h0a.264.264 0 01-.114.023c-.052 0-.088 0-.101-.023s0 0 0 0h0a.173.173 0 00-.075.026c-.026 0-.05 0-.062-.026l-.542.114a2.526 2.526 0 00-.519.163 1.932 1.932 0 01-.467.14h-.137a.878.878 0 01-.107-.003.16.16 0 01-.102-.075.718.718 0 01-.225-.277 1.048 1.048 0 01-.114-.366 1.707 1.707 0 010-.251 1.54 1.54 0 010-.238l.04-.268c0-.098.022-.199.035-.326a.793.793 0 00-.392.202c-.11.101-.225.212-.352.326a.042.042 0 01-.036 0s0 0 0 0a.3.3 0 00-.062.076.326.326 0 01-.098.088.326.326 0 01-.101.1l-.124.089a3.783 3.783 0 00-.304.326c-.1.124-.202.239-.303.366-.05.062-.088.124-.137.19a.561.561 0 01-.177.15s0-.027-.026 0l-.039.039-.036.035s-.026 0-.026-.035a.98.98 0 00-.088.124.43.43 0 01-.075.114c-.052 0-.088-.026-.101 0a1.1 1.1 0 00-.026-.238 8.672 8.672 0 01.708-1.525h.023v-.052a.44.44 0 00.062-.124.19.19 0 01-.075 0 .418.418 0 01-.088.052.163.163 0 00-.046.062 1.563 1.563 0 00-.251.163.545.545 0 01-.203.115h-.052a.104.104 0 01-.036.026v.026c0 .026 0 .023-.039.023s0 0 0 0v-.036a.13.13 0 01-.072.01v.026a.44.44 0 00-.124.062.467.467 0 01-.202.065.59.59 0 01-.163.088.379.379 0 01-.128.023v.026h-.026-.023l-.039.04h-.049c-.01 0 0 .025-.039.025a.049.049 0 01-.04 0h-.048a1.88 1.88 0 00-.264.05.382.382 0 01-.242 0 .545.545 0 00-.15.127c-.062.062-.137.15-.225.238s-.177.19-.265.277a1.723 1.723 0 01-.29.242h-.026-.026c-.026 0-.102.052-.164.078s-.127.036-.189.062a.96.96 0 01-.176.026.235.235 0 01-.137-.026.98.98 0 00-.229-.114.235.235 0 01-.15-.163v-.14a.362.362 0 010-.125 3.264 3.264 0 01.124-.505c0-.023 0-.05.026-.076-.062.04-.1.089-.14.115a.245.245 0 01-.137.088l-.075.039a.653.653 0 00-.065.036l-.239.15c-.1.052-.202.114-.303.18s-.212.11-.327.163-.189.075-.254.1a.418.418 0 00-.111.024.166.166 0 01-.114 0 .852.852 0 01-.216-.075.796.796 0 01-.176-.088.219.219 0 01-.124-.164 1.041 1.041 0 01-.04-.29 1.325 1.325 0 01.027-.225c-.026 0-.04.036-.065.062a1.182 1.182 0 01-.213.137.633.633 0 01-.241.202 1.38 1.38 0 01-.327.114.457.457 0 01-.163.05.82.82 0 01-.189 0 1.276 1.276 0 01-.366-.024.98.98 0 01-.326-.127.493.493 0 01-.225-.228.467.467 0 01-.052-.327 2.725 2.725 0 01.065-.326c.023-.111.036-.212.049-.326a4.295 4.295 0 00-.568.378 3.95 3.95 0 00-.503.428h-.026a.98.98 0 01-.251.264 1.133 1.133 0 00-.29.264.463.463 0 00-.089.154.19.19 0 01-.088.11.3.3 0 01-.114.08.326.326 0 00-.101.087.408.408 0 00-.111 0c-.026 0-.065.023-.114.05a.261.261 0 01-.053-.076.607.607 0 01-.036-.088c-.052.04-.088.049-.127 0a.287.287 0 00-.124-.065.026.026 0 000-.036l-.026-.026a1.332 1.332 0 01.114-.346 1.057 1.057 0 01.163-.29.62.62 0 01.115-.288c.049-.088.11-.176.15-.254a1.789 1.789 0 00.124-.278.43.43 0 01.19-.225 1.283 1.283 0 00.1-.229.326.326 0 01.137-.16.28.28 0 01.062-.163.721.721 0 00.128-.137c.049-.101.088-.202.137-.303a1.469 1.469 0 01.176-.29s.026 0 .04-.027l.038-.036c.023-.052.036-.088.05-.114a1.263 1.263 0 01.074-.114h0c.216-.327.428-.63.653-.92a6.828 6.828 0 00.63-.957h.052a1.795 1.795 0 00.098-.163 1.361 1.361 0 01.101-.176.75.75 0 01.128-.14.326.326 0 01.15-.063h.026a.326.326 0 01.19.062c.048.052.113.101.162.154a2.886 2.886 0 00-.088.163.258.258 0 01-.114.114c-.124.186-.251.375-.375.552s-.239.323-.36.502a.163.163 0 00-.123.088.362.362 0 00-.053.137.633.633 0 00-.202.229 1.779 1.779 0 01-.176.251v.088a1.22 1.22 0 00-.278.327c-.075.127-.15.267-.212.391a.326.326 0 00-.127.128.77.77 0 01-.124.163h0s0 0 0 0c-.04.052-.075.114-.114.176s0 .04-.026.04-.023 0-.036.025a1.22 1.22 0 01-.154.278 1.554 1.554 0 00-.15.264v.023a.091.091 0 00-.049.026.839.839 0 01-.127.238 2.487 2.487 0 00-.137.229.228.228 0 00-.026.088.75.75 0 01-.052.088.395.395 0 01-.062.114.777.777 0 01-.089.102l-.075.114a.255.255 0 00-.039.15c.114-.114.229-.229.353-.326a4.188 4.188 0 00.333-.395h.039a.059.059 0 01.039 0 1.704 1.704 0 01.362-.327 4.494 4.494 0 01.402-.29l.326-.19a.46.46 0 01.326-.035 1.172 1.172 0 01.14.062c.05.039.102.062.138.088a1.022 1.022 0 01.101.075.163.163 0 01.052.114.715.715 0 01-.039.228c-.026.062-.04.138-.062.213a.421.421 0 000 .127.264.264 0 010 .124.832.832 0 000 .241.447.447 0 00.114.177 1.518 1.518 0 00.418-.062 1.776 1.776 0 00.369-.167 3.545 3.545 0 00.326-.202c.101-.075.216-.163.327-.238.052-.036.1-.089.18-.137a.17.17 0 00.061-.066c.026-.062.062-.124.088-.19l.137-.276a.023.023 0 010 .039.2.2 0 000 .075 1.06 1.06 0 00.075-.15.176.176 0 01.102-.128v-.026h0c.035-.062.088-.124.137-.199a.307.307 0 01.176-.114.15.15 0 01.153.062c.036.052.075.101.098.14s-.023.098-.075.111a19 19 0 00-.378.77 3.933 3.933 0 00-.278.895.74.74 0 00.366-.124 1.306 1.306 0 01.241-.114l.278-.128c.1-.049.189-.088.277-.137a1.68 1.68 0 00.225-.153l.095-.023a.101.101 0 00.052-.052 2.712 2.712 0 00.6-.44 1.263 1.263 0 01.115-.076.261.261 0 00.062-.052.277.277 0 01.052-.036l.062-.062.088-.078h0a.127.127 0 00.04-.05.898.898 0 01.25-.228.424.424 0 00.063-.049c.039 0 .052-.026.062-.026h.052l.026-.036c.026-.036 0 0 0 0v.023a.055.055 0 00.05-.062s.025 0 .038-.04a.467.467 0 01.075-.087h0a.78.78 0 00.102-.111.153.153 0 01.1-.088v.022s0 0 0 0v-.022c0-.022 0 0 0 0s0-.027.027-.027a1.544 1.544 0 01.264-.088c.114-.039.216-.062.29-.088a.587.587 0 01.278.101.561.561 0 01.202.177.405.405 0 010 .326 1.182 1.182 0 01-.052.167.712.712 0 01-.075.15 1.133 1.133 0 01-.088.189c-.04.075-.088.137-.127.215s-.088.137-.124.2a1.06 1.06 0 00-.088.153h-.04c-.013 0 0 0-.026.036l.268-.036a1.89 1.89 0 00.277-.078 4.684 4.684 0 00.83-.376c.277-.166.567-.356.858-.555a.065.065 0 00.062 0h.039v.023c.049-.088.088-.15.127-.212l.15-.241s.026 0 .062-.023.04-.04.027-.04a.297.297 0 00.088-.039c.049-.023.075-.023.075 0a.362.362 0 00.065.128.219.219 0 01.036.14.493.493 0 01-.05.124c-.025.052-.051.114-.077.176s-.062.114-.089.167a.477.477 0 01-.075.124c-.049.062-.1.14-.15.202a.672.672 0 00-.114.238c-.026-.023-.049 0-.062.04a.326.326 0 01-.075.137c.137-.124.277-.265.428-.415a3.17 3.17 0 01.518-.392c.05-.039.115-.075.19-.127a1.057 1.057 0 01.251-.11.875.875 0 01.238-.053.255.255 0 01.19.075.96.96 0 00.1.153.568.568 0 01.066.124.878.878 0 010 .167.77.77 0 01-.062.251.734.734 0 000 .238.81.81 0 010 .252.428.428 0 000 .114v.101a.522.522 0 00.101.278.421.421 0 00.177.114h.166c.251-.065.542-.14.855-.216a8.76 8.76 0 01.927-.153 1.89 1.89 0 01.379 0 .76.76 0 01.326.114.186.186 0 00.026.088.75.75 0 00-.039.066h-.007 0zm-11.13-.806h0c-.025 0-.025.022 0 .035a.023.023 0 00.007-.035h-.006zm.112-.265v.05c0 .026 0 0 0 0v-.027a.101.101 0 00-.026.065.091.091 0 01-.02.062h0-.049v.062h0s0 0 0 0a.242.242 0 01.049-.062v-.026c0-.026.065-.101.052-.124h-.006zm3.264.692a.47.47 0 01-.242-.215.653.653 0 01-.052-.431 3.564 3.564 0 00-.265.405c-.075.137-.163.29-.264.466-.04.115-.062.226-.101.327a1.808 1.808 0 00-.04.391 1.753 1.753 0 00.291-.228c.088-.088.19-.19.278-.29a2.565 2.565 0 01.215-.2 1.355 1.355 0 00.202-.225H24.6zm.845-1.59a1.162 1.162 0 00-.229.203c-.062.065-.127.14-.202.228 0 0 0 0 0 0s0 0 0 0a.408.408 0 01-.075.115.392.392 0 00-.062.088.232.232 0 00.075-.075.137.137 0 01.075-.066 1.12 1.12 0 00-.088.089 1.322 1.322 0 01-.088.127.483.483 0 00-.101.15l-.075.19a.467.467 0 000 .189.108.108 0 00.065.114c.137-.19.277-.392.427-.617a2.363 2.363 0 00.3-.734h-.022 0z" fill="url(#pi-fashiongiftcardpaynlversion_gradient)" stroke="null"/></svg>
