<svg xmlns="http://www.w3.org/2000/svg" role="img" viewBox="0 0 38 24" width="38" height="24" aria-labelledby="pi-fashioncheque"><title id="pi-fashioncheque">Fashioncheque</title><path d="M35 0H3C1.3 0 0 1.3 0 3v18c0 1.7 1.4 3 3 3h32c1.7 0 3-1.3 3-3V3c0-1.7-1.4-3-3-3z" opacity=".07"/><path fill="#e80088" d="M35 1c1.1 0 2 .9 2 2v18c0 1.1-.9 2-2 2H3c-1.1 0-2-.9-2-2V3c0-1.1.9-2 2-2h32"/><path d="M22.85 11.09c-.36.1-.69.2-1.03.3-.04-.06-.07-.11-.1-.17-.21-.39-.53-.66-.97-.63-.46.03-.74.37-.91.79-.21.53-.16 1.05.15 1.53.42.63 1.15.65 1.61.05.08-.1.13-.21.21-.34.34.1.68.19 1.02.29-.29 1.17-2.03 2.15-3.45.91-1.12-.97-1.06-3.23.51-3.98 1.17-.57 2.51-.02 2.96 1.25zm-4.49-1.36v.97c-.6 0-1.18.02-1.76-.01-.35-.02-.38.15-.38.42s.02.46.37.44c.31-.02.61-.01.94-.01v.89h-.64c-.76.01-.66-.08-.67.69 0 .34 0 .67-.01 1.01 0 .04-.02.07-.03.13h-1.05V9.73h3.23z"/><circle cx="19" cy="12" r="8" fill="none" stroke="#fff" stroke-miterlimit="10" stroke-width="1.55"/></svg>