<svg xmlns="http://www.w3.org/2000/svg" role="img" viewBox="0 0 38 24" width="38" height="24" aria-labelledby="pi-favepay"><title id="pi-favepay">FavePay</title><g class="layer"><path fill="#000" opacity=".07" d="M35 0H3C1.3 0 0 1.3 0 3v18c0 1.7 1.4 3 3 3h32c1.7 0 3-1.3 3-3V3c0-1.7-1.4-3-3-3z"/><path fill="#fff" d="M35 1c1.1 0 2 .9 2 2v18c0 1.1-.9 2-2 2H3c-1.1 0-2-.9-2-2V3c0-1.1.9-2 2-2h32"/><path d="M23.36 8.81H34.6c.28 0 .51.23.51.5v5.89c0 .27-.23.5-.51.5H23.36c-.29 0-.52-.23-.52-.5V9.31c0-.27.23-.5.52-.5zm0 0" fill="#DE206A" fill-rule="nonzero"/><path d="M11.2 10.32c.01-.02.05-.1.12-.28.35 0 .82.1 1.4.31-.18.6-.33 1.23-.44 1.88-.12.66-.17 1.12-.17 1.41 0 .27.03.42.09.42.04 0 .21-.07.49-.21l.13-.06.2.38c-.07.06-.15.13-.26.22-.11.09-.32.2-.61.36-.29.15-.56.22-.8.22-.46 0-.73-.2-.81-.61-.47.4-.91.61-1.29.61s-.7-.15-.96-.43c-.27-.29-.4-.75-.4-1.37 0-.97.2-1.74.61-2.3.41-.56.91-.84 1.48-.84.42 0 .82.1 1.21.31zm-1.28 3.71c.18 0 .38-.07.61-.21.05-1.02.22-2.03.52-3.03-.22-.1-.42-.15-.57-.15-.27 0-.49.26-.68.77-.19.51-.28 1.07-.28 1.7 0 .61.13.92.41.92zm5.11-3.82c.16.13.23.4.23.8 0 .22-.07.66-.2 1.33-.13.66-.2 1.07-.2 1.22 0 .29.06.44.18.44.27 0 .59-.2.93-.61.33-.41.51-.75.52-1.03l-.76-.83c.02-.31.11-.59.23-.84.12-.26.25-.44.36-.53l.16-.15c.32 0 .56.08.72.25.17.17.25.36.25.59 0 .57-.15 1.17-.44 1.81-.29.64-.67 1.19-1.15 1.63-.48.44-.97.66-1.48.66-.31 0-.55-.1-.71-.28-.17-.19-.25-.44-.25-.74 0-.31.02-.72.07-1.24s.07-1.04.07-1.55c0-.11-.04-.26-.12-.42-.09-.15-.17-.28-.27-.37l.03-.13c.41-.14.76-.2 1.09-.2.32 0 .56.06.73.2zm2.53 2.73c0-.9.28-1.62.84-2.14.56-.52 1.2-.79 1.91-.79.44 0 .8.1 1.08.31s.42.49.42.84c0 .36-.09.65-.27.89-.18.24-.4.42-.66.56-.53.25-1.01.41-1.45.48l-.27.03c.05.69.33 1.02.86 1.02.18 0 .37-.04.57-.13.2-.08.36-.17.46-.26l.17-.13.27.35c-.06.08-.17.19-.36.31-.17.13-.34.24-.5.33-.43.23-.91.34-1.41.34-.51 0-.92-.17-1.22-.53-.3-.35-.44-.85-.44-1.48zm2.5-.82c.22-.25.32-.57.32-.95 0-.4-.12-.59-.35-.59-.28 0-.5.23-.66.7-.15.46-.22.9-.22 1.31.37-.06.68-.22.91-.47zm0 0" fill="#DE206A" fill-rule="nonzero"/><path d="M7.36 7.35c-.27-.1-.54-.04-.61.55-.04.64-.07 1.22-.12 1.75.88-.03 1.44.23 1.44.23l-.03.37c-.42-.11-.94-.1-1.45-.02-.3 3.5-.69 4.61-.69 4.61s-.51 1.72-2.13 1.66c-.96 0-1.04-.67-1.04-.67l.33-.21s.54 1.18 1.14-.15c.36-.78.7-3.1.92-4.85-.61.21-1.03.42-1.03.42l-.19-.36c.46-.33.89-.57 1.3-.72.1-.87.16-1.49.16-1.49s.22-1.69 1.84-1.63h.15s1.03.04 1.27.85c-.03.27-.38.57-.49.58-.54-.18-.78-.36-.78-.36v-.57zm0 0" fill="#DE206A" fill-rule="nonzero"/><path d="M25.82 10.56c.73 0 1.23.48 1.23 1.2 0 .71-.51 1.19-1.26 1.19h-.8v1.17h-.65v-3.56h1.48zm-.83 1.87h.66c.46 0 .74-.23.74-.66 0-.44-.27-.67-.74-.67h-.66v1.33zm0 0" fill="#FFF" fill-rule="nonzero"/><path d="M29.58 13.21h-1.35l-.32.91h-.66l1.3-3.56h.74l1.3 3.56h-.71l-.31-.91zm-1.2-.5h1.04l-.5-1.47h-.04l-.5 1.47zm0 0" fill="#FFF" fill-rule="nonzero"/><path d="M31.82 14.12v-1.4l-1.29-2.16h.72l.87 1.52h.05l.86-1.52h.72l-1.29 2.16v1.4h-.66zm0 0" fill="#FFF" fill-rule="nonzero"/></g></svg>