<svg xmlns="http://www.w3.org/2000/svg" role="img" viewBox="0 0 38 24" width="38" height="24" aria-labelledby="pi-fawry"><title id="pi-fawry">Fawry</title><path opacity=".07" fill="#000" d="M35 0H3C1.3 0 0 1.3 0 3v18c0 1.7 1.4 3 3 3h32c1.7 0 3-1.3 3-3V3c0-1.7-1.4-3-3-3z"/><path fill="#FAD50B" d="M35 1c1.1 0 2 .9 2 2v18c0 1.1-.9 2-2 2H3c-1.1 0-2-.9-2-2V3c0-1.1.9-2 2-2h32"/><g clip-rule="evenodd" fill-rule="evenodd"><path d="M10.821 8.51c.002.195-.005.39-.02.583-.063.199-.131.392-.21.584-.246.488-.517.961-.81 1.417.019.116.088.172.207.166.304-.04.61-.068.916-.083a3.679 3.679 0 00-.02.791c.145.066.256.024.333-.124.23-.35.438-.711.625-1.085.109-.282.185-.574.23-.874.3.436.487.921.562 1.458.178 2.193-.731 3.728-2.73 4.604-1.102.387-2.185.345-3.249-.125a3.196 3.196 0 01-.417-.271 5.52 5.52 0 002.334-1.02c.276-.207.54-.43.791-.667a.104.104 0 01.125 0c.112.167.25.305.417.417.058.013.114 0 .167-.042.105-.655.195-1.316.27-1.98a1.325 1.325 0 00-.02-.562c-.822.04-1.642.11-2.459.21-.088.1-.081.204.02.311.135.12.253.253.356.396a6.512 6.512 0 01-2.167 1.458 2.769 2.769 0 01-1.166.187c-.812-1.385-.874-2.802-.188-4.25 1.044-1.748 2.578-2.463 4.603-2.144.54.11 1.05.33 1.5.645z" fill="#fefefe"/><path d="M10.814 8.515c.541.347.957.806 1.25 1.376-.045.3-.12.59-.23.875-.186.373-.394.734-.624 1.082-.078.15-.189.191-.334.126a3.64 3.64 0 01.022-.792c-.307.015-.613.043-.917.083-.12.006-.19-.05-.209-.166.294-.455.566-.927.813-1.416.078-.192.147-.386.209-.584.015-.194.022-.389.02-.584z" fill="#076b97"/><path d="M15.083 9.146c.375-.007.75 0 1.125.02.426.012.572.227.437.647a.196.196 0 01-.146.145c-.375-.016-.75-.016-1.124 0-.437.14-.604.439-.5.896.417-.007.833 0 1.249.02l.104.105c.028.18.028.362 0 .542l-.104.103-1.208.042c-.035.701-.055 1.403-.062 2.104l-.063.063c-.34.034-.683.027-1.021-.02-.04-1.25-.026-2.502.042-3.75.222-.587.645-.892 1.271-.917z" fill="#096b99"/><path d="M17.936 10.2a3.114 3.114 0 011.833.353c.249.213.395.485.437.813.028.777.028 1.555 0 2.333a.394.394 0 01-.062.104 4.601 4.601 0 01-.876 0 .636.636 0 01-.124-.23 2.367 2.367 0 01-2 .188c-.692-.395-.852-.943-.48-1.645.217-.217.474-.363.771-.437.54-.057 1.083-.078 1.625-.063.039-.4-.142-.615-.542-.646a.976.976 0 00-.666.124.438.438 0 01-.375.251 2.353 2.353 0 01-.625 0c-.174-.287-.132-.551.125-.791.091-.067.188-.122.292-.167.228-.06.45-.123.667-.188z" fill="#0e6b98"/><path d="M28.767 10.265l.543.084c.025.213.053.421.082.625a.164.164 0 01-.083.145l-1 .041a1.28 1.28 0 00-.52.397l-.042 2.207a.164.164 0 01-.146.084 8.207 8.207 0 00-.833-.063l-.062-.062a64.98 64.98 0 010-3.292c.057-.03.064-.058.02-.082.311-.05.631-.056.959-.022.056.111.097.23.124.354a2.1 2.1 0 01.958-.416z" fill="#056b98"/><path d="M20.494 10.299c.293-.007.584 0 .876.021.066.03.128.064.187.104.23.587.432 1.185.604 1.791.031-.058.066-.114.104-.167.114-.493.253-.98.417-1.458.035-.106.1-.2.187-.27.32-.028.64-.028.959 0l.104.104c.196.6.397 1.197.605 1.791.18-.54.353-1.08.52-1.625.05-.109.13-.202.229-.27a5.05 5.05 0 01.916 0c.045.03.073.072.084.125a45.475 45.475 0 01-1.104 3.271.29.29 0 01-.146.103 4.601 4.601 0 01-.875 0l-.104-.104a56.133 56.133 0 01-.708-2c-.231.65-.454 1.303-.667 1.958l-.146.146c-.32.04-.643.025-.958-.042a.66.66 0 01-.146-.228 94.886 94.886 0 00-1-3 .226.226 0 01.062-.25z" fill="#096b98"/><path d="M29.816 10.313c.306-.007.612 0 .917.021a.394.394 0 01.104.063c.216.604.41 1.215.584 1.833.108.254.282.449.52.583a.18.18 0 00.104-.125l.667-2.25.104-.104c.316-.033.628-.026.938.02a5.224 5.224 0 01-.208 1.043 90.158 90.158 0 00-.75 2.582c-.14.44-.41.765-.813.98a4.093 4.093 0 01-1.416 0 .48.48 0 01-.146-.188 1.27 1.27 0 010-.458l.104-.104c.187-.01.374-.002.563.02.418.005.648-.204.687-.625a1.399 1.399 0 01-1.188-.708 15.768 15.768 0 01-.812-2.416.526.526 0 01.041-.167z" fill="#0a6b98"/><path d="M6.259 15.558a3.712 3.712 0 01-1.334-1.292 2.78 2.78 0 001.167-.186 6.512 6.512 0 002.166-1.458 2.374 2.374 0 00-.354-.397c-.102-.107-.109-.212-.021-.312a34.02 34.02 0 012.458-.209c.047.184.054.372.021.563a42.745 42.745 0 01-.27 1.979.192.192 0 01-.167.042 1.488 1.488 0 01-.417-.417.104.104 0 00-.124 0c-.253.238-.516.46-.792.667a5.52 5.52 0 01-2.333 1.02z" fill="#056b97"/><path d="M17.717 12.4c.389-.007.778 0 1.166.02.171.314.088.536-.25.668a2.24 2.24 0 01-.874.082c-.287-.118-.365-.32-.23-.604.07-.05.132-.107.187-.166z" fill="#fad50b"/></g></svg>