<svg xmlns="http://www.w3.org/2000/svg" role="img" viewBox="0 0 38 24" width="38" height="24" aria-labelledby="pi-finloup"><title id="pi-finloup">finloup</title><g clip-path="url(#pi-finloup-a)"><path fill="#000" d="M35 0H3C1.3 0 0 1.3 0 3v18c0 1.7 1.4 3 3 3h32c1.7 0 3-1.3 3-3V3c0-1.7-1.4-3-3-3Z" opacity=".07"/><path fill="#fff" d="M35 1c1.1 0 2 .9 2 2v18c0 1.1-.9 2-2 2H3c-1.1 0-2-.9-2-2V3c0-1.1.9-2 2-2h32Z"/><path fill="#505E70" d="M6.716 8.736c-.21 0-.36.062-.446.186a.644.644 0 0 0-.13.39v.438h.846c.149 0 .273.05.372.149.1.093.149.214.149.362 0 .15-.05.273-.15.373a.523.523 0 0 1-.371.139h-.847v3.293a.574.574 0 0 1-.158.41.541.541 0 0 1-.4.157.542.542 0 0 1-.4-.158.573.573 0 0 1-.158-.41v-3.292h-.502a.523.523 0 0 1-.372-.14.505.505 0 0 1-.149-.372c0-.148.05-.27.149-.362.099-.1.223-.15.372-.15h.502v-.427c0-.465.158-.843.475-1.135.322-.291.784-.437 1.385-.437.23 0 .428.047.596.14.173.093.26.235.26.427a.51.51 0 0 1-.13.363.417.417 0 0 1-.316.14.627.627 0 0 1-.103-.01 3.199 3.199 0 0 0-.102-.018 1.59 1.59 0 0 0-.372-.056Zm2.539 5.33a.574.574 0 0 1-.158.41.541.541 0 0 1-.4.157.542.542 0 0 1-.4-.158.573.573 0 0 1-.158-.41v-3.84c0-.162.053-.295.158-.4a.527.527 0 0 1 .4-.168c.162 0 .295.056.4.167a.542.542 0 0 1 .158.4v3.842ZM8.242 8.95c.086.068.235.102.446.102.217 0 .369-.03.456-.093.093-.068.14-.192.14-.372V8.41c0-.173-.044-.294-.13-.362-.088-.069-.24-.103-.457-.103-.204 0-.353.034-.446.103-.093.068-.14.189-.14.362v.177c0 .174.045.295.131.363Zm4.821.614c.632 0 1.07.189 1.311.567.242.372.363.89.363 1.554v2.38a.573.573 0 0 1-.158.41.543.543 0 0 1-.4.158.542.542 0 0 1-.4-.158.573.573 0 0 1-.158-.41v-2.38c0-.341-.072-.608-.214-.8-.143-.199-.388-.298-.735-.298-.36 0-.642.105-.846.316a1.057 1.057 0 0 0-.307.782v2.38a.573.573 0 0 1-.158.41.543.543 0 0 1-.4.158.542.542 0 0 1-.4-.158.574.574 0 0 1-.159-.41v-3.84c0-.162.053-.295.159-.4a.526.526 0 0 1 .4-.168c.16 0 .294.056.4.167a.543.543 0 0 1 .158.4v.158c.167-.223.384-.415.65-.576.274-.162.571-.242.894-.242Zm4.09 4.502a.556.556 0 0 1-.568.567.53.53 0 0 1-.51-.347.574.574 0 0 1-.039-.221V8.318a.557.557 0 0 1 .567-.567.52.52 0 0 1 .392.167.543.543 0 0 1 .158.4v5.749-.001Z"/><path fill="#505E70" fill-rule="evenodd" d="M31.712 9.32c.428 0 .815.112 1.163.335.347.217.62.521.818.912.205.39.307.834.307 1.33 0 .496-.1.942-.297 1.34-.199.39-.472.697-.82.92-.338.216-.732.33-1.134.326-.297 0-.58-.06-.846-.177a2.32 2.32 0 0 1-.651-.446v1.823a.541.541 0 0 1-.159.4.527.527 0 0 1-.4.167.542.542 0 0 1-.558-.568v-5.7a.54.54 0 0 1 .159-.4.526.526 0 0 1 .4-.168c.16 0 .294.056.4.168a.543.543 0 0 1 .158.4v.037c.148-.186.356-.347.623-.484.266-.142.546-.214.837-.214Zm-.14 4.14c.397 0 .723-.15.977-.447.254-.298.381-.67.381-1.116 0-.447-.127-.816-.38-1.107a1.21 1.21 0 0 0-.978-.446c-.403 0-.731.148-.986.446-.254.291-.38.66-.38 1.107 0 .446.126.818.38 1.116.255.298.583.447.986.447Z" clip-rule="evenodd"/><path fill="url(#pi-finloup-b)" d="M25.128 14.534c-.532-.158-.986-.502-1.373-.89a.52.52 0 0 1 0-.732.527.527 0 0 1 .366-.15.53.53 0 0 1 .366.15c.11.11.226.217.348.316.139.102.285.193.441.265.1.038.203.067.308.087.116.01.232.007.348-.004.128-.022.253-.057.374-.103.118-.054.23-.12.335-.196.1-.083.192-.174.274-.273.076-.105.14-.217.195-.335.047-.122.081-.247.103-.375a2.085 2.085 0 0 0 0-.412 2.027 2.027 0 0 0-.102-.375 2.068 2.068 0 0 0-.196-.335 2.06 2.06 0 0 0-.328-.318c.218-.505.849-.706 1.176-.263.355.482.527 1.075.484 1.673-.04.47-.189.93-.475 1.308-.08.11-.168.214-.263.312a2.531 2.531 0 0 1-1.611.73 2.11 2.11 0 0 1-.77-.08Z"/><path fill="url(#pi-finloup-c)" d="M23.354 10.994a6.15 6.15 0 0 1 .224-.257c.375-.412 1.013-.299 1.32.166-.123.096-.24.2-.351.31-.369.363-.678.777-.995 1.183l-.123.164a12.1 12.1 0 0 1-.814.993 4.436 4.436 0 0 1-.438.408c-.18.144-.367.284-.574.388-.409.207-.856.31-1.313.25a2.724 2.724 0 0 1-.399-.07 2.89 2.89 0 0 1-.377-.141 2.55 2.55 0 0 1-1.324-1.421c-.172-.435-.19-.917-.11-1.374a2.54 2.54 0 0 1 2.365-2.034 2.08 2.08 0 0 1 .744.095c.508.163.94.488 1.313.86a.52.52 0 0 1 0 .732.527.527 0 0 1-.366.151.531.531 0 0 1-.366-.15 4.294 4.294 0 0 0-.332-.302 2.564 2.564 0 0 0-.439-.263 1.72 1.72 0 0 0-.296-.084 1.877 1.877 0 0 0-.35.004 2.022 2.022 0 0 0-.375.103 2.01 2.01 0 0 0-.335.196c-.1.082-.19.174-.273.273a2.018 2.018 0 0 0-.196.334 2.05 2.05 0 0 0-.102.376 2.085 2.085 0 0 0 0 .412c.022.128.056.253.102.375.055.118.12.23.196.335.083.1.174.191.274.274.105.075.216.14.334.195.122.046.247.08.375.103.115.011.231.014.346.004.107-.02.21-.05.312-.088.155-.072.3-.162.438-.264.376-.302.689-.674.983-1.053l.129-.168c.259-.342.52-.684.793-1.015Z"/></g><defs><linearGradient id="pi-finloup-b" x1="18.034" x2="28.255" y1="12.089" y2="12.089" gradientUnits="userSpaceOnUse"><stop stop-color="#37A76F"/><stop offset="1" stop-color="#99CB38"/></linearGradient><linearGradient id="pi-finloup-c" x1="18.034" x2="28.255" y1="12.089" y2="12.089" gradientUnits="userSpaceOnUse"><stop stop-color="#37A76F"/><stop offset="1" stop-color="#99CB38"/></linearGradient><clipPath id="pi-finloup-a"><path fill="#fff" d="M0 0h38v24H0z"/></clipPath></defs></svg>
