<svg width="38" height="24" viewBox="0 0 38 24" role="img" aria-labelledby="pi-fintecture" xmlns="http://www.w3.org/2000/svg"><title id="pi-fintecture">Fintecture</title><path fill="#000" opacity=".07" d="M35 0H3C1.3 0 0 1.3 0 3v18c0 1.7 1.4 3 3 3h32c1.7 0 3-1.3 3-3V3c0-1.7-1.4-3-3-3z"/><path fill="#fff" d="M35 1c1.1 0 2 .9 2 2v18c0 1.1-.9 2-2 2H3c-1.1 0-2-.9-2-2V3c0-1.1.9-2 2-2h32"/><path d="M17.727 11.527zm0 0zm5.249-1.668zm-.585-7.498c-.188 0-.367.049-.52.134l-9.775 5.64c-.316.178-.547.502-.547.889v10.603c0 .452.345.82.762.947l3.82 1.027c.092.024.187.038.287.038.56 0 1.075-.43 1.075-.973v-1.485l-2.067-.256c-.498-.07-.873-.528-.876-1.05v-7.61c.017-.425.28-.785.652-.945l8.288-3.368V3.355a1.11 1.11 0 00-1.099-.994z" fill="#1ddba9"/><path d="M18.322 11.144c-.473.13-.835.539-.835 1.048v6.987l1.927.24c.6.08 1.078-.482 1.078-1.077l.008-3.865c0-.523.442-.935.956-1.01l4.082-.515h.002c.491-.067.911-.447.911-.943V6.19c0-.54-.52-.935-1.067-.935a1.08 1.08 0 00-.374.067l-1.528.622v3.005c0 .482-.331.889-.768 1.026l-4.392 1.17z" fill="#0b1643"/><path d="M15.195 9.318c-.373.158-.636.52-.653.945v7.609c.003.523.378.981.876 1.051l2.067.256v-6.987c0-.511.36-.921.835-1.048l4.392-1.164a1.09 1.09 0 00.768-1.026V5.95l-8.286 3.368z" fill="#fff"/></svg>