<svg width="38" height="24" viewBox="0 0 38 24" fill="none" xmlns="http://www.w3.org/2000/svg" role="img" aria-labelledby="pi-fintoc"><title id="pi-fintoc">Fintoc</title><g clip-path="url(#a)"><path fill="#000" fill-opacity=".07" d="M36 0H2a2 2 0 0 0-2 2v20a2 2 0 0 0 2 2h34a2 2 0 0 0 2-2V2a2 2 0 0 0-2-2Z"/><path fill="#000" d="M35 1H3a2 2 0 0 0-2 2v18a2 2 0 0 0 2 2h32a2 2 0 0 0 2-2V3a2 2 0 0 0-2-2Z"/><path fill="#fff" d="M4.67 14.877h.494a.365.365 0 0 0 .366-.365v-4.077a.365.365 0 0 0-.366-.365h-.493a.365.365 0 0 0-.366.365v4.077c0 .201.164.365.366.365ZM3.551 14.875a.244.244 0 0 0 .245-.244v-4.319a.244.244 0 1 0-.489 0v4.319c0 .135.109.244.244.244ZM2.692 14.875a.106.106 0 0 0 .106-.106v-4.595a.106.106 0 0 0-.212 0v4.595c0 .058.048.106.106.106ZM7.52 10.068h-.885a.596.596 0 0 0-.596.595v3.617c0 .328.267.595.596.595h.884a.596.596 0 0 0 .596-.595v-3.617a.596.596 0 0 0-.596-.595ZM12.164 9.625c0-.364.206-.551.56-.551.234 0 .403.018.618.056V8.093a4.197 4.197 0 0 0-.86-.093c-.954 0-1.552.523-1.552 1.54v.14c0 .253-.131.393-.384.393h-.355v1.139h.739v3.668h1.234v-3.668h1.262v-1.14h-1.262v-.447ZM14.897 8.063c.412 0 .738.324.738.714 0 .389-.326.714-.738.714a.712.712 0 0 1-.727-.714c0-.399.316-.714.727-.714ZM15.515 10.074H14.29v4.808h1.225v-4.808ZM19.026 9.969c-.694 0-1.171.33-1.411.7v-.598H16.39v4.808h1.225v-2.481c.003-.733.413-1.244 1.02-1.244.605 0 .971.373.971 1.195v2.53h1.225v-2.8c0-1.522-.813-2.11-1.804-2.11ZM23.313 13.145v-1.933h1.262v-1.139h-1.262V8.73h-1.094l-.054.992c-.004.195-.136.352-.342.352h-.53v1.14h.786v2.035c0 1.166.702 1.727 1.655 1.727.383 0 .636-.038.935-.103v-1.158a2.82 2.82 0 0 1-.71.075c-.374 0-.645-.168-.645-.644h-.001ZM27.684 9.969c-1.45 0-2.553 1.073-2.553 2.502 0 1.428 1.104 2.51 2.553 2.51 1.449 0 2.57-1.073 2.57-2.51 0-1.438-1.121-2.502-2.57-2.502Zm0 3.827c-.767 0-1.319-.588-1.319-1.325 0-.738.552-1.317 1.319-1.317.767 0 1.337.588 1.337 1.316 0 .729-.57 1.326-1.337 1.326ZM33.279 13.814c-.776 0-1.328-.588-1.328-1.326 0-.738.551-1.316 1.328-1.316.486 0 .832.224 1.056.588l1.057-.644c-.449-.7-1.188-1.13-2.113-1.13-1.486 0-2.561 1.074-2.561 2.502 0 1.428 1.075 2.511 2.561 2.511.926 0 1.664-.43 2.113-1.13l-1.057-.643c-.224.364-.57.588-1.056.588Z"/></g><defs><clipPath><path fill="#fff" d="M0 0h38v24H0z"/></clipPath></defs></svg>