<svg width="38" height="24" viewBox="0 0 38 24" fill="none" xmlns="http://www.w3.org/2000/svg" role="img" aria-labelledby="pi-firstcitizens"><title id="pi-firstcitizens">First Citizens</title><g clip-path="url(#pi-firstcitizens-clip0_10420_219315)"><path opacity=".07" d="M35 0H3C1.3 0 0 1.3 0 3v18c0 1.7 1.4 3 3 3h32c1.7 0 3-1.3 3-3V3c0-1.7-1.4-3-3-3z" fill="#000"/><path d="M35 1c1.1 0 2 .9 2 2v18c0 1.1-.9 2-2 2H3c-1.1 0-2-.9-2-2V3c0-1.1.9-2 2-2h32z" fill="#fff"/><mask id="pi-firstcitizens-mask0_10420_219315" style="mask-type:luminance" maskUnits="userSpaceOnUse" x="11" y="5" width="16" height="15"><path d="M11.502 5.25v14.565h14.575V5.25" fill="#fff"/></mask><g mask="url(#pi-firstcitizens-mask0_10420_219315)"><path d="M4.219 12.533l14.57 14.57 14.57-14.57-14.57-14.57-14.57 14.57z" fill="url(#pi-firstcitizens-paint0_linear_10420_219315)"/></g><path d="M26.076 5.25H11.502l-.495-.496h15.566m-.497 15.06H11.502l-.495.495h15.566" fill="#7E99C3"/><path d="M11.502 19.814V5.25l-.495-.496V20.31" fill="#4D6D9F"/><mask id="pi-firstcitizens-mask1_10420_219315" style="mask-type:luminance" maskUnits="userSpaceOnUse" x="11" y="3" width="16" height="17"><path d="M19.228 6.072c-.801.289-1.269.745-1.477 1.243a1.656 1.656 0 00-.127.597l-.001.2v1.063c0 .128-.07.217-.184.29a1.09 1.09 0 01-.188.095l-.173.066-5.575 2.18v8.008h3.688v-.76l2.699-1.087.21-.091c.135-.066.324-.17.513-.312.366-.277.877-.735.88-1.501l-.002-1.328 7.081-2.922V3.124" fill="#fff"/></mask><g mask="url(#pi-firstcitizens-mask1_10420_219315)"><path d="M11.503 3.124h15.07v16.69h-15.07V3.124z" fill="url(#pi-firstcitizens-paint1_linear_10420_219315)"/></g><mask id="pi-firstcitizens-mask2_10420_219315" style="mask-type:luminance" maskUnits="userSpaceOnUse" x="11" y="4" width="15" height="16"><path d="M14.264 14.34a116.76 116.76 0 003.806-1.532c.197-.094.332-.24.423-.368v1.123c.007.246-.18.55-.566.728-1.167.534-2.418.973-3.663 1.454m5.36-8.88c-.737.286-1.004.596-1.004 1.175v1.226c0 .817-1.166 1.16-1.166 1.16l-5.95 2.328v7.06h2.72v-1.41l3.278-1.321s.993-.347.993-1.153c0 0 .003-.728.014-1.222.01-.452.261-.785.802-1.004l6.392-2.581v-2.6l-6.185 2.463c-.78.319-.905.654-.905.654v-1.17c0-.104-.042-.524 1.063-.975l6.027-2.416V4.425" fill="#fff"/></mask><g mask="url(#pi-firstcitizens-mask2_10420_219315)"><path d="M11.503 4.425h14.2v15.39h-14.2V4.424z" fill="url(#pi-firstcitizens-paint2_linear_10420_219315)"/></g><path d="M26.077 12.016v7.798l.495.495v-8.497" fill="#4D6D9F"/></g><defs><linearGradient id="pi-firstcitizens-paint0_linear_10420_219315" x1="11.486" y1="5.229" x2="26.056" y2="19.799" gradientUnits="userSpaceOnUse"><stop stop-color="#001D4D"/><stop offset=".063" stop-color="#002355"/><stop offset=".161" stop-color="#00326A"/><stop offset=".276" stop-color="#004B8C"/><stop offset=".515" stop-color="#0087CA"/><stop offset=".73" stop-color="#004B8C"/><stop offset=".757" stop-color="#004483"/><stop offset=".855" stop-color="#002F65"/><stop offset=".939" stop-color="#002253"/><stop offset="1" stop-color="#001D4D"/></linearGradient><linearGradient id="pi-firstcitizens-paint1_linear_10420_219315" x1="10.456" y1="11.47" x2="26.574" y2="11.47" gradientUnits="userSpaceOnUse"><stop stop-color="#C8CACB"/><stop offset=".227" stop-color="#EDEDEE"/><stop offset=".368" stop-color="#DDDFE0"/><stop offset=".429" stop-color="#E2E3E4"/><stop offset=".491" stop-color="#A4A7A9"/><stop offset=".558" stop-color="#fff"/><stop offset=".62" stop-color="#DDDFE0"/><stop offset=".699" stop-color="#EDEDEE"/><stop offset=".767" stop-color="#F7F7F8"/><stop offset="1" stop-color="#D0D2D3"/></linearGradient><linearGradient id="pi-firstcitizens-paint2_linear_10420_219315" x1="11.439" y1="12.119" x2="25.696" y2="12.119" gradientUnits="userSpaceOnUse"><stop stop-color="#9D012D"/><stop offset=".178" stop-color="#D11242"/><stop offset=".368" stop-color="#D11242"/><stop offset=".429" stop-color="#D11242"/><stop offset=".43" stop-color="#D01242"/><stop offset=".491" stop-color="#8A0024"/><stop offset=".564" stop-color="#ED3352"/><stop offset=".632" stop-color="#C30E3D"/><stop offset=".877" stop-color="#D11242"/><stop offset=".982" stop-color="#C30E3D"/><stop offset="1" stop-color="#C30E3D"/></linearGradient><clipPath id="pi-firstcitizens-clip0_10420_219315"><path fill="#fff" d="M0 0h38v24H0z"/></clipPath></defs></svg>