<svg xmlns="http://www.w3.org/2000/svg" width="38" height="24" viewBox="0 0 38 24" role="img" aria-labelledby="pi-flexfsa"><title id="pi-flexfsa">Flex FSA</title><path opacity=".07" d="M35 0H3C1.3 0 0 1.3 0 3v18c0 1.7 1.4 3 3 3h32c1.7 0 3-1.3 3-3V3c0-1.7-1.4-3-3-3z" fill="#000"/><path d="M35 1c1.1 0 2 .9 2 2v18c0 1.1-.9 2-2 2H3c-1.1 0-2-.9-2-2V3c0-1.1.9-2 2-2h32z" fill="#FFFFFF"/><path fill="#0B0077" d="M25.35 17.624h-2.209L27.163 6.197h2.555l4.028 11.426h-2.209L28.486 8.542h-.089l-3.046 9.082Zm.073-4.48h6.025v1.663h-6.025v-1.663ZM20.074 9.339c-.052-.487-.271-.866-.658-1.138-.383-.271-.882-.407-1.495-.407-.432 0-.802.065-1.11.195-.31.13-.545.307-.71.53a1.289 1.289 0 0 0-.25.765c0 .238.054.444.162.619.111.175.262.323.452.446.19.12.4.22.63.301.23.082.463.151.697.207l1.071.268c.432.1.847.236 1.244.407.402.17.761.387 1.077.647.32.26.573.575.759.943.186.368.279.8.279 1.294 0 .67-.171 1.259-.513 1.769-.343.505-.837.901-1.484 1.188-.644.283-1.423.424-2.338.424-.889 0-1.66-.138-2.315-.413-.65-.275-1.16-.677-1.529-1.205-.364-.528-.561-1.172-.591-1.93h2.036c.03.398.153.729.369.993.215.264.496.46.842.591.35.13.74.195 1.171.195.45 0 .845-.067 1.183-.2.342-.138.61-.328.803-.57.194-.245.292-.531.296-.859-.004-.297-.091-.543-.262-.736-.171-.197-.411-.36-.72-.491a6.93 6.93 0 0 0-1.07-.357l-1.3-.335c-.942-.242-1.686-.608-2.232-1.099-.543-.495-.815-1.15-.815-1.97 0-.672.182-1.262.547-1.768.368-.505.868-.898 1.5-1.177.633-.282 1.349-.424 2.148-.424.811 0 1.522.142 2.132.424.613.28 1.095.668 1.445 1.166.35.495.53 1.064.54 1.707h-1.991ZM4.66 17.624V6.197h7.32v1.735h-5.25v3.102h4.747v1.735H6.73v4.854H4.66Z"/></svg>
