<svg xmlns="http://www.w3.org/2000/svg" width="38" height="24" viewBox="0 0 38 24" role="img" aria-labelledby="pi-flexhsa"><title id="pi-flexhsa">Flex HSA</title><path opacity=".07" d="M35 0H3C1.3 0 0 1.3 0 3v18c0 1.7 1.4 3 3 3h32c1.7 0 3-1.3 3-3V3c0-1.7-1.4-3-3-3z" fill="#000"/><path d="M35 1c1.1 0 2 .9 2 2v18c0 1.1-.9 2-2 2H3c-1.1 0-2-.9-2-2V3c0-1.1.9-2 2-2h32z" fill="#FFFFFF"/><path fill="#0B0077" d="M26.011 17.181h-2.035l3.706-10.526h2.354l3.71 10.526h-2.035l-2.811-8.367h-.082l-2.807 8.367Zm.067-4.127h5.55v1.532h-5.55v-1.532ZM21.15 9.549a1.403 1.403 0 0 0-.606-1.049c-.353-.25-.812-.375-1.378-.375-.397 0-.738.06-1.022.18-.285.12-.502.283-.653.488-.15.206-.228.44-.231.704 0 .22.05.41.149.57.102.162.241.299.416.412.175.11.368.202.58.278.213.075.427.138.643.19l.987.246c.398.093.78.218 1.146.376.37.157.7.356.992.596.295.24.528.53.7.868.17.34.256.737.256 1.193 0 .617-.158 1.16-.473 1.63-.315.465-.77.83-1.367 1.094-.593.26-1.31.39-2.153.39-.82 0-1.53-.126-2.133-.38-.6-.253-1.07-.623-1.409-1.11-.335-.487-.517-1.08-.544-1.778h1.876c.027.366.14.671.339.915.198.243.457.424.776.544.322.12.682.18 1.08.18a2.95 2.95 0 0 0 1.089-.185c.315-.127.562-.301.74-.524.178-.226.269-.49.272-.792a1.006 1.006 0 0 0-.241-.678 1.77 1.77 0 0 0-.663-.452 6.388 6.388 0 0 0-.987-.33l-1.198-.308c-.866-.222-1.552-.56-2.055-1.012-.5-.456-.75-1.06-.75-1.814 0-.62.167-1.164.503-1.63.339-.466.8-.827 1.382-1.084.583-.26 1.242-.39 1.98-.39.746 0 1.4.13 1.962.39.566.257 1.01.615 1.332 1.074.322.456.488.98.498 1.573h-1.835ZM4.66 17.181V6.655h1.906v4.456h4.877V6.655h1.912v10.526h-1.912v-4.471H6.567v4.471H4.66Z"/></svg>
