<svg xmlns="http://www.w3.org/2000/svg" width="38" height="24" viewBox="0 0 38 24" role="img" aria-labelledby="pi-flex"><title id="pi-flex">Flex</title><path opacity=".07" d="M35 0H3C1.3 0 0 1.3 0 3v18c0 1.7 1.4 3 3 3h32c1.7 0 3-1.3 3-3V3c0-1.7-1.4-3-3-3z" fill="#000"/><path d="M35 1c1.1 0 2 .9 2 2v18c0 1.1-.9 2-2 2H3c-1.1 0-2-.9-2-2V3c0-1.1.9-2 2-2h32z" fill="#0B0077"/><path fill="#fff" fill-rule="evenodd" d="M14.024 15.413v.086c.014.617.198 2.853 2.159 3.268h-2.16a1.987 1.987 0 0 1-1.985-1.986V5.213c1.096 0 1.986.89 1.986 1.986v8.214Zm9.295-5.307c.691.516 1.882 3.635.669 3.938H17.89c-.157 2.56 2.46 3.947 4.551 2.723 1.048-.689 1.199-.479 1.794.352l.097.135c-2.19 2.44-7.028 1.959-8.075-1.377-1.845-4.551 2.997-9.165 7.062-5.771Zm-.655 2.71h-4.718c.088-3.084 4.873-3.165 4.718 0ZM9.596 5.222h-.101v.004a4.877 4.877 0 0 0-1.635.289c-.497.216-.9.497-1.226.852a3.47 3.47 0 0 0-.729 1.21 4.252 4.252 0 0 0-.247 1.474v.433H4.216c.219.496.766 1.28 2.045 1.34 0 0-.25.266-.604.522v7.429a2 2 0 0 0 1.61-.82c.243-.331.392-.738.392-1.182v-5.86h2.295V9.484H7.598v-.433c0-.774.2-1.365.588-1.784.343-.357.807-.557 1.396-.605l.175-.002c.65 0 1.177-.526 1.177-1.176v-.262H9.596Zm24.187 13.565h-.247a3.597 3.597 0 0 1-3.067-1.726l-.238-.391-.09-.15-.003-.002a320.185 320.185 0 0 1-1.035-1.705c-.056.215-.13.402-.223.56l-1.978 3.016a1.642 1.642 0 0 1-.232.275.434.434 0 0 1-.325.123h-1.783l3.278-4.989-1.606-2.39a13.331 13.331 0 0 1-.952-1.208l-.75-1.071c.058 0 .116.001.173.003l-.013-.02h.213c1.303 0 2.512.676 3.196 1.785l1.048 1.701c.058-.17.13-.34.238-.497l1.815-2.654c.123-.213.278-.318.48-.318h.019a.47.47 0 0 1 .123-.016h1.83l-3.149 4.6.931 1.442.028.04-.002-.002 2.321 3.594Z" clip-rule="evenodd"/></svg>
