<svg xmlns="http://www.w3.org/2000/svg" role="img" viewBox="0 0 38 24" width="38" height="24" aria-labelledby="pi-floapay" fill="none"><title id="pi-floapay">Floapay</title><rect width="38" height="24" rx="2" fill="#fff"/><rect x=".5" y=".5" width="37" height="23" rx="2" stroke-width="1" stroke="#000" stroke-opacity=".07"/><path d="M19.06 9.409H16.3c-.345 0-.614.283-.614.645v4.092c0 .362.27.645.613.645.344 0 .613-.283.613-.645v-1.408h1.832c.316 0 .564-.26.564-.593 0-.333-.248-.594-.564-.594h-1.832v-.956h2.149c.31 0 .564-.266.564-.593 0-.327-.253-.593-.564-.593zM21.429 9.409c-.342 0-.61.283-.61.645v4.092c0 .362.268.645.61.645h2.539c.314 0 .561-.26.561-.593 0-.333-.246-.594-.561-.594h-1.929v-3.55c0-.362-.268-.645-.61-.645zM27.697 9.409a2.662 2.662 0 00-2.69 2.691v.015c0 1.526 1.15 2.676 2.676 2.676 1.525 0 2.69-1.182 2.69-2.69v-.015c0-1.527-1.15-2.677-2.676-2.677zm1.404 2.706c0 .857-.604 1.504-1.404 1.504-.8 0-1.419-.653-1.419-1.519v-.014c0-.858.604-1.505 1.405-1.505.8 0 1.418.653 1.418 1.52v.014zM33.174 14.791c.569 0 1.075-.183 1.464-.53l.086-.078.028.114c.063.257.316.437.617.437a.623.623 0 00.631-.629v-2.494c0-.705-.188-1.247-.56-1.613l-.001-.001c-.371-.385-.964-.588-1.714-.588-.597 0-1.088.09-1.64.302a.577.577 0 00-.359.527c0 .305.25.552.555.552.062 0 .125-.01.199-.031l.01-.004a2.886 2.886 0 011.084-.195c.367 0 .653.08.85.24.2.162.308.405.321.721l.004.098-.093-.027a4.214 4.214 0 00-1.187-.159c-.664 0-1.21.158-1.582.455-.367.294-.56.726-.56 1.248v.02c0 .963.76 1.635 1.847 1.635zm-.584-1.703c0-.3.153-.526.443-.653.226-.099.486-.12.664-.12.455 0 .807.089 1.021.163l.048.017v.296c0 .586-.534 1.012-1.269 1.012-.229 0-.442-.053-.6-.15a.613.613 0 01-.307-.546v-.019zM13.269 6.439a1.434 1.434 0 00-1.627-.31c-.77.337-1.18 1.094-1.478 1.789l-1.16 2.84 2.798-1.173.006-.003c.687-.302 1.434-.716 1.768-1.496a1.478 1.478 0 00-.307-1.647zm-.357 1.356c-.131.306-.399.678-1.39 1.115l-1.185.496.49-1.2c.243-.563.563-1.17 1.102-1.406a.72.72 0 01.829.156c.224.227.282.541.154.84zm-1.26 3.238c-.812-.325-1.663-.072-2.39.217l-.755.318a1.513 1.513 0 00-.31-.314l.31-.759.003-.006c.286-.735.535-1.597.215-2.42a1.497 1.497 0 00-1.416-.978c-.637 0-1.18.375-1.415.979a2.19 2.19 0 00-.14.596 2.15 2.15 0 00-.515-.322 1.484 1.484 0 00-1.684.322 1.53 1.53 0 00-.318 1.705c.083.194.192.367.318.521a2.127 2.127 0 00-.589.141A1.516 1.516 0 002 12.467c0 .645.37 1.194.966 1.432.195.078.392.123.588.142a2.17 2.17 0 00-.317.52 1.53 1.53 0 00.318 1.706 1.487 1.487 0 001.684.322c.192-.084.362-.194.515-.322.019.2.062.399.14.596.235.604.778.979 1.415.979s1.18-.375 1.415-.979a2.19 2.19 0 00.14-.596c.153.128.323.237.515.322a1.486 1.486 0 001.684-.321 1.53 1.53 0 00.317-1.706 2.17 2.17 0 00-.317-.521c.197-.019.394-.064.589-.142.596-.238.966-.787.966-1.432 0-.646-.37-1.195-.966-1.434zm-8.42 2.186a.787.787 0 01-.51-.752c0-.344.191-.625.51-.753.14-.056.308-.102.54-.102.296 0 .697.076 1.274.302l.032.014.756.317a1.527 1.527 0 000 .444l-.75.314-.006.002a3.056 3.056 0 00-.037.017c-.583.23-1.247.423-1.81.198h.001zm2.878 1.22l-.002.005-.015.038c-.252.58-.587 1.192-1.141 1.436a.771.771 0 01-.886-.168.794.794 0 01-.165-.897c.136-.32.413-.706 1.422-1.157l.033-.013.756-.317c.087.119.192.225.31.313l-.312.76zm.002-2.871l-.75-.315-.006-.003a1.556 1.556 0 00-.038-.014C4.746 10.98 4.14 10.64 3.9 10.08a.795.795 0 01.165-.897.77.77 0 01.886-.167c.315.138.697.419 1.143 1.439l.013.034.313.765a1.512 1.512 0 00-.31.314zm1.94 5.026a.778.778 0 01-.743.516.778.778 0 01-.743-.516c-.126-.324-.2-.795.197-1.836l.015-.033.312-.765a1.483 1.483 0 00.439 0l.31.759.003.006.016.037c.226.59.417 1.263.195 1.832zM6.54 12.466c0-.429.345-.778.77-.778.423 0 .768.35.768.778a.774.774 0 01-.769.779.774.774 0 01-.769-.778zm1.3-2.248l-.31.755a1.484 1.484 0 00-.44 0l-.31-.759-.003-.006-.016-.037c-.226-.59-.417-1.263-.195-1.832a.778.778 0 01.743-.516c.34 0 .617.193.744.516.128.328.203.807-.214 1.879zm2.713 5.532a.77.77 0 01-.887.167c-.315-.138-.696-.418-1.142-1.438a7.358 7.358 0 00-.013-.035l-.314-.765c.118-.089.222-.194.31-.313l.75.314.006.003.036.014c.573.256 1.178.594 1.419 1.156a.794.794 0 01-.165.897zm.833-2.53c-.32.127-.785.202-1.813-.2a4.775 4.775 0 01-.033-.015l-.756-.316a1.527 1.527 0 000-.446l.747-.313c.594-.237 1.278-.447 1.855-.216.32.128.51.41.51.752 0 .344-.19.625-.51.753z" fill="#009FFF"/></svg>