<svg xmlns="http://www.w3.org/2000/svg" viewBox="0 0 38 24" width="38" height="24" role="img" aria-labelledby="pi-floatpayments"><title id="pi-floatpayments">Float Payments</title><path opacity=".07" d="M35 0H3C1.3 0 0 1.3 0 3v18c0 1.7 1.4 3 3 3h32c1.7 0 3-1.3 3-3V3c0-1.7-1.4-3-3-3z" id="pi-border"/><path fill="#fff" d="M35.035.965c1.1 0 2 .9 2 2v18c0 1.1-.9 2-2 2h-32c-1.1 0-2-.9-2-2v-18c0-1.1.9-2 2-2h32" id="pi-background"/><path d="M17.913 10.246c-.943 0-1.708-.75-1.708-1.676 0-.925.765-1.676 1.708-1.676s1.708.75 1.708 1.676c0 .925-.765 1.676-1.708 1.676zm5.118 1.379c-.982 0-1.78.783-1.78 1.747 0 .963.798 1.747 1.78 1.747.98 0 1.779-.783 1.78-1.745 0-.468-.185-.906-.522-1.236a1.786 1.786 0 00-1.258-.513zm13.317.348c0 5.81-4.802 10.522-10.725 10.522H12.26c-5.923 0-10.724-4.711-10.724-10.522S6.337 1.45 12.26 1.45h13.364c5.922 0 10.724 4.71 10.724 10.522zM11.815 7.334h-.356c-1.25 0-2.306 1.087-2.306 2.373v.675h-1.41v1.23h1.41v4.752h1.253v-4.752h1.409v-1.23h-1.409v-.675c0-.598.502-1.143 1.053-1.143h.356v-1.23zm3.6 7.789h-.526c-.58 0-1.052-.464-1.052-1.033V7.324h-1.254v6.767c0 1.247 1.035 2.262 2.306 2.262h.526zm3.274-2.418l-.77-1.224c1.636-.004 2.961-1.305 2.961-2.911 0-1.608-1.329-2.91-2.967-2.91-1.639 0-2.967 1.303-2.967 2.91 0 1.606 1.325 2.907 2.961 2.91l-.77 1.225zm7.376.667c0-1.641-1.362-2.977-3.034-2.977-1.673 0-3.034 1.336-3.034 2.977 0 1.64 1.36 2.976 3.034 2.976a3.04 3.04 0 001.78-.566v.57h1.254zm4.074-2.996H28.74V8.56h-1.254v1.816h-1.422v1.23h1.422v2.484c0 1.248 1.035 2.263 2.306 2.263h.346v-1.23h-.346c-.58 0-1.052-.464-1.052-1.033v-2.484h1.398z" id="pi-float-logo" fill="#ef0f60" stroke-width=".65"/></svg>