<svg fill="none" role="img" height="24" width="38" viewBox="0 0 38 24" aria-labelledby="pi-flow" xmlns="http://www.w3.org/2000/svg"><title id="pi-flow">Flow</title><clipPath id="pi-flow-clip1"><path d="M0 0h38v24H0z"/></clipPath><g clip-path="url(#pi-flow-clip1)"><path d="M35 0H3C1.3 0 0 1.3 0 3v18c0 1.7 1.4 3 3 3h32c1.7 0 3-1.3 3-3V3c0-1.7-1.4-3-3-3z" fill="#000" opacity=".07"/><path d="M35 1c1.1 0 2 .9 2 2v18c0 1.1-.9 2-2 2H3c-1.1 0-2-.9-2-2V3c0-1.1.9-2 2-2z" fill="#fff"/><g fill="#677023"><path d="M12.262 7.396c.035.336-.004.597-.116.783-.112.186-.26.332-.446.438s-.39.19-.614.252c-.225.062-.43.142-.617.24a1.164 1.164 0 00-.448.411c-.113.177-.153.426-.12.744.02.199.08.34.18.427a.65.65 0 00.35.154c.132.017.279.022.44.014.16-.008.306-.003.439.014a.701.701 0 01.348.14c.099.078.159.215.179.414.035.336-.04.631-.223.886-.183.254-.417.348-.776.368-.357.02-1.018.204-1.31.457s-.477.794-.537 1.29c-.046.382-.14 1.152-.179 1.529-.028.27-.065.563-.148.815a3.364 3.364 0 01-.31.686c-.122.204-.27.376-.444.516s-.385.223-.634.248a.98.98 0 01-.576-.13c-.194-.107-.324-.31-.35-.568-.028-.267-.003-1.05.057-1.526.06-.476.176-1.18.241-1.45.12-.496.007-.917-.029-1.023a.105.105 0 00-.118-.07c-.19.035-.642.095-.964-.058-.12-.057-.517-.298-.537-.934-.016-.535.402-.842.675-.933.357-.12.878-.106 1.042-.246.165-.138.31-.315.437-.528.17-.296.3-.597.391-.903.09-.305.174-.603.249-.894.074-.292.162-.57.261-.838.1-.267.238-.505.417-.716.18-.21.42-.387.724-.532.303-.143.7-.241 1.192-.291.181-.019.378-.03.592-.034.213-.004.409.017.588.064s.334.13.464.253.207.299.23.532zM16.642 6.86c.028.276 0 .593-.086.95s-.197.74-.334 1.145c-.137.406-.287.831-.451 1.275-.164.444-.313.89-.445 1.34-.133.45-.237.898-.314 1.345a4.71 4.71 0 00-.052 1.28c.021.208.065.376.13.504s.131.242.198.339c.066.098.13.19.191.274a.657.657 0 01.111.322c.024.233-.012.44-.106.619-.096.18-.223.334-.384.464s-.347.232-.557.305c-.21.074-.415.121-.613.142-.552.056-1.02-.058-1.4-.34-.383-.284-.604-.728-.666-1.332-.038-.362-.026-.842.036-1.441.06-.6.164-1.244.312-1.934.147-.69.331-1.39.55-2.096.22-.707.471-1.35.752-1.927.28-.577.591-1.058.931-1.441.34-.384.696-.595 1.067-.633.094-.01.203-.016.325-.02a.775.775 0 01.347.07c.11.05.208.136.294.257s.142.3.165.533z"/><path d="M22.812 12.216a4.247 4.247 0 01-.121 1.561c-.137.498-.357.941-.662 1.33-.304.388-.681.71-1.13.965-.45.255-.958.412-1.528.47a3.62 3.62 0 01-1.298-.097 3.117 3.117 0 01-1.114-.54 3.083 3.083 0 01-1.196-2.172 3.97 3.97 0 01.164-1.663c.17-.514.424-.965.764-1.353s.756-.703 1.25-.945a4.706 4.706 0 011.608-.451c.38-.04.753 0 1.123.114s.704.296 1.003.544c.3.249.552.56.756.936.204.376.332.81.381 1.302zm-1.846-.282c-.043-.414-.193-.73-.45-.948-.258-.218-.593-.305-1.007-.263a1.467 1.467 0 00-1.128.671 1.777 1.777 0 00-.244.62 2.381 2.381 0 00-.032.71.964.964 0 00.173.472c.096.134.214.242.353.324.14.082.291.14.456.176.164.035.325.045.48.03.216-.023.414-.087.595-.192a1.63 1.63 0 00.804-1.6zM33.055 9.08c.028.276.021.616-.02 1.021a9.796 9.796 0 01-.222 1.278c-.108.447-.247.897-.418 1.35a6.816 6.816 0 01-.606 1.232 3.926 3.926 0 01-.782.917 1.73 1.73 0 01-.952.418c-.258.026-.472-.02-.641-.138a1.43 1.43 0 01-.42-.46c-.11-.19-.203-.4-.274-.632a18.328 18.328 0 00-.209-.64 2.51 2.51 0 00-.22-.48c-.078-.127-.182-.184-.31-.17-.182.018-.359.106-.53.262a4.319 4.319 0 00-.51.57c-.17.222-.34.463-.509.725-.169.261-.343.504-.52.727a4.01 4.01 0 01-.55.572 1.09 1.09 0 01-.594.27 1.76 1.76 0 01-1.154-.287 1.548 1.548 0 01-.422-.421 1.226 1.226 0 01-.202-.575 5.812 5.812 0 01-.006-.888c.02-.36.066-.741.138-1.146.071-.403.167-.812.286-1.225.12-.413.268-.79.446-1.13.179-.341.385-.624.62-.849.234-.224.502-.352.804-.383.25-.025.426.03.527.169.101.137.162.31.184.516.024.242.022.495-.008.76-.03.264-.035.482-.018.655.018.172.08.258.184.256a.865.865 0 00.525-.237c.143-.136.27-.302.38-.496.11-.195.214-.405.308-.633.094-.227.2-.44.314-.634.116-.194.245-.36.387-.497a.885.885 0 01.538-.237.433.433 0 01.388.15c.103.115.197.263.28.442.084.179.158.376.224.591.065.216.131.414.198.595.066.18.14.33.222.447s.179.172.291.16a.606.606 0 00.453-.242c.103-.141.181-.313.235-.515.053-.201.097-.42.13-.653.032-.235.08-.453.142-.655.062-.203.144-.374.248-.516.103-.14.258-.222.465-.243a1.17 1.17 0 01.409.03c.134.034.255.09.363.171.109.081.2.181.273.3.073.119.117.251.132.398z"/></g></g></svg>