<svg xmlns="http://www.w3.org/2000/svg" role="img" viewBox="0 0 38 24" width="38" height="24" fill="none" aria-labelledby="pi-flyingblueplus"><title id="pi-flyingblueplus">Flying Blue+</title><path opacity=".07" d="M35 0H3C1.3 0 0 1.3 0 3v18c0 1.7 1.4 3 3 3h32c1.7 0 3-1.3 3-3V3c0-1.7-1.4-3-3-3z" fill="#000"/><path d="M35 1c1.1 0 2 .9 2 2v18c0 1.1-.9 2-2 2H3c-1.1 0-2-.9-2-2V3c0-1.1.9-2 2-2h32z" fill="#0800B9"/><path d="M17.962 6.997v2.22a1.46 1.46 0 01-1.459 1.458 1.46 1.46 0 01-1.459-1.459V6.997h-.876v2.22a2.34 2.34 0 002.335 2.335c.255 0 .505-.045.732-.122.267-.1.533-.272.727-.6v.344c0 .794-.743 1.46-1.625 1.46-.5 0-.932-.2-1.404-.655l-.027-.028-.516.694.033.038c.466.516 1.16.722 1.17.722.24.072.494.105.744.105 1.381 0 2.502-1.049 2.502-2.336V6.997h-.877zM20.309 5.222a.594.594 0 10.001 1.188.594.594 0 00-.001-1.188zM29.313 6.88a2.34 2.34 0 00-2.336 2.336 2.34 2.34 0 002.336 2.336c.255 0 .505-.045.732-.122.266-.1.533-.272.727-.6v.345c0 .793-.743 1.459-1.626 1.459-.499 0-.932-.2-1.403-.655l-.028-.028-.516.694.034.039c.466.515 1.16.72 1.17.72.239.073.494.106.744.106 1.381 0 2.502-1.048 2.502-2.335V9.21a2.33 2.33 0 00-2.336-2.33zm0 3.8a1.46 1.46 0 01-1.46-1.458c0-.805.655-1.46 1.46-1.46.804 0 1.459.655 1.459 1.46a1.46 1.46 0 01-1.46 1.459zM8.637 11.474V9.238h2.507v-.887H8.637V7.336c0-.805.654-1.46 1.459-1.46.566 0 .915.261 1.265.655l.033.033.521-.699-.033-.038c-.438-.516-1.082-.722-1.087-.722a2.344 2.344 0 00-3.035 2.23v4.14h.877zM13.236 5.11h-.883v6.364h.883V5.111zM20.753 6.997h-.882v4.472h.882V6.997zM22.589 11.474V9.222c0-.805.655-1.46 1.46-1.46.804 0 1.458.655 1.458 1.46v2.252h.882V9.222a2.342 2.342 0 00-4.682 0v2.252h.882zM9.341 19.951a2.34 2.34 0 002.336-2.336A2.34 2.34 0 009.34 15.28c-.255 0-.505.044-.732.122a1.37 1.37 0 00-.727.6v-2.486H7v4.105a2.34 2.34 0 002.341 2.33zm0-3.8c.805 0 1.46.654 1.46 1.459a1.46 1.46 0 01-1.46 1.459 1.46 1.46 0 01-1.459-1.46c0-.804.655-1.458 1.46-1.458zM18.811 15.39h-.882v2.22a1.46 1.46 0 01-1.46 1.459 1.46 1.46 0 01-1.458-1.46v-2.218h-.882v2.28c.016.61.266 1.181.704 1.614.439.427 1.021.666 1.631.666a2.342 2.342 0 002.341-2.341v-2.22h.006zM22.866 18.559a1.471 1.471 0 01-2.546-.555h3.723a2.336 2.336 0 10-.166.55h-1.01v.005zm-1.126-2.425c.666 0 1.226.439 1.41 1.049h-2.824a1.487 1.487 0 011.414-1.049zM13.23 13.505h-.882v6.363h.882v-6.363zM27.76 14.87h-1.37v-1.371h-.883v1.37h-1.37v.882h1.37v1.37h.882v-1.37h1.37v-.882z" fill="#fff"/></svg>