<svg viewBox="0 0 38 24" xmlns="http://www.w3.org/2000/svg" width="38" height="24" role="img" aria-labelledby="pi-forbrugsforeningen"><title id="pi-forbrugsforeningen">Forbrugsforeningen</title><path d="M3 0C1.3 0 0 1.3 0 3v18c0 1.7 1.4 3 3 3h32c1.7 0 3-1.3 3-3V3c0-1.7-1.4-3-3-3H3z" fill="#0076BC"/><path d="M17 1S7.427-1.002 7.078 6.99v9.514c0 1.417-3.078 1.38-3.078 1.38V23s7.03 2.267 8.127-5.104c.177-1.268 0-8.06 0-8.678 0-.62-.783-5.48 4.873-4.103V1z" fill="#fff"/><path fill="#fff" d="M0 9h17v4H0z"/><path d="M.5 9.5v3" stroke="#E5E5E5"/></svg>