<svg xmlns="http://www.w3.org/2000/svg" viewBox="0 0 38 24" role="img" width="38" height="24" aria-labelledby="pi-forsa"><title id="pi-forsa">Forsa</title><path d="M35 0H3a2.946 2.946 0 0 0-3 3v18a3.009 3.009 0 0 0 3 3h32a2.946 2.946 0 0 0 3-3V3a3.009 3.009 0 0 0-3-3Z" data-name="Path 1666" opacity=".07"/><path fill="#fff" d="M35 1a2.006 2.006 0 0 1 2 2v18a2.006 2.006 0 0 1-2 2H3a2.006 2.006 0 0 1-2-2V3a2.006 2.006 0 0 1 2-2h32" data-name="Path 1667"/><g data-name="Layer 1"><g data-name="&lt;Group&gt;"><path fill="#00b3ab" fill-rule="evenodd" d="M10.011 14.904a2.271 2.271 0 0 1-1.649 2.181 2.271 2.271 0 0 1-4.371 0 2.269 2.269 0 0 1 .622-4.452h.856v-.724h-.856v-.767h.856v-.449h-.856v-.767h.856V5.293h3.834v1.41h-2.42v.89h2.42v1.41h-2.42v.92h.856v.767h-.856v.452h.856v.767h-.856v.724h.856a2.273 2.273 0 0 1 2.271 2.271Zm-5.709.8 1.725-1.661H4.614a.86.86 0 0 0-.311 1.661Zm2.671 1.082-.8-.767-.8.767a.857.857 0 0 0 1.593 0ZM8.6 14.903a.864.864 0 0 0-.861-.861H6.325l1.725 1.661a.868.868 0 0 0 .551-.799Z" data-name="&lt;Compound Path&gt;"/><g fill="#152b53" data-name="&lt;Group&gt;"><path d="M13.027 6.797a.734.734 0 0 0 .524-.217.777.777 0 0 0 0-1.044.765.765 0 0 0-1.048 0 .733.733 0 0 0-.217.524.724.724 0 0 0 .217.52.734.734 0 0 0 .524.217ZM14.748 6.797a.716.716 0 0 0 .724-.737.705.705 0 0 0-.724-.733.735.735 0 1 0 0 1.47ZM12.968 14.205h2.211v-1.261H11.46v5.7h1.508v-2.092h1.9v-1.261h-1.9Z" data-name="&lt;Path&gt;"/><path fill-rule="evenodd" d="M18.042 12.837c1.581 0 2.65 1.061 2.65 2.931s-1.069 2.982-2.65 2.982-2.65-1.1-2.65-2.982 1.069-2.931 2.65-2.931Zm0 1.3c-.686 0-1.1.6-1.1 1.632s.417 1.683 1.1 1.683 1.108-.648 1.108-1.683-.422-1.632-1.108-1.632ZM24.79 16.433l1.24 2.215h-1.687l-.98-1.913h-.579v1.909h-1.513v-5.7h2.16c1.227 0 2.283.417 2.283 1.84a1.751 1.751 0 0 1-.924 1.649Zm-.55-1.649c0-.49-.32-.648-.916-.648h-.541v1.4h.541c.597.002.916-.257.916-.752Z" data-name="&lt;Compound Path&gt;"/><path d="m29.272 15.363-.694-.273c-.52-.2-.843-.3-.843-.571 0-.251.23-.383.6-.383a1.882 1.882 0 0 1 1.142.413l.754-.95a2.743 2.743 0 0 0-1.9-.763 1.928 1.928 0 0 0-2.122 1.772 1.682 1.682 0 0 0 1.15 1.589l.711.3c.481.192.771.281.771.554 0 .251-.2.4-.652.4a2.317 2.317 0 0 1-1.333-.55l-.86 1.036a3.3 3.3 0 0 0 2.16.814c1.423 0 2.228-.861 2.228-1.823a1.565 1.565 0 0 0-1.112-1.565Z" data-name="&lt;Path&gt;"/><path fill-rule="evenodd" d="m33.919 12.944 1.738 5.7h-1.6l-.285-1.214h-1.589l-.285 1.214h-1.54l1.738-5.7Zm-.417 3.323-.094-.392c-.141-.545-.281-1.24-.422-1.81h-.034c-.124.579-.264 1.265-.4 1.81l-.09.392ZM11.511 9.629a1.861 1.861 0 0 1 .631-1.4 2.592 2.592 0 0 1 1.823-.588h1.883v1.994c0 .477.115.6.55.6l.217.009c.32 0 .345-.06.366-.085s.081-.141.081-.6V8.298h1.465V9.84c0 .3.043.4.332.413a5.027 5.027 0 0 1 1.883-2.215 3.307 3.307 0 0 1 1.627-.477 2.089 2.089 0 0 1 2.211 2.373 5.827 5.827 0 0 1-.23 1.555l-.017.06h-5.159a2.618 2.618 0 0 1-1.184-.247 2.727 2.727 0 0 1-1.376.234h-.217a2.781 2.781 0 0 1-1.546-.311 2.861 2.861 0 0 1-1.193.247 2.406 2.406 0 0 1-1.521-.469 1.639 1.639 0 0 1-.626-1.374Zm8.993.626h2.624a.307.307 0 0 1 0-.051q.009-.1.009-.153c0-.728-.349-1.146-.954-1.146a2.185 2.185 0 0 0-1.679 1.35Zm-7.528-.711c0 .247.089.579.865.579a1.544 1.544 0 0 0 .47-.06V8.93h-.52c-.512.005-.815.233-.815.614ZM26.042 12.872l-.988-.886a.707.707 0 0 0 .639-.8V7.749h1.3v2.594h4.379a2.071 2.071 0 0 1 .473-2.126 2.218 2.218 0 0 1 1.6-.567 1.918 1.918 0 0 1 2.066 1.956 5.2 5.2 0 0 1-.354 1.862h-8.203a1.663 1.663 0 0 1-.912 1.404Zm6.514-3.229a1.827 1.827 0 0 0 .141.7h1.44a2.633 2.633 0 0 0 .064-.6c0-.533-.247-.924-.784-.924a.774.774 0 0 0-.863.824Z" data-name="&lt;Compound Path&gt;"/><path d="M33.447 6.716h.008a.693.693 0 0 0 .516-.217.734.734 0 0 0 .187-.52.683.683 0 0 0-.716-.728.7.7 0 0 0-.733.728.721.721 0 0 0 .737.737Z" data-name="&lt;Path&gt;"/></g></g></g></svg>