<svg viewBox="0 0 38 24" xmlns="http://www.w3.org/2000/svg" aria-labelledby="pi-fortiva" width="38" height="24" role="img"><title id="pi-fortiva">Fortiva</title><g fill="none" fill-rule="evenodd"><path d="M35 0H3C1.3 0 0 1.3 0 3v18c0 1.7 1.4 3 3 3h32c1.7 0 3-1.3 3-3V3c0-1.7-1.4-3-3-3Z" fill="#000" fill-rule="nonzero" opacity=".07"/><path d="M35 1c1.1 0 2 .9 2 2v18c0 1.1-.9 2-2 2H3c-1.1 0-2-.9-2-2V3c0-1.1.9-2 2-2h32Z" fill="#FFF" fill-rule="nonzero"/><path d="M25 6.818C23.532 5.093 21.393 4 19.025 4 14.593 4 11 7.795 11 12.476c0 2.62 1.132 4.97 2.9 6.524l2.292-10.104c.301-1.28 1.052-2.079 2.327-2.078H25" fill="#E5842D"/><path d="M15 19.086a8.229 8.229 0 0 0 3.77.914c4.546 0 8.23-3.688 8.23-8.236 0-1.364-.32-2.631-.907-3.764-.345.21-.773.349-1.269.352l-5.505.03c-.423.003-1.232.009-1.456.982l-.523 2.529 6.276-.041c-.263 1.01-1.255 2.298-2.526 2.269l-3.159.02c-.423.004-1.232.046-1.379.979-.392 1.947-.75 3.266-1.535 3.956" fill="#889591"/></g></svg>