<svg xmlns="http://www.w3.org/2000/svg" role="img" viewBox="0 0 38 24" width="38" height="24" aria-labelledby="pi-fps"><title id="pi-fps">FPS</title><g clip-path="url(#pi-fps-a)"><path opacity=".07" d="M35 0H3C1.3 0 0 1.3 0 3v18c0 1.7 1.4 3 3 3h32c1.7 0 3-1.3 3-3V3c0-1.7-1.4-3-3-3Z" fill="#000"/><path d="M35 1c1.1 0 2 .9 2 2v18c0 1.1-.9 2-2 2H3c-1.1 0-2-.9-2-2V3c0-1.1.9-2 2-2h32Z" fill="#fff"/><path d="M10.851 19.494c.015.015.015.03.015.045 0 .044-.03.059-.06.044l-.044-.044a.134.134 0 0 0-.089-.09c-.03-.014-.06-.059-.074-.089v-.044s.03-.015.044 0c.075.06.134.119.208.178Zm.104-3.148c.03.03.075.06.134.06 0-.045-.06-.09-.09-.12-.163-.163-.267-.356-.296-.4-.297-.476-.371-1.174-.342-1.248 0-.015 0-.401-.044-.46-.015.03-.015.059-.03.074-.03.193-.015.4 0 .609 0 .06.148.98.668 1.485ZM9.188 14.86h.015c0-.193.015-.535.03-.728h-.03c-.03.178 0 .505-.015.683-.015.015-.015.03 0 .045Zm1.886 1.722v.045c.03.03.06.044.104.015-.015-.045-.03-.075-.074-.075l-.03.015Zm-1.56-.148c.03.089.045.178.09.267.03.06.148.371.193.386.015-.015-.208-.475-.238-.772h-.044v.119Zm-.177-1.01c-.045.134-.045.223.059.386-.045-.148.03-.148-.06-.386Zm.534 2.183c-.015-.015-.015-.03-.03-.044-.03.163-.03.163.12.207-.03-.059-.06-.118-.09-.163Zm-.728-1.752a7.996 7.996 0 0 1-.044-.654v-.104c-.03.03-.03.045-.03.074-.03.208 0 .624 0 .728.015.268.208 1.144.282 1.44.149.446.446.966.55 1.085.015.044.074.06.119.074-.164-.178-.297-.46-.297-.46-.431-.877-.55-2.005-.58-2.183Zm11.584 4.99c-.03-.03-.09-.03-.104.014-.03.06-.09.075-.134.104-.03.015-.044.045-.03.075.015.014.045.03.06.03.09-.03.163-.045.208-.134.015-.03.044-.06 0-.09Zm-.46.282c.015.014.044.044.059.03.015 0 .03-.045.045-.06a.326.326 0 0 0-.075-.045c-.014.045-.044.075-.03.075Zm-9.624-1.812H10.6c0 .015-.015.03 0 .044.03.03.044.075.074.09.045.03.074.044.09.089 0 .014.029.03.044.044.03.015.06 0 .06-.044 0-.015 0-.045-.016-.045-.074-.06-.133-.119-.208-.178Zm17.494-7.812v.045l-.044.134s-1.277 7.633-1.515 7.752c-.104-.045-.594-1.337-.594-1.337l-.044-.044-.03-.134-.03-.045c-.06.075-.133.134-.208.193-.015.015-.03.015-.06.03v-.074c-.088.074-.207.193-.4.356a5.582 5.582 0 0 1-1.159.921c-.044.074-.207.178-.193.178-.074.045-.133.09-.207.134-.03.06-.075.074-.09.089-.059.06-.133.104-.207.148-.179.09-.357.179-.55.283a4.646 4.646 0 0 1-.371.208c-.045.03-.074.059-.119.074-.386.237-.787.43-1.233.579-.089.03-.178.06-.267.104a1.44 1.44 0 0 1-.594.267c-.223.045-.445.149-.683.193-.95.268-1.782.357-2.747.431-.624.044-1.456-.06-1.59-.074.045-.045.075-.075.134-.045.03.015.075.015.119.015.045 0 .104-.03.149-.03.475.075 1.53-.03 1.722-.044 1.916-.178 3.312-1.188 3.312-1.188s-1.93.935-3.446 1.054a16.063 16.063 0 0 1-2.687-.03c-.075-.014-.312-.044-.624-.118-.178-.015-.401-.075-.698-.179-.045 0-.09 0-.119-.044l-.134-.045h-.044c-.03-.015-.074-.03-.104-.044-.03-.015-.045-.03-.074-.045a4.7 4.7 0 0 1-.61-.312 9.287 9.287 0 0 1-.49-.326.848.848 0 0 1-.237-.164c-.06-.074-.134-.133-.208-.208-.698-.638-1.099-1.277-1.129-1.306.045-.03.06 0 .075.014.03.03.312.372.371.372.03-.045 0-.075-.03-.12-.104-.118-.03-.059-.133-.177-.045-.045-.015-.075.06 0 .177.133.177.089.266.163a.248.248 0 0 0 .164.03c.03-.045-.104-.208-.149-.268a1.112 1.112 0 0 0-.252-.267c-.06-.03.03-.03 0-.09-.015-.044-.193-.162-.178-.237.014-.06.133.134.222.223.03.03.075.03.12.074.044.03.326.476.385.535.075.06.43.43.594.564.09.06.565.446 1.307.713.565.208 1.901.282 1.901.282s-1.307-.267-1.797-.46c-1.322-.535-1.737-1.129-1.767-1.173-.163-.178-.92-1.025-.995-1.114-.015-.09-.134-.223-.134-.267 0-.045.06-.03.075-.015.03.03.118.237.163.178.06-.045-.06-.09-.06-.134-.03-.148-.089-.326-.163-.386-.06-.044-.089-.133-.163-.282a.176.176 0 0 1-.015-.148c.015 0 .015 0 .03-.015.014.03.044.06.059.104.044.089.327.579.341.594.075.104.149.193.223.282.12.163.282.356.46.505.283.267.565.386.565.386-.668-.46-.891-.802-1.262-1.456-.149-.267-.193-.49-.238-.549-.045-.104-.074-.208-.104-.267-.044-.09-.119-.164-.178-.253-.045.03.015.193.03.238.014.044.044.074.03.134-.03.014-.06-.03-.06-.03-.045-.075-.134-.297-.163-.357-.194-.415-.164-.742-.164-.92-.015-.223 0-.386 0-.535 0-.223.09-.98.119-1.188 0-.03.015-.045.03-.09.044.105.03.18.03.268v.594c-.03.327-.03.624.103.92.12.283.045.313.342 1.026.95 2.183 2.851 2.376 2.851 2.376s-1.87-.668-2.673-2.243c-.238-.475-.074-.03-.282-.831-.03-.12-.06-.282 0-.282.044 0 .044-.134.06-.194 0-.044-.016-.118.014-.148.045-.015.03.223.075.312.044.104-.104 0 .118.52.015.044.297.727 1.084 1.351l.09.045c.103.074.207.163.326.222.075.045.164.06.238.104.163.075.312.164.475.238 0 0 .074.03.193.089l.134.044c.089.03.193.06.282.075h.044c.134.03.253.06.387.074.089.015.386.03.445.06.282.03.58.044.876.044.06 0 .134-.015.193-.015.03 0 .06-.015.075.015h.014c.357-.015.698-.06 1.025-.119.134-.03.297-.044.416-.06h.015c.044 0 .104-.014.119-.014-.03 0 .074-.015.104-.03.044-.015.089-.044.133-.06.164-.044.312-.118.475-.177.327-.12.669-.268.995-.386 0 0 .149-.06.387-.164.311-.148.608-.312.905-.46.045-.03.09-.06.134-.03.134-.06.267-.134.401-.208a17.948 17.948 0 0 0 1.648-1.218c.09-.059.268-.222.268-.207.163-.134.193-.164.193-.208 0-.045-.208-.09-.208-.09s-1.649-.341-1.649-.4c0-.06.951-.342 1.62-.595.044-.03.088-.074.133-.089.624-.163 1.693-.757 2.317-.89 1.945-.818 3.103-1.412 3.252-1.486.341-.163.356.178.356.178l-.015.104Zm-5.569 3.52c-.207.178-.4.356-.608.52a8.983 8.983 0 0 1-.624.49c-.208.163-.43.312-.654.46-.118.075-.222.149-.341.208a4.182 4.182 0 0 1-.357.193c.253-.089.49-.208.728-.341a5.21 5.21 0 0 0 .668-.446c.208-.163.431-.327.624-.52.104-.089.193-.193.297-.282.09-.089.178-.178.268-.282Z" fill="url(#pi-fps-b)"/><path d="M25.598 7.524c.015.09-.015.164-.074.164-.06-.876-.416-1.5-.446-1.56.075-.014.119.015.149.06.044.104.282.638.371 1.336Zm-.505-1.485c0-.133-.846-1.01-.936-1.04-.014 0-.03 0-.059.016.015.03.698.623.861.935.03.06.075.09.134.09Zm-1.351-1.306h-.06c.06.059.268.178.312.193.015 0-.148-.134-.252-.193Zm1.811 3.415c0 .03.03.06.06.06 0-.134.03-.283-.03-.387-.015 0-.03.015-.03.015v.312Zm3.802.386c-.03.164-.06.312-.104.46-.015.15-.104.372-.208.58a.446.446 0 0 1-.059.119c-.06.118-.104.208-.149.252-.059.119-.133.223-.163.253-.044.074-.089.133-.134.207-.014.03-.074 0-.059-.03.134-.296.193-.564.208-.801-.074.178-.282.371-.312.445-.015.06-.148.268-.163.268a1.155 1.155 0 0 0-.297.356c-.045.074-.208.163-.223.193-.03.045-.074.074-.149.09.03-.134.104-.134.149-.253.06-.104.104-.164.148-.282-.059 0-.133.178-.193.193-.059.03-.104-.015-.118-.015.03-.074.044-.164.089-.223.089-.074.223-.624.223-.668 0-.119.103-.43.133-.52.015-.06-.06-.267-.03-.416.015-.044-.044-.089-.074-.089-.06.015-.089.267-.089.327 0 0 0 .03-.015.06.015.059.03.088.03.103 0 .045-.015.164-.03.342-.03.178-.163.623-.282.772-.104.149-.074.09-.223.193-.148.104.134-.015-.193.149-.327.163-.371.222-.386.267-.015.044-.03-.163.06-.223 0-.015.014-.03.03-.045l.37-.965c.09-.356.12-.802.12-.817.073-.504-.224-1.574-.224-1.574s.179 1.144.075 1.664c-.03.297-.149 1.024-.55 1.648-.03.044-.326.49-.341.49-.134.06-.282.446-.357.43-.044-.059 0-.237.104-.296.075-.045.178-.134.178-.223 0-.03.134-.416.179-.46.044-.06.089-.253.03-.268-.045-.015-.09.015-.105.06-.03.089-.133.311-.163.311-.089.045-.134.12-.193.179-.03.03-.46.668-.535.668-.044 0-.282.178-.326.223-.03.044-.075.089-.12.133-.014.015-.088.015-.133.03-.015 0-.044 0-.044.015l.015-.015s.089-.089.163-.223l-.045.09c.015-.015.015-.03.03-.045v-.015c.015-.015.015-.044.03-.06v-.014c.015-.015.015-.045.03-.06v-.014c.014-.015.014-.045.03-.06.014-.015.014-.03.029-.06 0 0 0-.014.015-.014.044-.09.089-.178.119-.267.282-.594.386-.921.534-1.56.045-.208.119-1.024.119-1.128 0-.164 0-.253-.015-.312-.074-1.812-.876-2.881-1.812-3.49-.03-.015-.06-.03-.074-.045-.119-.074-.223-.148-.341-.208-.075-.044-.164-.059-.253-.089-.163-.06-.327-.133-.49-.208 0 0-.074-.03-.208-.074-.163-.044-.341-.089-.505-.134-.015 0-.03 0-.03-.014a5.634 5.634 0 0 0-.846-.09c-.624 0-1.322.045-1.99.164a.433.433 0 0 1-.134.03c-.089.014-.163.059-.252.074-.178.044-.342.074-.52.119 0 0-.074.014-.193.044-.015 0-.015 0-.03.015-.163.06-.312.119-.475.178-.015 0-.03.015-.045.015h-.014c-.49.178-.921.357-1.337.55-.03.014-.089.059-.104.059-.223.104-.43.238-.653.371l.727.238c-.133.06-1.277.416-2.079.609-.133.044-.252.104-.386.119 0-.015.045-.03.06-.045-.149.03-.268.06-.357.06-.044 0-.074 0-.089-.015-.089-.104 1.604-2.377 1.604-2.377l-.015.698s1.753-1.306 3.742-1.945c.03-.015.06-.015.09-.03.014 0 .03-.015.03-.015.192-.074.4-.148.608-.193a.24.24 0 0 0 .134-.044c.089-.045.4-.09.46-.09a11.53 11.53 0 0 1 2.555-.296c.089 0 .178-.015.282-.015h.104C22.969 2 22.999 2 23.014 2s.044 0 .074.015c.045 0 .075 0 .119.015.03-.015.045-.03.06-.03h.118c.12.03.253.06.371.074.06.015.12.015.164.015.208.03.416.06.624.134.044.015.089.03.148.03.104 0 .193.03.282.074.045.03.104.044.149.074a6.978 6.978 0 0 1 3.089 2.05s.06.074.163.207c.015.015.03.045.06.09l.014.014s0 .015.015.015c0 .015.015.03.03.03a5.21 5.21 0 0 1 .817 2.97c.074.312.074.505.044.757Zm-1.41-3.876c.267.282.52.61.727.98.045.09.104.164.149.253a4.129 4.129 0 0 0-.238-.594 3.79 3.79 0 0 0-.46-.698 4.952 4.952 0 0 0-.743-.743 4.817 4.817 0 0 0-1.277-.742c-.015 0 1.01.668 1.485 1.158.119.134.238.267.356.386ZM17.8 3.322c-.445.193-1.396.683-1.663.935.297-.163 1.307-.683 1.708-.846.95-.386 1.589-.61 1.916-.713-.58.09-1.411.386-1.96.624Z" fill="url(#pi-fps-c)"/><path d="M21.291 8.727h2.391l.52-.92h-2.54c-.564 0-1.039.133-1.44.37-.4.238-.742.625-1.054 1.16-.282.49-.372.86-.253 1.083.119.223.43.342.966.342h1.143c.252 0 .401.044.46.133.045.09.015.238-.104.446-.118.193-.252.342-.415.43-.164.09-.372.134-.654.134h-2.435l-.52.891h2.614c.55 0 1.024-.118 1.425-.356s.743-.609 1.04-1.129c.282-.505.386-.861.282-1.084-.104-.223-.416-.326-.95-.326h-1.278c-.207 0-.341-.045-.386-.134-.06-.09-.03-.223.074-.401a1.23 1.23 0 0 1 .46-.49c.18-.104.402-.149.654-.149ZM9.322 10.524c.371-.638.668-1.099.92-1.396.238-.297.505-.534.787-.727.283-.193.61-.342.951-.431a4.72 4.72 0 0 1 1.173-.134h1.485l-.505.862H12.56c-.416 0-.787.089-1.084.282-.297.193-.58.505-.832.92h2.777l-.49.877h-2.777l-1.173 2.05H8l1.322-2.303Z" fill="#575756"/><path fill-rule="evenodd" clip-rule="evenodd" d="M15.396 7.836h2.108c.357 0 .624.015.817.06.193.044.327.104.401.193a.711.711 0 0 1 .149.564c-.03.238-.134.505-.312.802-.178.297-.372.55-.58.772a3.197 3.197 0 0 1-.712.535 2.81 2.81 0 0 1-.668.252 4.927 4.927 0 0 1-.936.075H14.49l-.995 1.737h-.966l2.867-4.99Zm1.589.891h-1.129l-.847 1.47h1.189c.297 0 .549-.059.757-.178.208-.118.386-.312.535-.55.148-.266.193-.46.118-.563-.089-.12-.282-.179-.623-.179Z" fill="#575756"/></g><defs><linearGradient id="pi-fps-b" x1="9.046" y1="16.591" x2="28.15" y2="16.591" gradientUnits="userSpaceOnUse"><stop stop-color="#5BC4F1"/><stop offset=".128" stop-color="#56BBE9"/><stop offset=".337" stop-color="#47A3D3"/><stop offset=".6" stop-color="#307BAE"/><stop offset=".905" stop-color="#0F447D"/><stop offset="1" stop-color="#04326C"/></linearGradient><linearGradient id="pi-fps-c" x1="13.435" y1="6.964" x2="29.384" y2="6.964" gradientUnits="userSpaceOnUse"><stop stop-color="#04326C"/><stop offset=".128" stop-color="#093B74"/><stop offset=".337" stop-color="#18538A"/><stop offset=".6" stop-color="#2F7BAE"/><stop offset=".905" stop-color="#50B2E0"/><stop offset="1" stop-color="#5BC4F1"/></linearGradient><clipPath id="pi-fps-a"><path fill="#fff" d="M0 0h38v24H0z"/></clipPath></defs></svg>