<svg width="38" height="24" viewBox="0 0 38 24" fill="none" xmlns="http://www.w3.org/2000/svg" role="img" aria-labelledby="pi-free"><title id="pi-free">Free</title><g clip-path="url(#pi-free-clip0)"><path d="M35 .5H3A2.5 2.5 0 00.5 3v18A2.5 2.5 0 003 23.5h32a2.5 2.5 0 002.5-2.5V3A2.5 2.5 0 0035 .5z" stroke="#000" stroke-opacity=".07"/><g clip-path="url(#pi-free-clip1)"><path d="M1 1h36v22H1V1z" fill="#DC2226"/><path d="M15.329 6h.355l.403.046.26.069.19.091.142.115.095.137.023.092v.183l-.118.275-.19.23-.118.091-.237.115-.095.023h-.426l-.45-.092-.52-.115-.167-.022h-.45l-.473.091-.285.115-.236.137-.237.206-.213.276-.19.32-.26.527-.427.848-.094.23h2.084l.26.022.095.046.071.138-.024.137-.26.459-.142.16-.071.023-2.558.023-.237.412-.474.894-.213.367-.19.366-.26.482-.237.435-.308.573-.236.435-.332.62-.237.435-.355.641-.474.894-.237.435-.26.459-.071.069-.38.068-1.112.16h-.237l-.166-.137-.047-.069v-.183l.26-.55.19-.367.426-.87.379-.78.332-.664.307-.642.308-.619.308-.641.38-.756.307-.642.284-.573.119-.275H6.732l-.119-.115-.047-.068.024-.16.213-.436.142-.184.095-.022H8.72l.403-.023.047-.138.284-.458.26-.413.238-.298.213-.252.26-.275.213-.206.261-.206.308-.23.355-.229.45-.252.545-.275.521-.229.474-.16.355-.115.64-.137.781-.092zM24.518 10h.593l.639.069.355.091.285.138.189.183.071.207-.047.32-.119.23h-.047l-.047.091-.237.206-.332.184-.332.137-.639.207-.64.137-.876.138-.829.091-.852.069-.071.183-.024.321.071.138.19.137.236.092.427.069h.497l.592-.07.592-.137.403-.114.52-.207.427-.183.095-.046.118.023.213.115.095.114v.115l-.118.092-.64.32-.45.207-.497.183-.687.183-.616.115-.473.046h-.948l-.45-.069-.497-.16-.284-.16-.237-.207-.142-.23-.071-.16-.024-.114v-.39l.095-.298.19-.366.189-.252.213-.23.166-.16.26-.206.308-.207.497-.275.45-.206.593-.206.52-.138.664-.114.473-.046zM30.89 10h.568l.64.069.284.068.331.16.118.093.119.183.024.069v.206l-.095.275-.19.23-.19.16-.307.183-.379.16-.568.184-.38.091-1.041.184-.521.068-1.327.115-.07.206-.024.275.07.16.19.138.237.092.402.069h.593l.52-.07.711-.16.545-.183.308-.138.497-.206.119.023.236.16.048.046v.138l-.119.092-.331.183-.545.252-.64.252-.544.16-.663.138-.64.069h-.947l-.45-.069-.38-.115-.378-.183-.26-.23-.143-.228-.094-.252v-.39l.07-.275.19-.367.213-.298.213-.206.095-.114.19-.16.45-.322.592-.32.426-.184.545-.183.497-.138.498-.091.686-.069zM20.445 10l.331.023.213.069.142.114.072.184-.024.183-.095.252-.213.23-.284.137-.119.023h-.379l-.473-.023-.237.046-.308.114-.355.206-.308.252-.45.436-.119.16h-.047l-.047.092-.237.298-.284.39-.26.389-.285.504-.118.092-.19.023h-.64l-.284-.069-.142-.092-.07-.091.023-.138.592-1.031.308-.527.142-.23.426-.756.048-.137v-.092h-.237l-.38.092-.591.275-.26.16-.167-.023-.26-.183-.024-.114.119-.138.497-.32.403-.23.45-.23.544-.205.38-.092h.639l.26.092.119.068.095.138.023.16-.07.275-.19.367-.048.115.142-.092.38-.298.33-.23.427-.251.38-.184.236-.091.26-.07.214-.022z" fill="#FEFEFD"/><path d="M30.605 11h.355l.214.046.142.114-.024.207-.166.229-.213.16-.355.184-.64.206-.686.137-.806.092h-.142v-.069l.166-.16.166-.184.19-.16.307-.23.308-.182.403-.207.355-.114.426-.069zM24.305 11h.308l.237.046.118.091.024.16-.142.253-.19.16-.331.184-.355.137-.569.16-.379.07-.9.114h-.142l-.047-.046.118-.137h.048l.047-.092.166-.16.26-.207.356-.252.237-.137.402-.184.403-.114.331-.046z" fill="#DC2226"/></g></g><defs><clipPath id="pi-free-clip0"><path fill="#fff" d="M0 0h38v24H0z"/></clipPath><clipPath id="pi-free-clip1"><rect x="1" y="1" width="36" height="22" rx="2" fill="#fff"/></clipPath></defs></svg>