<svg xmlns="http://www.w3.org/2000/svg" role="img" viewBox="0 0 38 24" width="38" height="24" aria-labelledby="pi-futurepaymytab"><title id="pi-futurepaymytab">FuturePay MyTab</title><g clip-path="url(#pi-futurepaymytab-a)"><path opacity=".07" d="M35 0H3C1.3 0 0 1.3 0 3v18c0 1.7 1.4 3 3 3h32c1.7 0 3-1.3 3-3V3c0-1.7-1.4-3-3-3Z" fill="#000"/><path d="M35 1c1.1 0 2 .9 2 2v18c0 1.1-.9 2-2 2H3c-1.1 0-2-.9-2-2V3c0-1.1.9-2 2-2h32Z" fill="#fff"/><path d="M22.953 8.3h-2.018v6.648c0 .383-.085.667-.258.852a.857.857 0 0 1-.661.278.873.873 0 0 1-.673-.282c-.172-.187-.26-.469-.26-.848V8.3h-2.018c-.317 0-.551-.07-.704-.21a.721.721 0 0 1-.232-.556c0-.237.08-.424.24-.563.16-.138.392-.207.696-.207h5.888c.322 0 .558.07.715.214a.723.723 0 0 1 .234.556c0 .23-.08.416-.238.557-.158.138-.394.209-.71.209Z" fill="#293793"/><path d="M26.67 15.12c-.412.32-.81.559-1.193.719-.385.16-.817.239-1.293.239a2.45 2.45 0 0 1-1.151-.26 1.89 1.89 0 0 1-.764-.702 1.827 1.827 0 0 1-.268-.961c0-.467.147-.864.442-1.192.296-.33.702-.55 1.22-.664.106-.025.374-.08.801-.168.428-.087.796-.166 1.1-.24.305-.073.636-.16.994-.265-.021-.45-.11-.78-.27-.99-.162-.21-.492-.315-.996-.315-.432 0-.757.06-.974.181-.22.12-.407.3-.562.544a6.246 6.246 0 0 1-.33.477c-.066.077-.204.116-.414.116a.72.72 0 0 1-.496-.186.6.6 0 0 1-.209-.471c0-.3.107-.593.317-.877.213-.283.543-.515.992-.699.448-.183 1.008-.275 1.678-.275.747 0 1.336.09 1.764.267.427.177.73.456.906.84.177.383.266.89.266 1.524 0 .401-.002.74-.004 1.02l-.009.931c0 .32.053.655.16 1.002.106.346.157.57.157.67 0 .175-.08.335-.245.477a.834.834 0 0 1-.56.216c-.174 0-.346-.081-.516-.245-.17-.165-.351-.401-.543-.713Zm-.112-2.47c-.25.09-.61.189-1.087.29-.475.101-.804.178-.987.225a1.37 1.37 0 0 0-.524.282c-.166.14-.249.334-.249.586 0 .258.098.478.294.659.194.181.449.273.766.273.336 0 .647-.075.93-.222.284-.15.493-.34.627-.574.153-.258.23-.684.23-1.277v-.243ZM30.95 7.585v2.606c.32-.335.647-.59.979-.768.332-.177.744-.266 1.234-.266.566 0 1.061.134 1.487.403.425.268.755.659.989 1.168.236.51.353 1.115.353 1.815 0 .516-.066.989-.196 1.42a3.4 3.4 0 0 1-.57 1.121c-.249.318-.553.561-.908.734a2.65 2.65 0 0 1-1.174.26c-.262 0-.509-.032-.739-.094a2.14 2.14 0 0 1-.589-.247c-.162-.1-.3-.207-.415-.316a6.9 6.9 0 0 1-.45-.486v.168c0 .32-.077.563-.23.727a.775.775 0 0 1-.588.248.73.73 0 0 1-.576-.248c-.143-.164-.215-.407-.215-.727V7.66c0-.345.07-.608.208-.785.14-.177.334-.264.583-.264.262 0 .464.085.605.254.142.168.212.409.212.72Zm.081 5.066c0 .678.155 1.199.464 1.563.31.365.715.546 1.217.546.427 0 .797-.185 1.106-.559.308-.373.464-.906.464-1.6 0-.449-.064-.837-.194-1.16a1.686 1.686 0 0 0-.547-.753 1.348 1.348 0 0 0-.83-.265c-.323 0-.61.088-.863.265a1.758 1.758 0 0 0-.598.767c-.147.335-.219.734-.219 1.196Z" fill="#293793"/><path d="M5.156 14.543 3.69 8.709v6.32c0 .35-.079.612-.234.786a.786.786 0 0 1-.617.263.79.79 0 0 1-.61-.26c-.158-.173-.237-.435-.237-.79V7.785c0-.401.105-.67.311-.81.208-.14.49-.21.84-.21h.575c.344 0 .593.032.748.094a.631.631 0 0 1 .347.337c.075.162.16.427.256.793l1.327 5.02 1.327-5.02c.096-.366.181-.63.256-.793a.628.628 0 0 1 .344-.337c.156-.062.407-.094.751-.094h.573c.353 0 .633.07.842.21.206.14.31.409.31.81v7.245c0 .35-.078.612-.233.786a.793.793 0 0 1-.624.263.777.777 0 0 1-.604-.263c-.157-.174-.236-.437-.236-.786v-6.32l-1.466 5.834c-.095.377-.172.656-.234.833-.06.175-.17.337-.332.482-.163.147-.387.22-.674.22-.217 0-.4-.047-.549-.141a1.02 1.02 0 0 1-.349-.358 2.04 2.04 0 0 1-.195-.484 33.117 33.117 0 0 1-.147-.553ZM13.829 16.293l.157-.381-2.093-5.286c-.13-.305-.193-.527-.193-.663a.79.79 0 0 1 .112-.408.83.83 0 0 1 .309-.298.807.807 0 0 1 .406-.113c.247 0 .432.079.555.234.126.156.234.38.33.672l1.44 4.198 1.364-3.904a6.77 6.77 0 0 1 .293-.744c.088-.179.18-.3.277-.362.098-.062.236-.094.415-.094a.75.75 0 0 1 .74.75 7.382 7.382 0 0 1-.08.337 5.487 5.487 0 0 1-.137.444l-2.219 5.823c-.191.514-.378.914-.56 1.207a1.839 1.839 0 0 1-.727.671c-.3.156-.706.235-1.216.235-.498 0-.873-.053-1.122-.162-.249-.109-.374-.307-.374-.593 0-.196.06-.348.179-.452.117-.107.293-.16.525-.16.091 0 .18.013.268.036.109.026.202.039.281.039.196 0 .349-.03.46-.088a.803.803 0 0 0 .302-.303c.089-.145.193-.356.308-.635Z" fill="#409ADB"/></g><defs><clipPath id="pi-futurepaymytab-a"><path fill="#fff" d="M0 0h38v24H0z"/></clipPath></defs></svg>