<svg xmlns="http://www.w3.org/2000/svg" role="img" viewBox="0 0 38 24" width="38" height="24" fill="none" aria-labelledby="pi-generic"><title id="pi-generic">Generic</title><g clip-path="url(#pi-generic)"><rect width="38" height="24" rx="3" fill="#F5F5F5" /><rect x=".5" y=".5" width="37" height="23" rx="2.5" stroke="#000" stroke-opacity=".07" /><path d="M37 4H1v3h36V4ZM4 19a1 1 0 0 1 1-1h9a1 1 0 1 1 0 2H5a1 1 0 0 1-1-1ZM29 19a1 1 0 0 1 1-1h3a1 1 0 1 1 0 2h-3a1 1 0 0 1-1-1Z" fill="#707070" /></g><defs><clipPath id="pi-generic"><path fill="#fff" d="M0 0h38v24H0z"/></clipPath></defs></svg>