<svg xmlns="http://www.w3.org/2000/svg" role="img" viewBox="0 0 38 24" width="38" height="24" aria-labelledby="pi-generalfinancing"><title id="pi-generalfinancing">General financing</title><path d="M35 0H3C1.3 0 0 1.3 0 3v18c0 1.7 1.4 3 3 3h32c1.7 0 3-1.3 3-3V3c0-1.7-1.4-3-3-3z" fill-opacity=".07" fill-rule="nonzero"/><path d="M35 1c1.1 0 2 .9 2 2v18c0 1.1-.9 2-2 2H3c-1.1 0-2-.9-2-2V3c0-1.1.9-2 2-2h32" fill="#fff" fill-rule="nonzero"/><path d="M52.807 420.462v1.143l.002.017v.166l.001.017v.036l.001.014v.15l.001.009v.106l.001.018v.017l.002.015v.085c.363 24.284 20.571 43.6 44.858 43.6h7.94l.774-.003c7.312-.035 12.746-1.761 16.149-5.128 3.436-3.399 5.179-8.81 5.179-16.079v-5.319a25.422 25.422 0 01-8.84 7.054c-4.191 2.038-8.895 3.07-13.981 3.07-5.784 0-11.117-1.287-15.852-3.834-4.745-2.547-8.527-6.169-11.237-10.765-2.707-4.589-4.08-9.853-4.08-15.649 0-5.794 1.374-11.038 4.081-15.592 2.709-4.552 6.471-8.134 11.182-10.648 4.698-2.505 10.05-3.776 15.906-3.776 5.24 0 10.043 1.073 14.277 3.19 3.512 1.757 6.494 4.187 8.889 7.244v-9.974h9.384v53.962c0 10.452-2.615 18.324-7.773 23.405-5.154 5.076-12.988 7.648-23.281 7.648H81.14c-2.916 0-4.329 3.598-2.174 5.561 14.375 13.093 33.536 21.024 54.553 20.852 43.403-.358 78.918-35.794 79.365-79.196a81.003 81.003 0 00-.505-9.914c-2.536-22.466-21.826-39.296-44.436-39.296l-.763.013c-3.134.059-5.524.94-7.103 2.619-1.655 1.762-2.493 4.449-2.493 7.986v6.36h18.648v8.462h-18.419v53.646h-9.728v-68.811c0-5.715 1.683-10.315 5.001-13.671 3.32-3.362 8.057-5.067 14.08-5.067h13.638c3.035 0 4.359-3.822 1.986-5.718-13.57-10.851-30.75-17.38-49.451-17.492-43.186-.261-80.006 35.868-80.527 79.05l-.001.014v.156l-.001.005v.034l-.001.013v.182l-.002.013z" fill="url(#pi-generalfinancing_Linear1)" fill-rule="nonzero" transform="translate(10.44 -15.127) scale(.06443)"/><path d="M117.247 404.063c-3.365-1.811-7.251-2.728-11.547-2.728-4.227 0-8.073.899-11.436 2.674-3.343 1.762-5.989 4.295-7.864 7.529-1.878 3.242-2.83 6.984-2.83 11.121 0 4.139.952 7.882 2.83 11.123 1.874 3.236 4.522 5.79 7.87 7.589 3.358 1.812 7.203 2.73 11.43 2.73 4.227 0 8.093-.918 11.492-2.73 3.384-1.804 6.05-4.356 7.923-7.589 1.878-3.241 2.83-6.984 2.83-11.123 0-4.137-.951-7.859-2.827-11.062-1.875-3.195-4.522-5.73-7.871-7.534z" fill="url(#pi-generalfinancing_Linear2)" fill-rule="nonzero" transform="translate(10.44 -15.35) scale(.06443)"/><defs><linearGradient id="pi-generalfinancing_Linear1" x1="0" y1="0" x2="1" y2="0" gradientUnits="userSpaceOnUse" gradientTransform="matrix(113.04 112.22 -112.22 113.04 75.94 365)"><stop offset="0" stop-color="#e31c41" stop-opacity="1"/><stop offset="1" stop-color="#56316f" stop-opacity="1"/></linearGradient><linearGradient id="pi-generalfinancing_Linear2" x1="0" y1="0" x2="1" y2="0" gradientUnits="userSpaceOnUse" gradientTransform="rotate(45.005 -416.233 240.134) scale(166.76)"><stop offset="0" stop-color="#e31c41" stop-opacity="1"/><stop offset="1" stop-color="#56316f" stop-opacity="1"/></linearGradient></defs></svg>