<svg width="38" height="24" viewBox="0 0 38 24" fill="none" xmlns="http://www.w3.org/2000/svg" role="img" aria-labelledby="pi-genericbank"><title id="pi-genericbank">Generic bank</title><g clip-path="url(#clip0_10302_213976)"><path opacity=".07" d="M35 0H3C1.3 0 0 1.3 0 3v18c0 1.7 1.4 3 3 3h32c1.7 0 3-1.3 3-3V3c0-1.7-1.4-3-3-3z" fill="#000"/><path d="M35 1c1.1 0 2 .9 2 2v18c0 1.1-.9 2-2 2H3c-1.1 0-2-.9-2-2V3c0-1.1.9-2 2-2h32z" fill="#fff"/><path fill-rule="evenodd" clip-rule="evenodd" d="M19.54 5.177a1.25 1.25 0 00-1.08 0l-5.25 2.51a1.25 1.25 0 00-.71 1.128V10c0 .69.56 1.25 1.25 1.25V14h-.25a1 1 0 00-1 1v2a1 1 0 001 1h11a1 1 0 001-1v-2a1 1 0 00-1-1h-.25v-2.75c.69 0 1.25-.56 1.25-1.25V8.815c0-.481-.276-.92-.71-1.128l-5.25-2.51zM22.75 14v-2.75h-1.5V14h1.5zm-3 0v-2.75h-1.5V14h1.5zm-3 0v-2.75h-1.5V14h1.5zM14 8.973l5-2.392 5 2.392v.777H14v-.777zm0 7.527v-1h10v1H14z" fill="#4A4A4A"/></g><defs><clipPath id="pi-genericbank-clip0_10302_213976"><path fill="#fff" d="M0 0h38v24H0z"/></clipPath></defs></svg>