<svg width="38" height="24" viewBox="0 0 38 24" fill="none" xmlns="http://www.w3.org/2000/svg" role="img" aria-labelledby="pi-genie"><title id="pi-genie">Genie</title><g clip-path="url(#pi-genie-clip)"><path d="M35 .5H3A2.5 2.5 0 00.5 3v18A2.5 2.5 0 003 23.5h32a2.5 2.5 0 002.5-2.5V3A2.5 2.5 0 0035 .5z" stroke="#000" stroke-opacity=".07"/><rect x="1" y="1" width="36" height="22" rx="2" fill="#fff"/><path d="M15.755 3.085h.38l.307.092.403.206.52.298.546.298.568.321.521.275h.118l.332-.183.379-.207 1.16-.664.498-.275.308-.138.118-.023h.38l.26.092.213.183.142.23.095.275v5.98l-.095.299-.142.206-.166.138-.213.068-.237.023-.26-.046-.285-.114-.473-.252-.308-.184-.569-.32-.663-.39-.497-.275-.119.023-.26.137-.498.275-.355.207-.52.298-.617.343-.331.184-.355.114h-.356l-.237-.091-.165-.138-.143-.206-.094-.321V3.956l.095-.366.118-.207.118-.114.213-.138.166-.046z" fill="#FE2B0C"/><path d="M10.379 12.16h.071v5.73l-.071.572-.142.55-.19.413-.237.344-.236.252-.285.206-.378.206-.45.16-.38.092-.663.092H6.4l-.45-.069-.332-.068-.568-.184-.26-.114-.19-.115-.095-.137-.023-.07v-1.237l.142.023.402.184.64.206.473.091.19.023h.782l.497-.114.403-.206.189-.184.213-.32.119-.367.047-.527.024-.413-.19.16-.284.276-.308.206-.379.183-.308.092-.284.046-.284.023h-.284l-.403-.046-.403-.092-.426-.183-.26-.138-.237-.183-.166-.138-.213-.252-.214-.275-.189-.366-.118-.298-.119-.504-.023-.16v-.78l.118-.527.166-.436.213-.366.26-.321.237-.23.38-.274.402-.206.355-.115.355-.069h.83l.378.069.38.137.33.184.332.252.19.183.07.092h.048l.024-.344.095-.16.165-.115.498-.137 1.042-.207z" fill="#FD7104"/><path d="M14.121 12.23h.805l.474.09.403.138.379.184.308.206.307.275.213.252.214.344.19.39.141.435.119.573.047.504v.458l-.024.138h-4.57l.165.435.119.206.213.23.236.16.332.16.379.092h.687l.592-.092.355-.091.474-.16.308-.138.118-.023.024.046v1.122l-.047.207-.119.137-.331.184-.498.183-.379.092-.71.091h-.735l-.497-.069-.497-.137-.427-.183-.331-.207-.237-.183-.284-.275-.071-.091v-.046h-.048l-.26-.413-.166-.344-.166-.527-.094-.595V15.3l.07-.481.143-.527.19-.436.212-.344.237-.298.332-.32.379-.252.355-.184.426-.137.332-.069.213-.023zM30.795 12.23h.829l.402.068.38.114.378.16.308.184.213.16.213.184.19.23.26.389.19.412.118.344.095.435.071.55v.734l-.024.023-4.547.023.047.183.119.275.166.252.165.16.26.16.262.115.307.092.119.023h.687l.592-.092.497-.137.592-.23.166-.045v1.26l-.071.16-.119.115-.236.138-.474.183-.592.137-.521.07h-.758l-.426-.047-.38-.091-.402-.138-.331-.16-.261-.16-.26-.23-.308-.298-.166-.229-.237-.412-.166-.436-.118-.481-.048-.275v-.87l.095-.55.118-.413.19-.413.142-.252.19-.252.213-.23.142-.16.355-.252.403-.229.308-.114.378-.092.285-.046z" fill="#FD2E0D"/><path d="M20.042 12.23h.095l.023 1.008.261-.321.308-.252.308-.184.379-.16.26-.069.19-.023h.45l.568.092.45.183.26.16.285.253.213.297.142.298.119.367.07.39.024.229.024 1.283V18.6l-.024.16-.023.023H22.6l-.024-.023-.023-3.758-.071-.344-.119-.275-.142-.183-.19-.16-.284-.115-.355-.046-.237.023-.308.115-.237.183-.142.16-.189.344-.095.344-.024.114-.023 2.27v1.328l-.024.023H18.29l-.024-2.223v-3.506l.047-.252.142-.183.285-.115.402-.091.758-.161.142-.023z" fill="#FD7104"/><path d="M10.379 15.323h.024l.023 2.36-.047.573-.095.596-.095.275-.189.367-.19.275-.236.252-.285.206-.378.206-.45.16-.38.092-.663.092H6.4l-.45-.069-.332-.068-.568-.184-.26-.114-.19-.115-.095-.137-.023-.07v-1.237l.142.023.402.183.64.207.473.091.19.023h.782l.497-.114.403-.207.189-.183.213-.32.119-.367.047-.527.024-.413-.19.16-.284.276-.308.206-.379.183-.308.092-.284.046-.284.023h-.284l-.403-.046-.403-.092-.426-.183-.26-.138-.237-.183-.166-.138-.213-.252-.213-.275-.214-.412v-.23l.119-.022.047.046v.068h.119l.094-.275.095-.046h.166l.095-.023h.426l.19.092v.138h.047l.07.137h.048l.024-.16-.048-.115.095-.092-.023-.114.07-.137h.048l.024.114H5.5l.142.252.213.23.166.137.284.137.213.069.143.023h.568l.426-.069.048-.046.165-.068.119-.07h.047v-.045l.119-.114.07-.024.024-.045.024.091-.047.115h-.048v.046h.048l.165-.298.024-.023h.142l.071.023.285-.046.023-.046.19-.046.308-.023.19-.023.117.024.024.045.213.023.071.069.071.023v-.046l.119-.046h.095l.023.046.024-.78z" fill="#FD2E0D"/><path d="M21.913 3.085h.38l.26.092.213.183.142.23.095.275v5.98l-.095.299-.142.206-.166.138-.213.068-.237.023-.26-.046-.285-.114-.473-.252-.308-.184-.569-.32-.663-.39-.497-.275-.19.023.119-.092.379-.183.402-.23.308-.183.38-.229.33-.183.285-.16h.047v-.046l.213-.092.285-.275.165-.23.072-.205.023-.184-.07-.275-.167-.252-.094-.092v-.045l-.095-.046-.095-.092-.19-.114-.33-.16v-.047l-.096-.023-.379-.183-.568-.344-.355-.183-.285-.16-.213-.092-.023-.046h.165l.332-.183.379-.207 1.16-.664.498-.275.308-.138.118-.023z" fill="#F89D2D"/><path d="M30.795 12.23h.829l.402.068.38.114.378.16.308.184.213.16.213.184.19.23.26.389.19.412.118.344.095.435.071.55v.734h-.024l-.023-.642-.024-.275-.071-.023v.046h-.047v.046l-.237.046-.119-.046-.023.046-.095-.138-.095-.023h-.237l-.26.069-.237-.023-.095-.023-.118-.046-.095-.023v.023l-.19.023h-2.7l-.118.115-.19-.023-.165-.023h-.592l-.071.023-.048.091-.19.092h-.117l-.048-.183-.07-.023-.048.092h-.048v.458h-.023l-.024.252h-.024v-.87l.095-.55.118-.413.19-.413.142-.252.19-.252.213-.23.142-.16.355-.252.403-.229.308-.114.378-.092.285-.046zM14.121 12.23h.805l.474.09.403.138.379.184.308.206.307.275.213.252.214.344.19.39.141.435.119.573.023.16v.275h-.023l-.071-.504-.048-.206-.07.275-.072.16-.047.092-.095-.023-.213-.069-.26-.023-.024-.023h-.213l-.19.023-.237-.023-.118-.252-.048-.023-.023.184-.024.022-.426.023-1.871.023-.521.023-.048-.023-.047.115-.047.046-.166-.023-.332-.069-.07-.023-.238.046-.118-.023-.213.069-.071.069-.166.045-.119-.023h-.07l-.095.367v.344l.07.412-.023.092-.071-.32-.047-.345V15.3l.07-.481.143-.527.19-.436.212-.344.237-.298.332-.32.379-.252.355-.184.426-.137.332-.069.213-.023z" fill="#FD7104"/><path d="M27.053 12.206h.047l.024 6.417-.048.16-1.54.023-.212-.023V12.94l.07-.184.167-.16.284-.115 1.137-.252.07-.023z" fill="#FD2B0D"/><path d="M6.708 13.627h.403l.355.069.284.114.213.138.19.183.19.298.118.298.047.252v.39l-.095.344-.19.366-.118.16h-.047l-.047.092-.308.207-.38.137-.094.023h-.568l-.285-.069-.213-.091-.237-.138-.26-.252-.19-.32-.094-.299-.024-.114v-.459l.095-.366.165-.321.214-.23.213-.183.379-.183.284-.046z" fill="#FDFDFD"/><path d="M18.337 14.865h.095l.094.252.119.091v.16l.166-.114h.07l.048-.091.213-.115h.047v-.046h.048v.046l.213.023v.046l.213.045.142.046.119-.046.142.023v.573h.024l.023 2.407.024.435v.16l-.024.023H18.29l-.024-1.902.024-.71.023-1.284.024-.022zM23.429 15.07l.142.024.166.023.118.023.166.091.024.046.19.023.023-.092.095-.023v-.114l.07.023.024 3.437.024.069-.024.16-.023.023H22.6v-2.498l.024-.297.023-.046v-.71l.048-.092.094.022.048.092v.069h.142l.166-.092.118-.114.166-.046z" fill="#FD2B0D"/><path d="M27.053 12.206h.047l.024 6.417-.048-.069-.023-2.566-.024-.252-.024-.092v-.321h-.26v-.046l-.071.023-.119-.069-.047-.069-.142-.045h-.308l-.142.091h-.048v.046l-.118.046-.166-.023-.095-.137-.094-.023v.366h-.024l-.024 3.117h-.023v-5.66l.07-.184.167-.16.284-.115 1.137-.252.07-.023z" fill="#FE7104"/><path d="M14.334 13.627h.308l.355.069.308.16.213.184.19.298.118.297.095.413v.092h-2.795l-.023-.023.023-.23.119-.343.142-.275.237-.298.284-.206.308-.115.118-.023zM31.197 13.627l.308.023.308.092.237.137.213.184.166.252.142.39.071.32-.024.115h-2.747l-.024-.023v-.16l.095-.322.19-.366.165-.23.166-.16.332-.183.165-.046.237-.023z" fill="#FDFDFD"/></g><defs><clipPath id="pi-genie-clip"><path fill="#fff" d="M0 0h38v24H0z"/></clipPath></defs></svg>