<svg xmlns="http://www.w3.org/2000/svg" role="img" viewBox="0 0 38 24" width="38" height="24" aria-labelledby="pi-genoapay"> <title id="pi-genoapay">Genoapay</title> <path d="M35 0H3a2.946 2.946 0 00-3 3v18a3.009 3.009 0 003 3h32a2.946 2.946 0 003-3V3a3.009 3.009 0 00-3-3z" style="isolation:isolate" opacity=".07" /> <path d="M35 1a2.006 2.006 0 012 2v18a2.006 2.006 0 01-2 2H3a2.006 2.006 0 01-2-2V3a2.006 2.006 0 012-2h32" fill="#fff" /> <path d="M22.613 17.937a2.325 2.325 0 10-2.324-2.325 2.324 2.324 0 002.324 2.325zm0 .873a3.2 3.2 0 113.2-3.2 3.2 3.2 0 01-3.2 3.2zm-.009-8.1a2.325 2.325 0 10-2.325-2.325 2.326 2.326 0 002.321 2.327zm0 .872a3.2 3.2 0 113.2-3.2 3.2 3.2 0 01-3.2 3.2zm-7.217 6.345a2.326 2.326 0 10-2.324-2.327 2.326 2.326 0 002.324 2.329zm0 .872a3.2 3.2 0 113.2-3.2 3.2 3.2 0 01-3.2 3.2z" fill="#00ab8e" /></svg>