<svg xmlns="http://www.w3.org/2000/svg" role="img" viewBox="0 0 38 24" width="38" height="24" aria-labelledby="pi-gezondheidsbonpaynlversion"><title id="pi-gezondheidsbonpaynlversion">GezondheidsBon (PAY. version)</title><path d="M35 0H3C1.3 0 0 1.3 0 3v18c0 1.7 1.4 3 3 3h32c1.7 0 3-1.3 3-3V3c0-1.7-1.4-3-3-3z" fill="#000" fill-rule="nonzero" opacity=".07" vector-effect="non-scaling-stroke"/><path d="M35 .9c1.1 0 2 .9 2 2v18c0 1.1-.9 2-2 2H3c-1.1 0-2-.9-2-2v-18c0-1.1.9-2 2-2h32" fill="#fff" fill-rule="nonzero" vector-effect="non-scaling-stroke"/><path d="M18.29 4.89a.826.826 0 01-.832.832c-.465 0-.833-.367-.833-.832s.368-.833.833-.833c0 0 0 0 0 0 .465 0 .833.368.833.833zM16.038 8.954a.49.49 0 11-.49-.49c.27 0 .49.221.49.49zM21.155 6.359c0 .147-.122.27-.269.27s-.27-.123-.27-.27.123-.27.27-.27.27.123.27.27h0z" fill="#FCC200" stroke="null"/><path d="M15.18 6.212c0 .49-.391.882-.905.882a.878.878 0 01-.882-.882c0-.49.392-.881.882-.881.514-.025.906.367.906.881 0 0 0 0 0 0z" fill="#FFEC00" stroke="null"/><path d="M17.189 6.58c0 .416-.343.758-.76.758s-.758-.342-.758-.759c0-.416.342-.759.759-.759s.759.343.759.76h0zM22.037 5.233a.71.71 0 11-.71-.71s0 0 0 0c.392-.025.71.293.71.71zM25.171 9.787c0 .27-.22.514-.514.514a.517.517 0 01-.514-.514c0-.27.22-.514.514-.514.27 0 .514.22.514.514 0 0 0 0 0 0z" fill="#EA5B25" stroke="null"/><path d="M25.049 7.363c0 .343-.27.612-.612.612s-.613-.27-.613-.612.27-.612.613-.612.612.294.612.612z" fill="#AF182B" stroke="null"/><path d="M23.555 8.097a.658.658 0 01-.661.662.658.658 0 01-.661-.662c0-.367.294-.66.661-.66s.661.293.661.66h0zM12.414 8.759c0 .367-.294.66-.661.66s-.661-.293-.661-.66.293-.662.66-.662h0c.368.025.662.319.662.662z" fill="#D41317" stroke="null"/><path d="M20.543 7.02a.71.71 0 11-1.42 0 .71.71 0 011.42 0h0z" fill="#802E4E" stroke="null"/><path d="M24.535 8.465c0 .147-.123.27-.27.27s-.27-.123-.27-.27c0-.147.123-.27.27-.27 0 0 0 0 0 0 .147.025.27.123.27.27zM15.548 7.632a.36.36 0 01-.367.368.36.36 0 01-.368-.368c0-.196.172-.367.368-.367.196-.025.367.147.367.367z" fill="#822376" stroke="null"/><path d="M19.417 5.87c0 .146-.122.269-.27.244-.146 0-.269-.122-.244-.27 0-.146.122-.244.27-.244.122 0 .244.122.244.27 0 0 0 0 0 0z" fill="#BDE2F1" stroke="null"/><path d="M17.14 8.024c0 .245-.22.465-.466.465a.482.482 0 01-.465-.465c0-.245.22-.465.465-.465a.45.45 0 01.466.465s0 0 0 0z" fill="#2E276C" stroke="null"/><path d="M20.568 8.71a.49.49 0 11-.49-.49c.27 0 .49.196.49.49zM18.535 6.53a.517.517 0 01-.514.515.517.517 0 01-.514-.515c0-.294.22-.514.514-.514.294-.024.514.22.514.514zM13.614 9.787a.49.49 0 11-.49-.49c.27 0 .49.22.49.49z" fill="#006EAA" stroke="null"/><path d="M23.678 6.065c0 .343-.27.588-.613.588-.342 0-.587-.27-.587-.612s.27-.588.612-.588h0c.318.024.588.294.588.612z" fill="#4F5692" stroke="null"/><path d="M13.026 7.338c-.024.27-.245.49-.514.466s-.49-.245-.465-.515c0-.244.22-.465.465-.465.27 0 .49.196.514.465v.05z" fill="#56256C" stroke="null"/><path d="M21.743 8.416c0 .196-.171.367-.367.367s-.367-.171-.367-.367.17-.368.367-.368.367.172.367.368zM26.42 9.934a.377.377 0 01-.367.367c-.196 0-.368-.171-.368-.367s.172-.367.368-.367c0 0 0 0 0 0a.36.36 0 01.367.367z" fill="#BDE2F1" stroke="null"/><path d="M20.127 4.62c0 .319-.27.588-.588.588s-.587-.27-.587-.588c0-.318.27-.587.587-.587h0c.319 0 .588.27.588.587z" fill="#2E276C" stroke="null"/><path d="M19.05 8.17a.632.632 0 01-.637.638.632.632 0 01-.637-.637c0-.367.294-.637.637-.637 0 0 0 0 0 0 .343 0 .637.27.637.637z" fill="#009EE2" stroke="null"/><path d="M14.446 8.293a.658.658 0 01-.66.661.658.658 0 01-.662-.66c0-.368.294-.662.661-.662 0 0 0 0 0 0 .367 0 .661.294.661.661zM21.964 7.143c0 .22-.172.416-.417.416-.22 0-.416-.172-.416-.417s.171-.416.416-.416h0a.43.43 0 01.417.417s0 0 0 0z" fill="#AEC90B" stroke="null"/><path d="M16.087 4.988c0 .269-.22.465-.465.465s-.466-.22-.466-.465c0-.27.22-.466.466-.466h0c.244 0 .465.22.465.466z" fill="#007841" stroke="null"/><path d="M17.948 9.42c0 .294-.245.538-.539.538s-.539-.244-.539-.538.245-.539.54-.539c0 0 0 0 0 0 .293 0 .538.245.538.539 0 0 0 0 0 0z" fill="#AF182B" stroke="null"/><path d="M19.319 9.836c0 .245-.196.465-.465.465s-.465-.196-.465-.465c0-.245.195-.465.465-.465h0a.45.45 0 01.465.465z" fill="#EA5B25" stroke="null"/><path d="M22.453 9.2a.283.283 0 01-.294.293.283.283 0 01-.293-.294c0-.171.122-.293.293-.293h0c.172 0 .294.122.294.293z" fill="#FFED00" stroke="null"/><path d="M23.873 9.2c0 .146-.122.269-.269.269a.272.272 0 01-.27-.27c0-.147.123-.269.27-.269 0 0 0 0 0 0 .147-.024.27.098.27.27h0zM21.645 9.787a.49.49 0 11-.49-.49c.27 0 .49.22.49.49z" fill="#007841" stroke="null"/><path d="M23.114 9.983a.324.324 0 01-.318.318.324.324 0 01-.318-.318c0-.171.147-.318.318-.318s.318.122.318.318h0z" fill="#2E276C" stroke="null"/><path d="M15.01 9.86a.43.43 0 01-.417.417.43.43 0 01-.416-.417c0-.22.196-.416.416-.416s.416.196.416.416c0 0 0 0 0 0z" fill="#BDE2F1" stroke="null"/><path d="M16.503 10.007c0 .172-.122.294-.294.294s-.294-.122-.294-.294c0-.171.123-.293.294-.293s.294.122.294.293h0z" fill="#AEC90B" stroke="null"/><path d="M11.116 10.032c0 .147-.122.27-.27.27s-.269-.123-.269-.27c0-.147.123-.27.27-.27 0 0 0 0 0 0 .147 0 .27.123.27.27zM25.881 8.563a.271.271 0 01-.269.318.271.271 0 01-.318-.27v-.048c.024-.172.171-.294.318-.27.147 0 .245.123.27.27zM20.519 15.541c0 .441-.367.808-.808.808s-.808-.367-.808-.808c0-.44.367-.808.808-.808.44 0 .808.368.808.808 0 0 0 0 0 0z" fill="#FCC200" stroke="null"/><path d="M17.556 19.239c0 .416-.343.759-.76.759-.415 0-.758-.343-.758-.76s.343-.758.759-.758h.024c.417.024.735.342.735.759z" fill="#FFEC00" stroke="null"/><path d="M21.278 18.578c0 .171-.147.318-.318.318s-.319-.147-.319-.318c0-.172.147-.319.319-.319.171 0 .318.147.318.319h0zM16.283 17.892c0 .22-.172.367-.392.367s-.367-.171-.367-.391.171-.368.367-.368.392.196.392.392h0zM25.27 16.717a.684.684 0 11-1.371 0c-.001-.368.293-.686.685-.686 0 0 0 0 0 0 .367.025.685.318.685.686z" fill="#EA5B25" stroke="null"/><circle cx="22.11" cy="17.721" r=".539" fill="#009EE2" stroke="null"/><path d="M13.1 14.954c0 .44-.343.783-.76.783a.768.768 0 01-.783-.759c0-.44.343-.783.759-.783 0 0 0 0 0 0a.753.753 0 01.783.759z" fill="#D41317" stroke="null"/><path d="M21.327 17.108c0 .319-.27.588-.588.588s-.587-.27-.587-.588.269-.587.587-.587.588.27.588.587h0z" fill="#2E276C" stroke="null"/><path d="M23.824 17.427a.335.335 0 01-.342.343.335.335 0 01-.343-.343c0-.196.147-.343.343-.343s.342.147.342.343c0 0 0 0 0 0z" fill="#D41317" stroke="null"/><path d="M18.707 16.3c0 .294-.22.515-.514.515s-.515-.22-.515-.515.22-.514.515-.514c0 0 0 0 0 0 .269-.024.514.22.514.514z" fill="#AF182B" stroke="null"/><path d="M17.58 15.027c0 .465-.367.857-.857.857s-.857-.367-.857-.857c0-.465.368-.857.857-.857 0 0 0 0 0 0 .466 0 .857.367.857.857zM15.793 19.165c0 .294-.245.539-.539.539s-.538-.245-.538-.539.244-.538.538-.538c0 0 0 0 0 0 .294 0 .539.244.539.538h0z" fill="#802E4E" stroke="null"/><path d="M20.862 19.606c0 .367-.294.661-.661.661s-.662-.294-.662-.66c0-.368.294-.662.662-.662h0c.367-.025.66.27.66.661 0-.024 0-.024 0 0zM21.45 15.688c-.025.172-.148.27-.319.27a.312.312 0 01-.27-.27c-.024-.171.099-.294.27-.318.171-.025.294.098.318.27v.048zM13.908 15.884c0 .22-.172.392-.368.392-.22 0-.392-.171-.392-.367s.172-.392.368-.392c0 0 0 0 0 0 .22 0 .391.147.391.367h0z" fill="#822376" stroke="null"/><path d="M15.058 14.66a.49.49 0 11-.49-.49c.27 0 .49.22.49.49z" fill="#2E276C" stroke="null"/><path d="M19.025 19.85c0 .32-.27.589-.588.589s-.587-.27-.587-.588.27-.588.587-.588.588.245.588.588h0zM17.825 17.525c0 .294-.245.538-.538.538s-.54-.244-.54-.538c0-.294.246-.539.54-.539 0 0 0 0 0 0 .293-.024.538.22.538.539 0 0 0 0 0 0z" fill="#006EAA" stroke="null"/><path d="M22.453 19.14a.49.49 0 11-.49-.49c.27.001.49.221.49.49z" fill="#4F5692" stroke="null"/><path d="M14.642 17.819c0 .49-.392.881-.881.881s-.882-.392-.882-.881c0-.49.392-.882.882-.882 0 0 0 0 0 0 .49 0 .881.392.881.882zM23.678 15.835c0 .49-.392.906-.906.906a.904.904 0 01-.906-.906c0-.49.391-.906.906-.906 0 0 0 0 0 0 .514 0 .906.392.906.906z" fill="#56256C" stroke="null"/><circle cx="10.822" cy="14.39" r=".245" fill="#BDE2F1" stroke="null"/><path d="M19.858 17.941c0 .44-.343.808-.784.808s-.808-.343-.808-.784.343-.808.784-.808c0 0 0 0 0 0a.78.78 0 01.808.784z" fill="#BDE2F1" stroke="null"/><path d="M24.633 15.15a.283.283 0 01-.294.293c-.172 0-.294-.122-.294-.293s.122-.294.294-.294c.147 0 .294.147.294.294h0z" fill="#AEC90B" stroke="null"/><path d="M25.955 15.688a.36.36 0 01-.367.368.36.36 0 01-.368-.368.36.36 0 01.367-.367s0 0 0 0c.196.024.368.171.368.367zM23.653 18.48c0 .196-.171.367-.367.367s-.343-.171-.343-.367.171-.368.367-.368h0c.196 0 .343.172.343.368zM12.732 16.692a.49.49 0 11-.49-.49c.27 0 .49.22.49.49z" fill="#007841" stroke="null"/><path d="M25.147 14.415c0 .147-.098.27-.245.27s-.27-.099-.27-.246c0-.146.098-.269.245-.269 0 0 0 0 0 0 .147 0 .27.098.27.245z" fill="#BDE2F1" stroke="null"/><path d="M21.792 14.562c0 .22-.171.392-.392.416a.425.425 0 01-.416-.392c0-.22.171-.391.392-.416 0 0 0 0 0 0 .245 0 .416.171.416.392z" fill="#EA5B25" stroke="null"/><path d="M23.629 14.44c0 .146-.123.269-.27.269a.272.272 0 01-.27-.27c0-.146.123-.269.27-.269 0 0 0 0 0 0 .147 0 .27.123.27.27z" fill="#FCC200" stroke="null"/><path d="M19 14.513c0 .196-.146.367-.342.367-.196 0-.367-.147-.367-.343 0-.196.146-.367.342-.367 0 0 0 0 0 0 .22 0 .368.147.368.343z" fill="#AEC90B" stroke="null"/><path fill="none" stroke="null" d="M24.657 9.591h0z"/><path d="M19.809 6.775c.122 0 .196-.049.171-.122s-.098-.123-.196-.074-.196.098-.171.147.098.05.196.05zm0 .294c.147-.024.245-.098.245-.147s-.123-.122-.27-.122-.245.049-.245.147.147.147.27.122zm.024.025c-.171.024-.318.097-.318.17s.147.148.318.172.319-.049.319-.171-.123-.196-.319-.171h0zM12.463 16.52h0a.362.362 0 01-.098.32c-.123.073-.27.097-.392.073h-.049v-.025a.674.674 0 01.196-.367c.098-.074.22-.074.343 0h0zm-.49.344c.123.024.245 0 .343-.05.073-.073.098-.146.073-.244-.073-.05-.171-.05-.269 0-.049.073-.122.171-.147.294h0z" fill="#FFF" stroke="null"/><path fill="#FFF" stroke="null" d="M12.512 16.447l.024.05-.563.416-.024-.05.563-.416z"/><path fill="#FFF" stroke="null" d="M12.34 16.594l-.024.05-.22-.05.024-.049.22.05zM12.169 16.717l-.025.049-.146-.05.024-.048.147.049z"/><path fill="#FFF" stroke="null" d="M12.34 16.619v.22h-.049v-.22h.05zM12.169 16.741v.147h-.049l.024-.147h.025zM22.355 17.843a.674.674 0 00-.196-.367c-.024-.025-.049-.025-.049 0 0 0 0 0 0 0a.674.674 0 00-.195.367c.024.122.122.22.244.196.098 0 .172-.098.196-.196z"/><path fill="none" stroke="null" d="M14.3 5.87h0z"/><path d="M14.593 5.894c0-.05-.049-.074-.122-.098V5.77s0-.024-.025-.024c-.049-.025-.098-.025-.147-.025V5.65h.074c-.025-.05-.074-.05-.123-.025l-.024.025h.024v.073c-.049 0-.098 0-.147.025l-.024.024v.074h.392c.049 0 .073.024.073.049s-.049.049-.098.073h0c-.024-.024 0-.073.025-.098h-.343c.024.025.024.05.024.098 0 0 0 .025-.049.05a.186.186 0 00-.049.097v.563s0 .074.123.074h.245c.122 0 .122-.074.122-.074v-.563c0-.049-.024-.073-.049-.098l-.024-.024c.073 0 .122-.05.122-.098h0zM19.417 4.596c-.025.073.073.147.171.171s.172-.024.172-.073-.025-.123-.123-.147-.196 0-.22.049h0zm.245-.196c-.074 0-.147 0-.196.025H19.319c-.049 0-.098 0-.122.024-.025 0-.025.024-.05.049v.024l-.024.025v.049a.338.338 0 00.098.073l.074.05.048.024c.05.049.098.073.172.122a.34.34 0 00.22 0c.074-.024.123-.098.147-.171h0c.025-.074 0-.147-.024-.22-.05-.025-.123-.074-.196-.074h0zm.147.122c.024.05.049.123.024.172h0c-.024.049-.049.098-.122.147a.21.21 0 01-.172 0c-.049-.025-.122-.074-.171-.098l-.049-.025-.049-.073c-.024-.025-.049-.05-.073-.05v-.024s0 0 0 0h.024v-.024s0-.025.025-.025c.024 0 .073-.024.098-.024H19.515c.049-.025.122-.025.196-.025.024-.024.073.025.098.05h0zM20.96 9.64c.098.074.171.172.171.294a.59.59 0 00-.171-.44.636.636 0 01.22.391.68.68 0 000-.44c.073.097.049.244.024.44.025-.147.098-.27.22-.318a.511.511 0 00-.195.391.41.41 0 01.22-.269.577.577 0 00-.22.392h-.171c-.05-.196-.074-.44-.27-.49.196.05.27.245.319.416a.498.498 0 00-.147-.367h0zM11.36 8.979c-.024 0 0 .049.025.049h.662c.024 0 .073-.049.024-.049h-.71zm.687-.44c.024 0 .024 0 .024.024s0 0 0 0V8.637h0c0 .048-.024.097-.049.146h0c.049 0 .074-.024.098-.073.025-.025.025-.074 0-.074 0 0-.024 0-.024-.024h0v-.05h.024c.049 0 .098.05.073.123 0 .025 0 .025-.024.05-.049.048-.098.097-.171.097-.025.049-.074.074-.123.122h-.27a.465.465 0 01-.195-.367c0-.024 0-.024.024-.024l.613-.025h0zM16.65 18.871h0c.024 0 .049 0 .049.025v.024l.049.196h.049l-.05-.196c0-.049-.048-.073-.097-.073 0 0 0 0 0 0h-.025l-.17.073c-.025 0 0 .05.024.05l.171-.099h0zM17.09 19.043c0-.025-.122-.05-.269-.05h0l.025.074c.122.025.245 0 .245-.024z" fill="#FFF" stroke="null"/><path d="M17.115 19.092h0c-.024.024-.049.024-.098.024h-.367 0c-.025 0-.073-.024-.098-.024h0c-.049.049-.049.122-.049.196 0 .122.049.245.171.294a.454.454 0 00.172.049c.196 0 .343-.172.343-.368a.265.265 0 00-.074-.171h0zM16.65 19.018c-.049 0-.073.025-.073.025s0 .024.073.024h.073l-.024-.073-.049.024h0z" fill="#FFF" stroke="null"/><path d="M10.994 11.256c.171 0 .342.05.49.147.048.025.048.074.024.123 0 0 0 0 0 0l-.025.073c-.024.049-.073.049-.122.025a.562.562 0 00-.343-.098c-.27 0-.514.22-.514.514v.049a.521.521 0 00.465.563h.025a.578.578 0 00.391-.171v-.172h-.147c-.048 0-.073-.024-.097-.073 0 0 0 0 0 0v-.05c0-.073.024-.097.097-.097h.294c.05 0 .098.024.098.098v.66c0 .074-.024.099-.098.099h-.049c-.049 0-.073-.025-.073-.074V12.798v-.048h0c-.123.122-.27.196-.44.171-.417-.024-.76-.391-.735-.808v-.024a.775.775 0 01.734-.833h.025zM12.34 11.721c.27 0 .49.22.49.49v.05a.105.105 0 01-.098.097s0 0 0 0h-.661c0 .172.147.318.318.318 0 0 0 0 0 0a.414.414 0 00.245-.073c.025-.025.074-.025.098.024v.025l.025.049c.024.049.024.098-.025.122 0 0 0 0 0 0a.66.66 0 01-.367.123.575.575 0 01-.588-.563v-.05a.585.585 0 01.49-.612h.073zm.22.466c0-.172-.097-.245-.22-.245-.147 0-.244.098-.269.245h.49zM12.928 12.799c0-.05.025-.074.049-.098l.44-.612a.191.191 0 01.099-.098h0H13.05c-.049 0-.097-.025-.097-.098v-.05c0-.048.024-.097.097-.097h.735c.049 0 .098.024.098.073v.025c0 .049-.024.073-.049.098l-.44.612a.191.191 0 01-.099.098h.49c.049 0 .098.024.098.098v.049c0 .073-.024.098-.098.098h-.783c-.025 0-.074-.025-.074-.098h0zM14.618 11.721c.342 0 .612.27.612.588s-.27.612-.588.612-.612-.27-.612-.587c0 0 0 0 0 0a.572.572 0 01.588-.613c-.025 0 0 0 0 0zm0 .98c.196 0 .318-.171.318-.343v-.024a.328.328 0 00-.27-.368.328.328 0 00-.367.27v.073c0 .196.123.367.319.392 0-.025 0-.025 0 0h0zM15.401 11.844c0-.05.025-.098.074-.098h.073c.05 0 .098.024.098.098v.123h0a.436.436 0 01.392-.246c.245 0 .367.123.367.441v.661c0 .074-.024.098-.098.098h-.098c-.049 0-.098-.024-.098-.098v-.612c0-.147-.024-.245-.171-.245a.351.351 0 00-.318.368V12.823c0 .074-.025.098-.098.098h-.098c-.05 0-.074-.024-.074-.098l.05-.98h0zM17.115 11.721c.123 0 .245.05.319.172h0v-.514c0-.05.024-.098.097-.098h.098c.05 0 .074.024.074.098v1.42c0 .073-.025.098-.074.098h-.073c-.049 0-.073-.025-.098-.074V12.75v-.048h0a.39.39 0 01-.343.196c-.294 0-.49-.245-.49-.612s.196-.564.49-.564zm.05.98c.146 0 .269-.123.269-.367 0-.172-.098-.368-.27-.368s-.27.123-.27.368.099.342.27.367h0zM17.948 11.379c0-.05.024-.098.073-.098h.123c.049 0 .098.024.098.098V11.942h0a.429.429 0 01.367-.245c.245 0 .367.122.367.44v.662c0 .073-.024.098-.098.098h-.098c-.049 0-.098-.025-.098-.098v-.588c0-.147-.024-.245-.171-.245-.196 0-.318.172-.318.392v.44c0 .074-.025.099-.098.099h-.05c-.048 0-.097-.025-.097-.098v-1.42h0zM19.71 11.721c.27 0 .49.22.49.49v.074a.105.105 0 01-.097.098h-.662c0 .171.147.318.319.293a.472.472 0 00.245-.073c.024-.025.073-.025.098.024v.025l.024.049c.025.049.025.098-.024.122 0 0 0 0 0 0a.66.66 0 01-.368.123.575.575 0 01-.587-.563v-.05a.55.55 0 01.514-.587c.024-.025.024-.025.049-.025h0zm.197.466c0-.172-.098-.245-.22-.245-.148 0-.246.098-.27.245h.49zM20.372 11.452v-.073c0-.05.024-.098.098-.098h.098c.049 0 .073.024.098.073v.098c0 .05-.025.074-.074.098h-.122a.105.105 0 01-.098-.098zm0 .392c0-.05.024-.098.098-.098h.098c.049 0 .073.024.073.098v.98c0 .073-.024.097-.073.097h-.098c-.05 0-.098-.024-.098-.098v-.98zM21.351 11.721c.123 0 .245.05.319.172h0v-.514c0-.05.024-.098.098-.098h.098c.049 0 .073.024.073.098v1.42c0 .073-.024.098-.073.098h-.074c-.049 0-.073-.025-.098-.074V12.75v-.048h0a.39.39 0 01-.343.196c-.293 0-.49-.245-.49-.612s.197-.564.49-.564zm.05.98c.146 0 .269-.123.269-.367 0-.172-.098-.368-.27-.368s-.269.123-.269.368.098.342.27.367h0zM22.135 12.676l.024-.049c.025-.049.074-.049.123-.024a.414.414 0 00.245.073c.098 0 .147-.049.147-.122 0-.196-.54-.122-.54-.514a.396.396 0 01.393-.343h.024c.098 0 .22.024.294.073.049.025.049.074.049.123 0 0 0 0 0 0l-.024.073c-.025.05-.074.05-.123.05-.049-.05-.122-.05-.196-.05-.098 0-.147.05-.147.123 0 .196.539.122.539.514a.362.362 0 01-.392.343h-.024a.729.729 0 01-.368-.123c-.024-.049-.049-.098-.024-.147 0 0 0 0 0 0h0zM23.188 11.379c0-.05.024-.098.098-.098h.44c.22-.025.441.122.466.367v.049c0 .147-.074.27-.172.343h0c.147.049.245.22.245.367 0 .245-.196.465-.44.465h-.539c-.05 0-.098-.024-.098-.098V11.38zm.539.563a.193.193 0 00.195-.196v-.025c0-.097-.049-.195-.171-.195H23.457v.416h.27zm.024.71a.245.245 0 00.147-.318.22.22 0 00-.147-.147h-.294v.465h.294zM24.975 11.721c.343 0 .613.27.613.588 0 .343-.27.612-.588.612s-.612-.27-.612-.587v-.025a.58.58 0 01.587-.588s0 0 0 0zm0 .98c.196 0 .319-.171.319-.343v-.024A.31.31 0 0025 11.99a.31.31 0 00-.343.294v.049c0 .171.147.342.318.367 0-.025 0-.025 0 0h0zM25.783 11.844c0-.05.025-.098.074-.098h.073c.05 0 .074.024.074.098v.123h0a.436.436 0 01.392-.246c.244 0 .367.123.367.441v.661c0 .074-.025.098-.098.098h-.05c-.048 0-.097-.024-.097-.098v-.612c0-.147-.024-.245-.171-.245a.351.351 0 00-.319.368V12.823c0 .074-.024.098-.098.098h-.098c-.049 0-.073-.024-.073-.098l.024-.98z" fill="#1F2855" stroke="null"/><path d="M12.659 15.027h0s0-.024 0 0c0-.024 0-.024 0 0a1.144 1.144 0 00-.123-.245.186.186 0 01-.049-.098l-.024-.024c-.025-.025-.05-.05-.074-.05h-.073s-.025 0-.025.025c0 0 0 .025.025.025h.073c.025 0 .05.024.05.024l.024.025.049.098c.049.073.098.171.122.22h.025c-.025.025 0 0 0 0h0z" fill="#FFF" stroke="null"/><path d="M12.242 15.027s0 0 0 0l-.146-.318v-.025h.024s0 0 0 0l.024.05h.392v.048l-.27.245h-.024 0zm-.073-.245l.098.196.22-.196h-.318 0z" fill="#FFF" stroke="null"/><path d="M11.973 15.027h.27c.024 0 .024 0 .024-.024s0-.025-.025-.025h-.269s-.024.025 0 .05c-.024-.025 0 0 0 0h0zM12.659 15.223h0c.122 0 .22-.122.22-.22 0-.123-.098-.196-.22-.196 0 0 0 0 0 0h-.025s-.024 0-.024.024c0 0 0 .025.024.025h.025c.098 0 .171.073.196.171a.187.187 0 01-.05.123.187.187 0 01-.122.049c-.049 0-.098 0-.122-.05a.187.187 0 01-.05-.122c0-.049 0-.098.05-.122v-.025s0 0 0 0h-.025s0 0 0 0c-.049.05-.049.098-.049.147 0 .05.025.098.074.147 0 .025.049.049.098.049h0z" fill="#FFF" stroke="null"/><path d="M11.777 14.905h0c-.024.073-.024.122 0 .171.05.123.172.171.27.123.049-.025.097-.05.122-.098v-.025-.024s0 0 0 0h-.025s0 0 0 0v.024c-.048.098-.146.122-.22.098H11.9a.191.191 0 01-.098-.098c-.025-.098 0-.196.098-.22 0 0 0 0 0 0 .049-.025.098-.025.122 0a.191.191 0 01.098.098h.024v-.025s0 0 0 0c-.024-.049-.048-.098-.122-.122a.21.21 0 00-.171 0s-.05.049-.074.098h0z" fill="#FFF" stroke="null"/><path d="M11.973 15.223c.074 0 .147-.049.196-.122v-.025-.024s0 0 0 0h-.025v.024c-.048.098-.146.123-.244.098 0 0 0 0 0 0-.098-.049-.123-.147-.074-.245 0 0 0 0 0 0a.191.191 0 01.098-.098v-.024s0 0 0 0H11.9c-.05.024-.098.049-.123.098a.236.236 0 00.098.294c.025 0 .074.024.098.024h0zM12.169 14.709s.024-.025 0 0c.024-.025.024-.05 0-.05 0 0 0 0 0 0h-.147s-.024 0-.024.025c0 0 0 .025.024.025h.147z" fill="#FFF" stroke="null"/><path d="M13.516 18.357h.44v-.049h-.44v.05zm.098-.44h0l-.074-.564v-.049a.68.68 0 01.441 0v.05l-.025.146h.025c.049 0 .098.05.098.098v.172a.135.135 0 01-.074.122h-.024-.025v-.024s0 0 0 0h.025c.024-.025.049-.05.049-.074v-.147a.053.053 0 00-.049-.049h-.025l-.073.319h.024l.05.342h-.417l.074-.343h0zm.22 0h0l.074-.564h-.343l.073.564h.196zm-.098.122h0c-.024 0-.049 0-.073.024-.025.025-.025.05-.025.074h0c0 .024 0 .049.025.049.024.024.049.024.073.024h0c.025 0 .05 0 .074-.024.024-.025.024-.05.024-.05h0c0-.024 0-.048-.024-.073-.025-.024-.05-.024-.074-.024zm0 .024h0a.053.053 0 00-.049.05h0c0 .024 0 .024.025.048 0 0 .024.025.049.025h0c.024 0 .024 0 .049-.025 0 0 .024-.024.024-.049h0c-.024-.024-.049-.049-.098-.049z" fill-rule="evenodd" clip-rule="evenodd" fill="#FFF" stroke="null"/><path d="M16.723 14.61a.053.053 0 01-.049.05s0 0 0 0h-.22a.053.053 0 01-.049-.05s0 0 0 0h0c0-.024.025-.048.05-.048 0 0 0 0 0 0h.22c.024 0 .048.024.048.049 0 0 0 0 0 0zM17.042 14.856c0 .024 0 .024-.025.024 0 0 0 0 0 0h-.098c-.024 0-.024 0-.024-.024 0 0 0 0 0 0h0c0-.025 0-.025.024-.025h.098c.025 0 .025.025.025.025s0 0 0 0zM16.699 14.733h-.245a.158.158 0 00-.147.147h0v.367c0 .074.05.147.147.147 0 0 0 0 0 0h.245v-.318c0-.073.073-.147.147-.171v-.025c-.025-.073-.074-.147-.147-.147 0 0 0 0 0 0h0z" fill="#FFF" stroke="null"/><path d="M17.017 14.954h-.098a.158.158 0 00-.147.147h0v.195c0 .074.05.147.147.147 0 0 0 0 0 0h.098a.158.158 0 00.147-.147s0 0 0 0v-.195c0-.098-.073-.147-.147-.147h0zM19.368 15.517l-.073-.123.073-.147h.147l.098.147-.098.123zM19.637 15.37l-.073-.147.073-.122h.147l.098.122-.098.147zM19.662 15.64l-.074-.099.074-.098h.098l.073.098-.073.098zM19.907 15.517l-.098-.123.098-.147h.147l.073.147-.073.123zM19.368 15.835l-.073-.147.073-.147h.147l.098.147-.098.147zM19.907 15.835l-.098-.147.098-.147h.147l.073.147-.073.147zM19.637 15.982l-.073-.147.073-.122h.147l.098.122-.098.147zM17.164 17.378v.294c0 .049-.024.073-.073.073-.05 0-.074-.049-.074-.073h0c-.049 0-.073-.025-.073-.074v-.122c0-.05.024-.074.073-.074h0c0-.049.025-.098.074-.098.049 0 .073.025.073.074h0zm.245 0v.294c0 .049.025.073.074.073.024 0 .073-.049.073-.073h0c.049 0 .073-.025.073-.074h0v-.122c0-.05-.024-.074-.073-.074h0c0-.049-.025-.098-.073-.098-.05 0-.074.025-.074.074 0-.025-.024 0 0 0h0zm-.024.098h0-.172 0v.073h.172v-.073zM19.588 17.696h-.049v.465h-.122c-.122 0-.245.025-.318.098l-.025.025h.514v-.588h0z" fill="#FFF" stroke="null"/><path d="M19.417 17.598a.691.691 0 00-.367.098v.514a.468.468 0 01.367-.098h.098v-.514h-.098zm.049.49h-.05a.678.678 0 00-.317.073v-.44c.098-.05.22-.098.318-.074h.049v.44zM18.535 17.696h.05v.465h.122c.122 0 .245.025.343.098l.024.025h-.539v-.588h0z" fill="#FFF" stroke="null"/><path d="M18.609 17.623v.514h.098c.122 0 .245.024.367.098v-.514a.468.468 0 00-.367-.098h-.098zm.049.024h.049c.122 0 .22.025.318.074v.44a.754.754 0 00-.318-.073h-.05v-.44zM20.078 19.85h-.147 0v.099h.147v-.098s.025 0 0 0zM20.42 19.802h-.244 0v.147h0c.049.024.073.024.122.024.05 0 .074 0 .123-.024h0v-.147h0zM20.494 19.214h0-.367 0v.025h0a.31.31 0 01.025.147v.196h0v.171h.269v-.171h0v-.123-.073h0c0-.05 0-.098.024-.147h0l.05-.025zM19.907 19.508h0v.025h0v.024h0v.27h.171c0-.05.025-.22.025-.22v-.025h0v-.025h0v-.024h0l-.196-.025h0zM24.73 16.643c.05-.049.074-.098.074-.147 0-.073-.049-.122-.122-.147h-.245c-.074.025-.098.074-.123.147 0 .074.05.123.098.147h0c-.098.098-.122.245-.024.368.098.097.245.122.367.024.049-.049.098-.122.098-.196 0-.073-.049-.147-.123-.196h0zm-.318-.147c0-.024.025-.073.05-.073h.22c.024 0 .073.024.048.073 0 .05-.048.098-.073.123-.024 0-.049-.025-.073-.025-.025 0-.074 0-.098.025h0s-.074-.074-.074-.123h0zM23.188 7.853c-.025-.025-.025-.025-.05-.025-.024 0-.048-.024-.073 0-.024 0-.073 0-.098.025-.024.024-.073.024-.097.049a.186.186 0 00-.098-.05c-.025-.048-.074-.048-.098-.048a.187.187 0 00-.123.049.348.348 0 00-.049.147c0 .049.025.122.05.17.048.05.073.099.122.148a1.4 1.4 0 00.195.171h0c.074-.049.123-.098.196-.171.05-.05.098-.098.123-.147A.354.354 0 0023.237 8c0-.074-.025-.123-.05-.147h0zM24.167 7.534a.105.105 0 01-.098-.098c0-.049.05-.098.098-.098 0 0 0 0 0 0 .05 0 .098.05.098.098.025.05-.024.098-.098.098 0 0 0 0 0 0zm0-.171c-.049 0-.073.024-.073.049 0 .049.024.073.049.073h.024c.05 0 .074-.024.074-.049 0-.049-.025-.073-.05-.073h-.024z" fill="#FFF" stroke="null"/><path d="M24.216 7.436c0 .025-.024.025-.024.025l-.025-.025c0-.024.025-.024.025-.024 0-.025.024 0 .024.024z" fill="#FFF" stroke="null"/><path d="M24.926 7.314h-.391c.024-.025.024-.05.024-.098 0-.098-.073-.171-.196-.196-.024 0-.049 0-.073.025h-.025 0l.025.024-.22.196c-.05.024-.074.098-.074.147 0 .098.073.171.147.196h.514l.27-.294zm-.906.122c0-.073.05-.147.147-.147 0 0 0 0 0 0 .074 0 .147.074.147.147 0 0 0 0 0 0a.158.158 0 01-.147.147.158.158 0 01-.147-.147s0 0 0 0zm.245.123l.05-.025.195-.171h.318l-.195.22-.368-.024h0z" fill="#FFF" stroke="null"/><path d="M24.461 9.567c.05-.05.147-.098.22-.074v.05a.404.404 0 01-.244.244h-.05c-.024-.073.025-.147.074-.22h0zm.245-.074v.05a.395.395 0 01-.098.17.395.395 0 01-.171.099h-.05c0 .048.05.097.074.146.05.05.098.074.147.074v-.05a.395.395 0 01.098-.17.395.395 0 01.171-.098h.05c0-.05-.05-.098-.074-.147-.025-.025-.074-.074-.147-.074h0zm.245.27a.395.395 0 01-.074.22c-.049.049-.147.098-.22.073v-.049c.024-.049.049-.098.098-.147.049-.048.098-.073.147-.097h.049z" fill-rule="evenodd" clip-rule="evenodd" fill="#FFF" stroke="null"/><path d="M18.805 8.17c0-.22-.196-.39-.441-.39-.196 0-.367.17-.392.366h0v.05h0c.025.22.22.391.441.367.22-.025.392-.196.392-.392h0zm-.245-.024c0-.049 0-.098-.025-.146.05-.025.074-.025.123-.074a.278.278 0 01.073.196l-.171.024zm-.025-.171a.187.187 0 00-.049-.122c.05.024.123.049.147.073-.024.025-.049.025-.098.049h0zm-.122-.147c.024 0 .073.05.098.147a.27.27 0 01-.196 0c.025-.098.049-.147.098-.147h0zm-.147.147a.186.186 0 01-.098-.049c.05-.049.098-.073.147-.073a.187.187 0 00-.049.122h0zm.147.049h.122c0 .049.025.073 0 .122h-.244v-.122c.024 0 .073.025.122 0h0zm.122.171c0 .05 0 .098-.024.147-.025 0-.074-.024-.098-.024-.024 0-.073 0-.098.024 0-.049-.024-.098-.024-.147h.244zm-.122.172h.098c-.025.098-.074.147-.098.147s-.073-.05-.098-.147h.098zm-.073.147l-.147-.074c.024-.024.049-.024.098-.049 0 .05 0 .074.049.123h0zm.195-.123c.025 0 .074.025.098.05l-.147.073c.025-.05.05-.074.05-.123h0zm0-.049c0-.049.025-.098.025-.147h.171c0 .074-.049.147-.098.22-.024-.048-.049-.048-.098-.073h0zm-.391-.391c.024.024.073.049.122.073 0 .049-.024.098-.024.147h-.196a.31.31 0 01.098-.22h0zm-.098.244h.171c0 .05 0 .098.025.147-.05.025-.074.025-.123.05-.024-.05-.049-.123-.073-.197h0zM22.82 6.139v.269c0 .024 0 .024.025.024h.196V6.14h-.22zM23.114 6.139v.293h.196c.025 0 .025 0 .025-.024v-.27h-.22zM22.772 5.943v.147c0 .024 0 .024.024.024h.245v-.171h-.27s0 0 0 0h0zM23.36 5.943h-.246v.171h.245s.025 0 .025-.024c0 0 0 0 0 0l-.025-.147c.025 0 0 0 0 0h0zM23.31 5.722c-.024-.024-.049-.049-.098-.049-.024 0-.049 0-.049.025-.024.024-.049.073-.073.122-.025-.049-.05-.073-.074-.122-.024-.025-.049-.025-.049-.025-.049 0-.073.025-.097.05-.025.024-.025.048 0 .073l.073.073c.024.025.073.025.098.025h.098c.024 0 .073 0 .098-.025l.073-.073v-.074zm-.294.123c-.024 0-.049 0-.073-.025-.025-.024-.049-.024-.049-.049v-.024c0-.025.024-.025.049-.025 0 0 .024 0 .024.025.025.024.05.073.074.122l-.025-.024h0zm.245-.074c-.024.025-.024.05-.049.05-.049.024-.073.024-.098.024h-.024c.024-.05.049-.098.073-.123l.025-.024c.024 0 .049.024.049.024.024.025.024.025.024.05h0zM21.327 5.575a.053.053 0 01-.05-.049v-.073c0-.025.025-.049.05-.049.024 0 .049.024.049.049v.073a.053.053 0 01-.05.05s0 0 0 0zm.294-.024h-.025l-.122-.123c-.025-.024-.025-.049 0-.049h.049l.098.098v.049c.024 0 0 .025 0 .025h0zm-.563 0h-.025v-.025-.024l.098-.098c.024-.025.049-.025.049 0 .024.024.024.049 0 .049 0 0 0 0 0 0l-.098.098c0-.025-.024 0-.024 0h0zm.269-.172c-.098 0-.172-.073-.172-.17s.074-.172.172-.172c.098 0 .171.073.171.171h0a.167.167 0 01-.171.171zm.245-.122a.053.053 0 01-.05-.049c0-.024.025-.049.05-.049h.073c.025 0 .05.025.05.05a.053.053 0 01-.05.048h-.073zm-.563 0a.053.053 0 01-.05-.049c0-.024.025-.049.05-.049h.073c.024 0 .049.025.049.05a.053.053 0 01-.049.048h-.073zm.49-.171h-.025c-.025-.025-.025-.05 0-.05 0 0 0 0 0 0l.098-.097c.024-.025.049-.025.049 0v.049l-.098.098h-.025 0zm-.344 0h-.024l-.073-.098c-.025-.025-.025-.05 0-.05h.048l.098.099v.049h-.049 0zm.172-.074a.053.053 0 01-.05-.049V4.89c0-.025.025-.05.05-.05.024 0 .049.025.049.05v.073a.053.053 0 01-.05.05h0zM17.066 4.67c0-.074-.024-.148-.073-.148s-.074.05-.074.147c0 .05.025.098.05.123a.807.807 0 010 .343s-.05.122.048.122c0 0 .05-.024.025-.122a.699.699 0 010-.319c.024-.049.024-.098.024-.147zm.196.024c0-.196-.024-.172-.024-.172 0 .05 0 .123.024.172h0l-.024-.172c0 .05 0 .123.024.172h0l-.024-.172c0 .05 0 .123.024.172h0c-.024-.196-.024-.172-.024-.172 0 .05-.025.123 0 .172 0 .049 0 .073.049.098a.699.699 0 010 .318c-.025.098.024.123.024.123.074 0 .05-.123.05-.123a.699.699 0 010-.318c-.123-.025-.123-.098-.099-.098h0zm.367-.172a.335.335 0 00-.342.343c0 .196.147.343.342.343s.343-.147.343-.343a.35.35 0 00-.343-.343s0 0 0 0h0zm0 .637c-.146 0-.293-.122-.293-.294s.122-.294.293-.294c.147 0 .294.123.294.294h0a.298.298 0 01-.294.294s0 0 0 0h0zm0-.539c-.146 0-.244.098-.244.245s.098.245.244.245.245-.098.245-.245a.245.245 0 00-.245-.245s0 0 0 0h0z" fill="#FFF" stroke="null"/><path d="M22.82 15.492c0-.073.025-.147.099-.196h0c0 .074.024.196-.098.196 0 .025 0 .025 0 0h0zm-.146.808c-.123.05-.22-.147-.27-.244-.073-.196-.024-.417.098-.466.074-.024.123 0 .196.025a.156.156 0 00.147 0c.049-.025.122-.05.196-.025.147.05.196.27.098.466-.05.097-.147.269-.27.244-.048-.024-.122-.024-.195 0h0zm.122-.71c0-.098-.049-.22-.147-.27-.024 0-.049.05-.024.05.073.024.147.122.147.196-.025.024.024.024.024.024z" fill-rule="evenodd" clip-rule="evenodd" fill="#FFF" stroke="null"/><path d="M16.062 16.472a.71.71 0 11-1.42-.001.71.71 0 011.42 0s0 0 0 0z" fill="#AEC90B" stroke="null"/><path d="M15.573 16.153c0-.024-.074-.048-.074 0s.05.074.025.147-.025.05-.025.098a.318.318 0 01-.294.196h-.196-.024v.025c0 .024 0 .024.024.049l.025.024a.468.468 0 00.44 0c.245-.122.294-.392.172-.465l-.073-.073h0z" fill="#FFF" stroke="null"/><path d="M26.396 14.61a.413.413 0 01-.417.417c-.245 0-.416-.196-.416-.416s.196-.416.416-.416c.22-.025.417.171.417.416 0 0 0 0 0 0z" fill="#D41317" stroke="null"/><path d="M25.98 14.415a.265.265 0 00-.172.073c-.074.098-.074.245 0 .319.098.098.245.098.318 0 .098-.098.098-.245 0-.319-.024-.049-.073-.073-.147-.073zm.122.367a.187.187 0 01-.123.05.187.187 0 01-.122-.05c-.074-.073-.074-.171 0-.245a.187.187 0 01.122-.049c.05 0 .098.025.123.05.073.048.073.17 0 .244h0z" fill="#FFF" stroke="null"/><path d="M26.077 14.513h0l-.073.098h-.025c-.024.024-.024.049 0 .049 0 0 .025.024.025 0h.024c.025-.025.025-.05 0-.05l.05-.097c.024 0 0 0 0 0zM25.93 14.39h.098s.025 0 .025-.024v-.025s0-.024-.025-.024h-.098s-.024 0-.024.024h0l.024.05c-.024 0 0 0 0 0h0zM26.224 14.464h0c-.024-.025-.024-.025-.049-.025l-.024.025v.024l.024.025h.025s0 0 0 0l.024-.025c.025 0 .025-.024 0-.024 0 0 0 0 0 0h0zM14.128 8.122l-.074-.074c-.024-.024-.024-.024-.049-.024h-.098a.135.135 0 01-.122.073c-.049 0-.098-.024-.098-.073h-.098c-.024 0-.049.024-.049.024l-.073.074-.074.073.123.098.049-.073V8.587h.44v-.343-.024l.05.073.122-.098-.05-.073h0zM16.43 6.285l-.05-.097c-.024-.025-.024-.05-.048-.05-.025 0-.025-.024-.05 0l-.146.196v.025s0 0 0 0l.147.098h.024l.123-.172h0z" fill="#FFF" stroke="null"/><path d="M16.723 6.237l-.049.024c-.024-.049-.049-.098-.097-.122h-.294c.049 0 .098.024.122.073l.098.171-.049.05.22.048h.025c-.025-.024.024-.244.024-.244h0zM16.699 6.726h.098c.024 0 .049 0 .073-.024l.05-.05-.123-.195h-.025l-.147.098v.024s0 0 0 0l.074.147h0z" fill="#FFF" stroke="null"/><path d="M16.601 7.02v-.049H16.772l.147-.27a.187.187 0 01-.122.05H16.6V6.7h0l-.171.123h0v.025l.171.171h0zM16.185 6.775l-.05.098c0 .025-.024.05-.024.074 0 .024 0 .024.025.049h.22s.025 0 .025-.025c0 0 0 0 0 0V6.8s0-.025-.025-.025c0 0 0 0 0 0h-.171 0z" fill="#FFF" stroke="null"/><path d="M15.989 6.53l.049.025-.074.122v.025l.147.27c-.024-.05-.024-.099 0-.123l.098-.172.05.025h0l-.05-.22h-.024l-.196.048h0z" fill="#FFF" stroke="null"/></svg>
