<svg xmlns="http://www.w3.org/2000/svg" role="img" viewBox="0 0 38 24" width="38" height="24" aria-labelledby="pi-givacard"><title id="pi-givacard">GivaCard</title><path d="M35 0H3C1.3 0 0 1.3 0 3v18c0 1.7 1.4 3 3 3h32c1.7 0 3-1.3 3-3V3c0-1.7-1.4-3-3-3z" opacity=".07"/><path fill="#fff" d="M35 1c1.1 0 2 .9 2 2v18c0 1.1-.9 2-2 2H3c-1.1 0-2-.9-2-2V3c0-1.1.9-2 2-2h32"/><path fill="#e16965" d="M21.57 16.52a.293.293 0 01-.12-.13l-.86-2.44a.421.421 0 00-.16-.19.335.335 0 00-.23-.06l-2.02.16c-.06 0-.12-.01-.16-.05-.04-.04-.07-.08-.07-.14l-.08-1.03c0-.05.01-.1.05-.15.04-.05.09-.07.15-.08l1.61-.13c.08-.01.14-.04.19-.1a.22.22 0 00.02-.21L18.9 9.3a.32.32 0 00-.15-.18.335.335 0 00-.23-.06l-.09.01c-.07.01-.14.04-.21.1a.33.33 0 00-.12.2l-.36 1.83c-.01.06-.04.1-.09.13a.24.24 0 01-.17.03l-1.28-.21c-.05 0-.1-.03-.13-.08a.157.157 0 01-.03-.16l.6-3.16c.01-.05.05-.11.1-.16s.11-.08.16-.08l2.88-.22c.05 0 .11.01.18.05.07.04.11.08.13.13l3.17 8.81v.03c.01.11-.04.16-.15.17l-1.37.11c-.06-.02-.12-.03-.17-.07z"/><path fill="#006e8f" d="M30.49 16.47l-.83-10.66a2.48 2.48 0 00-.87-1.7c-.51-.43-1.15-.65-1.81-.59L9.8 4.85c-1.37.11-2.4 1.31-2.29 2.68l.83 10.66c.1 1.3 1.2 2.3 2.48 2.3.06 0 .13 0 .19-.01l17.19-1.34c1.37-.1 2.4-1.3 2.29-2.67zm-2.38 1.55l-17.19 1.34c-.75.06-1.41-.51-1.47-1.26L8.63 7.44c-.03-.32.07-.64.26-.9l.32 4.14.12-.01.3-.02-.32-4.25-.02-.23c.17-.1.36-.17.56-.19l.03.38.25 3.23 1.11-.09-.25-3.23-.03-.38.55-.04.03.38.46 5.87.99-.08-.46-5.87-.03-.38.42-.03.03.38.29 3.68.14-.01-.29-3.68-.03-.38.42-.03.03.38.33 4.29.57-.04-.33-4.29-.03-.38.78-.06.03.38.33 4.29.24-.02.51-2.66c.03-.13.09-.25.17-.36l-.1-1.35-.05-.38.7-.05.03.38.08 1c.02 0 .04-.01.06-.01l.37-.03-.08-.99-.03-.38.57-.04.03.38.08.99 1.11-.09-.08-.99-.03-.38.7-.05.03.38.08.99.14-.01c.08-.01.16 0 .23.01l-.08-1.02-.04-.39.59-.05.03.38.11 1.42c.08.09.13.18.16.25l.01.04.91 2.52.19-.01-.33-4.3-.03-.38.35-.03.03.38.29 3.69.34-.02-.29-3.69-.03-.38.46-.04.03.38.27 3.46.14-.01-.27-3.46-.03-.38.46-.04.03.38.33 4.29.73-.06-.33-4.29-.03-.38.57-.04.03.38.3 3.84.14-.01-.3-3.84-.03-.38.68-.05.03.38.29 3.69.34-.03-.3-3.69-.03-.38.68-.05.03.38.46 5.88 1.16-.09-.46-5.88-.02-.3c.2.05.38.15.54.28l.06.06.26 3.45.14-.01-.24-3.26c.15.2.24.44.26.7l.83 10.66c.06.75-.5 1.41-1.26 1.46z"/></svg>