<svg xmlns="http://www.w3.org/2000/svg" role="img" aria-labelledby="pi-glbepaypal" viewBox="0 0 38 24" width="38" height="24" fill="none"><title id="pi-glbepaypal">Global-E Paypal</title><g clip-path="url(#a)"><path fill="#000" d="M35 0H3C1.3 0 0 1.3 0 3v18c0 1.7 1.4 3 3 3h32c1.7 0 3-1.3 3-3V3c0-1.7-1.4-3-3-3Z" opacity=".07"/><path fill="#fff" d="M35 1c1.1 0 2 .9 2 2v18c0 1.1-.9 2-2 2H3c-1.1 0-2-.9-2-2V3c0-1.1.9-2 2-2h32Z"/><path fill="#0079C1" fill-rule="evenodd" d="M29.405 10.522h1.03c.11 0 .195.1.178.21l-.557 3.583a.3.3 0 0 1-.296.256h-.927c-.11 0-.195-.1-.178-.21l.046-.292s-.508.599-1.426.599c-.534 0-.983-.156-1.297-.532-.343-.409-.482-.995-.384-1.608.19-1.229 1.162-2.105 2.3-2.105.496 0 .994.11 1.216.439l.073.106.045-.293a.18.18 0 0 1 .177-.153Zm-6.43.81c.57 0 1.16 0 1.278-.785.043-.276.009-.475-.104-.61-.19-.224-.556-.224-.945-.224h-.149a.18.18 0 0 0-.177.154l-.227 1.464h.324ZM21.853 8.5h2.152c.72 0 1.262.193 1.568.558.278.333.37.807.274 1.41-.213 1.382-1.031 2.078-2.449 2.078h-.68a.3.3 0 0 0-.296.257l-.246 1.588a.21.21 0 0 1-.207.18h-1.104c-.11 0-.194-.1-.177-.21l.87-5.605a.3.3 0 0 1 .295-.256ZM29 12.559c-.1.597-.567.999-1.163.999-.299 0-.538-.098-.692-.283-.152-.183-.21-.444-.161-.735.092-.592.567-1.007 1.154-1.007.293 0 .53.1.687.286.158.188.22.45.175.74Zm1.767 1.801.883-5.706a.18.18 0 0 1 .177-.154h.993c.11 0 .195.1.178.21l-.871 5.604a.3.3 0 0 1-.295.257h-.888c-.11 0-.194-.1-.177-.21Z" clip-rule="evenodd"/><path fill="#00457C" fill-rule="evenodd" d="M19.46 10.518h1.055c.147 0 .234.164.15.285l-3.507 5.038a.306.306 0 0 1-.25.13h-1.053a.182.182 0 0 1-.15-.286l1.093-1.534-1.161-3.393a.182.182 0 0 1 .173-.24h1.036c.134 0 .253.087.292.216l.616 2.05 1.455-2.134a.304.304 0 0 1 .251-.133Zm-5.582 0h1.05c.112 0 .197.1.18.21l-.567 3.575a.304.304 0 0 1-.301.255h-.944a.182.182 0 0 1-.181-.21l.047-.29s-.518.597-1.453.597c-.544 0-1-.156-1.32-.53-.35-.409-.491-.993-.391-1.605.193-1.226 1.183-2.1 2.341-2.1.506 0 1.012.109 1.24.437l.073.106.046-.292a.183.183 0 0 1 .18-.153Zm-6.547.807c.581 0 1.182 0 1.301-.782.044-.275.01-.474-.106-.608-.193-.224-.566-.224-.961-.224h-.152a.182.182 0 0 0-.18.153L7 11.325h.33ZM6.19 8.5h2.19c.734 0 1.286.193 1.597.557.284.332.378.805.28 1.408-.218 1.378-1.05 2.073-2.494 2.073H7.07a.304.304 0 0 0-.3.256l-.24 1.509a.304.304 0 0 1-.3.255H5.182a.182.182 0 0 1-.18-.21l.886-5.592a.304.304 0 0 1 .3-.256Zm7.277 4.05a1.168 1.168 0 0 1-1.184.998c-.305 0-.549-.098-.705-.282-.155-.183-.213-.444-.164-.734a1.172 1.172 0 0 1 1.175-1.005c.298 0 .54.099.7.285.16.187.224.45.178.738Z" clip-rule="evenodd"/></g><defs><clipPath ><path fill="#fff" d="M0 0h38v24H0z"/></clipPath></defs></svg>