<svg xmlns="http://www.w3.org/2000/svg" role="img" viewBox="0 0 38 24" width="38" height="24" aria-labelledby="pi-gmo-postpay"><title id="pi-gmo-postpay">GMO PostPay</title><path opacity=".07" d="M35 0H3C1.3 0 0 1.3 0 3v18c0 1.7 1.4 3 3 3h32c1.7 0 3-1.3 3-3V3c0-1.7-1.4-3-3-3z"/><path fill="#fff" d="M35 1c1.1 0 2 .9 2 2v18c0 1.1-.9 2-2 2H3c-1.1 0-2-.9-2-2V3c0-1.1.9-2 2-2h32"/><path fill="#005bac" d="M32.5 13.1c-.5 0-.7-.7-.7-1.3s.1-1.2.2-1.8h-.6c-.1.6-.2 1.2-.2 1.8 0 1.6.8 1.9 1.2 1.9.4 0 .8-.2 1.1-.4v-.7c-.2.2-.6.4-1 .5zM34.6 10.1h-.7c.7.9 1 2 .9 3.1h.6c.1-1.1-.2-2.2-.8-3.1zM23.4 10h-.6c-.1.4-.4.7-.8.8v.6c.7-.3 1.2-.8 1.4-1.4zM24.9 11.8c.2 0 .5 0 .7-.1l.1.2h.5l-.3-1.1h-.5l.1.5c-.2.1-.4.1-.6.1h-.4l1.4-1.1h-.7l-.4.3h-.5l.7-.6h-.7l-.7.6v.3h.7l-.5.4h-.4c0-.1.1-.2.1-.3h-.6c-.1.4-.4.8-.8 1v.6c.2-.1.3-.2.5-.3v1.4h.4v-1.8h-.1c.1-.1.2-.3.3-.5v.4h.7c-.1.3-.4.5-.6.6v.5c.1-.1.3-.1.4-.2l.4.4c-.3.1-.5.1-.8.1v.5c.5 0 .9-.1 1.4-.3.5.2.9.2 1.4.3v-.5c-.3 0-.5 0-.8-.1.3-.2.5-.4.7-.7V12h-1.6c0-.1.1-.2.1-.2h.4zm.4.6c-.2.2-.4.4-.7.5-.2-.1-.3-.2-.5-.4h-.3l.1-.1h1.4zM29.9 11.7l.3 1.1c-.3.2-.6.2-.9.2h-.2l.6-3.2H29l-.5 3.2h-.2v.5h1c.3 0 .7-.1 1-.2l.1.3h.5l-.4-1.9h-.6zM28.4 12.1v-.5l-.5.1v-.8h.5v-.5h-.5v-.5h-.6v.5h-.6v.5h.6v1l-.6.1v.5l.6-.1v.6c0 .1-.1.1-.1.1h-.3v.5h.5c.3 0 .5-.2.5-.5v-.9c.2.1.4 0 .5-.1zM12.3 13.4h.2l1-1.7.6 1.9h1.1l-1.1-3.5h-.4l-1.4 2.1-1.3-2.1h-.4l-1.1 3.5h1.1l.5-1.9 1 1.7h.2zM9.4 11.6h-3c-.2 0-.3.1-.3.2 0 .2.1.3.2.3H8.2c-.4.6-1 1-1.8 1-1 0-1.9-.6-1.9-1.3s.9-1.3 1.9-1.3c.5 0 1 .1 1.4.4H9c-.7-.6-1.6-1-2.6-1-1.7 0-3.1.8-3.1 1.8s1.4 1.9 3.1 1.9 3.1-.9 3.1-1.8c0-.1 0-.1-.1-.2zM18.3 10c-1.7 0-3.1.8-3.1 1.8s1.4 1.8 3.1 1.8 3.1-.9 3.1-1.8S20 10 18.3 10zm0 3.1c-1 0-1.9-.6-1.9-1.3s.9-1.3 1.9-1.3 1.9.6 1.9 1.3c-.1.7-.9 1.3-1.9 1.3z"/></svg>