<svg xmlns="http://www.w3.org/2000/svg" role="img" viewBox="0 0 38 24" width="38" height="24" aria-labelledby="pi-gmoatokara"><title id="pi-gmoatokara">GMO Atokara</title><linearGradient id="pi-a" x1="13.333" x2="13.333" y1="-16.538" y2="-17.538" gradientTransform="matrix(33.885 0 0 -6.852 -432.775 -104.737)" gradientUnits="userSpaceOnUse"><stop offset="0" stop-color="#00a0af"/><stop offset="1" stop-color="#87c8aa"/></linearGradient><path d="M35 0H3C1.3 0 0 1.3 0 3v18c0 1.7 1.4 3 3 3h32c1.7 0 3-1.3 3-3V3c0-1.7-1.4-3-3-3z" opacity=".07"/><path fill="#fff" d="M35 1c1.1 0 2 .9 2 2v18c0 1.1-.9 2-2 2H3c-1.1 0-2-.9-2-2V3c0-1.1.9-2 2-2h32"/><path fill="url(#pi-a)" d="M9.798 11.266a.215.215 0 01-.215.215H8.499a.215.215 0 100 .43h.806a.215.215 0 110 .43h-.45a3.407 3.407 0 01-6.8-.345 3.406 3.406 0 016.294-1.806h.332a.215.215 0 110 .43h-.429a.215.215 0 100 .43h1.326a.215.215 0 01.22.21v.006zm-.529-.646h.145a.215.215 0 100-.43h-.142a.215.215 0 100 .43h-.003zm19.784-.713c.1 0 .181.081.182.181v4.694c0 .1-.082.181-.182.181h-1.124a.181.181 0 01-.181-.181v-3.6h-1.234l-.289 3.6a.2.2 0 01-.2.181h-1.12a.168.168 0 01-.168-.166v-.015l.289-3.6h-.925a.181.181 0 01-.181-.181v-.913c0-.1.081-.181.181-.181h1.027l.056-.7a.2.2 0 01.2-.181h1.124c.092 0 .167.074.168.166v.015l-.056.7h2.433zm2.083-.88c-.1 0-.181.081-.181.181v.913c0 .1.081.181.181.181h4.621c.1 0 .181-.081.181-.181v-.913c0-.1-.081-.181-.181-.181h-4.621zm-11.206.181c0-.1-.081-.181-.181-.181h-1.124c-.1 0-.181.081-.181.181v5.574c0 .1.081.181.181.181h1.124c.1 0 .181-.081.181-.181V12.82l2.755.1a.175.175 0 00.181-.169v-.919a.188.188 0 00-.181-.188l-2.755-.1V9.208zm-8.432-.181c-.1 0-.18.081-.181.181v.913c0 .1.081.181.181.181h3.836l-.287 1.629a.152.152 0 00.123.177c.009.002.018.002.027.002h1.124a.216.216 0 00.213-.179l.481-2.727a.152.152 0 00-.123-.177c-.009-.002-.018-.002-.027-.002l-5.367.002zm.812 5.758a.152.152 0 00.123.177c.009.002.018.002.027.002h1.124a.216.216 0 00.213-.179l.557-3.181a.152.152 0 00-.123-.177c-.009-.002-.018-.002-.027-.002H13.08a.216.216 0 00-.213.179l-.557 3.181zm18.826-3.8c-.1 0-.181.081-.181.181v.913c0 .1.081.181.181.181h3.118l-.35 2.519a.158.158 0 00.157.18h1.124a.21.21 0 00.208-.179l.545-3.616a.155.155 0 00-.155-.179h-4.647z"/></svg>