<svg xmlns="http://www.w3.org/2000/svg" role="img" viewBox="0 0 38 24" width="38" height="24" aria-labelledby="pi-gmobanktransfer"><title id="pi-gmobanktransfer">GMO Bank Transfer</title><rect fill="#fff" x="1" y="1" width="36" height="22" rx="2" ry="2"/><path d="M35 1c1.1 0 2 .9 2 2v18c0 1.1-.9 2-2 2H3c-1.1 0-2-.9-2-2V3c0-1.1.9-2 2-2h32m0-1H3C1.35 0 0 1.35 0 3v18c0 1.65 1.35 3 3 3h32c1.65 0 3-1.35 3-3V3c0-1.65-1.35-3-3-3z" opacity=".07"/><path fill="#13375e" d="M25.5 6V4h-17v9.52c0 .81.67 1.48 1.48 1.48h.52V6h15z"/><path fill="#2b618e" d="M12.5 13.5V8h15V6h-17v9.52c0 .81.67 1.48 1.48 1.48h.52v-3.5z"/><path fill="#79a0a5" d="M28.02 19H13.98c-.81 0-1.48-.67-1.48-1.48v1c0 .81.67 1.48 1.48 1.48h14.04c.81 0 1.48-.67 1.48-1.48v-1c0 .81-.67 1.48-1.48 1.48z"/><path fill="#0589d3" d="M27.5 8h-15v2h17V8h-2zM12.5 17v.52c0 .81.67 1.48 1.48 1.48h14.04c.81 0 1.48-.67 1.48-1.48V14h-17v3zm13.77-1.98h.59v1.41h.01c.06-.12.13-.24.2-.36l.67-1.05h.71l-.94 1.33.98 1.78h-.68l-.72-1.38-.23.31v1.06h-.59v-3.11zm-2.88 0h.65l.66 1.26c.17.31.34.69.46 1.02-.04-.4-.05-.84-.05-1.34v-.93h.54v3.11h-.6l-.67-1.29c-.17-.32-.35-.7-.48-1.04h-.02c.02.38.04.82.04 1.38v.95h-.54v-3.11zm-2.03 0h.75l.87 3.11h-.63l-.22-.82h-.83l-.21.82h-.61l.88-3.11zm-3.19.04c.18-.04.48-.06.79-.06.38 0 .64.05.86.2.19.13.3.33.3.59 0 .28-.17.55-.5.67v.02c.35.09.61.36.61.76 0 .24-.1.48-.28.64-.21.19-.56.29-1.11.29-.3 0-.52-.02-.66-.04v-3.06z"/><path fill="#0589d3" d="M21.86 16.15c-.05-.19-.1-.44-.14-.63h-.01c-.04.19-.09.45-.14.63l-.19.71h.66l-.19-.71zM12.5 13h17v.5h-17zM19.6 17.21c0-.36-.31-.49-.61-.49h-.22v.97c.06.01.13.02.24.02.32 0 .6-.15.6-.5zM19.53 15.85c0-.31-.23-.41-.5-.41-.13 0-.21 0-.26.02v.83h.22c.34 0 .54-.18.54-.44z"/><path fill="#fff" d="M12.5 13.5h17v.5h-17zM12.5 13h17v-3h-17v3zm15-2.5h1v2h-1v-2zm-1.5 0h1v2h-1v-2zm-1.5 0h1v2h-1v-2zm-1.5 0h1v2h-1v-2zm-1.5 0h1v2h-1v-2z"/><path fill="#c9caca" d="M21.5 10.5h1v2h-1zM23 10.5h1v2h-1zM24.5 10.5h1v2h-1zM26 10.5h1v2h-1zM27.5 10.5h1v2h-1z"/><path fill="#fff" d="M19.95 17.87c.18-.16.28-.4.28-.64 0-.4-.26-.67-.61-.76v-.02c.33-.12.5-.39.5-.67a.72.72 0 00-.3-.59c-.21-.15-.48-.2-.86-.2-.3 0-.61.03-.79.06v3.06c.15.02.37.04.66.04.55 0 .9-.1 1.11-.29zm-1.18-2.41c.05-.01.13-.02.26-.02.27 0 .5.1.5.41 0 .25-.2.44-.54.44h-.22v-.83zm0 1.26h.22c.31 0 .61.13.61.49s-.27.5-.6.5c-.11 0-.18 0-.24-.02v-.97zM21.3 17.31h.83l.22.82h.63l-.87-3.11h-.75l-.88 3.11h.61l.21-.82zm.27-1.16c.04-.18.1-.44.14-.63h.01c.04.19.09.44.14.63l.19.71h-.66l.19-.71zM23.93 17.18c0-.55-.01-.99-.04-1.38h.02c.13.34.31.72.48 1.04l.67 1.29h.6v-3.11h-.54v.93c0 .51.02.95.05 1.34-.12-.32-.3-.7-.46-1.02l-.66-1.26h-.65v3.11h.54v-.95zM26.86 17.07l.23-.31.72 1.38h.68l-.98-1.78.94-1.33h-.71l-.67 1.05c-.07.12-.13.23-.2.36h-.01v-1.41h-.59v3.11h.59v-1.06z"/></svg>