<svg xmlns="http://www.w3.org/2000/svg" role="img" viewBox="0 0 38 24" width="38" height="24" aria-labelledby="pi-gmovirtualaccount"><title id="pi-gmovirtualaccount">GMO VirtualAccount</title><path opacity=".07" d="M35 0H3C1.3 0 0 1.3 0 3v18c0 1.7 1.4 3 3 3h32c1.7 0 3-1.3 3-3V3c0-1.7-1.4-3-3-3z"/><path fill="#fff" d="M35 1c1.1 0 2 .9 2 2v18c0 1.1-.9 2-2 2H3c-1.1 0-2-.9-2-2V3c0-1.1.9-2 2-2h32"/><g fill="#fff"><path d="M14 8c-3.58-1.17-8.34 0-7.75 3.38 0 0-5.66.3-3.87 5.66s10.13 2.38 9.8 2.38c0 0 1.79 2.38 7.75 2.38 4.12 0 7.6-2.2 8.2-2.82.1-.1.15-.16.15-.16s5.57 1.37 7.25-2.58c2.38-5.96-4.77-10.13-10.13-8.34-5.36 1.79-12.22.89-12.22.99z" stroke="#3fa9f5" stroke-linejoin="round" stroke-width="1.7"/><path d="M13.04 5.49h12.47v10.25H13.04z"/></g><path d="M13.42 5.24v10.5m5.77-10.5v10.5m5.76-10.5v10.5" fill="none" stroke="#1b5aa8" stroke-miterlimit="10" stroke-width="3.2"/><path d="M19.35 1.5l9.33 4.03c.31.13.21.59-.12.59H9.9c-.33 0-.43-.46-.12-.59L19.1 1.5h.24z" fill="#1c5aa8"/><path fill="#b9000a" stroke="#1b5aa8" stroke-linecap="round" stroke-miterlimit="3" stroke-width="1.8" d="M10.86 15.73h16.65"/></svg>
