<svg viewBox="0 0 38 24" width="38" height="24" role="img" aria-labelledby="pi-gnosis" xml:space="preserve" xmlns="http://www.w3.org/2000/svg"><title id="pi-gnosis">Gnosis</title><rect width="38" height="24" rx="3" fill-opacity=".07"/><rect x="1" y="1" width="36" height="22" rx="2" fill="#fff"/><g transform="matrix(.0191 0 0 .0191 9.448 2.448)"><path fill="#3e6957" d="M324.2 559.1c24.6 0 48.5-8.2 67.9-23.2L236.5 380.2c-37.5 48.5-28.7 118.1 19.8 155.6 19.5 14.7 43.3 22.9 67.9 22.9zm462.5-111c0-24.6-8.2-48.5-23.2-67.9L607.9 535.8c48.5 37.5 118.1 28.7 155.6-19.8 15-19.4 23.2-43.3 23.2-67.9z"/><path fill="#3e6957" d="m865.2 278.8-68.9 68.9c55.3 66.6 46.8 165.2-19.8 220.8-58.4 48.8-142.7 48.8-201 0L500 644l-75.4-75.4c-66.6 55.3-165.2 46.8-220.8-19.8-48.8-58.4-48.8-142.7 0-201l-35.2-35.2-33.4-33.8c-40.6 66.6-61.8 143-61.8 221.2 0 235.5 191.1 426.6 426.6 426.6 235.5 0 426.6-191.1 426.6-426.6.4-77.8-21.5-154.6-61.4-221.2Z"/><path fill="#3e6957" d="M808.6 205.5C646.1 35.1 376.1 28.7 205.8 191.1c-5.1 4.8-9.9 9.6-14.3 14.3-10.6 11.3-20.5 22.9-30 34.8L500 578.8l338.6-338.6c-9.2-12.2-19.5-23.8-30-34.7zM500 129c99.7 0 192.5 38.6 262.5 108.5L500 500 237.5 237.5C307.2 167.2 400.3 129 500 129Z"/></g></svg>
