<svg width="38" height="24" viewBox="0 0 38 24" fill="none" xmlns="http://www.w3.org/2000/svg" role="img" aria-labelledby="pi-goldensachs"><title id="pi-goldensachs">Golden Sachs</title><g clip-path="url(#pi-goldensachs-clip0_10420_219309)"><path opacity=".07" d="M35 0H3C1.3 0 0 1.3 0 3v18c0 1.7 1.4 3 3 3h32c1.7 0 3-1.3 3-3V3c0-1.7-1.4-3-3-3z" fill="#000"/><path d="M35 1c1.1 0 2 .9 2 2v18c0 1.1-.9 2-2 2H3c-1.1 0-2-.9-2-2V3c0-1.1.9-2 2-2h32z" fill="#fff"/><path d="M11.345 7.292c-1.073 0-1.735.81-1.735 2.192 0 1.37.662 2.19 1.735 2.19s1.735-.81 1.735-2.19c0-1.381-.65-2.192-1.735-2.192zm0 4.132c-.41 0-.536-.445-.536-1.952 0-1.506.125-1.951.536-1.951.411 0 .537.456.537 1.963 0 1.495-.126 1.94-.537 1.94zm7.91 2.066c-.457 0-.788.17-.982.467v-1.506H17.12v2.796c0 1.518-.867 2.237-1.655 2.237-.582 0-.822-.4-.822-1.769 0-1.37.149-1.986.617-1.986.308 0 .57.297.833.982h.285v-1.016a3.15 3.15 0 00-1.095-.206c-1.176 0-1.838.845-1.838 2.226 0 1.37.662 2.146 1.78 2.146.925 0 1.587-.491 1.895-1.324v1.22h1.153v-3.103c0-.48.262-.72.536-.72.263 0 .354.217.354.548v3.287h1.153V14.7c0-.856-.423-1.21-1.062-1.21zm-5.467-7.236v5.318h1.152V6.254h-1.152zm4.154 0v1.45c-.103-.252-.354-.412-.753-.412-.902 0-1.507.81-1.507 2.169 0 1.392.536 2.202 1.46 2.202.435 0 .731-.205.868-.627v.525h1.073V6.254h-1.141zm-.57 5.079c-.366 0-.492-.366-.492-1.884 0-1.426.126-1.848.514-1.848.422 0 .57.502.57 1.848 0 1.358-.193 1.883-.593 1.883zm6.687-4.04c-.514 0-.89.273-1.05.65-.16-.434-.48-.65-.936-.65-.49 0-.844.216-1.015.57v-.468h-1.073v4.177h1.141V8.456c0-.479.228-.719.514-.719.24 0 .342.194.342.525v3.31h1.153V8.456c0-.479.228-.719.513-.719.24 0 .343.194.343.525v3.31h1.152v-3.07c0-.856-.433-1.21-1.084-1.21zm-.947 8.023l-.662-.4c-.445-.262-.605-.422-.605-.696 0-.308.217-.502.582-.502.434 0 .753.285.947.981h.286v-1.073a5.594 5.594 0 00-1.142-.148c-.924 0-1.483.457-1.483 1.198 0 .514.285.868.867 1.222l.548.33c.456.274.616.468.616.777 0 .4-.251.605-.685.605-.536 0-.844-.343-1.05-1.096h-.285v1.175c.422.114.867.16 1.233.16 1.05 0 1.654-.49 1.654-1.312-.01-.56-.285-.902-.821-1.221zm4.394-8.024c-.434 0-.948.08-1.427.229v.981h.285c.24-.616.56-.959 1.016-.959.286 0 .4.137.4.457v.536c0 .263-.069.343-.366.445l-.308.103c-.913.308-1.324.708-1.324 1.427 0 .764.457 1.164 1.119 1.164.468 0 .867-.206.993-.605v.502h1.05V8.536c-.012-.821-.502-1.244-1.438-1.244zm.274 3.162c0 .547-.183.799-.468.799-.274 0-.366-.217-.366-.777v-.114c0-.65.137-.913.514-1.107l.32-.16v1.359zm4.154-3.162c-.502 0-.867.217-1.05.571v-.468H29.8v4.177h1.152V8.445c0-.48.263-.719.537-.719.262 0 .354.217.354.548v3.287h1.152V8.502c0-.856-.422-1.21-1.061-1.21zM9.12 15.977c0 1.073-.776 1.792-2.02 1.792H5.274v-1.906h.274c.25 1.13.719 1.632 1.506 1.632.64 0 .982-.342.982-.901 0-.594-.366-.868-.902-1.176l-.81-.48c-.685-.399-1.073-.89-1.073-1.574 0-.765.445-1.256 1.164-1.46-1.016-.275-1.381-1.2-1.381-2.843 0-1.871.776-2.921 2.362-2.921H8.87v1.575h-.286c-.342-1.005-.639-1.313-1.175-1.313-.788 0-1.005.845-1.005 2.705 0 2.146.194 2.625.777 2.625.445 0 .661-.285.661-.959v-.821c0-.503-.16-.685-.684-.765v-.263h1.757v4.486h-.262c-.4-1.13-.913-1.381-1.484-1.381-.56 0-.901.262-.901.776 0 .48.285.707.821 1.027l.879.525c.696.434 1.153.833 1.153 1.62zm2.214-2.488a5 5 0 00-1.427.229v.981h.286c.24-.616.559-.958 1.015-.958.286 0 .4.136.4.456v.525c0 .263-.069.343-.366.445l-.308.103c-.913.308-1.324.707-1.324 1.427 0 .764.457 1.164 1.119 1.164.468 0 .867-.206.993-.605v.502h1.038v-3.013c0-.833-.502-1.255-1.426-1.255zm.274 3.162c0 .548-.183.799-.468.799-.274 0-.365-.217-.365-.776v-.114c0-.651.136-.913.513-1.107l.32-.16v1.358z" fill="#000" fill-opacity=".95"/></g><defs><clipPath id="pi-goldensachs-clip0_10420_219309"><path fill="#fff" d="M0 0h38v24H0z"/></clipPath></defs></svg>