<svg xmlns="http://www.w3.org/2000/svg" width="38" height="24" viewBox="0 0 38 24" version="1.1" aria-labelledby="pi-gosettle" role="img"><title id="pi-gosettle">goSettle</title><path fill="#000" opacity=".07" d="M35 0H3C1.3 0 0 1.3 0 3v18c0 1.7 1.4 3 3 3h32c1.7 0 3-1.3 3-3V3c0-1.7-1.4-3-3-3z"/><path fill="#295d4e" d="M35 1c1.1 0 2 .9 2 2v18c0 1.1-.9 2-2 2H3c-1.1 0-2-.9-2-2V3c0-1.1.9-2 2-2h32" fill-rule="evenodd" fill-opacity="1"/><path d="M26.41 2.266h-9.015L12.73 9.21l3.02 3.918 6.621-9.547 3.059 4.117-4.899 7.04h5.88l4.269-6.235zm0 0" fill-rule="evenodd" fill="#fff" fill-opacity="1"/><path d="M11.613 14.738h9.016l4.898-7.105-3.156-4.051-6.621 9.547-3.02-3.918 4.762-6.945h-5.879L7.34 8.504zm0 0" fill-rule="evenodd" fill="#69b57e" fill-opacity="1"/><path d="M9.21 21.688c-.42 0-.765-.079-1.019-.235a.907.907 0 01-.449-.656h.828c.082.21.293.316.63.316.468 0 .698-.199.698-.597v-.313h-.02a1.092 1.092 0 01-.82.336 1.39 1.39 0 01-.968-.375c-.277-.246-.414-.578-.414-.992 0-.422.129-.766.379-1.02.254-.254.582-.379.98-.379.38 0 .672.125.871.38h.012v-.301h.805v2.644c0 .371-.13.66-.375.871-.254.211-.633.32-1.137.32zM9.2 19.93c.25 0 .433-.075.558-.22a.844.844 0 00.183-.558.815.815 0 00-.195-.554c-.129-.149-.312-.22-.555-.22a.648.648 0 00-.507.212c-.13.14-.196.332-.196.57 0 .242.067.43.196.567.125.136.3.203.515.203zm4.73.433c-.309.285-.7.43-1.184.43-.48 0-.875-.145-1.184-.43a1.428 1.428 0 01-.457-1.082c0-.433.153-.793.457-1.082.31-.285.704-.43 1.184-.43.484 0 .875.145 1.184.43.308.29.46.649.46 1.082 0 .434-.152.793-.46 1.082zm-1.184-.148c.25 0 .445-.086.586-.254.14-.168.211-.395.211-.68 0-.281-.07-.508-.211-.68-.14-.171-.336-.257-.586-.257-.254 0-.45.086-.586.254-.14.172-.21.398-.21.683 0 .285.07.512.21.68.137.168.332.254.586.254zm3.794.585c-.595 0-1.052-.113-1.38-.343-.324-.227-.496-.555-.515-.98h.87c.028.238.122.41.282.515.156.102.39.156.707.156.246 0 .453-.043.61-.125a.414.414 0 00.241-.386.566.566 0 00-.027-.172.296.296 0 00-.117-.137 2.13 2.13 0 00-.145-.094 1.027 1.027 0 00-.226-.078l-.254-.062c-.055-.012-.164-.035-.316-.07a10.59 10.59 0 01-.465-.106 2.913 2.913 0 01-.399-.14 1.234 1.234 0 01-.344-.212.987.987 0 01-.297-.727c0-.382.157-.679.465-.882.31-.207.711-.309 1.215-.309.5 0 .899.106 1.196.325.297.215.46.523.496.918h-.852a.608.608 0 00-.265-.446.998.998 0 00-.579-.156c-.242 0-.437.043-.578.129-.14.086-.21.2-.21.34 0 .152.07.262.21.336.14.07.387.14.742.21.215.04.387.079.524.114.133.035.281.086.437.152.157.063.278.137.368.215.09.078.16.18.218.309a1 1 0 01.09.445c0 .395-.156.703-.472.926-.313.223-.723.336-1.23.336zm3.644-.003c-.504 0-.903-.145-1.192-.43-.293-.285-.437-.648-.437-1.09 0-.43.144-.785.437-1.074.29-.289.66-.43 1.113-.43.497 0 .875.153 1.149.465.27.313.402.73.402 1.258H19.38c.031.227.113.402.25.527s.316.188.55.188c.31 0 .512-.117.61-.352h.82a1.13 1.13 0 01-.464.668c-.25.18-.57.27-.961.27zm-.067-2.442c-.406 0-.648.204-.73.614h1.398a.66.66 0 00-.203-.446.672.672 0 00-.465-.168zm1.68-.003v-.504h.433v-.895h.817v.895h.539v.504h-.54v1.515c0 .192.106.285.313.285l.246-.004v.559a8.8 8.8 0 01-.523.012 1.1 1.1 0 01-.605-.16c-.165-.106-.247-.282-.247-.528v-1.68zm1.973 0v-.504h.433v-.895h.817v.895h.539v.504h-.54v1.515c0 .192.102.285.313.285l.242-.004v.559a8.814 8.814 0 01-.52.012c-.241 0-.44-.055-.605-.16-.164-.106-.246-.282-.246-.528v-1.68zM26 20.71v-3.987h.832v3.988zm2.86.087c-.505 0-.903-.145-1.192-.43-.293-.285-.438-.648-.438-1.09 0-.43.145-.785.438-1.074.289-.289.66-.43 1.113-.43.496 0 .875.153 1.145.465.27.313.406.73.406 1.258h-2.277c.03.227.113.402.25.527.133.125.316.188.55.188.31 0 .508-.117.61-.352h.82a1.12 1.12 0 01-.469.668c-.246.18-.57.27-.957.27zm-.067-2.442c-.406 0-.648.204-.73.614h1.398a.678.678 0 00-.203-.446.672.672 0 00-.465-.168zm0 0" fill-rule="nonzero" fill="#fff" fill-opacity="1"/></svg>