<svg width="38" height="24" viewBox="0 0 38 24" fill="none" xmlns="http://www.w3.org/2000/svg" role="img" aria-labelledby="pi-halotel"><title id="pi-halotel">Halotel</title><g clip-path="url(#pi-halotel-clip0)"><path d="M35 .5H3A2.5 2.5 0 00.5 3v18A2.5 2.5 0 003 23.5h32a2.5 2.5 0 002.5-2.5V3A2.5 2.5 0 0035 .5z" stroke="#000" stroke-opacity=".07"/><g clip-path="url(#pi-halotel-clip1)"><rect x="1" y="1" width="36" height="22" rx="2" fill="#fff"/><path d="M1 1h36v22H1V1z" fill="#FEFEFE"/><path d="M1 1h36v22H1V1z" fill="#FEFEFE"/><path d="M13.482 9.983l.497.092.45.16.118.092v4.996h-.876l-.213-.023-.024-.16v-.253l-.615.298-.261.07-.237.045h-.592l-.379-.069-.355-.137-.332-.184-.308-.275-.237-.229-.236-.344-.19-.39-.142-.48-.047-.252v-.528l.07-.39.12-.389.189-.366.213-.321.284-.298.237-.206.308-.184.331-.137.403-.092.166-.023h.426l.379.069.474.183.284.16.07.024v-.436l.025-.023zM29.681 10.006h.45l.38.069.378.138.38.206.307.252.237.252.237.344.19.39.118.389.07.504-.023.412-.023.115-3.837.023.118.298.142.252.237.252.308.183.26.092.285.023h.379l.355-.046.19-.091h.165l.284.16.308.298.166.229-.047.092-.356.206-.402.16-.474.092-.284.023h-.332l-.52-.069-.356-.114-.403-.207-.237-.183-.236-.23-.237-.32-.213-.367-.166-.48-.071-.345-.024-.206v-.252l.047-.413.095-.366.142-.344.19-.32.19-.253.355-.344.236-.16.38-.183.26-.092.402-.069zM4.813 7.554h.047l.024 2.888.26-.138.332-.16.308-.092.474-.069.355.023.403.092.379.16.331.207.308.252.237.252.213.32.166.344.118.39.048.573V15.3l-.024.023H7.774L7.75 15.3l-.047-2.819-.071-.366-.143-.321-.19-.252-.26-.207-.331-.16-.142-.046h-.498l-.308.092-.307.206-.237.252-.166.275-.095.252-.047.23-.024.343v2.544H3.818l-.023-.298V7.852l.379-.16.497-.115.142-.023zM20.776 10.556h.498l.284.138.284.252.213.229.285.39.189.366.118.367.095.504v.504l-.095.573-.118.275-.142.16-.26.161-.261.115-.38.091-.354.023h-.403l-.474-.091-.45-.16-.331-.184-.26-.184-.285-.252-.19-.252-.118-.275v-.275l.095-.39.118-.366.142-.32.166-.253.19-.23.19-.205.307-.23.355-.229.38-.183.212-.069zM34.158 7.554h.071v7.769h-1.066l-.023-.023-.024-1.398V7.875l.331-.16.45-.115.26-.046zM25.821 8.654h.024l.023 1.536h1.16l-.023.206-.142.412-.142.207-.024.022h-.829v2.223l.072.275.142.275.165.16.19.115.26.092.19.023.118.183.119.275.094.436v.206l-.118.023-.497-.046-.38-.069-.378-.16-.26-.183-.285-.252-.213-.275-.19-.39-.07-.298-.024-.138-.024-4.445.047-.138.308-.137.38-.092.307-.046zM16.347 7.577h.166l.024.138V15.3l-.024.023h-1.042l-.024-.115V7.852l.237-.115.38-.114.283-.046z" fill="#F4800A"/><path d="M11.753 11.106h.544l.285.092.236.137.261.23.213.32.119.298.047.23v.48l-.047.23-.119.298-.166.275-.284.275-.331.183-.26.069h-.404l-.284-.069-.237-.114-.213-.16-.166-.161-.165-.252-.119-.298-.07-.298v-.367l.07-.367.119-.274.213-.298.237-.23.237-.137.284-.092z" fill="#FEFEFE"/><path d="M20.942 9.135h.805l.498.115.355.137.331.184.308.229.214.206.236.321.214.367.19.458.117.39.095.343.024.275-.047-.023-.261-.55-.213-.366-.237-.298-.213-.23-.332-.251-.355-.207-.355-.137-.498-.115-.19-.023h-.615l-.474.07-.379.114-.284.114-.331.184-.26.206-.238.206-.236.252-.166.23-.19.297-.237.505-.047.114h-.024V12l.071-.55.166-.504.26-.482.167-.206.213-.229.236-.206.308-.206.403-.207.521-.183.45-.092z" fill="#F4800A"/><path d="M18.503 9.983l.023.046-.284.367-.19.298-.189.366-.118.344-.095.39-.024.183v.55l.095.435.119.344.189.367.213.344.26.32.238.23.284.206.379.206.379.16.45.115.355.046h.474l.568-.069.166-.023-.071.069-.45.206-.45.16-.545.115h-.426l-.474-.091-.379-.115-.403-.206-.284-.184-.26-.229-.19-.16-.19-.184-.26-.343-.142-.23-.19-.458-.118-.435-.047-.252v-.459l.095-.435.142-.367.19-.366.189-.275.236-.298.26-.275.332-.321.143-.092z" fill="#F4800A"/><path d="M22.529 10.694l.142.046.284.206.332.275.19.183.189.23.19.297.189.436.07.252.048.344v.733l-.071.435-.142.482-.142.32-.26.413-.261.275-.024.046h-.047l-.048.091-.26.207-.308.183-.355.16-.38.092-.284.046h-.568l-.64-.115-.615-.16-.237-.092v-.023h.237l.166.023h.947l.497-.114.308-.115.403-.206.284-.207.332-.32.26-.367.237-.435.166-.436.095-.458.023-.16v-.505l-.07-.458-.12-.39-.212-.458-.237-.367-.26-.298-.048-.091z" fill="#F4800A"/><path d="M29.634 11.106h.521l.332.115.237.137.213.184.166.229.142.275.047.16-.024.023h-2.7l-.023-.114.19-.367.189-.23.165-.16.332-.183.213-.069z" fill="#FEFEFE"/></g></g><defs><clipPath id="pi-halotel-clip0"><path fill="#fff" d="M0 0h38v24H0z"/></clipPath><clipPath id="pi-halotel-clip1"><rect x="1" y="1" width="36" height="22" rx="2" fill="#fff"/></clipPath></defs></svg>