<svg xmlns="http://www.w3.org/2000/svg" role="img" fill="none" viewBox="0 0 38 24" width="38" height="24" aria-labelledby="pi-hana_card"><title id="pi-hana_card">Hana Card</title><rect x="1" y="1" width="36" height="22" rx="2" fill="#fff"/><rect x=".5" y=".5" width="37" height="23" rx="2.5" stroke="#000" stroke-opacity=".07"/><path opacity=".72" d="M20.116 4.716a1.658 1.658 0 01-3.315 0c0-.916.73-1.61 1.657-1.707.244-.025.878 0 1.073.098.104.064.292.244.244.439a.71.71 0 00.097.39c.155.252.244.462.244.78z" fill="#ED1550"/><path fill-rule="evenodd" clip-rule="evenodd" d="M11.877 10.371C10.916 10.08 9 9.143 9 7.738c0-1.605 1.876-1.17 2.57-1.01l.16.035.087.018c.73.15 4.162.853 8.348.714 1.43-.052 4.739-.35 6.533-1.131 1.794-.78 2.21-.611 2.194-.43.195.44-.39.83-1.658 1.56-1.268.732-3.315 1.415-5.607 1.805-1.833.312-6.581.975-9.75 1.072zm4.777 6.387c.537 0 .927-.439.83-1.121a9.626 9.626 0 00-.043-.259c-.11-.644-.241-1.421.53-1.935.877-.585 1.643.292 1.706 1.17l.002.027c.05.702.18 2.5-.88 5.628-.363 1.073.927 1.089 1.853-.78.488-.78 1.463-2.818 1.463-4.729 0-2.389-1.268-3.559-2.78-4.047-1.51-.487-2.924.39-3.46 1.073-.537.683-.927 1.414-.878 2.584.049 1.17.487 2.389 1.657 2.389z" fill="#009B90"/></svg>