<svg xmlns="http://www.w3.org/2000/svg" viewBox="0 0 38 24" width="38" height="24" role="img" aria-labelledby="pi-helloclever"><title id="pi-helloclever">Hello Clever</title><path id="pi-helloclever" opacity=".07" d="M35 0H3C1.3 0 0 1.3 0 3v18c0 1.7 1.4 3 3 3h32c1.7 0 3-1.3 3-3V3c0-1.7-1.4-3-3-3Z"/><path d="M35 1c1.1 0 2 .9 2 2v18c0 1.1-.9 2-2 2H3c-1.1 0-2-.9-2-2V3c0-1.1.9-2 2-2h32Z" fill="#fff"/><path d="M9.408 17.541a5.132 5.132 0 1 0 0-10.265 5.132 5.132 0 0 0 0 10.265Z" fill="#3E64FF"/><path d="M8.762 12.89a.113.113 0 0 0 .105.025.114.114 0 0 0 .078-.074l.778-2.985a.106.106 0 0 0-.077-.13.11.11 0 0 0-.056 0l-2.943.79a.11.11 0 0 0-.077.075.106.106 0 0 0 .026.103l2.166 2.196Z" fill="#00F9FF"/><path d="M10.052 11.926a.112.112 0 0 0-.105-.025.114.114 0 0 0-.078.074L9.09 14.96a.106.106 0 0 0 .077.13.11.11 0 0 0 .056 0l2.944-.79a.11.11 0 0 0 .077-.075.107.107 0 0 0-.027-.103l-2.166-2.196Z" fill="#fff"/><path d="M23.629 11.995h-.541V8.113l.541.33v3.552Zm1.107 0h-.542V8.113l.542.33v3.552Zm-2.209-1.418c0 .088-.01.175-.025.261h-2.239a.705.705 0 0 0 .295.466c.152.102.34.153.56.153.323 0 .582-.088.78-.266l.453.266c-.114.172-.29.302-.526.393-.236.09-.472.136-.706.136a1.36 1.36 0 0 1-1.002-.408 1.363 1.363 0 0 1-.407-1.001c0-.386.138-.717.415-.994.277-.277.608-.415.994-.415.385 0 .716.138.993.415.277.277.415.608.415.994Zm-2.249-.267h1.68a.824.824 0 0 0-.316-.443.886.886 0 0 0-1.046 0 .82.82 0 0 0-.318.443Zm6.442 1.676a1.48 1.48 0 0 1-.74-.181 1.316 1.316 0 0 1-.5-.5 1.475 1.475 0 0 1-.18-.732c0-.273.06-.514.18-.724a1.28 1.28 0 0 1 .5-.494 1.49 1.49 0 0 1 .74-.179c.28 0 .526.06.738.18.215.117.382.282.5.493.122.21.182.451.182.724 0 .275-.06.52-.181.732-.12.212-.286.378-.5.5a1.465 1.465 0 0 1-.738.181Zm0-.476c.17 0 .32-.038.45-.115a.8.8 0 0 0 .304-.325c.073-.142.11-.307.11-.497 0-.187-.037-.35-.11-.488a.785.785 0 0 0-.304-.32.88.88 0 0 0-.45-.113.887.887 0 0 0-.449.113.788.788 0 0 0-.304.32 1.03 1.03 0 0 0-.11.488c0 .19.037.355.11.497a.809.809 0 0 0 .754.44Zm-8.113.49v-1.468c0-.237-.049-.416-.146-.539-.096-.122-.254-.183-.474-.183a.795.795 0 0 0-.383.087.633.633 0 0 0-.25.238.68.68 0 0 0-.087.345l-.253-.104a1.008 1.008 0 0 1 .543-.914c.17-.092.365-.139.584-.139.317 0 .564.095.74.286.177.188.265.451.265.79V12h-.539Zm-1.879 0V8.12h.539V12h-.539Zm1.406 3.937a.876.876 0 0 0 .79-.488l.47.236a1.405 1.405 0 0 1-1.26.78c-.389 0-.721-.137-.996-.412a1.358 1.358 0 0 1-.413-.997c0-.389.138-.72.413-.996.275-.276.607-.413.996-.413a1.405 1.405 0 0 1 1.259.78l-.468.237a.876.876 0 0 0-.79-.489.851.851 0 0 0-.625.257.848.848 0 0 0-.257.624.85.85 0 0 0 .257.625c.171.171.38.257.624.256Zm13.2.519v.01h-.522s.003-.814 0-1.289c0 0-.014-.331.038-.523.1-.376.32-.662.657-.856a1.403 1.403 0 0 1 1.48.046l-.288.439a.875.875 0 0 0-.928-.027.852.852 0 0 0-.413.534c-.028.104-.024.135-.024.388v1.278Zm-10.84.009h-.541v-3.882l.541.33v3.552Zm3.376-1.418c0 .088-.008.175-.024.261h-2.24a.706.706 0 0 0 .295.466c.153.102.34.154.561.154.322 0 .582-.09.78-.267l.453.267c-.114.17-.29.301-.526.392-.236.09-.472.136-.707.136a1.36 1.36 0 0 1-1.001-.408 1.362 1.362 0 0 1-.407-1.001c0-.386.138-.717.415-.994.276-.277.607-.415.993-.415s.717.138.994.415c.277.277.415.608.415.994Zm-2.248-.267h1.68a.824.824 0 0 0-.316-.443.885.885 0 0 0-1.364.443Zm4.031.992.845-2.134h.563l-1.142 2.818h-.528l-1.147-2.818h.568l.126.33.715 1.804Zm4.599-.725c0 .088-.01.175-.025.261h-2.239a.706.706 0 0 0 .294.466c.153.102.34.154.561.154.322 0 .582-.09.78-.267l.453.267c-.114.17-.29.301-.526.392-.236.09-.472.136-.707.136a1.36 1.36 0 0 1-1-.408 1.362 1.362 0 0 1-.408-1.001c0-.386.138-.717.415-.994.276-.277.608-.415.993-.415.386 0 .717.138.994.415.277.277.415.608.415.994Zm-2.249-.267h1.68a.824.824 0 0 0-.316-.443.885.885 0 0 0-1.364.443Z" fill="#1F253A"/></svg>