<svg width="38" height="24" viewBox="0 0 38 24" fill="none" role="img" aria-labelledby="pi-heylight" xmlns="http://www.w3.org/2000/svg"><title id="pi-heylight">HeyLight</title><rect x="1" y="1" width="36" height="22" rx="2" fill="#fff"/><rect x=".5" y=".5" width="37" height="23" rx="2.5" stroke="#000" stroke-opacity=".07"/><mask id="pi-heylight-mask0_950_562" style="mask-type:luminance" maskUnits="userSpaceOnUse" x="4" y="9" width="30" height="7"><path d="M33.21 9.25H4.79v6.417h28.42V9.25z" fill="#fff"/></mask><g mask="url(#mask0_950_562)"><mask id="pi-heylight-mask1_950_562" style="mask-type:luminance" maskUnits="userSpaceOnUse" x="4" y="9" width="30" height="7"><path d="M33.21 9.25H4.79v6.417h28.42V9.25z" fill="#fff"/></mask><g mask="url(#mask1_950_562)" fill="#000"><path d="M15.417 13.787l-1.149-3.179h-.834l1.35 3.7h.505l-.246.643h-1.266v.647h.995c.599 0 .918-.3 1.084-.752l1.553-4.238h-.832l-1.16 3.18zM21.689 9.25c-.297 0-.543.233-.543.514 0 .288.246.521.543.521.304 0 .55-.233.55-.52 0-.282-.246-.515-.55-.515zM22.093 10.608h-.81v3.7h.81v-3.7zM33.21 11.257v-.65h-1.019v-1.29h-.809v1.29h-.647v.65h.647v2.025c0 .598.458 1.026 1.082 1.026h.747v-.648h-1.02v-2.403h1.02zM18.562 9.316h-.83v4.992h3.134v-.712h-2.304v-4.28zM29.055 10.54c-.665 0-1.114.3-1.278.755V9.316h-.816v4.992h.816v-1.87c0-.763.373-1.238 1.073-1.238.571 0 .845.314.845.9v2.208h.816v-2.255c0-.943-.527-1.514-1.456-1.514zM11.676 10.54c-1.153 0-1.926.705-1.926 1.923 0 1.223.787 1.91 1.959 1.91 1.22 0 1.686-.747 1.783-1.3h-.815c-.069.345-.276.656-.938.656-.742 0-1.13-.394-1.156-1.031h2.911v-.354c0-1.027-.616-1.805-1.818-1.805zm-1.092 1.551c.021-.443.295-.905 1.06-.905.764 0 1.04.462 1.062.905h-2.122zM8.445 11.408H5.627V9.316H4.79v4.992h.837v-2.185h2.818v2.185h.837V9.316h-.837v2.092zM25.623 11.234c-.252-.434-.712-.695-1.322-.695-.89 0-1.776.552-1.776 1.805 0 1.256.885 1.801 1.781 1.801.62 0 1.095-.26 1.27-.714v.561c0 .659-.291 1.018-1.103 1.018-.665 0-.951-.24-1.016-.701h-.907c.086.847.743 1.358 1.899 1.358 1.277 0 1.942-.625 1.942-1.716v-3.343h-.619l-.15.626zm-1.158 2.259c-.595 0-1.13-.317-1.13-1.146 0-.826.535-1.147 1.13-1.147.596 0 1.132.314 1.132 1.14 0 .83-.536 1.153-1.132 1.153z"/></g></g></svg>