<svg xmlns="http://www.w3.org/2000/svg" role="img" viewBox="0 0 38 24" width="38" height="24" aria-labelledby="pi-hitrustpaytransfer"><title id="pi-hitrustpaytransfer">Hitrustpay Transfer</title><g clip-path="url(#pi-hitrustpaytransfer-a)"><path opacity=".07" d="M35 0H3C1.3 0 0 1.3 0 3v18c0 1.7 1.4 3 3 3h32c1.7 0 3-1.3 3-3V3c0-1.7-1.4-3-3-3Z" fill="#000"/><path d="M35 1c1.1 0 2 .9 2 2v18c0 1.1-.9 2-2 2H3c-1.1 0-2-.9-2-2V3c0-1.1.9-2 2-2h32Z" fill="#fff"/><path d="M20.057 2.825c.037.019.06.052.085.055a7.86 7.86 0 0 1 2.111.563 8.36 8.36 0 0 1 1.691.955c.559.402 1.067.87 1.513 1.393.502.591.93 1.239 1.277 1.951.32.655.573 1.335.724 2.053.097.463.167.936.207 1.408.038.457.053.921.026 1.379a9.396 9.396 0 0 1-.672 2.999 9.756 9.756 0 0 1-.789 1.54 8.74 8.74 0 0 1-3.144 2.986 7.625 7.625 0 0 1-1.926.772 9.697 9.697 0 0 1-1.32.221c-.43.042-.863.051-1.294.028a6.406 6.406 0 0 1-1.788-.335c-.47-.167-.941-.339-1.39-.559a6.81 6.81 0 0 1-1.605-1.081c-.324-.29-.634-.594-.931-.911a8.407 8.407 0 0 1-1.166-1.67 9.267 9.267 0 0 1-.753-1.813c-.162-.55-.298-1.109-.334-1.685a17.389 17.389 0 0 1-.049-1.693c.022-.647.12-1.29.312-1.907.156-.5.318-1.003.524-1.481.26-.614.6-1.19 1.015-1.711.274-.341.552-.681.854-.994a7.955 7.955 0 0 1 1.566-1.242 8.238 8.238 0 0 1 1.688-.798 7.553 7.553 0 0 1 1.606-.368c.019-.002.037-.021.055-.043.631-.012 1.262-.012 1.907-.012Zm3.529 15.412c.333-.326.673-.643.995-.981.171-.179.322-.384.463-.592.322-.473.597-.977.82-1.504.35-.832.556-1.718.611-2.619a8.15 8.15 0 0 0-1.222-4.927 6.9 6.9 0 0 0-1.047-1.315c-.226-.218-.445-.447-.69-.637a7.746 7.746 0 0 0-1.422-.882 6.776 6.776 0 0 0-2.456-.651 6.914 6.914 0 0 0-1.914.113 7.17 7.17 0 0 0-2.709 1.188 7.77 7.77 0 0 0-1.527 1.452c-.352.437-.655.91-.905 1.412a7.98 7.98 0 0 0-.838 3.107 8.429 8.429 0 0 0 .107 2.068 8.226 8.226 0 0 0 1.096 2.852c.381.61.845 1.166 1.378 1.651.451.411.935.772 1.471 1.037.429.212.873.394 1.323.547.559.19 1.14.277 1.729.281.21.002.422.015.631-.003.351-.031.704-.064 1.05-.131a6.656 6.656 0 0 0 1.604-.543 7.736 7.736 0 0 0 1.452-.923ZM2.407 10.22c.019-.033.042-.05.056-.073.12-.188.213-.407.364-.56a3.42 3.42 0 0 1 .681-.525c.813-.481 1.696-.754 2.606-.93a30.71 30.71 0 0 1 1.56-.255c.288-.041.58-.049.871-.062.341-.015.682-.021 1.024-.031h.157v2.009c-.045.004-.088.008-.132.01-.39.01-.783 0-1.172.034-.538.047-1.073.124-1.609.193-.68.088-1.345.252-1.996.472-.59.198-1.158.457-1.668.839-.058.043-.104.102-.18.177.226.154.435.316.661.446.726.417 1.512.656 2.314.833.449.099.905.161 1.359.236.171.027.343.046.534.07v-.983l.036-.021 1.893 2.109-1.887 1.923-.035-.018v-.742c0-.243-.003-.229-.229-.266a50.832 50.832 0 0 1-1.898-.339 7.248 7.248 0 0 1-2.179-.816c-.436-.251-.836-.557-1.06-1.056a.361.361 0 0 0-.061-.094c-.01-.854-.01-1.711-.01-2.58Zm33.405 3.52c-.015.02-.04.021-.044.032-.21.572-.65.891-1.128 1.167-.796.457-1.653.716-2.536.889-.517.1-1.037.183-1.559.255-.288.041-.581.049-.871.062-.341.015-.683.021-1.024.03-.049.002-.097 0-.157 0v-2.008c.045-.004.089-.008.132-.01.391-.01.783 0 1.172-.034.538-.047 1.074-.124 1.61-.193 1.262-.163 2.632-.538 3.664-1.311.057-.043.104-.102.179-.177-.226-.154-.435-.317-.662-.447-.726-.416-1.512-.655-2.314-.832-.449-.1-.905-.161-1.359-.236-.171-.027-.343-.045-.533-.07v.984l-.036.02-1.893-2.11 1.887-1.923.035.019v.786c0 .211.002.195.202.222.425.056.848.128 1.272.196a9.526 9.526 0 0 1 1.75.463c.542.199 1.069.434 1.533.806.265.212.493.454.62.789.007.02.027.036.05.052.01.853.01 1.709.01 2.579Z" fill="#8B1D36"/><path d="M18.799 15.112v-.22c-.226-.045-.442-.076-.653-.132-.547-.144-.976-.466-1.236-1.007-.104-.216-.196-.446-.189-.709l.806-.098c.191-.024.382-.046.571-.075.103-.017.171-.03.194.126.06.385.208.584.495.718.004-.034.011-.066.011-.097.001-.385-.002-.769.002-1.153.001-.092-.029-.131-.113-.16-.289-.096-.581-.19-.861-.311-.457-.198-.753-.57-.859-1.078-.09-.436-.056-.869.172-1.27.267-.47.669-.713 1.155-.822.157-.035.318-.052.496-.08l.015-.368h.579l.018.381c.606.037 1.161.192 1.557.716.162.215.271.466.309.756-.453.079-.897.156-1.34.235-.08.014-.107-.032-.132-.105-.093-.268-.182-.372-.393-.471-.003.044-.009.085-.009.125-.001.274.006.548-.003.821-.005.134.046.178.159.211.442.134.885.274 1.269.557.339.25.526.606.601 1.029.191 1.079-.619 2.059-1.57 2.191-.145.02-.29.046-.456.072 0 .197-.006.397.001.597.005.124-.032.177-.153.167-.112-.009-.225-.003-.338-.001-.074.001-.106-.035-.105-.113v-.432Zm.598-1.37c.013.009.028.028.038.025a.68.68 0 0 0 .429-.268c.118-.166.171-.344.075-.545-.111-.237-.308-.335-.544-.412 0 .408 0 .791.002 1.2Zm-.939-3.167c.092.101.172.219.331.232v-.945c-.305.028-.461.348-.331.713Z" fill="#8B1D36"/></g><defs><clipPath id="pi-hitrustpaytransfer-a"><path fill="#fff" d="M0 0h38v24H0z"/></clipPath></defs></svg>