<svg xmlns="http://www.w3.org/2000/svg" role="img" viewBox="0 0 38 24" width="38" height="24" aria-labelledby="pi-homecredit"><title id="pi-homecredit">Home Credit</title><path fill="#000" opacity=".07" d="M35 0H3C1.3 0 0 1.3 0 3v18c0 1.7 1.4 3 3 3h32c1.7 0 3-1.3 3-3V3c0-1.7-1.4-3-3-3z"/><path fill="#fff" d="M35 1c1.1 0 2 .9 2 2v18c0 1.1-.9 2-2 2H3c-1.1 0-2-.9-2-2V3c0-1.1.9-2 2-2h32"/><g fill="#dd1a32"><path d="M17.679 13.817v.96h2.338v1.114h-2.338v.913h2.67v1.138h-3.977v-5.263h3.977v1.138h-2.67zm7.178 1.478c0-.813-.658-1.439-1.516-1.439h-.805v2.909h.805c.858 0 1.516-.635 1.516-1.47zm1.324 0c0 1.563-1.184 2.647-2.84 2.647h-2.113v-5.263h2.113c1.656 0 2.84 1.076 2.84 2.616zm.719 2.647h1.308v-5.263H26.9v5.263zm6.317-4.094h-1.51v4.094h-1.3v-4.094h-1.508v-1.169h4.318v1.169zM8.771 16.047c-.201.485-.622.772-1.21.772-.859 0-1.455-.634-1.455-1.509 0-.874.596-1.509 1.455-1.509.588 0 1.009.288 1.21.772h1.386c-.272-1.202-1.261-1.995-2.588-1.995-1.587 0-2.786 1.146-2.786 2.732 0 1.587 1.199 2.732 2.786 2.732 1.328 0 2.316-.792 2.588-1.995H8.771zm1.075-9.858v5.262h-1.3V9.478H6.402v1.973H5.095V6.189h1.307v2.113h2.144V6.189h1.3zM24.881 11.451h-1.308V8.813l-1.168 1.803v.007h-.727v-.007l-1.176-1.819.007 2.654h-1.308V6.189h.975l1.866 2.809 1.864-2.809h.975v5.262zm2.393-4.124v.959h2.337V9.4h-2.337v.914h2.67v1.137h-3.978V6.189h3.978v1.138h-2.67zm-12.75-1.369c-2.081 0-3.768 1.607-3.768 3.589 0 .7.209 1.352.573 1.904h1.817a2.282 2.282 0 01-.91-1.823 2.287 2.287 0 014.575 0c0 .745-.358 1.405-.91 1.823h1.817a3.442 3.442 0 00.574-1.904c0-1.982-1.687-3.589-3.768-3.589z"/><path d="M13.288 10.135a1.31 1.31 0 001.235.904 1.31 1.31 0 001.236-.904h-2.471zM12.211 15.241h.967c.503 0 .897-.279.897-.712 0-.426-.394-.697-.897-.697h-.967v1.409zm1.996 2.701l-.998-1.525h-.998v1.525h-1.308v-5.263h2.298c1.308 0 2.182.712 2.182 1.85 0 .689-.332 1.245-.889 1.57l1.237 1.843h-1.524z"/></g></svg>
