<svg width="38" height="24" viewBox="0 0 38 24" fill="none" role="img" aria-labelledby="pi-horsesandgifts" xmlns="http://www.w3.org/2000/svg"><title id="pi-horsesandgifts">Horses and Gifts</title><path opacity=".07" d="M35 0H3C1.3 0 0 1.3 0 3v18c0 1.7 1.4 3 3 3h32c1.7 0 3-1.3 3-3V3c0-1.7-1.4-3-3-3z" fill="#000"/><path d="M35 1c1.1 0 2 .9 2 2v18c0 1.1-.9 2-2 2H3c-1.1 0-2-.9-2-2V3c0-1.1.9-2 2-2z" fill="#fff7ee" display="inline" fill-opacity="1"/><path d="M10.864 10.588v.051c0 .153-.026.28-.026.434 0 .204.026.382.128.56 0 .026.025.052.025.052h.051v-.026c0-.025-.025-.05-.025-.076-.026-.077-.077-.23-.051-.357 0 .025 0 .025.025.05.026.103.077.18.128.256 0 .025.025.025.05.025 0-.05 0-.102-.025-.153 0-.05 0-.102-.025-.153a.193.193 0 00.102.051c.025-.025 0-.076 0-.102-.026-.127-.051-.23-.051-.357 0-.05 0-.102-.026-.153 0-.025 0-.025.026-.076.025 0 .05.05.076.076.077.102.102.23.128.357l.076.306c0 .026.026.051.026.077.102.127.178.306.23.459.076.178.127.357.178.535.05.179.102.357.153.51.05.128.076.28.127.408.026.102.102.204.179.306a.457.457 0 00.178.128c.128.025.255.076.382.153.077.025.153.05.23 0 .05-.026.127-.051.178-.077a.343.343 0 00.179-.153c.076-.102.153-.204.204-.306a.426.426 0 00.025-.306c-.025-.05-.05-.127-.102-.178a.965.965 0 01-.102-.23c0-.025-.025-.05-.025-.076-.026-.077-.102-.204-.153-.332l-.077-.153-.076-.23c-.026-.05 0-.05.025-.076.026-.025.051-.025.077-.05.153-.077.255-.205.331-.383.102-.204.102-.408.102-.638 0-.178-.05-.331-.076-.484 0-.026 0-.051.025-.077.077-.025.153-.05.23 0 .076.051.153.102.178.204 0 .026.026.051.026.077.102.28.153.56.204.841.05.28.127.536.178.816.026.128.051.23.026.357-.026.077-.051.128-.051.204-.051.153-.102.332-.153.51-.026.102-.026.23-.026.332 0 .127-.025.229-.025.357 0 .127 0 .254.025.382.026.127.077.255.102.382 0 .026.026.077.026.128a.362.362 0 01-.051.153c-.102.076-.179.178-.28.28a5.099 5.099 0 00-.485.561 2.633 2.633 0 01-.638.536 1.053 1.053 0 00-.28.178.623.623 0 00-.23.28c-.05.103-.076.23-.127.332-.051.153-.102.332-.153.485-.076.178-.127.382-.23.56a.922.922 0 00-.101.23c-.026.051-.051.076-.051.102-.026.025-.026.051-.051.076-.051.128-.102.23-.179.357-.05.077-.05.179-.05.255.025.153.025.332.025.485 0 .153-.026.28-.077.408-.025.102-.05.204-.076.331-.026.204-.077.434-.102.638v.025c0 .077.05.128.127.102.051 0 .077-.025.128-.05.102-.052.178-.103.28-.18.128-.076.23-.178.332-.28l.05-.05a.712.712 0 00.154-.46c0-.153-.077-.255-.179-.357-.051-.05-.076-.076-.051-.153.026-.127.077-.255.128-.357 0-.025.025-.05.025-.05.051-.128.077-.23.051-.358 0-.102 0-.178.026-.28.05-.128.076-.255.127-.382.051-.128.102-.23.153-.357a.998.998 0 01.204-.255c.076-.077.153-.128.204-.204l.408-.408c.076-.077.153-.102.23-.153.152-.077.33-.153.484-.23.382-.178.74-.357 1.122-.56.05-.026.127-.052.178-.103a.838.838 0 01.434-.102h.331c.102 0 .102.026.128.102.025.179.05.357.102.51.05.204.076.408.152.612 0 .026.026.077.051.102.051.102.051.204.077.332l.076.535c.026.204.077.382.153.561.026.076.077.178.102.255.051.178.077.331.102.51.026.204.026.408.051.612 0 .127 0 .28-.05.408a.917.917 0 00-.052.28c0 .153-.025.28-.025.434 0 .178-.102.306-.23.433-.05.051-.127.077-.178.128-.051.05-.076.102-.127.153-.077.102-.128.204-.204.331-.051.077-.077.128-.128.204-.05.076-.025.127.026.178.025.026.025.026.05.026.077.025.154.051.256.051h.356c.026 0 .077-.026.102-.026.204-.05.383-.152.536-.305.076-.051.102-.153.127-.23 0-.05.026-.102.026-.153a.43.43 0 00-.077-.255.193.193 0 01-.05-.102c-.026-.076-.026-.153.025-.204.05-.05.076-.102.127-.178 0-.026.026-.026.026-.051.05-.102.102-.179.153-.28.025-.077.025-.154.025-.23-.025-.179-.076-.357-.102-.536-.025-.153-.05-.306-.05-.484-.052-.306 0-.612 0-.918 0-.28 0-.586-.026-.867v-.076c-.026-.102 0-.204.025-.306.026-.23.051-.46.051-.689.026-.255.051-.535.077-.79 0-.051 0-.102.025-.153v-.051c0-.077.026-.077.102-.077.051 0 .128 0 .179-.025l.841-.077h.893c.178 0 .331 0 .484-.025.076 0 .127-.026.204-.026.178-.025.357-.076.51-.102.025 0 .076-.025.102-.025.102-.051.23-.102.331-.153.051-.026.102-.077.179-.102a1.6 1.6 0 00.306-.28c.05-.077.127-.154.178-.23 0-.026.026-.026.051-.026.026 0 .026.026.026.051 0 .077.025.179.025.255.026.204.077.434.102.638 0 .076.026.127.026.204.025.153.076.306.102.433l.076.153c.051.102.128.204.179.306.05.077.127.153.178.204a.193.193 0 01.051.102v.026c.026.306 0 .586 0 .892 0 .077 0 .179-.05.255-.026.026-.026.051-.052.102-.025.026-.05.077-.076.102-.026.051-.077.102-.128.153l-.306.306c-.102.102-.178.204-.28.306a1.132 1.132 0 01-.28.204c-.052.025-.103.076-.154.102-.076.05-.127.127-.178.204-.051.102-.077.204-.128.306-.05.153-.127.28-.204.408-.076.102-.153.178-.23.28-.025.051-.076.102-.101.153a.763.763 0 00-.102.204c-.077.128-.128.28-.204.434-.026.025-.026.05-.026.076 0 .051 0 .077.051.077.051.025.128.025.179.025.23 0 .433-.025.663-.076a.508.508 0 00.306-.204l.153-.153c.05-.051.076-.128.102-.179a.198.198 0 00-.051-.204.592.592 0 00-.102-.127c-.077-.102-.051-.179.025-.255a.555.555 0 01.204-.128c.051-.025.102-.05.128-.102a.764.764 0 00.102-.204l.076-.153c.077-.153.204-.306.332-.408.102-.102.204-.178.28-.306.077-.076.179-.153.255-.23.102-.101.23-.178.332-.28.102-.102.23-.203.331-.305.051-.051.102-.077.153-.128.026-.025.026-.051.026-.051.025-.076.05-.153.076-.204v-.025c0-.026.026-.026.051 0 .026.025.026.05.026.076.025.051.025.128.025.179.026.127.077.229.127.356.051.128.102.255.102.408v.23c0 .127 0 .255-.025.382 0 .077-.025.153-.025.23v.102a.29.29 0 01-.077.204.533.533 0 01-.102.153c-.051.076-.051.153-.051.255 0 .102-.025.178-.025.28a.473.473 0 01-.179.306c-.076.077-.153.128-.23.204-.05.026-.076.077-.101.128l-.23.459c-.025.05-.025.05.026.076.102.077.23.102.331.128.204.025.434.025.638-.051a.602.602 0 00.229-.153c.051-.077.102-.128.127-.204.026-.026.026-.051.026-.102v-.128c0-.076-.026-.127-.077-.204-.025-.025-.05-.076-.076-.102-.026-.05-.051-.076 0-.127a.45.45 0 01.127-.179c.077-.05.128-.127.179-.204a.411.411 0 00.076-.23v-.458c0-.255-.025-.51 0-.79.026-.154.026-.307.077-.485l.076-.306c.051-.204.077-.433.077-.663a.327.327 0 00-.102-.255c-.077-.05-.128-.127-.204-.178a1.637 1.637 0 00-.332-.255c-.05-.051-.102-.102-.127-.179a.763.763 0 01-.102-.204c-.051-.127-.127-.23-.178-.357-.204-.025-.204-.025-.153-.076.076-.077.153-.153.255-.23.076-.05.127-.127.178-.178.102-.102.178-.204.28-.306.077-.077.153-.153.23-.255.025-.026.05-.077.076-.102.051-.102.128-.179.179-.306.05-.077.076-.179.127-.255.077-.179.153-.332.204-.51a3.23 3.23 0 00.051-.994 2.964 2.964 0 00-.102-.46c-.025-.076-.05-.127-.05-.203v-.051c.025.05.05.076.076.102.05.05.076.102.127.153l.077.076.076.077c.077.178.128.357.128.535v1.504c0 .026.025.026.05.026.026-.026.077-.026.103-.051a.608.608 0 00.153-.28c.025-.077.05-.154.076-.205v.026c0 .255.026.51.026.74 0 .203.025.382.05.586 0 .23.026.433.103.637 0 .026.025.077.05.077.026 0 .052-.051.052-.077.025-.025.025-.05.05-.05.026.025.026.05.026.076.051.127.077.255.102.382.026.102.077.204.128.306.025.026.025.051.076.051 0-.025 0-.05-.025-.102-.026-.076-.077-.153-.077-.204a.906.906 0 01-.05-.255c-.077-.331-.077-.688-.103-1.045v-.79c0 .05 0 .101.026.178.025.23.05.433.076.663l.077.535c.025.153.05.332.076.485.051.204.128.408.23.586.05.077.102.153.153.23.025.05.076.076.127.102v-.051c-.102-.153-.178-.306-.255-.46a.473.473 0 01-.05-.178v-.05l.025.025.153.23c.025.025.05.05.076.101 0 .026.026.026.051 0 0-.025 0-.05-.025-.102-.051-.127-.102-.23-.153-.357a3.54 3.54 0 01-.204-.688c-.026-.153-.026-.332-.026-.485 0-.178.026-.357.026-.56.025-.205.05-.409.05-.638.026-.179.026-.357.026-.535v-1.148c0-.255-.05-.51-.153-.74a4.116 4.116 0 00-.255-.458c-.255-.306-.586-.434-.969-.434-.204 0-.408.077-.612.153-.153.051-.28.128-.433.204a.436.436 0 01-.357 0c-.102-.05-.23-.076-.331-.127a2.412 2.412 0 00-.842-.128h-.28c-.179.026-.383.051-.561.077-.28.05-.561.102-.816.127-.28.051-.587.077-.867.102-.128 0-.23.026-.357.026-.23 0-.433-.026-.663-.051a4.818 4.818 0 01-1.045-.255c-.128-.051-.255-.077-.383-.128-.178-.05-.331-.153-.484-.255a.878.878 0 01-.306-.306c-.128-.178-.255-.356-.383-.51a2.73 2.73 0 00-.356-.407c-.102-.102-.204-.23-.306-.332a5.1 5.1 0 00-.561-.484 3.247 3.247 0 00-.485-.332 2.782 2.782 0 00-.892-.382c-.179-.051-.357-.051-.561-.051-.28 0-.561.076-.816.127a1.682 1.682 0 00-.688.306c-.153.102-.332.204-.485.332a1.715 1.715 0 00-.28.178c-.051.026-.051.026-.102-.025a2.829 2.829 0 01-.255-.28l-.23-.23a.231.231 0 00-.178-.077c-.077 0-.102 0-.077.077 0 .025.026.05.026.102.025.076.05.178.076.255.026.076.051.178.102.255 0 .025.026.05.026.102a.055.055 0 01-.051-.051c-.026-.026-.051-.077-.077-.102a1.32 1.32 0 00-.153-.204c-.076-.102-.153-.153-.23-.23l-.025-.025c-.025 0-.05 0-.05.025v.051c.025.077.05.153.076.255.025.128.076.255.102.357.05.128.102.255.178.383a.36.36 0 01.051.178c0 .026.026.077 0 .128l-.076.382v.025c0 .204-.026.383-.077.561-.025.077-.025.128-.05.204-.026.102 0 .23.025.332a.533.533 0 00.102.153c0 .025.025.025.05.025a2.015 2.015 0 01-.05-.408" fill="#3a3531"/><path d="M20.247 11.124s-1.046-.026-.893 4.462c0 0 .689.076 1.148-.051 0 0-.663-2.244.637-4.386" fill="#d5a686"/><path d="M20.655 11.277s1.733-.102 3.187-.867c1.351-.714 2.447-3.162 1.02-4.64-3.188-3.315-4.717 3.697-4.207 5.507zm3.085-4.13c1.402 1.835-2.932 3.926-2.932 3.926l.025-.102s1.504-5.686 2.907-3.825z" fill="#d5a686"/><path d="M20.349 11.251s.127-1.759-.153-3.416c-.28-1.53-1.607-3.238-2.627-2.193-2.32 2.32 1.658 5.66 2.78 5.61zm-1.99-4.003c1.225-.892 1.939 3.748 1.913 3.748l-.05-.05s-3.06-2.83-1.862-3.698z" fill="#d5a686"/><path d="M20.527 11.914a.201.201 0 01-.204-.204V1.613a.2.2 0 01.204-.203.2.2 0 01.204.203v10.072c.026.127-.076.23-.204.23z" fill="#d5a686"/></svg>