<svg xmlns="http://www.w3.org/2000/svg" width="38" height="24" role="img" aria-labelledby="pi-hsbcukversion" viewBox="0 0 38 24"><title id="pi-hsbcukversion">HSBC Bank (UK version)</title><g clip-path="url(#pi-hsbcukversion0_3333_85)"><mask id="pi-hsbcukversion0_3333_85" width="38" height="24" x="0" y="0" maskUnits="userSpaceOnUse" style="mask-type:luminance"><path fill="#fff" d="M0 0h38v24H0V0z"/></mask><g mask="url(#pi-hsbcukversion0_3333_85)"><path d="M35 0H3C1.3 0 0 1.3 0 3v18c0 1.7 1.4 3 3 3h32c1.7 0 3-1.3 3-3V3c0-1.7-1.4-3-3-3z" opacity=".07"/><path fill="#fff" d="M35 1c1.1 0 2 .9 2 2v18c0 1.1-.9 2-2 2H3c-1.1 0-2-.9-2-2V3c0-1.1.9-2 2-2h32z"/></g><g clip-path="url(#pi-hsbcukversion1_3333_85)"><path fill="#fff" d="M13.862 8.752H7.36l-3.252 3.252 3.252 3.251h6.503l3.26-3.251-3.26-3.252z"/><path fill="#DB0011" d="m17.122 12.004-3.26-3.252v6.503l3.26-3.251zm-6.512 0 3.252-3.252H7.36l3.252 3.252zm-6.503 0 3.252 3.251V8.752l-3.252 3.252z"/><path fill="#DB0011" d="m10.61 12.003-3.25 3.252h6.503l-3.251-3.252z"/><path d="M19.976 12.202h-1.179v1.163h-.589v-2.723h.59v1.117h1.178v-1.117h.589v2.723h-.59v-1.163zm2.004 1.217c-.589 0-1.071-.237-1.079-.888h.59c.007.291.175.467.497.467.237 0 .512-.122.512-.39 0-.214-.183-.276-.49-.367l-.198-.054c-.429-.122-.857-.29-.857-.78 0-.605.566-.811 1.079-.811.528 0 .987.183.994.788h-.589c-.023-.245-.168-.39-.444-.39-.222 0-.436.114-.436.36 0 .198.184.26.566.382l.23.069c.467.145.765.306.765.765 0 .612-.604.849-1.14.849zm1.47-2.777h.948c.176-.008.36 0 .535.03.33.077.582.291.582.658 0 .352-.222.528-.543.612.367.07.642.253.642.658 0 .62-.612.758-1.086.758h-1.071l-.008-2.716zm.948 1.132c.26 0 .528-.053.528-.367 0-.283-.245-.36-.49-.36h-.413v.727h.375zm.053 1.186c.276 0 .544-.061.544-.398 0-.336-.23-.398-.513-.398h-.467v.796h.436zm2.701.459c-.88 0-1.27-.559-1.27-1.393s.436-1.438 1.3-1.438c.544 0 1.072.245 1.087.857h-.612c-.03-.276-.214-.413-.474-.413-.536 0-.696.573-.696 1.01 0 .436.16.94.673.94.268 0 .467-.145.505-.42h.612c-.061.627-.559.857-1.125.857zm3.26-.008c-.674 0-1.04-.375-1.04-1.04v-1.73h.26v1.638c0 .214 0 .428.122.612.145.222.413.314.665.314.299 0 .59-.13.72-.413a1.16 1.16 0 0 0 .068-.513v-1.637h.26v1.721c-.015.65-.405 1.048-1.055 1.048zm1.576-2.769h.245v2.723h-.245v-2.723zm.26 1.247 1.216-1.247h.33l-1.248 1.231 1.377 1.5h-.336l-1.34-1.484z"/></g></g><defs><clipPath id="pi-hsbcukversion0_3333_85"><path fill="#fff" d="M0 0h38v24H0z"/></clipPath><clipPath id="pi-hsbcukversion1_3333_85"><path fill="#fff" d="M4 8.748h30v6.503H4z"/></clipPath></defs></svg>
