<svg xmlns="http://www.w3.org/2000/svg" role="img" viewBox="0 0 38 24" width="38" height="24" aria-labelledby="pi-hsbc"><title id="pi-hsbc">HSBC Bank</title><g clip-path="url(#pi-hsbc-a)"><path fill="#000" d="M35 0H3C1.3 0 0 1.3 0 3v18c0 1.7 1.4 3 3 3h32c1.7 0 3-1.3 3-3V3c0-1.7-1.4-3-3-3z" opacity=".07"/><path fill="#fff" d="M35 1c1.1 0 2 .9 2 2v18c0 1.1-.9 2-2 2H3c-1.1 0-2-.9-2-2V3c0-1.1.9-2 2-2h32z"/><path fill="#fff" d="M16.118 8H8.046v8.072h8.072V8z"/><path fill="#DB0011" d="M20.154 12.046L16.118 8v8.082l4.036-4.036zm-8.072 0L16.118 8H8.046l4.036 4.046zm-8.082 0l4.046 4.036V8L4 12.046z"/><path fill="#DB0011" d="M12.082 12.046l-4.036 4.036h8.072l-4.036-4.036z"/><path fill="#000" d="M23.696 12.283h-1.462v1.444h-.732v-3.381h.732v1.386h1.462v-1.386h.731v3.38h-.73v-1.443zm2.498 1.51c-.732 0-1.33-.294-1.34-1.102h.732c.01.361.218.58.617.58.295 0 .637-.152.637-.485 0-.266-.228-.342-.608-.455l-.247-.067c-.532-.152-1.064-.36-1.064-.969 0-.75.703-1.006 1.34-1.006.655 0 1.224.228 1.234.978h-.732c-.028-.304-.208-.484-.55-.484-.276 0-.542.142-.542.446 0 .247.228.323.703.475l.285.085c.58.18.95.38.95.95-.01.76-.75 1.054-1.415 1.054zm1.823-3.438h1.178c.218-.01.446 0 .664.038.409.095.722.361.722.817 0 .437-.275.655-.674.76.456.085.798.313.798.816 0 .77-.76.94-1.349.94h-1.33l-.009-3.37zm1.178 1.406c.323 0 .655-.067.655-.456 0-.351-.304-.447-.608-.447h-.513v.903h.466zm.066 1.462c.342 0 .674-.076.674-.494 0-.417-.284-.493-.636-.493h-.58v.987h.542zm3.343.57c-1.092 0-1.576-.693-1.576-1.728 0-1.036.54-1.786 1.614-1.786.674 0 1.33.304 1.348 1.064h-.76c-.037-.342-.265-.513-.588-.513-.665 0-.864.712-.864 1.254 0 .54.2 1.168.836 1.168.332 0 .579-.18.626-.523H34c-.076.78-.693 1.064-1.396 1.064z"/></g><defs><clipPath id="pi-hsbc-a"><path fill="#fff" d="M0 0h38v24H0z"/></clipPath></defs></svg>