<svg xmlns="http://www.w3.org/2000/svg" role="img" viewBox="0 0 38 24" width="38" height="24" aria-labelledby="pi-huistuincadeau"><title id="pi-huistuincadeau">Huis &amp; Tuin Cadeau</title><path opacity="0.07" d="m35,0l-32,0c-1.7,0 -3,1.3 -3,3l0,18c0,1.7 1.4,3 3,3l32,0c1.7,0 3,-1.3 3,-3l0,-18c0,-1.7 -1.4,-3 -3,-3z"/><path d="m35,1c1.1,0 2,0.9 2,2l0,18c0,1.1 -0.9,2 -2,2l-32,0c-1.1,0 -2,-0.9 -2,-2l0,-18c0,-1.1 0.9,-2 2,-2l32,0" fill="#e19d33"/><path fill="#ffffff" d="m5.9,2.8l-0.2,0l0.2,0m-0.3,1.2l0,8.9l0.1,0.6l0,2.1a86,86 0 0 1 0,3.2l0.1,0.7l0,1.7l1.4,0l-0.2,0l6,0l-0.1,0l1.6,0l-0.1,0l4.8,0l-0.2,0l1.8,0l-0.1,0l1.7,0l-0.1,0l0.9,0l-0.2,0l0.8,0l-0.2,0l1.2,0l-0.2,0l2.2,0l-0.1,0l2.5,0l-0.7,0c0.1,0 0.5,-0.1 0.4,0l0.8,0c-0.1,0 -0.3,0 0,0l2.5,0l0,-1.2l0,0.2l0,-2.2l0,0.2l0,-0.8l0,0.2l0,-2.9l0,0.2l0,-3l0,0.4l0,-1.3l0,0.2l0,-0.6l0,0.2l0,-0.3l-0.2,0l0,-5.9c0,0.2 0,0 0.1,0l0,-0.2l0,0.2l0,-1.6l-1.5,0s-0.2,0 0,0l-3.6,0s-0.2,0 0,0l-1.2,0c-0.2,0 0.6,0 0.3,-0.1l-0.1,0c-0.2,0 0.4,0 0,0l-0.8,0l0.2,0l-0.6,0c0.2,0 0,0 0,0l-0.2,0s-0.4,0 0,0l-0.6,0s0.4,0 0,0l-0.2,0c-0.2,0 -0.2,0 0,0l-1.8,0l0.4,0l-1.4,0l0.3,0l-0.8,0l0.3,0l-1.6,0l0.2,0l-0.2,0c0.2,0 -0.1,0 0,0l-1.4,0l0.1,0l-0.5,0l0.3,0l-0.6,0l0.1,0l-0.5,0l0.2,0l-0.9,0l0.5,0l-0.6,0l0.2,0l-0.6,0c-0.2,0 0,0 0,0l-1,0l1.3,0l-0.4,-0.1l-1.1,0c-0.1,0 0,0 0,0l-1.6,0l0.4,0.1c-0.1,0 0,0 0,0l-0.6,0c0.4,0 0.1,0 0.2,-0.1l-3.2,0l0.1,0l-0.8,0l0.1,0l-0.9,0l0.2,0l-1.4,0s-0.1,-0.1 -0.2,0l0.6,-0.1c0.2,0 -0.2,0 0,0l0.4,0l-0.2,0l0.2,0l-0.2,0l0.6,0c-0.2,0 0,0 0,0l1.6,0l-0.6,0l8.6,0l-0.2,0l5.6,0l3.5,-0.1l3.5,0l-0.1,0l2.4,0l0,1.3l0,-0.1c0,-0.1 0,-0.1 0,0l0,14.8l0,-0.2l0,1.6l0,-0.2l0,1.4l-7.3,0l-8.3,0.3l-8.3,0a8,8 0 0 0 -1.3,0l-1.6,0l0,-2.3c0,0.1 0.1,0.2 0.1,0l0,-16.3l0.1,1.1m0.6,-1.2l0.1,0l-0.1,0m6.2,0.2l-0.1,0m1.6,0l-0.5,0l0.5,0zm1.6,0l0.2,0l-0.2,0m3.2,0l0.3,0l-0.3,0m1.5,0l0.1,0l-0.1,0zm11.9,14.8l0,-0.1l0,0.1zm-8.3,3.3l-0.2,0l0.2,0m-6.4,0l0,0.1l0,-0.1zm15,0.5l0.2,0l-0.2,0"/><path fill="#ffffff" d="m32.8,20.4l0,-9.3s0,0.1 0,0l0,-2.6l-0.1,-3.3l0,-1.8l0,0.1l0,-0.9l-0.8,0a2,2 0 0 0 -0.7,0l0.2,0l-6.1,0l0.2,-0.1l-1,0l0.2,0l-0.9,0l0.1,0l-0.5,0l-1.2,0.1l-3.3,0l0.2,0l-0.3,0l0.2,0l-1.7,0c0.2,0 -0.2,0 0,0l-2.6,0l0.1,0l-0.7,0l0.1,0l-1.2,0l0.2,0l-1.5,0s0,0.1 0,0l-0.7,0l0.1,0l-1.7,0l-0.5,0.1l-0.4,0l0.7,0l-1.2,0c0.1,0 0.2,0 0,0l-1.4,0l0,-0.1l-1.2,0l0,1.1l0,-0.1l0,2.1l0,-0.1l0,3.8l0,-0.4l0,1.5l0.1,0.3l0,1.4l0,-0.3l0,1.1l0,-0.3l0,0.6l0,-0.1l0,6.7c0,-0.3 0,0 0,0l0,0.2l0,-0.2l0,1.1l0.1,0.1l0,0.4l1.3,0s0.2,0 0,0l3.8,0c-0.1,0 0.1,0 0,0l0.6,0l-0.1,0l0.5,0c0.1,0 0,0 0,0l0.2,0c0.2,0 -0.6,0 -0.3,0.1l0.2,0c0.1,0 -0.5,0 0,0l0.1,0l0.7,-0.1l-0.3,0l0.9,0s0.3,0 0,0l0.6,0s-0.4,0 0,0l0.2,0c0.2,0 0.2,0 0,0l1.8,0l-0.4,0l1.4,0l-0.2,0l0.9,0l-0.3,0l1.6,0l-0.2,0.1l0.1,0c-0.2,0 0.1,0 0,0l1.5,0l-0.2,0l0.6,0c-0.3,0 0.3,0 0,0l-0.4,0l0.7,0l-0.1,0l0.6,0l-0.3,0l1,0l-0.5,0l0.6,0l-0.2,0l0.6,0c0.2,0 0,0 0,0l1.2,0l-1.5,0l0.4,0.1l1.2,0l-0.1,0l1.7,0l-0.3,-0.1l0.5,0l-0.1,0l4,0l-0.1,0l0.2,0l0,0.1l0.7,0l-0.2,0l1.8,0l-0.6,-0.1c-0.2,0 0.2,0 0,0l-0.5,0l0.3,0l-0.3,0l0.2,0l-0.6,0c0.2,0 0,0 0,0l-1.6,0l0.6,0l-9,0l0.2,0l-5.9,0l-3.5,0.1l-3.8,0l0.1,0l-2.6,0l0,-1.4l0,0.1l0,-15.3l0,0.1l0,-1.6l0,0.2l0,-0.6c0,-0.1 0,-0.1 0,0l0,-0.8l7.7,0l8.7,-0.1l11.5,0l0,2.4c0,-0.2 0,-0.2 0,0l0,10.7l-0.1,6l0,-1.1"/><path fill="#ffffff" d="m32.1,21.6l-0.1,0l0.1,0m-6.4,-0.1l0.1,0m-1.7,0l0.6,0l-0.6,0zm-1.6,-0.1l-0.3,0l0.3,0m-3.3,0l-0.4,0l0.4,0m-1.6,0zm-12.3,-15.4l0,0.2l0,-0.2zm8.6,-3.3l0.2,0l-0.2,0m6.7,-0.1l-0.1,0l0.1,0zm-15,9s0,0.1 0,0m26.3,0.1l-2.8,0c0,0.1 0,0 -0.1,0l-2,0c-0.1,0.1 -0.1,0 -0.2,0c0,0.1 -0.1,0 -0.2,0l-4.1,0l-0.3,0.1c0.1,0 0,0 0,0l-0.7,0l-0.2,0.1l-0.3,0l0.1,0l-1.4,0c0,0.1 0.4,0 0.2,0c0,0 -0.1,0.1 0,0l-0.5,0s-0.1,0 0,0l-1.2,0c-0.1,0 0,0 0,0l-0.4,0s0.2,0 0,0l-2.1,0l0.1,0l-2,0c-0.1,0 0,0 0,0l-1.2,0l-0.9,0.1l-0.2,0c-0.1,0 0,0 0,0l-0.2,0s0.2,0 0,-0.1c0,0 0.2,0 0,0c-0.1,0 0,0.1 -0.2,0c0,0 0.1,0 0,0l-0.1,0c-0.1,0 0,0 0,0c0,0.1 0,0 -0.2,0s0.1,0 0,0l-0.4,0s-0.1,0 0,0l-0.9,0l0,-0.1l0.1,0c0.1,0 0,0 0,0l-0.6,0s-0.1,0 0,0l0.1,0l-0.5,0l0.1,0l-0.5,0s-0.2,0 0,0l0.3,0l0,-0.1l-0.8,0s-0.2,0 0,0l0,0.1l-0.1,0c0.1,0 0,0 0,-0.1l-1.6,0l0.2,0l-0.1,0l0.7,0l-0.1,0l0.3,0c0.2,0 0,-0.1 0.1,-0.1l1.3,0c0.3,0 0.6,-0.1 0.8,0l-0.1,0l4.9,0l-0.1,0l3.3,0c0.1,-0.1 0.3,0 0.4,0l1,0s0.1,-0.1 0.2,0l1.9,0l0.5,-0.1l11.1,0l-0.3,0m-26.3,0.2s0.2,0 0,0m1.9,0.1"/><path fill="#ffffff" d="m8,11.8zm0.5,0c-0.1,0 0,0 0,0m0,0l0.1,0m0.8,0l0.1,0m0.4,0zm8,0zm5.4,0l0,-0.1l0,0.1zm-6.9,-0.6l0,-1.7l-0.1,-0.2c-0.1,0 0,0 0,0l0,-0.4l4.3,0l0.1,-0.1l0.8,0s0.1,-0.1 0.2,0l0.1,0c0.1,0 0,0 0,0l0.4,0l0,-0.1l0.2,0l-0.2,0l0.5,0l0,0.1l0.2,0c0,-0.1 0.2,0 0.2,0l1.5,0c0.1,0 0,0 0,0l0.2,0l0,0.2l3.2,0s-0.1,0 0,0l0.2,0s0.1,0 0,0c0.1,-0.1 0.1,0 0.2,0l0.7,0s0.1,0 0,0l0.5,0s0.1,0 0,0l0,0.1l0.2,0l0.1,-0.1s0,0.1 0.1,0c0.1,0 0,0 0,0l0.2,0l-0.2,0l0,0.1l0.6,0c-0.1,0 0,0 0,0l0.8,0l0,0.1l0.4,0l-0.6,0l0.2,0l-0.2,0l-0.1,0.1l-0.3,0l0,-0.2l-2.4,0l-0.6,0.1l-1.1,0l-0.1,0.1l-0.3,0s-0.1,0 0,0l-5.1,0l-1.7,0.1l-1.5,0a0.3,0.3 0 0 0 -0.2,0l-1.4,0l0,2.6a0.4,0.4 0 0 1 0,-0.3m14.1,-2.7l0.1,-0.1l-0.1,0l0,0.1zm-1.3,-0.1zm-5.5,0zm-3.8,0.1zm-7.4,-5.4l1.7,0l0,0.1l1.5,0l0,0.2l0.1,0l0.1,0.8c0,0.2 0,0.3 -0.2,0.5c0,0.1 -0.3,0 -0.4,0.2l-0.3,0l-0.3,0.2c0,0.1 0,0.2 0.2,0.3l-0.1,0l0,3.1l0.1,0.4l0.7,0l0.3,0.1l0,1.6l-0.3,0a0.3,0.3 0 0 0 -0.2,0l-0.8,0l-0.5,-0.1l-2.4,0l-0.2,-0.1l0,-1.6l0.8,0l0.1,-0.3l0,-1c0,-0.2 -0.2,-0.2 -0.3,-0.3l-0.1,0.1l-0.5,0l-0.2,-0.2l-0.1,0l-0.2,0.4l-0.2,0l-0.3,0.1l-0.1,0.6l0.1,0.6c0,0.1 0.2,0 0.2,0.2l0.3,-0.1l0.3,0.1l0.1,0.4l0,1.1l-2,0l-1.1,0.1l-1.3,0l0,-1.7l1,0c0.2,0 0.3,-0.1 0.3,-0.3l0,-3.6l-0.3,-0.2l-0.6,0c-0.2,0 -0.3,-0.1 -0.3,-0.2a6,6 0 0 1 -0.1,-1.3c0,-0.3 0.7,-0.3 1,-0.3l0.1,0.3l0,-0.2l1.8,0c0.2,0 0,0 0,0l1.1,0c0,-0.2 0,-0.2 0.2,-0.2l0.4,0.1l0,1.8c-0.2,0 -0.3,0 -0.4,0.2l0,-0.1l-0.4,0l0,1.4c0,0.1 0,0.2 0.2,0.2l1.1,0c0.3,0 0.5,0 0.6,-0.2l0,-1.4l-0.8,0l-0.4,-0.2l0.1,0l-0.1,-0.3l0,-1.4l0.5,0l0.1,0.1l0.3,0c0,-0.1 0,0 0,0m-4.6,0.3l-0.1,0.2l0,0.3l0.1,0l0.1,-0.3l0,-0.1l-0.1,0l0,-0.1zm0.8,3.4l0,-0.1l0,0.1zm1.5,3zm0.3,-5.6l0,-0.1l-0.1,0l0.1,0.1m0.2,-0.3l0.1,-0.2l-0.1,0.2m2,1.3l0.2,-0.2l-0.1,0l0,0.2l-0.1,0zm0.4,3.3l0,-0.2l-0.1,0.1l0.1,0l0,0.1zm0,0.7l0,0.1l0,-0.1zm0.8,-4.7l-0.1,0l0.1,0zm0.5,0l0,0.2l0,-0.2zm0.2,4.7l0,-0.1c0,-0.1 0,0 0,0m0.1,-5l0,-0.4l0,0.2m1.1,6.2l0,-0.2l0,0.2m5.2,-5.2l-0.1,0l0.1,0.2l0,1.5l-0.1,0.2l-0.1,0.2l-0.3,0.4l-0.3,0.2l-0.2,0.1l-1,0.2l-0.3,0l-0.2,-0.3l0,-0.1l0.3,0l0,-0.2l-0.2,0.1l-0.1,-0.1l0.1,0l-0.1,-0.1l-0.4,0l0,0.3s-0.2,0 -0.3,0.2l0.3,0s0,0.2 0.2,0.2l-0.2,0l-0.4,-0.3c-0.3,0 -0.3,-0.3 -0.5,-0.5l0,-0.1c0,-0.1 0,-0.3 -0.2,-0.4l0,-1.5l0.1,-0.4l0,-0.2l-0.1,-0.2l0,-0.1c0,-0.1 0,-0.2 -0.2,-0.2l-0.4,0l0.1,-0.4l0,-0.4l0.1,0l0,0.2l0.1,0l0,-0.2l0.1,0.1l0.1,-0.2l0.1,0l0,0.2l0,-0.1c0.2,0 0.3,0 0.4,-0.2l-0.3,0l0.4,0l0,-0.1l0.3,0l-0.1,0.3l0,0.1l0.2,0l0,-0.2l0.1,-0.1l0.1,0l-0.2,0.2l0.1,0c0.1,0 0,0 0,0l0.1,0l0,0.1s0,-0.2 0.2,-0.2s0,0.2 0.2,0.2s0,0 0,-0.1l0,-0.3l0,0.1l0.6,0l0,1l-0.5,0l-0.1,0.2l0,1.5l-0.1,0l0,0.8l0.1,0.3l-0.1,0c-0.1,0 0,0.1 0,0.1l0,0.2l0.1,-0.2l0,0.1c0,0.1 0,0 0.1,0l0.5,0l0,0.3l0.2,-0.1l0,-0.1c0,-0.1 0,0 0,0l0,0.4l0.2,0l0,-0.5l0,0.2l0.2,0l0,-0.4l0.2,0l0,-2.9l-0.6,0l0,-1l0.3,0.2l0.1,0l0,0.2l0.2,0l0,-0.2l0.4,0l0.1,0.2l0.1,0l0,-0.2l-0.1,-0.1l0,-0.1l-0.1,-0.2c-0.1,0 0,0 0,0l0,0.2l-0.2,-0.1l0.1,0l0,-0.1l0.8,0l-0.2,0l0.1,0.3l0.1,0l0,0.5l-0.1,0c-0.1,0 -0.2,0 -0.3,0.2l0,0.2l0.1,-0.2l0.4,-0.2l0.2,-0.1l0,-0.2c0.2,0 0.3,-0.1 0.3,-0.2l0,-0.1l-0.1,0l0.1,0c0.1,0 0,0 0,0l0.1,0.2l0,0.8l-0.6,0l-0.1,0.2l0,1m-4.3,-2l-0.2,0l0.1,-0.1l0.1,0.1zm0.8,3.9l-0.1,-0.1l0,0.1m1,-3.5zm0.3,-0.5l0,0.1m0.7,3.8zm0.1,-3.9l0,0.2l0,-0.2zm0.2,0.2l0,-0.1c0,-0.1 0,0 0,0l0,-0.1l0.1,0l0,0.2l-0.1,0zm0,0zm0,0zm0,3.4l0.2,-0.1l-0.1,0m0.3,0.6c-0.1,0 0,0 0,0l0,0.1c0,0.1 0,0 0,0l0,-0.1zm0,0.2l0.2,0l-0.2,0m0.5,-0.4l-0.2,0.1l0.2,0l0,-0.1m-0.1,0l0,-0.2l0,0.1m0,-3.8l0,0.1l0.1,0l0,-0.1l-0.1,0m0.1,0.3l0,0.2l0.1,-0.2m0.3,-0.2l-0.1,0l0.1,0zm0,2zm0.2,-2l0,0.2c0,0.2 -0.1,0 -0.1,0l0,0.2l0,-0.2l0.1,0l0,-0.1l-0.1,-0.2l0.1,0l0,0.2m-0.2,1.8zm0.2,-1.8zm0.1,-0.2l0.1,0l0,0.1l-0.3,0l0.1,-0.1m3.3,5l-2,0l0,-0.1l-0.4,0l0,0.2a0.3,0.3 0 0 1 0,-0.2l0,-1l0.8,0l0.3,-0.1l0,-2.3c0,-0.2 0,0 0,0l0,-0.2l-0.1,-0.2l-0.8,0l0,-1l0.1,0l0,-0.1c0,-0.1 0,0 0,0l3.1,0l0,0.9l-0.6,0s-0.2,0 -0.2,0.2l0,2.5l0.2,0.1l0.5,0l0,1l-0.8,0l-0.1,0.3zm-1.1,-2.2l-0.1,0l0.1,0zm0.5,-0.6l0,-0.1l-0.1,0l0,0.1m0.2,-0.4l0.3,0l-0.3,-0.3l0,0.4m0.7,2.6l0,0.1l0,-0.1zm1.4,0.5l-0.1,0l-0.2,-0.2l0,-1.5c0.1,-0.2 0.3,-0.2 0.4,-0.2l0.5,0l-0.6,-0.6l-0.2,-0.2l0,-0.4l-0.1,-0.4c0,-0.3 0.1,-0.7 0.3,-1l0.2,-0.1c0.2,-0.1 0.3,-0.3 0.5,-0.3l0.2,-0.2l0.1,0.1l0.3,0c0,-0.1 0.2,0 0.2,0l0,0.5l-0.1,0.1c0,0.1 0,0 0,0l0.2,0l0,-0.5l0.8,0c0.1,0.2 0.3,0.1 0.3,0.3l0.2,0l0,-0.4l1.1,0l0,1.8l-0.7,0l-0.4,0.1l0.2,0.1c0.4,0 0.6,0.3 0.8,0.6c0.2,0.3 0.3,0.6 0.3,1c0,0.1 0,0.2 -0.2,0.3l-0.2,0.5c0,0.1 -0.1,0.2 -0.3,0.2l0,-0.2l-0.1,0.2l-0.3,0.2l-0.4,0l-0.2,0.1l-0.2,0l0,0.1l-0.3,0s-0.2,0 -0.2,-0.2l-0.2,0l-0.4,-0.1l-0.4,-0.2l-0.1,0.4l-0.7,0l0,0.1zm0,-4l0,-0.1m0,1.1l0,0.2l0.1,0l0,-0.1c-0.1,0 0,0 0,0m0.5,-0.6l0.2,0l-0.3,0s0,0.1 0.1,0m0.3,-0.4l-0.2,0l0.2,0m1.7,2.7l0,-0.1c0,-0.3 -0.2,-0.3 -0.3,-0.3l-0.5,0c0,-0.2 -0.3,-0.1 -0.4,-0.2l-0.6,0l0,0.3l0,-0.1l0.5,0.4l0.5,0.2l0.8,0m0.2,-2.1l-0.2,-0.3a0.3,0.3 0 0 0 -0.1,-0.1c-0.1,0 -0.2,0 -0.2,-0.2l-0.1,0a0.7,0.7 0 0 0 -0.4,0l-0.1,0l-0.1,-0.1l-0.4,0c-0.1,0 -0.3,0 -0.3,0.2l0.1,0.2l0.4,0c0.4,0 0.7,0.1 1,0.3l0.4,0m-1.6,1.1l0,-0.2l0,0.2m0.5,1.5l0.1,0l0,-0.1l-0.2,0m0.2,-4l0,-0.2l-0.1,0l0,0.1l0.2,0l-0.1,0m0.3,0.3l-0.1,0.1l0.1,-0.1zm0,2.4l0,0.1c0.1,0 0.1,0.1 0.1,0m0,1.6l0,0.1l0,-0.1zm0.3,-2.4l0,0.1l0.1,0m0,1.7l0,0.2l0,-0.2zm0.2,-0.1l-0.2,0.1l0.2,0l0,-0.1zm-0.1,-1.7l-0.1,0l0.1,0m0.1,-0.4l0.1,0l0,-0.1l-0.1,0m0.2,0.6l0,-0.2l0,0.2l0.2,0l0,-0.1l-0.2,0m0,2.2l0,-0.1l0,0.1m0.6,-3zm-19.6,11.3l0.7,0l0,1.1l-3.1,0l0,-1l0.6,0s0.2,-0.1 0.2,-0.3l0,-1l0.2,-0.1l-0.1,0l0,-1.4c0,-0.1 -0.1,-0.2 -0.3,-0.2l-0.3,0l-0.1,0.7l0,0.5l-1,0l0,-1.2l0.1,-0.1l-0.1,0l0,-0.8l0,0.2l0.2,0l0,-0.2l1,0l0.1,-0.1l2.5,0c0.2,0 0.2,0 0.2,0.2l0.2,-0.1l0.8,0l0,0.2l-0.1,0l0,0.2l0.1,0l0,1.7l-1,0l0,-0.9l-0.1,-0.1l0,-0.2l-0.3,0.1l-0.4,0.1l0,1.5l-0.1,0l0,1.2c0.1,-0.2 0.2,-0.1 0.2,0l-0.1,0zm-1,0.5zm0.3,-3.7c-0.1,0 0,0 0,0m0,0zm0.2,2.9l0,0.2l0,-0.2m0,-2zm0.2,2.8l0,0.1m0,0l0,0.1l0.2,0l-0.1,0l-0.1,-0.1zm0.4,0l0.1,0m2.6,-4.6l1.5,0l0,0.1l0.7,0l0,-0.1l0.1,0.1l0,0.4l-0.1,0l0,0.7l-0.2,0.1l-0.3,0l0,1.6l-0.1,0c-0.1,0 0,0 0,0l0,0.9l0.1,0.3l-0.1,0c-0.1,0 0,0 0,0l0,0.2l0.1,-0.2l0,0.2l0.6,0l0.1,0.2l0.1,0l0,-0.2l0,0.4l0.2,0l0,-0.4l0.1,0l0,0.2l0.1,0l0,-0.3l0.1,0l0.2,-0.1l0,-0.1c0,-0.1 0,0 0,0l0,-2.6l-0.6,0l-0.1,-0.1l0,-1l0.1,0l0.2,-0.1l0.1,0c0.1,0 0,0 0,0l0.1,0.2l0.1,0l0,-0.2l0.4,0l0,0.2l0.2,0l0,-0.4l0.8,0l0.3,0.1l0.1,0l0,-0.2l0.1,0.3l0,0.9l-0.1,0.2l-0.3,0l0,-0.1s-0.1,0.1 -0.2,0l-0.2,0.2l0,0.8l-0.1,0l0,0.2l-0.1,0.4l-0.1,0c-0.1,0 -0.2,0 -0.3,0.2l0.3,0l0.1,-0.2l0,0.2l0.2,-0.1l0,1l-0.1,0.2l0,0.1l-0.1,0.1l-0.3,0.5a1,1 0 0 1 -0.4,0.2l-0.1,0a2,2 0 0 1 -1,0.3l-0.4,-0.1l-0.3,0l-0.2,-0.1l-0.1,0l-0.4,-0.3c-0.3,0 -0.3,-0.3 -0.5,-0.5l0,-0.1c-0.1,-0.2 0,-0.3 -0.2,-0.4l0,-1.6l0.1,-0.4l0,-0.2l-0.1,-0.2l0,-0.1c0,-0.2 0,-0.2 -0.2,-0.2l-0.4,0l0,-1c0,-0.1 0.2,0 0.2,0l0.3,0l0,0.1l0.1,0l0,-0.1l0.3,0l-0.2,0m0.4,4l0,-0.1l-0.1,0l0.1,0.1m1.4,-4l0,0.1c0,0.1 0,0 0,0m0.7,3.9l-0.1,0l0.1,0zm0.3,-0.3l0.1,0m0,0l0,-0.1m0.3,0.7l0,-0.1c-0.1,0.1 0,0 0,0l0,0.1c0,0.1 0,0 0,0c0,0.1 0,0 0,0zm0.1,0.2l0.1,0l-0.2,0l0.1,0m0.4,-0.5s-0.2,0 -0.2,0.2l0.2,0l0,-0.2m0,0l0,-0.1l-0.1,0l0,0.1m0.2,-4l0,0.3l0,-0.2m0,2.5s0.1,0 0,0zm0.3,-0.1l0,0.2l0,-0.2m0,-0.4zm0,0zm0.6,-2.1zm1.3,4l0.2,-0.2l0,-2.7l-0.3,-0.1l-0.5,0l0,-1l0.2,-0.1l0.1,0l0,0.3l0.2,0l0,-0.3l0.2,0l0,0.1l2.5,0l0,-0.1l0.1,0.2l0,1l0,-0.1l-0.7,0l-0.3,0.2l0,2.4l0.1,0.1l0.6,0l0.2,0.1l0,0.2l-0.1,0.3l0,0.5l-0.1,0l0,0.1c0,0.1 0,0 0,0l-0.5,0c-0.1,0 0,0 0,0l-2.6,0l-0.1,-0.3l0,-0.7l0.7,0m-0.5,1l0,-0.2l0,0.1m2,-4.7l0,-0.1l0,0.1zm0.8,0zm3.2,8l-0.2,0l0,-0.1l-1.1,0l-0.3,0.1l-0.5,0l-0.3,-0.1l0,-1.5c0,-0.2 0,-0.3 0.2,-0.3l0.7,0l0.2,-0.3l0,-2.1l-0.1,-1.7c0,-0.2 -0.2,-0.2 -0.4,-0.3l0,-0.1c0,-0.1 0,0 0,0l-0.6,0l0,-0.1a0.3,0.3 0 0 1 0,-0.2l0,-1.3l0.2,-0.1l3.1,0c0,0.2 0.5,-0.2 0.8,0l0.2,0s0.2,0 0.2,0.2s0.1,0.1 0.2,0.1l0.5,1l0.8,1l0,0.3l0.5,0.5c0.2,0.1 0,0.3 0.2,0.5c0.2,0 0,0.3 0.2,0.3l0.1,0.3c0.3,0 0,-0.4 0,-0.6l0,-0.3l0.1,-0.3l0.1,-0.1l0,-0.8l-0.2,-0.5l-0.4,0l-0.3,0.1l-0.3,0l0,-1.6s0,-0.2 0.2,-0.2l0.4,0.1c0.1,-0.1 0.2,0 0.4,0l0.2,0s0.1,0 0,0l2.8,0l0,1.1c0,0.4 0,0.6 -0.4,0.6l-0.6,0.1l-0.1,0.4l0,1.4l0.1,0.4l0,0.9l-0.1,0.5l0.1,0.2l0,1.4l-0.1,0.3l-0.1,0.2l0,0.1l0.1,0l0,0.3c0,0.1 0,0.2 -0.3,0.2l-0.8,0l-0.4,0.1l-0.6,0l-0.6,-0.9l-0.2,-0.5l-0.3,-0.4l-1.1,-1.7l-0.2,-0.2l0,-0.3l-0.8,-1l-0.2,-0.5l-0.2,-0.2c0,-0.2 -0.2,-0.1 -0.2,-0.1c-0.2,0 -0.1,0 -0.1,0.2l0,0.7l-0.1,0c0.1,0.4 0.2,0.8 0.1,1.2l0,1l0.1,0.8l0.9,0l0.1,1l0,0.8l-0.1,0.1l-0.9,0c-0.2,-0.2 -0.5,-0.2 -0.5,-0.2m-1.7,-0.5l0,-0.1l0,0.2l0,-0.1zm0.7,-1.2l0.2,0l-0.2,0m0.3,1.2l0.2,-0.1l-0.1,0m0.5,-5.7l-0.1,-0.1l0,0.1l0.1,0zm0.8,5zm0,0.7l0.1,-0.2l0,-0.2l-0.3,0l0,0.2s0,0.2 0.2,0.2m-17.2,-0.2l0,-0.3l0.1,-0.1l0.1,-0.2l0.2,-0.2l0.3,-0.2l0.9,0l0.1,0.2l0.2,0.1l0,0.2l0.1,0.1l0,0.3l-0.5,0l-0.1,-0.2l0,-0.1l-0.1,0l0,-0.2l-0.5,0l0,0.1l-0.1,0l0,0.2l-0.1,0.1l0,0.8l0.1,0.1l0,0.1l0.4,0l0,-0.2l0.1,-0.1l0.8,0l0,0.4l-0.4,0.3l-0.2,0l-0.1,0.1l-0.6,0l-0.2,-0.1l-0.2,-0.3l-0.3,-0.5l-0.1,-0.2l0,-0.3l0.1,0.1zm0,0zm0.4,-0.6l0.2,0.1l-0.2,0l0,-0.1zm0,1.4l0.1,0.1l0.1,0l-0.1,0l-0.1,-0.1zm0.3,0.1l0.1,0l0,0.1l-0.1,-0.1zm0.3,0l0,0.2l0.4,0l0,-0.3l0,0.1l-0.4,0zm0.2,0l0,0.1l0,-0.1zm0,-1.7l0.1,0l-0.1,0zm0.3,0.2l0,0.1l0.1,0.1l0.2,0l-0.1,0l0,-0.2l-0.2,0zm0,1.5l0.1,0l0.1,-0.2l-0.1,0l0,0.2l-0.1,0zm0.7,0.1l0,-0.4l0.2,-0.1l0,-0.6l0.1,0l0,-0.3l0.1,0l0,-0.2l0.1,0l0,-0.4l0.8,0l0,0.4l0.1,0l0,0.2l0.1,0.3l0,0.2l0.2,0.3l0,0.5l-0.1,0l0,0.1l0.2,0l0,-0.2l0.1,0.1l0,0.3l-0.6,0l0,-0.4l-0.1,-0.2l-0.7,0l-0.1,0.2l0,0.2l-0.6,0l0.2,0zm0,0l0,0.1l0.2,0l0,-0.1l0.1,0l0,-0.4l0,0.1l-0.3,0.1l0,0.3l0,-0.1zm0.3,-0.7l0.2,0l0,-0.2l0,0.1l-0.1,0l-0.1,0.1zm0.2,-0.6l0.1,0l-0.1,0zm0,-0.3l0.5,0l0,-0.2l0.2,0l0,0.2l0.1,0l0,0.1l0.1,0l-0.2,-0.1l0,-0.2l-0.5,0l-0.1,0.2l-0.1,0zm0.1,0.2l0.1,0l0.1,0.1l0,0.7l0.2,0l0,-0.8l-0.4,0zm0.1,0.9l0.1,0l-0.1,0zm0,-1.2zm0,0.3l0.1,0l-0.1,0zm0.6,0.1l0,0.1l0,-0.1zm0,0.4l0.2,0l0,0.2l0,-0.2l-0.1,0l-0.1,0zm0.2,1l0.1,0l-0.1,0zm0,-0.6l0.2,0l-0.1,0l-0.1,0zm0.7,-1l0,-0.5l1.3,0l0.2,0.2l0.2,0.2l0,0.2l0.1,0l0,1.1l-0.1,0.1l-0.3,0.2l-0.2,0.1l-0.6,0l-0.5,0.1l-0.1,0l0,-1.8l0,0.1zm0.1,1.4l0.1,0l-0.1,0zm0.2,0zm0.1,0l0.1,0.1l-0.1,-0.1zm0,-0.5l0,-0.2l0,0.1l0,0.1zm0,-0.4zm0.1,-0.7l0,0.2l0,-0.1l0,-0.1zm0,1.7l0.2,0l-0.2,0zm0,-0.5l0.1,0.1l0,0.1l0.4,0l0.1,-0.2l0,-0.4l0.1,0l0,-0.4l-0.3,-0.2l-0.3,0l0,1l-0.1,0zm0.2,-1.2l0.1,0l-0.1,0zm0.2,0zm0,1.7zm0.1,-1.7l0.1,0l-0.1,0zm0.6,0.7l0.1,0l0,-0.2l0,0.1l-0.1,0.1zm0.1,0l0,0.2l0,-0.2zm0,0.2l0,0.1l0,-0.1zm0.5,-0.8l0,-0.5l0.3,0l0,0.1l1.2,0l0,0.5l-1,0l0,0.3l0.2,0.1l0.2,0l0.3,-0.1l0.1,0l0,0.4l-0.7,0l0,0.5l1,0l0,0.4l-1.5,0l0,-1.3l-0.2,-0.2l0,-0.2l0.1,0zm1,1.7zm0.3,-1zm0,-0.9l0,0.1l0.2,0l0,-0.1l-0.2,0zm0,1.7l0.2,0l-0.1,0l-0.1,0zm0.5,0.1l0.1,0l0,-0.4l0.1,-0.1l0,-0.1l0.1,-0.2l0,-0.3l0.1,0l0,-0.3l0.1,0l0,-0.2l0.1,0l0,-0.2l0.1,-0.2l0.7,0l0,0.4l0.1,0.2l0,0.3l0.1,0.2l0.1,0.3l0,0.1l0.1,0.2l0,0.3l-0.2,0l0.2,0l0,-0.2l0.1,0.1l0,0.3l-0.6,0l0,-0.2l-0.1,-0.1l0,-0.1l-0.6,0l0,0.2l-0.2,0.1l-0.5,0l0.1,-0.1zm0.2,0l0,0.1l0.2,0l0,-0.1l0.1,-0.2l0,-0.1l0,0.1l-0.3,0l0,0.3l0,-0.1zm0.2,-0.7l0.4,0l0,-0.2l0,0.1l-0.2,0l-0.2,0.1zm0.2,-0.6l0.2,0l-0.1,0l-0.1,0zm0,-0.3l0.5,0l0,-0.2l0.2,0l0,0.2l0.1,0l0,0.1l0,-0.4l-0.6,0l-0.1,0.2l-0.1,0.1zm0.1,0.2l0.1,0l0.1,0.1l0,0.7l0.2,0l0,-0.8l-0.4,0zm0.1,0.9zm0,-1.2zm0,0.3l0.1,0l-0.1,0zm0.6,0.1l0,0.1l0,-0.1zm0,0.4l0.2,0l0,0.2l0,-0.2l-0.2,0zm0.2,1l0.2,0l-0.2,0zm0.1,-0.6l0.1,0l-0.1,0zm0.6,-1.2l0,-0.3l0.6,0l0.1,0.2l0,1.2l-0.1,0l0,0.2l0.1,0l0.2,0.2l0.3,0l0.1,-0.2l0,-1.5l0.5,0l0,1.8l-0.3,0.2l-0.4,0l0,0.1l-0.8,0l0,-0.1l-0.2,0l0,-0.2l-0.1,-0.3l0,-1.2l0,-0.1zm0.3,-0.2l-0.1,0l0.1,0zm0,1.6zm0.2,0.3l0.1,0l-0.1,0zm0.2,-0.2zm0,0.2l0.3,0.1l0.1,-0.1l0.2,0l-0.7,0l0.2,0l-0.2,0l0.1,0zm0.8,-0.4l0.2,0l-0.2,0zm0,-1.2l0.2,0l-0.1,-0.1l-0.1,0.1zm0.1,0l0,0.2l0,-0.1l0,-0.1z"/><path fill="#ffffff" d="m17.8,11.3l-0.5,0l0,-0.1c-0.2,0 -0.3,-0.2 -0.3,-0.3l0,-0.6l0.4,-0.2l0.1,-0.2l0,-0.3l0.2,-0.1l0,-0.1l0.5,0l0,0.2l0.1,0l0,0.4l-0.1,0.1l0,0.1l0.2,0.1l0.2,0l0,-0.4l0.2,0l0.1,0.1l0,0.3l-0.2,0.2l0,0.4l0.3,0l0,-0.1c0,-0.1 0.1,0 0.2,0l0,0.5l-0.8,0l-0.1,-0.2l-0.1,0.1l-0.3,0s0,0.1 -0.1,0m-0.2,-0.3l0.2,0l0.2,-0.1l-0.1,-0.1l0,-0.2l-0.2,0l-0.1,0.2l0,0.2m0.1,-1l0,0.1m0.3,-0.3l-0.1,0l0,0.2l0.1,0l0,-0.2"/></svg>