<svg xmlns="http://www.w3.org/2000/svg" role="img" viewBox="0 0 38 24" width="38" height="24" aria-labelledby="pi-humm"><title id="pi-humm">Humm</title><path fill="#000" opacity=".07" d="M35 0H3C1.3 0 0 1.3 0 3v18c0 1.7 1.4 3 3 3h32c1.7 0 3-1.3 3-3V3c0-1.7-1.4-3-3-3z"/><path fill="#fff" d="M35 1c1.1 0 2 .9 2 2v18c0 1.1-.9 2-2 2H3c-1.1 0-2-.9-2-2V3c0-1.1.9-2 2-2h32"/><path fill="#FF6C00" d="M19.056 12.183l9.62-9.62c3.193 3.632 3.06 9.165-.4 12.637V22h-9.83v-.002L18.36 22l-.086.001c-5.524 0-10-4.477-10-10 0-.857.108-1.688.31-2.483.188-1.09-.687-2.843-1.584-3.995 1.449.166 3.566.055 4.216-.606A9.975 9.975 0 0118.276 2a9.96 9.96 0 016.81 2.683l.148.23-6.724 6.724a.386.386 0 10.546.546zm-6.25-4.906a1.406 1.406 0 002.7-.555 1.407 1.407 0 00-2.126-1.21l.014-.001.014-.002a.763.763 0 11-.706 1.05l-.002.018-.001.015c-.004.035-.005.07-.006.106.001.204.042.4.112.58z"/></svg>
