<svg xmlns="http://www.w3.org/2000/svg" width="38" height="24" viewBox="0 0 38 24" fill="none" role="img" aria-labelledby="pi-humo"><title id="pi-humo">Humo</title><g clip-path="url(#pi-humo-clip0)"><path d="M35 .5H3A2.5 2.5 0 00.5 3v18A2.5 2.5 0 003 23.5h32a2.5 2.5 0 002.5-2.5V3A2.5 2.5 0 0035 .5z" stroke="#000" stroke-opacity=".07"/><rect x="1" y="1" width="36" height="22" rx="2" fill="#fff"/><g clip-path="url(#pi-humo-clip1)"><rect x="1" y="1" width="36" height="22" rx="2" fill="#fff"/><path d="M1 7a6 6 0 016-6h24a6 6 0 016 6v10a6 6 0 01-6 6H7a6 6 0 01-6-6V7z" fill="#324452"/><path d="M1 1h36v22H1v-.55l.592.023H13.15l5.542.023.545-.023.568-.069.545-.114.616-.184.663-.275.521-.275.45-.275.403-.275.379-.275.378-.298.261-.206.355-.298.38-.344.591-.573.166-.183.26-.275.214-.252.26-.298.308-.39.285-.366.284-.39.379-.55.284-.435.308-.504.284-.504.284-.527.355-.734.285-.687.284-.78.213-.664.19-.71.165-.757.142-.825.095-.825.047-.733v-1.42l-.047-.849-.118-1.054-.142-.87-.19-.94-.142-.505-.142-.206-.142-.091-.166-.046h-2.842l-25.271.023L1 1.687V1z" fill="#fff"/><path d="M30.771 1.596l.332.023.402.091.38.138.354.183.285.206.355.344.308.413.213.39.19.458.213.664.118.573.095.802v1.306l-.119 1.123-.165 1.077-.214 1.055-.213.848-.237.825-.284.825-.237.641-.236.55-.261.573-.332.665-.308.573-.331.55-.355.55-.285.412-.307.413-.285.32-.118.138.19-.092.45-.32.355-.298.402-.39.213-.252.285-.367.308-.458.308-.504.307-.55.308-.573.308-.642.332-.756.355-.94.26-.779.214-.779.19-.802.165-.894.118-.894.071-.893.048-1.352.047-.023.332.206.213.206.26.344.26.435.238.482.213.618.118.55.071.504.024.275v.803l-.07.71-.143.894-.19.87-.189.642-.26.757-.261.595-.213.459-.237.435-.237.413-.26.412-.237.344-.285.39-.331.412-.213.252-.308.344-.26.275-.45.435H32.5v.046l-.26.206-.308.252-.427.298-.402.252-.403.23-.521.252-.545.206-.852.275-.095.046.26-.023.853-.16.592-.161.521-.183.497-.207.38-.183.378-.206.427-.275.379-.275.308-.252.308-.275.355-.344.213-.252.19-.206.236-.298.284-.39.26-.39.333-.55.189-.343.142-.252.071.023.142.343.119.367.094.435.024.184v.39l-.07.435-.12.39-.189.435-.308.481-.237.32-.331.39-.427.413-.26.206-.332.252-.426.275-.497.275-.38.184-.473.206-.616.229-.758.23-.663.16-.663.114-.52.069-.688.046h-6.82l-.238-.023v-.092l1.28-.619.639-.343.52-.321.45-.298.403-.298.214-.16.26-.207.332-.275.07-.023v-.045h.048v-.046l.19-.16.118-.115h.047l.048-.092.142-.114.166-.184.308-.298.165-.183.213-.23.261-.32.308-.367.237-.32.308-.413.355-.527.379-.596.331-.573.356-.642.26-.504.38-.825.236-.596.237-.641.213-.642.213-.756.19-.848.142-.825.095-.733.047-.505.047-.94v-.687l-.047-1.008-.071-.665-.119-.779-.142-.641-.19-.688-.165-.573v-.137l.071-.046zM23.003 9.113l.568.022.426.092.308.115.356.183.26.206.213.252.142.252.119.276.095.366.023.16v.55l-.07.413-.096.32-.165.367-.142.23-.166.206-.19.206-.355.252-.355.16-.38.115-.355.046h-.355l-.45-.069-.45-.16-.308-.183-.236-.207-.214-.229-.19-.32-.117-.253-.119-.39-.071-.458v-.504l.071-.367.119-.343.165-.298.213-.275.166-.16.332-.23.379-.183.402-.115.427-.045z" fill="#D2BD6F"/><path d="M15.921 9.227h.355l.213.046.19.16.166.275.64 1.238.236.435.024.092.07-.069.309-.596.26-.527.403-.779.19-.206.212-.069h.427l.213.046.166.137.07.184.048.962.095 2.59v.275l-.071.16-.095.115-.166.069h-.379l-.165-.07-.119-.137-.047-.229-.047-1.306-.024-.94v-.573h-.048l-.047.184-.474.916-.473.871-.142.16-.166.07h-.213l-.213-.138-.285-.481-.355-.642-.308-.573-.095-.23-.047 1.513-.024 1.055-.023.252-.071.137-.119.115-.095.046h-.26l-.19-.115-.094-.138-.024-.091V13.1l.071-2.063.047-1.42.072-.16.118-.115.166-.092.118-.023z" fill="#D2BD6E"/><path d="M26.626 18.715l.048.023v.045l-.048.046.048.046.023.16.237.138.024.069h.047l.166.183.024.137.095.092.094.298-.024.138.072.023.118.343.024.092.118.23.071.297.071.137.095.253.047.206.048.069.023.183.024.23.024.16.118.022.024.092-.024.046-.331.023h-1.208l-5.471-.023.047-.092.829-.39.379-.183.521-.275.545-.32.592-.39.402-.298.214-.16.26-.207.332-.275.07-.023v-.045h.048v-.046l.19-.16.118-.115h.047l.048-.092.142-.114.19-.16.165-.161h.048l.047-.092.095-.092.07-.023.024-.045z" fill="#AB923D"/><path d="M10.853 9.227h.308l.189.069.118.114.071.138.024 1.352v1.054l.047.413.072.206.142.183.165.138.237.091.095.023h.379l.237-.068.19-.138.165-.183.095-.23.047-.297V9.617l.071-.184.19-.16.094-.046h.38l.165.069.166.183.024.069v2.658l-.071.413-.119.344-.166.275-.213.229-.331.206-.285.114-.284.07-.166.022h-.757l-.308-.046-.356-.114-.26-.138-.26-.206-.19-.252-.142-.275-.095-.298-.047-.344V9.548l.094-.16.213-.138.072-.023z" fill="#D2BD6F"/><path d="M8.792 9.227l.237.023.237.115.118.114.142.206.048.138.023.183v3.46l-.07.138-.12.092-.141.046h-.427l-.189-.07-.095-.09-.047-.138-.024-1.719-.995-.023h-.97v.252l.094.756.095.413.19.55.047.092v.091l-.142-.023-.308-.183-.19-.183-.166-.23-.189-.343-.166-.436-.118-.527-.048-.343v-.596l.071-.505.143-.435.118-.23.213-.228.237-.16.237-.092h.095l-.024.183-.119.596-.07.619-.024.229 2.013.023V9.685l-.071-.114-.048-.046.024-.092.19-.137.19-.069z" fill="#D1BC6D"/><path d="M22.837 9.777h.521l.237.069.213.114.19.16.165.253.142.32.071.276.024.16v.596l-.095.481-.142.367-.213.32-.166.161-.26.138-.285.068h-.189l-.379-.091-.26-.16-.214-.23-.189-.367-.095-.297-.07-.39v-.596l.07-.39.119-.32.165-.252.214-.207.331-.16.095-.023z" fill="#334553"/><path d="M5.429 10.213h.047l-.023.16-.095.367-.024.229v.527l.071.55.142.527.19.481.166.298.236.298.214.16.355.184.142.046v.091l-.142.092-.166.046h-.426l-.38-.092-.378-.16-.308-.23-.237-.275-.19-.32-.094-.252-.024-.092v-.252l.095-.252.118-.16h.048l.213.618.19.367.189.298.26.275.214.16.189.092h.071l-.355-.321-.19-.206-.236-.367-.119-.252-.166-.436-.118-.572v-.688l.07-.275.19-.367.26-.297z" fill="#D0BB6D"/><path d="M22.553 21.762l.047.023-.379.207-.26.114h-.048v.046l-.19.046v.046l-.094.046h-.095v.045l-.07.046-.19.046-.071.046.047-.092.829-.39.379-.183.095-.046z" fill="#D3BE70"/><path d="M19.024 10.556h.047v.16h-.047l-.048.161-.142.23-.07.09.023-.137.213-.412.024-.092z" fill="#293847"/><path d="M5.547 12.504l.048.046.094.23-.023.09-.071-.09-.048-.138v-.138z" fill="#293948"/><path d="M21.51 22.267l.024.069-.07.045-.19.046-.071.046.047-.092.26-.114z" fill="#CFB96B"/></g></g><defs><clipPath id="pi-humo-clip0"><path fill="#fff" d="M0 0h38v24H0z"/></clipPath><clipPath id="pi-humo-clip1"><rect x="1" y="1" width="36" height="22" rx="2" fill="#fff"/></clipPath></defs></svg>