<svg role="img" aria-labelledby="pi-hyper" viewBox="0 0 38 24" width="38" height="24" xmlns="http://www.w3.org/2000/svg"><title id="pi-hyper">Hyper</title><g fill-rule="nonzero" fill="none"><path d="M35 0H3C1.3 0 0 1.3 0 3v18c0 1.7 1.4 3 3 3h32c1.7 0 3-1.3 3-3V3c0-1.7-1.4-3-3-3z" fill="#000" opacity=".07"/><path d="M35 1c1.1 0 2 .9 2 2v18c0 1.1-.9 2-2 2H3c-1.1 0-2-.9-2-2V3c0-1.1.9-2 2-2h32" fill="#FFF"/><g transform="translate(10 5)"><path d="M16.6 13.9H2.7v-.1C2.1 11.2 1.4 8.6.8 5.9c-.1-.4-.1-.8 0-1.2.2-1 .9-1.5 1.8-1.8.9-.3 1.9-.5 2.9-.7 2-.5 4-1 6-1.4.5-.1 1-.2 1.5-.2 1 .1 1.9.9 2.1 1.9.2.8.4 1.7.6 2.5.5 2.2 1.1 4.4 1.6 6.6.1.9 0 1.7-.7 2.3zm-8.8-2.1h.9v-1.1h.8c.6 0 1-.3 1.2-.8.1-.4.2-.9 0-1.3-.2-.7-.8-1-1.5-.8-.2.1-.4.2-.6.4v-.3s0-.1-.1-.1h-.7V10c-.1 0-.2-.1-.3-.2-.2-.2-.2-.4-.2-.6V7.8h-.9c0 .6 0 1.2.1 1.8 0 .6.4.9 1 1.1.1 0 .3.1.5.1-.2.3-.2.7-.2 1zm-4.3-1.1V9h1.3c.1 0 .1 0 .1.1v1.6h.9v-4h-.9v1.5H3.4V6.7h-.9v4h1zm10.2-1.2v-.6c0-.5-.2-.9-.7-1.1-.5-.2-1-.1-1.5.2-.5.5-.6 1-.5 1.6.1.6.5 1 1.1 1.1.3.1.7.1 1 0 .2 0 .3-.1.5-.1 0-.2-.1-.4-.1-.6-.4.1-.7.2-1.1.1-.3-.1-.5-.3-.5-.5.6-.1 1.2-.1 1.8-.1zm2.1-1.7c-.4 0-.6 0-1 .6v-.5h-.7v2.8h.9V9.2c0-.4.2-.6.6-.7h.3c-.1-.2-.1-.5-.1-.7zm-9-1.3c-.3 0-.5.2-.5.5s.2.5.5.5.5-.2.5-.5-.2-.5-.5-.5z" fill="#FF7900"/><circle fill="#FFE701" transform="rotate(-.566 6.8 7)" cx="6.801" cy="7.001" r="1"/><path d="M8.7 10V8.9c0-.3.2-.4.5-.5.2 0 .5.1.6.3.1.3.1.6 0 1-.1.2-.2.3-.4.3-.3.1-.5 0-.7 0zm3.1-1.1c0-.3.3-.6.6-.6s.5.3.5.6h-1.1z" fill="#FF7900"/></g></g></svg>