<svg xmlns="http://www.w3.org/2000/svg" role="img" viewBox="0 0 38 24" width="38" height="24" aria-labelledby="pi-hypercash"><title id="pi-hypercash">Hypercash</title><path opacity=".07" fill="#000" d="M35 0H3C1.3 0 0 1.3 0 3v18c0 1.7 1.4 3 3 3h32c1.7 0 3-1.3 3-3V3c0-1.7-1.4-3-3-3z"/><path fill="#fff" d="M35 1c1.1 0 2 .9 2 2v18c0 1.1-.9 2-2 2H3c-1.1 0-2-.9-2-2V3c0-1.1.9-2 2-2h32"/><g clip-rule="evenodd" fill-rule="evenodd"><path d="M10.04 6.051c.277.138.553.291.825.456.054.052.054.102 0 .152A125.57 125.57 0 006.22 9.481c.523.407 1.03.834 1.519 1.28a14.067 14.067 0 013.213 4.885.289.289 0 01-.174 0 2.195 2.195 0 00-.26-.521c-.43-.639-.9-1.248-1.411-1.824-.58.416-.914.981-.998 1.694-.027.392-.013.782.042 1.172.09.082.069.125-.065.13a.218.218 0 01-.195-.086l-.542-.674a3.736 3.736 0 01-.261-.976 3.813 3.813 0 011.215-2.237 21.582 21.582 0 00-1.128-1.172 57.533 57.533 0 00-2.301-1.93 485.822 485.822 0 004.862-2.933c.11-.073.211-.153.304-.238z" fill="#20285c"/><path d="M11.241 6.763a.308.308 0 01.217.043c.145.138.297.268.456.391.027.042.02.078-.022.108A105.54 105.54 0 008.16 9.63a9.263 9.263 0 011.954 2.41c.52.96.941 1.971 1.259 3.017h-.217a43.016 43.016 0 00-1.824-3.04L8.224 10.67c-.413-.383-.811-.781-1.194-1.194l.521-.39a117.823 117.823 0 003.69-2.323z" fill="#2cc84b"/><path d="M12.34 7.661a.191.191 0 01.152.043 8.889 8.889 0 011.758 5.167.281.281 0 01-.195-.044 33.544 33.544 0 00-.955-2.779c-.173-.317-.346-.636-.521-.954a2.303 2.303 0 00-.456-.521l-2.04 1.28a.171.171 0 00-.044.087 9.61 9.61 0 011.867 5.275.191.191 0 01-.153-.044 9.551 9.551 0 00-.997-2.735 33.997 33.997 0 00-1.802-2.691A128.131 128.131 0 0112.34 7.66z" fill="#20285c"/><path d="M14.856 9.877h1.216v.998c.362.008.724 0 1.085-.022a5.65 5.65 0 01-.043-.976h1.216v2.909c-.391.007-.782 0-1.173-.022a3.692 3.692 0 010-1.13c-.36-.02-.723-.027-1.085-.02v1.172c-.401.014-.8 0-1.194-.044a94.515 94.515 0 01-.022-2.865z" fill="#20285d"/><path d="M18.442 9.923a5.28 5.28 0 011.345 0c.219.265.421.54.608.826l.608-.826c.447-.05.898-.058 1.346-.022-.439.538-.873 1.081-1.303 1.628-.043.42-.058.84-.043 1.26h-1.216c.008-.435 0-.869-.021-1.303-.43-.531-.87-1.052-1.324-1.563zm4.014-.042c.752-.006 1.505 0 2.257.023.582.116.835.471.76 1.063-.126.415-.407.654-.847.716a2.62 2.62 0 01-.933.022c-.022.361-.03.723-.022 1.086h-1.215V9.88zm1.172.652a.845.845 0 01.564.022.46.46 0 01.065.412.41.41 0 01-.108.065c-.16.022-.318.03-.478.022.013-.183 0-.356-.043-.52z" fill="#20285c"/><path d="M25.82 9.877h2.996v.651h-1.78v.391h1.649c.013.21-.001.422-.043.63a9.77 9.77 0 01-1.585-.022 3.141 3.141 0 00-.022.52h1.824v.739h-3.04V9.877z" fill="#20285d"/><path d="M29.274 9.868c.81-.007 1.62 0 2.43.022.654.1.892.469.717 1.106a1.138 1.138 0 01-.586.478c.406.362.709.796.912 1.303H31.4a5.59 5.59 0 00-.695-1.107.438.438 0 00-.26-.066v1.173h-1.173V9.868zm1.172.607a2.5 2.5 0 01.738.067c.112.128.112.257 0 .39-.228.009-.453.03-.674.064a1.14 1.14 0 01-.065-.52z" fill="#20285c"/><path d="M19.717 13.496c.749-.088 1.386.129 1.91.652.098.164.17.338.218.52h-1.172a.519.519 0 00-.391-.412c-.397-.09-.715.026-.955.347-.02.172-.063.34-.13.5.066.134.102.279.108.433.285.49.683.599 1.194.326a.888.888 0 00.217-.304 6.952 6.952 0 011.085 0 .175.175 0 01.044.087c-.252.59-.7.931-1.346 1.02a2.771 2.771 0 01-1.606-.195c-.8-.559-.99-1.283-.565-2.17a1.846 1.846 0 011.39-.804zm7.407.041a2.664 2.664 0 011.475.283c.266.201.412.469.434.802h-1.172c-.007-.289-.16-.419-.456-.39a.427.427 0 00-.455.217.887.887 0 00.13.195c.512.141 1.018.301 1.52.478.57.352.629.78.173 1.28a2.892 2.892 0 01-2.17.24c-.54-.156-.8-.51-.782-1.064.347-.008.695 0 1.041.021.059.312.247.479.566.5l.39-.065c.174-.145.174-.29 0-.435a5.519 5.519 0 01-1.693-.542c-.396-.547-.294-.988.303-1.324.227-.107.458-.172.696-.196z" fill="#2cc84b"/><path d="M23.196 13.579c.413-.027.819.002 1.215.086.408.882.827 1.757 1.26 2.628.057.135.1.273.13.412-.349.007-.696 0-1.043-.022a2.52 2.52 0 01-.304-.521 11.12 11.12 0 00-1.388 0l-.261.52a13.5 13.5 0 01-1.085.023 4.61 4.61 0 01.216-.565c.414-.859.834-1.713 1.26-2.561zm.52 1.042c.072.061.13.141.175.238.08.196.152.391.216.587h-.651l.26-.825z" fill="#2dc84b"/><path d="M17.487 13.65h.304c-.46 1.155-.923 2.306-1.39 3.45a.32.32 0 01-.217-.065c-.275-.253-.557-.5-.846-.737-.695.51-1.445.94-2.237 1.28-1.388.548-2.75.49-4.08-.173a3.416 3.416 0 01-.521-.391c.419.103.845.183 1.28.238a8.563 8.563 0 001.759-.325c1.031-.378 2.009-.889 2.908-1.52a14.31 14.31 0 01-.933-.933c-.026-.041-.02-.077.022-.108 1.325-.23 2.64-.469 3.95-.716z" fill="#20285c"/><path d="M29.403 13.477c.359-.014.714 0 1.065.044.021.39.028.781.021 1.172h1.173c-.009-.39 0-.781.02-1.172a6.683 6.683 0 011.065-.044v3.126a6.67 6.67 0 01-1.064-.044l-.044-1.172a7.8 7.8 0 01-1.15.044c.007.376 0 .752-.022 1.128a6.684 6.684 0 01-1.064.044v-3.126z" fill="#2cc84b"/></g></svg>