<svg xmlns="http://www.w3.org/2000/svg" role="img" fill="none" viewBox="0 0 38 24" width="38" height="24" aria-labelledby="pi-hyundai_card"><title id="pi-hyundai_card">Hyundai Card</title><rect x="1" y="1" width="36" height="22" rx="2" fill="#fff"/><rect x=".5" y=".5" width="37" height="23" rx="2.5" stroke="#000" stroke-opacity=".07"/><path d="M19.713 19.401h-1.644c-.483 0-.842-.12-1.078-.362a1.039 1.039 0 01-.32-.706 1.605 1.605 0 01.024-.667c.062-.238.15-.468.263-.687a.51.51 0 01.258-.241c.147-.068.308-.1.47-.096h1.1l-.035-1.062c-.035-.279.108-.402.435-.374.327.028.497.196.51.491l.017 3.704zm-.91-2.18h-.41a1.79 1.79 0 00-.449.05.323.323 0 00-.14.152c-.077.206-.146.41-.207.606a.654.654 0 000 .545.36.36 0 00.155.176.59.59 0 00.284.072h.767v-1.6zM9.721 15.246a.394.394 0 01.39.288c.072.186.014.29-.175.29h-1.11a.21.21 0 00-.164.074.353.353 0 00-.065.222v2.428a.232.232 0 00.1.187.45.45 0 00.266.073h.947a.393.393 0 01.389.29c.072.186.013.29-.174.29h-1.17a1.518 1.518 0 01-.915-.29.884.884 0 01-.41-.694v-2.381a.725.725 0 01.237-.62.958.958 0 01.579-.174l1.275.017zM13.437 16.643l.011 2.18h.148a.391.391 0 01.388.29c.073.186.015.289-.174.289h-1.836c-.483 0-.823-.12-1.023-.363a1.207 1.207 0 01-.273-.747c-.025-.21-.02-.424.015-.633.054-.25.106-.467.159-.646a.507.507 0 01.293-.262c.177-.075.368-.112.56-.108h1.732zm-.934.579h-.385a.73.73 0 00-.263.048.246.246 0 00-.12.154c-.056.198-.102.4-.146.605-.028.178-.028.36 0 .538.012.091.014.157.058.186a.317.317 0 00.215.06h.652l-.011-1.591zM14.47 16.844a.953.953 0 01.62-.201h.827a.396.396 0 01.393.29c.073.186.017.289-.172.289h-.68a.25.25 0 00-.224.114.334.334 0 00-.06.235l-.011 1.614c0 .172-.163.248-.476.232-.314-.017-.466-.15-.458-.393v-1.546a.765.765 0 01.24-.634zM8.126 8.013c.328.036.49.185.487.448v1.38h1.022V8.23c.013-.186.187-.254.5-.216.314.037.48.186.488.448l-.015 3.566c-.026.2-.198.283-.516.252-.317-.031-.472-.188-.465-.47v-1.38H8.6l-.015 1.598c-.017.2-.187.291-.495.273-.308-.02-.465-.167-.465-.438l.019-3.633c-.01-.18.153-.254.482-.216zM13.995 9.501c.302.062.455.211.455.443v3.971c0 .197-.157.277-.47.241a.487.487 0 01-.484-.528l-.013-1.373h-.238c-.246 0-1.133-.06-1.382-.187a1.12 1.12 0 01-.547-.6V9.813c-.08-.205.02-.317.308-.328.288-.012.465.069.538.248l-.03 1.653a.373.373 0 00.168.23c.272.034.546.052.82.052h.385V9.677c.022-.181.187-.24.49-.176zM15.225 12.051c-.249-.13-.373-.375-.373-.734v-1.52c-.017-.262.136-.374.46-.324.322.05.483.187.485.445v1.494a.228.228 0 00.075.187c.073.055.164.08.256.073h.666l-.016-1.91c.013-.233.175-.32.489-.264.314.056.465.205.463.439v2.308h-1.62a1.879 1.879 0 01-.885-.194zM21.305 11.963c.014.225-.136.324-.446.297-.31-.026-.48-.158-.506-.392l-.026-1.614a.187.187 0 00-.053-.14.154.154 0 00-.12-.048h-.746l-.032 1.937c-.015.198-.172.285-.465.263a.449.449 0 01-.467-.465l.015-2.314h1.85c.23 0 .453.065.647.186a.56.56 0 01.314.458l.035 1.832zM24.875 12.245h-1.644c-.484 0-.842-.12-1.078-.362a1.039 1.039 0 01-.32-.706 1.576 1.576 0 01.024-.667c.062-.238.15-.468.261-.687a.517.517 0 01.263-.241c.148-.068.31-.101.473-.096h1.1l-.037-1.063c-.035-.277.11-.402.437-.373.327.032.497.196.508.491l.013 3.704zm-.906-2.18h-.415a1.815 1.815 0 00-.45.049.328.328 0 00-.138.153c-.078.206-.148.41-.207.605a.661.661 0 000 .546.373.373 0 00.155.175.602.602 0 00.286.073h.77v-1.6zM28.114 9.486v2.18h.148a.391.391 0 01.388.29c.071.187.011.29-.187.29h-1.836c-.482 0-.822-.12-1.02-.363a1.238 1.238 0 01-.27-.747 2.057 2.057 0 01.016-.633c.054-.25.11-.467.163-.647a.518.518 0 01.3-.269c.178-.074.369-.11.56-.108l1.738.007zm-.943.58h-.385a.758.758 0 00-.27.048.253.253 0 00-.119.153 7.92 7.92 0 00-.149.606c-.037.177-.037.36 0 .537.019.09.013.157.056.187a.32.32 0 00.215.06h.652v-1.591zM29.48 12.251c-.322-.03-.473-.176-.454-.435l.024-1.603c0-.017-.011-.035-.049-.054a.516.516 0 00-.13-.04.457.457 0 01-.232-.263c-.032-.102.017-.172.142-.207.109-.036.22-.066.332-.088.103-.023.202-.061.294-.114a.469.469 0 01.353.034.321.321 0 01.226.316v2.206c-.011.198-.176.28-.506.248zm.373-3.867c.12.076.21.19.26.322a.332.332 0 01-.038.323.362.362 0 01-.308.136.747.747 0 01-.41-.136.642.642 0 01-.266-.323.32.32 0 01.043-.322.382.382 0 01.317-.134.682.682 0 01.402.134z" fill="#010101"/><path d="M5 13.75V7a2 2 0 012-2h24a2 2 0 012 2v6.75" stroke="#010101"/></svg>