<svg xmlns="http://www.w3.org/2000/svg" role="img" viewBox="0 0 38 24" width="38" height="24" aria-labelledby="pi-ibexpay"><title id="pi-ibexpay">IBEXPAY</title><path fill="#000" opacity=".07" d="M35 0H3C1.3 0 0 1.3 0 3v18c0 1.7 1.4 3 3 3h32c1.7 0 3-1.3 3-3V3c0-1.7-1.4-3-3-3z"/><path fill="#fff" d="M35 1c1.1 0 2 .9 2 2v18c0 1.1-.9 2-2 2H3c-1.1 0-2-.9-2-2V3c0-1.1.9-2 2-2h32"/><path d="M3.652 9.135H2.595v5.726h1.057V9.136zm4.638 2.75c.428-.22.823-.588.823-1.277v-.017a1.28 1.28 0 00-.388-.95c-.33-.327-.846-.506-1.506-.506H4.547v5.73h2.757c1.282 0 2.132-.547 2.132-1.571v-.017c-.004-.78-.473-1.165-1.146-1.392zm-2.655-1.858h1.271c.65 0 1.013.277 1.013.73v.017c0 .523-.435.777-1.084.777H5.638v-1.524h-.003zm2.6 3.159c0 .517-.418.787-1.111.787H5.63v-1.571h1.421c.8 0 1.184.287 1.184.767v.017zm3.067-2.929h3.084V9.135h-4.342v5.73h4.325v-1.122h-3.067V12.54h3.088v-1.12h-3.088v-1.162zm6.29-.254l-.581-.868h-2.05l1.608 2.399 1.023-1.53zm3.258-.868h-2.054l-3.835 5.726h2.05l.894-1.334.894 1.335h2.05l-1.917-2.865 1.918-2.862zm3.61-.03c.242-.004.48.034.708.108.204.067.39.179.547.324.153.145.275.324.35.524.085.223.126.46.12.696a1.89 1.89 0 01-.123.696 1.438 1.438 0 01-.898.848 2.211 2.211 0 01-.707.108h-2.03v2.48h-.554V9.105h2.587zm-.122 2.838c.384 0 .697-.098.935-.291.238-.196.357-.493.357-.892 0-.402-.119-.7-.357-.892-.238-.192-.55-.29-.935-.29h-1.907v2.365h1.907zm4.389-2.838l2.282 5.787h-.595l-.707-1.8h-2.649l-.7 1.8h-.589l2.34-5.787h.618zm.79 3.517L28.39 9.655l-1.163 2.967h2.288zm.757-3.517h.653l1.911 2.935 1.907-2.932h.66l-2.298 3.402v2.382h-.555V12.51l-2.278-3.405z" fill="#111536"/></svg>