<svg width="38" height="24" viewBox="0 0 38 24" fill="none" xmlns="http://www.w3.org/2000/svg" role="img" aria-labelledby="pi-idram"><title id="pi-idram">IDram</title><g clip-path="url(#pi-idram-clip)"><path d="M35 .5H3A2.5 2.5 0 00.5 3v18A2.5 2.5 0 003 23.5h32a2.5 2.5 0 002.5-2.5V3A2.5 2.5 0 0035 .5z" fill="#fff" stroke="#000" stroke-opacity=".07"/><path d="M18.834 9.48h.616v4.972h-.616l-.023-.046.023-.344-.331.23-.356.16h-1.302l-.284-.114-.285-.184-.284-.252-.237-.344-.142-.32-.07-.298-.025-.367.071-.436.119-.298.142-.252.213-.252.26-.229.309-.183.307-.115.214-.046.213-.023h.237l.331.046.355.115.332.183.19.138.023-1.742zm5.661 1.282h.26l.38.07.307.114.237.137.213.16.047.024v-.413l.616-.023v3.621h-.616l-.023-.023v-.367l-.166.138-.332.183-.189.069-.758.023-.474-.023-.379-.183-.284-.207-.166-.16-.213-.298-.165-.366-.072-.298-.023-.344.07-.436.12-.297.165-.298.26-.275.214-.184.237-.137.26-.115.284-.069.19-.023z" fill="#020102"/><path d="M9.574 8.906h.165l.332.16.308.184.332.23.236.205.237.23.26.343.238.436.165.481.071.32.048.528-.024.412-.07.39-.12.367-.165.366-.213.344-.308.367-.19.183-.308.23-.307.183-.403.229-1.658.916-.403.184-.473.137-.474.069h-.545l-.45-.069-.568-.183-.45-.23-.403-.274-.379-.344-.237-.298-.213-.344-.166-.366-.142-.459-.07-.412v-.871l.118-.138.118-.068.166-.023.142.069.142.16.024.046v.779l.07.344.12.366.189.39.284.367.237.229.331.229.403.206.426.138.474.069h.26l.474-.07.427-.137.379-.183.45-.252.402-.23.45-.251.616-.344.284-.184.237-.206.213-.206.213-.32.166-.322.119-.366.07-.39v-.458l-.07-.413-.143-.412-.213-.39-.237-.298-.165-.16-.285-.206-.307-.184-.332-.206-.142-.16-.024-.184.071-.137.142-.115.048-.023z" fill="#FF852A"/><path d="M6.447 8.952h.356l.379.069.284.114.402.207.403.229 1.066.596.426.252.26.206.167.183.213.321.142.367.07.366v.344l-.07.367-.142.344-.166.252-.19.229-.213.183-.331.206-.403.207-.19-.023-.142-.092-.07-.114v-.23l.07-.114.19-.138.331-.183.214-.16.165-.184.166-.344.048-.206v-.39l-.072-.274-.142-.252-.213-.23-.237-.16-.615-.344-.664-.366-.402-.23-.45-.229-.26-.069-.285-.022-.332.068-.378.184-.19.16-.166.23-.094.182-.071.253-.024.252v2.085l.024.298.094.298.119.206.213.23.213.137.26.114.166.046h.45l.308-.091.474-.252.118-.07h.213l.143.07.094.114.024.069v.183l-.095.138-.237.16-.284.16-.355.138-.26.069-.143.023H6.4l-.45-.115-.213-.092-.26-.137-.261-.206-.19-.184-.237-.343-.118-.298-.071-.321-.024-1.284.024-1.443.071-.344.118-.275.166-.275.213-.23.166-.16.427-.252.402-.137.284-.046z" fill="#FF852A"/><path d="M29.137 10.762h.497l.332.07.308.114.284.16.284.252.19.207v.045h.07l.048-.114.213-.23.19-.16.307-.183.356-.115.237-.046h.473l.356.07.355.137.284.183.26.23.19.251.19.367.094.39v2.062h-.592l-.024-1.833-.047-.344-.19-.367-.212-.229-.237-.16-.285-.115-.118-.023h-.497l-.285.092-.284.16-.213.207-.19.32-.07.207-.024.114-.024 1.971h-.616l-.023-2.04-.095-.298-.213-.32-.237-.207-.332-.16-.213-.046h-.474l-.307.092-.26.16-.238.23-.19.32-.07.252-.024.252-.024 1.765h-.592v-3.598h.592v.39l.142-.092.237-.16.308-.138.403-.091z" fill="#020102"/><path d="M17.224 11.358h.497l.213.046.284.138.237.183.19.23.142.297.047.16v.482l-.095.275-.165.275-.19.206-.26.16-.308.115-.119.023h-.402l-.285-.069-.307-.16-.142-.115-.237-.298-.119-.252-.07-.367.046-.366.119-.298.19-.252.236-.207.308-.16.19-.046zm7.105 0h.497l.308.092.213.115.237.206.166.206.142.298.047.23v.297l-.07.298-.119.23-.166.205-.166.16-.236.138-.285.092-.118.023h-.403l-.331-.092-.237-.137-.237-.207-.166-.229-.118-.275-.047-.229v-.252l.07-.32.166-.299.213-.229.214-.16.26-.115.166-.046z" fill="#FEFCFB"/><path d="M6.447 10.281h.308l.284.115.498.275.568.32.498.276.379.229.189.206.095.252v.16l-.071.184-.142.206-.332.206-.663.367-.403.23-.616.343-.236.115h-.356l-.237-.115-.165-.16-.095-.207-.024-.114v-.573l.095-.138.142-.091.142-.023.166.069.118.091.048.092v.435l.213-.069.592-.343.64-.344.402-.23-.024-.068-.426-.23-.52-.297-.57-.298-.212-.114-.095-.023.023.366-.07.138-.119.114-.118.046-.214-.023-.142-.091-.07-.16v-.574l.094-.252.213-.206.213-.092zm-.023-2.658h.426l.474.069.379.114.402.16.474.253.213.16.095.115.024.137-.072.16-.165.138h-.237l-.569-.298-.355-.16-.355-.092-.308-.046h-.545l-.426.092-.379.138-.332.183-.284.206-.166.138-.165.183-.214.298-.189.367-.142.435-.047.275v.642l-.048.206-.07.114-.238.115-.142-.046-.19-.114-.047-.115v-.848l.048-.32.094-.344.166-.436.237-.412.26-.321.332-.321.308-.23.403-.228.45-.184.308-.091.402-.07.19-.022z" fill="#FF852A"/><path d="M22.15 10.74h.166v.595l-.024.023-.332.046-.236.092-.26.16-.167.16-.165.253-.119.275-.024.137-.023 1.971h-.616v-3.598h.616v.39l.19-.138.307-.183.308-.115.379-.068zm-7.555.091l.118.023v3.575l-.023.023h-.569v-3.598l.474-.023zM14.31 9.48h.214l.19.114.094.137.024.184-.071.183-.143.137-.142.046-.213-.023-.142-.091-.095-.138-.023-.069v-.183l.118-.183.118-.092.072-.023z" fill="#020102"/></g><defs><clipPath id="pi-idram-clip"><path fill="#fff" d="M0 0h38v24H0z"/></clipPath></defs></svg>