<svg xmlns="http://www.w3.org/2000/svg" role="img" viewBox="0 0 38 24" width="38" height="24" aria-labelledby="pi-in3"><title id="pi-in3">in3</title><g clip-path="url(#pi-in3-a)"><path opacity=".07" d="M35 0H3C1.3 0 0 1.3 0 3v18c0 1.7 1.4 3 3 3h32c1.7 0 3-1.3 3-3V3c0-1.7-1.4-3-3-3Z" fill="#000"/><path d="M35 1c1.1 0 2 .9 2 2v18c0 1.1-.9 2-2 2H3c-1.1 0-2-.9-2-2V3c0-1.1.9-2 2-2h32Z" fill="#fff"/><path d="M21.998 4.604a1.763 1.763 0 0 1 1.227-1.3c.172-.048.281-.048 3.351-.044 3.086.008 3.188.012 3.528.059 1.418.215 2.297.656 3.136 1.578.618.68 1.024 1.597 1.149 2.605.043.352.05 1.16.015 1.504-.109.98-.441 1.832-1.007 2.57l-.168.227.14.172c.547.664.907 1.531 1.024 2.484.054.454.035 1.418-.032 1.813-.14.758-.374 1.367-.753 1.937-.809 1.239-2.13 2.02-3.914 2.317-.32.054-.371.054-3.252.066h-.034l-.405.001c-2.435.006-2.717.007-2.95-.098-.032-.014-.061-.03-.095-.047l-.046-.024a1.69 1.69 0 0 1-.777-.797c-.133-.277-.176-.504-.164-.855.008-.23.027-.332.078-.488a1.746 1.746 0 0 1 .914-1.036c.032-.018.06-.033.09-.047.228-.106.506-.107 2.957-.115l.508-.002h.186c2.779-.015 2.965-.016 3.087-.062.461-.152.824-.469 1.02-.88.242-.5.246-.991.02-1.472a1.628 1.628 0 0 0-.762-.789c-.024-.011-.044-.022-.063-.033a1.623 1.623 0 0 0-.081-.04c-.217-.1-.48-.101-2.91-.112l-.544-.002c-2.965-.012-3.149-.016-3.274-.059a1.77 1.77 0 0 1-1.16-1.168c-.05-.148-.058-.219-.058-.543 0-.34.004-.386.066-.566.148-.434.461-.805.844-1l.073-.039c.033-.018.061-.033.091-.047.224-.104.494-.105 2.799-.115l.654-.002c2.906-.012 3.137-.016 3.273-.059.45-.137.836-.465 1.036-.879.238-.492.242-.992.015-1.473a1.636 1.636 0 0 0-.761-.792 3.645 3.645 0 0 1-.063-.033 1.662 1.662 0 0 0-.081-.041c-.217-.1-.48-.1-2.898-.108l-3.697-.014-.195-.07a1.77 1.77 0 0 1-1.086-1.11 2.195 2.195 0 0 1-.05-.972ZM4.057 3.65a2.18 2.18 0 0 1 .726-.359c.207-.047.614-.035.817.024a1.76 1.76 0 0 1 1.215 1.25c.054.219.054.672 0 .89a1.766 1.766 0 0 1-.88 1.118c-.304.16-.519.203-.874.187-.301-.016-.489-.062-.727-.195a1.753 1.753 0 0 1-.844-1.098 2.22 2.22 0 0 1-.011-.879c.078-.344.297-.699.578-.937ZM14.697 7.846c-1.05.113-1.933.469-2.628 1.066l-.176.153-.153-.125a6.696 6.696 0 0 0-.75-.524 1.8 1.8 0 0 0-.703-.183 1.693 1.693 0 0 0-1.625.969c-.129.269-.172.468-.172.785 0 .675.297 1.195.907 1.566.078.05.183.133.234.18.211.21.414.613.524 1.031l.01.042c.018.069.033.128.046.188.073.34.075.696.087 3.088l.017 3.143.054.16c.164.477.47.832.887 1.04.258.128.457.171.758.171.77 0 1.379-.45 1.648-1.21l.055-.161.012-3.219.015-3.215.055-.187c.094-.309.207-.508.438-.742.34-.352.69-.504 1.16-.504.457 0 .82.156 1.16.504.164.168.226.254.308.422l.03.061c.019.037.034.068.048.1.1.236.1.513.108 2.793l.002.706.001.402c.009 2.625.01 2.91.115 3.15.013.03.027.059.043.09l.02.041c.18.364.419.61.778.797.27.137.488.18.836.168.223-.012.324-.027.476-.082.52-.18.918-.598 1.102-1.164l.055-.172.008-2.785c.007-2.805 0-3.129-.083-3.71-.21-1.485-.843-2.786-1.761-3.618-.727-.656-1.657-1.067-2.707-1.195a9.472 9.472 0 0 0-1.239-.02ZM3.49 9.143A1.756 1.756 0 0 1 4.705 7.9c.266-.07.73-.055.996.039.543.191.965.656 1.114 1.226.043.153.043.465.043 5.059 0 4.704.014 5.026-.109 5.282-.02.044-.045.086-.075.148-.082.171-.14.253-.32.433-.18.184-.258.246-.426.328a1.52 1.52 0 0 1-.777.18c-.48 0-.875-.164-1.204-.496-.199-.203-.32-.39-.425-.672l-.067-.18-.008-4.957c-.007-4.945-.007-4.96.043-5.148Z" fill="#102F76"/></g><defs><clipPath id="pi-in3-a"><path fill="#fff" d="M0 0h38v24H0z"/></clipPath></defs></svg>