<svg xmlns="http://www.w3.org/2000/svg" role="img" viewBox="0 0 38 24" width="38" height="24" aria-labelledby="pi-in3viaideal"><title id="pi-in3viaideal">in3 via iDEAL</title><path d="M35 0H3C1.3 0 0 1.3 0 3v18c0 1.7 1.4 3 3 3h32c1.7 0 3-1.3 3-3V3c0-1.7-1.4-3-3-3z" opacity=".07"/><path fill="#d0d0d0" d="M35 1c1.1 0 2 .9 2 2v18c0 1.1-.9 2-2 2H3c-1.1 0-2-.9-2-2V3c0-1.1.9-2 2-2h32"/><path stroke="null" stroke-width="0" d="M34.127 10.595c-.367-1.432-1.249-2.35-2.681-2.755-.588-.147-1.25-.257-1.874-.257-3.636-.037-7.273 0-10.91 0h-.367v.074c.992 1.138 1.433 2.681 1.433 4.37 0 1.727-.478 3.27-1.47 4.446h10.947c.477 0 .992-.037 1.47-.074 1.726-.257 2.975-1.249 3.379-2.975.293-.955.293-1.874.073-2.829z"/><path stroke="null" stroke-width="0" fill="#FFF" d="M28.03 13.35c.257-.183.514-.33.808-.55.11.146.22.256.367.367.33.293.698.404 1.102.22.294-.147.477-.44.404-.808-.037-.33-.257-.514-.625-.514-.293 0-.587.073-.918.11-.073-.147-.147-.368-.257-.625.184-.183.33-.404.514-.587.147-.184.33-.368.551-.625H28.36V9.31h3.086c.073.147.147.257.22.404-.404.44-.808.881-1.249 1.359.074.036.11.073.184.11.808.294 1.212.808 1.212 1.58 0 .734-.478 1.359-1.249 1.616-.808.257-1.984.11-2.535-1.029zm-6.355-2.755h1.065v3.784h-1.065v-3.784zm.551-.808c-.404 0-.662-.22-.662-.55 0-.368.294-.625.698-.625.404 0 .662.22.662.587-.037.368-.294.588-.698.588zm1.726.808h1.102V11l.11-.073c.294-.257.625-.404 1.029-.404.698 0 1.212.33 1.285.992.074.955.037 1.91.037 2.901h-1.102v-2.314c-.037-.44-.22-.66-.588-.66-.44 0-.734.256-.734.697v2.24h-1.102c-.037-1.248-.037-2.497-.037-3.783zM3.822 6.444v11.204c0 .55.441.992.992.992H11.5c5.069 0 7.273-2.829 7.273-6.612 0-3.747-2.204-6.575-7.273-6.575H4.814c-.55.036-.992.477-.992.991z" class="st1"/><path stroke="null" stroke-width="0" fill="#C06" d="M8.304 8.244v8.265h3.6c3.269 0 4.702-1.836 4.702-4.481 0-2.498-1.433-4.445-4.702-4.445H8.928c-.33.037-.624.294-.624.661z" class="st2"/><path stroke="null" stroke-width="0" d="M11.5 17.758H5.696a.91.91 0 01-.918-.918V7.326a.91.91 0 01.918-.918h5.84c5.51 0 6.355 3.563 6.355 5.657-.037 3.673-2.277 5.693-6.391 5.693zM5.696 6.702a.644.644 0 00-.625.624v9.514c0 .33.294.624.625.624h5.84c3.894 0 6.025-1.91 6.025-5.4 0-4.665-3.784-5.362-6.025-5.362h-5.84 0z"/><path stroke="null" stroke-width="0" fill="#FFF" d="M9.59 10.926c.11 0 .257.037.367.073a.8.8 0 01.294.184.8.8 0 01.183.294c.037.11.074.257.074.44 0 .148-.037.294-.037.405-.037.11-.11.22-.184.33s-.183.147-.293.22a1.32 1.32 0 01-.404.074h-.845v-1.983l.845-.037h0zm-.037 1.616c.073 0 .11 0 .183-.037.074-.036.11-.036.147-.11a.803.803 0 00.11-.184c.037-.073.037-.183.037-.293 0-.11 0-.184-.036-.258-.037-.073-.037-.146-.11-.22s-.11-.11-.184-.147c-.074-.037-.147-.037-.257-.037h-.294v1.25l.404.036h0zm2.681-1.616v.367h-1.028v.441h.955v.33h-.955v.478h1.065v.367h-1.506v-1.983h1.47zm1.506 0l.735 1.983h-.44l-.148-.44h-.734l-.147.44h-.441l.735-1.983h.44zm.037 1.212l-.257-.735h0l-.257.735h.514zm1.433-1.212v1.616h.955v.367h-1.396v-1.983h.44z" class="st1"/><circle stroke="null" stroke-width="0" r=".918" cy="11.918" cx="6.688"/><path stroke="null" stroke-width="0" d="M7.386 16.51h0a1.395 1.395 0 01-1.396-1.397v-1.065c0-.367.294-.698.698-.698h0c.367 0 .698.294.698.698v2.461h0z"/></svg>