<svg role="img" width="38" height="24" viewBox="0 0 38 24" aria-labelledby="pi-indomaret" xmlns="http://www.w3.org/2000/svg"><title id="pi-indomaret">Indomaret</title><path d="M35 0H3a3 3 0 00-3 3v18a3 3 0 003 3h32a3 3 0 003-3V3a3 3 0 00-3-3z" opacity=".07" style="isolation:isolate"/><path d="M35 1a2 2 0 012 2v18a2 2 0 01-2 2H3a2 2 0 01-2-2V3a2 2 0 012-2h32" fill="#fff"/><g clip-path="url(#pi-indomaret-clip0)"><path fill-rule="evenodd" clip-rule="evenodd" d="M3.924 7h30.152c.255 0 .484.106.651.273.167.167.273.4.273.651v8.892a.918.918 0 01-.273.651.926.926 0 01-.651.273H3.924a.918.918 0 01-.651-.273.918.918 0 01-.273-.651V7.924c0-.255.106-.484.273-.651A.918.918 0 013.924 7z" fill="#F0F0F0"/><path fill-rule="evenodd" clip-rule="evenodd" d="M34.648 14.29v2.526a.571.571 0 01-.572.572H3.924a.571.571 0 01-.572-.572v-2.527h31.296z" fill="#FECF22"/><path d="M34.648 10.812H3.352v3.112h31.296v-3.112z" fill="#006AB4"/><path fill-rule="evenodd" clip-rule="evenodd" d="M3.924 7.352h30.152c.317 0 .572.255.572.572v2.527H3.352V7.924c0-.317.255-.572.572-.572z" fill="#D61627"/><path fill-rule="evenodd" clip-rule="evenodd" d="M8.132 9.527c2.1-.621 3.874-.99 5.568-1.207 1.515-.193 2.958-.26 4.499-.277V8.04h1.659v.004c1.532.018 2.963.084 4.468.277 1.686.22 3.455.586 5.542 1.207.229.066.453.176.62.343a.948.948 0 01.286.69V14.185c0 .286-.11.514-.286.69a1.437 1.437 0 01-.62.344c-2.087.616-3.856.986-5.538 1.201-1.505.194-2.94.265-4.467.278v.004H18.586c-1.668-.004-3.2-.066-4.802-.264-1.708-.211-3.508-.585-5.647-1.22a1.438 1.438 0 01-.62-.343.948.948 0 01-.287-.69V10.56c0-.286.11-.515.286-.691.167-.167.387-.277.616-.343z" fill="#fff"/><path fill-rule="evenodd" clip-rule="evenodd" d="M22.636 13.594c-.132-.185-.005-.489.088-.656.097-.18.242-.41.47-.366.106.379-.228 1.057-.558 1.022zm-7.109-1.043c.172.426-.387 1.201-.576.99-.155-.176.202-1.079.576-.99zm1.17.99l-.065-.145c-.185.044-.476.21-.682.162-.115-.255.695-1.95.854-2.464l-.405.017c-.115.19-.326.85-.432.99-.717-.074-1.017.133-1.311.515-.476.621-.128.687-.485.89-.316.18-.268.079-.294.052-.133-.114.237-.897.272-1.07.044-.224-.07-.4-.277-.386-.194.013-.339.15-.475.224-.48.26-.027-.74-1.334.18-.101.07-.352.216-.405.269.013-.084.387-.894.462-1.083.146-.365.295-.744.423-1.118-.476-.03-1.888.211-2.316.594-.814.727.155 1.682.797.947-.154-.11-.391-.005-.427-.29-.03-.247.058-.41.19-.511.162-.124.871-.251 1.122-.3-.027.132-.136.383-.19.529-.281.779-.624 1.971-1.62 2.002-.519.018-.668-.215-.853-.572-.114.128-.163.396-.097.59.057.176.198.295.361.374.78.374 1.466-.255 2.016-.687.14-.11.656-.633.924-.502.15.296-.281.92-.29 1.229l.51.008c.093-.255.168-.532.256-.796.075-.225.18-.63.475-.427.115.303-.37.942-.105 1.153.277.22.893-.22 1.038-.313.115.168.115.37.41.423.237.04.475-.07.611-.18.084.1.062.206.256.189.18-.022.748-.392 1.087-.493zm9.733-.436c-.022-.268.273-.634.48-.625.07.159-.053.33-.132.423-.088.105-.18.22-.348.202zm-7.716-.634l.057.18c.159-.043.34-.149.497-.105.049.304-.413 1.145-.48 1.497l.507-.01c.101-.166.202-.558.282-.765.079-.211.171-.63.466-.528.172.343-.3.955-.334 1.29l.576.004c.106-.308.23-.687.352-.99.062-.15.128-.388.353-.322.255.07-.185.55-.18.973 0 .19.131.356.316.334.25-.026.673-.37.89-.418.096.225.118.361.382.4.269.045.44-.083.612-.184.004.004.013.013.013.018l.04.052c.053.075.083.137.211.15.427.044 1.052-.634 1.299-.96.272-.36.162-.334.514-.365-.079.335-.457.867-.136 1.189.321.32.964-.115 1.158-.225.18.198.273.374.7.357.334-.018.523-.15.792-.23.33.542 1.4.01 1.36-.32-.136-.027-.3.167-.445.242-.198.105-.396.04-.4-.19-.005-.114.273-.95.326-1.056l.325-.005.106-.37-.229-.004c.044-.387.247-.717.317-1.06l-.458.017-.365 1.012-.335.018-.079.379.264-.005c-.057.361-.264.845-.449 1.079-.19.237-.871.378-.995-.036.159-.18.436-.22.656-.594.546-.942-.541-1.056-.986-.4-.277.409-.189.537-.176 1.02-.546.305-.74.366-.69-.17.048-.542.131-.463.224-.56.07-.075.097-.207.017-.277-.088-.088-.237-.009-.396-.066-.101-.256.075-.3.145-.436-.092-.022-.167-.009-.264-.022-.224-.035-.022-.04-.171-.128-.128.049-.137.053-.185.198-.132.419-.084.507-.313.828-.123.176-.546.761-.832.651-.132-.176.375-1.206.44-1.465-.519-.04-.44.061-.515.14-.48-.215-.73-.03-1.025.23-.423.374-.44.91-.493.972-.128.084-.387.198-.577.128-.052-.216.282-.845.335-1.105.057-.273-.097-.414-.374-.343-.207.053-.282.242-.471.268-.159-.11-.168-.347-.489-.29-.229.04-.242.22-.502.268a.096.096 0 00-.013-.022l-.03-.07c-.014-.035-.04-.146-.102-.176-.246-.04-.77.295-1.043.378z" fill="#006AB4"/><path fill-rule="evenodd" clip-rule="evenodd" d="M17.693 12.322a.635.635 0 01.638.638.635.635 0 01-.638.638.635.635 0 01-.638-.638.635.635 0 01.638-.638zm0-.55c-.33 0-.625.131-.841.347a1.18 1.18 0 00-.348.84c0 .33.132.626.348.841.216.216.51.348.84.348.33 0 .626-.132.841-.348a1.18 1.18 0 00.348-.84 1.188 1.188 0 00-1.189-1.188zm.744.44a1.054 1.054 0 00-.749-.309c-.29 0-.554.12-.748.308-.19.19-.308.454-.308.749a1.054 1.054 0 001.056 1.056 1.054 1.054 0 001.056-1.056c0-.295-.114-.56-.307-.749zm-.744-.168c-.251 0-.48.101-.647.269a.912.912 0 000 1.294.912.912 0 001.294 0 .912.912 0 000-1.294.912.912 0 00-.647-.269zm.55.361a.778.778 0 00-.555-.229.778.778 0 00-.784.784.785.785 0 00.784.783c.216 0 .41-.088.555-.229a.777.777 0 00.229-.554.777.777 0 00-.23-.555zm-.194.194a.507.507 0 00-.356-.15.491.491 0 00-.357.15.5.5 0 000 .713c.093.092.22.15.357.15.14 0 .268-.058.356-.15a.507.507 0 00.15-.357.507.507 0 00-.15-.356z" fill="#D61627"/><path fill-rule="evenodd" clip-rule="evenodd" d="M8.282 10.033c4.146-1.228 6.999-1.462 10.45-1.466h.598c3.425.009 6.264.242 10.388 1.466.277.083.528.237.528.528v3.623c0 .29-.25.444-.528.528-4.124 1.219-6.963 1.457-10.388 1.465h-.44c-3.521 0-6.396-.215-10.608-1.465-.277-.084-.528-.238-.528-.528V10.56c0-.29.25-.449.528-.528zm10.524-.674c-3.222.013-6.11.137-9.886 1.114-.281.075-.528.238-.528.528v2.742c0 .29.247.454.528.528 3.746.969 6.62 1.096 9.812 1.114h.54c3.192-.013 6.062-.14 9.812-1.114.282-.074.528-.237.528-.528v-2.742c0-.29-.246-.453-.528-.528-3.776-.977-6.664-1.1-9.886-1.114h-.392z" fill="#D61627"/></g><defs><clipPath id="pi-indomaret-clip0"><path fill="#fff" transform="translate(3 7)" d="M0 0h32v10.74H0z"/></clipPath></defs></svg>