<svg width="38" height="24" role="img" viewBox="0 0 38 24" fill="none" aria-labelledby="pi-ing_homepay" xmlns="http://www.w3.org/2000/svg"><title id="pi-ing_homepay">ING Homepay</title><path d="M0 2a2 2 0 012-2h34a2 2 0 012 2v20a2 2 0 01-2 2H2a2 2 0 01-2-2V2z" fill="#fff"/><path d="M38 22c0 .219-.035.43-.1.627-.03-.08-.07-.158-.116-.231-.224 0-.605-.446-.756-.52-.76-.297-.91-.148-1.367-.074-.227.074-.452 0-.682 0-.075-.148.152-.37.077-.519 0-.075-.305-.149-.305-.296 0 0 1.214-.15 1.67-.075.152.075.607.371.758.371 0 0 .15-.52-.077-.964-.377-.073-.757 0-1.061-.073-.303-.075-.607 0-.832 0-.23 0-.458-.075-.684-.075a1.183 1.183 0 01-.23-.667s1.897-.075 2.05-.148c-.078-.076-.228-.148-.304-.298-.303-.52-.532-.593-.91-.593-.227 0-.757.222-1.06.148 0-.592.303-1.111.757-1.111.91 0 1.82.37 2.578 1.185.209.213.407.446.594.697V22zM2 24a2 2 0 01-2-2V2a2 2 0 012-2h34a2 2 0 012 2v7.436c-.089-.12-.146-.188-.204-.299-.153-.295-.224-.37-.38-.518-.305-.222-1.83.591-3.125.888.307.369.61.59.686.739.381.369.915 1.035 1.295 1.552.078-.074.154-.146.307-.223.992-.147.992-.367.992-.367s-.765-.593-.233-.593c0 0 .383.072.536-.073l.126-.024v.739l-.126.024.126.109v.638c-.226.07-.51.139-.584.139-.227.075-.458 0-.61.075.169.082.667.277 1.194.436v5.479c-.981-.956-2.04-1.546-3.096-1.546-.909 0-1.593.667-1.593 1.336 0 2.669 1.063 4.375 1.745 5.857.041.067.077.132.109.196h-1.642c.029-.237-.105-.61-.175-.744-.235 0-.39-.15-.55-.15-.156 0-.234-.372-.47-.298.08.15.236.895.314 1.043.021.02.06.073.104.149h-.982c-.074-.217-.144-.493-.144-.635-.171-.275-.35-.544-.537-.808-.153-.146-.153-.514-.23-.735l-.92.146c.46.59.845 1.177 1.072 1.767l.087.265h-1.209a.65.65 0 00.05-.185V23.6h-.001s-.145-.289-.145-.36c-.072-.144-.144-.36-.362-.432 0-.072-.073.288-.145.433-.075.143-.075.07-.22.36.103.151.17.268.252.399h-8.363c-.137-.137-.269-.274-.371-.37-.158-.144-.08-.36-.236-.506-.154 0-.312 0-.466.072-.235 0-.389 0-.622.073.077.144.077.29.233.361.167.156.244.249.328.37h-1.864c.062-.324.105-.659.105-.659s-.446.072-.522.147c-.075 0-.371 0-.519.148 0 .118 0 .235-.011.364h-1.137c.179-.108.31-.199.443-.442.078-.217.158-.288.078-.578v.001c0-.074-.236-.074-.392-.074-.158 0-.312.073-.472.073-.157.218-.234.434-.313.724a1.126 1.126 0 01-.169.296h-1.134a.752.752 0 00.18-.1c.073-.074.297-.582.372-.725v-.508c-.075-.146 0-.435 0-.652-.075-.146-.225-.074-.299 0h-.448s-.149.579-.149 1.014c-.073.218-.15.363-.15.435-.119.231-.19.324-.289.536h-1.677c.281-.161.792-.47.792-.58.074-.226 0-.377.074-.605 0-.15 0-.528.076-.755-.15-.076-.45.076-.672.076-.224 0-.745 0-.745.075.074.152.074.303.148.454.074.15.148.301.148.68 0 .201.059.403.02.655H2zm9.306-2.365c.15-.223.602-.666.757-.815-.155-.148-.227-.37-.303-.518-.303 0-1.44.443-1.44.443.227.371.38.742.53 1.185.167-.071.322-.171.456-.295zm-.856-1.224s.235-.146.235-.296c.392-.442.862-.812.942-.883-.159-.372-.237-.445-.473-.666-.077.074-.47.294-.55.443-.154.073-.312.147-.393.223 0 .147.081.22.157.368 0 .147.082.515.082.81v.001zm-.675-4.045v.365c0 .147.08.952.08 1.17.076.221.076.44.152.66.08.146.158.292.158.439 0 0 .156-.072.232-.22.233-.22.312-.439.467-.731-.078-.512-.234-.952-.234-1.098 0-.585.08-.733.156-1.098-.309.145-.698.365-1.011.513zm3.45 2.494c-.072-.147-.29-.22-.434-.294-.146 0-.292.294-.292.588 0 .147.074.664.146.884 0 .074.146.148.29.223.218.146.435.219.653.367 0 0-.218-.662-.29-1.03-.073-.221.072-.517-.073-.738zm1.694 2.31c.077-.302.304-.452.304-.981 0 0-.075-.378-.15-.53-.077-.15-.154-.301-.379-.452-.076 0-.226-.153-.3-.078 0 0-.077.606-.152.682.152.226.302.378.376.604.076.227.15.529.301.756v-.001zm2.053 1.194c.231-.224 0-.598 0-.821-.079-.225 0-.449-.079-.674a.43.43 0 00-.387-.223c-.156 0-.543-.225-.543-.076-.389 0-.077.374-.077.598 0 .3.773 1.046.773 1.046.157.075.157 0 .313.15zm-7.37-6.294c.156-.226.62-.678.85-.982.157-.15.466-.526 1.238-.903.077-.302.155-.528.155-.828-.774.225-1.315.377-1.468.526-.387.227-.543.378-.93.605 0 .45 0 .45.077.677l.078.905zm8.888 4.232c-.316.072-.944.145-.944.362-.079.216 0 .433 0 .579.08.144.08.288.08.506 0 .144-.08.29 0 .507.08-.146.471-.29.548-.435.158-.216.316-.36.394-.578.079-.217 0-.579-.078-.94v-.001zm.933-.066c-.232.149-.387.224-.387.373 0 .3.076.599.076.749 0 .225 0 .374.079.449.232.075.312.075.623.224 0 .076.312.225.312.225s-.155-.673-.234-.974v-1.197c-.312.075-.39.15-.469.15v.001zM10.59 13.21c.074-.073.897-.654.97-.727.15-.145.224-.072.296-.217 0-.437.152-.437.077-.58-.077-.148-.671 0-.821 0-.373.07-1.045.288-1.045.434-.074.219-.074.726-.074.8.074.217.074.436.146.654.228-.218.3-.29.451-.364zM22.4 23.63c.301.216.901.144 1.43.072-.304-.217-.378-.363-.529-.506-.226-.146-.374-.218-.675-.507h-.976c.148.361.222.579.75.941zm-2.953-4.812c.154-.145.305-.433.305-.506.155-.29.155-.651.155-.941-.61-.363-1.376-.434-2.14-.434-.69 0-1.454.071-2.218.58.068.277.171.544.306.795.076 0 .153.145.227.145.154-.145.308-.362.535-.434v.289c0 .217 0 .361.08.58 0 .215.229.215.533.215.305 0 .384-.506.384-.578 0 0 .077.289.533.506 0 0 .535 0 .535-.072.078-.362.156-.434.078-.724 0 0 .46.29.687.579zm2.421 2.818c-.312-.45-.389-.9-.389-.976-.155-.15.155-.675-.235-.675a7.34 7.34 0 00-.622-.226c-.082.226-.082.676 0 .901 0 .225.387.902.544.976.078.076.468.076.548.076.076-.076.154-.076.154-.076zm-11.725-9.8c.156-.22.156-.22.31-.368.31-.22.466-.369.85-.664.077-.148.155-.073.386-.22.077-.073.155-.148.155-.221 0-.147-.078-.295-.155-.441-.077-.148-.231-.517-.231-.591 0-.589.079-.736.154-1.252-.308-.074-.693-.074-.848.221-.154.222-.154.442-.154.665 0 .366.076.662.154 1.103-.311.222-.465.368-.772.516.076.442.151 1.252.151 1.252zm15.32 10.76a3.288 3.288 0 00-.522-.45c-.302-.074-.449-.225-.602-.525a1.54 1.54 0 00-.299-.451c-.147 0-.222.076-.372.15-.15.151-.452.151-.601.376.074.15.15.3.3.45.076.075.15.226.45.375.522.3.675.375.675.375.449.076.972-.3.972-.3h-.001zm-3.704-3.271s.073.374.224.746c.076.15.225.299.302.299.147.074.45.148.673.148v-.148c-.223-.225-.526-.746-.526-.895-.147-.074-.147-.074-.372-.074-.077-.076-.228-.076-.3-.076h-.001zM26.5 21.53h.376c.152 0 .152-.288 0-.288-.527-.145-.978-.288-1.279-.723-.075.074-.528.216-.677.361 0 0 .15.362.526.723.224.216.679.072 1.054-.073zm-3.323-2.449c.227.3.452.523.676.746.073.15.298.15.446.15h.75c.225-.077.374-.077.525-.225-.3-.148-.673-.298-.975-.448a2.617 2.617 0 01-.746-.521c-.151 0-.224.074-.302.074-.147.077-.224.15-.374.224zm-7.954-3.593s.3-.07.527-.07c.152 0 .303 0 .453.07-.077.068-.378.206-.378.206-.148.07-.225.138-.452.206a2.537 2.537 0 01-.15-.412zm-.049-1.58c.15-.22.452-.367.676-.44.299-.074.222-.663.222-.736.077-.148 0-.368 0-.516-.148.075-.148 0-.446.075-.303 0-.452-.148-.6-.296-.153-.146-.525-.441-.675-.733.373-.076.675-.076 1.049-.076h.974c.222.076.374.223.374.368 0 .073-.074.515-.074.589-.078.441-.078.589-.15 1.251v.22c-.076.148-.375.221-.525.368-.075.22-.075.368-.3.441-.226.075-.376.294-.525.221-.224-.146-.148-.515 0-.736zM13.94 10.1c-.155-.143-.466-.361-.62-.65-.23-.29-.155-.579-.155-.652.155-.434.696-.58 1.008-.652.153 0 .309 0 .54.146.31.144.466.144.62.65 0 .075 0 .145-.078.145 0 0-.465.289-.62.435-.385.217-.462.578-.695.578zm2.202-.04c.225-.154.446-.306.597-.306.15-.076.446-.153.446 0 0 .306-.223.458-.446.762-.151.228-.224.078-.597.078h-.373c0-.229.15-.306.373-.534zm3.124-.36c.145 0 1.401.284.59.637-.15.142-.517.07-.887.07 0-.14 0-.423-.147-.423-.15-.143-.37-.143-.37-.284-.297-.283.443-.07.814 0zm1.513-1.412a.915.915 0 01.857-.223c.39.074.466.148.623.297.234.296.157.888.077 1.258a.582.582 0 01-.543.371c-.39-.444-.78-.74-1.324-.89-.078-.295.158-.591.31-.813zm.502 3.123c-.077.147-.231.222-.385.298-.078 0-.152.148-.152.222-.156.224-.386.299-.693.299-.155 0-.462 0-.616-.299 0 0 .075.896.075 1.12 0 .074.079.074.079.074.307.074.384.374.537.522 0 0 .077.075.156.075.306.223.999.522.692.522 0 .15-.23.522-.306.522-.234-.222-.617-.372-.927-.522-.076-.149-.152-.299-.23-.447-.152-.15-.23-.15-.461-.298 0-.522-.077-.522-.077-1.045 0-.074-.154-.896-.154-.896 0-.074.23-.296.462-.373 0 0 1.463 0 2.153.077 0 0-.075.149-.153.149zm-.903 4.55c-.302-.08-.527-.316-.905-.316 0-.235 0-.235.077-.315.453-.078.679.08.904.159 0 .079-.076.471-.076.471v.001zm-4.927 1.06c.228 0 .456-.222.683-.297.452-.149.832-.297 1.284-.371.154-.077.154-.224.154-.373.076-.148.076-.148.076-.37 0-.075-.303-.149-.455-.448-.151-.224 0-.446-.076-.446-.226.148-.531.296-.605 0-.076-.222-.076-.521.152-.596a3.203 3.203 0 012.347 0c.15 0 .226.15.226.298.075.149 0 .298-.152.446-.227.074-.456-.223-.456 0s-.15.522-.53.671c-.073.074 0 .297.079.52 0 .074 0 .221.075.221.303.077.758.151.984.3.301.148.83.593.908.52.226-.148.3-.372.455-.52.83.372 1.511.593 2.573 1.265.15 0 .15-.298.15-.448a53.306 53.306 0 00-1.665-.893c-.302-.073-.453-.224-.758-.297v-.594c.53.149 1.587.223 2.651.818.074-.224.227-.372.15-.447-1.213-.594-2.117-.818-2.876-.818 0-.075-.153-.15 0-.224.227-.148.303-.222.38-.296.226-.298.38-.596.453-.893.226-.446.453-.297.606-1.265-.228 0-.305.149-.53.224.073-.224.15-.446.15-.67.075-.447.227-.743.227-1.265.228-.075.607-.297.682-.594 0-.075 0-.298.076-.596 0-.446.074-.818-.076-1.116 0-.074-.529-.817-.909-1.04-.528-.224-.756-.148-1.135-.075-.454 0-1.06.446-1.06 1.265-.452 0-1.361.074-1.891.52-.453-.223-.832-.296-1.212-.372h-.68a1.41 1.41 0 00-.529-.818c-.377-.222-.834-.52-1.363-.52-.227 0-.453-.075-.68.075-.228.148-.606.296-.681.593-.152.372-.303.67-.303 1.042 0 .373.228.67.455 1.042.073.15.15.15.301.222.076 0 .38.15.455.224.075.072-.075.297-.075.745 0 .37 0 .37.075.668 0 .298.075.595.15.817-.225 0-.378-.222-.529-.073 0 .15.151.521.304.818.378.372.755.744.983 1.19 0 .074 0 .222.074.222-.53.075-1.057.075-1.588.225-.492.166-.971.365-1.436.595 0 .297.074.521.074.521.076 0 .757-.373 1.362-.521.984-.297 1.514-.223 1.514-.223.074.149.15.37.074.446-.907.372-1.815.818-2.65 1.338.078.15 0 .372.154.52.827-.48 1.687-.902 2.573-1.263.303-.075.303 0 .455 0 .075.074.225.37.376.37v.001zm13.61 4.982c0-.652-.159-.652-.476-.941 0 0-.239.434-.396.65.317.29.396.652.396.652.317-.29.317-.217.476-.361zm-2.78-3.294c-.077-.145-.232-.435-.31-.508-.076-.145-.155-.29-.234-.363-.075-.071-.385 0-.538 0-.156 0-.232 0-.388.073.156.145.309.653.388.653.076.145.076.218.23.292.387.071.696 0 1.084.144.152-.218-.156-.218-.232-.291zm2.017 1.681s-.926-.518-1.081-.739c-.231 0-.231 0-.463.22-.156 0-.232.077-.309.223.233.15.309.223.54.37.079.074.155.074.387 0h.619c.151 0 .307.074.307-.074zm-2.718-3.382c.232 0 .384.146.539.146 0-.22-.079-.366-.155-.588-.077-.368-.23-.59-.31-.81 0-.22 0-.368-.074-.515-.076 0-.154 0-.23-.074-.23 0-.539-.075-.539-.075 0 .223.079.59.079.81 0 .074.306.738.383.811a.577.577 0 00.307.294v.001zm7.294 4.889c-.076-.228-.304-.305-.458-.456 0 0-.994-.38-1.149-.38-.153.075.384.38.46.531.306.305 1.071.988 1.071.988l.076-.683zm-9.372-9.301c-.076.073-.154.221-.154.294-.154.221-.381.369-.23.59.076.295.076.589.308.81.23.222.534.147.84.368 0 0-.23-.958-.38-1.4-.077-.293-.23-.44-.384-.662zm12.236 10.837c-.304-.297-.38-.37-.456-.668.271-.085.551-.134.835-.148.379 0 .608-.073 1.062.076.089.043.312.217.527.352a2.003 2.003 0 01-.672.667c-.501-.125-.933-.066-1.296-.279zm-9.183-8.337c.154.592.383 1.332.46 2.217 0 .223-.077.444 0 .666l1.065.369s-.15-.887-.303-1.92c-.153-.886-.23-1.182-.458-1.553-.153.074-.229.074-.381.074-.131.041-.259.09-.383.147zm2.505 4.314c.153.147.228.44.304.953.076.294.23.367.38.806.23-.145.61-.072.61-.072 0-.367-.23-.734-.23-.806l-.38-.734c.076 0 .303.293.685.293.078 0 .306.072.457 0 0 0 .227.147.227.293.152.22.152.366.231.587.149 0 .227 0 .303-.073.304 0 .456-.074.456-.074-.075-.147-.152-.292-.152-.44-.077-.146-.227-.513-.227-.513l1.368-.22c0-.222-.075-.515-.305-.662-.684.222-1.443.294-1.977.294-.763 0-1.522-.147-2.587-.586-.076.146 0 .439 0 .439.456.369.456.147.837.515zM12.265 7.18c.535-.301 1.446-.828 1.75-1.128.078.15.991.677 1.37.9.304.228.61.302.913.451.152-.223.303-.45.457-.975.228.15.532.15.76.224 0 .3 0 .602.078.904 0 .148.151.073.456-.076.456-.15.912-.226 1.141-.3.53-.301.835-.902 1.292-.902.381 0 1.065.225 1.218.374.228.077.38.15.61.15.303 0 .531-.3.758-.45-.683-.45-1.442-.9-2.205-1.201-.457.374-.761.675-.989.675-.23 0-.076-.45-.076-.751-.229 0-.381 0-.608-.075-.15.525-.23 1.203-.609 1.352-.151.076-.23.076-.304.076v-.602c0-.075.304-.6.228-.675 0 0-.685.15-.836.225-.076.075-.535.301-.61.301 0 0-.229-.076-.304-.076-.228-.15-.38-.15-.609-.3-.303.902-.381 1.127-.381.977 0 0-1.066-.677-1.444-1.127-.99.15-.99.3-1.827.6-.304.3-.76.677-1.065 1.128-.152.3-.305.45-.456.75l.76.301c.077-.076.457-.6.532-.75zm13.007 5.02c-.077 0-.308-.073-.62-.146h-.386c.077.22.31.438.386.583 0 .074 0 .293.08.437.153 0 .385.073.54.146.077 0 .54.074.695.22.155 0 .694.582.774.655.23.146.463.292.616.219.155 0 0-.22 0-.292-.308-.437-.54-1.239-.616-1.239-.232-.072-.388 0-.696-.146-.154-.145-.618-.364-.773-.437zm-1.292-1.747c.076.151.224.151.374.226.15.15.3.226.524.377.298.302.447.68.82.979.15.076.225.152.299.152.076 0 .374.226.448.301 0-.603-.224-1.054-.372-1.357 0-.075-.076-.15-.225-.226-.226-.226-.449-.452-.523-.452-.223-.226-.373-.451-.597-.678-.225 0-.374.227-.524.302-.074.15-.371.302-.224.376zm-.276-1.92c0 .22.076.441.152.66.263.147.539.27.826.365.074-.22-.078-.439-.078-.66-.147-.512-.375-1.024-.45-1.61v-.294c-.298-.145-.602-.22-.977-.366 0 0 0 .44.15.66.152.366.377.952.377 1.245zm13.375 1.292l-.447.276-.598-.414.671-.346.745.484h-.371z" fill="#FF5300"/><path d="M37.06.94A1.5 1.5 0 0137.5 2v20a1.5 1.5 0 01-1.5 1.5H2A1.5 1.5 0 01.5 22V2A1.5 1.5 0 012 .5h34a1.5 1.5 0 011.06.44z" stroke="#000" stroke-opacity=".07"/></svg>