<svg role="img" aria-labelledby="pi-interac" clip-rule="evenodd" stroke-linejoin="round" stroke-miterlimit="1.414" version="1.1" width="38" height="24" viewBox="0 0 38 24" xml:space="preserve" xmlns="http://www.w3.org/2000/svg"><title id="pi-interac">Interac</title><path d="M35 0H3C1.3 0 0 1.3 0 3v18c0 1.7 1.4 3 3 3h32c1.7 0 3-1.3 3-3V3c0-1.7-1.4-3-3-3z" fill-opacity=".07"/><path d="M35 1c1.1 0 2 .9 2 2v18c0 1.1-.9 2-2 2H3c-1.1 0-2-.9-2-2V3c0-1.1.9-2 2-2h32" fill="#fff"/><path d="M11.453 3.104h15.095c.828 0 1.51.681 1.51 1.51v15.095c0 .828-.682 1.51-1.51 1.51H11.453c-.828 0-1.51-.682-1.51-1.51V4.614c0-.828.682-1.51 1.51-1.51z" fill="#fdb913"/><path d="M20.057 12.357l-.001-3.243.846-.201v.425s.22-.56.729-.69a.493.493 0 0 1 .235-.015v.828a1.187 1.187 0 0 0-.444.092c-.312.123-.47.393-.47.805v1.79l-.895.209zm-4.462 1.055s-.138-.207-.138-.937v-1.614l-.436.103V10.3l.437-.103V9.47l.9-.213v.725l.636-.15v.664l-.636.15v1.645c0 .748.198.891.198.891l-.961.229v.001zm1.493-1.93c0-.576.082-.997.259-1.32.21-.383.553-.633 1.054-.747.988-.224 1.344.36 1.33 1.144-.005.28-.004.417-.004.417l-1.74.409v.028c0 .548.115.807.463.734.3-.063.383-.251.406-.483.004-.038.006-.133.006-.133l.815-.195s.002.066 0 .141c-.006.311-.097 1.083-1.23 1.351-1.073.255-1.359-.4-1.359-1.346m1.35-1.463c-.289.066-.44.349-.447.817l.876-.208.001-.141c-.001-.354-.11-.54-.43-.468m6.475-.434c-.034-.987.222-1.771 1.324-2.02.703-.16.97.022 1.105.199.13.168.18.396.18.714v.058l-.862.205v-.12c0-.377-.105-.52-.379-.452-.326.082-.458.391-.458 1.007l.001.287c0 .625.086.911.461.833.326-.068.371-.354.376-.605l.003-.165.86-.204.001.134c-.002.82-.434 1.337-1.244 1.526-1.115.261-1.334-.384-1.368-1.397m-2.981 1.383c0-.751.44-.989 1.103-1.263.595-.246.608-.368.61-.583.004-.18-.08-.334-.376-.258a.45.45 0 0 0-.36.424 1.83 1.83 0 0 0-.005.166l-.835.198a1.647 1.647 0 0 1 .058-.494c.133-.45.53-.751 1.213-.91.889-.204 1.185.185 1.186.792v1.437c0 .694.13.796.13.796l-.82.194c-.046-.095-.083-.193-.11-.294s-.18.452-.8.597c-.65.154-.994-.25-.994-.802m1.708-1.026a3.072 3.072 0 0 1-.436.256c-.274.133-.397.298-.397.552 0 .22.136.364.383.303.266-.067.45-.315.45-.659v-.452zm-12.752 5.743a.526.526 0 0 1-.436-.804l.006-.007.01-.003 1.224-.289v.93l-.02.004c-.277.067-.61.143-.677.158a.546.546 0 0 1-.107.01m0 1.191a.523.523 0 0 1-.436-.802l.006-.009.01-.002 1.224-.29v.93l-.02.006c-.277.066-.61.143-.677.157a.546.546 0 0 1-.107.01m0 1.191a.525.525 0 0 1-.436-.802l.006-.01 1.234-.29v.93l-.02.004a45.52 45.52 0 0 1-.677.158.546.546 0 0 1-.107.01m-.145-3.521V9.342l.949-.224v5.203l-.949.224zm2.363-.442c0-.321-.264-.585-.585-.585s-.585.264-.585.585v4.863a1.6 1.6 0 0 0 1.584 1.584l1.657-.002v-4.291a.766.766 0 0 0-.34-.638l-1.476-1.002v2.277a.127.127 0 0 1-.126.126.128.128 0 0 1-.126-.126l-.003-2.791m.791-3.628a1.281 1.281 0 0 0-.845.653v-.366l-.854.202.001 2.335a.875.875 0 0 1 .9.157V11.95c0-.361.18-.65.436-.707.193-.042.354.027.354.371v2.2l.9-.211v-2.327c0-.564-.217-.959-.893-.8m13.071-3.331a.563.563 0 0 1-.556-.556c0-.305.25-.556.556-.556s.556.25.556.556a.559.559 0 0 1-.556.556m0-1.042c-.267 0-.486.22-.486.486s.22.486.486.486.486-.22.486-.486a.492.492 0 0 0-.486-.486" fill="#231f20"/><path d="M26.765 6.258h.24l.016-.001c.086 0 .157.071.157.157l-.001.018c0 .088-.04.156-.113.167v.002c.067.007.102.044.106.14l.004.137a.07.07 0 0 0 .032.059h-.123a.108.108 0 0 1-.018-.06c-.004-.041-.003-.08-.004-.129-.002-.074-.025-.106-.1-.106h-.088v.295h-.108v-.68.001zm.195.302h.01a.1.1 0 0 0 .1-.1l-.001-.01c0-.072-.032-.11-.104-.11h-.092v.22h.087z" fill="#231f20"/></svg>