<svg viewBox="0 0 38 24" xmlns="http://www.w3.org/2000/svg" role="img" width="38" height="24" aria-labelledby="pi-ipass"><title id="pi-ipass">Ipass</title><path opacity=".07" d="M35 0H3C1.3 0 0 1.3 0 3v18c0 1.7 1.4 3 3 3h32c1.7 0 3-1.3 3-3V3c0-1.7-1.4-3-3-3z"/><path fill="#fff" d="M35 1c1.1 0 2 .9 2 2v18c0 1.1-.9 2-2 2H3c-1.1 0-2-.9-2-2V3c0-1.1.9-2 2-2h32"/><path fill="#FEFEFE" d="M20.003 22.955H7.596V1.22H30.04v21.735H20.003m6.77-18.456a.334.334 0 01-.011-.084c-.015-.005-.033-.012-.089-.027H11.057c-.043 0-.086.006-.158.008-.005.016-.013.033-.029.076a.26.26 0 010 .093v10.724h14.048c.074 0 .146-.011.255-.011.94-.093 1.633-.837 1.597-1.745.003-2.961.003-5.919.003-8.88 0-.043-.009-.086 0-.154M16.417 19.777c.776-.107 1.384-.647 1.528-1.354a1.706 1.706 0 00-.848-1.848 1.835 1.835 0 00-2.062.189 1.698 1.698 0 00-.485 1.934c.225.565.881 1.165 1.867 1.079m4.72-2.954c.003-.52.039-.486-.495-.482-.048 0-.097.007-.167.014v2.424a.44.44 0 01-.117-.159c-.278-.593-.552-1.186-.83-1.775-.289-.609-.143-.487-.81-.508-.21-.005-.283.066-.281.272.007.898.003 1.795.003 2.693v.482c.141 0 .262-.007.383.002.199.02.274-.052.268-.25-.01-.609-.002-1.218-.002-1.824 0-.053.01-.103.017-.21.059.107.09.157.118.212.264.528.521 1.058.792 1.581.306.593.141.48.807.489.27.005.314-.041.314-.31v-2.651m-9.3 1.245c.02.043.046.086.064.134.081.209.222.3.467.295.245-.007.434-.029.539-.286.091-.232.227-.445.345-.666.015.005.03.012.048.016v1.984c0 .109-.013.23.148.237.164.007.327.002.501.002 0-1.103.003-2.177-.002-3.25 0-.057-.029-.133-.072-.164-.173-.127-.643-.004-.743.184-.2.391-.399.785-.6 1.177-.033.064-.075.121-.136.222-.23-.451-.453-.848-.636-1.261-.122-.274-.292-.389-.603-.358-.274.026-.291.021-.291.298v3.152h.322c.322 0 .322 0 .322-.3v-1.803c0-.04.013-.084.028-.181.111.216.197.377.299.568m11.04-.313h-.601v-.38c.003-.32.088-.404.415-.406.34-.003.682 0 1.034 0 0-.164.021-.31-.007-.441-.018-.075-.121-.177-.188-.18-.4-.004-.804-.007-1.203.032-.411.038-.678.3-.694.697a29.469 29.469 0 000 1.972c.012.377.243.623.626.685.293.05.598.048.894.048.631.002.575.083.569-.578 0-.009-.015-.021-.033-.041-.232 0-.472-.002-.715 0-.68.007-.728.017-.689-.747 0-.007.007-.012.025-.039h1.119c.117 0 .229-.006.238-.152.007-.153 0-.305 0-.47h-.79m2.869-.688c-.11.231-.223.465-.36.757-.172-.367-.315-.667-.452-.967-.261-.554-.261-.554-.928-.506.054.115.102.224.151.331.238.523.452 1.059.728 1.563.133.245.166.482.158.741-.005.261 0 .521 0 .798h.339c.353 0 .376 0 .349-.339a2.744 2.744 0 01.349-1.616c.236-.42.412-.872.613-1.311.026-.052.044-.11.069-.172-.669-.028-.669-.028-.932.538-.024.052-.048.102-.084.183z"/><path fill="#50BE01" d="M10.881 4.526c-.005-.018-.007-.037.005-.073l.041-.055c.044-.004.087-.01.13-.01 5.206 0 10.413 0 15.641.015.039.023.051.033.064.041.002.018.006.037-.009.08a.625.625 0 00-.039.193c0 2.885 0 5.772.002 8.659 0 .066.028.131.046.198.044.867-.649 1.611-1.619 1.69a1.508 1.508 0 00-.291-.036c-4.545-.002-9.092 0-13.636 0-.289 0-.289-.002-.289-.271 0-3.392 0-6.779-.002-10.17 0-.086-.029-.174-.044-.261m7.561 8.069c-.13-.456-.255-.912-.388-1.368-.1-.341-.306-.485-.674-.48-.366.002-.563.148-.662.499-.258.898-.513 1.796-.769 2.696-.015.05-.018.102-.028.17.145 0 .271-.008.393.002.169.014.256-.056.289-.215.041-.194.11-.382.148-.575.024-.127.084-.163.207-.157.13.011.263-.004.393.006.203.012.312-.056.285-.267-.009-.06-.006-.123-.011-.203h-.713c.128-.476.243-.927.368-1.374.013-.043.071-.086.118-.095.028-.005.079.05.099.09.028.055.036.123.051.184.205.786.406 1.577.618 2.362.026.088.105.213.179.227.163.036.34.011.529.011-.145-.516-.284-.998-.432-1.513m-4.033-.046c.072.28.132.323.424.289.094-.009.189-.026.281-.045.542-.117.838-.463.842-.987.006-.536-.283-.923-.845-.993-.473-.057-.958-.007-1.438-.009-.171-.002-.214.072-.212.234.007.952.005 1.908.005 2.863 0 .066.008.134.011.211h.309c.293 0 .301-.011.301-.302v-1.995-.598c.184 0 .342-.002.5 0 .095.003.192.007.285.024.313.058.451.22.459.528.011.362-.156.556-.523.607a1.504 1.504 0 01-.307.009c-.113-.005-.123.046-.092.164m5.617.043c.164.093.33.187.491.282.186.113.273.273.214.488-.056.214-.227.279-.429.296a2.242 2.242 0 01-.284.002c-.268-.012-.536-.029-.83-.045.041.172-.112.406.169.465.452.096.915.112 1.367-.011.526-.144.794-.627.636-1.127-.093-.295-.338-.454-.593-.595-.279-.155-.564-.296-.844-.45-.15-.082-.263-.221-.188-.384.051-.109.188-.189.304-.257.061-.036.158-.025.235-.022.286.009.569.031.856.029.058-.003.163-.084.163-.129 0-.103.1-.275-.081-.303-.519-.082-1.046-.148-1.563.002-.295.086-.492.28-.545.58-.056.304.002.586.269.784.193.143.415.254.653.395m2.327-1.786c-.34.082-.582.261-.646.612-.071.408.079.704.483.933.252.144.508.277.761.421.363.202.457.354.378.609-.064.207-.247.293-.644.281-.288-.007-.577-.029-.886-.045 0 .098-.024.195.005.277.024.071.092.172.156.186.455.089.917.11 1.369-.011.455-.125.689-.466.669-.925-.013-.343-.225-.559-.503-.72-.307-.18-.623-.338-.934-.507-.167-.091-.279-.218-.23-.413.045-.203.221-.255.4-.263.263-.01.527 0 .79.015.395.021.395.025.38-.366 0-.011-.013-.024-.025-.05-.488-.079-.986-.138-1.523-.034m-10.304 2.947c0 .389.081.432.611.332V11.84h-.611v1.913m0-2.631c.004.31.135.365.611.255v-.582h-.611v.327z"/><path fill="#040403" d="M16.396 19.779c-.965.084-1.621-.516-1.846-1.081a1.698 1.698 0 01.485-1.934 1.835 1.835 0 012.062-.189c.663.373.998 1.098.848 1.848-.144.707-.752 1.247-1.549 1.356m.343-2.138c-.213.121-.437.227-.631.37-.205.15-.212.327-.011.475.248.181.521.334.8.465.079.035.262-.01.311-.079.046-.059-.009-.213-.06-.306-.073-.126-.261-.246-.245-.346.015-.114.214-.195.313-.305.051-.056.102-.16.077-.21a.274.274 0 00-.205-.141c-.104-.01-.212.04-.349.077m-1.761.438c-.022.067-.064.132-.066.198-.007.123.075.213.187.154.232-.125.263-.01.296.174.013.069.104.158.174.172.058.011.184-.055.204-.11.102-.292.135-.592.02-.89-.066-.166-.21-.213-.352-.118-.163.112-.297.263-.463.42m1.303-1.057c-.248-.093-.385-.024-.449.219-.075.275.033.5.243.521.188.019.475-.141.554-.312.062-.132.049-.223-.121-.271-.073-.022-.135-.09-.227-.157z"/><path fill="#060606" d="M21.137 16.845v2.629c0 .269-.044.315-.314.31-.666-.009-.501.104-.807-.489-.271-.523-.528-1.053-.792-1.581-.028-.055-.059-.105-.118-.212-.007.107-.017.157-.017.21 0 .606-.008 1.215.002 1.824.006.198-.069.27-.268.25-.121-.009-.242-.002-.383-.002v-.482c0-.898.004-1.795-.003-2.693-.002-.206.071-.277.281-.272.667.021.521-.101.81.508.278.589.552 1.182.83 1.775a.44.44 0 00.117.159v-2.424c.07-.007.119-.014.167-.014.534-.004.498-.038.495.504z"/><path fill="#040404" d="M11.826 18.053c-.091-.176-.177-.337-.288-.553-.015.097-.028.141-.028.181v1.803c0 .3 0 .3-.322.3h-.322v-.224-2.928c0-.277.017-.272.291-.298.311-.031.481.084.603.358.183.413.406.81.636 1.261.061-.101.103-.158.136-.222.201-.392.4-.786.6-1.177.1-.188.57-.311.743-.184.043.031.072.107.072.164.005 1.073.002 2.147.002 3.25-.174 0-.337.005-.501-.002-.161-.007-.148-.128-.148-.237v-1.781-.203c-.018-.004-.033-.011-.048-.016-.118.221-.254.434-.345.666-.105.257-.294.279-.539.286-.245.005-.386-.086-.467-.295-.018-.048-.044-.091-.075-.149zM22.897 17.755h.77c0 .165.007.317 0 .47-.009.146-.121.152-.238.152H22.31c-.018.027-.025.032-.025.039-.039.764.009.754.689.747.243-.002.483 0 .715 0 .018.02.033.032.033.041.006.661.062.58-.569.578-.296 0-.601.002-.894-.048-.383-.062-.614-.308-.626-.685a29.469 29.469 0 010-1.972c.016-.397.283-.659.694-.697.399-.039.803-.036 1.203-.032.067.003.17.105.188.18.028.131.007.277.007.441-.352 0-.694-.003-1.034 0-.327.002-.412.086-.415.406v.38h.621z"/><path fill="#060606" d="M25.751 17.053l.079-.169c.263-.566.263-.566.932-.538-.025.062-.043.12-.069.172-.201.439-.377.891-.613 1.311a2.744 2.744 0 00-.349 1.616c.027.339.004.339-.349.339h-.339c0-.277-.005-.537 0-.798a1.385 1.385 0 00-.158-.741c-.276-.504-.49-1.04-.728-1.563-.049-.107-.097-.216-.151-.331.667-.048.667-.048.928.506.137.3.28.6.452.967.137-.292.25-.526.365-.771z"/><path fill="#45BA00" d="M10.876 4.546c.02.067.049.155.049.241.002 3.391.002 6.778.002 10.17 0 .269 0 .271.289.271 4.544 0 9.091-.002 13.636 0 .086 0 .173.013.272.032a.732.732 0 01-.206.029H10.87c0-3.585 0-7.155.006-10.743zM26.764 13.553a.46.46 0 01-.048-.177c-.002-2.887-.002-5.774-.002-8.659 0-.057.013-.111.033-.178a.232.232 0 01.026.114c0 2.961 0 5.919-.009 8.9zM26.762 4.429c-.013.007-.025-.003-.043-.021.01-.005.028.002.043.021zM10.914 4.396c.005.014-.005.026-.022.043-.006-.01.002-.027.022-.043z"/><path fill="#FAFDF8" d="M18.448 12.612c.142.498.281.98.426 1.496-.189 0-.366.025-.529-.011-.074-.014-.153-.139-.179-.227-.212-.785-.413-1.576-.618-2.362-.015-.061-.023-.129-.051-.184-.02-.04-.071-.095-.099-.09-.047.009-.105.052-.118.095-.125.447-.24.898-.368 1.374h.713c.005.08.002.143.011.203.027.211-.082.279-.285.267-.13-.01-.263.005-.393-.006-.123-.006-.183.03-.207.157-.038.193-.107.381-.148.575-.033.159-.12.229-.289.215-.122-.01-.248-.002-.393-.002.01-.068.013-.12.028-.17.256-.9.511-1.798.769-2.696.099-.351.296-.497.662-.499.368-.005.574.139.674.48.133.456.258.912.394 1.385z"/><path fill="#FBFEFA" d="M14.404 12.531c-.026-.1-.016-.151.097-.146.102.007.204.005.307-.009.367-.051.534-.245.523-.607-.008-.308-.146-.47-.459-.528a1.934 1.934 0 00-.285-.024c-.158-.002-.316 0-.5 0v2.593c0 .291-.008.302-.301.302h-.309c-.003-.077-.011-.145-.011-.211 0-.955.002-1.911-.005-2.863-.002-.162.041-.236.212-.234.48.002.965-.048 1.438.009.562.07.851.457.845.993-.004.524-.3.87-.842.987a2.651 2.651 0 01-.281.045c-.292.034-.352-.009-.429-.307z"/><path fill="#FAFDF8" d="M20.013 12.585c-.225-.134-.447-.245-.64-.388-.267-.198-.325-.48-.269-.784.053-.3.25-.494.545-.58.517-.15 1.044-.084 1.563-.002.181.028.081.2.081.303 0 .045-.105.126-.163.129-.287.002-.57-.02-.856-.029-.077-.003-.174-.014-.235.022-.116.068-.253.148-.304.257-.075.163.038.302.188.384.28.154.565.295.844.45.255.141.5.3.593.595.158.5-.11.983-.636 1.127-.452.123-.915.107-1.367.011-.281-.059-.128-.293-.169-.465.294.016.562.033.83.045.095.005.19.005.284-.002.202-.017.373-.082.429-.296.059-.215-.028-.375-.214-.488a31.055 31.055 0 00-.504-.289z"/><path fill="#FBFEF9" d="M22.371 10.802c.519-.1 1.017-.041 1.505.038.012.026.025.039.025.05.015.391.015.387-.38.366-.263-.015-.527-.025-.79-.015-.179.008-.355.06-.4.263-.049.195.063.322.23.413.311.169.627.327.934.507.278.161.49.377.503.72.02.459-.214.8-.669.925-.452.121-.914.1-1.369.011-.064-.014-.132-.115-.156-.186-.029-.082-.005-.179-.005-.277.309.016.598.038.886.045.397.012.58-.074.644-.281.079-.255-.015-.407-.378-.609-.253-.144-.509-.277-.761-.421-.404-.229-.554-.525-.483-.933.064-.351.306-.53.664-.616z"/><path fill="#FBFDF9" d="M12.049 13.731V11.84h.611v2.245c-.53.1-.611.057-.611-.354z"/><path fill="#F6FCF2" d="M12.049 11.102v-.307h.611v.582c-.476.11-.607.055-.611-.275z"/><path fill="#FA850F" d="M16.753 17.636c.123-.032.231-.082.335-.072a.274.274 0 01.205.141c.025.05-.026.154-.077.21-.099.11-.298.191-.313.305-.016.1.172.22.245.346.051.093.106.247.06.306-.049.069-.232.114-.311.079a4.864 4.864 0 01-.8-.465c-.201-.148-.194-.325.011-.475.194-.143.418-.249.645-.375z"/><path fill="#01BAF7" d="M14.989 18.068c.155-.146.289-.297.452-.409.142-.095.286-.048.352.118.115.298.082.598-.02.89-.02.055-.146.121-.204.11-.07-.014-.161-.103-.174-.172-.033-.184-.064-.299-.296-.174-.112.059-.194-.031-.187-.154.002-.066.044-.131.077-.209z"/><path fill="#4EB800" d="M16.294 17.032c.079.057.141.125.214.147.17.048.183.139.121.271-.079.171-.366.331-.554.312-.21-.021-.318-.246-.243-.521.064-.243.201-.312.462-.209z"/></svg>