<svg xmlns="http://www.w3.org/2000/svg" role="img" viewBox="0 0 38 24" width="38" height="24" aria-labelledby="pi-ipwire"><title id="pi-ipwire">Virement SEPA</title><path fill="#000" opacity=".07" d="M35 0H3C1.3 0 0 1.3 0 3v18c0 1.7 1.4 3 3 3h32c1.7 0 3-1.3 3-3V3c0-1.7-1.4-3-3-3z"/><path fill="#fff" d="M35 1c1.1 0 2 .9 2 2v18c0 1.1-.9 2-2 2H3c-1.1 0-2-.9-2-2V3c0-1.1.9-2 2-2h32"/><linearGradient id="pi-linearGradient" gradientUnits="userSpaceOnUse" x1="10" y1="51.445" x2="25.306" y2="51.445" gradientTransform="translate(0 -43.75)"><stop offset="0" stop-color="#233889"/><stop offset="0.26" stop-color="#223583"/><stop offset="0.61" stop-color="#1e2d72"/><stop offset="1" stop-color="#172057"/></linearGradient><path fill-rule="nonzero" d="M19 3h-8.5c-.3 0-.5.2-.5.5v8.4c0 .3.2.5.5.5h14.4c.3 0 .5-.2.5-.5V3.5c0-.3-.2-.5-.5-.5H19zm5.5 7.2c-.7.1-1.2.7-1.4 1.4H12.3c-.2-.7-.7-1.3-1.4-1.4v-5c.7-.1 1.3-.7 1.4-1.4h10.9c.1.7.7 1.2 1.3 1.4v5zm-4.7-2.4c0 1.1-.9 2-2 2s-2-.9-2-2 .9-2 2-2h.1c1 0 1.9.9 1.9 2zm-5.8 0c0 .3-.2.5-.5.5s-.5-.2-.5-.5.2-.5.5-.5.5.2.5.5zm8.7 0c0 .3-.2.5-.5.5s-.5-.2-.5-.5.2-.5.5-.5c.3-.1.5.2.5.5z" fill="url(#pi-linearGradient)"/><linearGradient id="pi-linearGradient2" gradientUnits="userSpaceOnUse" x1="10.81" y1="60.212" x2="28" y2="60.212" gradientTransform="translate(0 -43.75)"><stop offset="0" stop-color="#ffd843"/><stop offset="0.72" stop-color="#f66a13"/><stop offset="1" stop-color="#f45907"/></linearGradient><path fill-rule="nonzero" d="M28 16.5c0 .1 0 .1-.1.2l-4.2 4.2c-.1.1-.2.1-.3 0l-.9-.9c-.1-.1-.1-.2 0-.3l2.3-2.3H12.9c-.1 0-.2-.1-.2-.2v-1.3c0-.1.1-.2.2-.2h11.9l-2.3-2.4c-.1-.1-.1-.2 0-.3l.9-.9c.1-.1.2-.1.3 0l4.2 4.3c.1 0 .1 0 .1.1zm-10.8-4.1c.1 0 .1-.1.1-.1v-.2c0-.1-.1-.1-.1-.1H11c-.1 0-.1.1-.1.1v.2c0 .1.1.1.1.1h6.2zm-2 1.5v.2c0 .1.1.1.1.1H19c.1 0 .1-.1.1-.1v-.2c0-.1-.1-.1-.1-.1h-3.7c-.1-.1-.1 0-.1.1zm1.9 6.6H11c-.1 0-.1.1-.1.1v.2c0 .1 0 .2.1.2h6.1c.1 0 .1-.1.1-.1v-.2c.1-.1.1-.2-.1-.2.1 0 .1 0 0 0zm-1-2l-.2-.2-.6.6.6.6.2-.2-.3-.3h3.3v-.3h-3.3l.3-.2z" fill="url(#pi-linearGradient2)"/></svg>