<svg xmlns="http://www.w3.org/2000/svg" role="img" viewBox="0 0 38 24" width="38" height="24" aria-labelledby="pi-ipwireinst"><title id="pi-ipwireinst">Virement SEPA Instantané</title><path fill="#000" opacity=".07" d="M35 0H3C1.3 0 0 1.3 0 3v18c0 1.7 1.4 3 3 3h32c1.7 0 3-1.3 3-3V3c0-1.7-1.4-3-3-3z"/><path fill="#fff" d="M35 1c1.1 0 2 .9 2 2v18c0 1.1-.9 2-2 2H3c-1.1 0-2-.9-2-2V3c0-1.1.9-2 2-2h32"/><linearGradient id="pi-linearGradient" gradientUnits="userSpaceOnUse" x1="10" y1="2" x2="28" y2="2" gradientTransform="translate(0 10)"><stop offset="0" stop-color="#233889"/><stop offset="0.26" stop-color="#223583"/><stop offset="0.61" stop-color="#1e2d72"/><stop offset="1" stop-color="#172057"/></linearGradient><path fill-rule="nonzero" d="M20.9 17.1c0 .2-.2.4-.4.4s-.5-.2-.5-.4.2-.4.4-.4.5.1.5.4zm-4.2-1.7c-.9 0-1.7.7-1.7 1.7 0 .9.7 1.7 1.7 1.7.9 0 1.7-.7 1.7-1.7s-.8-1.7-1.7-1.7zm-3.8 1.2c-.2 0-.4.2-.4.4s.2.4.4.4.4-.2.4-.4c.1-.2-.1-.4-.4-.4zm9.2-10.7s-.1.1 0 0l-.1 4.6v.1l4-2.3c-.7-1.5-2.2-2.3-3.9-2.4zm.3 8.9c-.6-.1-1-.6-1.2-1.2h-9.3c-.1.6-.6 1-1.2 1.2v4.3c.6.1 1.1.6 1.2 1.2h9.3c.1-.6.6-1.1 1.2-1.2v-4.3zm-4.8-6.6c-.7 1.5-.7 3.3.2 4.8h4.9c.2 0 .4.2.4.4v2c2.8-.5 4.6-3.1 4.2-5.9-.5-2.8-3.1-4.6-5.9-4.2-.9.2-1.8.6-2.5 1.2l-.5-.5c1-.9 2.2-1.4 3.5-1.5v-.8h-1.4c-.1 0-.1 0-.1-.1v-.5c0-.1 0-.1.1-.1H24v.6c0 .1 0 .1-.1.1h-1.3v.9c1.3.1 2.5.6 3.4 1.4l.6-.6-.5-.5v-.1l.3-.3h.1L28 5.9V6l-.3.3h-.1l-.6-.4-.6.6c2.2 2.3 2 6-.3 8.2-.8.8-1.9 1.3-3.1 1.5v4.5c0 .2-.2.4-.4.4H10.4c-.2 0-.4-.2-.4-.4v-7.2c0-.2.2-.4.4-.4H17c-.8-1.5-.8-3.3-.2-4.9h.8z" fill="url(#pi-linearGradient)"/><linearGradient id="pi-linearGradient2" gradientUnits="userSpaceOnUse" x1="10.21" y1="-1.846" x2="21.147" y2="-1.846" gradientTransform="translate(0 10)"><stop offset="0" stop-color="#ffd843"/><stop offset="0.72" stop-color="#f66a13"/><stop offset="1" stop-color="#f45907"/></linearGradient><path fill-rule="nonzero" d="M14.2 6.2h-3.9c-.1 0-.1 0-.1-.1V6c0-.1 0-.1.1-.1h3.9c.1 0 .1 0 .1.1l-.1.2c.1 0 .1 0 0 0zm-1.2.5v.1c0 .1 0 .1.1.1h2.3c.1 0 .1 0 .1-.1v-.1c0-.1 0-.1-.1-.1l-2.4.1c0-.1 0-.1 0 0zm8.1 1.4l-2.7-2.7c-.1-.1-.1-.1-.2 0l-.6.5c-.1.1-.1.1 0 .2l1.5 1.5h-7.5c-.1 0-.1.1-.1.1v.8c0 .1.1.1.1.1h7.5l-1.5 1.5c-.1.1-.1.1 0 .2l.6.6c.1.1.1.1.2 0l2.7-2.7v-.1z" fill="url(#pi-linearGradient2)"/></svg>