<svg xmlns="http://www.w3.org/2000/svg" width="38" height="24" role="img" viewBox="0 0 38 24" aria-labelledby="pi-itau"><title id="pi-itau">Itau</title><g><path d="M35 0H3C1.3 0 0 1.3 0 3v18c0 1.7 1.4 3 3 3h32c1.7 0 3-1.3 3-3V3c0-1.7-1.4-3-3-3Z" opacity=".07"/><path fill="#FF6200" d="M35 1c1.1 0 2 .9 2 2v18c0 1.1-.9 2-2 2H3c-1.1 0-2-.9-2-2V3c0-1.1.9-2 2-2h32Z"/><path fill="#fff" d="M7.757 6.029c.012.01.072.029.132.043.111.027.268.099.385.177.093.062.311.297.354.38.021.04.043.077.05.084a.465.465 0 0 1 .041.092.399.399 0 0 0 .043.103c.027.04.058.284.058.466 0 .177-.027.385-.062.461-.111.255-.165.34-.305.488-.13.134-.183.175-.36.262-.144.072-.247.11-.33.117a.383.383 0 0 0-.13.031c-.014.025-.461.025-.461 0 0-.008-.052-.023-.117-.03a.876.876 0 0 1-.18-.042 2.119 2.119 0 0 0-.135-.056.415.415 0 0 1-.083-.037.288.288 0 0 0-.072-.043c-.12-.06-.367-.334-.439-.484-.039-.08-.076-.159-.086-.175-.07-.14-.083-.779-.017-.927.019-.04.046-.105.06-.144a.417.417 0 0 1 .037-.082.681.681 0 0 0 .054-.093c.039-.076.284-.34.319-.34.008 0 .027-.015.041-.033.04-.043.239-.14.36-.17.058-.015.122-.036.145-.046a.608.608 0 0 1 .123-.027c.122-.012.548.006.575.025ZM30.2 7.464v1.04h-3.996V7.112l.223-.035c.492-.076.799-.128.817-.14.013-.008.114-.025.227-.039.113-.014.216-.033.227-.041a1.28 1.28 0 0 1 .216-.042 2.79 2.79 0 0 0 .309-.053c.062-.014.191-.037.288-.05a1.66 1.66 0 0 0 .216-.039c.023-.01.126-.028.227-.043a2.04 2.04 0 0 0 .258-.043c.038-.01.187-.04.33-.062.141-.023.327-.053.411-.068.085-.016.175-.029.202-.03l.045-.003v1.04Zm-17.055.919v1.234h2.06v1.833h-2.062l.008 1.91c.007 2.057.002 1.956.114 2.21a.873.873 0 0 0 .53.445.29.29 0 0 1 .09.037c.039.03.873.03.91-.003a.543.543 0 0 1 .17-.037l.137-.014v1.807l-.056.024c-.05.023-.288.06-.613.099-.464.054-1.308.06-1.358.008a.144.144 0 0 0-.076-.018c-.08 0-.414-.062-.439-.08a.534.534 0 0 0-.125-.042.699.699 0 0 1-.124-.041.402.402 0 0 0-.103-.043.398.398 0 0 1-.092-.04.862.862 0 0 0-.083-.051 1.441 1.441 0 0 1-.313-.2.552.552 0 0 0-.113-.08c-.021-.002-.177-.173-.3-.33a2.548 2.548 0 0 1-.283-.473.484.484 0 0 0-.041-.083.669.669 0 0 1-.05-.144 1.502 1.502 0 0 0-.053-.175 1.367 1.367 0 0 1-.052-.206 9.447 9.447 0 0 0-.056-.258c-.014-.061-.024-.786-.03-2.158l-.009-2.064H9.541V9.617h1.195V7.54l.14-.014a.625.625 0 0 0 .158-.03c.012-.009.113-.027.227-.042a1.21 1.21 0 0 0 .226-.043 1.99 1.99 0 0 1 .289-.05c.148-.02.278-.043.288-.051a.565.565 0 0 1 .154-.029c.097-.012.193-.027.289-.047.22-.046.605-.106.624-.095.008.004.014.564.014 1.244Zm6.829 1.038c.288.017.613.054.638.072a.37.37 0 0 0 .113.029c.118.019.404.103.577.173a3.883 3.883 0 0 1 .597.31c.03.013.12.085.2.156.08.072.155.133.165.138a4.3 4.3 0 0 1 .397.484 3.97 3.97 0 0 1 .268.511c0 .008.017.053.04.1.02.048.045.12.053.159.008.04.023.08.03.093.009.01.028.076.042.144.012.068.029.138.035.154.008.017.027.105.043.196.025.136.031.649.04 2.919l.008 2.756h-2.247l-.002-.243a8.33 8.33 0 0 0-.017-.425l-.012-.185-.06.082a3.485 3.485 0 0 1-.53.505c-.27.177-.341.22-.416.245a.71.71 0 0 0-.134.053.917.917 0 0 1-.168.052.668.668 0 0 0-.134.041c-.105.078-1.403.077-1.504-.002a.79.79 0 0 0-.165-.04 1.14 1.14 0 0 1-.206-.055 8.588 8.588 0 0 0-.193-.08 2.923 2.923 0 0 1-.41-.216c-.087-.048-.116-.074-.35-.31-.241-.24-.272-.273-.272-.296a.55.55 0 0 0-.058-.1 1.384 1.384 0 0 1-.105-.19 3.085 3.085 0 0 0-.072-.155.836.836 0 0 1-.054-.164.656.656 0 0 0-.04-.134c-.023-.03-.063-.322-.063-.45 0-.059-.01-.119-.022-.131-.025-.025-.019-.107.045-.604a.91.91 0 0 1 .04-.195.553.553 0 0 0 .038-.122c.027-.107.083-.247.14-.352l.056-.107c.012-.027.029-.047.04-.047.007 0 .014-.013.014-.027 0-.023.226-.318.265-.344a.11.11 0 0 0 .03-.048.088.088 0 0 1 .055-.049c.022-.006.04-.019.04-.027 0-.02.347-.293.464-.36.085-.052.274-.149.55-.28.04-.021.424-.145.594-.192.061-.018.183-.043.267-.056a.991.991 0 0 0 .175-.039 1.63 1.63 0 0 1 .279-.039c.142-.012.317-.033.39-.043.293-.043 1.321-.035 1.43.01.038.017.04.008.025-.167a.747.747 0 0 0-.03-.193c-.011-.007-.024-.046-.032-.087a1.343 1.343 0 0 0-.166-.356c-.048-.072-.248-.278-.27-.278a.289.289 0 0 1-.079-.048.971.971 0 0 0-.325-.148c-.044-.008-.079-.023-.079-.03 0-.091-1.33-.106-1.73-.017-.051.01-.17.033-.267.05a1.414 1.414 0 0 0-.217.049c-.022.01-.096.028-.165.04a1.055 1.055 0 0 0-.164.042c-.023.01-.105.033-.184.051a.814.814 0 0 0-.164.05.616.616 0 0 1-.126.043.585.585 0 0 0-.124.044.688.688 0 0 1-.123.04.907.907 0 0 0-.18.062.492.492 0 0 1-.088.04c-.006 0-.01-.431-.01-.956 0-.744.006-.96.027-.977a.484.484 0 0 1 .127-.047.492.492 0 0 0 .124-.04.851.851 0 0 1 .154-.05.973.973 0 0 0 .155-.052.597.597 0 0 1 .142-.041.81.81 0 0 0 .154-.043c.019-.009.103-.031.188-.05a3.903 3.903 0 0 1 .453-.085c.12-.016.245-.038.278-.049.12-.037 1.199-.105 1.442-.09l.33.018Zm-11.36 4.295v4.099h-2.41V9.617h2.41v4.099Zm18.208-1.545c0 2.439.01 2.91.06 2.976.01.01.023.052.03.091.03.154.164.379.316.531.08.083.17.155.2.163.03.006.053.019.053.027s.072.037.16.066c.133.041.203.049.409.049.144 0 .27-.01.298-.022a.915.915 0 0 1 .143-.05.873.873 0 0 0 .206-.099c.115-.074.33-.272.33-.305 0-.01.028-.055.06-.099a.346.346 0 0 0 .063-.102c0-.013.018-.056.039-.097a.63.63 0 0 0 .055-.155.248.248 0 0 1 .031-.1c.052-.067.06-.483.06-2.899v-2.53h2.41v8.199h-1.141c-.892 0-1.148-.007-1.16-.027a3.562 3.562 0 0 1-.022-.433 2.813 2.813 0 0 0-.023-.405c-.008 0-.033.024-.058.055-.115.157-.296.334-.58.569a2.076 2.076 0 0 1-.311.168l-.206.104a.988.988 0 0 1-.176.051.48.48 0 0 0-.134.041c-.02.031-.385.062-.745.062-.354 0-.643-.025-.727-.06-.023-.01-.101-.035-.175-.053a.824.824 0 0 1-.155-.052.503.503 0 0 0-.107-.043c-.05-.012-.088-.03-.088-.04 0-.007-.038-.026-.083-.04-.045-.015-.082-.033-.082-.042 0-.008-.023-.024-.05-.037-.177-.08-.579-.457-.747-.7a2.994 2.994 0 0 1-.295-.554 1.33 1.33 0 0 0-.052-.14 1.247 1.247 0 0 1-.051-.165.764.764 0 0 0-.041-.138 1.135 1.135 0 0 1-.041-.216 1.028 1.028 0 0 0-.048-.223c-.018-.03-.026-.766-.03-2.962l-.007-2.918h2.412v2.554Z"/><path fill="#FF6200" d="M19.704 14.171c-.1.01-.204.027-.227.037a.91.91 0 0 1-.165.046 1.084 1.084 0 0 0-.195.055c-.31.134-.46.223-.562.33a.91.91 0 0 0-.215.414.394.394 0 0 1-.03.117c-.023.048-.015.194.022.385.041.208.206.462.352.538.26.134.31.154.454.177.259.039.753.017.86-.041.019-.01.095-.046.17-.078.074-.035.17-.091.216-.126l.115-.09c.117-.09.334-.448.363-.596a.275.275 0 0 1 .035-.097c.014-.018.024-.208.028-.548l.009-.519-.112-.012c-.15-.019-.891-.012-1.118.008Z"/></g></svg>