<svg xmlns="http://www.w3.org/2000/svg" viewBox="0 0 38 24" width="38" role="img" height="24" aria-labelledby="pi-ivy"><title id="pi-ivy">Ivy</title><g clip-path="url(#pi-ivy-clip0_2340_3988)"><path opacity=".07" d="M35 0H3C1.3 0 0 1.3 0 3v18c0 1.7 1.4 3 3 3h32c1.7 0 3-1.3 3-3V3c0-1.7-1.4-3-3-3z" fill="#000"/><path d="M35 1c1.1 0 2 .9 2 2v18c0 1.1-.9 2-2 2H3c-1.1 0-2-.9-2-2V3c0-1.1.9-2 2-2h32z" fill="#fff"/><path d="M7 7.52c.795-.002 1.589 0 2.384-.002.004 3.086.001 6.172.001 9.258-.795.006-1.59.006-2.385 0 .004-3.086.002-6.171 0-9.257zM11.619 9.565c.82-1.249 2.28-2.066 3.78-2.061.01.723.011 1.445 0 2.168-.798.077-1.579.487-1.995 1.191-.437.625-.348 1.42-.352 2.142.016.52-.047 1.045.045 1.562.984-.018 1.967 0 2.951-.009 1.058.004 2.038-.784 2.312-1.798.156-.641.058-1.31.082-1.964.023-1.097-.044-2.199.035-3.293h2.127c.076 1.462.006 2.931.035 4.397.036 1.078-.273 2.183-.945 3.036-.853 1.119-2.23 1.84-3.644 1.828-1.72.008-3.44-.01-5.159.01-.119-1.412-.013-2.842-.053-4.26-.042-1.03.19-2.092.78-2.949zM22.063 7.515c.844-.016 1.69-.023 2.535.004.694 1.703 1.336 3.427 2.036 5.128.244-.361.35-.79.505-1.19.486-1.312.976-2.623 1.463-3.933.809-.037 1.619-.023 2.429-.011-.17.61-.44 1.186-.669 1.775-.812 2.047-1.63 4.091-2.443 6.138-.306.763-.634 1.529-1.134 2.188-.578.817-1.48 1.353-2.461 1.526h-1.747c.007-.698.004-1.398 0-2.096.41-.037.825-.024 1.233-.093.669-.15 1.278-.625 1.54-1.263-.067-.467-.318-.88-.481-1.316-.928-2.288-1.906-4.558-2.806-6.857z" fill="#000"/></g><defs><clipPath id="pi-ivy-clip0_2340_3988"><path fill="#fff" d="M0 0h38v24H0z"/></clipPath></defs></svg>