<svg xmlns="http://www.w3.org/2000/svg" viewBox="0 0 38 24" width="38" height="24" fill="none" role="img" aria-labelledby="pi-iwocapaypaylater"><title id="pi-iwocapaypaylater">iwocaPay Pay Later</title><path fill="#000" d="M35 0H3C1.3 0 0 1.3 0 3v18c0 1.7 1.4 3 3 3h32c1.7 0 3-1.3 3-3V3c0-1.7-1.4-3-3-3z" opacity=".07"/><path fill="#fff" d="M35 1c1.1 0 2 .9 2 2v18c0 1.1-.9 2-2 2H3c-1.1 0-2-.9-2-2V3c0-1.1.9-2 2-2h32"/><path fill="#FB5950" fill-rule="evenodd" d="M4.82 18h10.656a.666.666 0 0 0 .67-.674V6.674A.673.673 0 0 0 15.47 6H4.82a.673.673 0 0 0-.674.674v10.652c0 .373.302.674.675.674Zm9.982-1.353H5.5V7.343h9.303v9.304Zm-2.17-6.781v4.269a.136.136 0 0 1-.19.127l-1.077-.449a.14.14 0 0 1-.082-.128v-3.37c0-.056.031-.107.082-.128l1.078-.449a.138.138 0 0 1 .189.128Zm-3.619.449v3.37a.14.14 0 0 1-.082.127l-1.077.45a.136.136 0 0 1-.189-.128V9.865c0-.097.097-.163.19-.127l1.076.449c.046.02.082.072.082.128Zm9.85 4.228h.573c.148 0 .231-.084.231-.232v-2.054h1.175c1.407 0 2.379-.888 2.379-2.138 0-1.249-.972-2.128-2.379-2.128h-1.98c-.148 0-.231.083-.231.231v6.09c0 .147.083.23.231.23Zm3.33-4.424c0 .722-.518 1.176-1.35 1.176h-1.176V8.953h1.175c.833 0 1.352.454 1.352 1.166Zm5.896 3.156v-3.072c0-.148-.083-.232-.231-.232h-.518c-.148 0-.232.084-.232.232v.24h-.018a1.805 1.805 0 0 0-1.333-.564c-1.23 0-2.156.99-2.156 2.378 0 1.388.926 2.378 2.156 2.378.648 0 1.176-.314 1.509-.675.13.435.407.62.851.62.268 0 .49-.102.49-.38v-.287c0-.138-.073-.212-.221-.212h-.019c-.204 0-.278-.223-.278-.426Zm-.98-1.953v1.87c-.25.314-.713.536-1.176.536-.786 0-1.332-.601-1.332-1.471 0-.87.546-1.471 1.332-1.471.463 0 .926.222 1.175.536Zm6.147-1.092-1.99 5.127c-.296.759-.805 1.129-1.564 1.129-.231 0-.518-.046-.851-.204-.148-.064-.185-.166-.102-.333l.157-.324c.074-.157.158-.194.306-.13.11.047.277.103.49.103.333 0 .574-.186.722-.583l.166-.472-1.674-4.313c-.056-.148.018-.259.194-.259h.527c.148 0 .213.056.26.195l1.175 3.266h.018l1.194-3.266c.046-.13.12-.195.26-.195h.517c.167 0 .25.13.195.26Z" clip-rule="evenodd"/></svg>