<svg width="38" height="24" role="img" aria-labelledby="pi-jcb" viewBox="0 0 38 24" xmlns="http://www.w3.org/2000/svg"><title id="pi-jcb">JCB</title><g fill="none" fill-rule="evenodd"><g fill-rule="nonzero"><path d="M35 0H3C1.3 0 0 1.3 0 3v18c0 1.7 1.4 3 3 3h32c1.7 0 3-1.3 3-3V3c0-1.7-1.4-3-3-3z" fill="#000" opacity=".07"/><path d="M35 1c1.1 0 2 .9 2 2v18c0 1.1-.9 2-2 2H3c-1.1 0-2-.9-2-2V3c0-1.1.9-2 2-2h32" fill="#FFF"/></g><path d="M11.5 5H15v11.5a2.5 2.5 0 0 1-2.5 2.5H9V7.5A2.5 2.5 0 0 1 11.5 5z" fill="#006EBC"/><path d="M18.5 5H22v11.5a2.5 2.5 0 0 1-2.5 2.5H16V7.5A2.5 2.5 0 0 1 18.5 5z" fill="#F00036"/><path d="M25.5 5H29v11.5a2.5 2.5 0 0 1-2.5 2.5H23V7.5A2.5 2.5 0 0 1 25.5 5z" fill="#2AB419"/><path d="M10.755 14.5c-1.06 0-2.122-.304-2.656-.987l.78-.676c.068 1.133 3.545 1.24 3.545-.19V9.5h1.802v3.147c0 .728-.574 1.322-1.573 1.632-.466.144-1.365.221-1.898.221zm8.116 0c-.674 0-1.388-.107-1.965-.366-.948-.425-1.312-1.206-1.3-2.199.012-1.014.436-1.782 1.468-2.165 1.319-.49 3.343-.261 3.926.27v.972c-.572-.521-1.958-.898-2.919-.46-.494.226-.737.917-.744 1.448-.006.56.245 1.252.744 1.497.953.467 2.39.04 2.919-.441v1.01c-.358.255-1.253.434-2.129.434zm8.679-2.587c.37-.235.582-.567.582-1.005 0-.438-.116-.687-.348-.939-.206-.207-.58-.469-1.238-.469H23v5h3.546c.696 0 1.097-.23 1.315-.415.283-.25.426-.53.426-.96 0-.431-.155-.908-.737-1.212zm-1.906-.281h-1.428v-1.444h1.495c.956 0 .944 1.444-.067 1.444zm.288 2.157h-1.716v-1.513h1.716c.986 0 1.083 1.513 0 1.513z" fill="#FFF" fill-rule="nonzero"/></g></svg>