<svg xmlns="http://www.w3.org/2000/svg" width="38" height="24" fill="none" aria-labelledby="pi-jenius" viewBox="0 0 38 24" role="img"><title id="pi-jenius">Jenius</title><g clip-path="url(#clip0_1_1272)"><path fill="#000" d="M35 0H3C1.3 0 0 1.3 0 3v18c0 1.7 1.4 3 3 3h32c1.7 0 3-1.3 3-3V3c0-1.7-1.4-3-3-3Z" opacity=".07"/><path fill="#fff" d="M35 1c1.1 0 2 .9 2 2v18c0 1.1-.9 2-2 2H3c-1.1 0-2-.9-2-2V3c0-1.1.9-2 2-2h32Z"/><mask id="pi-jenius-mask0_1_1272" width="32" height="8" x="3" y="8" maskUnits="userSpaceOnUse" style="mask-type:luminance"><path fill="#fff" d="M35 8.59H3v7.274h32V8.59Z"/></mask><g fill="#00A4E4" mask="url(#pi-jenius-mask0_1_1272)"><path d="M8.404 15.053c.874-.504 1.42-1.368 1.42-2.306 0-2.092-2.112-2.84-2.112-2.84-.389-.222-.868-.34-1.399-.34h-.15c.54-.39 1.24-.631 1.95-.631 1.65 0 2.9 1.514 2.9 2.932 0 1.649-1.208 2.929-2.609 3.185Zm-1.062-.006c-1.074-.203-1.956-.989-2.334-1.92.376.358.911.602 1.595.602 1.092 0 2.13-.81 2.13-2.007 0-.59-.216-.975-.216-.975.456.447.745 1.074.745 1.838 0 1.074-.832 2.076-1.92 2.462Zm-.96.17c-1.282 0-2.635-1.198-2.635-2.689 0-.728.236-1.455.835-1.944-.107.214-.18.471-.209.78a2.73 2.73 0 0 0-.022.347c0 1.61.914 2.946 2.344 3.486-.103.014-.208.02-.313.02Zm.124-5.213c.932 0 1.652.885 1.652 1.674 0 1.069-.675 1.784-1.618 1.784-.846 0-1.602-.757-1.602-1.833 0-.888.685-1.625 1.568-1.625Zm1.328-1.412c-.87 0-2.107.362-2.836 1.244C3.844 10.324 3 11.411 3 12.602c0 1.845 1.627 2.948 3.588 2.948.323 0 .631-.069.918-.14.211.032.43.05.657.05 1.851 0 3.482-1.45 3.482-3.344 0-1.953-1.609-3.524-3.81-3.524ZM14.7 14.004c0 .594-.39.93-1.222.955v.904c.945 0 2.142-.495 2.142-1.86v-4.43h-.92v4.43ZM17.34 11.396c.06-.55.304-1.037.91-1.037.608 0 .85.486.912 1.037H17.34Zm2.784.085c0-.703-.4-1.993-1.874-1.993-1.396 0-1.872 1.131-1.872 2.302 0 1.173.486 2.303 2.09 2.303.434 0 .987-.1 1.621-.536l-.468-.703c-.399.244-.781.369-1.154.369-.711 0-1.04-.469-1.118-.955h1.933c.573 0 .842-.217.842-.787ZM22.623 9.488c-1.146 0-1.733.913-1.733.913v3.642h.918v-3.349s.286-.335.815-.335c.581 0 .902.46.902.87v2.814h.92V11.23c0-.846-.617-1.742-1.822-1.742ZM25.464 14.043h.919V9.538h-.919v4.505ZM33.335 11.313h.008c-.313-.084-.719-.232-.719-.543 0-.226.243-.41.702-.41.46 0 .98.2 1.18.292l.295-.796c-.305-.15-.92-.368-1.475-.368-.797 0-1.63.393-1.63 1.282 0 .82.746 1.23 1.483 1.406.4.083.901.243.901.562 0 .335-.405.486-.806.486-.39 0-.927-.244-1.335-.454l-.355.83c.39.193.963.476 1.69.493.84 0 1.726-.384 1.726-1.355 0-.94-.971-1.258-1.665-1.425ZM30.064 12.352c0 .408-.32.867-.897.87a.88.88 0 0 1-.896-.87V9.538h-.919v2.814c0 .843.613 1.735 1.81 1.741h.011c1.198-.006 1.81-.898 1.81-1.741V9.538h-.919v2.814Z"/></g></g><defs><clipPath id="pi-jeniuis-clip0_1_1272"><path fill="#fff" d="M0 0h38v24H0z"/></clipPath></defs></svg>