<svg xmlns="http://www.w3.org/2000/svg" role="img" viewBox="0 0 38 24" width="38" height="24" aria-labelledby="pi-jko"><title id="pi-jko">Jko</title><path opacity=".07" d="M35 0H3C1.3 0 0 1.3 0 3v18c0 1.7 1.4 3 3 3h32c1.7 0 3-1.3 3-3V3c0-1.7-1.4-3-3-3z"/><path fill="#FF0000" d="M35 1c1.1 0 2 .9 2 2v18c0 1.1-.9 2-2 2H3c-1.1 0-2-.9-2-2V3c0-1.1.9-2 2-2h32"/><path fill="#fff" d="M18.99 6.704c0-.218-.003-.384.003-.549.016-.479.287-.686.788-.688.49 0 .775.182.801.671.026.436-.096 1.012.149 1.267.233.241.857.143 1.309.196.437.051.578.326.586.697.009.387-.099.713-.563.774-.287.039-.585.03-.877.013-.578-.037-.606.305-.61.715-.003.41.085.666.606.661 1.99-.013 3.979-.008 5.969-.002.717.002.93.224.897.855-.02.431-.26.643-.695.659-.428.016-.86.031-1.289 0-.536-.039-.721.166-.715.669.022 1.807.013 3.612.005 5.419-.001.578-.212.745-.822.745-.549 0-.759-.264-.756-.761.01-1.752.002-3.503.002-5.253 0-.809 0-.81-.834-.811-.604-.002-1.209.016-1.814-.005-.517-.018-.549.276-.551.645-.003.377.062.667.56.647.233-.01.468-.001.702 0 .527.003.791.249.786.752-.005.514-.224.733-.779.754a9.156 9.156 0 0 1-.703.002c-.395-.016-.563.157-.566.529-.004.569.188.704.742.487.125-.049.251-.102.372-.163.395-.2.778-.299 1.069.141.309.465.232.894-.23 1.204-1.594 1.068-3.42 1.487-5.326 1.636-.61.046-.849-.224-.918-.84-.06-.509.275-.679.717-.766.517-.098 1.042-.17 1.542-.32.181-.055.302-.301.437-.467.03-.035.006-.108.006-.163-.012-1.369.174-1.299-1.282-1.276-.539.007-.791-.239-.798-.738-.005-.52.201-.737.761-.769.173-.011.349-.003.525-.004.74-.005 1.017-.357.763-1.016-.046-.117-.239-.23-.38-.255-.248-.043-.507-.013-.76-.017-.661-.01-.899-.205-.905-.746-.008-.573.226-.768.93-.777h.294c.809-.002 1.08-.335.823-1.067-.046-.128-.263-.256-.421-.286-.263-.047-.543-.01-.816-.016-.6-.014-.818-.224-.813-.769.007-.509.229-.71.798-.724.136-.002.274 0 .409 0 .865-.002.865-.002.872-.89z" transform="translate(.032 -.015)"/><path fill="#fff" d="M13.945 17.737v-4.615c-.288.131-.472.213-.655.299-.659.308-1.255.09-1.449-.586-.05-.174.069-.508.225-.599a12.134 12.134 0 0 0 3.477-3.075c.098-.125.534-.17.684-.074.377.238.827.549.544 1.074-.253.472-.622.887-.898 1.349-.153.257-.311.556-.314.837-.029 1.879-.01 3.757-.018 5.635-.004.689-.408.977-1.105.802-.574-.144-.47-.599-.491-1.047z" transform="translate(.032 -.015)"/><path fill="#fff" d="M14.112 7.215c.431-.476.839-.922 1.23-1.377.236-.273.424-.612.891-.353.51.28.761.774.506 1.188-.32.52-.649 1.071-1.112 1.469-.71.613-1.511 1.145-2.324 1.638-.535.325-1.334-.118-1.357-.724-.006-.184.192-.424.366-.556.572-.439 1.178-.842 1.8-1.285z" transform="translate(.032 -.015)"/><path fill="#fff" d="M25.911 6.268c-.031.487.015.966-.146 1.373-.313.799-.743 1.556-1.124 2.331l-.159.004c-.434-.949-.923-1.882-1.284-2.856-.246-.662.202-1.382.852-1.63.714-.27 1.377-.006 1.861.778m-1.863.424c.044.502.322.77.679.601.169-.08.356-.319.354-.484-.004-.169-.219-.465-.354-.473-.213-.011-.436.175-.679.356z" transform="translate(.032 -.015)"/></svg>
