<svg xmlns="http://www.w3.org/2000/svg" role="img" viewBox="0 0 38 24" width="38" height="24" aria-labelledby="pi-jousto"><title id="pi-jousto">Jousto Lasku ja Osamaksu</title><path opacity=".07" d="M35 0H3C1.3 0 0 1.3 0 3v18c0 1.7 1.4 3 3 3h32c1.7 0 3-1.3 3-3V3c0-1.7-1.4-3-3-3z"/><path fill="#fff" d="M35 1c1.1 0 2 .9 2 2v18c0 1.1-.9 2-2 2H3c-1.1 0-2-.9-2-2V3c0-1.1.9-2 2-2h32"/><g fill="#0071CF"><path d="M11.749 16.386c.292 0 .492-.12.611-.372.12-.24.186-.598.186-1.063 0-.465-.066-.811-.186-1.05-.12-.24-.332-.36-.625-.36-.292 0-.491.12-.624.36-.12.239-.186.585-.186 1.05 0 .465.066.824.186 1.063.133.24.345.372.638.372zM21.239 13.914c.106.067.412.2.93.399.385.16.665.305.85.465.187.146.32.332.413.532.053.133.093.279.106.438v-2.233h-.385l-.147.346a7.056 7.056 0 0 0-.797-.293c-.28-.08-.505-.12-.678-.12-.306 0-.465.08-.465.227.013.093.066.173.173.24zM28.828 16.386c.292 0 .492-.12.611-.372.12-.24.186-.598.186-1.063 0-.465-.066-.811-.186-1.05-.12-.24-.332-.36-.624-.36-.293 0-.492.12-.625.36-.12.239-.186.585-.186 1.05 0 .465.066.824.186 1.063.133.24.345.372.638.372zM21.185 16.453c.412 0 .612-.093.612-.28 0-.092-.053-.186-.173-.252-.12-.08-.439-.226-.997-.439-.505-.199-.85-.438-1.05-.704a.956.956 0 0 1-.16-.28v1.556c.253.106.532.2.825.266.359.093.678.133.943.133z"/><path d="M33.945 15.589L28.589 2.364A1.21 1.21 0 0 0 27.02 1.7L4.758 10.724a1.21 1.21 0 0 0-.665 1.569l2.353 5.794c.106.014.199.027.305.027.36 0 .545-.252.545-.744v-4.971h1.795v1.887c.093-.571.318-1.05.664-1.409.479-.491 1.156-.73 2.02-.73.532 0 1.01.119 1.422.345.412.226.731.558.944.983.133.24.213.506.266.798v-1.967h1.781v2.977c0 .359 0 .625.093.81.093.187.253.28.478.28.306 0 .718-.04.904-.28v-3.787h1.781v.81c.093-.199.24-.372.439-.518.385-.279.944-.425 1.661-.425.36 0 .691.04 1.01.12.2.053.4.12.612.199l.505-.08-.013-1.316h1.78v1.263h.931v1.143h-.93v2.286c0 .359.172.598.505.598.133 0 .279-.026.438-.053-.186-.399-.279-.864-.279-1.396 0-.89.24-1.581.718-2.073s1.156-.731 2.02-.731c.532 0 1.01.12 1.422.346.412.226.731.558.944.983.226.425.332.917.332 1.489 0 .89-.239 1.581-.717 2.086-.479.492-1.144.745-2.007.745-.824 0-1.49-.253-1.968-.758a2.435 2.435 0 0 1-.425-.598v1.103c-.093.027-.2.053-.292.08-.226.04-.492.066-.811.066-.625 0-1.09-.16-1.369-.465-.24-.252-.372-.518-.399-.983-.04.505-.226.89-.585 1.156-.398.292-.97.452-1.714.452-.399 0-.758-.027-1.05-.067-.253-.04-.518-.146-.784-.239v.12h-1.569v-.558h-.106c-.146.252-.412.345-.678.478a2.1 2.1 0 0 1-.943.2c-.572 0-1.01-.173-1.33-.519-.319-.345-.425-.73-.425-1.369v-.173c-.106.545-.319.997-.651 1.343-.479.492-1.143.744-2.007.744-.824 0-1.489-.252-1.967-.758-.36-.372-.585-.85-.678-1.422v2.14c0 .545-.173.97-.505 1.276-.332.306-.81.465-1.422.465h-.16L8.2 22.5h11.962l13.092-5.303c.638-.292.93-.997.69-1.608zM8.187 11.974c-.625 0-.944-.253-.944-.771 0-.266.08-.466.226-.585.146-.133.385-.2.718-.2.332 0 .571.067.73.2.147.133.227.332.227.585 0 .518-.32.77-.957.77z"/></g></svg>
