<svg xmlns="http://www.w3.org/2000/svg" role="img" viewBox="0 0 38 24" width="38" height="24" aria-labelledby="pi-kakebaraidotcom"><title id="pi-kakebaraidotcom">Kakebaraidotcom</title><path fill="#000" opacity=".07" d="M35 0H3C1.3 0 0 1.3 0 3v18c0 1.7 1.4 3 3 3h32c1.7 0 3-1.3 3-3V3c0-1.7-1.4-3-3-3z"/><path fill="#fff" d="M35 1c1.1 0 2 .9 2 2v18c0 1.1-.9 2-2 2H3c-1.1 0-2-.9-2-2V3c0-1.1.9-2 2-2h32"/><path d="M6.8 2.2v8.5s.4 1-1.2.8V13h1.6s1.1-.1 1.1-1.4V2.3H6.8z" fill="#dc80b1"/><path d="M5.5 4.4h3.3v1.2H5.5zm3.4 2.8v1.4L5.5 9.7V8.3zm1.7-5h1.5v9.5h-1.5z" fill="#dc80b1"/><path d="M9.2 3.7h4.3v1.2H9.2zm-.3 2.1h4.8v1.1H8.9zm.3 2.4h4.3v1.1H9.2zm4.5 2.4l-5 .7v1.1l5-.6zm.5-8.4h1.4v10.7h-1.4z" fill="#dc80b1"/><path d="M15.2 6l2.1 1.3-.5 1.4-1.7-1.1z" fill="#dc80b1"/><path d="M22.8 2.4v7.9s.1 1.1-.7 1.1h-.8v1.4h1.9s1.2 0 1.2-1.4V2.3h-1.6z" fill="#81bbdb"/><path d="M21.3 4.4h4.3v1.2h-4.3zm4.3 2.5L21.1 8v1.3l4.5-1zm1.9-4.2l-2.1 8.6 1.7-.2 2-8.2z" fill="#81bbdb"/><path d="M30.7 10.4l-5.9.9.1 1.4 6-.9z" fill="#81bbdb"/><path d="M28.6 7.3l2.3 5.4 1.6-.8L30 6.7z" fill="#81bbdb"/><path d="M11.8 15.3H7.9s-.7.1-.7.8v3.6s0 .7.7.7h3.8s0 1.4-1.2 1.4H7.4S5.5 22 5.5 20v-4.7s-.1-1.5 2-1.5h3s1.3.2 1.3 1.5zm6.3-1.5h-3.5s-1.8.2-1.8 1.8v4.7s.1 1.5 1.7 1.5H18s1.8 0 1.8-1.4v-4.8s.1-1.8-1.7-1.8z" fill="#4b7da8"/><path d="M17.3 15.3h-2s-1 .1-1 1.1v2.9s.1.9 1 .9h2s1 0 1-.9v-3s0-1-1-1z" fill="#fff"/><path d="M21.3 13.8v8H23v-6.4h3.1v6.4h1.6v-6.5h2.6s.6-.1.6.6v5.8h1.5v-6.4s0-1.5-1.5-1.5h-9.6z" fill="#4b7da8"/></svg>