<svg xmlns="http://www.w3.org/2000/svg" role="img" viewBox="0 0 38 24" width="38" height="24" aria-labelledby="pi-kasssh"><title id="pi-kasssh">Kasssh</title><path fill="#000" opacity=".07" d="M35 0H3C1.3 0 0 1.3 0 3v18c0 1.7 1.4 3 3 3h32c1.7 0 3-1.3 3-3V3c0-1.7-1.4-3-3-3z"/><path fill="#fff" d="M35 1c1.1 0 2 .9 2 2v18c0 1.1-.9 2-2 2H3c-1.1 0-2-.9-2-2V3c0-1.1.9-2 2-2h32"/><g fill="#53bbb0"><path d="M6.634 10.205l.37-.432h-.087c-.577 0-1.154.001-1.732-.001-.058 0-.091.019-.125.063a982.886 982.886 0 01-1.426 1.861l-.013-.006v-.081-3.518c0-.088 0-.088-.09-.088-.476 0-.952.001-1.428-.001-.059 0-.082.01-.082.077.002 2.315.002 4.63 0 6.945 0 .057.014.073.072.073.481-.002.961-.003 1.442 0 .068 0 .088-.014.088-.086-.003-.795-.002-1.591-.001-2.386 0-.025-.007-.053.012-.084l.036.058 1.436 2.441c.021.036.041.057.089.057.563-.002 1.127-.001 1.69-.002.016 0 .037.009.051-.013l-.04-.063-1.858-2.845c-.029-.043-.032-.071.003-.112.532-.617 1.062-1.237 1.593-1.857zM12.941 9.772c-.487.002-.975.002-1.462 0-.061 0-.072.021-.07.075.003.16.001.321.001.481l-.014.004-.024-.032a1.427 1.427 0 00-.56-.488c-.444-.222-.915-.266-1.397-.188-.862.138-1.498.603-1.905 1.371-.34.64-.412 1.326-.292 2.034.093.546.306 1.044.696 1.443.747.764 1.651.969 2.668.686a1.3 1.3 0 00.806-.618c.003-.005.01-.007.021-.015 0 .172.003.336-.001.501-.001.058.015.073.072.072.485-.002.97-.002 1.456 0 .055 0 .074-.01.074-.07-.002-1.729-.002-3.458 0-5.187 0-.054-.014-.07-.069-.069zM10.576 13.7a1.33 1.33 0 01-1.801-1.052c-.084-.587.193-1.162.686-1.421.501-.264 1.183-.164 1.571.235.263.271.381.6.379.975-.001.579-.322 1.064-.835 1.263zM17.493 12.217a3.434 3.434 0 00-.658-.28c-.277-.091-.561-.157-.834-.261a1.128 1.128 0 01-.321-.171c-.225-.182-.181-.481.086-.592a.649.649 0 01.359-.032c.197.03.331.132.352.344.005.051.036.048.072.048h1.352c.149 0 .152-.001.128-.148-.094-.579-.383-1.032-.919-1.286-.76-.36-1.528-.345-2.272.051-.499.266-.813.682-.885 1.255-.051.398.049.751.335 1.044.211.216.466.363.742.48.349.148.716.246 1.068.387.152.061.302.126.414.252a.38.38 0 01-.1.599.732.732 0 01-.418.088c-.273-.018-.457-.165-.521-.429-.012-.05-.035-.058-.079-.057-.241.002-.483.001-.724.001h-.683c-.111 0-.113 0-.095.114.103.653.444 1.137 1.044 1.419.608.285 1.242.304 1.883.126a1.99 1.99 0 00.993-.603c.32-.366.434-.798.393-1.273-.043-.485-.296-.835-.712-1.076zM20.698 16.396c0 .007-.002.013-.004.02l-.002.003c.025-.018.054-.019.082-.019h.834c.029 0 .058.002.083.019l-.002-.003c-.008-.025-.006-.05-.006-.075v-1.007c0-.106.007-.114.113-.136.421-.088.801-.26 1.108-.566.281-.28.432-.621.465-1.019a1.608 1.608 0 00-.079-.672 1.295 1.295 0 00-.56-.669c-.287-.181-.606-.286-.928-.383-.205-.061-.412-.116-.612-.191a1.241 1.241 0 01-.312-.159c-.097-.073-.167-.165-.174-.292-.001-.025.004-.038.006-.061.002-.014.006-.026.01-.039a.373.373 0 01.192-.227c.02-.007.067-.037.114-.05a.69.69 0 01.355.008c.16.045.264.147.292.314.009.053.034.067.083.066l1.38-.001c.071 0 .075-.004.064-.077a1.838 1.838 0 00-.299-.79c-.018-.026-.034-.053-.054-.078a1.544 1.544 0 00-.273-.275l-.031-.022a1.91 1.91 0 00-.764-.342c-.086-.021-.097-.035-.097-.123v-1c0-.095-.002-.097-.096-.097h-.793c-.091 0-.093.002-.094.092v1c0 .109-.002.111-.11.139-.356.09-.678.248-.947.501-.277.262-.44.584-.489.964-.036.276.006.537.144.779.127.223.318.384.531.522.256.165.54.265.825.363.278.096.56.182.826.311.062.03.119.07.172.114.197.161.266.515-.063.695-.045.025-.102.038-.153.052-.039.011-.078.011-.118.015a.713.713 0 01-.19-.008h-.001l-.004-.002a.66.66 0 01-.298-.105.494.494 0 01-.179-.279c-.015-.059-.046-.075-.103-.075l-1.387.001c-.073 0-.079.007-.067.081.06.365.193.669.395.917.004.004.006.009.009.014.096.116.212.217.34.307l.037.028c.135.09.286.167.454.23l.012.004c.095.034.192.061.29.083.019.005.023.009.035.019.004.004.022.02.025.025.009.013.014.02.014.041 0 .37.003.742-.001 1.115zM28.081 12.414c-.236-.207-.515-.336-.808-.433-.305-.101-.613-.191-.919-.291a.968.968 0 01-.395-.218c-.174-.175-.135-.429.085-.54a.642.642 0 01.503-.022.34.34 0 01.244.304c.006.054.026.061.073.061.439-.002.878 0 1.318-.001.059 0 .14.026.171-.012.03-.037-.003-.113-.013-.172-.103-.57-.401-1.002-.925-1.26-.504-.248-1.038-.293-1.586-.188a2.099 2.099 0 00-1.029.498 1.568 1.568 0 00-.542 1.178 1.18 1.18 0 00.38.906c.23.223.508.368.803.484.331.131.674.227 1.004.36.113.046.221.1.318.176.202.159.279.518-.082.688a.762.762 0 01-.383.062.534.534 0 01-.509-.426c-.011-.049-.031-.06-.078-.06-.241.002-.483.001-.724.001h-.738c-.026 0-.061-.015-.054.041.087.661.406 1.17 1.009 1.468.663.328 1.354.338 2.05.111.375-.122.698-.329.94-.646.3-.393.385-.841.307-1.323a1.243 1.243 0 00-.42-.746zM34.231 10.943c-.143-.517-.431-.922-.928-1.152a2.195 2.195 0 00-1.332-.164c-.284.05-.541.158-.754.36-.083.079-.15.171-.212.268a.122.122 0 00-.017-.007v-.074c0-.697-.001-1.393.002-2.09 0-.068-.019-.082-.084-.082-.481.003-.961.002-1.442 0-.057 0-.073.014-.073.072.002 2.317.002 4.635 0 6.952 0 .06.019.071.074.071.483-.002.966-.002 1.449 0 .06 0 .076-.013.076-.075-.002-.947-.001-1.894-.002-2.842 0-.127.007-.253.028-.377.053-.31.191-.555.507-.662a1.12 1.12 0 01.491-.043.703.703 0 01.621.484c.074.197.093.401.094.609 0 .943.001 1.885-.001 2.828 0 .064.018.079.08.079.481-.003.961-.003 1.442 0 .065 0 .078-.02.078-.081-.002-1.069 0-2.138-.002-3.207a3.337 3.337 0 00-.095-.867zM36.027 13.448a.821.821 0 00-.832.83c0 .464.366.832.829.832a.83.83 0 00.831-.833.827.827 0 00-.828-.829z"/></g></svg>