<svg width="38" height="24" viewBox="0 0 38 24" fill="none" role="img" aria-labelledby="pi-katapult" xmlns="http://www.w3.org/2000/svg"><title id="pi-katapult">Katapult</title><path d="M1 3a2 2 0 012-2h32a2 2 0 012 2v18a2 2 0 01-2 2H3a2 2 0 01-2-2V3z" fill="#fff"/><path fill-rule="evenodd" clip-rule="evenodd" d="M3 0h32a3 3 0 013 3v18a3 3 0 01-3 3H3a3 3 0 01-3-3V3a3 3 0 013-3zm0 1a2 2 0 00-2 2v18a2 2 0 002 2h32a2 2 0 002-2V3a2 2 0 00-2-2H3z" fill="#000" fill-opacity=".07"/><path d="M33.079 12.924v-1.816h1.18v-.838h-1.18V9.082l-.964.277v.912h-.71v.837h.71v1.823c0 1.174.964 1.615 2.182 1.271v-.941c-.837.298-1.218.03-1.218-.337zM23.167 10.211c-.508 0-.904.187-1.188.486v-.426h-.972v3.137a1.108 1.108 0 01-.233.026c-.483 0-.781-.179-.784-.688v-2.475h-.971v.434a1.605 1.605 0 00-1.189-.5c-1.076 0-1.966.896-1.966 2.047 0 .295.064.577.177.832a.927.927 0 01-.296.214c-.128.058-.274.128-.44.128-.457.031-.67-.228-.67-.501v-1.817h1.182v-.837h-1.181V9.082l-.964.277v.912h-.71v.837h.71V12.932c0 .12.01.232.03.337a1.124 1.124 0 01-.584.165c-.483 0-.781-.18-.783-.688v-2.475h-.972v.433a1.605 1.605 0 00-1.189-.5c-1.076 0-1.965.896-1.965 2.048 0 1.106.89 2.04 1.965 2.04.501 0 .905-.194 1.189-.486 0 0 .13-.117.27-.27.303.472.77.78 1.389.78.42 0 .772-.138 1.042-.354.254.238.617.357 1.044.354.178-.001.368-.024.566-.068.059-.018.119-.04.18-.067a2.22 2.22 0 00.631-.453c.353.347.827.564 1.344.564.501 0 .905-.194 1.189-.486 0 0 .13-.117.27-.271.302.472.77.78 1.389.78a1.8 1.8 0 00.33-.03v1.516h.971v-2.01c.285.306.688.5 1.189.5a1.92 1.92 0 001.101-.346c.24-.166.441-.387.59-.645.175-.304.275-.662.275-1.049 0-1.106-.889-2.04-1.966-2.04zM11.31 12.746h-.002v.002a1.163 1.163 0 01-1.035.662c-.658 0-1.152-.53-1.152-1.159 0-.628.494-1.166 1.152-1.166.635 0 1.15.538 1.15 1.166.001.176-.04.344-.113.495zm7.656 0l-.001.002a1.163 1.163 0 01-1.036.662c-.658 0-1.151-.53-1.151-1.159 0-.628.493-1.166 1.15-1.166.636 0 1.152.538 1.152 1.166 0 .176-.041.344-.114.495zm5.156-.016a1.134 1.134 0 01-1.05.687c-.636 0-1.151-.538-1.151-1.166 0-.628.523-1.166 1.15-1.166.658 0 1.151.538 1.151 1.166 0 .17-.035.331-.1.479zM28.378 12.31c0 .606-.388 1.084-.979 1.084-.47 0-.873-.359-.873-.934v-2.189h-.972v2.443c0 .994.792 1.584 1.651 1.584.53 0 .92-.231 1.173-.515v.448h.972v-3.96h-.972v2.04z" fill="#ED5370"/><path d="M8.514 9h-1.24l-2.257 2.579V9H4v5.232h1.017v-1.3l.687-.77 1.63 2.07h1.24l-2.212-2.817L8.514 9zM31.013 9h-.972v5.232h.972V9zM35.263 14.622c0 .186-.15.334-.34.334a.336.336 0 01-.343-.334c0-.187.153-.332.345-.332.188 0 .338.145.338.332zm-.597 0c0 .147.11.265.259.265.144.002.253-.118.253-.263a.259.259 0 00-.257-.268.26.26 0 00-.255.266zm.204.172h-.077v-.332c.03-.004.073-.01.127-.01.063 0 .091.01.114.026.02.014.035.039.035.071 0 .04-.031.067-.07.08v.003c.033.01.05.037.06.081.01.051.018.069.024.081h-.081c-.01-.012-.016-.04-.026-.08-.006-.035-.026-.051-.069-.051h-.037v.13zm.002-.186h.037c.042 0 .077-.015.077-.049 0-.03-.023-.05-.071-.05a.186.186 0 00-.043.003v.096z" fill="#ED5370"/></svg>