<svg xmlns="http://www.w3.org/2000/svg" role="img" fill="none" viewBox="0 0 38 24" width="38" height="24" aria-labelledby="pi-kb_card"><title id="pi-kb_card">KB Card</title><rect x="1" y="1" width="36" height="22" rx="2" fill="#fff"/><rect x=".5" y=".5" width="37" height="23" rx="2.5" stroke="#000" stroke-opacity=".07"/><path d="M31.083 12.24l-.22-.14c-.738-.73-1.799-1.066-3.199-.986a6.08 6.08 0 00-2.796.954v-.033a11 11 0 01.08-1.133c.049-.383.077-.768.085-1.154a2.68 2.68 0 00-.176-1.052.205.205 0 00-.2-.128 3.109 3.109 0 00-1.289.42l-.1.212a8.504 8.504 0 01-.187 1.706l-.052.139a20.624 20.624 0 000 4.343c0 .124.258.315.446.366.188.05.844-.095 1.212-.234l.14-.022a.212.212 0 00.178-.158.206.206 0 00.003-.083v-.365c.265-1.075 1.345-2.357 2.623-2.558a1.824 1.824 0 011.739.56 2.33 2.33 0 01-.291 1.793 3.631 3.631 0 01-1.993 1.56 7.622 7.622 0 01-3.032.405l-1.124-.749a16.174 16.174 0 00-3.198-1.888 3.688 3.688 0 01-.737-.515l-.1-.088c-.619-.49-1.794-1.268-2.737-1.893l-.509-.336v-.105l.62-.366c.828-.482 1.212-.73 1.293-.84l.11-.066 2.06-1.15c1.97-1.078 4.207-2.299 5.383-3.504l.059-.183.025-.164a1.126 1.126 0 000-.687.204.204 0 00-.158-.153c-.918-.092-2.1.453-3.176 1.46-.199.182-.422.334-.663.454l-.166.091c-1.186.669-3.861 2.316-5.261 3.204.131-1.816.37-3.622.718-5.41l-.04-.212-.137-.267-.11-.19h-.03a.902.902 0 00-.681-.051l-.284.102-.369.135a.207.207 0 00-.154.132 22.28 22.28 0 00-1.356 6.346 32.249 32.249 0 00-3.176-1.743l-.074-.018a2.22 2.22 0 01-.737-.34l-.504-.325-.804-.5-.195-.048c-.455.141-.86.41-1.164.774a.21.21 0 00-.033.125.794.794 0 00.033.182l.037.157.022.088c.68.588 1.43 1.09 2.233 1.498l1.083.57 1.636.884.28.22.191.109.033.022-2.984 1.969-1.566 1.026c-.294.158-.597.3-.906.428a1.29 1.29 0 00-.696.58L6 15.503l.04.058.122.091.159.103.173.117.162.025c.276 0 .681-.146 1.444-.475.696-.307 2.58-1.443 3.408-1.925l.347-.208a.773.773 0 00.438-.216c.23-.17.477-.315.737-.435l.247-.135v.092a32.85 32.85 0 00.46 5.63v.025l.026.055c.187.414.327.848.42 1.293l.291 1.026c.028.034.057.065.088.095.325.19.696.288 1.073.282h.088l.059-.125c.029-.155.042-.313.04-.47 0-.187 0-.395-.033-.647l-.022-.366c-.114-1.717-.228-4.197-.228-5.845v-.131l1.584.99c2.196 1.377 5.508 3.518 7.509 4.08a.302.302 0 00.291-.066l.306-.197.059-.022a.555.555 0 00.206-.453c1.684-.087 4.053-.73 5.294-2.298a3.238 3.238 0 00.708-1.99 1.666 1.666 0 00-.413-1.22z" fill="#FCAF17"/></svg>