<svg xmlns="http://www.w3.org/2000/svg" role="img" viewBox="0 0 38 24" fill="none" width="38" height="24" aria-labelledby="pi-kbc_cbc"><title id="pi-kbc_cbc">KBC/CBC</title><rect x="1" y="1" width="36" height="22" rx="2" fill="#fff"/><rect x=".5" y=".5" width="37" height="23" rx="2.5" stroke="#000" stroke-opacity=".07"/>&quot;/&gt;<path fill-rule="evenodd" clip-rule="evenodd" d="M19.047 5.019a3.091 3.091 0 11.114 6.18 3.091 3.091 0 01-.114-6.18z" fill="#009fe4"/><path fill-rule="evenodd" clip-rule="evenodd" d="M21.384 10.61a4.062 4.062 0 01-2.96 1.277 4.102 4.102 0 01-2.49-.849 71.189 71.189 0 00-5.883.856v1.367l17.9-.002v-2.817s-3.066-.02-6.567.168z" fill="#009fe4"/><path fill-rule="evenodd" clip-rule="evenodd" d="M12.176 17.256v1.664H10.05v-4.429h2.126v1.993h.012l1.252-1.993h2.55l-1.867 2.29 1.761 2.14h-2.433l-1.26-1.665h-.015zm15.774 1.481a6.386 6.386 0 01-1.751.244c-2.104 0-3.648-.598-3.648-2.337 0-1.572 1.497-2.255 3.543-2.255.569 0 1.291.063 1.856.244v1.522a2.586 2.586 0 00-1.438-.412c-.78 0-1.56.385-1.56.943 0 .559.776.942 1.56.942.59 0 1.019-.163 1.438-.405v1.514zm-11.612-4.246h4.298c1.117 0 1.483.435 1.483 1.11 0 .757-.676 1.086-1.37 1.123v.013c.712.056 1.407.136 1.407 1.03 0 .583-.366 1.153-1.594 1.153h-4.224v-4.429zm2.126 3.529h1.109c.416 0 .557-.172.557-.426 0-.255-.143-.437-.552-.437h-1.114v.863zm0-1.652h1.06c.409 0 .57-.166.57-.42 0-.291-.163-.437-.541-.437h-1.089v.857z" fill="#003664"/></svg>