<svg xmlns="http://www.w3.org/2000/svg" width="38" height="24" aria-labelledby="pi-kcpcreditcard" role="img" viewBox="0 0 38 24"><title id="pi-kcpcreditcard">KCP Credit Card</title><path fill="#000" d="M35 0H3C1.3 0 0 1.3 0 3v18c0 1.7 1.4 3 3 3h32c1.7 0 3-1.3 3-3V3c0-1.7-1.4-3-3-3z" opacity=".07"/><path fill="#fff" d="M35 1c1.1 0 2 .9 2 2v18c0 1.1-.9 2-2 2H3c-1.1 0-2-.9-2-2V3c0-1.1.9-2 2-2h32"/><defs><linearGradient id="pi-a" x1="14.5" x2="35.68" y1="310.76" y2="311.36" gradientTransform="matrix(1 0 0 .86 0 -258)" gradientUnits="userSpaceOnUse"><stop offset="0" stop-color="#d0d792"/><stop offset="1" stop-color="#009a50"/></linearGradient></defs><path fill="#006c8a" d="M9.58 10.92 14 8.62l.37-.29h-2.4l-.06.06-3.9 3.49.7-3.53H5.55l.9.81-1.42 7.29-.03.17h2.08l.03-.17.76-3.84L10 16.54l.03.08h2.7l-.17-.28zM20.5 8.53a3.8 3.8 0 0 0-1.03-.23 8.92 8.92 0 0 0-1.39-.11 6.53 6.53 0 0 0-3.94 1.2 5.2 5.2 0 0 0-2.04 3.22 3.83 3.83 0 0 0 .1 2 2.81 2.81 0 0 0 1.05 1.45 4.63 4.63 0 0 0 2.7.7 8.89 8.89 0 0 0 2.63-.38.55.55 0 0 0 .4-.35l.27-.81.03-.1v-.03a.23.23 0 0 0-.12-.24l-.1-.08a.25.25 0 0 0-.18-.06.26.26 0 0 0-.17.06 5.07 5.07 0 0 1-2.36.65 1.85 1.85 0 0 1-1.73-.86 2.98 2.98 0 0 1-.3-2.29 3.8 3.8 0 0 1 1.05-2.07 2.74 2.74 0 0 1 1.96-.72 4.67 4.67 0 0 1 2.14.46c.25.12.28.12.3.12a.46.46 0 0 0 .16-.03h.02l.01-.01.16-.08-.02.01a.54.54 0 0 0 .26-.26l.25-.78a.26.26 0 0 0-.13-.37zm7.2.23a4.02 4.02 0 0 0-2.35-.49l-4.18.03.9.81-1.44 7.3-.03.17h2.09l.03-.17.55-2.76h.7a5.8 5.8 0 0 0 2.65-.5 3.28 3.28 0 0 0 1.76-2.26 2 2 0 0 0-.69-2.12zm-1.52 2.23a1.5 1.5 0 0 1-.63 1.03 2.6 2.6 0 0 1-1.42.29c-.19 0-.39 0-.6-.02l.53-2.71h.6a2.78 2.78 0 0 1 1.03.15c.48.17.61.6.5 1.26z"/><path fill="url(#pi-a)" d="m19.76 7.45 4.27-3.42a1.05 1.05 0 0 1 1.56.09l5.36 6.37-.07-.08a1.11 1.11 0 0 1-.16 1.55l-10.8 9-.01.02-.02.01a1.13 1.13 0 0 1-1.65-.16l.07.08-2.7-3.29h-2.07l3.69 4.48.03.03.03.03a2.48 2.48 0 0 0 3.55.18l-.01.01 10.8-9a2.47 2.47 0 0 0 .44-3.42l-.02-.03-.01-.03-5.75-6.73-.02-.02-.01-.01a2.44 2.44 0 0 0-3.48-.12l.03-.03-5.76 4.79h2.39z" transform="translate(0 -.7)"/><path fill="#494949" d="M5.35 4.08c0-.19-.03-.31-.16-.39h-.06a1.79 1.79 0 0 0-.25.24.23.23 0 0 0-.08.19v1.95c0 .16.03.29.16.35h.06c.06-.03.17-.15.25-.19a.19.19 0 0 0 .08-.18zm3.48 0c0-.19-.03-.31-.16-.39h-.06l-.25.24a.23.23 0 0 0-.07.19v1.95c0 .16.03.29.15.35.02.01.04.01.07 0a2.18 2.18 0 0 1 .25-.19.19.19 0 0 0 .07-.18zM7.68 5.16c.16.1.25.18.25.31l-.01.07a2.47 2.47 0 0 1-.29.12.29.29 0 0 1-.19-.02l-1.39-.71c-.17-.1-.28-.19-.28-.35 0-.01 0-.06.02-.06l.34-.12a.26.26 0 0 1 .21.03zm4.98-1.08c0-.19-.04-.31-.17-.39h-.06a1.79 1.79 0 0 0-.25.24.23.23 0 0 0-.08.19v1.95c0 .16.04.29.16.35h.06a2.18 2.18 0 0 1 .26-.19.19.19 0 0 0 .07-.18zm3.48 0c0-.19-.03-.31-.16-.39h-.06l-.25.24a.23.23 0 0 0-.08.19v1.95c0 .16.03.29.16.35h.06a2.18 2.18 0 0 1 .25-.19.19.19 0 0 0 .08-.18zM15 5.16c.16.1.25.18.25.31 0 .02 0 .07-.02.07a2.47 2.47 0 0 1-.29.12.29.29 0 0 1-.19-.02l-1.38-.71c-.18-.1-.29-.19-.29-.35 0-.01 0-.06.02-.06l.35-.12a.26.26 0 0 1 .2.03z"/><path fill="#ff1414" d="M9.74 4.78a.24.24 0 0 0-.2.08c-.08.06-.2.2-.25.25-.02.02-.02.03 0 .08a.43.43 0 0 0 .4.17h1.5a.24.24 0 0 0 .21-.08l.25-.25c.01-.01 0-.03 0-.07a.43.43 0 0 0-.41-.16h-1.5z"/></svg>