<svg version="1.1" xmlns="http://www.w3.org/2000/svg" x="0" y="0" viewBox="0 0 38 24" xml:space="preserve" width="38" height="24" role="img" aria-labelledby="pi-kfast" ><title id="pi-kfast">KFast</title><path d="M35 0H3C1.3 0 0 1.3 0 3v18c0 1.7 1.4 3 3 3h32c1.7 0 3-1.3 3-3V3c0-1.7-1.4-3-3-3z" opacity=".07"/><path d="M35 1c1.1 0 2 .9 2 2v18c0 1.1-.9 2-2 2H3c-1.1 0-2-.9-2-2V3c0-1.1.9-2 2-2h32" fill="#0873b8"/><path d="M20 14.3v1.8h1.8v1.7H20V21h-1.1v-8.5H22v1.8h-2zm5.6 6.6l-.5-1.7h-1.8l-.2 1.7h-1.2l2-8.5H25l2 8.5h-1.4zm-1.3-6.2l-.6 2.9h1.2l-.6-2.9z" fill="#fff"/><path d="M29.8 14.6c-.1-.2-.2-.4-.4-.5-.2-.1-.2-.2-.5-.2h-.2c-.1 0-.1.1-.2.1-.1.1-.1.2-.2.2 0 .1-.1.2-.1.4 0 .1 0 .2.1.4 0 .1.1.2.1.2 0 .1.1.1.2.2s.2.1.2.2c.2.1.2.2.5.2.2.1.2.2.5.5.1.2.2.4.4.7.1.2.1.6.1 1.1s-.1.8-.2 1.3-.1.8-.2 1.1c-.2.2-.4.4-.6.5s-.4.2-.7.2c-.2 0-.7-.1-1-.2-.2-.2-.6-.5-.8-.8l.8-1.4c.1.2.2.5.5.6.2.2.4.2.6.2h.2c.1 0 .2-.1.2-.2.1-.1.1-.2.1-.2s.1-.2.1-.4 0-.2-.1-.4c0-.1-.1-.2-.2-.2l-.2-.2c-.1-.1-.2-.2-.4-.2-.2-.1-.2-.2-.4-.2-.1-.1-.2-.2-.4-.5-.1-.2-.2-.4-.2-.7-.1-.2-.1-.6-.1-1 0-.5.1-.8.2-1.2s.2-.6.4-.8c.2-.2.4-.4.6-.5s.4-.2.7-.2c.2 0 .5.1.8.2.2.2.5.4.7.8l-.9.9zm3.4-.3V21h-1.1v-6.7h-1.3v-1.8h3.7v1.8h-1.3z" fill="#fff"/><path d="M8.8 11v10H4.5V3.2h4.3v6.6l2.8-6.6H18l-3.6 8.2 3.7 9.7h-6.6L8.8 11z" fill="#fce200"/></svg>
