<svg xmlns="http://www.w3.org/2000/svg" width="38" height="24" viewBox="0 0 38 24" fill="none" role="img" aria-labelledby="pi-khalti"><title id="pi-khalti">Khalti</title><g clip-path="url(#pi-khalti-clip0)"><path d="M35 .5H3A2.5 2.5 0 00.5 3v18A2.5 2.5 0 003 23.5h32a2.5 2.5 0 002.5-2.5V3A2.5 2.5 0 0035 .5z" stroke="#000" stroke-opacity=".07"/><g clip-path="url(#pi-khalti-clip1)"><path d="M1 1h36v22H1V1z" fill="#FEFEFE"/><path d="M4.932 5.79h12.173l.19.068.19.16.141.276v.527L17.2 10.74l-.26 2.475-.143 1.214-.094.344-.19.367-.19.252-.165.16-.308.206-.616.344-.64.367-2.77 1.581-.38.16-.212.046H10.9l-.332-.069-.45-.206-.52-.298-2.085-1.191-.45-.252-.402-.23-.545-.32-.237-.184-.19-.183-.165-.23-.19-.366-.095-.435-.378-3.53-.308-2.841-.142-1.398V6.34l.07-.207.143-.183.237-.138.07-.022z" fill="#5C2F90"/><path d="M8.674 7.417h.284l.26.091.19.16.118.184.048.138v2.68l.094-.068h.048l.023-.069.19-.16.355-.344.119-.137.19-.16 1.752-1.697.165-.183.166-.16.237-.184.26-.091h.19l.213.045.213.138.143.16.094.23v.275l-.118.275-.284.297-1.28 1.238-.189.16-.166.184h-.047l.047.114.166.23 1.066 1.512.403.573.307.435.285.413.118.229.024.069v.206l-.071.23-.142.205-.213.138-.237.069h-.166l-.26-.092-.214-.16-.19-.252-.615-.894-.19-.252-.189-.275-.853-1.215-.094-.137v-.046l-.119.046-1.184 1.145-.024.046-.023 1.49-.095.252-.166.183-.19.115-.213.046-.26-.023-.284-.138-.142-.16-.095-.207-.024-.137-.023-1.283V8.196l.023-.252.142-.252.213-.184.214-.091z" fill="#FEFEFE"/><path d="M19.237 7.37h13.618l1.942.024.356.091.26.16.213.207.19.32.07.299v5.316l-.047.253-.165.32-.166.184-.26.183-.285.115-.26.045h-17.29l-.023-.091.047-.458 17.313-.023.26-.092.095-.092h.048l.142-.275.023-.114V8.54l-.07-.23-.095-.137-.19-.16-.118-.046-.166-.023-16.532-.023v-.344l.024-.183 1.066-.023z" fill="#5C2F90"/><path d="M3.937 7.76h.07l.048.275.213 2.086.19 1.604.024.275-.616.069-.948.091-.307.023-.024-.023-.166-1.398-.26-2.406-.024-.16v-.23l.568-.068 1.232-.138z" fill="#FCA725"/><path d="M26.887 10.236l.402.022.285.07.213.114.166.16.118.23.071.32.024 1.444.308.023v.435l-.024.023h-.545l-.19-.069-.07-.114-.048-.23-.26.276-.237.137-.142.046-.284.023-.284-.046-.285-.137-.19-.184-.118-.229-.023-.092v-.32l.094-.23.166-.183.19-.137.284-.115.308-.069.426-.046.38-.023-.072-.366-.095-.138-.142-.091-.213-.046h-.237l-.237.069-.07.023-.024.252h-.521v-.39l.142-.206.284-.138.45-.069zm-4.713-1.009h.686l.119.069.071.091.024.115v1.26l.094-.091.166-.183.26-.16.214-.07.118-.023h.356l.284.07.213.137.142.16.119.275.047.32v1.376l.331.023v.412l-.023.046h-.521l-.213-.046-.119-.114-.024-.092-.023-1.558-.071-.275-.119-.138-.213-.069h-.237l-.237.07-.26.183-.166.229-.095.229-.023.183-.024 1.398-.024.023H22.6l-.095-.023V9.708l-.308-.023-.023-.023v-.435zm-2.937-.023h.616l.165.046.072.069.023.069.024 1.902h.308l.165-.07.166-.182.285-.39.236-.32.048-.024h.568v.069l-.237.32-.331.436-.213.252-.119.115.024.092.142.206.355.641.071.092v.046l.332.023.023.023v.435h-.568l-.19-.091-.142-.207-.307-.55-.19-.32-.07-.07-.096-.022-.307-.023v1.123l-.024.16-.095.023h-.308l-.118-.023-.024-.114.024-2.613v-.619l-.332-.045.024-.459zm11.321.344h.521l.024.183v.573h.663v.436l-.64.023v1.375l.071.206.119.137.237.115.213.023.07.046v.206l-.023.183-.047.023-.38-.023-.26-.069-.213-.114-.19-.183-.118-.253-.047-.229v-1.443l-.355-.023-.024-.023v-.39l.166-.023h.213v-.756zM28.71 9.25h.687l.143.092.047.091.024.367v2.59l.023.183.285.023.023.023v.39l-.023.045h-.64l-.166-.091-.047-.07-.024-.114-.024-3.048-.284-.023-.023-.023V9.25zm3.577 1.054l.663.023.166.138.047.16.024 1.97h.26l.048.024v.412l-.024.023h-.64l-.165-.091-.048-.07-.023-.114-.024-1.948-.024-.023-.236-.023-.048-.023v-.435l.024-.023z" fill="#5C2F90"/><path d="M27.053 11.748h.568l.024.023v.183l-.071.23-.166.274-.19.16-.189.07h-.355l-.142-.07-.142-.16-.024-.091v-.207l.095-.183.118-.092.213-.091.26-.046z" fill="#FEFEFE"/><path d="M32.69 9.227h.307l.095.023v.527h-.45l-.024-.298.024-.229.047-.023z" fill="#5C2F90"/></g></g><defs><clipPath id="pi-khalti-clip0"><path fill="#fff" d="M0 0h38v24H0z"/></clipPath><clipPath id="pi-khalti-clip1"><rect x="1" y="1" width="36" height="22" rx="2" fill="#fff"/></clipPath></defs></svg>