<svg xmlns="http://www.w3.org/2000/svg" width="38" height="24" viewBox="0 0 38 24" aria-labelledby="pi-khqr" role="img"><title id="pi-khqr">Khqr</title><path d="M35 0H3C1.3 0 0 1.3 0 3v18c0 1.7 1.4 3 3 3h32c1.7 0 3-1.3 3-3V3c0-1.7-1.4-3-3-3z" opacity=".07"/><path fill="#e1232e" d="M35 1c1.1 0 2 .9 2 2v18c0 1.1-.9 2-2 2H3c-1.1 0-2-.9-2-2V3c0-1.1.9-2 2-2h32"/><path fill="#fff" d="M23 11.2v2h-2c-.2 0-.4-.2-.4-.4v-1.6c0-.2.2-.4.4-.4h1.6c.3 0 .4.2.4.4zm9.4.8h-1c0-1.2-1-2.2-2.2-2.2-.9 0-1.8.6-2.1 1.5 0 .3-.1.5-.1.7v3.2c-.5 0-1-.4-1-1V12c0-.9.4-1.7 1-2.3.6-.6 1.4-.9 2.2-.9 1.8 0 3.2 1.4 3.2 3.2z"/><path fill="#fff" d="M32.4 15.2H31l-.3-.3-.8-.8-1.1-1.1h1.4l2.2 2.2zm-9.1-1h-3c-.4 0-.7-.3-.7-.7v-3c0-.4.3-.7.7-.7h3c.4 0 .7.3.7.7v3l1 1V9.8c0-.5-.4-1-1-1h-4.4c-.5 0-1 .4-1 1v4.4c0 .5.4 1 1 1h4.7l-1-1zm-12.2 1H9.7l-2.9-3v3H5.6V8.8h1.2v2.8l2.8-2.8H11l-3.1 3.1 3.2 3.3zm5.3-6.4h1.1v6.4h-1.1v-2.8h-3.2v2.8H12V8.8h1.1v2.7h3.2V8.8z"/></svg>