<svg width="38" height="24" viewBox="0 0 38 24" role="img" aria-labelledby="pi-kidsandteen" version="1.1" xmlns="http://www.w3.org/2000/svg"><title id="pi-kidsandteen">Kids &amp; Teen</title><path opacity=".07" d="M35 0H3C1.3 0 0 1.3 0 3v18c0 1.7 1.4 3 3 3h32c1.7 0 3-1.3 3-3V3c0-1.7-1.4-3-3-3z" fill="#000"/><path d="M19.093 1v22H3c-1.1 0-2-.9-2-2V3c0-1.1.9-2 2-2z" fill="#5b2181" fill-opacity="1"/><path d="M35 1c1.1 0 2 .9 2 2v18c0 1.1-.9 2-2 2H19.006V1z" fill="#39b39f" fill-opacity="1"/><path fill="#1d1d1b" d="M25.809 13.923l4.762-5.301v9.645L9.185 20.094l-.66-11.892 6.8 6.17 4.972-9.315z"/><path fill="#fecb00" d="M24.67 12.785l4.763-5.301v9.615L8.017 18.956l-.63-11.892 6.8 6.14 4.972-9.285z"/></svg>