<svg xmlns="http://www.w3.org/2000/svg" role="img" viewBox="0 0 38 24" width="38" height="24" aria-labelledby="pi-klap"><title id="pi-klap">Klap</title><path fill="#000" opacity=".07" d="M35 0H3C1.3 0 0 1.3 0 3v18c0 1.7 1.4 3 3 3h32c1.7 0 3-1.3 3-3V3c0-1.7-1.4-3-3-3z"/><path fill="#fff" d="M35 1c1.1 0 2 .9 2 2v18c0 1.1-.9 2-2 2H3c-1.1 0-2-.9-2-2V3c0-1.1.9-2 2-2h32"/><path fill="#26d07c" d="M5.16,4.69c-.73,0-1.32.6-1.32,1.34v9.33c0,.74.59,1.34,1.32,1.34h.13c.73,0,1.32-.6,1.32-1.34V6.03c0-.74-.59-1.34-1.32-1.34h-.13Z"/><path fill="#26d07c" d="M10.33,14.44l-1.76-1.57,1.77-1.63c.53-.48.56-1.3.07-1.82s-1.3-.56-1.82-.07l-2.6,2.4c-.18.16-.3.37-.36.59-.33.45-.27,1.09.16,1.47l2.83,2.54c.53.47,1.33.43,1.81-.1h0c.47-.53.43-1.33-.1-1.81"/><path fill="#002b49" d="M23.81,8.93h0c-.57,0-1.05.39-1.18.93l-.05-.06c-.4-.57-1.02-.87-1.83-.87-1.12,0-2.05.37-2.78,1.11-.73.74-1.1,1.72-1.1,2.94,0,1.08.34,1.97,1.01,2.67s1.56,1.05,2.68,1.05c.89,0,1.54-.35,1.96-1.05.11.62.69,1.08,1.35,1.01h.1c.62-.08,1.08-.61,1.08-1.22v-5.27c0-.67-.55-1.22-1.22-1.22M22.03,14c-.29.3-.64.45-1.06.45-.39,0-.7-.15-.95-.44s-.38-.66-.38-1.1c0-.53.13-.95.39-1.26s.6-.45,1.03-.45c.39,0,.72.14,1,.43.27.29.41.67.41,1.17s-.15.9-.44,1.21"/><path fill="#002b49" d="M6.6,11.18l-1.33,1.22c-.28.25-.28.71,0,.96l1.32,1.17v-3.35h0Z"/><rect fill="#002b49" x="12.56" y="4.79" width="2.77" height="11.81" rx="1.32" ry="1.32"/><path fill="#002b49" d="M34.07,9.96c-.64-.71-1.51-1.08-2.61-1.08-.44,0-.86.1-1.26.29-.34.17-.62.4-.83.7-.16-.56-.66-.96-1.26-.96-.72,0-1.31.59-1.31,1.31v8.72c0,.72.59,1.31,1.31,1.31s1.31-.59,1.31-1.31v-2.87c.37.45.93.67,1.67.67,1.17,0,2.12-.38,2.84-1.13.72-.76,1.09-1.7,1.09-2.85s-.32-2.08-.96-2.79M31.95,13.96c-.27.32-.62.48-1.04.48-.99,0-1.47-.56-1.47-1.68,0-.47.15-.85.45-1.15s.65-.44,1.06-.44c.37,0,.7.14.99.42.29.28.43.65.43,1.11,0,.53-.13.94-.4,1.27"/></svg>
