<svg xmlns="http://www.w3.org/2000/svg" width="38" height="24" viewBox="0 0 38 24" version="1.1" aria-labelledby="pi-knakensettle" role="img"><title id="pi-knakensettle">Knaken Settle</title><path opacity=".07" fill="#000" d="M35 0H3C1.3 0 0 1.3 0 3v18c0 1.7 1.4 3 3 3h32c1.7 0 3-1.3 3-3V3c0-1.7-1.4-3-3-3z"/><path d="M35 1c1.1 0 2 .9 2 2v18c0 1.1-.9 2-2 2H3c-1.1 0-2-.9-2-2V3c0-1.1.9-2 2-2h32" fill-rule="evenodd" fill="#21546f" fill-opacity="1"/><path fill="#fff" d="M21.258 21.234c.594-.3 1.105-.566 1.699-.836a287.238 287.238 0 003.445-1.664c1.11-.566 2.532-1 2.97-2.101.198-.567.198-8.332.038-8.934-.394-1.133-1.742-1.531-2.93-2.133l-6.015-2.898c-.672-.336-1.188-.566-1.86-.367l-1.742.734-5.148 2.531c-3.68 1.735-3.086 1.399-3.086 6.567 0 .902-.117 3.765.117 4.433.399 1.102 1.625 1.536 2.93 2.133 1.98.934 4.078 2.035 6.02 2.934 1.421.668 2.175.3 3.562-.399m-8.035-4.402c-.121-.332 2.254-5.2 2.57-5.934.437-.964.871-1.964 1.348-2.933.277-.567.316-1.164 1.027-1.2.477-.03 1.902-.097 2.18.133.117.102 3.918 8.137 4.472 9.536.196.464.04.464-.515.5-2.77.03-2.336.199-2.89-1.067-.278-.668-.118-.566-1.067-.566-1.11 0-2.336-.035-3.446 0-.355.398-.476 1.133-.793 1.566-.511.098-2.53.133-2.886-.035zm0 0"/><path fill="#21546f" d="M13.223 16.832c.394.168 2.414.133 2.886.035.356-.402.477-1.168.793-1.566 1.11-.067 2.297 0 3.403 0 .953 0 .754-.102 1.07.566.555 1.266.117 1.098 2.89 1.067.555 0 .712-.036.512-.5-.55-1.399-4.351-9.434-4.472-9.536-.317-.23-1.7-.132-2.176-.132-.711.035-.75.632-1.027 1.199-.477 1-.91 1.969-1.348 2.933-.277.704-2.652 5.602-2.531 5.934m4.629-3.766c.12-.5.394-1.03.593-1.5.121-.332.395-1.168.594-1.433.316.433 1.031 2.332 1.188 2.933zm0 0"/><path fill="#fff" d="M17.852 13.066h2.375l-1.188-2.933zm0 0"/></svg>