<svg xmlns="http://www.w3.org/2000/svg" viewBox="0 0 38 24" width="38" height="24" role="img" aria-labelledby="pi-koalafi"><title id="pi-koalafi">Koalafi</title><path opacity=".07" d="M35 0H3C1.3 0 0 1.3 0 3v18c0 1.7 1.4 3 3 3h32c1.7 0 3-1.3 3-3V3c0-1.7-1.4-3-3-3z" fill="#000"/><path d="M35 1c1.1 0 2 .9 2 2v18c0 1.1-.9 2-2 2H3c-1.1 0-2-.9-2-2V3c0-1.1.9-2 2-2h32z" fill="#fff"/><path fill="#0D4066" d="M14.135 9.36h-.94a.479.479 0 00-.404.201l-1.523 1.971V9.36h-.762a.297.297 0 00-.291.292v4.614h1.075v-2.172l1.523 1.972a.48.48 0 00.403.201h.941l-1.904-2.464 1.882-2.442V9.36z"/><path fill="#0D4066" d="M17.092 10.815a1.97 1.97 0 00-2.688.695 1.84 1.84 0 00-.269.963c0 .336.09.672.269.964a1.974 1.974 0 003.383 0 1.924 1.924 0 000-1.905c-.18-.313-.404-.56-.695-.717zm-.202 2.106a1.2 1.2 0 01-.336.336.882.882 0 01-.47.135.882.882 0 01-.47-.135.945.945 0 01-.314-1.299c.067-.134.18-.224.314-.314a.882.882 0 01.47-.134c.157 0 .336.045.47.134.448.292.583.852.336 1.277zm6.542-3.628v4.972h1.03V9.001h-.739a.297.297 0 00-.291.291v.001zm4.682 1.657v.134a1.371 1.371 0 00-.38-.336 1.458 1.458 0 00-.785-.2c-.336 0-.65.09-.918.267-.27.18-.493.404-.628.695a2.006 2.006 0 00-.224.94c0 .337.067.65.224.964.157.291.359.515.628.695.268.18.604.268.918.268.291 0 .56-.067.784-.2a1.77 1.77 0 00.38-.337v.425h.987V10.66h-.695a.282.282 0 00-.291.29v.001-.001zm-.067 1.523c0 .157-.045.314-.112.47a1.2 1.2 0 01-.336.337.882.882 0 01-.47.134.882.882 0 01-.471-.134.92.92 0 01-.448-.807.97.97 0 01.448-.806.882.882 0 01.47-.135c.18 0 .336.045.47.135a1.2 1.2 0 01.337.336c.09.134.112.291.112.47zm3.943-3.472c-.359 0-.65.067-.874.201a1.25 1.25 0 00-.515.56 1.91 1.91 0 00-.18.785v.112h-.358a.297.297 0 00-.291.29v.583h.65v2.733h1.03v-2.732h1.142v-.873h-1.142v-.137c0-.2.067-.358.18-.448a.74.74 0 01.47-.157c.09 0 .201.023.29.045a.97.97 0 01.27.112v-.94a1.65 1.65 0 00-.314-.09C32.236 9 32.102 9 31.99 9v.001zm1.254 1.949v3.315h1.03V10.66h-.739a.297.297 0 00-.291.29v.001-.001zm1.076-1.636a.54.54 0 00-.225-.224.514.514 0 00-.313-.09c-.359 0-.65.27-.65.628 0 .112.022.224.09.314a.54.54 0 00.224.224.73.73 0 00.313.09.514.514 0 00.314-.09.54.54 0 00.224-.224.73.73 0 00.09-.314.88.88 0 00-.068-.314h.001zM21.55 10.95v.134a1.371 1.371 0 00-.38-.336 1.458 1.458 0 00-.785-.2c-.336 0-.65.09-.918.267-.27.18-.493.404-.628.695a2.006 2.006 0 00-.224.94c0 .337.068.65.224.964.157.291.359.515.628.695.269.18.605.268.918.268.291 0 .56-.067.784-.2.135-.09.27-.203.381-.337v.425h.986V10.66h-.695a.282.282 0 00-.29.29l-.001.001v-.001zm-.067 1.523c0 .157-.045.314-.112.47a1.2 1.2 0 01-.336.337.882.882 0 01-.47.134.882.882 0 01-.471-.134.92.92 0 01-.448-.807c0-.157.045-.313.112-.47a1.2 1.2 0 01.336-.336.882.882 0 01.47-.135c.18 0 .336.045.47.135a1.2 1.2 0 01.337.336c.09.134.112.291.112.47z"/><path fill="#36C6FF" d="M8.22 13.347v.918H6.519a.897.897 0 01-.65-.268l-.29-.292v-.918h2.06c.336 0 .583.246.583.56H8.22z"/><path fill="#3D6EDF" d="M5.6 12.787v.918l-.291.292a.897.897 0 01-.65.268h-1.68v-.918c0-.314.246-.56.56-.56H5.6z"/><path fill="#49E8AB" d="M8.22 10.57V9.36l-2.217 1.478a.935.935 0 00-.403.762v1.187l2.218-1.479a.895.895 0 00.403-.739H8.22v.001z"/><path d="M5.6 11.6v1.187l-2.218-1.479a.895.895 0 01-.403-.739V9.36l2.218 1.48c.246.18.403.447.403.761V11.6z"/><path fill="#0D4066" d="M34.678 13.773c.112-.135.313-.135.448 0s.134.313 0 .448-.314.134-.448 0a.288.288 0 01-.09-.224c0-.09.045-.18.09-.224zm.224.47a.254.254 0 00.179-.067c.09-.112.09-.27 0-.359-.112-.09-.269-.09-.358 0s-.09.27 0 .36a.254.254 0 00.179.066zm.134-.314c0 .045-.022.068-.045.09l.068.112h-.068l-.044-.112h-.045v.134h-.067v-.313h.112c.022 0 .067 0 .09.022-.023.023 0 .045 0 .067h-.001zm-.157-.044v.09h.045c.023 0 .023 0 .045-.023l.022-.023a.048.048 0 00-.044-.044h-.068z"/></svg>