<svg xmlns="http://www.w3.org/2000/svg" role="img" viewBox="0 0 38 24" width="38" height="24" aria-labelledby="pi-koin"><title id="pi-koin">Koin</title><path fill="#000" opacity=".07" d="M35 0H3C1.3 0 0 1.3 0 3v18c0 1.7 1.4 3 3 3h32c1.7 0 3-1.3 3-3V3c0-1.7-1.4-3-3-3z"/><path fill="#fff" d="M35 1c1.1 0 2 .9 2 2v18c0 1.1-.9 2-2 2H3c-1.1 0-2-.9-2-2V3c0-1.1.9-2 2-2h32"/><path fill="#282828" d="M1.563 18.757l2.55-2.201V8.207h-2.55v10.55zm6.735-8.021L6.205 12.74l2.703 6.016h2.943l-3.553-8.021z"/><path fill="#0f0" d="M10.368 5.09L1.563 18.757h2.986L13.31 5.09h-2.943z"/><path fill="#282828" d="M20.155 10.845c-.872-.807-2.07-1.264-3.356-1.264s-2.507.457-3.379 1.264c-.937.872-1.417 2.049-1.417 3.422s.502 2.528 1.417 3.4c.872.807 2.07 1.243 3.379 1.243s2.484-.436 3.356-1.243c.937-.85 1.417-2.027 1.417-3.4s-.48-2.55-1.417-3.422zM19 14.267c0 1.57-.698 2.289-2.201 2.289s-2.224-.742-2.224-2.29c0-.806.175-1.394.545-1.765.37-.37.916-.566 1.679-.566s1.307.174 1.678.566c.37.37.545.96.545 1.766H19zm5.427-9.177c-1.024 0-1.613.567-1.613 1.526s.589 1.591 1.613 1.591 1.613-.588 1.613-1.59-.588-1.527-1.613-1.527zm-1.264 4.665h2.55v8.958h-2.55zm12.467.806c-.544-.653-1.372-.959-2.44-.959-1.286 0-2.158.502-2.703 1.548V9.777h-2.55v8.958h2.55v-4.294c0-1.613.676-2.506 1.874-2.506 1.003 0 1.526.545 1.526 1.59v5.21h2.55v-5.34c0-1.242-.283-2.201-.806-2.834z"/></svg>