<svg viewBox="0 0 38 24" xmlns="http://www.w3.org/2000/svg" width="38" height="24" role="img" aria-labelledby="pi-krediidipank"><title id="pi-krediidipank">Krediidipank</title><path fill="#fff" stroke-width=".431" d="M0 0h38v24H0z"/><path d="M18.06.943c0-.236.004-.237.846-.237h.847V.042l2.094.008 2.094.007-.565.277c-.522.255-.645.276-1.623.277h-1.059v.569h-2.635zm1.498 14.998c.579-2.846.832-5.613.674-7.353-.198-2.197-1.084-4.936-1.469-4.548-.034.033-.013.626.043 1.32.285 3.587-.084 6.99-1.18 10.866-.059.21-.05.213.886.213h.945zm2.711-.379c.5-2.331.54-2.692.536-4.857-.004-2.29-.117-3.084-.71-4.946-.224-.706-.332-.915-.513-.998-.127-.058-.248-.087-.27-.065-.021.023.007.659.064 1.414.175 2.292-.085 5.143-.778 8.528a65.225 65.225 0 0 1-.337 1.582c-.05.187-.017.21.353.244.225.02.643.044.928.053l.52.017zm-6.055.97c.212 0 .439-.035.503-.076.064-.04.22-.626.345-1.301.42-2.262.558-3.602.562-5.493.005-2.084-.165-3.172-.8-5.141-.32-.991-.403-1.162-.57-1.162-.173 0-.189.041-.14.356.157 1.005.27 3.562.22 5-.085 2.498-.43 4.71-1.093 6.996l-.273.941.43-.059c.236-.032.603-.06.816-.06zm8.34-.401c.36-1.182.728-2.768.848-3.658.164-1.205.078-3.166-.182-4.169-.367-1.414-1.039-2.954-1.29-2.954-.127 0-.136.097-.068.734.043.404.076 1.652.074 2.773-.005 1.787-.038 2.224-.267 3.553a47.42 47.42 0 0 1-.59 2.829c-.18.722-.31 1.33-.29 1.35.029.03.816.147 1.449.217.06.007.202-.297.317-.675zm-11.207.736c.437-.078.824-.19.86-.25.107-.172.46-1.912.67-3.306.251-1.652.268-4.391.038-5.923-.3-1.993-1.1-4.71-1.404-4.77-.196-.039-.196.026.001 1.879.102.959.159 2.341.164 3.98.007 2.19-.021 2.665-.2 3.698-.188 1.078-.946 4.265-1.109 4.667-.083.204-.038.206.982.025zm-1.96.111c.723-2.178.986-4.167.897-6.794-.12-3.581-.67-6.603-1.56-8.58-.233-.518-.295-.584-.68-.71C9.63.755 9.622.745 9.7.452l.08-.3 1.057.278c11.333 2.987 14.44 3.825 14.54 3.918.188.174.748 1.841.93 2.768.449 2.27.047 5.877-1.005 9.038-.459 1.375-.506 1.446-.92 1.384-1.172-.177-3.32-.288-5.57-.288-2.7.001-4.25.143-6.71.615a28.12 28.12 0 0 1-1.015.184c-.03 0 .104-.482.3-1.072zm6.578 1.12c0-.218.034-.237.423-.237.39 0 .424.02.424.237s-.034.237-.424.237c-.388 0-.423-.02-.423-.237zm-5.616 3.68l-1.24-.037-.297-.485-.297-.485.878.067c2.538.196 3.794.241 6.712.243 1.76.001 4.208-.044 5.441-.102 1.234-.057 2.266-.08 2.294-.052.03.028-.038.197-.147.375-.183.298-.246.328-.788.383-.7.071-10.78.146-12.557.093zm-2.054 2.037c-.856-.19-1.703-1.183-2.897-3.398-.711-1.318-.914-1.96-.914-2.89v-.803h2.917v.853H7.425v.819l1.388.217c3.99.626 7.766.854 11.303.682 2.114-.102 4.525-.3 5.39-.443l.34-.056 1.189-3.098c.653-1.703 1.188-3.13 1.188-3.168 0-.04-.124-.071-.275-.071-.393 0-.556-.084-.52-.267.016-.088.055-.28.086-.428l.057-.267.592.063.593.064.125-.302c.12-.293.136-.3.556-.238.555.081.64.17.446.466a1.479 1.479 0 0 0-.155.276c0 .02.381.09.847.154l.847.116v.473c0 .466-.004.473-.259.422-.784-.157-1.853-.265-1.882-.19-.017.046-.655 1.64-1.416 3.543l-1.384 3.46-.894.11c-5.572.692-11.571.62-16.562-.194-.44-.072-.815-.117-.834-.1-.059.054.926 1.726 1.35 2.293.755 1.009-.038.92 8.47.952 5.023.018 7.628-.006 8.03-.075.967-.167 1.557-.488 2.332-1.268 1.1-1.108 1.068-.966 1.07-4.727l.002-3.199h.988c.632 0 .988.036.988.1 0 .055-.047.29-.105.521-.104.418-.11.422-.513.422h-.408l-.03 2.961-.029 2.962-.25.427c-.354.603-1.915 2.107-2.49 2.4a4.383 4.383 0 0 1-1.082.338c-.764.121-15.709.202-16.222.088z" fill="#c51130" stroke-width=".076"/></svg>