<svg xmlns="http://www.w3.org/2000/svg" role="img" viewBox="0 0 38 24" width="38" height="24" aria-labelledby="pi-kredivo"><title id="pi-kredivo">Kredivo</title><g clip-path="url(#pi-kredivo-a)"><path fill="#000" d="M35 0H3C1.3 0 0 1.3 0 3v18c0 1.7 1.4 3 3 3h32c1.7 0 3-1.3 3-3V3c0-1.7-1.4-3-3-3Z" opacity=".07"/><path fill="#fff" d="M35 1c1.1 0 2 .9 2 2v18c0 1.1-.9 2-2 2H3c-1.1 0-2-.9-2-2V3c0-1.1.9-2 2-2h32Z"/><path fill="#48BBE5" d="M6.43 15.165c-.119-.13-.295-.334-.211-.527.02-.044-.004-.018.68-.761l.606-.66c.171-.187.385-.471.675-.319.068.034.006-.034.812.889.874 1 1.761 1.99 2.621 3.004.152.179.234.547.014.713-.076.058.055.054-1.618.054H8.5c-.686-.801-1.37-1.604-2.07-2.393Z"/><path fill="#F37D31" d="M2 17.266V13.84l6.887-7.837 1.489-.002c1.465-.002 1.49-.002 1.54.014.506.163.207.665-.018.913-3.115 3.428-6.121 6.954-9.201 10.413-.205.208-.573.207-.697-.075Z"/><path fill="#48BBE5" d="M11.129 14.251c-.11-.026-.162-.085-.181-.203-.006-.037-.008-.663-.007-2.143l.002-2.09c.033-.07.065-.136.138-.17.075-.036.125-.04.439-.038.285.003.29.003.327.022.02.01.048.033.06.05.036.046.113.22.188.423.036.1.07.183.073.187.006.007.11-.119.221-.268.089-.12.224-.265.305-.329.166-.13.301-.166.561-.15.353.02.571.105.941.372.115.083.269.156.263.316-.005.081-.018.11-.217.462-.172.305-.21.358-.284.395-.108.061-.238.008-.322-.067a.923.923 0 0 0-.756-.239c-.287.06-.45.311-.593.546v1.355c0 1.18-.002 1.362-.012 1.403a.208.208 0 0 1-.133.156c-.04.017-.05.017-.505.02-.348 0-.476-.002-.508-.01Zm6.513-2.933a.985.985 0 0 0-.11-.196c-.407-.621-1.196-.584-1.597.042a.7.7 0 0 0-.08.155c0 .012 1.787.016 1.787 0Zm-.898 3.013a2.401 2.401 0 0 1-2.109-1.628 2.558 2.558 0 0 1-.029-1.47c.27-.973 1.057-1.64 1.997-1.692.719-.04 1.41.305 1.841.874.244.322.397.692.443 1.077.024.205.016.596-.015.68-.041.113-.121.16-.308.18-.047.005-.583.008-1.417.008h-1.342c.061.4.35.72.755.796.162.039.35.032.511-.004.138-.03.294-.085.4-.14a.955.955 0 0 0 .238-.16c.076-.068.142-.1.191-.097.053.006.089.026.15.085.082.08.428.49.453.538.016.03.024.063.021.097 0 .102-.015.127-.15.25-.366.335-.766.53-1.212.59a3.07 3.07 0 0 1-.418.016Zm5.262-1.26c.45-.103.77-.439.868-.91.089-.432-.103-.899-.442-1.172-.4-.299-.99-.297-1.34.076-.276.287-.391.747-.296 1.18.122.558.641.947 1.21.825Zm-.528 1.264c-1.071-.097-1.83-1.016-1.959-2.04-.042-.51.003-1.013.219-1.482.332-.721 1.023-1.238 1.826-1.272.271-.014.446.02.647.127.15.08.259.17.44.36.075.08.138.144.14.144 0 0 .003-.396.004-.88l.002-.879.023-.047a.301.301 0 0 1 .058-.08c.066-.06.063-.06.542-.064.288 0 .441 0 .475.007a.308.308 0 0 1 .218.157l.023.044v2.816c0 2.736 0 2.817-.014 2.86-.03.083-.1.12-.175.153h-.417c-.23 0-.431-.004-.448-.007-.077-.017-.125-.099-.233-.395a3.616 3.616 0 0 0-.06-.16 1.716 1.716 0 0 0-.135.132c-.197.2-.348.32-.51.4-.206.104-.382.132-.666.106Zm7.308-.08c-.082-.014-.133-.047-.168-.11a874.31 874.31 0 0 1-1.664-4.227c-.047-.13-.014-.278.14-.303.065-.01.948-.012 1.01 0 .1.016.17.08.206.182.235.78.476 1.558.722 2.334.026.08.051.147.055.15.001.002.225-.724.393-1.286.237-.789.372-1.228.387-1.255a.24.24 0 0 1 .136-.119c.032-.009.153-.01.572-.01.594 0 .59-.001.648.052.055.05.044.145.02.209-.03.088-1.682 4.21-1.704 4.247a.375.375 0 0 1-.126.124c-.028.014-.06.015-.307.016a4.458 4.458 0 0 1-.32-.005Zm-3.512.002a.224.224 0 0 1-.178-.144c-.014-.042-.015-.13-.015-2.175V9.807c.034-.073.066-.141.143-.178.039-.019.039-.019.473-.02.456-.004.495 0 .562.031a.446.446 0 0 1 .161.183v4.255a.419.419 0 0 1-.065.106c-.073.076-.09.078-.62.077-.242 0-.451-.002-.461-.004Zm9.185-1.56c.077-.107.152-.282.187-.439a1.62 1.62 0 0 0 .01-.589 1.21 1.21 0 0 0-.318-.634.898.898 0 0 0-.656-.265.9.9 0 0 0-.547.168c-.447.31-.606 1.023-.35 1.573.13.293.409.511.725.567.36.06.734-.083.949-.38ZM32.341 13.9a2.295 2.295 0 0 1-.755-.96 2.564 2.564 0 0 1-.148-1.545c.164-.766.69-1.406 1.387-1.689a2.308 2.308 0 0 1 1.722-.005 2.33 2.33 0 0 1 1.254 1.247 2.584 2.584 0 0 1-.009 2 2.37 2.37 0 0 1-.985 1.104c-.248.139-.518.23-.799.272a2.3 2.3 0 0 1-1.667-.424ZM2.012 11.636 2.01 8.94c-.002-3.025-.008-2.748.058-2.825a.304.304 0 0 1 .166-.097c.05-.013.135-.014 1.168-.014 1.032 0 1.118.001 1.164.014a.3.3 0 0 1 .15.087c.042.043.066.09.084.161.01.043.012.224.012 1.55v1.5c-.712.822-1.366 1.777-2.186 2.49-.218.195-.496.078-.614-.169Z"/></g><defs><clipPath id="pi-kredivo-a"><path fill="#fff" d="M0 0h38v24H0z"/></clipPath></defs></svg>
