<svg xmlns="http://www.w3.org/2000/svg" role="img" viewBox="0 0 38 24" width="38" height="24" fill="none" aria-labelledby="pi-krungthaibank"><title id="pi-krungthaibank">Krung Thai Bank</title><g><path fill="#000" d="M35 0H3C1.3 0 0 1.3 0 3v18c0 1.7 1.4 3 3 3h32c1.7 0 3-1.3 3-3V3c0-1.7-1.4-3-3-3Z" opacity=".07"/><path fill="#fff" d="M35 1c1.1 0 2 .9 2 2v18c0 1.1-.9 2-2 2H3c-1.1 0-2-.9-2-2V3c0-1.1.9-2 2-2h32Z"/><path fill="#01A6E6" fill-rule="evenodd" d="M27.184 7.898s.584-.042-.058-.7c0 0-1.068-1.158-3.117-2.035-1.098-.47-2.333-.275-2.217.862.081.798-.723 1.103-1.356 1.03-.743-.086-1.19-.65-1.072-1.113.125-.495.407-.878.825-1.176.283-.202.48-.344.996-.443.313-.06.724-.154.834.175.215-.105.597-.766-.643-.778 0 0-.186-.37-.603-.293 0 0-1.233-1.119-2.605.266 0 0-.539.197-.568.007.122.09.32-.182.049-.275-.128-.044-.277.08-.3.2-.018.093.011.297.283.337.072.01.2 0 .2 0l-.09.098c-.41.163-.808.037-.882-.233.096.051.2-.013.234-.112.034-.1-.045-.24-.204-.261-.223-.031-.328.209-.28.42.072.324.425.555.877.5l-.078.108s-.453.525-.823 1.122c-.376.606-1.908 1.274-1.646-.17.084-.458-.744-1.008-2.182-.093-.768.49-1.71 1.223-2.408 2.41 0 0-.315.454.202.468 0 0-1.18 1.174-1.04 2.571 0 0 .105.384.384.14 0 0-.454 1.222-.175 2.27 0 0 .14.594.489.28 0 0 .313 1.483.977 2.724.524.978 1.501 2.41 1.117 2.76-.38.346-.917-.343-.833-.066.177.587.829.673 1.182.415.908-.664-.429-2.263-.837-4.296 0 0 .279-.035.165-.695 0 0 .672.24.555-1.08 0 0 .71.377.71-.53 0 0 .734.174.873-.804 0 0 1.197.174 1.467-.49 0 0 .314.385.903-.23.146.42.443.799.832 1.12 0 0-.077.59-.778.794 0 0-.856-.336-1.781 0-.853.31-.51 1.16.109.957-.188-.094-.242-.375.06-.435.303.23.63.097.788-.11 0 0 .607.425 1.006-.011.194.011.314.284.048.412.518.103.704-.4.49-.673 0 0 .12-.073.258-.18 0 0 .162-.146.283-.317 0 0 .509.373 1.452.582 0 0-.492.757-1.222.903 0 0-1.035-.313-1.734.092 0 0-.376.182-.317.568.043.29.292.492.666.445-.152-.07-.488-.42-.06-.572.282.413 1.032.116 1.112-.003.143.146.771.087.855-.13.2-.034.494.058.385.418.243-.033.637-.444.059-.77 0 0 .343-.157.618-.385l.417-.389s.499-.189.49.385c.39-.046.715.286.636.65 0 0-.17.417-.776.309-.606-.109-.595.38-.146.409-.296.082-.496.61.496.612 0 0 .22 1.199-1.113 1.078-.158-.037-.134-.183-.116-.298.218-.073.243-.29.14-.394a.375.375 0 0 0-.54.03c-.114.122-.155.358-.12.595-.218-.059-.334-.15-.334-.322.255-.109.073-.564-.345-.4-.17.066-.294.27-.218.6.101.445.71.64 1.198.695.291.257.734.529 1.769.373 0 0-.459 2.225-3.506 2.128 0 0-1.185-.422-.825-1.34.072-.183.318-.503.567-.496 0 0 .415.137.415-.214 0 0-.033-.256-.298-.282-.266-.027-.902.028-1.193.828-.13.36-.103.947.253 1.353-1.152-.283-2.02-1.092-1.67-2.19.188-.592 1.035-1.164 1.708-.764-.018.273.11.492.418.492.26 0 .4-.237.345-.528-.048-.26-.419-.62-1.054-.655-.672-.036-1.924.343-2.018 1.746-.086 1.3.802 2.236 3.007 2.526l.029.024s1.342.876 3.24.409c0 0 3.822-.73 3.004-4.76 0 0 .935-2.632-1.086-4.16 0 0-.046-.376.245-.07.173.23.872.35.872-.14 0 0 .664.594.904-.01 0 0 .248.709.758.234 0 0-.126.545.119.859.244.314.698.221.698.221s-.698 1.875.14 1.945c0 0-2.095 4.191-.882 4.721.421.184.913.095 1.163-.4.207-.41-.456.394-.84.045-.457-.416.105-1.432.663-2.48.77-1.443 1.293-2.504 1.397-3.214 0 0 .457.3.597-.782.112-.866-.02-1.469-.109-2.082 0 0 .594.384.303-.974 0 0-.214-.983-1.236-1.918Zm-7.39-4.365a.527.527 0 0 1 .12.03.082.082 0 0 1 .012.043.087.087 0 0 1-.087.088.088.088 0 0 1-.087-.088c0-.03.017-.057.042-.073Zm-.16.007-.001.007a.212.212 0 0 0 .414.087c.06.04.11.084.149.118-.226.004-.263.11-.457.073a.276.276 0 0 1-.21-.251.375.375 0 0 1 .105-.034Zm3.058 13.478s.111-.183.17.08c0 0 .118 1.416-.786 2.281-.603.577-1.993 1.402-3.568 1.042 0 0 2.515-.161 3.157-2.468l.07-.26s.634-.145.957-.675Z" clip-rule="evenodd"/></g><defs><clipPath><path fill="#fff" d="M0 0h38v24H0z"/></clipPath></defs></svg>