<svg xmlns="http://www.w3.org/2000/svg" xmlns:xlink="http://www.w3.org/1999/xlink" width="38" height="24" viewBox="0 0 38 24" role="img" aria-labelledby="pi-krungsri"><title id="pi-krungsri">Krungsri</title><path opacity=".1" d="M35 0H3a3 3 0 0 0-3 3v18a3 3 0 0 0 3 3h32a3 3 0 0 0 3-3V3a3 3 0 0 0-3-3z"/><path fill="#FFF" d="M35 1a2 2 0 0 1 2 2v18a2 2 0 0 1-2 2H3a2 2 0 0 1-2-2V3c0-1.1.9-2 2-2h32"/><path fill="#5C4C4C" d="M9.4 21.6v-19c0-.3 0-.3.2-.3h19v18.9c0 .4 0 .4-.4.4H9.4M19 11l-.1.1a18.6 18.6 0 0 1-1.3 4c-.4.9-.9 1.7-1.5 2.3v.3l2.1.6a6 6 0 0 0 3.3-.5c.5-.2.5-.2.2-.6h-.1a10 10 0 0 1-1.5-2.6L19 12 19 11m-.2-4.5v-.6c0-.2 0-.3-.3-.3a6 6 0 0 0-2.2.6c-.2.1-.3.2-.3.4 0 1 .2 2 .4 2.9.2.8.6 1.5 1 2.2.2.2.2.2.3 0a13.5 13.5 0 0 0 1-5.2m.4 0a20.9 20.9 0 0 0 1 5.2c.2.2.2.2.4 0l1-2c.3-1 .4-2.1.4-3.2 0 0 0-.2-.2-.2-.7-.4-1.5-.6-2.4-.7-.1 0-.2 0-.2.2v.7M12.7 12v.5c0 .3.1.4.4.2.9-.5 1.5-1.3 1.9-2.2.5-1.1.7-2.4.7-3.6v-.2h-.2a6.4 6.4 0 0 0-2.8 5.3m12.5 0c0-.8-.2-1.5-.4-2.2a6.3 6.3 0 0 0-2.4-3l-.2-.1v.3c0 .5 0 1.1.2 1.7.2 1 .5 2.1 1.3 3 .3.5.7.8 1.2 1 .1.1.3.2.3 0v-.8m-9.3-.7l-.2.3a4.7 4.7 0 0 1-2.4 2.7c-.2 0-.2.1-.1.3a7 7 0 0 0 1 1.7h.3a7.6 7.6 0 0 0 2.5-2.9V13c-.5-.6-.8-1.3-1.1-2m6.1 0c-.2.7-.6 1.4-1 2-.2 0-.1.1 0 .3l.4.8a7 7 0 0 0 2 2h.3l.4-.5.6-1.2V14c-1-.5-1.8-1.2-2.3-2.2L22 11"/><path fill="#F8F7F7" d="M9.4 21.6h18.8c.4 0 .4 0 .4-.4V2.3v19.2c0 .2 0 .2-.2.2H9.6c-.1 0-.3 0-.2-.1"/><path fill="#F9CC0D" d="M19 11l.2.9c.2 1 .5 1.8.9 2.7.4 1 .8 1.8 1.5 2.5v.1c.4.4.4.4 0 .6a6 6 0 0 1-5.5-.1v-.3c.6-.6 1-1.4 1.5-2.2a14 14 0 0 0 1.3-4V11M18.8 6.5a18.1 18.1 0 0 1-1.1 5.2c0 .2-.1.2-.2 0-.5-.7-.9-1.4-1-2.2a12 12 0 0 1-.5-2.9c0-.2 0-.3.3-.4a6 6 0 0 1 2.2-.6c.2 0 .3 0 .3.3v.6M19.1 6.5v-.7c0-.1 0-.2.2-.2.9 0 1.7.3 2.4.7l.2.2c0 1-.1 2.1-.5 3.1-.2.8-.5 1.5-1 2.1 0 .2-.1.2-.2 0l-.6-1.7-.5-3.5M12.7 12c.1-2.2 1-4 2.8-5.3l.2-.1v.2c0 1.2-.2 2.5-.7 3.6-.4 1-1 1.7-2 2.2-.2.2-.2.1-.3-.2V12M25.2 11.8v.7c0 .3-.2.2-.3.1-.5-.2-.9-.5-1.2-1-.8-.9-1.1-2-1.3-3-.2-.6-.2-1.2-.2-1.7v-.3l.2.1a6.3 6.3 0 0 1 2.8 5.1M15.9 11c.3.7.6 1.4 1.1 2v.2a7.6 7.6 0 0 1-2.5 3l-.3-.1a7 7 0 0 1-1-1.7V14c1.3-.6 2-1.5 2.5-2.7l.2-.3M22 11l.4 1c.5.9 1.2 1.6 2.3 2 .1.2 0 .2 0 .4l-.6 1.2-.4.5c0 .1-.1.1-.2 0a7 7 0 0 1-2.1-2l-.5-.9V13c.5-.6.9-1.3 1.1-2"/></svg>