<svg width="38" height="24" viewBox="0 0 38 24" role="img" aria-labelledby="pi-kueskipay" xmlns="http://www.w3.org/2000/svg"><title id="pi-kueskipay">Kueski Pay</title><path fill="#000" opacity=".07" d="M35 0H3C1.3 0 0 1.3 0 3v18c0 1.7 1.4 3 3 3h32c1.7 0 3-1.3 3-3V3c0-1.7-1.4-3-3-3z"/><path fill="#fff" d="M35 1c1.1 0 2 .9 2 2v18c0 1.1-.9 2-2 2H3c-1.1 0-2-.9-2-2V3c0-1.1.9-2 2-2h32"/><path d="M12.34 11.49c0 .185-.354 3.39-.522 4.958-.048.462-.514.492-.64.492H5.792c-.56 0-.76-.246-.814-.54-.058-.307-.355-3.321-.504-4.37l-.051-.522c0-.26.182-.484.436-.484h7.016a.463.463 0 01.465.469v-.003z" fill="url(#pi-paint0_linear_2753_4554)"/><path d="M12.344 8.307h-2.232c.015-.551.272-.717.797-1.051l1.236-.792a1.166 1.166 0 00.564-.958V4.328c0-.334-.242-.424-.559-.219l-1.64 1.058c-.586.38-.927.805-1.08 1.328-.105-.55-.53-1.065-1.067-1.336l-1.621-.812c-.319-.154-.56-.116-.563.217l-.004 1.178a1.01 1.01 0 00.56.899l1.219.604c.502.253.792.35.803 1.062H4.363a.366.366 0 00-.256.104.366.366 0 00-.107.256v1.437a.355.355 0 00.107.255.365.365 0 00.256.104h7.98a.358.358 0 00.338-.22.358.358 0 00.028-.138V8.667a.358.358 0 00-.226-.333.357.357 0 00-.14-.026z" fill="url(#pi-paint1_linear_2753_4554)"/><path opacity=".4" d="M12.344 8.307h-2.232c.015-.551.272-.717.797-1.051l1.236-.792a1.166 1.166 0 00.564-.958V4.328c0-.334-.242-.424-.559-.219l-1.64 1.058c-.586.38-.927.805-1.08 1.328-.105-.55-.53-1.065-1.067-1.336l-1.621-.812c-.319-.154-.56-.116-.563.217l-.004 1.178a1.01 1.01 0 00.56.899l1.219.604c.502.253.792.35.803 1.062H4.363a.366.366 0 00-.256.104.366.366 0 00-.107.256v1.437a.355.355 0 00.107.255.365.365 0 00.256.104h7.98a.358.358 0 00.338-.22.358.358 0 00.028-.138V8.667a.358.358 0 00-.226-.333.357.357 0 00-.14-.026z" fill="url(#pi-paint2_linear_2753_4554)" fill-opacity=".5"/><path d="M14.832 8.298H18c.574 0 1.076.103 1.505.31.429.206.758.5.989.88.23.381.346.83.346 1.349 0 .518-.123.97-.37 1.354-.247.384-.6.68-1.056.886-.458.207-.993.31-1.609.31h-2.16v3.552h-.814V8.298zm2.973 4.36c.445 0 .83-.074 1.154-.224.323-.15.572-.36.746-.632a1.75 1.75 0 00.261-.965 1.85 1.85 0 00-.243-.966c-.161-.27-.39-.48-.685-.625A2.321 2.321 0 0018 9.027h-2.355v3.632h2.16zM26.681 15.537a2.606 2.606 0 01-.965 1.07c-.409.25-.896.376-1.463.376-.42 0-.79-.075-1.11-.225a1.647 1.647 0 01-.735-.65c-.17-.283-.255-.623-.255-1.02 0-.454.113-.842.34-1.166.226-.324.554-.571.983-.741.43-.17.95-.255 1.566-.255h1.626v-.34c0-.39-.079-.725-.236-1.009a1.576 1.576 0 00-.68-.65c-.296-.15-.645-.224-1.05-.224-.38 0-.716.065-1.007.194-.291.13-.52.318-.686.565-.166.248-.257.541-.273.881h-.79c.033-.47.168-.877.407-1.22.239-.345.56-.608.965-.79.404-.182.873-.273 1.408-.273.535 0 1.042.101 1.45.303.41.203.723.496.942.88.218.385.327.84.327 1.367l-.002 4.245h-.763v-1.318h.001zm-3.368.444c.247.214.593.322 1.038.322.501 0 .948-.138 1.34-.413.393-.275.719-.668.978-1.179V13.57h-1.663c-.664 0-1.173.129-1.53.388-.355.26-.533.628-.533 1.105 0 .397.123.703.37.918zM31.54 15.707l.618-1.615 1.627-4.032h.813l-3.059 7.446c-.162.396-.332.702-.51.917a1.485 1.485 0 01-.588.45 2.123 2.123 0 01-.783.127h-1.104v-.644h1.092a1 1 0 00.504-.121c.142-.081.275-.215.4-.401a4.43 4.43 0 00.395-.79l.182-.462-2.658-6.522h.825l1.639 4.032.607 1.615z" fill="#0075FF"/><defs><linearGradient id="pi-paint0_linear_2753_4554" x1="6.698" y1="10.399" x2="10.855" y2="17.864" gradientUnits="userSpaceOnUse"><stop stop-color="#25A2FA"/><stop offset=".48" stop-color="#0075FF"/><stop offset="1" stop-color="#3F58EA"/></linearGradient><linearGradient id="pi-paint1_linear_2753_4554" x1="11.971" y1="10.563" x2="4.724" y2="3.835" gradientUnits="userSpaceOnUse"><stop stop-color="#00BBE9"/><stop offset=".1" stop-color="#01C3DC"/><stop offset=".18" stop-color="#02CDCE"/><stop offset=".24" stop-color="#09D1C0"/><stop offset=".37" stop-color="#1BDD9A"/><stop offset=".55" stop-color="#38EF5F"/><stop offset=".59" stop-color="#3FF350"/><stop offset=".67" stop-color="#4BF550"/><stop offset=".82" stop-color="#69F950"/><stop offset="1" stop-color="#95FF4F"/></linearGradient><linearGradient id="pi-paint2_linear_2753_4554" x1="4.304" y1="10.675" x2="13.222" y2="4.884" gradientUnits="userSpaceOnUse"><stop stop-color="#01BDE6" stop-opacity="0"/><stop offset=".1" stop-color="#06BEE2" stop-opacity=".02"/><stop offset=".23" stop-color="#14C2D7" stop-opacity=".08"/><stop offset=".36" stop-color="#2AC8C4" stop-opacity=".17"/><stop offset=".51" stop-color="#4AD0AA" stop-opacity=".31"/><stop offset=".65" stop-color="#73DB88" stop-opacity=".48"/><stop offset=".81" stop-color="#A5E85F" stop-opacity=".69"/><stop offset="1" stop-color="#EEFB24"/></linearGradient></defs></svg>