<svg xmlns="http://www.w3.org/2000/svg" role="img" viewBox="0 0 38 24" width="38" height="24" aria-labelledby="pi-kunstencultuurcadeaukaart"> <title id="pi-kunstencultuurcadeaukaart">Kunst en Cultuur Cadeaukaart</title> <path fill="#000" opacity=".07" d="M35 0H3C1.3 0 0 1.3 0 3v18c0 1.7 1.4 3 3 3h32c1.7 0 3-1.3 3-3V3c0-1.7-1.4-3-3-3z"/> <path fill="#fff" d="M35 1c1.1 0 2 .9 2 2v18c0 1.1-.9 2-2 2H3c-1.1 0-2-.9-2-2V3c0-1.1.9-2 2-2h32"/> <path fill-rule="evenodd" clip-rule="evenodd" d="M0 0H3.51666L10.3226 7.62125L3.51666 15.2508H0V13.7862L5.51995 7.62125L0 1.50013V0Z" transform="translate(14.871 4.69565)" fill="#F80000"/> </svg>