<svg xmlns="http://www.w3.org/2000/svg" role="img" viewBox="0 0 38 24" width="38" height="24" aria-labelledby="pi-kuwaitfinancehouse"><title id="pi-kuwaitfinancehouse">Kuwait Finance House</title><g clip-path="url(#pi-kuwaitfinancehouse-a)"><path fill="#000" d="M35 0H3C1.3 0 0 1.3 0 3v18c0 1.7 1.4 3 3 3h32c1.7 0 3-1.3 3-3V3c0-1.7-1.4-3-3-3Z" opacity=".07"/><path fill="#fff" d="M35 1c1.1 0 2 .9 2 2v18c0 1.1-.9 2-2 2H3c-1.1 0-2-.9-2-2V3c0-1.1.9-2 2-2h32Z"/><path fill="#008752" d="M21.94 12.532h1.508v.797l.778-.797h.404l-1.243 1.243H21.94v-1.243Z"/><path fill="#008752" d="M21.94 12.532h1.508v-2.49H21.94v2.49ZM25.356 4H12.644C11.736 4 11 4.736 11 5.644v12.713c0 .907.736 1.643 1.644 1.643h12.712c.908 0 1.644-.736 1.644-1.643V5.644C27 4.736 26.264 4 25.356 4ZM13.697 7.562s.253-.866 1.146-.866h4.637l.84.82h-5.27s-.444.046-.512.374c-.07.328 0 .466 0 .466l-.482.442-.359.33V7.562ZM19.7 18.833s-.79.433-1.422-.198l-3.28-3.279-.003-.335-.01-.84.838.84 1.245 1.245 1.244 1.245.4.398s.345.281.626.098c.281-.184.33-.33.33-.33l1.14.049-1.108 1.107Zm4.553-2.507s-.253.866-1.146.866H18.47l-.84-.82h5.27s.166-.018.31-.106a.41.41 0 0 0 .202-.268c.069-.328 0-.466 0-.466l.557-.51.284-.261v1.565Zm1.518-3.794a1.286 1.286 0 0 1-.127.146l-3.278 3.28-1.175.014.951-.95 1.246-1.247H21.94v.858h-5.65v-.941h4.598v-1.16h-.36v.717H16.29v-.997h3.212v-.498h-.416v.055H16.29v-.942h1.8v-.825h-.525v.316h-.12v-.127h-.5v.127h-.105v-.316h-.104v.313h-.12v-.313h-.164c.014.29.1.387.1.387h1.025l-.006.127H16.54s-.05-.013-.089-.114v.095h-.161v-.495h-1.699l-.933.934h.442l.406-.416v5.271s.03.285.211.434a.386.386 0 0 0 .163.078c.329.069.466 0 .466 0l.772.84h-1.566s-.715-.209-.845-.917a1.284 1.284 0 0 1-.02-.228v-3.506h-.375l-.047 1.117-1.113-1.117a1.384 1.384 0 0 1-.127-.778c.032-.207.125-.43.33-.635l3.28-3.279 1.173-.014-.972.972h6.114L19.244 6.09s-.345-.281-.626-.098c-.281.184-.33.33-.33.33l-1.14-.049 1.108-1.107s.79-.433 1.422.198l3.28 3.279.001.154h.489v-.74s-.046-.443-.374-.512c-.329-.069-.466 0-.466 0l-.772-.84h1.566s.865.253.865 1.145v3.125h.432l.035-.827 1.108 1.107s.114.209.14.498c.02.23-.016.511-.212.778Z"/><path fill="#008752" d="M18.081 14.243v.026h.406v.136h-1.206v-.142h.61v-.02h.19Zm2.813 0c.137.083.221.175.221.175l-1.243.012s.077-.1.21-.187h.812Zm.672 0v.183h-.332v-.183h.332Z"/><path fill="#008752" d="M17.891 14.243v-.318h.615v.118h-.425v.2h-.19Zm2.19 0a.72.72 0 0 1 .395-.126c.162 0 .307.06.418.127l-.812-.001Zm1.153 0v-.468h.332v.468h-.332Zm-.726-.468a.104.104 0 0 0-.045.088c0 .106.118.136.118.136s-.068-.057-.056-.142a.2.2 0 0 1 .03-.081h-.047Zm-.22-1.243.048.522h-.695l.05-.522h.597Zm.267 1.243c.016-.023.032-.033.032-.033s-.044.005-.08.033h.048Zm.68 0v-1.163h.331v1.163h-.332Zm-3.241-1.24h.436v.423h-.436v-.423Zm-.693 0h.437v.423H17.3v-.423Zm-4.334-.781c-.049.123-.076.283.017.425.184.281.33.33.33.33v.023h.373v-.778h-.72Zm7.25 0 .07.778h-.596l.074-.778h.452Zm.31 0v.778h.36v-.778h-.36Zm1.039 0v.332h-.332v-.332h.332Zm2.701 0v.735l-.041.043h.404l.288-.288s.2-.246.152-.491h-.803Zm-3.144.415h.554v.318h-.554v-.318Z"/><path fill="#008752" d="m13.659 10.976-.577.577s-.068.084-.115.2h.72v-.352l.414-.425h-.442Zm5.428 0v.778h.416v-.778h-.416Zm.562 0a.35.35 0 0 0 .35.245c.115 0 .25-.074.297-.245h-.647Zm.879 0v.778h.36v-.778h-.36Zm1.149 0v.196h-.554v-.196h.554Zm2.59 0v.778h.803a.378.378 0 0 0-.055-.136c-.184-.281-.33-.33-.33-.33l.014-.312h-.432Zm-4.502.778.044-.45h.366l.042.45h-.452Zm1.47 0v-.461h.331v.46h-.332ZM17.3 11.15h.437v.422H17.3v-.422Zm1.09.44s.027-.07.13-.07c.101 0 .11.043.173.038a.282.282 0 0 0 .116-.038s-.057.09-.135.094c-.077.005-.136-.046-.189-.041a.558.558 0 0 0-.094.017Zm-.072-.09s.027-.12.148-.12c.12 0 .14.048.242.028.101-.02.167-.048.167-.048s-.07.107-.187.121c-.116.014-.151-.058-.246-.039-.095.02-.124.058-.124.058Zm-.292-.293h.833s-.02.1-.117.11c-.097.01-.181-.087-.33-.03-.147.059-.186.16-.186.16s-.097-.082-.136-.13a.608.608 0 0 1-.064-.11Z"/><path fill="#008752" d="M16.952 10.042v.085h.497v-.085h-.497Zm2.135 0v.934h.416v-.934h-.416Zm1.44 0v.934h.36v-.934h-.36Zm.812 0a.131.131 0 0 0-.003.028c0 .105.117.136.117.136s-.068-.057-.056-.142a.198.198 0 0 1 .005-.022h-.063Zm-1.043.934a.462.462 0 0 0 .017-.114c.006-.2-.252-.42-.29-.535a.96.96 0 0 1-.046-.176s-.075.11-.107.222c-.03.106-.283.305-.237.542.004.021.01.042.016.062l.647-.001Zm.827 0v-.123h.554v.123h-.554Zm.139-.206v-.277s.014-.152.165-.152c.153 0 .139.138.139.138v.292h-.304Zm-2.943.187s-.003-.119.044-.274c.046-.155.153-.252.153-.252s-.005.092.009.15a.5.5 0 0 0 .078.139s.033-.115.082-.182a.857.857 0 0 1 .101-.116s-.043.225-.024.322c.02.096.058.217.058.217l-.501-.005Z"/><path fill="#008752" d="m15.837 8.798-1.245 1.244h1.699v-.765h.148l-.006.126s.066-.131.115-.132h1.018v.107h-.987s-.118.246-.127.525c-.002.05-.001.097 0 .14h.165v-.486s.03-.085.103-.085h.85V9.6h-.833v.155h.832v.127h-.832v.16h.104v-.127h.111v.127h.497v-.13h.117v.13h.525v-.725h.996v.725h.416v-.725h1.025v.725h.36v-.725h1.052v.725h1.508V8.798h-.489l.013 1.02-1.02-1.02h-6.115Zm5.565 1.244a.154.154 0 0 1 .057-.094s-.101.014-.12.094h.063Z"/></g><defs><clipPath id="pi-kuwaitfinancehouse-a"><path fill="#fff" d="M0 0h38v24H0z"/></clipPath></defs></svg>
