<svg width="38" height="24" viewBox="0 0 38 24" role="img" fill="none" xmlns="http://www.w3.org/2000/svg" aria-labelledby="pi-landbank"><title id="pi-landbank">Land Bank</title><g><path opacity=".07" d="M35 0H3C1.3 0 0 1.3 0 3v18c0 1.7 1.4 3 3 3h32c1.7 0 3-1.3 3-3V3c0-1.7-1.4-3-3-3z" fill="#000"/><path d="M35 1c1.1 0 2 .9 2 2v18c0 1.1-.9 2-2 2H3c-1.1 0-2-.9-2-2V3c0-1.1.9-2 2-2h32z" fill="#fff"/><path d="M18.66 4.45s-.123.628-.135.63h.042a4.131 4.131 0 00-.376.056l.034-.01c-.012.002-.317-.56-.317-.56l-.648.202s.07.637.06.641l.04-.013a4.142 4.142 0 00-.346.17l.033-.023c-.011.006-.47-.44-.47-.44l-.559.388s.258.586.249.594l.037-.026a4.15 4.15 0 00-.284.268l.027-.033c-.009.008-.58-.28-.58-.28l-.417.537s.421.483.415.493l.028-.037c-.07.112-.133.226-.191.344l.015-.042c-.005.01-.637-.093-.637-.093l-.237.637s.546.334.543.346l.017-.044c-.033.128-.06.257-.08.387l.002-.046c-.002.012-.636.102-.636.102l-.036.678s.621.156.622.168v-.011c.01.14.025.28.047.417l-.531.238.144.602c.576 1.882 2.395 3.178 4.465 3.18 2.07-.002 3.888-1.298 4.465-3.18l.144-.602-.535-.239c.024-.15.04-.3.048-.451l.003.046c0-.012.621-.168.621-.168l-.035-.678s-.634-.09-.636-.102v.01a4.11 4.11 0 00-.073-.337l.011.03c-.003-.012.543-.346.543-.346l-.236-.637s-.632.104-.638.093a4.095 4.095 0 00-.165-.288l.018.023c-.006-.01.414-.493.414-.493l-.416-.536s-.572.287-.58.279l.003.004a4.134 4.134 0 00-.244-.228l.02.015c-.008-.008.249-.594.249-.594l-.558-.388s-.46.446-.47.44l.008.005a4.134 4.134 0 00-.3-.145l.02.006c-.011-.004.059-.64.059-.64l-.648-.204s-.306.563-.317.56l.012.004a4.125 4.125 0 00-.33-.05h.017c-.011 0-.135-.629-.135-.629h-.679z" fill="#1CB14D"/><path fill-rule="evenodd" clip-rule="evenodd" d="M18.003 7.446c-.007 1.035.69 1.67.985 1.841.296-.17.993-.806.986-1.841-.007-1.034-.69-1.67-.986-1.841-.296.17-.979.806-.985 1.841zM14.844 10.804c.123.317.281.616.47.893 1.727-1.049 4.228.663 7.216.215.213-.276.395-.578.54-.9-4.287 1.478-6.474-.89-8.226-.208z" fill="#FDC14F"/><path fill-rule="evenodd" clip-rule="evenodd" d="M15.652 12.133c.19.216.4.413.628.589 2.646-1.418 3.736-.22 5.159.2.267-.175.514-.378.737-.604-2.265.328-3.972-1.36-6.524-.185z" fill="#FDC14F"/><path d="M18.668 12.396c-.668 0-1.335.221-1.883.663a4.438 4.438 0 002.215.588c.637 0 1.242-.134 1.79-.374a2.997 2.997 0 00-2.122-.877z" fill="#FDC14F"/><path d="M19.324 10.967h-.647v2.759h.647v-2.759z" fill="#1CB14D"/><path fill-rule="evenodd" clip-rule="evenodd" d="M16.417 8.025a.899.899 0 00-.065.003c-.095.295-.166 1.163.474 1.976.059.076.12.145.183.209.417.462 1.058.774 1.79.823v2.606a4.509 4.509 0 00.403 0v-2.606c.73-.049 1.37-.36 1.787-.82l.001-.002c.063-.064.125-.134.184-.21.64-.813.57-1.681.474-1.976a.893.893 0 00-.064-.003c-.351-.005-1.147.153-1.755.909a2.344 2.344 0 00-.524 1.731.42.42 0 01-.61 0 2.345 2.345 0 00-.523-1.731c-.609-.756-1.404-.914-1.755-.909z" fill="#FDC14F"/><path d="M3 15.933h1.144v2.79h1.785v.912H3v-3.702zM8.732 19.024H7.43l-.18.611H6.082l1.391-3.702h1.247l1.392 3.702H8.914l-.182-.611zm-.24-.8l-.409-1.331-.406 1.33h.815zM10.482 15.933h1.069l1.393 2.048v-2.048h1.079v3.702h-1.079l-1.386-2.033v2.033h-1.076v-3.702zM14.803 15.933h1.7c.335 0 .605.046.81.137.207.09.378.22.513.39s.232.369.293.594c.06.226.09.465.09.718 0 .395-.045.702-.136.921-.089.217-.213.4-.373.548-.16.147-.332.244-.515.293a2.65 2.65 0 01-.682.101h-1.7v-3.702zm1.144.838v2.023h.28c.24 0 .41-.026.51-.078a.545.545 0 00.238-.278c.057-.133.086-.348.086-.644 0-.392-.064-.66-.192-.805-.128-.145-.34-.218-.636-.218h-.286zM18.81 15.933h2.142c.357 0 .63.088.82.265a.857.857 0 01.289.657.828.828 0 01-.205.563.911.911 0 01-.399.247c.266.064.461.175.586.331.126.155.19.35.19.586 0 .192-.045.365-.135.518a.986.986 0 01-.366.363c-.096.056-.24.096-.434.122a5 5 0 01-.513.05h-1.974v-3.702zm1.155 1.452h.497c.178 0 .302-.03.371-.09.071-.063.106-.152.106-.269a.315.315 0 00-.106-.252c-.069-.06-.19-.09-.363-.09h-.505v.701zm0 1.455h.583c.197 0 .336-.035.417-.104a.357.357 0 00.12-.283c0-.11-.04-.197-.12-.262-.08-.068-.22-.101-.42-.101h-.58v.75zM25.015 19.024h-1.303l-.179.611h-1.17l1.392-3.702h1.248l1.391 3.702h-1.197l-.182-.611zm-.24-.8l-.409-1.331-.406 1.33h.815zM26.765 15.933h1.068l1.394 2.048v-2.048h1.078v3.702h-1.078l-1.386-2.033v2.033h-1.076v-3.702zM31.076 15.933h1.144v1.4l1.2-1.4h1.52l-1.35 1.397L35 19.635h-1.41l-.78-1.523-.59.62v.903h-1.144v-3.702z" fill="#1CB14D"/></g><defs><clipPath><path fill="#fff" d="M0 0h38v24H0z"/></clipPath></defs></svg>