<svg xmlns="http://www.w3.org/2000/svg" role="img" viewBox="0 0 38 24" width="38" height="24" aria-labelledby="pi-latitudepay"> <title id="pi-latitudepay">LatitudePay</title> <path d="M35 0H3a2.946 2.946 0 00-3 3v18a3.009 3.009 0 003 3h32a2.946 2.946 0 003-3V3a3.009 3.009 0 00-3-3z" style="isolation:isolate" opacity=".07" /> <path d="M35 1a2.006 2.006 0 012 2v18a2.006 2.006 0 01-2 2H3a2.006 2.006 0 01-2-2V3a2.006 2.006 0 012-2h32" fill="#fff" /> <path d="M5 15.187h7.875V16.9H3.329V7.1H5zm1.79-6.374a.858.858 0 10-.836-.858.847.847 0 00.836.858zm2.625 0a.858.858 0 10-.836-.858.847.847 0 00.836.858zm2.625 3.677a.858.858 0 10.835.858.848.848 0 00-.835-.858zm0-2.7a.858.858 0 10.835.858.847.847 0 00-.835-.854zm10.329 1.587a1.427 1.427 0 01-.468 1.131 1.883 1.883 0 01-1.285.411h-1.039v1.234h-.6V9.839h1.64a1.883 1.883 0 011.285.411 1.426 1.426 0 01.467 1.131zm-.6 0a.827.827 0 00-.3-.687 1.374 1.374 0 00-.871-.239h-1.02v1.851H20.6a1.374 1.374 0 00.871-.239.826.826 0 00.298-.682zm5.082-1.542l1.909 4.318h-.63l-.53-1.23h-2.1l-.527 1.234h-.618l1.9-4.318zm.489 2.467l-.79-1.851-.789 1.851zm6.65-2.467l-1.51 2.467-1.509-2.463h-.7l1.892 3.084v1.234h.637v-1.234l1.872-3.084zM12.04 7.1a.858.858 0 10.835.857.847.847 0 00-.835-.857z" fill="#0049a8" /></svg>