<svg xmlns="http://www.w3.org/2000/svg" role="img" viewBox="0 0 38 24" width="38" height="24" fill="none" aria-labelledby="pi-latitude_creditline_au"><title id="pi-latitude_creditline_au">Latitude CreditLine (AU)</title><g clip-path="url(#pi-latitude_creditline_au-clip0)"><path fill="#000" d="M35 0H3C1.3 0 0 1.3 0 3v18c0 1.7 1.4 3 3 3h32c1.7 0 3-1.3 3-3V3c0-1.7-1.4-3-3-3Z" opacity=".07"/><path fill="#010101" d="M35 1c1.1 0 2 .9 2 2v18c0 1.1-.9 2-2 2H3c-1.1 0-2-.9-2-2V3c0-1.1.9-2 2-2h32Z"/><path fill="#fff" d="M16.48 10.1v1.1a4.23 4.23 0 0 0-.774-.069c-1.178 0-1.974.617-1.974 1.645 0 .953.661 1.56 1.974 1.56.468.014.935-.058 1.377-.212v-4.35h-.294a.325.325 0 0 0-.309.326Zm0 3.81a1.952 1.952 0 0 1-.738.12c-.987 0-1.392-.514-1.392-1.3a1.3 1.3 0 0 1 1.483-1.33 3.68 3.68 0 0 1 .646.052l.001 2.458Zm1.41-2.73h-.29v3.08h.61v-2.755a.327.327 0 0 0-.321-.327l.001.002Zm-.162-.349.43-.189c.07-.03.07-.08 0-.112l-.43-.188a.083.083 0 0 0-.09.002.084.084 0 0 0-.037.081v.323a.084.084 0 0 0 .082.093c.015 0 .03-.004.044-.012l.001.002Zm-8.167.27a5.123 5.123 0 0 0-1.661.211v2.941h.3a.326.326 0 0 0 .308-.315v-2.417a2.478 2.478 0 0 1 1.207-.057l.156-.354c-.061-.01-.203-.01-.31-.01Zm2.028 0a1.593 1.593 0 0 0-1.811 1.604c0 1.108.831 1.622 2 1.622a3.84 3.84 0 0 0 1.349-.21l-.177-.316a3.128 3.128 0 0 1-1.129.19 1.585 1.585 0 0 1-1.123-.46 1.41 1.41 0 0 1-.357-.924h2.95c.002-1.023-.645-1.507-1.702-1.507Zm-1.241 1.3a1.13 1.13 0 0 1 1.219-1.01c.668 0 1.129.3 1.129 1.011l-2.348-.002ZM6.47 10.6a2.01 2.01 0 0 1 .838.165l.178-.3a2.675 2.675 0 0 0-1.137-.21 2.05 2.05 0 1 0 .014 4.077c.385.01.768-.062 1.123-.21l-.178-.3a2.088 2.088 0 0 1-.824.153A1.688 1.688 0 0 1 6.47 10.6Zm26.583.613h.166v.6h.081v-.6h.166v-.06h-.411l-.002.06ZM26.9 11.1a5.208 5.208 0 0 0-1.527.212v2.941h.611v-2.738c.274-.08.559-.118.844-.113.583 0 1.151.16 1.151.622v1.908a.326.326 0 0 0 .308.325h.295v-2.245c-.001-.674-.754-.912-1.682-.912Zm4.027 0a1.595 1.595 0 0 0-1.811 1.605c0 1.108.831 1.622 2 1.622.459.01.916-.06 1.349-.21l-.122-.218a.167.167 0 0 0-.185-.05 3.34 3.34 0 0 1-1 .141 1.587 1.587 0 0 1-1.123-.46 1.4 1.4 0 0 1-.356-.923h2.951c0-1.023-.645-1.507-1.703-1.507Zm-1.241 1.3a1.13 1.13 0 0 1 1.22-1.01c.667 0 1.128.3 1.128 1.012l-2.348-.002Zm1.5-3.084a.368.368 0 0 0 .228-.206v.69a.376.376 0 0 0 .568.372l1.93-.846c.313-.137.313-.362 0-.5l-1.93-.846a.376.376 0 0 0-.568.372v.68a.367.367 0 0 0-.228-.206l-1.93-.846a.377.377 0 0 0-.569.372V9.8a.375.375 0 0 0 .569.372l1.93-.856Zm2.638 2.366-.209-.538H33.5v.66h.079v-.5l.2.5h.073l.194-.5v.5h.079v-.66h-.1l-.201.538Zm-9.365-.509h-.289v3.08h.61v-2.748a.328.328 0 0 0-.323-.327l.002-.005Zm-2.611-.523a.327.327 0 0 0-.326-.327h-.312v3.6a.327.327 0 0 0 .309.325h2.238v-.326h-1.911l.002-3.272Zm-1.993-.328h-.6v.85h-.617v.275h.617v2.09c0 .371.285.776 1.094.776.127-.001.253-.016.376-.045v-.29a1.304 1.304 0 0 1-.206.016c-.433 0-.66-.223-.66-.469v-2.072h.866v-.275h-.866l-.004-.856Zm4.438.5.431-.189c.069-.03.069-.08 0-.112l-.431-.188a.084.084 0 0 0-.09.002.085.085 0 0 0-.038.081v.323a.084.084 0 0 0 .126.09l.002-.007Z"/></g><defs><clipPath id="pi-latitude_creditline_au-clip0"><path fill="#fff" d="M0 0h38v24H0z"/></clipPath></defs></svg>