<svg xmlns="http://www.w3.org/2000/svg" role="img" viewBox="0 0 38 24" width="38" height="24" aria-labelledby="pi-latitude_gem_nz"><title id="pi-latitude_gem_nz">Latitude GEM (NZ)</title><g clip-path="url(#pi-latitude_gem_nz-a)"><path fill="#000" d="M35 0H3C1.3 0 0 1.3 0 3v18c0 1.7 1.4 3 3 3h32c1.7 0 3-1.3 3-3V3c0-1.7-1.4-3-3-3Z" opacity=".07"/><path fill="#0041A7" d="M35 1c1.1 0 2 .9 2 2v18c0 1.1-.9 2-2 2H3c-1.1 0-2-.9-2-2V3c0-1.1.9-2 2-2h32Z"/><path fill="#fff" d="M12.836 7.967a3.849 3.849 0 0 0-2.546-.954 3.8 3.8 0 0 0-3.8 3.8 3.807 3.807 0 0 0 3.8 3.8 3.674 3.674 0 0 0 2.383-.833 2.852 2.852 0 0 1-.607.874 2.592 2.592 0 0 1-3.671 0c-.064-.063-.322-.36-.322-.36L6.9 14.72c.198.278.411.545.638.8a3.715 3.715 0 0 0 2.7 1.11 3.678 3.678 0 0 0 2.685-1.111 3.932 3.932 0 0 0 1.09-2.776V7.575h-1.177v.392Zm-2.545 5.462a2.607 2.607 0 1 1 .004-5.214 2.607 2.607 0 0 1-.004 5.214Zm21.222 1.01V9.377a2.066 2.066 0 0 0-.6-1.511 2.32 2.32 0 0 0-1.669-.666 2.68 2.68 0 0 0-1.773.63l-.051.05-.046-.046a2.329 2.329 0 0 0-1.638-.634 2.825 2.825 0 0 0-1.643.514.952.952 0 0 0-.831-.412 1.125 1.125 0 0 0-.785.3 3.79 3.79 0 0 0-1.139 2.377v.017a5.7 5.7 0 0 1-1.238 2.653 2.591 2.591 0 0 1-1.838.755 2.373 2.373 0 0 1-1.49-.454l4.5-4.5-.307-.336a3.814 3.814 0 0 0-6.212 1.235 3.807 3.807 0 0 0 .825 4.149 3.68 3.68 0 0 0 2.682 1.12 3.535 3.535 0 0 0 2.7-1.121 7.146 7.146 0 0 0 1.531-3.417v-.008c.108-.572.391-1.365.646-1.364.05 0 .2.007.186.426v5.305h1.166V9.394a.975.975 0 0 1 .293-.728c.278-.194.61-.296.95-.291.298-.005.587.098.814.29a.83.83 0 0 1 .282.6v5.174h1.174V9.357a.971.971 0 0 1 .291-.692c.278-.194.61-.296.948-.29.298-.006.588.098.815.29a.838.838 0 0 1 .281.63v5.144h1.176Zm-15.847-3.63a2.481 2.481 0 0 1 .761-1.836 2.518 2.518 0 0 1 1.833-.758c.447-.017.89.09 1.278.31l-3.561 3.562a2.4 2.4 0 0 1-.311-1.278Z"/></g><defs><clipPath id="pi-latitude_gem_nz-a"><path fill="#fff" d="M0 0h38v24H0z"/></clipPath></defs></svg>
