<svg xmlns="http://www.w3.org/2000/svg" role="img" viewBox="0 0 38 24" width="38" height="24" aria-labelledby="pi-latitude_gem_au"><title id="pi-latitude_gem_au">Latitude GEM (AU)</title><g clip-path="url(#pi-latitude_gem_au-a)"><path fill="#000" d="M35 0H3C1.3 0 0 1.3 0 3v18c0 1.7 1.4 3 3 3h32c1.7 0 3-1.3 3-3V3c0-1.7-1.4-3-3-3Z" opacity=".07"/><path fill="#0041A7" d="M35 1c1.1 0 2 .9 2 2v18c0 1.1-.9 2-2 2H3c-1.1 0-2-.9-2-2V3c0-1.1.9-2 2-2h32Z"/><path fill="#fff" d="M12.525 12.4a.663.663 0 1 0-.002 1.326.663.663 0 0 0 .002-1.326ZM6.937 8.232H5.611v7.577h7.576v-1.326h-6.25V8.232Zm3.5 1.326a.663.663 0 1 0-.463-.192.663.663 0 0 0 .467.192h-.004Zm2.084.758a.663.663 0 1 0 .004 0h-.004Zm-4.163-.758a.663.663 0 1 0 .01-1.326.663.663 0 0 0-.01 1.326Zm4.167-1.326a.663.663 0 1 0-.002 1.326.663.663 0 0 0 .002-1.326Zm19.914 1.925h-.422l-1.482 2.533-1.5-2.533h-.425v3.6h.49v-2.61l1.3 2.172h.236l1.3-2.188.006 2.626h.494l.003-3.6Zm-8.345 1.992H25.9v-.437h-1.806v-1.107h2.028v-.448h-2.543v3.6h2.615v-.448h-2.1v-1.16Zm-5.205-1.4c.227-.12.481-.182.738-.177a1.454 1.454 0 0 1 1.046.416l.319-.32a1.6 1.6 0 0 0-.6-.413 2.221 2.221 0 0 0-1.776.1c-.286.152-.525.38-.689.659a1.916 1.916 0 0 0 0 1.892c.165.278.402.505.687.658.302.162.64.245.983.239.252 0 .502-.039.741-.118a1.93 1.93 0 0 0 .623-.34v-1.4h-.494v1.174a1.523 1.523 0 0 1-.844.23 1.499 1.499 0 0 1-.734-.18 1.327 1.327 0 0 1-.512-.5 1.457 1.457 0 0 1 0-1.42 1.3 1.3 0 0 1 .512-.497v-.003Z"/></g><defs><clipPath id="pi-latitude_gem_au-a"><path fill="#fff" d="M0 0h38v24H0z"/></clipPath></defs></svg>
