<svg viewBox="0 0 38 24" xmlns="http://www.w3.org/2000/svg" width="38" height="24" role="img" aria-labelledby="pi-lawson"><title id="pi-lawson">Lawson</title><path d="M35 0H3a3 3 0 0 0-3 3v18a3 3 0 0 0 3 3h32a3 3 0 0 0 3-3V3a3 3 0 0 0-3-3z" fill="#e8e8e8"/><path d="M35 1a2 2 0 0 1 2 2v18a2 2 0 0 1-2 2H3a2 2 0 0 1-2-2V3a2 2 0 0 1 2-2h32" fill="#fff"/><path d="M21.67 12.3H24c.2 0 .2.06.2.17v.85c0 .21 0 .29-.35.29H21.7c-.08 0-.19 0-.19-.13v-.66c0-.11 0-.15-.15-.15h-.48c-.07 0-.14 0-.14.15V14c0 .39.16.63.66.63h2.77a.7.7 0 0 0 .77-.74v-1.71c0-.37-.28-.66-.78-.66h-2.43c-.12 0-.23 0-.23-.19v-.78c0-.09 0-.16.2-.16H24c.22 0 .17 0 .17.2V11c0 .12.1.12.21.12h.43c.12 0 .14-.06.14-.15v-.69c0-.69-.24-.93-.81-.93h-2.43c-.63 0-1 0-1 .93v1.34c0 .43.27.63.94.63m4.89-.16v-1.45c0-.2.11-.24.23-.24H29c.15 0 .2 0 .2.16v2.88c0 .17-.1.17-.2.17h-2.24c-.15 0-.22 0-.22-.18zm0 2.52h2.57c.57 0 .86-.19.86-.87v-3.42c0-.63-.26-.93-.83-.93h-2.53c-.53 0-.85.22-.85.93v3.53c0 .44.2.76.79.76M1.94 10.39h.69v3.21H2a.12.12 0 0 0-.12.12v.77a.11.11 0 0 0 .12.12h4a.11.11 0 0 0 .12-.12v-1.76a.12.12 0 0 0-.12-.12h-.52a.12.12 0 0 0-.12.12v.88h-2v-3.22h.65a.12.12 0 0 0 .12-.12v-.76a.12.12 0 0 0-.12-.12H1.94a.12.12 0 0 0-.12.12v.77a.12.12 0 0 0 .12.12m7.61.82l.59 1.07h-1.2zm-2.82 3.39h2.12a.12.12 0 0 0 .15-.12v-.77a.12.12 0 0 0-.12-.12h-.69l.31-.54h2.08l.3.54h-.64a.12.12 0 0 0-.12.12v.77a.12.12 0 0 0 .12.12h2.12a.11.11 0 0 0 .12-.12v-.77a.12.12 0 0 0-.12-.12h-.59L10 10.39h.67a.12.12 0 0 0 .12-.12v-.76a.12.12 0 0 0-.12-.12H8.53a.12.12 0 0 0-.12.12v.77a.12.12 0 0 0 .12.12h.59L7.3 13.61h-.57a.12.12 0 0 0-.12.12v.77a.12.12 0 0 0 .12.12m4.89-4.23h.64l1.59 3.21h-.65a.12.12 0 0 0-.12.12v.77a.11.11 0 0 0 .12.12h2.12a.12.12 0 0 0 .12-.12v-.77a.12.12 0 0 0-.12-.12h-.59l1.15-2.35L17 13.61h-.63a.12.12 0 0 0-.12.12v.77a.12.12 0 0 0 .12.12h2.12a.11.11 0 0 0 .12-.12v-.77a.12.12 0 0 0-.12-.12h-.6l1.57-3.21h.62a.12.12 0 0 0 .12-.12v-.77a.12.12 0 0 0-.12-.12H18a.12.12 0 0 0-.12.12v.77a.12.12 0 0 0 .12.12h.64l-1.16 2.36-1.17-2.36h.62a.12.12 0 0 0 .12-.12v-.77a.12.12 0 0 0-.12-.12h-2.11a.12.12 0 0 0-.12.12v.77a.12.12 0 0 0 .12.12h.62l-1.14 2.34-1.16-2.34h.62a.12.12 0 0 0 .12-.12v-.77a.12.12 0 0 0-.12-.12h-2.14a.12.12 0 0 0-.12.12v.77a.12.12 0 0 0 .12.12m18.98 4.21h2.12a.11.11 0 0 0 .12-.12v-.77a.12.12 0 0 0-.12-.12H32v-2.3l2.46 2.3h-.55a.12.12 0 0 0-.12.12v.77a.11.11 0 0 0 .12.12h2.12a.11.11 0 0 0 .12-.12v-.77a.12.12 0 0 0-.12-.12h-.68v-3.21h.68a.12.12 0 0 0 .12-.12v-.76a.12.12 0 0 0-.12-.12h-2.09a.12.12 0 0 0-.12.12v.77a.12.12 0 0 0 .12.12h.67v2.26L32.2 10.4h.53a.12.12 0 0 0 .12-.12v-.77a.12.12 0 0 0-.12-.12H30.6a.12.12 0 0 0-.12.12v.77a.12.12 0 0 0 .12.12h.65v3.21h-.65a.12.12 0 0 0-.12.12v.77a.11.11 0 0 0 .12.12" fill="#007bc2"/></svg>