<svg width="38" height="24" viewBox="0 0 38 24" role="img" aria-labelledby="pi-laybuyheart" xmlns="http://www.w3.org/2000/svg"><title id="pi-laybuyheart">Laybuy</title><path fill="#000" opacity=".07" d="M35 0H3C1.3 0 0 1.3 0 3v18c0 1.7 1.4 3 3 3h32c1.7 0 3-1.3 3-3V3c0-1.7-1.4-3-3-3z"/><path fill="#fff" d="M35 1c1.1 0 2 .9 2 2v18c0 1.1-.9 2-2 2H3c-1.1 0-2-.9-2-2V3c0-1.1.9-2 2-2h32"/><g fill="none" fill-rule="evenodd"><path fill="#751DFF" d="M35 1c1.1 0 2 .9 2 2v18c0 1.1-.9 2-2 2H3c-1.1 0-2-.9-2-2V3c0-1.1.9-2 2-2h32"/><path d="m20.601 6.257-1.623 1.558c-.113.108-.275 0-.275 0l-2.075-2.03a1.774 1.774 0 0 0-2.428 0 1.604 1.604 0 0 0 0 2.33l3.44 3.31a1.772 1.772 0 0 0 2.428 0l2.886-2.77.506-.497a.905.905 0 0 1 .627-.25c.235 0 .46.09.627.25a.803.803 0 0 1 .256.59.804.804 0 0 1-.263.586l-.521.504-5.24 5.032a.22.22 0 0 1-.157.066.22.22 0 0 1-.158-.066L12.93 9.398a1.775 1.775 0 0 0-2.43 0 1.606 1.606 0 0 0 0 2.33l7.11 6.823-.038-.031c.672.64 1.757.64 2.429 0l6.619-6.352.07-.067c1.116-1.038 1.563-2.573 1.17-4.017-.395-1.443-1.57-2.57-3.073-2.949-1.504-.378-3.104.05-4.186 1.122Z" fill="#FFF" fill-rule="nonzero"/></g></svg>
