<svg viewBox="0 0 38 24" xmlns="http://www.w3.org/2000/svg" width="38" height="24" role="img" aria-labelledby="pi-laybuy"><title id="pi-laybuy">Lay-Buy Powered By PayPal</title><path opacity=".07" d="M35 0H3C1.3 0 0 1.3 0 3v18c0 1.7 1.4 3 3 3h32c1.7 0 3-1.3 3-3V3c0-1.7-1.4-3-3-3z"/><path fill="#FFF" d="M35 1c1.1 0 2 .9 2 2v18c0 1.1-.9 2-2 2H3c-1.1 0-2-.9-2-2V3c0-1.1.9-2 2-2h32"/><path fill="#FFF" d="M3 6h31v11H3z"/><path fill="#263B80" d="M33 18.5H5c-1.7 0-3-1.3-3-3v-7c0-1.7 1.3-3 3-3h28c1.7 0 3 1.3 3 3v7c0 1.7-1.3 3-3 3z"/><path d="M6.5 14.2h2.2v.8H5.4v-5h1v4.2zm5.6-.2h-1.8l-.3 1H8.9l1.9-5h1l1.9 5h-1.1l-.5-1zm-1.5-.9h1.2l-.6-1.9-.6 1.9zm4.6-.8l1-2.2h1.1l-1.6 3.2V15h-1v-1.8L13.1 10h1.1l1 2.3zm4 1h-1.9v-.8h1.9v.8zM20 15v-5h1.7c.6 0 1.1.1 1.4.3.3.2.5.6.5 1 0 .2-.1.5-.2.6-.1.2-.3.3-.5.4.3.1.5.2.6.4.1.2.2.4.2.7 0 .5-.2.8-.5 1.1s-.7.5-1.2.5h-2zm1-2.9h.8c.5 0 .8-.2.8-.6 0-.2-.1-.4-.2-.5-.1-.1-.3-.1-.6-.1H21v1.2zm0 .7v1.3h.9c.2 0 .4-.1.6-.2s.2-.3.2-.5c0-.5-.2-.7-.7-.7h-1zm7.3-2.8v3.3c0 .5-.2 1-.5 1.3-.3.3-.8.5-1.4.5-.6 0-1-.2-1.4-.5s-.5-.7-.5-1.3V10h1v3.3c0 .3.1.6.2.7.2.1.4.2.6.2.6 0 .9-.3.9-.9V10h1.1zm2.5 2.3l1-2.2H33l-1.6 3.2V15h-1v-1.8L28.7 10h1.1l1 2.3z" fill="#FFF"/></svg>