<svg xmlns="http://www.w3.org/2000/svg" viewBox="0 0 38 24" width="38" height="24" role="img" aria-labelledby="pi-leanpay"><title id="pi-leanpay">Leanpay</title><path d="M35 0H3C1.3 0 0 1.3 0 3v18c0 1.7 1.4 3 3 3h32c1.7 0 3-1.3 3-3V3c0-1.7-1.4-3-3-3z" opacity=".07"/><path d="M35 1c1.1 0 2 .9 2 2v18c0 1.1-.9 2-2 2H3c-1.1 0-2-.9-2-2V3c0-1.1.9-2 2-2h32" fill="#fff"/><path d="M4.91 10.89c.71-.11 1.28.41 1.36 1 .11.76-.36 1.31-.98 1.42-.71.14-1.31-.42-1.39-1.01-.1-.76.37-1.31 1-1.41zm1.62 2.63s.35.47.68.13c.3-.31-.12-2.1-.38-2.53-.52-.87-1.72-1.39-2.85-.63-.83.55-1.2 1.98-.37 2.88.3.32.72.67 1.38.7.91.05 1.26-.43 1.54-.55zm1.33 0c.14.12.37.13.51 0 .32-.3-.07-2.18-.21-2.61-.2-.61-.54-1.85-1.3-1.65-.08.22.06.38.14.58.23.55.41 1.13.53 1.73.08.41.16.88.19 1.3.02.27-.04.49.14.65z" fill="#fff"/><path d="M11 14.72c.21 0 .38-.17.37-.38V9.37c0-.21-.19-.37-.39-.36-.2 0-.35.17-.36.36v4.97c0 .21.16.38.37.38zm2.75-3.84c-1.06 0-1.92.86-1.92 1.92s.86 1.91 1.92 1.92c.28 0 .67 0 1.17-.33.18-.11.27-.31.18-.5-.09-.18-.33-.29-.5-.18-.25.17-.55.26-.85.25-.5 0-.94-.32-1.1-.79h2.63c.21 0 .38-.16.38-.37 0-1.24-.99-1.92-1.91-1.92zm0 .75c.46 0 .95.24 1.11.78h-2.2c.16-.47.6-.78 1.1-.78zm4.31-.74c-1.06 0-1.92.85-1.93 1.91v.03c0 1.08.85 1.88 1.93 1.88.43 0 .8-.11 1.13-.38 0 .22.21.38.37.38.2 0 .37-.15.38-.36v-1.53c0-1.08-.8-1.93-1.88-1.93zm0 3.06c-.64 0-1.18-.49-1.18-1.13 0-.65.53-1.17 1.18-1.18.64 0 1.13.54 1.13 1.18s-.49 1.13-1.13 1.13zm4.25-3.07c-1.06 0-1.91.86-1.91 1.92v1.53c0 .21.15.39.36.39s.39-.15.39-.36V12.8a1.161 1.161 0 012.32-.04v1.57c0 .21.15.39.36.39s.39-.15.39-.36V12.8c0-1.06-.86-1.91-1.92-1.92zm4.29 3.86a1.92 1.92 0 10-1.92-1.92v3.43c0 .21.19.37.39.36.2 0 .35-.17.36-.36v-1.9c.33.25.74.39 1.16.39zm0-3.08a1.16 1.16 0 11-1.16 1.17c0-.65.52-1.17 1.16-1.17zm4.29-.77c-1.06 0-1.92.85-1.93 1.91v.02c0 1.08.85 1.88 1.93 1.88.43 0 .8-.11 1.13-.38 0 .22.21.38.37.38.2 0 .37-.15.38-.36v-1.53c0-1.08-.8-1.93-1.88-1.93zm0 3.06c-.64 0-1.18-.49-1.18-1.13 0-.65.53-1.17 1.18-1.18.64 0 1.13.54 1.13 1.18s-.49 1.13-1.13 1.13zm5.03-3.04a.37.37 0 00-.37.37v1.89c0 .43-.35.79-.79.79-.43 0-.79-.35-.79-.79v-1.89c0-.21-.16-.38-.36-.39-.21 0-.38.16-.39.36v1.93c0 .84.69 1.52 1.53 1.52.28 0 .55-.07.79-.21v.55c0 .45-.37.82-.82.82-.31 0-.6-.18-.74-.46-.09-.18-.31-.26-.49-.18-.19.09-.27.31-.18.5.38.78 1.32 1.11 2.11.73.54-.26.88-.81.88-1.41v-3.76c0-.21-.17-.38-.38-.37z"/><g id="pi-Page-1"><path id="pi-Fill-1" d="M8.34 10.64l-.53-1.49-.12-.12-.1-.05-.93-.42-.88-.49-.74.02-.32.05s-.03 0-.04.01l-.53.32-1.14.32-.53.67-.72 2.14.44 1.47.59.95 1.64.47.14-.02.19.22.06.03v.03l-.17.96v.04l.02.03h.03l1.14.01.03-.02v-.07l-.21-.95v-.02l.16-.41.3-.04 1.01-.03.81-.59.68-2.4-.25-.61z" fill="#ff5075"/></g><g id="pi-Mask"><path id="pi-path-2" fill="#ab1e38" d="M4.52 14.44l.24.28.01.03.01.03-.17.96v.04l.01.03.03.01h1.19l.02-.02.01-.04v-.04l-.22-.95v-.04l.21-.52-1.34.23z"/></g><path d="M8.7 10.99l-.27-.4-.22-.74-.3-.72-.02-.03-.13-.15-.03-.02-.11-.06-.93-.39-.9-.5-.03-.02h-.77L4.74 8l-.11.03h-.02l-.09.06-.42.28-1.12.27-.09.04-.55.61-.02.02v.02l-.7 2.13s-.05.08-.06.09 0 .01-.01.02c-.01.02-.02.04-.01.07v.02l.4 1.25v.02l.65 1.08.02.04h.04l1.66.5h.26l1.51-.22H7l.11-.02h.03l.1-.05h.02l.71-.51.44-1.27.28-1.41v-.05l-.02-.04zm-2.63 3.06l-1.55-.3-.47-.61s.01-.02.02-.03l2.97.2-.96.74zM2.22 12.8l.45-1.59 1 1.62s-.02.02-.03.04l-1.42-.07zm4.55-3.09s-.03.02-.04.03l-1.41-.6.44-.92.83.46.19 1.03zm-3.97 1.4l1.72-.23s.03.04.05.06l-.74 1.81H3.8l-1.01-1.64zm2.46-1.82l1.37.59v.05l-1.7.68-.03-.03.38-1.29zm-1.25 3.5l.73-1.8c.05 0 .1-.02.14-.05l1.41.76v.06l-2.28 1.03zm2.49-1.28s-.08.02-.12.05l-1.42-.77v-.02l1.71-.68s.05.05.09.07l-.26 1.36zm-2.41 1.43l2.26-1.02s.1.07.17.07h.04l.59 1.18-3.06-.21zm2.65-1.29s-.05-.07-.09-.1l.27-1.39.82 1.47-1.01.02zm-2.01-1.14s-.06 0-.08.02L3.18 8.85l.37-.11.63-.15.94.62-.38 1.3zm-.21.13s-.02.05-.02.08l-1.73.23.28-2 1.48 1.69zm-.76 2.56s.06.02.09.02h.04l.42.54-1.3.08.75-.64zm2.95-1.31s.03-.05.04-.08l1.02-.02-.5 1.22-.56-1.13zm1.21-.32L7.1 10.1l1.12.58v.02l.26.35-.56.51zM7.6 9.12l.11.12.29.68.15.53-1.06-.55c0-.09-.07-.17-.15-.2l-.17-.95.75.32.08.05zm-2.96-.83l.08-.04.08-.02.23-.03h.56l-.41.85-.84-.56.3-.2zm-2.1 1.13l.32-.36-.27 1.93-.7.42.64-1.99zm-.74 2.24l.77-.46-.43 1.52-.33-1.05zm.45 1.31l1.38.07s0 .03.01.04l-.88.75-.52-.87zm2.31 1.36h-.18l-1.15-.34 1.24-.08h.04l1.25.24-1.21.17zm2.61-.26l-.07.03h-.09l-.75.01 1.02-.79.63.04-.08.23-.65.47zm1.06-1.64l-.17.51-.09.26-.57-.04.58-1.41.48-.43-.22 1.12z" fill="#fff"/><path d="M8.7 10.99l-.27-.4-.22-.74-.3-.72-.02-.03-.13-.15-.03-.02-.11-.06-.93-.39-.9-.5-.03-.02h-.77L4.74 8l-.11.03h-.02l-.09.06-.42.28-1.12.27-.09.04-.55.61-.02.02v.02l-.7 2.13s-.05.08-.06.09 0 .01-.01.02c-.01.02-.02.04-.01.07v.02l.4 1.25v.02l.65 1.08.02.04h.04l1.66.5h.26l1.51-.22H7l.11-.02h.03l.1-.05h.02l.71-.51.44-1.27.28-1.41v-.05l-.02-.04zm-2.63 3.06l-1.55-.3-.47-.61s.01-.02.02-.03l2.97.2-.96.74zM2.22 12.8l.45-1.59 1 1.62s-.02.02-.03.04l-1.42-.07zm4.55-3.09s-.03.02-.04.03l-1.41-.6.44-.92.83.46.19 1.03zm-3.97 1.4l1.72-.23s.03.04.05.06l-.74 1.81H3.8l-1.01-1.64zm2.46-1.82l1.37.59v.05l-1.7.68-.03-.03.38-1.29zm-1.25 3.5l.73-1.8c.05 0 .1-.02.14-.05l1.41.76v.06l-2.28 1.03zm2.49-1.28s-.08.02-.12.05l-1.42-.77v-.02l1.71-.68s.05.05.09.07l-.26 1.36zm-2.41 1.43l2.26-1.02s.1.07.17.07h.04l.59 1.18-3.06-.21zm2.65-1.29s-.05-.07-.09-.1l.27-1.39.82 1.47-1.01.02zm-2.01-1.14s-.06 0-.08.02L3.18 8.85l.37-.11.63-.15.94.62-.38 1.3zm-.21.13s-.02.05-.02.08l-1.73.23.28-2 1.48 1.69zm-.76 2.56s.06.02.09.02h.04l.42.54-1.3.08.75-.64zm2.95-1.31s.03-.05.04-.08l1.02-.02-.5 1.22-.56-1.13zm1.21-.32L7.1 10.1l1.12.58v.02l.26.35-.56.51zM7.6 9.12l.11.12.29.68.15.53-1.06-.55c0-.09-.07-.17-.15-.2l-.17-.95.75.32.08.05zm-2.96-.83l.08-.04.08-.02.23-.03h.56l-.41.85-.84-.56.3-.2zm-2.1 1.13l.32-.36-.27 1.93-.7.42.64-1.99zm-.74 2.24l.77-.46-.43 1.52-.33-1.05zm.45 1.31l1.38.07s0 .03.01.04l-.88.75-.52-.87zm2.31 1.36h-.18l-1.15-.34 1.24-.08h.04l1.25.24-1.21.17zm2.61-.26l-.07.03h-.09l-.75.01 1.02-.79.63.04-.08.23-.65.47zm1.06-1.64l-.17.51-.09.26-.57-.04.58-1.41.48-.43-.22 1.12z" fill="#fff"/><path fill="#8f192c" d="M5.79 14.38l-.14.35v.02l-.95-.21 1.09-.16z"/></svg>