<svg xmlns="http://www.w3.org/2000/svg" role="img" viewBox="0 0 38 24" width="38" height="24" aria-labelledby="pi-ledyer"><title id="pi-ledyer">Ledyer</title><path fill="#000" opacity=".07" d="M35 0H3C1.3 0 0 1.3 0 3v18c0 1.7 1.4 3 3 3h32c1.7 0 3-1.3 3-3V3c0-1.7-1.4-3-3-3z"/><path fill="#18191f" d="M35 1c1.1 0 2 .9 2 2v18c0 1.1-.9 2-2 2H3c-1.1 0-2-.9-2-2V3c0-1.1.9-2 2-2h32"/><path d="M3 15.123V8.148h1.58v5.491h3.052v1.484H3zm10.096-1.41a1.88 1.88 0 01-.283.599 1.967 1.967 0 01-.482.5c-.2.147-.416.254-.674.336-.258.082-.54.123-.857.123a2.67 2.67 0 01-.98-.18 2.461 2.461 0 01-.832-.509 2.238 2.238 0 01-.566-.82 3.014 3.014 0 01-.191-1.098c0-.393.066-.746.208-1.066.133-.32.316-.59.54-.811a2.435 2.435 0 011.722-.697c.773 0 1.38.222 1.82.656.442.443.666 1.057.666 1.852 0 .107 0 .205-.008.304-.008.098-.017.147-.017.164h-3.46a.83.83 0 00.109.377c.066.106.15.205.25.295a1.195 1.195 0 00.773.262c.282 0 .499-.057.657-.18a.989.989 0 00.34-.46l1.265.353zm-1.373-1.623a.952.952 0 00-.066-.287.61.61 0 00-.175-.262.896.896 0 00-.307-.197 1.23 1.23 0 00-.458-.082.94.94 0 00-.415.082 1.106 1.106 0 00-.3.197.82.82 0 00-.266.55h1.987zm7.327 2.156a9.694 9.694 0 00.041.877h-1.455a3.14 3.14 0 01-.042-.475 1.23 1.23 0 01-.523.418 1.94 1.94 0 01-.807.163c-.35 0-.682-.065-.981-.188a2.442 2.442 0 01-.782-.533c-.216-.23-.39-.5-.516-.811a2.995 2.995 0 01-.174-1.033c0-.36.058-.697.183-1.008.124-.312.283-.582.499-.812.216-.23.465-.41.756-.532.291-.132.616-.189.965-.189a2.123 2.123 0 01.939.189c.109.049.192.106.259.163.066.058.108.115.141.156V8h1.497v6.246zm-3.717-1.574c0 .205.033.377.091.533.058.147.142.279.241.377.1.098.225.18.358.23.133.049.274.082.424.082.15 0 .291-.025.424-.082.133-.05.258-.132.358-.23.1-.098.183-.23.24-.377.06-.148.092-.328.092-.533a1.49 1.49 0 00-.091-.533 1.097 1.097 0 00-.241-.377c-.1-.098-.225-.18-.358-.23a1.213 1.213 0 00-.424-.073c-.15 0-.291.025-.424.074a.92.92 0 00-.358.23 1.07 1.07 0 00-.24.376 1.49 1.49 0 00-.092.533zM20.763 17l1.131-2.541-2.087-4.23h1.696l1.206 2.615 1.098-2.614h1.605L22.36 17h-1.597zm4.499-2.828l-.433.943h5.414v-.943h-4.981zm.915-2l-.433.943h4.5v-.943h-4.067zm.881-1.934l-.432.95h3.617v-.95h-3.185zm5.972 4.885h-1.514V10.23h1.513v4.893zm.007-4.008c0-.14.025-.263.075-.386a.959.959 0 01.898-.59.96.96 0 01.99.976.926.926 0 01-.283.68.912.912 0 01-.316.205c-.125.05-.25.074-.39.074a.929.929 0 01-.7-.279.895.895 0 01-.274-.68z" fill="#fff"/></svg>