<svg width="38" height="24" viewBox="0 0 38 24" fill="none" role="img" aria-labelledby="pi-leescadeaukaart" version="1.1" xmlns="http://www.w3.org/2000/svg"><title id="pi-leescadeaukaart">Lees! Cadeaukaart</title><path opacity=".07" d="M35 0H3C1.3 0 0 1.3 0 3v18c0 1.7 1.4 3 3 3h32c1.7 0 3-1.3 3-3V3c0-1.7-1.4-3-3-3z" fill="#000"/><path d="M35 1c1.1 0 2 .9 2 2v18c0 1.1-.9 2-2 2H3c-1.1 0-2-.9-2-2V3c0-1.1.9-2 2-2h32z" fill="#1d2445" fill-opacity="1"/><g stroke-width="1.001"><path d="M30.443 12.875c0 1.518-1.179 2.157-3.026 2.157-1.019 0-2.087-.08-3.106-.19v-2.426h.64c0 1.018.988 2.277 2.466 2.277.719 0 1.398-.57 1.398-1.289 0-1.777-4.394-1.138-4.394-3.634 0-1.248 1.019-1.927 2.806-1.927.909 0 1.558.08 2.686.19v2.386h-.639c0-1.019-.569-2.277-2.047-2.277-.38 0-1.138.23-1.138.989 0 1.438 4.354 1.328 4.354 3.754zM18.29 11.437c0 .27 0 .53.04.8.46-.76 2.956-1.1 2.956-2.617 0-.759-.42-1.438-1.178-1.438-1.139 0-1.818 1.288-1.818 3.255zm4.923.31c.08.23.11.46.08.679 0 1.628-1.558 2.616-3.485 2.616-2.117 0-3.675-1.558-3.675-3.565 0-2.117 1.558-3.564 3.935-3.564 1.517 0 3.025.758 3.025 2.196 0 2.766-4.923 1.139-4.693 2.996.19.949.64 1.518 1.368 1.667 1.099.11 1.738-1.208 1.478-2.306l1.967-.72zm-13.07-.31c0 .27 0 .53.04.8.458-.76 2.955-1.1 2.955-2.617 0-.759-.42-1.438-1.178-1.438-1.179 0-1.818 1.288-1.818 3.255zm4.892.31c.08.23.11.46.08.679 0 1.628-1.558 2.616-3.485 2.616-2.117 0-3.675-1.558-3.675-3.565 0-2.117 1.558-3.564 3.935-3.564 1.517 0 3.025.758 3.025 2.196 0 2.766-4.923 1.139-4.693 2.996.19.949.64 1.518 1.368 1.667 1.098.15 1.738-1.208 1.478-2.306l1.967-.72zm-8.068 2.416c0 .27.27.53.53.53v.34H4.96V5.186c0-.27-.27-.53-.53-.53v-.34h2.537zm24.015-9.536c.27 0 .529.27.529.53v6.82h2.007v-7.65h-2.536v.3zm.489 8.368h2.047v2.047h-2.047z" fill="#fff"/><g stroke-width="1.001"><path fill="#ef7973" d="M4.96 16.02h28.598v3.755H4.96z"/><path d="M6.657 18.976c-.11.11-.23.15-.42.15-.229 0-.379-.08-.458-.19-.15-.19-.19-.459-.19-1.018s0-.829.19-1.019c.11-.11.23-.19.459-.19.19 0 .3.04.42.15.11.11.189.3.189.49h-.38c0-.08 0-.19-.08-.23-.04-.04-.08-.08-.189-.08s-.15.04-.19.08c-.08.11-.08.34-.08.799s0 .679.08.799c.04.04.08.08.19.08s.15-.04.19-.08c.08-.08.08-.15.08-.23h.379c0 .19-.08.38-.19.49m2.127-1.708l-.19 1.018h.42zm.38 1.857l-.11-.49h-.57l-.11.49h-.419l.61-2.426h.379l.57 2.426h-.34zm2.496-1.967c-.04-.08-.11-.11-.19-.11h-.23v1.738h.23c.08 0 .15-.04.19-.11.08-.11.08-.34.08-.76s0-.638-.08-.758m.27 1.747c-.11.11-.23.19-.46.19h-.609V16.67h.61c.229 0 .379.08.459.19.15.19.19.459.19.988 0 .61-.04.909-.19 1.058m2.606-1.856h-.64v.678h.53v.34h-.53v.719h.64v.34h-1.019V16.71h1.019zm1.977.219l-.19 1.018h.38zm.37 1.857l-.11-.49h-.57l-.11.49h-.419l.61-2.426h.379l.569 2.426h-.34zm2.735-.15a.647.647 0 01-.918 0c-.12-.11-.15-.27-.15-.459V16.7h.38v1.817c0 .19.11.27.229.27.12 0 .23-.08.23-.27V16.7h.38v1.817c0 .19-.04.34-.15.46m1.966.149h-.379V16.71h.38v1.128l.529-1.128h.38l-.46.978.529 1.438h-.37l-.419-1.018-.19.38zm2.876-1.857l-.19 1.018h.42zm.38 1.857l-.11-.49h-.57l-.08.49h-.419l.61-2.426h.379l.57 2.426zm2.306-1.857l-.19 1.018h.42zm.38 1.857l-.11-.49h-.57l-.08.49h-.419l.61-2.426h.38l.568 2.426zm2.316-2.076h-.27v.718h.23c.19 0 .23-.15.23-.38.04-.19 0-.339-.19-.339m.26 2.077l-.3-.988h-.23v.988h-.379V16.7h.61c.459 0 .609.23.609.719 0 .3-.08.489-.27.639l.34 1.058h-.38zm1.977-2.076h-.38v-.34h1.169v.34h-.42v2.076h-.369z" fill="#fff"/></g></g></svg>