<svg version="1.1" xmlns="http://www.w3.org/2000/svg" width="38" height="24" role="img" aria-labelledby="pi-line_pay" viewBox="0 0 38 24"><title id="pi-line_pay">LINE Pay</title><path opacity=".07" d="M35 0H3C1.3 0 0 1.3 0 3v18c0 1.7 1.4 3 3 3h32c1.7 0 3-1.3 3-3V3c0-1.7-1.4-3-3-3z" fill="#000"/><path d="M35 1c1.1 0 2 .9 2 2v18c0 1.1-.9 2-2 2H3c-1.1 0-2-.9-2-2V3c0-1.1.9-2 2-2h32z" fill="#fff"/><path fill-rule="evenodd" clip-rule="evenodd" d="M8.274 9.098h-.843c-.13 0-.234.097-.234.215v4.816c0 .119.105.215.234.215h.843c.13 0 .234-.096.234-.215V9.313c0-.118-.105-.215-.234-.215zM6.447 13.14H4.262V9.313a.22.22 0 00-.226-.215h-.81A.22.22 0 003 9.313v4.816a.22.22 0 00.226.215h3.22a.22.22 0 00.226-.215v-.774a.22.22 0 00-.225-.215zm11.54-2.838a.22.22 0 00.226-.215v-.774a.22.22 0 00-.226-.215h-3.22a.22.22 0 00-.226.215v4.816a.22.22 0 00.226.215h3.22a.22.22 0 00.226-.215v-.774a.22.22 0 00-.226-.215h-2.185v-.817h2.185a.22.22 0 00.226-.215v-.774a.22.22 0 00-.226-.215h-2.185v-.817h2.185zM13.529 9.1h-.813a.22.22 0 00-.226.215V12.1l-2.128-2.895c-.06-.082-.15-.106-.25-.106-.013-.002-.026 0-.039 0H9.26a.22.22 0 00-.226.215v4.815a.22.22 0 00.226.215h.813a.22.22 0 00.226-.215v-2.91l2.219 3.02c.008.01.016.02.026.03a.23.23 0 00.156.075h.83a.22.22 0 00.225-.215V9.314a.22.22 0 00-.226-.215" fill="#000"/><path fill-rule="evenodd" clip-rule="evenodd" d="M34.456 16.443H20.593a.543.543 0 01-.544-.548V7.547A.546.546 0 0120.593 7h13.863a.546.546 0 01.544.547v8.348a.543.543 0 01-.544.548z" fill="#00C34D"/><path fill-rule="evenodd" clip-rule="evenodd" d="M24.57 10.89c0-.325-.222-.574-.525-.574h-.648v1.147h.648c.303 0 .525-.249.525-.573zm.987 0c0 .847-.66 1.528-1.512 1.528h-.648v1.252a.149.149 0 01-.145.15h-.697a.148.148 0 01-.145-.15V9.51c0-.082.065-.15.145-.15h1.49c.852 0 1.512.682 1.512 1.53zm2.722.962c0-.484-.317-.787-.754-.787-.438 0-.755.303-.755.787 0 .485.317.788.755.788.437 0 .754-.303.754-.788zm.95-1.534v3.069a.08.08 0 01-.022.056.08.08 0 01-.056.024h-.794a.08.08 0 01-.078-.08v-.224c-.21.246-.52.394-.945.394-.83 0-1.514-.742-1.514-1.705 0-.962.684-1.704 1.514-1.704.425 0 .736.148.945.393v-.223a.08.08 0 01.078-.08h.794a.08.08 0 01.079.08h-.001zm2.952-.088l-.71 1.846-.735-1.847a.128.128 0 00-.118-.081h-.787a.079.079 0 00-.064.035.078.078 0 00-.007.073l1.225 3.082-.446 1.16c-.02.052.017.109.07.109h.789a.127.127 0 00.118-.083l1.642-4.268c.02-.052-.017-.108-.07-.108h-.789a.126.126 0 00-.118.082" fill="#fff"/></svg>