<svg role="img" width="38" height="24" viewBox="0 0 38 24" aria-labelledby="pi-linkaja" xmlns="http://www.w3.org/2000/svg"><title id="pi-linkaja">LinkAja</title><path d="M35 0H3a3 3 0 00-3 3v18a3 3 0 003 3h32a3 3 0 003-3V3a3 3 0 00-3-3z" opacity=".07" style="isolation:isolate"/><path d="M35 1a2 2 0 012 2v18a2 2 0 01-2 2H3a2 2 0 01-2-2V3a2 2 0 012-2h32" fill="#fff"/><path fill-rule="evenodd" clip-rule="evenodd" d="M11.774 4.434h1.131c.087 0 .153.076.14.162L12.52 8.24c-.02.14.089.266.23.266h1.985c.057 0 .1.05.092.106l-.154 1.047a.11.11 0 01-.11.095h-2.245c-.667 0-1.307-.548-1.213-1.209l.528-3.99c.01-.07.07-.122.14-.122zM15.547 5.889l-.518 3.718a.098.098 0 00.098.111h1.095a.156.156 0 00.154-.134l.513-3.658a.14.14 0 00-.14-.159h-1.062a.14.14 0 00-.14.122zM17.806 9.433c-.338-.012-.496.094-.695.213.048-.335.425-2.948.46-3.108.036-.171.069-.457.22-.6.176-.17.449-.266 1.807-.27 1.386-.005 1.654.992 1.58 1.64a91.95 91.95 0 01-.326 2.31.119.119 0 01-.118.1h-1.07a.129.129 0 01-.128-.147c.054-.383.2-1.404.248-1.7.061-.367.11-.77.013-.93-.098-.159-.392-.28-.954-.183L18.427 9.7s-.268-.254-.621-.267zM22.34 4.223h1.188c.044 0 .078.04.072.083l-.739 5.354a.08.08 0 01-.08.07H21.61a.08.08 0 01-.08-.092l.74-5.352a.073.073 0 01.071-.063zM23.26 7.449l1.342-1.572a.223.223 0 01.169-.078h1.178c.085 0 .13.1.073.164L24.65 7.486l1.255 2.698a.15.15 0 01-.136.213h-1.065a.142.142 0 01-.13-.083L23.26 7.449zM17.118 4.76c-.096.406-.46.707-.842.707a.582.582 0 01-.58-.733c.097-.406.413-.734.866-.734.382 0 .652.355.556.76zM18.326 10.666c-.096.405-.46.707-.843.707a.582.582 0 01-.579-.733c.097-.406.413-.734.866-.734.382 0 .652.355.556.76zM24.072 15.507a.883.883 0 01-.852.698c-.401 0-.726-.325-.644-.725.08-.4.397-.725.873-.724.402 0 .703.351.622.751zM13.961 13.514h-.719a.038.038 0 01-.035-.052l.626-1.589c.012-.03.056-.023.06.009l.14 1.553a.072.072 0 01-.072.079zm1.742 1.994l-.802-4.803a.436.436 0 00-.43-.364h-.805a.626.626 0 00-.57.367l-2.162 4.806c-.031.07.02.149.097.148l1.123-.006a.192.192 0 00.176-.117l.373-.879a.064.064 0 01.06-.04h1.359c.033 0 .061.026.064.06l.082.83c.009.097.09.17.188.17h1.101a.148.148 0 00.146-.172z" fill="#EA222A"/><path fill-rule="evenodd" clip-rule="evenodd" d="M15.167 16.378l.26.802c.046.131.081.16.173.141.327-.069 1.119-.303 1.506-.827.505-.683.574-1.89.664-2.505.073-.505.234-1.75.288-2.173a.127.127 0 00-.126-.143h-1.007a.178.178 0 00-.176.154 269.89 269.89 0 01-.425 3.044c-.06.346-.071.845-.584 1.143-.256.149-.387.177-.488.225-.052.024-.11.05-.085.14zM20.709 14.528s-.525.179-.777-.01c-.252-.19-.273-.578-.127-1.135.148-.556.515-.65.673-.661.157-.01.453.064.453.064l-.222 1.742zm1.454-2.711c-.34-.085-.91-.272-1.829-.205-.846.062-1.802.454-1.981 2.125-.18 1.672.585 1.994 1.683 2.042a3.99 3.99 0 001.717-.308.302.302 0 00.18-.237l.405-3.218c.016-.127-.048-.168-.175-.2zM22.945 14.222l.296-3.08c.01-.111.103-.156.214-.156h1.02c.094 0 .134.072.108.19l-.622 3.085a.129.129 0 01-.126.103h-.762a.129.129 0 01-.128-.142zM11.017 19.904a.926.926 0 00.662.091c.894-.212 2.872-.782 7.057-1.387 5.257-.76 9.139-.757 9.139-.757l.01-.006s-3.44-.473-9.087.079C13.152 18.475 10 19.342 10 19.342l1.017.562z" fill="#EA222A"/></svg>