<svg xmlns="http://www.w3.org/2000/svg" role="img" viewBox="0 0 38 24" width="38" height="24" aria-labelledby="pi-linkpay"><title id="pi-linkpay">LinkPay</title><path fill="#000" opacity=".07" d="M35,0H3C1.3,0,0,1.3,0,3V21c0,1.7,1.4,3,3,3H35c1.7,0,3-1.3,3-3V3c0-1.7-1.4-3-3-3Z"/><path fill="#fff" d="M35 1c1.1 0 2 .9 2 2v18c0 1.1-.9 2-2 2H3c-1.1 0-2-.9-2-2V3c0-1.1.9-2 2-2h32"/><path d="M10.9 14.2V9.9c0-.9.7-1.6 1.6-1.6s1.6.7 1.6 1.6v4.3c0 1.5 1.2 2.8 2.8 2.8 1.5 0 2.8-1.2 2.8-2.8V9.7c0-.9.7-1.6 1.6-1.6s1.5.7 1.5 1.6v4.5c0 1.6-.6 3.1-1.7 4.2s-2.6 1.7-4.2 1.7-3.1-.6-4.2-1.7c-1.1-1.2-1.8-2.7-1.8-4.2z"/><circle cx="12.5" cy="5.5" r="1.6"/><circle cx="25.5" cy="18.5" r="1.6"/><path d="M27.1 9.8v4.3c0 .9-.7 1.6-1.6 1.6s-1.6-.7-1.6-1.6V9.8c0-1.5-1.2-2.8-2.8-2.8-1.5 0-2.8 1.2-2.8 2.8v4.5c0 .9-.7 1.6-1.6 1.6s-1.6-.7-1.6-1.6V9.8c0-1.6.6-3.1 1.7-4.2s2.6-1.7 4.2-1.7 3.1.6 4.2 1.7c1.2 1.2 1.9 2.7 1.9 4.2z"/></svg>