<svg xmlns="http://www.w3.org/2000/svg" role="img" viewBox="0 0 38 24" width="38" height="24" aria-labelledby="pi-lku"><title id="pi-lku">LKU</title><path d="M35 0H3C1.3 0 0 1.3 0 3v18c0 1.7 1.4 3 3 3h32c1.7 0 3-1.3 3-3V3c0-1.7-1.4-3-3-3z" fill-opacity=".07" fill-rule="nonzero"/><path d="M35 1c1.1 0 2 .9 2 2v18c0 1.1-.9 2-2 2H3c-1.1 0-2-.9-2-2V3c0-1.1.9-2 2-2h32" fill="#fff" fill-rule="nonzero"/><clipPath id="pi-lku_clip1"><path d="M35 1c1.1 0 2 .9 2 2v18c0 1.1-.9 2-2 2H3c-1.1 0-2-.9-2-2V3c0-1.1.9-2 2-2h32" clip-rule="nonzero"/></clipPath><g clip-path="url(#pi-lku_clip1)"><g transform="matrix(.0086 0 0 .0086 18.07 11.793)"><g id="pi-lku-Lager_2"><path d="M0 43.384a1.568 1.568 0 01-1.566-1.561V1.563A1.57 1.57 0 010 0h6.059c.859 0 1.562.704 1.562 1.563v32.662a1.57 1.57 0 001.565 1.562h14.447a1.57 1.57 0 011.564 1.565v4.471c0 .859-.703 1.561-1.564 1.561H0z" fill="#5f5f5d" fill-rule="nonzero" transform="matrix(12 0 0 12 111.235 -239.869)"/><path d="M0 40.737c.457.728.129 1.323-.732 1.323h-7.303c-.86 0-1.936-.598-2.389-1.329l-9.701-15.62a1.45 1.45 0 00-2.098-.417l-1.342 1.016c-.714.498-1.269 1.564-1.269 2.425v12.364c0 .859-.703 1.561-1.564 1.561h-6.059a1.567 1.567 0 01-1.565-1.561V.239c0-.859.704-1.562 1.565-1.562h6.059c.861 0 1.564.703 1.564 1.562v16.725c0 .859.406.99.904.29l1.807-2.55a70.344 70.344 0 011.879-2.502l9.789-12.303c.535-.673 1.678-1.222 2.539-1.222H-.85c.86 0 1.129.551.596 1.228l-13.18 16.743c-.533.675-.591 1.823-.134 2.553L0 40.737z" fill="#5f5f5d" fill-rule="nonzero" transform="matrix(12 0 0 12 903.47 -223.984)"/><path d="M0-43.977a1.57 1.57 0 011.565 1.562v24.947c0 .859-.083 2.262-.186 3.117 0 0-.531 4.462-1.963 6.874-1.434 2.415-3.502 4.261-6.209 5.549C-9.5-.643-12.701 0-16.396 0c-5.573 0-9.899-1.426-12.981-4.288C-32.459-7.145-34-11.058-34-16.024v-26.391c0-.859.703-1.562 1.565-1.562h6.029c.859 0 1.562.703 1.562 1.562v23.433c0 .861.082 2.263.182 3.119 0 0 .49 4.243 1.836 5.805 1.342 1.561 3.564 2.342 6.666 2.342 3.004 0 5.183-.786 6.537-2.358 1.354-1.573 2.031-4.038 2.031-7.403v-24.938c0-.859.701-1.562 1.565-1.562H0z" fill="#5f5f5d" fill-rule="nonzero" transform="matrix(12 0 0 12 1389.23 287.859)"/><path d="M0 9.759c-1.043.568-1.049 1.507-.013 2.088l16.457 9.221c1.035.582 2.738.593 3.781.027L59.172-.04c1.043-.567 1.047-1.503.009-2.079l-16.597-9.216c-1.042-.567-2.749-.567-3.793 0L0 9.759z" fill="#9ac328" transform="matrix(12 0 0 12 -1143.52 -413.247)"/><path d="M0-31.57c-1.04-.571-1.897-.069-1.902 1.119l-.084 18.052c-.005 1.186.839 2.631 1.879 3.207L16.422-.014c1.038.578 2.741.585 3.785.017L36.88-9.054c1.043-.568 1.048-1.505.011-2.08L0-31.57z" fill="#9ac328" transform="matrix(12 0 0 12 -1168.18 437.276)"/><path d="M0 30.473c1.041.57 2.746.574 3.791.008l18.506-10.055c1.043-.567 1.902-2.004 1.908-3.19l.078-16.11c.006-1.188-.844-1.7-1.892-1.138L-14.79 20.241c-1.041.57-1.042 1.508-.003 2.084L0 30.473z" fill="#9ac328" transform="matrix(12 0 0 12 -414.69 -230.705)"/><path d="M0 31.4c1.037.579 2.737.583 3.778.012l38.913-21.215c1.047-.563 1.053-1.492.015-2.069L28.05-.003c-1.038-.577-2.74-.58-3.782-.01l-38.909 21.15c-1.044.565-1.05 1.502-.014 2.082L0 31.4z" fill="#9ac328" transform="matrix(12 0 0 12 -681.257 -389.146)"/><path d="M0 26.968c1.045-.565 1.05-1.502.012-2.079L-58.985-7.986c-1.035-.583-1.888-.087-1.894 1.1l-.079 16.158c-.005 1.187.841 2.628 1.882 3.199l40.547 22.479c1.037.579 2.741.587 3.785.02L0 26.968z" fill="#9ac328" transform="matrix(12 0 0 12 -459.105 -139.65)"/><path d="M0 21.961c-1.043.569-1.047 1.504-.009 2.079l16.579 9.194c1.04.577 2.742.583 3.785.014l40.992-22.329c1.042-.569 1.888-2.005 1.882-3.191l-.115-17.889c-.008-1.188-.867-1.695-1.912-1.128L0 21.961z" fill="#9ac328" transform="matrix(12 0 0 12 -881.741 198.32)"/></g></g></g></svg>
