<svg width="38" height="24" viewBox="0 0 38 24" fill="none" xmlns="http://www.w3.org/2000/svg" role="img" aria-labelledby="pi-lloyds"><title id="pi-lloyds">Lloyds</title><g clip-path="url(#clip0_39_8)"><path opacity=".07" d="M35 0H3C1.3 0 0 1.3 0 3v18c0 1.7 1.4 3 3 3h32c1.7 0 3-1.3 3-3V3c0-1.7-1.4-3-3-3z" fill="#000"/><path d="M35 1c1.1 0 2 .9 2 2v18c0 1.1-.9 2-2 2H3c-1.1 0-2-.9-2-2V3c0-1.1.9-2 2-2h32z" fill="#fff"/><g clip-path="url(#clip1_39_8)"><path d="M26.614 11.978c.322.245.666.411.666.8 0 .11-.144.232-.455.232-.244 0-.499-.066-.62-.244-.1-.133.044-.31-.045-.444-.067-.11-.21-.055-.31-.11-.112-.067-.134-.111-.212-.29-.088-.199-.388-.532-.732-.887-.299-.3-.61-.455-.754-.444-.1.011-.133.011-.222.011-.255 0-.465.245-.831.4-.256.11-.4.166-.555.2l-.055.066.321-.01c.31 0 .71-.045 1.02-.045.311 0 .467.288.6.588.244.6.599 1.476 1.031 2.208.21.344.388.555.388.988 0 .133-.01.31-.188.31-.244 0-.854-.255-.854-.532 0-.211.166-.3.166-.51 0-.134-.2-.112-.244-.234-.155-.643-.344-1.287-.699-1.675-.188-.2-.21-.289-.399-.289-.1 0-.2.034-.288.056-.5.188-1.165.754-1.997.998-.31.1-.366-.088-.698-.033h.033c-.266.056-.466.21-.832.31-.5.145-1.364.212-2.052.112-.499-.067-1.131-.167-1.409-.156-.21.622-.643 1.432-1.308 1.743-.355.155-.455.377-.355.776.133.5.566.855.798 1.287.211.356.555.944.91 1.132.355.189.577.455.577.7 0 .11-.045.166-.156.166h-.72a.202.202 0 01-.19-.111c-.099-.189-.032-.355-.166-.533-.1-.11-.166-.088-.299-.188-.21-.211-.055-.333-.21-.6-.455-.732-.655-.898-1.032-1.431-.21-.277-.477-.41-.477-.777 0-.444.444-.51.421-.965-.288.21-.61.377-1.12.444-.066.01-.244.144-.31.233-.167.166-.244.355-.267.621-.055.6-.166 1.198-.1 1.809.1.388.167.51.477.732.2.133.422.31.455.6 0 .066-.033.166-.133.166h-.776a.217.217 0 01-.167-.1c-.088-.155-.033-.255-.066-.444-.067-.355-.477-.344-.477-.721 0-.111.067-.255.067-.488.033-.5.166-1.332.033-2.32-.067-.577.521-.599.832-1.098.188-.289.133-.167.244-.377a.71.71 0 00.066-.5c0-.166-.166-.51-.055-1.231.044-.311.2-.644.41-.921 0-.012 0-.056-.067-.056-.31.033-.31-.055-.51-.055s-.355.166-.388.255a.258.258 0 01-.144-.211c0-.111.033-.21.133-.31.044-.045 0-.067-.055-.067-.244 0-.466.3-.522.499-.144-.033-.155-.21-.21-.21-.067 0-.111.1-.111.199 0 .699 1.131.854 1.131 1.787 0 1.076-1.276.843-1.276 1.231 0 .067.056.144.156.189-.045.1-.155.144-.266.144-.289 0-.5-.21-.5-.5 0-.587.777-.598.777-1.042 0-.211-.133-.278-.255-.378-.765-.532-1.187-1.065-1.187-1.93 0-.944.654-1.665 1.486-1.665 1.22 0 1.265 1.432 2.374 1.543.41-.289.91-.455 1.386-.455.721 0 1.032.188 1.797.188.31 0 .82-.089 1.43-.51.223-.156.322-.189.544-.378.477-.41.932-1.231.932-1.82v.034c0-.189-.045-.3-.133-.3-.255 0-.5.244-.755.5-.166.166.09.255-.288.455-.133.066-.288-.056-.421-.056-.3 0-.422-.355-.422-.655 0-.155.111-.2.189-.344.155-.3.144-.41.288-.699.089-.2.244-.333.222-.477 0-.055-.045-.089-.045-.144 0-.3.4-.5.4-.799 0-.166-.189-.244-.222-.377-.044-.133-.011-.167-.011-.167.011-.044.022-.044.055-.044.156 0 .211.166.355.255.011-.2-.055-.244-.055-.388 0-.067-.011-.2.066-.2.1 0 .09.133.167.2.11.089.21.066.321.155.156.1.244.277.3.277.155.034.2-.166.11-.277.167-.011.356.133.578.133.354 0 .476.1.554.156.222.2.266.355.521.355.133 0 .2-.111.222-.156.166.133.189.455 0 .744.067.233.4.255.555.377.155.122.133.167.244.233.088.056.166.045.221 0 .067.31-.188.588-.51.633.011.4.422.643.61.743-.11.244-.31.31-.477.355.056.244.311.6.189.921-.11-.055-.3 0-.3.167 0 .2.256.3-.01.444-.111.066-.145.244.066.41.288-.066.554-.066.876-.066.2 0 .455-.056.643-.056.322 0 .522.133.766.4.62.654 1.175 1.353 1.796 1.83z" fill="#231F20"/><path d="M10.388 10.214c.133 0 .366-.732.865-.732.145 0 .167.055.167.11 0 .1-.167.19-.167.311 0 .034.011.056.056.056.11 0 .21-.278.699-.278.133 0 .244.012.354.045.056.01.167.066.111-.089-.11-.344-.499-.655-1.02-.655s-1.076.477-1.131 1.043c0 .111 0 .189.066.189zM19.46 5.653c-.143-.055-.166-.133-.11-.31.033-.189.044-.278-.045-.289-.066-.033-.166.033-.266.133-.088.111-.222.278-.266.389-.044.155.144.133.011.388-.222.41-.288.51-.4.799-.099.31-.166.355-.221.455-.067.089.089.1.255.044.189-.066.2.156.133.311-.055.111-.01.155.144.033.145-.11-.066-.2-.033-.554.056-.311.111-.5.31-.822.167-.277.311-.477.6-.377.1.056.044-.133-.111-.2zM25.539 15.041c.055 0 .066-.066.066-.144 0-.155-.088-.389-.21-.488-.034.233-.145.388-.145.488.012.078.222.144.289.144zM26.903 12.822c.089 0 .21-.033.21-.1 0-.133-.2-.355-.365-.41.11.221 0 .51.155.51zM20.892 9.792c1.23.577 1.164 1.62 1.264 1.365a1.11 1.11 0 00-.222-1.132c-.344-.399-.466-.3-.344-.632.544-1.32.877-3.307-.732-3.995-.188-.066-.343-.066-.343-.044 0 .033.166.089.388.233 1.076.721.732 2.685-.244 3.628-.322.322-.167.389.233.577zM16.666 18.97c.088 0 .044-.134.01-.19-.066-.133-.21-.21-.343-.277.033.133.044.455.166.455h.167M12.94 18.97c.088 0 .032-.134-.012-.19-.067-.133-.222-.21-.355-.277.033.133.056.455.189.455h.177M17.453 11.468c.677-.067.799-.233.91-.743.055-.245.221-.5.388-.655.1-.111.2-.2.3-.355.033-.067.055-.111 0-.1-.067.055-.311.21-.411.288-.477.344-1.22.5-1.508.5-.622 0-1.165-.189-1.73-.189-1.698 0-2.34 1.343-2.252 2.13.01.134.033.134.066.134.111 0 .222-.455.655-.877.62-.6 1.309-.943 2.274-.943.698 0 .987.233.987.31 0 .167-.3.19-.267.356-.01.077.145.21.588.144z" fill="#6D6E70"/></g></g><defs><clipPath id="pi-lloyds-clip0_39_8"><path fill="#fff" d="M0 0h38v24H0z"/></clipPath><clipPath id="pi-lloyds-clip1_39_8"><path fill="#fff" transform="translate(10 4)" d="M0 0h17.28v15.158H0z"/></clipPath></defs></svg>