<svg xmlns="http://www.w3.org/2000/svg" role="img" viewBox="0 0 38 24" width="38" height="24" aria-labelledby="pi-lpb"><title id="pi-lpb">LPB</title><g><path d="M35,0L3,0C1.3,0 0,1.3 0,3L0,21C0,22.7 1.4,24 3,24L35,24C36.7,24 38,22.7 38,21L38,3C38,1.3 36.6,0 35,0Z" style="fill-opacity:0.07;fill-rule:nonzero;"/><path d="M35,1C36.1,1 37,1.9 37,3L37,21C37,22.1 36.1,23 35,23L3,23C1.9,23 1,22.1 1,21L1,3C1,1.9 1.9,1 3,1L35,1Z" style="fill:white;fill-rule:nonzero;"/><g transform="matrix(0.156798,0,0,0.156798,6.63334,13.7236)"><path d="M0,-21.985L0,-0.001L18.526,14.587L37.052,-0.001L37.052,-21.985L18.526,-7.398L18.526,-36.572L0,-21.985ZM103.277,-28.417C105.369,-28.417 107.206,-28.21 108.74,-27.797C110.274,-27.383 111.506,-26.763 112.413,-25.913C113.273,-25.04 113.947,-23.892 114.435,-22.421C114.923,-20.951 115.179,-19.182 115.179,-17.092C115.179,-10.935 111.227,-7.857 103.3,-7.857L84.054,-7.857L84.054,1.745L79.381,6.96L79.381,-7.857L79.358,-7.857L79.381,-7.857L79.381,-28.417L103.277,-28.417ZM84.007,-12.497L103.115,-12.497C105.439,-12.497 107.136,-12.727 108.228,-13.233L108.228,-13.187C108.972,-13.554 109.53,-14.106 109.856,-14.795C110.204,-15.507 110.367,-16.334 110.367,-17.299L110.367,-19.022C110.367,-19.986 110.204,-20.813 109.856,-21.457C109.53,-22.123 108.972,-22.651 108.228,-23.019C107.671,-23.271 106.973,-23.478 106.136,-23.616C105.3,-23.731 104.3,-23.823 103.091,-23.823L84.007,-23.823L84.007,-12.497ZM143.654,-28.417C151.905,-28.417 156.043,-25.408 156.043,-19.389C156.043,-15.851 155.184,-13.393 153.463,-11.992C156.299,-10.614 157.74,-7.857 157.74,-3.699C157.74,-1.77 157.462,-0.093 156.927,1.309C156.391,2.733 155.509,3.859 154.3,4.709C153.323,5.444 152.091,5.972 150.581,6.317C149.07,6.661 147.304,6.822 145.281,6.822L118.596,6.822L118.596,-28.417L143.654,-28.417ZM123.152,-13.853L145.118,-13.853C147.326,-13.853 148.861,-14.174 149.674,-14.795C150.906,-15.415 151.534,-16.747 151.534,-18.792C151.534,-20.538 150.998,-21.801 149.907,-22.605C148.814,-23.409 147.21,-23.8 145.071,-23.8L123.175,-23.8L123.175,-13.853L123.152,-13.853ZM123.152,2.251L146.583,2.251C148.861,2.251 150.558,1.768 151.627,0.78C152.695,-0.207 153.231,-1.701 153.231,-3.699C153.231,-5.881 152.673,-7.421 151.534,-8.271C150.998,-8.615 150.325,-8.868 149.488,-9.052C148.651,-9.235 147.629,-9.327 146.42,-9.327L123.175,-9.327L123.175,2.251L123.152,2.251ZM49.953,-28.417L49.953,2.251L74.779,2.251L69.967,6.799L45.397,6.799L45.397,-24.328L49.953,-28.417Z" style="fill-rule:nonzero;"/></g></g></svg>
