<svg xmlns="http://www.w3.org/2000/svg" viewBox="0 0 38 24" role="img" width="38" height="24" aria-labelledby="pi-luminor"><title id="pi-luminor">Luminor</title><rect width="100%" height="100%" fill="none"/><g><path opacity=".07" d="M35 0H3C1.3 0 0 1.3 0 3v18c0 1.7 1.4 3 3 3h32c1.7 0 3-1.3 3-3V3c0-1.7-1.4-3-3-3z"/><path fill="#fff" d="M35 1c1.1 0 2 .9 2 2v18c0 1.1-.9 2-2 2H3c-1.1 0-2-.9-2-2V3c0-1.1.9-2 2-2h32"/><path fill="#fff" d="M35 1c1.1 0 2 .9 2 2v18c0 1.1-.9 2-2 2H3c-1.1 0-2-.9-2-2V3c0-1.1.9-2 2-2h32" fill-opacity=".1"/><path d="M18.222 11.004a1.593 1.45 0 00-1.501.632v.05a1.612 1.467 0 00-1.51-.64 1.584 1.442 0 00-1.492.632v.05l-.389-.573h-.806v4.217h1.177v-2.15c0-.844.306-1.19.926-1.19s.843.32.843.987v2.269h1.288v-2.092c0-.793.296-1.155.926-1.155.371 0 .871.101.871.986v2.26h1.26V12.69c0-1.164-.5-1.686-1.593-1.686zm-7.82 2.184a1.316 1.198 0 01-.472 1.062 1.26 1.147 0 01-.583.118c-.732 0-.927-.38-.927-.995v-2.251H7.18v2.589c0 1.163.639 1.686 1.77 1.686a1.52 1.383 0 001.51-.683l.388.574h.806v-4.166h-1.25zm19.456-2.184a2.52 2.294 0 00-1.853.649 2.437 2.218 0 00-.658 1.552 2.4 2.184 0 00.658 1.543 2.52 2.294 0 001.853.65 2.353 2.142 0 002.501-2.193 2.353 2.142 0 00-2.501-2.201zm0 3.423a1.25 1.138 0 01-1.232-1.222 1.25 1.138 0 112.492 0 1.26 1.147 0 01-1.242 1.222zM3.566 9.435h-1.26v5.853h4.437v-1.19H3.566zm16.888 5.853h1.307V11.07h-1.307zm13.628-3.601l-.38-.574h-.824v4.217h1.26v-1.62a1.529 1.391 0 01.472-1.172 1.76 1.602 0 011.084-.362v-1.172c-1.352 0-1.621.683-1.621.683zM20.186 9.435l.926.843.927-.843-.927-.843zm5.003 1.577a1.538 1.4 0 00-1.51.675l-.39-.565h-.806v4.166h1.26V13.22a1.297 1.18 0 01.473-1.062 1.13 1.029 0 01.583-.127c.723 0 .927.38.927.995v2.26h1.223V12.69c0-1.164-.63-1.678-1.77-1.678z" fill="#481335"/></g></svg>
