<svg xmlns="http://www.w3.org/2000/svg" role="img" viewBox="0 0 38 24" width="38" height="24" aria-labelledby="pi-magnetiq"><title id="pi-magnetiq">Magnetiq</title><path d="M35,0L3,0C1.3,0 0,1.3 0,3L0,21C0,22.7 1.4,24 3,24L35,24C36.7,24 38,22.7 38,21L38,3C38,1.3 36.6,0 35,0Z" fill-opacity="0.07" fill-rule="nonzero"/><path d="M35,1C36.1,1 37,1.9 37,3L37,21C37,22.1 36.1,23 35,23L3,23C1.9,23 1,22.1 1,21L1,3C1,1.9 1.9,1 3,1L35,1Z" fill="white" fill-rule="nonzero"/><g transform="matrix(0.0043166,0,0,0.0043166,2.6685,9.03883)"><path d="M4946.379,309.800L4648.652,309.800C4647.058,309.800 4645.747,311.110 4645.747,312.705L4645.747,403.185C4645.747,404.743 4647.058,406.019 4648.652,406.019L4794.787,406.019C4806.124,406.019 4814.166,417.851 4809.419,428.196C4781.998,489.484 4723.225,529.339 4644.188,529.339C4527.634,529.339 4457.489,439.143 4457.489,327.938C4457.489,216.733 4529.228,126.537 4644.188,126.537C4724.075,126.537 4782.140,159.200 4810.304,229.700C4810.729,230.833 4811.828,231.577 4813.032,231.542L4929.834,231.542C4931.421,231.471 4932.687,230.159 4932.687,228.572C4932.687,228.536 4932.680,228.500 4932.666,228.464C4904.525,107.676 4796.289,28.537 4644.188,28.537C4457.489,28.537 4339.379,137.494 4339.379,327.938C4339.379,518.382 4455.037,627.339 4644.188,627.339C4833.338,627.339 4949.000,518.382 4949.000,327.938C4949.000,316.071 4946.379,309.800 4946.379,309.800Z" fill-rule="nonzero"/><path d="M4663.467,761.981L4651.670,761.981L4651.670,1154.262C4651.670,1163.615 4639.165,1166.803 4634.736,1158.584L4444.459,810.905L4418.031,762.016L4271.186,762.016L4271.186,1351.802L4388.591,1351.802L4388.591,959.485C4388.591,950.133 4401.061,946.838 4405.525,955.022C4476.308,1084.577 4546.949,1214.204 4617.483,1343.866C4617.909,1344.716 4618.475,1345.283 4618.900,1346.027L4622.372,1352.369L4769.216,1352.369L4769.216,761.945L4663.467,761.945L4663.467,761.981Z" fill-rule="nonzero"/><path d="M5785.817,491.964 L5785.817,399.146 C5785.817,387.951 5793.150,378.882 5802.219,378.882 L6106.996,378.882 C6108.555,378.846 6109.830,377.571 6109.866,376.012 L6109.866,279.899 C6109.830,278.341 6108.555,277.065 6106.996,277.030 L5802.219,277.030 C5793.150,277.030 5785.817,267.960 5785.817,256.730 L5785.817,163.239 C5785.817,152.009 5793.150,142.975 5802.219,142.975 L6142.635,142.975 C6144.230,142.939 6145.505,141.664 6145.505,140.070 L6145.505,35.348 C6145.470,33.789 6144.194,32.514 6142.635,32.479 L5672.167,32.479 C5670.609,32.479 5669.298,33.789 5669.298,35.348 L5669.298,620.563 C5669.298,622.122 5670.573,623.398 5672.167,623.398 L6181.286,623.398 C6182.845,623.362 6184.120,622.122 6184.156,620.563 L6184.156,515.098 C6184.120,513.539 6182.845,512.264 6181.286,512.228 L5802.361,512.228 C5793.292,512.228 5785.958,503.159 5785.958,491.964 L5785.817,491.964 Z" fill-rule="nonzero"/><path d="M3538.73,31.91C3537.35,31.91 3536.14,32.87 3535.86,34.21L3441.02,461.18C3438.44,472.51 3423.06,471.66 3420.19,461.18L3323.76,34.21C3323.48,32.87 3322.27,31.91 3320.89,31.91L3138.27,31.91C3136.71,31.91 3135.40,33.22 3135.40,34.78L3135.40,620.00C3135.40,621.59 3136.67,622.90 3138.23,622.90L3249.05,622.90C3250.60,622.87 3251.88,621.59 3251.88,620.03L3251.88,262.89C3251.88,249.79 3267.72,247.24 3271.01,260.77L3354.09,620.67C3354.37,621.95 3355.50,622.97 3356.96,622.97L3504.22,622.97C3505.68,622.97 3506.85,621.95 3507.13,620.67L3588.43,260.73C3591.16,248.51 3607.56,249.82 3607.56,262.89L3607.56,620.00C3607.56,621.56 3608.84,622.83 3610.40,622.83L3722.81,622.83C3724.37,622.80 3725.61,621.56 3725.64,620.00L3725.64,34.75C3725.64,33.19 3724.37,31.91 3722.81,31.88L3538.73,31.88L3538.73,31.91Z" fill-rule="nonzero"/><path d="M6879.73,31.91L6768.91,31.91C6767.35,31.91 6766.08,33.19 6766.08,34.75L6766.08,620.14C6766.08,621.70 6767.35,622.97 6768.95,622.97L6879.73,622.97C6881.28,622.97 6882.56,621.70 6882.59,620.14L6882.59,34.71C6882.59,33.15 6881.32,31.88 6879.76,31.88L6879.73,31.88L6879.73,31.91Z" fill-rule="nonzero"/><path d="M5449.55,31.91C5447.99,31.95 5446.71,33.22 5446.68,34.78L5446.68,408.68C5446.68,420.90 5433.32,426.35 5427.01,416.86L5159.58,33.19C5159.01,32.41 5158.09,31.95 5157.13,31.91L5034.13,31.91C5032.57,31.95 5031.30,33.22 5031.26,34.78L5031.26,620.00C5031.26,621.59 5032.57,622.90 5034.13,622.90L5144.91,622.90C5146.50,622.90 5147.78,621.63 5147.82,620.03L5147.82,254.29C5147.82,242.06 5162.73,240.22 5169.07,249.54L5436.05,621.70C5436.61,622.41 5437.50,622.87 5438.49,622.87L5560.36,622.87C5561.92,622.83 5563.19,621.56 5563.23,620.00L5563.23,34.75C5563.19,33.19 5561.92,31.91 5560.36,31.88L5449.55,31.88L5449.55,31.91Z" fill-rule="nonzero"/><path d="M5332.72,1269.36L5156.54,1015.60C5151.19,1007.95 5152.29,997.39 5159.12,991.02L5402.97,761.95L5241.88,761.95L5074.21,921.19L5026.49,966.54C5024.36,968.55 5021.56,969.69 5018.62,969.69C5012.35,969.69 5007.21,964.52 5007.21,958.28L5007.21,761.95L4889.84,761.95L4889.84,1351.80L5007.21,1351.80L5007.21,1158.16C5007.21,1145.19 5012.39,1132.83 5021.60,1123.62L5049.19,1096.45C5052.74,1092.97 5057.52,1091.06 5062.48,1091.06C5068.68,1091.06 5074.52,1094.07 5078.07,1099.17L5193.31,1265.75L5194.30,1267.06L5252.93,1351.80L5391.31,1351.80L5333.14,1269.36L5332.72,1269.36Z" fill-rule="nonzero"/><path d="M6678.758,35.348C6678.722,33.789 6677.447,32.514 6675.888,32.479L6179.381,32.479C6177.822,32.479 6176.547,33.754 6176.547,35.313L6176.547,140.035C6176.547,141.594 6177.822,142.869 6179.381,142.869L6356.733,142.869C6365.802,142.869 6373.135,152.045 6373.135,163.275L6373.135,618.495C6373.135,620.054 6374.410,621.330 6375.969,621.330L6488.111,621.330C6489.670,621.294 6490.945,620.019 6490.981,618.460L6490.981,163.275C6490.981,152.045 6498.314,142.869 6507.383,142.869L6675.600,142.869C6677.159,142.833 6678.434,141.558 6678.470,140.000L6678.470,35.348L6678.758,35.348Z" fill-rule="nonzero"/><path d="M7555.85,627.294L7492.61,553.642C7485.53,545.442 7485.23,533.271 7491.9,524.734C7534.13,471.806 7556.84,403.043 7556.84,327.938C7556.84,160.475 7444.75,24.684 7253.94,24.684C7063.1,24.684 6951.04,160.475 6951.04,327.938C6951.04,495.365 7064.69,631.191 7253.94,631.191C7299.78,631.191 7340.88,623.114 7377.08,608.872C7389.86,603.825 7404.52,607.483 7413.43,617.942L7424.77,631.191C7424.77,631.191 7426.22,632.183 7426.93,632.183L7553.54,632.183C7555.14,632.161 7556.44,630.841 7556.44,629.243C7556.44,628.525 7556.18,627.832 7555.7,627.294L7555.85,627.294ZM7253.94,529.162C7137.39,529.162 7067.28,439.001 7067.28,327.796C7067.28,216.591 7138.98,126.395 7253.94,126.395C7368.9,126.395 7440.6,216.591 7440.6,327.796C7440.6,364.463 7432.99,398.72 7418.74,428.196C7413.01,439.993 7396.78,441.587 7388.28,431.667L7382.26,424.582C7382.26,424.582 7380.8,423.59 7380.09,423.59L7253.51,423.59C7251.92,423.612 7250.61,424.933 7250.61,426.53C7250.61,427.248 7250.88,427.941 7251.35,428.479L7310.55,497.561C7313.03,500.476 7314.4,504.182 7314.4,508.009C7314.4,515.474 7309.21,522.009 7301.94,523.706C7286.32,527.477 7270.3,529.368 7254.22,529.339L7253.94,529.197L7253.94,529.162Z" fill-rule="nonzero"/><path d="M3984.98,763.15C3984.51,762.04 3983.42,761.313 3982.21,761.308L3863.96,761.308C3862.76,761.308 3861.68,762.039 3861.23,763.15L3629.61,1348.37C3628.9,1350.24 3630.32,1352.37 3632.34,1352.37L3756.9,1352.37C3758.12,1352.41 3759.24,1351.67 3759.66,1350.53L3795.87,1251.4C3799.85,1240.35 3810.41,1232.95 3822.16,1232.98L4024.9,1232.98C4036.42,1232.98 4046.62,1239.89 4050.91,1250.55L4091.01,1350.53C4091.46,1351.64 4092.54,1352.37 4093.74,1352.37L4218.33,1352.37C4220.32,1352.37 4221.77,1350.24 4221.06,1348.37L3984.98,763.15ZM3916.27,923.843L3917.88,923.691C3922.17,923.634 3926.49,926.362 3928.65,931.888L3997.91,1118.94C3998.51,1120.46 3998.82,1122.09 3998.82,1123.72C3998.82,1130.86 3992.96,1136.74 3985.83,1136.76L3856.2,1136.76C3849.07,1136.76 3843.2,1130.89 3843.2,1123.76C3843.2,1122.25 3843.46,1120.75 3843.98,1119.33L3907.22,932.207C3909.04,927.294 3912.55,924.503 3916.27,923.843Z" fill-rule="nonzero"/><path d="M4241.39,623.008L4365.98,623.008C4368,623.008 4369.42,620.847 4368.71,618.969L4132.62,33.789C4132.19,32.664 4131.1,31.917 4129.9,31.911L4011.64,31.911C4010.42,31.902 4009.32,32.652 4008.88,33.789L3777.3,618.933C3776.59,620.811 3778,622.972 3780.02,622.972L3904.62,622.972C3905.83,622.998 3906.94,622.239 3907.35,621.095L3943.55,521.97C3947.56,510.935 3958.1,503.544 3969.84,503.548L4172.59,503.548C4184.02,503.523 4194.37,510.507 4198.63,521.12L4238.69,621.095C4239.13,622.219 4240.22,622.966 4241.42,622.972L4241.39,623.008ZM4003.85,407.365C3996.74,407.365 3990.88,401.511 3990.88,394.398C3990.88,392.888 3991.15,391.389 3991.66,389.97L4054.86,202.81C4059.04,191.58 4071.97,191.474 4076.3,202.527L4145.56,389.51C4146.18,391.052 4146.5,392.7 4146.5,394.363C4146.5,401.489 4140.64,407.355 4133.51,407.365L4003.85,407.365Z" fill-rule="nonzero"/><path d="M3583.1,1101.76C3568.65,1081.68 3549.7,1065.28 3527.76,1053.86C3545.01,1044.23 3560.24,1028.71 3573.03,1007.81C3586.96,984.957 3594.01,961.399 3594.01,937.769C3594.01,906.416 3586.82,876.906 3572.89,850.3C3559,823.774 3538.12,801.537 3512.53,786.001C3486.52,770.058 3456.76,761.981 3424.03,761.981L3127.15,761.981L3127.15,1351.8L3424.03,1351.8C3478.48,1351.8 3523.3,1335.4 3557.23,1303.16C3591.42,1270.78 3608.67,1228.06 3608.67,1176.3C3608.67,1149.8 3600.03,1124.79 3583.24,1101.9L3583.1,1101.76ZM3466.12,1225.05C3449.01,1240.17 3430.34,1247.65 3409.08,1247.65L3259.33,1247.65C3251.05,1247.65 3244.24,1240.84 3244.24,1232.56L3244.24,1120.32C3244.24,1112 3251.01,1105.23 3259.33,1105.23L3415.39,1105.23C3435.93,1105.23 3453.33,1112.42 3468.56,1127.09C3483.65,1141.76 3491.13,1157.88 3491.13,1176.16C3491.13,1194.4 3482.94,1210.1 3466.12,1225.05ZM3244.24,881.228C3244.24,872.902 3251.01,866.136 3259.33,866.136L3415.39,866.136C3435.08,866.136 3450.03,872.867 3461.09,886.861C3472.46,901.102 3478.2,918.213 3478.2,937.769C3478.2,954.597 3471.29,968.838 3457.08,981.061C3442.42,993.743 3426.62,1000.19 3409.22,1000.9L3259.47,1000.9C3251.21,1000.9 3244.41,994.103 3244.41,985.843L3244.41,881.228L3244.24,881.228Z" fill-rule="nonzero"/><path d="M2000.99,1366.25C2378.78,1366.25 2680.20,1063.83 2680.20,701.33C2680.20,338.84 2378.78,36.41 2000.92,36.41C1623.13,36.41 1321.72,338.84 1321.72,701.33C1321.72,1063.83 1623.13,1366.25 2000.99,1366.25Z" fill-rule="nonzero"/><path d="M1282.19,28.39L48.48,28.39C36.45,28.39 9.70,55.14 9.70,67.17L9.70,1312.47C9.70,1324.49 36.06,1350.99 48.87,1350.99L1282.19,1350.99C1294.21,1350.99 1320.89,1324.34 1320.89,1312.47L1320.89,67.17C1320.89,55.14 1294.21,28.39 1282.19,28.39Z" fill-rule="nonzero"/></g></svg>