<svg xmlns="http://www.w3.org/2000/svg" role="img" viewBox="0 0 38 24" width="38" height="24" aria-labelledby="pi-mash"><title id="pi-mash">Mash</title><path opacity=".07" d="M35 0H3C1.3 0 0 1.3 0 3v18c0 1.7 1.4 3 3 3h32c1.7 0 3-1.3 3-3V3c0-1.7-1.4-3-3-3z"/><path fill="#fff" d="M35 1c1.1 0 2 .9 2 2v18c0 1.1-.9 2-2 2H3c-1.1 0-2-.9-2-2V3c0-1.1.9-2 2-2h32"/><path d="M34.968 15.045v-3.234c0-1.688-.734-2.947-2.468-2.947-1.943 0-2.63 1.76-2.63 3.01l.9-.062c0-.747.488-1.202 1.13-1.202.61 0 1.131.42 1.131 1.202v3.233h1.937z" fill="#64D7DA"/><g fill="#00A0A0"><path d="M13.465 15.045v-3.234c0-1.838-.9-2.947-2.63-2.947-1.749-.001-2.604 1.245-3.138 2.511l1.568.436c0-.747.488-1.202 1.131-1.202.61 0 1.13.419 1.13 1.202v3.234h1.939zM24.989 15.134c-1.364 0-2.627-.734-2.627-.734l.655-1.389s1.174.61 2.057.61c.385 0 .618-.128.618-.353 0-.279-.43-.386-.972-.524-.9-.226-2.132-.572-2.132-1.928 0-1.187.978-1.953 2.49-1.953 1.33 0 2.458.709 2.458.709l-.613 1.329s-1.101-.54-1.928-.54c-.347 0-.546.129-.546.368s.418.35.947.485c.933.24 2.212.571 2.212 1.958 0 1.237-.999 1.965-2.627 1.965"/></g><g fill="#14C378"><path d="M28.83 6.621h1.938v8.424H28.83zM19.94 11.997c0-1.908-.833-3.137-2.495-3.137-1.827 0-2.965 1.405-2.965 3.137s1.138 3.137 2.965 3.137c1.664 0 2.496-1.234 2.496-3.137m-.782 0c0 .837-.53 1.514-1.367 1.514-.756 0-1.367-.677-1.367-1.514s.613-1.522 1.367-1.522c.838 0 1.367.679 1.367 1.514M9.265 15.045v-3.234c0-1.688-.734-2.947-2.467-2.947-1.944 0-2.631 1.76-2.631 3.01l.9-.062c0-.747.488-1.202 1.13-1.202.61 0 1.131.42 1.131 1.202v3.233h1.937z"/></g><g fill="#64D7DA"><path d="M19.159 8.949h1.938v6.097h-1.938zM3.127 8.949h1.938v6.097H3.127z"/></g></svg>