<svg xmlns="http://www.w3.org/2000/svg" role="img" viewBox="0 0 38 24" width="38" height="24" aria-labelledby="pi-masterpass"><title id="pi-masterpass">Masterpass</title><path d="M35 0H3a3 3 0 0 0-3 3v18a3 3 0 0 0 3 3h32a3 3 0 0 0 3-3V3a3 3 0 0 0-3-3z" opacity=".07" style="isolation:isolate"/><path d="M35 1a2 2 0 0 1 2 2v18a2 2 0 0 1-2 2H3a2 2 0 0 1-2-2V3a2 2 0 0 1 2-2h32" fill="#fff"/><path d="M30.15 18.9a1.46 1.46 0 0 0-.8-.21c-.5 0-.82.24-.82.63s.24.52.68.58h.2c.23 0 .34.09.34.21s-.16.24-.45.24a1 1 0 0 1-.65-.2l-.2.33a1.42 1.42 0 0 0 .85.25c.57 0 .9-.27.9-.64s-.26-.53-.69-.59h-.2c-.18 0-.33-.06-.33-.19s.14-.23.37-.23a1.27 1.27 0 0 1 .61.17l.18-.35zm-2.05 0a1.46 1.46 0 0 0-.8-.21c-.5 0-.82.24-.82.63s.24.52.68.58h.2c.23 0 .34.09.34.21s-.16.24-.45.24a1 1 0 0 1-.65-.2l-.2.33a1.42 1.42 0 0 0 .85.25c.57 0 .9-.27.9-.64s-.26-.53-.69-.59h-.2c-.18 0-.33-.06-.33-.19s.14-.23.37-.23a1.27 1.27 0 0 1 .61.17l.18-.35zm-4.89.82a.59.59 0 1 1-.6-.63.59.59 0 0 1 .6.63zm-1.59 0v1.69H22v-.95a.74.74 0 0 0 .62.29 1 1 0 0 0 0-2.06.75.75 0 0 0-.62.31v-.24h-.43zm2.78 0a.59.59 0 1 1 .6.63.59.59 0 0 1-.6-.63zm1.59 0v-1h-.43V19a.75.75 0 0 0-.62-.29 1 1 0 0 0 0 2.06.75.75 0 0 0 .62-.29v.24H26v-1zm-14.25 0a.59.59 0 1 1 .6.63.59.59 0 0 1-.6-.63zm1.59 0v-1h-.43V19a.75.75 0 0 0-.62-.29 1 1 0 0 0 0 2.06.74.74 0 0 0 .62-.29v.24h.43v-1zm5.3-.65a.49.49 0 0 1 .5.48h-1a.51.51 0 0 1 .52-.48zm0-.38a1 1 0 0 0 0 2.06 1.2 1.2 0 0 0 .81-.28l-.21-.32a.94.94 0 0 1-.57.2.54.54 0 0 1-.59-.48h1.46v-.16a.94.94 0 0 0-.93-1zm-3.2.2a1.47 1.47 0 0 0-.8-.2c-.5 0-.82.24-.82.63s.24.52.68.58h.2c.23 0 .34.09.34.21s-.16.24-.45.24a1 1 0 0 1-.65-.21l-.2.33a1.42 1.42 0 0 0 .85.25c.57 0 .9-.27.9-.64s-.26-.53-.69-.59h-.2c-.18 0-.33-.06-.33-.19s.14-.23.37-.23a1.28 1.28 0 0 1 .61.17zm5.51-.2a.58.58 0 0 0-.52.29v-.24H20v2h.43V19.6c0-.32.14-.5.42-.5a.69.69 0 0 1 .27 0l.13-.4a.92.92 0 0 0-.25-.01zm-3.65 0h-.7v-.6h-.43v.6h-.4v.39h.4V20c0 .46.18.73.68.73a1 1 0 0 0 .53-.15l-.12-.37a.79.79 0 0 1-.38.11c-.21 0-.28-.13-.28-.33v-.89h.7zm-6.39 2v-1.22a.73.73 0 0 0-.77-.78.76.76 0 0 0-.69.35.72.72 0 0 0-.65-.35.65.65 0 0 0-.58.29v-.24H7.8v2h.43v-1.13a.46.46 0 0 1 .48-.52c.28 0 .43.18.43.52v1.09h.43v-1.09a.46.46 0 0 1 .48-.52c.29 0 .43.18.43.52v1.09h.43z"/><path d="M12.7 15.39h12.6V4.67H12.7z" fill="#ff5f00"/><path d="M16.36 10A6.77 6.77 0 0 1 19 4.67a7 7 0 0 0-4.28-1.46A6.87 6.87 0 0 0 7.8 10a6.87 6.87 0 0 0 6.92 6.82A7 7 0 0 0 19 15.39 6.77 6.77 0 0 1 16.36 10" fill="#ec001b"/><path d="M30.2 10a6.87 6.87 0 0 1-6.92 6.82A7 7 0 0 1 19 15.39a6.75 6.75 0 0 0 0-10.72 7 7 0 0 1 4.28-1.46A6.87 6.87 0 0 1 30.2 10" fill="#f89e1b"/></svg>
