<svg xmlns="http://www.w3.org/2000/svg" role="img" viewBox="0 0 38 24" width="38" height="24" aria-labelledby="pi-maxima"><title id="pi-maxima">Maxima</title><path d="M35 0H3C1.3 0 0 1.3 0 3v18c0 1.7 1.4 3 3 3h32c1.7 0 3-1.3 3-3V3c0-1.7-1.4-3-3-3z" fill-opacity=".07" fill-rule="nonzero"/><path d="M35 1c1.1 0 2 .9 2 2v18c0 1.1-.9 2-2 2H3c-1.1 0-2-.9-2-2V3c0-1.1.9-2 2-2h32" fill="#fff" fill-rule="nonzero"/><clipPath id="pi-maxima_clip1"><path d="M35 1c1.1 0 2 .9 2 2v18c0 1.1-.9 2-2 2H3c-1.1 0-2-.9-2-2V3c0-1.1.9-2 2-2h32" clip-rule="nonzero"/></clipPath><g clip-path="url(#pi-maxima_clip1)"><g transform="translate(3.79 8.524) scale(.0297)"><path id="pi-maxima-path4532" d="M291.44 120.604h27.152l-10.817-36.182-16.335 36.182zm-15.219-75.895h68.614a2100.948 2100.948 0 0017.219 48.993c7.5 20.874 13.558 37.274 18.097 49.206 1.644 4.284 3.299 8.598 4.955 12.876l-1.531 36.324H338.89c-1.448-5.613-3.174-11.35-5.079-17.225-2.64-7.5-4.557-13.107-5.732-16.756h-52.742l-14.994 33.981h-62.889c13.107-22.209 26.701-46.566 40.816-73.041 12.668-23.692 25.301-48.452 37.951-74.358" fill="#004a91"/><path id="pi-maxima-path4536" d="M908.84 120.604h27.11l-10.793-36.182-16.317 36.182zm-15.232-75.895h68.621c5.607 16.62 11.333 32.972 17.207 48.993 7.512 20.874 13.54 37.274 18.103 49.206 6.301 16.459 12.661 32.859 18.971 49.2h-60.25a300.824 300.824 0 00-5.085-17.225c-2.617-7.5-4.533-13.107-5.726-16.756H892.73l-15.023 33.981h-62.871c13.095-22.209 26.694-46.566 40.822-73.041 12.668-23.692 25.271-48.452 37.95-74.358" fill="#004a91"/><path id="pi-maxima-path4540" d="M639.845 44.714h72.821c.76 5.002 2.789 17.859 6.171 38.603 2.812 16.91 4.646 30.106 5.542 39.499 2.931-12.353 7.274-28.676 13.006-48.981 4.723-16.625 7.411-26.344 8.153-29.121h74.589c0 15.884-.409 32.189-1.216 48.88-.783 16.667-1.632 34.2-2.409 52.505-.813 18.305-1.222 33.649-1.222 46.002h-48.993c0-10.449.35-22.209 1.092-35.304 1.78-31.453 2.658-51.182 2.658-59.139l-26.683 94.443h-48.34l-15.421-94.443c-1.638 15.012-3.026 30.991-4.207 47.889-1.187 16.916-1.78 32.444-1.78 46.554H627.07c1.899-16.335 3.88-33.097 5.951-50.298 2.059-17.213 3.709-33.85 4.943-49.877 1.252-16.014 1.881-31.767 1.881-47.212" fill="#004a91"/><path id="pi-maxima-path4544" d="M550.951 44.714h59.328c-4.266 49.562-6.384 98.715-6.384 147.387H551.33l-7.203-6.622c.154-12.062.7-25.549 1.626-40.478 1.109-17.741 2.243-36.075 3.418-55.05 1.174-18.982 1.78-34.059 1.78-45.237" fill="#004a91"/><path id="pi-maxima-path4548" d="M20.266 44.714h72.828c.747 5.002 2.783 17.859 6.171 38.603 2.788 16.91 4.628 30.106 5.518 39.499 2.955-12.353 7.286-28.676 13.024-48.981 4.723-16.625 7.411-26.344 8.158-29.121h74.584c0 15.884-.415 32.189-1.222 48.88-.784 16.667-1.626 34.2-2.421 52.505-.807 18.305-1.211 33.649-1.211 46.002h-48.998c0-10.449.356-22.209 1.109-35.304 1.763-31.453 2.647-51.182 2.647-59.139l-26.689 94.443H75.43L59.991 97.658c-1.626 15.012-3.014 30.991-4.195 47.889-1.193 16.916-1.756 32.444-1.756 46.554H7.492c1.886-16.335 3.874-33.097 5.939-50.298 2.065-17.213 3.72-33.85 4.972-49.877 1.24-16.014 1.863-31.767 1.863-47.212" fill="#004a91"/><path id="pi-maxima-path4556" d="M540.835 193.53l-5.174 5.15a15.712 15.712 0 00-3.317-.368c-1.987 0-3.696 1.116-5.168 3.329-.729 1.466.155 3.4 2.593 5.898.967.979 3.697 3.044 8.111 6.277v.736c0 .724.38 3.317 1.104 7.743-14.994 0-28.404-2.955-40.199-8.858-7.358-3.679-18.809-11.577-34.302-23.61-6.865-5.88-12.579-11.285-17.136-16.216-4.586-4.942-9.291-11.078-14.204-18.441l-42.792 35.405 1.115-26.558 28.018-33.934c-5.15-5.66-9.725-11.784-13.629-18.441-2.73-5.666-4.943-11.107-6.646-16.406a91.741 91.741 0 01-3.69-16.418c1.24-2.433 1.845-4.183 1.845-5.15l-1.11-4.794 39.826-40.579 31.732 52.001 60.468-66.39c1.252-1.472 2.231-2.201 2.955-2.201 1.709 0 2.593 3.322 2.593 9.95 0 5.4-.362 11.06-1.104 16.964-.742 5.91-1.252 9.968-1.489 12.187-2.207 11.274-10.698 22.963-25.449 35.031-9.82 8.117-16.958 15.131-21.378 21.017 1.46 3.4 2.706 6.129 3.673 8.117 5.898 12.252 10.941 21.983 15.124 29.133 6.135 10.318 11.944 19.041 17.332 26.179 5.393 7.102 12.187 14.839 20.298 23.247z" fill="#ed1921" fill-rule="nonzero"/></g></g></svg>
