<svg xmlns="http://www.w3.org/2000/svg" role="img" viewBox="0 0 38 24" width="38" height="24" aria-labelledby="pi-mayabank"><title id="pi-mayabank">Maya Bank</title><path fill="#000" opacity=".07" d="M35 0H3C1.3 0 0 1.3 0 3v18c0 1.7 1.4 3 3 3h32c1.7 0 3-1.3 3-3V3c0-1.7-1.4-3-3-3z"/><path fill="#fff" d="M35 1c1.1 0 2 .9 2 2v18c0 1.1-.9 2-2 2H3c-1.1 0-2-.9-2-2V3c0-1.1.9-2 2-2h32"/><g clip-path="url(#clip0_4_993)"><path d="M10.622 5c-.69 0-1.353.271-1.847.754l.256.51-.108.086A2.674 2.674 0 006.637 5C5.18 5 4 6.275 4 7.77v3.22a.198.198 0 00.207.207h1.056a.191.191 0 00.195-.194v-3.25c0-.74.444-1.35 1.215-1.35.716 0 1.228.535 1.228 1.33v2.673a.193.193 0 00.193.207h1.01a.195.195 0 00.194-.207V7.721c0-.788.534-1.33 1.252-1.33.765 0 1.19.608 1.19 1.35v3.25a.202.202 0 00.206.194h1.046a.198.198 0 00.207-.207V7.77c0-1.495-1.13-2.77-2.577-2.77zm9.456.121h-.96a.195.195 0 00-.207.195v.133l.34.535-.092.092A3.047 3.047 0 0016.882 5a3.159 3.159 0 000 6.318 3.056 3.056 0 002.29-1.073l.078.065-.34.558v.122a.205.205 0 00.128.192c.025.01.052.015.08.014h.96a.195.195 0 00.193-.126.196.196 0 00.012-.08V5.316a.187.187 0 00-.126-.185.188.188 0 00-.08-.01zm-3.196 4.836c-1.046 0-1.773-.739-1.773-1.786 0-1.048.729-1.81 1.773-1.81a1.742 1.742 0 011.81 1.81c0 1.046-.754 1.786-1.81 1.786zm16.905-4.836h-.96a.195.195 0 00-.207.195v.133l.341.535-.093.092A3.043 3.043 0 0030.591 5a3.159 3.159 0 100 6.318 3.056 3.056 0 002.29-1.073l.08.065-.341.558v.122a.203.203 0 00.207.207h.96a.197.197 0 00.207-.207V5.316a.187.187 0 00-.06-.144.189.189 0 00-.147-.05zm-3.195 4.836c-1.045 0-1.773-.739-1.773-1.786 0-1.048.73-1.81 1.773-1.81a1.74 1.74 0 011.81 1.81c.005 1.046-.747 1.786-1.805 1.786h-.006zm-3.941-4.836h-.99c-.158 0-.242.086-.242.17v2.965c0 .924-.607 1.568-1.544 1.568-.863 0-1.421-.644-1.421-1.568V5.291c0-.084-.133-.17-.22-.17h-1.05a.183.183 0 00-.17.17v2.955c0 1.58 1.239 2.955 2.867 2.955.736 0 1.446-.268 1.999-.754l.055.05-.444.59v.23c0 .61-.911.95-1.445.95h-.335a.205.205 0 00-.219.193v.972a.214.214 0 00.219.195h.341c1.625 0 2.82-.949 2.82-2.733V5.29a.198.198 0 00-.22-.17zm-9.038 7.534H4.601a.561.561 0 00-.561.561v2.242a2.807 2.807 0 002.807 2.807H17.62a2.808 2.808 0 100-5.604l-.006-.006z" fill="#00B463"/><path d="M7.314 14.175h.845c.564 0 .86.225.86.66a.551.551 0 01-.332.555.62.62 0 01.494.656c0 .632-.576.72-.896.72h-.971v-2.59zm.838 1.089c.277 0 .413-.114.413-.355 0-.24-.14-.354-.413-.354h-.38v.709h.38zm.137 1.111c.296 0 .434-.123.434-.38s-.147-.38-.434-.38h-.517v.76h.517zm2.066-2.2h.571l.976 2.592h-.484l-.21-.574h-1.134l-.21.574h-.483l.974-2.592zm.716 1.639l-.431-1.182-.429 1.182h.86zm1.132-1.639h.551l1.25 1.967v-1.967h.455v2.592h-.554l-1.246-1.968v1.968h-.458l.002-2.592zm3.462 1.451h-.225v1.14h-.458v-2.59h.458v1.051h.217l.887-1.052h.535L16.044 15.4l1.097 1.367h-.577l-.9-1.141z" fill="#fff"/></g><defs><clipPath id="pi-mayabank-clip0_4_993"><path fill="#fff" transform="translate(4 5)" d="M0 0h30v13.259H0z"/></clipPath></defs></svg>