<svg xmlns="http://www.w3.org/2000/svg" role="img" viewBox="0 0 38 24" width="38" height="24" aria-labelledby="pi-maya" fill="none"><title id="pi-maya">Maya</title><path fill="#000" opacity=".07" d="M35 0H3C1.3 0 0 1.3 0 3v18c0 1.7 1.4 3 3 3h32c1.7 0 3-1.3 3-3V3c0-1.7-1.4-3-3-3z"/><path fill="#fff" d="M35 1c1.1 0 2 .9 2 2v18c0 1.1-.9 2-2 2H3c-1.1 0-2-.9-2-2V3c0-1.1.9-2 2-2h32"/><g clip-path="url(#pi-maya-clip0_4612_34275)" fill="#00B463"><path d="M10.65 8c-.693 0-1.36.271-1.856.756l.256.511-.108.089a2.69 2.69 0 00-2.295-1.345C5.184 8.01 4 9.29 4 10.793v3.228a.196.196 0 00.207.207h1.06a.194.194 0 00.197-.196v-3.274c0-.746.452-1.346 1.221-1.346.718 0 1.232.539 1.232 1.332v2.69a.196.196 0 00.194.21h1.014a.197.197 0 00.194-.21v-2.69a1.245 1.245 0 011.256-1.332c.77 0 1.198.611 1.198 1.346v3.269a.205.205 0 00.207.196h1.05a.195.195 0 00.194-.126.195.195 0 00.012-.081v-3.229C13.236 9.281 12.101 8 10.651 8zm9.495.121h-.963a.194.194 0 00-.207.196v.132l.341.538-.094.092a3.054 3.054 0 00-2.287-1.076 3.172 3.172 0 100 6.344 3.067 3.067 0 002.3-1.076l.082.064-.342.56v.123a.203.203 0 00.207.208h.963a.198.198 0 00.207-.208v-5.7a.188.188 0 00-.207-.197zm-3.21 4.856a1.805 1.805 0 110-3.61 1.805 1.805 0 010 3.61zM33.92 8.121h-.963a.194.194 0 00-.207.196v.132l.342.538-.095.092a3.053 3.053 0 00-2.287-1.076 3.172 3.172 0 100 6.344 3.068 3.068 0 002.3-1.076l.082.064-.342.56v.123a.205.205 0 00.207.208h.963a.198.198 0 00.207-.208v-5.7a.188.188 0 00-.207-.197zm-3.21 4.856a1.805 1.805 0 110-3.61 1.805 1.805 0 010 3.61zm-3.963-4.856h-.973c-.16 0-.245.086-.245.17v2.978a1.48 1.48 0 01-1.55 1.574c-.866 0-1.426-.646-1.426-1.574V8.29c0-.084-.134-.17-.22-.17h-1.077a.186.186 0 00-.17.17v2.959a2.927 2.927 0 002.88 2.96 3.03 3.03 0 002.007-.76l.056.052-.441.597v.24c0 .61-.915.952-1.45.952h-.342a.207.207 0 00-.22.196v.974a.215.215 0 00.22.197h.342c1.633 0 2.83-.953 2.83-2.747V8.29a.2.2 0 00-.22-.17z"/></g><defs><clipPath id="pi-maya-clip0_4612_34275"><path fill="#fff" transform="translate(4 8)" d="M0 0h30.13v8.663H0z"/></clipPath></defs></svg>