<svg role="img" viewBox="0 0 38 24" width="38" height="24" aria-labelledby="pi-mb" xmlns="http://www.w3.org/2000/svg"><title id="pi-mb">Multibanco</title><path fill="#000" opacity=".07" d="M35 0H3C1.3 0 0 1.3 0 3v18c0 1.7 1.4 3 3 3h32c1.7 0 3-1.3 3-3V3c0-1.7-1.4-3-3-3z"/><path fill="#fff" d="M35 1c1.1 0 2 .9 2 2v18c0 1.1-.9 2-2 2H3c-1.1 0-2-.9-2-2V3c0-1.1.9-2 2-2h32"/><path d="M18.72 17.266h5.859c1.337 0 1.35-1.421 1.214-2.122-.075-.472-.876-.465-.965 0v.547c0 .25-.204.454-.455.455H13.144a.458.458 0 01-.456-.455v-.547c-.088-.465-.89-.472-.963 0-.137.701-.124 2.122 1.214 2.122h5.781zM14.58 3.649h9.032c.634 0 1.153.55 1.153 1.221v.584a.56.56 0 01-1.114.006v-.318a.372.372 0 00-.372-.371h-9.05a.372.372 0 00-.372.371v.312c0 .821-1.065.815-1.065.018v-.601c.003-.671.522-1.222 1.156-1.222z" fill="#3d73b9" fill-rule="evenodd"/><path d="M24.538 10.357a1.788 1.788 0 011.057 1.6c0 .984-.858 1.788-1.907 1.788h-2.943a.488.488 0 01-.5-.464V7.68a.493.493 0 01.492-.49h2.45c1.44-.004 2.343 1.553 1.626 2.801a1.855 1.855 0 01-.275.366m-2.195-.454h.933v-.011a.89.89 0 00.754-.878.89.89 0 00-.888-.888h-1.881v4.646h2.384a.92.92 0 100-1.835h-1.302a.517.517 0 010-1.032" fill="#1d1d1b" fill-rule="evenodd"/><path d="M14.953 18.986c0-.123.13-.199.236-.137.05.028.08.08.08.137v.851a.71.71 0 01-.708.709.71.71 0 01-.708-.708v-.851a.159.159 0 01.226-.156.155.155 0 01.088.156v.851a.397.397 0 00.395.393.395.395 0 00.394-.394zM16.447 20.23a.159.159 0 010 .317h-.44a.591.591 0 01-.591-.592v-.969c0-.122.13-.197.235-.136.05.027.08.08.08.136v.968c0 .152.124.277.277.277h.439zM19.778 13.187a.59.59 0 11-1.173.123l-.486-4.45-1.711 4.353v.053a.58.58 0 01-.148.168l-.009.007a.487.487 0 01-.102.073l-.011.005-.01.007H16.07a.608.608 0 01-.174.032h-.042a.593.593 0 01-.193-.04h-.05l-.01-.006-.009-.005h-.005a.538.538 0 01-.093-.062l-.02-.017-.014-.015-.036-.009-.017-.02a.66.66 0 01-.063-.093v-.006l-.005-.008-.006-.01v-.044L13.591 8.86l-.484 4.45a.59.59 0 11-1.174-.123l.572-5.248a.98.98 0 01.844-.862h.03c.051-.003.1-.003.15 0a.97.97 0 01.865.617l1.462 3.696 1.459-3.708a.97.97 0 01.866-.617.939.939 0 01.15 0h.03a.978.978 0 01.844.866zM13.792 20.371a.157.157 0 01-.209.176.16.16 0 01-.105-.139l-.134-1.136-.482 1.115a.158.158 0 01-.207.083.152.152 0 01-.082-.083l-.482-1.115-.136 1.136a.157.157 0 11-.312-.037l.158-1.319a.257.257 0 01.139-.196l.031-.015h.012a.273.273 0 01.298.097l.019.029c.002.007.005.012.009.019l.409.947.408-.956a.257.257 0 01.185-.149.793.793 0 01.048-.007h.048a.265.265 0 01.196.126.154.154 0 01.021.045.16.16 0 01.01.031v.02zM17.135 20.389a.158.158 0 01-.317 0v-1.246h-.449a.158.158 0 01-.136-.237.154.154 0 01.136-.079h1.214c.121 0 .197.132.137.237a.163.163 0 01-.137.079h-.448zM18.119 20.389a.157.157 0 01-.236.136.154.154 0 01-.08-.136v-1.403c0-.123.131-.199.237-.137a.16.16 0 01.079.137zM21.352 20.371a.158.158 0 01-.227.153.164.164 0 01-.086-.115l-.056-.446h-.542a.159.159 0 01-.155-.226.157.157 0 01.155-.089h.507l-.014-.116v-.012c-.004-.026-.012-.053-.019-.081a.383.383 0 00-.033-.081.356.356 0 00-.318-.213.307.307 0 00-.15.035.443.443 0 00-.22.352l-.099.877a.156.156 0 01-.249.109.154.154 0 01-.063-.142l.099-.878a.754.754 0 01.389-.598.668.668 0 01.293-.07.667.667 0 01.6.389.822.822 0 01.081.262.033.033 0 010 .014zM21.834 20.389a.158.158 0 11-.314 0v-1.3a.131.131 0 010-.028.152.152 0 01.012-.051l.012-.028a.23.23 0 01.124-.103l.022-.005H21.748a.219.219 0 01.166.086l.837 1.07v-1.044a.157.157 0 11.315 0v1.3a.222.222 0 01-.115.193c-.006.005-.013.007-.019.01l-.013.006a.228.228 0 01-.17-.009l-.019-.011a.157.157 0 01-.032-.024c-.007-.006-.013-.014-.021-.02l-.004-.007-.839-1.075zM24.298 20.23a.159.159 0 010 .317h-.464a.622.622 0 01-.622-.621v-.475a.625.625 0 01.622-.622h.464c.122 0 .198.132.137.238a.163.163 0 01-.137.078h-.464a.308.308 0 00-.218.093.298.298 0 00-.093.216v.474c0 .17.138.308.308.308h.465zM25.211 19.142a.432.432 0 00-.299.118.394.394 0 00-.121.28v.294a.39.39 0 00.12.279.434.434 0 00.299.118.432.432 0 00.299-.118.389.389 0 00.122-.279v-.294a.394.394 0 00-.122-.28.437.437 0 00-.299-.118m0-.315a.742.742 0 01.517.206.701.701 0 01.217.506v.294a.696.696 0 01-.217.505.743.743 0 01-.517.207.74.74 0 01-.516-.207.702.702 0 01-.218-.505v-.294a.706.706 0 01.218-.506.74.74 0 01.516-.206zM18.565 19.143v1.087h.61a.197.197 0 00.145-.332l-.006-.006a.199.199 0 00-.139-.059h-.21a.158.158 0 01-.137-.236.157.157 0 01.137-.078h.071a.2.2 0 00.119-.057.185.185 0 00-.13-.318h-.46zm-.315.534v-.686c0-.021.003-.042.012-.061a.172.172 0 01.037-.055.154.154 0 01.103-.045h.618c.278 0 .503.226.503.502a.506.506 0 01-.077.268c.033.02.064.043.093.07l.009.012a.51.51 0 01.142.353.515.515 0 01-.513.512h-.77a.157.157 0 01-.157-.158z" fill="#1d1d1b"/></svg>
