<svg role="img" viewBox="0 0 38 24" width="38" height="24" aria-labelledby="pi-mbwaypaynlversion" version="1.1" xmlns="http://www.w3.org/2000/svg"><title id="pi-mbwaypaynlversion">MB WAY</title><g clip-path="url(#a)" fill="#000"><path d="M35 0H3a2.946 2.946 0 00-3 3v18a3.01 3.01 0 003 3h32a2.95 2.95 0 003-3V3a3.01 3.01 0 00-3-3" opacity=".07"/><path d="M35 1a2.006 2.006 0 012 2v18a2.006 2.006 0 01-2 2H3a2.006 2.006 0 01-2-2V3a2.006 2.006 0 012-2z" fill-opacity="1"/></g><g stroke-width="3.796"><path d="M11.3 18.282l-.06.453a.377.377 0 00.38.418h14.752c.23 0 .406-.197.38-.418l-.061-.453a.652.652 0 01.574-.714.64.64 0 01.706.571l.058.443c.116.988-.445 1.852-1.44 1.852h-15.18c-.999 0-1.557-.867-1.441-1.852l.058-.443a.638.638 0 01.703-.571.65.65 0 01.574.714" fill="#d60510"/><path d="M24.94 14.863c.718 0 1.29-.522 1.274-1.21-.016-.705-.656-1.158-1.372-1.161h-1.444c-.318 0-.582-.266-.582-.598s.261-.6.582-.6h.964c.651-.027 1.152-.42 1.183-1.036.032-.658-.535-1.153-1.227-1.153h-2.342l-.01 5.758h2.97zm1.775-4.61c0 .6-.214.94-.567 1.36l-.034.041.05.03c.698.426 1.185 1.066 1.222 1.97.056 1.343-1.085 2.457-2.436 2.455h-3.567a.635.635 0 01-.626-.643V8.552c0-.356.281-.643.626-.643l2.943.008c1.282 0 2.391.945 2.391 2.339m-11.492 3.482l.016.05.018-.05c.166-.456.364-.959.577-1.51.219-.579.435-1.132.65-1.659.22-.535.428-1.011.625-1.427.198-.427.36-.717.487-.878a.964.964 0 01.775-.35h.147a.69.69 0 01.464.15.508.508 0 01.184.319l.922 7.146a.581.581 0 01-.158.432c-.105.1-.253.148-.448.148s-.35-.048-.463-.137a.5.5 0 01-.216-.359c-.032-.237-.06-.5-.087-.79-.04-.29-.185-1.536-.224-1.849-.037-.324-.298-2.342-.385-3.076l-.008-.064-.295.62a22.968 22.968 0 00-.682 1.711c-.129.322-.698 1.952-.698 1.952-.052.148-.153.445-.245.72-.092.27-.176.518-.2.566a.809.809 0 01-.735.45.798.798 0 01-.737-.45 10.949 10.949 0 01-.2-.567c-.093-.274-.19-.571-.245-.719 0 0-.572-1.63-.698-1.952a30.93 30.93 0 00-.359-.945c-.118-.3-.226-.553-.324-.767l-.297-.619-.008.064c-.09.732-.348 2.752-.387 3.076-.04.313-.185 1.562-.224 1.85-.03.289-.06.552-.09.79a.51.51 0 01-.213.358c-.116.09-.269.137-.464.137s-.342-.05-.448-.148a.585.585 0 01-.158-.432l.922-7.146a.537.537 0 01.187-.319.69.69 0 01.464-.15h.15c.321 0 .58.119.772.35.126.161.29.45.487.878.2.416.406.892.624 1.427.216.527.435 1.08.654 1.66.21.55.41 1.053.576 1.509" fill="#fff"/><path d="M13.416 3.584h11.207c1.056 0 1.58.793 1.704 1.838l.048.335a.659.659 0 01-.58.719.647.647 0 01-.708-.582l-.045-.321c-.047-.398-.216-.704-.619-.704H13.616c-.403 0-.572.306-.62.704l-.041.32a.647.647 0 01-.709.583.656.656 0 01-.58-.72l.048-.334c.124-1.045.648-1.838 1.704-1.838" fill="#d60510"/></g></svg>