<svg width="38" height="24" viewBox="0 0 38 24" fill="none" xmlns="http://www.w3.org/2000/svg" role="img" aria-labelledby="pi-mcashcreditcard"><title id="pi-mcashcreditcard">M Cash Credit Card</title><g clip-path="url(#pi-mcashcreditcard-clip)"><path d="M35 .5H3A2.5 2.5 0 00.5 3v18A2.5 2.5 0 003 23.5h32a2.5 2.5 0 002.5-2.5V3A2.5 2.5 0 0035 .5z" stroke="#000" stroke-opacity=".07"/><rect x="1" y="1" width="36" height="22" rx="2" fill="#FDFDFD"/><path d="M16.987 4.942h.118l.355.802h.498l.071.183.19.642.07.023h16.508l.024.023v9.075l-.379.023h-15.94l-.07.48-.782.115-5.068.688-.569.114-1.279.321-1.35.367-4.073 1.077h-.072l-.047-.87-.355.022-.474.046.024-.298.07-.756.072-1.192.047-1.306v-1.1l-.023-.55-.071-.504-.237-.963-.237-.802-.26-.756-.285-.665-.19-.39-.094-.16v-.069l.71-.183h.048l-.119-.39-.142-.32v-.046l.71-.115 3.317-.435 1.942-.252.592-.115 1.09-.275 1.468-.39 1.042-.274.9-.23 1.752-.458.498-.137z" fill="#034C8C"/><path d="M16.987 4.942h.118l.355.802h.498l.071.183.19.642.07.046h-.047l.095.48.142.895.047.412.071 1.306.024.596v2.269l-.047 1.352-.024.412h-.071l-.142-.297-.071-.16-.071.022v.046l-.213-.046-.119-.092-.166.07-.379.045-.094.023-.024-.069-.118.023v-.046l-.119-.023v.046l-.047.023h-.142l-.119-.046-.118-.114-.024-.092h.047v-.046h-.142l-.047-.069-.024-.091-.07.023-.048.023-.071-.023-.095.183-.07-.275-.025-.046-.023-.412h-.048l-.047-.367-.024-.435-.023-.115-.024.344-.024 1.902-.023.32-.048.092-1.397.023-.095-.023-.024-.39V11.29l-.023-.436-.095-.252-.166-.183-.237-.115-.094-.023h-.427l-.26.092-.213.16-.143.23-.07.229-.024.16-.024 3.483-.024.023-1.444.023-.071-.068-.024-3.667-.071-.252-.118-.184-.166-.137-.19-.069-.142-.023h-.284l-.213.046-.284.138-.166.183-.095.298-.024.298-.023 3.391-.024.023-1.445.023-.047-.023-.024-.55L7.49 13.1l-.047.183-.095.436-.047.252-.071.069-.095.045h-.07l-.143-.275-.071-.16-.118-.115-.095-.023v-.045l-.095-.023-.166.068-.237-.045v-.046l-.213.023-.118-.023v.046h-.071l-.048.091-.023-.023-.166-.023-.071-.229h-.237l.024-.091-.095.046-.047.091-.048.183-.118-.045-.047-.023-.19-.527v-.046h-.047v.252l-.048.023-.07-.665-.214-.893-.237-.848-.284-.825-.308-.734-.19-.39-.094-.16v-.069l.71-.183h.048l-.119-.39-.142-.32v-.046l.71-.115 3.317-.435 1.942-.252.592-.115 1.09-.275 1.468-.39 1.042-.274.9-.23 1.752-.458.498-.137z" fill="#0496D7"/><path d="M18.526 8.654h.024l.071.94.047 1.535v.963l-.047 1.695-.071 1.421-.024.207-.023.045-.048.596-.023.138-.782.114-5.068.688-.569.114-1.279.321-1.35.367-4.073 1.077h-.072l-.047-.87-.355.022-.474.046.024-.298.07-.756.072-1.192.047-1.306v-1.375l.024-.115.024-.16h.047l.142.367.048.206.118.046.047.022.048-.229.07-.091.095-.023-.023.091h.213l.047.07.024.182H5.713l.024-.045h.07v-.046h.332v.046h.214l.047.023.166-.07.07.047v.045l.143.023.118.138.142.344.024.068.166-.068.047-.046.095-.436.047-.252.071-.206h.024l.024 1.031v.55l1.492-.023.024-3.391.047-.413.095-.206.166-.183.284-.138.213-.046h.284l.284.07.19.137.118.137.095.23.024.114.023 3.69.048.022 1.444-.023.024-3.483.071-.32.119-.23.142-.16.19-.115.212-.069h.427l.26.092.213.183.119.23.023.091.024.436v3.368l1.492-.023.024-.206.024-.183.023-2.017.024-.32.047.091.024.115.024.527.023.275h.048l.023.183.024.23.047.137.024.137.095-.137.19-.046.047.046.023.114.143.023v.046h-.048l.024.069.118.114.119.046h.19v-.046l.141.046.119-.023.023.069.166-.046.284-.023.19-.069.047.092.19.046.07.023-.023-.069.095-.023.07.115.096.206.047.16h.071v-.412l.047-1.398v-2.223l-.047-.94-.024-.412v-.298z" fill="#0B7EC2"/><path d="M34.797 8.585h.024v7.105l-.379.023H18.48v-.253l.095-.091.331-.115-.023-.619-.095-1.535v-.435l.071-.023h15.916l.023-4.057z" fill="#5BB64F"/><path d="M10.237 9.044h.781l.308.068.38.184.189.16.213.298.071.115v.046l.071-.07.166-.205.118-.138.284-.206.285-.138.308-.091.142-.023h.71l.308.068.379.184.26.183v.046h.048l.213.275.166.32.07.299.025.229v3.919l-.048.091-1.397.023-.095-.023-.024-.39V11.29l-.023-.435-.095-.252-.166-.183-.237-.115-.094-.023h-.427l-.26.092-.213.16-.142.23-.071.229-.024.16-.024 3.483-.024.023-1.444.023-.071-.068-.024-3.667-.071-.252-.118-.184-.166-.137-.19-.069-.142-.023h-.284l-.213.046-.284.137-.166.184-.095.298-.024.298-.023 3.391-.024.023-1.445.023-.047-.023-.024-.55v-1.444l.024-3.483.024-.023h1.397l.024.023.023.436-.023.275.118-.115.166-.206.142-.16.237-.161.284-.138.308-.068zM21.724 7.417h.426l.379.045.355.115.355.206.237.23.19.297.118.252.048.16v.161l-.143.023h-.734l-.07-.091-.167-.321-.118-.138-.284-.137-.119-.023h-.426l-.26.091-.19.138-.166.23-.118.274-.071.298-.024.206v.459l.047.298.119.343.166.23.19.16.189.091.165.046h.332l.237-.068.19-.115.189-.206.118-.275.048-.115h.9l-.048.252-.142.344-.118.206-.166.207-.19.183-.26.16-.19.092-.213.069-.331.045h-.427l-.402-.068-.355-.138-.237-.16-.237-.206-.213-.298-.166-.344-.119-.481-.023-.207v-.572l.07-.482.12-.343.165-.321.19-.23.213-.206.308-.183.284-.115.379-.068zM25.347 8.517h.308l.38.046.307.091.26.138.166.16.095.206.024.092.023 1.948.048.298.118.114v.092l-.07.023h-.83l-.07-.16v-.184l-.356.252-.284.138-.213.046h-.403l-.26-.069-.237-.137-.19-.207-.095-.206-.023-.115v-.412l.094-.275.19-.23.213-.137.213-.091.38-.07.496-.068.261-.069.119-.091.047-.138-.071-.183-.095-.069-.142-.046h-.45l-.19.092-.094.137-.071.16-.071.024-.735-.023.024-.206.119-.298.142-.207.19-.16.307-.138.213-.045.213-.023zM30.558 7.508h.805l.024.023v1.375h.047l.166-.16.237-.138.166-.068.118-.023h.379l.308.068.213.115.237.206.142.252.047.252v2.292l-.047.023h-.782l-.023-.023-.024-2.017-.071-.252-.142-.16-.19-.069h-.213l-.213.069-.095.069H31.6l-.142.275-.047.229-.024 1.856-.048.023h-.781l-.024-.137v-4.01l.024-.07zM28.308 8.517h.64l.355.068.378.184.166.16.19.367.024.23-.024.022h-.782l-.166-.275-.236-.115h-.427l-.165.07-.095.114-.024.091.071.115v.046l.237.069.545.137.497.138.284.137.213.183.142.275.024.138v.206l-.07.298-.167.252-.19.16-.33.161-.332.069-.498.023-.402-.046-.308-.092-.26-.137-.166-.16-.143-.23-.094-.298v-.137h.852l.095.229.119.114.142.07.118.022h.426l.213-.069.119-.114v-.16l-.095-.115-.402-.138-.806-.206-.284-.115-.19-.137-.094-.115-.095-.206-.024-.092V9.41l.071-.229.143-.229.19-.183.236-.138.26-.091.119-.023z" fill="#FDFDFD"/><path d="M25.987 10.236h.095l-.024.412-.071.252-.142.16-.213.115-.119.046-.284.023-.213-.092-.095-.114-.047-.138.023-.23.095-.137.142-.091.687-.16.166-.046z" fill="#05508C"/><path d="M21.013 13.512h.308l.213.092.142.184v.137h-.19l-.189-.183-.19-.023-.141.069-.095.183v.32l.071.161.095.092.142.023.142-.07.118-.137.072-.045h.118l.024.023v.16l-.095.137-.119.092-.213.069h-.19l-.236-.092-.142-.16-.071-.184-.024-.091v-.23l.047-.206.143-.206.165-.092.095-.023zM27.479 13.833h.26l.19.092.047.115.024.252v.435l-.024.023h-.331l-.071.023h-.26l-.12-.115-.047-.114.024-.184.095-.091.213-.069.237-.023v-.114l-.024-.023h-.166l-.166.091-.142.023-.023-.023v-.137l.142-.115.142-.046zM30.321 13.833h.308l.166.07.07.09.025.115.023.573-.023.069-.119.023-.19-.069-.118.069h-.237l-.07-.023-.072-.114-.023-.184.047-.137.213-.092.213-.046h.095l-.024-.137h-.19l-.141.091-.142.023-.048-.091.095-.16.142-.07zM22.079 13.833h.284l.19.07.07.137.024.687-.094.046-.166-.046-.119.023-.047.023h-.26l-.119-.092-.047-.114.023-.184.119-.114.213-.069.213-.023v-.114l-.024-.023h-.19l-.141.091-.142.023-.048-.091.071-.115.119-.092.07-.023zM32.026 13.535h.213l.024.046v.321l.166-.069h.213l.142.07.071.114.024.252v.412l-.024.069h-.236l-.024-.688-.024-.022h-.166l-.118.068-.024.62-.023.022h-.214l-.023-1.192.023-.023zM23.76 13.535h.214l.023.023.024.321.166-.046h.213l.118.07.071.09.024.138v.596l-.024.023h-.213l-.023-.115v-.252l-.024-.32-.024-.023-.213.023-.047.022-.024.092v.481l-.024.092h-.236v-1.215zM28.663 13.535h.877l.023.023v.138l-.023.023h-.64l.024.298h.473l.072.023v.16l-.024.023H28.9v.504l-.024.023h-.236v-1.192l.023-.023zM31.268 13.833h.308l.166.07.071.09v.138l-.166-.023-.19-.091h-.141l.024.114.378.138.095.046.048.114-.024.184-.119.114-.213.069h-.19l-.165-.069-.095-.091-.047-.115.024-.092.118.023.166.115.213.023.047-.046.024-.092-.332-.069-.213-.114-.023-.023v-.16l.07-.161.166-.092zM23.026 13.833h.285l.165.07.071.068v.16l-.142-.023-.213-.091h-.166l.048.114.402.138.119.114v.184l-.095.137-.119.069-.307.023-.166-.046-.119-.137-.023-.046v-.138l.118.023.237.138h.142l.071-.07.024-.068-.355-.069-.19-.091-.024-.023v-.23l.095-.137.142-.069zM25.774 13.833l.284.023.237-.023.213.07.047.09.024.322v.366l-.024.069h-.237l-.023-.688-.048-.022h-.26l-.024.687-.024.023h-.189l-.024-.023v-.848l.048-.046zM29.753 13.512l.142.023.023 1.123-.023.092h-.213l-.024-.046v-.94l.023-.229.072-.023zM25.276 13.81h.19l.047.046v.871l-.024.023h-.236v-.894l.023-.046z" fill="#FDFDFD"/><path d="M22.292 14.338h.095v.137l-.095.092-.095.046-.118-.023-.047-.046v-.115l.07-.046.19-.045zM30.558 14.338h.095l-.024.16-.142.092-.119.023-.07-.046v-.138l.165-.069.095-.022zM27.574 14.36h.165v.138l-.094.069-.213.023-.024-.023v-.16l.166-.046z" fill="#5CB74F"/><path d="M25.324 13.512l.142.023.047.023v.16l-.047.024h-.19l-.023-.046v-.138l.07-.046z" fill="#FDFDFD"/></g><defs><clipPath id="pi-mcashcreditcard-clip"><path fill="#fff" d="M0 0h38v24H0z"/></clipPath></defs></svg>