<svg xmlns="http://www.w3.org/2000/svg" role="img" viewBox="0 0 38 24" width="38" height="24" aria-labelledby="pi-merpay"><title id="pi-merpay">Merpay</title><path d="M35 0H3a3 3 0 00-3 3v18a3 3 0 003 3h32a3 3 0 003-3V3a3 3 0 00-3-3z" style="isolation:isolate" opacity=".07" fill-rule="evenodd"/><path fill="#fff" fill-rule="evenodd" d="M35 1a2 2 0 012 2v18a2 2 0 01-2 2H3a2 2 0 01-2-2V3a2 2 0 012-2z"/><path fill="#231916" d="M33.01 10.52l-1.26 3.12-1.27-3.12h-1.27l1.97 4.41-1.03 2.43h1.09l2.95-6.84h-1.18zM21 8.19h-2.63v7.21h1.12v-2.8H21a2.14 2.14 0 002.36-2.19A2.15 2.15 0 0021 8.19zm.19 3.35h-1.68v-2.3h1.72a1.08 1.08 0 011 1.17 1 1 0 01-1 1.13zM26.22 10.45a2.42 2.42 0 00-2.51 2.49 2.33 2.33 0 002.4 2.49 1.68 1.68 0 001.43-.78v.75h1.14v-2.46a2.31 2.31 0 00-2.46-2.49zm0 4a1.32 1.32 0 01-1.35-1.49 1.39 1.39 0 011.35-1.49 1.32 1.32 0 011.33 1.49 1.38 1.38 0 01-1.35 1.47z"/><path fill="#e62419" d="M10 18l4.74-2.37a1 1 0 00.54-.88V9.24a1 1 0 00-.54-.88L10 6a1 1 0 00-.89 0L4.36 8.36a1 1 0 00-.55.88v5.52a1 1 0 00.55.88L9.09 18a1 1 0 00.91 0z"/><circle cx="13.49" cy="9.3" r="2.57" fill="#59bdec"/><path fill="#fff" d="M5.39 14l-.5-.25v-1.5c0-.43.24-.86.75-.81a1.3 1.3 0 011 .75.62.62 0 01.52-.19 1.63 1.63 0 011.23 1.72v1.78l-.55-.27v-1.64a.88.88 0 00-.69-.93c-.16 0-.3.11-.31.39v1.67l-.5-.25v-1.55c0-.69-.44-.91-.64-.93s-.31.06-.31.41z"/></svg>
