<svg width="38" height="24" role="img" aria-labelledby="pi-metapay" viewBox="0 0 38 24" fill="none" xmlns="http://www.w3.org/2000/svg"><title id="pi-metapay">Meta Pay</title><path opacity=".07" d="M35 0H3C1.3 0 0 1.3 0 3v18c0 1.7 1.4 3 3 3h32c1.7 0 3-1.3 3-3V3c0-1.7-1.4-3-3-3z" fill="#000"/><path d="M35 1c1.1 0 2 .9 2 2v18c0 1.1-.9 2-2 2H3c-1.1 0-2-.9-2-2V3c0-1.1.9-2 2-2h32z" fill="#fff"/><path d="M4.983 12.986c0 .348.076.614.176.776a.6.6 0 00.524.3c.257 0 .491-.063.943-.688.362-.5.788-1.204 1.076-1.645l.486-.747c.337-.518.728-1.095 1.176-1.486.366-.319.76-.496 1.158-.496.667 0 1.302.386 1.788 1.111.532.794.79 1.793.79 2.825 0 .613-.12 1.064-.326 1.42-.2.345-.587.688-1.238.688v-.981c.558 0 .697-.513.697-1.1 0-.836-.195-1.764-.624-2.427-.305-.47-.7-.757-1.134-.757-.47 0-.848.354-1.274.986-.226.336-.457.745-.718 1.207l-.287.508c-.576 1.02-.722 1.254-1.01 1.637-.504.672-.935.927-1.502.927-.674 0-1.1-.291-1.363-.73C4.106 13.956 4 13.486 4 12.95l.983.035z" fill="#0081FB"/><path d="M4.775 10.18C5.225 9.486 5.875 9 6.622 9c.432 0 .861.128 1.31.494.49.4 1.013 1.06 1.665 2.146l.234.39c.565.94.886 1.424 1.074 1.652.242.293.411.38.631.38.558 0 .697-.512.697-1.099l.867-.027c0 .613-.12 1.064-.326 1.42-.2.345-.587.688-1.238.688-.405 0-.764-.088-1.16-.462-.306-.287-.663-.798-.937-1.257l-.816-1.363c-.41-.684-.785-1.194-1.003-1.425-.234-.249-.534-.549-1.014-.549-.388 0-.718.273-.994.69l-.837-.498z" fill="url(#pi-paint0_linear_1164_3)"/><path d="M6.606 9.988c-.388 0-.718.273-.994.69-.39.588-.629 1.466-.629 2.308 0 .348.076.614.176.776l-.838.552C4.106 13.956 4 13.486 4 12.95c0-.973.267-1.987.775-2.77C5.225 9.485 5.875 9 6.622 9l-.016.988z" fill="url(#pi-paint1_linear_1164_3)"/><path d="M15.01 9.191h1.138l1.933 3.498 1.934-3.498h1.112v5.747h-.928v-4.405l-1.695 3.05h-.87l-1.696-3.05v4.405h-.927V9.191zm9.023 2.143c-.665 0-1.066.5-1.162 1.12h2.258c-.046-.638-.415-1.12-1.096-1.12zm-2.081 1.474c0-1.305.843-2.254 2.097-2.254 1.234 0 1.971.937 1.971 2.323v.255h-3.148c.111.674.559 1.129 1.28 1.129.576 0 .936-.176 1.277-.497l.493.603c-.465.427-1.055.674-1.803.674-1.358 0-2.167-.99-2.167-2.233zm5.193-1.392h-.854v-.76h.854V9.402h.895v1.256h1.297v.76H28.04v1.924c0 .657.21.89.726.89.236 0 .371-.02.57-.053v.752c-.248.07-.485.102-.742.102-.966 0-1.45-.528-1.45-1.584v-2.032zm5.96.739a1.207 1.207 0 00-1.17-.788c-.766 0-1.256.543-1.256 1.428 0 .863.451 1.433 1.22 1.433.603 0 1.034-.351 1.206-.788v-1.285zM34 14.938h-.878v-.6c-.246.353-.693.703-1.417.703-1.164 0-1.941-.975-1.941-2.246 0-1.283.796-2.241 1.99-2.241.591 0 1.055.236 1.368.653v-.55H34v4.281z" fill="#000000"/><defs><linearGradient id="pi-paint0_linear_1164_3" x1="5.93" y1="12.703" x2="12.196" y2="13.019" gradientUnits="userSpaceOnUse"><stop stop-color="#0064E1"/><stop offset=".4" stop-color="#0064E1"/><stop offset=".83" stop-color="#0073EE"/><stop offset="1" stop-color="#0082FB"/></linearGradient><linearGradient id="pi-paint1_linear_1164_3" x1="5.424" y1="13.399" x2="5.424" y2="11.089" gradientUnits="userSpaceOnUse"><stop stop-color="#0082FB"/><stop offset="1" stop-color="#0064E0"/></linearGradient></defs></svg>
