<svg viewBox="0 0 38 24" width="38" height="24" role="img" aria-labelledby="pi-militarystarcard" style="background-color:#fff" xmlns="http://www.w3.org/2000/svg"><title id="pi-militarystarcard">Military StarCard</title><defs><style type="text/css"/></defs><path opacity=".07" d="M35 0H3C1.3 0 0 1.3 0 3v18c0 1.7 1.4 3 3 3h32c1.7 0 3-1.3 3-3V3c0-1.7-1.4-3-3-3z"/><path fill="#fff" d="M35 1c1.1 0 2 .9 2 2v18c0 1.1-.9 2-2 2H3c-1.1 0-2-.9-2-2V3c0-1.1.9-2 2-2h32"/><path d="M15.075 14.274h1.433c.735 0 1.47.074 2.095.478.294.184.551.331.772.589.552.624 1.176 1.102 2.021 1.212.552.074 1.066.184 1.581.442.808.441 1.36 1.102 1.617 1.984.221.661.441 1.359.662 2.021.036.111.109.257-.037.331-.147.111-.258.074-.404-.037-.515-.367-.993-.735-1.508-1.102-.881-.625-1.8-1.25-2.682-1.911-.331-.221-.552-.515-.809-.772a3.465 3.465 0 00-2.278-.956h-.882c-.883 0-1.581-.367-2.28-.882-.441-.33-.845-.662-1.323-.956-.11-.073-.257-.183-.183-.33.037-.148.183-.148.33-.148.626.037 1.25.037 1.875.037z" fill="#780008"/><path d="M17.832 17.949a.203.203 0 01-.111.185c-.404.33-.809.661-1.213.956a41.57 41.57 0 01-2.021 1.469c-.368.257-.698.552-1.066.809-.221.147-.478.147-.551-.037-.074-.147 0-.294.037-.441.11-.331.256-.698.33-1.066.037-.184.184-.33.257-.514.221-.625.404-1.287.625-1.911.037-.111.074-.184.111-.258.073-.183.22-.22.367-.11a4.561 4.561 0 002.426.588c.183 0 .367-.037.551.037a.36.36 0 01.258.293z" fill="#0e2d51"/><path d="M12.318 9.607c.993 0 1.985-.037 2.977 0 .846.037 1.544.404 2.095 1.029.698.808 1.581 1.212 2.646 1.286 1.25.074 2.132.735 2.757 1.765.184.293.294.661.405.991.037.148.072.295-.074.368-.11.11-.258.037-.367-.073-.735-.588-1.581-.699-2.463-.772-.441-.036-.808-.221-1.213-.368-.515-.183-.845-.624-1.249-.992-.442-.404-.956-.698-1.544-.808-.956-.185-1.949-.074-2.904-.074a6.384 6.384 0 01-1.653-.221c-.258-.073-.442-.22-.663-.368-.587-.404-1.102-.918-1.727-1.322-.073-.037-.147-.074-.184-.11-.11-.074-.184-.148-.147-.257.037-.111.147-.111.258-.111.918.037 1.874.037 2.793.037h.257z" fill="#780008"/><path d="M29.001 9.827c0 .111-.037.184-.147.257-.552.405-1.139.846-1.691 1.25-.624.441-1.25.919-1.874 1.36a9.497 9.497 0 00-.956.735c-.22.147-.404.11-.552-.11-.477-.845-1.139-1.544-2.058-1.949a4.803 4.803 0 00-1.727-.44 2.463 2.463 0 01-1.58-.662c-.405-.404-.809-.845-1.36-1.102-.258-.148-.258-.295-.147-.589.184-.514.33-1.028.514-1.543.184-.552.368-1.066.552-1.617.183-.515.331-1.03.477-1.544.111-.367.258-.735.404-1.14 0-.146.111-.183.258-.183.111 0 .22.074.257.183.147.478.294.919.441 1.36.184.589.368 1.14.552 1.728.146.515.367.993.478 1.507.037.221.146.404.22.625.147.441.294.845.404 1.287.037.183.148.33.404.33h6.836c.148-.037.295.037.295.257z" fill="#0e2d51"/></svg>