<svg xmlns="http://www.w3.org/2000/svg" role="img" viewBox="0 0 38 24" width="38" height="24" aria-labelledby="pi-minicuotas"><title id="pi-minicuotas">Minicuotas</title><g clip-path="url(#pi-minicuotas-a)"><path opacity=".07" d="M35 0H3C1.3 0 0 1.3 0 3v18c0 1.7 1.4 3 3 3h32c1.7 0 3-1.3 3-3V3c0-1.7-1.4-3-3-3Z" fill="#000"/><path d="M35 1c1.1 0 2 .9 2 2v18c0 1.1-.9 2-2 2H3c-1.1 0-2-.9-2-2V3c0-1.1.9-2 2-2h32Z" fill="#fff"/><path fill-rule="evenodd" clip-rule="evenodd" d="M36 9H2v5.622h34V9ZM2.157 14.462V9.16h23.089v5.302H2.157Z" fill="#EE363D"/><path d="M31.335 11.388v-.007c.174-.076.29-.227.29-.476 0-.352-.237-.572-.71-.572h-.889v2.225h.899c.548 0 .778-.248.778-.648 0-.28-.127-.457-.368-.522Zm-.838-.634h.4c.184 0 .261.065.261.242 0 .176-.074.244-.25.244h-.411v-.486Zm.435 1.397H30.5v-.543h.421c.213 0 .294.075.294.262-.003.213-.088.281-.283.281Zm2.116-1.818h-.584l-.757 2.225h.517l.123-.436h.79l.123.436h.545l-.757-2.225Zm-.58 1.372.22-.76.06-.234h.006l.057.234.209.76h-.552Zm2.332.439c-.4 0-.542-.155-.542-.713 0-.525.135-.688.531-.688.163 0 .357.03.47.076v-.428a1.475 1.475 0 0 0-.498-.09c-.697 0-1.016.392-1.016 1.134 0 .792.326 1.166.984 1.166.19 0 .4-.05.545-.122v-.432c-.124.05-.315.097-.474.097Zm.198.911c0-.144.035-.187.145-.187a.35.35 0 0 1 .127.021v-.115a.39.39 0 0 0-.134-.025c-.188 0-.276.108-.276.306 0 .212.088.313.265.313.053 0 .11-.014.145-.032v-.116a.349.349 0 0 1-.127.03c-.106-.004-.145-.047-.145-.195Zm-4.852 0c0-.144.036-.187.145-.187.043 0 .096.007.128.021v-.115a.39.39 0 0 0-.135-.025c-.187 0-.276.108-.276.306 0 .212.089.313.266.313.053 0 .11-.014.145-.032v-.116a.35.35 0 0 1-.128.03c-.106-.004-.145-.047-.145-.195Zm.733.05c.064-.021.099-.079.099-.162 0-.13-.074-.187-.22-.187h-.215v.598h.134v-.224h.085l.103.224h.155l-.141-.249Zm-.12-.072h-.082v-.162h.085c.057 0 .081.018.081.08-.003.06-.028.082-.084.082Zm.484.069h.216v-.108h-.216v-.12h.259l-.004-.118h-.39v.601h.404v-.118h-.269v-.137Zm.602-.346h-.22v.598h.223c.174 0 .262-.087.262-.303 0-.205-.078-.295-.265-.295Zm0 .479h-.089v-.36h.085c.092 0 .128.032.128.176.003.155-.036.184-.124.184Zm.608-.486c-.184 0-.258.097-.258.31 0 .212.078.31.258.31.184 0 .259-.095.259-.31.003-.217-.07-.31-.259-.31Zm.004.497c-.088 0-.12-.04-.12-.191s.032-.187.12-.187c.092 0 .12.036.12.187s-.032.19-.12.19v.001Zm.683-.141-.021.061h-.004l-.021-.06-.135-.35h-.148v.601h.117v-.371h.003l.022.062.12.31h.088l.12-.31.022-.062h.003l-.003.065v.306h.12v-.601h-.145l-.138.35v-.001Zm.729-.349h-.16l-.205.598h.142l.032-.115h.212l.032.115h.149l-.202-.598Zm-.156.37.06-.204.018-.065h.004l.014.065.056.205-.152-.001Zm.347-.37-.004.122h.16v.48h.13v-.48h.16l-.004-.122h-.442Zm.548.601h.135v-.601h-.135v.601Zm-6.617-2.542 1.175.958-.315.785h-.86v-1.743Zm-.155-.565-2.038.558v.936l2.038-.893v-.601Zm0 .774-2.038.893v1.033l2.038-1.263v-.663Zm-.552 2.333h1.334v-.637h-.683l-.651.637Zm.552-1.483-2.038 1.264v.22h1.26l.778-.764v-.72Z" fill="#fff"/><path d="M6.412 10.254c0-.221.174-.386.394-.386a.386.386 0 0 1 0 .772.38.38 0 0 1-.394-.386ZM6.459 13.171l-.001-2.327h.703v2.327h-.702ZM2.69 10.026h.98l.663 1.795.655-1.795h.963v3.141h-.773v-1.916l-.744 1.916h-.291l-.747-1.917v1.917H2.69v-3.141ZM8.982 10.793c-.3 0-.522.119-.66.285v-.235h-.706v2.332h.706v-1.338c0-.152.046-.26.116-.33a.4.4 0 0 1 .29-.107c.125 0 .205.033.255.092.051.06.08.157.08.303v1.376h.706v-1.466c0-.307-.078-.537-.22-.69-.142-.153-.341-.222-.567-.222ZM10.156 10.254c0-.221.174-.386.394-.386a.386.386 0 1 1 0 .772.38.38 0 0 1-.394-.386ZM10.202 10.844h.703v2.327h-.703v-2.327ZM12.404 10.793a1.18 1.18 0 0 0-.833.322c-.215.209-.346.512-.346.885v.032c0 .376.125.673.338.876.212.203.507.308.838.31.326 0 .592-.095.78-.262a.964.964 0 0 0 .314-.679l.003-.055h-.651l-.005.046a.42.42 0 0 1-.136.287.424.424 0 0 1-.281.096.428.428 0 0 1-.354-.153c-.081-.1-.13-.256-.13-.473v-.032c0-.205.051-.358.133-.458a.42.42 0 0 1 .341-.153.402.402 0 0 1 .266.08.402.402 0 0 1 .126.255l.008.043h.67l-.004-.056c-.028-.332-.164-.562-.364-.708-.199-.145-.453-.203-.713-.203ZM13.758 10.843h.703v1.398c0 .146.03.243.08.303s.128.092.248.092a.4.4 0 0 0 .289-.107.45.45 0 0 0 .117-.331v-1.355h.703v2.328h-.703v-.233c-.135.166-.345.276-.643.276-.224 0-.424-.067-.568-.216-.144-.149-.226-.373-.226-.674v-1.481Z" fill="#EE363D"/><path fill-rule="evenodd" clip-rule="evenodd" d="M17.401 10.793c-.339 0-.641.118-.858.328h.001a1.193 1.193 0 0 0-.347.875v.033a1.167 1.167 0 0 0 .346.863c.217.208.517.322.854.322.34 0 .642-.115.858-.325.217-.21.346-.511.346-.875v-.032c0-.359-.129-.657-.345-.865a1.216 1.216 0 0 0-.855-.324Zm-.484 1.189c0-.207.049-.362.131-.465a.429.429 0 0 1 .353-.157.428.428 0 0 1 .355.161c.081.105.128.263.128.468v.029c0 .204-.047.36-.128.464a.427.427 0 0 1-.355.162.428.428 0 0 1-.357-.162c-.081-.105-.127-.262-.127-.468v-.032Z" fill="#EE363D"/><path d="M19 10.36h.702v.483h.46v.542h-.46v1.022c0 .082.02.133.049.163.028.03.073.048.14.048a.522.522 0 0 0 .212-.04l.07-.027v.588l-.035.011c-.089.03-.215.064-.384.064-.239-.002-.43-.064-.56-.194-.131-.131-.195-.322-.195-.563v-1.075h-.28v-.539H19v-.483Z" fill="#EE363D"/><path fill-rule="evenodd" clip-rule="evenodd" d="M21.477 10.793c-.274 0-.52.06-.704.192h-.001a.793.793 0 0 0-.325.615l-.005.055h.672l.006-.044a.308.308 0 0 1 .09-.197c.048-.044.122-.072.232-.072.13 0 .2.034.241.085.042.055.062.142.062.27v.039h-.197c-.338 0-.632.049-.844.169a.644.644 0 0 0-.343.595c0 .248.089.429.236.548.158.116.35.176.547.17.286 0 .478-.09.612-.224v.177h.688v-1.502c0-.315-.1-.537-.277-.68-.175-.14-.417-.196-.69-.196Zm-.424 1.671a.23.23 0 0 1 .03-.121v-.001a.213.213 0 0 1 .089-.077c.084-.043.213-.062.386-.062h.183v.135a.31.31 0 0 1-.115.25.47.47 0 0 1-.304.092c-.105 0-.171-.025-.21-.06-.039-.034-.059-.086-.059-.156Z" fill="#EE363D"/><path d="M23.029 10.974c.17-.123.397-.181.628-.181.247 0 .47.046.641.162.172.118.283.305.311.572l.006.056h-.654l-.007-.042c-.015-.084-.044-.137-.087-.17-.043-.035-.108-.054-.207-.054a.32.32 0 0 0-.197.053.152.152 0 0 0-.06.126c0 .028.005.048.014.064a.13.13 0 0 0 .052.047c.099.043.204.07.312.08.274.039.498.095.652.208.16.116.24.288.24.54 0 .254-.091.453-.263.586-.17.133-.413.197-.707.197-.3-.002-.546-.07-.72-.206-.175-.137-.271-.338-.283-.592l-.002-.054h.66l.006.045c.011.095.038.159.085.2.047.042.123.069.25.069.112 0 .185-.022.23-.055.042-.03.063-.074.063-.135a.132.132 0 0 0-.018-.072.163.163 0 0 0-.06-.054.986.986 0 0 0-.321-.086c-.292-.046-.506-.112-.646-.229-.144-.12-.204-.287-.204-.513 0-.25.113-.439.286-.562Z" fill="#EE363D"/></g><defs><clipPath id="pi-minicuotas-a"><path fill="#fff" d="M0 0h38v24H0z"/></clipPath></defs></svg>