<svg xmlns="http://www.w3.org/2000/svg" role="img" viewBox="0 0 38 24" width="38" height="24" aria-labelledby="pi-mobicred"><title id="pi-mobicred">mobicred</title><g clip-path="url(#pi-mobicred-a)"><path fill="#000" d="M35 0H3C1.3 0 0 1.3 0 3v18c0 1.7 1.4 3 3 3h32c1.7 0 3-1.3 3-3V3c0-1.7-1.4-3-3-3Z" opacity=".07"/><path fill="#fff" d="M35 1c1.1 0 2 .9 2 2v18c0 1.1-.9 2-2 2H3c-1.1 0-2-.9-2-2V3c0-1.1.9-2 2-2h32Z"/><path fill="#189B9E" d="M22.518 11.192c.459 0 .88.131 1.263.393.243.219.091.657-.238.657-.09 0-.196-.042-.32-.125a1.49 1.49 0 0 0-1.435.021c-.446.27-.731.75-.731 1.272 0 .632.447 1.24 1.064 1.405.416.111.851.05 1.228-.195.245-.129.561.035.561.32 0 .156-.08.275-.237.36-.79.478-1.777.395-2.512-.148a2.23 2.23 0 0 1-.852-1.747c0-1.2 1.018-2.213 2.21-2.213Zm2.204 0c.1 0 .199.049.294.147a.23.23 0 0 0 .117.03c.032 0 .1-.024.203-.073.565-.207 1.105-.106 1.574.272.052.052.078.08.078.082-.283.288-.43.432-.441.432a.178.178 0 0 1-.095.03c-.047 0-.112-.028-.195-.086-.535-.269-1.167.148-1.167.73v2.435c0 .296-.183.428-.355.428-.25 0-.393-.198-.393-.428V11.62c0-.298.18-.428.38-.428Zm2.952 2.205c0 .201.024.321.074.358a.196.196 0 0 0 .138.053c.043 0 .124-.05.242-.148.014-.005.595-.418 1.742-1.236a.192.192 0 0 0-.022-.303c-.568-.296-1.226-.204-1.716.212-.305.311-.458.666-.458 1.064Zm1.466-2.21c.613 0 1.153.232 1.616.697.168.184.251.322.251.414a.414.414 0 0 1-.12.316c-.793.64-1.666 1.192-2.496 1.786-.074.087-.084.206.04.29a1.518 1.518 0 0 0 1.69-.195c.2-.203.338-.41.428-.679.029-.141.07-.24.121-.294a.395.395 0 0 1 .264-.117c.172 0 .292.082.359.247a.301.301 0 0 1 .021.116c0 1.063-1.255 1.85-2.2 1.85a2.22 2.22 0 0 1-1.777-.925 2.292 2.292 0 0 1-.416-1.279c0-1.2 1.009-2.226 2.219-2.226Zm2.96 2.192c0 .834.673 1.488 1.5 1.488.794 0 1.427-.712 1.427-1.488 0-.759-.663-1.44-1.427-1.44-.788 0-1.5.624-1.5 1.44Zm3.29-3.964c.192 0 .39.157.39.359v5.486c0 .201-.187.359-.382.359-.15 0-.263-.08-.34-.238-.038-.098-.099-.147-.182-.147a.291.291 0 0 0-.156.056c-.974.583-2.338.335-2.974-.622a2.205 2.205 0 0 1-.398-1.284c0-1.197 1.038-2.196 2.23-2.196.407 0 .803.118 1.19.354.123.04.259-.038.259-.173V9.86c0-.214.126-.445.363-.445Z"/><path fill="#414142" fill-rule="evenodd" d="M11.787 11.188c1.183 0 2.178 1.043 2.178 2.217 0 1.176-.988 2.214-2.178 2.214-1.215 0-2.253-.986-2.253-2.218 0-1.222 1.038-2.213 2.252-2.213Zm-1.5 2.247c0 .768.669 1.432 1.435 1.432.808 0 1.491-.645 1.491-1.462 0-.768-.636-1.465-1.422-1.465-.825 0-1.505.655-1.505 1.495Zm4.836-3.821a.499.499 0 0 1 .052.26v1.53c0 .092.1.16.186.16.037 0 .14-.05.307-.148.324-.147.661-.22 1.016-.22 1.192 0 2.166 1.05 2.166 2.227a2.204 2.204 0 0 1-2.205 2.196c-.432 0-.839-.12-1.22-.359-.142-.088-.266.058-.31.186a.387.387 0 0 1-.32.173c-.188 0-.368-.168-.368-.359V9.778c0-.392.509-.448.696-.164Zm.052 3.821c0 .762.673 1.436 1.436 1.436.809 0 1.491-.652 1.491-1.47 0-.579-.398-1.218-.982-1.375a1.337 1.337 0 0 0-.445-.082c-.829 0-1.5.658-1.5 1.491Z" clip-rule="evenodd"/><path fill="#414142" d="M19.964 11.343a.38.38 0 0 1 .07.203v3.714c0 .393-.506.457-.697.169a.49.49 0 0 1-.051-.255V11.64c0-.378.42-.6.678-.298Zm-.289-1.639c.272 0 .45.24.45.493 0 .245-.226.441-.463.441a.47.47 0 0 1-.463-.48c0-.258.227-.454.476-.454ZM2.438 11.3a2.58 2.58 0 0 1 1.71-1.159 2.577 2.577 0 0 1 2.02.484c.295.22-.046.68-.342.46a2.012 2.012 0 0 0-1.574-.38c-.547.1-1.02.421-1.334.906-.198.307-.681 0-.48-.31Z"/><path fill="#414142" d="M2.302 10.856A2.65 2.65 0 0 1 4.06 9.66a2.65 2.65 0 0 1 2.075.5c.297.22.637-.238.341-.459a3.216 3.216 0 0 0-2.52-.604 3.218 3.218 0 0 0-2.135 1.447c-.2.31.282.619.481.31Zm6.572 1.251c.127.26.19.478.19.654v2.36c0 .509-.735.55-.735 0v-2.365c-.029-.356-.294-.638-.614-.763-.528-.224-1.327.125-1.327.75v2.378c0 .51-.744.552-.744 0v-2.378c0-1.017-1.852-1.066-1.941.013v2.365c0 .503-.735.55-.735 0v-2.36c0-.884.868-1.559 1.707-1.565.513.005.913.544 1.332.544.264 0 .434-.305.665-.405a1.88 1.88 0 0 1 .686-.14c.573.005 1.287.349 1.516.912Z"/></g><defs><clipPath id="pi-mobicred-a"><path fill="#fff" d="M0 0h38v24H0z"/></clipPath></defs></svg>
