<svg viewBox="0 0 38 24" xmlns="http://www.w3.org/2000/svg" data-name="Layer 1" width="38" height="24" role="img" aria-labelledby="pi-mobikwik"><title id="pi-mobikwik">MobiKwik</title><rect x=".5" y=".5" width="37" height="23" rx="3" ry="3" fill="#fff" stroke="#000" stroke-opacity=".07"/><path d="M31.15 8.52a3.33 3.33 0 0 0-1 .1c-.25.05-.49.17-.75.23a5.29 5.29 0 0 1-.65.07c.07-1 .12-2 .2-3a1 1 0 0 0-.87-1.15 7.37 7.37 0 0 0-1.07 0v-.41a.75.75 0 0 0-.94-.82l-.7.11-7 1.17v7.08a3.94 3.94 0 0 1-.2.91c-.08.31-.17.63-.26 1a.16.16 0 0 0 0 .14l3.75-7.33A1.07 1.07 0 0 1 22.91 6a1.06 1.06 0 0 1 .84 1.07v9.7a1.09 1.09 0 0 1-2.17 0v-5h-.08l-2.92 5.6q-.17.33-.36.63a1.09 1.09 0 0 1-1.21.45 1 1 0 0 1-.75-1V8.84h-.13l-5.42 10.29a1.12 1.12 0 1 1-2-1c.62-1.13 1.21-2.24 1.79-3.34l4.92-9.47-6.32 1a1.42 1.42 0 0 0-1.1.94v13.08A1 1 0 0 0 9 21h15.29a1.12 1.12 0 0 0 1.2-.92l.06-.23h1.1a.81.81 0 0 0 .75-.39 2.05 2.05 0 0 0 .27-.67c.08-.44.11-.9.16-1.35q.26-2.42.51-4.85a.19.19 0 0 1 .19-.2c.26 0 .5-.09.75-.14a4.5 4.5 0 0 0 1.86-.75A2 2 0 0 0 32 9.7a1.08 1.08 0 0 0-.85-1.18zm-3.37-2.6c-.1.67-.14 1.36-.21 2-.12 1.18-.23 2.36-.35 3.55L26.86 15q-.16 1.5-.33 3a.63.63 0 0 1-.87.53L27 4.78a6 6 0 0 1 .55.45.75.75 0 0 1 .23.68zm2.47 5a.86.86 0 0 1-.84-.92.85.85 0 0 1 .85-.85.86.86 0 0 1-.01 1.73zm.56-.92a.55.55 0 0 1-.54.54.54.54 0 1 1 .54-.54z" fill="#26bcbc"/><path d="M18 13.89zm-8.64 6a1.12 1.12 0 0 1-.57-1.74c.54-1.15 1.13-2.26 1.71-3.36l5.75-11.05a1.12 1.12 0 0 1 1.44-.61 1.13 1.13 0 0 0-1.49.57l-5.91 11.16c-.6 1.14-1.2 2.26-1.78 3.39a1.13 1.13 0 0 0 1.43 1.63 1.11 1.11 0 0 1-.62 0zM21.71 6.57A1.06 1.06 0 0 1 22.79 6a1.07 1.07 0 0 0-1.15.55c-.81 1.57-2.11 4.22-2.92 5.88zm1 11.28a1.09 1.09 0 0 1-1.09-1.09v-5h-.12.06v5.07a1.1 1.1 0 0 0 2.2 0v-.1a1.09 1.09 0 0 1-1.1 1.12zM23.73 7a1 1 0 0 1 0 .11V7zM17 18.44a1 1 0 0 1-.75-1v-8.6h-.12v8.7a1.06 1.06 0 0 0 .79 1 1.1 1.1 0 0 0 1.08-.3 1.09 1.09 0 0 1-1 .2z" fill="#00aaa8"/></svg>