<svg viewBox="0 0 38 24" xmlns="http://www.w3.org/2000/svg" role="img" width="38" height="24" aria-labelledby="pi-mode"><title id="pi-mode">Mode</title><path opacity=".07" d="M35 0H3C1.3 0 0 1.3 0 3v18c0 1.7 1.4 3 3 3h32c1.7 0 3-1.3 3-3V3c0-1.7-1.4-3-3-3z"/><path fill="#fff" d="M35 1c1.1 0 2 .9 2 2v18c0 1.1-.9 2-2 2H3c-1.1 0-2-.9-2-2V3c0-1.1.9-2 2-2h32"/><path d="M12.866 12.138v3.657a.439.439 0 01-.438.438h-.839a.438.438 0 01-.438-.439v-3.536c0-.783-.399-1.264-1.117-1.264-.758 0-1.237.506-1.237 1.503v3.298a.438.438 0 01-.437.438h-.84a.438.438 0 01-.438-.439v-3.536c0-.783-.399-1.264-1.117-1.264-.731 0-1.25.506-1.25 1.503v3.298a.438.438 0 01-.438.438h-.838A.438.438 0 013 15.795v-5.772a.439.439 0 01.439-.438h.838a.439.439 0 01.438.438v.267c.373-.559.997-.891 1.849-.891.824 0 1.435.345 1.808.957.412-.598 1.077-.957 1.981-.957 1.516 0 2.513 1.077 2.513 2.739zm14.921-4.712v8.2a.427.427 0 01-.427.426h-.815a.427.427 0 01-.427-.426v-.337c-.466.595-1.15.944-2.095.944-1.732 0-3.155-1.487-3.155-3.414s1.423-3.414 3.155-3.414c.944 0 1.63.35 2.095.944V7.426A.425.425 0 0126.545 7h.815a.426.426 0 01.427.426zm-1.669 5.393c0-1.086-.762-1.823-1.784-1.823-1.035 0-1.798.737-1.798 1.823 0 1.087.763 1.824 1.798 1.824 1.021 0 1.784-.738 1.784-1.824zm5.95 1.903c.512 0 .942-.17 1.24-.427a.43.43 0 01.497-.052l.62.357a.425.425 0 01.092.665c-.604.62-1.448.966-2.475.966-2.17 0-3.54-1.486-3.54-3.41 0-1.925 1.383-3.41 3.41-3.41 1.912 0 3.269 1.512 3.269 3.411 0 .102-.004.198-.012.293a.427.427 0 01-.425.39h-4.5c.235.855.946 1.217 1.824 1.217zm1.448-2.507c-.207-.93-.905-1.305-1.604-1.305-.892 0-1.499.478-1.693 1.305h3.297z" fill="#2A2A2A"/><path d="M16.866 13.67a.854.854 0 100-1.708.854.854 0 000 1.707z" fill="#FF2F4D"/><path d="M16.57 9.423a3.412 3.412 0 11-1.357 6.384.83.83 0 01.807-1.452 1.751 1.751 0 10-.896-1.38.832.832 0 01-1.367.72.833.833 0 01-.288-.575 3.416 3.416 0 013.101-3.697z" fill="#2A2A2A"/></svg>