<svg role="img" width="38" height="24" viewBox="0 0 38 24" fill="none" aria-labelledby="pi-mondu" xmlns="http://www.w3.org/2000/svg"><title id="pi-mondu">Mondu</title><rect width="38" height="24" rx="2" fill="#fff"/><rect x=".5" y=".5" width="37" height="23" rx="1.5" stroke="#000" stroke-opacity=".07"/><g clip-path="url(#pi-mondu-clip0_2032_551)" fill="#8B4AFF"><path d="M19.512 15.804h-1.32v-5.416h1.286v.723c.342-.563.97-.899 1.64-.879 1.355 0 2.005.957 2.005 2.147v3.426H21.8v-3.203c0-.667-.307-1.202-1.138-1.202-.752 0-1.15.567-1.15 1.28v3.124zM32.176 15.96c-1.321 0-2.096-.957-2.096-2.158v-3.415h1.32v3.181c0 .668.32 1.235 1.117 1.235.797 0 1.162-.5 1.162-1.212v-3.204H35v4.427c0 .444-.023.79 0 .99h-1.253c-.011-.2-.011-.401 0-.6-.273.489-.922.756-1.572.756M9.373 10.232a1.957 1.957 0 00-1.8.957 1.747 1.747 0 00-1.662-.957 1.905 1.905 0 00-1.64.845v-.689H3l.007 5.416h1.31V12.59c0-.69.445-1.201 1.15-1.201.753 0 1.071.49 1.071 1.112v3.303h1.297V12.59a1.136 1.136 0 011.15-1.201c.74 0 1.071.478 1.071 1.112v3.303h1.276V12.29c0-1.435-.957-2.058-1.96-2.058M29.291 8l-1.344.429v2.593c-.17-.345-.66-.779-1.629-.779-1.561 0-2.642 1.28-2.642 2.836 0 1.634 1.071 2.859 2.665 2.859.657.029 1.28-.29 1.628-.834v.7h1.321c-.011-.088 0-.5 0-.99V8h.001zm-2.801 6.803c-.9 0-1.492-.69-1.492-1.724s.638-1.692 1.503-1.692c.865 0 1.458.646 1.458 1.68 0 1.034-.604 1.735-1.47 1.735M14.763 10.25c-1.65 0-2.87 1.213-2.87 2.87s1.22 2.88 2.87 2.88c1.651 0 2.882-1.212 2.882-2.88s-1.219-2.87-2.882-2.87zm1.427 3.41a.617.617 0 01-.444.577l-2.326.743a.055.055 0 01-.069-.035.06.06 0 01-.003-.016v-2.34a.616.616 0 01.444-.576l2.327-.743a.055.055 0 01.069.035.064.064 0 01.002.017v2.34-.001z"/></g><defs><clipPath id="pi-mondu-clip0_2032_551"><path fill="#fff" transform="translate(3 8)" d="M0 0h32v8H0z"/></clipPath></defs></svg>