<svg xmlns="http://www.w3.org/2000/svg" role="img" viewBox="0 0 38 24" width="38" height="24" aria-labelledby="pi-mondupurple"><title id="pi-mondupurple">Mondu</title><path d="M35 0H3C1.3 0 0 1.3 0 3v18c0 1.7 1.4 3 3 3h32c1.7 0 3-1.3 3-3V3c0-1.7-1.4-3-3-3" opacity=".07"/><path fill="#8b4aff" d="M35 1c1.1 0 2 .9 2 2v18c0 1.1-.9 2-2 2H3c-1.1 0-2-.9-2-2V3c0-1.1.9-2 2-2z"/><path fill="#fff" d="M-2.838 18.715h.569l.176-.541.176.54h.569l-.46.335.175.54-.46-.334-.46.334.175-.54zM-9.438 21.1h.569l.176-.541.176.54h.569l-.46.335.175.54-.46-.334-.46.334.175-.54z"/><path fill="#fff" stroke="null" d="M19.92 15h-1.154v-4.853h1.125v.649c.298-.506.85-.807 1.434-.789 1.183 0 1.753.857 1.753 1.925v3.072h-1.154v-2.871c0-.599-.27-1.076-.997-1.076-.656 0-1.003.51-1.003 1.147v2.8zM30.985 15.14c-1.155 0-1.832-.857-1.832-1.932v-3.061h1.154v2.85c0 .598.28 1.107.975 1.107s1.014-.448 1.014-1.086v-2.871h1.155v3.968c0 .398-.022.706 0 .889h-1.094q-.015-.27 0-.538c-.24.437-.806.677-1.372.677M11.06 10.007a1.7 1.7 0 0 0-1.574.857 1.52 1.52 0 0 0-1.451-.857 1.66 1.66 0 0 0-1.434.757v-.617H5.49L5.497 15H6.64v-2.882c0-.616.387-1.075 1.004-1.075.656 0 .935.437.935.997V15h1.133v-2.882a1.013 1.013 0 0 1 .94-1.075h.067c.645 0 .936.427.936.997V15h1.114v-3.15c0-1.287-.835-1.843-1.713-1.843M28.461 8.007l-1.175.384v2.322c-.15-.308-.577-.699-1.423-.699-1.366 0-2.309 1.147-2.309 2.542 0 1.466.936 2.562 2.33 2.562a1.59 1.59 0 0 0 1.423-.749v.628h1.154c-.01-.08 0-.449 0-.89V8zm-2.444 6.097c-.785 0-1.305-.616-1.305-1.545s.56-1.516 1.312-1.516 1.272.577 1.272 1.505-.527 1.556-1.283 1.556M15.77 10.025c-1.445 0-2.506 1.086-2.506 2.57s1.065 2.58 2.505 2.58 2.517-1.085 2.517-2.58-1.065-2.57-2.517-2.57m1.248 3.054a.55.55 0 0 1-.387.516l-2.033.667c-.025.007-.053-.007-.06-.033v-2.1109999999999998a.55.55 0 0 1 .387-.516l2.032-.666c.025-.008.054.007.06.032v2.1109999999999998z" class="cls-2"/></svg>