<svg viewBox="0 0 38 24" width="38" height="24" fill="none" role="img" aria-labelledby="pi-mondido" version="1.1" id="pi-mondido-svg4" xmlns="http://www.w3.org/2000/svg"><title id="pi-mondido">Mondido</title><path opacity=".07" fill-rule="evenodd" clip-rule="evenodd" d="M35 0H3C1.3 0 0 1.3 0 3v18c0 1.7 1.4 3 3 3h32c1.7 0 3-1.3 3-3V3c0-1.7-1.4-3-3-3z" fill="#000" id="pi-mondido-path2" display="inline"/><path fill-rule="evenodd" clip-rule="evenodd" d="M35 1c1.1 0 2 .9 2 2v18c0 1.1-.9 2-2 2H3c-1.1 0-2-.9-2-2V3c0-1.1.9-2 2-2z" fill="#fff" id="pi-mondido-path3" display="inline"/><g id="pi-mondido-layer2" fill="#1a1a1a" stroke-width=".026" display="inline"><path d="M8.18 9.919h-.479a.167.167 0 00-.153.094l-1.32 2.568c-.006.01-.019.01-.024 0l-1.336-2.57a.173.173 0 00-.153-.095h-.467a.174.174 0 00-.173.173v3.805c0 .094.076.173.173.173h.378a.174.174 0 00.173-.173v-2.392c0-.005.005-.01.013-.013.002 0 .007.003.013.008l1.272 2.343a.135.135 0 00.12.072.142.142 0 00.12-.072l1.267-2.343a.016.016 0 01.015-.008c.005.003.01.008.01.013v2.395c0 .094.077.173.174.173h.382a.174.174 0 00.174-.173v-3.808a.18.18 0 00-.179-.17z" id="pi-mondido-path2-5" display="inline"/><path d="M12.821 10.508a2.077 2.077 0 00-1.466-.607h-.018c-.265 0-.53.056-.783.165a2.048 2.048 0 00-.655.442 2.044 2.044 0 00-.607 1.471 2.024 2.024 0 00.605 1.471c.173.176.387.324.632.434a.06.06 0 00.03.007c.258.105.528.161.799.164.275-.003.545-.056.806-.164a2.119 2.119 0 001.101-1.106c.105-.255.158-.528.158-.809a2.11 2.11 0 00-.158-.81c-.1-.24-.25-.462-.444-.658zm-2.397.543l.016-.013c.244-.247.55-.375.905-.375h.02c.36 0 .671.13.926.388.252.257.383.571.383.936.002.357-.128.673-.383.938a1.298 1.298 0 01-.938.385c-.36 0-.674-.13-.929-.388a1.295 1.295 0 01-.39-.938c0-.367.13-.68.39-.933z" id="pi-mondido-path3-3"/><path d="M17.97 9.9h-.377a.174.174 0 00-.174.174v2.772c0 .005-.002.01-.013.013-.005 0-.007-.003-.01-.005l-2.249-2.887a.167.167 0 00-.135-.066h-.472a.174.174 0 00-.173.173v3.807c0 .095.076.174.173.174h.378a.174.174 0 00.173-.174v-2.774c0-.005.002-.01.013-.013.005 0 .007.003.01.005l2.252 2.89a.167.167 0 00.135.066h.471a.174.174 0 00.174-.174v-3.81a.177.177 0 00-.176-.17z" id="pi-mondido-path4-5"/><path d="M22.241 10.528a2.173 2.173 0 00-.66-.441 2.035 2.035 0 00-.798-.166h-1.334a.174.174 0 00-.173.174v3.804c0 .094.076.174.173.174h1.334c.27 0 .538-.054.798-.161.255-.112.477-.263.66-.449a2.23 2.23 0 00.439-.658 2.056 2.056 0 000-1.62 2.233 2.233 0 00-.439-.657zm-2.244 2.818c-.002-.003-.005-.005-.005-.01l.003-2.688h.795c.355 0 .671.132.936.395.263.268.395.59.395.956 0 .373-.132.697-.395.96a1.313 1.313 0 01-.948.392h-.77c-.006 0-.008-.003-.01-.005z" id="pi-mondido-path5"/><path d="M24.363 9.908h-.378a.174.174 0 00-.173.174v3.815c0 .094.077.173.173.173h.378a.174.174 0 00.173-.173v-3.818a.175.175 0 00-.173-.17z" id="pi-mondido-path6"/><path d="M28.637 10.528a2.173 2.173 0 00-.66-.441 2.035 2.035 0 00-.799-.166h-1.334a.174.174 0 00-.173.174v3.804c0 .094.077.174.173.174h1.334c.27 0 .538-.054.798-.161.255-.112.477-.263.66-.449.19-.196.337-.418.44-.658a2.056 2.056 0 000-1.62 2.184 2.184 0 00-.44-.657zm-.12 1.471c0 .373-.133.697-.395.96a1.313 1.313 0 01-.949.392h-.77a.02.02 0 01-.01-.005c-.003-.003-.005-.005-.005-.01l.002-2.688h.796c.354 0 .67.132.936.395.262.268.395.59.395.956z" id="pi-mondido-path7"/><path d="M33.959 11.168a2.077 2.077 0 00-1.913-1.267h-.018c-.265 0-.53.056-.783.165a2.048 2.048 0 00-.655.442 2.044 2.044 0 00-.607 1.471c0 .283.054.556.158.81a2.078 2.078 0 001.079 1.094.06.06 0 00.03.008c.258.105.528.161.799.164.275-.003.545-.056.805-.164.25-.11.47-.257.656-.446a2.038 2.038 0 00.604-1.469 2.075 2.075 0 00-.155-.808zm-2.846-.117l.015-.013c.245-.247.55-.375.905-.375h.02c.36 0 .671.13.926.388.253.257.383.571.383.936.002.357-.128.673-.383.938a1.298 1.298 0 01-.938.385c-.36 0-.673-.13-.928-.388a1.295 1.295 0 01-.39-.938 1.27 1.27 0 01.39-.933z" id="pi-mondido-path8" display="inline"/></g></svg>