<svg viewBox="0 0 38 24" xmlns="http://www.w3.org/2000/svg" version="1.1" width="38" height="24" role="img" aria-labelledby="pi-monero"><title id="pi-monero">Monero</title><path opacity="1" fill="#fff" fill-opacity="1" stroke="none" stroke-width=".1" stroke-miterlimit="4" stroke-dasharray="none" stroke-opacity="1" d="M-1.977-.371h42.35v25.52h-42.35z"/><path d="M-1.132 11.97V1.49h39.945v20.96H-1.132z" fill="#fdfdfd"/><path d="M17.324 22.383a10.486 10.486 0 0 1-7.413-4.914c0-.015.989-.028 2.198-.028h2.198v-2.76c0-1.52.012-2.762.026-2.762.014 0 1.038 1.013 2.275 2.25l2.25 2.25 2.249-2.25c1.237-1.237 2.26-2.25 2.275-2.25.014 0 .026 1.243.026 2.761v2.76h2.198c1.21 0 2.198.01 2.198.022 0 .038-.429.673-.634.937a10.504 10.504 0 0 1-6.812 3.986c-.624.092-2.423.09-3.034-.002zM8.79 14.961a9.921 9.921 0 0 1-.413-2.956c0-.973.093-1.733.322-2.624a10.523 10.523 0 0 1 6.681-7.276c1.232-.432 2.345-.602 3.727-.572 1.168.026 2 .167 3.056.519a10.504 10.504 0 0 1 7.036 8.201c.112.658.149 1.25.128 2.058-.026 1.001-.119 1.615-.389 2.582l-.122.435h-3.16V6.517l-3.4 3.4-3.4 3.4-3.4-3.4-3.4-3.4v8.811h-3.16z" fill="#fecbab"/><path d="M17.648 22.428a10.58 10.58 0 0 1-7.1-4.024c-.208-.269-.637-.904-.637-.942 0-.012.989-.021 2.198-.021h2.198v-2.76c0-1.52.012-2.762.026-2.762.014 0 1.038 1.013 2.275 2.25l2.25 2.25 2.249-2.25c1.237-1.237 2.26-2.25 2.275-2.25.014 0 .026 1.243.026 2.761v2.76h2.198c1.21 0 2.198.009 2.198.019 0 .027-.159.269-.414.63-.75 1.062-1.867 2.119-2.946 2.788-1.213.752-2.409 1.21-3.848 1.475-.365.067-.539.076-1.62.083-.665.005-1.263.001-1.328-.007zM8.91 15.301c-.044-.07-.231-.761-.308-1.137-.168-.82-.206-1.21-.206-2.16 0-.95.037-1.338.207-2.164.308-1.505 1.02-3.026 2.024-4.328.321-.417 1.32-1.417 1.738-1.738a11.345 11.345 0 0 1 1.857-1.16c1.113-.548 2.05-.833 3.323-1.011.594-.083 2.025-.083 2.625 0 1.253.175 2.228.471 3.323 1.01a10.46 10.46 0 0 1 4.385 4.065c1.468 2.476 1.843 5.444 1.041 8.25l-.11.383-1.575.009-1.577.008V6.517l-3.4 3.4-3.4 3.4-3.39-3.392-3.392-3.391-.017 4.388-.017 4.389-1.557.009c-.857.004-1.565-.004-1.574-.019z" fill="#a3a3a3"/><path d="M17.511 22.397a10.516 10.516 0 0 1-7.361-4.568l-.248-.371 2.203-.009 2.202-.009v-5.537l2.276 2.274 2.275 2.275 2.258-2.258 2.258-2.258v5.505h4.436l-.076.128c-.148.247-.63.908-.863 1.18a10.498 10.498 0 0 1-6.712 3.65c-.522.068-2.134.066-2.648-.002zM8.91 15.3c-.044-.07-.231-.761-.308-1.137-.168-.82-.206-1.21-.206-2.16 0-.95.037-1.338.207-2.164.308-1.505 1.02-3.026 2.024-4.328.321-.417 1.32-1.417 1.738-1.738a11.345 11.345 0 0 1 1.857-1.16c1.113-.548 2.05-.833 3.323-1.011.594-.083 2.025-.083 2.625 0 1.253.175 2.228.471 3.323 1.01a10.46 10.46 0 0 1 4.385 4.065c1.468 2.476 1.843 5.444 1.041 8.25l-.11.383-1.575.009-1.577.008v-8.81l-3.4 3.4-3.4 3.4-3.39-3.392-3.392-3.391-.017 4.388-.017 4.389-1.557.009c-.857.004-1.565-.004-1.574-.019z" fill="#fe9753"/><path d="M17.511 22.397a10.516 10.516 0 0 1-7.361-4.568l-.248-.371 2.203-.009 2.202-.009v-5.537l2.276 2.274 2.275 2.275 2.258-2.258 2.258-2.258v5.505h4.436l-.076.128c-.148.247-.63.908-.863 1.18a10.498 10.498 0 0 1-6.712 3.65c-.522.068-2.134.066-2.648-.002zm-8.734-7.555c-.283-1.018-.377-1.726-.377-2.837 0-.882.045-1.363.201-2.122a10.482 10.482 0 0 1 8.995-8.278c.609-.08 1.913-.08 2.523 0 3.355.438 6.17 2.318 7.853 5.244 1.245 2.165 1.657 4.858 1.124 7.348-.072.34-.209.853-.268 1.008l-.033.089h-3.138V6.517L22.274 9.9c-1.86 1.86-3.398 3.383-3.416 3.383-.02 0-1.564-1.53-3.434-3.4l-3.4-3.4v8.811H8.903z" fill="#fe883b"/><path d="M17.511 22.397a10.516 10.516 0 0 1-7.361-4.568l-.248-.371 2.203-.009 2.202-.009v-5.537l2.276 2.274 2.275 2.275 2.258-2.258 2.258-2.258v5.505h4.436l-.076.128c-.148.247-.63.908-.863 1.18a10.498 10.498 0 0 1-6.712 3.65c-.522.068-2.134.066-2.648-.002zM8.885 15.2c-.147-.386-.367-1.441-.444-2.123-.058-.526-.05-1.734.017-2.28.29-2.378 1.317-4.501 2.985-6.175 1.691-1.695 3.812-2.727 6.207-3.018.56-.068 1.732-.076 2.281-.016 1.929.211 3.776.945 5.273 2.094 2.127 1.632 3.56 4.016 3.978 6.617.099.62.126.981.126 1.705a9.968 9.968 0 0 1-.388 2.88l-.113.392-1.558.008-1.558.01v-4.398c0-2.418-.011-4.397-.025-4.397-.014 0-1.552 1.526-3.417 3.391l-3.391 3.392-3.392-3.392c-1.865-1.865-3.403-3.39-3.417-3.39-.014 0-.025 1.978-.025 4.396v4.397H8.92z" fill="#fe6500"/><path d="M17.511 22.397a10.516 10.516 0 0 1-7.361-4.568l-.248-.371 2.203-.009 2.202-.009v-5.537l2.276 2.274 2.275 2.275 2.258-2.258 2.258-2.258v5.505h4.436l-.076.128c-.148.247-.63.908-.863 1.18a10.498 10.498 0 0 1-6.712 3.65c-.522.068-2.134.066-2.648-.002z" fill="#757575"/><path d="M17.613 22.402a10.495 10.495 0 0 1-6.941-3.87c-.207-.257-.727-.998-.727-1.036 0-.011.985-.024 2.19-.03l2.19-.008.008-2.76.009-2.761 2.258 2.258 2.258 2.257 2.25-2.25 2.249-2.249.017 2.753.017 2.752 2.195.017 2.195.017-.231.34a10.595 10.595 0 0 1-3.12 3.034c-.487.308-1.49.797-2.028.99-.553.198-1.325.397-1.926.494-.383.063-.629.077-1.482.086-.71.008-1.132-.003-1.38-.034z" fill="#4b4b4b"/></svg>