<svg width="38" height="24" viewBox="0 0 38 24" xmlns="http://www.w3.org/2000/svg" fill="none" role="img" aria-labelledby="pi-monizze"><title id="pi-monizze">Monizze</title><path d="M35 0H3C1.3 0 0 1.3 0 3v18c0 1.7 1.4 3 3 3h32c1.7 0 3-1.3 3-3V3c0-1.7-1.4-3-3-3z" fill="#010101" opacity=".07"/><path fill="#fff" d="M35 1c1.1 0 2 .9 2 2v18c0 1.1-.9 2-2 2H3c-1.1 0-2-.9-2-2V3c0-1.1.9-2 2-2h32"/><path d="M11.49 18.64l-.92.11-.39-2.49h-.04l-1.21 2.49-1.23-2.49h-.04l-.37 2.49-.89-.11.92-5.04 1.61 3.33 1.59-3.28h.03c.32 1.66.63 3.31.95 4.99zm19.28-.98c-.31.2-.68.29-1.04.27-.26 0-.5-.15-.63-.38l1.24-.77 1.26-.79c-.04-.07-.07-.13-.1-.18a1.96 1.96 0 00-3.02-.4c-.77.67-.85 1.84-.18 2.61l.06.06c.64.68 1.43.79 2.3.54.27-.07.52-.19.74-.36l-.38-.76-.25.16zm-1.48-1.89c.38-.23.86-.19 1.19.1l-1.71 1.04c-.09-.45.12-.91.52-1.14zm-13.59.73a2 2 0 00-2.01-1.61v-.04c-.26.05-.52.12-.78.2a1.89 1.89 0 00-1.1 2.44c.05.12.11.24.18.35.6.89 1.77 1.17 2.71.66.73-.38 1.14-1.19.99-2.01zm-1.99 1.43c-.62-.04-1.09-.57-1.05-1.18s.57-1.09 1.18-1.05c.59.03 1.06.53 1.06 1.12a1.15 1.15 0 01-1.18 1.12zm3.42-2.54c.15-.21.37-.37.62-.45.53-.11 1.04-.11 1.45.33.21.24.31.55.3.87v2.37c0 .09-.02.14-.13.14-.26 0-.51.03-.77.05v-2.37c0-.1-.02-.2-.05-.3a.614.614 0 00-.79-.36c-.02 0-.04.02-.06.03a.87.87 0 00-.55.87v1.9c0 .13-.03.18-.17.18-.23 0-.47.03-.71.04v-3.55c0-.12.03-.17.16-.17.23 0 .45-.04.69-.07v.47h.02zm7.36-.4l-1.68 2.87h1.68c-.05.26-.09.48-.15.71-.01.04-.05.06-.09.07H21.5l-.03-.02 1.68-2.84h-1.48c.06-.26.12-.49.18-.73.02-.03.05-.05.09-.05h2.55zm1.47 2.88h1.68c-.05.25-.09.48-.14.7 0 .04-.09.07-.15.07h-2.73l1.68-2.87h-1.46c.06-.25.1-.47.16-.69.02-.04.05-.07.09-.08h2.55l-1.68 2.87zm-5.77.83v-3.55c0-.13.03-.17.17-.18.23 0 .47-.04.72-.07v3.58c0 .12-.04.15-.15.16l-.73.06zm-.11-4.7l.55-.57.59.59-.57.59-.58-.61z" fill="#626161"/><path fill="#f0811a" d="M19 11.48h-2.83c-.3 0-.28 0-.28-.3v-5.5c0-.51 0-.44.43-.44h5.64c.06.01.11.06.13.12.01.08.01.16 0 .24v5.62c0 .26 0 .26-.26.26H19z"/><path fill="#f0811a" d="M19.66 9.33c.56.25 1.01.16 1.35-.28.29-.34.33-.84.09-1.23-.33-.57-.83-.68-1.44-.43.02-.24-.09-.26-.25-.19-.02 0-.05.02-.07.02-.2 0-.26.11-.26.3v2.21c0 .47-.03.37.38.3.15-.03.2-.11.19-.25s0-.27 0-.44zm-.77-2.81c-.08 0-.16.02-.23.03-.42.09-.34.08-.35.42v1.51c.01.23-.16.42-.39.43a.406.406 0 01-.43-.39V6.51c-.15.03-.27.06-.4.08s-.19.1-.18.24v1.66c-.04.5.34.93.83.97.5.12 1.01-.2 1.13-.7.02-.09.03-.19.02-.28V6.53z"/><path fill="#fff" d="M19.66 9.33v.46c0 .14-.04.23-.19.25-.42.07-.38.17-.38-.3V7.53c0-.2.06-.3.26-.3.02 0 .05-.01.07-.02.16-.07.28-.05.25.19.61-.25 1.11-.14 1.44.43.24.39.2.88-.09 1.23-.35.42-.79.5-1.36.26z"/><path fill="#fff" d="M20.7 8.38a.575.575 0 00-.54-.59c-.31.02-.56.28-.57.59.01.3.25.55.55.57.29 0 .54-.22.55-.52v-.05zm-1.81-1.86v1.95c.04.52-.35.96-.87 1-.09 0-.19 0-.28-.02a.91.91 0 01-.82-.97V6.82c0-.14.04-.22.18-.24s.25-.05.4-.08v1.95c-.03.22.14.43.36.45.22.03.43-.14.45-.36V6.97c0-.34-.08-.33.35-.42.07-.01.15-.03.22-.03z"/><path fill="#f0811a" d="M20.7 8.38c.01.29-.21.54-.51.56h-.04a.596.596 0 01-.56-.57.6.6 0 01.57-.59c.32.02.56.29.54.61z"/></svg>