<svg width="38" height="24" viewBox="0 0 38 24" fill="none" xmlns="http://www.w3.org/2000/svg" role="img" aria-labelledby="pi-monzo"><title id="pi-monzo">Monzo</title><g clip-path="url(#clip0_39_79)"><path opacity=".07" d="M35 0H3C1.3 0 0 1.3 0 3v18c0 1.7 1.4 3 3 3h32c1.7 0 3-1.3 3-3V3c0-1.7-1.4-3-3-3z" fill="#000"/><path d="M35 1c1.1 0 2 .9 2 2v18c0 1.1-.9 2-2 2H3c-1.1 0-2-.9-2-2V3c0-1.1.9-2 2-2h32z" fill="#fff"/><g clip-path="url(#clip1_39_79)"><path d="M28 15.701a.832.832 0 01-.244.59l-3.733 3.732a.338.338 0 01-.365.071.328.328 0 01-.206-.307v-8.363l4.494-4.468H28V15.7z" fill="#E34B5F"/><path d="M25.02 3.977a.333.333 0 00-.47 0L19 9.527h-.077v6.263l.077.164 8.999-8.999-2.978-2.978z" fill="#E7CE9C"/><path d="M10 15.701c0 .221.087.433.244.59l3.732 3.732a.337.337 0 00.365.072.328.328 0 00.206-.307v-8.364l-4.495-4.468H10V15.7z" fill="#1E7889"/><path d="M13.45 3.977a.333.333 0 00-.472 0L10 6.956l9 9V9.527l-5.55-5.55z" fill="#97BAA6"/></g></g><defs><clipPath id="pi-monzo-clip0_39_79"><path fill="#fff" d="M0 0h38v24H0z"/></clipPath><clipPath id="pi-monzo-clip1_39_79"><path fill="#fff" transform="translate(10 3)" d="M0 0h18v18H0z"/></clipPath></defs></svg>