<svg width="38" height="24" viewBox="0 0 38 24" fill="none" xmlns="http://www.w3.org/2000/svg" role="img" aria-labelledby="pi-moov"><title id="pi-moov">Moov</title><g clip-path="url(#pi-moov-clip0)"><path d="M35 .5H3A2.5 2.5 0 00.5 3v18A2.5 2.5 0 003 23.5h32a2.5 2.5 0 002.5-2.5V3A2.5 2.5 0 0035 .5z" stroke="#000" stroke-opacity=".07"/><g clip-path="url(#pi-moov-clip1)"><path d="M1 1h36v22H1V1z" fill="#FB751F"/><path d="M8.958 10.213l.095.045.71 2.338.048.183.118-.114.26-.413.308-.527.332-.55.332-.573.213-.344.023-.023h1.445l-.071.596-.332 2.292-.331 2.246-.048.275-.023.023h-1.398l-.023-.023.024-.252.213-1.375.213-.94-.095.092-.284.527-.355.664-.237.413-.048.092h-.97l-.072-.115-.094-.344-.237-.916-.095-.39h-.047l-.048.78-.142 1.145-.095.619-.023.023H6.803v-.16l.19-1.215.378-2.636.19-1.306.047-.115 1.35-.022zM30.771 11.083l.047.023.048.298.284 1.536.237 1.26.023.206-.023.046-.83.275-.71.184-.734.137-.52.069-1.209.114-.592.023-.047.207-.095.458-.142.366-.166.276-.142.183-.26.206-.38.183-.378.092h-.474l-.379-.069-.332-.114-.379-.207-.213-.16.024-.092.284-.275.213-.252.095-.114.142.023.095.068.332.092h.45l.189-.092.166-.229.023-.091-.165.023h-.758l-.308-.092-.237-.138-.19-.183-.165-.32-.048-.207v-.527l.119-.917.237-1.535.047-.138h1.279v.184l-.308 2.13-.047.299v.275l.118.114.071.023h.284l.166-.069.142-.893.284-2.017.024-.046h1.326l-.047.413-.237 1.65-.19 1.306-.023.114.9-.114.71-.16.711-.184.971-.298.687-.229h.047l-.236-1.146-.166-.916v-.092l-.663.252-.45.16-.569.184-1.16.298-.095-.023.071-.069.663-.252.663-.298.521-.275.403-.23.497-.32.308-.252.166-.115zM14.429 11.61h.616l.355.092.332.16.236.207.166.229.095.23v.595l-.19 1.26-.118.367-.118.23-.19.228-.19.16-.33.184-.356.138-.237.046h-.687l-.379-.092-.331-.16-.214-.184-.142-.23-.094-.251-.024-.138v-.275l.166-1.123.07-.412.12-.298.165-.252.213-.23.284-.205.332-.16.45-.116zM17.887 11.61h.781l.498.115.355.183.213.207.166.32.024.092v.619l-.308 2.062-.071.436-.024.023h-1.303l-.023-.023.023-.23.332-2.245v-.23l-.071-.114-.095-.046h-.402l-.048.16-.19 1.307-.212 1.375-.024.046h-1.326v-.184l.142-.985.19-1.306.165-1.009.024-.206.094-.091.38-.138.378-.092.332-.046zM21.818 11.61h.616l.355.092.308.16.237.23.142.275.048.183v.504l-.095.321-.19.32-.189.184-.26.16-.261.115-.26.069h-.806l-.118-.023.047.23.095.137.095.069.094.022h.427l.19-.068.117-.092h.119l.592.573-.024.092-.213.183-.308.183-.402.16-.237.046h-.71l-.38-.091-.355-.184-.237-.229-.165-.32-.072-.275v-.253l.119-.87.095-.527.118-.344.19-.321.213-.23.26-.183.355-.183.332-.092.118-.022z" fill="#FEFEFE"/><path d="M20.847 7.646h.474l.332.069.308.114.284.206.142.23.095.298.047.366-.024 1.123-.094.275-.166.23-.213.183-.332.16-.284.069-.166.023h-.331l-.38-.069-.284-.115-.236-.183-.166-.183-.095-.184-.024-.091V8.448l.071-.183.213-.252.285-.207.213-.091.331-.07zM17.91 7.646h.474l.237.046.379.137.26.184.143.183.094.183.024.115.024.779v.756l-.048.275-.165.23-.214.183-.378.183-.261.069-.166.023h-.379l-.331-.069-.308-.137-.26-.184-.12-.137-.094-.16-.047-.184-.024-.573.024-1.054.07-.206.166-.207.214-.183.236-.138.285-.091.165-.023zM13.6 7.669h.592l.118.114.119.23.284.641.19.458.07.046.095-.183.285-.642.236-.504.095-.137.048-.023h.497l.26.023.024.023.024 3.116-.047.069-.332.046h-.45l-.071-.046v-.848l.047-.344.024-.183-.119.115-.165.412-.095.298-.071.069-.071.023h-.521l-.071-.07-.285-.755-.118-.046.071.481.024.252v.527l-.048.069-.379.046h-.355l-.118-.046V7.783l.047-.068.166-.046zM22.837 7.669h.355l.095.046.19.55.165.504.166.55.095.481.07.069.048-.367.237-.756.284-.848.095-.206.047-.023h.616l.237.023-.047.206-.261.664-.45 1.215-.19.527-.213.55-.094.069-.166.023h-.521l-.095-.115-.213-.573-.26-.687-.261-.665-.26-.71-.096-.23-.094-.251.024-.023.497-.023z" fill="#005EAA"/><path d="M18.147 8.38l.26.045.19.137.072.115.023.092v1.146l-.07.114-.143.115-.166.069-.237.022-.26-.091-.119-.092-.07-.137-.024-.596v-.55l.047-.16.213-.161.284-.069zM21.06 8.38l.214.022.19.092.141.137.024.069v1.237l-.166.184-.213.091-.26.023-.285-.137-.095-.115-.023-.046-.024-.39v-.824l.071-.138.19-.137.236-.069z" fill="#FB751F"/><path d="M31.126 14.796l.119.023.095.458v.115l-.735.091-1.137.092h-1.35l-.758-.069-.378-.046-.048-.023v-.045l.805-.023 1.043-.092.781-.115.9-.183.616-.16.047-.023zM31.15 15.552l.047.023.071.39v.137l-.19.046-.591.046h-.332l-.592-.023-.805-.092-.616-.114-.876-.207-.213-.068v-.046h.213l.474.069.592.045.52.023h.45l.853-.069.64-.091.355-.069z" fill="#FEFEFE"/><path d="M14.476 12.756h.166l.19.115.047.091v.23l-.19 1.214-.094.16-.19.092-.142.023-.166-.068-.094-.115-.024-.206.166-1.192.07-.183.12-.092.141-.069zM21.842 12.688h.237l.118.068.095.115.024.206-.119.206-.165.138-.19.069-.284-.046-.071-.046.024-.298.047-.183.118-.138.166-.091z" fill="#FB751F"/></g></g><defs><clipPath id="pi-moov-clip0"><path fill="#fff" d="M0 0h38v24H0z"/></clipPath><clipPath id="pi-moov-clip1"><rect x="1" y="1" width="36" height="22" rx="2" fill="#fff"/></clipPath></defs></svg>