<svg role="img" viewBox="0 0 38 24" width="38" height="24" aria-labelledby="pi-multisafepay" xmlns="http://www.w3.org/2000/svg"><title id="pi-multisafepay">MultiSafepay</title><path opacity=".07" d="M35 0H3C1.3 0 0 1.3 0 3v18c0 1.7 1.4 3 3 3h32c1.7 0 3-1.3 3-3V3c0-1.7-1.4-3-3-3z"/><path fill="#fff" d="M35 1c1.1 0 2 .9 2 2v18c0 1.1-.9 2-2 2H3c-1.1 0-2-.9-2-2V3c0-1.1.9-2 2-2h32"/><path fill="#00abee" d="M7.68 10h.912l.878 2.168.857-2.168h.901v3.12h-.758v-1.872l-.703 1.872h-.615l-.692-1.883v1.883h-.78zm6.393 3.12h-.758v-.34a.917.917 0 01-.747.362c-.571 0-.967-.394-.967-1.062v-1.445h.758v1.357c0 .34.187.526.473.526.296 0 .483-.186.483-.526v-1.357h.758v2.485zm.374-3.284h.758v3.284h-.758zm1.252 1.424h-.308v-.625h.308V10h.758v.635h.494v.624h-.483v1.007c0 .142.066.208.23.208h.275v.646h-.384c-.517 0-.88-.219-.88-.865v-.995zm1.45-1.282c0-.23.186-.416.45-.416s.45.186.45.416c0 .23-.186.405-.45.405-.275 0-.45-.186-.45-.405zm.066.657h.758v2.485h-.758z"/><path fill="#004a71" d="M19.5 13.153c-.67 0-1.209-.329-1.23-.974h.812c.022.24.176.35.384.35.22 0 .363-.11.363-.296 0-.58-1.57-.262-1.56-1.379 0-.591.483-.93 1.154-.93.68 0 1.153.339 1.175.941h-.824c-.01-.197-.154-.317-.362-.328-.187 0-.319.087-.319.284 0 .537 1.549.296 1.549 1.347 0 .547-.418.985-1.143.985zm2.383-2.551c.374 0 .626.165.77.383v-.35h.757v2.485h-.758v-.35c-.143.219-.395.383-.769.383-.604 0-1.098-.493-1.098-1.292-.011-.766.483-1.259 1.098-1.259zm.22.657c-.286 0-.538.208-.538.602s.252.613.538.613.538-.219.538-.613c0-.383-.253-.602-.538-.602zm1.757.001h-.274v-.625h.274v-.066c0-.645.396-.974 1.165-.94v.656c-.297-.022-.396.066-.396.328v.022h.407v.624h-.407v1.861h-.758v-1.86zm2.46 1.893c-.724 0-1.262-.493-1.262-1.28 0-.789.516-1.282 1.263-1.282.725 0 1.241.482 1.241 1.237a1.53 1.53 0 01-.01.22h-1.736c.022.328.23.47.472.47a.416.416 0 00.395-.24h.813c-.099.503-.538.875-1.175.875zm-.493-1.51h.966c0-.274-.208-.428-.461-.428-.264 0-.461.143-.505.427zm3.503-1.041c.605 0 1.11.493 1.11 1.281 0 .777-.483 1.292-1.11 1.292a.913.913 0 01-.768-.383v1.528h-.758v-3.685h.758v.35c.143-.218.406-.383.769-.383zm-.23.657c-.286 0-.538.22-.538.613s.252.613.538.613.55-.219.55-.613-.264-.613-.55-.613zm2.581-.657c.374 0 .627.165.77.383v-.35h.757v2.485h-.758v-.35c-.142.219-.395.383-.769.383-.604 0-1.098-.493-1.098-1.292.01-.766.494-1.259 1.098-1.259zm.242.657c-.286 0-.538.208-.538.602s.252.613.538.613c.286 0 .538-.219.538-.613 0-.383-.252-.602-.538-.602zm3.493-.624h.824l-1.567 3.647h-.813l.568-1.239-1.028-2.408h.846l.577 1.565z"/><path fill="#00abee" d="M6.32 12.353L1.6 8.4v4.72h4.72z"/><path fill="#004a71" d="M6.32 8.4l-2.188 1.831 2.188 1.831z"/></svg>