<svg xmlns="http://www.w3.org/2000/svg" role="img" viewBox="0 0 38 24" width="38" height="24" aria-labelledby="pi-n26"><title id="pi-n26">N26</title><path d="M35 0H3C1.3 0 0 1.3 0 3v18c0 1.7 1.4 3 3 3h32c1.7 0 3-1.3 3-3V3c0-1.7-1.4-3-3-3z" fill-opacity=".07" fill-rule="nonzero"/><path d="M35 1c1.1 0 2 .9 2 2v18c0 1.1-.9 2-2 2H3c-1.1 0-2-.9-2-2V3c0-1.1.9-2 2-2h32" fill="#fff" fill-rule="nonzero"/><clipPath id="pi-n26_clip1"><path d="M35 1c1.1 0 2 .9 2 2v18c0 1.1-.9 2-2 2H3c-1.1 0-2-.9-2-2V3c0-1.1.9-2 2-2h32"/></clipPath><g clip-path="url(#pi-n26_clip1)"><path d="M12.603 10.693l2.671 3.73h.49V9.56h-.593v3.697l-2.586-3.603-.064-.09h-.28l-.004-.007v.006h-.224v4.863h.594v-3.733h-.004zm7.075 1.788c.903-.518 1.258-.965 1.258-1.59 0-.86-.615-1.418-1.563-1.418-.718 0-1.368.403-1.655 1.025l-.089.188.536.235.093-.181a1.225 1.225 0 011.115-.706c.597 0 .959.323.959.86 0 .346-.16.652-.948 1.113-1.41.816-1.72 1.183-1.759 2.057v.366h3.293v-.565H18.24c.053-.447.263-.709 1.438-1.384zm4.607-1.22a2.162 2.162 0 00-1.225.423c.092-1.048.579-1.664 1.339-1.664.337-.006.664.115.902.34l.17.141.388-.43-.17-.141a1.942 1.942 0 00-1.29-.464c-1.2 0-1.947.995-1.947 2.598 0 1.801.945 2.443 1.826 2.443 1.122.004 1.72-.84 1.72-1.674 0-1.159-.92-1.572-1.713-1.572zm1.115 1.58c0 .557-.383 1.118-1.118 1.118-.498 0-1.112-.4-1.222-1.529.216-.245.682-.611 1.225-.611 1.002 0 1.115.712 1.115 1.021zm-13.397 2.217h3.768v.417h-3.768v-.417zm.014-6.533h3.758v.417h-3.758v-.417z" fill-rule="nonzero"/></g></svg>