<svg version="1.1" xmlns="http://www.w3.org/2000/svg" x="0" y="0" viewBox="0 0 38 24" xml:space="preserve"  width="38" height="24" role="img" aria-labelledby="pi-naps" ><title id="pi-naps">Naps</title><path d="M35 0H3C1.3 0 0 1.3 0 3v18c0 1.7 1.4 3 3 3h32c1.7 0 3-1.3 3-3V3c0-1.7-1.4-3-3-3z" opacity=".07"/><path d="M35 1c1.1 0 2 .9 2 2v18c0 1.1-.9 2-2 2H3c-1.1 0-2-.9-2-2V3c0-1.1.9-2 2-2h32" fill="#fff"/><path d="M7.5 10.7c0 .2-.1.5-.1.7-.3 1.5-.6 3.1-.9 4.6 0 .1-.1.2-.2.2H5V16c.5-2.7 1-5.3 1.5-8 0-.2.1-.2.2-.2h1c.1 0 .2 0 .3.2.6 1.7 1.2 3.4 1.9 5.2 0 0 0 .1.1.1 0-.2.1-.3.1-.5.3-1.6.6-3.2.9-4.9 0-.1 0-.1.1-.1h1.3c0 .2-.1.5-.1.7-.5 2.5-.9 5-1.4 7.4 0 .1-.1.2-.2.2H9.6c-.1 0-.2 0-.2-.2-.6-1.7-1.2-3.5-1.9-5.2.1.1.1 0 0 0 .1 0 .1 0 0 0zm25.2-.4h-.6c-.1 0-.2 0-.2-.1s0-.2-.1-.3c-.1-.4-.4-.6-.7-.7-.4-.1-.7-.1-1.1 0-.3.1-.5.3-.6.6s0 .6.3.8c.4.2.8.4 1.1.7.3.2.6.3 1 .5.7.4 1 1 1.1 1.8 0 1-.4 1.8-1.2 2.3-.4.3-.9.4-1.4.4-.7.1-1.4 0-2-.3-.5-.2-.8-.6-1-1.1-.1-.4-.2-.8-.2-1.2 0-.1 0-.2.2-.2.4 0 .8 0 1.1-.1.1 0 .2 0 .2.2s0 .3.1.5c.1.4.3.6.6.7.5.2 1 .2 1.5 0s.7-.6.6-1c0-.2-.1-.4-.3-.6-.3-.2-.6-.4-.9-.5-.3-.2-.7-.3-1-.5-1.1-.6-1.3-1.5-1.2-2.5.1-.9.7-1.5 1.6-1.8.7-.2 1.5-.2 2.2 0 .9.3 1.6 1.1 1.7 2.2 0 .1 0 .1-.1.1-.3 0-.5 0-.7.1zm-13.6 5.9h-1.2c-.2 0-.2 0-.2-.2-.1-.5-.1-1-.2-1.5 0-.1-.1-.2-.2-.2h-2.6c-.1 0-.2 0-.2.1-.3.5-.5 1.1-.8 1.6 0 .1-.1.1-.2.1h-1.4c0-.1 0-.1.1-.1 1.1-2.1 2.1-4.3 3.2-6.4.3-.5.6-1.1.8-1.6 0-.1.1-.1.2-.1h1.4c.1 0 .2 0 .2.2.4 2.7.8 5.4 1.2 8-.1 0-.1 0-.1.1zm-2.3-6.5c-.6 1.1-1.1 2.1-1.6 3.2h1.9c.1 0 .1-.1.1-.2l-.3-2.4c0-.1-.1-.4-.1-.6zm3.2 6.5V16c.5-2.7 1-5.3 1.5-8 0-.2.1-.2.3-.2h3.5c.9.1 1.4.7 1.6 1.6.1.9-.1 1.8-.6 2.5s-1.2.9-1.9 1h-1.9c-.2 0-.2 0-.3.2-.2.9-.3 1.8-.5 2.8 0 .2-.1.2-.2.2h-1.1c-.2.1-.3.1-.4.1zm2.4-4.6c.1 0 .1 0 0 0 .6 0 1.2 0 1.8-.1.6-.1 1.1-.6 1.1-1.2.1-.7-.2-1-.9-1.1H23c-.1 0-.2 0-.2.2-.1.7-.2 1.4-.4 2v.2z"/></svg>
