<svg xmlns="http://www.w3.org/2000/svg" role="img" viewBox="0 0 38 24" width="38" height="24" aria-labelledby="pi-nationaleentertainmentcard"><title id="pi-nationaleentertainmentcard">Nationale Entertainment Card</title><g clip-path="url(#pi-nationaleentertainmentcard-a)"><path d="M35 0H3C1.3 0 0 1.3 0 3v18c0 1.7 1.4 3 3 3h32c1.7 0 3-1.3 3-3V3c0-1.7-1.4-3-3-3Z" fill="#000"/><path d="M35 0H3C1.3 0 0 1.3 0 3v18c0 1.7 1.4 3 3 3h32c1.7 0 3-1.3 3-3V3c0-1.7-1.4-3-3-3Z" fill="url(#pi-nationaleentertainmentcard-b)"/><path fill-rule="evenodd" clip-rule="evenodd" d="M5.463 11.787v2.384H7.08v-.439h-1.13v-.567h1.025v-.423H5.952v-.52H7.08v-.434H5.463Zm3.799 0h-.478v1.506l-1.051-1.505h-.466v2.383h.477v-1.588l1.126 1.588h.392v-2.383Zm.131.435h.765v1.949h.5v-1.949h.77v-.434H9.392v.434Zm2.162-.434v2.383h1.618v-.439h-1.13v-.567h1.026v-.423h-1.025v-.52h1.13v-.434h-1.62Zm2.557 1.494h-.26v.889h-.493v-2.383h.982c.5 0 .835.267.835.756 0 .38-.21.621-.544.703l.629.924h-.559l-.59-.89Zm-.26-1.071v.663h.458c.248 0 .377-.132.377-.33 0-.202-.129-.333-.377-.333h-.458Zm1.33.011v-.434h2.035v.434h-.769v1.949h-.5v-1.949h-.765Zm2.66-.434h.492l.912 2.383h-.504l-.214-.575h-.893l-.21.575h-.496l.912-2.383Zm.24.597-.291.792h.582l-.291-.792Zm1.75-.598h-.497v2.384h.497v-2.383Zm2.25 0h-.477v1.506l-1.052-1.505h-.466v2.383h.478v-1.588l1.125 1.588h.392v-2.383Zm1.653 2.384.579-1.557v1.557h.47v-2.383H24.2l-.632 1.68-.637-1.68h-.59v2.383h.466v-1.557l.59 1.557h.337Zm1.308-2.383v2.383h1.619v-.439h-1.13v-.567h1.025v-.423h-1.025v-.52h1.13v-.434h-1.619Zm3.8 0h-.478v1.505l-1.052-1.505h-.466v2.383h.478v-1.588l1.125 1.588h.392v-2.383Zm.13.434h.765v1.949h.501v-1.949h.769v-.434h-2.034v.434Z" fill="url(#pi-nationaleentertainmentcard-c)"/><path fill-rule="evenodd" clip-rule="evenodd" d="M10.908 8.089h-.478v1.506L9.378 8.089h-.465v2.383h.477V8.884l1.125 1.588h.393V8.089Zm1.63 0h.493l.912 2.383h-.505l-.213-.575h-.893l-.21.575h-.496l.912-2.383Zm.24.598-.29.791h.582l-.291-.791Zm1.51-.163h.765v1.948h.501V8.524h.769v-.435h-2.034v.435Zm3.289-.435h-.497v2.383h.497V8.089ZM20.6 9.28c0 .71-.466 1.23-1.13 1.23-.663 0-1.125-.52-1.125-1.23 0-.714.462-1.23 1.125-1.23.664 0 1.13.516 1.13 1.23Zm-.501 0c0-.465-.248-.788-.629-.788-.376 0-.62.323-.62.788 0 .466.244.788.62.788.38 0 .629-.322.629-.788Zm3.272-1.191h-.477v1.506l-1.052-1.506h-.466v2.383h.478V8.884l1.125 1.588h.392V8.089Zm1.63 0h.494l.912 2.383h-.505l-.213-.575h-.893l-.21.575h-.496l.912-2.383Zm.242.598-.291.791h.582l-.291-.791Zm1.882 1.785h1.607v-.439h-1.11V8.09h-.497v2.383Zm2.4-2.383v2.383h1.618v-.439h-1.13v-.566h1.025v-.423h-1.024v-.52h1.129v-.435h-1.619Z" fill="url(#pi-nationaleentertainmentcard-d)"/><path fill-rule="evenodd" clip-rule="evenodd" d="M20.7 16.468c0 .73.474 1.23 1.11 1.23.563 0 .908-.33.998-.811h-.493c-.082.221-.23.369-.505.369-.38 0-.605-.338-.605-.788 0-.454.225-.788.605-.788.276 0 .423.148.505.365h.492c-.089-.478-.434-.808-.997-.808-.636 0-1.11.501-1.11 1.23Zm3.54-1.192h.493l.912 2.383h-.504l-.214-.574h-.893l-.21.574h-.496l.912-2.383Zm.24.598-.29.792h.582l-.291-.792Zm2.637.897h-.26v.888h-.493v-2.383h.982c.5 0 .834.268.834.757 0 .38-.21.621-.543.703l.628.923h-.559l-.59-.888Zm-.26-1.072v.664h.457c.249 0 .377-.132.377-.33 0-.202-.128-.334-.377-.334h-.457Zm2.616 1.522h.33c.454 0 .702-.291.702-.753 0-.466-.248-.757-.702-.757h-.33v1.51Zm-.493.438v-2.383h.842c.722 0 1.176.466 1.176 1.192s-.454 1.191-1.176 1.191h-.842Z" fill="#fff"/><path opacity=".07" d="M35 0H3C1.3 0 0 1.3 0 3v18c0 1.7 1.4 3 3 3h32c1.7 0 3-1.3 3-3V3c0-1.7-1.4-3-3-3Z" fill="#000"/></g><defs><linearGradient id="pi-nationaleentertainmentcard-c" x1="5.528" y1="11.77" x2="31.329" y2="11.77" gradientUnits="userSpaceOnUse"><stop stop-color="#FF0202"/><stop offset=".15" stop-color="#FF9C01"/><stop offset=".32" stop-color="#FFF400"/><stop offset=".475" stop-color="#7ED21C"/><stop offset=".649" stop-color="#B8DBF1"/><stop offset=".817" stop-color="#7F2B89"/><stop offset="1" stop-color="#DD0085"/></linearGradient><linearGradient id="pi-nationaleentertainmentcard-d" x1="3.11" y1="7.707" x2="31.424" y2="7.707" gradientUnits="userSpaceOnUse"><stop stop-color="#FF0202"/><stop offset=".15" stop-color="#FF9C01"/><stop offset=".32" stop-color="#FFF400"/><stop offset=".475" stop-color="#7ED21C"/><stop offset=".649" stop-color="#B8DBF1"/><stop offset=".817" stop-color="#7F2B89"/><stop offset="1" stop-color="#DD0085"/></linearGradient><radialGradient id="pi-nationaleentertainmentcard-b" cx="0" cy="0" r="1" gradientUnits="userSpaceOnUse" gradientTransform="matrix(31.25 0 0 31 -.094 11.625)"><stop stop-color="#12C6FF" stop-opacity=".5"/><stop offset="1" stop-opacity=".5"/></radialGradient><clipPath id="pi-nationaleentertainmentcard-a"><path fill="#fff" d="M0 0h38v24H0z"/></clipPath></defs></svg>