<svg xmlns="http://www.w3.org/2000/svg" role="img" viewBox="0 0 38 24" width="38" height="24" aria-labelledby="pi-nationalebioscoopbon"><title id="pi-nationalebioscoopbon">Nationale Bioscoop Bon</title><path d="M35 0H3C1.3 0 0 1.3 0 3v18c0 1.7 1.4 3 3 3h32c1.7 0 3-1.3 3-3V3c0-1.7-1.4-3-3-3z"/><g fill-rule="even" transform="matrix(.15 0 0 .15 5.7 6)"><path fill="#FFF" d="m17 23.26-12.51-13v13H0V1h1.4l12.29 12.45V1h4.44v22.26zM33.17 1l10.51 22.26h-4.92L32.41 9.74l-6.9 13.52h-5L31.87 1zM60.09 1v4.45h-6.16v17.81h-4.45V5.45h-6.19V1zM64.9 23.23V1h4.44v22.23zM97.51 12.12A11.53 11.53 0 1 1 86 .59c6.355.022 11.499 5.175 11.51 11.53Zm-18.51 0a7 7 0 1 0 14 0 7 7 0 0 0-14 0ZM118.27 23.26l-12.51-13v13h-4.44V1h1.39L115 13.45V1h4.45v22.26z"/><path fill="#E11B22" d="m136.09 1 10.51 22.26h-4.93l-6.35-13.52-6.89 13.52h-5L134.78 1z"/><path fill="#FFF" d="M155 18.82h8.28v4.41h-12.77V1H155zM182 5.45h-10.38v4.1h8.57V14h-8.57v4.83h10.28v4.44h-14.73V1H182zM26.82 29.32a6.52 6.52 0 0 1 6.51 6.51 6.28 6.28 0 0 1-1.14 3.65 6.73 6.73 0 0 1-4.1 12.07h-7.34V29.32h6.07Zm-.19 8.8a2.6 2.6 0 0 0 2.57-2.57A2.54 2.54 0 0 0 26.63 33h-1.94v5.08l1.94.04ZM28 47.77a2.7 2.7 0 0 0 2.74-2.67A2.73 2.73 0 0 0 28 42.4h-3.21v5.37H28ZM39.41 51.52V29.29h4.45v22.23zM70.46 40.4a11.53 11.53 0 1 1-11.53-11.52c6.362.006 11.519 5.158 11.53 11.52ZM52 40.4a7 7 0 1 0 14 0 7 7 0 0 0-14 0ZM79.54 42.12a10.61 10.61 0 0 1-3.37-1.4 6.11 6.11 0 0 1-2.86-5 6 6 0 0 1 1.62-4.54A7.74 7.74 0 0 1 80.11 29a11.1 11.1 0 0 1 6.67 2.22l.73.48-2.32 3.78-.8-.51a6.82 6.82 0 0 0-4.28-1.52 3.39 3.39 0 0 0-2 .82 1.57 1.57 0 0 0-.38 1.27c0 1.15.82 1.78 2.86 2.29.25.06.44.13.63.19a11.8 11.8 0 0 1 4.92 3 6.42 6.42 0 0 1 1.75 4.35A6.93 6.93 0 0 1 81 52a13.4 13.4 0 0 1-3.91-.54 12.32 12.32 0 0 1-5.3-3.37l3.24-3a7.68 7.68 0 0 0 6 2.51 2.44 2.44 0 0 0 2.44-2.26c0-1.2-1.36-2.31-3.68-3.11h-.1l-.15-.11ZM106.16 34.69c-4.32-2.8-10.83-.19-10.83 5.78a6.91 6.91 0 0 0 11.08 5.59l2.86 3.27a11.52 11.52 0 1 1-.27-17.94l-2.84 3.3Z"/><path d="M133.8 40.4a11.53 11.53 0 1 1-11.53-11.52c6.36.011 11.513 5.16 11.53 11.52Zm-18.49 0a7 7 0 1 0 14 0 7 7 0 0 0-14 0Z" fill="#00AEEF"/><path d="M170.62 29.29a6.69 6.69 0 0 1 0 13.37h-2.77v8.89h-4.44V29.29h7.21Zm0 8.92a2.23 2.23 0 0 0 2.22-2.21 2.25 2.25 0 0 0-2.22-2.25h-2.77v4.47l2.77-.01ZM113.32 56.67a6.52 6.52 0 0 1 6.51 6.51 6.32 6.32 0 0 1-1.14 3.65 6.73 6.73 0 0 1-4.1 12.07h-7.34V56.67h6.07Zm-.19 8.8a2.6 2.6 0 0 0 2.57-2.58 2.55 2.55 0 0 0-2.57-2.51h-1.94v5.09h1.94Zm1.4 9.65a2.69 2.69 0 1 0 0-5.37h-3.24v5.37h3.24Z" fill="#FFF"/><path d="M146.55 67.88c0 6.365-5.158 11.526-11.523 11.53-6.366.004-11.53-5.151-11.537-11.517-.007-6.365 5.145-11.532 11.51-11.543 6.371 0 11.539 5.159 11.55 11.53Zm-18.48 0a7 7 0 1 0 14 .1 7 7 0 0 0-14-.1Z" fill="#FD0"/><path fill="#FFF" d="m166.69 78.93-12.52-13v13h-4.44V56.67h1.4l12.29 12.45V56.67h4.44v22.26z"/><path fill="#FD0" d="M132.5 64.2v7.4l7.12-3.55z"/><circle fill="#00AEEF" cx="124.92" cy="40.4" r="2.95"/><path d="M159.3 40.4a11.53 11.53 0 1 1-11.52-11.52c6.358.011 11.509 5.162 11.52 11.52Zm-18.48 0a7 7 0 1 0 14 0 7 7 0 0 0-14 0Z" fill="#00AEEF"/><circle fill="#00AEEF" cx="150.43" cy="40.4" r="2.95"/></g></svg>