<svg width="38" height="24" viewBox="0 0 38 24" fill="none" xmlns="http://www.w3.org/2000/svg" role="img" aria-labelledby="pi-navarpay"><title id="pi-navarpay">Navarpay</title><g clip-path="url(#pi-navarpay-clip0)"><path d="M35 .5H3A2.5 2.5 0 00.5 3v18A2.5 2.5 0 003 23.5h32a2.5 2.5 0 002.5-2.5V3A2.5 2.5 0 0035 .5z" stroke="#000" stroke-opacity=".07"/><g clip-path="url(#pi-navarpay-clip1)"><path d="M1 1h36v22H1V1z" fill="#00DC62"/><path d="M8.224 6.683h1.018l.616.092.45.115.474.16.473.206.521.298.308.23.26.206.474.458.308.39.237.343.237.413.19.435.142.413.118.504.071.504.024.55-.048.527-.094.504-.143.481-.142.367-.26.527-.237.367-.237.32-.284.322-.379.366-.237.184-.355.252-.45.252-.497.229-.592.183-.711.138-.355.046h-.758l-.569-.092-.52-.115-.474-.137-.427-.183-.402-.207-.285-.183-.284-.206-.331-.275-.285-.275-.213-.252-.213-.275-.284-.436-.26-.504-.166-.435-.142-.482-.072-.343-.07-.757v-.229l.07-.596.119-.55.213-.618.19-.413.26-.435.237-.321.213-.252.213-.23.332-.32.331-.252.427-.275.379-.207.355-.16.64-.206.686-.138.19-.023zM18.953 9.067h.616l.355.068.426.138.355.183.285.206.307.298.214.298.189.344.142.413.071.39.024.412-.047.39-.095.366-.142.344-.166.298-.213.275-.355.343-.356.23-.379.16-.45.114-.142.023h-.663l-.403-.091-.426-.184-.213-.114-.142-.115-.024 1.994-.024.023H16.42V9.342l.023-.16 1.208-.024.024.023v.436l.331-.23.38-.183.402-.114.166-.023zM24.874 9.067h.592l.379.068.355.115.355.183.237.184.024-.07v-.343l.024-.046h1.184l.023.023v5.065l-.142.023h-1.042l-.07-.046.047-.413-.143.092-.26.16-.427.184-.307.091-.142.023h-.687l-.332-.068-.237-.07-.213-.09-.331-.161-.38-.298-.213-.23-.236-.343-.19-.39-.095-.298-.07-.32-.024-.275v-.298l.07-.436.072-.252.142-.343.237-.39.308-.344.355-.275.379-.206.497-.16.26-.046z" fill="#010101"/><path d="M6.234 9.433h1.563l.498.688.26.367.38.527.402.572.284.39.047.023-.023-.092V9.433h1.634v4.882H9.716l-.26-.367-.616-.87-.332-.46-.379-.526-.213-.298-.024-.069h-.047l.023 1.81v.78H6.234l-.023-1.307v-1.237l.023-2.338z" fill="#00DC62"/><path d="M28.805 9.181h1.28l1.183 2.292.261.527.213.39.024.022.852-1.856.308-.687.308-.665.024-.023h1.255l-.118.298-.213.436-.38.825-.45.985-.947 2.063-.19.435-.165.344-.213.48-.166.345-.213.458-.024.023-1.255.023.024-.138.308-.618.284-.62.26-.55.071-.137v-.16l-.544-1.031-.593-1.146-.236-.436-.806-1.558-.142-.252v-.069z" fill="#010101"/><path d="M18.905 10.03h.427l.236.045.285.115.236.137.237.206.166.23.166.366.071.321.024.344-.048.343-.094.298-.19.321-.213.23-.19.16-.355.183-.26.069-.166.023H19l-.331-.069-.38-.183-.236-.16-.213-.253-.119-.183-.142-.367-.047-.206-.024-.39.071-.435.142-.32.237-.322.26-.229.332-.183.213-.069.142-.023zM25.134 10.03h.45l.284.068.38.183.284.252.165.207.166.343.071.23.024.16V12l-.095.344-.19.366-.189.23-.213.183-.332.183-.284.092-.142.023-.426-.023-.308-.092-.284-.137-.26-.207-.19-.229-.19-.366-.095-.321-.023-.138v-.366l.07-.367.12-.275.141-.23.214-.228.189-.16.379-.184.284-.069z" fill="#00DC62"/></g></g><defs><clipPath id="pi-navarpay-clip0"><path fill="#fff" d="M0 0h38v24H0z"/></clipPath><clipPath id="pi-navarpay-clip1"><rect x="1" y="1" width="36" height="22" rx="2" fill="#fff"/></clipPath></defs></svg>