<svg width="38" height="24" viewBox="0 0 38 24" fill="none" xmlns="http://www.w3.org/2000/svg" role="img" aria-labelledby="pi-naver_pay"><title id="pi-naver_pay">Naver Pay</title><rect x="1" y="1" width="36" height="22" rx="2" fill="#fff"/><rect x=".5" y=".5" width="37" height="23" rx="2.5" stroke="#000" stroke-opacity=".07"/><g clip-path="url(#pi-clip0)"><path d="M20.164 9.553v2.672h1.416c1.037 0 1.555-.429 1.555-1.286v-.18c0-.412-.125-.716-.374-.912-.249-.196-.606-.294-1.072-.294h-1.525zm-.987-.857h2.567c.405 0 .756.051 1.055.154.298.103.545.246.741.429.195.183.341.4.438.653.096.252.144.525.144.817v.21c0 .292-.051.566-.154.822-.103.256-.254.48-.453.673a2.156 2.156 0 01-.74.459c-.295.113-.639.17-1.03.17h-1.58v2.8h-.988M28.23 13.402h-1.367c-.378 0-.65.073-.812.219-.163.146-.244.349-.244.608v.14c0 .265.093.458.279.578.186.12.409.18.668.18.24 0 .447-.029.623-.086.176-.056.337-.14.483-.254a.864.864 0 00.285-.344c.056-.13.084-.297.084-.503v-.538zm-1.576 2.562c-.552 0-.989-.136-1.31-.409-.323-.273-.484-.648-.484-1.127v-.269c0-.465.156-.844.468-1.136.313-.293.818-.44 1.516-.44h1.385v-.318c0-.366-.088-.637-.264-.813-.176-.176-.463-.264-.862-.264-.32 0-.597.05-.833.15-.236.1-.48.232-.732.398l-.479-.717c.266-.187.565-.348.897-.484a3.035 3.035 0 011.157-.204c.305 0 .585.038.837.114.253.077.47.19.653.34.183.149.326.332.429.548.103.216.154.46.154.732v3.819h-.927v-.658h-.01c-.053.1-.124.191-.214.274-.09.083-.188.155-.294.214-.146.08-.304.141-.474.185-.17.043-.373.065-.613.065zM32.556 14.787l1.436-4.357h1.017l-2.832 7.707-.877-.31.708-1.863-1.984-5.534h1.047l1.445 4.357" fill="#333"/><path d="M3.004 18.58h12.58V6H3.003v12.58z" fill="#00C63B"/><path d="M10.294 15.169l-2.03-2.981v2.98H6.15V9.41h2.145l2.03 2.98V9.41h2.114v5.759" fill="#fff"/></g><defs><clipPath id="pi-clip0"><path fill="#fff" d="M3 6h32v12.579H3z"/></clipPath></defs></svg>
