<svg width="38" height="24" viewBox="0 0 38 24" fill="none" xmlns="http://www.w3.org/2000/svg" role="img" aria-labelledby="pi-nayapay"><title id="pi-nayapay">Nayapay</title><g clip-path="url(#pi-nayapay-clip0)"><path d="M35 .5H3A2.5 2.5 0 00.5 3v18A2.5 2.5 0 003 23.5h32a2.5 2.5 0 002.5-2.5V3A2.5 2.5 0 0035 .5z" stroke="#000" stroke-opacity=".07"/><g clip-path="url(#pi-nayapay-clip1)"><path d="M1 1h36v22H1V1z" fill="#FDFDFC"/><path d="M6.329 7.783h.403l.497.07.355.137.332.183.26.183.308.275.284.321.26.39.285.527.213.619.142.687.048.435v.505l-.071.618-.071.39-.213.619-.237.48-.237.368-.213.252-.213.229-.166.16-.284.207-.356.206-.402.16-.356.092-.402.046-.38-.023-.45-.092-.45-.183-.283-.184-.308-.252-.285-.275-.307-.412-.214-.367-.19-.412-.165-.482-.118-.55-.071-.48v-.872l.047-.48.118-.482.19-.504.213-.436.284-.412.19-.23.331-.32.332-.252.426-.23.403-.137.308-.069.213-.023z" fill="#F7821D"/><path d="M6.329 7.783h.403l.213.07.213.137.118.091.166.184.213.275.19.39.166.55.07.457.048.459.024.481.07.138.095-.07h.237l.095-.045.237-.046h.19l.212.023.19.092.047-.069h.048l.07.32.048.574v.298l-.07.39-.072.183-.237.458h-.047l-.048.115-.26.252-.19.137-.331.16-.284.092-.427.046h-.355l-.545-.046-.142-.046.095-.046h.047v-.045l.285-.115.26-.183.118-.115.214-.275.165-.367.095-.32.048-.275v-.39l-.072-.458-.142-.413-.213-.343-.19-.207-.189-.137-.379-.184-.165-.045h-.285l-.237.045-.284.115-.213.16-.118.115-.166.183-.166.275-.142.39-.047.206-.024.23h-.024l-.023.71-.024.275-.047.069h-.048v.045h-.142l-.19-.068-.355-.07-.284-.114-.497-.16H3.32l-.024-.115v-1.123l.071-.435.143-.458.236-.55.214-.367.236-.32.214-.23.236-.23.332-.251.426-.23.403-.137.308-.069.213-.023z" fill="#F64125"/><path d="M6.376 9.892h.284l.237.068.356.184.26.229.213.298.142.275.095.298.071.458v.39l-.095.458-.142.367-.165.275-.19.229-.26.183-.285.138-.142.046-.166.022h-.26l-.237-.022H5.76l-.26.068-.213.115-.213.183-.071.115-.071-.023v-1.33l.023-1.283.048-.343.118-.367.166-.32.166-.207.118-.138.284-.206.284-.114.237-.046z" fill="#FEFEFD"/><path d="M11.492 9.685h.805l.237.39.308.527.332.55.379.642.213.366.118.115-.024-.092V9.685h.83v4.309l-.024.046h-.758l-.166-.252-.355-.596-.26-.436-.332-.55-.284-.481-.143-.23-.047-.022v2.544l-.024.023h-.781l-.024-.848V9.685z" fill="#2D272C"/><path d="M29.279 9.662l.924.023.19.55.425 1.307.498 1.49.308.962v.046h-.948l-.213-.665-.047-.092H28.97l-.26.757-.095.023-.83-.023.072-.23.592-1.741.332-.986.308-.916.165-.482.024-.023z" fill="#959596"/><path d="M23.05 9.685h.947l.071.207.403 1.214.426 1.284.427 1.306.094.298v.046h-.947l-.19-.596-.023-.16h-1.492l-.095.228-.142.482-.024.046h-.924l.308-.94.285-.825.663-1.948.213-.642zm-6.442 0h.947l.237.71.45 1.353.26.802.474 1.444v.046h-.947l-.19-.596-.047-.16h-1.468l-.095.228-.142.459-.047.069h-.877l.024-.16.332-.986.757-2.223.332-.986z" fill="#2D272C"/><path d="M25.182 9.685h1.776l.308.07.308.16.213.206.142.229.095.23.07.366v.527l-.07.39-.119.32-.166.23-.213.206-.331.16-.213.046-.237.023h-.64v1.192l-.07.023-.166-.046-.095-.23-.355-1.077-.214-.664-.023-2.36zm8.621-.023l.852.023-.07.23-.332.779-.45 1.077-.308.756-.048.138-.023 1.375h-.9l-.024-1.398-.45-1.077-.758-1.788-.024-.092h.9l.119.252.284.665.355.802.048.092.047.023.024-.138.19-.458.355-.825.165-.413.048-.023z" fill="#959596"/><path d="M19.284 9.662h.142l.071.115.237.527.45 1.054.095.16.26-.64.356-.826.142-.367.9-.023-.024.138-.284.688-.26.618-.356.848-.284.665-.024 1.42h-.876l-.024-1.26-.023-.16-.119-.275-.852-2.017-.237-.55-.024-.092.734-.023z" fill="#2D272C"/><path d="M9.597 11.313l.024.091h.047l.024.39v.298l-.07.39-.072.183-.237.458h-.047l-.048.115-.26.252-.19.137-.331.16-.284.092-.427.046h-.355l-.545-.046-.142-.046.095-.046h.047v-.045l.285-.115.26-.183.118-.115.214-.275.165-.367.095-.32.048-.275h.047v-.505h.024v.138l.165-.023h.071l.024-.092h.047v-.045l.19-.092.332-.069h.426l.07.023.072-.023.047.046.048-.115.023-.023z" fill="#F74125"/><path d="M8.318 14.383h.427l.047.023.047.069.024.069-.024.114-.307.344-.237.23-.284.206-.356.206-.402.16-.356.092-.402.046h-.119l-.237-.092-.26-.069-.308-.229-.19-.16-.165-.275v-.115l.237-.092.118-.068.545-.115 1.018-.137.355-.07.569-.09.26-.047z" fill="#F64125"/><path d="M5.808 7.875l.095.023-.237.069-.071.091.023.23-.023.435.023.137v.253l-.047.297.024.184.023.114-.213.07-.568.09-.38.115-.33.184-.238.206-.07.092H3.77l-.047.091-.095.115-.237.435-.07.23h-.025v-.253l.071-.435.143-.458.236-.55.214-.367.236-.32.214-.23.236-.23.332-.251.426-.23.403-.137z" fill="#F8821D"/><path d="M26.2 10.58h.545l.19.045.189.16.094.16.024.093v.412l-.095.252-.213.184-.19.045h-.615l-.024-.023-.024-.48v-.803l.119-.046z" fill="#FEFEFD"/><path d="M8.318 14.383h.427l.047.023.047.069.024.069-.024.114-.26.298-.024-.046h-.047v-.114l-.047-.023.047-.069h-.142v.046h-.308l-.521.069-.474.068-1.066.207-.308.046-.236.137-.024.092.118.137-.094-.046-.095-.114-.142-.23v-.114l.237-.092.118-.068.545-.115 1.018-.137.355-.07.569-.09.26-.047z" fill="#F75A20"/><path d="M8.105 10.396h.024l.024.481.07.138.095-.07h.237l.095-.045.237-.046h.19l.212.023.19.092.047-.069h.048l.07.32v.184l-.047-.069-.047.115h-.071v-.046l-.095.046-.118-.023H8.91l-.38.092-.07.046h-.072l-.047.16-.095.023v-.046l-.165.023-.024.367h-.024l-.024-.573h.048l-.024-.39.024-.046H8.01l.047-.229.047-.458zM5.997 7.83h.119l-.024.366.024.092-.024.137h-.047v.16l-.024.046-.024.482v.412h.048l.095.206-.072.07-.07.022-.403-.023-.26.023H5.12V9.8l.403-.069.094-.023-.07-.229.023-.183.024-.252v-.275l-.024-.16.024-.413-.024-.16.095-.092.237-.046v-.046l.094-.023z" fill="#F85A20"/><path d="M23.476 10.877l.071.069.356 1.169.07.206v.069l-.047.022h-.876l-.024-.114.213-.665.166-.55.071-.206z" fill="#F5F5F5"/><path d="M17.034 10.877l.071.069.285.962.142.436v.046l-.048.022h-.876l-.047-.045.307-.963.143-.504.023-.023z" fill="#F5F5F4"/><path d="M29.682 10.9h.047l.118.367.237.779.095.275v.069h-.971l.308-.986.166-.504z" fill="#FEFEFD"/><path d="M4.908 11.633h.024v.71l-.024.276-.047.069h-.048v.045h-.142l-.19-.068-.355-.07-.284-.114-.497-.16H3.32l-.024-.115v-.366l.237.045v.046l.095.023.237.115.07.046v.045l.12.023.07.046.403.092.118.046h.214l.023-.16.024-.574z" fill="#F85A21"/><path d="M5.974 15.804l.213.046.166.046v.023h-.237l-.119-.046-.023-.069z" fill="#F86020"/></g></g><defs><clipPath id="pi-nayapay-clip0"><path fill="#fff" d="M0 0h38v24H0z"/></clipPath><clipPath id="pi-nayapay-clip1"><rect x="1" y="1" width="36" height="22" rx="2" fill="#fff"/></clipPath></defs></svg>