<svg xmlns="http://www.w3.org/2000/svg" width="38" height="24" fill="none" aria-labelledby="pi-neocuotas" viewBox="0 0 38 24" role="img"><title id="pi-neocuotas">Neocuotas</title><g fill="none" fill-rule="nonzero" viewBox="0 0 38 24"><rect width="36" height="22" x="1" y="1" fill="#fff" rx="2"/><rect width="37" height="23" x=".5" y="0.5" stroke="#000" stroke-linejoin="round" stroke-opacity="0.07" rx="2.5"/><path fill="#5F249F" d="M16.32 8.06c.2-.68.9-1.08 1.59-.9.71.18 1.06.69 1.28 1.39l1.18 3.17 2.84-6.11C21.85 4.7 20.3 4 18.54 4c-4.72 0-8.55 3.85-8.55 8.6 0 2.7 1.23 5.1 3.17 6.68l3.15-11.22h.01Z"/><path fill="#5F249F" d="M21.68 16.12c-.2.68-.9 1.08-1.59.9-.71-.18-1.06-.69-1.28-1.39l-1.18-3.17-2.84 6.11c1.36.91 2.91 1.61 4.67 1.61 4.72 0 8.55-3.85 8.55-8.6 0-2.7-1.23-5.1-3.17-6.68l-3.15 11.22h-.01Z"/></g></svg>
