<svg xmlns="http://www.w3.org/2000/svg" role="img" viewBox="0 0 38 24" width="38" height="24" aria-labelledby="pi-nequi"><title id="pi-nequi">Nequi</title><path d="M35 0H3C1.3 0 0 1.3 0 3v18c0 1.7 1.4 3 3 3h32c1.7 0 3-1.3 3-3V3c0-1.7-1.4-3-3-3z" style="isolation:isolate" opacity=".07"/><path d="M35 1c1.1 0 2 .9 2 2v18c0 1.1-.9 2-2 2H3c-1.1 0-2-.9-2-2V3c0-1.1.9-2 2-2h32" fill="#fff"/><path d="M4.62 7.04H3.27a.28.28 0 00-.28.28v1.15c0 .16.13.28.28.28h1.35c.16 0 .28-.13.28-.28V7.32a.28.28 0 00-.28-.28z" fill="#fd0084"/><path d="M12.84 7.04h-1.16a.28.28 0 00-.28.28v4.64c0 .09-.12.13-.17.04l-2.7-4.84c-.04-.08-.12-.12-.22-.12H6.38a.28.28 0 00-.28.28v7.42c0 .16.13.28.28.28h1.16c.16 0 .28-.13.28-.28V9.96c0-.09.12-.13.17-.04l2.77 4.99c.04.08.12.12.22.12h1.84c.16 0 .28-.13.28-.28V7.33a.28.28 0 00-.28-.28zm6.98 5.08c0-2.09-1.36-3.13-2.85-3.13-1.94 0-3.04 1.35-3.04 3.16 0 2.06 1.39 3.05 3 3.05s2.55-.83 2.81-1.92c.03-.14-.04-.26-.25-.26h-.91c-.1 0-.19.05-.24.16-.23.5-.6.76-1.3.76-.8 0-1.33-.5-1.41-1.52h3.92c.17 0 .28-.12.28-.31zm-4.14-.79c.17-.75.6-1.08 1.26-1.08.59 0 1.1.34 1.17 1.08h-2.43zm19.05-2.18h-1.17a.28.28 0 00-.28.28v5.31c0 .16.13.28.28.28h1.17c.16 0 .28-.13.28-.28V9.43a.28.28 0 00-.28-.28zm-8.66 0h-1.16a.28.28 0 00-.28.28v.29c-.35-.41-.92-.69-1.67-.69-1.68 0-2.56 1.52-2.56 3.13 0 1.4.73 2.98 2.53 2.98.64 0 1.33-.31 1.7-.74v2.28c0 .16.13.28.28.28h1.16c.16 0 .28-.13.28-.28V9.44a.28.28 0 00-.28-.28zm-2.64 4.73c-.76 0-1.3-.56-1.3-1.77s.54-1.84 1.3-1.84 1.3.58 1.3 1.84-.54 1.77-1.3 1.77zm8.82-4.73h-1.16a.28.28 0 00-.28.28v3c0 .97-.43 1.25-.98 1.25s-.98-.28-.98-1.25v-3a.28.28 0 00-.28-.28h-1.16a.28.28 0 00-.28.28v3.13c0 1.86 1.03 2.61 2.71 2.61s2.71-.75 2.71-2.61V9.43a.28.28 0 00-.28-.28z" fill="#20001b"/></svg>