<svg width="38" height="24" viewBox="0 0 38 24" xmlns="http://www.w3.org/2000/svg" role="img" aria-labelledby="pi-neteller"><title id="pi-neteller">NETELLER</title><path opacity=".07" d="M35 0H3C1.3 0 0 1.3 0 3v18c0 1.7 1.4 3 3 3h32c1.7 0 3-1.3 3-3V3c0-1.7-1.4-3-3-3z"/><path fill="#fff" d="M35 1c1.1 0 2 .9 2 2v18c0 1.1-.9 2-2 2H3c-1.1 0-2-.9-2-2V3c0-1.1.9-2 2-2h32"/><path d="M34.85 9.526c-.42-.295-1.054-.444-1.886-.444h-2.178l-.81 4.514H27.12l.185-1.024h1.718l.205-1.152H27.51l.183-1.018h1.771L29.7 9.08h-3.592l-.773 4.285h-1.32l.775-4.278h-1.88l-.769 4.278h-1.284l.776-4.278h-1.88l-.812 4.509h-2.875l.182-1.024h1.725l.204-1.143h-1.724l.183-1.02h1.796l.235-1.322H7.455l-.637 3.57-1.271-3.57h-1.95l-1.05 5.833H4.41l.635-3.673L6.28 14.92h6.674l.81-4.51h1.046l-.812 4.51h17.565l.508-2.848.824 2.848h1.864l-.853-2.328.195-.042c.391-.074.745-.287.998-.602.245-.341.37-.758.352-1.18 0-.552-.196-.959-.601-1.242zm-23.518 4.07H8.48l.184-1.024h1.789l.203-1.152h-1.77l.17-1.012h2.847zm21.986-1.969c-.187.135-.459.2-.83.2h-.369l.283-1.564h.27c.31 0 .534.05.69.154a.623.623 0 01.265.545.775.775 0 01-.309.665z" fill="#76ba0e"/></svg>