<svg role="img" aria-labelledby="pi-newpay" height="24" width="38" viewBox="0 0 38 24" fill="none" version="1.1" id="pi-newpay-svg2" xmlns="http://www.w3.org/2000/svg"><title id="pi-newpay">Newpay</title><path fill="#000" opacity=".07" d="M132.296-1.188H12.35c-6.372 0-11.245 2.63-11.245 6.07v36.42c0 3.44 5.248 6.07 11.245 6.07h119.946c6.372 0 11.245-2.63 11.245-6.07V4.882c0-3.44-5.248-6.07-11.245-6.07z" id="pi-border" transform="matrix(.2657 0 0 .49423 -.294 .587)" stroke-width="2.754"/><path fill="#283237" d="M34.923 1c1.1 0 2 .9 2 2v18c0 1.1-.9 2-2 2h-32c-1.1 0-2-.9-2-2V3c0-1.1.9-2 2-2h32" id="pi-background"/><path stroke-width="0" fill="#05e1aa" d="M5.984 13.325h1.388v-2.493c0-1.294-.883-2.114-2.209-2.114-1.325 0-2.24.82-2.24 2.114v2.493H4.31v-2.461c0-.568.316-.915.852-.915.537 0 .852.347.852.915v2.461zm5.112-2.871h-1.83c.063-.41.473-.726.915-.726.442 0 .884.284.915.726zm-.884-1.736c-1.388 0-2.335 1.041-2.335 2.367 0 1.325.978 2.367 2.462 2.367 1.483 0 1.262-.158 1.61-.347V11.81c-.443.315-.884.41-1.358.441-.726.032-1.357-.347-1.325-.883h2.966c.221-1.483-.536-2.651-2.051-2.651zm7.827 4.607l1.736-4.544h-1.452l-.82 2.62-.947-2.62h-1.073l-.947 2.62-.82-2.62h-1.452l1.735 4.544h1.01l1.01-2.493.978 2.493h1.01zm5.08-2.272c0 .631-.41 1.042-.978 1.042-.568 0-.978-.41-.978-1.042 0-.63.442-1.041.978-1.041.537 0 .979.41.979 1.041zm1.516 0c0-1.357-1.042-2.367-2.462-2.367-1.42 0-2.462 1.01-2.462 2.367v4.008h1.39v-2.24c.22.378.693.6 1.293.6 1.452 0 2.272-1.042 2.272-2.368zm3.818 0c0 .631-.442 1.042-.978 1.042-.537 0-.978-.41-.978-1.042 0-.63.441-1.041.978-1.041.536 0 .978.41.978 1.041zm.126 2.272h1.389v-2.272c0-1.357-1.105-2.367-2.493-2.367-1.389 0-2.462 1.01-2.462 2.367s.82 2.367 2.272 2.367 1.073-.22 1.294-.6v.474zm6.344-.63V8.78h-1.389v2.462c0 .568-.347.946-.82.946-.474 0-.79-.378-.79-.946v-2.43h-1.388v2.619c0 1.262.726 2.051 1.799 2.051s.947-.126 1.199-.6c0 .348 0 .663-.284.916-.253.22-.631.315-.947.315-.315 0-1.041-.126-1.451-.441v1.293c.41.221.978.348 1.609.348s.978-.127 1.357-.348c.347-.189.6-.473.789-.852.22-.441.252-.852.252-1.357z" id="pi-text"/></svg>
