<svg xmlns="http://www.w3.org/2000/svg" width="38" height="24" viewBox="0 0 38 24" version="1.1" aria-labelledby="pi-nexi" role="img"><title id="pi-nexi">Nexi</title><g fill-rule="evenodd" fill-opacity="1"><path fill="#000" opacity=".07" d="M35 0H3C1.3 0 0 1.3 0 3v18c0 1.7 1.4 3 3 3h32c1.7 0 3-1.3 3-3V3c0-1.7-1.4-3-3-3z"/><path fill="#2d32aa" d="M35 1c1.1 0 2 .9 2 2v18c0 1.1-.9 2-2 2H3c-1.1 0-2-.9-2-2V3c0-1.1.9-2 2-2h32"/><path d="M15.973 13.121c.914-.125 5.617-.742 6.097-.945.055-1-.53-1.84-1.09-2.371-2.043-1.95-6.265-1.47-7.148 1.445-.344 1.133-.023 2.457.79 3.285.421.43 1.003.758 1.667.98.984.337 2.27.333 3.305.106 1.035-.226 1.722-.766 2.27-1.254-.126-.226-1.13-.875-1.368-.96-.488.472-1.324.929-2.484.898-.875-.02-1.797-.485-2.04-1.184M5.04 15.63l2.09-.031v-4.586c0-.274-.047-.395.09-.606.949-.351 3.234-.613 3.64.781.223.778.04 3.383.075 4.41L13 15.56c.031-1.188.012-2.414.004-3.606-.016-2.578-1.441-3.418-4.508-3.27-.668.036-1.254.098-1.902.212-.309.054-1.45.164-1.547.445zm16.664-6.797c.156.29.52.633.766.871.27.262.465.508.765.809l1.528 1.664c-.106.23-.559.62-.77.855-.515.578-2.203 2.207-2.375 2.567l2.399-.008c.093-.086.199-.156.297-.258.097-.105.105-.148.214-.254l1.543-1.527c.367.23 1.188 1.332 1.649 1.59.86.488 1.687.511 2.886.449l-3.175-3.485c.218-.28.558-.585.812-.851l2.25-2.39-2.457-.009-1.84 1.97c-.488-.227-.984-1.188-1.664-1.56-.863-.48-1.625-.484-2.828-.433zm9.422 6.766l2.04-.032-.02-6.71h-2.028zm-15.34-3.907c.418-2.054 3.64-1.921 4.106-.601z" fill="#fff"/></g></svg>