<svg xmlns="http://www.w3.org/2000/svg" role="img" fill="none" viewBox="0 0 38 24" width="38" height="24" aria-labelledby="pi-nh_card"><title id="pi-nh_card">NH Card</title><rect x="1" y="1" width="36" height="22" rx="2" fill="#fff"/><rect x=".5" y=".5" width="37" height="23" rx="2.5" stroke="#000" stroke-opacity=".07"/><path d="M9.605 7L7.438 8.087 5.273 7l2.165 4.12L9.605 7z" fill="#FDB913"/><path d="M10.362 10.183l-.032-.027 1.536-.651V7.333L9.191 8.479l-1.48 2.818a2.258 2.258 0 11-.53 0L5.688 8.48 3.002 7.333v2.172l1.546.65-.034.028a4.438 4.438 0 105.848 0z" fill="#FDB913"/><path d="M34.44 8.492h-1.299v3.353h-5.308V8.492h-1.3a.619.619 0 00-.557.663v7.086a.619.619 0 00.558.66h1.299v-3.6h5.308v3.6h1.3a.616.616 0 00.557-.66V9.155a.614.614 0 00-.557-.663zM23.812 8.492h-1.3v6.44L18.61 9.789c-.648-.74-1.094-1.297-2.132-1.297h-1.324v7.749a.616.616 0 00.562.66h1.297v-6.469l3.927 5.109c.666.769 1.255 1.36 2.22 1.36h1.212V9.156a.616.616 0 00-.56-.663z" fill="#0066B3"/></svg>