<svg xmlns="http://www.w3.org/2000/svg" role="img" viewBox="0 0 38 24" width="38" height="24" aria-labelledby="pi-nomba"><title id="pi-nomba">Nomba</title><path opacity=".07" d="M35 0H3C1.3 0 0 1.3 0 3v18c0 1.7 1.4 3 3 3h32c1.7 0 3-1.3 3-3V3c0-1.7-1.4-3-3-3z"/><path fill="#fc0" d="M35 1c1.1 0 2 .9 2 2v18c0 1.1-.9 2-2 2H3c-1.1 0-2-.9-2-2V3c0-1.1.9-2 2-2h32"/><path d="M10.33 11.54c-.1-1.15.11-2.48 0-3.59a.86.86 0 00-.7-.75H3.81c-.5.12-.7.57-.64 1.05-.52-.25-1.2-.09-1.47.44-.35.72.16 1.2.55 1.75-.62.36-.87.97-.47 1.63.06.1.43.46.43.53-.7.28-1.02.85-.71 1.58.03.09.17.14.14.27-.57.16-.72.95-.49 1.42.12.24 1.15 1.48 1.37 1.65.19.16.4.26.66.25-.03.28.03.67.26.86.03.03.32.19.34.19h1.85v1.75s.07.14.09.15h5.91l.09-.1v-7.44l-1.38-1.65zM3.7 7.85c0-.08.32-.19.41-.17 1.71.11 3.59-.15 5.29 0 .12.01.41.06.41.21v1.32H3.7V7.84zm0 1.9h6.1v1.3c-.73-.33-1.56.11-1.56.94s1.13 1.45 1.56 2.07v2.48H4.22l-.23-.51c.25-.2.45-.36.55-.68.2-.68-.25-1.03-.61-1.5.77-.16 1.11-.96.69-1.64-.1-.17-.93-1.05-.93-1.13V9.76zm-1.56-.3c-.19-.51.26-.99.75-.75.06.02.28.23.28.25v1.56a.61.61 0 01-.36-.15c-.05-.05-.64-.87-.67-.92zm.02 2.29c-.17-.32.01-.76.36-.83.18-.03.31.01.45.11.12.09 1.15 1.34 1.24 1.5.28.55-.29 1.05-.79.73l-1.27-1.53zm.22 1.39c.11-.01.28.05.37.12.26.44 1.11 1.12 1.28 1.56.23.58-.44 1.02-.89.61-.17-.15-1.06-1.23-1.18-1.42-.21-.36-.01-.84.42-.87zm.47 4.02c-.43-.32-.87-1.12-1.27-1.51-.18-.34.07-.83.46-.78.31.4.61.89 1.05 1.14.25.14.35.1.54.42.32.57-.28 1.11-.79.73zm1 1.15c-.19-.02-.2-.5-.17-.63.01-.05.54-.38.49-.61H9.8v1.08s-.06.1-.08.11l-5.87.05zm7.38 1.9l-.07.08h-5l-.08-.08v-1.37h3.58c.24 0 .62-.42.64-.66v-3.68c.02-.06.31-.01.25-.34-.03-.2-1.49-1.53-1.71-1.81-.36-.57.19-1.16.76-.81l1.62 1.8v6.87z"/><path fill="#fff" d="M9.8 11.05v-1.3H3.7v1.32c0 .08.83.96.93 1.13.42.68.08 1.48-.69 1.64.36.47.81.83.61 1.5-.1.32-.31.47-.55.68l.23.51h5.58v-2.48c-.43-.62-1.56-1.28-1.56-2.07s.83-1.27 1.56-.94zm-1.09 2.1c0 .06-.01.12-.01.19H5.84c-.06 0-.12-.11-.12-.17v-.18l-.75.57h-.01l.76.57v-.18s.07-.16.12-.16h1.63s.09-.05.09-.09v-.18c0-.07.18-.16.24-.08l.87.66s.05.07.05.11-.02.08-.05.11l-.87.66c-.06.07-.24-.02-.24-.08v-.18a.09.09 0 00-.09-.09H4.76c0-.07 0-.14.01-.19h2.86c.06 0 .12.1.12.16v.18l.75-.57-.75-.57v.18c0 .06-.07.16-.12.16H6s-.09.05-.09.1v.17c0 .07-.18.16-.24.09l-.87-.66s-.05-.08-.05-.12c0-.03.02-.08.05-.11l.87-.66c.06-.07.24.02.24.08v.18c0 .06.05.1.09.1h2.71z"/><path d="M7.22 8.68c.34.37.91-.18.56-.54-.35-.36-.89.18-.56.54zm1.46-.65c-.48.05-.42.81.08.76.47-.05.43-.81-.08-.76zm-.35 9.27H4.82c-.13 0-.2.44.05.48h3.46c.16 0 .16-.48 0-.48zm.34-3.21s.05.07.05.11-.02.08-.05.11l-.87.66c-.06.07-.24-.02-.24-.08v-.18a.09.09 0 00-.09-.09H4.76c0-.07 0-.14.01-.19h2.86c.06 0 .12.1.12.16v.18l.75-.57-.75-.57v.18c0 .06-.07.16-.12.16H6s-.09.05-.09.1v.17c0 .07-.18.16-.24.09l-.87-.66s-.05-.08-.05-.12c0-.03.02-.08.05-.11l.87-.66c.06-.07.24.02.24.08v.18c0 .06.05.1.09.1h2.71c0 .06-.01.12-.01.19H5.84c-.06 0-.12-.11-.12-.17v-.18l-.75.57h-.01l.76.57v-.18s.07-.16.12-.16h1.63s.09-.05.09-.09v-.18c0-.07.18-.16.24-.08l.87.66zm3.49-1.01l.77-4.64h1.86c.34 0 .62.05.83.15.21.1.36.24.45.42.09.18.11.38.07.62-.03.18-.09.34-.19.47-.09.14-.21.25-.35.34-.14.09-.29.15-.46.19v.05c.17 0 .32.06.46.15s.24.22.31.39.08.36.05.59c-.04.25-.14.47-.29.66-.15.19-.36.34-.62.46s-.56.17-.9.17h-1.98zm1.12-.8h.8c.27 0 .48-.05.62-.16s.23-.25.26-.42c.02-.13 0-.24-.04-.34s-.12-.18-.23-.23-.24-.08-.39-.08h-.82l-.2 1.23zm.31-1.9h.73a.836.836 0 00.65-.27c.07-.08.12-.19.14-.31.03-.17 0-.3-.11-.41-.1-.1-.26-.15-.48-.15h-.75l-.19 1.15zm3.49 2.77c-.22 0-.41-.04-.57-.12a.702.702 0 01-.35-.35c-.07-.15-.09-.34-.06-.57.03-.19.1-.35.19-.49.09-.13.21-.24.34-.32.14-.08.29-.14.45-.18.16-.04.33-.07.5-.09.21-.02.37-.04.5-.06.13-.02.22-.05.29-.08.06-.04.1-.09.11-.17.02-.16 0-.27-.08-.35-.07-.08-.19-.12-.36-.12s-.32.04-.44.11c-.12.08-.21.17-.26.29l-.88-.07c.08-.21.2-.39.36-.55.16-.15.35-.27.58-.36.23-.08.48-.13.76-.13.19 0 .37.02.54.07.17.05.32.12.44.21s.21.22.27.37c.06.15.07.33.03.53l-.39 2.35h-.92l.08-.48h-.03c-.07.11-.17.2-.27.29-.11.08-.23.15-.37.19-.14.05-.29.07-.47.07zm.39-.67c.14 0 .27-.03.39-.08.12-.06.22-.13.29-.23.08-.1.13-.21.15-.33l.06-.37s-.08.04-.13.05c-.05.02-.12.03-.18.04l-.2.03c-.07.01-.13.02-.18.03-.12.02-.22.04-.31.08s-.17.08-.22.15-.09.14-.11.23c-.02.13.01.23.1.3s.2.1.35.1zm3.38-1.41l-.34 2.01h-.96l.58-3.48h.92l-.1.61h.04c.11-.2.26-.36.46-.48s.43-.18.69-.18c.24 0 .44.05.6.16.16.1.28.25.34.45.07.2.08.43.03.7l-.37 2.22h-.96l.34-2.04c.04-.21 0-.38-.08-.5s-.23-.18-.43-.18c-.13 0-.25.03-.36.08-.11.06-.2.14-.27.24s-.12.23-.15.38zm2.41 2.01l.77-4.64H25l-.77 4.64h-.97zm1.04-1l.19-1.16h.14l1.34-1.32h1.11l-1.79 1.75h-.23l-.77.73zm1.14 1l-.77-1.52.76-.68 1.14 2.2h-1.13zm-12.82 1.7l.14-.81h3.81l-.14.81h-1.42l-.63 3.83h-.97l.63-3.83h-1.42zm3.17 3.83l.58-3.48h.94l-.1.61h.04c.1-.22.23-.38.4-.49s.35-.17.54-.17h.15c.05 0 .1.01.15.02l-.14.86s-.1-.03-.18-.04-.15-.01-.22-.01a.86.86 0 00-.39.09c-.12.06-.22.15-.3.25-.08.11-.14.23-.16.38l-.32 1.97h-.97zm3.24.07c-.22 0-.41-.04-.57-.12a.702.702 0 01-.35-.35c-.07-.15-.09-.34-.06-.57.03-.19.1-.35.19-.49.09-.13.21-.24.34-.32.14-.08.29-.14.45-.18.16-.04.33-.07.5-.09.21-.02.37-.04.5-.06.13-.02.22-.05.29-.08.06-.04.1-.09.11-.17.02-.16 0-.27-.08-.35-.07-.08-.19-.12-.36-.12s-.32.04-.44.11c-.12.08-.21.17-.26.29l-.88-.07c.08-.21.2-.39.36-.55.16-.15.35-.27.58-.36.23-.08.48-.13.76-.13.19 0 .37.02.54.07.17.05.32.12.44.21s.21.22.27.37c.06.15.07.33.03.53L21 18.6h-.92l.08-.48h-.03c-.07.11-.17.2-.27.29-.11.08-.23.15-.37.19-.14.05-.29.07-.47.07zm.39-.67c.14 0 .27-.03.39-.08.12-.06.22-.13.29-.23.08-.1.13-.21.15-.33l.06-.37s-.08.04-.13.05c-.05.02-.12.03-.18.04l-.2.03c-.07.01-.13.02-.18.03-.12.02-.22.04-.31.08s-.17.08-.22.15-.09.14-.11.23c-.02.13.01.23.1.3s.2.1.35.1zm3.38-1.41l-.34 2.01h-.96l.58-3.48H23l-.1.61h.04c.11-.2.26-.36.46-.48s.43-.18.69-.18c.24 0 .44.05.6.16.16.1.28.25.34.45.07.2.08.43.03.7l-.37 2.22h-.96l.34-2.04c.04-.21 0-.38-.08-.5s-.23-.18-.43-.18c-.13 0-.25.03-.36.08-.11.06-.2.14-.27.24s-.12.23-.15.38zm5.71-.48l-.88.05c0-.08-.02-.15-.06-.21s-.09-.11-.16-.15-.16-.05-.26-.05c-.16 0-.3.04-.42.11a.41.41 0 00-.21.28c-.01.07 0 .13.06.18.05.05.16.09.31.13l.61.13c.33.07.56.19.71.35s.2.37.15.63c-.04.22-.13.42-.29.58-.16.17-.36.29-.6.38-.24.09-.51.14-.8.14-.47 0-.83-.1-1.08-.29-.25-.19-.36-.46-.36-.79l.94-.05c0 .14.06.25.15.32s.22.11.38.11c.18 0 .33-.03.46-.11s.2-.17.21-.29c.01-.08-.01-.14-.07-.19-.06-.05-.16-.09-.31-.12l-.58-.12c-.33-.07-.57-.19-.71-.37s-.19-.4-.15-.67c.04-.22.13-.4.27-.56s.33-.27.56-.36c.23-.08.49-.12.78-.12.45 0 .79.09 1.02.28.23.19.34.44.33.76zm2.48-.99l-.12.73h-2.15l.12-.73h2.15zm-2.24 3.48l.62-3.73c.04-.25.12-.46.25-.63.13-.17.28-.29.47-.37s.39-.12.61-.12c.15 0 .28.01.4.03.12.02.21.04.26.06l-.29.73s-.08-.02-.13-.03-.11-.02-.16-.02c-.14 0-.25.03-.31.1a.49.49 0 00-.13.28l-.62 3.71h-.96zm3.45.07c-.36 0-.65-.07-.89-.22-.23-.15-.4-.35-.49-.62-.09-.27-.11-.59-.05-.95s.18-.67.37-.94c.18-.27.41-.48.69-.63.28-.15.59-.23.93-.23.23 0 .44.04.62.11s.34.18.47.33c.12.15.21.33.25.55.05.22.04.48 0 .77l-.04.27h-2.94l.09-.6h2.03c.02-.14.02-.26-.03-.37s-.11-.19-.21-.25c-.09-.06-.21-.09-.35-.09s-.28.03-.4.1-.23.16-.31.27-.14.23-.16.36l-.11.6c-.03.18-.02.33.02.45s.12.21.22.27.24.09.41.09c.11 0 .21-.01.3-.04s.18-.07.25-.13.13-.14.18-.22l.88.06c-.08.21-.21.4-.37.56-.17.16-.37.28-.6.37s-.49.13-.78.13zm1.98-.07l.58-3.48h.94l-.1.61h.04c.1-.22.23-.38.4-.49s.35-.17.54-.17h.15c.05 0 .1.01.15.02l-.14.86s-.1-.03-.18-.04-.15-.01-.22-.01a.86.86 0 00-.39.09c-.12.06-.22.15-.3.25-.08.11-.14.23-.16.38l-.32 1.97h-.97z"/></svg>