<svg xmlns="http://www.w3.org/2000/svg" role="img" viewBox="0 0 38 24" width="38" height="24" aria-labelledby="pi-nordea"><title id="pi-nordea">Nordea</title><path fill="#000" opacity=".07" d="M35 0H3C1.3 0 0 1.3 0 3v18c0 1.7 1.4 3 3 3h32c1.7 0 3-1.3 3-3V3c0-1.7-1.4-3-3-3z"/><path fill="#fff" d="M35 1c1.1 0 2 .9 2 2v18c0 1.1-.9 2-2 2H3c-1.1 0-2-.9-2-2V3c0-1.1.9-2 2-2h32"/><path d="M33 9.89a2.82 2.82 0 00-2.57 2.61 2.78 2.78 0 002.77 3 2.05 2.05 0 001.7-.9v.83H36v-2.68a2.75 2.75 0 00-3-2.86zm1.83 2.88a1.58 1.58 0 01-1.8 1.5 1.63 1.63 0 01-1.4-1.4 1.61 1.61 0 113.2-.27zm-7.71-2.88a2.81 2.81 0 102.67 3.88l-1.07-.32a1.65 1.65 0 01-2.93.1L30 12.4a2.83 2.83 0 00-2.85-2.51zm-1.55 2.68a1.64 1.64 0 011.1-1.52 1.5 1.5 0 011.92.7zM17.91 11V9.87a1.67 1.67 0 00-1.58.83v-.63h-1.2v5.33h1.23v-2.63A1.58 1.58 0 0117.91 11zm-11 2.23L3.25 9H2v6.4h1.28v-4.31L7 15.4h1.13V9H6.9v4.28zm16.73-4.84h-1.15v2.1a2.42 2.42 0 00-1.85-.57 2.792 2.792 0 00.2 5.58 2.05 2.05 0 001.7-.8v.7h1.08v-7zm-1.17 4.38a1.59 1.59 0 01-1.81 1.5 1.64 1.64 0 01-1.4-1.4 1.61 1.61 0 113.21-.27zM11.63 9.89a2.81 2.81 0 102.8 2.81 2.8 2.8 0 00-2.8-2.81zm0 4.41a1.61 1.61 0 111.6-1.6 1.6 1.6 0 01-1.6 1.6z" fill="#0000a0"/></svg>