<svg xmlns="http://www.w3.org/2000/svg" role="img" viewBox="0 0 38 24" width="38" height="24" aria-labelledby="pi-notyd"><title id="pi-notyd">NOTYD</title><path opacity=".07" d="M35 0H3C1.3 0 0 1.3 0 3v18c0 1.7 1.4 3 3 3h32c1.7 0 3-1.3 3-3V3c0-1.7-1.4-3-3-3z"/><path d="M35 1c1.1 0 2 .9 2 2v18c0 1.1-.9 2-2 2H3c-1.1 0-2-.9-2-2V3c0-1.1.9-2 2-2h32" fill="#23c09c"/><path class="st1" d="M5.497 15.03l.221-.08a.22.22 0 00.145-.207v-2.695c0-.003.004-.004.005-.002l2.731 2.927a.22.22 0 00.235.057l.221-.08a.22.22 0 00.145-.206v-3.289a.387.387 0 00-.104-.264L7.59 9.58a.22.22 0 00-.235-.056l-.223.08a.22.22 0 00-.145.206v2.695a.003.003 0 01-.005.002L4.25 9.58a.22.22 0 00-.235-.057l-.221.08a.22.22 0 00-.145.206v3.288c0 .099.037.193.104.265l1.507 1.61a.222.222 0 00.236.056h0zm1.996-4.825l1.203 1.291v2.85l-1.203-1.291v-2.85zm-3.337.003L5.358 11.5v2.85l-1.202-1.291v-2.85zM19.42 10.16c-1.512 0-2.104.532-2.104 2.117 0 1.583.592 2.115 2.104 2.115 1.525 0 2.105-.531 2.105-2.115s-.58-2.116-2.105-2.116zm0 3.783c-1.176 0-1.531-.414-1.531-1.666 0-1.247.356-1.667 1.531-1.667 1.177 0 1.532.42 1.532 1.667 0 1.252-.355 1.666-1.532 1.666zM21.704 10.658h1.715v3.687h.55v-3.687h1.714v-.45h-3.98zM28.073 12.494l-1.486-2.285h-.603l1.68 2.567c.09.14.137.303.137.469v1.1h.55v-1.1c0-.166.048-.33.138-.47l1.68-2.566h-.603l-1.493 2.285zM32.851 10.209H30.68v4.136h2.254c1.27 0 1.542-1.022 1.542-2.086 0-1.064-.3-2.05-1.625-2.05h0zm-.136 3.686h-1.214c-.225 0-.272-.065-.272-.283v-2.677c0-.195.054-.278.272-.278h1.184c1.034 0 1.218.715 1.218 1.602 0 .886-.153 1.636-1.188 1.636zM15.835 10.209v3.419l-3.08-3.379a.237.237 0 00-.254-.061l-.237.085a.237.237 0 00-.157.223v3.848h.544v-3.419l3.08 3.379c.064.07.164.093.252.061l.238-.085a.237.237 0 00.157-.223v-3.848h-.543 0z" fill="#FFF" stroke="null"/></svg>