<svg xmlns="http://www.w3.org/2000/svg" role="img" viewBox="0 0 38 24" width="38" height="24" aria-labelledby="pi-novalnetinstalmentbyinvoice"><title id="pi-novalnetinstalmentbyinvoice">Novalnet Instalment by Invoice</title><path fill="#000" opacity=".07" d="M35 0H3C1.3 0 0 1.3 0 3v18c0 1.7 1.4 3 3 3h32c1.7 0 3-1.3 3-3V3c0-1.7-1.4-3-3-3z"/><path fill="#fff" d="M35 1c1.1 0 2 .9 2 2v18c0 1.1-.9 2-2 2H3c-1.1 0-2-.9-2-2V3c0-1.1.9-2 2-2h32"/><path fill="#0082c8" d="M13.46 1.98h9.47V8.3h-9.47V1.98zm1.85.79c0 .58-.47 1.05-1.05 1.05v2.63c.58 0 1.05.47 1.05 1.05h5.79c0-.58.47-1.05 1.05-1.05V3.82c-.58 0-1.05-.47-1.05-1.05h-5.79zm2.89.79c.42 0 .82.17 1.12.46.3.3.46.7.46 1.12s-.17.82-.46 1.12-.7.46-1.12.46-.82-.17-1.12-.46-.46-.7-.46-1.12.17-.82.46-1.12c.3-.3.7-.46 1.12-.46zM20.84 8.9s-1.48.04-3.06.04c-.08.19-.12.4-.12.61 0 .45.18.88.5 1.2s.75.5 1.2.5.88-.18 1.2-.5a1.696 1.696 0 00.37-1.85h-.07-.02z"/><path fill="#0082c8" d="M23.63 6.15v4.81c-.63 0-1.13.51-1.13 1.13h-6.23c0-.63-.51-1.13-1.13-1.13V8.92c-.37 0-.66 0-.85-.01v4.04h10.2v-6.8h-.84z"/><path fill="#333" d="M9.29 15.39h.51v2.28h-.51v-2.28zM10.23 15.93h.42l.04.22h.01c.15-.14.32-.26.56-.26.38 0 .54.27.54.7v1.08h-.51v-1.01c0-.25-.07-.33-.22-.33-.13 0-.21.06-.32.17v1.17h-.51v-1.73zM12.01 17.47l.23-.32c.16.12.3.18.45.18.15 0 .22-.06.22-.15 0-.11-.17-.17-.35-.24-.21-.08-.46-.22-.46-.51 0-.32.26-.54.66-.54.27 0 .46.11.61.22l-.23.31a.65.65 0 00-.37-.15c-.13 0-.2.05-.2.14 0 .11.16.15.34.22.22.08.47.21.47.52s-.25.56-.71.56c-.23 0-.49-.1-.67-.24zM13.64 17.04v-.7h-.24v-.38l.27-.02.06-.46h.42v.46h.42v.4h-.42v.69c0 .2.09.28.22.28.06 0 .12-.02.16-.03l.08.37c-.09.03-.22.06-.39.06-.43 0-.6-.27-.6-.67zM14.69 17.19c0-.37.29-.56.98-.64-.01-.15-.09-.25-.27-.25-.15 0-.29.06-.46.16l-.18-.34c.22-.13.47-.23.74-.23.44 0 .69.25.69.78v.99h-.42l-.04-.18h-.01c-.15.13-.31.22-.5.22-.32 0-.52-.23-.52-.52zm.98-.03v-.3c-.37.05-.48.15-.48.29 0 .11.08.17.2.17s.19-.06.29-.15zM16.54 17.13v-1.91h.51v1.93c0 .11.05.14.09.14h.06l.06.38c-.06.02-.14.04-.26.04-.35 0-.47-.23-.47-.58zM17.48 15.93h.42l.04.22h.01c.14-.14.3-.26.53-.26.24 0 .39.11.48.29.15-.16.32-.29.54-.29.37 0 .54.27.54.7v1.08h-.51v-1.01c0-.25-.07-.33-.21-.33-.09 0-.19.05-.29.17v1.17h-.51v-1.01c0-.25-.07-.33-.21-.33-.09 0-.19.05-.29.17v1.17h-.51v-1.73zM20.3 16.8c0-.56.4-.91.82-.91.49 0 .74.36.74.83 0 .09-.01.18-.02.23H20.8c.05.25.22.37.45.37.13 0 .25-.04.37-.11l.17.31c-.18.12-.41.2-.61.2-.49 0-.88-.33-.88-.91zm1.12-.19c0-.19-.08-.33-.29-.33-.16 0-.3.11-.34.33h.63zM22.15 15.93h.42l.04.22h.01c.15-.14.32-.26.56-.26.38 0 .54.27.54.7v1.08h-.51v-1.01c0-.25-.07-.33-.21-.33-.13 0-.21.06-.32.17v1.17h-.51v-1.73zM24.15 17.04v-.7h-.24v-.38l.27-.02.06-.46h.42v.46h.42v.4h-.42v.69c0 .2.09.28.22.28.06 0 .12-.02.16-.03l.08.37c-.09.03-.22.06-.38.06-.43 0-.6-.27-.6-.67zM26.44 17.48h-.01l-.04.18h-.4v-2.45h.51v.86c.12-.12.28-.19.45-.19.42 0 .68.35.68.88 0 .6-.35.94-.73.94-.15 0-.31-.08-.45-.23zm.65-.7c0-.31-.1-.47-.3-.47-.11 0-.2.05-.3.16v.71c.09.08.19.11.28.11.18 0 .32-.15.32-.51zM27.83 18.31l.09-.39s.08.02.12.02c.17 0 .26-.09.3-.23l.03-.09-.67-1.69h.52l.25.75c.05.16.09.32.14.49h.01l.12-.49.21-.75h.49l-.6 1.75c-.17.43-.35.66-.76.66-.11 0-.18-.01-.25-.04zM14.49 18.59H15v2.28h-.51v-2.28zM15.43 19.13h.42l.04.22h.01c.15-.14.32-.26.56-.26.38 0 .54.27.54.7v1.08h-.51v-1.01c0-.25-.07-.33-.22-.33-.13 0-.21.06-.32.17v1.17h-.51v-1.73zM17.18 19.13h.52l.23.82c.04.17.09.35.13.53h.01c.04-.18.09-.36.13-.53l.23-.82h.49l-.57 1.73h-.59l-.58-1.73zM18.99 20c0-.58.41-.91.84-.91s.84.33.84.91-.41.91-.84.91-.84-.33-.84-.91zm1.16 0c0-.3-.11-.5-.32-.5s-.32.2-.32.5.11.49.32.49.32-.19.32-.49zM20.92 18.61c0-.16.12-.27.3-.27s.3.11.3.27-.12.27-.3.27-.3-.11-.3-.27zm.04.52h.51v1.73h-.51v-1.73zM21.76 20c0-.58.42-.91.9-.91.21 0 .38.08.51.19l-.24.33a.341.341 0 00-.24-.1c-.25 0-.41.2-.41.5s.17.49.39.49c.11 0 .22-.06.31-.13l.2.34a.86.86 0 01-.57.21c-.48 0-.86-.33-.86-.91zM23.23 20c0-.56.4-.91.82-.91.49 0 .74.36.74.83 0 .09-.01.18-.02.23h-1.04c.05.25.22.37.45.37.13 0 .25-.04.38-.11l.17.31c-.18.12-.41.2-.62.2-.49 0-.88-.33-.88-.91zm1.11-.19c0-.19-.08-.33-.29-.33-.16 0-.3.11-.34.33h.62z"/></svg>
