<svg aria-labelledby="pi-novalnetprepayment" width="38" height="24" viewBox="0 0 38 24" role="img" fill="none" xmlns="http://www.w3.org/2000/svg"><title id="pi-novalnetprepayment">Novalnet Prepayment</title><g clip-path="url(#pi-novalnetprepaymentclip0_4_2)"><path opacity=".07" d="M35 0H3C1.3 0 0 1.3 0 3v18c0 1.7 1.4 3 3 3h32c1.7 0 3-1.3 3-3V3c0-1.7-1.4-3-3-3z" fill="#000"/><path fill="#fff" d="M35 1c1.1 0 2 .9 2 2v18c0 1.1-.9 2-2 2H3c-1.1 0-2-.9-2-2V3c0-1.1.9-2 2-2h32"/><path d="M26.678 5.386a.207.207 0 000 .275l1.863 1.935c.072.08.175.058.247-.017L29.9 6.173c.073-.081.057-.22-.014-.277L28.088 4.06c-.066-.08-.19-.08-.242 0l-1.168 1.326z" fill="#067DC8"/><path d="M26.431 10.409l-1.009 1.096h.47v7.984H8.541v-7.984H20.8l3.156-3.502H8V20h18.431v-9.591z" fill="#858882"/><path d="M18.706 15.14l.314-1.138H9.57v1.137h9.136zM24.95 16.601H19.77l-1.744.977.262-.975H9.43v1.17h15.517l.001-1.172z" fill="#858882"/><path d="M26.343 5.937c-.066-.08-.19-.08-.242 0l-6.592 7.245a.991.991 0 00-.175.332l-.978 3.497c-.032.097.02.155.108.097l3.052-1.675c.087-.041.205-.162.278-.22l6.396-7.048a.188.188 0 00.04-.063.207.207 0 00-.04-.213l-1.847-1.952zm-5.3 7.697a.86.86 0 01-.294.196s-.314.132-.51-.08c-.175-.213-.052-.568-.052-.568.048-.115.113-.22.191-.31l5.234-5.625a.706.706 0 01.299-.196s.314-.138.505.074c.175.22.051.568.051.568-.048.115-.112.22-.191.31l-5.233 5.631z" fill="#067DC8"/></g><defs><clipPath id="pi-novalnetprepaymentclip0_4_2"><path fill="#fff" d="M0 0h38v24H0z"/></clipPath></defs></svg>
