<svg width="38" height="24" role="img" viewBox="0 0 38 24" aria-labelledby="pi-novalnetinvoice" fill="none" xmlns="http://www.w3.org/2000/svg"><title id="pi-novalnetinvoice">Novalnet Invoice</title><g clip-path="url(#pi-novalnetinvoiceclip0_4_2)"><path fill="#000" opacity=".07" d="M35 0H3C1.3 0 0 1.3 0 3v18c0 1.7 1.4 3 3 3h32c1.7 0 3-1.3 3-3V3c0-1.7-1.4-3-3-3z"/><path fill="#fff" d="M35 1c1.1 0 2 .9 2 2v18c0 1.1-.9 2-2 2H3c-1.1 0-2-.9-2-2V3c0-1.1.9-2 2-2h32"/><path d="M24.906 20.352h-12.22V3.839h12.22v16.513zm-11.724-.49H24.41V4.328H13.182v15.534z" fill="#868686"/><path d="M14.174 6.18h4.416v.304h-4.416V6.18zM14.174 7.44h4.416v.305h-4.416V7.44zM18.796 18.57h4.417v.3h-4.417v-.3zM14.174 10.773h8.911v.304h-8.91v-.304zM14.174 12.095h8.911v.304h-8.91v-.304zM14.174 13.418h8.911v.304h-8.91v-.304zM14.174 14.74h8.911v.305h-8.91v-.304z" fill="#868686"/></g><defs><clipPath id="pi-novalnetinvoiceclip0_4_2"><path fill="#fff" d="M0 0h38v24H0z"/></clipPath></defs></svg>