<svg width="38" height="24" viewBox="0 0 38 24" role="img" aria-labelledby="pi-novalnetcashpayment" xmlns="http://www.w3.org/2000/svg"><title id="pi-novalnetcashpayment">Novalnet Barzahlen/viacash</title><path fill="#000" opacity=".07" d="M35 0H3C1.3 0 0 1.3 0 3v18c0 1.7 1.4 3 3 3h32c1.7 0 3-1.3 3-3V3c0-1.7-1.4-3-3-3z"/><path fill="#fff" d="M35 1c1.1 0 2 .9 2 2v18c0 1.1-.9 2-2 2H3c-1.1 0-2-.9-2-2V3c0-1.1.9-2 2-2h32"/><path d="M9.238 6.667c-.025.004-.055.02-.076.029-.015.01-.22.211-.445.45-.281.29-.419.444-.434.476-.02.046-.026.082-.03.222-.006.098-.01.454-.016.8 0 .6 0 .626.02.662.011.02.344.522.742 1.116.394.589.742 1.106.772 1.147.03.04.067.077.107.108a.173.173 0 00.072.036.193.193 0 00.066-.02.372.372 0 00.087-.078c.027-.03.379-.547.783-1.157a80.39 80.39 0 00.762-1.138c.009-.025.026-.06.026-.092a22.56 22.56 0 000-.79l-.012-.745c-.05-.108-.127-.196-.47-.553-.316-.325-.429-.439-.47-.459l-.05-.026c-1.234-.006-1.397 0-1.432.01l-.002.002z" fill="#0A1223"/><path d="M9.889 7.414a5.664 5.664 0 00-.579.094 4.51 4.51 0 01-.188.036c-.005 0-.01.485-.01 1.07v1.069c.879 0 .997 0 1.069-.015.046-.01.117-.026.163-.042a2.37 2.37 0 00.164-.072c.046-.026.111-.073.148-.099.043-.037.084-.077.123-.119a.89.89 0 00.144-.295c.004-.04.02-.118.02-.175a.644.644 0 00-.006-.176c-.005-.035-.031-.097-.047-.138a.52.52 0 00-.092-.13.86.86 0 00-.322-.165c-.096-.027-.123-.027-.357-.03a3.004 3.004 0 00-.353.014l-.097.016c0 .295.005.33.016.325.005 0 .086-.01.172-.015.118-.01.185-.01.271-.005.062.01.15.027.185.036.04.01.091.036.123.057a.234.234 0 01.065.082.18.18 0 01.021.11.41.41 0 01-.026.133.45.45 0 01-.199.222.733.733 0 01-.132.057c-.056.016-.107.021-.364.021H9.5c-.005-1.38-.005-1.425.016-1.425.043-.012.087-.02.132-.027.061-.005.19-.021.276-.026.2-.016.401-.004.598.035.067.012.134.021.144.021.02.006.03-.02.076-.174.026-.1.052-.181.052-.181 0-.006-.052-.016-.113-.032a2.958 2.958 0 00-.245-.04 2.938 2.938 0 00-.287-.02c-.081-.006-.197 0-.26.003z" fill="#fff"/><path d="M22.753 9.1v1.46l.517-.005c.014-1.166.014-1.187.039-1.27.012-.047.042-.113.057-.15a.596.596 0 01.082-.109.318.318 0 01.091-.071c.026-.01.079-.032.114-.037a.289.289 0 01.132 0 .96.96 0 01.108.037.333.333 0 01.128.181l.02.107c.005.032.01.342.01.688v.63l.517-.005c.005-1.023.005-1.313-.005-1.379a.895.895 0 00-.086-.346.53.53 0 00-.11-.146.522.522 0 00-.23-.145.892.892 0 00-.33-.03c-.047.005-.124.027-.17.036a.86.86 0 00-.291.19l-.066.074-.01-1.168-.517-.006V9.1zm2.26 0v1.46h.51V7.639h-.51V9.1zm-11.884.097v1.364c1.1-.01 1.137-.01 1.239-.036a.817.817 0 00.188-.057.671.671 0 00.15-.078l.102-.077a.705.705 0 00.086-.108c.026-.041.056-.114.077-.16a.66.66 0 00.03-.222.614.614 0 00-.01-.207.747.747 0 00-.056-.135.552.552 0 00-.256-.248.962.962 0 00-.179-.066l-.086-.022a1.23 1.23 0 00.199-.078c.042-.02.091-.055.123-.076.026-.027.065-.073.091-.109a.577.577 0 00.097-.357.631.631 0 00-.076-.33.408.408 0 00-.102-.134.446.446 0 00-.158-.114.84.84 0 00-.18-.067c-.052-.016-.147-.027-.21-.036a12.562 12.562 0 00-.592-.01h-.476v1.363z" fill="#0A1223"/><path d="M13.677 8.603v.326c.359-.006.434-.011.471-.022a.574.574 0 00.113-.056.66.66 0 00.086-.082c.026-.047.032-.063.036-.14a.935.935 0 00-.01-.14.27.27 0 00-.066-.103.439.439 0 00-.113-.078c-.062-.02-.087-.026-.292-.03h-.225v.325z" fill="#fff"/><path d="M15.967 8.51a1.536 1.536 0 00-.552.15c.005.206.01.304.01.357l.01.088a1.41 1.41 0 01.267-.15.916.916 0 01.323-.015.49.49 0 01.136.036.34.34 0 01.099.073c.026.03.05.071.06.103.01.026.02.082.026.128l.005.083c-.362 0-.51.006-.568.011-.05.005-.144.026-.199.036a.907.907 0 00-.19.073.513.513 0 00-.153.113.507.507 0 00-.107.14c-.014.04-.04.102-.046.14a.63.63 0 00.046.439c.05.09.122.164.21.216.14.08.3.118.46.114a.95.95 0 00.174-.037.674.674 0 00.148-.066.995.995 0 00.128-.092c.03-.038.071-.08.082-.1.01-.02.026-.035.031-.031.005 0 .01.062.014.13 0 .065.01.129.01.14.006.008.066.014.236.014h.226c-.015-.265-.023-.53-.027-.795 0-.219-.007-.438-.02-.656-.01-.043-.025-.109-.041-.156a.564.564 0 00-.363-.388 2.536 2.536 0 00-.163-.04l-.204-.02c-.062 0-.15 0-.2.005zm2.317.005a.47.47 0 00-.133.052.713.713 0 00-.307.377c-.01.02-.01-.026-.01-.18v-.207h-.46v2.004h.51c0-.692.006-.95.011-1.019l.036-.2a.57.57 0 01.103-.218.457.457 0 01.092-.076.327.327 0 01.157-.036.695.695 0 01.154.004.315.315 0 01.072.021c.02.005.02-.01.02-.253 0-.145-.004-.264-.004-.268l-.092-.01a.459.459 0 00-.149.01v-.001zm3.12-.004c-.022 0-.093.009-.16.02a3.302 3.302 0 00-.22.046l-.163.057-.052.026c.01.181.01.278.01.336a.29.29 0 00.01.103.212.212 0 00.068-.035.968.968 0 01.475-.17.985.985 0 01.18.004c.052.006.103.02.152.04a.232.232 0 01.088.069c.02.02.046.066.056.098a.836.836 0 01.03.133l.006.078c-.497.01-.604.016-.67.03a1.762 1.762 0 00-.175.048.639.639 0 00-.148.061c-.043.03-.084.063-.123.1a.53.53 0 00-.133.21c-.013.037-.025.11-.036.156a.627.627 0 00.057.33.596.596 0 00.265.265 1 1 0 00.16.06 1 1 0 00.153.027c.066 0 .123 0 .189-.016a.822.822 0 00.322-.15.514.514 0 00.103-.108l.051-.062c.01.134.015.201.02.233l.005.06h.46c-.01-.108-.015-.195-.02-.268 0-.066-.01-.36-.016-.65-.005-.486-.009-.537-.03-.616a1.013 1.013 0 00-.062-.175.57.57 0 00-.387-.3 1.175 1.175 0 00-.226-.04 4.064 4.064 0 00-.164-.011.525.525 0 00-.076.01zm5.24 0a1.09 1.09 0 00-.287.076.83.83 0 00-.225.166.746.746 0 00-.112.14.756.756 0 00-.081.155.835.835 0 00-.053.158c-.014.048-.025.126-.035.172a1.4 1.4 0 00.046.58c.035.114.09.22.163.315.037.04.092.097.129.123.04.031.112.072.158.099.052.02.128.051.174.066.051.01.132.026.188.032.082.01.165.011.247.005.077 0 .154-.007.23-.021.04-.01.112-.027.148-.041.05-.015.1-.034.148-.057l.072-.036c0-.336-.006-.414-.01-.414a.433.433 0 00-.098.041c-.045.027-.123.057-.174.078a1.05 1.05 0 01-.51.057 1.263 1.263 0 01-.113-.032.56.56 0 01-.21-.16.621.621 0 01-.06-.114.589.589 0 01-.032-.119l-.01-.06h1.365c-.01-.25-.027-.363-.03-.414a2.685 2.685 0 00-.036-.16 1.418 1.418 0 00-.133-.3.893.893 0 00-.215-.212.735.735 0 00-.281-.104 1.59 1.59 0 00-.184-.026 1.4 1.4 0 00-.179.007zm2.377 0a.945.945 0 00-.312.103 1.145 1.145 0 00-.138.123l-.076.083v-.264h-.491v2.005h.51c0-.795.006-1.054.01-1.115.011-.062.027-.151.041-.192a.496.496 0 01.067-.15.336.336 0 01.153-.149.738.738 0 01.113-.037c.037-.005.091-.005.118-.005a.43.43 0 01.087.026.33.33 0 01.076.052.373.373 0 01.097.185c.016.048.016.176.021.723l.005.662h.51l-.003-1.482c-.052-.15-.077-.228-.098-.264a.774.774 0 00-.102-.135.768.768 0 00-.133-.103c-.041-.015-.098-.04-.133-.047a.943.943 0 00-.153-.026c-.053 0-.129 0-.169.007zm-10.195.247v.206l.941.006-.987 1.157v.434h1.636v-.413l-1.002-.005.97-1.163v-.423h-1.558v.201z" fill="#0A1223"/><path d="M26.68 8.902a.643.643 0 00-.108.037.528.528 0 00-.086.062.453.453 0 00-.108.175.472.472 0 00-.031.114l-.01.062h.869a.994.994 0 00-.066-.258.44.44 0 00-.17-.165.447.447 0 00-.148-.036.428.428 0 00-.143.01zm-13.003.833v.397c.152-.001.304-.01.455-.026.026-.004.077-.02.113-.03a.674.674 0 00.102-.063.35.35 0 00.072-.076.44.44 0 00.01-.382.43.43 0 00-.061-.084.695.695 0 00-.102-.066.643.643 0 00-.118-.043 2.148 2.148 0 00-.262-.015l-.21-.01v.398zm2.424-.092a.576.576 0 00-.153.03.55.55 0 00-.123.052.527.527 0 00-.078.071.454.454 0 00-.039.089c-.006.026-.017.066-.017.093a.24.24 0 00.077.165c.024.02.05.035.077.046a.385.385 0 00.164.021c.122 0 .127 0 .2-.037a.568.568 0 00.127-.087.791.791 0 00.082-.114.891.891 0 00.045-.139c.006-.042.016-.104.016-.14v-.062c-.23 0-.332.007-.378.012zm5.394 0a.894.894 0 00-.123.02.772.772 0 00-.113.04c-.03.022-.076.052-.097.074a.356.356 0 00-.05.087c-.016.03-.016.066-.016.119.005.057.01.082.036.119.02.035.053.063.092.077.056.031.072.031.19.031.11 0 .127 0 .183-.031a.63.63 0 00.128-.088.516.516 0 00.092-.124.828.828 0 00.061-.29v-.046a3.85 3.85 0 00-.383.012z" fill="#fff"/><path d="M8.221 12.504v.093l.005.083h21.592v-.185c-19.82-.008-21.592-.008-21.597.008v.001zm8.033 1.354a.342.342 0 00-.158.16c-.021.036-.027.067-.027.14 0 .066.006.108.021.134a.6.6 0 00.057.082.31.31 0 00.091.078c.04.025.087.037.134.036a.233.233 0 00.133-.021.306.306 0 00.118-.071.409.409 0 00.097-.239.541.541 0 00-.021-.113.428.428 0 00-.169-.186.28.28 0 00-.128-.026c-.07-.005-.087-.005-.148.026zm10.108 1.508v1.463h.363c.005-1.235.01-1.308.026-1.37a.753.753 0 01.057-.134.502.502 0 01.357-.273.641.641 0 01.415.041c.037.02.072.047.102.078.035.03.065.076.086.123a.65.65 0 01.046.156c.005.046.01.35.01.727v.652h.363c-.005-1.452-.005-1.468-.03-1.555a1.738 1.738 0 00-.072-.185.53.53 0 00-.132-.181.575.575 0 00-.18-.135 1.023 1.023 0 00-.168-.067 1.167 1.167 0 00-.22-.017.92.92 0 00-.23.021 1.81 1.81 0 00-.164.066.582.582 0 00-.127.094c-.032.027-.072.073-.098.098l-.04.057v-1.12h-.363v1.461zm-15.615-1.38a.445.445 0 00-.08.054.295.295 0 00-.057.082c-.021.04-.021.108-.021 1.575 0 1.36 0 1.535.016 1.572.01.026.03.057.045.076.016.016.052.037.072.053.027.01.071.02.108.02a.327.327 0 00.102-.021c.02-.015.056-.036.07-.052a.387.387 0 00.048-.076c.014-.037.014-.212.014-1.572 0-1.468 0-1.534-.02-1.575a.293.293 0 00-.056-.084.253.253 0 00-.169-.066.404.404 0 00-.072.015zm1.601.193a.27.27 0 00-.072.062.314.314 0 00-.05.071c-.011.032-.011.249-.011 1.215V16.7a.357.357 0 00.082.13.224.224 0 00.076.04c.05.02.108.02.158 0a.222.222 0 00.078-.04.315.315 0 00.061-.079l.02-.051c0-2.14 0-2.356-.01-2.388a.57.57 0 00-.045-.071.453.453 0 00-.079-.062.273.273 0 00-.208 0zm-2.327.402a.316.316 0 00-.153.161c-.01.03-.01.34-.01 1.255 0 .936 0 1.225.01 1.256.01.026.026.062.042.078a.298.298 0 00.076.06.27.27 0 00.209.011.294.294 0 00.082-.066.206.206 0 00.057-.104c.01-.04.014-.383.014-1.235 0-.764-.004-1.194-.014-1.23a.267.267 0 00-.108-.16.257.257 0 00-.107-.03.28.28 0 00-.098.004zm1.518.005c-.03.016-.076.037-.097.057a.257.257 0 00-.075.088.517.517 0 00-.053.109c-.004.036-.004.377-.004.92v.862a.555.555 0 00.113.176.36.36 0 00.118.072c.03.006.075.016.102.016.02 0 .065-.01.096-.016a.366.366 0 00.2-.185l.03-.063c0-1.69-.004-1.777-.02-1.824a.35.35 0 00-.072-.113.373.373 0 00-.107-.083.462.462 0 00-.113-.03.424.424 0 00-.118.014zm6.249.114c-.13.036-.252.094-.363.17a1.378 1.378 0 00-.133.12c-.04.044-.077.09-.113.138-.02.037-.056.093-.072.13a.525.525 0 00-.055.135 1.747 1.747 0 00-.047.176 2.58 2.58 0 00-.014.211c0 .067.009.166.014.217.01.052.032.129.047.176.012.047.03.092.055.134.016.036.053.093.072.13.07.097.152.184.246.258.052.037.107.07.164.097a.872.872 0 00.445.089c.07-.005.164-.016.204-.026a.939.939 0 00.256-.114.873.873 0 00.107-.093c.026-.026.052-.046.056-.04 0 .005.005.056.005.113v.108l.527-.005v-2.082l-.527-.005c0 .165-.005.217-.005.222-.005.005-.03-.016-.056-.042a.873.873 0 00-.107-.093.928.928 0 00-.256-.114 1.63 1.63 0 00-.215-.026.784.784 0 00-.235.016zm2.725-.01c-.046.01-.123.026-.174.042-.06.018-.118.04-.174.066a1.21 1.21 0 00-.127.072c-.032.022-.082.068-.128.109-.044.044-.085.09-.123.14a1.29 1.29 0 00-.153.304l-.036.14a1.85 1.85 0 00-.015.217c0 .088.01.186.015.223l.036.139c.015.04.04.108.061.15.021.041.052.098.072.129.071.09.151.174.24.248a.78.78 0 00.154.093c.186.1.398.14.607.114a.837.837 0 00.185-.037 1.02 1.02 0 00.572-.402.943.943 0 00.056-.084c.005-.014-.026-.036-.122-.092a1.903 1.903 0 01-.153-.093c-.026-.016-.026-.01-.052.036a.733.733 0 01-.21.206.726.726 0 01-.337.103.767.767 0 01-.189-.009.6.6 0 01-.183-.062.594.594 0 01-.15-.103.953.953 0 01-.117-.13 1.054 1.054 0 01-.076-.15.886.886 0 01-.042-.372.659.659 0 01.037-.166.634.634 0 01.178-.278 1.05 1.05 0 01.163-.124c.052-.023.106-.042.16-.057a.91.91 0 01.363.006.69.69 0 01.281.154.985.985 0 01.102.125l.036.066.307-.18a2.337 2.337 0 00-.107-.165c-.026-.032-.072-.09-.107-.12a1.51 1.51 0 00-.144-.108 1.533 1.533 0 00-.159-.083 1.918 1.918 0 00-.163-.047 1.9 1.9 0 00-.2-.026c-.06 0-.143 0-.183.005h-.001zm2.183.004a.966.966 0 00-.603.322 1.29 1.29 0 00-.138.175.834.834 0 00-.082.165c-.02.047-.04.124-.056.172a1.081 1.081 0 00-.02.251c0 .124.004.192.02.26.015.046.035.124.056.17.052.13.128.247.225.347.053.056.134.123.18.158.05.032.117.07.157.089.051.02.105.035.16.046a.938.938 0 00.168.032c.065.003.13.001.194-.005a3.5 3.5 0 00.18-.037c.035-.015.106-.04.152-.066a.937.937 0 00.271-.233l.046-.053.005.337h.359v-2.082h-.359l-.005.335c-.081-.098-.138-.15-.173-.185a.878.878 0 00-.3-.166 4.322 4.322 0 00-.171-.036 1.985 1.985 0 00-.144-.01c-.025.005-.081.01-.122.014zm2.347-.005a.678.678 0 00-.137.037.656.656 0 00-.139.062.629.629 0 00-.128.088.81.81 0 00-.092.108 1.25 1.25 0 00-.062.114.887.887 0 00-.03.135.841.841 0 000 .159.501.501 0 00.215.346.618.618 0 00.108.068c.026.01.147.053.274.088.134.04.283.093.334.12a.766.766 0 01.144.087.292.292 0 01.055.082c.016.031.016.062.01.104a.568.568 0 01-.02.087.466.466 0 01-.051.063.384.384 0 01-.103.062.717.717 0 01-.183.03c-.078 0-.149 0-.19-.01a.424.424 0 01-.128-.047.683.683 0 01-.118-.082.472.472 0 01-.086-.119l-.03-.062c-.292.17-.308.181-.301.201a.773.773 0 00.18.244c.06.056.104.092.182.13.05.026.138.055.194.07.082.017.166.024.25.022.084.002.169-.005.251-.021.055-.018.11-.037.164-.057a.643.643 0 00.327-.336c.026-.112.032-.227.02-.34a1.319 1.319 0 00-.046-.13.673.673 0 00-.097-.135.705.705 0 00-.128-.098 2.459 2.459 0 00-.312-.108 4.508 4.508 0 01-.322-.109 1.475 1.475 0 01-.133-.072.202.202 0 01-.076-.088.173.173 0 01-.026-.083c0-.026.005-.053.015-.077a.19.19 0 01.041-.078.302.302 0 01.088-.066.61.61 0 01.311-.046c.05.009.098.022.144.04a.702.702 0 01.092.058c.046.047.086.1.118.158l.148-.082c.117-.066.148-.087.142-.103a1.035 1.035 0 00-.046-.078 1.31 1.31 0 00-.117-.133.928.928 0 00-.164-.114 1.116 1.116 0 00-.169-.062 1.046 1.046 0 00-.194-.027 1.032 1.032 0 00-.179 0zm-11.38.048c0 .005.177.475.392 1.043l.389 1.044h.608c.598-1.597.773-2.067.773-2.073 0-.014-.066-.014-.292-.014-.266 0-.286 0-.29.02-.006.01-.108.304-.226.656-.123.346-.23.661-.24.698-.011.036-.027.062-.031.062a22.568 22.568 0 01-.251-.723l-.245-.715h-.59l.002.002zm2.463.014c-.004.006-.004.476-.004 1.045l.005 1.028.526.005v-2.094c-.46 0-.526.006-.526.015l-.001.001z" fill="#0A1223"/><path d="M22.772 15.046l-.106.022a.78.78 0 00-.348.236.795.795 0 00-.139.274.714.714 0 00-.02.202c0 .093.006.155.02.207a.726.726 0 00.798.532 1.16 1.16 0 00.154-.03c.051-.023.1-.049.148-.079a1.6 1.6 0 00.144-.123.843.843 0 00.102-.145.743.743 0 00.056-.16.803.803 0 00-.056-.559.835.835 0 00-.241-.268.742.742 0 00-.301-.109 1.852 1.852 0 00-.113-.01.955.955 0 00-.097.01zm-4.836.166l-.113.046a.592.592 0 00-.229.228c-.015.035-.042.092-.052.13a.79.79 0 00-.015.164c0 .057.006.134.016.171.01.036.036.093.051.128a.591.591 0 00.23.228c.036.016.092.036.118.046a.984.984 0 00.296 0l.118-.046a.592.592 0 00.23-.228.479.479 0 00.046-.119.84.84 0 000-.357.48.48 0 00-.047-.117.592.592 0 00-.22-.223 1.123 1.123 0 00-.118-.046.992.992 0 00-.311-.005z" fill="#fff"/></svg>
