<svg xmlns="http://www.w3.org/2000/svg" role="img" viewBox="0 0 38 24" width="38" height="24" aria-labelledby="pi-novuna"><title id="pi-novuna">Novuna</title><path opacity=".07" d="M35 0H3C1.3 0 0 1.3 0 3v18c0 1.7 1.4 3 3 3h32c1.7 0 3-1.3 3-3V3c0-1.7-1.4-3-3-3z"/><path fill="#fff" d="M35 1c1.1 0 2 .9 2 2v18c0 1.1-.9 2-2 2H3c-1.1 0-2-.9-2-2V3c0-1.1.9-2 2-2h32"/><path fill="#7D3CFF" d="M34.179 9.954a.457.457 0 00-.448.467v.075a2.48 2.48 0 00-1.618-.604c-1.39 0-2.519 1.164-2.519 2.595 0 1.426 1.129 2.59 2.519 2.59a2.48 2.48 0 001.618-.604v.151c0 .257.199.466.448.466a.46.46 0 00.453-.466v-4.203a.46.46 0 00-.453-.467zm-2.066 4.194c-.893 0-1.617-.746-1.617-1.661 0-.92.724-1.666 1.617-1.666.889 0 1.618.746 1.618 1.666 0 .915-.729 1.661-1.618 1.661zM23.259 9.95a.457.457 0 00-.449.466v2.382c0 .751-.595 1.364-1.324 1.364-.728 0-1.319-.613-1.319-1.364v-2.382a.46.46 0 00-.453-.466.46.46 0 00-.453.466v2.382c0 1.266.999 2.292 2.225 2.292 1.227 0 2.226-1.026 2.226-2.292v-2.382a.46.46 0 00-.453-.466zm3.465-.058c-1.226 0-2.221 1.031-2.221 2.293v2.376c0 .258.2.467.453.467a.458.458 0 00.449-.467v-2.376c0-.751.595-1.36 1.324-1.36.728 0 1.319.609 1.319 1.36v2.376c0 .258.2.467.453.467a.458.458 0 00.449-.467v-2.376c0-1.267-.995-2.293-2.226-2.293zM7.359 8.115a.458.458 0 00-.454.467v4.696L5.724 11.82a.445.445 0 00-.636-.057.472.472 0 00-.057.653l1.977 2.439.004.004s0 .005.005.005a.086.086 0 00.026.031l.014.013a.111.111 0 00.022.018l.013.013c.009.005.018.009.022.013.005.005.014.009.018.014l.027.013c.004 0 .009.005.017.009.009.004.018.004.027.009.005 0 .009.004.013.004.014.005.023.009.036.009.004.005.009.005.009.005.013.004.027.004.035.009h.049c.005 0 .009.004.014.004.013 0 .026-.004.04-.004h.013c.009-.005.018-.005.031-.005.004 0 .009-.004.013-.004.009 0 .018-.005.027-.009.004 0 .009 0 .013-.005a.062.062 0 00.027-.009c.004 0 .009-.004.013-.004l.027-.013c.004 0 .009-.005.013-.009.005-.005.014-.009.023-.014.004 0 .008-.004.013-.008.004-.005.013-.009.022-.014.005-.004.009-.009.009-.013h.004l.009-.009.023-.022.013-.014a.07.07 0 01.013-.017c.005-.009.013-.014.018-.023 0-.004.004-.008.009-.013.004-.009.009-.013.013-.022a.031.031 0 00.009-.018c.004-.009.009-.013.009-.022.004-.004.009-.013.009-.018.004-.009.004-.013.009-.022.004-.009.004-.013.009-.022 0-.005 0-.014.004-.018 0-.009.004-.018.004-.027 0-.009.005-.013.005-.022v-.022a.083.083 0 00.004-.031V8.582c0-.258-.2-.467-.448-.467zm-2.528 2.604L2.858 8.284c-.004-.004-.004-.009-.009-.009-.004-.009-.013-.018-.017-.027a.046.046 0 01-.018-.013c-.005-.004-.014-.009-.018-.018l-.018-.013c-.004-.004-.013-.009-.018-.009-.004-.009-.013-.009-.022-.013l-.013-.014c-.009 0-.013-.004-.022-.008-.005-.005-.014-.005-.018-.009-.009-.005-.013-.005-.022-.009-.005 0-.014-.005-.023-.005-.004-.004-.013-.004-.017-.009-.009 0-.018-.004-.022-.004-.009 0-.018 0-.023-.004h-.022c-.013-.005-.022-.005-.031-.005h-.013c-.018 0-.031 0-.045.005-.018 0-.031.004-.044.004-.005.004-.014.004-.018.004-.009.005-.018.005-.027.009-.004 0-.013.005-.017.009-.009 0-.018.005-.023.005-.008.003-.015.008-.022.013-.004.004-.013.004-.018.009a.099.099 0 00-.035.022h-.005c-.008.009-.022.018-.035.027v.004c-.005 0-.005.005-.009.005-.009.009-.013.017-.022.022a.07.07 0 01-.014.018c-.008.004-.013.013-.017.017-.005.005-.009.014-.014.018-.004.009-.009.013-.013.018-.004.009-.004.013-.009.022-.004.005-.009.009-.013.018a.05.05 0 01-.009.018.036.036 0 01-.009.022c0 .009-.004.013-.004.018a.062.062 0 00-.009.026c-.005.005-.005.014-.005.018-.004.009-.004.018-.004.027-.005.004-.005.013-.005.022 0 .004-.004.013-.004.022v6.024c0 .258.2.467.449.467a.458.458 0 00.453-.467v-4.7l1.177 1.453a.447.447 0 00.347.169c.106 0 .209-.04.288-.111a.475.475 0 00.054-.653zm6.282-.827c-1.391 0-2.519 1.164-2.519 2.595 0 1.426 1.128 2.59 2.519 2.59 1.39 0 2.519-1.164 2.519-2.59 0-1.431-1.129-2.595-2.519-2.595zm0 4.256c-.893 0-1.617-.746-1.617-1.661 0-.92.724-1.666 1.617-1.666s1.617.746 1.617 1.666c0 .915-.724 1.661-1.617 1.661zm7.086-4.167a.457.457 0 00-.609.24l-1.386 3.172-1.408-3.176a.458.458 0 00-.609-.236.48.48 0 00-.231.631l1.83 4.127v.005c.009.017.018.035.032.053 0 .004.004.009.004.013.009.014.022.027.031.04l.009.009c.013.018.027.031.04.045.004 0 .009.004.013.004.01.013.022.023.036.031.004.005.009.005.013.009l.053.027a.321.321 0 00.054.022c.004 0 .009.004.018.004a.112.112 0 00.044.009c.004 0 .009.005.013.005.018 0 .04.004.058.004h.005c.017 0 .035-.004.057-.004.005-.005.009-.005.014-.005.017-.004.031-.004.044-.009.004-.004.013-.004.018-.004a.18.18 0 00.049-.022h.009l.048-.027c.005-.004.009-.009.014-.009.013-.009.026-.022.035-.031.005 0 .009-.004.014-.009l.04-.04c0-.004.004-.009.008-.013a.208.208 0 01.032-.04c0-.005.004-.005.004-.009.013-.018.022-.036.031-.053v-.005l1.808-4.127c.102-.24 0-.52-.235-.631zm17.153-2.452c-.422 0-.702.32-.702.719 0 .4.28.72.707.72.435 0 .706-.329.706-.724 0-.4-.276-.715-.711-.715zm.005 1.319c-.365 0-.582-.262-.582-.6 0-.337.217-.599.577-.599.369 0 .591.257.591.595 0 .342-.218.604-.586.604zm.297-.742c0-.129-.098-.24-.257-.24h-.28v.764h.128v-.275h.165l.133.275h.133l-.155-.302a.235.235 0 00.133-.222zm-.271.138h-.138v-.262h.138c.085 0 .133.053.133.129 0 .071-.044.133-.133.133zm0 0"/></svg>