<svg role="img" xmlns="http://www.w3.org/2000/svg" viewBox="0 0 38 24" width="38" height="24" aria-labelledby="pi-npatobarai"><title id="pi-npatobarai">NP後払い</title><path d="M35 0H3C1.3 0 0 1.3 0 3v18c0 1.7 1.4 3 3 3h32c1.7 0 3-1.3 3-3V3c0-1.7-1.4-3-3-3z" opacity=".07"/><path fill="#fff" d="M35 1c1.1 0 2 .9 2 2v18c0 1.1-.9 2-2 2H3c-1.1 0-2-.9-2-2V3c0-1.1.9-2 2-2h32"/><defs><linearGradient id="pi-npatobarai-a" x1="10.246" x2="27.788" y1="8.558" y2="8.558" gradientUnits="userSpaceOnUse"><stop offset=".486" stop-color="#1eace6"/><stop offset=".494" stop-color="#26aae4"/><stop offset=".55" stop-color="#5b9cd4"/><stop offset=".603" stop-color="#8691c7"/><stop offset=".65" stop-color="#a489be"/><stop offset=".69" stop-color="#b684b9"/><stop offset=".719" stop-color="#bd82b7"/><stop offset=".826" stop-color="#db4693"/><stop offset=".88" stop-color="#e72d84"/></linearGradient></defs><g data-name="レイヤー 2"><path fill="#e4007f" d="m10.448 19.844-3.463-3.991-.012-.015h-.369v4.748h.446V16.58l3.482 4.006h.362v-4.748h-.446v4.006zM13.489 15.838h-1.327v4.748h.446v-2.181h.847c1.445 0 1.6-.905 1.6-1.294s-.155-1.273-1.566-1.273Zm-.881.385h.868c.7 0 1.107.326 1.107.895 0 .411-.2.9-1.148.9h-.827ZM17.435 15.829a2.551 2.551 0 0 1-.586 1 2.746 2.746 0 0 1-.9.623v-.459a2.216 2.216 0 0 0 .65-.5 1.72 1.72 0 0 0 .4-.67ZM17.429 17.218a3.021 3.021 0 0 1-.541 1.077h.1v2.291h-.4v-1.974a2.32 2.32 0 0 1-.639.454V18.6a2.205 2.205 0 0 0 .634-.541 2.182 2.182 0 0 0 .417-.841ZM19.162 15.829l-.913.815h.978l.6-.509h.536l-1.782 1.542h.787a2.723 2.723 0 0 0 .481-.041 2.1 2.1 0 0 0 .438-.123l-.208-.683h.405l.388 1.328h-.394l-.093-.306a1.678 1.678 0 0 1-.462.142 3.036 3.036 0 0 1-.566.055h-.547a1.966 1.966 0 0 1-.229.487h2.05v.339a1.9 1.9 0 0 1-.4.6 3.026 3.026 0 0 1-.68.533 4.9 4.9 0 0 0 .628.147 4.085 4.085 0 0 0 .64.05v.377a4.264 4.264 0 0 1-.907-.091 3.932 3.932 0 0 1-.81-.27 5.384 5.384 0 0 1-.823.264 3.637 3.637 0 0 1-.839.1v-.377a3.626 3.626 0 0 0 .62-.056 4.212 4.212 0 0 0 .615-.152 2.722 2.722 0 0 1-.4-.35 2.247 2.247 0 0 1-.309-.421 2.243 2.243 0 0 1-.268.172 1.813 1.813 0 0 1-.268.118v-.432a1.423 1.423 0 0 0 .558-.419 1.71 1.71 0 0 0 .377-.615h-.935v-.372h.585l.793-.683h-1.09v-.35l.93-.815Zm-1.083 3.3h.279a1.348 1.348 0 0 0 .3.394 2.012 2.012 0 0 0 .426.3 2.585 2.585 0 0 0 1.116-.93h-1.88c-.051.059-.09.1-.115.126-.059.049-.105.087-.126.113ZM23.131 15.829v.716h.64v.4h-.64V18.3a4.686 4.686 0 0 0 .645-.23v.43q-.3.12-.64.219v1.321a.543.543 0 0 1-.148.394.559.559 0 0 1-.421.152h-.557v-.4h.454a.252.252 0 0 0 .169-.066.2.2 0 0 0 .077-.158v-1.14c-.186.041-.337.071-.454.093s-.248.042-.394.06v-.415a6.021 6.021 0 0 0 .848-.152V16.95h-.848v-.4h.848v-.716ZM25.236 15.829l-.739 4.26h.35a2.6 2.6 0 0 0 .7-.085 1.63 1.63 0 0 0 .561-.282l-.351-1.476h.422l.541 2.34h-.41l-.1-.453a1.948 1.948 0 0 1-.585.3 2.7 2.7 0 0 1-.793.1h-1.084v-.443h.317l.722-4.26ZM30.988 16.481a.8.8 0 0 1 .635.284 1.129 1.129 0 0 1 .245.764v2.346h-.42v-2.346a.815.815 0 0 0-.109-.45.4.4 0 0 0-.351-.188ZM29.172 19.583a.894.894 0 0 1-.175.282.432.432 0 0 1-.319.126.425.425 0 0 1-.348-.171.72.72 0 0 1-.136-.462v-3.081h-.421v3.081a1.07 1.07 0 0 0 .282.791.847.847 0 0 0 .623.252c.439 0 .75-.273.936-.818Z"/><path fill="url(#pi-npatobarai-a)" d="M20.733 14.025A5.215 5.215 0 0 1 17.6 12.64a2.634 2.634 0 0 1-1.4.871c-1.477.293-2.943-.435-4.614-2.293a4.828 4.828 0 0 1-1.3-2.711c-.176-1.162.179-1.635.508-1.828.72-.423 2.026.051 3.679 1.333.525.408.985.78 1.567 1.251.317.256.673.544 1.1.887a11.925 11.925 0 0 0 1.36-.915c.477-.387.919-.781 1.334-1.175.092-.2.184-.394.278-.6l.563-1.207a7.905 7.905 0 0 1 1.4-2.2 2.14 2.14 0 0 1 1.819-.739 1.476 1.476 0 0 1 .52.158 2.016 2.016 0 0 1 1.153-.384 2.069 2.069 0 0 1 1.5.917 4.559 4.559 0 0 1 .421 4.171 5.744 5.744 0 0 1-2.919 3.254 4.951 4.951 0 0 1-2.82 2.433 3.418 3.418 0 0 1-1.016.162Zm-2.911-1.638c1.408 1.089 2.526 1.559 3.828 1.159a4.436 4.436 0 0 0 2.362-1.855 8.82 8.82 0 0 1-1.447.463 6.021 6.021 0 0 1-4.085-.711 8.65 8.65 0 0 1-.658.944Zm-6.043-1.462.062.07c2.081 2.313 3.45 2.356 4.3 2.188a2.3 2.3 0 0 0 1.2-.749q-.3-.238-.609-.509a43.205 43.205 0 0 1-.894-.79 4.891 4.891 0 0 1-3.5.056 4.947 4.947 0 0 1-.559-.266Zm4.413.075c.217.2.466.416.759.668.211.181.414.351.611.51a8.011 8.011 0 0 0 .626-.9 9.472 9.472 0 0 1-1.072-.728 8.184 8.184 0 0 1-.815.4Zm2.459.153a5.682 5.682 0 0 0 3.84.672 8.325 8.325 0 0 0 1.835-.648c.107-.193.211-.4.31-.624a9.211 9.211 0 0 0 .748-4.389 3.164 3.164 0 0 0-.962-2.291 16.387 16.387 0 0 0-2.087 2.062c-.635.7-1.373 1.505-2.227 2.319-.516 1.109-.988 2.092-1.457 2.902Zm-6.717-2.328a1.251 1.251 0 0 0-.7.18.562.562 0 0 0-.262.54c.02.18.184.81 1.49 1.335a4.481 4.481 0 0 0 3.093 0l-.189-.176a7.579 7.579 0 0 0-1.976-1.453 3.192 3.192 0 0 0-1.456-.426Zm5.495 1.547a9.038 9.038 0 0 0 .93.623c.355-.613.714-1.334 1.1-2.137q-.361.322-.749.637a11.509 11.509 0 0 1-1.281.877Zm7.287-6.69a3.633 3.633 0 0 1 1 2.454 9.581 9.581 0 0 1-.776 4.556l-.091.2a5.291 5.291 0 0 0 2.32-2.819 4.365 4.365 0 0 0-.364-3.851 1.766 1.766 0 0 0-1.255-.794 1.6 1.6 0 0 0-.834.254Zm-12.79 4.807a3.58 3.58 0 0 1 1.622.463 7.892 7.892 0 0 1 2.047 1.5l.32.295c.085-.032.171-.066.257-.1a7.112 7.112 0 0 0 .661-.322c-.381-.306-.7-.568-1-.8-.581-.47-1.04-.841-1.562-1.247-1.493-1.158-2.728-1.647-3.3-1.309-.434.255-.428.951-.346 1.49a4.943 4.943 0 0 0 .119.6.951.951 0 0 1 .3-.328 1.542 1.542 0 0 1 .882-.242Zm11.739-4.85c-.961 0-1.8.863-2.691 2.76q-.24.51-.465 1a56.784 56.784 0 0 0 1.578-1.682A18.531 18.531 0 0 1 24.093 3.7a1.22 1.22 0 0 0-.241-.054 1.686 1.686 0 0 0-.187-.007Z"/></g></svg>