<svg role="img" xmlns="http://www.w3.org/2000/svg" viewBox="0 0 38 24" width="38" height="24" aria-labelledby="pi-npkakebarai"><title id="pi-npkakebarai">NP掛け払い</title><path d="M35 0H3C1.3 0 0 1.3 0 3v18c0 1.7 1.4 3 3 3h32c1.7 0 3-1.3 3-3V3c0-1.7-1.4-3-3-3z" opacity=".07"/><path fill="#fff" d="M35 1c1.1 0 2 .9 2 2v18c0 1.1-.9 2-2 2H3c-1.1 0-2-.9-2-2V3c0-1.1.9-2 2-2h32"/><defs><linearGradient id="pi-npkakebarai-a" x1="10.245" x2="27.786" y1="8.558" y2="8.558" gradientUnits="userSpaceOnUse"><stop offset=".486" stop-color="#1eace6"/><stop offset=".494" stop-color="#26aae4"/><stop offset=".55" stop-color="#5b9cd4"/><stop offset=".603" stop-color="#8691c7"/><stop offset=".65" stop-color="#a489be"/><stop offset=".69" stop-color="#b684b9"/><stop offset=".719" stop-color="#bd82b7"/><stop offset=".826" stop-color="#db4693"/><stop offset=".88" stop-color="#e72d84"/></linearGradient></defs><g data-name="レイヤー 3"><path fill="#00abeb" d="m7.59 19.83-3.459-3.987-.012-.014h-.368v4.743h.445V16.57l3.478 4.002h.362v-4.743H7.59v4.001zM10.628 15.829H9.3v4.743h.446v-2.18h.846c1.444 0 1.6-.9 1.6-1.292s-.151-1.271-1.564-1.271Zm-.88.384h.867c.7 0 1.105.326 1.105.894 0 .411-.2.9-1.147.9h-.825ZM14.033 15.829v.781h.519v.4h-.519v1.29a4.306 4.306 0 0 0 .519-.23v.43l-.519.206V20.1a.461.461 0 0 1-.147.347.5.5 0 0 1-.355.141h-.377v-.409h.257a.207.207 0 0 0 .145-.058.188.188 0 0 0 .062-.144v-1.136l-.259.076a2.656 2.656 0 0 1-.27.066v-.42l.529-.131v-1.423h-.529v-.4h.529v-.781ZM15.96 15.829v.459h.721v.409h-.721v.891h.721v.404h-1.879v-.404h.727v-.891h-.727v-.409h.727v-.459h.431zM15.96 18.3v.5h.721v.4h-.721v.842a2.636 2.636 0 0 0 .721-.186v.426a3.258 3.258 0 0 1-.751.18 8.212 8.212 0 0 1-1.128.066v-.4q.389 0 .727-.033V19.2H14.8v-.4h.727v-.5ZM17.524 15.829v1.759l.655.578v.539l-.655-.578v2.459h-.415v-4.757h.415zM23.761 17.3h-.5v1.949a1.254 1.254 0 0 1-.324.905 1.19 1.19 0 0 1-.905.34H21.5v-.422h.5a.806.806 0 0 0 .6-.224.823.823 0 0 0 .224-.609V17.3h-2.108v-.437h2.109v-.853h.432v.853h.5ZM20.313 20.063a.741.741 0 0 1-.627-.759v-3.225h-.427V19.3a1.161 1.161 0 0 0 .342.856 1.137 1.137 0 0 0 .712.333ZM25.991 15.834v.716h.639v.4h-.639v1.35c.156-.047.271-.083.344-.109.1-.036.2-.076.295-.12v.429c-.2.08-.414.152-.639.218v1.325a.545.545 0 0 1-.148.393.559.559 0 0 1-.42.152h-.552v-.4h.453a.261.261 0 0 0 .17-.065.205.205 0 0 0 .076-.158v-1.141q-.279.06-.453.093a6.347 6.347 0 0 1-.394.06v-.414a6.181 6.181 0 0 0 .847-.153v-1.456h-.847v-.4h.847v-.716ZM28.093 15.834l-.738 4.255h.35a2.638 2.638 0 0 0 .7-.084 1.661 1.661 0 0 0 .56-.282l-.35-1.474h.421l.54 2.337h-.409l-.1-.453a1.954 1.954 0 0 1-.584.3 2.691 2.691 0 0 1-.792.1h-1.084v-.443h.317l.721-4.255ZM33.838 16.486a.8.8 0 0 1 .635.284 1.128 1.128 0 0 1 .245.763v2.343H34.3v-2.343a.815.815 0 0 0-.109-.45.4.4 0 0 0-.351-.187ZM32.024 19.585a.9.9 0 0 1-.174.28.431.431 0 0 1-.318.126.426.426 0 0 1-.349-.17.726.726 0 0 1-.136-.462v-3.077h-.419v3.077a1.065 1.065 0 0 0 .281.79.847.847 0 0 0 .623.252c.438 0 .749-.273.934-.816Z"/><path fill="url(#pi-npkakebarai-a)" d="M20.731 14.025A5.215 5.215 0 0 1 17.6 12.64a2.634 2.634 0 0 1-1.4.871c-1.477.293-2.943-.435-4.614-2.293a4.828 4.828 0 0 1-1.3-2.711c-.175-1.162.18-1.635.508-1.828.72-.423 2.027.051 3.679 1.333.525.408.985.78 1.568 1.251.316.256.672.544 1.1.887a11.925 11.925 0 0 0 1.349-.915c.477-.387.92-.781 1.334-1.175.092-.2.184-.394.278-.6q.271-.583.564-1.207a7.883 7.883 0 0 1 1.4-2.2 2.14 2.14 0 0 1 1.819-.739 1.488 1.488 0 0 1 .521.158 2.011 2.011 0 0 1 1.152-.384 2.069 2.069 0 0 1 1.5.917 4.562 4.562 0 0 1 .422 4.171 5.745 5.745 0 0 1-2.92 3.254 4.951 4.951 0 0 1-2.82 2.433 3.418 3.418 0 0 1-1.009.162Zm-2.91-1.638c1.407 1.089 2.525 1.559 3.827 1.159a4.432 4.432 0 0 0 2.362-1.855 8.79 8.79 0 0 1-1.447.463 6.021 6.021 0 0 1-4.085-.711 8.79 8.79 0 0 1-.657.944Zm-6.044-1.462.062.07c2.081 2.313 3.451 2.356 4.3 2.188a2.3 2.3 0 0 0 1.2-.749 20.3 20.3 0 0 1-.609-.509 43.205 43.205 0 0 1-.894-.79 4.891 4.891 0 0 1-3.5.056 4.947 4.947 0 0 1-.559-.266ZM16.19 11c.217.2.466.416.759.668.211.181.414.351.611.51a8.011 8.011 0 0 0 .626-.9 9.375 9.375 0 0 1-1.071-.728 8.3 8.3 0 0 1-.816.4Zm2.459.153a5.682 5.682 0 0 0 3.84.672 8.325 8.325 0 0 0 1.835-.648c.107-.193.211-.4.31-.624a9.224 9.224 0 0 0 .749-4.389 3.172 3.172 0 0 0-.962-2.291 16.321 16.321 0 0 0-2.088 2.062c-.635.7-1.373 1.505-2.227 2.319-.516 1.109-.988 2.092-1.457 2.902Zm-6.717-2.328a1.251 1.251 0 0 0-.7.18.562.562 0 0 0-.262.54c.02.18.184.81 1.49 1.335a4.481 4.481 0 0 0 3.093 0l-.189-.176a7.579 7.579 0 0 0-1.974-1.456 3.192 3.192 0 0 0-1.458-.423Zm5.495 1.547a9.038 9.038 0 0 0 .93.623c.355-.613.714-1.334 1.1-2.137q-.361.322-.749.637a11.509 11.509 0 0 1-1.281.877Zm7.287-6.69a3.633 3.633 0 0 1 1 2.454 9.581 9.581 0 0 1-.776 4.556l-.091.2a5.291 5.291 0 0 0 2.32-2.819 4.362 4.362 0 0 0-.364-3.851 1.766 1.766 0 0 0-1.255-.794 1.6 1.6 0 0 0-.834.254Zm-12.79 4.807a3.58 3.58 0 0 1 1.622.463 7.892 7.892 0 0 1 2.047 1.5l.32.295c.085-.032.171-.066.257-.1a7.249 7.249 0 0 0 .662-.322c-.382-.306-.706-.568-1-.8-.581-.47-1.04-.841-1.562-1.247-1.493-1.158-2.728-1.647-3.3-1.309-.434.255-.428.951-.346 1.49a4.978 4.978 0 0 0 .12.6.932.932 0 0 1 .3-.328 1.537 1.537 0 0 1 .88-.242Zm11.74-4.85c-.962 0-1.8.863-2.692 2.76q-.24.51-.465 1c.572-.579 1.091-1.148 1.579-1.682A18.444 18.444 0 0 1 24.091 3.7a1.22 1.22 0 0 0-.241-.054 1.682 1.682 0 0 0-.186-.007Z"/></g></svg>