<svg width="38" height="24" viewBox="0 0 38 24" fill="none" role="img" aria-labelledby="pi-oca" xmlns="http://www.w3.org/2000/svg"><title id="pi-oca">OCA</title><g clip-path="url(#pi-oca-clip0_3_194)"><path opacity=".07" d="M35 0H3C1.3 0 0 1.3 0 3v18c0 1.7 1.4 3 3 3h32c1.7 0 3-1.3 3-3V3c0-1.7-1.4-3-3-3z" fill="#000"/><path d="M35 1c1.1 0 2 .9 2 2v18c0 1.1-.9 2-2 2H3c-1.1 0-2-.9-2-2V3c0-1.1.9-2 2-2h32z" fill="#fff"/><path d="M35 1c1.1 0 2 .9 2 2v18c0 1.1-.9 2-2 2H3c-1.1 0-2-.9-2-2V3c0-1.1.9-2 2-2h32z" fill="#fff"/><path fill-rule="evenodd" clip-rule="evenodd" d="M3.152 13.963L2 15.897h33.876v-1.934H3.152z" fill="#80CFE3"/><path fill-rule="evenodd" clip-rule="evenodd" d="M11.466 8.276l.038-.074c0-.013.012-.037.012-.05 0-.062-.05-.111-.149-.136a2.032 2.032 0 00-.458-.037c-.21 0-.372.012-.471.05a.461.461 0 00-.26.247l-1.722 3.482c-.013.025-.013.037-.025.05v.074c0 .062.037.111.124.136.086.037.223.05.409.05.235 0 .408-.025.52-.062a.462.462 0 00.26-.248l1.722-3.482zm4.139-.037l-1.772 3.556c-.012.012-.025.037-.037.062-.236.47-.582.78-1.066.93-.322.098-.768.16-1.325.198-.57.037-1.55.062-2.937.062-1.735 0-2.887-.05-3.47-.137-.57-.086-.854-.235-.854-.458 0-.087.012-.198.05-.31.036-.111.086-.223.148-.347L6.089 8.24l.025-.037c.235-.483.582-.793 1.016-.93.322-.099.743-.173 1.288-.21C8.951 7.025 9.968 7 11.466 7c1.859 0 3.049.05 3.556.136.508.1.769.26.769.508a.915.915 0 01-.037.236c-.037.099-.087.21-.149.359zm11.102 0c.074-.136.111-.248.149-.347.037-.099.05-.173.05-.248 0-.248-.261-.409-.77-.508C25.63 7.05 24.44 7 22.582 7c-1.5 0-2.528.025-3.06.062-.534.037-.955.111-1.277.21a1.834 1.834 0 00-.582.31c-.149.124-.298.335-.459.657l-1.747 3.556a2.649 2.649 0 00-.149.347 1 1 0 00-.05.31c0 .223.286.371.856.458.582.087 1.735.137 3.47.137 1.387 0 2.366-.025 2.936-.063.557-.037 1.003-.099 1.326-.198.47-.148.842-.47 1.09-.966v-.025l.681-1.326H21.49l-.632 1.289a.505.505 0 01-.26.248 1.861 1.861 0 01-.52.062c-.186 0-.335-.013-.409-.05-.087-.025-.124-.074-.124-.136v-.062c0-.025.012-.037.025-.062l1.71-3.482c.074-.124.16-.21.272-.248.1-.037.26-.05.471-.05.21 0 .36.013.459.038.099.025.148.074.148.136-.024.05-.05.1-.05.124l-.396.793h4.114l.409-.83zm5.972.322l-1.697 2.293h1.325l.533-2.293h-.16zm-1.66-1.524H36l-.384 5.972h-3.89l.297-1.177h-1.735l-.905 1.177H25.53l5.489-5.972zM26.26 15.116l.744.025a.7.7 0 01-.21.26 2.483 2.483 0 01-.323.186c-.123.05-.26.086-.408.111a2.464 2.464 0 01-.434.037c-.174 0-.347-.024-.496-.062a.793.793 0 01-.36-.21.414.414 0 01-.135-.335c0-.05 0-.099.012-.149a.98.98 0 01.297-.458c.15-.124.335-.21.546-.285.21-.062.409-.087.62-.099.222 0 .396.025.557.062a.879.879 0 01.36.16.375.375 0 01.123.274c0 .024-.012.074-.025.123l-.768.025c.012-.025.012-.05.012-.087a.158.158 0 00-.086-.148.463.463 0 00-.248-.05c-.248.013-.409.161-.496.446-.025.1-.037.174-.05.236.013.05.025.087.05.111.025.025.062.05.112.062.025 0 .074.013.136.013.112 0 .21-.025.297-.075a.388.388 0 00.174-.173zm.732.595h.694l.26-.31h.731l.062.31h.867l-.347-1.562h-.88l-1.387 1.562zm1.66-.645h-.446l.372-.446.074.446zm1.685-.904h1.45c.273 0 .483.024.62.099.148.062.21.149.21.272a.364.364 0 01-.074.211.667.667 0 01-.223.174c-.1.05-.198.086-.335.111l.273.681h-.942l-.21-.594h-.248l-.198.595h-.855l.532-1.55zm.744.322l-.112.297h.41a.542.542 0 00.26-.05c.061-.036.086-.074.086-.123 0-.037-.012-.062-.062-.087-.037-.025-.099-.037-.186-.037h-.396zm1.45 1.214h1.078c.297 0 .57-.037.805-.099.223-.074.409-.173.545-.285.136-.124.236-.248.273-.384.025-.05.025-.112.025-.174a.514.514 0 00-.062-.235.752.752 0 00-.199-.198 1.594 1.594 0 00-.322-.124 2.094 2.094 0 00-.409-.037h-1.202l-.532 1.536zm.966-.347l.285-.842h.124c.161 0 .285.024.36.074.074.062.11.124.11.21 0 .025 0 .063-.012.112a.538.538 0 01-.235.322c-.124.087-.297.124-.533.124h-.099z" fill="#0E3192"/></g><defs><clipPath id="pi-oca-clip0_3_194"><path fill="#fff" d="M0 0h38v24H0z"/></clipPath></defs></svg>