<svg xmlns="http://www.w3.org/2000/svg" role="img" viewBox="0 0 38 24" width="38" height="24" aria-labelledby="pi-ocbcbank"><title id="pi-ocbcbank">OCBC Bank</title><g clip-path="url(#pi-ocbcbank-a)"><path fill="#000" d="M35 0H3C1.3 0 0 1.3 0 3v18c0 1.7 1.4 3 3 3h32c1.7 0 3-1.3 3-3V3c0-1.7-1.4-3-3-3Z" opacity=".07"/><path fill="#fff" d="M35 1c1.1 0 2 .9 2 2v18c0 1.1-.9 2-2 2H3c-1.1 0-2-.9-2-2V3c0-1.1.9-2 2-2h32Z"/><path fill="#EE2722" d="M20.836 15.56c.27-.153.536-.345.766-.537.153-.114.306-.268.422-.42.612-.728.994-1.608.994-2.604a4.018 4.018 0 0 0-4.019-4.018c-.458 0-.918.076-1.301.23l-2.794-3.1A8.193 8.193 0 0 1 19 4c4.44 0 8 3.56 8 8 0 4.402-3.56 8-8 8a7.932 7.932 0 0 1-5.626-2.335h9.8l.074-.077-10.334-.42-.076-.078h10.947l.038-.076-11.443-.536-.04-.038h4.44s2.26.076 4.057-.88Zm-9.108-.192c-.04-.153-.116-.306-.192-.459h2.41l.422.459h3.56l-.766.804h-4.4c-.116-.421-.538-.765-1.034-.804Zm-.269-.727A7.678 7.678 0 0 1 11 11.999c0-.535.04-1.032.153-1.53l3.866 1.378V12c0 .919.306 1.8.88 2.489h.039a4.11 4.11 0 0 1-.536-2.028c0-.153 0-.307.038-.46l4.134 1.454v1.187h-8.115Zm8.115-2.717-3.178-2.106a3.62 3.62 0 0 1 1.456-1.033l1.722 1.722v1.417Zm0 1.378-4.095-1.57a4.119 4.119 0 0 1 .765-1.723l3.33 2.106v1.187Zm-4.555-1.723-3.789-1.455c.229-.918.573-1.76 1.071-2.526l3.407 2.105c-.383.536-.613 1.187-.689 1.876Zm.88-2.105-3.33-2.22a7.571 7.571 0 0 1 1.952-1.876l2.871 2.948c-.574.267-1.11.65-1.492 1.148Z"/></g><defs><clipPath id="pi-ocbcbank-a"><path fill="#fff" d="M0 0h38v24H0z"/></clipPath></defs></svg>
