<svg xmlns="http://www.w3.org/2000/svg" role="img" viewBox="0 0 38 24" width="38" height="24" aria-labelledby="pi-octoclicks"><title id="pi-octoclicks">Octo Clicks</title><path fill="#000" opacity=".07" d="M35 0H3C1.3 0 0 1.3 0 3v18c0 1.7 1.4 3 3 3h32c1.7 0 3-1.3 3-3V3c0-1.7-1.4-3-3-3z"/><path fill="#fff" d="M35 1c1.1 0 2 .9 2 2v18c0 1.1-.9 2-2 2H3c-1.1 0-2-.9-2-2V3c0-1.1.9-2 2-2h32"/><path d="M17.967 8.94c.038-.052.058-.29.058-.345V7.443a.209.209 0 00-.075-.153.234.234 0 00-.148-.05h-4.994a.227.227 0 00-.156.055.189.189 0 00-.062.148v.013a.24.24 0 00.093.189c.286.222.552.459.844.877.28.403.294.494.38.494h.498v4.892c0 .062.026.124.074.165a.214.214 0 00.143.058h1.361a.2.2 0 00.158-.067.222.222 0 00.06-.151V9.016h1.6a.194.194 0 00.166-.077z" fill="#E72635"/><path d="M20.165 12.25a1.525 1.525 0 110-3.05 1.525 1.525 0 010 3.05zm3.422-2.462a3.676 3.676 0 00-.357-.85 3.504 3.504 0 00-1.275-1.275 3.61 3.61 0 00-.85-.358 3.467 3.467 0 00-.943-.127 3.464 3.464 0 00-1.566.365.614.614 0 00-.139.133.427.427 0 00-.086.26v.915c0 .24-.194.434-.433.434h-.722a.435.435 0 00-.41.293 3.527 3.527 0 00-.191 1.155 3.525 3.525 0 00.482 1.789 3.599 3.599 0 001.273 1.27 3.498 3.498 0 001.792.482 3.518 3.518 0 001.793-.483c.263-.155.503-.34.72-.554a3.503 3.503 0 00.912-1.56 3.42 3.42 0 00.128-.944 3.46 3.46 0 00-.128-.945zM5.243 12.21a1.525 1.525 0 110-3.05 1.525 1.525 0 010 3.05zm8.193-.309l-1.472-.492a.262.262 0 00-.305.103 1.507 1.507 0 01-2.379.21 1.501 1.501 0 01-.402-1.024c0-.968-.387-1.847-1.014-2.49l-.03-.03a3.568 3.568 0 10-3.425 5.974l.069.014a3.554 3.554 0 003.166-.77l.207-.192a3.554 3.554 0 003.673.875 3.578 3.578 0 002.065-1.806.267.267 0 00-.153-.372z" fill="#E72635"/><path d="M10.388 9.188c.467 0 .883.212 1.16.545a.27.27 0 00.312.072l1.426-.6a.275.275 0 00.125-.4 3.564 3.564 0 00-5.374-.788c.517.526.884 1.2 1.03 1.953a1.508 1.508 0 011.321-.782z" fill="#E72635"/><path d="M27.066 11.094h-.33c-.826 0-1.435.578-1.435 1.352 0 .94.718 1.353 1.25 1.353h.515v.454h-.516c-1.006 0-1.754-.774-1.754-1.807 0-.877.717-1.806 1.888-1.806h.382v.454zm.475 3.159h.454V10.64h-.454zm1.29 0h.454v-2.477h-.454v2.477zm.227-3.303c.176 0 .274.134.274.273 0 .14-.098.274-.274.274a.265.265 0 01-.273-.274c0-.139.098-.273.273-.273zm2.617 1.26h-.351c-.428 0-.851.278-.851.804s.423.805.85.805h.352v.434h-.434c-.578 0-1.243-.444-1.243-1.239 0-.795.665-1.238 1.243-1.238h.434v.433zm.377 2.043V10.64h.454v2.054h.19c.192 0 .316-.072.383-.186l.428-.732h.516l-.325.557c-.098.17-.248.418-.387.454v.01c.366.073.567.29.567.728v.728h-.454v-.676c0-.31-.165-.45-.402-.45h-.516v1.126h-.454zm2.168-.433h1.269c.211 0 .294-.083.294-.238 0-.454-1.564-.279-1.564-1.136 0-.438.305-.67.846-.67h1.069v.433h-1.146c-.222 0-.289.062-.294.217-.005.428 1.564.247 1.564 1.135 0 .47-.33.692-.77.692H34.22v-.434zm-22.618 3.05h1.859v-1.86h-1.859z" fill="#790008"/><path fill="#fff" d="M12.842 15.362h-.988l.436.578h.989z"/><path fill="#ED1C24" d="M13.279 15.94h-.989l-.436.578h.988z"/><path d="M14.841 16.262a.388.388 0 01-.245.086.387.387 0 01-.389-.396.392.392 0 01.634-.31l.004.002.168-.168-.004-.004a.639.639 0 00-1.054.48.639.639 0 001.054.48l.004-.004-.168-.169-.004.003zm.401.288h.242v-1.197h-.242v1.197zm1.197-.432a688.89 688.89 0 00-.422-.767h-.236v1.197h.241v-.715l.417.724.417-.724v.715h.241v-1.197h-.236l-.422.767zm1.42.216h-.236v-.283h.236c.11 0 .15.073.15.14 0 .07-.04.143-.15.143zm-.236-.764h.221c.093 0 .149.05.149.132s-.056.132-.149.132h-.221v-.264zm.471.366a.28.28 0 00.14-.245c0-.208-.142-.338-.371-.338h-.483v1.197h.502c.228 0 .37-.132.37-.346a.283.283 0 00-.158-.268zm2.702-.576h.174l.417 1.186h-.145l-.113-.32h-.5l-.108.328h-.162l.437-1.195zm-.117.727h.4l-.196-.578h-.004l-.2.578zm2.531-.727h.175l.416 1.186h-.145l-.113-.32h-.499l-.109.328h-.161l.437-1.195zm-.116.727h.4l-.197-.578h-.003l-.2.578zm-.551-.573s-.45-.357-.853.023c0 0-.182.158-.172.489 0 0 .021.544.622.551 0 0 .256-.015.427-.116v-.567h-.396v.109h.28v.372s-.412.195-.645-.038c0 0-.186-.101-.148-.45 0 0 .078-.425.508-.399 0 0 .233.028.295.13l.082-.104zm-2.507 1.032h.124v-1.195h-.124zm-.443-1.196v.979l-.714-.978h-.124v1.195h.124v-.981l.714.981h.125v-1.195z" fill="#790008"/><path d="M9.003 16.515v-1.198h.45c.092 0 .164.012.219.037a.294.294 0 01.177.27c0 .051-.013.1-.042.145a.31.31 0 01-.125.108.313.313 0 01.167.11.295.295 0 01.059.18.354.354 0 01-.035.157.32.32 0 01-.089.112.387.387 0 01-.13.059.791.791 0 01-.194.02h-.457zm.159-.695h.26c.07 0 .12-.004.15-.013a.173.173 0 00.092-.06.172.172 0 00.03-.104c0-.04-.01-.075-.029-.105a.147.147 0 00-.082-.062.664.664 0 00-.182-.017h-.24v.361zm0 .554h.298a.546.546 0 00.108-.007.27.27 0 00.09-.031.201.201 0 00.085-.169.189.189 0 00-.034-.116.172.172 0 00-.096-.07.587.587 0 00-.175-.02h-.276v.413zm1.301.141v-.507l-.462-.69h.192l.236.36c.044.069.084.136.122.203a5.29 5.29 0 01.13-.211l.233-.353h.184l-.476.69v.508h-.16z" fill-rule="nonzero" fill="#000"/></svg>