<svg viewBox="0 0 38 24" role="img" width="38" height="24" aria-labelledby="pi-octopus" xmlns="http://www.w3.org/2000/svg"><title id="pi-octopus">Octopus</title><path opacity=".07" d="M35 0H3C1.3 0 0 1.3 0 3v18a3 3 0 003 3h32c1.7 0 3-1.3 3-3V3a3 3 0 00-3-3z"/><path fill="#fff" d="M35 1a2 2 0 012 2v18a2 2 0 01-2 2H3a2 2 0 01-2-2V3c0-1.1.9-2 2-2h32"/><path d="M34.52 9.18c-.14.07-.4.2-.69.28a2.57 2.57 0 00-.54-.23l-.29.3c.3.09.46.15.63.22h-.96v2.59h.37v-.82h.7v.82h.37v-.82h.7v.82h.38v-2.6h-.9a.28.28 0 00-.09-.05c.33-.12.68-.3 1.02-.56v-.32h-2.68v.33h2.05zm-.78 1.98h-.7v-.35h.7zm0-.71h-.7v-.35h.7zm1.06.71h-.69v-.35h.69zm0-1.07v.36h-.7v-.36zm-13.94 2.73l.37.21a6.95 6.95 0 001.01-3.43h-.42c0 .59-.13 1.78-.96 3.22zm3.46-4.1h-2.33v.43h1.9c.07.83.42 2.56 1.18 3.88l.37-.21a9.41 9.41 0 01-1.12-3.89zm1.77.33l.26-.26.66.66-.27.26z" fill="#040000"/><path d="M28.94 12.57v-.51h1.36v-.37h-1.36v-.25h.96v-.37h-.96v-.26h1.1v-.36h-.73l.3-.46h.62v-.37h-1.3v-.25h1.11V9h-1.1V8.6h-.37V9h-1.1v.37h1.1v.25h-1.3v.37h.55l.3.46h-.73v.36h1.18v.26h-.96v.37h.96v.25h-1.35v.37h1.35v.52h-.14c-.5 0-.93-.06-1.37-.34v-1.8h-1.12v.37h.75v1.28l-.68.68.26.26.52-.52v.01c.57.39 1.3.43 2.09.43h1.39l.2-.43-.73.05zM28.26 10h.9l-.29.46h-.3zm3.02-.94l.26-.26.66.66-.26.26zm3.65 3.51l-1.3.02c-.5 0-.94-.06-1.37-.34v-1.8h-1.12v.37h.75v1.28l-.68.68.26.26.52-.52v.01c.57.39 1.3.43 2.08.43h1.4l.19-.43zM17.64 13.94l-.02-.02a1.25 1.25 0 00-.12-.11l-.03-.03c-.3-.25-.72-.4-1.24-.4-.51 0-.92.15-1.23.4l-.03.03-.12.1-.02.03c-.4.42-.6 1.03-.6 1.63 0 .6.2 1.22.6 1.64l.02.02.12.11.03.02c.3.25.72.4 1.24.4.51 0 .92-.15 1.24-.4l.02-.02a1.4 1.4 0 00.14-.13c.41-.42.6-1.03.6-1.64 0-.6-.2-1.2-.6-1.63zm-1.4 3.37c-.47 0-.86-.19-1.12-.55-.22-.3-.34-.73-.34-1.19 0-.45.12-.87.34-1.18.26-.36.65-.55 1.12-.55.47 0 .85.19 1.11.55.22.3.34.73.34 1.18 0 .46-.12.88-.34 1.19-.26.36-.64.55-1.11.55zm3.74 0a.8.8 0 01-.69-.35c-.13-.2-.2-.47-.2-.77 0-.44.12-1.2.95-1.2.4 0 .68.22.76.61h.5c-.07-.65-.54-1.03-1.3-1.03-.88 0-1.43.62-1.43 1.62 0 .96.54 1.55 1.42 1.55.74 0 1.21-.42 1.33-1.17h-.5c-.07.47-.37.74-.84.74zm2.47-3.58h-.48v.9h-.52v.44h.52V17c0 .56.2.66.71.66h.38v-.43h-.22c-.32 0-.39-.05-.39-.28v-1.9h.61v-.42h-.6zm.9 2.43c0 .96.57 1.58 1.46 1.58.9 0 1.47-.62 1.47-1.58 0-.97-.57-1.59-1.47-1.59-.89 0-1.47.62-1.47 1.59zm2.41 0c0 .69-.38 1.15-.95 1.15s-.95-.46-.95-1.15c0-.7.38-1.16.95-1.16s.95.46.95 1.16zm1.53-1.11h-.02v-.4h-.49v4.18h.49v-1.57h.02c.22.35.65.48.98.48.84 0 1.38-.62 1.38-1.58 0-.73-.37-1.59-1.4-1.59-.45 0-.8.17-.96.48zm1.84 1.08c0 .23-.03.55-.2.81a.8.8 0 01-.71.37.86.86 0 01-.75-.35c-.14-.2-.22-.48-.22-.8 0-.57.25-1.16.94-1.16.65 0 .94.57.94 1.13zm1.5.56v-2.05h-.5v2c0 .35.08.6.22.79.18.2.44.3.82.3.45 0 .78-.18.99-.54h.02v.48h.46v-3.03h-.49v1.7c0 .6-.34.97-.9.97-.38 0-.63-.24-.63-.62zm4.72-.51c-.19-.13-.44-.2-.68-.25l-.2-.05c-.4-.09-.8-.17-.8-.49 0-.35.46-.4.65-.4.2 0 .67.06.71.52h.5c-.05-.63-.45-.94-1.25-.94-.28 0-.56.07-.76.2a.75.75 0 00-.37.66c0 .58.51.74 1 .85l.14.03c.44.1.85.19.85.54 0 .38-.4.46-.74.46-.3 0-.8-.08-.82-.59h-.5c.05.89.83 1.02 1.29 1.02.3 0 1.29-.07 1.29-.95 0-.27-.1-.47-.3-.61z" fill="#040000"/><path d="M3.87 16.76zm.01 0h.01zm-.08-.02h.01a.04.04 0 00-.01 0zm.02 0zm.57.12zm-.56-.1h.01zm.02 0zm.63.1zm-.58-.1zm2 .02l.05-.01h-.04zm-1.83.03zm-.02 0zm.05 0zm.02 0zm-.03 0zm.36.05zm-.53-.09zm.03.01zm2.04-.02zm-2.06.02z" fill="#35549b"/><path d="M18.65 5.79zm0 0z" fill="#34ab6b"/><path d="M13.63 9.6h.08l.13-.01h.02l.9-.11c.09-.29.17-.53.28-.77.74-1.56 1.73-2.27 2.45-2.52.5-.18 1.46-.28 1.76.13-.12-.22-.34-.4-.54-.5l-.06-.03a4.48 4.48 0 00-2.15.1 6.24 6.24 0 00-2.08 1.21l-.02.02-.13.11a6.12 6.12 0 00-.38.4h-.02l-.22.27-.01.01-.08.11-.02.03a32.04 32.04 0 01-.1.12l-.08.13-.02.02-.06.1-.03.04-.06.1-.01.03-.08.12v.02c-.03.03-.05.07-.06.1l-.02.04-.05.08-.02.04-.06.12-.17.36-.1.23c.44-.03.5-.04 1.01-.1z" fill="#30b06b"/><path d="M19.97 6.68a1.9 1.9 0 00-.28-.38c-.26-.25-.6-.4-.97-.5l-.06-.01h-.01l.06.02c.3.16.63.48.63.87 0 .05 0 .1-.02.16-.05.19-.13.39-.25.58-.16.25-.39.5-.68.72A7.3 7.3 0 0115.2 9.4l-.45.08c-.29.04-.59.08-.9.1-.73.08-.75.09-1.24.12l-.22.01c-.67.05-3.14-.08-3.83-.08-.93 0-1.96.11-2.92.42-1.1.34-2.1.93-2.78 1.87-.3.41-.57.97-.67 1.49a3 3 0 00.23 1.75c.21.49.6 1.07 1.31 1.56l.04.02h.03l.01.01h.03l.01.01h.02l.01.01h.04l.01.01.05.01a.97.97 0 00.07.02h.04l.02.01h.03l.03.01h.04l.02.01h.06l.02.01h.06a.3.3 0 01.03.01h.09c.53.06 1.01 0 1.4-.08h.05l.04-.02a2.82 2.82 0 01-.61.03 1.91 1.91 0 01-1.86-1.59l-.02-.11-.01-.04-.02-.1v-.03a3.22 3.22 0 01.77-2.47 5.88 5.88 0 012.5-1.73 8.6 8.6 0 013.02-.52 10.66 10.66 0 01.67.03c.45.04.84.1 1.2.15l.45.09.19.03c.63.12 1.28.25 2.06.3l.67.01h.01c2.6 0 5-1.17 5.15-3.16l.01-.2v-.02a1.8 1.8 0 00-.2-.75z" fill="#eb8e25"/><path d="M12.27 10.5c-.36.79-2.3 4.92-5.59 6.07-.22.08-.45.14-.69.19h-.04l-.05.02c-.39.08-.87.14-1.4.09h-.05l-.03-.01a3.05 3.05 0 01-.3-.04H4.1l-.02-.01h-.01-.02l-.1-.03h-.02-.01l-.02-.01h-.01-.01v-.01h-.02-.01a.03.03 0 00-.02-.01h-.01l-.02-.01h-.02l-.03-.02.04.04c.22.17 1.28.9 3.05.91h.06c.88 0 2.11-.3 3.41-1.1 2.15-1.36 3.3-3.85 3.97-5.65l.04-.1v-.03c-.76-.04-1.42-.17-2.05-.29z" fill="#1e50a2"/></svg>