<svg xmlns="http://www.w3.org/2000/svg" role="img" viewBox="0 0 38 24" width="38" height="24" aria-labelledby="pi-offlinebanktransferlatinamerica"><title id="pi-offlinebanktransferlatinamerica">Offline Bank Transfer Latin America</title><g clip-path="url(#pi-offlinebanktransferlatinamerica_clip0_24_17)"><path d="M35 .001H3c-1.7 0-3 1.3-3 3v18C0 22.7 1.4 24 3 24h32c1.7 0 3-1.3 3-3V3c0-1.7-1.4-3-3-3v.001z" fill="#000" fill-opacity=".07"/><path d="M35 1c1.1 0 2.001.9 2.001 2v18a2.006 2.006 0 01-2 2H3A2.007 2.007 0 011 21V3c0-1.1.9-2 2.001-2h32z" fill="#fff"/><path d="M10 19.373c0-.161.13-.292.292-.292h17.416c.161 0 .292.13.292.292v1.168H10v-1.168zM26.054 11.297H11.946v7.784h14.108v-7.784z" fill="#29CFD4"/><path d="M10.973 18.4c0-.161.13-.292.292-.292h15.47c.162 0 .292.13.292.292v.681H10.973V18.4z" fill="#086981"/><path d="M22.649 12.076c0-.162.13-.292.292-.292h.875c.162 0 .292.13.292.292v6.032h-1.46v-6.032zM19.73 12.076c0-.162.13-.292.292-.292h.875c.162 0 .292.13.292.292v6.032h-1.46v-6.032zM16.81 12.076c0-.162.132-.292.293-.292h.875c.162 0 .292.13.292.292v6.032h-1.46v-6.032zM13.892 12.076c0-.162.13-.292.292-.292h.876c.16 0 .291.13.291.292v6.032h-1.459v-6.032z" fill="#086981"/><path d="M18.256 4.157a.876.876 0 011.002 0l7.852 5.426c.743.514.392 1.714-.501 1.714H10.904c-.893 0-1.244-1.2-.5-1.714l7.852-5.426z" fill="#29CFD4"/><path d="M10.022 10.324c-.118.454.243.973.883.973h15.704c.64 0 1-.519.882-.973H10.022zM18.757 8.865a1.46 1.46 0 100-2.919 1.46 1.46 0 000 2.919z" fill="#086981"/><path d="M26.054 18.108v-6.81H11.946l14.108 6.81z" fill="#000" fill-opacity=".07"/></g><defs><clipPath id="pi-offlinebanktransferlatinamerica_clip0_24_17"><path fill="#fff" d="M0 0h38v24H0z"/></clipPath></defs></svg>