<svg version="1.1" xmlns="http://www.w3.org/2000/svg" x="0" y="0" role="img" viewBox="0 0 38 24" width="38" height="24" aria-labelledby="pi-omannet" xml:space="preserve"><title id="pi-omannet">OmanNet</title><path fill="#000" opacity=".07" d="M35 0H3C1.3 0 0 1.3 0 3v18c0 1.7 1.4 3 3 3h32c1.7 0 3-1.3 3-3V3c0-1.7-1.4-3-3-3z"/><path fill="#fff" d="M35 1c1.1 0 2 .9 2 2v18c0 1.1-.9 2-2 2H3c-1.1 0-2-.9-2-2V3c0-1.1.9-2 2-2h32"/><g fill="#08a455"><circle cx="23.6" cy="7.2" r=".3"/><path d="M22.2 7.9h-.1.7l-.1.1-.1.1c-.1.8.1 2.1 1.1 1.9.7-.2.8-1.4.7-1.9V8c-.1-.1-.1-.1 0-.1h.6c.1 0 .1 0 0 .1 0 .4 0 .9-.1 1.3-.4.8-1.5 1.1-2.2.4-.5-.5-.4-1.2-.4-1.8 0 0 0-.1-.1-.1zm-10.6 3.9c.8-.7 1.8-.7 2.4.1h.1c.3-.4.6-.6 1.1-.6 2.6-.2 1.1 3 1.9 3.2.1 0 .1.1.1.1 0 .1-.1.1-.1.1h-1.3c-.1 0-.1-.1-.1-.1 0-.1 0-.1.1-.1.4-.2.3-1.5.2-2-.1-.6-.4-.9-1-.8-.9.1-.8 1.4-.8 2.2 0 .3.1.5.3.7.1 0 .1.1 0 .2l-.1.1h-1.2c-.1 0-.1-.1-.1-.1 0-.1 0-.1.1-.1.2-.1.3-.3.3-.5V13c0-.5-.1-.9-.6-1.1-.7-.2-1.1.3-1.2 1-.1.6-.2 1.7.2 1.8.1 0 .1.1.1.1 0 .1-.1.1-.1.1h-1.2s-.1 0-.1-.1c-.1-.1 0-.2.1-.2 0 0 .1 0 .1-.1.3-.6.2-1.6.1-2.3 0-.1-.1-.3-.2-.3s-.1-.1-.1-.1 0-.1.1-.1l.8-.3c.1 0 .1 0 .1.1v.4c0 .1 0 .1.1 0zm8.6 2.6c-.2.2-.4.3-.5.3-.7.2-1.8.1-2.2-.6-.4-.7.3-1.2 1-1.4.5-.1 1-.2 1.5-.2 0 0 .1 0 .1-.1.1-1.2-1.9-1.1-2.1-.2 0 .1-.1.1-.2.1s-.1 0-.1-.1l-.2-.6s0-.1.1-.1c1.2-.5 3.3-.8 3.3 1.2v.8c0 .4-.1.7.3.8.1 0 .1.1.1.2l-.1.1h-.7s-.1 0-.1-.1v-.3h-.1zm-.9.1c.8-.1.8-.8.9-1.4 0 0 0-.1-.1-.1-.5 0-1.8 0-1.8.8 0 .6.5.8 1 .7zm3.3-2.7c.6-.5 1.2-.6 1.9-.3.6.2.8.8.8 1.5a13 13 0 00.1 1.2c0 .2.1.3.3.3.1 0 .1.1.1.2s-.1.1-.1.1h-1.2c-.1 0-.1-.1-.1-.1 0-.1 0-.1.1-.1.2-.1.3-.2.3-.4v-1.7c-.1-.5-.4-.7-.9-.7-1 0-1 1.6-1 2.3 0 .2.1.4.3.5.1 0 .1.1.1.2l-.1.1H22c-.1 0-.1-.1-.1-.1s0-.1.1-.1c.2-.1.3-.3.3-.5 0-.7.1-1.4-.1-2a.2.2 0 00-.1-.1H22a.1.1 0 010-.2l.1-.1.8-.3s.1 0 .1.1v.3s0 .1.1 0z"/></g><g fill="#e10f12"><circle cx="16.6" cy="6.8" r=".3"/><circle cx="17.3" cy="6.8" r=".3"/><circle cx="20.2" cy="6.8" r=".3"/><path d="M20.8 9.3c-.2-.4-.1-1-.1-1.5a.2.2 0 00-.1-.1l-.1-.1.6-.1h.1c0 .7-.2 1.8.2 2.1h-5.2c-.5 0-.8 0-1-.1-.7-.3-.6-.8-.1-1.2.6-.4 1.2-.6 1.9-.4.1 0 .1 0 .1.1v.4c0 .1 0 .1-.1 0-.1-.2-.2-.3-.4-.4-1.2-.4-2 1.2-.6 1.3.8.1 1.6.1 2.3 0 0 0 .1 0 .1-.1V7.8s0-.1-.1-.1l-.1-.1.6-.1h.1v1.8s0 .1.1.1h1.9c.1 0 .1 0 0-.1zm15.6 2.3h.5c.1 0 .1.1.1.1l-.1.2s0 .1-.1.1h-.5s-.1 0-.1.1v1.1c0 .5-.1 1.2.5 1.4.1 0 .1.1.1.2l-.1.1c-.5 0-1.2.2-1.2-.7v-2.1c0-.1 0-.1-.1-.1h-.3c-.1 0-.2-.1-.2-.2s0-.1.1-.2c.4-.2.7-.4.9-.9 0-.1.1-.1.1-.1.1 0 .2.1.2.1v.8zm-9.7 0v2.1c0 .4.2.7.5.9.1 0 .1.1.1.2l-.1.1h-1.3c-.1 0-.1-.1-.1-.1 0-.1 0-.1.1-.1.3-.1.5-.4.5-.8v-2.4c0-.2-.1-.4-.4-.4a.1.1 0 01-.1-.2c0-.1.1-.1.1-.1h1.1l2.7 2.8h.1c.1-.6 0-1.4 0-1.8-.1-.3-.2-.6-.5-.8a.1.1 0 010-.2h1.3c.1 0 .1 0 .1.1v.2c-.4.1-.4.5-.4 1V15c0 .1-.1.1-.1.1h-.1l-3.3-3.3h-.1zm7.9 1.7s-.1 0-.1.1c-.2.6-.5.9-1 1-1 .3-1.8-.5-1.6-1.5 0 0 0-.1.1-.1h2.8c.1 0 .1-.1.1-.2-.4-1.2-1.9-1.6-2.9-1-.6.3-.9.8-.9 1.3-.2 2.2 3 2.7 3.8.8.1-.2 0-.4-.2-.4zm-2.6-.9c0-.4.4-.7 1-.7.5 0 1 .3 1 .7h-2z"/></g><path d="M6.4 9.5c-.1 0-.1.1-.2.1L4.8 5.9l.2-.1 1.4 3.7zm-2.1 2.7L2 11.9v-.2h.1l2.2.3v.2zm2.3 4.6l-.2-.1.3-1.9H7l-.3 1.9v.1h-.1z" fill="#08a455"/><path d="M8.8 14.5v-.1c2.1-1.3 1.6-4.2-.7-4.9 0 0-.1 0 0-.1l.3-1.9h-.2l-.3 1.9s0 .1-.1 0c-.4-.1-.9 0-1.3 0-.1 0-.1.1-.2.1-1.1.4-1.8 1.2-1.9 2.4v.2c0 .5.2 1 .5 1.5v.1L3 14.8l.1.2L5 13.9h.1c.5.5 1.1.8 1.8.9H7c.5 0 1-.1 1.4-.3h.1l1.8 3.6.2-.1-1.8-3.6zm-1.5.1c-1.5 0-2.7-1.1-2.7-2.5s1.2-2.5 2.7-2.5c1.5 0 2.7 1.1 2.7 2.5s-1.2 2.5-2.7 2.5z" fill="#e10f12"/><path d="M12.5 6.7h-.1l-2.8 3.5s-.1.1-.1 0V10l2.8-3.4.3.2zm-2.6 5.5c0 1.4-1.2 2.5-2.7 2.5s-2.7-1.1-2.7-2.5 1.2-2.5 2.7-2.5 2.7 1.1 2.7 2.5zm-.2 0c0-1.2-1.1-2.2-2.5-2.3-1.4 0-2.5 1-2.5 2.3 0 1.2 1.1 2.3 2.5 2.3s2.5-1 2.5-2.2z" fill="#08a455"/><g fill="#e10f12"><path d="M5.1 10L3.7 8.8l-.2.2 1.4 1.2c.1.1.1.1.2 0V10z"/><circle cx="8.3" cy="7.1" r=".5"/></g><g fill="#08a455"><circle cx="12.6" cy="6.2" r=".5"/><circle cx="4.8" cy="5.4" r=".5"/><circle cx="6.5" cy="17.2" r=".5"/><circle cx="1.5" cy="11.7" r=".5"/></g><g fill="#e10f12"><circle cx="3.3" cy="8.6" r=".5"/><circle cx="2.6" cy="15.1" r=".5"/><circle cx="10.6" cy="18.6" r=".5"/></g></svg>