<svg xmlns="http://www.w3.org/2000/svg" role="img" viewBox="0 0 38 24" width="38" height="24" aria-labelledby="pi-oney"><title id="pi-oney">Oney</title><path opacity=".07" d="M35 0H3C1.3 0 0 1.3 0 3v18c0 1.7 1.4 3 3 3h32c1.7 0 3-1.3 3-3V3c0-1.7-1.4-3-3-3z"/><path fill="#fff" d="M35 1c1.1 0 2 .9 2 2v18c0 1.1-.9 2-2 2H3c-1.1 0-2-.9-2-2V3c0-1.1.9-2 2-2h32"/><path fill="#84bd06" d="M26.739 11.364c-.012-1.95-1.581-3.531-3.504-3.531-1.924 0-3.53 1.588-3.53 3.619 0 .95.365 1.854 1.021 2.544a3.414 3.414 0 002.485 1.085c1.07 0 2.567-.514 3.281-1.971a.413.413 0 00.018-.048h-1.434l-.008.011c-.386.461-1.111.774-1.806.774-.879 0-1.933-.58-2.223-1.891h5.674a8.14 8.14 0 00.026-.591v-.001zm-5.658-.563c.173-.878 1.013-1.734 2.143-1.734 1.127 0 1.965.856 2.138 1.734h-4.281zm-5.356-1.775c-1.28 0-1.929.686-1.929 2.041v4.016h-1.311v-4.11c.014-.721.141-1.231.434-1.709.347-.538 1.176-1.442 2.806-1.442 1.634 0 2.458.904 2.806 1.442.29.478.422.988.429 1.709v4.11h-1.311v-4.016c0-1.355-.645-2.041-1.926-2.041m17.841-1.2l-2.768 6.75-.682 1.672-.379.926h-1.363l1.061-2.595-2.831-6.75h1.444l2.071 5.074 2.073-5.074h1.377l-.003-.003zM8.113 13.848c-1.289 0-2.344-1.052-2.344-2.39 0-1.34 1.055-2.393 2.344-2.393 1.29 0 2.339 1.053 2.339 2.393 0 1.338-1.058 2.39-2.339 2.39m0-6.023c-2.031 0-3.622 1.595-3.622 3.633 0 2.037 1.591 3.634 3.622 3.634 2.03 0 3.616-1.598 3.616-3.634 0-2.037-1.59-3.633-3.616-3.633"/></svg>