<svg viewBox="0 0 38 24" width="38" height="24" xmlns="http://www.w3.org/2000/svg" aria-labelledby="pi-onlinebanktransfer" role="img"><title id="pi-onlinebanktransfer">Online Banktransfer</title><path opacity=".07" d="M35-.089H3c-1.7 0-3 1.3-3 3v18c0 1.7 1.4 3 3 3h32c1.7 0 3-1.3 3-3v-18c0-1.7-1.4-3-3-3z"/><path d="M35 .911c1.1 0 2 .9 2 2v18c0 1.1-.9 2-2 2H3c-1.1 0-2-.9-2-2v-18c0-1.1.9-2 2-2h32z" fill="#c06"/><rect x="11.334" y="15.802" width="14.219" height="1.109" rx=".525" fill="#fff"/><rect x="10.837" y="17.713" width="15.212" height=".773" rx=".525" fill="#fff"/><rect x="12.716" y="8.118" width="2.58" height="1.009" rx=".525" fill="#fff"/><rect x="12.716" y="13.982" width="2.58" height="1.009" rx=".525" fill="#fff"/><path fill="#fff" d="M13.183 8.118h1.646v6.873h-1.646z"/><rect x="17.143" y="8.118" width="2.58" height="1.009" rx=".525" fill="#fff"/><rect x="17.143" y="13.982" width="2.58" height="1.009" rx=".525" fill="#fff"/><path fill="#fff" d="M17.61 8.118h1.646v6.873H17.61z"/><rect x="21.571" y="8.118" width="2.58" height="1.009" rx=".525" fill="#fff"/><rect x="21.571" y="13.982" width="2.58" height="1.009" rx=".525" fill="#fff"/><path fill="#fff" d="M22.038 8.118h1.646v6.873h-1.646zM18.387 4.277a.148.148 0 01.113 0l6.744 2.809c.15.062.105.284-.056.284H11.699c-.162 0-.206-.222-.057-.284l6.745-2.809z"/><path d="M18.608 14.543v-4.067c0-.084.06-.156.142-.172l4.037-.791a.176.176 0 01.066 0l4.252.792a.175.175 0 01.144.172v4.051l-.003.03c-.652 3.743-3.136 5.37-4.361 5.741a.167.167 0 01-.127-.013c-3.043-1.605-4.035-4.492-4.15-5.743zm0 0h.263v-.012m-.263.012l.262-.024.001.012m0 0v-3.983m0 0l3.95-.774m-3.95.774v-.072c0 .042-.03.078-.07.086l.07-.014zm3.976 9.487a2.998 2.998 0 01-.039.012.097.097 0 01.073.006 9.858 9.858 0 01-.034-.018zm4.138-5.515v.008c0-.005 0-.01.002-.015l-.002.007zm0 0v-3.97m0 0l.072.013a.088.088 0 01-.072-.086v.073zm0 0l-4.164-.776m.016-.003a.088.088 0 01-.032 0h.032z"/><path d="M19.263 14.533v-3.427c0-.07.05-.131.12-.145l3.401-.666a.148.148 0 01.056 0l3.583.667c.07.013.12.074.12.146v3.413a.15.15 0 01-.001.025c-.55 3.154-2.643 4.524-3.675 4.837a.14.14 0 01-.107-.01c-2.564-1.353-3.4-3.786-3.497-4.84zm0 0h.222v-.01m-.222.01l.221-.02.001.01m0 0v-3.356m0 0l3.328-.652m-3.328.652v-.06a.074.074 0 01-.06.072l.06-.012zm3.35 7.994a2.298 2.298 0 01-.032.01.081.081 0 01.06.005 6.997 6.997 0 01-.028-.015zm3.487-4.647v.007l.001-.013-.001.006zm0 0V11.17m0 0l.06.011a.074.074 0 01-.06-.072v.061zm0 0l-3.509-.654m0 0l.014-.002a.074.074 0 01-.028 0l.014.002z" fill="#fff"/><path fill-rule="evenodd" clip-rule="evenodd" d="M22.729 11.459l-.038-.007a.148.148 0 00-.055 0l-2.39.468a.148.148 0 00-.119.145v2.561c.07.752.664 2.625 2.485 3.595a.137.137 0 00.107.01l.01-.003v-6.77z"/></svg>