<svg xmlns="http://www.w3.org/2000/svg" role="img" viewBox="0 0 38 24" width="38" height="24" aria-labelledby="pi-op"><title id="pi-op">OP</title><path opacity=".07" d="M35 0H3C1.3 0 0 1.3 0 3v18c0 1.7 1.4 3 3 3h32c1.7 0 3-1.3 3-3V3c0-1.7-1.4-3-3-3z"/><path fill="#fff" d="M35 1c1.1 0 2 .9 2 2v18c0 1.1-.9 2-2 2H3c-1.1 0-2-.9-2-2V3c0-1.1.9-2 2-2h32"/><path d="M26.122 16.082c-1.827 0-2.432-1.39-2.432-2.779v-2.13c0-1.39.605-2.78 2.432-2.78 1.817 0 2.423 1.39 2.423 2.78v2.13c0 1.39-.606 2.78-2.423 2.78zm1.768-4.91c0-1.173-.447-2.151-1.768-2.151-1.33 0-1.777.978-1.777 2.151v2.131c0 1.174.447 2.151 1.777 2.151 1.32 0 1.768-.977 1.768-2.151v-2.13zm3.85 1.75h-1.698v2.82c0 .196-.138.34-.327.34a.33.33 0 0 1-.328-.34V8.825c0-.185.15-.34.328-.34h1.906c1.698 0 2.303 1.02 2.303 1.977v.525c0 1.132-.814 1.935-2.184 1.935zm1.53-2.45c0-.608-.368-1.348-1.678-1.348h-1.55v3.17h1.679c1.062 0 1.548-.597 1.548-1.318v-.504z" fill="#6E6E6E"/><path d="M11.955 20.456a8.455 8.455 0 1 0 0-16.91 8.455 8.455 0 0 0 0 16.91" fill="#FF6A10"/><path d="M18.59 12a3.742 3.742 0 0 0-5.784-3.135V5.367h-1.7v3.498a3.742 3.742 0 1 0 0 6.272v3.498h1.7v-3.498A3.742 3.742 0 0 0 18.59 12m-7.484 0a2.041 2.041 0 1 1-4.082 0 2.041 2.041 0 0 1 4.082 0m5.783 0a2.04 2.04 0 1 1-4.081 0 2.04 2.04 0 0 1 4.081 0" fill="#FFF"/></svg>