<svg xmlns="http://www.w3.org/2000/svg" role="img" viewBox="0 0 38 24" width="38" height="24" aria-labelledby="pi-opay"><title id="pi-opay">OPAY</title><path d="M35 0H3C1.3 0 0 1.3 0 3v18c0 1.7 1.4 3 3 3h32c1.7 0 3-1.3 3-3V3c0-1.7-1.4-3-3-3z" fill-opacity=".07" fill-rule="nonzero"/><path d="M35 1c1.1 0 2 .9 2 2v18c0 1.1-.9 2-2 2H3c-1.1 0-2-.9-2-2V3c0-1.1.9-2 2-2h32" fill="#fff" fill-rule="nonzero"/><g fill="#0147bb" fill-rule="nonzero"><path d="M8.36 8.452c1.333 0 2.525.669 3.183 1.766A3.44 3.44 0 0112.034 12c0 1.29-.7 2.446-1.834 3.073a3.73 3.73 0 01-1.844.475c-1.333 0-2.524-.669-3.183-1.766A3.412 3.412 0 014.683 12c0-1.29.7-2.446 1.833-3.078a3.726 3.726 0 011.845-.47zM6.308 12c0 1.155.878 2.07 2.049 2.07.58 0 1.076-.2 1.458-.602.386-.402.58-.888.58-1.468s-.199-1.066-.58-1.468c-.387-.403-.878-.601-1.458-.601-1.17 0-2.049.914-2.049 2.069zM13.299 8.551h2.958c2.058 0 2.989.779 2.989 2.446 0 1.646-.957 2.403-2.979 2.403h-1.4v2.049h-1.568V8.55zM14.867 9.9v2.29h1.332c.988 0 1.411-.346 1.411-1.135 0-.778-.402-1.155-1.421-1.155h-1.322zM26.833 15.449h-1.876l-.533-1.359h-2.89l-.533 1.359h-1.87l2.811-6.898h2.059l2.832 6.898zm-4.88-2.613H24l-1.024-2.545-1.025 2.545zM30.517 13.035v2.414h-1.568v-2.383l-2.795-4.515h1.87l1.714 2.827 1.725-2.827h1.855l-2.801 4.484z"/></g></svg>