<svg xmlns="http://www.w3.org/2000/svg" role="img" viewBox="0 0 38 24" width="38" height="24" aria-labelledby="pi-openpay"><title id="pi-openpay">Openpay</title><path d="M35 0H3C1.3 0 0 1.3 0 3v18c0 1.7 1.4 3 3 3h32c1.7 0 3-1.3 3-3V3c0-1.7-1.4-3-3-3z" opacity=".07"/><path fill="#ffb81c" d="M35 1c1.1 0 2 .9 2 2v18c0 1.1-.9 2-2 2H3c-1.1 0-2-.9-2-2V3c0-1.1.9-2 2-2h32"/><path fill="#333332" d="M31.58 11.74v2.82c0 1.21-.8 2.26-1.96 2.59v.48h-1.45v-.48a2.688 2.688 0 0 1-1.96-2.59v-2.82h1.43v2.82c.01.69.58 1.24 1.27 1.22.67-.01 1.21-.55 1.22-1.22v-2.82h1.44zm-3.42 6.37h1.45v1.45h-1.45zm-5.37-2.31c-.78 0-1.45-.65-1.45-1.43 0-.79.63-1.44 1.42-1.44h.03c.78 0 1.41.62 1.44 1.39v.05c0 .79-.64 1.43-1.43 1.43h-.01m2.86-1.48c-.02-1.59-1.33-2.85-2.92-2.83s-2.85 1.33-2.83 2.92a2.873 2.873 0 0 0 2.92 2.83c.48 0 .96-.14 1.38-.38v.24h1.45v-2.78m-11.89 3.79h1.45v1.45h-1.45zm2.86-2.31c-.79 0-1.43-.65-1.43-1.44 0-.79.65-1.43 1.44-1.43.79 0 1.43.65 1.43 1.44 0 .78-.66 1.43-1.44 1.43m0-4.31c-1.58 0-2.86 1.29-2.87 2.87v3.27h1.45v-.78c1.38.79 3.13.31 3.92-1.07s.31-3.13-1.07-3.92a2.86 2.86 0 0 0-1.43-.38m-5.23.21h1.45v1.45h-1.45zm2.87-2.31c-.79 0-1.43-.65-1.43-1.44 0-.79.65-1.43 1.44-1.43s1.43.65 1.43 1.44c0 .78-.66 1.43-1.44 1.43m0-4.31c-1.58 0-2.86 1.29-2.87 2.87v3.27h1.45v-.78c1.38.79 3.13.31 3.92-1.07a2.87 2.87 0 0 0-1.07-3.92 2.86 2.86 0 0 0-1.43-.38M9.58 7.95a1.44 1.44 0 1 1-2.88 0 1.44 1.44 0 0 1 2.88 0m1.44 0c0-1.59-1.29-2.87-2.87-2.87S5.28 6.37 5.28 7.95s1.29 2.87 2.87 2.87a2.87 2.87 0 0 0 2.87-2.87m15.39-2.88a2.69 2.69 0 0 0-2.69 2.69v2.91h1.45V7.76a1.25 1.25 0 0 1 2.5 0v2.91h1.44V7.76c0-1.48-1.2-2.69-2.69-2.69m-7.34 2.2.02-.04c.39-.71 1.28-.97 2-.58.25.13.45.34.58.58l.02.04h-2.62zm4.1-.02c-.38-1.54-1.93-2.49-3.48-2.12s-2.49 1.93-2.12 3.48a2.83 2.83 0 0 0 2.23 2.15c.81.16 1.65-.03 2.31-.54l-1.01-1.01c-.68.39-1.54.18-1.96-.47l-.02-.04h4.02c.07-.25.16-.92.02-1.46"/></svg>