<svg viewBox="0 0 38 24" width="38" height="24" role="img" aria-labelledby="pi-optimism" xml:space="preserve" xmlns="http://www.w3.org/2000/svg"><title id="pi-optimism">Optimism</title><rect width="38" height="24" rx="3" fill-opacity=".07" x=".038"/><rect x="1.038" y="1" width="36" height="22" rx="2" fill="#fff"/><path d="M13.147 6.676h11.708v10.648H13.147Z" fill="#fff"/><g transform="matrix(.02377 0 0 .02377 7.117 .117)"><circle cx="500" cy="500" r="396.6" fill="#fff"/><path d="M500 896.6c219.1 0 396.6-177.6 396.6-396.6 0-219-177.5-396.6-396.6-396.6-219.1 0-396.6 177.5-396.6 396.6 0 219.1 177.5 396.6 396.6 396.6ZM350.7 609c10.9 3.4 22.6 5.1 35.3 5.1 29.1 0 52.4-6.7 69.6-20.2 17.3-13.7 29.3-34.3 36.2-61.8 2-8.6 3.9-17.3 5.7-25.9 2-8.6 3.7-17.4 5.1-26.2 2.4-13.7 2-25.6-1.2-35.9-3-10.2-8.3-18.9-16-25.9-7.4-7-16.6-12.3-27.4-15.7-10.7-3.6-22.3-5.4-35-5.4-29.3 0-52.7 7-69.9 21.1-17.2 14.1-29.2 34.7-35.9 61.8-2 8.8-4 17.6-6 26.2-1.8 8.6-3.5 17.3-5.1 25.9-2.2 13.7-1.8 25.6 1.2 35.9 3.2 10.2 8.5 18.8 16 25.6 7.4 6.8 16.6 11.9 27.4 15.4zm67.8-48c-8.2 6.4-17.8 9.6-28.6 9.6-11.1 0-19-3.2-23.8-9.6-4.8-6.4-6-16.7-3.6-30.7 1.6-8.8 3.2-17.2 4.8-25 1.8-7.8 3.8-16 6-24.4 3.4-14.1 9.1-24.3 17.2-30.7 8.2-6.4 17.8-9.6 28.6-9.6s18.8 3.2 23.8 9.6c5 6.4 6.2 16.7 3.6 30.7-1.4 8.4-3 16.6-4.8 24.4-1.6 7.8-3.5 16.2-5.7 25-3.4 14-9.2 24.3-17.5 30.7zm91.7 48c1.2 1.4 2.8 2.1 4.8 2.1h41c2.2 0 4.1-.7 5.7-2.1 1.8-1.4 2.9-3.2 3.3-5.4l13.9-66h40.7c25.9 0 46.5-5.5 61.8-16.6 15.5-11.1 25.7-28.1 30.7-51.2 2.4-11.7 2.3-21.8-.3-30.4-2.6-8.8-7.2-16.2-13.9-22-6.6-5.8-15-10.1-25-13-9.8-2.8-20.9-4.2-33.2-4.2h-80.2c-2 0-3.9.7-5.7 2.1-1.8 1.4-2.9 3.2-3.3 5.4L509 603.5c-.4 2.2 0 4 1.2 5.5zm111.2-113.1h-34.7l11.8-54h36.2c7.2 0 12.6 1.2 16 3.6 3.6 2.4 5.7 5.6 6.3 9.6.6 4 .4 8.6-.6 13.9-2 9-6.3 15.8-13 20.2-6.4 4.5-13.8 6.7-22 6.7z" fill-rule="evenodd" clip-rule="evenodd" fill="#ff0420"/></g></svg>
