<svg width="38" height="24" role="img" viewBox="0 0 38 24" xmlns="http://www.w3.org/2000/svg" aria-labelledby="pi-orco"><title id="pi-orco">Orco Bank</title><path opacity=".07" d="M35 0H3C1.3 0 0 1.3 0 3v18c0 1.7 1.4 3 3 3h32c1.7 0 3-1.3 3-3V3c0-1.7-1.4-3-3-3z"/><path fill="#fff" d="M35 1c1.1 0 2 .9 2 2v18c0 1.1-.9 2-2 2H3c-1.1 0-2-.9-2-2V3c0-1.1.9-2 2-2h32"/><path d="M32.705 5.107H5.298v13.785h27.407V5.107zM12.107 18.721H5.469v-6.636h6.638v6.635zm0-6.808H5.469V5.28h6.638v6.634zm6.81 6.808h-6.64v-6.636h6.64v6.635zm0-6.808h-6.64V5.28h6.64v6.634zm6.807 6.808h-6.637v-6.636h6.637v6.635zm0-6.808h-6.637V5.28h6.637v6.634zm6.81 6.808h-6.64v-6.636h6.64v6.635zm0-6.808h-6.64V5.28h6.64v6.634z" fill="#D78D00"/><path d="M4.002 20.278h29.996V3.72H4.002v16.558zm29.825-.17H4.172V3.89h29.654v16.216z" fill="#D78D00"/><path d="M33.46 4.315H4.54v15.368h28.92V4.315zm-.343 15.025H4.882V4.658h28.234V19.34z" fill="#D78D00"/><path d="M11.002 10.177a2.771 2.771 0 01-2.327 1.186c-1.513 0-2.818-1.137-2.818-2.777a2.84 2.84 0 012.849-2.822 2.75 2.75 0 012.786 2.762 2.888 2.888 0 01-.49 1.651m-4.173-1.59c0 1.28.48 2.555 1.893 2.555 1.381 0 1.802-1.365 1.802-2.58 0-1.228-.482-2.577-1.849-2.577-1.341 0-1.846 1.39-1.846 2.601M17.481 10.603c.25.303.364.415.762.483v.187c-.234-.01-.466-.026-.701-.033-.192.007-.387.023-.58.033l-.366-.474-1.288-1.684c-.256-.31-.225-.359-.637-.359v.963c0 .261 0 .866.07 1.087.093.287.412.279.66.279v.187c-.357-.01-.721-.026-1.094-.032-.389.006-.778.023-1.165.032v-.187c.248 0 .574 0 .66-.28.07-.22.07-.825.07-1.086V7.416c0-.26 0-.865-.07-1.086-.086-.285-.411-.278-.66-.278v-.19c.444.01.892.026 1.336.035.326-.009.66-.024.986-.034.885 0 1.777.214 1.777 1.35 0 .882-.637 1.33-1.405 1.404l1.645 1.986zm-2.81-2.067c.97 0 1.678-.025 1.678-1.209 0-.72-.389-1.225-1.088-1.225-.093 0-.435-.026-.504.006-.102.05-.086.207-.086.295v2.133zM24.416 5.888h.117l.061 1.609h-.177c-.132-.905-.737-1.544-1.638-1.544-1.388 0-1.808 1.445-1.808 2.672 0 1.232.45 2.548 1.823 2.548 1.089 0 1.484-.816 1.715-1.797h.142v1.79h-.103l-.185-.416a2.51 2.51 0 01-1.716.612c-1.575 0-2.645-1.071-2.645-2.737 0-1.657 1.142-2.86 2.716-2.86.637 0 1.04.155 1.575.508l.124-.385zM26.292 8.586a2.839 2.839 0 012.847-2.822 2.751 2.751 0 012.788 2.762c0 1.676-1.249 2.837-2.818 2.837-1.513 0-2.818-1.137-2.818-2.777m.97 0c0 1.281.483 2.556 1.894 2.556 1.382 0 1.8-1.365 1.8-2.58 0-1.228-.48-2.577-1.846-2.577-1.342 0-1.848 1.39-1.848 2.601M28.302 16.05v.964c0 .776.023.816.767.881v.19c-.38-.009-.752-.025-1.132-.034-.396.01-.784.025-1.18.034v-.19c.248 0 .566 0 .668-.278.077-.219.077-.824.077-1.085v-2.305c0-.262 0-.867-.077-1.087-.102-.277-.42-.277-.667-.277v-.189c.371.009.737.026 1.108.033.405-.007.8-.024 1.204-.033v.19c-.745.064-.768.115-.768.88v1.997c.373-.41 1.87-2.076 1.87-2.55 0-.345-.35-.302-.582-.327v-.19c.31.01.612.027.924.034.272-.007.534-.024.808-.033v.19c-.428.007-.528.115-.784.457l-1.242 1.616 1.078 1.309c.094.12.91 1.248 1.274 1.527.155.122.272.107.457.122v.19c-.411-.01-.821-.025-1.233-.034-.396.009-.785.025-1.181.033v-.19c.14 0 .652.027.652-.243 0-.172-.489-.777-.612-.933l-.948-1.198-.481.53zM20.318 13.354c-.239-.36-.426-.483-.845-.49v-.19c.247.01.489.027.739.033.2-.006.41-.023.61-.032l3.292 4.208v-2.27a7.507 7.507 0 00-.07-1.258c-.092-.458-.302-.426-.69-.49v-.19c.288.01.567.027.852.033.272-.006.537-.024.823-.033v.19c-.286.032-.488.007-.59.359-.077.26-.092 1.104-.092 1.43v3.52h-.233a29.328 29.328 0 01-.512-.679l-3.05-3.871v2.744c0 .301 0 .917.115 1.193.132.32.389.302.676.335v.19c-.296-.009-.597-.025-.893-.034-.286.009-.573.025-.86.033v-.19c.301-.032.59-.047.667-.4.051-.373.072-.75.061-1.127v-3.014zM14.152 16.311c-.119.31-.374.914-.374 1.232 0 .352.398.33.63.352v.19c-.287-.008-.567-.024-.854-.034-.272.01-.535.026-.808.034v-.19c.419-.048.59-.177.745-.578.217-.524.428-1.04.645-1.561l1.188-3.21h.264l1.566 4.151c.093.211.264.71.404.898.172.236.404.269.668.301v.19c-.364-.008-.738-.024-1.101-.034-.373.01-.755.026-1.126.033v-.189c.216-.006.597.01.597-.309a2.015 2.015 0 00-.155-.638l-.304-.841H14.22l-.068.203zm1.886-.465l-.855-2.305-.86 2.305h1.715zM7.146 14.224c0-.263 0-.867-.07-1.087-.086-.284-.412-.277-.66-.277v-.19c.373.01.736.028 1.11.034.31-.006.614-.024.925-.033.814-.023 1.908.198 1.908 1.285 0 .742-.573 1.06-1.165 1.249v.017c.435.04.832.113 1.135.334.374.254.598.677.598 1.129 0 .537-.318.939-.753 1.184-.42.227-.98.211-1.43.211-.34-.007-.675-.023-1.015-.032-.436.008-.879.025-1.312.032v-.188c.247 0 .573.01.66-.278.07-.22.07-.825.07-1.086v-2.304zm.799.907h.25c.34 0 .62.017.922-.172.326-.22.395-.57.395-.963 0-.727-.372-1.088-1.062-1.088-.102 0-.397-.016-.459.042-.054.047-.047.277-.047.342v1.839zm0 1.356c0 .278 0 .784.094 1.03.132.352.52.342.814.342.762 0 1.104-.474 1.104-1.25 0-.465-.156-.858-.56-1.088-.358-.194-.814-.17-1.211-.17h-.241v1.136z" fill="#00417E"/></svg>