<svg alt="CitiCobrandIcon" aria-labelledby="pi-overstockciticobrand" width="38" height="24" role="img" viewBox="0 0 38 24" fill="none" xmlns="http://www.w3.org/2000/svg"><title id="pi-overstockciticobrand">Overstock Mastercard</title><g clip-path="url(#pi-clip0_11771_33661)"><path d="M38.895 23H1V1H38.895v22z" fill="#ED0000"/><path fill-rule="evenodd" clip-rule="evenodd" d="M20.526 1c5.234 1.519 8.238 6.597 6.952 12.623-1.03 4.88-4.625 9.129-9.06 11.377H2.387A1.387 1.387 0 011 23.613v-10.21a1278.311 1278.311 0 01.927-2.083C3.885 6.348 8.463 2.324 13.587 1h6.939zM6.37 13.398c0 6.161 3.671 11.16 8.206 11.16 4.534 0 8.205-4.999 8.205-11.16 0-6.16-3.67-11.16-8.205-11.16s-8.206 5-8.206 11.16z" fill="#FF5362"/><g clip-path="url(#pi-clip1_11771_33661)"><path d="M29.398 18.06c0-.668.323-1.265.828-1.65a2.216 2.216 0 00-1.351-.454c-1.203 0-2.179.942-2.179 2.104 0 1.162.976 2.105 2.178 2.105.511 0 .98-.17 1.352-.454a2.074 2.074 0 01-.828-1.65z" fill="#D72027"/><path d="M29.398 18.06c0 .669.323 1.265.827 1.65.505-.385.828-.98.828-1.65 0-.67-.323-1.265-.828-1.65-.504.385-.827.98-.827 1.65z" fill="#F26828"/><path d="M33.663 19.21v.016h.026v.062h.02v-.062h.026v-.017h-.072zm.153 0l-.02.05-.02-.05h-.027v.078h.02v-.055l.018.047h.02l.018-.047v.055h.019v-.079h-.028z" fill="#fff"/><path d="M31.576 15.956c-.51 0-.979.17-1.35.454.504.385.827.98.827 1.65 0 .67-.323 1.265-.828 1.65.372.285.84.455 1.351.455 1.203 0 2.178-.943 2.178-2.105s-.975-2.104-2.178-2.104z" fill="#F99E23"/><path d="M31.576 15.956c1.203 0 2.178.942 2.178 2.104 0 1.162-.975 2.105-2.178 2.105-.51 0-.979-.17-1.35-.456a2.21 2.21 0 01-1.351.456c-1.203 0-2.179-.943-2.179-2.105s.976-2.104 2.178-2.104c.511 0 .98.17 1.351.454.372-.285.84-.454 1.351-.454zm0-.144c-.49 0-.955.145-1.35.419a2.353 2.353 0 00-1.351-.419c-1.283 0-2.327 1.009-2.327 2.248 0 1.24 1.044 2.248 2.327 2.248.49 0 .955-.145 1.35-.419.396.274.86.419 1.351.419 1.283 0 2.327-1.009 2.327-2.248 0-1.24-1.044-2.248-2.327-2.248z" fill="#fff"/></g><g clip-path="url(#pi-clip2_11771_33661)" fill="#fff"><path d="M11.034 11.329a.474.474 0 010 .583.122.122 0 00.027.175c.057.042.139.03.18-.026a.705.705 0 00.15-.44.72.72 0 00-.15-.44.131.131 0 00-.18-.026.121.121 0 00-.027.175M11.48 11.095a.976.976 0 010 1.05.123.123 0 00.041.173c.06.037.14.018.179-.04a1.227 1.227 0 000-1.314.132.132 0 00-.178-.041.123.123 0 00-.043.172z"/><path d="M11.95 10.857a1.473 1.473 0 010 1.527.123.123 0 00.047.172.131.131 0 00.177-.045 1.718 1.718 0 000-1.778.132.132 0 00-.177-.045.122.122 0 00-.046.171"/><path d="M12.42 10.618a1.973 1.973 0 010 2.004.124.124 0 00.05.172.133.133 0 00.177-.047 2.213 2.213 0 000-2.253.133.133 0 00-.178-.047.124.124 0 00-.048.171z"/></g><g clip-path="url(#pi-clip3_11771_33661)" fill="#fff"><path d="M18.61 6.871h-.024v-.158l-.064.158h-.015l-.064-.158v.158h-.024v-.178h.042l.053.131.052-.13h.042v.177h.002zm-.225-.16h-.059v.16h-.024v-.16h-.059v-.016h.142v.016zm-9.472-.516c0 .388-.234.715-.662.715-.428 0-.662-.327-.662-.715 0-.388.234-.716.662-.716.428 0 .662.328.662.716zm-1.153 0c0 .288.163.577.491.577.328 0 .491-.288.491-.577 0-.29-.163-.577-.491-.577-.328 0-.491.288-.491.577zm1.123-.676h.19l.44 1.187h.005l.435-1.187h.176L9.605 6.87h-.182l-.54-1.352zm1.403.72c.003.241.133.532.46.532.25 0 .386-.142.44-.346h.171c-.073.307-.257.484-.61.484-.445 0-.632-.33-.632-.715 0-.357.188-.716.632-.716s.629.38.616.76h-1.077v.001zm.906-.138c-.008-.249-.168-.482-.445-.482s-.435.236-.461.482h.906zm1.927-.186c-.008-.205-.17-.296-.366-.296-.152 0-.33.057-.33.233 0 .148.172.2.29.229l.228.05c.195.028.399.139.399.373 0 .294-.3.406-.562.406-.326 0-.548-.147-.575-.477h.17c.014.224.184.338.413.338.16 0 .382-.069.382-.256 0-.158-.152-.21-.307-.246l-.22-.047c-.222-.058-.39-.131-.39-.362 0-.275.28-.38.527-.38.28 0 .501.142.512.435h-.17zm.64-.396h.284v.14h-.284v.911c0 .108.015.17.137.178.049 0 .098-.003.147-.008v.143c-.05 0-.1.005-.152.005-.228 0-.307-.074-.303-.305v-.925h-.165v-.14h.165v-.405h.17v.406zm1.64.676c0 .388-.234.715-.662.715-.428 0-.662-.327-.662-.715 0-.388.234-.716.662-.716.428 0 .661.328.661.716zm-1.153 0c0 .288.162.577.49.577.329 0 .492-.288.492-.577 0-.29-.163-.577-.491-.577-.329 0-.491.288-.491.577zm2.363-.251c-.046-.202-.173-.325-.397-.325-.328 0-.49.288-.49.577 0 .29.162.577.49.577.212 0 .385-.16.407-.385h.171c-.046.325-.265.524-.578.524-.428 0-.661-.328-.661-.716 0-.388.233-.715.661-.715.298 0 .53.154.568.464h-.171v-.001zm.36-.944h.172v1.175l.776-.655h.227l-.598.501.638.851h-.214l-.552-.737-.277.224v.513h-.171V5zm-4.807.506v.164a.47.47 0 00-.41.48v.72h-.17V5.517h.157v.318h.006a.511.511 0 01.417-.33v.001zM4.87 4.99h2.396v2.315H6.035c.424-.146.782-.513.877-.943.122-.558-.246-1.01-.823-1.01-.521 0-1.035.37-1.22.852V4.99h.001zm1.712 1.365c0 .48-.307.869-.685.869-.378 0-.685-.388-.685-.87 0-.48.307-.867.685-.867.378 0 .685.388.685.868z"/></g><g clip-path="url(#pi-clip4_11771_33661)" fill="#fff"><path fill-rule="evenodd" clip-rule="evenodd" d="M30.726 6.388l-.008.006a.558.558 0 01-.39.175c-.29 0-.5-.21-.5-.5 0-.289.21-.5.5-.5.139 0 .273.061.39.177l.008.006.186-.218-.005-.006a.723.723 0 00-.57-.263.882.882 0 00-.59.21.769.769 0 00-.25.593c0 .242.087.45.25.595.152.136.362.21.59.21a.723.723 0 00.57-.263l.005-.005-.186-.219v.002zM31.1 6.844h.33V5.292h-.33v1.552zM32.719 6.507a.485.485 0 01-.243.077c-.107 0-.155-.054-.155-.175v-.823h.335v-.292h-.335v-.483l-.323.167v.316h-.279v.292h.279v.877c0 .238.146.402.365.406a.527.527 0 00.291-.071l.004-.003.079-.3-.02.012h.002zM32.99 6.844h.33V5.292h-.33v1.552z"/><path fill-rule="evenodd" clip-rule="evenodd" d="M33.513 5.019c-.3-.411-.8-.657-1.308-.657s-1.007.246-1.307.657l-.016.022h.378l.004-.004c.257-.258.595-.394.94-.394s.683.136.94.394l.004.004h.378l-.016-.022h.003z"/><path d="M33.91 4.914c0 .017-.014.025-.03.025h-.05v-.052h.05c.016 0 .03.009.03.025v.002zm.032 0c0-.038-.027-.055-.062-.055h-.082v.183h.031v-.07h.037l.037.07h.038l-.038-.074a.052.052 0 00.04-.053v-.001zm.093.039a.167.167 0 00-.173-.167.167.167 0 00-.173.167c0 .095.075.166.173.166a.167.167 0 00.173-.166zm-.027 0a.14.14 0 01-.145.14.14.14 0 01-.144-.14.14.14 0 01.145-.14.14.14 0 01.144.14z"/></g><path d="M5.283 20.275v1.189h.788v-.133h-.63v-1.056h-.158zM7.746 21.464l.317-1.189h-.158l-.241.989H7.66l-.263-.989h-.172l-.266.989h-.004l-.233-.989h-.161l.305 1.189h.164l.275-.999h.003l.272.999h.165zM8.377 20.973l.201-.555h.004l.198.555h-.403zm.118-.698l-.463 1.189h.162l.133-.358h.503l.13.358h.175l-.465-1.189h-.175zM9.252 20.275v1.189h.787v-.133h-.63v-1.056h-.157zM10.177 20.275v1.189h.158v-.416l.198-.185.43.6h.2l-.522-.708.501-.48h-.204l-.603.593v-.593h-.158zM11.287 20.275v1.189h.826v-.133h-.668v-.412h.618v-.133h-.618v-.378h.663v-.133h-.82zM12.305 20.275v1.189h.158v-.508h.386c.04 0 .07.006.094.018a.145.145 0 01.056.047.185.185 0 01.032.068.827.827 0 01.026.17l.004.085a.63.63 0 00.006.07.106.106 0 00.024.05h.176a.218.218 0 01-.038-.069.635.635 0 01-.027-.17.638.638 0 00-.02-.171.215.215 0 00-.08-.13.205.205 0 00-.083-.033v-.003a.25.25 0 00.156-.112.356.356 0 00.05-.19.285.285 0 00-.096-.228.388.388 0 00-.265-.083h-.56zm.488.548h-.33v-.415h.393c.074 0 .128.02.161.057.034.038.05.087.05.146a.216.216 0 01-.023.107.177.177 0 01-.06.065.23.23 0 01-.086.032.642.642 0 01-.105.008z" fill="#fff"/><path d="M8.99 10.095H5.425a.421.421 0 00-.421.42v2.51c0 .233.188.422.421.422H8.99a.421.421 0 00.421-.421v-2.51a.421.421 0 00-.42-.421z" fill="#BCBEC0"/><path fill-rule="evenodd" clip-rule="evenodd" d="M5.005 11.167h1.197v.05H5.005v-.05zM5.005 12.327h1.197v.05H5.005v-.05zM9.415 11.217H8.218v-.05h1.197v.05zM9.415 12.377H8.218v-.05h1.197v.05zM7.21 12.988c-.328 0-.63-.086-.898-.234l.024-.044c.262.144.555.228.875.228.32 0 .604-.082.866-.228l.024.044a1.8 1.8 0 01-.89.234zM6.319 10.789c.269-.15.561-.228.89-.228.33 0 .621.08.89.228l-.024.044a1.758 1.758 0 00-.866-.222c-.32 0-.605.076-.866.221l-.024-.043z" fill="#231F20"/><path d="M6.327 10.613c0-.186-.043-.362-.12-.518h.056a1.22 1.22 0 01-.032 1.099 1.218 1.218 0 010 1.162 1.217 1.217 0 01.032 1.099h-.056a1.168 1.168 0 00-.027-1.087l-.006-.012.006-.012a1.167 1.167 0 000-1.138l-.006-.012.006-.012c.094-.169.147-.363.147-.57zM8.043 10.613c0-.185.04-.36.114-.518h.055a1.168 1.168 0 00.028 1.087l.006.012-.006.012a1.167 1.167 0 00-.147.569c0 .207.053.4.147.57l.006.011-.006.012a1.167 1.167 0 00-.028 1.086h-.055a1.22 1.22 0 01.032-1.098 1.218 1.218 0 010-1.163 1.217 1.217 0 01-.146-.58z" fill="#231F20"/></g><path fill-rule="evenodd" clip-rule="evenodd" d="M35 1H3a2 2 0 00-2 2v18a2 2 0 002 2h32a2 2 0 002-2V3a2 2 0 00-2-2zM3 0a3 3 0 00-3 3v18a3 3 0 003 3h32a3 3 0 003-3V3a3 3 0 00-3-3H3z" fill="#000" fill-opacity=".07"/><defs><clipPath id="pi-clip0_11771_33661"><rect x="1" y="1" width="36" height="22" rx="2" fill="#fff"/></clipPath><clipPath id="pi-clip1_11771_33661"><path fill="#fff" transform="translate(26.47 15.716)" d="M0 0h7.483v4.694H0z"/></clipPath><clipPath id="pi-clip2_11771_33661"><path fill="#fff" transform="translate(11.008 10.43)" d="M0 0h1.946v2.38H0z"/></clipPath><clipPath id="pi-clip3_11771_33661"><path fill="#fff" transform="translate(4.87 4.99)" d="M0 0h13.741v2.315H0z"/></clipPath><clipPath id="pi-clip4_11771_33661"><path fill="#fff" transform="translate(29.497 4.362)" d="M0 0h4.539v2.511H0z"/></clipPath></defs></svg>