<svg alt="CitiPlccCard" aria-labelledby="pi-overstockcitiplcc" width="38" height="24" role="img" viewBox="0 0 38 24" fill="none" xmlns="http://www.w3.org/2000/svg"><title id="pi-overstockcitiplcc">Overstock Credit Card</title><g clip-path="url(#pi-clip0_11771_33664)"><rect x="1" y="1" width="36" height="22" rx="2" fill="#252525"/><mask id="pi-mask0_11771_33664" style="mask-type:luminance" maskUnits="userSpaceOnUse" x="1" y="1" width="38" height="24"><path d="M37.37 1H2.525C1.683 1 1 1.66 1 2.475v20.179c0 .815.683 1.475 1.525 1.475H37.37c.842 0 1.525-.66 1.525-1.475V2.475c0-.814-.683-1.475-1.525-1.475z" fill="#fff"/></mask><g mask="url(#pi-mask0_11771_33664)"><path d="M38.895 24.13H1V1H38.895v23.13z" fill="#252525"/><path fill-rule="evenodd" clip-rule="evenodd" d="M21.315.095c5.887 1.647 9.265 7.154 7.82 13.688-1.16 5.292-5.203 9.9-10.192 12.337H.88c-.842 0-1.525-.66-1.525-1.475v-11.1c.32-.695.553-1.197.716-1.549.215-.463.31-.667.327-.71C2.6 5.894 7.747 1.53 13.511.096h7.804zM5.394 13.54c0 6.681 4.129 12.103 9.229 12.103s9.229-5.422 9.229-12.103c0-6.68-4.13-12.102-9.23-12.102-5.1 0-9.228 5.422-9.228 12.102z" fill="#545658"/><mask id="pi-mask1_11771_33664" style="mask-type:luminance" maskUnits="userSpaceOnUse" x="3" y="4" width="18" height="3"><path d="M20.27 4.113H3.996v2.74h16.272v-2.74z" fill="#fff"/></mask><g mask="url(#pi-mask1_11771_33664)" fill="#fff"><path d="M20.27 6.34h-.029v-.188l-.076.188h-.017l-.076-.188v.188h-.028v-.21h.05l.062.154.062-.155h.05v.21h.001zm-.267-.19h-.07v.19h-.028v-.19h-.07v-.02h.168v.02zM8.786 5.54c0 .459-.277.846-.784.846S7.218 6 7.218 5.54c0-.46.277-.847.784-.847s.784.388.784.847zm-1.365 0c0 .34.192.682.581.682.389 0 .581-.34.581-.683 0-.342-.192-.683-.581-.683-.389 0-.581.34-.581.683zm1.329-.801h.225l.521 1.405h.006l.515-1.405h.208l-.62 1.6H9.39l-.639-1.6H8.75zm1.662.853c.003.285.157.629.546.629.295 0 .455-.168.52-.41h.203c-.087.363-.305.574-.723.574-.527 0-.748-.39-.748-.847 0-.422.222-.847.748-.847.525 0 .744.45.729.9h-1.275zm1.073-.164c-.01-.294-.2-.57-.527-.57-.329 0-.515.279-.546.57h1.073zm2.282-.22c-.01-.242-.202-.35-.434-.35-.18 0-.391.067-.391.276 0 .174.205.236.343.27l.27.059c.232.034.473.165.473.443 0 .346-.356.48-.665.48-.386 0-.649-.174-.681-.564h.202c.015.264.218.399.488.399.19 0 .453-.081.453-.303 0-.187-.18-.248-.364-.292l-.26-.055c-.263-.068-.462-.155-.462-.428 0-.326.332-.45.624-.45.331 0 .594.168.606.514h-.202zm.757-.469h.338v.165h-.338v1.08c0 .127.019.2.164.21.057 0 .115-.003.174-.01v.169c-.06 0-.118.006-.18.006-.271 0-.364-.087-.36-.36V4.904h-.196V4.74h.196v-.48h.202v.48zm1.942.8c0 .46-.277.847-.783.847-.507 0-.784-.387-.784-.847 0-.46.277-.847.784-.847.506 0 .783.388.783.847zm-1.365 0c0 .341.193.683.582.683.388 0 .581-.34.581-.683 0-.342-.193-.683-.581-.683-.39 0-.582.34-.582.683zm2.799-.297c-.055-.239-.205-.384-.47-.384-.389 0-.581.34-.581.683 0 .342.192.683.581.683.25 0 .456-.19.482-.457h.202c-.054.385-.314.62-.684.62-.507 0-.783-.387-.783-.846 0-.46.276-.847.783-.847.353 0 .627.183.672.55H17.9v-.002zm.427-1.117h.202v1.39l.92-.775h.268l-.707.594.755 1.007h-.253l-.654-.872-.329.264v.608h-.202V4.125zm-5.693.599v.194a.555.555 0 00-.485.567v.853h-.202v-1.6h.186v.375h.006a.605.605 0 01.495-.39v.001zM3.998 4.113h2.838v2.74H5.377c.503-.173.927-.607 1.04-1.116.144-.66-.292-1.195-.976-1.195-.617 0-1.225.437-1.444 1.008V4.113h.001zm2.028 1.615c0 .568-.364 1.029-.812 1.029-.448 0-.811-.46-.811-1.029s.363-1.027.811-1.027c.448 0 .812.46.812 1.027z"/></g><path d="M4.142 20.799v.975h.668v-.11h-.534V20.8h-.134zM6.23 21.774l.27-.975h-.134l-.205.811h-.003l-.223-.811H5.79l-.226.811h-.003l-.197-.811h-.137l.258.975h.14l.233-.82h.002l.23.82h.14zM6.766 21.37l.17-.454h.004l.168.455h-.342zm.1-.571l-.392.975h.137l.113-.294h.426l.11.294h.148l-.394-.975h-.148zM7.508 20.799v.975h.668v-.11h-.534V20.8h-.134zM8.292 20.799v.975h.134v-.342l.168-.151.365.493h.17l-.443-.582.425-.393h-.173l-.512.486v-.486h-.134zM9.234 20.799v.975h.7v-.11h-.566v-.337h.524v-.11h-.524v-.31h.562V20.8h-.696zM10.097 20.799v.975h.134v-.417h.328c.033 0 .06.005.079.015.02.01.036.022.048.038a.15.15 0 01.027.056.674.674 0 01.022.14l.003.07c.001.02.003.04.006.057.004.017.01.03.02.041h.15a.179.179 0 01-.033-.056.541.541 0 01-.023-.14.518.518 0 00-.017-.14.171.171 0 00-.024-.06.14.14 0 00-.044-.047.177.177 0 00-.07-.027v-.003a.212.212 0 00.133-.091.285.285 0 00.042-.156.23.23 0 00-.082-.187.336.336 0 00-.224-.068h-.475zm.414.449h-.28v-.34h.334c.063 0 .108.015.136.046a.172.172 0 01.043.12.172.172 0 01-.02.088.147.147 0 01-.05.053.199.199 0 01-.074.026.552.552 0 01-.09.007z" fill="#fff"/></g></g><path fill-rule="evenodd" clip-rule="evenodd" d="M35 1H3a2 2 0 00-2 2v18a2 2 0 002 2h32a2 2 0 002-2V3a2 2 0 00-2-2zM3 0a3 3 0 00-3 3v18a3 3 0 003 3h32a3 3 0 003-3V3a3 3 0 00-3-3H3z" fill="#000" fill-opacity=".07"/><defs><clipPath id="pi-clip0_11771_33664"><rect x="1" y="1" width="36" height="22" rx="2" fill="#fff"/></clipPath></defs></svg>