<svg width="38" height="24" viewBox="0 0 38 24" fill="none" xmlns="http://www.w3.org/2000/svg" role="img" aria-labelledby="pi-pads"><title id="pi-pads">Pads</title><g clip-path="url(#pi-pads-clip0)"><path d="M35 .5H3A2.5 2.5 0 00.5 3v18A2.5 2.5 0 003 23.5h32a2.5 2.5 0 002.5-2.5V3A2.5 2.5 0 0035 .5z" stroke="#000" stroke-opacity=".07"/><g clip-path="url(#pi-pads-clip1)"><path d="M1 1h36v22H1V1z" fill="#FB711D"/><path d="M20.445 5.446l2.297.023.64.068.544.115.64.206.355.16.403.207.284.183.308.23.284.252.332.32.307.39.166.252.213.344.26.527.19.504.119.413.166.71.07.458.072 1.032v.297l-.024.596-.071.734-.095.55-.166.641-.213.62-.26.572-.19.32-.213.322-.284.366-.38.39-.165.16-.331.252-.356.23-.379.206-.426.183-.663.206-.616.115-.45.046-.592.023h-2.653l-.047-.046-.024-7.196v-2.52l.024-2.911.024-.527.9-.023zM2.895 5.469h3.268l.45.046.569.114.568.184.592.275.355.229.285.206.236.206.237.23.308.389.19.298.19.32.189.459.142.527.095.573.023.412v.344l-.047.504-.095.459-.142.481-.213.481-.19.344-.19.275-.26.298-.213.23-.166.16-.402.297-.38.23-.378.183-.355.137-.38.115-.402.092-.568.068-.308.023h-.427L5.453 18.6l-.048.046-2.487.023-.047-.023V5.515l.024-.046zM13.055 5.469h3.15l.048.046.26 1.191.38 1.673.33 1.49.545 2.452.237 1.054.26 1.192.403 1.81.166.756.284 1.284.024.206-.024.023-.663.023H16.75l-.237-.023-.07-.184-.427-2.04-.166-.778v-.092h-2.297l-.474.023-.166.665-.45 2.108-.07.252-.048.046-.26.023h-.972l-1.231-.023-.024-.092.095-.32.213-.917.426-1.765.782-3.277.473-1.97.498-2.063.45-1.88.213-.825.047-.068zM31.245 8.173h.687l.45.069.355.091.379.138.355.183.284.206.237.207.166.16.284.39.213.39.166.435.119.481.07.55v.252l-.047.046h-2.345l-.047-.115-.095-.527-.142-.435-.166-.298-.19-.206-.212-.115-.237-.069h-.213l-.213.07-.213.137-.166.183-.095.23-.024.114v.229l.048.183.142.275.095.115.26.206.355.23.427.228.615.321.521.298.38.252.236.184.237.206.19.16.165.16.308.413.19.32.142.368.095.39.047.343v.619l-.095.458-.118.367-.19.366-.19.252-.212.23-.19.183-.403.275-.378.183-.38.138-.52.114-.119.023-.379.023h-.45l-.402-.046-.427-.091-.355-.115-.379-.183-.237-.138-.213-.16-.237-.206-.166-.16-.236-.322-.214-.366-.19-.459-.117-.412-.095-.527v-.527l.023-.023 1.73.023.639.023.024.045.07.436.143.481.165.367.19.252.213.137.237.092.095.023h.308l.26-.092.19-.137.19-.298.047-.184v-.252l-.095-.298-.142-.252-.26-.275-.309-.252-.355-.229-.545-.298-.616-.32-.378-.23-.403-.275-.237-.206-.19-.16-.165-.16-.237-.299-.237-.39-.142-.32-.119-.481-.023-.16v-.643l.07-.366.143-.413.19-.366.165-.23.26-.297.261-.23.38-.252.378-.183.569-.183.592-.092z" fill="#1B1B1A"/><path d="M22.126 7.692h.592l.427.068.355.115.355.183.308.23.213.206.213.275.237.39.166.366.19.596.118.596.071.595.024.276v.985l-.048.573-.118.687-.142.527-.142.39-.213.39-.142.252-.261.298-.237.229-.308.206-.355.16-.426.115-.166.023h-.734v-8.48l.023-.251zM5.476 7.692h.521l.38.068.355.138.284.16.284.252.237.298.237.482.118.48.024.184v.619l-.071.367-.119.343-.19.367-.212.275-.26.252-.261.16-.19.092-.426.138-.545.045h-.166l-.023-.022V7.715l.023-.023zM14.476 8.975l.048.023.118.664.474 2.292.19.871.07.275v.092l-.142.023h-1.42l-.261-.023.023-.16.119-.505.284-1.33.426-1.924.071-.298z" fill="#FB711D"/></g></g><defs><clipPath id="pi-pads-clip0"><path fill="#fff" d="M0 0h38v24H0z"/></clipPath><clipPath id="pi-pads-clip1"><rect x="1" y="1" width="36" height="22" rx="2" fill="#fff"/></clipPath></defs></svg>