<?xml version="1.0"?><svg xmlns="http://www.w3.org/2000/svg" role="img" viewBox="0 0 38 24" width="38" height="24" aria-labelledby="pi-paidy"><title id="pi-paidy">Paidy</title><path opacity=".07" d="M35 0H3C1.3 0 0 1.3 0 3v18c0 1.7 1.4 3 3 3h32c1.7 0 3-1.3 3-3V3c0-1.7-1.4-3-3-3z" fill="#000"/><path d="M35 1c1.1 0 2 .9 2 2v18c0 1.1-.9 2-2 2H3c-1.1 0-2-.9-2-2V3c0-1.1.9-2 2-2h32z" fill="#fff"/><path d="M7.028 11.535c-.04-.052-.455-.561-.455-.561V14.2a.48.48 0 00.482.477.48.48 0 00.482-.477l-.006-2.126a4.555 4.555 0 01-.503-.54z" fill="url(#pi-paidy-paint0_linear_508_418)"/><path d="M11.424 13.436c-.166 0-.322-.036-.463-.1-.01.1.031.42-.478.79-.038.026-2.076 1.31-2.504 1.524a1.763 1.763 0 01-1.53.008c-.141-.059-1.93-1.115-2.001-1.167-.133-.094-.352-.276-.422-.51-.064-.204-.06-.521-.06-.521v-2.684c0-.415.123-1.16.884-1.492.818-.3 1.262.17 1.688.686.032.04.862 1.13 1.227 1.453.472.418.948.631 1.522.631 1.544 0 2.131-1.213 2.131-2.109 0-1.161-.957-2.105-2.132-2.105-.729 0-1.4.368-1.787.967.071.081.254.304.282.337.007.008.314.402.33.425.053-.064.494-.761 1.174-.761.696 0 1.149.538 1.149 1.137 0 .626-.512 1.133-1.13 1.133-.365 0-.601-.13-.892-.388-.29-.258-1.017-1.216-1.017-1.216-.064-.085-.566-.688-.926-.926-.45-.301-1.081-.481-1.923-.201C3.704 8.627 3 9.53 3 10.776l.004 2.684c0 .102-.008.437.076.752.137.52.387.813.905 1.133.247.138 1.67.985 1.889 1.102.418.22.832.331 1.389.332a2.62 2.62 0 001.2-.286c.57-.289 2.422-1.468 2.539-1.54.543-.365.986-.94.94-1.644-.154.08-.33.127-.518.127z" fill="url(#pi-paidy-paint1_linear_508_418)"/><path d="M11.426 12.918c.313 0 .566-.25.566-.56a.564.564 0 00-.566-.562.563.563 0 00-.566.561c0 .31.254.561.566.561z" fill="url(#pi-paidy-paint2_linear_508_418)"/><path d="M15.301 16.439a.53.53 0 01-.53-.528v-3.906c0-.74.512-1.9 2.052-1.9.266 0 1.912 0 1.912 2.146 0 2.076-1.204 2.2-1.7 2.2-.654 0-1.079-.405-1.203-.634v2.094a.53.53 0 01-.53.528zm2.336-4.153c0-.405-.07-.721-.23-.95-.159-.229-.389-.334-.672-.334-.283 0-.514.105-.673.334-.141.194-.212.51-.212.95 0 .405.07.704.23.898.16.228.39.334.673.334a.762.762 0 00.654-.335c.16-.21.23-.51.23-.897zM24.895 14.38c-.319 0-.584-.246-.584-.545v-3.08c0-.299.265-.545.584-.545.319 0 .584.246.584.545v3.08c0 .299-.265.545-.584.545zM24.902 8.298a.616.616 0 000 1.232.616.616 0 00.608-.616.612.612 0 00-.608-.616zM29.853 8.169a.53.53 0 00-.53.528v2.058c-.125-.193-.302-.37-.514-.492a1.427 1.427 0 00-.69-.159c-.496 0-.903.212-1.221.616-.301.405-.46.933-.46 1.584 0 .668.159 1.196.46 1.583.159.194.371.352.637.44.265.088.53.141.814.141a2.68 2.68 0 001.416-.387c.425-.264.655-.774.655-1.513V8.697a.562.562 0 00-.567-.528zm-.743 5.05c-.16.229-.372.334-.673.334-.3 0-.53-.105-.672-.334-.16-.229-.23-.546-.23-.95 0-.37.07-.669.23-.88a.742.742 0 01.655-.334c.283 0 .513.105.672.316.16.229.23.528.23.898 0 .404-.07.739-.212.95zM22.812 14.394c.3 0 .531-.246.531-.528v-1.918c0-.739-.513-1.9-2.053-1.9-.266 0-1.912 0-1.912 2.147 0 2.076 1.204 2.2 1.7 2.2.654 0 1.08-.406 1.203-.634v.105c0 .282.23.528.531.528zm-2.336-2.164c0-.405.07-.722.23-.95.159-.23.39-.335.672-.335.284 0 .514.106.673.335.142.193.212.51.212.95 0 .404-.07.704-.23.897-.16.229-.39.334-.672.334a.762.762 0 01-.655-.334c-.16-.211-.23-.51-.23-.897zM31.712 16.122c0 .158.142.282.283.3.319.034.832.034 1.116-.194.194-.159.354-.388.477-.74l1.38-4.592a.53.53 0 00-.512-.704.516.516 0 00-.514.387l-.743 2.57-.743-2.552a.553.553 0 00-.55-.405.56.56 0 00-.53.74l1.204 3.958c.07.23.053.387-.071.475-.124.106-.284.159-.496.159-.16 0-.3.14-.3.299v.299z" fill="#1C1C1C"/><defs><linearGradient id="pi-paidy-paint0_linear_508_418" x1="3.738" y1="15.723" x2="11.315" y2="8.714" gradientUnits="userSpaceOnUse"><stop stop-color="#A6009C"/><stop offset="1" stop-color="#FF009C"/></linearGradient><linearGradient id="pi-paidy-paint1_linear_508_418" x1="3.776" y1="18.263" x2="8.923" y2="9.294" gradientUnits="userSpaceOnUse"><stop offset=".009" stop-color="#A6009C"/><stop offset="1" stop-color="#FF009C"/></linearGradient><linearGradient id="pi-paidy-paint2_linear_508_418" x1="5.471" y1="17.8" x2="13.337" y2="10.523" gradientUnits="userSpaceOnUse"><stop stop-color="#A6009C"/><stop offset="1" stop-color="#FF009C"/></linearGradient></defs></svg>