<svg xmlns="http://www.w3.org/2000/svg" role="img" viewBox="0 0 38 24" width="38" height="24" aria-labelledby="pi-paid"><title id="pi-paid">Paid</title><defs><linearGradient id="pi-a" x1=".5" x2=".5" y2=".616" gradientUnits="objectBoundingBox"><stop offset="0" stop-color="#00957b" /><stop offset="1" stop-color="#40a990" /></linearGradient><linearGradient id="pi-b" x1="5.671" y1="-.503" x2="5.671" y2=".113" gradientUnits="objectBoundingBox"><stop offset="0" stop-color="#44af35" /><stop offset="1" stop-color="#6eb92c" /></linearGradient></defs><path fill="#000" opacity=".07" d="M35 0H3C1.3 0 0 1.3 0 3v18c0 1.7 1.4 3 3 3h32c1.7 0 3-1.3 3-3V3c0-1.7-1.4-3-3-3z" /><path fill="#fff" d="M35 1c1.1 0 2 .9 2 2v18c0 1.1-.9 2-2 2H3c-1.1 0-2-.9-2-2V3c0-1.1.9-2 2-2h32" /><path fill="url(#pi-a)" d="M74.91 102.9a.486.486 0 00-.388 0l-3.487 1.744c-.061.031-.088.072-.078.112v3.878l.608.3.333.162v-3.835l2.625 1.312a.487.487 0 00.388 0l3.684-1.839z" transform="translate(-66.955 -94.451)" /><path fill="url(#pi-b)" d="M93.366 141.936a.486.486 0 00.388 0l3.487-1.743c.061-.031.087-.072.078-.112V136.2l-.608-.3-.333-.162v3.835l-2.625-1.312a.487.487 0 00-.388 0l-3.684 1.839z" transform="translate(-84.556 -125.35)" /><path fill="#3e3a39" d="M24.002 11.394a2.615 2.615 0 00-1.555-.408h-1.212c0 .048.006.1.006.145a2.187 2.187 0 01-.142.8v.038h1.4a.748.748 0 01.826.825h-1.913a1.434 1.434 0 00-1.142.489 1.579 1.579 0 00-.38 1.078 1.409 1.409 0 00.457 1.06 1.725 1.725 0 001.261.48h2.958v-3.363a1.328 1.328 0 00-.564-1.144zm-.674 3.552h-1.587q-.576 0-.576-.625a.564.564 0 01.152-.4.5.5 0 01.424-.181h1.587zm4.768-1.197a2.056 2.056 0 01.555-1.45 2.244 2.244 0 011.729-.68h1.272V8.982h1.255v6.914h-2.56a2.168 2.168 0 01-1.686-.707 2.084 2.084 0 01-.565-1.44zm1.294 0a1.017 1.017 0 001.131 1.169h1.131v-2.329h-1.174q-1.088 0-1.088 1.16zm-2.241-3.271h-1.231l-.8-1.06h1.221zm-1.231.508h1.231v4.911h-1.231zm-5.608.145a2.055 2.055 0 01-.555 1.45 2.242 2.242 0 01-1.729.68h-1.272v2.637h-1.25V8.984h2.555a2.168 2.168 0 011.685.707 2.085 2.085 0 01.566 1.44zm-1.294 0a1.017 1.017 0 00-1.131-1.169h-1.131v2.329h1.179q1.083 0 1.083-1.16z" /></svg>