<svg xmlns="http://www.w3.org/2000/svg" role="img" viewBox="0 0 38 24" width="38" height="24" aria-labelledby="pi-palawan"><title id="pi-palawan">Palawan</title><g clip-path="url(#pi-palawan-a)"><path fill="#000" d="M35 0H3C1.3 0 0 1.3 0 3v18c0 1.7 1.4 3 3 3h32c1.7 0 3-1.3 3-3V3c0-1.7-1.4-3-3-3Z" opacity=".07"/><path fill="#fff" d="M35 1c1.1 0 2 .9 2 2v18c0 1.1-.9 2-2 2H3c-1.1 0-2-.9-2-2V3c0-1.1.9-2 2-2h32Z"/><path fill="#FAC809" d="M12.076 20h7.035l.624-3.253s.038-.203.232-.052c0 0 2.152.884 4.724-.496 0 0 3.044-1.249 4.217-5.069 0 0 1.286-4.236-1.816-6.26 0 0-1.078-.813-3.177-.87h-8.624l-3.215 16Z"/><path fill="#236A32" d="M13.069 19.14h5.437l.69-3.547s.071-.293.27-.118c0 0 2.543 1.782 5.598-.369 0 0 3.036-1.815 3.29-5.276 0 0 .426-4.085-3.446-4.908 0 0-.468-.071-.908-.1h-7.957L13.069 19.14Z"/><path fill="#FAC809" d="M24.948 10.018a3.148 3.148 0 0 1-5.109 2.46l.001.004h-3.428c-1.241-.031-1.121-1.046-1.121-1.046h-.075c-1.116-.057-1.212-.902-1.212-.902h-2.637c-2.553-.047-2.303-1.596-2.303-1.596h.927c.087-.054-.045-.091-.045-.091C9.083 8.67 9 7.604 9 7.604h10.779a3.148 3.148 0 0 1 5.169 2.414Z"/><path fill="#fff" d="M21.8 12.844a2.83 2.83 0 0 1-2.827-2.826 2.83 2.83 0 0 1 2.826-2.827 2.83 2.83 0 0 1 2.827 2.827 2.83 2.83 0 0 1-2.827 2.826Z"/><path fill="#236A32" d="M21.8 7.956a.102.102 0 0 1-.102-.102V7.4a.102.102 0 1 1 .203 0v.454a.102.102 0 0 1-.102.102Zm0 4.747a.102.102 0 0 1-.102-.102v-.454a.102.102 0 1 1 .203 0v.454a.102.102 0 0 1-.102.102Zm-.865-.849c.05.024.073.084.05.135l-.193.411a.102.102 0 1 1-.184-.086l.192-.41a.102.102 0 0 1 .135-.05Zm2.006-4.302a.102.102 0 0 1 .05.135l-.192.411a.102.102 0 0 1-.184-.086l.191-.411a.102.102 0 0 1 .135-.05Zm.313 1.011a.102.102 0 0 1 .001-.143l.323-.32a.102.102 0 0 1 .143.145l-.323.32a.102.102 0 0 1-.144-.002ZM19.877 11.9a.102.102 0 0 1 0-.144l.324-.32a.101.101 0 1 1 .143.146l-.323.318a.102.102 0 0 1-.144 0Zm.029-1.126a.102.102 0 0 1-.055.133l-.42.171a.101.101 0 1 1-.077-.188l.42-.172a.102.102 0 0 1 .132.056ZM24.3 8.979a.101.101 0 0 1-.055.132l-.42.172a.102.102 0 1 1-.077-.188l.42-.172a.102.102 0 0 1 .133.056Zm-.456 1.014c0-.056.045-.102.101-.102l.454-.002a.102.102 0 0 1 .001.203l-.454.002a.102.102 0 0 1-.102-.101Zm-4.747.017c0-.055.045-.101.101-.101l.454-.002a.102.102 0 0 1 .001.203l-.454.002a.102.102 0 0 1-.102-.101Zm.849-.874a.102.102 0 0 1-.135.05l-.412-.192a.102.102 0 1 1 .086-.185l.412.192c.05.024.073.084.049.135Zm4.302 2.006a.102.102 0 0 1-.135.05L23.702 11a.102.102 0 1 1 .086-.184l.411.191a.103.103 0 0 1 .05.135Zm-.603.833a.101.101 0 0 1-.143-.01l-.297-.343a.102.102 0 1 1 .154-.133l.297.343a.102.102 0 0 1-.01.143Zm-3.253-3.432a.102.102 0 0 1-.143-.01l-.297-.344a.102.102 0 0 1 .154-.133l.297.343a.102.102 0 0 1-.01.144Zm2.213 3.337a.102.102 0 0 1 .133.054l.179.417a.102.102 0 1 1-.187.08l-.179-.417a.102.102 0 0 1 .054-.134Zm-1.87-4.363a.102.102 0 0 1 .134.053l.178.417a.102.102 0 0 1-.187.08l-.178-.417a.102.102 0 0 1 .053-.133Z"/><path fill="#fff" d="M19.428 7.9H9.27s.274.946 1.749 1.02l7.878.013s.056-.5.531-1.032Zm-.733 1.362H9.37s.1.95 2.142 1.015h7.184s-.035-.589 0-1.015Zm0 1.277h-4.524s.234.638 1.163.745h3.639s-.2-.234-.278-.745Zm.348 1.036h-3.525s0 .621.71.65h3.374s-.417-.36-.56-.65Z"/></g><defs><clipPath id="pi-palawan-a"><path fill="#fff" d="M0 0h38v24H0z"/></clipPath></defs></svg>
