<svg role="img" width="38" height="24" viewBox="0 0 38 24" aria-labelledby="pi-palawa" xmlns="http://www.w3.org/2000/svg"><title id="pi-palawa">Palawa</title><path fill="#000" opacity=".07" d="M35 0H3C1.3 0 0 1.3 0 3v18c0 1.7 1.4 3 3 3h32c1.7 0 3-1.3 3-3V3c0-1.7-1.4-3-3-3z"/><path fill="#fff" d="M35 1c1.1 0 2 .9 2 2v18c0 1.1-.9 2-2 2H3c-1.1 0-2-.9-2-2V3c0-1.1.9-2 2-2h32"/><path fill-rule="evenodd" clip-rule="evenodd" d="M2.063 6.484v.457h33.92v-.914H2.063v.457Zm14.465 1.903c-.292.437-1.375 2.227-1.36 2.25.03.048.706.035.777-.015a.996.996 0 0 0 .17-.22l.109-.177.497-.01c.555-.01.538-.016.587.232.038.197.081.219.434.218.172 0 .33-.012.354-.025.042-.027-.506-2.197-.578-2.286-.067-.083-.931-.054-.99.033Zm2.24-.042c-.035.056-.459 2.262-.44 2.292.032.05 2.523.031 2.575-.019.024-.023.096-.125.16-.226l.116-.184h.5c.447 0 .502.006.518.057.009.032.035.124.056.205.022.08.057.157.079.17.058.037.694.03.718-.006.027-.043-.561-2.265-.608-2.295-.02-.014-.228-.024-.462-.024s-.442.01-.462.024c-.029.018-1.04 1.623-1.359 2.155-.12.201-.134.128-.048-.261l.026-.123h-.456c-.334 0-.46-.01-.472-.04-.009-.023.06-.416.152-.873s.16-.843.15-.857c-.024-.038-.718-.032-.742.005Zm4.525-.005c-.014.02.193.968.46 2.113l.047.196.339.01c.186.005.372.002.413-.008.073-.018.247-.395.507-1.095.113-.307.122-.293.243.414.064.368.13.654.153.669.056.034.676.033.731 0 .05-.031 1.198-2.216 1.198-2.281 0-.05-.661-.065-.74-.017-.044.027-.383.722-.597 1.222-.122.286-.144.303-.172.13-.131-.803-.223-1.318-.24-1.346-.013-.019-.16-.033-.343-.033-.388 0-.327-.072-.68.8-.144.36-.275.666-.29.683-.033.035-.036.019-.15-.683-.05-.306-.106-.61-.123-.678l-.032-.122h-.354c-.194 0-.361.011-.37.026Zm5.035.03c-.099.106-1.415 2.243-1.398 2.27.009.014.182.026.386.026.417 0 .409.004.585-.28l.11-.178h.5c.447 0 .502.006.517.057.01.032.035.124.057.205.022.08.057.157.078.17.059.037.695.03.719-.006.01-.018-.082-.418-.206-.89l-.299-1.136-.073-.278-.46-.01c-.407-.007-.469-.001-.516.05Zm2.225-.017c-.04.047-.484 2.25-.46 2.288.021.036.716.03.74-.007.02-.03.154-.726.226-1.169.047-.296.052-.295.225.033.29.55.58 1.072.621 1.12.032.037.129.048.43.048.46 0 .414.05.536-.588l.204-1.058c.067-.34.12-.637.12-.662 0-.06-.688-.065-.738-.004a.84.84 0 0 0-.07.237c-.108.576-.179.96-.197 1.062-.02.108-.04.077-.4-.604l-.378-.72L31 8.322c-.302-.007-.42.002-.447.032Zm-22.57.14c-.031.05-.27 1.239-.255 1.266.008.014.503.025 1.1.025h1.084l.162-.1c1.023-.625 2.383.093 2.388 1.26.005 1.09-1.195 1.816-2.218 1.343l-.257-.119h-.88c-1.139 0-1.335-.053-1.456-.399-.03-.085-.313-.242-.32-.178l-.389 1.851c-.212 1.015-.38 1.857-.37 1.87.008.014.611.025 1.34.025h1.324l.03-.073c.018-.04.104-.426.192-.858.188-.914.162-.866.4-.758 1.036.472 2.274.223 3.211-.644 1.69-1.564 1.437-4.01-.464-4.477-.254-.063-4.582-.095-4.621-.034Zm9.064.833c.04.171.073.322.073.335 0 .028-.523.034-.551.007-.01-.01.068-.17.173-.356.22-.392.21-.392.305.014Zm4.927-.04c.102.43.117.4-.192.4-.331 0-.33.002-.189-.222.064-.102.15-.255.19-.341.098-.21.104-.204.191.162Zm6.841.025c.101.405.119.375-.213.375-.315 0-.31.018-.097-.347.093-.16.17-.309.17-.331.002-.134.066.005.14.303Zm-17.923.366a.5.5 0 0 0 .01.156l.022.13.005-.155c.005-.144-.008-.19-.037-.13Zm-.502.12c0 .075.074.215.105.197.031-.018-.028-.201-.074-.229-.017-.01-.031.004-.031.032Zm1.01.044a1.3 1.3 0 0 1-.041.114c-.014.032-.01.057.01.057.027 0 .109-.163.109-.217 0-.039-.063-.001-.078.046Zm-1.418.198c0 .045.168.182.193.159.012-.013-.013-.06-.057-.104-.08-.082-.136-.105-.136-.055Zm1.722.09c-.108.143-.034.134.093-.01.049-.056.053-.074.017-.073-.026 0-.076.038-.11.084Zm-1.994.3c0 .033.148.106.213.106.06 0-.045-.087-.136-.113-.042-.012-.077-.009-.077.008Zm2.26.064c-.056.029-.085.058-.064.065.054.017.217-.048.217-.088 0-.045-.032-.04-.153.023Zm-2.319.457a.634.634 0 0 0 .17 0c.042-.008 0-.014-.094-.014-.093 0-.127.007-.076.014Zm2.362 0a.49.49 0 0 0 .153 0c.042-.008.008-.014-.077-.014-.084 0-.118.006-.076.014Zm-2.21.393c-.05.025-.093.058-.093.074 0 .034.195-.025.222-.066.032-.05-.034-.054-.128-.008Zm2.048.027c0 .029.218.108.25.09.015-.01-.014-.038-.064-.063-.093-.046-.186-.06-.186-.027Zm17.62.028c-.435.101-.727.392-.727.722 0 .25.162.41.628.62.367.165.453.242.398.358-.092.193-.522.175-.854-.036l-.184-.117-.148.159c-.266.285-.274.303-.178.377.542.42 1.567.412 1.993-.016.372-.373.26-.86-.248-1.07-.573-.235-.651-.303-.51-.44.119-.113.294-.107.56.021.117.056.216.096.221.09.348-.426.352-.451.093-.563-.348-.15-.7-.185-1.045-.105Zm2.4.005c-.394.1-.653.361-.673.677-.02.305.05.384.55.627.482.234.55.306.416.435-.168.162-.553.11-.869-.118l-.117-.084-.197.21c-.227.242-.23.273-.045.396.722.482 1.941.239 2.094-.418.085-.367-.05-.544-.614-.81-.423-.198-.469-.249-.327-.368.126-.105.35-.09.591.04l.159.085.077-.092c.28-.335.285-.365.075-.469a1.78 1.78 0 0 0-1.12-.11Zm-16.263.055c-.019.053-.46 2.211-.46 2.25 0 .016.381.029.866.029h.866l.018-.074c.114-.482.143-.45-.394-.45h-.442l.023-.154c.036-.236.039-.237.507-.237h.416l.039-.185c.068-.324.095-.302-.378-.312l-.416-.01.012-.112c.028-.268.017-.263.53-.263.449 0 .46-.002.475-.074.035-.156.088-.42.088-.434 0-.04-1.737-.013-1.75.026Zm2.09-.028c0 .007.177.246.393.531l.394.518-.649.605c-.356.333-.648.616-.648.63 0 .012.215.023.478.023h.478l.311-.314c.172-.173.332-.342.357-.376.069-.095.078-.087.362.314l.266.376h.454c.25 0 .454-.011.454-.025 0-.013-.199-.281-.442-.595a13.193 13.193 0 0 1-.441-.587c0-.01.256-.264.569-.565l.569-.548h-.996l-.282.294a2.891 2.891 0 0 1-.305.294c-.013 0-.113-.132-.222-.294l-.198-.294h-.451a3.92 3.92 0 0 0-.452.013Zm3.398.008c0 .016-.105.528-.234 1.139-.128.61-.226 1.122-.218 1.135.02.035.75.03.773-.005.01-.017.05-.175.088-.351.038-.177.076-.346.086-.375.015-.046.09-.056.5-.068.647-.018.882-.123 1.048-.467.183-.379.025-.753-.394-.937-.178-.077-1.648-.14-1.65-.07Zm2.504 1.095c-.126.617-.228 1.14-.228 1.163.001.03.102.04.39.04h.389l.052-.236.09-.425c.045-.23.046-.23.287.147.107.166.232.35.277.408l.083.107h.887l-.063-.092c-.034-.05-.185-.243-.334-.428-.312-.387-.317-.4-.144-.434.755-.15.907-.93.244-1.252l-.202-.098-.75-.011-.75-.012-.228 1.123Zm3.035-1.108c0 .005-.106.516-.235 1.135-.13.62-.223 1.139-.21 1.153.015.013.406.02.87.016l.846-.009.043-.196c.073-.337.11-.31-.414-.31h-.46l.023-.123c.054-.282.03-.27.503-.27h.422l.051-.22c.066-.283.086-.27-.39-.27h-.41l.023-.17c.03-.22.029-.22.536-.22l.432-.001.033-.123a3.33 3.33 0 0 0 .055-.261l.023-.139h-.87c-.478 0-.87.004-.87.008Zm-16.586.303c-.106.11-.054.149.057.043.048-.047.072-.093.055-.104-.018-.01-.069.017-.112.061Zm1.599-.023c0 .015.038.062.085.104.098.09.115.043.021-.06-.066-.073-.106-.09-.106-.044Zm-1.26.256a.958.958 0 0 1-.052.114c-.01.016-.003.028.015.028.028 0 .14-.175.14-.217 0-.05-.076.006-.103.075Zm.935.003c.026.1.12.214.12.144 0-.05-.096-.234-.123-.234-.01 0-.01.04.003.09Zm13.748-.01c.152.133.109.37-.083.457-.148.068-.51.105-.541.056-.026-.04.033-.398.086-.523.04-.096.424-.088.538.01Zm-2.801 0c.385.155.152.47-.35.474-.25.002-.24.036-.126-.447.021-.09.282-.105.476-.027Zm-11.376.119c-.008.073-.002.14.013.149.015.008.027-.051.027-.133 0-.185-.023-.194-.04-.016Zm-8.831 5.453v.457h33.92v-.914H2.063v.457Z" fill="#086C2C"/><path fill-rule="evenodd" clip-rule="evenodd" d="M7.698 8.09c-.029.016-.23.93-.316 1.432-.048.284.083.26-1.454.27L4.561 9.8l-.01.118c-.013.145.097.283.328.414l.158.089-.226.01c-.26.01-.288.04-.232.236.107.384.706.553 1.962.554h.45v.078c0 .043-.199 1.039-.442 2.213-.243 1.174-.435 2.153-.426 2.176.023.057 3.4.061 3.438.004.013-.021.094-.377.18-.793.124-.596.167-.752.207-.747.028.004.135.03.238.06.435.123 1.073.094 1.598-.073 3.074-.98 3.861-5.022 1.155-5.93l-.323-.108-2.442-.016c-1.343-.009-2.457-.007-2.476.004Zm8.663.183c-.285.434-1.552 2.493-1.552 2.522 0 .023.213.034.638.034h.638l.135-.213c.154-.244.17-.25.557-.237.319.01.29-.015.376.312l.038.139 1.925-.009 1.925-.008.11-.18c.17-.275.15-.265.517-.254l.33.01.044.146c.098.323.032.294.683.294.648 0 .63.007.566-.232l-.342-1.286a39.363 39.363 0 0 0-.31-1.135c-.01-.014-.299-.026-.642-.026h-.625l-.55.882-.55.882h-.404c-.376 0-.403-.004-.403-.063 0-.063.109-.649.237-1.27a5.02 5.02 0 0 0 .069-.384c0-.078-1.178-.068-1.203.01-.01.032-.072.337-.138.678-.193 1-.2 1.031-.232 1.02-.018-.005-.127-.369-.244-.808-.116-.44-.223-.833-.236-.873-.025-.073-.032-.074-.651-.074h-.626l-.08.123Zm6.673-.057c0 .037.052.29.116.564.063.273.187.813.273 1.2.217.963.113.852.79.842l.568-.01.112-.277c.21-.522.195-.517.267-.11.029.16.06.316.07.347.022.073 1.066.088 1.127.016.039-.045 1.367-2.59 1.367-2.62 0-.01-.281-.018-.625-.018h-.625l-.082.172c-.046.094-.142.3-.215.457-.183.396-.173.405-.278-.237l-.062-.375-.517-.01-.517-.008-.064.123a7.06 7.06 0 0 0-.191.445c-.15.375-.162.372-.237-.06l-.075-.417-.018-.09h-.592c-.572 0-.592.003-.592.066Zm4.353 1.247c-.448.722-.807 1.325-.798 1.34.01.014.3.026.646.026h.628l.058-.101c.032-.056.1-.16.152-.23l.095-.129.33.01.33.01.045.146c.025.081.06.18.076.22l.031.074h.995c1.084 0 1.064.002 1.088-.163.055-.383.143-.785.169-.776.017.005.139.207.27.45.133.242.259.45.28.464.05.032 1.134.032 1.153 0 .009-.013.087-.391.175-.84.087-.45.202-1.03.256-1.291.053-.26.085-.485.071-.499-.014-.014-.284-.021-.6-.016l-.576.009-.09.435c-.11.534-.098.524-.262.213a44.045 44.045 0 0 0-.247-.46l-.112-.205h-.605c-.332 0-.604.006-.604.014 0 .007-.069.362-.153.789-.084.426-.153.807-.153.848 0 .04-.02.088-.043.107-.034.028-.09-.142-.261-.804-.12-.462-.23-.865-.247-.896-.026-.052-.093-.058-.655-.058h-.626l-.816 1.313Zm-9.869-1.108c.072.088.62 2.258.578 2.285a1.62 1.62 0 0 1-.354.025c-.352 0-.396-.02-.434-.217-.049-.249-.032-.242-.587-.232l-.497.009-.108.176a1.01 1.01 0 0 1-.17.221c-.072.05-.747.063-.779.014-.014-.022 1.069-1.812 1.361-2.249.059-.087.923-.116.99-.032Zm1.994-.015c.009.014-.059.4-.151.857-.092.458-.16.85-.152.873.012.03.138.04.472.04h.456l-.026.123c-.085.39-.072.462.049.261.318-.532 1.33-2.137 1.358-2.155.02-.014.228-.024.462-.024s.442.01.462.024c.047.03.636 2.252.608 2.295-.024.037-.66.043-.718.007-.021-.013-.057-.09-.079-.171a9.613 9.613 0 0 0-.056-.204c-.016-.052-.07-.057-.518-.057h-.5l-.116.183a1.904 1.904 0 0 1-.16.226c-.052.05-2.542.068-2.574.02-.02-.031.404-2.237.44-2.292.024-.038.719-.044.743-.006Zm4.537.096c.017.068.072.373.122.678.115.702.119.718.151.683.015-.016.146-.324.29-.683.353-.872.293-.8.68-.8.184 0 .33.014.342.033.018.028.11.543.24 1.347.029.172.051.155.174-.131.213-.5.552-1.195.595-1.221.08-.049.741-.035.741.016 0 .065-1.147 2.25-1.197 2.28-.056.034-.676.035-.731.001-.024-.015-.09-.3-.153-.669-.122-.707-.13-.72-.244-.414-.26.7-.434 1.078-.507 1.095a2.95 2.95 0 0 1-.413.008l-.34-.01-.045-.195c-.268-1.146-.475-2.093-.461-2.114.01-.015.176-.026.37-.026h.354l.032.122Zm5.328.172.3 1.136c.123.472.216.872.205.89-.024.037-.66.043-.719.007-.02-.013-.056-.09-.078-.171a7.62 7.62 0 0 0-.057-.204c-.015-.052-.07-.057-.517-.057h-.5l-.11.178c-.176.283-.168.279-.585.279-.203 0-.377-.012-.386-.026-.017-.027 1.3-2.164 1.398-2.27.048-.051.109-.057.515-.05l.462.01.072.278Zm2.414.44c.359.682.38.713.4.605.017-.102.088-.486.195-1.062a.84.84 0 0 1 .07-.236c.051-.062.74-.058.74.003 0 .025-.054.323-.12.662-.066.34-.159.815-.205 1.058-.122.638-.076.588-.537.588-.3 0-.397-.011-.429-.049-.04-.046-.33-.57-.62-1.12-.174-.327-.178-.328-.226-.032-.072.443-.206 1.138-.226 1.17-.023.036-.719.043-.74.006-.024-.038.42-2.24.46-2.287.026-.031.145-.04.447-.033l.412.009.379.719Zm-19.186-.521c1.9.468 2.155 2.913.465 4.477-.937.867-2.176 1.116-3.212.645-.237-.109-.212-.156-.4.757-.088.432-.174.817-.191.858l-.031.073H7.912c-.729 0-1.332-.01-1.34-.024-.01-.014.158-.856.37-1.87.214-1.016.388-1.849.388-1.852.008-.064.292.093.321.178.122.346.317.4 1.456.4h.88l.257.118c1.023.473 2.223-.253 2.219-1.342-.005-1.168-1.366-1.886-2.388-1.26l-.163.099H8.828c-.597 0-1.091-.011-1.1-.025-.016-.027.224-1.216.256-1.266.039-.06 4.367-.029 4.621.034Zm4.137.785c-.105.186-.183.347-.173.356.029.027.55.02.551-.007 0-.055-.147-.647-.166-.667-.012-.012-.107.131-.212.318Zm5.04-.189c-.04.086-.125.24-.189.341-.14.224-.142.222.189.222.309 0 .294.031.192-.4-.087-.367-.093-.372-.191-.163Zm6.893-.115c0 .022-.077.171-.17.33-.213.366-.218.348.097.348.332 0 .314.03.214-.375-.074-.298-.139-.437-.14-.303Zm-17.5.58c1.128.204 1.558 1.542.747 2.321a1.446 1.446 0 0 1-2.31-.394c-.494-.993.43-2.132 1.564-1.927ZM9.71 9.95c0 .02-.028.075-.063.123a2.129 2.129 0 0 0-.137.225l-.073.14-1.64-.002c-2.358-.002-2.704-.036-2.987-.295-.265-.242-.428-.227 2.385-.227 1.8 0 2.515.01 2.515.036Zm-.34.728c0 .06-.01.179-.021.263l-.022.154-1.89-.014c-2.236-.016-2.46-.045-2.698-.355-.125-.161-.169-.158 2.305-.158h2.327v.11Zm.039.684c.076.205.139.193-.98.18l-.945-.01-.157-.09c-.156-.087-.218-.165-.18-.224.01-.018.47-.027 1.111-.022l1.092.009.059.157Zm19.963-.126c-.093.026-.18.048-.191.049-.091.006-.452.291-.53.418-.114.189-.131.142-.063-.174.03-.137.054-.255.054-.262 0-.007-.497-.013-1.105-.013-.607 0-1.104.009-1.104.02 0 .01-.03.16-.066.334l-.224 1.083c-.087.422-.17.78-.184.793-.02.022-.478-.5-.478-.547 0-.009.056-.039.125-.067.678-.272.775-1.096.169-1.435-.28-.156-.494-.183-1.353-.174l-.789.01-.06.26a2.68 2.68 0 0 0-.061.354c-.003.126-.077.097-.12-.046-.049-.165-.31-.399-.547-.49-.202-.079-.206-.079-1.777-.088l-1.575-.01-.204.214c-.248.26-.226.26-.402.001l-.144-.212h-3.318l-.052.237a97.256 97.256 0 0 0-.29 1.396l-.12.588c-.048.225-.086.412-.086.417 0 .004.762.008 1.694.008h1.695l.297-.296c.163-.163.306-.287.318-.276.011.01.107.14.213.288l.193.268h2.335l.039-.18.08-.379.042-.2.362-.02c.564-.031.88-.148 1.08-.4.133-.168.133-.128-.003.543-.066.327-.12.608-.12.624 0 .015.28.028.625.028h.625l.041-.212c.023-.117.055-.213.072-.213.016 0 .092.096.169.213l.14.212h1.66c1.846 0 1.664.023 1.715-.22.027-.127.027-.127.164-.029.588.424 1.602.422 2.193-.004l.113-.082.1.072c.75.532 2.102.392 2.45-.255a.745.745 0 0 0-.134-.925l-.119-.12.277-.37.277-.37-.091-.07c-.68-.526-1.932-.418-2.308.199-.278.456-.09.837.555 1.131.317.145.415.243.202.205-.151-.028-.283-.094-.491-.247-.19-.139-.212-.138-.344.014-.1.114-.135.114-.163.001a.755.755 0 0 0-.238-.385l-.112-.099.274-.367c.307-.409.306-.397.041-.546-.38-.215-1.036-.305-1.423-.197Zm.765.148c.24.044.578.193.578.255 0 .039-.127.224-.292.427a1.008 1.008 0 0 1-.221-.09c-.267-.128-.442-.134-.56-.02-.142.136-.064.204.509.44.507.209.62.696.248 1.07-.426.427-1.451.435-1.993.015-.096-.074-.088-.092.178-.377l.148-.16.184.118c.333.211.763.23.854.036.055-.116-.031-.193-.398-.358-.466-.21-.628-.37-.628-.62 0-.514.67-.867 1.393-.736Zm2.508.017c.221.05.462.153.501.214.021.033-.064.17-.23.368l-.077.092-.158-.085c-.241-.13-.466-.145-.591-.04-.143.12-.097.17.326.369.565.265.7.442.614.81-.153.656-1.371.9-2.094.418-.186-.124-.182-.155.045-.396l.198-.21.116.083c.316.228.701.28.87.119.134-.13.065-.201-.416-.435-.502-.244-.57-.323-.551-.628.034-.528.71-.846 1.447-.679Zm-15.287.03c0 .015-.053.279-.088.435-.015.072-.026.074-.475.074-.513 0-.502-.005-.53.263l-.012.113.416.009c.473.01.446-.012.378.312l-.038.185h-.416c-.47 0-.472.001-.508.237l-.023.155h.442c.537 0 .508-.033.394.45l-.017.073h-.866c-.486 0-.867-.013-.867-.03 0-.038.441-2.196.46-2.249.014-.04 1.75-.065 1.75-.026Zm1.44.28c.11.162.21.294.222.294.013 0 .15-.132.305-.294l.282-.294h.996l-.57.548c-.312.3-.568.555-.568.565 0 .01.199.274.442.587.242.314.441.582.441.595 0 .014-.204.025-.454.025h-.454l-.266-.376c-.284-.401-.293-.409-.362-.314a7.588 7.588 0 0 1-.356.376l-.311.314h-.479c-.263 0-.478-.01-.478-.024 0-.013.292-.296.648-.629l.649-.605-.394-.518a14.397 14.397 0 0 1-.393-.53c0-.008.203-.014.45-.014h.452l.198.294Zm3.947-.201c.42.183.577.558.394.936-.166.344-.401.449-1.047.467-.41.012-.486.022-.501.068a8.11 8.11 0 0 0-.086.375 3.099 3.099 0 0 1-.088.35c-.023.037-.752.041-.773.006-.008-.013.09-.524.219-1.135.128-.611.233-1.123.233-1.139.001-.07 1.471-.006 1.649.072Zm2.785.021c.663.321.51 1.101-.244 1.252-.172.034-.168.047.144.434.15.185.3.378.335.428l.062.092h-.887l-.082-.107a7.994 7.994 0 0 1-.278-.408c-.241-.376-.242-.376-.288-.147-.02.103-.06.295-.09.425l-.051.237h-.389c-.288 0-.389-.011-.39-.041 0-.023.102-.546.228-1.163l.228-1.123.75.012.75.011.202.098Zm2.823.025a3.284 3.284 0 0 1-.055.261l-.033.123h-.432c-.507 0-.505 0-.536.221l-.024.17h.41c.477 0 .457-.013.391.27l-.051.22H27.6c-.473 0-.449-.012-.502.27l-.024.123h.46c.524 0 .488-.027.414.31l-.043.196-.845.01c-.465.004-.856-.004-.87-.017-.014-.014.08-.532.209-1.152.13-.62.235-1.131.236-1.136 0-.004.392-.008.87-.008h.87l-.023.139Zm-7.508.033c-.012.04-.098.448-.192.906s-.182.86-.196.894c-.024.055-.72-.766-.72-.848 0-.031 1.065-1.024 1.1-1.025.016 0 .02.032.008.073Zm-2.961.449c.356.463.372.377-.155.873-.563.527-.577.536-.508.305.02-.067.021-.125.002-.147-.04-.046.133-.908.19-.941.022-.014.06-.128.083-.254.053-.284.038-.29.388.164Zm-8.229-.215c.19.221.21.215-.667.215-.864 0-.985-.018-1.128-.161-.189-.19-.154-.199.809-.199h.863l.123.145Zm14.878.12c-.053.126-.111.484-.086.524.032.05.393.012.54-.056.193-.087.236-.324.085-.456-.114-.1-.499-.107-.539-.011Zm-2.739.038c-.114.483-.124.45.127.447.392-.003.6-.146.505-.347-.081-.17-.596-.252-.632-.1Zm6.946.616c.076.065.284.181.462.26.327.142.398.22.184.2-.13-.013-.352-.127-.52-.27-.153-.128-.159-.127-.37.112-.27.307-.315.26-.208-.225a4.23 4.23 0 0 0 .08-.436c.003-.197.117-.171.177.04a.543.543 0 0 0 .195.319Z" fill="#F2CA0E"/><path fill-rule="evenodd" clip-rule="evenodd" d="M15.653 14.502c-.497.054-.584.138-.363.35.084.08.07.558-.025.926l-.023.085.2-.01c.145-.007.2-.022.206-.058l.028-.298.021-.248.33-.02c.595-.035.99-.212.99-.444 0-.258-.552-.372-1.364-.283Zm3.49-.013c-.473.046-.465.043-.453.204.008.114.023.14.087.148.094.013.097.09.025.645-.027.214-.05.401-.05.415 0 .03.156.032.3.004l.107-.02v-.294c0-.345-.036-.341.442-.043.401.25.365.243.503.106.14-.139.151-.12-.163-.268-.336-.157-.338-.187-.018-.236.408-.063.596-.182.596-.38 0-.24-.579-.358-1.377-.28Zm2.244.232c-.074.147-.246.451-.383.676a9.615 9.615 0 0 0-.248.42.97.97 0 0 0 .23.004l.229-.01.07-.13c.113-.21.565-.246.61-.05.032.139.064.145.228.044l.154-.094a3.253 3.253 0 0 0-.134-.311 4.898 4.898 0 0 1-.213-.553l-.071-.245-.169-.01-.169-.01-.134.269Zm2.377-.217a18.55 18.55 0 0 1-.416.047c-.073.004-.052.223.024.263.115.059.122.574.013.974-.02.073-.014.075.18.066l.2-.01.016-.294.017-.294.338-.024c.766-.052 1.203-.333.91-.584-.197-.17-.649-.22-1.282-.144Zm1.722.27c-.09.175-.259.475-.374.667-.253.42-.252.386-.007.386.2 0 .307-.049.308-.14.003-.186.61-.245.612-.06.002.136.055.148.217.05.187-.114.185-.07.025-.424a3.587 3.587 0 0 1-.242-.659l-.037-.139h-.337l-.165.319Zm3.745-.278a5.176 5.176 0 0 0-.134.253c-.059.117-.216.394-.35.616-.288.482-.286.462-.063.462.212 0 .26-.025.33-.169.05-.104.063-.11.29-.129.283-.024.28-.025.309.12.026.135.044.137.216.033.176-.107.18-.12.107-.267a3.36 3.36 0 0 1-.29-.723l-.06-.237h-.164c-.095 0-.176.018-.19.041Zm2.866.309c-.101.194-.27.492-.375.661-.234.378-.235.361.01.361.2 0 .308-.049.309-.14.001-.097.072-.134.294-.157.255-.025.317-.002.317.12 0 .041.016.085.035.096.056.033.344-.156.325-.213a14.935 14.935 0 0 0-.172-.415 3.53 3.53 0 0 1-.182-.506l-.024-.14-.176-.01-.177-.01-.184.353Zm-1.654-.273-.187.037-.006.329c-.004.18-.023.45-.043.601-.044.338-.1.311.514.245.6-.064.536-.041.573-.2.037-.155.052-.149-.224-.093-.13.027-.303.049-.385.049h-.15l.019-.253a2.3 2.3 0 0 1 .18-.702c.026-.067-.013-.07-.29-.013Zm-12.137.035a3.3 3.3 0 0 1-.37.067l-.51.076-.152.023.01.261c.005.144-.014.386-.042.538-.062.334-.098.305.305.248.186-.026.437-.056.558-.067.376-.034.374-.033.374-.18 0-.15-.01-.154-.323-.084-.409.092-.475.085-.475-.046v-.115l.3-.049c.245-.04.314-.064.37-.13.092-.11.05-.115-.342-.038-.346.069-.36.063-.34-.115.013-.105.125-.134.53-.139.221-.002.28-.049.28-.217 0-.042-.136-.068-.173-.033Zm8.353.498c-.036.716-.032.795.037.795.103 0 .866-.192 1.062-.266.503-.191.643-.455.331-.628-.208-.116-1.122-.348-1.37-.348-.025 0-.046.158-.06.447ZM16.5 14.82c.022.11-.72.237-.785.135-.038-.058.017-.17.09-.184.203-.04.684-.005.695.05Zm3.5-.014c.03.089-.724.215-.78.13-.05-.072-.012-.137.091-.159.176-.037.673-.016.688.03Zm4.576-.037c.206.076-.024.184-.433.202l-.334.016.011-.093c.008-.067.035-.1.096-.116.108-.029.59-.035.66-.009Zm2.942.179c.582.129.447.45-.233.55-.277.042-.276.044-.276-.242 0-.368.064-.407.509-.308Zm-5.811.176c.048.14.025.18-.104.18-.115 0-.127-.05-.048-.197.068-.126.104-.122.152.017Zm4.129.004c.063.146.046.177-.103.177-.133 0-.14-.018-.06-.179.072-.145.099-.145.163.002Zm3.583-.014c.06.165.05.19-.082.19-.134 0-.139-.01-.067-.175.063-.146.1-.15.15-.015Zm3.045.014c.063.146.045.177-.104.177-.133 0-.139-.018-.06-.179.073-.145.1-.145.164.002Z" fill="#E20C14"/><path fill-rule="evenodd" clip-rule="evenodd" d="M2.01 6.037c-.01.023-.013.24-.007.482l.009.439H36L19.032 6.95 2.063 6.942v-.915l16.969-.008L36 6.01l-16.987-.008c-13.915-.006-16.99 0-17.003.035Zm6.91 2.04c.64.005 1.688.005 2.328 0 .64-.005.117-.01-1.164-.01-1.28 0-1.804.005-1.164.01Zm4.954.661c.073.072.14.131.15.131a.575.575 0 0 0-.116-.13.938.938 0 0 0-.15-.131c-.01 0 .043.059.116.13Zm-3.027.925c-.037.093 0 .3.053.3.038 0 .05-.04.05-.16 0-.158-.062-.243-.103-.14Zm.082.145-.005.155-.022-.13c-.021-.125-.016-.18.017-.18.008 0 .013.07.01.155Zm-.582-.048c-.028.07.087.285.153.285.075 0 .076-.063.003-.211-.058-.117-.126-.15-.156-.074Zm19.659.025a.252.252 0 0 1-.03.115c-.014.017-.005.015.02-.006.025-.02.038-.072.03-.114-.015-.077-.016-.077-.02.005Zm-19.52.096c.02.054.024.105.009.113-.03.018-.105-.122-.105-.197 0-.075.057-.026.097.084Zm.855.002c-.07.134-.066.195.016.195.048 0 .192-.261.166-.302-.038-.06-.118-.014-.182.107Zm.137-.088c0 .054-.082.217-.11.217-.019 0-.023-.024-.009-.057a1.3 1.3 0 0 0 .041-.114c.015-.047.078-.085.078-.046Zm-5.566.144c.687.005 1.811.005 2.498 0 .687-.005.125-.009-1.249-.009s-1.936.004-1.249.009Zm4.036.09c0 .059.178.245.233.245.07 0 .041-.126-.047-.211-.097-.093-.186-.109-.186-.034Zm1.757.042c-.097.098-.121.203-.047.203.073 0 .239-.187.216-.243-.029-.073-.065-.064-.169.04Zm-1.587.023c.044.045.07.091.057.104-.025.023-.193-.114-.193-.159 0-.05.056-.027.136.055Zm1.68.025c-.077.087-.127.123-.144.106-.025-.024.113-.178.16-.179.036 0 .032.018-.017.073Zm2.781.171c0 .072.007.098.016.057a.342.342 0 0 0-.001-.13c-.009-.032-.015.001-.015.073Zm-4.915.13c-.013.034.024.07.119.117.222.11.33.021.123-.1-.132-.077-.215-.083-.242-.016Zm6.827-.027c.238.024.587.026.573.003-.01-.013-.165-.022-.346-.019-.18.003-.283.01-.227.016Zm4.928 0c.238.024.587.026.573.003-.009-.013-.164-.022-.346-.019-.18.003-.283.01-.227.016Zm6.91.003c.098.006.251.006.34 0 .087-.007.007-.012-.18-.012s-.26.005-.16.012Zm-21.463.033c.483.005 1.263.005 1.734 0 .47-.005.075-.01-.878-.01s-1.338.005-.856.01Zm3.047.06c.032.03.036.046.01.046-.065 0-.213-.073-.213-.105 0-.04.14.002.203.06Zm2.026-.024c-.134.076-.15.136-.037.136.146 0 .31-.105.268-.17-.026-.041-.122-.027-.231.034Zm.184.006c0 .039-.163.104-.217.087-.02-.007.008-.036.064-.065.121-.063.153-.068.153-.022Zm-6.242.121c.65.005 1.706.005 2.345 0 .639-.005.106-.009-1.184-.009s-1.812.004-1.161.01Zm8.699.172c0 .08.006.114.014.073a.442.442 0 0 0 0-.147c-.008-.04-.014-.007-.014.074Zm-2.244.18c0 .071.007.097.015.056a.342.342 0 0 0 0-.13c-.009-.032-.016.002-.015.074ZM9.582 10.9c-.058.056.013.125.13.125.127 0 .202-.03.202-.082 0-.081-.257-.115-.332-.043Zm2.343.005c-.06.07.032.127.188.114.103-.008.13-.023.13-.075 0-.083-.254-.114-.318-.04Zm-2.104.045a.63.63 0 0 1-.17 0c-.051-.007-.017-.013.076-.013.094 0 .136.005.094.013Zm2.345 0a.502.502 0 0 1-.153 0c-.042-.008-.008-.014.076-.014.085 0 .119.006.077.014Zm-5.49.132c.492.005 1.295.005 1.785 0s.09-.009-.892-.009c-.981 0-1.383.004-.892.01Zm-.967.13a.634.634 0 0 0 .17 0c.041-.008 0-.014-.094-.014s-.128.006-.076.014Zm1.44-.002a.088.088 0 0 0-.021.057c0 .02.012.018.028-.006.021-.033.262-.04 1.118-.032.6.004 1.083-.002 1.074-.016-.02-.03-2.167-.033-2.198-.003Zm8.249.062c-.011.027-.01.06.001.07.012.012.021-.004.021-.033 0-.05.14-.055 1.657-.063l1.657-.01-1.658-.007c-1.468-.007-1.66-.002-1.678.043Zm4.808-.026c.399.005 1.041.005 1.428 0 .386-.006.06-.01-.725-.01-.785 0-1.101.005-.703.01Zm3.428 0c-.01.013.2.02.465.016.876-.016.966-.028.254-.034-.387-.004-.71.004-.72.018Zm3.206-.002c.986.023 1.828.024 1.813.002-.008-.014-.508-.022-1.11-.018-.601.004-.918.011-.703.016Zm-17.07.068c-.224.097-.139.213.089.121.085-.034.124-.069.117-.104-.015-.076-.06-.08-.206-.017Zm.162.039c-.027.041-.222.1-.222.066 0-.036.177-.124.213-.106.015.007.018.025.009.04Zm1.908-.043c-.05.049-.016.104.093.154.24.11.325.006.09-.11-.152-.074-.152-.074-.183-.044Zm.197.09c.05.024.079.053.063.062-.03.018-.248-.06-.248-.09 0-.033.092-.019.185.027Zm7.19.101c-.096.094-.17.141-.203.13-.042-.016-.044-.012-.009.022.035.034.077.01.22-.129.098-.093.17-.17.16-.17-.01 0-.086.066-.169.147Zm-10.451.016-.68.019.67.007c.417.004.676-.005.69-.026.011-.018.016-.03.01-.025-.006.004-.316.015-.69.025Zm-1.096.023a.29.29 0 0 0 .118 0c.033-.008.006-.015-.059-.015s-.092.007-.06.015Zm2.326.181c-.092.094-.103.188-.022.188.057 0 .236-.184.236-.242 0-.081-.11-.054-.214.054Zm1.585-.055c-.022.056.142.243.214.243.093 0 .083-.076-.024-.182-.126-.124-.16-.136-.19-.06Zm-1.485.107c-.048.046-.098.073-.112.06-.032-.03.126-.188.167-.164.018.01-.007.057-.055.104Zm-2.31-.068c-.01.014.246.02.566.016 1.09-.015 1.198-.027.322-.034-.48-.003-.88.005-.889.018Zm3.958.046c.094.103.077.15-.021.06-.082-.073-.11-.13-.064-.13.012 0 .05.031.085.07Zm16.786.013c0 .046.014.075.03.065.017-.01.023-.047.014-.083-.025-.09-.044-.082-.044.018Zm-18.13.072c-.047.045-.122.243-.103.273.04.062.116.024.17-.085.072-.146.025-.277-.067-.188Zm.864.075c0 .098.096.26.154.26.065 0 .063-.095-.004-.224-.06-.116-.15-.138-.15-.036Zm-.782-.023c0 .042-.113.217-.14.217-.019 0-.026-.012-.016-.028a.958.958 0 0 0 .052-.114c.027-.069.104-.124.104-.075Zm.9.085c.068.126.07.196.003.131-.05-.05-.11-.227-.075-.227.011 0 .043.043.072.096Zm-.537-.043c-.048.046-.025.298.03.318.066.025.09-.037.077-.194-.01-.118-.057-.172-.107-.124Zm.079.16c0 .083-.012.143-.027.134-.026-.015-.013-.282.013-.282.008 0 .014.067.014.149Zm-2.388-.058c.23.005.604.005.833 0 .229-.006.042-.01-.416-.01-.458 0-.646.004-.417.01Zm17.617.193a.48.48 0 0 1-.023.098c-.017.05-.014.052.017.01.03-.04.037-.038.04.017.001.036.01.05.018.03.009-.02 0-.07-.017-.114-.018-.044-.034-.062-.035-.04Zm4.95.336c.07.073.07.081.017.124-.032.025-.038.036-.014.024.024-.012.07-.002.102.022.05.039.053.038.015-.008-.023-.029-.034-.06-.025-.068.009-.009-.025-.051-.077-.094l-.093-.078.075.078Zm-2.394.055c.012.01-.012.048-.053.083l-.075.063.093-.054c.08-.047.1-.113.035-.113-.012 0-.011.01 0 .02Zm4.555.371c0 .1.007.14.014.09a.701.701 0 0 0 0-.18c-.007-.049-.014-.008-.014.09Zm-15.901.237-.134.139.144-.13c.134-.12.16-.148.134-.148-.005 0-.07.063-.144.14Zm1.022.547-.133.13-1.684.01-1.684.008 1.683.008 1.684.008.15-.147c.083-.081.143-.147.133-.147a.924.924 0 0 0-.15.13Zm4.681.098c.012.042.113.05.64.05l.626.002-.61-.01c-.433-.008-.62-.022-.64-.05-.021-.03-.026-.027-.016.008Zm5.022-.005c0 .028-.426.04-1.674.046l-1.674.008 1.663.008c1.568.009 1.788-.001 1.708-.078-.013-.012-.023-.005-.023.016Zm-8.815.046c.009.014.534.025 1.168.025.633 0 1.158-.011 1.167-.025.009-.013-.517-.024-1.167-.024-.651 0-1.177.01-1.168.024Zm-3.123.538a.386.386 0 0 0 .136 0c.032-.009-.002-.015-.077-.015s-.101.007-.06.015Zm5.274.11c-.039.074-.064.14-.056.148.007.007.041-.046.075-.118.06-.128.065-.13.238-.13h.177l.035.138c.02.077.037.107.039.068.016-.283-.37-.363-.508-.105Zm2.85-.11a.386.386 0 0 0 .135 0c.032-.009-.002-.015-.077-.015s-.101.007-.059.015Zm1.318.05a.257.257 0 0 0-.052.105c0 .019.025-.008.054-.059.049-.086.064-.092.233-.081.1.006.174 0 .165-.014-.04-.061-.347-.025-.4.048Zm3.627-.047a.453.453 0 0 0-.097.155c-.065.15-.035.135.048-.023.052-.1.071-.11.231-.119l.175-.01.034.124c.024.087.035.102.038.049.008-.176-.254-.283-.429-.176Zm3 .046a.257.257 0 0 0-.051.107c0 .018.025-.009.053-.06.05-.086.065-.092.234-.081.1.006.174 0 .165-.014-.04-.061-.348-.025-.4.048Zm-16.74-.007-.154.023.136.002c.075 0 .22-.01.323-.024l.187-.024h-.17c-.093 0-.239.01-.323.023Zm1.108.01c.096.025.23.076.3.115.069.04.115.056.104.038-.04-.06-.281-.161-.43-.178-.146-.017-.146-.017.026.026Zm2.358-.025c-.028.006-.108.02-.178.03-.128.02-.128.02-.128.182 0 .09.012.162.026.162.014 0 .02-.065.014-.145-.015-.17-.018-.169.436-.211.259-.024.267-.027.085-.027-.112 0-.227.004-.255.01Zm1.117.018c.081.015.18.035.22.045.041.01.029-.004-.028-.03a.604.604 0 0 0-.221-.046c-.116.002-.115.003.029.03Zm3.54-.001c-.096.015-.038.018.152.007.169-.01.313-.022.32-.03.023-.02-.307-.004-.473.023Zm1.087.008c.39.089.513.223.396.43l-.057.1.068-.078c.18-.202-.035-.44-.432-.479l-.162-.016.187.043Zm5.812-.007c-.094.02-.08.023.062.01.176-.015.18-.014.16.06-.018.057-.015.063.013.025.09-.125.021-.153-.235-.095Zm-15.33.08c-.023.027-.032.059-.02.07.011.012.021.004.021-.018 0-.021.035-.052.077-.069.052-.02.059-.03.021-.031a.144.144 0 0 0-.098.047Zm3.22-.027c.04.007.08.038.09.069.01.039.015.033.018-.019.003-.06-.013-.072-.09-.069-.076.004-.08.007-.018.018Zm4.884.023a.34.34 0 0 0-.004.139c.012.08.015.075.02-.028.004-.097.02-.123.081-.134l.076-.014-.077-.005c-.043-.002-.086.016-.096.042Zm6.934 0a.422.422 0 0 0-.005.155l.014.11.006-.125c.004-.094.023-.13.081-.153l.077-.03-.078-.001c-.042-.001-.085.018-.095.044Zm-12.165.02c-.09.021-.092.024-.017.024a.96.96 0 0 0 .187-.025c.091-.022.093-.025.017-.025a.954.954 0 0 0-.187.025Zm2.39.042c.088.09.095.205.02.317l-.053.081.07-.077c.11-.12.048-.397-.089-.397-.012 0 .012.034.053.076Zm5.583-.054c-.004.052.135.478.151.462a1.161 1.161 0 0 0-.067-.256c-.045-.134-.082-.227-.084-.207Zm6.646.076a.987.987 0 0 0 .052.18c.02.045.023.03.008-.049a.984.984 0 0 0-.051-.18c-.02-.045-.023-.03-.009.05Zm-6.022-.021a1.36 1.36 0 0 0-.006.286l.012.242.007-.27c.007-.309-.022-.292.38-.218.154.028.286.044.294.036.015-.014-.539-.12-.626-.12a.073.073 0 0 0-.061.044Zm-9.098.044a.386.386 0 0 0 .136 0c.033-.008-.002-.015-.076-.014-.075 0-.102.007-.06.014Zm13.098.079a.55.55 0 0 0-.036.14c.002.02.025-.021.051-.092.027-.07.043-.133.036-.14-.007-.007-.03.034-.051.092Zm-15.465.005c-.002.059.014.09.047.09.096 0 .103.18.033.8l-.014.13.031-.114c.078-.281.083-.738.009-.81a.35.35 0 0 1-.086-.126c-.01-.04-.017-.031-.02.03Zm2.084-.037c-.013.02-.026.222-.03.449-.005.324 0 .374.022.233.015-.1.024-.29.02-.425l-.01-.244.103-.021c.1-.021.1-.021.01-.025-.05-.002-.102.012-.115.033Zm1.168.02c-.017.062-.047.072-.253.082l-.233.012.248.006c.251.007.31-.021.271-.13-.008-.023-.023-.01-.033.03Zm9.014.008c.116.036.206.036.119 0a.414.414 0 0 0-.136-.027c-.055.001-.051.006.017.027Zm2.214 0c0 .027.021.1.046.164.026.063.046.092.046.065 0-.027-.02-.1-.046-.163-.025-.063-.046-.093-.046-.066Zm-13.658.024c.089.007.227.007.306 0 .078-.007.005-.012-.163-.012s-.233.006-.143.013Zm3.672 0c.273.01.296.017.255.065-.038.045-.038.05.006.037.167-.053.038-.11-.255-.111l-.306-.003.3.012Zm2.268-.002c-.003.058.142.407.161.388.016-.015-.005-.073-.123-.344-.02-.045-.037-.065-.038-.044Zm2.323.01c.31.018.426.076.235.117-.151.032-.17.042-.085.045.165.005.284-.127.156-.174a1.754 1.754 0 0 0-.331-.013l-.278.006.303.018Zm4.734.083c-.031.063-.05.114-.04.114.022 0 .126-.2.11-.215-.007-.007-.039.039-.07.101Zm-12.528-.042c-.002.034-.046.068-.114.087-.073.02-.087.031-.04.034.095.004.199-.074.175-.131-.014-.034-.02-.032-.021.01Zm2.728.01c-.011.028-.011.06 0 .071.012.011.022-.003.022-.032 0-.028.034-.058.076-.066l.077-.014-.078-.005c-.042-.002-.086.019-.097.046Zm4.623 0c-.047.116.01.146.267.14l.247-.007-.246-.011c-.254-.012-.322-.061-.187-.137.056-.031.056-.033-.001-.034-.034 0-.07.021-.08.048Zm3.93 0c.155.056.216.056.085-.002a.502.502 0 0 0-.153-.044c-.028 0 .002.02.068.045Zm-10.072.037c-.031.03-.029.232.004.251.014.009.02-.04.013-.109-.01-.1 0-.128.05-.14.047-.012.05-.017.01-.02-.03-.002-.064.006-.077.018Zm1.143.142c0 .099.007.139.014.09a.702.702 0 0 0 0-.18c-.007-.05-.014-.01-.014.09Zm-3.128-.098c.01.037.072.05.266.051l.252.003-.237-.013c-.131-.006-.25-.03-.266-.051-.02-.028-.025-.025-.015.01Zm1.258.03a.696.696 0 0 1-.22.145c-.099.046-.16.084-.136.085.111.003.458-.23.41-.275-.008-.008-.033.012-.054.046Zm2.557-.03-.17.022.153.001c.084.001.199-.01.255-.023.134-.033.01-.033-.238 0Zm1.609.22c-.165.284-.19.335-.139.286.046-.044.325-.539.303-.539-.009 0-.083.114-.164.253Zm6.953-.179c.234.129.247.255.046.448-.086.083-.094.098-.033.068.27-.134.261-.416-.017-.553-.134-.067-.132-.037.004.037Zm-.957-.018a.79.79 0 0 0 .187 0c.051-.007.009-.014-.094-.014s-.145.007-.093.014Zm3.095.205c0 .135.006.19.014.123a1.355 1.355 0 0 0 0-.245c-.008-.068-.014-.012-.014.122Zm-2.713-.163a.414.414 0 0 0 .136.027c.055 0 .051-.006-.017-.027-.116-.036-.206-.036-.119 0Zm3.058.146a.614.614 0 0 0-.007.2c.009.01.027-.066.04-.168a.613.613 0 0 0 .008-.2c-.01-.009-.028.067-.041.168ZM18.318 15c.057.009.085.028.072.05-.014.021-.007.026.017.011.063-.037.009-.084-.091-.079l-.092.005.094.014Zm6.96.096c-.04.065-.066.123-.06.13.007.006.047-.047.089-.119.095-.162.07-.173-.028-.011Zm6.628 0c-.04.065-.067.123-.06.13.007.006.047-.047.088-.119.096-.162.071-.173-.028-.011ZM20.3 15.049a1.37 1.37 0 0 1-.22.08c-.155.044-.155.044-.022.026.129-.018.325-.096.325-.129 0-.02-.007-.019-.083.023Zm1.27.03c-.02.037-.03.075-.02.084.008.009.027-.017.04-.057l.024-.074.046.08c.067.116.058.16-.034.16-.045 0-.09-.018-.1-.04-.01-.025-.018-.018-.02.016-.001.042.024.057.098.057.129 0 .152-.04.104-.18-.045-.13-.083-.143-.137-.046Zm3.381-.036a.682.682 0 0 1-.168.079c-.074.026-.116.049-.093.05.067.003.315-.1.315-.132 0-.037-.013-.037-.054.003Zm.754.02c-.032.082-.022.1.02.032.034-.058.04-.055.078.033.051.116.038.144-.068.144-.063 0-.077-.013-.06-.054.014-.037.008-.047-.019-.031-.085.05-.04.118.078.118.148 0 .166-.03.103-.176-.055-.127-.099-.149-.132-.067Zm2.078.002c.142.095.08.216-.161.316-.066.027-.099.05-.074.052.11.006.346-.17.346-.26 0-.057-.103-.164-.156-.16-.017 0 .003.024.045.053Zm1.063.076c-.039.072-.062.131-.053.131a.46.46 0 0 0 .087-.13c.038-.072.061-.131.052-.131a.458.458 0 0 0-.086.13Zm.452-.073a.727.727 0 0 1-.038.087c-.01.016 0 .019.022.006s.04-.048.04-.077c0-.077.058-.01.086.098.024.097-.127.142-.166.05-.01-.025-.018-.018-.02.016-.002.044.025.057.116.057.131 0 .142-.026.082-.191-.042-.115-.09-.133-.122-.046Zm3.035-.006c-.033.083-.022.102.019.034.035-.059.04-.056.08.032.05.117.037.144-.074.144-.065 0-.082-.013-.067-.05.012-.03.006-.043-.013-.031-.08.047-.031.114.083.114.149 0 .167-.03.104-.176-.056-.127-.1-.149-.132-.067Zm-14.5.014c-.114.035.01.035.153 0 .092-.022.094-.025.017-.026a.68.68 0 0 0-.17.026Zm5.616.065c0 .063.007.089.016.058a.26.26 0 0 0 0-.115c-.009-.031-.016-.005-.016.057Zm6.363.016c.057.132.119.239.12.21.002-.034-.136-.324-.154-.324-.009 0 .007.052.034.114Zm-3.615-.065c0 .018.022.07.048.115.027.045.049.067.049.049a.353.353 0 0 0-.049-.115c-.026-.044-.048-.067-.048-.049Zm6.628 0c0 .018.021.07.048.115s.049.067.049.049a.353.353 0 0 0-.049-.115c-.027-.044-.048-.067-.048-.049Zm-16.521.115-.119.024.119.004a.387.387 0 0 0 .17-.028c.062-.039.02-.039-.17 0Zm3.38.002c-.027.042-.028.041.12.11.098.044.107.045.054.004a.254.254 0 0 0-.094-.05c-.062 0-.022-.063.05-.076.066-.012.064-.015-.016-.018-.05-.003-.101.01-.114.03Zm4.823-.014c-.021.008-.19.028-.374.044l-.335.03.368-.015c.203-.008.394-.029.425-.046.062-.034-.004-.045-.084-.013Zm2.517.142.003.18.168-.011c.092-.007.2-.025.238-.041.074-.031.046-.03-.26.018l-.125.02-.014-.173-.013-.172.003.18Zm-9.038-.098-.136.024.12.002a.54.54 0 0 0 .186-.026c.08-.033.023-.033-.17 0Zm-2.276.041a2.983 2.983 0 0 0-.042.302l-.027.262-.184.01c-.123.007-.194-.004-.215-.033-.024-.033-.028-.032-.017.007.018.064.397.088.436.028a1.41 1.41 0 0 0 .05-.311l.023-.27.226-.011.225-.012-.23-.006c-.16-.005-.235.006-.245.034Zm1.967.039c-.072.18.084.24.386.147.099-.03-.186-.009-.306.023-.047.013-.06-.004-.06-.082 0-.075.018-.1.077-.112l.076-.014-.077-.005c-.043-.002-.086.017-.096.043Zm1.09.16a1.105 1.105 0 0 0-.008.256c.008.024.026-.064.04-.197a1.02 1.02 0 0 0 .008-.255c-.009-.009-.027.08-.04.196Zm4.65-.076c0 .08.006.114.014.073a.442.442 0 0 0 0-.147c-.008-.04-.014-.007-.014.074Zm-4.258.194c0 .265-.006.293-.069.306-.056.012-.055.014.009.01.077-.004.162-.609.085-.608-.014 0-.025.131-.025.292Zm4.622-.03-.017.277-.198.01-.2.01.02-.141c.014-.102.011-.118-.01-.059-.073.202-.054.229.159.228.279 0 .285-.008.273-.329l-.011-.275-.017.278Zm2.572-.127c.054.13.054.138-.009.184-.035.026-.043.041-.016.034.098-.028.119-.111.058-.235-.08-.161-.102-.15-.033.017Zm.256.15-.007.303.094-.003a.532.532 0 0 0 .161-.03c.047-.02.023-.024-.075-.01l-.143.018-.011-.29-.012-.29-.007.303Zm6.315-.277a.75.75 0 0 0 .059.14c.057.115.056.121-.007.165-.035.025-.049.046-.029.046.087 0 .123-.094.078-.204-.043-.105-.1-.189-.1-.147Zm-13.663.051c0 .016.034.045.076.064.043.02.127.068.187.107.061.038.11.063.11.055s-.083-.068-.186-.134-.187-.107-.187-.091Zm-1.037.038c-.045.02-.014.023.094.01l.161-.018v.134c0 .146-.011.153-.272.18-.088.008-.073.012.056.016.208.006.259-.037.244-.213-.012-.134-.123-.177-.283-.109Zm12.916.002c-.049.021-.03.024.06.01.128-.019.13-.018.11.075-.018.08-.016.084.017.034.081-.122-.025-.19-.187-.119Zm-1.168.073c.035.078.032.097-.025.14-.062.048-.061.05.012.015.089-.042.096-.094.024-.182-.047-.059-.048-.057-.01.027Zm-9.836-.002c.1.047.098.059-.043.19l-.12.11-.11-.058-.11-.058.086.067c.113.09.131.086.28-.047.154-.137.138-.255-.032-.241-.015 0 .007.018.05.037Zm4.838.124c-.148.23-.14.262.056.255l.162-.005-.145-.013c-.172-.015-.17-.007-.042-.226.13-.22.108-.228-.031-.01Zm5.197-.12c0 .025-.01.114-.021.197l-.022.152.132-.002c.073-.002.193-.015.268-.031.104-.023.077-.025-.113-.011l-.25.018.024-.183c.013-.101.014-.184.003-.184-.012 0-.02.02-.02.045Zm.544-.01-.187.021.17.002c.093 0 .216-.01.272-.024.132-.032.02-.032-.255 0Zm.886.13c-.147.23-.14.262.057.255l.162-.005-.145-.013c-.172-.015-.17-.007-.042-.226.13-.22.108-.228-.032-.01Zm-3.01-.033c-.03.054-.046.098-.036.098.01 0 .04-.044.07-.098.029-.054.045-.098.035-.098-.009 0-.04.044-.07.098Zm-7.019-.031-.187.023.215-.002c.151 0 .225.012.246.045.026.039.031.038.032-.007 0-.042-.088-.111-.113-.088-.003.003-.09.016-.193.029Zm4.18-.012c-.217.016-.305.039-.305.08 0 .026.013.026.042.003.035-.028.305-.053.455-.043.022.002.049.055.061.117.015.079.04.114.08.114.068-.001.198-.088.171-.114-.01-.01-.037.005-.06.032-.067.077-.134.06-.159-.04-.024-.097-.076-.175-.11-.165a2.3 2.3 0 0 1-.174.016Zm3.52.008c-.194.018-.203.023-.277.158-.042.076-.064.139-.05.139.014 0 .053-.058.086-.129.086-.182.474-.219.55-.051.05.114.062.06.013-.063-.018-.046-.053-.082-.076-.079l-.245.025Zm3.108-.007c-.217.015-.306.038-.306.08 0 .025.013.025.043.002.049-.04.402-.062.457-.03.02.012.045.066.056.12.026.126.26.111.26-.016 0-.014-.03 0-.066.031-.088.077-.139.055-.185-.079-.042-.123-.044-.124-.259-.108Zm-4.673.092c-.056.025-.08.045-.051.046.028 0 .09-.021.136-.047.107-.059.05-.058-.085.001Zm-10.532.084c-.023.111-.005.162.057.158.028-.002.027-.008-.003-.02-.03-.011-.036-.052-.022-.128.012-.061.015-.111.006-.111-.01 0-.026.045-.038.101Zm3.602.012c-.085.126-.068.149.107.142l.161-.005-.144-.013c-.164-.014-.164-.014-.09-.124.03-.044.047-.08.038-.08-.01 0-.041.036-.072.08Zm10.482-.053c0 .02-.05.04-.11.043-.11.005-.11.005-.014.018.098.014.19-.035.147-.077-.013-.012-.023-.005-.023.016Zm-9.377.042c-.008.108.076.125.183.037.095-.078.096-.08.01-.03-.118.069-.154.068-.174-.003-.013-.048-.016-.049-.02-.004Zm3.53-.012c0 .02-.023.059-.053.087-.029.028-.037.052-.018.052.043 0 .119-.13.091-.156-.01-.01-.02-.003-.02.017Zm1.82.058c-.15.041-.25.076-.222.077.065.003.543-.116.57-.141.033-.032-.066-.014-.349.064Zm2.498-.016c-.065.035-.096.063-.068.063.027 0 .088-.03.135-.065.107-.08.085-.08-.067.002Zm2.31-.042c0 .02-.024.059-.053.087-.03.028-.038.052-.018.052.043 0 .119-.13.091-.156-.01-.01-.02-.003-.02.017Zm-3.561.047c-.087.083-.046.124.12.119.153-.006.155-.007.03-.019-.109-.01-.127-.023-.113-.076.02-.074.017-.076-.037-.024Zm-10.603.016a.29.29 0 0 0 .119 0c.033-.008.006-.015-.06-.015-.065 0-.092.007-.06.015Zm12.864 0a.49.49 0 0 0 .153 0c.042-.007.008-.014-.076-.014-.084 0-.119.007-.077.014Zm-13.297.043c-.115.02-.12.024-.034.025.056.002.17-.01.255-.024.137-.023.14-.026.034-.025-.066 0-.18.01-.255.024Zm1.279.073c-.005.086.002.09.14.085l.144-.006-.125-.013c-.097-.01-.129-.029-.14-.084-.012-.059-.015-.056-.02.018ZM2.036 17.064c-.032.02-.04.14-.034.481l.01.455H36l-16.968-.008-16.969-.009v-.914l16.969-.008L36 17.052l-16.96-.007c-9.328-.004-16.98.004-17.004.019Z" fill="#AED0BF"/></svg>