<svg xmlns="http://www.w3.org/2000/svg" role="img" viewBox="0 0 38 24" width="38" height="24" aria-labelledby="pi-pastpay"><title id="pi-pastpay">PastPay</title><path opacity=".07" d="M35 0H3C1.3 0 0 1.3 0 3v18c0 1.7 1.4 3 3 3h32c1.7 0 3-1.3 3-3V3c0-1.7-1.4-3-3-3z"/><path fill="#fff" d="M35 1c1.1 0 2 .9 2 2v18c0 1.1-.9 2-2 2H3c-1.1 0-2-.9-2-2V3c0-1.1.9-2 2-2h32"/><path fill="#FD6F8D" d="M10.528 3.909A3.764 3.764 0 0010 5.8v11.382C10 19.286 11.765 21 13.93 21c.692 0 1.325-.177 1.966-.513l10.137-5.673c1.875-1.06 2.53-3.393 1.438-5.214a3.837 3.837 0 00-1.438-1.396L15.896 2.53c-1.874-1.078-4.295-.46-5.368 1.379zm7.188 14.28c.139-.456.164-.85.164-1.29l7.025-3.94c.8-.46 1.073-1.45.618-2.228a1.72 1.72 0 00-2.293-.6l-5.332 2.986v-1.29l4.805-2.687c.951-.571 1.977-.465 2.784 0 .44.294.876.751 1.02 1.008.782 1.308.309 2.97-1.02 3.73l-7.77 4.312zm3.003-9.243l-1.128.636-5.897-3.305c-.273-.159-.364-.477-.2-.742a.555.555 0 01.764-.195l6.461 3.606zm-6.26 1.573v6.61a.56.56 0 01-.564.548.559.559 0 01-.565-.548V9.883l1.129.636zm3.403 3.853l5.896-3.305a.567.567 0 01.765.194.535.535 0 01-.2.743l-6.461 3.623v-1.255zm-6.734 2.793V8.469c.345.347.708.582 1.092.795v7.883c0 .901.765 1.644 1.693 1.644s1.692-.743 1.692-1.644v-5.992l1.165.654v5.373c0 .336-.055.637-.164.937-.234.645-.497 1.01-1.165 1.396-.418.248-.91.39-1.437.39-1.62 0-2.876-1.238-2.876-2.74zm4.204-13.716l7.759 4.325c-.6.16-.924.348-1.262.536l-7.024-3.942a1.7 1.7 0 00-2.294.601c-.473.778-.182 1.785.62 2.227l5.331 2.987-1.164.654-4.805-2.686c-.166-.112-.184-.12-.327-.23a2.711 2.711 0 01-1.074-2.156c0-.46.127-.937.382-1.361a2.914 2.914 0 013.858-.955z"/></svg>