<svg width="38" height="24" fill="none" xmlns="http://www.w3.org/2000/svg" role="img" aria-labelledby="pi-pay_easy" viewBox="0 0 38 24"><title id="pi-pay_easy">Pay Easy</title><path fill="#fff" d="M0 0h38v24H0z"/><path opacity=".07" fill-rule="evenodd" clip-rule="evenodd" d="M35 0H3C1.3 0 0 1.3 0 3v18c0 1.7 1.4 3 3 3h32c1.7 0 3-1.3 3-3V3c0-1.7-1.4-3-3-3z" fill="#000"/><path fill-rule="evenodd" clip-rule="evenodd" d="M35 1c1.1 0 2 .9 2 2v18c0 1.1-.9 2-2 2H3c-1.1 0-2-.9-2-2V3c0-1.1.9-2 2-2h32z" fill="#fff"/><path d="M22.48 16.97h-.306v-.808a3.193 3.193 0 01-.493.25 1.012 1.012 0 00-.213-.253 2.48 2.48 0 00.684-.323c.196-.14.373-.304.528-.488l.248.193a.023.023 0 01.011.01.032.032 0 01.003.014c0 .017-.014.025-.033.025a.153.153 0 01-.037-.004c-.12.13-.252.252-.392.362v1.023zm1.31-1.612c.156.05.306.12.445.206-.06.075-.115.153-.165.235a1.83 1.83 0 00-.434-.223l.153-.218zm.776.07c.07.053.139.11.203.17l-.134.13a2.259 2.259 0 00-.202-.181l.133-.12zm.198-.202c.071.052.14.108.204.17a7.5 7.5 0 01-.133.128 2.45 2.45 0 00-.202-.179l.13-.12zm-1.146.524c.146.068.286.15.418.244a2.763 2.763 0 00-.176.233 1.987 1.987 0 00-.405-.243l.163-.235zm-.055.96a2.491 2.491 0 001.236-.947.58.58 0 00.18.234 2.346 2.346 0 01-.34.393 3.035 3.035 0 01-.866.565c-.004.019-.01.041-.029.041-.018 0-.026-.022-.028-.024l-.153-.263zm3.451-.664h-1.546v.3h1.546v-.3zm-7.759.152a.96.96 0 00.217-.197c.255-.286.33-.373.389-.405a.244.244 0 01.127-.042c.115 0 .178.072.324.258.152.187.315.365.49.532.08.072.14.122.176.15-.07.085-.156.21-.19.26a9.878 9.878 0 01-.691-.79c-.063-.077-.09-.091-.118-.091-.044 0-.093.061-.135.107a5.31 5.31 0 00-.324.425.036.036 0 01.005.023c0 .017-.013.017-.016.017a.03.03 0 01-.024-.01l-.23-.237zm1.431-.343a.277.277 0 01-.198-.475.278.278 0 11.198.475zm0-.408a.131.131 0 100 .262.131.131 0 000-.262z" fill="#000"/><path d="M21.737 20.149c.173.15.426.232.724.232.392 0 .689-.114 1.138-.435v.598c-.552.405-1.126.405-1.373.405a2.287 2.287 0 01-.775-.127 1.586 1.586 0 01-.58-.362 1.521 1.521 0 01-.424-1.098 1.74 1.74 0 01.117-.644c.076-.19.19-.362.334-.507a1.42 1.42 0 01.512-.333c.209-.082.432-.123.656-.12a1.567 1.567 0 011.153.463c.304.317.453.76.435 1.284H21.44v.006a.884.884 0 00.295.64l.002-.002zm1.07-1.147a.797.797 0 00-.213-.5.689.689 0 00-.928 0 .803.803 0 00-.205.5v.004h1.347l-.002-.004zm6.453 1.738c-.224.177-.544.269-.955.269-.497 0-.98-.152-1.13-.234v-.694c.343.145.655.267 1.021.267.202 0 .357-.04.435-.117a.152.152 0 00.053-.121c0-.188-.258-.29-.557-.402-.454-.177-1.019-.396-1.019-1.014a.844.844 0 01.25-.61c.236-.236.611-.363 1.06-.363.354-.008.705.071 1.021.23v.7c-.448-.274-.876-.353-1.057-.353-.165 0-.363.047-.363.255 0 .13.213.218.483.321.46.184 1.096.435 1.096 1.103 0 .328-.115.585-.337.761m-11.916 1.264h-1.02l.736-1.61v-.006l-1.199-2.57h1.024l.648 1.578.003.01.007-.008.69-1.58h1.006l-1.895 4.186zm13.756 0h-1.018l.735-1.61v-.006l-1.2-2.57h1.024l.648 1.578.006.01.003-.008.693-1.58h1.006L31.1 22.002zm-5.207-1.137a.423.423 0 01-.174-.264v-.006h-.006c-.358.244-.661.35-1.014.35a.881.881 0 01-.638-.26.697.697 0 01-.218-.493c0-.71.508-.866 1.723-1.243l.106-.034h.005v-.004a.487.487 0 00-.108-.373c-.093-.097-.237-.145-.434-.145a1.462 1.462 0 00-.601.14 1.759 1.759 0 00-.531.368v-.774c.4-.247.86-.376 1.33-.372.499 0 .86.108 1.072.319a.83.83 0 01.228.61v1.404a.242.242 0 00.054.179.143.143 0 00.11.04.41.41 0 00.218-.075v.512a1.974 1.974 0 01-.759.202.658.658 0 01-.362-.08zm-.226-1.47a2.97 2.97 0 00-.64.286c-.146.104-.213.217-.213.367 0 .09.036.176.098.24a.308.308 0 00.223.093.83.83 0 00.538-.237v-.752l-.006.004zm-5.56-.099h-1.226v.588h1.226v-.588z" fill="#0F298F"/><path d="M15.07 20.865a.408.408 0 01-.175-.264v-.006h-.005c-.362.244-.66.35-1.014.35a.888.888 0 01-.642-.256.711.711 0 01-.217-.494c0-.71.507-.866 1.721-1.243l.106-.034v-.004a.472.472 0 00-.108-.373c-.09-.097-.236-.145-.434-.145a1.448 1.448 0 00-.6.14c-.198.09-.379.214-.533.368v-.777c.4-.247.863-.376 1.333-.372.5 0 .857.108 1.07.319a.831.831 0 01.228.61v1.404a.245.245 0 00.054.179.15.15 0 00.113.04.412.412 0 00.217-.075v.512a1.989 1.989 0 01-.76.202.651.651 0 01-.362-.08h.007zm-.235-1.47c-.225.07-.44.166-.642.286-.145.104-.21.217-.21.367a.338.338 0 00.198.308.297.297 0 00.118.025.828.828 0 00.539-.237v-.752l-.003.004z" fill="#0F298F"/><path d="M13.61 2.001a4.46 4.46 0 00-1.974.477 5.498 5.498 0 00-1.71 1.327l1.871.24.008-.01a6.084 6.084 0 011.873-1.503 4.703 4.703 0 012.145-.531H13.61z" fill="url(#pi-pay_easy-paint0_linear)"/><path d="M17.034 4.124c-.292.01-.581.066-.857.165.933.58 1.547 1.744 1.547 3.105 0 1.983-1.304 3.797-2.995 4.067a2.56 2.56 0 01-.448.03c.076.102.157.198.244.288.662.685 1.554 1.007 2.51.83.924-.17 1.738-.781 2.306-1.618a5.33 5.33 0 00.902-2.98c0-1.106-.34-2.08-.902-2.779-.55-.683-1.322-1.107-2.204-1.107h-.103" fill="url(#pi-pay_easy-paint1_linear)"/><path d="M7.956 14.613c.365 2.897 1.311 4.8 1.792 5.469l1.743 1.291c-.608-.947-1.565-3.059-1.893-6.128-.328-3.07-.014-7.099 1.91-11.887l-1.862-.165c-1.84 4.638-2.053 8.526-1.69 11.42z" fill="url(#pi-pay_easy-paint2_linear)"/><path d="M14.525 11.78c-.678-.7-1.107-1.764-1.107-3.009a5.253 5.253 0 011.107-3.257c.662-.83 1.554-1.354 2.51-1.39.924-.034 1.738.395 2.306 1.105.562.698.902 1.673.902 2.779a5.319 5.319 0 01-.902 2.979c-.57.837-1.383 1.449-2.307 1.619-.17.031-.341.047-.514.048-.758 0-1.454-.318-1.995-.878v.003zM15.805 2a4.702 4.702 0 00-2.127.531 6.084 6.084 0 00-1.873 1.504l-.008.01c-.092-.23-.189-.464-.29-.688-1.922 4.787-2.233 8.816-1.909 11.887.315 2.966 1.22 5.034 1.83 6.028.014.023.029.044.04.065l.027.037a.014.014 0 00.012.008.038.038 0 00.01-.008 27.348 27.348 0 001.346-4.614 25.59 25.59 0 00.309-1.996c.165.07.334.13.506.18.7.196 1.437.213 2.145.051a5.264 5.264 0 002-.941 6.698 6.698 0 001.535-1.635 8.094 8.094 0 001.34-4.466c0-1.644-.506-3.103-1.34-4.166a4.819 4.819 0 00-1.534-1.292 4.27 4.27 0 00-2-.495h-.019z" fill="url(#pi-pay_easy-paint3_linear)"/><path d="M6 8.474a.814.814 0 101.628 0 .814.814 0 00-1.628 0" fill="url(#pi-pay_easy-paint4_radial)"/><path d="M13.98 8.475a1.545 1.545 0 103.09 0 1.545 1.545 0 00-3.09 0" fill="url(#pi-pay_easy-paint5_radial)"/><path d="M17.92 8.475a1.935 1.935 0 103.87 0 1.935 1.935 0 00-3.87 0" fill="url(#pi-pay_easy-paint6_radial)"/><path d="M22.66 8.48a2.42 2.42 0 104.84 0 2.42 2.42 0 00-4.84 0" fill="url(#pi-pay_easy-paint7_radial)"/><defs><radialGradient id="pi-pay_easy-paint4_radial" cx="0" cy="0" r="1" gradientUnits="userSpaceOnUse" gradientTransform="translate(6.814 8.474) scale(.81486)"><stop stop-color="#CCE70B"/><stop offset=".15" stop-color="#CCE70B"/><stop offset=".24" stop-color="#C6E40C"/><stop offset=".36" stop-color="#B6DD10"/><stop offset=".5" stop-color="#9CD115"/><stop offset=".64" stop-color="#77C01D"/><stop offset=".79" stop-color="#48AA27"/><stop offset=".95" stop-color="#0F8F34"/><stop offset=".99" stop-color="#008837"/><stop offset="1" stop-color="#008837"/></radialGradient><radialGradient id="pi-pay_easy-paint5_radial" cx="0" cy="0" r="1" gradientUnits="userSpaceOnUse" gradientTransform="translate(15.525 8.476) scale(1.54637)"><stop stop-color="#CCE70B"/><stop offset=".15" stop-color="#CCE70B"/><stop offset=".24" stop-color="#C6E40C"/><stop offset=".36" stop-color="#B6DD10"/><stop offset=".5" stop-color="#9CD115"/><stop offset=".64" stop-color="#77C01D"/><stop offset=".79" stop-color="#48AA27"/><stop offset=".95" stop-color="#0F8F34"/><stop offset=".99" stop-color="#008837"/><stop offset="1" stop-color="#008837"/></radialGradient><radialGradient id="pi-pay_easy-paint6_radial" cx="0" cy="0" r="1" gradientUnits="userSpaceOnUse" gradientTransform="translate(19.855 8.477) scale(1.93672)"><stop stop-color="#CCE70B"/><stop offset=".15" stop-color="#CCE70B"/><stop offset=".24" stop-color="#C6E40C"/><stop offset=".36" stop-color="#B6DD10"/><stop offset=".5" stop-color="#9CD115"/><stop offset=".64" stop-color="#77C01D"/><stop offset=".79" stop-color="#48AA27"/><stop offset=".95" stop-color="#0F8F34"/><stop offset=".99" stop-color="#008837"/><stop offset="1" stop-color="#008837"/></radialGradient><radialGradient id="pi-pay_easy-paint7_radial" cx="0" cy="0" r="1" gradientUnits="userSpaceOnUse" gradientTransform="translate(25.08 8.482) scale(2.42215)"><stop stop-color="#CCE70B"/><stop offset=".15" stop-color="#CCE70B"/><stop offset=".24" stop-color="#C6E40C"/><stop offset=".36" stop-color="#B6DD10"/><stop offset=".5" stop-color="#9CD115"/><stop offset=".64" stop-color="#77C01D"/><stop offset=".79" stop-color="#48AA27"/><stop offset=".95" stop-color="#0F8F34"/><stop offset=".99" stop-color="#008837"/><stop offset="1" stop-color="#008837"/></radialGradient><linearGradient id="pi-pay_easy-paint0_linear" x1="12.854" y1="4.063" x2="12.891" y2="1.95" gradientUnits="userSpaceOnUse"><stop stop-color="#0A50A1"/><stop offset=".2" stop-color="#0A50A1"/><stop offset=".7" stop-color="#1D88BC"/><stop offset=".74" stop-color="#258DBF"/><stop offset=".81" stop-color="#3C9CC7"/><stop offset=".89" stop-color="#60B4D4"/><stop offset=".99" stop-color="#92D5E6"/><stop offset="1" stop-color="#99D9E8"/></linearGradient><linearGradient id="pi-pay_easy-paint1_linear" x1="16.776" y1="12.74" x2="18.269" y2="4.28" gradientUnits="userSpaceOnUse"><stop stop-color="#3690C0"/><stop offset=".02" stop-color="#3690C0"/><stop offset=".3" stop-color="#67A9CF"/><stop offset=".7" stop-color="#B2D7E8"/><stop offset=".78" stop-color="#7AAAD0"/><stop offset=".9" stop-color="#2A6AAE"/><stop offset=".95" stop-color="#0A50A1"/><stop offset="1" stop-color="#0A50A1"/></linearGradient><linearGradient id="pi-pay_easy-paint2_linear" x1="8.952" y1="21.016" x2="11.435" y2="3.348" gradientUnits="userSpaceOnUse"><stop stop-color="#0670B0"/><stop offset=".05" stop-color="#0670B0"/><stop offset=".16" stop-color="#378EC0"/><stop offset=".4" stop-color="#AFD6E7"/><stop offset=".72" stop-color="#5DAACF"/><stop offset=".98" stop-color="#1D88BC"/><stop offset="1" stop-color="#1D88BC"/></linearGradient><linearGradient id="pi-pay_easy-paint3_linear" x1="9.266" y1="5.239" x2="18.142" y2="15.817" gradientUnits="userSpaceOnUse"><stop stop-color="#0290BE"/><stop offset=".44" stop-color="#0859A5"/><stop offset=".81" stop-color="#0D3092"/><stop offset="1" stop-color="#0F218B"/></linearGradient></defs></svg>