<svg xmlns="http://www.w3.org/2000/svg" role="img" viewBox="0 0 38 24" width="38" height="24" aria-labelledby="pi-pay_pay"><title id="pi-pay_pay">PayPay</title><path opacity=".07" fill-rule="evenodd" clip-rule="evenodd" d="M35 0H3C1.3 0 0 1.3 0 3v18c0 1.7 1.4 3 3 3h32c1.7 0 3-1.3 3-3V3c0-1.7-1.4-3-3-3z" fill="#000"/><path fill-rule="evenodd" clip-rule="evenodd" d="M35 1c1.1 0 2 .9 2 2v18c0 1.1-.9 2-2 2H3c-1.1 0-2-.9-2-2V3c0-1.1.9-2 2-2h32z" fill="#fff"/><path fill-rule="evenodd" clip-rule="evenodd" d="M21.791 5h-6.245c-.698 0-1.27.552-1.308 1.24 5.229-.148 7.772 1.668 7.373 3.48-.36 1.63-2.019 2.255-4.715 2.46l-.403 1.676h5.298c.721 0 1.311-.59 1.311-1.31V6.309c0-.72-.59-1.309-1.311-1.309zm-.496 4.727c.208-.846-1.158-1.628-3.345-1.923l-.794 3.298c1.833.086 3.915-.464 4.14-1.375zm-5.333 4.129h-.416c-.721 0-1.311-.59-1.311-1.31V7.77a16.56 16.56 0 013.236-.023l-1.51 6.108z" fill="#FA0028"/><path fill-rule="evenodd" clip-rule="evenodd" d="M17.765 18.491c-.193.426-.51.481-.652.497-.15.018-.31.01-.31.01v-.347c.284 0 .438.022.604-.308l.114-.287-1.043-2.07h.666l.684 1.377.605-1.376h.432s-.907 2.08-1.1 2.504zm-2.433-.511c-.276 0-.474-.204-.474-.503 0-.3.265-.477.506-.477.122 0 .238.034.282.072v.769c-.077.067-.168.139-.314.139zm-.027-1.993c-.48 0-.728.117-.728.117l.06.178s.18-.083.535-.083c.394 0 .474.19.474.451l-.005.117a2.011 2.011 0 00-.484-.058c-.3 0-.797.185-.797.788 0 .575.438.762.748.762a.946.946 0 00.538-.157v.118h.635v-1.57c0-.496-.495-.663-.976-.663zm-2.67.914v-1.36s.196.002.416.002c.312 0 .656.236.656.64s-.344.719-.656.719h-.416zm.416-1.664h-.902a.149.149 0 00-.149.149v2.834h.635v-1.014h.416c.615 0 1.172-.382 1.172-1.03 0-.649-.557-.939-1.172-.939zm11.979 3.254c-.194.426-.511.481-.653.497-.15.018-.309.01-.309.01v-.347c.283 0 .437.022.604-.308l.113-.287-1.042-2.07h.666l.683 1.377.605-1.376h.433s-.908 2.08-1.1 2.504zm-2.433-.511c-.276 0-.474-.204-.474-.503 0-.3.265-.477.506-.477.121 0 .237.034.282.072v.769c-.078.067-.168.139-.314.139zm-.027-1.993c-.481 0-.728.117-.728.117l.059.178s.18-.083.536-.083c.394 0 .474.19.474.451l-.005.117a2.007 2.007 0 00-.484-.058c-.3 0-.797.185-.797.788 0 .575.437.762.748.762a.946.946 0 00.538-.157v.118h.635v-1.57c0-.496-.495-.663-.976-.663zm-2.67.914v-1.36s.196.002.416.002c.311 0 .655.236.655.64s-.344.719-.655.719H19.9zm.416-1.664h-.903a.149.149 0 00-.148.149v2.834h.635v-1.014h.416c.614 0 1.172-.382 1.172-1.03 0-.649-.558-.939-1.172-.939z" fill="#302B2B"/></svg>