<svg xmlns="http://www.w3.org/2000/svg" role="img" viewBox="0 0 38 24" width="38" height="24" aria-labelledby="pi-payafterdeliveryinstalments"><title id="pi-payafterdeliveryinstalments">Pay After Delivery Installments</title><path opacity=".07" d="M35 0H3C1.3 0 0 1.3 0 3v18c0 1.7 1.4 3 3 3h32c1.7 0 3-1.3 3-3V3c0-1.7-1.4-3-3-3z"/><path fill="#fff" d="M35 1c1.1 0 2 .9 2 2v18c0 1.1-.9 2-2 2H3c-1.1 0-2-.9-2-2V3c0-1.1.9-2 2-2h32"/><path fill="#b9b5b5" d="M20.97 6.813h-.538v10.754h.538V6.813z"/><path fill="#fabd00" d="M15.416 5.738l-.004.304h-.002V9.03a3.611 3.611 0 00-1.887-.502c-.49 0-.945.082-1.364.244a3.595 3.595 0 00-1.4.987.018.018 0 01.003.003c.595.674.888 1.491.888 2.433 0-.547.173-1 .51-1.357l.015-.017c.36-.362.806-.544 1.348-.544.54 0 .984.182 1.345.544.362.36.542.818.542 1.374 0 .557-.18 1.014-.542 1.376-.361.36-.806.542-1.345.542-.542 0-.988-.182-1.348-.542l-.016-.017c-.336-.359-.509-.81-.509-1.359 0 .943-.293 1.74-.888 2.415-.005.006-.01.013-.017.019a3.508 3.508 0 001.414.995c.419.16.875.238 1.364.238 1.025 0 1.902-.347 2.61-1.056.691-.69 1.051-1.54 1.069-2.537.002-.025.002-.049.002-.074V8.524c0-1.243-.732-2.279-1.788-2.786z"/><path fill="#00abee" d="M9.86 12.194c0 .556-.183 1.014-.53 1.373-.36.362-.805.544-1.347.544-.029 0-.057 0-.086-.002a1.81 1.81 0 01-1.26-.542c-.36-.36-.541-.819-.541-1.375s.18-1.014.542-1.375a1.814 1.814 0 011.345-.542c.542 0 .988.182 1.348.542.346.361.53.82.53 1.377 0-.942.288-1.742.883-2.416l.017-.02a3.034 3.034 0 00-.165-.177c-.709-.708-1.585-1.055-2.613-1.055l-.086.001c-.988.019-1.835.365-2.524 1.054-.691.691-1.052 1.54-1.069 2.538-.003.024-.003.049-.003.073v3.672c0 1.243.733 2.27 1.789 2.778l.004-.297h.002v-2.987a3.592 3.592 0 001.887.502c1.028 0 1.904-.361 2.613-1.07a2.51 2.51 0 00.15-.161l-.002-.003c-.595-.674-.884-1.49-.884-2.432z"/><path fill="#006693" d="M11.653 12.196c0 .942-.294 1.74-.889 2.414-.005.006-.01.013-.017.019l-.002-.003c-.595-.674-.884-1.49-.884-2.432s.289-1.742.884-2.416c.005-.006.01-.013.017-.019l.002.003c.595.674.889 1.492.889 2.434z"/><g fill="#00abee" transform="matrix(.53 0 0 .53 0 1.59)"><path d="M58.84 12.899h-1.014v-.254a.761.761 0 00-1.522 0v.254h-5.072v-.254a.761.761 0 00-1.522 0v.254h-1.014a3.047 3.047 0 00-3.044 3.043v9.13a3.047 3.047 0 003.044 3.044H58.84a3.047 3.047 0 003.043-3.044v-9.13a3.047 3.047 0 00-3.043-3.043zm1.522 12.173c0 .84-.682 1.522-1.521 1.522H48.696c-.84 0-1.522-.682-1.522-1.522v-6.594h13.188v6.594zm-13.188-8.115v-1.015c0-.84.683-1.522 1.522-1.522h1.014v.761a.761.761 0 001.522 0v-.76h5.072v.76a.761.761 0 001.522 0v-.76h1.015c.839 0 1.521.682 1.521 1.521v1.015H47.174z"/><circle cx="49.71" cy="22.536" r="1.522"/><circle cx="53.768" cy="22.536" r="1.522"/><circle cx="57.826" cy="22.536" r="1.522"/></g></svg>