<svg xmlns="http://www.w3.org/2000/svg" role="img" viewBox="0 0 38 24" width="38" height="24" aria-labelledby="pi-paybylink"><title id="pi-paybylink">Pay By Link</title><path opacity=".07" d="M35 0H3C1.3 0 0 1.3 0 3v18c0 1.7 1.4 3 3 3h32c1.7 0 3-1.3 3-3V3c0-1.7-1.4-3-3-3Z"/><path fill="#fff" d="M35 1c1.1 0 2 .9 2 2v18c0 1.1-.9 2-2 2H3c-1.1 0-2-.9-2-2V3c0-1.1.9-2 2-2h32"/><path fill-rule="evenodd" clip-rule="evenodd" fill="#1F4972" d="M18.873 9.704c-.417-.787-.831-.738-1.973-.738l-.189.738h2.162Z"/><path fill-rule="evenodd" clip-rule="evenodd" fill="#1F4973" d="M23.61 10.803h.531v-.497h-.531v.497z"/><path fill-rule="evenodd" clip-rule="evenodd" fill="#1D4B73" d="M27.213 13.139h.55l.004-1.015.699 1.015.691-.002-.876-1.163.768-.929-.643.007-.643.816v-1.579h-.55v2.85z"/><path fill-rule="evenodd" clip-rule="evenodd" fill="#EF7A2A" d="M17.604 12.693h-.361v-.825h.292c.292 0 .6.106.6.396v.051c0 .251-.281.378-.531.378Zm-.361-1.942h.292c.248 0 .481.086.481.327v.069c0 .243-.325.309-.584.309h-.189v-.705Zm.789.929c.166-.105.203-.041.383-.219a.57.57 0 0 0 .167-.435v-.068c0-.437-.44-.652-.892-.652h-1.013v2.833h1.046c.545 0 .944-.274.944-.824a.654.654 0 0 0-.635-.635Z"/><path fill-rule="evenodd" clip-rule="evenodd" fill="#1F4973" d="M10.397 10.751h.257c.237 0 .366.131.463.275l.021.208-.005.017c0 .237-.258.377-.496.377h-.24v-.877Zm.308 1.324c.609 0 1.029-.323 1.029-.945 0-.669-.622-.824-1.303-.824h-.602v2.833h.568v-1.064h.308ZM21.619 13.139h1.665v-.446h-1.098v-2.387h-.567v2.833z"/><path fill-rule="evenodd" clip-rule="evenodd" fill="#1D4B73" d="M23.61 13.139h.549v-2.094h-.549v2.094zM25.274 12.023c0-.306.156-.602.463-.602h.035c.293 0 .326.306.326.602v1.116h.549v-1.253c0-.555-.201-.893-.755-.893h-.017c-.38 0-.452.191-.635.327v-.275h-.515v2.094h.549v-1.116Z"/><path fill-rule="evenodd" clip-rule="evenodd" fill="#1F4973" d="M12.472 12.521c0-.245.279-.344.533-.344h.308c0 .331-.167.618-.481.618h-.033c-.16 0-.327-.089-.327-.24v-.034Zm-.27-.911c.202-.047.268-.206.648-.206h.034c.298 0 .429.148.429.447h-.308c-.552 0-1.047.142-1.047.687v.069c0 .34.347.584.686.584h.086c.358 0 .432-.22.601-.343l.021.291h.476c0-.334.013-1.104-.03-1.395-.041-.263-.039-.366-.197-.524a.774.774 0 0 0-.493-.211h-.258c-.239 0-.511.072-.672.155l.024.446Z"/><path fill-rule="evenodd" clip-rule="evenodd" fill="#ED7B2B" d="M19.028 11.045c.076.171.79 2.164.79 2.232 0 .181-.137.343-.293.343h-.12l-.222-.032v.101c0 .225-.093.344.189.344h.274c.31 0 .528-.295.615-.518.106-.27.217-.546.314-.82.094-.272.206-.548.308-.825.049-.131.299-.729.308-.825h-.516c-.06 0-.117.287-.149.364a4.013 4.013 0 0 0-.131.383c-.048.161-.243.673-.252.781l-.518-1.528h-.597Z"/><path fill-rule="evenodd" clip-rule="evenodd" fill="#1D4B73" d="M14.103 11.045c.063.14.806 2.213.806 2.215 0 .19-.137.36-.326.36h-.086l-.223-.032-.038.41.449.061.035-.01c.123 0 .326-.121.398-.184.089-.078.165-.239.22-.348.1-.199.238-.589.316-.818.094-.278.202-.55.31-.823.057-.15.291-.712.301-.831h-.55l-.498 1.533c-.018-.116-.218-.628-.263-.788-.038-.137-.096-.26-.131-.386-.018-.064-.085-.359-.154-.359h-.566Z"/><path fill-rule="evenodd" clip-rule="evenodd" fill="#ED7B2B" d="m21.208 15.098.195-.704-2.135-.001c.008.094.196.336.261.391.158.131.227.158.43.239.269.109.866.075 1.249.075Z"/><path fill-rule="evenodd" clip-rule="evenodd" fill="#ED7A2B" d="M18.994 17.244c-.07-.06-.533-.27-.68-.367a3.563 3.563 0 0 1-.569-.479 3.615 3.615 0 0 1-.454-.594 4.376 4.376 0 0 1-.192-.34c-.055-.112-.102-.277-.165-.366h-5.079c-.45 0-2.249.047-2.509-.032-.405-.124-.552-.177-.77-.502a1.936 1.936 0 0 1-.291-.978v-3.314c0-.755.565-1.156 1.211-1.28.493-.092 1.84-.026 2.445-.026H16.9c1.142 0 1.556-.049 1.973.738h2.489l.021-.005-.21-.733c-.032-.036-.278-.577-.35-.697a3.75 3.75 0 0 0-.452-.596 3.839 3.839 0 0 0-.567-.48c-.086-.057-.663-.361-.674-.374-.123-.003-.464-.144-.651-.172-.235-.036-.437-.086-.721-.086H9.676c-1.03 0-2.176.568-2.689 1.087a3.693 3.693 0 0 0-1.104 2.675v3.384c0 1.041.556 2.138 1.067 2.674.549.575 1.507 1.121 2.621 1.121h8.083c.2 0 .562-.044.722-.086.128-.033.525-.164.618-.172Z"/><path fill-rule="evenodd" clip-rule="evenodd" fill="#1F4972" d="M19.13 6.819c.011.013.588.317.674.374.203.136.397.309.567.48.148.15.337.407.452.596.072.12.318.661.35.697h5.028c.511 0 2.135-.063 2.498.024.386.092.601.177.796.457.127.178.326.631.326.927v3.384c0 .785-.532 1.172-1.188 1.301-.518.102-1.811.039-2.449.039h-4.976c-.383 0-.98.034-1.249-.075-.203-.081-.272-.108-.43-.239-.065-.055-.252-.297-.261-.391h-2.524l.19.705c.063.089.11.254.165.365.063.12.122.234.192.341.139.211.279.421.454.594.181.18.349.334.569.479.147.097.61.307.68.367.125.01.502.156.73.197.271.047.54.078.848.078h7.756c1.068 0 2.21-.545 2.759-1.069a3.704 3.704 0 0 0 1.137-2.675v-3.452c0-1.036-.588-2.161-1.112-2.684a3.828 3.828 0 0 0-2.698-1.095h-7.876c-.167 0-.6.055-.748.092-.117.031-.233.055-.347.084-.115.028-.202.073-.313.099Z"/></svg>