<svg width="38" height="24" viewBox="0 0 38 24" fill="none" xmlns="http://www.w3.org/2000/svg" role="img" aria-labelledby="pi-payco"><title id="pi-payco">Payco</title><rect x="1" y="1" width="36" height="22" rx="2" fill="#fff"/><rect x=".5" y=".5" width="37" height="23" rx="2.5" stroke="#000" stroke-opacity=".07"/><path d="M5 9.778a.717.717 0 01.722-.722h1.96c1.566 0 2.512.928 2.512 2.273v.018c.002 1.516-1.184 2.305-2.654 2.305H6.444v1.363a.717.717 0 01-.722.722.717.717 0 01-.722-.722V9.778zm2.588 2.588c.722 0 1.144-.432 1.144-.995v-.018c0-.647-.45-.995-1.172-.995H6.444v2.005l1.144.003zM9.965 14.748l2.288-5.166a.893.893 0 01.845-.573h.084a.88.88 0 01.834.572l2.289 5.167c.045.09.07.189.075.29a.686.686 0 01-.686.695c-.338 0-.563-.196-.694-.497l-.441-1.032h-2.887l-.46 1.079a.709.709 0 01-.926.399.668.668 0 01-.411-.624.766.766 0 01.09-.31zm4.06-1.82l-.908-2.166-.91 2.167h1.818zM17.906 13.144l-2.119-2.878a.855.855 0 01-.177-.516.705.705 0 01.721-.694c.33 0 .535.178.713.441l1.59 2.298L20.26 9.48c.178-.268.394-.432.694-.432a.669.669 0 01.703.703.897.897 0 01-.187.507l-2.119 2.86v1.898a.722.722 0 01-1.444 0v-1.871zM21.701 12.414v-.019c0-1.871 1.406-3.395 3.423-3.395.986 0 1.651.267 2.2.668a.72.72 0 01.225.844.705.705 0 01-.657.432.758.758 0 01-.432-.14 2.159 2.159 0 00-1.337-.47c-1.107 0-1.904.92-1.904 2.044v.019c0 1.125.778 2.062 1.904 2.062.52.01 1.024-.173 1.417-.513a.669.669 0 11.862 1.023c-.59.515-1.285.824-2.335.824a3.315 3.315 0 01-3.366-3.379zM28.024 12.414v-.019c0-1.871 1.47-3.395 3.498-3.395 2.028 0 3.475 1.51 3.475 3.375v.019c0 1.871-1.47 3.395-3.498 3.395-2.028 0-3.475-1.509-3.475-3.375zm5.467 0v-.019c0-1.123-.82-2.058-1.988-2.058-1.167 0-1.969.92-1.969 2.044v.018c0 1.126.825 2.063 1.988 2.063s1.969-.917 1.969-2.048z" fill="#E7231E"/></svg>