<svg xmlns="http://www.w3.org/2000/svg" role="img" viewBox="0 0 38 24" width="38" height="24" aria-labelledby="pi-payd"><title id="pi-payd">payD</title><g clip-path="url(#a)"><path fill="#000" d="M35 0H3C1.3 0 0 1.3 0 3v18c0 1.7 1.4 3 3 3h32c1.7 0 3-1.3 3-3V3c0-1.7-1.4-3-3-3Z" opacity=".07"/><path fill="#fff" d="M35 1c1.1 0 2 .9 2 2v18c0 1.1-.9 2-2 2H3c-1.1 0-2-.9-2-2V3c0-1.1.9-2 2-2h32Z"/><path fill="url(#pi-payd-b)" d="M24.92 6.374a.497.497 0 0 0-.095.01l-.025.007-.013.004-.012.004a.265.265 0 0 0-.037.012.59.59 0 0 0-.102.057l-.01.007-.01.008-.009.007a.488.488 0 0 0-.18.377v10.329c.001.14.063.274.168.367l.011.01.01.006c.013.01.027.022.042.031l.06.033.02.009a.55.55 0 0 0 .068.02c.006.002.013.005.02.006a.43.43 0 0 0 .094.01h.628l.06-.048.006-.007.007-.007.38-.375 1.812-1.78v-.543l-.006.005V9.13l.006.005v-.542L26.529 7.33l-.908-.893-.007-.007-.007-.006a1.903 1.903 0 0 0-.059-.049h-.628Z"/><path fill="url(#pi-payd-c)" d="M24.922 6.369a.496.496 0 0 0-.329.126c.163-.089.462-.041.755.22l7 6.882c.301.297.467.716.41 1.1.082-.172.137-.366.137-.524V9.89c0-.274-.16-.656-.353-.849l-2.319-2.32a1.385 1.385 0 0 0-.85-.352h-4.451Z"/><path fill="url(#pi-payd-d)" d="m32.347 10.465-6.999 6.881c-.293.262-.592.31-.755.221a.498.498 0 0 0 .329.126h4.452c.273 0 .656-.158.85-.352l2.318-2.32a1.38 1.38 0 0 0 .353-.848V9.89c0-.158-.055-.352-.137-.526.057.385-.109.804-.41 1.101Z"/><path fill="#EA5E1E" d="M36.266 19.276a1.393 1.393 0 0 1-1.392 1.391H3.384a1.393 1.393 0 0 1-1.391-1.39V4.858a1.393 1.393 0 0 1 1.391-1.391h27.62l5.262 5.262v10.546Zm1.113.004V8.269l-5.915-5.915H3.38a2.513 2.513 0 0 0-2.5 2.5V19.28a2.512 2.512 0 0 0 2.504 2.5h31.49a2.512 2.512 0 0 0 2.505-2.5Z"/><path fill="#264078" d="M12.553 8.716a1.578 1.578 0 0 0-1.578 1.577v2.23a1.578 1.578 0 0 0 1.578 1.579h3.807V8.716h-3.807Zm-.274 3.808v-2.23a.274.274 0 0 1 .274-.275h2.23a.274.274 0 0 1 .274.274v2.23a.274.274 0 0 1-.274.274h-2.23a.274.274 0 0 1-.274-.274ZM4.908 8.716v7.512h1.286v-2.154c.095.018.192.028.292.028h2.23a1.578 1.578 0 0 0 1.577-1.579v-2.23a1.578 1.578 0 0 0-1.578-1.577H4.908Zm1.303 3.808v-2.23a.274.274 0 0 1 .275-.275h2.23a.274.274 0 0 1 .273.274v2.23a.274.274 0 0 1-.274.274h-2.23a.274.274 0 0 1-.274-.274Zm15.653-3.791-1.715 3.533-1.808-3.533h-1.446l2.55 4.982c-.02.056-.489 1.301-1.205 1.301h-1.343v1.218h1.87c.863 0 1.665-1.75 1.665-1.75l2.87-5.751h-1.438Z"/></g><defs><linearGradient id="pi-payd-b" x1="26.12" x2="26.12" y1="17.687" y2="6.375" gradientUnits="userSpaceOnUse"><stop stop-color="#EE8D17"/><stop offset=".203" stop-color="#EE8D17"/><stop offset="1" stop-color="#EF381F"/></linearGradient><linearGradient id="pi-payd-c" x1="32.629" x2="27.031" y1="14.769" y2="5.073" gradientUnits="userSpaceOnUse"><stop stop-color="#E6CF15"/><stop offset=".407" stop-color="#E6CF15"/><stop offset="1" stop-color="#EE8D17"/></linearGradient><linearGradient id="pi-payd-d" x1="25.371" x2="34.201" y1="18.491" y2="11.081" gradientUnits="userSpaceOnUse"><stop stop-color="#4D6FBF"/><stop offset=".849" stop-color="#253F77"/><stop offset="1" stop-color="#253F77"/></linearGradient><clipPath id="pi-payd-a"><path fill="#fff" d="M0 0h38v24H0z"/></clipPath></defs></svg>
