<svg viewBox="0 0 38 24" xmlns="http://www.w3.org/2000/svg" height="24" width="38" role="img" aria-labelledby="pi-payfast_instant_eft"><title id="pi-payfast_instant_eft">PayFast Instant EFT</title><path d="M35 0H3C1.3 0 0 1.3 0 3v18c0 1.7 1.4 3 3 3h32c1.7 0 3-1.3 3-3V3c0-1.7-1.4-3-3-3z" opacity=".07"/><path fill="#fff" d="M35 1c1.1 0 2 .9 2 2v18c0 1.1-.9 2-2 2H3c-1.1 0-2-.9-2-2V3c0-1.1.9-2 2-2h32"/><path d="M15.58 7.438H9.53v.557h5.96l.09-.557zm-.258 1.594H5.777v.557h9.454l.09-.557zm-.259 1.594H1.805v.557h13.168l.09-.557zm1.725-3.676c.015-.088.12-.192.224-.192h5.252c.089 0 .136.074.121.163l-.432 2.663c-.014.089-.098.148-.187.148h-2.47a.123.123 0 0 0-.121.104l-.135.828c-.01.06.043.104.087.104h1.169c.06 0 .096.044.087.103l-.438 2.693c-.012.074-.08.133-.14.133h-1.198c-.06 0-.11.045-.123.118l-.142.873c-.01.06.028.104.072.104h2.56c.103 0 .15.074.139.148l-.447 2.752a.201.201 0 0 1-.19.162H15.18c-.089 0-.148-.088-.132-.192l1.74-10.711zM23 6.965c.016-.103.107-.207.211-.207h5.326c.104 0 .166.074.151.163l-.418 2.574a.24.24 0 0 1-.223.193H25.65a.189.189 0 0 0-.19.163l-.143.887c-.013.074.022.133.126.133h1.124c.074 0 .151.074.139.148l-.435 2.678a.205.205 0 0 1-.204.163h-1.11c-.074 0-.164.103-.179.192l-.584 3.595c-.021.134-.107.207-.226.207h-2.574c-.074 0-.149-.088-.132-.192L23 6.965zm6.443 10.889a.175.175 0 0 1-.174-.207l1.254-7.723c.017-.103-.06-.177-.163-.177h-1.48c-.088 0-.173-.119-.158-.207l.427-2.634c.015-.089.069-.148.158-.148h6.332c.104 0 .183.06.163.178L35.38 9.54a.247.247 0 0 1-.24.207h-1.48c-.103 0-.19.074-.21.207l-1.253 7.708a.243.243 0 0 1-.238.192h-2.515z" fill="#23509f"/></svg>