<svg width="38" height="24" viewBox="0 0 38 24" fill="none" xmlns="http://www.w3.org/2000/svg" version="1.1" aria-labelledby="pi-payflex" role="img"><title id="pi-payflex">Payflex</title><path opacity=".07" d="M35 0H3C1.3 0 0 1.3 0 3v18c0 1.7 1.4 3 3 3h32c1.7 0 3-1.3 3-3V3c0-1.7-1.4-3-3-3z" fill="#000"/><path d="M35 1c1.1 0 2 .9 2 2v18c0 1.1-.9 2-2 2H3c-1.1 0-2-.9-2-2V3c0-1.1.9-2 2-2h32z" fill="#fff"/><g opacity=".5" fill="#002751"><path opacity=".5" d="M9.558 8.155zm-.952 6.539a.764.764 0 001.079 0l.068-.077-.068.077a.764.764 0 01-1.079 0zM3.13 8.35zm6.556.96a.764.764 0 000-1.079L9.6 8.155l.085.076a.764.764 0 010 1.079zM3.35 14.796a.774.774 0 00.704.06.748.748 0 01-.704-.06zM4.3 8.23a.764.764 0 00-1.078 0 .764.764 0 011.079 0z"/><path opacity=".5" d="M3.41 13.437a4.9 4.9 0 011.052-.713c.342-.16.7-.28 1.07-.357a4.629 4.629 0 000-1.809 4.795 4.795 0 01-1.07-.356 4.357 4.357 0 01-1.053-.714l-.187-.178a.594.594 0 01-.11-.144c.032.051.069.1.11.144l.162.178a3.049 3.049 0 010 3.95l-.162.178.187-.179zm6.334 1.18a.764.764 0 00.068-.848.747.747 0 01-.068.849z"/><path opacity=".5" d="M3.086 13.803a.764.764 0 00.136.891l.128.102a.764.764 0 01-.263-.994zm5.342-3.601c-.341.16-.7.28-1.07.357a4.629 4.629 0 000 1.808c.37.077.729.196 1.07.357.39.184.75.424 1.07.713l.187.179a.677.677 0 01.127.178 1.164 1.164 0 00-.127-.178l-.127-.179a3.049 3.049 0 010-3.949l.16-.178-.186.178a4.899 4.899 0 01-1.104.714zm-3.236-.714c.161.342.28.701.357 1.07a4.627 4.627 0 001.809 0c.076-.369.196-.728.357-1.07.183-.39.424-.75.713-1.07l.178-.186-.178.161a3.049 3.049 0 01-3.966 0l-.161-.161.161.186a4.9 4.9 0 01.73 1.07zm2.523 3.95c-.16-.342-.28-.701-.357-1.07a4.627 4.627 0 00-1.809 0c-.076.369-.196.728-.357 1.07a4.355 4.355 0 01-.73 1.07l-.178.186.178-.161a3.049 3.049 0 013.949 0l.178.161-.178-.187a4.898 4.898 0 01-.696-1.07z"/></g><path d="M9.498 9.488l.187-.178a.764.764 0 000-1.078L9.6 8.155a.756.756 0 00-.85 0 .637.637 0 00-.152.11l-.178.187a4.9 4.9 0 00-.714 1.07c-.16.342-.28.701-.356 1.07a4.8 4.8 0 001.07-.356c.39-.2.754-.451 1.078-.748zm-5.036-1.07l-.161-.186a.764.764 0 00-1.079 0 1.137 1.137 0 00-.093.118.764.764 0 000 .85c.032.051.069.1.11.144l.187.178a4.9 4.9 0 001.036.68c.342.16.7.28 1.07.357a4.797 4.797 0 00-.357-1.07 4.9 4.9 0 00-.713-1.07zm5.223 5.198l-.187-.179a4.9 4.9 0 00-1.07-.713 4.8 4.8 0 00-1.07-.357c.076.37.196.729.357 1.07.183.39.424.751.713 1.07l.178.187a.764.764 0 001.079 0l.068-.076a.764.764 0 00.068-.85l-.136-.152zm-6.276-.179l-.187.179a.764.764 0 000 1.079l.128.101a.773.773 0 00.95-.102l.162-.187c.284-.323.524-.683.713-1.07.161-.341.28-.7.357-1.07a4.8 4.8 0 00-1.07.357c-.38.191-.734.43-1.053.713zm11.575-2.505a1.35 1.35 0 00-.22-.458 1.052 1.052 0 00-.374-.323 1.18 1.18 0 00-.535-.119 1.13 1.13 0 00-.552.127c-.147.08-.272.194-.366.332-.095.142-.164.3-.203.467a2.31 2.31 0 00-.068.535c0 .186.024.37.068.552.04.167.113.326.212.467a1.112 1.112 0 00.943.458c.192.007.382-.037.552-.127.144-.084.266-.2.356-.34.094-.148.16-.312.196-.484a2.39 2.39 0 00.06-.552c.003-.18-.02-.36-.069-.535zm-2.293-1.384v.526a.943.943 0 01.493-.467c.236-.1.49-.15.747-.144.27-.009.537.046.781.161a1.7 1.7 0 01.56.45c.153.195.265.417.332.654a2.82 2.82 0 010 1.563c-.07.233-.183.452-.331.645a1.548 1.548 0 01-.552.434 1.86 1.86 0 01-.781.16 1.54 1.54 0 01-.323 0 1.256 1.256 0 01-.348-.101 1.249 1.249 0 01-.586-.476v1.996h-.637V9.548h.645zm6.047 1.91a.764.764 0 01-.314.128l-.374.043-.433.059a1.745 1.745 0 00-.39.11.645.645 0 00-.281.213.577.577 0 00-.11.373.543.543 0 00.23.442.663.663 0 00.236.093c.097.01.193.01.29 0 .184.006.368-.023.543-.085a1.02 1.02 0 00.577-.5.747.747 0 00.068-.29v-.585h-.042zm1.01 1.962a.848.848 0 01-.458.094.536.536 0 01-.39-.136.593.593 0 01-.145-.459c-.163.201-.373.359-.612.459-.24.094-.497.14-.756.136a1.924 1.924 0 01-.5-.06 1.129 1.129 0 01-.408-.186.85.85 0 01-.272-.332 1.121 1.121 0 01-.102-.5c-.008-.188.03-.375.11-.544a.849.849 0 01.298-.34c.128-.09.272-.156.424-.195a4.96 4.96 0 01.484-.11l.502-.077c.14-.013.28-.039.416-.076a.712.712 0 00.288-.145.347.347 0 00.102-.272.646.646 0 00-.076-.34.5.5 0 00-.204-.195.991.991 0 00-.28-.093h-.306a1.384 1.384 0 00-.68.153.662.662 0 00-.297.586h-.636a1.35 1.35 0 01.152-.612 1.25 1.25 0 01.357-.399c.157-.106.333-.18.518-.22.204-.046.412-.068.62-.069.175-.012.351-.012.527 0 .163.023.321.075.467.153a.849.849 0 01.34.323c.091.166.135.354.127.543v1.996c-.012.11-.012.221 0 .332 0 .067.06.101.178.101.065.01.13.01.195 0v.51l.017-.026zm1.996.535a6.947 6.947 0 01-.22.485 1.696 1.696 0 01-.239.322.715.715 0 01-.297.179c-.12.038-.247.059-.373.059h-.23a1.032 1.032 0 01-.22-.051v-.603l.195.068h.187a.602.602 0 00.33-.093.568.568 0 00.196-.264l.263-.654L19.8 9.565h.722l1.138 3.176 1.087-3.176h.68l-1.682 4.39zm1.843-3.838v-.57h.654V8.97a.952.952 0 01.271-.721 1.18 1.18 0 01.799-.247h.204l.178.06v.552l-.178-.043h-.179a.612.612 0 00-.356.094.407.407 0 00-.128.348v.543h.748v.56h-.756v3.321h-.637v-3.329h-.654l.034.009zm2.65-2.047h.636v5.367h-.637V8.07zm4.076 2.624a1.127 1.127 0 00-.23-.348.96.96 0 00-.348-.23 1.078 1.078 0 00-.441-.084 1.12 1.12 0 00-.45.085.976.976 0 00-.34.238 1.373 1.373 0 00-.23.348c-.051.136-.086.28-.101.425h2.233c0-.15-.032-.297-.093-.434zm.153 2.463a1.75 1.75 0 01-1.096.331 1.956 1.956 0 01-.807-.152 1.596 1.596 0 01-.577-.425 1.819 1.819 0 01-.348-.646 3.557 3.557 0 01-.136-.849c-.009-.289.037-.577.136-.849a1.852 1.852 0 01.96-1.062c.229-.104.478-.156.73-.152a1.57 1.57 0 01.849.212c.222.138.41.324.552.543.136.223.233.467.289.722.05.246.073.497.068.748H28.18c-.006.163.014.327.06.484a1.07 1.07 0 00.603.688c.174.072.363.106.552.101a1.07 1.07 0 00.662-.186.9.9 0 00.34-.57h.628a1.494 1.494 0 01-.56 1.062zm.68-3.61h.823l.925 1.368.969-1.367h.772l-1.341 1.792 1.503 2.097h-.816l-1.087-1.605-1.078 1.605h-.773l1.452-2.046-1.35-1.843z" fill="#002751"/></svg>