<svg xmlns="http://www.w3.org/2000/svg" role="img" viewBox="0 0 38 24" width="38" height="24" aria-labelledby="pi-payid"><title id="pi-payid">PayID</title><path opacity=".07" d="M35 0H3C1.3 0 0 1.3 0 3v18c0 1.7 1.4 3 3 3h32c1.7 0 3-1.3 3-3V3c0-1.7-1.4-3-3-3Z" fill="#000"/><path d="M35 1c1.1 0 2 .9 2 2v18c0 1.1-.9 2-2 2H3c-1.1 0-2-.9-2-2V3c0-1.1.9-2 2-2h32Z" fill="#fff"/><path d="M6.246 9.328h1.93c.34 0 .645.032.917.091.272.062.507.162.7.304.195.14.345.32.453.539.105.219.157.481.157.79 0 .33-.061.607-.182.83a1.493 1.493 0 0 1-.498.542c-.21.136-.452.237-.73.299a4.09 4.09 0 0 1-.886.09h-.81v2.464h-1.05V9.328Zm1.788 2.598c.17 0 .338-.012.493-.039.155-.025.294-.07.418-.135a.761.761 0 0 0 .292-.264.79.79 0 0 0 .11-.439.751.751 0 0 0-.11-.424.758.758 0 0 0-.288-.256 1.205 1.205 0 0 0-.408-.121c-.153-.02-.31-.03-.473-.03h-.77v1.706h.736v.002ZM13.311 14.765h-.025c-.1.18-.262.327-.484.441a1.643 1.643 0 0 1-.76.174c-.162 0-.329-.021-.504-.064a1.508 1.508 0 0 1-.484-.21 1.214 1.214 0 0 1-.368-.386 1.116 1.116 0 0 1-.146-.594c0-.303.085-.543.256-.723.171-.18.388-.318.655-.411.267-.096.564-.158.89-.19.327-.03.644-.045.957-.045v-.1c0-.252-.092-.439-.272-.56a1.137 1.137 0 0 0-.648-.18c-.213 0-.416.045-.61.134a1.651 1.651 0 0 0-.484.327l-.518-.614c.229-.213.491-.372.79-.48.299-.107.6-.16.906-.16.356 0 .65.05.881.151.23.1.414.233.548.395.135.162.226.345.281.546.053.2.08.404.08.605v2.454h-.936l-.005-.51Zm-.015-1.328h-.226c-.163 0-.332.007-.51.02a2.311 2.311 0 0 0-.493.092 1.06 1.06 0 0 0-.376.2.448.448 0 0 0-.151.36c0 .095.02.175.064.239a.48.48 0 0 0 .162.155.762.762 0 0 0 .226.085c.084.016.167.025.251.025.345 0 .607-.092.785-.277.178-.184.268-.438.268-.755v-.144ZM14.544 11.243h1.112l1.118 2.934h.016l.993-2.934h1.043l-1.896 4.899c-.073.185-.151.35-.233.49a1.296 1.296 0 0 1-.302.361 1.204 1.204 0 0 1-.413.224c-.157.05-.349.076-.573.076-.084 0-.169-.005-.255-.012a1.805 1.805 0 0 1-.263-.046l.082-.874a1.243 1.243 0 0 0 .377.057.767.767 0 0 0 .267-.039.417.417 0 0 0 .183-.118.872.872 0 0 0 .134-.197c.04-.077.08-.17.126-.276l.2-.513-1.716-4.032ZM29.368 5.966h-6.693a2.771 2.771 0 0 0-2.762 2.78v6.736a2.771 2.771 0 0 0 2.762 2.78h6.693a2.771 2.771 0 0 0 2.762-2.78V8.744a2.77 2.77 0 0 0-2.762-2.778Zm-4.278 2.99.347-.043c.03-.003.729-.087 1.539.084 1.12.237 1.913.842 2.294 1.75l-.728.31c-.518-1.24-1.988-1.38-2.662-1.375v3.686h-.79V8.956Zm-2.492.504a.592.592 0 1 1 1.182 0 .592.592 0 1 1-1.182 0Zm6.866 3.383c-.043.281-.107.535-.19.731-.534 1.265-1.782 1.906-3.707 1.906h-2.803v-4.387h.79v3.593h2.011c1.577 0 2.582-.48 2.98-1.422a2.1 2.1 0 0 0 .115-.42h-.655l1.128-1.425 1.13 1.427-.799-.002Z" fill="#000"/></svg>