<svg role="img" xmlns="http://www.w3.org/2000/svg" width="38" height="24" aria-labelledby="pi-payitmonthly" viewBox="0 0 38 24"><title id="pi-payitmonthly">PayItMonthly</title><rect x="1" y="1" width="36" height="22" rx="2" ry="2" fill="#9c82bb"/><path d="M35 1a2 2 0 012 2v18a2 2 0 01-2 2H3a2 2 0 01-2-2V3a2 2 0 012-2h32m0-1H3C1.35 0 0 1.35 0 3v18c0 1.66 1.35 3 3 3h32c1.66 0 3-1.35 3-3V3c0-1.66-1.35-3-3-3z" fill="#1d1d1b" opacity=".07"/><path d="M23.51 8.02h-.59c-.15 0-.26.12-.26.26v.76c0 .15.12.26.26.26h.59a3.92 3.92 0 013.92 3.92v6.09h-3.08v-3.95c0-.15-.12-.26-.26-.26h-.76c-.15 0-.26.12-.26.26v3.95h-3.08v-3.95c0-.15-.12-.26-.26-.26h-.76c-.15 0-.26.12-.26.26v3.95h-3.08v-5.48c2.87 0 5.2-2.33 5.21-5.21V4.04c0-.36-.3-.66-.66-.66h-5.4c-3.03 0-5.49 2.46-5.49 5.49v7.86c0 1.71 1.12 3.21 2.75 3.7.2.06.4-.05.46-.25.01-.04.02-.07.02-.11v-.57c0-.16-.1-.3-.25-.35a2.584 2.584 0 01-1.69-2.42V8.87a4.2 4.2 0 014.2-4.2h4.78v3.96a3.92 3.92 0 01-3.92 3.92h-1.29v7.79c0 .15.12.26.26.26h13.86c.15 0 .26-.12.26-.26v-7.11c0-2.88-2.33-5.21-5.21-5.21z" fill="#fff"/><circle cx="14.98" cy="8.67" r=".84" fill="#fff"/></svg>