<svg viewBox="0 0 38 24" xmlns="http://www.w3.org/2000/svg" role="img" width="38" height="24" aria-labelledby="pi-payjustnow"><title id="pi-payjustnow">PayJustNow</title><path opacity=".07" d="M35 0H3C1.3 0 0 1.3 0 3v18c0 1.7 1.4 3 3 3h32c1.7 0 3-1.3 3-3V3c0-1.7-1.4-3-3-3z"/><path fill="#fff" d="M35 1c1.1 0 2 .9 2 2v18c0 1.1-.9 2-2 2H3c-1.1 0-2-.9-2-2V3c0-1.1.9-2 2-2h32"/><path d="M13.6878 12.8108C13.6903 12.729 13.6764 12.6475 13.6468 12.5711C13.6172 12.4948 13.5727 12.4252 13.5157 12.3664C13.4587 12.3076 13.3905 12.2609 13.3151 12.229C13.2397 12.1971 13.1587 12.1806 13.0769 12.1806C12.995 12.1806 12.914 12.1971 12.8386 12.229C12.7632 12.2609 12.695 12.3076 12.638 12.3664C12.5811 12.4252 12.5365 12.4948 12.5069 12.5711C12.4773 12.6475 12.4634 12.729 12.4659 12.8108C12.4634 12.8926 12.4773 12.9741 12.5069 13.0505C12.5365 13.1268 12.5811 13.1965 12.638 13.2552C12.695 13.314 12.7632 13.3607 12.8386 13.3927C12.914 13.4246 12.995 13.441 13.0769 13.441C13.1587 13.441 13.2397 13.4246 13.3151 13.3927C13.3905 13.3607 13.4587 13.314 13.5157 13.2552C13.5727 13.1965 13.6172 13.1268 13.6468 13.0505C13.6764 12.9741 13.6903 12.8926 13.6878 12.8108ZM13.0719 13.8917C12.9279 13.895 12.7847 13.8696 12.6507 13.8168C12.5167 13.764 12.3946 13.6849 12.2916 13.5842C12.1885 13.4836 12.1067 13.3633 12.0508 13.2305C11.9949 13.0978 11.9661 12.9552 11.9661 12.8111C11.9661 12.6671 11.9949 12.5244 12.0508 12.3917C12.1067 12.2589 12.1885 12.1387 12.2916 12.038C12.3946 11.9373 12.5167 11.8582 12.6507 11.8054C12.7847 11.7526 12.9279 11.7272 13.0719 11.7305H14.1433V13.8917H13.0719Z" fill="black"/><path d="M16.5576 12.0403L15.1433 15.0192H14.6184L15.1929 13.8211L14.3589 12.0449C14.3439 12.0152 14.335 11.9827 14.3328 11.9495C14.3305 11.9162 14.335 11.8829 14.3459 11.8514C14.3567 11.8199 14.3738 11.7909 14.3961 11.7661C14.4184 11.7414 14.4454 11.7213 14.4756 11.7072C14.5055 11.6926 14.5381 11.6845 14.5714 11.6833C14.6047 11.6821 14.6378 11.6879 14.6687 11.7002C14.6996 11.7126 14.7276 11.7313 14.7509 11.7551C14.7742 11.7789 14.7922 11.8073 14.8039 11.8384L15.4664 13.257L16.129 11.8291C16.1422 11.7999 16.1611 11.7737 16.1846 11.752C16.2081 11.7303 16.2358 11.7135 16.2659 11.7027C16.2961 11.6919 16.3281 11.6873 16.3601 11.6891C16.392 11.691 16.4233 11.6992 16.452 11.7134C16.4807 11.7276 16.5063 11.7474 16.5271 11.7717C16.548 11.7959 16.5638 11.8242 16.5736 11.8547C16.5833 11.8852 16.5868 11.9173 16.5839 11.9492C16.581 11.9811 16.5716 12.012 16.5565 12.0403" fill="black"/><path d="M16.3486 13.8916V13.425H16.6728C16.9784 13.425 17.133 13.2558 17.1394 12.9461V10.6029H17.6328V12.9945C17.6328 13.5166 17.2479 13.8922 16.7218 13.8922L16.3486 13.8916Z" fill="black"/><path d="M18.9464 13.8917C18.3965 13.8917 17.9929 13.4781 17.9929 12.9193V11.7305H18.4624V12.9333C18.4624 13.0012 18.4757 13.0684 18.5017 13.1311C18.5277 13.1938 18.5657 13.2508 18.6137 13.2988C18.6617 13.3468 18.7187 13.3848 18.7814 13.4108C18.8441 13.4368 18.9113 13.4501 18.9791 13.4501C19.047 13.4501 19.1142 13.4368 19.1769 13.4108C19.2395 13.3848 19.2965 13.3468 19.3445 13.2988C19.3925 13.2508 19.4305 13.1938 19.4565 13.1311C19.4825 13.0684 19.4958 13.0012 19.4958 12.9333V11.7305H19.9659V13.8917H18.9464Z" fill="black"/><path d="M20.32 13.8917V13.4501H21.2829C21.3116 13.4516 21.3403 13.4473 21.3672 13.4374C21.3942 13.4274 21.4188 13.4121 21.4397 13.3923C21.4605 13.3725 21.4771 13.3487 21.4885 13.3223C21.4998 13.2959 21.5057 13.2674 21.5057 13.2387C21.5057 13.2099 21.4998 13.1815 21.4885 13.1551C21.4771 13.1287 21.4605 13.1049 21.4397 13.0851C21.4188 13.0653 21.3942 13.05 21.3672 13.04C21.3403 13.0301 21.3116 13.0257 21.2829 13.0272H20.9668C20.5818 13.0272 20.3001 12.7548 20.3001 12.3786C20.3001 12.0024 20.5818 11.7305 20.9668 11.7305H21.9407V12.1721H20.9866C20.9579 12.1706 20.9292 12.1749 20.9022 12.1849C20.8753 12.1948 20.8506 12.2102 20.8298 12.2299C20.8089 12.2497 20.7923 12.2736 20.781 12.3C20.7696 12.3264 20.7638 12.3548 20.7638 12.3836C20.7638 12.4123 20.7696 12.4407 20.781 12.4671C20.7923 12.4935 20.8089 12.5174 20.8298 12.5372C20.8506 12.5569 20.8753 12.5723 20.9022 12.5822C20.9292 12.5922 20.9579 12.5965 20.9866 12.595H21.9407V13.8917H20.32Z" fill="black"/><path d="M23.2561 13.4291C22.9504 13.4291 22.7953 13.2599 22.7895 12.9502V12.172H23.4934V11.7305H22.7906V11.0078H22.2972V12.9939C22.2972 13.5154 22.6827 13.8917 23.2088 13.8917H23.5797V13.425L23.2561 13.4291Z" fill="black"/><path d="M10.9156 12.1458C11.054 12.1412 11.1852 12.083 11.2814 11.9835C11.3777 11.884 11.4316 11.7509 11.4316 11.6124C11.4316 11.4739 11.3777 11.3408 11.2814 11.2413C11.1852 11.1417 11.054 11.0835 10.9156 11.0789H10.9109C10.8394 11.0766 10.7681 11.0886 10.7013 11.1144C10.6345 11.1401 10.5736 11.179 10.5222 11.2288C10.4708 11.2786 10.4299 11.3382 10.4019 11.4041C10.374 11.47 10.3596 11.5408 10.3596 11.6124C10.3596 11.684 10.374 11.7548 10.4019 11.8207C10.4299 11.8866 10.4708 11.9462 10.5222 11.996C10.5736 12.0457 10.6345 12.0847 10.7013 12.1104C10.7681 12.1361 10.8394 12.1482 10.9109 12.1458H10.9156ZM9.90601 13.8958V10.603H10.9441C11.0788 10.5997 11.2127 10.6234 11.3381 10.6728C11.4634 10.7221 11.5777 10.7959 11.674 10.89C11.7704 10.9841 11.847 11.0966 11.8993 11.2207C11.9516 11.3449 11.9785 11.4782 11.9785 11.613C11.9785 11.7477 11.9516 11.881 11.8993 12.0052C11.847 12.1293 11.7704 12.2418 11.674 12.3359C11.5777 12.43 11.4634 12.5039 11.3381 12.5532C11.2127 12.6025 11.0788 12.6262 10.9441 12.623H10.3988V13.8917L9.90601 13.8958Z" fill="black"/><path d="M25.2068 13.0692V11.4201C25.2068 11.1757 25.0423 11.0066 24.8219 11.0066C24.6014 11.0066 24.4317 11.1757 24.4317 11.4201V13.8916H23.9412V11.4458C23.9374 11.3286 23.9577 11.2118 24.0006 11.1027C24.0436 10.9936 24.1084 10.8944 24.1911 10.8113C24.2738 10.7281 24.3726 10.6628 24.4815 10.6192C24.5904 10.5757 24.707 10.5548 24.8242 10.558C25.3269 10.558 25.7025 10.929 25.7025 11.4458V13.0954C25.7005 13.1476 25.709 13.1996 25.7276 13.2484C25.7462 13.2972 25.7744 13.3417 25.8106 13.3794C25.8468 13.417 25.8902 13.4469 25.9382 13.4674C25.9862 13.4878 26.0379 13.4984 26.0901 13.4984C26.1423 13.4984 26.1939 13.4878 26.242 13.4674C26.29 13.4469 26.3334 13.417 26.3696 13.3794C26.4058 13.3417 26.434 13.2972 26.4526 13.2484C26.4711 13.1996 26.4796 13.1476 26.4776 13.0954V10.6029H26.971V13.0692C26.9651 13.2989 26.8697 13.5173 26.7051 13.6777C26.5406 13.8381 26.3199 13.9279 26.0901 13.9279C25.8603 13.9279 25.6396 13.8381 25.475 13.6777C25.3104 13.5173 25.215 13.2989 25.2091 13.0692" fill="black"/><path d="M28.4657 13.4688C28.6367 13.4637 28.799 13.3921 28.9181 13.2694C29.0373 13.1466 29.104 12.9822 29.104 12.8111C29.104 12.64 29.0373 12.4756 28.9181 12.3528C28.799 12.23 28.6367 12.1585 28.4657 12.1534H28.4563C28.2853 12.1585 28.123 12.23 28.0039 12.3528C27.8847 12.4756 27.8181 12.64 27.8181 12.8111C27.8181 12.9822 27.8847 13.1466 28.0039 13.2694C28.123 13.3921 28.2853 13.4637 28.4563 13.4688H28.4657ZM28.4563 13.9383C28.1573 13.9383 27.8706 13.8195 27.6592 13.6081C27.4478 13.3966 27.329 13.1098 27.329 12.8108C27.329 12.5117 27.4478 12.2249 27.6592 12.0135C27.8706 11.802 28.1573 11.6832 28.4563 11.6832H28.4657C28.7647 11.6832 29.0514 11.802 29.2628 12.0135C29.4743 12.2249 29.593 12.5117 29.593 12.8108C29.593 13.1098 29.4743 13.3966 29.2628 13.6081C29.0514 13.8195 28.7647 13.9383 28.4657 13.9383H28.4563Z" fill="black"/><path d="M7.43622 12.7204L7.89463 13.6367C7.90842 13.6636 7.91502 13.6936 7.91381 13.7237C7.91259 13.7539 7.90359 13.7832 7.88768 13.8089C7.87177 13.8346 7.84949 13.8557 7.82302 13.8702C7.79654 13.8847 7.76676 13.8921 7.73658 13.8917H5.73264C5.68624 13.8917 5.64174 13.8732 5.60892 13.8404C5.57611 13.8076 5.55768 13.7631 5.55768 13.7167V10.7797C5.55768 10.7333 5.57611 10.6887 5.60892 10.6559C5.64174 10.6231 5.68624 10.6047 5.73264 10.6047H8.66739C8.7138 10.6047 8.7583 10.6231 8.79111 10.6559C8.82393 10.6887 8.84236 10.7333 8.84236 10.7797V12.7874C8.84273 12.8177 8.83526 12.8475 8.82069 12.8739C8.80612 12.9004 8.78494 12.9227 8.75922 12.9385C8.7335 12.9544 8.70411 12.9633 8.67391 12.9644C8.64371 12.9656 8.61374 12.9588 8.58691 12.9449L7.67126 12.487C7.63855 12.4708 7.60159 12.4652 7.56556 12.4711C7.52953 12.4769 7.49622 12.4939 7.47031 12.5196C7.4444 12.5454 7.42719 12.5785 7.42108 12.6145C7.41496 12.6505 7.42026 12.6875 7.43622 12.7204Z" fill="black"/><path d="M32.4637 11.7305H32.9519L32.3226 13.6426C32.2567 13.8491 32.1476 13.9384 31.9937 13.9384C31.8397 13.9384 31.7306 13.8491 31.6554 13.6467L31.2751 12.5968L30.8943 13.6467C30.8197 13.8485 30.7158 13.9384 30.5613 13.9384C30.4067 13.9384 30.2983 13.8491 30.2324 13.6426L29.6077 11.7305H30.1145L30.5893 13.1772L30.9789 12.1272C31.0448 11.9487 31.1433 11.8734 31.2845 11.8734C31.4256 11.8734 31.5242 11.9487 31.5895 12.1272L31.9843 13.1941L32.4637 11.7305Z" fill="black"/><path d="M33.0867 13.5539C33.0952 13.554 33.1037 13.5523 33.1117 13.549C33.1196 13.5457 33.1267 13.5409 33.1327 13.5347C33.1389 13.5288 33.1437 13.5218 33.147 13.5139C33.1504 13.5061 33.152 13.4977 33.152 13.4892C33.1521 13.4805 33.1505 13.4719 33.1472 13.4639C33.1439 13.4558 33.139 13.4486 33.1327 13.4425C33.1269 13.4362 33.1197 13.4312 33.1118 13.4277C33.1039 13.4243 33.0953 13.4226 33.0867 13.4227C33.078 13.4224 33.0694 13.424 33.0614 13.4274C33.0534 13.4308 33.0463 13.436 33.0406 13.4425C33.0344 13.4486 33.0294 13.4558 33.0261 13.4639C33.0228 13.4719 33.0212 13.4805 33.0213 13.4892C33.0216 13.5064 33.0286 13.5228 33.0408 13.5349C33.053 13.5469 33.0695 13.5538 33.0867 13.5539ZM32.9519 13.754V13.3533H33.0802C33.1186 13.3514 33.1561 13.3649 33.1846 13.3906C33.1979 13.403 33.2083 13.4182 33.2151 13.435C33.222 13.4518 33.2251 13.4699 33.2243 13.488C33.2246 13.5132 33.2177 13.5379 33.2045 13.5593C33.1913 13.5806 33.1723 13.5978 33.1496 13.6088L33.2412 13.754H33.159L33.0762 13.6234H33.0213V13.754H32.9519ZM33.0767 13.8649C33.1309 13.8654 33.1842 13.8511 33.2307 13.8234C33.3003 13.7804 33.3505 13.7121 33.3711 13.6329C33.3916 13.5537 33.3808 13.4696 33.3409 13.3982C33.3147 13.3515 33.2767 13.3125 33.2307 13.285C33.1842 13.2575 33.1311 13.243 33.077 13.243C33.023 13.243 32.9699 13.2575 32.9234 13.285C32.8773 13.3122 32.8394 13.3513 32.8137 13.3982C32.7873 13.446 32.7735 13.4997 32.7735 13.5542C32.7735 13.6088 32.7873 13.6625 32.8137 13.7103C32.8399 13.757 32.8779 13.796 32.9239 13.8234C32.9702 13.8509 33.023 13.8652 33.0767 13.8649ZM33.0767 13.9384C33.0093 13.9379 32.9431 13.9199 32.8848 13.8859C32.8264 13.852 32.778 13.8034 32.7443 13.745C32.7106 13.6865 32.6927 13.6203 32.6925 13.5528C32.6923 13.4853 32.7098 13.4189 32.7431 13.3603C32.7855 13.2867 32.851 13.2292 32.9295 13.1967C33.0079 13.1642 33.0949 13.1585 33.1769 13.1806C33.2589 13.2027 33.3313 13.2513 33.3828 13.3188C33.4343 13.3864 33.462 13.469 33.4617 13.5539C33.4625 13.6047 33.453 13.6551 33.434 13.7021C33.4149 13.7492 33.3866 13.7919 33.3506 13.8277C33.3147 13.8636 33.272 13.8919 33.2249 13.9109C33.1779 13.9299 33.1275 13.9392 33.0767 13.9384Z" fill="black"/></svg>
