<svg viewBox="0 0 38 24" xmlns="http://www.w3.org/2000/svg" data-name="Layer 1" width="38" height="24" role="img" aria-labelledby="pi-paymark_online_eftpos"><title id="pi-paymark_online_eftpos">Paymark Online Eftpos</title><path d="M8.59 10.76c-1.92 0-2.4-1.71-2.4-3.82s.47-3.8 2.48-3.8 2.4 1.71 2.4 3.8-.47 3.82-2.48 3.82zm0-7.15C7.24 3.62 6.78 4.86 6.78 7s.46 3.33 1.85 3.33S10.48 9.05 10.48 7 10 3.62 8.63 3.62zm3.75-.3h.53v1.1a1.94 1.94 0 0 1 1.85-1.27 1.74 1.74 0 0 1 1.84 2v5.46h-.53V5.36c0-1.3-.54-1.74-1.45-1.74-1.11 0-1.74 1-1.74 2.31v4.67h-.53zM18.09.65h.53v9.95h-.53zm2.09 0h.53v1.42h-.53zm0 2.66h.53v7.29h-.53zm2.04 0h.53v1.1a1.94 1.94 0 0 1 1.85-1.27 1.74 1.74 0 0 1 1.84 2v5.46h-.53V5.36c0-1.3-.54-1.74-1.45-1.74-1.11 0-1.74 1-1.74 2.31v4.67h-.53zm6.1 3.61c0 1.17 0 3.37 1.71 3.37 1.53 0 1.78-1.53 1.78-2.08h.53a2.33 2.33 0 0 1-2.26 2.55c-1.88 0-2.35-1.53-2.35-4 0-2.23.79-3.61 2.44-3.61s2.27 1.42 2.27 3.78zm3.54-.47c0-1.32-.21-2.83-1.71-2.83s-1.83 1.88-1.83 2.82zM5.05 17.3c0 1.14 0 2.87 1.44 2.87 1.11 0 1.27-1.17 1.27-1.73h1.16a2.53 2.53 0 0 1-2.51 2.65c-1.83 0-2.59-1.27-2.59-3.83 0-1.87.36-4 2.66-4S9 15.23 9 16.83v.47zm2.7-.92V16c0-.84-.26-1.83-1.3-1.83-1.23 0-1.37 1.5-1.37 2v.28zm2.89-2.03H9.55v-.92h1.09v-.88c0-1.13.49-1.71 1.62-1.71h.85v1h-.54c-.5 0-.75.2-.75.71v.88h1.28v.92h-1.29v6.55h-1.17zm3.63-3.09h1.17v2.17h1.3v.92h-1.3v4.79c0 .6.15.84.77.84a3.61 3.61 0 0 0 .52 0v1a4.92 4.92 0 0 1-.95.08c-1.21 0-1.5-.5-1.5-1.48v-5.23h-1.09v-.92h1.09zm3.29 2.17h1.11v.92a1.69 1.69 0 0 1 1.62-1.11c1.77 0 2.44 1.57 2.44 3.79 0 1.7-.5 4.07-2.44 4.07a1.69 1.69 0 0 1-1.56-1v3.3h-1.17zm2.61 6.66c1.09 0 1.37-1.14 1.37-3.07 0-1.64-.28-2.79-1.37-2.79-1.3 0-1.5 1.23-1.5 2.93-.01 1.45.24 2.93 1.5 2.93zm6.2-6.85c2.16 0 2.69 1.83 2.69 3.93s-.54 3.93-2.69 3.93-2.69-1.83-2.69-3.93.54-3.93 2.69-3.93zm1.46 3.93c0-1.62-.24-3-1.49-3s-1.44 1.39-1.44 3 .24 3 1.44 3 1.49-1.39 1.49-3zm5.63-1.55c0-.95-.25-1.46-1.1-1.46a1.08 1.08 0 0 0-1.21 1.14c0 .88.92 1 1.84 1.35s1.83.63 1.83 2.1a2.19 2.19 0 0 1-2.41 2.34 2.29 2.29 0 0 1-2.56-2.65H31c0 .91.25 1.73 1.39 1.73a1.17 1.17 0 0 0 1.24-1.24c0-1-.92-1.21-1.83-1.52S30 16.85 30 15.3c0-1.39 1.09-2.06 2.38-2.06 2.17 0 2.26 1.5 2.27 2.38z" fill="#231f20"/></svg>