<svg width="38" height="24" viewBox="0 0 38 24" fill="none" xmlns="http://www.w3.org/2000/svg" role="img" aria-labelledby="pi-paymee"><title id="pi-paymee">Paymee</title><g clip-path="url(#pi-paymee-clip0)"><path d="M35 .5H3A2.5 2.5 0 00.5 3v18A2.5 2.5 0 003 23.5h32a2.5 2.5 0 002.5-2.5V3A2.5 2.5 0 0035 .5z" stroke="#000" stroke-opacity=".07"/><g clip-path="url(#pi-paymee-clip1)"><path d="M1 1h36v22H1V1z" fill="#FEFEFC"/><path d="M5.429 8.127l.284.023.284.069.593.275L9.147 9.73l.45.23.237.183.19.206.19.367.07.252.024.32-.047.321-.119.321-.19.275-.141.16-.308.207-.545.275-.403.183-.45.23-1.847.893-.024.023v.481l-.047.321-.095.206-.19.252-.189.16-.331.161-.095.023H4.86l-.237-.069-.237-.137-.166-.137-.19-.253-.094-.252-.024-.114v-1.604l-.023-.23V9.96l.023-.527.095-.343.19-.321.236-.252.332-.207.284-.114.166-.046.213-.023z" fill="#0A4F9E"/><path d="M4.813 10.854h.403l.213.046.213.092.26.183.214.298.095.298.023.733v2.154l-.047.321-.095.206-.19.252-.189.16-.331.161-.095.023H4.86l-.237-.069-.237-.137-.166-.137-.19-.253-.094-.252-.024-.114v-1.467l.024-.32v-1.49l.047-.115.119-.114.165-.184.19-.137.213-.092.142-.046z" fill="#1E3B7D"/><path d="M28.426 9.548h.545l.284.069.332.16.237.183.165.16.19.299.095.229.047.183v.413l-2.747.023.047.206.095.23.19.251.236.16.19.092.189.046h.426l.38-.114.189-.138.166-.183.118-.184.071-.022.379.022-.095.23-.19.275-.212.206-.26.16-.285.115-.19.046h-.568l-.237-.046-.355-.184-.26-.206-.214-.252-.19-.367-.07-.32v-.436l.094-.343.214-.344.213-.23.284-.206.308-.137.19-.046zM32.003 9.548h.52l.285.069.379.183.284.252.19.23.189.389.024.183v.39l-2.771.023.118.344.142.229.19.183.236.138.285.091h.426l.284-.069.237-.137.166-.16.118-.16.024-.093.474-.022-.072.206-.165.275-.142.16-.285.206-.284.138-.284.069h-.568l-.19-.046-.19-.069-.236-.137-.237-.207-.19-.206-.165-.275-.095-.298-.024-.16v-.275l.071-.39.19-.367.26-.275.213-.183.356-.183.237-.046z" fill="#050406"/><path d="M23.358 9.548h.213l.332.069.237.137.189.16.095.138h.07l.19-.229.237-.16.237-.092.142-.023h.237l.331.069.332.16.166.138.166.229.118.252.047.298v1.764l-.047.16-.403-.022-.023-2.017-.095-.275-.166-.206-.166-.092-.213-.046h-.19l-.212.046-.214.138-.165.16-.095.207-.024 2.108h-.213l-.213-.023-.024-1.925-.047-.252-.166-.23-.19-.137-.165-.069-.142-.023h-.213l-.214.07-.19.137-.141.229-.048.114-.023.138-.024 1.97h-.426v-1.993l.095-.367.118-.206.213-.229.213-.138.19-.091.284-.046z" fill="#07070A"/><path d="M13.174 9.96h.497l.26.092.237.16.19.184.142.229.095.275v.412l-.095.298-.142.23-.071.091h-.048l-.023.069-.237.16-.332.115-.331.023-.308-.069-.19-.091-.213-.16-.19-.253-.094-.183-.071-.275v-.298l.071-.275.119-.23.26-.274.19-.138.284-.092z" fill="#FDFDFC"/><path d="M16.892 9.938h.237l.213.045.237.092.237.183.19.23.118.274.023.092v.481l-.07.23-.143.252-.19.206-.212.137-.237.092-.095.023h-.403l-.308-.092-.236-.16-.19-.183-.142-.23-.095-.297V10.9l.095-.298.166-.252.19-.183.284-.16.331-.07z" fill="#FCFDFC"/><path d="M13.197 9.548h.332l.308.046.308.114.26.16.285.276.189.32.071.138.071.367v.298l-.095.39-.165.32-.19.23-.166.16-.308.183-.355.115-.095.023h-.402l-.403-.092-.331-.183-.261-.207v1.421l-.024.023h-.379V10.9l.072-.344.189-.32.213-.253.237-.183.379-.183.26-.069zm-.023.412l-.284.092-.214.16-.165.161-.143.206-.094.275-.024.115v.298l.071.275.119.229.165.206.284.206.285.092.308.023.331-.069.284-.137.143-.115v-.046l.07-.023.166-.252.095-.229.024-.114V10.9l-.119-.32-.165-.23-.19-.183-.284-.16-.166-.047h-.497z" fill="#050507"/><path d="M16.774 9.548h.379l.331.069.284.114.261.184.237.229.19.298.094.252.024.16v1.742l-.024.023-.379-.023v-.413l-.19.16-.236.161-.284.115-.214.046h-.544l-.285-.07-.331-.182-.237-.207-.166-.183-.142-.23-.118-.343-.024-.137v-.39l.095-.367.166-.32.26-.298.284-.207.26-.114.309-.069zm.118.39l-.331.068-.285.16-.213.207-.166.275-.07.252v.413l.094.297.166.253.213.206.26.137.237.07h.403l.284-.093.19-.114.19-.16.165-.253.095-.206.023-.114v-.482l-.094-.275-.142-.206-.166-.183-.26-.16-.19-.07-.166-.022h-.237z" fill="#050406"/><path d="M3.937 13.215l.047.091.19.344.213.23.19.16.33.183.333.092h.426l.237-.046.237-.092h.07l.024.252v.23l-.047.32-.095.206-.19.252-.189.16-.331.161-.095.023H4.86l-.237-.069-.237-.137-.166-.137-.19-.253-.094-.252-.024-.114v-1.467l.024-.137z" fill="#719DD6"/><path d="M19.024 9.617h.426l.071.091.119.321.118.275.332.802.118.298.118.275.095.206v.07h.047l.024-.138.095-.184.118-.275.119-.298.094-.183.095-.23.119-.297.118-.23.142-.366.071-.137h.45l-.07.206-.285.642-.45 1.03-.403.94-.355.803-.118.297-.048.092-.047.023h-.403l.024-.138.26-.618.119-.344-.024-.183-.284-.688-.521-1.283-.284-.71v-.07z" fill="#050507"/><path d="M28.45 9.96h.545l.284.092.237.16.19.184.189.366.024.115-.522.023h-1.752l-.095-.023.071-.252.142-.23.142-.16.237-.16.213-.092.095-.023zM32.003 9.96h.568l.26.092.214.138.142.114.166.23.118.297v.046l-.568.023H31.15l-.047-.023.07-.23.096-.182.213-.23.213-.16.237-.092.07-.023z" fill="#FAFBFB"/></g></g><defs><clipPath id="pi-paymee-clip0"><path fill="#fff" d="M0 0h38v24H0z"/></clipPath><clipPath id="pi-paymee-clip1"><rect x="1" y="1" width="36" height="22" rx="2" fill="#fff"/></clipPath></defs></svg>