<svg width="38" height="24" viewBox="0 0 38 24" fill="none" xmlns="http://www.w3.org/2000/svg" role="img" aria-labelledby="pi-paynuno"><title id="pi-paynuno">Paynuno</title><g clip-path="url(#pi-paynuno-clip0)"><path d="M35 .5H3A2.5 2.5 0 00.5 3v18A2.5 2.5 0 003 23.5h32a2.5 2.5 0 002.5-2.5V3A2.5 2.5 0 0035 .5z" stroke="#000" stroke-opacity=".07"/><g clip-path="url(#pi-paynuno-clip1)"><path d="M1 1h36v22H1V1z" fill="#090913"/><path d="M16.845 9.135h1.302l.119.275v.07h.047l.142.343.024.114h.047l.071.184v.069h.048l.047.206h.047l.048.206h.047l.047.206h.048l.118.298.024.115h.047l.024.16h.047l.048.207h.047l.047.206h.048l.024.16h.047l.047.206h.048l.07.16.072.184.047.023.024-.412.024-.023.023-.253.048-.16.047-.435.024-.023.023-.275h.048l.023-.298.142-.802.024-.252.047-.138.072-.298.473-.023h.616l-.166 1.123-.047.436h-.047l-.024.298-.355 2.154-.143.893-.047.138-1.232.023-.07-.069-.285-.55-.07-.114-.095-.23v-.068h-.048l-.166-.39-.023-.091h-.048l-.095-.23-.094-.206-.19-.344-.094-.229v-.069h-.048l-.118-.275-.095-.16-.071-.206-.047-.023v.229h-.048l-.023.275-.143.917-.047.412h-.047l-.024.252-.19 1.031-.047.115-1.018.023-.024-.023.024-.206.142-.871.237-1.49.165-1.054.166-1.1.024-.298.024-.023z" fill="#FCFDFD"/><path d="M4.766 9.113h2.131l.45.068.38.115.213.137.165.138.166.252.119.367.023.16v.344l-.07.366-.143.344-.166.252-.213.23-.166.16-.331.183-.332.138-.474.091-.213.023h-.9l-.118.688-.142.916-.048.138H3.89v-.16l.213-1.238.19-1.214.236-1.444.142-.894.047-.138.048-.022z" fill="#00C5E7"/><path d="M32.05 10.19h.332l.497.045.403.138v.046h.07v.046h.072l.284.275v.068h.047v.07h.048l.047.114v.068h.047l.072.275v.092h.047v.642l-.119.504-.142.435-.094.184h-.048l-.023.114-.048.023-.023.069h-.048l-.024.092-.094.091-.166.184-.095.022-.023.07h-.072l-.023.068h-.071v.046l-.403.183-.355.092-.166.023h-.71l-.332-.069-.308-.115-.166-.091-.166-.184-.07-.045v-.07h-.048v-.068h-.047l-.143-.367-.07-.297v-.596l.07-.436.119-.343.166-.321.095-.138.023-.069h.047l.024-.091.142-.184h.048l.047-.091.19-.138h.07v-.046h.072v-.045l.379-.16.378-.092.261-.023z" fill="#FBFDFD"/><path d="M28.924 5.606h.781l.545.069.45.115.355.137.403.206.308.23.237.229.236.343.19.39.118.344.072.275.07.55v.527l-.07.481-.143.046-.52.092-.474.137h-.095l-.024-.55-.07-.527-.143-.413-.213-.39-.213-.251-.166-.16-.332-.23-.379-.183-.379-.115-.568-.091h-.663l-.71.091-.64.138-.616.183-.521.206-.568.252-.687.344-.474.275-.379.23-.592.389-.568.412-.285.253h-.094l.023-.092.285-.298.213-.252.26-.275.569-.55.19-.16.33-.276.403-.32.427-.298.497-.321.497-.275.616-.298.616-.23.616-.183.52-.114.498-.069.26-.023z" fill="#00C5E7"/><path d="M10.118 10.167h.616l.427.091.284.138.213.16.166.252.118.298v.39l-.355 2.406-.048.298-.023.023-.284.023h-.806l-.023-.023.023-.413-.118.115-.19.16-.331.16-.26.07-.214.023H9.1l-.284-.046-.26-.092-.214-.16-.166-.252-.047-.161v-.458l.095-.344.19-.32.165-.184.331-.207.308-.114.569-.115.781-.137.119-.023.024-.183v-.252l-.072-.184-.142-.069h-.473l-.214.07-.118.137-.095.275-.023.023h-.995l-.024-.115.142-.39.166-.275.237-.229.308-.183.331-.115.38-.068z" fill="#00C4E7"/><path d="M15.258 10.213h1.09l-.024.114-.308.619-.26.527-.285.573-.45.894-.379.756-.237.435-.284.482-.237.366-.237.298-.26.252-.237.138-.332.114-.189.046h-.403l-.26-.069-.047-.068.023-.298.047-.436.024-.046.19.023.284.023.237-.091.19-.16.141-.23.024-.069v-.229l-.308-1.467-.284-1.329-.213-1.054.023-.092h.498l.687.023.047.138.237 1.581.118.963.024.229.26-.596.308-.688.26-.572.427-.94.071-.138.024-.022z" fill="#00C5E7"/><path d="M21.818 10.258l1.066.023-.118.871-.213 1.42v.574h.047l.024.091.118.092.095.046h.45l.166-.023v-.046l.165-.068.166-.207h.048l.07-.206.095-.39.119-.687.024-.275.023-.023.071-.458.024-.298.047-.16.024-.23.024-.023h1.113l-.048.367-.308 1.856-.213 1.306-.047.298-.024.046-.355.023h-.64l-.023-.114.07-.367-.07.023-.166.183-.118.092-.024.046h-.071v.045h-.071v.046l-.355.115-.332.046h-.213l-.38-.046-.236-.046-.071-.046v-.046l-.095-.023-.118-.114v-.069h-.047l-.095-.183-.024-.23h-.047v-.55l.023-.16h.048v-.32l.023-.024.237-1.466.095-.619.047-.092z" fill="#FCFDFD"/><path d="M28.142 10.19h.592l.38.091.046.023v.046h.072v.046l.094.023.095.091v.07h.047l.119.297.047.252-.024.39-.165 1.123-.166 1.03-.071.436-.071.046h-.995l-.024-.091.19-1.26.095-.528.047-.367h.047l-.023-.435-.024-.115h-.047v-.068l-.095-.046-.024-.069-.142-.046h-.402l-.261.023v.046l-.119.046-.094.114-.071.07-.119.251-.094.413-.166 1.008-.142.963-.071.114h-1.019l-.023-.023.023-.275.048-.504.07-.458h.048l.024-.298.213-1.398.118-.733.024-.207.118-.023.924.023v.092h-.047l-.024.32-.047.138.094-.023.024-.114.19-.184.331-.183.213-.092.237-.045z" fill="#FBFDFD"/><path d="M30.487 14.842l.07.023-.046.091-.214.207-.19.16-.378.298-.569.367-.426.229-.592.275-.521.183-.568.16-.593.115-.592.069h-.994l-.64-.092-.45-.114-.616-.253-.355-.206-.379-.298-.284-.298-.26-.366-.143-.23.071-.022.19.16.142.16.332.252.236.16.593.276.45.137.378.07.498.045h.379l.52-.046.522-.091.545-.138.64-.23.45-.205.496-.275.38-.252.378-.276.498-.022 1.042-.023z" fill="#0154A5"/><path d="M31.979 11.014h.284l.213.046v.046l.142.046.072.115.07.068.072.298v.459l-.024.32-.118.367-.119.23h-.047v.068h-.048v.069l-.118.114-.095.023-.023.069h-.095v.046l-.166.023h-.403l-.213-.046v-.046h-.047v-.046h-.047l-.095-.091V13.1h-.048l-.07-.23v-.572l.047-.298.094-.275.143-.275h.047v-.069h.047l.024-.091.118-.115h.071v-.046l.214-.092.118-.023z" fill="#090D18"/><path d="M5.737 10.052h.9l.213.046.19.114.094.115.071.23v.32l-.094.298-.19.206-.284.138-.237.046-.308.023H5.5l.213-1.513.024-.023zM10.521 12.412h.142l-.047.321-.095.275-.118.184-.19.16-.213.092-.095.023h-.379l-.142-.07-.07-.09-.025-.092v-.184l.071-.206.095-.115.237-.114.71-.16.119-.024z" fill="#0A0913"/><path d="M16.797 9.296h.024l-.024.32-.166 1.123-.331 2.04-.166 1.077-.047.206v.115l1.018-.023.071-.32h.024l-.024.297-.095.092H16.04v-.206l.19-1.192.19-1.1.212-1.42.166-1.01z" fill="#00A7D5"/><path d="M29.54 10.74l.047.046.07.252v.343l-.117.848-.237 1.467-.071.435-.072.069h-1.065l-.024-.092.19-1.191.07-.39h.024v.16l-.142.917-.07.527h.994l.047-.023.213-1.329.166-1.077.047-.412-.023-.321-.047-.23z" fill="#00A2D3"/><path d="M26.934 12.206h.024l-.024.321-.237 1.581-.047.092-.237.023h-.402l-.474-.023v-.206l.024-.115h.023v.275h1.019l.047-.091.26-1.72.024-.137z" fill="#00A6D5"/><path d="M21.984 15.415h.119l.165.183-.023.092-.119-.046-.142-.184v-.045z" fill="#00C4E6"/><path d="M30.842 10.58l.047.022-.355.344v-.069l.071-.091h.048l.047-.092.142-.115z" fill="#57C0E1"/></g></g><defs><clipPath id="pi-paynuno-clip0"><path fill="#fff" d="M0 0h38v24H0z"/></clipPath><clipPath id="pi-paynuno-clip1"><rect x="1" y="1" width="36" height="22" rx="2" fill="#fff"/></clipPath></defs></svg>