<svg xmlns="http://www.w3.org/2000/svg" role="img" viewBox="0 0 38 24" width="38" height="24" aria-labelledby="pi-payooqr"><title id="pi-payooqr">Payoo Qr</title><g clip-path="url(#a)"><path d="M35 0H3C1.3 0 0 1.3 0 3v18c0 1.7 1.4 3 3 3h32c1.7 0 3-1.3 3-3V3c0-1.7-1.4-3-3-3Z" opacity=".07"/><path fill="#fff" d="M35 1c1.1 0 2 .9 2 2v18c0 1.1-.9 2-2 2H3c-1.1 0-2-.9-2-2V3c0-1.1.9-2 2-2h32Z"/><path fill="#005194" d="M7.634 4.78H6V12l.006.012a.435.435 0 0 0 .434.294.436.436 0 0 0 .435-.294L6.88 12V9.114h.69c.484 0 .887-.185 1.187-.549.293-.35.44-.798.44-1.334v-.587c-.006-1.239-.53-1.864-1.564-1.864Zm-.07 3.575h-.69V5.539h.786c.447 0 .664.364.664 1.111v.587c0 .747-.25 1.118-.76 1.118Zm17.414-.32c-.23-.549-.683-.823-1.334-.823-.658 0-1.117.274-1.366.823-.153.37-.23.939-.23 1.737 0 .785.077 1.372.23 1.742.223.581.65.875 1.27.875.683 0 1.143-.287 1.379-.843.16-.35.236-.932.236-1.768.006-.81-.057-1.392-.185-1.743Zm-2.037.581c.09-.421.313-.619.696-.619.339 0 .55.21.639.645.044.172.064.542.064 1.13 0 .6-.02.983-.064 1.162-.096.446-.32.67-.658.67-.479 0-.721-.62-.721-1.832-.006-.55.013-.97.045-1.156Zm-12.408-1.43c-.434 0-.498.224-.498.364a.42.42 0 0 0 .185.358c.07.044.172.063.332.063h.019c.453 0 1.257.37 1.257 1.105v.255a2.285 2.285 0 0 0-1.002-.255c-.868 0-1.308.613-1.308 1.82v.037c0 .44.114.78.332 1.022.223.236.497.357.83.357.427 0 .816-.178 1.148-.53v.23l.007.013c.09.198.236.287.44.287.198 0 .339-.095.428-.287l.006-.013v-2.93c.007-1.232-1.117-1.896-2.176-1.896Zm-.14 3.703c0-1.054.427-1.054.574-1.054.21 0 .504.096.868.294v.779c-.217.39-.524.58-.945.58-.338 0-.492-.14-.492-.446v-.153h-.006Zm9.204-3.684c-.664 0-1.124.275-1.373.83-.153.377-.23.964-.23 1.736 0 .773.077 1.36.23 1.743.23.581.658.875 1.277.875.677 0 1.143-.287 1.385-.85.16-.37.236-.963.236-1.768 0-.785-.07-1.372-.204-1.736-.23-.549-.67-.83-1.321-.83Zm-.709 1.411c.09-.421.313-.62.683-.62.345 0 .562.212.651.64.032.172.045.542.045 1.135 0 .607-.013.99-.044 1.162-.109.454-.326.67-.67.67-.48 0-.722-.619-.722-1.832.006-.753.038-1.053.057-1.155Zm-2.47-1.219c-.211.02-.352.122-.422.3l-.006.013v3.556c-.447.23-.702.274-.83.274-.121 0-.485 0-.485-1.021V7.71l-.007-.013a.446.446 0 0 0-.434-.293c-.217.019-.35.115-.427.293l-.007.013v2.809c0 1.187.409 1.787 1.22 1.787.28 0 .606-.09.97-.262V13.2c0 .319-.051.536-.166.67-.134.16-.198.287-.198.383a.46.46 0 0 0 .3.428l.013.006h.012c.281 0 .505-.153.69-.472.153-.25.223-.524.223-.836V7.71l-.006-.013c-.09-.198-.236-.3-.44-.3Z"/><path fill="#26A8E0" d="M28.757 7.046c.064.262.453.44.881.383.428-.057.709-.313.658-.587-.07-.262-.46-.434-.888-.377-.421.058-.721.307-.65.581Zm2.688.02c.319-.04.536-.23.485-.435-.051-.204-.345-.325-.67-.287-.313.038-.53.236-.486.434.058.198.351.325.67.287ZM22.572 3.26c.332-.045.549-.243.491-.434-.045-.198-.338-.326-.657-.288-.32.045-.537.243-.492.447.057.198.345.313.658.275Zm5.253 5.387c-.427-.191-1.034-.115-1.36.166-.306.287-.216.67.205.856.434.185 1.04.102 1.36-.18.319-.28.223-.663-.205-.842Zm.428-1.532c-.077-.338-.575-.549-1.098-.485-.53.077-.894.402-.817.728.076.332.574.542 1.11.485.524-.07.888-.402.805-.728Zm-.428-3.121c.256.115.626.064.817-.102.192-.173.134-.396-.121-.518-.262-.108-.626-.063-.817.115-.198.173-.134.403.121.505Zm-1.213 1.091c.345.147.837.09 1.08-.147.26-.223.184-.53-.16-.676-.345-.147-.837-.083-1.086.14-.255.23-.185.536.166.683ZM17.81 4.37c-.256-.108-.626-.057-.805.109-.204.166-.14.402.115.504.262.109.626.064.81-.102.192-.16.135-.396-.12-.51Zm6.262.945c-.083-.325-.575-.543-1.105-.472-.53.064-.893.395-.81.721.07.338.568.549 1.098.479.53-.064.893-.39.817-.728Zm2.24.038c-.427-.185-1.034-.108-1.353.18-.32.286-.223.663.198.848.44.185 1.04.109 1.36-.179.312-.287.223-.663-.205-.849Zm4.59 4.916c-.262-.109-.632-.058-.817.108-.198.166-.134.402.128.51.261.116.625.058.81-.108.185-.166.134-.389-.121-.51Zm-1.385-.734c-.338-.154-.83-.09-1.079.14-.262.23-.185.53.166.677.345.153.83.089 1.091-.134.243-.237.166-.543-.178-.683ZM19.424 4.914c-.35-.147-.842-.083-1.098.14-.248.23-.178.537.166.683.358.154.83.083 1.092-.14.255-.223.179-.53-.16-.683Zm3.467-.39c.427-.05.715-.312.645-.574-.058-.268-.46-.434-.882-.383-.427.057-.708.313-.65.587.07.262.465.434.887.37Zm-2.694 2.1c.434.186 1.034.11 1.353-.178.32-.28.224-.664-.204-.85-.434-.184-1.034-.108-1.36.173-.313.288-.223.67.21.856Z"/><path fill="#005194" d="M31.406 2.935a.597.597 0 0 0-.594.594c0 .325.268.593.594.593a.597.597 0 0 0 .593-.593.597.597 0 0 0-.593-.594Zm0 1.066a.469.469 0 0 1-.466-.466c0-.255.21-.466.466-.466.255 0 .466.21.466.466a.47.47 0 0 1-.466.466Z"/><path fill="#005194" d="M31.56 3.53c.063-.02.134-.065.127-.129 0-.044-.025-.083-.07-.108a.56.56 0 0 0-.243-.038c-.09 0-.172.006-.223.012l.006.505h.166v-.205h.051c.07 0 .102.02.122.083.025.064.038.103.05.122h.173c-.013-.02-.038-.09-.064-.147a.132.132 0 0 0-.096-.096Zm-.166-.046h-.064v-.14c.012 0 .038-.006.076-.006.077 0 .122.025.122.07 0 .05-.052.076-.134.076Z"/><path d="M8.329 15H6.535a.536.536 0 0 0-.535.535v1.795c0 .296.24.535.535.536h1.794c.295 0 .535-.24.535-.536v-1.795A.536.536 0 0 0 8.329 15Zm.166 2.33a.166.166 0 0 1-.166.166H6.535a.166.166 0 0 1-.166-.166v-1.795c0-.091.074-.166.166-.166h1.794c.091 0 .166.075.166.166v1.795ZM11.56 15H9.766a.536.536 0 0 0-.535.535v1.795c0 .296.24.535.535.536h1.794c.295 0 .535-.24.535-.536v-1.795A.536.536 0 0 0 11.56 15Zm.166 2.33a.166.166 0 0 1-.166.166H9.766a.166.166 0 0 1-.166-.166v-1.795c0-.091.074-.166.166-.166h1.794c.092 0 .166.075.166.166v1.795Zm-3.397.901H6.535a.536.536 0 0 0-.535.535v1.795c0 .296.24.535.535.536h1.794c.295 0 .535-.24.535-.536v-1.794a.536.536 0 0 0-.535-.536Zm.166 2.33a.166.166 0 0 1-.166.167H6.535a.166.166 0 0 1-.166-.167v-1.794c0-.092.074-.166.166-.167h1.794c.091 0 .166.075.166.166v1.796Z"/><path d="M7.746 19.025h-.628a.325.325 0 0 0-.325.325v.628a.326.326 0 0 0 .325.324h.628a.325.325 0 0 0 .324-.324v-.628a.325.325 0 0 0-.324-.325Zm-.045.909h-.539v-.54h.539v.54Zm.045-4.139h-.628a.325.325 0 0 0-.324.324v.628c0 .179.145.324.324.324h.628a.325.325 0 0 0 .324-.324v-.628a.325.325 0 0 0-.324-.324Zm-.045.908h-.539v-.54h.54v.54Zm3.275-.908h-.627a.325.325 0 0 0-.324.324v.628c0 .179.145.324.324.324h.627a.325.325 0 0 0 .325-.324v-.628a.325.325 0 0 0-.325-.324Zm-.044.908h-.54v-.54h.54v.54Zm-.592 1.528h-.612a.497.497 0 0 0-.497.497v.576a.184.184 0 1 0 .37 0v-.576c0-.07.056-.128.127-.128h.613a.184.184 0 0 0 0-.369Zm-.612 2.497a.127.127 0 0 1-.127-.128v-.48a.184.184 0 1 0-.37 0v.48a.498.498 0 0 0 .497.497.184.184 0 0 0 0-.37Zm1.871-2.497a.184.184 0 0 0 0 .37c.07 0 .127.056.127.127v.634a.184.184 0 1 0 .37 0v-.634a.497.497 0 0 0-.497-.497Zm.311 1.702h-.96l-.103.018v-.574a.184.184 0 1 0-.368 0v.573c0 .194.157.35.35.351h.897v.298a.13.13 0 0 1-.128.128h-.934a.184.184 0 0 0 0 .369h.936a.497.497 0 0 0 .496-.497v-.483a.184.184 0 0 0-.184-.183h-.002Zm5.049-.413c.047.076.06.143.037.201a.213.213 0 0 1-.12.134.283.283 0 0 1-.193.025c-.067-.014-.124-.058-.172-.133l-.288-.465c-.078-.128-.21-.192-.397-.192-.285 0-.533-.063-.744-.188a1.285 1.285 0 0 1-.494-.527 1.738 1.738 0 0 1-.175-.802c0-.31.058-.577.175-.803.117-.226.282-.4.494-.523a1.44 1.44 0 0 1 .748-.188c.287 0 .536.063.748.188.212.123.377.297.494.523.117.226.175.492.175.798 0 .335-.07.622-.209.862a1.23 1.23 0 0 1-.568.526.47.47 0 0 1 .163.1c.05.045.099.105.146.18l.18.285Zm-1.129-.89c.27 0 .48-.093.631-.28.15-.187.226-.446.226-.777 0-.335-.075-.594-.226-.778-.147-.184-.358-.276-.631-.276-.27 0-.48.092-.631.276-.15.184-.226.443-.226.778 0 .331.075.59.226.777.15.187.36.28.631.28Zm2.229.452c-.178 0-.268-.092-.268-.276v-2.433c0-.181.091-.272.272-.272h1.008c.323 0 .572.078.748.234.176.153.263.37.263.648a.86.86 0 0 1-.171.548.86.86 0 0 1-.493.288c.142.045.259.152.35.322l.314.581c.048.09.056.172.025.247-.027.075-.098.113-.213.113a.333.333 0 0 1-.184-.046.43.43 0 0 1-.125-.15l-.422-.778a.394.394 0 0 0-.18-.188.58.58 0 0 0-.26-.05h-.396v.936c0 .184-.09.276-.268.276Zm.267-1.61h.653c.39 0 .585-.159.585-.476 0-.315-.195-.473-.585-.473h-.652v.95Zm3.682 1.618a1.6 1.6 0 0 1-.79-.184 1.27 1.27 0 0 1-.502-.527 1.749 1.749 0 0 1-.175-.806c0-.31.058-.577.175-.803.117-.226.285-.4.502-.523.22-.125.484-.188.79-.188.154 0 .304.02.452.059.148.039.277.095.389.167a.273.273 0 0 1 .13.171.25.25 0 0 1-.026.18.236.236 0 0 1-.138.109c-.061.017-.13 0-.205-.05a.93.93 0 0 0-.28-.122 1.252 1.252 0 0 0-.305-.037c-.298 0-.525.09-.681.271-.157.179-.235.434-.235.766 0 .331.078.588.234.769.157.181.384.272.682.272a1.126 1.126 0 0 0 .606-.163c.075-.048.142-.063.2-.047a.204.204 0 0 1 .13.105c.031.05.04.106.03.167a.263.263 0 0 1-.113.163 1.26 1.26 0 0 1-.401.188c-.154.042-.31.063-.469.063Zm2.694 0c-.285 0-.534-.063-.749-.188a1.286 1.286 0 0 1-.493-.527 1.738 1.738 0 0 1-.176-.802c0-.31.059-.577.176-.803.117-.226.281-.4.493-.523.212-.125.462-.188.749-.188s.536.063.748.188c.212.123.376.297.493.523.117.226.176.492.176.798 0 .31-.059.579-.176.807a1.286 1.286 0 0 1-.493.527 1.442 1.442 0 0 1-.748.188Zm0-.46c.27 0 .48-.093.63-.28.151-.187.227-.446.227-.777 0-.335-.076-.594-.226-.778-.148-.184-.358-.276-.631-.276-.27 0-.481.092-.632.276-.15.184-.225.443-.225.778 0 .331.075.59.225.777.15.187.361.28.632.28Zm2.245.418c-.19 0-.284-.094-.284-.284v-2.379c0-.19.095-.284.284-.284h.811c.494 0 .874.127 1.142.38.27.254.405.618.405 1.092 0 .47-.135.834-.405 1.09-.268.257-.648.385-1.142.385h-.81Zm.251-.443h.527c.68 0 1.02-.344 1.02-1.032 0-.686-.34-1.029-1.02-1.029h-.527v2.061Zm2.934.443c-.19 0-.285-.094-.285-.284v-2.379c0-.19.095-.284.285-.284h1.492c.145 0 .218.07.218.209 0 .145-.073.217-.218.217h-1.262v.811h1.17c.145 0 .218.072.218.214 0 .142-.073.213-.218.213h-1.17v.857h1.262c.145 0 .218.071.218.213 0 .142-.073.213-.218.213h-1.492Z"/></g><defs><clipPath id="pi-payoo-a"><path fill="#fff" d="M0 0h38v24H0z"/></clipPath></defs></svg>