<svg xmlns="http://www.w3.org/2000/svg" role="img" viewBox="0 0 38 24" width="38" height="24" aria-labelledby="pi-payoo"><title id="pi-payoo">Payoo</title><g clip-path="url(#a)"><path fill="#000" d="M35 0H3C1.3 0 0 1.3 0 3v18c0 1.7 1.4 3 3 3h32c1.7 0 3-1.3 3-3V3c0-1.7-1.4-3-3-3Z" opacity=".07"/><path fill="#fff" d="M35 1c1.1 0 2 .9 2 2v18c0 1.1-.9 2-2 2H3c-1.1 0-2-.9-2-2V3c0-1.1.9-2 2-2h32Z"/><path fill="#005194" d="M7.613 8.219H6v7.128l.006.012a.43.43 0 0 0 .429.29.43.43 0 0 0 .428-.29l.007-.012v-2.849h.68c.48 0 .876-.183 1.173-.542.29-.347.434-.788.434-1.317v-.58c-.006-1.223-.523-1.84-1.544-1.84Zm-.069 3.529h-.68v-2.78h.775c.44 0 .655.36.655 1.097v.58c0 .738-.246 1.103-.75 1.103Zm17.193-.315c-.227-.542-.674-.813-1.317-.813-.65 0-1.103.27-1.349.813-.151.365-.227.926-.227 1.714 0 .775.076 1.355.227 1.72.22.574.643.864 1.254.864.675 0 1.128-.284 1.362-.832.157-.346.233-.92.233-1.746.006-.8-.057-1.373-.183-1.72Zm-2.01.573c.088-.416.308-.61.686-.61.334 0 .543.207.63.636.045.17.064.535.064 1.115 0 .592-.02.97-.063 1.147-.095.441-.315.662-.65.662-.472 0-.712-.611-.712-1.809-.006-.542.013-.958.045-1.14Zm-12.252-1.411c-.429 0-.492.22-.492.359 0 .145.057.258.183.353.07.044.17.063.328.063h.018c.448 0 1.242.365 1.242 1.09v.252a2.256 2.256 0 0 0-.99-.252c-.856 0-1.291.605-1.291 1.796v.038c0 .435.113.77.327 1.009.221.233.492.352.82.352.422 0 .806-.176 1.134-.523v.227l.006.013a.44.44 0 0 0 .435.284c.196 0 .334-.095.422-.284l.007-.013v-2.893c.006-1.216-1.103-1.871-2.15-1.871Zm-.139 3.655c0-1.04.422-1.04.567-1.04.208 0 .498.095.857.29v.769c-.214.384-.516.573-.932.573-.334 0-.486-.138-.486-.44v-.152h-.006Zm9.088-3.636c-.656 0-1.11.27-1.355.819-.152.372-.227.951-.227 1.714s.075 1.342.227 1.72c.227.574.649.864 1.26.864.668 0 1.128-.284 1.368-.838.157-.366.233-.952.233-1.746 0-.775-.07-1.355-.202-1.714-.227-.542-.662-.82-1.304-.82Zm-.7 1.392c.088-.416.309-.611.674-.611.34 0 .555.208.643.63.032.17.044.536.044 1.122 0 .599-.012.977-.044 1.147-.107.447-.321.662-.661.662-.473 0-.713-.611-.713-1.809.007-.744.038-1.04.057-1.14Zm-2.438-1.203c-.208.019-.347.12-.416.296l-.007.012v3.51c-.44.228-.693.272-.819.272-.12 0-.479 0-.479-1.008V11.11l-.006-.012a.44.44 0 0 0-.429-.29c-.214.019-.346.114-.422.29l-.006.012v2.774c0 1.172.403 1.764 1.203 1.764.278 0 .6-.088.958-.258v1.14c0 .316-.05.53-.163.662-.133.158-.196.284-.196.378a.452.452 0 0 0 .296.423l.013.006h.012c.278 0 .498-.151.681-.466a1.53 1.53 0 0 0 .22-.826v-5.596l-.005-.013c-.089-.195-.234-.296-.435-.296Z"/><path fill="#26A8E0" d="M28.468 10.456c.063.258.447.435.87.378.422-.056.7-.309.649-.58-.07-.258-.454-.428-.876-.371-.416.056-.712.302-.643.573Zm2.653.019c.315-.038.53-.227.48-.428-.051-.202-.341-.322-.662-.284-.31.038-.524.233-.48.428.057.196.347.322.662.284Zm-8.76-3.756c.328-.044.542-.24.485-.429-.044-.195-.334-.321-.649-.283-.315.044-.53.24-.485.44.057.196.34.31.649.272Zm5.187 5.319c-.422-.19-1.021-.113-1.343.164-.302.284-.214.662.202.844.429.183 1.027.101 1.343-.176.315-.277.22-.655-.202-.832Zm.422-1.513c-.075-.334-.567-.542-1.084-.479-.523.076-.882.398-.807.719.076.328.568.536 1.097.479.517-.07.876-.397.794-.719Zm-.422-3.081c.252.113.618.063.807-.101.189-.17.132-.391-.12-.51-.259-.108-.618-.064-.807.113-.195.17-.132.397.12.498ZM26.35 8.52c.34.145.826.089 1.066-.145.258-.22.182-.523-.158-.668-.34-.145-.826-.082-1.072.139-.252.227-.182.53.164.674Zm-8.69-.706c-.253-.107-.618-.056-.795.108-.201.163-.138.397.114.497.258.108.617.064.8-.1.19-.158.133-.391-.12-.505Zm6.182.933c-.082-.321-.567-.535-1.09-.466-.523.063-.883.39-.8.712.069.334.56.542 1.083.473.523-.063.883-.385.807-.719Zm2.212.038c-.422-.183-1.02-.107-1.336.176-.315.284-.22.656.195.839.435.182 1.028.107 1.343-.177.309-.283.22-.655-.202-.838Zm4.532 4.853c-.259-.107-.624-.057-.807.107-.195.164-.133.397.126.504.258.114.617.057.8-.107.183-.164.133-.385-.12-.504Zm-1.368-.725c-.334-.151-.82-.088-1.065.139-.258.227-.183.523.164.668.34.151.819.088 1.077-.133.24-.233.164-.535-.176-.674ZM19.254 8.35c-.347-.145-.832-.082-1.084.139-.246.227-.177.53.164.674.353.151.82.082 1.078-.138.252-.221.176-.524-.158-.675Zm3.422-.384c.422-.05.706-.31.637-.567-.057-.265-.454-.43-.87-.379-.422.057-.7.31-.643.58.07.259.46.429.876.366Zm-2.66 2.073c.43.183 1.022.107 1.337-.176.315-.278.22-.656-.202-.838-.429-.183-1.021-.108-1.342.17-.31.283-.221.661.208.844Z"/><path fill="#005194" d="M31.083 6.397a.59.59 0 0 0-.586.587.59.59 0 0 0 .586.586.59.59 0 0 0 .586-.586.59.59 0 0 0-.586-.587Zm0 1.053a.463.463 0 0 1-.46-.46c0-.252.208-.46.46-.46s.46.208.46.46-.208.46-.46.46Z"/><path fill="#005194" d="M31.234 6.984c.063-.02.133-.063.126-.126 0-.045-.025-.082-.069-.108a.553.553 0 0 0-.24-.037c-.088 0-.17.006-.22.012l.006.498h.164v-.202h.05c.07 0 .102.02.12.082.026.063.038.101.05.12h.171c-.013-.019-.038-.088-.063-.145a.13.13 0 0 0-.095-.094Zm-.164-.044h-.063V6.8c.013 0 .038-.005.076-.005.076 0 .12.025.12.069 0 .05-.05.076-.133.076Z"/></g><defs><clipPath id="pi-payoo-a"><path fill="#fff" d="M0 0h38v24H0z"/></clipPath></defs></svg>