<svg xmlns="http://www.w3.org/2000/svg" role="img" viewBox="0 0 38 24" width="38" height="24" aria-labelledby="pi-payplan"><title id="pi-payplan">PayPlan by RBC</title><path fill="#000" opacity=".07" d="M35 0H3C1.3 0 0 1.3 0 3v18c0 1.7 1.4 3 3 3h32c1.7 0 3-1.3 3-3V3c0-1.7-1.4-3-3-3z"/><path fill="#fff" d="M35 1c1.1 0 2 .9 2 2v18c0 1.1-.9 2-2 2H3c-1.1 0-2-.9-2-2V3c0-1.1.9-2 2-2h32"/><path d="M20.84 10.297v2.437h.918V7.86h-.918v2.438M7.965 9.395a2.29 2.29 0 00-.477.105c-.277.09-.406.094-.586.008a.396.396 0 00-.132-.035h-.06v4.925h.653v-.863c0-.812.004-.86.032-.848 1.078.45 2-.066 2.187-1.222.18-1.09-.57-2.13-1.5-2.078-.031 0-.082.004-.117.008m10.297.007a2.296 2.296 0 00-.325.09c-.238.086-.351.09-.484.02-.055-.032-.105-.04-.207-.04h-.133v4.926h.918v-.812c0-.45.008-.816.016-.816.004 0 .058.011.117.027 1.027.258 1.875-.371 1.988-1.477.121-1.18-.777-2.09-1.89-1.918m5.617 0c-1.07.125-1.692 1.246-1.332 2.399.277.875 1.148 1.273 2.023.922.203-.082.332-.09.461-.032a.469.469 0 00.227.043h.14V11.06c0-.922-.007-1.676-.011-1.676-.004 0-.137.027-.293.066l-.285.063-.188-.047c-.305-.074-.496-.09-.742-.063m3.558.004c-.07.016-.218.055-.332.09-.253.082-.363.086-.515.02a.582.582 0 00-.235-.043h-.128v3.261h.918l-.004-.05c0-.028 0-.594.004-1.258v-1.203l.043-.024c.292-.136.64-.101.804.078.149.168.149.176.156 1.391l.004 1.066h.918V11.73c0-1.226-.015-1.386-.168-1.695-.23-.473-.87-.746-1.465-.629m-15.984.016c-.875.164-1.426 1.055-1.281 2.062.152 1.07 1.015 1.598 2.039 1.246.312-.105.422-.113.574-.043.05.024.121.047.152.047H13V9.422l-.246.062-.242.059-.106-.04a2.228 2.228 0 00-.953-.081m2.063.082c.004.02.304.738.664 1.601l.656 1.575-.035.07c-.18.36-.535.871-.809 1.16l-.129.137.239.191a2.9 2.9 0 00.261.192c.086.02.653-.961.985-1.696.086-.195 1.27-3.226 1.27-3.254 0-.003-.145-.007-.321-.003l-.32.003-.047.192a8.647 8.647 0 01-.258.844 53.605 53.605 0 01-.48 1.343c-.012.016-.06-.086-.133-.27-.067-.163-.282-.702-.477-1.202l-.363-.907-.356-.003c-.336-.004-.355-.004-.347.027m-5.34.332c.582.137.898.973.691 1.82-.176.703-.73.961-1.387.64l-.117-.054v-2.238l.106-.059c.203-.11.504-.156.707-.11m3.828.009c.078.015.184.05.234.078l.098.047.004 1.113.004 1.11-.09.058c-.852.547-1.625-.328-1.375-1.559.125-.62.578-.96 1.125-.847m6.559.246c.425.082.675.508.648 1.094-.04.78-.441 1.12-1.086.925l-.094-.03v-1.911l.074-.035a.773.773 0 01.457-.043m5.801.015l.114.04v1.902l-.118.055c-.52.25-.925-.141-.953-.91-.027-.82.367-1.27.957-1.087m7.082 4.25c-.855.188-1.28 1.18-.875 2.047.293.625 1.215.895 1.88.547l.066-.035V16.5l-.13.09c-.757.547-1.581-.238-1.331-1.274.156-.66.828-.882 1.25-.414l.066.075.027-.059c.012-.031.055-.133.098-.227.086-.195.098-.175-.137-.257-.308-.106-.648-.137-.914-.079M20.84 15.711v1.312h.039a.258.258 0 00.086-.023c.066-.04.152-.035.3.02.626.222 1.133-.16 1.133-.856 0-.695-.503-1.102-1.097-.887a.475.475 0 01-.094.028c-.008 0-.016-.203-.016-.453v-.454h-.351v1.313m4.238-1.285c0 .015.016.027.04.027.05 0 .148.11.171.192.012.046.02.445.02 1.226v1.152h.566v-1.066h.273l.344.535.344.531h.332c.18 0 .332 0 .332-.007 0-.004-.176-.27-.39-.59l-.387-.582.07-.035c.496-.254.539-1.04.066-1.286-.222-.117-.203-.113-1.027-.12-.672-.005-.754-.005-.754.023m2.649-.012c0 .012.035.035.078.059.16.078.152.02.152 1.375v1.18l.64-.008.641-.004.145-.051c.68-.23.805-1.047.203-1.328l-.129-.063.074-.039c.508-.254.356-.965-.234-1.11-.129-.03-1.57-.038-1.57-.01m5.125.065c0 .036.007.043.062.047l.066.008.008.195.004.196h.106v-.399h.062c.05 0 .059-.007.059-.047v-.046h-.184c-.183 0-.183 0-.183.046m.468.012a2.134 2.134 0 00-.02.246l-.01.188.05-.004.047-.008.011-.172.008-.172.024.082c.011.047.035.125.05.18.043.152.086.129.157-.09l.058-.172v.137c.004.18.016.219.067.219.047 0 .054-.102.031-.367l-.012-.125h-.133l-.039.132c-.058.211-.058.211-.105.032l-.04-.164h-.07c-.062 0-.066.007-.074.058m-6.906.29c.238.124.29.476.098.69-.102.118-.168.141-.422.141h-.215v-.89l.223.004c.203.007.238.011.316.054m2.668-.004c.23.121.246.453.027.61-.074.054-.082.054-.332.058l-.254.008v-.73l.243.004c.207.007.254.015.316.05m-6.555.508l.364.863.351.848-.062.11a3.7 3.7 0 01-.356.515c-.058.063-.094.121-.082.129.063.063.246.195.258.188.047-.032.281-.438.43-.739.129-.273.765-1.863.765-1.922 0-.004-.078-.007-.172-.004l-.168.004-.043.153c-.074.285-.37 1.136-.39 1.117a17.542 17.542 0 01-.262-.64l-.25-.63-.195-.004c-.125-.003-.195 0-.188.012m-.832.184c.352.101.465.851.184 1.215-.125.164-.395.21-.602.105l-.086-.043v-1.2l.07-.03a.651.651 0 01.434-.047m7.473.375c.215.113.277.37.156.605-.097.184-.215.23-.554.23h-.247v-.89l.286.008c.253.004.296.012.359.047" fill="#05448a"/><path d="M6.387 6.93c-.172.054-.313.258-.313.449 0 .457.59.648.844.277.254-.379-.102-.867-.531-.726m-1.79.445c-.312.09-.488.5-.355.813.235.535 1.004.437 1.106-.141a.596.596 0 00-.75-.672m3.304.328c-.351.164-.203.723.184.68.305-.04.406-.469.152-.649a.421.421 0 00-.336-.03M3.668 9.128c-.61.156-.707 1.012-.152 1.305.601.312 1.23-.336.921-.954-.132-.261-.488-.425-.769-.351m.777 2.043c-.703.238-.699 1.265.008 1.492.64.203 1.207-.492.899-1.11a.778.778 0 00-.907-.382" fill="#f8af35"/></svg>