<svg viewBox="0 0 38 24" xmlns="http://www.w3.org/2000/svg" role="img" width="38" height="24" aria-labelledby="pi-payrexxbanktransfer"><title id="pi-payrexxbanktransfer">Payrexx Bank Transfer</title><path d="M35 0H3C1.3 0 0 1.3 0 3v18c0 1.7 1.4 3 3 3h32c1.7 0 3-1.3 3-3V3c0-1.7-1.4-3-3-3z" style="isolation:isolate" opacity=".07"/><path d="M35 1c1.1 0 2 .9 2 2v18c0 1.1-.9 2-2 2H3c-1.1 0-2-.9-2-2V3c0-1.1.9-2 2-2h32" fill="#fff"/><path d="M5.93 17.65c-.13 0-.24-.11-.24-.24s.11-.24.24-.24h8.23c.13 0 .24.11.24.24s-.11.24-.24.24H5.93zm0-1.88c-.13 0-.24-.11-.24-.24s.11-.24.24-.24h8.23c.13 0 .24.11.24.24s-.11.24-.24.24H5.93zm0-1.88c-.13 0-.24-.11-.24-.24s.11-.24.24-.24h8.23c.13 0 .24.11.24.24s-.11.24-.24.24H5.93zm-2-9.65h28.11c.15 0 .28.13.28.28v16.92c0 .16-.13.28-.28.28H3.93a.28.28 0 01-.28-.28V4.52c0-.16.13-.28.28-.28zm27.83.56H4.21v16.35h27.55V4.8zM5.83 2.89c-.17 0-.3-.14-.3-.3s.14-.3.3-.3h28.21c.17 0 .3.14.3.3v16.92c0 .17-.14.3-.3.3s-.3-.14-.3-.3V2.89H5.83z"/><path d="M6.02 10.07c-.07 0-.13-.06-.13-.13s.06-.13.13-.13h1.59V8.22c0-.07.06-.13.13-.13s.13.06.13.13v1.59h1.59c.07 0 .13.06.13.13s-.06.13-.13.13H7.87v1.59c0 .07-.06.13-.13.13s-.13-.06-.13-.13v-1.59H6.02z" fill="#00aff0"/><path d="M23.93 16.15h1.56c.05 0 .09.04.09.09v1.5c0 .05-.04.09-.09.09h-1.56a.09.09 0 01-.09-.09v-1.5c0-.05.04-.09.09-.09zm1.47.19h-1.38v1.31h1.38v-1.31zm-4.68-.19h1.56c.05 0 .09.04.09.09v1.5c0 .05-.04.09-.09.09h-1.56a.09.09 0 01-.09-.09v-1.5c0-.05.04-.09.09-.09zm1.47.19h-1.38v1.31h1.38v-1.31zm-1.47-3.25h1.56c.05 0 .09.04.09.09v1.5c0 .05-.04.09-.09.09h-1.56a.09.09 0 01-.09-.09v-1.5c0-.05.04-.09.09-.09zm1.47.19h-1.38v1.31h1.38v-1.31zm1.74-.19h1.56c.05 0 .09.04.09.09v1.5c0 .05-.04.09-.09.09h-1.56a.09.09 0 01-.09-.09v-1.5c0-.05.04-.09.09-.09zm1.47.19h-1.38v1.31h1.38v-1.31z"/><path d="M19.08 11.22h3.01v.31h-2.86v2.97h-.31v-3.12c0-.08.07-.15.15-.15zm5.04 0h3.17c.08 0 .15.07.15.15v3.12h-.31v-2.97h-3.01v-.31zm3.32 5.21v3.19c0 .08-.07.15-.15.15h-3.17v-.31h3.01v-3.04h.31zm-5.35 3.34h-3.01c-.08 0-.15-.07-.15-.15v-3.19h.31v3.04h2.86v.31zM24.02 16.34h1.38v1.31h-1.38z" fill="#00aff0"/><path d="M15.58 9.6h-.47V6.15h.47V9.6zm1.21-2.56l.03.38c.08-.14.19-.24.32-.32a.8.8 0 01.44-.11c.28 0 .49.08.64.24.15.16.23.41.23.75V9.6h-.47V7.99c0-.23-.04-.39-.13-.48-.09-.1-.23-.14-.41-.14-.14 0-.27.03-.37.09a.69.69 0 00-.24.24v1.9h-.47V7.04h.42zm3.2 1.8l.04.18h.02l.05-.18.59-1.81h.48l-.94 2.56h-.35l-.96-2.56h.48l.61 1.81zm1.44-.55c0-.38.1-.69.31-.94s.48-.37.84-.37.64.12.84.37c.21.24.31.56.31.94v.05c0 .38-.1.7-.31.94s-.49.36-.84.37c-.35 0-.63-.12-.84-.37-.21-.24-.31-.56-.31-.94v-.05zm.47.06c0 .27.06.5.17.67s.29.27.51.27.39-.09.51-.27c.12-.18.17-.4.17-.67V8.3c0-.27-.06-.49-.17-.67-.12-.18-.29-.27-.51-.27s-.39.09-.51.27c-.11.18-.17.4-.17.67v.05zm2.9 1.25h-.47V7.04h.47V9.6zm0-3.22h-.47V5.9h.47v.48zm1.74 2.91c.14 0 .27-.05.38-.14.11-.1.16-.21.16-.35h.43c0 .23-.09.43-.28.6-.2.17-.42.26-.68.26-.36 0-.64-.12-.84-.37-.2-.24-.29-.55-.29-.91v-.1c0-.36.1-.67.3-.91.2-.25.47-.37.83-.37.29 0 .52.09.7.27.18.18.27.39.26.65s-.42.01-.42.01c0-.16-.05-.29-.15-.4a.499.499 0 00-.39-.16c-.23 0-.4.09-.5.27-.11.18-.16.39-.16.65v.1c0 .26.05.47.16.65.1.18.27.27.5.27zm2.58.36c-.37 0-.66-.12-.86-.35-.21-.23-.31-.55-.31-.93v-.1c0-.37.11-.67.32-.91.21-.24.47-.36.78-.36.34 0 .6.11.77.32.17.21.26.5.26.85v.25h-1.65c0 .27.06.48.17.64s.29.24.52.24c.16 0 .3-.02.42-.07s.22-.11.31-.19l.18.3c-.09.09-.21.16-.36.22s-.33.09-.54.09zm-.07-2.29c-.16 0-.3.06-.4.19-.11.13-.17.29-.2.48s1.16.01 1.16.01V8c0-.19-.05-.34-.14-.46-.09-.12-.23-.18-.42-.18z"/></svg>