<svg xmlns="http://www.w3.org/2000/svg" role="img" viewBox="0 0 38 24" width="38" height="24" aria-labelledby="pi-payrexxpowerpay"><title id="pi-payrexxpowerpay">Payrexx Powerpay</title><path d="M35 0H3C1.3 0 0 1.3 0 3v18c0 1.7 1.4 3 3 3h32c1.7 0 3-1.3 3-3V3c0-1.7-1.4-3-3-3z" fill="#000" opacity=".07"/><path d="M35 1c1.1 0 2 .9 2 2v18c0 1.1-.9 2-2 2H3c-1.1 0-2-.9-2-2V3c0-1.1.9-2 2-2h32" fill="#fff"/><path d="M7.093 10.542h1.14c.678 0 1.101.384 1.101.966v.009c0 .648-.522.987-1.161.987H7.6v.93h-.507v-2.895zm1.098 1.506c.384 0 .624-.216.624-.516v-.009c0-.339-.243-.516-.624-.516H7.6v1.041h.591zm4.794-1.506h.549l.69 2.145.711-2.154h.429l.711 2.154.69-2.145h.534l-1.005 2.913h-.441l-.711-2.079-.711 2.079h-.438l-1.011-2.916zm4.836 0h2.142v.453h-1.635v.756h1.452v.453h-1.452v.777h1.656v.453h-2.169v-2.895zm2.769 0h1.29c.363 0 .648.108.834.288a.877.877 0 01.24.624v.009c0 .474-.285.762-.687.876l.78 1.095h-.606l-.711-1.008h-.636v1.008h-.507v-2.892zm1.254 1.434c.363 0 .594-.189.594-.483v-.009c0-.309-.222-.48-.6-.48h-.741v.972h.744zm-9.651-1.167l-.276.372c.201.189.366.504.366.81V12c0 .561-.462 1.059-1.038 1.059s-1.044-.504-1.044-1.068v-.009c.003-.294.126-.576.339-.78l-.246-.387c-.36.285-.567.717-.564 1.176V12c0 .813.621 1.488 1.509 1.488s1.521-.684 1.521-1.497v-.009a1.475 1.475 0 00-.561-1.173z" fill="#f0a41f"/><path d="M11.467 11.817a.228.228 0 11-.456 0v-1.098a.228.228 0 11.456 0v1.098zm-1.179-1.002c.084-.084.216-.051.312.045s.018.258-.063.342-.144.051-.237-.045a.25.25 0 01-.009-.342zm1.905-.006c-.084-.084-.222-.045-.318.051s-.042.237.042.321.165.072.261-.024a.262.262 0 00.015-.348z" fill="#f0a41f"/><path d="M23.59 13.437v-2.895h1.14c.336 0 .603.087.801.264s.297.411.297.702v.009c0 .312-.108.555-.327.729s-.495.261-.828.264H24.1v.93h-.51zm.507-1.389h.591c.189 0 .342-.048.453-.144a.455.455 0 00.168-.372v-.009a.455.455 0 00-.168-.381c-.111-.09-.264-.135-.456-.135h-.591v1.041zm1.716 1.389l1.272-2.913h.471l1.272 2.913h-.537l-.294-.699h-1.368l-.297.699h-.522zm1.005-1.149h.996l-.501-1.161-.495 1.161zm2.904 1.149v-1.14l-1.149-1.755h.606l.807 1.278.816-1.278h.582l-1.149 1.74v1.152h-.513z" fill="#067dad"/></svg>