<svg xmlns="http://www.w3.org/2000/svg" role="img" width="38" height="24" fill="none" viewBox="0 0 38 24" aria-labelledby="pi-paysafecard"><title id="pi-paysafecard">PaysafeCard</title><g clip-path="url(#pi-paysafecard-a)"><path fill="#000" fill-opacity=".07" d="M35 .001H3c-1.7 0-3 1.3-3 3v18C0 22.7 1.4 24 3 24h32c1.7 0 3-1.3 3-3V3c0-1.7-1.4-3-3-3v.001z"/><path fill="#fff" d="M35 1c1.1 0 2.001.9 2.001 2v18a2.006 2.006 0 01-2 2H3a2.007 2.007 0 01-2-2V3c0-1.1.9-2 2.001-2h32z"/><g clip-path="url(#pi-paysafecard-b)"><path fill="#141414" d="M25.599 11.812c0-1.142.758-1.75 1.465-1.75h.254c.714 0 1.216.562 1.282 1.278h-.597c-.04-.425-.316-.748-.677-.748h-.26c-.42 0-.841.452-.841 1.22s.406 1.22.834 1.22h.252c.364 0 .643-.337.694-.748h.597c-.056.729-.663 1.28-1.291 1.28h-.252c-.731 0-1.46-.612-1.46-1.752zm6.259.338v1.377h-.574v-2.465h.574v.34a.522.522 0 01.497-.34h.315v.482h-.36c-.285 0-.452.32-.452.607zm-23.501-.332v.002c0 .02-.007.038-.02.051l-1.708 1.707a.036.036 0 01-.025.01h-.01a.036.036 0 01-.037-.035V11.82c0 .02-.007.038-.02.051L4.84 13.567a.072.072 0 01-.05.021h-.003a.072.072 0 01-.05-.02L3.04 11.87a.072.072 0 01-.021-.05v-.002c0-.02.007-.038.02-.051l1.697-1.697a.072.072 0 01.05-.02h.003a.07.07 0 01.05.02l1.697 1.697a.072.072 0 01.02.05v-1.732c0-.02.017-.036.037-.036h.01c.01 0 .02.004.026.01l1.707 1.707a.072.072 0 01.02.051h.001zm3.795-1.578a1.17 1.17 0 00-.572-.134h-1.413v3.41h.614v-1.308h.799c.22 0 .41-.045.572-.134a.916.916 0 00.373-.372c.086-.158.13-.34.13-.544 0-.205-.044-.386-.13-.546a.916.916 0 00-.373-.372zm-.175 1.183a.43.43 0 01-.172.187.558.558 0 01-.291.07h-.733v-1.045h.733c.172 0 .302.049.388.147.087.098.13.224.13.377a.609.609 0 01-.055.264zm5.157-.362l-1.028 2.845c-.074.207-.173.36-.294.457a.706.706 0 01-.456.146h-.313v-.475h.27c.084 0 .153-.03.208-.088.056-.06.153-.31.178-.391l-.91-2.494h.594l.59 1.76c.038-.144.577-1.76.577-1.76h.584zm1.798 1.24c.104.105.155.266.155.482a.7.7 0 01-.118.4.802.802 0 01-.318.273.964.964 0 01-.433.099h-.2c-.16 0-.31-.031-.45-.093a.73.73 0 01-.33-.268.871.871 0 01-.12-.443h.564c.01.099.027.222.096.28a.351.351 0 00.245.083h.166a.37.37 0 00.228-.069c.062-.045.093-.116.093-.211a.248.248 0 00-.07-.19.422.422 0 00-.218-.093l-.47-.092a.768.768 0 01-.449-.238.67.67 0 01-.154-.454c0-.143.038-.271.114-.384a.757.757 0 01.307-.264.943.943 0 01.414-.092h.188c.149 0 .288.03.416.09s.232.145.312.254c.08.11.12.31.124.452h-.55c-.007-.084-.021-.204-.092-.271a.301.301 0 00-.22-.087h-.159a.309.309 0 00-.204.067.227.227 0 00-.08.184c0 .064.022.119.066.166a.36.36 0 00.197.097l.48.1c.209.044.366.118.47.223zm2.414.673c-.02-.027-.03-.068-.03-.123v-.913a.996.996 0 00-.11-.467.799.799 0 00-.316-.33.96.96 0 00-.487-.119h-.178c-.165 0-.32.035-.463.104a.914.914 0 00-.35.293.73.73 0 00-.142.404h.573c.008-.114.034-.178.107-.243a.402.402 0 01.275-.093h.178c.061 0 .119.019.173.055a.374.374 0 01.126.153c.031.066.046.14.046.22v.05l-.65.097c-.261.042-.47.127-.627.256a.643.643 0 00-.235.526.69.69 0 00.101.375c.067.107.163.19.286.248a.992.992 0 00.429.088.995.995 0 00.46-.102.668.668 0 00.295-.28c.006.118.045.205.116.26.07.056.166.084.288.084h.383v-.48a.896.896 0 01-.165-.011.13.13 0 01-.084-.051zm-.597-.476a.68.68 0 01-.074.32.53.53 0 01-.21.215.619.619 0 01-.31.076c-.1 0-.18-.026-.244-.08a.262.262 0 01-.095-.21c0-.107.035-.185.106-.235.07-.05.18-.087.328-.113l.499-.092v.119zm-5.683.538a.897.897 0 01-.165-.01.13.13 0 01-.084-.052c-.02-.027-.03-.068-.03-.123v-.913a.997.997 0 00-.109-.467.8.8 0 00-.317-.33.96.96 0 00-.487-.119h-.178c-.165 0-.32.035-.462.104a.914.914 0 00-.351.293.732.732 0 00-.141.404h.572c.008-.114.034-.178.107-.243a.401.401 0 01.275-.093h.178c.062 0 .12.019.173.055a.374.374 0 01.127.153c.03.066.046.14.046.22v.05l-.65.097c-.262.042-.471.127-.627.256a.643.643 0 00-.236.526.69.69 0 00.101.375c.068.107.163.19.287.248a.992.992 0 00.428.088.995.995 0 00.46-.102.667.667 0 00.295-.28c.007.118.045.205.116.26a.45.45 0 00.288.084h.383v-.48zm-.846-.538c0 .12-.024.226-.074.32a.53.53 0 01-.21.215.62.62 0 01-.31.076.363.363 0 01-.244-.08.262.262 0 01-.094-.21c0-.107.035-.185.105-.235a.833.833 0 01.328-.113l.5-.092v.119zm8.931-.962h-.667v1.98h-.572v-1.98h-.478v-.475h.478v-.231c0-.236.059-.415.177-.539.119-.123.285-.185.5-.185h.562v.475h-.39c-.093 0-.163.025-.209.075-.045.05-.068.125-.068.227v.178h.668v.475zm1.756-.356a.887.887 0 00-.516-.158h-.188a.954.954 0 00-.517.155 1.126 1.126 0 00-.396.444c-.1.193-.15.413-.15.66 0 .247.046.465.14.659.093.194.222.345.386.453a.976.976 0 00.547.162h.18a1.008 1.008 0 00.826-.42.9.9 0 00.163-.438h-.545a.476.476 0 01-.152.27.413.413 0 01-.287.108h-.18a.387.387 0 01-.257-.099.668.668 0 01-.184-.282 1.114 1.114 0 01-.061-.282h1.679c.001-.017.01-.155.01-.211 0-.215-.045-.412-.135-.592a1.107 1.107 0 00-.363-.429zm-1.17.811a.96.96 0 01.045-.146.662.662 0 01.191-.277.389.389 0 01.247-.095h.17c.077 0 .149.022.215.068a.48.48 0 01.16.189c.04.08.06.168.064.262h-1.092zm7.184 1.034a.13.13 0 01-.084-.05.212.212 0 01-.03-.124v-.913a.997.997 0 00-.11-.467.799.799 0 00-.316-.33.959.959 0 00-.487-.119h-.178c-.165 0-.32.034-.462.104a.914.914 0 00-.351.293.73.73 0 00-.141.404h.572c.008-.114.034-.178.107-.243a.402.402 0 01.275-.093h.178c.062 0 .12.018.173.055a.373.373 0 01.126.153c.031.066.047.14.047.22v.05l-.65.097c-.262.042-.471.127-.628.256a.643.643 0 00-.235.526.69.69 0 00.101.375c.068.107.163.19.287.248a.99.99 0 00.428.088.996.996 0 00.46-.102.667.667 0 00.295-.28c.006.118.045.205.116.26a.45.45 0 00.288.084h.383v-.48a.907.907 0 01-.165-.011h.001zm-.68-.527a.68.68 0 01-.075.32.53.53 0 01-.21.215.619.619 0 01-.31.076c-.1 0-.18-.026-.244-.08a.262.262 0 01-.095-.21c0-.107.036-.185.106-.235.07-.05.18-.087.328-.113l.5-.092v.119zm3.51.562h.164c.299 0 .536-.32.536-.777s-.237-.777-.536-.777h-.164c-.281 0-.533.317-.533.777s.25.778.533.778zm-1.115-.777c0-.704.416-1.271 1.044-1.271h.15c.217 0 .462.149.58.327v-1.233h.571v3.41h-.572v-.284c-.137.188-.408.323-.597.323h-.141c-.597 0-1.035-.59-1.035-1.272z"/></g></g><defs><clipPath id="pi-paysafecard-a"><path fill="#fff" d="M0 0h38v24H0z"/></clipPath><clipPath id="pi-paysafecard-b"><path fill="#fff" d="M3 10h32v4.54H3z"/></clipPath></defs></svg>