<svg xmlns="http://www.w3.org/2000/svg" role="img" viewBox="0 0 38 24" width="38" height="24" aria-labelledby="pi-paysafecardpaynlversion"><title id="pi-paysafecardpaynlversion">Paysafecard (PAY. version)</title><path d="M35 0H3C1.3 0 0 1.3 0 3v18c0 1.7 1.4 3 3 3h32c1.7 0 3-1.3 3-3V3c0-1.7-1.4-3-3-3z" fill="#000" fill-rule="nonzero" opacity=".07" vector-effect="non-scaling-stroke"/><path d="M35 1c1.1 0 2 .9 2 2v18c0 1.1-.9 2-2 2H3c-1.1 0-2-.9-2-2V3c0-1.1.9-2 2-2h32" fill="#0080b9" fill-rule="nonzero" vector-effect="non-scaling-stroke"/><path d="M18.314 18.316h2.31c1.346 0 1.996-.628 2.018-1.974.023-1.413.023-2.826 0-4.239-.022-1.323-.672-1.974-2.018-1.974-1.57-.022-3.162-.022-4.732 0-1.144 0-1.862.65-1.907 1.795a79.324 79.324 0 000 4.62c.045 1.166.74 1.772 1.929 1.794l2.4-.022h0zM14.21 10.084c-.18-2.265 1.525-4.216 3.767-4.395.113 0 .202-.023.314-.023 2.378-.022 4.307 2.041 4.127 4.374-.336-.135-.673-.247-.987-.404-.067-.023-.112-.157-.134-.224-.471-1.369-1.57-2.22-2.96-2.22s-2.513.83-2.984 2.22c-.022.09-.067.179-.157.224-.314.157-.65.291-.987.448h0z" fill="#F80000" stroke="null"/></svg>
