<svg width="38" height="24" viewBox="0 0 38 24" role="img" fill="none" xmlns="http://www.w3.org/2000/svg" aria-labelledby="pi-payshap"><title id="pi-payshap">PayShap</title><path d="M1 3a2 2 0 012-2h32a2 2 0 012 2v18a2 2 0 01-2 2H3a2 2 0 01-2-2V3z" fill="#fff"/><path d="M0 21V3a3 3 0 013-3v1a2 2 0 00-2 2v18l.01.204A2 2 0 003 23h32l.204-.01A2 2 0 0037 21V3a2 2 0 00-1.796-1.99L35 1V0a3 3 0 013 3v18a3 3 0 01-3 3H3a3 3 0 01-3-3zM35 0v1H3V0h32z" fill="#000" fill-opacity=".07"/><path d="M28.945 13.867c.067-.527-.27-.841-.764-.841-.507 0-.928.349-.995.944-.057.54.25.848.707.848.536 0 .986-.356 1.05-.953m-.578-1.792c.231-.002.46.043.674.13.212.088.404.216.562.378.35.336.493.794.428 1.389-.136 1.225-1.156 1.799-1.985 1.799-.265 0-.486-.048-.65-.15-.164-.104-.266-.206-.286-.295l-.2 1.676h-1.127l.229-2.059.307-2.795h1.128l-.05.301a.782.782 0 01.157-.137c.243-.15.525-.23.814-.233m-4.65 2.743c.292 0 .921-.184.921-1.011 0-.486-.357-.774-.807-.774-.543 0-.929.41-.929.992 0 .513.332.793.815.793zm1.007-2.332l.057-.342h1.128l-.393 3.557h-1.128l.043-.327c-.092.17-.485.396-.971.396a1.746 1.746 0 01-1.164-.434c-.336-.288-.507-.691-.507-1.218a1.92 1.92 0 01.142-.777c.1-.248.251-.474.444-.666.178-.19.396-.34.64-.443.244-.103.508-.155.774-.152.571.014.914.308.936.403m-4.48-.41a1.267 1.267 0 01.958.404c.25.267.35.664.285 1.197l-.228 2.025h-1.128l.222-1.977c.057-.472-.114-.704-.521-.704a.828.828 0 00-.586.232c-.165.15-.258.28-.286.397l-.25 2.052h-1.127l.536-4.836h1.128l-.215 1.874c.067-.137.2-.28.421-.431.232-.16.512-.24.797-.232m-2.772.964l-.936.199c-.086-.206-.222-.308-.398-.308-.2 0-.329.123-.329.26 0 .102.071.177.215.239l.45.157c.186.06.364.14.53.24.293.15.407.363.436.732a.995.995 0 01-.116.503 1.049 1.049 0 01-.356.386c-.329.218-.721.33-1.12.322-.35.01-.695-.086-.984-.275a1.107 1.107 0 01-.32-.324 1.056 1.056 0 01-.158-.421l.907-.226c.093.267.278.397.557.397.278 0 .457-.137.457-.294a.225.225 0 00-.052-.144.243.243 0 00-.134-.082l-.421-.15c-.663-.233-1-.589-1-1.06a.955.955 0 01.104-.447 1 1 0 01.303-.354 1.613 1.613 0 011.008-.318c.72 0 1.185.37 1.35.965m-5.122 1.74l1.502-2.64h.786L11.837 17h-.786l.834-1.422-1.22-3.441h.755l.93 2.64zM8.442 12.74a1.285 1.285 0 00-.507.095 1.31 1.31 0 00-.705.724 1.267 1.267 0 00-.087.51c0 .335.108.588.315.773a1.1 1.1 0 00.757.273 1.292 1.292 0 00.893-.362c.256-.24.388-.577.388-.994 0-.322-.107-.572-.314-.752a1.089 1.089 0 00-.736-.267m-.03-.657c.275-.01.548.064.777.212.215.137.343.274.38.417l.07-.568h.772l-.392 3.558H9.25l.071-.572c-.066.158-.214.308-.45.445a1.636 1.636 0 01-.807.198 1.784 1.784 0 01-1.179-.434c-.336-.294-.508-.699-.508-1.21a1.922 1.922 0 01.147-.78 1.99 1.99 0 01.45-.664c.182-.192.404-.346.653-.45a1.98 1.98 0 01.787-.152zm-4.36 3.03c.329-.003.645-.117.893-.321.272-.219.43-.52.472-.903.036-.363-.05-.65-.265-.848-.1-.1-.221-.178-.355-.231a1.088 1.088 0 00-.422-.075c-.32 0-.626.115-.862.321-.25.212-.398.513-.444.903-.042.37.036.657.23.855a1.027 1.027 0 00.753.299zm.436-3.037a1.703 1.703 0 011.236.508c.35.335.5.793.436 1.375a1.943 1.943 0 01-.646 1.278 2.112 2.112 0 01-1.375.533c-.314 0-.579-.069-.786-.212-.207-.144-.331-.294-.364-.458L2.772 17H2l.243-2.17.293-2.687h.772l-.067.541c.065-.143.215-.28.45-.41.243-.134.52-.203.8-.2m27.767.436a.759.759 0 00-.468.16.702.702 0 00-.256.409.68.68 0 00.073.47c.08.145.21.258.369.32a.77.77 0 00.497.024.735.735 0 00.4-.284.685.685 0 00-.093-.893.732.732 0 00-.522-.207zm.524-5.126a.89.89 0 00-.93-.176.847.847 0 00-.383.3.793.793 0 000 .909.842.842 0 00.383.3.89.89 0 00.93-.176.807.807 0 00.253-.578.807.807 0 00-.253-.578m1.393 1.331a.889.889 0 00-.93-.175.846.846 0 00-.382.3.793.793 0 000 .908.84.84 0 00.382.301.89.89 0 00.493.048.866.866 0 00.437-.223.81.81 0 00.253-.578.78.78 0 00-.253-.579m1.392 1.33a.89.89 0 00-.93-.177.847.847 0 00-.383.302.793.793 0 000 .908.842.842 0 00.383.3.89.89 0 00.493.048.866.866 0 00.624-.489.781.781 0 00-.187-.892zm-4.173-1.334a.889.889 0 00-.93-.177.848.848 0 00-.384.3.793.793 0 000 .91.842.842 0 00.383.3.888.888 0 00.93-.177.81.81 0 00.253-.578.81.81 0 00-.253-.578zm1.392 1.332a.888.888 0 00-.93-.177.846.846 0 00-.383.301.793.793 0 000 .908c.093.135.227.24.383.301a.888.888 0 00.93-.176.782.782 0 00.186-.892.816.816 0 00-.186-.265zm1.389 1.333a.874.874 0 00-.603-.24.874.874 0 00-.605.24.809.809 0 00-.233.418.785.785 0 00.049.473c.064.15.174.277.314.367a.881.881 0 00.949 0c.14-.09.25-.218.314-.367a.784.784 0 00.049-.473.806.806 0 00-.233-.418zM33.49 6a.762.762 0 00-.409.12.714.714 0 00-.272.317.68.68 0 00.16.77.743.743 0 00.522.207.766.766 0 00.522-.208.708.708 0 00.216-.5.68.68 0 00-.217-.499.732.732 0 00-.521-.207z" fill="#FC4D0F"/></svg>