<svg xmlns="http://www.w3.org/2000/svg" role="img" viewBox="0 0 38 24" width="38" height="24" aria-labelledby="pi-paysera"><title id="pi-paysera">Paysera</title><g clip-path="url(#pi-paysera-a)"><path fill="#000" d="M35 0H3C1.3 0 0 1.3 0 3v18c0 1.7 1.4 3 3 3h32c1.7 0 3-1.3 3-3V3c0-1.7-1.4-3-3-3Z" opacity=".07"/><path fill="#fff" d="M35 1c1.1 0 2 .9 2 2v18c0 1.1-.9 2-2 2H3c-1.1 0-2-.9-2-2V3c0-1.1.9-2 2-2h32Z"/><path fill="#3C6" d="M5.193 11.704H4v4.232h1.193v-4.232Z"/><path fill="#009" d="M8.231 11.704a1.51 1.51 0 0 1-.44 1.074c-.286.287-.673.45-1.077.454a2.746 2.746 0 0 0-1.921.798A2.687 2.687 0 0 0 4 15.936h1.193a1.512 1.512 0 0 1 .442-1.073c.286-.287.673-.45 1.078-.454a2.745 2.745 0 0 0 1.92-.799 2.685 2.685 0 0 0 .792-1.906H8.23Z"/><path fill="#39F" d="M6.713 8.998a2.745 2.745 0 0 0-1.92.799A2.686 2.686 0 0 0 4 11.703h1.192a1.51 1.51 0 0 1 .441-1.074c.286-.287.673-.45 1.078-.454a1.543 1.543 0 0 1 1.406.947c.075.184.114.382.113.58h1.193a2.684 2.684 0 0 0-.791-1.905 2.745 2.745 0 0 0-1.92-.799Z"/><path fill="#009" d="m24.797 11.375-.436.526a1.024 1.024 0 0 0-.71-.298c-.225 0-.34.076-.34.222 0 .12.082.184.33.279l.308.126c.614.245.89.495.89.958a.86.86 0 0 1-.352.735 1.414 1.414 0 0 1-.884.266c-.564 0-1-.203-1.313-.609l.435-.519c.276.285.578.425.89.425.23 0 .404-.09.404-.26 0-.133-.09-.184-.33-.285l-.34-.14c-.582-.234-.864-.494-.864-.956 0-.589.474-.944 1.166-.944.478-.001.857.157 1.146.474Zm-6.256-.374h-.795v.34c-.438-.542-1.53-.593-2.125.047-.568.61-.595 1.715 0 2.355.594.64 1.686.588 2.125.047v.34h.794V11Zm-1.652 2.425c-1.092 0-1.094-1.722 0-1.722 1.066 0 1.07 1.722 0 1.722Zm-5.445 1.681h.793v-1.314c.44.54 1.532.592 2.126-.048.594-.64.567-1.744 0-2.355-.595-.64-1.687-.588-2.126-.048v-.339h-.792l-.001 4.104Zm1.651-3.4c1.094 0 1.092 1.721 0 1.721-1.069 0-1.064-1.721.002-1.721h-.002ZM34 10.985h-.794v.339c-.44-.54-1.532-.592-2.126.048-.567.61-.595 1.715 0 2.355.595.64 1.686.588 2.125.047v.339h.794L34 10.985Zm-1.652 2.425c-1.091 0-1.093-1.722 0-1.722 1.066 0 1.07 1.72 0 1.72v.002Zm-10.907-2.431-.826 2.06-.775-2.06h-.913l1.213 2.953c-.038.21-.209.445-.772.453v.74c.732.049 1.28-.323 1.537-.907l1.446-3.241-.91.002Zm8.952.775v-.817a1.888 1.888 0 0 0-.268-.02 1.44 1.44 0 0 0-1.037.4 1.425 1.425 0 0 0-.413 1.061v1.755h.866v-1.796a.571.571 0 0 1 .359-.562.59.59 0 0 1 .233-.044c.087.001.174.009.26.023Zm-3.627-.85c-.329.001-.65.098-.924.28-.273.181-.485.44-.611.741a1.628 1.628 0 0 0 .369 1.793c.692.657 1.88.582 2.486.081l-.33-.608c-.454.345-1.556.466-1.782-.362h2.265c.022-.315.076-.77-.165-1.199-.4-.72-1.143-.725-1.308-.725Zm-.032.692c.364 0 .654.23.681.594h-1.43c.112-.363.397-.594.749-.594Z"/></g><defs><clipPath id="pi-paysera-a"><path fill="#fff" d="M0 0h38v24H0z"/></clipPath></defs></svg>
