<svg xmlns="http://www.w3.org/2000/svg" width="38" height="24" aria-labelledby="pi-paysquad" role="img" viewBox="0 0 38 24"><title id="pi-paysquad">Paysquad</title><defs><linearGradient id="pi-paysquad-gradient" gradientUnits="userSpaceOnUse" x1="18.955" y1="1.127" x2="18.955" y2="23.127" gradientTransform="matrix(.68772 .72598 -1.4341 1.35853 25.31 -14.222)"><stop offset="0" stop-color="#affbce"/><stop offset=".328" stop-color="#906feb"/><stop offset=".657" stop-color="#7950ec"/></linearGradient></defs><path opacity=".07" d="M35 0H3C1.3 0 0 1.3 0 3v18c0 1.7 1.4 3 3 3h32c1.7 0 3-1.3 3-3V3c0-1.7-1.4-3-3-3z"/><path d="M35 1c1.1 0 2 .9 2 2v18c0 1.1-.9 2-2 2H3c-1.1 0-2-.9-2-2V3c0-1.1.9-2 2-2h32" fill="url(#pi-paysquad-gradient)"/><path d="M16.611 19.291a3.167 3.167 0 01-2.002-.744c-1.084-.9-2.733-2.962-1.587-6.655.2-.646.432-1.234.692-1.769-.577-.192-1.027-.27-1.21-.278l-.019-1.284c.207-.005.941.094 1.868.426 1.832-2.827 4.515-3.802 6.673-4.085 2.133-.28 4.752.679 5.465 3.442.435 1.686.078 3.478-.957 4.792-.831 1.057-2.436 2.302-5.432 2.246l-.452-.015a5.126 5.126 0 01-.195 1.503c-.404 1.413-1.304 2.267-2.535 2.404a2.654 2.654 0 01-.309.017zm-1.717-8.673c-.251.51-.469 1.062-.653 1.656-.878 2.828.158 4.433 1.181 5.283.401.332.895.494 1.358.441.261-.029 1.057-.118 1.447-1.483.282-.984.155-2.066-.357-3.045-.737-1.411-1.908-2.305-2.976-2.852zm4.576 3.459l.665.021c1.974.042 3.449-.553 4.398-1.758.787-1.001 1.057-2.375.721-3.674-.518-2.01-2.47-2.699-4.062-2.491-2.469.324-4.36 1.44-5.65 3.329 1.244.645 2.585 1.697 3.458 3.368.205.391.361.795.47 1.205z" fill="#fff"/></svg>