<svg xmlns="http://www.w3.org/2000/svg" role="img" viewBox="0 0 38 24" width="38" height="24" aria-labelledby="pi-payto"><title id="pi-payto">PayTo</title><path opacity=".07" d="M35 0H3C1.3 0 0 1.3 0 3v18c0 1.7 1.4 3 3 3h32c1.7 0 3-1.3 3-3V3c0-1.7-1.4-3-3-3Z"/><path d="M35 1c1.1 0 2 .9 2 2v18c0 1.1-.9 2-2 2H3c-1.1 0-2-.9-2-2V3c0-1.1.9-2 2-2h32Z" fill="#fff"/><g clip-path="url(#a)" fill-rule="evenodd" clip-rule="evenodd" fill="#231F20"><path d="M6.969 11.197c.19 0 .37-.013.543-.042.171-.027.325-.077.46-.149a.846.846 0 0 0 .322-.295.89.89 0 0 0 .12-.486c0-.193-.04-.35-.12-.472a.834.834 0 0 0-.318-.285 1.347 1.347 0 0 0-.45-.135 4.064 4.064 0 0 0-.52-.033h-.847v1.897h.81ZM5 8.31h2.125c.374 0 .712.034 1.012.103.3.069.558.18.773.336.215.156.38.356.497.599.116.243.175.536.175.878 0 .368-.068.677-.203.926a1.66 1.66 0 0 1-.547.603 2.4 2.4 0 0 1-.805.332 4.454 4.454 0 0 1-.975.102h-.893v2.74H5V8.308Zm7.609 4.526h-.248c-.177 0-.364.007-.56.022a2.458 2.458 0 0 0-.54.1 1.161 1.161 0 0 0-.413.217.479.479 0 0 0-.166.385c0 .103.024.189.07.258.045.07.105.125.178.168a.81.81 0 0 0 .248.09c.092.018.183.027.275.027.38 0 .667-.1.862-.299.196-.199.294-.47.294-.815v-.153Zm.018 1.43H12.6c-.11.194-.288.352-.532.476a1.825 1.825 0 0 1-.835.185c-.178 0-.362-.022-.555-.068a1.66 1.66 0 0 1-.532-.226 1.32 1.32 0 0 1-.404-.416 1.186 1.186 0 0 1-.16-.639c0-.326.093-.585.28-.779a1.81 1.81 0 0 1 .72-.443c.293-.103.619-.17.977-.204.357-.033.707-.05 1.05-.05v-.109c0-.271-.1-.472-.298-.602a1.272 1.272 0 0 0-.711-.194c-.233 0-.456.048-.67.145a1.804 1.804 0 0 0-.532.353l-.569-.661c.251-.23.54-.402.867-.517a2.99 2.99 0 0 1 .995-.171c.392 0 .714.054.968.162.254.11.454.251.601.426.147.175.25.371.307.589.058.217.088.434.088.652v2.644h-1.028v-.553ZM13.91 10.6h1.253l1.263 3.208h.02l1.121-3.208h1.178l-2.14 5.359a3.8 3.8 0 0 1-.264.538 1.371 1.371 0 0 1-.806.639 2.21 2.21 0 0 1-.645.082 3.09 3.09 0 0 1-.288-.014 2.088 2.088 0 0 1-.297-.05l.094-.956a1.471 1.471 0 0 0 .424.064.97.97 0 0 0 .302-.041.515.515 0 0 0 .208-.129.898.898 0 0 0 .15-.216 5.25 5.25 0 0 0 .142-.303l.226-.56L13.91 10.6ZM23.953 14c.209 0 .484-.077.593-.114v.867a1.72 1.72 0 0 1-.593.124 1.578 1.578 0 0 1-1.565-1.586v-2.608h-.987V9.83h.987V8.748h.857V9.83h2.337a3.22 3.22 0 0 0-.848.853h-1.49v2.608c0 .392.325.708.71.708Zm3.505.877a2.502 2.502 0 0 1-2.524-2.523 2.527 2.527 0 0 1 2.524-2.524h2.847v-.784l1.465 1.218-1.467 1.22.001-.8h-2.883c-.882 0-1.611.788-1.611 1.67 0 .92.727 1.655 1.648 1.655a1.64 1.64 0 0 0 1.648-1.655 1.97 1.97 0 0 0-.324-1.057h.968c.152.325.232.697.232 1.057a2.502 2.502 0 0 1-2.524 2.523ZM30.008 5h-7.252a2.993 2.993 0 0 0-2.992 2.993v7.25a2.993 2.993 0 0 0 2.992 2.993h7.251A2.993 2.993 0 0 0 33 15.244V7.993A2.993 2.993 0 0 0 30.007 5Z"/></g></svg>