<svg xmlns="http://www.w3.org/2000/svg" role="img" viewBox="0 0 38 24" width="38" height="24" aria-labelledby="pi-paytomorrow"><title id="pi-paytomorrow">PayTomorrow</title><path opacity=".07" d="M35 0H3C1.3 0 0 1.3 0 3v18c0 1.7 1.4 3 3 3h32c1.7 0 3-1.3 3-3V3c0-1.7-1.4-3-3-3z"/><path fill="#fff" d="M35 1c1.1 0 2 .9 2 2v18c0 1.1-.9 2-2 2H3c-1.1 0-2-.9-2-2V3c0-1.1.9-2 2-2h32"/><path style="fill:#18a0fb" d="M2 8.7c0-.2 0-.3.1-.4l.2-.2c.1 0 .2 0 .3-.1h.7c.6 0 1 .2 1.3.6.3.3.4.8.4 1.4 0 .3 0 .5-.1.8-.1.3-.2.5-.3.7-.2.2-.3.3-.5.4-.3.1-.5.2-.8.2h-.7v2.2H2V8.7zm.6 2.4h.7c.2 0 .3 0 .5-.1.1 0 .2-.1.3-.2.1-.1.1-.2.2-.4 0-.1.1-.3 0-.4v-.4c0-.1-.1-.3-.2-.4-.1-.1-.2-.2-.3-.2-.2-.1-.3-.1-.5-.1h-.6v2.2zm5.1 3H6.4c-.2 0-.5 0-.7-.1-.2-.1-.3-.2-.4-.3-.1-.1-.2-.3-.2-.5s-.1-.4-.1-.5c0-.2 0-.4.1-.6 0-.2.1-.3.2-.5.1-.1.3-.2.4-.3.2-.1.4-.1.6-.1H7c0-.2 0-.4-.1-.5 0-.1-.1-.2-.2-.3-.1-.1-.2-.1-.3-.2h-.3c-.2 0-.3 0-.5.1-.1 0-.2.1-.3.2 0-.1-.1-.1-.1-.2s-.1-.2-.1-.3v-.2c0-.1.1-.2.1-.2.1-.1.2-.1.3-.1.1 0 .3-.1.4-.1.2 0 .4 0 .6.1.5.2.7.4.8.5.1.1.2.4.3.6.1.3.1.6.1.9v2.6zm-.6-1.9s-.1 0-.2-.1h-.5c-.3 0-.4.1-.5.2-.1.1-.2.3-.2.6v.3c0 .1.1.2.1.2.1.1.2.1.2.1.1 0 .3.1.4 0H7v-1.3zm1-2c0-.1 0-.3.1-.4.1-.1.2-.1.2-.1h.2c.1 0 .1 0 .1.1v2.4c0 .3.1.6.2.8.1.2.3.3.5.3s.4-.1.5-.3c.1-.2.2-.5.2-.9v-1.9c0-.1 0-.3.1-.4.1-.1.2-.1.2-.1h.2c.1 0 .1 0 .1.1v3.9c0 .4 0 .7-.1 1.1-.1.6-.4 1-.8 1.1 0 .1-.2.1-.4.1H9c-.1 0-.2-.1-.3-.1-.1 0-.2-.1-.2-.1s-.1 0-.1-.1.1-.2.1-.4c0-.1.1-.2.1-.4 0 0 .1 0 .1.1.1 0 .1.1.2.1s.2 0 .3.1h.3c.1 0 .3 0 .4-.1.1 0 .2-.1.3-.3.1-.1.1-.3.2-.5 0-.2.1-.5.1-.8-.1.2-.2.3-.3.4-.2.1-.3.2-.5.2s-.3 0-.5-.1c-.1-.1-.3-.2-.4-.3-.1-.2-.2-.3-.3-.6-.1-.2-.1-.5-.1-.8l-.3-2.1z"/><path style="fill:#142456" d="M11.3 8.9c0-.1 0-.3.1-.4.1-.1.2-.1.2-.1h.2c.1 0 .1 0 .1.1v1.2h.8c.1 0 .2 0 .3.1v.9h-1.1v2.4c0 .1.1.2.1.2 0 .1.1.1.2.1h.2c.1 0 .2 0 .3-.1.1 0 .1-.1.2-.1l.3.7-.1.1c-.1.1-.1.1-.2.1-.1.1-.2.1-.3.1h-.3c-.3 0-.6-.1-.7-.4-.2-.3-.2-.6-.2-1.1l-.1-3.8zm3.4.7c.2 0 .4.1.6.2.2.1.3.3.5.5.1.2.2.5.3.7.1.3.1.6.1.9 0 .3 0 .6-.1.9-.1.3-.2.5-.3.7-.1.2-.3.4-.5.5-.4.2-.8.2-1.2 0-.2-.1-.3-.3-.5-.5-.1-.2-.2-.5-.3-.7-.1-.3-.1-.6-.1-.9 0-.3 0-.6.1-.9.1-.3.2-.5.3-.7.1-.2.3-.4.5-.5.2-.2.4-.2.6-.2zm0 3.8c.1 0 .2 0 .3-.1l.3-.3c.1-.1.1-.3.2-.5 0-.2.1-.4.1-.6 0-.2 0-.4-.1-.6 0-.2-.1-.3-.2-.5l-.3-.3c-.2-.1-.5-.1-.7 0l-.3.3c-.1.1-.1.3-.2.5 0 .2-.1.4-.1.6 0 .2 0 .4.1.6 0 .2.1.3.2.5l.3.3c.1 0 .2.1.4.1zm1.8-2.1c0-.3 0-.5.1-.7.1-.2.1-.4.3-.5.1-.1.2-.3.4-.3.2-.1.3-.1.5-.1s.4.1.6.2c.2.1.3.3.4.6.1-.3.3-.5.4-.6.2-.1.4-.2.6-.2.2 0 .3 0 .5.1.1.1.3.2.4.3.1.1.2.3.3.5v3.6h-.6v-2.5c0-.4-.1-.7-.2-.9s-.3-.3-.5-.3-.3.1-.5.3c-.1.2-.2.5-.2.9v2.4h-.6v-2.4c0-.4-.1-.7-.2-.9-.3-.4-.7-.4-.9 0-.1.2-.2.5-.2.9v2.5h-.6v-2.9zm6.3-1.7c.2 0 .4.1.6.2.2.1.3.3.5.5.1.2.2.5.3.7.1.3.1.6.1.9 0 .3 0 .6-.1.9-.1.3-.2.5-.3.7-.1.2-.3.4-.5.5-.4.2-.8.2-1.2 0-.2-.1-.3-.3-.5-.5-.1-.2-.2-.5-.3-.7-.1-.3-.1-.6-.1-.9 0-.3 0-.6.1-.9.1-.3.2-.5.3-.7.1-.2.3-.4.5-.5.2-.2.4-.2.6-.2zm0 3.8c.1 0 .2 0 .3-.1l.3-.3c.1-.1.1-.3.2-.5 0-.2.1-.4.1-.6 0-.2 0-.4-.1-.6 0-.2-.1-.3-.2-.5l-.3-.3c-.2-.1-.5-.1-.7 0l-.3.3c-.1.1-.1.3-.2.5 0 .2-.1.4-.1.6 0 .2 0 .4.1.6 0 .2.1.3.2.5l.3.3c.2 0 .3.1.4.1zm1.8-2.1c0-.5.1-1 .3-1.3.2-.3.5-.4.9-.4.2 0 .4 0 .6.2.1.1.2.3.2.5 0 .1 0 .2-.1.3 0 .1-.1.1-.1.2-.1-.1-.2-.1-.2-.1-.1 0-.2-.1-.3-.1-.4 0-.6.4-.6 1.1v2.6h-.6v-3zm2 0c0-.5.1-1 .3-1.3.2-.3.5-.4.9-.4.2 0 .4 0 .6.2.1.1.2.3.2.5 0 .1 0 .2-.1.3 0 .1-.1.1-.1.2-.1-.1-.2-.1-.2-.1-.1 0-.2-.1-.3-.1-.4 0-.7.4-.7 1.1v2.6h-.6v-3zM30 9.6c.2 0 .4.1.6.2.2.1.3.3.5.5.1.2.2.5.3.7.2.6.2 1.3 0 1.9-.1.3-.2.5-.3.7-.1.2-.3.4-.5.5-.4.2-.8.2-1.2 0-.2-.1-.3-.3-.5-.5-.1-.2-.2-.5-.3-.7-.2-.6-.2-1.3 0-1.9.1-.3.2-.5.3-.7.1-.2.3-.4.5-.5.2-.2.4-.2.6-.2zm0 3.8c.1 0 .2 0 .3-.1l.3-.3c.1-.1.1-.3.2-.5 0-.2.1-.4.1-.6 0-.2 0-.4-.1-.6 0-.2-.1-.3-.2-.5l-.3-.3c-.2-.1-.5-.1-.7 0l-.3.3c-.1.1-.1.3-.2.5 0 .2-.1.4-.1.6 0 .2 0 .4.1.6 0 .2.1.3.2.5l.3.3c.2 0 .3.1.4.1zm2.5.7c-.2-.7-.3-1.3-.4-1.7-.1-.5-.2-.9-.3-1.2-.1-.3-.1-.5-.1-.7v-.4c0-.1 0-.2.1-.3.1-.1.1-.2.2-.1.1 0 .2 0 .3.1 0 .3.1.5.1.8.1.3.1.6.2.9.1.3.1.6.2.8.1.3.1.5.2.7 0-.2.1-.4.1-.6 0-.2.1-.5.1-.7s.1-.5.1-.8.1-.5.1-.7c0-.1.1-.3.1-.4.1-.1.1-.1.3-.1h.2c.1 0 .1.1.1.1 0 .3.1.5.2.8.1.3.1.6.2.9.1.3.1.6.2.8.1.3.1.5.1.7.1-.4.2-.8.3-1.3s.2-1 .3-1.4c0-.1.1-.3.1-.4.1-.1.2-.1.2-.1.1 0 .2 0 .2.1l.1.1c0 .2-.1.5-.2.8-.1.3-.2.7-.2 1.1l-.3 1.2c-.1.4-.2.8-.3 1.1h-.7c0-.1-.1-.3-.1-.5s-.1-.5-.2-.8 0-.7-.1-.9c-.1-.3-.1-.6-.2-.8 0 .2-.1.5-.2.8s-.1.6-.2.9c-.1.3-.1.5-.2.8 0 .2-.1.4-.1.5l-.5-.1z"/></svg>