<svg viewBox="0 0 38 24" xmlns="http://www.w3.org/2000/svg" data-name="Layer 1" width="38" height="24" role="img" aria-labelledby="pi-paytm"><title id="pi-paytm">Paytm</title><rect x=".5" y=".5" width="37" height="23" rx="3" ry="3" fill="#fff" stroke="#000" stroke-opacity=".07"/><path d="M14.17 13.32v2.6a.87.87 0 0 1-.74.91h-2.7a1.83 1.83 0 0 1-2-1.9 14.66 14.66 0 0 1 .06-2.08 1.81 1.81 0 0 1 1.69-1.54h1.19a.31.31 0 0 0 .34-.41.33.33 0 0 0-.23-.41H10c-.38 0-.46-.08-.46-.47V8.91a.3.3 0 0 1 .25-.35h2.39a1.87 1.87 0 0 1 1.92 2.1c.08.91.07 1.79.07 2.66zm-3.32 1.34a.34.34 0 0 0 .31.36h.61a.33.33 0 0 0 .36-.35v-1.13c0-.3-.16-.36-.72-.36s-.53.1-.56.37v1.11zm9.58-2.73v2.81a2 2 0 0 1-1.85 2.15h-2.45c-.34 0-.42-.07-.42-.42v-1.26a.3.3 0 0 1 .29-.35h2a.32.32 0 0 0 .36-.34.33.33 0 0 0-.31-.35h-1a1.94 1.94 0 0 1-2-1.86V9a.32.32 0 0 1 .26-.37h1.34c.34 0 .42.1.42.45v2.6c0 .45.1.54.55.54h.05c.62 0 .67-.05.67-.66V9a.36.36 0 0 1 .45-.5H20a.36.36 0 0 1 .42.42c.01 1.08.01 2.02.01 3.01zM4.57 14.48v1.94c0 .46-.06.51-.52.51H2.87a.3.3 0 0 1-.36-.36V9a.28.28 0 0 1 .22-.32H6.2a1.66 1.66 0 0 1 1.62 1.61 17.62 17.62 0 0 1 0 2.49 1.74 1.74 0 0 1-1.73 1.74H4.57zm0-2.08h.86a.32.32 0 0 0 .32-.31V11a.32.32 0 0 0-.28-.35h-.88v1.74z" fill="#22346c"/><path d="M28.94 9a2.2 2.2 0 0 1 2.86.1 7.28 7.28 0 0 1 1.15-.51 2.08 2.08 0 0 1 2.56 2v5.83c0 .36-.09.45-.45.45h-1.15a.35.35 0 0 1-.42-.42v-5.24a.6.6 0 0 0-.79-.64.55.55 0 0 0-.49.58v5.4a.31.31 0 0 1-.25.36h-1.43a.3.3 0 0 1-.35-.31v-5.43a.48.48 0 0 0-.29-.55 1.38 1.38 0 0 0-.71 0 .48.48 0 0 0-.26.53v5.21c0 .48-.06.55-.56.55h-1c-.36 0-.42-.08-.42-.44V9c0-.42.06-.47.46-.47h1.09a.42.42 0 0 1 .45.47zm-5.43 1.64h-.77a.33.33 0 0 1-.41-.4V9a.31.31 0 0 1 .25-.36h.1a2 2 0 0 0 1.74-1 2 2 0 0 1 .58-.57c.24-.16.42 0 .44.27v1.27h.7a.36.36 0 0 1 .42.42v1.22a.35.35 0 0 1-.42.42h-.66v5.83c0 .42-.07.48-.47.49h-1.09a.34.34 0 0 1-.42-.42c.01-1.87.01-5.78.01-5.92z" fill="#24b8eb"/></svg>