<svg xmlns="http://www.w3.org/2000/svg" role="img" viewBox="0 0 38 24" width="38" height="24" aria-labelledby="pi-payu"><title id="pi-payu">PayU</title><path fill="#000" opacity=".07" d="M35 0H3C1.3 0 0 1.3 0 3v18c0 1.7 1.4 3 3 3h32c1.7 0 3-1.3 3-3V3c0-1.7-1.4-3-3-3z"/><path fill="#fff" d="M35 1c1.1 0 2 .9 2 2v18c0 1.1-.9 2-2 2H3c-1.1 0-2-.9-2-2V3c0-1.1.9-2 2-2h32"/><path fill-rule="evenodd" clip-rule="evenodd" d="M31.061 9.662a.354.354 0 01-.353-.354V7.745h-.13c-.808 0-1.11.134-1.11.87v4.559c0 .294-.057.528-.174.71-.22.34-.657.494-1.356.495-.698-.001-1.134-.156-1.354-.495-.118-.182-.174-.416-.174-.71v-2.408l-.002-.04V8.616c0-.736-.3-.87-1.109-.87h-.255c-.808 0-1.109.134-1.109.87v4.559c0 .733.166 1.354.485 1.854.617.97 1.813 1.487 3.512 1.487h.013c1.7 0 2.894-.517 3.512-1.487.32-.5.485-1.121.485-1.854V9.662h-.88zM34.8 7.143h-1.33a.263.263 0 01-.263-.263V5.534c0-.145.118-.263.263-.263h1.33c.145 0 .262.118.262.264V6.88a.262.262 0 01-.263.262zm-1.773-1.871h-.903a.178.178 0 01-.178-.18v-.914c0-.098.08-.178.178-.178h.904c.098 0 .178.08.178.179v.914a.179.179 0 01-.179.179M10.162 10.519c0 1.081-.277 1.668-1.733 1.668H6.185V9.395c0-.387.145-.531.532-.531h1.712c1.097 0 1.733.27 1.733 1.655zM8.428 7.744H6.494C5.461 7.744 5 8.204 5 9.238v6.638c0 .4.128.528.528.528h.13c.4 0 .527-.128.527-.528v-2.582H8.43c1.99 0 2.918-.882 2.918-2.775 0-1.894-.928-2.775-2.919-2.775zm7.091 5.676v.91c0 .742-.275 1.171-1.68 1.171-.93 0-1.381-.335-1.381-1.027 0-.758.453-1.054 1.616-1.054h1.445zm-1.68-3.773c-.767 0-1.248.096-1.43.133-.322.07-.457.158-.457.525v.105c0 .144.021.243.067.313.053.082.139.123.254.123.057 0 .122-.01.2-.029a6.996 6.996 0 011.418-.141c1.156 0 1.628.32 1.628 1.106v.7h-1.458c-1.876 0-2.75.633-2.75 1.992 0 1.317.902 2.043 2.54 2.043 1.947 0 2.815-.662 2.815-2.148v-2.588c0-1.436-.925-2.134-2.828-2.134zm9.242.31c-.083-.104-.24-.119-.396-.119h-.118c-.39 0-.543.12-.63.495l-1.084 4.508c-.135.554-.325.656-.65.656-.4 0-.56-.096-.718-.658l-1.228-4.508c-.102-.377-.251-.493-.642-.493h-.105c-.157 0-.314.015-.395.12-.08.105-.053.262-.011.417l1.24 4.547c.234.87.51 1.59 1.545 1.59.193 0 .372-.026.52-.076-.314.986-.633 1.421-1.574 1.518-.19.016-.315.043-.384.136-.072.096-.056.233-.03.357l.026.117c.056.269.152.436.454.436.032 0 .067-.002.103-.005 1.405-.091 2.158-.848 2.599-2.61l1.503-6.014c.036-.154.057-.31-.026-.415zm9.771-2.815h-1.79a.353.353 0 00-.353.353v.25h.123c.809 0 1.11.134 1.11.87v1.047h.91a.354.354 0 00.353-.353l.001-1.813a.355.355 0 00-.354-.354z" fill="#002124"/></svg>