<svg xmlns="http://www.w3.org/2000/svg" xmlns:xlink="http://www.w3.org/1999/xlink" viewBox="0 0 38 24" width="38" height="24" aria-labelledby="pi-pei" role="img" ><title id="pi-pei">Pei</title> <defs><path id="pi-pei-SVGID_1_" d="M0 0h38v24H0z"/></defs><clipPath id="pi-pei-SVGID_00000072987483338555718090000010706035453805629323_"><use xlink:href="#SVGID_1_" overflow="visible"/></clipPath><g clip-path="url(#SVGID_00000072987483338555718090000010706035453805629323_)"><path d="M35 0H3C1.3 0 0 1.3 0 3v18c0 1.7 1.4 3 3 3h32c1.7 0 3-1.3 3-3V3c0-1.7-1.4-3-3-3z" opacity=".07"/><path d="M35 1c1.1 0 2 .9 2 2v18c0 1.1-.9 2-2 2H3c-1.1 0-2-.9-2-2V3c0-1.1.9-2 2-2h32z" fill="#fff"/><path d="M9.7 8.9h2.5v.8c.3-.4.9-1 2-1 1.8 0 3.4 1.6 3.4 3.7 0 2.6-1.5 4.2-3.7 4.2-.9 0-1.5-.4-1.7-.6v3.1H9.7V8.9zm4 2.4c-.8 0-1.4.6-1.4 1.4 0 .8.6 1.4 1.4 1.4.8 0 1.4-.6 1.4-1.4 0-.8-.6-1.4-1.4-1.4zM28 8.9h-2.5v7.5H28V8.9zM26.7 4.9c-.9 0-1.6.7-1.6 1.6s.7 1.6 1.6 1.6 1.6-.7 1.6-1.6-.7-1.6-1.6-1.6zM24.6 13.2c-.5.5-1.5 1.1-2.3 1.1-.4 0-.7-.1-.9-.2l3.8-2.7c-.3-.9-.9-2.7-3.3-2.7-1.7 0-3.9 1.3-3.9 4 0 3.1 2.5 3.9 3.7 3.9 1.4 0 2.4-.5 3-.8v-2.6zm-4.3-.9c0-.9.6-1.4 1.3-1.4.2 0 .7.1.8.3l-2 1.5c-.1-.1-.1-.3-.1-.4z" fill="#ff5338"/></g></svg>