<svg xmlns="http://www.w3.org/2000/svg" role="img" viewBox="0 0 38 24" width="38" height="24" aria-labelledby="pi-perlasfinance"><title id="pi-perlasfinance">Perlas finance</title><path d="M35 0H3C1.3 0 0 1.3 0 3v18c0 1.7 1.4 3 3 3h32c1.7 0 3-1.3 3-3V3c0-1.7-1.4-3-3-3z" fill-opacity=".07" fill-rule="nonzero"/><path d="M35 1c1.1 0 2 .9 2 2v18c0 1.1-.9 2-2 2H3c-1.1 0-2-.9-2-2V3c0-1.1.9-2 2-2h32" fill="#fff" fill-rule="nonzero"/><path fill="#f9ec4b" d="M12.47 5.47h13.06v13.06H12.47z"/><path d="M19.817 11.808l-.01.008.01-.008m-.01.008c-.004.003-.005.004 0 0m.018-.015l-.008.007.008-.007" fill="#026670" fill-rule="nonzero"/><path d="M22.897 9.216a1.137 1.137 0 00-.478-.393c-.234-.095-.478-.116-.712-.233-.233-.106-.35-.35-.584-.478a1.22 1.22 0 00-.329-.117c-.297-.053-.573.053-.87-.01-.255-.064-.467-.224-.733-.255-.073-.01-.35-.01-.422 0-.266.031-.478.19-.733.254-.297.064-.573-.042-.87.011a1.22 1.22 0 00-.33.117c-.233.127-.35.372-.584.478-.233.117-.478.138-.711.233-.191.085-.35.213-.478.393-.17.244-.276.51-.212.807.244 1.168 1.306 1.773 2.282 2.251l.03.014c.018.01.037.016.058.016a.125.125 0 00.125-.125.123.123 0 00-.064-.106c-.001-.002-.003-.002-.005-.003l-.01-.006c-.579-.316-1.157-.644-1.578-1.191-.201-.277-.392-.574-.35-.924a.84.84 0 01.404-.595c.254-.127.541-.148.796-.276.233-.127.35-.393.594-.499.298-.138.616-.021.935-.053.18-.01.34-.106.499-.18.122-.047.252-.094.383-.09h.06c.13-.004.26.043.383.09.16.074.318.17.499.18.318.032.637-.085.934.053.244.106.361.372.595.5.255.127.541.148.796.275a.84.84 0 01.404.595c.042.35-.15.647-.35.924-.422.547-1 .875-1.578 1.191l-.01.006-.006.002a.123.123 0 00-.063.107c0 .07.056.125.124.125a.12.12 0 00.058-.016l.03-.014c.977-.478 2.039-1.083 2.283-2.25.064-.298-.042-.564-.212-.808" fill="#026670" fill-rule="nonzero"/><path d="M19.003 13.225a1.023 1.023 0 110-2.046 1.023 1.023 0 010 2.046m-.042-2.307a1.354 1.354 0 100 2.708 1.354 1.354 0 000-2.708m1.554.202l-.003.002.003-.002zm.054.072l-.002.001.002-.001m-.034.083h-.01a.11.11 0 01-.074-.04.117.117 0 01.024-.172l.055-.04.681-.5a.16.16 0 01.104-.03.161.161 0 01.144.178.17.17 0 01-.081.13l-.087.051a46.51 46.51 0 01-.567.332l-.13.075a.115.115 0 01-.059.016m-.624-.64zm-.038.105a.12.12 0 01-.111-.157l.02-.042c.1-.184.183-.344.269-.509l.165-.315a.159.159 0 01.127-.074.15.15 0 01.11.043.168.168 0 01.024.212c-.122.187-.247.382-.374.582l-.133.207a.121.121 0 01-.094.053h-.003zm-1.012-.348c-.011-.19-.021-.455-.03-.68a16.305 16.305 0 00-.02-.449.192.192 0 01.19-.194c.096.001.175.078.184.184l.001.005V9.3h-.002c-.017.409-.032.646-.043.812-.007.116-.012.196-.015.276a.135.135 0 01-.134.135.137.137 0 01-.13-.132m-1.07.732l-.003-.002.003.002zm-.055.07l-.002-.001.002.002m-.027.065l-.13-.075a46.51 46.51 0 01-.567-.332l-.087-.051a.17.17 0 01-.081-.13.161.161 0 01.143-.178.16.16 0 01.105.03c.24.178.422.31.68.5l.055.04a.117.117 0 01.025.173.11.11 0 01-.143.023m.363-.624zm.036.105a.121.121 0 01-.094-.053l-.133-.207c-.127-.2-.252-.395-.374-.582a.168.168 0 01.024-.211.15.15 0 01.11-.044.16.16 0 01.127.074c.06.111.113.214.165.315.086.165.169.325.27.509l.02.042a.12.12 0 01-.112.157h-.003zm4.204 4.083a.118.118 0 00.012-.127c-.029-.059-.095-.087-.147-.062l-.02.015c-1.007.678-1.67 1.152-3.162 1.152-1.293 0-2.007-.316-3.195-1.152 0 0-.012-.011-.02-.015-.052-.025-.117.003-.146.062a.118.118 0 00.012.127c.688.694 1.64 1.455 3.333 1.455 1.798 0 2.598-.714 3.333-1.455" fill="#026670" fill-rule="nonzero"/><path d="M22.848 13.12c-.565-.325-1.172-.45-1.79-.587a.107.107 0 00-.129.105c0 .055.04.1.093.106h.002c.394.074.779.178 1.153.313.22.094.44.189.598.388.073.094.115.2.063.315-.053.115-.168.157-.284.167-.21.01-.419-.031-.608-.115a.842.842 0 00-.272-.094c-.273-.053-.472.136-.692.272-.213.132-.4.231-.64.273-.158.02-.304-.021-.451-.073-.275-.102-.54-.234-.833-.25h-.116c-.293.026-.558.147-.833.248-.147.053-.293.095-.45.074-.242-.042-.428-.141-.64-.273-.22-.136-.42-.325-.692-.273a.84.84 0 00-.273.095 1.341 1.341 0 01-.608.115c-.116-.01-.231-.052-.284-.168-.052-.115-.01-.22.063-.314.158-.2.378-.294.598-.388.374-.135.759-.24 1.153-.313h.002a.107.107 0 10-.036-.211c-.617.136-1.225.262-1.79.587-.252.136-.44.409-.43.702.01.242.178.451.399.535.356.126.744.032 1.08-.136.115-.053.23-.01.335.063.378.251.755.514 1.217.472.325-.032.597-.2.912-.284a.922.922 0 01.277-.039l.116.002a.888.888 0 01.277.039c.315.084.587.251.912.283.462.042.84-.22 1.217-.472.105-.073.22-.115.335-.063.336.168.724.262 1.08.136a.614.614 0 00.399-.534c.01-.294-.178-.567-.43-.703" fill="#026670" fill-rule="nonzero"/></svg>