<svg role="img" width="38" height="24" viewBox="0 0 38 24" aria-labelledby="pi-permata" xmlns="http://www.w3.org/2000/svg"><title id="pi-permata">Permata</title><path d="M35 0H3a3 3 0 00-3 3v18a3 3 0 003 3h32a3 3 0 003-3V3a3 3 0 00-3-3z" opacity=".07" style="isolation:isolate"/><path d="M35 1a2 2 0 012 2v18a2 2 0 01-2 2H3a2 2 0 01-2-2V3a2 2 0 012-2h32" fill="#fff"/><g clip-path="url(#pi-permata-clip0)"><path d="M21.481 15.019c0-.308-.114-.525-.336-.648a.97.97 0 00-.256-.078 1.893 1.893 0 00-.34-.028h-.447v1.541h.447c.323 0 .56-.059.706-.186a.564.564 0 00.168-.246c.04-.114.06-.234.06-.355h-.002zm-1.379-2.187v1.321h.464c.54 0 .82-.227.823-.675 0-.436-.291-.649-.863-.646h-.424zm-.365 2.765c0-.05.005-.129.008-.236v-2.083l-.007-.202c0-.043 0-.072-.006-.088a.213.213 0 00-.048-.109.172.172 0 00-.064-.043.579.579 0 00-.21-.03v-.07h1.189c.157-.002.314.01.47.034.116.015.23.046.337.091a.609.609 0 01.37.6c0 .403-.262.66-.811.727l-.093.015c.125.01.248.031.369.063a.94.94 0 01.227.085.728.728 0 01.426.705c0 .392-.19.648-.58.769a1.983 1.983 0 01-.32.058c-.13.013-.27.02-.421.021h-1.165v-.072c.138 0 .236-.023.275-.072a.156.156 0 00.038-.056.392.392 0 00.016-.107M22.476 15.325a.56.56 0 00.107.35.351.351 0 00.282.136.686.686 0 00.335-.092.667.667 0 00.246-.235.732.732 0 00.078-.243c.019-.122.027-.244.025-.367v-.23a4.113 4.113 0 00-.47.061c-.102.02-.202.054-.295.101a.537.537 0 00-.305.52h-.003zm1.124.488a.59.59 0 01-.048-.25v-.043l-.029.033a1.17 1.17 0 01-.1.1c-.037.03-.077.06-.118.086a.953.953 0 01-.27.147.927.927 0 01-.294.04.654.654 0 01-.44-.133.54.54 0 01-.137-.197.68.68 0 01-.05-.257c0-.34.21-.558.635-.655.113-.026.235-.048.357-.064.121-.017.268-.03.427-.042l.016-.295a1.586 1.586 0 00-.014-.246.543.543 0 00-.05-.164c-.063-.123-.192-.182-.378-.182-.299 0-.46.14-.477.422a.376.376 0 01-.012.096.079.079 0 01-.029.042.272.272 0 01-.144.032c-.147 0-.202-.042-.2-.115a.393.393 0 01.079-.222.674.674 0 01.215-.187c.197-.1.416-.147.636-.14.284 0 .475.066.579.189a.503.503 0 01.093.193c.023.097.033.196.03.295v.14l-.005.306-.005.42-.005.203c0 .095.005.168.012.25.007.083.034.168.098.192.08.027.166.039.252.035.07.002.139-.01.204-.032a.178.178 0 00.1-.138c.015-.1.02-.202.016-.303v-1.185c0-.157-.016-.274-.063-.334-.046-.06-.128-.082-.243-.078v-.063l.632-.046v.504l.033-.06a.924.924 0 01.319-.354.821.821 0 01.443-.108c.27-.004.455.085.565.265.042.066.072.14.086.217.02.108.028.217.026.326v.916c-.004.102.002.204.017.305a.169.169 0 00.099.137.842.842 0 00.235.03.53.53 0 00.189-.031.175.175 0 00.096-.138c.016-.1.022-.202.018-.303v-2.152a1.355 1.355 0 00-.017-.274.15.15 0 00-.096-.122.648.648 0 00-.2-.024v-.063l.656-.034a19.397 19.397 0 00-.025.865v1.447l.724-.794c.102-.113.157-.209.157-.285.005-.107-.102-.157-.278-.163v-.063h.94v.064a.71.71 0 00-.143.03 1.36 1.36 0 00-.261.146 1.15 1.15 0 00-.118.107c-.046.046-.112.116-.198.21l-.235.257.627.985a.94.94 0 00.198.245c.064.048.14.078.22.087v.064h-.573a4.839 4.839 0 00-.065-.123l-.091-.167-.07-.125-.463-.755-.364.408v.23c-.004.1.002.202.017.302a.174.174 0 00.098.138.57.57 0 00.203.032v.062h-1.942v-.064c.13 0 .22-.025.257-.073a.222.222 0 00.033-.064.371.371 0 00.015-.091c0-.03.004-.073.008-.129l.005-.116v-.887c.01-.165-.014-.33-.072-.484a.412.412 0 00-.405-.245.581.581 0 00-.515.304 1.09 1.09 0 00-.153.549v.765c-.004.102.002.204.018.305a.169.169 0 00.098.137.59.59 0 00.207.031v.062h-.948c-.084 0-.245.007-.325.006-.08 0-.123-.01-.2-.015-.067-.02-.095-.038-.118-.079M3.862 14.447h.204c.246 0 .425-.06.541-.174a.64.64 0 00.143-.262c.033-.12.05-.243.048-.366 0-.523-.228-.784-.686-.784h-.25v1.586zm0 .123v.784c-.004.094.003.189.022.281a.165.165 0 00.105.126c.08.025.165.036.249.033v.11H3v-.11a.7.7 0 00.235-.033.162.162 0 00.098-.121c.018-.093.025-.187.02-.282v-2.072a1.29 1.29 0 00-.019-.283.165.165 0 00-.094-.122.665.665 0 00-.224-.036v-.11h1.176c.397 0 .688.07.873.21.185.14.276.365.274.671 0 .429-.167.71-.501.843-.109.039-.22.065-.335.079-.15.02-.301.03-.452.03l-.189.002zM5.9 14.58h.9a2.4 2.4 0 00-.02-.314 1.043 1.043 0 00-.05-.213c-.075-.22-.192-.33-.35-.33-.177 0-.307.124-.392.372a1.393 1.393 0 00-.053.21 2.873 2.873 0 00-.032.276l-.002-.001zm1.435.122h-1.44c0 .13.009.259.027.387.014.098.04.193.078.285.12.28.305.418.555.418a.655.655 0 00.385-.125.933.933 0 00.287-.357l.102.068a1.097 1.097 0 01-.367.44.952.952 0 01-.53.14c-.327-.005-.627-.11-.817-.314-.191-.205-.286-.487-.29-.844-.004-.357.097-.644.28-.853.181-.21.47-.313.783-.321.195-.005.386.044.554.143.147.1.257.246.313.415.026.067.045.136.057.206.013.104.02.209.023.314M7.428 13.685l.799-.055c0 .079.007.147.01.201v.271c.173-.317.382-.477.626-.48a.384.384 0 01.259.093.305.305 0 01.103.23.24.24 0 01-.087.187.343.343 0 01-.22.072.175.175 0 01-.195-.136.34.34 0 00-.05-.118.083.083 0 00-.073-.03H8.59c-.084.007-.163.073-.235.2a.783.783 0 00-.078.208 1.195 1.195 0 00-.025.263v.784a1.31 1.31 0 00.018.277.157.157 0 00.094.117.756.756 0 00.228.03v.103H7.41V15.8a.569.569 0 00.214-.026.157.157 0 00.09-.12 1.26 1.26 0 00.02-.277v-1.176c0-.175-.014-.288-.053-.34-.04-.053-.124-.08-.253-.071l-.001-.105zM10.178 13.63l.005.421a.829.829 0 01.739-.43c.326 0 .528.147.604.448a.953.953 0 01.313-.34.774.774 0 01.415-.107c.25 0 .434.082.553.247a.58.58 0 01.098.226c.022.114.032.23.029.348v.934c-.004.093.002.186.019.278a.157.157 0 00.09.119.571.571 0 00.214.028v.102h-1.15v-.102c.07.004.14-.005.206-.028a.156.156 0 00.087-.12c.015-.091.022-.184.018-.277v-.93c0-.224-.027-.385-.079-.484a.28.28 0 00-.27-.145c-.15 0-.275.078-.378.235a.748.748 0 00-.132.429v.895c-.003.093.003.186.018.278a.157.157 0 00.088.119.543.543 0 00.209.028v.102H10.73v-.102a.53.53 0 00.205-.028.157.157 0 00.087-.12c.016-.091.022-.184.018-.277v-.934c0-.422-.115-.63-.344-.627a.458.458 0 00-.362.204.83.83 0 00-.152.492v.863c-.004.093.002.187.018.279a.152.152 0 00.09.12.548.548 0 00.205.028v.102H9.341v-.102a.595.595 0 00.215-.027.156.156 0 00.09-.119 1.28 1.28 0 00.018-.279v-1.184c.004-.172-.013-.284-.052-.335-.04-.051-.126-.079-.263-.072v-.1l.829-.056zM16.28 13.825v1.42c0 .076.003.153.01.229a.706.706 0 00.033.156.257.257 0 00.083.11c.036.028.08.043.125.044a.504.504 0 00.297-.132l.06.106a.872.872 0 01-.583.213c-.235-.004-.391-.082-.48-.235a.505.505 0 01-.04-.116 1.157 1.157 0 01-.019-.174c0-.074-.005-.172-.005-.297v-1.324h-.241v-.127a.53.53 0 00.235-.059.47.47 0 00.169-.167.857.857 0 00.09-.192c.028-.086.05-.173.064-.263l.213-.02-.008.17c0 .058 0 .128-.003.21-.004.081 0 .185 0 .313h.518v.135h-.518zM14.725 15.005v-.328c-.304.02-.52.079-.647.169a.483.483 0 00-.186.43.652.652 0 00.094.365.298.298 0 00.25.137.425.425 0 00.24-.079.496.496 0 00.172-.205.66.66 0 00.06-.197c.013-.098.018-.197.017-.295v.003zm.793.806v.09c-.124.008-.174.008-.305.008a.891.891 0 01-.3-.035.292.292 0 01-.128-.078.25.25 0 01-.056-.176 1.121 1.121 0 01-.343.262.88.88 0 01-.384.078.67.67 0 01-.478-.168.614.614 0 01-.176-.452c0-.366.227-.592.68-.68.231-.042.464-.068.698-.079v-.278c0-.221-.021-.375-.07-.46a.265.265 0 00-.263-.12.292.292 0 00-.284.144.375.375 0 00-.046.118c-.011.06-.019.122-.022.183a.203.203 0 01-.066.162.308.308 0 01-.194.047c-.197 0-.296-.065-.297-.195a.38.38 0 01.07-.215.616.616 0 01.193-.18c.213-.12.455-.176.699-.164.292 0 .502.057.627.174.06.057.103.128.126.207.03.104.043.212.04.32l-.004.37-.005.37c0 .121-.006.198-.005.23-.003.111.002.223.015.335a.187.187 0 00.068.14c.064.034.135.05.207.046M18.384 15.005v-.328c-.304.021-.52.079-.648.17-.127.09-.189.235-.186.43a.65.65 0 00.095.364.296.296 0 00.25.137c.086 0 .17-.026.24-.075a.5.5 0 00.173-.205c.03-.063.05-.13.06-.198.012-.098.018-.196.017-.295h-.001zm.793.81v.089a3.882 3.882 0 01-.305.009.874.874 0 01-.3-.036.29.29 0 01-.127-.078.247.247 0 01-.056-.175 1.12 1.12 0 01-.343.261.883.883 0 01-.384.083.675.675 0 01-.479-.17.609.609 0 01-.175-.455c0-.365.227-.592.68-.68a5.23 5.23 0 01.697-.078v-.282c0-.221-.022-.374-.071-.46a.264.264 0 00-.113-.099c-.047-.021-.098-.028-.149-.021a.293.293 0 00-.284.144.383.383 0 00-.046.118c-.012.06-.02.122-.023.184a.207.207 0 01-.066.162.308.308 0 01-.193.047c-.197 0-.296-.066-.297-.196a.392.392 0 01.07-.215.626.626 0 01.193-.18c.213-.118.454-.174.697-.162.292 0 .503.056.627.175a.47.47 0 01.127.205c.029.104.042.213.04.32l-.005.37v.37a7.74 7.74 0 00-.005.23 2.24 2.24 0 00.015.335.184.184 0 00.07.14c.063.035.135.05.207.046" fill="#000"/><path d="M27.927 10.588l-.008.164 3.14 3.683.112.019.014-.007.056-.102-1.34-4.483-.227-.153-1.747.879z" fill="#0096B8"/><path d="M27.919 10.752l3.14 3.683.112.019-2.316-3.524-.936-.178z" fill="#005675"/><path d="M29.674 9.709l-.8.942.326.143.701-.932-.227-.153z" fill="#0BBBEF"/><path d="M27.919 10.752l.936.178.018-.279-.947-.063-.007.164zM29.2 10.794l1.985 3.653.056-.103-1.34-4.482-.7.932z" fill="#007290"/><path d="M32.966 9.62l2.03.933.004.264-3.332 5.047-.152.04-.023-.01-.047-.114 1.343-6.062.177-.098z" fill="#81B73E"/><path d="M33.648 10.932l-2.132 4.972.152-.04L35 10.817l-1.352.115z" fill="#69931D"/><path d="M32.788 9.718l-1.342 6.062.047.114 1.771-5.173-.476-1.003z" fill="#277933"/><path d="M33.57 10.572l.078.36L35 10.817l-.004-.264-1.425.02z" fill="#AECC53"/><path d="M32.79 9.718l.474 1.002.307-.148-.605-.952-.177.098z" fill="#69931D"/><path d="M29.864 8.183l.082-.155L32.545 8l.167.175-1.245 4.16-.079.046h-.002l-.086-.057-1.436-4.14z" fill="#E4032E"/><path d="M29.864 8.183l1.008.502.187-.222-1.114-.435-.08.155z" fill="#B51227"/><path d="M29.864 8.183l1.436 4.14.085.058-.513-3.696-1.008-.502z" fill="#791B15"/><path d="M31.36 8.686l.028 3.695.08-.046 1.244-4.16-1.352.511z" fill="#B51227"/><path d="M32.545 8l-1.486.464.301.221 1.352-.51L32.545 8z" fill="#EA5160"/></g><defs><clipPath id="pi-permata-clip0"><path fill="#fff" transform="translate(3 8)" d="M0 0h32v7.971H0z"/></clipPath></defs></svg>