<svg xmlns="http://www.w3.org/2000/svg" role="img" viewBox="0 0 38 24" width="38" height="24" aria-labelledby="pi-pfpay"><title id="pi-pfpay">PostFinance Pay</title><path fill="#000" opacity=".07" d="M35 0H3C1.3 0 0 1.3 0 3v18c0 1.7 1.4 3 3 3h32c1.7 0 3-1.3 3-3V3c0-1.7-1.4-3-3-3z"/><path fill="#FC0" d="M35 1c1.1 0 2 .9 2 2v18c0 1.1-.9 2-2 2H3c-1.1 0-2-.9-2-2V3c0-1.1.9-2 2-2h32"/><g id="pi-pfpay-Text"><path d="M11.835 15.903l.673-3.024h2.59l.308-1.48h-2.581l.396-1.861h2.723l.333-1.48H11.78l-1.702 7.853h1.757v-.008zM5.843 13.512h.752c2.414 0 3.752-1.156 3.752-3.087 0-1.441-1.045-2.367-2.834-2.367H5.296L3.594 15.91H5.32l.523-2.399zm.3-1.44l.562-2.582h.72c.792 0 1.172.317 1.172 1.053 0 .942-.61 1.528-1.741 1.528h-.713zM18.81 15.919h-1.282l1.583-7.862h1.44c.373 0 .737.032 1.085.088.357.063.665.166.934.324.27.158.483.364.65.634.166.26.245.593.245 1.005 0 .475-.08.879-.245 1.227s-.396.625-.697.847c-.3.222-.657.388-1.077.49a5.88 5.88 0 01-1.401.16h-.285c-.095 0-.206-.009-.325-.025l-.625 3.112zm.808-4.172c.094.015.182.023.26.023h.238c.626 0 1.124-.118 1.489-.348s.554-.641.554-1.22c0-.213-.04-.387-.127-.53s-.206-.253-.364-.34a1.856 1.856 0 00-.57-.182 5.348 5.348 0 00-.744-.048h-.222l-.514 2.645zM26.133 15.72a2.202 2.202 0 01-1.037.246c-.515 0-.934-.15-1.259-.443-.324-.293-.483-.697-.483-1.196 0-.38.087-.704.254-.965.166-.262.395-.467.672-.634.285-.158.61-.277.982-.348.372-.071.76-.11 1.172-.11a7.574 7.574 0 01.823.039c.032-.127.04-.262.04-.404 0-.317-.103-.562-.317-.728-.214-.167-.507-.254-.887-.254-.253 0-.514.032-.791.087-.277.064-.665.222-.935.349l.23-1.116a5.02 5.02 0 011.647-.278c.696 0 1.227.159 1.607.468.38.308.57.767.57 1.37 0 .237-.032.545-.095.917-.063.373-.135.737-.214 1.093l-.142.68c-.04.19-.064.357-.088.515-.023.15-.04.301-.04.436-.007.134-.007.285-.007.451h-1.021c.008-.158.023-.325.04-.49.023-.167.039-.333.063-.484h-.024c-.19.356-.443.634-.76.8zm.997-2.564a5.787 5.787 0 00-.633-.04c-.404 0-.744.032-1.03.095-.284.064-.506.15-.68.254a.999.999 0 00-.372.38.998.998 0 00-.11.475c0 .26.086.467.253.61.174.142.387.213.657.213.245 0 .475-.056.688-.158s.404-.246.57-.428.31-.388.42-.633c.119-.23.198-.491.237-.768zM30.835 10.18c.088.735.175 1.424.238 1.986.071.57.119 1.022.158 1.354.04.34.064.586.08.736.015.15.023.277.031.364h.024c.031-.063.063-.134.095-.221.031-.087.087-.198.158-.34.071-.143.158-.325.27-.547.11-.222.245-.499.411-.823.166-.325.356-.713.586-1.164.23-.451.38-.752.696-1.354h1.283l-3.262 5.954a6.77 6.77 0 01-.57.926c-.182.261-.38.475-.57.649-.198.174-.403.3-.633.38-.222.08-.475.127-.752.127a2.56 2.56 0 01-.42-.032c-.142-.016-.293-.063-.411-.095l.205-1.021c.095.04.19.063.285.071.095.008.183.016.262.016.324 0 .593-.103.815-.301.222-.206.436-.515.641-.942l-.886-5.724h1.266z"/></g></svg>