<svg xmlns="http://www.w3.org/2000/svg" role="img" viewBox="0 0 38 24" width="38" height="24" aria-labelledby="pi-pivo"><title id="pi-pivo">Pivo</title><path fill="#000" opacity=".07" d="M35 0H3C1.3 0 0 1.3 0 3v18c0 1.7 1.4 3 3 3h32c1.7 0 3-1.3 3-3V3c0-1.7-1.4-3-3-3z"/><path fill="#fff" d="M35 1c1.1 0 2 .9 2 2v18c0 1.1-.9 2-2 2H3c-1.1 0-2-.9-2-2V3c0-1.1.9-2 2-2h32"/><path d="M19.58 17.25L17 8.31h2l2.16 7.51 2.16-7.51h2l-2.62 8.94zM8 15.52a2.65 2.65 0 10-2.65-2.65A2.65 2.65 0 008 15.52zm.15-7.2a4.39 4.39 0 014.35 4.55 4.4 4.4 0 01-4.35 4.55 3.83 3.83 0 01-2.94-1.33v3.59H3.3V8.32H5V10a3.87 3.87 0 013.17-1.68zM14 17.25V8.31h1.95v8.94zm16.19-7.06a2.69 2.69 0 102.66 2.68 2.67 2.67 0 00-2.67-2.68zm0 7.25a4.57 4.57 0 114.52-4.57 4.55 4.55 0 01-4.53 4.57zM16.33 5.73A1.36 1.36 0 1115 4.32a1.39 1.39 0 011.33 1.41z" fill="#25d0c5"/></svg>
