<svg width="38" height="24" viewBox="0 0 38 24" xmlns="http://www.w3.org/2000/svg" fill="none" role="img" aria-labelledby="pi-pluxee"><title id="pi-pluxee">Pluxee</title><path d="M35 0H3C1.3 0 0 1.3 0 3v18c0 1.7 1.4 3 3 3h32c1.7 0 3-1.3 3-3V3c0-1.7-1.4-3-3-3z" fill="#010101" opacity=".07"/><path d="M35 1c1.1 0 2 .9 2 2v18c0 1.1-.9 2-2 2H3c-1.1 0-2-.9-2-2V3c0-1.1.9-2 2-2h32" fill="#60b453"/><path fill="#211f45" d="M12.29 7.85v6.37q0 .07-.07.07h-1.43s-.03 0-.03-.04V7.84h1.54z"/><path d="M5.2 16.11h1.43q.07 0 .07-.07v-2.22h.03v2.29H5.26s-.07.04-.07 0z" fill="#474265"/><path fill="#211f45" d="M16 13.82l-.1.11c-.24.26-.56.41-.91.44-.35.04-.66.04-1.01-.11-.56-.19-.87-.59-1.01-1.19-.07-.26-.07-.52-.07-.78V9.73s0-.04.03-.04h1.43s.03 0 .03.04v2.37c0 .15 0 .26.03.41.07.33.31.56.63.59.14 0 .24 0 .38-.04.28-.07.45-.3.49-.59.03-.11.03-.22.03-.33v-2.3q0-.07.07-.07h1.4s.03 0 .03.04v4.48q0 .07-.07.07h-1.29q-.07 0-.07-.07v-.33q-.03-.11-.03-.15zm4.22-.75c-.14.11-.24.26-.35.37l-.77.82s-.03.04-.07.04h-.94q-.07 0-.07-.07v-1s0-.07.03-.07l1.05-1.11.07-.07-.21-.22-.91-.96s-.03-.07-.03-.11v-1s0-.04.03-.04h.91c.07 0 .1.04.14.07.35.37.7.74 1.01 1.11l.07.07h.03l.07-.07c.35-.37.66-.74 1.01-1.11.03-.04.07-.04.1-.04h.94s.03 0 .03.04v1s0 .07-.03.11c-.35.37-.7.74-1.08 1.11l-.03.04.21.22.91.96s.03.07.03.11v1s0 .04-.03.04h-.94s-.07 0-.1-.04c-.35-.41-.7-.78-1.08-1.19zm-10.09-2.03c-.17-.56-.52-.96-1.01-1.22-.45-.22-.94-.26-1.4-.15-.38.07-.7.26-.98.56h-.03v-.44q0-.07-.07-.07h-1.4v6.45h1.47s.07-.04.07-.07v-2.19s-.03-.07.03-.07l.03.04c.21.22.49.37.77.44.35.07.7.07 1.05 0 .63-.15 1.08-.48 1.4-1.07.17-.3.24-.67.28-1-.03-.37-.07-.82-.21-1.19zm-1.79 1.78c-.14.11-.31.19-.49.19-.24.04-.49 0-.7-.15a.958.958 0 01-.45-.82c0-.59.35-1 .84-1.07.24-.04.45 0 .66.11.35.22.49.52.49.93.03.37-.1.63-.35.82zm19.15-1.45c-.07-.48-.31-.89-.66-1.22-.28-.26-.63-.41-.98-.52-.31-.07-.59-.11-.91-.07-.28.04-.56.07-.84.19-.63.26-1.08.74-1.26 1.44-.14.44-.14.89-.07 1.37.14.82.56 1.37 1.29 1.67.35.15.73.22 1.12.22.35 0 .7-.04 1.05-.19.42-.15.77-.41 1.01-.82.1-.19.17-.33.24-.56h-1.5s-.03 0-.07.04c-.07.15-.21.26-.35.3-.07.04-.17.04-.28.07-.17 0-.38 0-.52-.11-.28-.15-.42-.41-.45-.74q0-.07.07-.07h3.11q.07 0 .07-.07c0-.07 0-.11.03-.19-.03-.22-.03-.48-.1-.74zm-1.54.11h-1.64c0-.22.1-.37.24-.52a1 1 0 01.45-.22c.21-.04.38-.04.59.04.24.11.42.3.49.59q0 .11-.14.11zm6.85.56v-.33c0-.07 0-.19-.03-.26-.07-.41-.21-.74-.45-1.07-.31-.41-.73-.63-1.22-.78-.31-.07-.59-.11-.91-.07-.28.04-.56.07-.84.19-.63.26-1.08.7-1.26 1.41-.17.56-.17 1.15 0 1.7.17.52.49.93.94 1.22.28.19.59.26.94.33.24.04.52.04.77 0 .28-.04.56-.07.84-.22.42-.19.77-.52.98-.93.07-.11.1-.22.14-.37h-1.5s-.03 0-.07.04c-.07.11-.17.22-.28.26-.17.11-.38.11-.56.07-.49-.07-.73-.44-.77-.85 0-.11 0-.07.07-.07h3.18s.03 0 .03-.04v-.26.04zm-1.57-.56h-1.64s-.03 0-.03-.04c0-.07 0-.11.03-.15.1-.26.28-.44.52-.52s.52-.07.77.04.38.3.42.59q.03.07-.07.07z"/></svg>