<svg width="38" height="24" viewBox="0 0 38 24" fill="none" xmlns="http://www.w3.org/2000/svg" role="img" aria-labelledby="pi-pnc"><title id="pi-pnc">PNC</title><g clip-path="url(#pi-pnc-clip0_10420_219285)"><path opacity=".07" d="M35 0H3C1.3 0 0 1.3 0 3v18c0 1.7 1.4 3 3 3h32c1.7 0 3-1.3 3-3V3c0-1.7-1.4-3-3-3z" fill="#000"/><path d="M35 1c1.1 0 2 .9 2 2v18c0 1.1-.9 2-2 2H3c-1.1 0-2-.9-2-2V3c0-1.1.9-2 2-2h32z" fill="#fff"/><path d="M12.654 15.291h.065c.045 0 .075.024.075.084 0 .041-.018.094-.075.094h-.065v-.178zm0 .268h.036c.113 0 .1.065.1.14 0 .043 0 .085.02.124h.142a.8.8 0 01-.017-.187c0-.115-.094-.123-.125-.124v-.003c.094-.014.128-.075.128-.156 0-.11-.063-.168-.162-.168h-.267v.638h.145v-.264zm.069-.601a.549.549 0 10-.002 1.1.549.549 0 00.002-1.1zm0 .996a.448.448 0 010-.893.446.446 0 010 .893z" fill="#F58025"/><path d="M9.417 7.926a4.075 4.075 0 100 8.15 4.075 4.075 0 000-8.15zM7.225 9.902l.001-.137c.002-.449.188-.825.444-.892.335-.09.786.309 1.238 1.092l.42.727c-.122.021-.225.103-.305.242L7.65 13.31c-.2.346-.339.657-.417.93v-.013c-.014-.627-.027-1.886-.009-4.325zm1.47 5.044l-.12.068c-.39.224-.807.25-.994.062-.244-.246-.125-.835.327-1.618l.42-.729c.081.097.202.145.362.145h2.743c.4 0 .739-.036 1.014-.104l-.011.007c-.536.325-1.62.967-3.741 2.169zm2.738-2.369h-.841c.042-.118.024-.247-.056-.385L9.165 9.817a4.21 4.21 0 00-.598-.827.095.095 0 01.012.007c.55.3 1.646.919 3.748 2.154l.12.07c.388.226.62.574.55.83-.09.334-.66.526-1.564.526z" fill="#F58025"/><path d="M17.278 11.907h-.409V9.974c0-.454 0-.523.867-.523.973 0 1.51.438 1.51 1.233 0 1.078-.995 1.223-1.968 1.223zm.13-2.915h-2.691v.262l.053.006c.937.114 1.032.237 1.032.715v4.981h1.067v-2.59h.43c1.015 0 3.124 0 3.124-1.682 0-1.692-1.96-1.692-3.014-1.692z" fill="#0069AA"/><path d="M26.459 8.993h-.627v4.648l-3.337-4.648H20.23v.26l.052.007c.916.12 1.033.16 1.033.818v4.878h.688v-5l3.597 5h.918V8.993h-.06zm.878 2.786c0 1.628.994 3.27 3.213 3.27 1.055 0 1.574-.115 2.056-.244l.045-.012v-.49l-.082.022c-.513.138-1.016.214-1.418.214-1.774 0-2.636-.976-2.636-2.986 0-1.343.638-2.144 1.708-2.144.717 0 1.138.282 1.25.837l.01.048h1.176l-.01-.068c-.039-.311-.327-1.328-2.36-1.328-1.96 0-2.952.97-2.952 2.88z" fill="#0069AA"/></g><defs><clipPath id="pi-pnc-clip0_10420_219285"><path fill="#fff" d="M0 0h38v24H0z"/></clipPath></defs></svg>