<svg xmlns="http://www.w3.org/2000/svg" role="img" viewBox="0 0 38 24" width="38" height="24" aria-labelledby="pi-podiumcadeaukaart"> <title id="pi-podiumcadeaukaart">Podium Cadeaukaart</title> <path fill="#ec1d24" d="M35 0H3C1.3 0 0 1.3 0 3v18c0 1.7 1.4 3 3 3h32c1.7 0 3-1.3 3-3V3c0-1.7-1.4-3-3-3z"/> <path fill="#ec1d24" d="M35 1c1.1 0 2 .9 2 2v18c0 1.1-.9 2-2 2H3c-1.1 0-2-.9-2-2V3c0-1.1.9-2 2-2h32"/> <path clip-rule="evenodd" d="m5.99934 5.83663.00066-3.0237c-.06189-1.56329-1.37773-2.81293-2.99319-2.81293-.04639 0-3.00116329.00346231-3.00116329.00346231s-.00099659 2.83932769-.00099659 2.84776769c0 .79999.64994788 1.45013 1.46376988 1.46895h1.33964c-1.55578.103-2.7889048 1.35675-2.80806 2.89873 0 0 .00033188 3.26379.00033188 3.26529 0 .8373.69434712 1.5158 1.55112812 1.5158.85656 0 1.5509-.6785 1.5509-1.5158 0-.0137-.0011-1.86126-.0011-1.86126 1.56397-.04749 2.82555-1.26489 2.89808-2.78631z" fill="#fff" fill-rule="evenodd" transform="translate(16 5) scale(1.2 1.2)"/> </svg>