<svg xmlns="http://www.w3.org/2000/svg" role="img" viewBox="0 0 38 24" width="38" height="24" fill="none" aria-labelledby="pi-pointspay"><title id="pi-pointspay">Pointspay</title><g clip-path="url(#clip0_2_13)"><path fill="#000" d="M35 0H3C1.3 0 0 1.3 0 3v18c0 1.7 1.4 3 3 3h32c1.7 0 3-1.3 3-3V3c0-1.7-1.4-3-3-3" opacity=".07"/><path fill="#fff" d="M35 1c1.1 0 2 .9 2 2v18c0 1.1-.9 2-2 2H3c-1.1 0-2-.9-2-2V3c0-1.1.9-2 2-2z"/><path fill="#192451" d="M17.659 10.821c0 2.114-1.545 3.821-3.496 3.821s-1.789-.406-2.358-1.057v3.74h-1.87V7.244h1.87v.813c.488-.65 1.3-1.057 2.358-1.057 1.95 0 3.495 1.626 3.495 3.821zm-1.87 0c0-1.057-.732-1.951-1.87-2.032h-.163c-1.057 0-1.951.813-1.951 1.87v.162c0 1.057.732 1.951 1.87 2.033h.162a2.037 2.037 0 0 0 2.033-1.87v-.163zm10.162-3.577v7.236h-1.87v-.813c-.569.731-1.463 1.057-2.357 1.057-1.952 0-3.496-1.626-3.496-3.822 0-2.195 1.544-3.82 3.496-3.82.894 0 1.788.325 2.357 1.056v-.813h1.87zm-1.87 3.577c0-1.138-.813-2.032-1.95-2.032-1.14 0-2.033.813-2.033 1.95v.163c0 1.139.813 2.033 1.95 2.033 1.139 0 2.033-.813 2.033-1.951zM34 7.244l-2.602 7.236c-.731 2.113-1.95 3.008-3.82 2.845v-1.707c1.056 0 1.544-.407 1.87-1.382L26.52 7.244h2.033l1.87 4.878 1.626-4.878z"/><path fill="#A78FFF" d="M8.065 10.821a2.037 2.037 0 0 0-1.87-2.032h-.162A2.037 2.037 0 0 0 4 10.659v.162c0 1.057.732 1.951 1.87 2.033h.163a2.037 2.037 0 0 0 2.032-1.87z"/></g></svg>
