<svg xmlns="http://www.w3.org/2000/svg" role="img" viewBox="0 0 38 24" width="38" height="24" aria-labelledby="pi-poli"><title id="pi-poli">POLi</title><g clip-path="url(#pi-poli-a)"><path fill="#000" d="M35 0H3C1.3 0 0 1.3 0 3v18c0 1.7 1.4 3 3 3h32c1.7 0 3-1.3 3-3V3c0-1.7-1.4-3-3-3Z" opacity=".07"/><path fill="#fff" d="M35 1c1.1 0 2 .9 2 2v18c0 1.1-.9 2-2 2H3c-1.1 0-2-.9-2-2V3c0-1.1.9-2 2-2h32Z"/><path fill="#231F20" d="M23.878 16.997h6.482V14.03h-3.285V7.1h-3.197v9.898Z"/><path fill="#231F20" fill-rule="evenodd" d="M4 7.158v9.883h2.881v-3.017h.653c1.152 0 2.466-.251 3.061-.835.596-.585.843-1.468.843-2.595-.002-.685-.109-1.274-.322-1.767-.214-.494-.525-.866-.936-1.117-.309-.193-.897-.408-1.346-.49-.373-.068-1.046-.066-1.804-.063l-.47.001H4Zm3 5.063a1.017 1.017 0 0 1-.135-.013v-3.04l-.002-.166c.574 0 1.098.078 1.31.31.31.337.31.686.31 1.107v.06c0 .54-.008 1.123-.218 1.385-.136.169-.373.389-1.265.357Z" clip-rule="evenodd"/><path fill="#231F20" d="M33.977 10.513h-3.063v6.499h3.063v-6.499ZM30.87 7.142H34V9.83h-3.13V7.142Z"/><path fill="#27469B" fill-rule="evenodd" d="M19.579 16.317c.412-.15.82-.462 1.17-.78.99-.902 2.032-2.431 1.952-4.294-.085-1.959-1.136-3.214-2.537-3.999.404.089.738.358 1.048.61.898.727 1.58 1.852 1.61 3.439.04 2.107-1.082 3.545-2.195 4.537.349-.174.618-.494.878-.806.737-.881 1.415-2.136 1.415-3.707 0-2.211-1.25-3.485-2.708-4.317.483.139.91.427 1.27.732.882.75 1.667 2.064 1.562 3.805-.105 1.724-.869 3.079-1.903 4.073a6.79 6.79 0 0 1-4.097 1.854 4.114 4.114 0 0 1-.61 0c-2.547-.211-4.392-1.841-4.586-4.343a5.14 5.14 0 0 1 0-.78c.114-1.577.82-2.834 1.756-3.805 1.018-1.056 2.304-1.852 4.098-1.975.044-.199.095-.42.122-.561.591.627 1.31 1.31 2.049 2.049-.893.457-1.761.938-2.634 1.415.019-.18.06-.383.073-.513-1.499.265-2.762 1.352-3.025 2.877-.317 1.861.924 3.285 2.709 3.295 1.803.01 3.334-1.384 3.609-2.977.22-1.288-.345-2.187-1.072-2.78.678.448 1.413 1.257 1.318 2.46-.151 1.884-1.923 3.45-3.781 3.463-1.016.009-1.915-.446-2.561-1.194.607.883 1.67 1.35 2.878 1.27.948-.064 1.75-.531 2.341-1.098.605-.58 1.072-1.387 1.197-2.219a3.601 3.601 0 0 0 0-1c-.149-.975-.741-1.43-1.283-2.055.771.615 1.58 1.436 1.527 2.761-.08 1.94-1.937 3.649-3.88 3.781-1.274.088-2.06-.349-2.731-.976.637.808 1.838 1.224 3.096 1.025 1.792-.282 3.39-1.779 3.586-3.634.173-1.676-.675-2.453-1.483-3.275.862.653 1.598 1.378 1.653 2.714.045 1.161-.52 2.297-1.244 3.025-1.158 1.161-3.419 1.925-5.172.853 1.495 1.142 3.816.487 5.05-.635.893-.812 1.548-1.896 1.438-3.511-.087-1.302-.824-1.966-1.659-2.66.86.44 1.687 1.32 1.806 2.586.156 1.66-.608 2.888-1.538 3.706-1.123.993-2.703 1.582-4.485 1.123 2.948.918 5.706-1.27 6.097-3.805.282-1.82-.647-2.894-1.535-3.659-.091-.079-.143-.134-.268-.244 1.265.66 2.318 2.116 1.905 4.17-.486 2.396-2.884 4.338-5.977 3.83.45.18.973.142 1.429.117 1.407-.08 2.682-.782 3.364-1.539.829-.92 1.483-2.081 1.356-3.751-.114-1.513-.959-2.237-1.993-3.04.437.155.81.463 1.124.803.52.563.945 1.334 1.013 2.289.127 1.723-.665 3.004-1.536 3.902-.928.957-2.183 1.57-3.78 1.585 2.504.076 4.168-1.46 4.976-3.17.46-.98.595-2.36.219-3.439-.347-.995-1.145-1.677-1.928-2.23 1.368.73 2.52 2.103 2.27 4.23a5.088 5.088 0 0 1-.715 2.071c-.747 1.252-1.967 2.133-3.336 2.612 1.013-.222 1.975-.828 2.682-1.61.865-.957 1.532-2.17 1.488-3.854-.047-1.815-1.17-2.862-2.316-3.682.015.002.03.006.044.012 1.25.612 2.198 1.677 2.395 3.329.31 2.612-1.408 4.518-3 5.512" clip-rule="evenodd"/></g><defs><clipPath id="pi-poli-a"><path fill="#fff" d="M0 0h38v24H0z"/></clipPath></defs></svg>
