<svg viewBox="0 0 38 24" width="38" height="24" role="img" aria-labelledby="pi-polygon" xmlns="http://www.w3.org/2000/svg"><title id="pi-polygon">Polygon</title><rect width="38" height="24" rx="3" fill-opacity=".07"/><rect x="1" y="1" width="36" height="22" rx="2" fill="#fff"/><path d="M14.57 9.06a1.15 1.15 0 0 1 1.08 0l2.52 1.48 1.71.94L22.35 13a1.15 1.15 0 0 0 1.08 0l1.93-1.2a1.09 1.09 0 0 0 .54-1V8.61a1.12 1.12 0 0 0-.54-.95l-1.93-1.12a1.15 1.15 0 0 0-1.08 0l-1.93 1.17a1.08 1.08 0 0 0-.54.94v1.48l-1.71-1V7.62a1.12 1.12 0 0 1 .54-1l3.59-2.06a1.15 1.15 0 0 1 1.08 0l3.69 2.16a1 1 0 0 1 .54.9v4.22a1.12 1.12 0 0 1-.54.95l-3.64 2.11a1.15 1.15 0 0 1-1.08 0l-2.47-1.44-1.71-1L15.7 11a1.15 1.15 0 0 0-1.08 0l-1.94 1.13a1.11 1.11 0 0 0-.54.94v2.25a1.1 1.1 0 0 0 .54.94l1.89 1.13a1.15 1.15 0 0 0 1.08 0l1.93-1.13a1.08 1.08 0 0 0 .54-.94v-1.41l1.71 1v1.48a1.12 1.12 0 0 1-.54.95l-3.64 2.11a1.15 1.15 0 0 1-1.08 0l-3.64-2.11a1.11 1.11 0 0 1-.54-.95v-4.28a1.1 1.1 0 0 1 .54-.94z" fill="#8247e5"/></svg>
