<svg xmlns="http://www.w3.org/2000/svg" role="img" viewBox="0 0 38 24" width="38" height="24" aria-labelledby="pi-pop-pankki"><title id="pi-pop-pankki">POP Pankki</title><path fill="#000" opacity=".07" d="M35 0H3C1.3 0 0 1.3 0 3v18c0 1.7 1.4 3 3 3h32c1.7 0 3-1.3 3-3V3c0-1.7-1.4-3-3-3z"/><path fill="#fff" d="M35 1c1.1 0 2 .9 2 2v18c0 1.1-.9 2-2 2H3c-1.1 0-2-.9-2-2V3c0-1.1.9-2 2-2h32"/><path d="M7.23 6.64c3.27 0 5.09 1.53 5.09 4.26s-1.82 4.25-5.09 4.25h-1v2.21h-3.7V6.64zm0 5.46c.85 0 1.34-.43 1.34-1.2s-.49-1.2-1.34-1.2h-1v2.4zM24.64 12a5.51 5.51 0 01-5.88 5.6 5.51 5.51 0 01-5.88-5.6 5.51 5.51 0 015.88-5.6 5.51 5.51 0 015.88 5.6zm-3.75 0a2.13 2.13 0 10-2.13 2.14A2.1 2.1 0 0020.89 12zM30.37 6.64c3.27 0 5.1 1.53 5.1 4.26s-1.83 4.25-5.1 4.25h-1v2.21h-3.69V6.64zm0 5.46c.86 0 1.34-.43 1.34-1.2s-.48-1.2-1.34-1.2h-1v2.4z" fill="#41d87e"/></svg>
