<svg width="38" height="24" viewBox="0 0 38 24" fill="none" xmlns="http://www.w3.org/2000/svg" role="img" aria-labelledby="pi-portmone"><title id="pi-portmone">Portmone</title><g clip-path="url(#pi-portmone-clip0)"><path d="M35 .5H3A2.5 2.5 0 00.5 3v18A2.5 2.5 0 003 23.5h32a2.5 2.5 0 002.5-2.5V3A2.5 2.5 0 0035 .5z" stroke="#000" stroke-opacity=".07"/><rect x="1" y="1" width="36" height="22" rx="2" fill="#fff"/><path d="M5.145 10.006h.237l.379.069.378.16.237.16.237.253.19.32.118.299.071.366v.436l-.07.412-.096.275-.165.298-.166.206-.237.207-.355.183-.38.092h-.52l-.26-.07-.285-.137-.26-.206-.024.069v.435l-.024.802-.024.184-.047.023h-.782l-.19-.023-.023-.527V10.51l.024-.068.568-.207.403-.137.095.023v.39h.047l.047-.092.214-.184.284-.137.379-.092zM18.905 10.006h.284l.356.092.26.137.213.207.048.068.07.023.048-.091.237-.184.379-.183.332-.069h.284l.331.069.237.092.213.16.166.206.119.252.07.298v2.475l-.023.138h-1.042l-.024-.023-.024-.481-.023-1.765-.095-.23-.047-.09-.119-.047-.237-.068-.308.045-.165.115-.119.206-.047.344v.504l-.024 1.467-.023.023h-1.043l-.023-.023-.024-2.223-.095-.23-.118-.137-.19-.068-.165-.023-.237.045-.142.092-.119.138-.07.206-.024.78-.024 1.42-.024.023-.474.023h-.497l-.07-.023v-3.598l.023-.023h1.042l.024.023v.39l.189-.138.166-.137.331-.16.237-.047zM24.566 9.983h.474l.402.092.26.115.285.16.308.275.213.298.142.298.095.344.023.16V12l-.047.32-.118.345-.143.252-.189.229-.118.137-.332.23-.284.137-.284.092-.38.045-.402-.023-.284-.068-.332-.138-.308-.206-.284-.275-.213-.32-.142-.322-.071-.298v-.504l.095-.366.19-.367.141-.206.213-.23.356-.252.331-.137.237-.069.166-.023zM8.91 9.983h.45l.403.092.38.16.283.207.237.229.19.298.118.229.095.367.023.252v.252l-.07.343-.119.298-.166.275-.213.23-.19.183-.307.183-.38.138-.402.068h-.308l-.426-.091-.379-.16-.26-.184-.119-.092-.213-.252-.19-.298-.118-.298-.071-.39v-.366l.095-.367.094-.229.214-.343.094-.115h.048l.023-.069.26-.206.332-.183.332-.115.26-.046zM32.524 10.006h.26l.403.069.379.138.237.16.165.137.214.298.142.298.094.298.072.436v.252l-.048.16-.237.023h-2.273l.118.275.166.183.237.115.19.046h.283l.285-.069.331-.16.047-.092.095-.023.237.596.047.114v.138l-.236.16-.285.115-.284.069-.166.023h-.52l-.38-.092-.308-.115-.26-.16-.332-.32-.19-.299-.141-.344-.048-.298v-.48l.072-.345.118-.297.19-.298.212-.23.19-.16.332-.183.308-.092.284-.046zM29.042 10.006h.284l.38.092.284.137.213.207.142.229.095.298.023.137v2.567l-.024.023h-1.042l-.023-.023-.024-.275-.024-1.994-.118-.229-.19-.138-.094-.022h-.356l-.19.114-.117.138-.072.183-.023.23-.024 1.901-.024.115H27.1l-.047-.046v-3.53l.023-.045h1.066v.413l.119-.07.118-.114.19-.137.26-.115.213-.046zM15.542 9.181h.071l.024.871.024.023h.805l.023.023v.32l-.023.574-.83.023v1.58l.096.138.142.07h.19l.236-.07.166-.046.023.023v.734l-.07.114-.403.184-.332.045-.45-.045-.284-.138-.213-.183-.119-.183-.07-.275-.024-.367v-1.581l-.403-.023-.024-.023v-.734l.048-.16h.402v-.55l.71-.252.285-.092zM11.492 10.075h1.042l.024.023v.412l.118-.114.213-.184.237-.091.26-.046h.332l.024.32-.024.574-.023.023-.332.045-.213.092-.19.138-.165.206-.119.252-.07.298-.024.206-.024 1.444-.024.023h-1.018l-.048-.046v-3.552l.024-.023z" fill="#F41F2C"/><path d="M4.908 10.923h.19l.213.046.26.137.19.23.094.206.048.229-.024.32-.071.23-.142.23-.095.114-.237.137-.166.046h-.307l-.237-.092-.142-.091-.19-.207-.118-.297-.024-.092v-.39l.095-.275.166-.229.189-.16.308-.092zM24.66 11.014h.285l.284.092.142.092v.046l.095.046.166.229.07.206v.252l-.094.298-.166.23-.237.16-.19.068-.26.023-.284-.069-.19-.091-.118-.092-.166-.23-.094-.297v-.183l.047-.207.118-.206.166-.183.19-.115.236-.069zM8.982 11.014h.26l.308.092.19.138.142.16.118.23.024.16v.183l-.071.252-.142.23-.214.16-.19.091-.094.023h-.402l-.214-.091-.19-.138-.141-.16-.119-.298v-.344l.095-.252.213-.252.332-.16.095-.024zM32.524 10.877h.26l.26.092.12.114.141.16.095.23-.024.114h-1.373l-.095-.022.024-.184.142-.229.166-.16.189-.092.095-.023z" fill="#FDFDFD"/></g><defs><clipPath id="pi-portmone-clip0"><path fill="#fff" d="M0 0h38v24H0z"/></clipPath></defs></svg>