<svg xmlns="http://www.w3.org/2000/svg" role="img" viewBox="0 0 38 24" width="38" height="24" aria-labelledby="pi-postpay"><title id="pi-postpay">Postpay</title><path opacity=".07" fill="#000" d="M35 0H3C1.3 0 0 1.3 0 3v18c0 1.7 1.4 3 3 3h32c1.7 0 3-1.3 3-3V3c0-1.7-1.4-3-3-3z"/><path fill="#fff" d="M35 1c1.1 0 2 .9 2 2v18c0 1.1-.9 2-2 2H3c-1.1 0-2-.9-2-2V3c0-1.1.9-2 2-2h32"/><g clip-rule="evenodd" fill="#3ebbd2" fill-rule="evenodd"><path d="M17.421 8.45h1.285c.03.436.04.875.031 1.316a4.1 4.1 0 01.825.045c.036.34.041.681.016 1.026l-.046.045c-.264.015-.53.02-.795.015.005 1.081 0 2.162-.015 3.242l-.046.046c-.418.02-.837.02-1.255 0a.29.29 0 01-.046-.076c-.014-1.07-.02-2.141-.014-3.212-.255.005-.51 0-.765-.015l-.046-.045a5.806 5.806 0 01.015-1.026c.262-.043.527-.059.796-.045-.006-.408 0-.816.014-1.224l.046-.092z" opacity=".98"/><path d="M10.325 9.694c1.13-.026 1.93.468 2.399 1.486.359 1.164.055 2.108-.913 2.832-.89.491-1.766.47-2.63-.062-.8-.632-1.104-1.452-.914-2.46.299-1.048.984-1.646 2.058-1.796zm.062 1.3c.628-.017 1.006.282 1.13.898.038.58-.215.968-.758 1.161-.844.033-1.241-.374-1.192-1.223.114-.44.387-.718.82-.836z" opacity=".978"/><path d="M14.537 9.702a2.234 2.234 0 011.742.648c.027.042.043.09.047.139a3.04 3.04 0 01-.356.54.659.659 0 01-.184.154c-.188-.101-.377-.199-.57-.294a.685.685 0 00-.618 0c-.179.182-.158.336.062.463.338.118.677.232 1.018.34.779.362 1.032.954.756 1.774-.312.516-.769.81-1.373.88a2.406 2.406 0 01-1.728-.463 1.67 1.67 0 01-.308-.356c.134-.253.288-.494.463-.724a.2.2 0 01.154 0c.384.276.854.407 1.326.37.245-.113.276-.267.093-.463a7.128 7.128 0 00-.988-.37c-.766-.283-1.058-.822-.878-1.62.242-.612.689-.951 1.342-1.018z" opacity=".973"/><path d="M4.558 15.945H3.324a.133.133 0 00-.046-.062c-.02-2.025-.02-4.05 0-6.076a.35.35 0 01.108-.047c.329-.02.658-.02.987 0a.292.292 0 01.077.046c.029.146.06.29.093.432.438-.475.977-.655 1.62-.54.906.217 1.476.778 1.711 1.682.208.962-.043 1.78-.756 2.451-.633.467-1.322.57-2.066.31a1.565 1.565 0 01-.386-.263l-.031 1.974a.348.348 0 01-.077.093zm.864-4.997c.594-.055.98.202 1.156.771.11.661-.152 1.088-.786 1.28-.603.061-.979-.2-1.127-.787-.093-.637.16-1.059.757-1.264zm15.85 5.043h-1.233a.133.133 0 00-.046-.063c-.02-2.025-.02-4.05 0-6.076a.35.35 0 01.108-.047c.33-.02.658-.02.987 0a.292.292 0 01.077.046c.029.146.06.29.093.433.438-.475.977-.656 1.62-.54.906.216 1.476.777 1.711 1.681.208.962-.043 1.78-.756 2.452-.633.466-1.322.57-2.066.308a1.565 1.565 0 01-.386-.262l-.031 1.975a.348.348 0 01-.077.092zm.864-4.998c.595-.055.98.202 1.156.771.11.662-.152 1.088-.786 1.28-.603.061-.979-.2-1.126-.787-.093-.637.159-1.058.756-1.264z" opacity=".978"/><path d="M26.715 9.64c.649-.107 1.193.08 1.633.559.038-.142.069-.286.093-.436a.295.295 0 01.078-.046c.331-.021.663-.021.995 0 .038.009.075.025.109.046.02 1.462.02 2.923 0 4.385l-.047.047c-.362.02-.726.02-1.088 0a.22.22 0 01-.078-.14 1.43 1.43 0 00-.062-.312c-.43.446-.954.618-1.571.514-1.136-.255-1.752-.965-1.85-2.13-.034-1.292.562-2.122 1.788-2.488zm.342 1.274c.617-.057 1.006.212 1.167.809.1.655-.165 1.074-.793 1.259-.592.06-.97-.194-1.136-.762-.104-.654.15-1.09.763-1.306z" opacity=".981"/><path d="M34.721 9.804v.214c-.77 1.895-1.53 3.793-2.28 5.695a.579.579 0 01-.138.214h-1.194c-.072-.027-.098-.078-.077-.154a74.4 74.4 0 01.659-1.576c-.572-1.4-1.139-2.803-1.699-4.209-.035-.093-.01-.16.076-.2.388-.02.776-.02 1.164 0a.222.222 0 01.137.077l.98 2.694.98-2.694a.216.216 0 01.137-.076 9.05 9.05 0 011.255.015z" opacity=".973"/></g></svg>