<svg xmlns="http://www.w3.org/2000/svg" width="38" height="24" viewBox="0 0 38 24" fill="none" role="img" aria-labelledby="pi-postfinancenew"><title id="pi-postfinancenew">Postfinancenew</title><g clip-path="url(#pi-postfinancenew-clip0)"><path d="M35 .5H3A2.5 2.5 0 00.5 3v18A2.5 2.5 0 003 23.5h32a2.5 2.5 0 002.5-2.5V3A2.5 2.5 0 0035 .5z" stroke="#000" stroke-opacity=".07"/><g clip-path="url(#pi-postfinancenew-clip1)"><path d="M1 1h36v22H1V1z" fill="#FDCB05"/><path d="M17.603 4.162h2.557l.024.023v.757l-.047.527-.142.664-.119.367-.142.367-.19.39-.284.458.356-.184.497-.183.545-.138.474-.091.402-.046.38-.023h.639l.07.046.024 1.787v.71l-.852.024-.498.068-.45.115-.379.183-.213.16-.118.115-.166.184-.166.275-.142.366-.095.459-.023.183-.024.756h-2.629l-.024-.023v-.252l.048-.733.07-.504.143-.596.213-.573.26-.527.214-.32-.569.228-.402.138-.521.137-.569.092-.308.023-.947.023-.071-.069V7.073l.024-.023.758-.023.544-.069.45-.114.45-.207.26-.206.214-.252.19-.344.142-.458.07-.504.024-.481v-.184l.048-.046z" fill="#FDFDFD"/><path d="M23.808 14.704h.284l.332.092.26.183.142.138.024-.023.024-.298h.616l.047 2.43.213.068.024.023v.412l-.071.092h-.308l-.237-.069-.213-.16-.071-.138v-.046l-.095.023-.142.184-.332.183-.142.046h-.426l-.355-.092-.237-.114-.237-.184-.213-.298-.142-.32-.071-.275-.024-.344.047-.344.095-.298.166-.298.213-.229.26-.183.308-.115.26-.046zm-21.6-.962h1.824l.379.091.236.115.166.137.19.252.118.253.071.275v.297l-.095.367-.142.275-.213.23-.26.16-.285.091-.236.023-1.043.023v1.398l-.023.023H2.16v-3.964l.047-.046zm4.595.939h.402l.356.092.355.183.284.252.142.184.166.343.071.321v.39l-.071.344-.166.366-.213.252-.19.16-.331.184-.355.092h-.474l-.379-.092-.355-.183-.237-.206-.213-.321-.119-.298-.07-.321v-.298l.047-.252.118-.32.166-.276.118-.137.19-.16.237-.138.307-.115.214-.046zm27.307.046h.522l.379.115.331.206.19.206.189.367.071.275v.55l-2.226.023.047.252.142.252.213.16.213.092.119.023h.19l.284-.069.213-.183.094-.138.166.023.427.092.023.092-.118.229-.19.229-.236.16-.26.115-.214.046h-.474l-.379-.092-.26-.114-.26-.184-.214-.252-.142-.275-.095-.32-.023-.115v-.436l.094-.39.166-.32.26-.275.214-.16.331-.138.214-.046zm-19.35-.985h2.369l.19.023.023.068-.024.55-1.894.023-.024 1.077h1.776v.642H15.4v1.627l-.237.023h-.52v-3.85l.023-.16.095-.023zm-4.689.871h.45l.379.091.284.138.237.206.142.206.071.138v.091l-.308.092-.331.092-.142-.207-.119-.114-.284-.138h-.379l-.237.115-.118.114-.024.046v.138l.095.137.118.07.427.09.568.093.379.114.213.137.118.138.095.252v.298l-.095.275-.07.137-.19.207-.332.183-.379.092h-.497l-.403-.092-.331-.16-.237-.206-.166-.23-.07-.206.189-.069.355-.091h.118l.142.206.119.114.237.115.095.023h.402l.19-.069.118-.091.071-.16-.024-.138-.023-.07-.095-.045-.26-.092-.853-.16-.237-.069-.19-.091-.189-.16-.095-.184-.047-.207v-.183l.07-.298.12-.183.189-.183.379-.184.355-.068zm17.763.091h.355l.285.092.19.115.118.091.165.252.072.252.023.16v2.086l-.024.023h-.592l-.094-.023v-1.879l-.071-.252-.142-.16-.143-.07-.236-.022-.237.069-.142.091-.119.092-.142.206-.024 1.925-.047.023h-.64l-.023-.023v-2.727l.024-.23.568-.022.047.069.024.366.308-.297.332-.16.165-.047zm-7.081 0h.355l.331.115.237.16.142.207.095.229.047.252v2.085l-.023.023h-.663l-.024-.023v-1.764l-.047-.321-.095-.138-.119-.091-.213-.07-.237.024-.236.114-.143.115-.142.206-.023.069v1.856l-.048.023h-.64l-.023-.023v-2.727l.024-.206.023-.023.545-.023.048.023.023.39.071.022.024-.091.118-.138.214-.137.19-.092.189-.046zm10.184.023h.402l.356.092.284.137.284.252.119.16.094.207-.023.069-.616.16-.095-.046-.095-.183-.142-.115-.166-.068h-.402l-.284.137-.119.092-.166.252-.07.206v.39l.07.252.143.252.26.16.213.07h.332l.237-.116.118-.114.118-.183.166.023.403.091.07.046-.023.115-.142.252-.166.206-.26.183-.308.115-.119.023h-.497l-.379-.092-.331-.16-.237-.207-.166-.229-.119-.229-.094-.344v-.595l.118-.367.142-.252.213-.252.285-.207.355-.137.237-.046zm-17.763-.619h.118l.024.023-.024.275-.095.298-.07.138h.805l.023.022v.55l-.023.023h-.782l.024 1.49.07.183.095.07.19.045.426.023.024.023v.55l-.024.023h-.616l-.355-.092-.237-.137-.142-.16-.094-.184-.048-.16-.023-.322V15.46l-.45-.023-.024-.275.047-.114.237-.184.19-.206.118-.252.071-.252.024-.023.52-.023z" fill="#004757"/><path d="M6.85 15.3h.26l.308.092.261.183.166.252.095.367v.183l-.072.298-.165.252-.19.16-.237.115-.19.046h-.189l-.236-.069-.237-.137-.166-.16-.118-.207-.072-.23v-.389l.119-.275.166-.206.165-.137.237-.115.095-.023zm17.029.046h.26l.237.069.19.114.142.16.095.23.023.137v.413l-.047.229-.118.206-.119.115-.213.137-.118.046-.261.023-.26-.069-.214-.114-.142-.184-.095-.229-.047-.229v-.275l.071-.252.166-.252.213-.184.237-.091z" fill="#FDCB05"/><path d="M17.91 14.796h.664l.023.916v2.04l-.047.023h-.663l-.024-.023V16.01l.024-1.191.023-.023z" fill="#004757"/><path d="M2.942 14.383h.948l.236.092.19.16.095.252v.344l-.119.23-.19.137-.236.069h-.948l-.023-.023.023-1.238.024-.023zm31.287.894h.284l.237.092.19.16.118.23.024.183-.782.023h-.687l-.047-.023.07-.207.143-.183.213-.183.237-.092z" fill="#FDCB05"/><path d="M18.218 13.535h.142l.19.115.095.16v.207l-.119.183-.118.092-.071.023h-.166l-.142-.07-.119-.114-.047-.091v-.23l.071-.114.142-.115.142-.046z" fill="#004757"/></g></g><defs><clipPath id="pi-postfinancenew-clip0"><path fill="#fff" d="M0 0h38v24H0z"/></clipPath><clipPath id="pi-postfinancenew-clip1"><rect x="1" y="1" width="36" height="22" rx="2" fill="#fff"/></clipPath></defs></svg>