<svg xmlns="http://www.w3.org/2000/svg" width="38" height="24" viewBox="0 0 38 24" role="img" aria-labelledby="pi-postepay" version="1.1"><title id="pi-postepay">PostePay</title><g fill-rule="evenodd" fill-opacity="1"><path fill="#000" opacity=".07" d="M35 0H3C1.3 0 0 1.3 0 3v18c0 1.7 1.4 3 3 3h32c1.7 0 3-1.3 3-3V3c0-1.7-1.4-3-3-3z"/><path fill="#f5e11c" d="M35 1c1.1 0 2 .9 2 2v18c0 1.1-.9 2-2 2H3c-1.1 0-2-.9-2-2V3c0-1.1.9-2 2-2h32"/><path d="M23.172 10.938l-.063-.09a.513.513 0 00-.023-.04l-.066-.183c-.97-.008-.86-.172-1.012.52-.2.906-.852 2.949-.895 3.539l1.04-.004.406-1.512c.007.012.023.012.03.035.009.02.032.024.036.031.45.414 1.086.508 1.66.27 1.168-.484 1.395-2.246.613-2.766-.48-.328-1.48-.191-1.726.2m.355.175c.692-.168.836.407.723.91-.094.422-.316.946-.758 1.028-1.12.219-.949-1.692.035-1.938zm0 0" fill="#0356a2"/><path d="M25.984 11.43l.993-.004c.148-.242.203-.453.691-.344.34.07.285.375.18.629-1.043 0-2.41.078-2.414 1.047-.004 1.043 1.453 1.09 2.09.453v.387l.976-.004c.012-.844.742-2.215.2-2.723-.36-.34-2.505-.637-2.716.559m1.75.738c-.058.293-.156.523-.363.707-.95.848-1.633-.813.363-.707zm1.43 2.504h1.047l2.828-4.067-.89-.003c-.297.113-1.141 1.695-1.465 2.007l-.282-1.984-1.05-.023c.078.683.304 1.511.445 2.199.105.508.27.668-.047 1.058-.152.184-.555.63-.586.813M6.488 11.04l.04-.415c-.485 0-.548-.047-.598.09l-.473 1.93c-.125.484-.508 1.609-.52 2.039h.637l.422-1.48c.352.233.84.706 1.8.288.552-.242.856-.637 1.02-1.242.309-1.133-.414-1.879-1.535-1.621-.422.094-.527.281-.793.41m.727-.066c1.473-.403 1.144 1.964-.02 2.23-.902.203-1.136-.379-.976-1.055.144-.605.41-1.015.996-1.175zm13.66 1.73c-1.273 0-.523.082-1.098.387-.539.289-1.558.129-1.222-.918l2.52-.004c.218-1.027-.071-1.594-1.243-1.625-1.117-.035-1.59.441-1.867 1.184-.926 2.472 2.512 2.328 2.91.976m-2.18-.933c.012-1.055 2.043-1.305 1.739-.004zm-8.085-1.204c-1.036.137-1.52.72-1.657 1.621-.16 1.043.574 1.567 1.805 1.43.988-.11 1.484-.762 1.62-1.648.157-1.02-.57-1.555-1.769-1.403m.012.387c1.645-.45 1.164 2.008.117 2.274-1.703.43-1.238-1.97-.117-2.274zm2.461 1.68c-.527-.059-.871-.086-.68.465.297.867 2.723.656 2.832-.29.086-.757-.914-.851-1.476-1.18-.637-.374.097-.901.781-.655.23.082.23.18.238.449l.633-.008c.047-.86-.805-.957-1.62-.836-.388.055-.712.207-.849.406-.195.282-.14.649.07.84.333.301 1.552.516 1.5.977-.05.48-1.585.726-1.429-.168m3.625-2.664l-.195.68h-.637l-.098.378h.63c-.419 1.993-1.192 2.75.91 2.57l.132-.406c-.32-.004-.484.079-.75-.054-.215-.282.285-1.707.363-2.11l.77-.004.094-.375-.735-.003.176-.801zm0 0" fill="#0356a2"/></g></svg>