<svg xmlns="http://www.w3.org/2000/svg" aria-labelledby="pi-postfinance_card" role="img" viewBox="0 0 38 24" height="24" width="38" xmlns:xlink="http://www.w3.org/1999/xlink"><title id="pi-postfinance_card">PostFinance Card</title><defs><clipPath id="pi-clipPath1930" clipPathUnits="userSpaceOnUse"><path opacity=".07" d="M35 0H3C1.3 0 0 1.3 0 3v18c0 1.7 1.4 3 3 3h32c1.7 0 3-1.3 3-3V3c0-1.7-1.4-3-3-3z"/></clipPath><clipPath id="pi-clipPath1949" clipPathUnits="userSpaceOnUse"><path opacity=".07" d="M35 0H3C1.3 0 0 1.3 0 3v18c0 1.7 1.4 3 3 3h32c1.7 0 3-1.3 3-3V3c0-1.7-1.4-3-3-3z"/></clipPath><clipPath id="pi-clipPath1968" clipPathUnits="userSpaceOnUse"><path opacity=".07" d="M35 0H3C1.3 0 0 1.3 0 3v18c0 1.7 1.4 3 3 3h32c1.7 0 3-1.3 3-3V3c0-1.7-1.4-3-3-3z"/></clipPath><path d="M36.7 24c.7 0 1.3-.6 1.3-1.3V1.3c0-.7-.6-1.3-1.3-1.3H1.3C.6 0 0 .6 0 1.3v21.3c0 .8.6 1.4 1.3 1.4h35.4z" id="pi-SVGID1_"/></defs><clipPath id="pi-SVGID2_"><use overflow="visible" xlink:href="#pi-SVGID1_"/></clipPath><path fill="#ffd400" clip-path="url(#pi-clipPath1930)" d="M35.9 0H2.1C1 0 0 .9 0 2.1V22c0 1.1 1 2 2.1 2h33.8c1.2 0 2.1-.9 2.1-2.1V2.1C38 .9 37.1 0 35.9 0z"/><path clip-path="url(#pi-clipPath1968)" fill="#ffe380" d="M13.9 16.5C10.1 20.8 5.6 22.9.3 23l.2.3c5.2-.1 9.8-2.3 13.5-6.6 4.4-5.1 6.9-12.1 8.1-18h-.2c-1.2 5.8-3.6 12.8-8 17.8z"/><path clip-path="url(#pi-SVGID2_)" fill="#ffe380" d="M14.9 17c-3 3.8-6.7 6.3-11 7.3l1 .3c3.9-1.2 7.3-3.5 10.1-7.2 2.8-3.6 5.1-8.4 6.6-14 .4-1.7.8-3.3 1-4.7h-.4c-.9 5.8-3.1 12.9-7.3 18.3z"/><path clip-path="url(#pi-clipPath1949)" fill="#ffe380" d="M22.7-1.3c-.8 5.8-2.7 13-6.8 18.7-2.5 3.5-5.6 6.1-9.1 7.6l1.1.3c3.2-1.6 6-4 8.3-7.3 3.6-5 5.6-11.2 6.6-16.6-.8 5.2-2.5 11.2-5.9 16.4-2 3.1-4.4 5.5-7.1 7.3h1.4c2.3-1.7 4.3-4 6.1-6.7 2.2-3.4 3.8-7.3 4.8-11-.9 3.6-2.3 7.3-4.2 10.6-1.7 2.8-3.6 5.2-5.9 7.1h1.4c1.9-1.8 3.6-3.9 5-6.4 1-1.6 1.8-3.4 2.6-5.3-.6 1.6-1.3 3.2-2.1 4.7-1.4 2.7-3.2 5-5.1 7h1.6c1.6-1.8 3.1-3.9 4.3-6.2-1.2 2.3-2.6 4.4-4.1 6.2h23.5V-1.3H22.7z"/><path fill="#ffd400" clip-path="url(#pi-SVGID2_)" d="M19 18.2c.2.1.5.3.7.4l-.3-.3c-.1 0-.2-.1-.4-.1z"/><path fill="#ffd730" clip-path="url(#pi-SVGID2_)" d="M19 18.2c.1.1.2.2.4.3.3.1.5.3.8.4-.1-.1-.3-.2-.4-.3-.3-.1-.5-.3-.8-.4z"/><path fill="#ffd400" d="M4.3.4h.3c.2 0 .4.2.4.5s-.2.4-.5.4h-.2V.4zm.1.8h.1c.2 0 .3-.1.3-.3 0-.2-.1-.3-.3-.3h-.1v.6zm.9-.8h.1v.9h-.1V.4zm.4 0h.2c.2 0 .3 0 .3.2 0 .1-.1.2-.2.2 0 0 .1 0 .1.1l.2.3h-.1L6 1c0-.1 0-.1-.1-.1h-.1v.4h-.1V.4zm.1.4h.1c.1 0 .2-.1.2-.1 0-.1-.1-.1-.2-.1h-.1v.2zm.7-.4H7v.1h-.3v.3H7v.1h-.3v.3H7v.1h-.5V.4zm1.4.2h-.2c-.2 0-.3.1-.3.3 0 .2.1.3.3.3h.2v.1h-.2c-.3 0-.5-.2-.5-.5s.2-.4.5-.4h.2v.2zm.4-.1H8V.4h.7v.1h-.3v.8h-.1V.5z"/><path fill="none" clip-path="url(#pi-SVGID2_)" opacity=".05" d="M14.1 15.2C11.4 11.1 9 4.1 9-7.6"/><path fill="none" clip-path="url(#pi-SVGID2_)" opacity=".068" d="M13.6 15.4C10.5 11.6 7.7 5 7.2-6.4"/><path fill="none" clip-path="url(#pi-SVGID2_)" opacity=".086" d="M13.1 15.5C9.6 12.2 6.3 6 5.4-5.3"/><path fill="none" clip-path="url(#pi-SVGID2_)" opacity=".104" d="M12.6 15.7C8.7 12.7 5 6.9 3.7-4.1"/><path fill="none" clip-path="url(#pi-SVGID2_)" opacity=".121" d="M12 15.9c-4.3-2.6-8.4-8-10.2-18.7"/><path fill="none" clip-path="url(#pi-SVGID2_)" opacity=".139" d="M11.5 16C6.9 13.8 2.3 8.8.1-1.7"/><path stroke="#ffe794" fill="#ffe794" clip-path="url(#pi-SVGID2_)" stroke-miterlimit="10" stroke-width=".25" d="M12.5 15.7c-2.2-1.7-4-4-5.4-7 1.4 3 3.2 5.3 5.4 7z"/><path stroke="#ffeba8" fill="#ffedb3" clip-path="url(#pi-SVGID2_)" stroke-miterlimit="10" stroke-width=".25" d="M8 15.5c.8.3 1.5.6 2.3.8h.1c-.8-.3-1.6-.5-2.4-.8-2.6-1.2-4.8-2.9-6.7-5.3 1.9 2.4 4.2 4.1 6.7 5.3z"/><path stroke="#ffe99e" fill="#ffe99e" clip-path="url(#pi-SVGID2_)" stroke-miterlimit="10" stroke-width=".25" d="M12 15.9c0-.1 0-.1 0 0 0-.1 0-.1 0 0 0-.1 0-.1 0 0-3-1.9-5.4-4.8-7.2-8.7C6.6 11.1 9 14 12 15.9z"/><path fill="#ffeba8" stroke="#ffeba8" clip-path="url(#pi-SVGID2_)" stroke-miterlimit="10" stroke-width=".25" d="M9.4 15.5c.5.2 1 .5 1.5.6h.1c-.6-.2-1.1-.4-1.6-.6-3.3-1.7-6-4.4-8.1-8.2 2 3.8 4.8 6.6 8.1 8.2z"/><path fill="#ffeba8" stroke="#ffeba8" clip-path="url(#pi-SVGID2_)" stroke-miterlimit="10" stroke-width=".25" d="M10.7 15.7c.2.1.5.2.7.4-.2-.2-.4-.4-.7-.4C7.6 13.9 5 11 3.1 7.2c1.9 3.9 4.5 6.7 7.6 8.5z"/><path stroke="#ffdf6a" fill="#ffdf6a" clip-path="url(#pi-SVGID2_)" stroke-miterlimit="10" stroke-width=".25" d="M13.1 15.5c-1.7-1.7-3.1-3.8-4.3-6.3 1.1 2.6 2.6 4.7 4.3 6.3zm.5-.1c-1.3-1.6-2.4-3.5-3.3-5.8.8 2.2 2 4.2 3.3 5.8z"/><path fill="#ffeba8" stroke="#ffeba8" clip-path="url(#pi-SVGID2_)" stroke-miterlimit="10" stroke-width=".25" d="M26.9 11.4l.3-.2c1.7-1 3.3-2.1 4.8-3.2v-.1c-1.5 1.2-3.2 2.3-4.8 3.2l-.3.3c-.1 0-6.8 4-14.8 5.1h-.3l-.4.1h-.2.6l.7-.1c7.8-1.2 14.3-5.1 14.4-5.1z"/><path fill="#ffefbd" clip-path="url(#pi-SVGID2_)" d="M26.9 9.9c-1.9 1.1-7.9 4.5-15 6.3-.3.1-.7.2-1 .2-.2 0-.4.1-.5.1l-.2.1h.4c.5-.1 1.3-.3 1.6-.3 7-1.8 12.9-5.2 14.7-6.4z"/><path fill="#ffedb3" clip-path="url(#pi-SVGID2_)" d="M27.2 10.5c.7-.4 1.7-1 2.9-1.9v-.1c-1.3.9-2.3 1.5-2.9 2-.1 0-7.2 4.4-15.8 6l-.4.1-.3.1h.4l1.6-.3c8-1.8 14.4-5.9 14.5-5.9z"/><path fill="#ffedb3" clip-path="url(#pi-SVGID2_)" d="M11.4 16.2l.2-.1c5.1-1.4 9.6-3.6 12.5-5.3v-.1c-3 1.6-7.5 3.8-12.5 5.3-.7.2-1.3.4-2 .5h.2c.2 0 .5-.1.8-.2l.8-.1z"/><path stroke="#ffdf6a" fill="#ffdf6a" stroke-miterlimit="10" stroke-width=".25" clip-path="url(#pi-SVGID2_)" d="M14.2 15.2c-1-1.5-1.9-3.3-2.6-5.3.7 2 1.5 3.8 2.6 5.3z"/><path stroke-width=".25" stroke="#ffd400" fill="#ffd400" clip-path="url(#pi-SVGID2_)" d="M23.4 21.3h0c-.1 0-2.9 0-6-2.5h0c3.2 2.5 6 2.5 6 2.5h0s0 0 0 0c.8.2 3.7.3 7.7-3.2h0c-3.9 3.4-6.9 3.3-7.7 3.2z"/><path stroke-miterlimit="10" stroke-width=".25" stroke="#ffdd5d" fill="#ffdd5d" clip-path="url(#pi-SVGID2_)" d="M24.7 17.7h0c-.1 0-4.2 1.2-8.9-.2 0 0 0 0 0 0s0 0 0 0 .1 0 .1.1c4.7 1.3 8.7.1 8.8.1h0c.2 0 4.7-.7 10-6.7h0c-5.4 5.9-10 6.7-10 6.7z"/><path stroke-miterlimit="10" stroke-width=".25" stroke="#ffeba8" fill="#ffefbd" clip-path="url(#pi-SVGID2_)" d="M9.8 16.4h.1s0 0 0 0 0 0 0 0c-1.1-.2-2.2-.5-3.3-.9-1.9-.8-3.7-1.8-5.3-3.2h0c1.6 1.4 3.3 2.5 5.3 3.2 1.1.4 2.1.7 3.2.9z"/><path stroke-miterlimit="10" stroke-width=".25" stroke="#ffd940" fill="#ffd940" clip-path="url(#pi-SVGID2_)" d="M33.8 13.6c-1.6 1.7-3.2 3-4.8 4-2.9 1.8-5 1.9-5 1.9s-3.4.6-7.3-1.4h0c3.9 1.9 7.3 1.4 7.3 1.4.1 0 2.1-.1 5-1.9 1.7-1 3.3-2.3 4.8-4 .1 0 0 0 0 0z"/><path stroke="#ffdf6a" fill="#ffdf6a" stroke-miterlimit="10" stroke-width=".25" clip-path="url(#pi-SVGID2_)" d="M25.3 15.8c-.1 0-4.9 2-10.6 1.2h-.1c.1 0 .1 0 .2.1 5.6.8 10.4-1.2 10.5-1.3.2 0 4.9-1.4 10-7.2-5.2 5.9-10 7.2-10 7.2z"/><path stroke="#ffdf6a" fill="#ffdf6a" clip-path="url(#pi-SVGID2_)" stroke-miterlimit="10" stroke-width=".25" d="M25 16.8c-.1 0-4.6 1.6-9.8.5.1 0 .1 0 .2.1 5.1 1 9.5-.6 9.6-.6.1 0 4.8-1.2 9.9-6.8-5.2 5.6-9.9 6.7-9.9 6.8z"/><path stroke-width=".25" stroke="#ffd730" fill="#ffd730" clip-path="url(#pi-SVGID2_)" d="M33 15.3c-1.4 1.4-2.8 2.6-4.3 3.4-2.9 1.7-4.9 1.6-5 1.6 0 0-3.1.3-6.6-2h0c3.5 2.2 6.6 2 6.6 2 .1 0 2.1.1 5-1.6 1.5-.7 2.9-1.9 4.3-3.4 0 .1 0 0 0 0z"/><path stroke-miterlimit="10" stroke-width=".25" stroke="#ffdb4f" fill="#ffdb4f" clip-path="url(#pi-SVGID2_)" d="M24.3 18.6h0s-3.8.9-8.1-.8c0 0 0 0 0 0s0 0 0 0 .1 0 .1.1c4.3 1.6 8 .7 8 .7h0c.1 0 4.6-.6 9.9-6.4h0c-5.3 5.8-9.8 6.4-9.9 6.4z"/><path stroke="#ffdf6a" fill="#ffdf6a" clip-path="url(#pi-SVGID2_)" stroke-miterlimit="10" stroke-width=".25" d="M25.6 14.9c-.1 0-5.3 2.4-11.4 2h-.3.2c6.2.5 11.4-1.9 11.5-2 .1 0 5.2-1.9 10.1-7.4-5 5.5-10 7.4-10.1 7.4z"/><path fill="#ffeba8" stroke="#ffeba8" clip-path="url(#pi-SVGID2_)" stroke-miterlimit="10" stroke-width=".25" d="M26.6 12.3c.1 0 3.2-1.7 6.7-4.7v-.1c-3.6 3-6.7 4.7-6.7 4.8-.1 0-6.4 3.6-13.9 4.3-.2 0-.5.1-.8.1h.3c7.7-.6 14.3-4.4 14.4-4.4z"/><path stroke="#ffeba8" fill="#ffedb3" clip-path="url(#pi-SVGID2_)" stroke-miterlimit="10" stroke-width=".25" d="M9.3 16.5c-1.4-.2-2.7-.5-4.1-.9-1.1-.4-2.1-.8-3.1-1.4v.1c1 .6 2 1 3.1 1.4 1.3.4 2.5.7 3.8.9.1-.1.1 0 .3-.1-.1.1 0 .1 0 0h.2-.2z"/><path stroke="#ffe99e" fill="#ffe99e" clip-path="url(#pi-SVGID2_)" stroke-miterlimit="10" stroke-width=".25" d="M26.3 13.2c.1 0 4-1.9 8-5.7-4.1 3.7-8 5.6-8 5.7-.1 0-6.1 3.2-13.2 3.5h-.4.2c7.2-.2 13.3-3.5 13.4-3.5z"/><path stroke="#ffe794" fill="#ffe794" clip-path="url(#pi-SVGID2_)" stroke-miterlimit="10" stroke-width=".25" d="M25.9 14.1C26 14 30.6 12 35 7.5c-4.4 4.4-9 6.5-9.1 6.6-.1 0-5.7 2.7-12.3 2.7h-.4.2c6.8.1 12.5-2.7 12.5-2.7z"/><g clip-path="url(#pi-SVGID2_)"><path d="M29.8 6.5l.3-1.5H3.4L3 6.5z" fill="#fff"/><path fill="#ed1c24" d="M33 2.9s.4-1.6.4-1.7h-2.3l-.5 2.2h.6l.4-1.6h1.1s-.3 1.6-.4 1.7H34l-.2 1h-1.7L31.8 6h-1.3l-.1.6h1.9l.3-1.5h1.7l.4-2.1H33z"/><path d="M5 3.8l.2-1.1h.3c.4-.1.5.1.5.4 0 .4-.3.7-.7.7H5zm-.1.6h.3c1 0 1.6-.5 1.6-1.4 0-.6-.4-1-1.2-1h-1l-.7 3.4h.7l.3-1zm3 .5c-.3 0-.5-.2-.4-.8.1-.5.4-.8.7-.8.3 0 .5.2.4.8-.1.6-.4.8-.7.8zm0 .6c.8 0 1.3-.6 1.5-1.3.1-.8-.4-1.4-1.2-1.4-.8 0-1.3.6-1.5 1.3-.1.8.4 1.4 1.2 1.4zm2.7-.8c0 .2-.3.2-.5.2-.3 0-.6-.1-.7-.1l-.1.6c.2.1.5.1.8.1.7 0 1.2-.2 1.2-.9 0-.8-1-.7-1-1 0-.2.2-.2.4-.2s.6.1.7.1l.1-.6c-.2-.1-.5-.1-.7-.1-.7 0-1.1.3-1.1.8 0 .9.9.7.9 1.1zm2.8-1.2l.1-.6h-.8l.2-.7-.8.2-.5 2.2c-.1.6.2 1 .8 1 .1 0 .3 0 .5-.1l.1-.6c-.1 0-.3.1-.4.1-.2 0-.4-.1-.3-.3l.2-1.1h.9zm.7 1.9l.3-1.3h1.1l.1-.6h-1.1l.2-.8h1.2L16 2h-1.9l-.7 3.4h.7zm2.1-2.5l-.5 2.5h.7l.5-2.5h-.7zm.1-.7c0 .2.2.4.4.4.3 0 .4-.2.4-.4s-.2-.4-.4-.4-.4.2-.4.4zm1.3 3.2l.3-1.3c.1-.5.4-.7.6-.7.3 0 .4.3.3.5l-.3 1.4h.7l.4-1.3c.2-.7-.2-1.1-.7-1.1-.3 0-.6.1-.8.4l.1-.3h-.7L17 5.5h.6zm3.5-2.6c-.3 0-.7.1-.8.1l-.1.6c.2 0 .5-.1.8-.1.4 0 .5.1.5.3v.2h-.4c-.7 0-1.3.3-1.3.9 0 .4.3.7.8.7.3 0 .6-.1.8-.3l-.1.3h.6l.3-1.5v-.3c0-.5-.2-.9-1.1-.9zm-.7 1.9c0-.3.2-.4.6-.4h.4v.1c-.1.4-.4.6-.7.6-.2 0-.3-.1-.3-.3zm2.7.7l.3-1.3c.1-.5.4-.7.6-.7.3 0 .4.3.3.5L24 5.4h.7L25 4c.2-.7-.2-1.1-.7-1.1-.3 0-.6.1-.8.4l.1-.3h-.7l-.5 2.5h.7zm3.5-.5c-.3 0-.6-.1-.6-.6s.3-.9.8-.9c.2 0 .3 0 .5.1l.2-.5c-.2-.1-.4-.1-.7-.1-.8 0-1.5.6-1.5 1.5 0 .8.5 1.1 1.1 1.1.2 0 .4 0 .6-.1l.1-.6c-.1 0-.3.1-.5.1zm2.8.5l.1-.6c-.2.1-.4.1-.7.1-.3 0-.6-.1-.6-.5h1.7c.1-.2.1-.4.1-.6 0-.6-.3-1-1-1-.9 0-1.5.7-1.5 1.6 0 .7.5 1.1 1.2 1.1.2 0 .5 0 .7-.1zm-.5-2c.2 0 .4.2.4.4v.1h-1c0-.3.2-.5.6-.5z"/></g><path d="M3.5 15.9h.1v1.3h-.1v-1.1l-.2.2-.1-.1.3-.3zm.7 1.2l.3-.3c.1-.1.2-.2.2-.3.1-.1.1-.2.1-.2 0-.1 0-.1-.1-.2 0 0-.1-.1-.2-.1s-.2 0-.3.1V16s.1 0 .2-.1h.2c.1 0 .2 0 .3.1.1.1.1.1.1.3 0 .1 0 .2-.1.3-.1.1-.2.2-.2.3l-.2.3h.6v.1h-.9v-.2zm1.2-.6h.3s.1 0 .1-.1v-.2l-.1-.1h-.2c-.1 0-.2 0-.3.1v-.1c.1 0 .2-.1.3-.1.1 0 .2 0 .3.1.2-.1.2 0 .2.1s0 .1-.1.2c0 .1-.1.1-.2.1.1 0 .2 0 .2.1.1.1.1.1.1.2s0 .2-.1.3c-.1.1-.2.1-.3.1-.1 0-.2 0-.3-.1V17h.3c.1 0 .2 0 .2-.1.1 0 .1-.1.1-.2v-.1l-.1-.1h-.4zm.9.3l.6-.9H7v.9h.2v.1H7v.3h-.1v-.3h-.6v-.1zm.6-.8l-.5.7h.5V16zm1.3 0h-.5v.4h.2c.3 0 .4.1.4.4 0 .1 0 .2-.1.3-.1.1-.2.1-.3.1h-.3V17c.1 0 .2.1.3.1.1 0 .2 0 .2-.1.1 0 .1-.1.1-.2 0-.2-.1-.3-.3-.3h-.3v-.6h.7v.1zm.8 1.2c-.1 0-.2 0-.2-.1-.1 0-.1-.1-.1-.1 0-.1 0-.1-.1-.2v-.2c0-.2 0-.4.1-.5.1-.1.2-.2.4-.2h.2v.1h-.4c-.1 0-.1.1-.1.1s-.1.1-.1.2v.2c0-.1.1-.1.1-.1h.3s.1 0 .1.1l.1.1v.2c0 .1 0 .2-.1.3 0 .1-.1.1-.2.1zm0-.7c-.1 0-.2 0-.2.1-.1.1-.1.1-.1.2s0 .2.1.2c0 .1.1.1.2.1s.2 0 .2-.1.1-.1.1-.2c0-.2-.1-.3-.3-.3zm1.3-.5h-.6v-.1h.8v.1l-.5 1.2h-.2l.5-1.2zm.5.2v-.1l.1-.1c.1 0 .2-.1.2-.1.1 0 .2 0 .3.1.1 0 .1.1.1.2s0 .1-.1.2-.1.1-.2.1c.1 0 .2.1.2.1.1 0 .1.1.1.2s0 .2-.1.3c-.1.1-.2.1-.3.1-.1 0-.2 0-.3-.1l-.1-.1v-.1c0-.1 0-.2.1-.2s.1-.1.2-.1c-.1 0-.1-.1-.2-.1v-.3zm.7.6v-.1s0-.1-.1-.1c0 0-.1 0-.1-.1h-.2s-.1 0-.1.1c0 0-.1 0-.1.1v.2s0 .1.1.1.1.1.2.1.1 0 .2-.1c.1 0 .1-.1.1-.2zm-.6-.6s0 .1 0 0c0 .1.1.1.1.2 0 0 .1 0 .1.1h.1c.1 0 .1-.1.2-.1l.1-.1v-.1c0-.1 0-.1-.1-.2H11c0 .1-.1.1-.1.2zm-7.8 2.4h.3c.1 0 .2 0 .3.1.1 0 .1.1.1.2 0 .2-.1.3-.2.3.1 0 .1 0 .2.1 0 .1.1.1.1.2s-.1.2-.1.3c0 0-.1 0-.2.1h-.5v-1.3zm.1 1.2h.3s.1 0 .1-.1v-.2l-.1-.1h-.3v.4zm0-.7h.3s.1 0 .1-.1v-.2l-.1-.1h-.3v.4zm1-.5h.6v.1h-.5v.5h.5v.1h-.5v.5h.5v.1h-.6v-1.3zm1 0h.3c.2 0 .4.1.4.3 0 .1 0 .1-.1.2s-.1.1-.2.1h.1v.1l.3.6h-.1l-.2-.4c0-.1-.1-.1-.1-.1h-.2v.6h-.2v-1.4zm.2.6h.1c.1 0 .2 0 .2-.1.1 0 .1-.1.1-.2v-.1s0-.1-.1-.1h-.3v.5zm.9-.6h.2l.6 1.1v-1.1h.1v1.3h-.1l-.6-1.1v1.1h-.2v-1.3zm1.7 0h.1l.5 1.3h-.1l-.1-.3h-.6l-.1.3h-.2l.5-1.3zm-.2.8h.5l-.3-.7-.2.7zm1.1.3c.1 0 .2.1.3.1.1 0 .1 0 .2-.1.1 0 .1-.1.1-.2s0-.1-.1-.2c0 0-.1 0-.1-.1 0 0-.1 0-.1-.1 0 0-.1 0-.1-.1 0 0-.1 0-.1-.1-.1.1-.1.1-.1 0s0-.2.1-.2c.1-.1.2-.1.3-.1h.2v.1h-.4l-.1.1v.2l.1.1s.1 0 .1.1c0 0 .1 0 .1.1.1 0 .1.1.2.1l.1.1v.1c0 .1 0 .2-.1.3-.1.1-.2.1-.3.1-.1 0-.2 0-.3-.1v-.2zm1.9-1h-.2c-.2 0-.3.1-.4.2-.1.1-.1.2-.1.4s0 .3.1.4c.1.1.2.2.4.2h.2v.1h-.3c-.2 0-.4-.1-.5-.2-.1-.1-.2-.3-.2-.5s.1-.4.2-.5c.1-.1.3-.2.5-.2h.3v.1zm.4.5c0-.2 0-.3.1-.5.1-.1.2-.2.4-.2s.3.1.4.2c.1.1.1.3.1.5s0 .4-.1.5c-.1.1-.2.2-.4.2s-.3-.1-.4-.2c-.1-.1-.1-.3-.1-.5zm.5-.5c-.1 0-.3.1-.3.2-.1.1-.1.2-.1.4 0 .1 0 .3.1.4.1.1.2.2.3.2.1 0 .3-.1.3-.2.1-.1.1-.2.1-.4 0-.1 0-.3-.1-.4 0-.2-.1-.2-.3-.2zm.9-.1h.2l.6 1.1v-1.1h.1v1.3h-.2l-.6-1.1v1.1h-.1v-1.3zm1.3 0h.1v1.3h-.1v-1.3zm1.1 0h.2l.5 1.1.5-1.1h.2v1.3h-.1v-1.1l-.5 1.1h-.1l-.5-1.1v1.1H15v-1.3zm2.1 0h.1l.5 1.3h-.1l-.1-.3h-.6l-.1.3h-.1l.4-1.3zm-.2.8h.5l-.3-.7-.2.7zm1.2-.8h.3c.2 0 .4.1.4.3 0 .1 0 .1-.1.2s-.1.1-.2.1h.1v.1l.2.5h-.1l-.2-.4c0-.1-.1-.1-.1-.1h-.3v.6H18v-1.3zm.1.6h.1c.1 0 .2 0 .2-.1.1 0 .1-.1.1-.2v-.1s0-.1-.1-.1h-.3v.5zm1-.6h.1v1.3h-.1v-1.3zm.9 0h.1l.5 1.3h-.1l-.1-.3h-.6l-.1.3h-.1l.4-1.3zm-.3.8h.5l-.3-.7-.2.7z" clip-path="url(#pi-SVGID2_)"/><path d="M3.1 21.4h.1v1.3h-.1v-1.3zm.5 0h.3c.1 0 .2 0 .3.1.1 0 .1.1.1.2 0 .2-.1.3-.2.3.1 0 .1 0 .2.1 0 .1.1.1.1.2s-.1.2-.1.3c0 0-.1 0-.2.1h-.5v-1.3zm.1 1.1H4s.1 0 .1-.1v-.2l-.1-.1h-.3v.4zm0-.6H4s.1 0 .1-.1v-.2l-.1-.1h-.3v.4zm1.4-.5h.1l.5 1.3h-.1l-.1-.3h-.6l-.1.3h-.2l.5-1.3zm-.2.8h.5l-.3-.7-.2.7zm1.1-.8h.2l.6 1.1v-1.1h.1v1.3h-.1l-.6-1.1v1.1H6v-1.3zm1.5.5h-.1v-.2h.1v.2zm-.1.6h.1v.2h-.1v-.2zm2-1h-.2c-.2 0-.3.1-.4.2-.1.1-.1.2-.1.4s0 .3.1.4c.1.1.2.2.4.2h.2v.1h-.3c-.2 0-.4-.1-.5-.2-.1-.1-.2-.3-.2-.5s.1-.4.2-.5c.1-.1.3-.2.5-.2h.3v.1zm.4-.1h.2v.6h.6v-.6h.1v1.3h-.1V22H10v.6h-.2v-1.2zm1.7 1.3c-.1 0-.2 0-.2-.1-.1 0-.1-.1-.1-.1 0-.1 0-.1-.1-.2v-.2c0-.2 0-.4.1-.5.1-.1.2-.2.4-.2h.2v.1h-.4c-.1 0-.1.1-.1.1s-.1.1-.1.2v.2c0-.1.1-.1.1-.1h.3s.1 0 .1.1l.1.1v.2c0 .1 0 .2-.1.3 0 0-.1.1-.2.1zm0-.7c-.1 0-.2 0-.2.1-.1.1-.1.1-.1.2s0 .2.1.2c0 .1.1.1.2.1s.2 0 .2-.1.1-.1.1-.2c0-.2-.1-.3-.3-.3zm.9-.1h.3s.1 0 .1-.1v-.2l-.1-.1h-.2c-.1 0-.2 0-.3.1v-.1c.1 0 .2-.1.3-.1.1 0 .2 0 .3.1.1 0 .1.1.1.2s0 .1-.1.2c0 .1-.1.1-.2.1.1 0 .2 0 .2.1s.1.1.1.2 0 .2-.1.3c-.1.1-.2.1-.3.1-.1 0-.2 0-.3-.1v-.1h.3c.1 0 .2 0 .2-.1.1 0 .1-.1.1-.2v-.1l-.1-.1h-.3v-.1zm1.9-.5c.1 0 .2 0 .2.1.1 0 .1.1.1.2.1.1.1.3.1.4v.2c0 .1 0 .1-.1.2 0 .1-.1.1-.1.2-.1 0-.1.1-.2.1s-.2 0-.2-.1c-.1 0-.1-.1-.1-.2s0-.1-.1-.2v-.2c0-.2 0-.3.1-.4 0-.1.1-.1.1-.2s.1-.1.2-.1zm0 .1c-.1 0-.1 0-.2.1l-.1.1v.8c0 .1 0 .1.1.1 0 0 .1.1.2.1s.1 0 .2-.1l.1-.1v-.8c0-.1 0-.1-.1-.1-.1-.1-.1-.1-.2-.1zm1.1-.1c.1 0 .2 0 .2.1.1 0 .1.1.1.1 0 .1.1.1.1.2v.2c0 .2 0 .4-.1.5-.1.1-.2.2-.4.2h-.2v-.1h.2c.2 0 .3-.1.3-.2.1-.1.1-.2.1-.4 0 .1-.1.1-.1.1h-.3s-.1 0-.1-.1l-.1-.1v-.2c0-.1 0-.2.1-.3h.2zm0 .7c.1 0 .2 0 .2-.1 0 0 .1-.1.1-.2s0-.2-.1-.2c0-.1-.1-.1-.2-.1s-.2 0-.2.1-.1.1-.1.2c0 .2.1.3.3.3zm1.1-.7c.1 0 .2 0 .2.1.1 0 .1.1.1.2.1.1.1.3.1.4v.2c0 .1 0 .1-.1.2 0 .1-.1.1-.1.2-.1 0-.1.1-.2.1s-.2 0-.2-.1c-.1 0-.1-.1-.1-.2s0-.1-.1-.2v-.2c0-.2 0-.3.1-.4 0-.1.1-.1.1-.2.1-.1.1-.1.2-.1zm0 .1c-.1 0-.1 0-.2.1l-.1.1v.8c0 .1 0 .1.1.1 0 0 .1.1.2.1s.1 0 .2-.1l.1-.1v-.8c0-.1 0-.1-.1-.1-.1-.1-.1-.1-.2-.1zm1.1-.1c.1 0 .2 0 .2.1.1 0 .1.1.1.2.1 0 .1.2.1.3v.2c0 .1 0 .1-.1.2 0 .1-.1.1-.1.2-.1 0-.1.1-.2.1s-.2 0-.2-.1c-.1 0-.1-.1-.1-.2s0-.1-.1-.2V22c0-.2 0-.3.1-.4 0-.1.1-.1.1-.2h.2zm0 .1c-.1 0-.1 0-.2.1l-.1.1v.8c0 .1 0 .1.1.1 0 0 .1.1.2.1s.1 0 .2-.1l.1-.1v-.8c0-.1 0-.1-.1-.1-.1-.1-.1-.1-.2-.1zm1.7-.1c.1 0 .2 0 .2.1.1 0 .1.1.1.2.1.1.1.3.1.4v.2c0 .1 0 .1-.1.2 0 .1-.1.1-.1.2-.1 0-.1.1-.2.1s-.2 0-.2-.1c-.1 0-.1-.1-.1-.2s0-.1-.1-.2v-.2c0-.2 0-.3.1-.4 0-.1.1-.1.1-.2.1-.1.1-.1.2-.1zm0 .1c-.1 0-.1 0-.2.1l-.1.1v.8c0 .1 0 .1.1.1 0 0 .1.1.2.1s.1 0 .2-.1l.1-.1v-.8c0-.1 0-.1-.1-.1-.1-.1-.1-.1-.2-.1zm1.1-.1c.1 0 .2 0 .2.1.1 0 .1.1.1.2.1.1.1.3.1.4v.2c0 .1 0 .1-.1.2 0 .1-.1.1-.1.2-.1 0-.1.1-.2.1s-.2 0-.2-.1c-.1 0-.1-.1-.1-.2s0-.1-.1-.2v-.2c0-.2 0-.3.1-.4 0-.1.1-.1.1-.2.1-.1.1-.1.2-.1zm0 .1c-.1 0-.1 0-.2.1l-.1.1v.8c0 .1 0 .1.1.1 0 0 .1.1.2.1s.1 0 .2-.1l.1-.1v-.8c0-.1 0-.1-.1-.1-.1-.1-.1-.1-.2-.1zm1.1-.1c.1 0 .2 0 .2.1.1 0 .1.1.1.2.1.1.1.3.1.4v.2c0 .1 0 .1-.1.2 0 .1-.1.1-.1.2-.1 0-.1.1-.2.1s-.2 0-.2-.1c-.1 0-.1-.1-.1-.2s0-.1-.1-.2v-.2c0-.2 0-.3.1-.4 0-.1.1-.1.1-.2.1-.1.1-.1.2-.1zm0 .1c-.1 0-.1 0-.2.1l-.1.1v.8c0 .1 0 .1.1.1 0 0 .1.1.2.1s.1 0 .2-.1l.1-.1v-.8c0-.1 0-.1-.1-.1-.1-.1-.1-.1-.2-.1zm1.1-.1c.1 0 .2 0 .2.1.1 0 .1.1.1.2.1 0 .1.2.1.3v.2c0 .1 0 .1-.1.2 0 .1-.1.1-.1.2-.1 0-.1.1-.2.1s-.2 0-.2-.1c-.1 0-.1-.1-.1-.2s0-.1-.1-.2V22c0-.2 0-.3.1-.4 0-.1.1-.1.1-.2h.2zm0 .1c-.1 0-.1 0-.2.1l-.1.1v.8c0 .1 0 .1.1.1 0 0 .1.1.2.1s.1 0 .2-.1l.1-.1v-.8c0-.1 0-.1-.1-.1-.1-.1-.1-.1-.2-.1zm1.3 1l.3-.3c.1-.1.2-.2.2-.3.1-.1.1-.2.1-.2 0-.1 0-.1-.1-.2 0 0-.1-.1-.2-.1s-.2 0-.3.1v-.1s.1 0 .2-.1h.2c.1 0 .2 0 .3.1.1.1.1.1.1.3 0 .1 0 .2-.1.3-.1.1-.2.2-.2.3l-.2.3h.6v.1H24v-.2zm1.9-1h-.5v.4h.2c.3 0 .4.1.4.4 0 .1 0 .2-.1.3-.1.1-.2.1-.3.1h-.3v-.1c.1 0 .2.1.3.1.1 0 .2 0 .2-.1.1 0 .1-.1.1-.2 0-.2-.1-.3-.3-.3h-.3v-.6h.7zm.7-.1c.1 0 .2 0 .2.1.1 0 .1.1.1.2.1.1.1.3.1.4v.2c0 .1 0 .1-.1.2 0 .1-.1.1-.1.2-.1 0-.1.1-.2.1s-.2 0-.2-.1c-.1 0-.1-.1-.1-.2s0-.1-.1-.2v-.2c0-.2 0-.3.1-.4 0-.1.1-.1.1-.2.1-.1.1-.1.2-.1zm0 .1c-.1 0-.1 0-.2.1l-.1.1v.8c0 .1 0 .1.1.1 0 0 .1.1.2.1s.1 0 .2-.1l.1-.1v-.8c0-.1 0-.1-.1-.1-.1-.1-.1-.1-.2-.1zm1.1-.1c.1 0 .2 0 .2.1.1 0 .1.1.1.2.1.1.1.3.1.4v.2c0 .1 0 .1-.1.2 0 .1-.1.1-.1.2-.1 0-.1.1-.2.1s-.2 0-.2-.1c-.1 0-.1-.1-.1-.2s0-.1-.1-.2v-.2c0-.2 0-.3.1-.4 0-.1.1-.1.1-.2.1-.1.1-.1.2-.1zm0 .1c-.1 0-.1 0-.2.1l-.1.1v.8c0 .1 0 .1.1.1 0 0 .1.1.2.1s.1 0 .2-.1l.1-.1v-.8c0-.1 0-.1-.1-.1 0-.1-.1-.1-.2-.1zm1.7-.1c.1 0 .2 0 .2.1.1 0 .1.1.1.1 0 .1.1.1.1.2v.2c0 .2 0 .4-.1.5-.1.1-.2.2-.4.2H29v-.1h.2c.2 0 .3-.1.3-.2.1-.1.1-.2.1-.4 0 .1-.1.1-.1.1h-.3s-.1 0-.1-.1l-.1-.1v-.2c0-.1 0-.2.1-.3h.2zm0 .7c.1 0 .2 0 .2-.1 0 0 .1-.1.1-.2s0-.2-.1-.2c0-.1-.1-.1-.2-.1s-.2 0-.2.1-.1.1-.1.2c0 .2.1.3.3.3zm1.4-.6H30v-.1h.8v.1l-.5 1.2h-.1l.5-1.2zm1.1 0h-.7v-.1h.8v.1l-.5 1.2h-.1l.5-1.2zm.8-.1c.1 0 .2 0 .2.1.1 0 .1.1.1.1 0 .1.1.1.1.2v.2c0 .2 0 .4-.1.5-.1.1-.2.2-.4.2h-.2v-.1h.2c.2 0 .3-.1.3-.2.1-.1.1-.2.1-.4 0 .1-.1.1-.1.1h-.3s-.1 0-.1-.1l-.1-.1v-.2c0-.1 0-.2.1-.3h.2zm0 .7c.1 0 .2 0 .2-.1 0 0 .1-.1.1-.2s0-.2-.1-.2c0-.1-.1-.1-.2-.1s-.2 0-.2.1-.1.1-.1.2c.1.2.1.3.3.3zm1.4-.4v-.1l.1-.1c.1 0 .2-.1.2-.1.1 0 .2 0 .3.1.1 0 .1.1.1.2s0 .1-.1.2-.1.1-.2.1c.1 0 .2.1.2.1.1 0 .1.1.1.2s0 .2-.1.3c-.1.1-.2.1-.3.1-.1 0-.2 0-.3-.1l-.1-.1v-.1c0-.1 0-.2.1-.2s.1-.1.2-.1c-.1 0-.1-.1-.2-.1v-.3zm.6.6v-.1s0-.1-.1-.1c0 0-.1 0-.1-.1h-.2s-.1 0-.1.1c0 0-.1 0-.1.1v.2s0 .1.1.1.1.1.2.1.1 0 .2-.1c.1 0 .1-.1.1-.2zm-.5-.6c0 .1.1.1.1.2 0 0 .1 0 .1.1h.1c.1 0 .1-.1.2-.1l.1-.1v-.1c0-.1 0-.1-.1-.2h-.4c-.1.1-.1.1-.1.2zm-1.5-5.8h.1l-.5 1.3h-.1zm.7.1c.3 0 .3.3.3.5s0 .5-.3.5-.3-.3-.3-.5 0-.5.3-.5m0-.1c-.3 0-.4.4-.4.6 0 .3.1.6.4.6.4 0 .4-.4.4-.6 0-.3-.1-.6-.4-.6zm1.1.1c.3 0 .3.3.3.5s0 .5-.3.5-.3-.3-.3-.5 0-.5.3-.5m0-.1c-.3 0-.4.4-.4.6 0 .3.1.6.4.6.4 0 .4-.4.4-.6 0-.3-.1-.6-.4-.6zm-2.9.1c.3 0 .3.3.3.5s0 .5-.3.5-.3-.3-.3-.5c.1-.2.1-.5.3-.5m0-.1c-.3 0-.4.4-.4.6 0 .3.1.6.4.6.4 0 .4-.4.4-.6.1-.3 0-.6-.4-.6zm-1.1.1c.3 0 .3.3.3.5s0 .5-.3.5-.3-.3-.3-.5.1-.5.3-.5m0-.1c-.3 0-.4.4-.4.6 0 .3.1.6.4.6.4 0 .4-.4.4-.6.1-.3 0-.6-.4-.6z"/><g clip-path="url(#pi-SVGID2_)"><linearGradient gradientTransform="translate(-148.214 7.494) scale(.1239)" y2="9.718" x2="1281.302" y1="45.417" x1="1219.469" gradientUnits="userSpaceOnUse" id="pi-SVGID3_"><stop stop-color="#fbcc47" offset="0"/><stop stop-color="#d19737" offset=".2"/><stop stop-color="#9c7533" offset=".28"/><stop stop-color="#dab23a" offset=".53"/><stop stop-color="#ca9f39" offset=".611"/><stop stop-color="#aa7735" offset=".76"/><stop stop-color="#af7d37" offset=".806"/><stop stop-color="#be8d3a" offset=".87"/><stop stop-color="#daaa40" offset=".943"/><stop stop-color="#fbcc47" offset="1"/></linearGradient><path fill="url(#pi-SVGID3_)" d="M10.2 12.9c0 .7-.5 1.2-1.2 1.2H4.4c-.7 0-1.2-.5-1.2-1.2v-4c0-.7.5-1.2 1.2-1.2H9c.7 0 1.2.5 1.2 1.2v4z"/><path stroke-width=".611" stroke="#fff" d="M9 7.7H4.3c-.7 0-1.2.5-1.2 1.2v4c0 .7.5 1.2 1.2 1.2H9c.7 0 1.2-.5 1.2-1.2v-4c0-.6-.5-1.2-1.2-1.2z"/><linearGradient gradientTransform="translate(229.79 161.584)" y2="-154.995" x2="-221.894" y1="-150.036" x1="-227.643" gradientUnits="userSpaceOnUse" id="pi-SVGID4_"><stop stop-color="#fbcc47" offset="0"/><stop stop-color="#d19737" offset=".2"/><stop stop-color="#9c7533" offset=".28"/><stop stop-color="#dab23a" offset=".53"/><stop stop-color="#ca9f39" offset=".611"/><stop stop-color="#aa7735" offset=".76"/><stop stop-color="#af7d37" offset=".806"/><stop stop-color="#be8d3a" offset=".87"/><stop stop-color="#daaa40" offset=".943"/><stop stop-color="#fbcc47" offset="1"/></linearGradient><path fill="url(#pi-SVGID4_)" d="M3.3 9.2c0-.1.1-.2.2-.2h1.8c.1 0 .2.1.2.2v.8c0 .1-.1.2-.2.2H3.5c-.1 0-.2-.1-.2-.2v-.8z"/><linearGradient gradientTransform="translate(229.79 161.584)" y2="-154.272" x2="-221.269" y1="-149.313" x1="-227.019" gradientUnits="userSpaceOnUse" id="pi-SVGID_5_"><stop stop-color="#fbcc47" offset="0"/><stop stop-color="#d19737" offset=".2"/><stop stop-color="#9c7533" offset=".28"/><stop stop-color="#dab23a" offset=".53"/><stop stop-color="#ca9f39" offset=".611"/><stop stop-color="#aa7735" offset=".76"/><stop stop-color="#af7d37" offset=".806"/><stop stop-color="#be8d3a" offset=".87"/><stop stop-color="#daaa40" offset=".943"/><stop stop-color="#fbcc47" offset="1"/></linearGradient><path fill="url(#pi-SVGID5_)" d="M3.3 10.7v-.3h2c.1 0 .2.1.2.2v.6c0 .1-.1.2-.2.2H3.5c-.1 0-.2-.1-.2-.2v-.5z"/><linearGradient gradientTransform="translate(229.79 161.584)" y2="-153.474" x2="-220.581" y1="-148.515" x1="-226.331" gradientUnits="userSpaceOnUse" id="pi-SVGID_6_"><stop stop-color="#fbcc47" offset="0"/><stop stop-color="#d19737" offset=".2"/><stop stop-color="#9c7533" offset=".28"/><stop stop-color="#dab23a" offset=".53"/><stop stop-color="#ca9f39" offset=".611"/><stop stop-color="#aa7735" offset=".76"/><stop stop-color="#af7d37" offset=".806"/><stop stop-color="#be8d3a" offset=".87"/><stop stop-color="#daaa40" offset=".943"/><stop stop-color="#fbcc47" offset="1"/></linearGradient><path fill="url(#pi-SVGID6_)" d="M5.5 11.8v.8c0 .1-.1.2-.2.2H3.5c-.1 0-.2-.1-.2-.2v-.8c0-.1.1-.2.2-.2h1.8c.1 0 .2.1.2.2z"/><linearGradient gradientTransform="translate(229.79 161.584)" y2="-152.221" x2="-219.501" y1="-147.262" x1="-225.251" gradientUnits="userSpaceOnUse" id="pi-SVGID7_"><stop stop-color="#fbcc47" offset="0"/><stop stop-color="#d19737" offset=".2"/><stop stop-color="#9c7533" offset=".28"/><stop stop-color="#dab23a" offset=".53"/><stop stop-color="#ca9f39" offset=".611"/><stop stop-color="#aa7735" offset=".76"/><stop stop-color="#af7d37" offset=".806"/><stop stop-color="#be8d3a" offset=".87"/><stop stop-color="#daaa40" offset=".943"/><stop stop-color="#fbcc47" offset="1"/></linearGradient><path fill="url(#pi-SVGID7_)" d="M7.7 14H4.4c-.6 0-1-.4-1.1-1h4.2c.1 0 .2.1.2.2v.8z"/><linearGradient gradientTransform="translate(229.79 161.584)" y2="-153.877" x2="-220.93" y1="-148.918" x1="-226.679" gradientUnits="userSpaceOnUse" id="pi-SVGID8_"><stop stop-color="#fbcc47" offset="0"/><stop stop-color="#d19737" offset=".2"/><stop stop-color="#9c7533" offset=".28"/><stop stop-color="#dab23a" offset=".53"/><stop stop-color="#ca9f39" offset=".611"/><stop stop-color="#aa7735" offset=".76"/><stop stop-color="#af7d37" offset=".806"/><stop stop-color="#be8d3a" offset=".87"/><stop stop-color="#daaa40" offset=".943"/><stop stop-color="#fbcc47" offset="1"/></linearGradient><path fill="url(#pi-SVGID8_)" d="M7.7 10.6v2.1c0 .1-.1.2-.2.2H5.9c-.1 0-.2-.1-.2-.2V9.2c0-.2-.2-.4-.4-.4h-2c.1-.5.5-1 1.1-1h1.2v.8c-.1.2.1.4.3.4h4c.1 0 .2.1.2.2v.8c0 .1-.1.2-.2.2H8.1c-.2 0-.4.2-.4.4z"/><linearGradient gradientTransform="translate(229.79 161.584)" y2="-151.983" x2="-219.296" y1="-147.024" x1="-225.046" gradientUnits="userSpaceOnUse" id="pi-SVGID9_"><stop stop-color="#fbcc47" offset="0"/><stop stop-color="#d19737" offset=".2"/><stop stop-color="#9c7533" offset=".28"/><stop stop-color="#dab23a" offset=".53"/><stop stop-color="#ca9f39" offset=".611"/><stop stop-color="#aa7735" offset=".76"/><stop stop-color="#af7d37" offset=".806"/><stop stop-color="#be8d3a" offset=".87"/><stop stop-color="#daaa40" offset=".943"/><stop stop-color="#fbcc47" offset="1"/></linearGradient><path fill="url(#pi-SVGID9_)" d="M10.1 10.4v.8c0 .1-.1.2-.2.2H8.1c-.1 0-.2-.1-.2-.2v-.6c0-.1.1-.2.2-.2h2z"/><linearGradient gradientTransform="translate(229.79 161.584)" y2="-151.223" x2="-218.64" y1="-146.263" x1="-224.39" gradientUnits="userSpaceOnUse" id="pi-SVGID10_"><stop stop-color="#fbcc47" offset="0"/><stop stop-color="#d19737" offset=".2"/><stop stop-color="#9c7533" offset=".28"/><stop stop-color="#dab23a" offset=".53"/><stop stop-color="#ca9f39" offset=".611"/><stop stop-color="#aa7735" offset=".76"/><stop stop-color="#af7d37" offset=".806"/><stop stop-color="#be8d3a" offset=".87"/><stop stop-color="#daaa40" offset=".943"/><stop stop-color="#fbcc47" offset="1"/></linearGradient><path fill="url(#pi-SVGID10_)" d="M7.8 11.8c0-.1.1-.2.2-.2h1.8c.1 0 .2.1.2.2v.8c0 .1-.1.2-.2.2H8.1c-.1 0-.2-.1-.2-.2v-.8z"/><linearGradient gradientTransform="translate(229.79 161.584)" y2="-150.633" x2="-218.133" y1="-145.675" x1="-223.882" gradientUnits="userSpaceOnUse" id="pi-SVGID11_"><stop stop-color="#fbcc47" offset="0"/><stop stop-color="#d19737" offset=".2"/><stop stop-color="#9c7533" offset=".28"/><stop stop-color="#dab23a" offset=".53"/><stop stop-color="#ca9f39" offset=".611"/><stop stop-color="#aa7735" offset=".76"/><stop stop-color="#af7d37" offset=".806"/><stop stop-color="#be8d3a" offset=".87"/><stop stop-color="#daaa40" offset=".943"/><stop stop-color="#fbcc47" offset="1"/></linearGradient><path fill="url(#pi-SVGID11_)" d="M9 14H7.8v-.7c0-.1.1-.2.2-.2h2c0 .5-.4.9-1 .9z"/><linearGradient gradientTransform="translate(229.79 161.584)" y2="-153.997" x2="-221.033" y1="-149.038" x1="-226.782" gradientUnits="userSpaceOnUse" id="pi-SVGID12_"><stop stop-color="#fbcc47" offset="0"/><stop stop-color="#d19737" offset=".2"/><stop stop-color="#9c7533" offset=".28"/><stop stop-color="#dab23a" offset=".53"/><stop stop-color="#ca9f39" offset=".611"/><stop stop-color="#aa7735" offset=".76"/><stop stop-color="#af7d37" offset=".806"/><stop stop-color="#be8d3a" offset=".87"/><stop stop-color="#daaa40" offset=".943"/><stop stop-color="#fbcc47" offset="1"/></linearGradient><path fill="url(#pi-SVGID12_)" d="M5.9 8.8c-.1 0-.2-.1-.2-.2v-.7H9c.6 0 1 .4 1.1 1l-4.2-.1z"/></g></svg>