<svg xmlns="http://www.w3.org/2000/svg" xmlns:xlink="http://www.w3.org/1999/xlink" aria-labelledby="pi-postfinance_efinance" role="img" viewBox="0 0 38 24" height="24" width="38"><title id="pi-postfinance_efinance">PostFinance E-Finance</title><defs><clipPath id="pi-clipPath1844" clipPathUnits="userSpaceOnUse"><path opacity=".07" d="M35 0H3C1.3 0 0 1.3 0 3v18c0 1.7 1.4 3 3 3h32c1.7 0 3-1.3 3-3V3c0-1.7-1.4-3-3-3z"/></clipPath><clipPath id="pi-clipPath1863" clipPathUnits="userSpaceOnUse"><path opacity=".07" d="M35 0H3C1.3 0 0 1.3 0 3v18c0 1.7 1.4 3 3 3h32c1.7 0 3-1.3 3-3V3c0-1.7-1.4-3-3-3z"/></clipPath><path d="M36.7-10.6c.7 0 1.3-.6 1.3-1.3v-21.3c0-.7-.6-1.3-1.3-1.3H1.3C.6-34.6 0-34 0-33.2v21.3c0 .7.6 1.3 1.3 1.3h35.4z" id="pi-SVGID_1_"/></defs><clipPath id="pi-SVGID_2_"><use overflow="visible" xlink:href="#pi-SVGID_1_"/></clipPath><path clip-path="url(#pi-clipPath1844)" fill="#ffcd05" d="M35.9 0H2.1C.9 0 0 .9 0 2.1V22c0 1.1.9 2 2.1 2h33.8c1.2 0 2.1-.9 2.1-2.1V2.1C38 .9 37 0 35.9 0z"/><path clip-path="url(#pi-clipPath1863)" fill="#fee47e" d="M38 21.9V2.1C38 .9 37.1 0 36 0h-7.8c1.2 3.8 2 11.7-2.5 17.5-2.9 3.7-7.3 5.9-13.3 6.5h1.7c5.2-.8 9.1-2.9 11.8-6.3 4-5.1 3.9-11.9 3-16.1 1 3.9 1.5 10.7-2.1 16.1-2 2.9-4.9 5-8.7 6.3h1.1c3.4-1.3 6-3.4 7.9-6.1 1.8-2.7 2.9-6.1 3-9.8 0-1.4-.1-2.7-.2-3.8.7 3.9.7 9-2 13.5-1.6 2.6-3.9 4.7-6.8 6.2h.9c2.6-1.5 4.7-3.5 6.2-5.9 2.2-3.7 2.7-7.9 2.4-11.5.5 3.4.2 7.5-1.8 11.3-1.3 2.5-3.2 4.5-5.7 6.2h1.1c2.2-1.6 3.9-3.6 5.1-5.9 1.3-2.5 1.9-5.2 2-7.7 0 2.4-.4 5-1.5 7.3-1.1 2.4-2.7 4.5-4.9 6.2h1.2c1.9-1.7 3.4-3.7 4.4-5.9.5-1.2.9-2.5 1.2-3.8-.2 1.1-.5 2.2-.9 3.3-.8 2.4-2.3 4.6-4.2 6.4H28c1.7-1.8 3-3.8 3.8-6-.8 2.2-2 4.2-3.6 6H36c1.1 0 2-.9 2-2.1z"/><path fill="#fee667" d="M26.9.7c-.1 0-.1 0 0 0zm.2 0c-.1 0-.1 0 0 0zm.2 0h-.1.1zm-5.7 15.6c4.9-4 5.9-11 5.3-15.5.6 4.5-.4 11.4-5.3 15.5C16.9 20 9.9 20.8.5 18.7 9.9 20.9 17 20 21.6 16.3z"/><path fill="#fee667" d="M22.6 16.7c2.3-2.1 3.8-4.9 4.4-8.2.7-3.5.3-6.6 0-7.7.2 1.1.7 4.2 0 7.7-.7 3.3-2.2 6.1-4.4 8.2-4.6 4.2-12 5.3-22.1 3.4v.1c10.1 1.9 17.5.7 22.1-3.5z"/><path fill="#fee667" d="M23.7 17c4.9-5.1 4.6-12.7 3.6-16.3h-.1c1 3.6 1.3 11.2-3.5 16.3-4.6 4.6-12.2 6.1-22.7 4.6l-.5-.1v.1l.5.1c10.6 1.6 18.2 0 22.7-4.7z"/><path fill="none" opacity=".05" d="M14.3 13.4C11.4 9.3 8.9 2.3 8.9-9.4"/><path fill="none" opacity=".068" d="M13.8 13.6C10.5 9.8 7.5 3.2 7-8.2"/><path fill="none" opacity=".086" d="M13.2 13.7C9.5 10.4 6.1 4.2 5.1-7"/><path fill="none" opacity=".104" d="M12.7 13.9c-4.1-3-8-8.8-9.4-19.7"/><path fill="none" opacity=".121" d="M12.1 14.1c-4.5-2.6-8.9-8-10.8-18.7"/><path fill="none" opacity=".139" d="M11.6 14.2C6.7 12 1.8 7-.6-3.5"/><path stroke-miterlimit="10" stroke-width=".25" stroke="#feea81" fill="#feea81" d="M12.6 13.9c.1 0 .1 0 0 0 .1 0 .1 0 0 0-2.3-1.7-4.2-4-5.7-7 1.5 3 3.4 5.3 5.7 7z"/><path stroke-miterlimit="10" stroke-width=".25" stroke="#ffeeaf" fill="#fff0a7" d="M7.9 13.7c.8.3 1.6.6 2.4.8h.1c-.8-.3-1.7-.5-2.5-.8-2.7-1.2-5.1-2.9-7.1-5.3 2 2.4 4.3 4.1 7.1 5.3z"/><path stroke-miterlimit="10" stroke-width=".25" stroke="#feeb8b" fill="#feeb8b" d="M12.1 14.1s0-.1 0 0c0-.1 0-.1 0 0 0-.1 0-.1 0 0 0-.1 0-.1 0 0C9 12.2 6.4 9.3 4.5 5.5c1.8 3.8 4.4 6.7 7.6 8.6z"/><path stroke-miterlimit="10" stroke-width=".25" stroke="#ffeeaf" fill="#ffeeaf" d="M9.3 13.7c.5.2 1 .5 1.6.6h.1c-.6-.2-1.1-.4-1.7-.6C5.8 12 3 9.3.7 5.5c2.2 3.8 5.1 6.6 8.6 8.2z"/><path stroke-miterlimit="10" stroke-width=".25" stroke="#ffeeaf" fill="#ffeeaf" d="M10.8 13.9c.2.1.5.2.7.4-.2-.2-.5-.4-.7-.4-3.3-1.8-6.1-4.6-8.1-8.4 2 3.8 4.7 6.6 8.1 8.4z"/><path stroke-miterlimit="10" stroke-width=".25" stroke="#fee14d" fill="#fee14d" d="M13.2 13.7c-1.8-1.6-3.3-3.8-4.5-6.3 1.2 2.6 2.7 4.7 4.5 6.3zm.6-.1z"/><path stroke-miterlimit="10" stroke-width=".25" stroke="#ffeeaf" fill="#ffeeaf" d="M27.8 9.6l.3-.2c1.8-1 3.5-2.1 5.1-3.2l-.1-.1c-1.6 1.2-3.3 2.3-5.1 3.2l-.2.3c-.2 0-7.2 4-15.7 5.1h-.3l-.4.1h-.2.6l.7-.1c8.4-1.2 15.2-5.1 15.3-5.1z"/><path fill="#fff2b4" d="M27.9 8.1c-2 1.1-8.3 4.5-15.9 6.2-.4.1-.7.2-1.1.2-.2 0-.4.1-.5.1l-.2.1h.5c.5-.1 1.4-.3 1.7-.3 7.3-1.7 13.6-5.1 15.5-6.3z"/><path fill="#fff0a7" d="M28.2 8.7c.7-.4 1.8-1 3.1-1.9v-.1c-1.4.9-2.5 1.5-3.1 2-.2 0-7.6 4.4-16.7 6l-.4.1-.4.1h.4l1.7-.3c8.5-1.8 15.3-5.9 15.4-5.9z"/><path fill="#fff0a7" d="M11.4 14.4l.3-.1C17.1 12.9 21.8 10.7 25 9h-.1c-3.1 1.6-7.9 3.8-13.3 5.3-.7.2-1.4.3-2.1.5h.2c.2 0 .6-.1.9-.2l.8-.2z"/><path stroke-miterlimit="10" stroke-width=".25" stroke="#fee14d" fill="#fee14d" d="M14.4 13.4c-1.1-1.5-2-3.3-2.8-5.3.8 2 1.7 3.8 2.8 5.3z"/><path stroke-width=".25" stroke="#fed500" fill="#fed500" d="M24.2 19.5h0c-.1 0-3 0-6.3-2.5h0c3.2 2.5 6.2 2.5 6.3 2.5h0c-.1 0 0 0 0 0 .8.1 4 .3 8.2-3.2h0c-4.3 3.4-7.4 3.3-8.2 3.2z"/><path stroke-miterlimit="10" stroke-width=".25" stroke="#fedf41" fill="#fedf41" d="M25.5 15.9h0c-.1 0-4.4 1.2-9.5-.2 0 0 0 0 0 0s0 0 0 0 .1 0 .1.1c5 1.3 9.3.1 9.4.1h0c.2 0 5-.7 10.6-6.7h0c-5.7 5.9-10.6 6.7-10.6 6.7z"/><path stroke-miterlimit="10" stroke-width=".25" stroke="#ffeeaf" fill="#fff2b4" d="M9.7 14.6h.1s0 0 0 0 0 0 0 0c-1.1-.2-2.3-.5-3.4-.9-2-.8-3.9-1.8-5.6-3.2h0c1.7 1.4 3.5 2.5 5.6 3.2 1.1.4 2.2.7 3.3.9z"/><path stroke-miterlimit="10" stroke-width=".25" stroke="#fedb26" fill="#fedb26" d="M35.2 11.8c-1.7 1.7-3.4 3-5.1 4-3.1 1.8-5.2 1.9-5.3 1.9 0 0-3.6.6-7.7-1.4h0c4.1 1.9 7.7 1.4 7.7 1.4.1 0 2.2-.1 5.3-1.9 1.8-1 3.5-2.3 5.1-4 0 0 0 0 0 0z"/><path stroke-miterlimit="10" stroke-width=".25" stroke="#fee14d" fill="#fee14d" d="M26.1 14c-.1 0-5.2 2-11.2 1.2h-.1c.1 0 .1 0 .2.1 6 .8 11.1-1.2 11.1-1.3.2 0 5.1-1.4 10.6-7.2-5.5 5.9-10.5 7.2-10.6 7.2z"/><path stroke-miterlimit="10" stroke-width=".25" stroke="#fee14d" fill="#fee14d" d="M25.8 15c-.1 0-4.9 1.6-10.4.5.1 0 .1 0 .2.1 5.5 1 10.2-.6 10.2-.6.1 0 5.1-1.2 10.5-6.8-5.5 5.6-10.4 6.7-10.5 6.8z"/><path stroke-width=".25" stroke="#fed818" fill="#fed818" d="M34.3 13.5c-1.5 1.4-3 2.6-4.5 3.4-3.1 1.7-5.2 1.6-5.3 1.6 0 0-3.3.3-7-2h0c3.7 2.2 7 2 7 2 .1 0 2.2.1 5.3-1.6 1.5-.8 3.1-1.9 4.5-3.4.1.1 0 0 0 0z"/><path stroke-miterlimit="10" stroke-width=".25" stroke="#fedc33" fill="#fedc33" d="M25.1 16.8h0s-4 .9-8.6-.8c0 0 0 0 0 0s0 0 0 0 .1 0 .1.1c4.6 1.6 8.5.7 8.5.7h0c.1 0 4.9-.6 10.5-6.4h0c-5.6 5.8-10.4 6.4-10.5 6.4z"/><path stroke-miterlimit="10" stroke-width=".25" stroke="#fee14d" fill="#fee14d" d="M26.5 13.1c-.1 0-5.6 2.4-12.1 2h-.3.2c6.6.5 12.1-1.9 12.2-2 .1 0 5.5-1.9 10.6-7.4-5.2 5.5-10.6 7.4-10.6 7.4z"/><path stroke-miterlimit="10" stroke-width=".25" stroke="#fe9" fill="#fe9" d="M27.5 10.5c.1 0 3.3-1.7 7.1-4.7l-.1-.1c-3.7 3-7 4.7-7 4.8h0c-.1 0-6.8 3.5-14.7 4.3-.3 0-.5.1-.8.1 0 0 0 0 0 0s0 0 0 0h.3c8.2-.6 15.1-4.4 15.2-4.4h0z"/><path stroke-miterlimit="10" stroke-width=".25" stroke="#ffeeaf" fill="fff0a7" d="M9.2 14.7c-1.4-.2-2.9-.5-4.3-.9-1.2-.4-2.2-.8-3.3-1.4v.1c1 .6 2.1 1 3.3 1.4 1.3.4 2.7.7 4 .9h.2s.1 0 .1-.1z"/><path stroke-miterlimit="10" stroke-width=".25" stroke="#feeb8b" fill="#feeb8b" d="M27.2 11.4c.1 0 4.2-1.9 8.5-5.6-4.4 3.6-8.5 5.5-8.5 5.6-.1 0-6.5 3.2-14 3.5h-.4.2c7.6-.2 14.1-3.5 14.2-3.5z"/><path stroke-miterlimit="10" stroke-width=".25" stroke="#feea81" fill="#feea81" d="M26.8 12.3c.1 0 5-2.1 9.6-6.6-4.7 4.4-9.5 6.5-9.6 6.6-.1 0-6 2.7-13 2.7h-.4.3c7 .1 13.1-2.7 13.1-2.7z"/><path fill="#fff" d="M30.3 12.9l.4-1.4H4.9l-.3 1.4z"/><path fill="#ed2224" d="M33.4 9.5l.3-1.5h-2.2l-.5 2h.6l.3-1.5H33l-.3 1.5h1.6l-.1 1h-1.6l-.3 1.4h-1.2l-.1.5h1.8l.3-1.4h1.6l.4-1.9h-1.7z"/><path fill="#010101" d="M6.5 10.3l.2-1H7c.3 0 .5.1.5.4 0 .4-.3.6-.7.6h-.3zm-.1.6h.3c1 0 1.5-.5 1.5-1.2 0-.6-.4-.9-1.2-.9h-.9l-.7 3.1h.7l.3-1zm2.9.5c-.3 0-.5-.2-.4-.7.1-.5.4-.7.7-.7.3 0 .5.2.4.7-.1.5-.4.7-.7.7zm0 .5c.8 0 1.3-.5 1.4-1.2.1-.7-.3-1.2-1.1-1.2s-1.3.5-1.4 1.2c-.1.7.3 1.2 1.1 1.2zm2.6-.7c0 .2-.2.2-.4.2-.3 0-.5-.1-.7-.1l-.1.5c.2.1.5.1.8.1.6 0 1.1-.2 1.1-.8 0-.7-.9-.6-.9-.9 0-.1.1-.2.4-.2.2 0 .5.1.6.1l.1-.5c-.2-.1-.5-.1-.7-.1-.7 0-1.1.3-1.1.8 0 .7.9.6.9.9zm2.7-1.1l.1-.5H14l.1-.6-.7.2-.5 2c-.1.6.2.9.8.9.1 0 .3 0 .5-.1l.1-.5c-.1 0-.3.1-.4.1-.2 0-.3-.1-.3-.3l.2-1h.8zm.7 1.8l.3-1.2h1.1l.1-.6h-1.1l.2-.7H17l.1-.6h-1.8l-.7 3.1h.7zm2-2.3l-.5 2.3h.7l.5-2.3h-.7zm.1-.7c0 .2.1.4.4.4.2 0 .4-.2.4-.4s-.1-.4-.4-.4c-.2.1-.4.2-.4.4zm1.2 3l.3-1.2c.1-.5.4-.6.6-.6.3 0 .4.2.3.5l-.3 1.3h.7l.3-1.3c.2-.7-.2-1-.7-1-.3 0-.6.1-.8.3l.1-.3h-.7l-.5 2.3h.7zm3.5-2.4c-.3 0-.7.1-.8.1l-.1.5c.2 0 .5-.1.7-.1.4 0 .5.1.5.3v.1H22c-.7 0-1.3.3-1.3.9 0 .4.3.6.7.6.3 0 .6-.1.7-.3l-.1.2h.6l.3-1.3v-.3c.2-.3 0-.7-.8-.7zm-.7 1.7c0-.2.2-.4.6-.4h.4v.1c-.1.3-.3.5-.6.5-.3.1-.4 0-.4-.2zm2.5.7l.3-1.2c.1-.5.4-.6.6-.6.3 0 .4.2.3.5l-.3 1.3h.7l.3-1.3c.2-.7-.2-1-.7-1-.3 0-.6.1-.8.3l.1-.3h-.7l-.5 2.3h.7zm3.4-.5c-.3 0-.5-.1-.5-.5s.3-.8.8-.8c.1 0 .3 0 .5.1l.1-.5c-.2-.1-.4-.1-.6-.1-.8 0-1.4.5-1.4 1.4 0 .7.4 1 1.1 1 .2 0 .4 0 .5-.1l.1-.5c-.2-.1-.4 0-.6 0zm2.7.4l.1-.6c-.2.1-.4.1-.7.1-.3 0-.6-.1-.6-.5h1.6c.1-.2.1-.4.1-.5 0-.5-.3-.9-1-.9-.9 0-1.4.7-1.4 1.4 0 .6.5 1 1.2 1 .3.1.5.1.7 0zm-.5-1.8c.2 0 .4.1.4.4v.1h-1c.1-.3.3-.5.6-.5zm-14.9 6.9h2l-.1.5h-1.3l-.2.7h1.2l-.2.5h-1.2l-.2.9H16l-.1.5h-2l.7-3.1zm2.2 1.7H18l-.1.4h-1.3l.2-.4zm2.3-1.7h1.8l-.1.5h-1.2l-.2.8h1.1l-.1.5h-1.1L19 20h-.7l.8-3.1zm2.1.8h.6l-.4 2.3h-.6l.4-2.3zm.3-1h.6l-.1.6h-.6l.1-.6zm1 1.3v-.3h.6v.2c.1-.1.2-.1.3-.2.1-.1.2-.1.4-.1s.4.1.6.2c.1.1.2.3.2.5v.3c0 .1 0 .2-.1.2l-.2 1.2h-.6l.2-1.1v-.4c0-.1 0-.2-.1-.2-.1-.1-.1-.1-.3-.1-.1 0-.2 0-.3.1-.1 0-.1.1-.2.2s-.1.1-.1.2-.1.2-.1.3l-.1 1H22l.5-2zm4 1.7c-.1.1-.2.2-.4.3-.1.1-.3.1-.4.1-.2 0-.4-.1-.5-.2-.1-.1-.2-.3-.2-.5s.1-.3.2-.5c.1-.1.2-.2.4-.2.2-.1.3-.1.5-.1h.7v-.3l-.1-.1h-.8c-.1 0-.3.1-.4.1l.1-.5c.1 0 .3-.1.4-.1h.8c.1 0 .2.1.3.1.1.1.2.1.2.2.1.1.1.2.1.3v.5c0 .1 0 .2-.1.3 0 .1 0 .2-.1.3 0 .1 0 .2-.1.3v.3h-.5l-.1-.3zm-.9-.3c0 .1 0 .1.1.2.1 0 .1.1.2.1s.2 0 .3-.1c.1 0 .1-.1.2-.1.1-.1.1-.1.1-.2s.1-.2.1-.3h-.5c-.1 0-.2 0-.3.1-.1 0-.2.1-.2.1v.2zM28 18v-.3h.6v.2c.1-.1.2-.1.3-.2.1-.1.2-.1.4-.1s.4.1.6.2c.1.1.2.3.2.5v.3c0 .1 0 .2-.1.2l-.1 1.2h-.6l.2-1.1v-.4c0-.1 0-.2-.1-.2-.1-.1-.1-.1-.3-.1-.1 0-.2 0-.3.1-.1 0-.1.1-.2.2s-.1.1-.1.2-.1.2-.1.3l-.2 1h-.6l.4-2zm4.5.2c-.1-.1-.3-.1-.5-.1-.1 0-.2 0-.3.1-.1.1-.2.1-.3.2-.1.1-.1.2-.2.3 0 .1-.1.2-.1.3v.2c0 .1 0 .1.1.2 0 .1.1.1.2.1s.2.1.3.1h.3c.1 0 .2 0 .3-.1v.5h-.6c-.2 0-.3 0-.4-.1-.1 0-.2-.1-.3-.2-.1-.1-.2-.2-.2-.3 0-.1-.1-.3-.1-.4 0-.2 0-.4.1-.6.1-.2.2-.3.3-.5.1-.1.3-.2.5-.3.2-.1.4-.1.6-.1h.3c.1 0 .2 0 .3.1l-.3.6zm.8.8c0 .2.1.4.2.5.1.1.3.1.5.1h.4c.1 0 .2-.1.4-.1l-.1.5c-.1 0-.3.1-.4.1h-.4c-.2 0-.3 0-.5-.1-.1 0-.3-.1-.4-.2-.1-.1-.2-.2-.2-.3-.1-.1-.1-.3-.1-.4 0-.2 0-.4.1-.5.1-.2.2-.3.3-.5.1-.1.3-.2.4-.3.2-.1.4-.1.6-.1.2 0 .3 0 .4.1.1 0 .2.1.3.2.1.1.2.2.2.3 0 .1.1.2.1.4v.6h-1.8zm1.1-.4v-.2c0-.1 0-.2-.1-.3-.1-.1-.2-.1-.3-.1-.2 0-.3.1-.4.2-.1.1-.2.2-.2.4h1z"/></svg>