<svg width="38" height="24" viewBox="0 0 38 24" fill="none" xmlns="http://www.w3.org/2000/svg" role="img" aria-labelledby="pi-poweredbyansastoredvalue"><title id="pi-poweredbyansastoredvalue">Powered by Ansa Stored Value</title><rect x="1" y="1" width="36" height="22" rx="2" fill="#271C6A"/><rect x=".5" y=".5" width="37" height="23" rx="2.5" stroke="#000" stroke-opacity=".07"/><mask id="pi-poweredbyansastoredvalue-mask0_560_1607" style="mask-type:luminance" maskUnits="userSpaceOnUse" x="3" y="4" width="32" height="16"><path d="M34.54 4.739H3.5v14.604h31.04V4.739z" fill="#fff"/></mask><g mask="url(#pi-poweredbyansastoredvalue-mask0_560_1607)" fill="#fff"><path d="M3.5 10.159V5.796h.456V6.3h.055c.035-.055.083-.125.144-.21a.85.85 0 01.267-.232.943.943 0 01.475-.103c.258 0 .485.067.682.2.196.134.35.323.46.568.11.246.166.535.166.868 0 .336-.055.627-.166.874-.11.245-.263.435-.458.57-.196.133-.421.2-.676.2a.952.952 0 01-.473-.101.885.885 0 01-.273-.233 3.133 3.133 0 01-.148-.22h-.04v1.678h-.47zm.463-2.776c0 .24.034.45.102.634a.957.957 0 00.297.427c.13.102.29.153.479.153.197 0 .36-.053.492-.16a.985.985 0 00.3-.439 1.79 1.79 0 00.101-.615 1.71 1.71 0 00-.1-.603.931.931 0 00-.297-.428.766.766 0 00-.496-.159.766.766 0 00-.483.15.903.903 0 00-.295.418 1.77 1.77 0 00-.1.622zm4.17 1.652a1.3 1.3 0 01-.728-.204 1.375 1.375 0 01-.486-.573 1.994 1.994 0 01-.174-.859c0-.33.058-.619.174-.865.117-.247.279-.438.486-.574a1.3 1.3 0 01.728-.205 1.285 1.285 0 011.213.779c.117.246.175.535.175.865 0 .328-.058.614-.175.86a1.356 1.356 0 01-.487.572c-.207.136-.45.204-.726.204zm0-.438a.79.79 0 00.519-.167.986.986 0 00.3-.44c.066-.182.098-.379.098-.59 0-.213-.032-.41-.097-.594a.999.999 0 00-.301-.444.783.783 0 00-.519-.169.783.783 0 00-.518.17.999.999 0 00-.301.443 1.74 1.74 0 00-.098.593c0 .212.032.41.098.591a.986.986 0 00.3.44.79.79 0 00.52.167zm2.662.372l-.933-3.173h.495l.662 2.43h.032l.654-2.43h.502l.646 2.421h.032l.662-2.42h.495l-.934 3.172h-.462l-.67-2.437h-.048l-.67 2.437h-.463zm5.015.066c-.295 0-.55-.067-.764-.202a1.343 1.343 0 01-.492-.57 2.004 2.004 0 01-.172-.855c0-.325.057-.612.172-.86a1.39 1.39 0 01.482-.582c.208-.14.45-.21.726-.21.16 0 .317.027.473.082.155.055.297.144.424.268.128.123.23.285.306.488.075.202.113.451.113.747v.207h-2.36v-.421h1.881c0-.18-.034-.34-.103-.48a.8.8 0 00-.291-.332.794.794 0 00-.443-.122.824.824 0 00-.487.145.942.942 0 00-.313.371c-.073.153-.11.317-.11.492v.28c0 .24.04.444.12.61a.883.883 0 00.337.378c.144.086.31.128.5.128a.985.985 0 00.336-.053.713.713 0 00.261-.166.754.754 0 00.17-.277l.454.133c-.048.16-.128.3-.241.421a1.18 1.18 0 01-.419.281c-.166.066-.353.1-.56.1zm1.95-.066V5.796h.455v.48h.032a.756.756 0 01.303-.383.87.87 0 01.494-.146 5.03 5.03 0 01.248.008v.496a1.345 1.345 0 00-.11-.019 1.046 1.046 0 00-.177-.014.81.81 0 00-.4.097.717.717 0 00-.374.646V8.97h-.47zm3.247.066c-.295 0-.55-.067-.764-.202a1.344 1.344 0 01-.492-.57 2.004 2.004 0 01-.172-.855c0-.325.057-.612.172-.86a1.39 1.39 0 01.482-.582c.207-.14.45-.21.726-.21.16 0 .317.027.473.082.155.055.297.144.424.268.128.123.23.285.305.488.076.202.114.451.114.747v.207h-2.36v-.421h1.881c0-.18-.034-.34-.103-.48a.8.8 0 00-.291-.332.794.794 0 00-.443-.122.824.824 0 00-.487.145.943.943 0 00-.313.371c-.073.153-.11.317-.11.492v.28c0 .24.04.444.12.61a.883.883 0 00.337.378.96.96 0 00.5.128.985.985 0 00.336-.053.714.714 0 00.261-.166.755.755 0 00.17-.277l.454.133c-.048.16-.128.3-.241.421a1.18 1.18 0 01-.419.281c-.166.066-.353.1-.56.1zm3.107 0a1.17 1.17 0 01-.676-.2 1.342 1.342 0 01-.459-.57 2.123 2.123 0 01-.165-.874c0-.333.055-.622.165-.868.11-.245.264-.434.46-.568.197-.133.425-.2.683-.2.199 0 .357.035.472.103a.82.82 0 01.267.232c.063.085.111.155.146.21h.04V4.74h.47v4.23h-.454v-.487h-.056c-.035.057-.084.13-.148.219a.885.885 0 01-.273.233.952.952 0 01-.472.101zm.063-.438a.753.753 0 00.479-.153.956.956 0 00.297-.427c.068-.183.102-.395.102-.634 0-.237-.034-.444-.1-.622a.903.903 0 00-.295-.417.766.766 0 00-.483-.151.774.774 0 00-.498.159.95.95 0 00-.297.428c-.065.179-.098.38-.098.603 0 .226.033.43.1.615.067.183.167.33.299.438a.761.761 0 00.494.161zm3.843.372v-4.23h.47V6.3h.04c.035-.055.083-.125.144-.21a.85.85 0 01.268-.232c.116-.068.275-.103.474-.103.258 0 .485.067.682.2.197.134.35.323.46.568a2.1 2.1 0 01.166.868c0 .336-.055.627-.165.874-.11.245-.264.435-.459.57-.195.133-.42.2-.676.2a.952.952 0 01-.473-.101.884.884 0 01-.273-.233 3.15 3.15 0 01-.147-.22h-.056v.488h-.455zm.463-1.586c0 .24.034.45.102.634a.957.957 0 00.297.427c.13.102.29.153.478.153a.757.757 0 00.493-.16.986.986 0 00.299-.439c.068-.184.102-.39.102-.615 0-.223-.034-.424-.1-.603a.931.931 0 00-.297-.428.766.766 0 00-.497-.159.766.766 0 00-.482.15.903.903 0 00-.295.418 1.77 1.77 0 00-.1.622zm3.121 2.776a.994.994 0 01-.343-.058l.12-.43a.86.86 0 00.302.033.359.359 0 00.234-.122.979.979 0 00.19-.349l.087-.247-1.133-3.19h.51l.846 2.529h.032l.846-2.529h.51l-1.3 3.636c-.058.164-.13.3-.217.407a.82.82 0 01-.684.32z" fill-opacity=".68"/><path d="M6.17 19.343c1.15 0 1.931-.492 2.442-1.114v.955h1.676v-4.53c0-.998-.256-1.809-.81-2.359-.525-.55-1.362-.854-2.484-.854-1.193 0-2.002.246-2.84.623l.469 1.374c.681-.289 1.306-.477 2.144-.477 1.207 0 1.86.579 1.86 1.664v.188a6.156 6.156 0 00-2.017-.318c-1.831 0-3.11.81-3.11 2.46v.029c0 1.534 1.265 2.359 2.67 2.359zm.483-1.274c-.823 0-1.462-.42-1.462-1.157v-.03c0-.795.653-1.273 1.76-1.273.682 0 1.264.13 1.704.304v.521c0 .97-.866 1.635-2.002 1.635zm5.678 1.115h1.733V14.87c0-1.187.695-1.896 1.69-1.896 1.022 0 1.604.68 1.604 1.867v4.342h1.718v-4.877c0-1.766-.98-2.924-2.67-2.924-1.164 0-1.86.623-2.342 1.332v-1.172H12.33v7.64zm11.389.144c1.562 0 2.784-.796 2.784-2.402v-.029c0-1.375-1.236-1.881-2.33-2.228-.88-.29-1.689-.521-1.689-1.086v-.029c0-.42.384-.752 1.05-.752.626 0 1.392.275 2.116.723l.682-1.244c-.795-.536-1.817-.869-2.755-.869-1.49 0-2.669.883-2.669 2.345v.029c0 1.447 1.235 1.91 2.343 2.228.88.275 1.675.478 1.675 1.071v.03c0 .506-.426.824-1.164.824-.767 0-1.633-.318-2.456-.94l-.767 1.186a5.116 5.116 0 003.18 1.143zm6.702.015c1.15 0 1.931-.492 2.442-1.114v.955h1.676v-4.53c0-.998-.256-1.809-.81-2.359-.525-.55-1.363-.854-2.484-.854-1.193 0-2.002.246-2.84.623l.468 1.374c.682-.289 1.307-.477 2.144-.477 1.207 0 1.86.579 1.86 1.664v.188a6.156 6.156 0 00-2.016-.318c-1.831 0-3.11.81-3.11 2.46v.029c0 1.534 1.264 2.359 2.67 2.359zm.483-1.274c-.824 0-1.463-.42-1.463-1.157v-.03c0-.795.654-1.273 1.761-1.273.682 0 1.264.13 1.704.304v.521c0 .97-.866 1.635-2.002 1.635z"/></g></svg>