<svg width="38" height="24" viewBox="0 0 38 24" role="img" fill="none" xmlns="http://www.w3.org/2000/svg" aria-labelledby="pi-powerpay"> <title id="pi-powerpay">Powerpay</title><g clip-path="url(#pi-powerpay-clip0_16_243)"><path opacity=".07" d="M35 0H3C1.3 0 0 1.3 0 3v18c0 1.7 1.4 3 3 3h32c1.7 0 3-1.3 3-3V3c0-1.7-1.4-3-3-3z" fill="#000"/><path d="M35 1c1.1 0 2 .9 2 2v18c0 1.1-.9 2-2 2H3c-1.1 0-2-.9-2-2V3c0-1.1.9-2 2-2h32z" fill="#AD39EF"/><path d="M16.106 7H12l2.913 7L17 10.036 16.106 7zM23.765 5l-4.03 5.968-.383-3.349L13 20l4.809-5.13.697 2.362L28 5h-4.235z" fill="#fff"/></g><defs><clipPath id="pi-powerpay-clip0_16_243"><path fill="#fff" d="M0 0h38v24H0z"/></clipPath></defs></svg>