<svg xmlns="http://www.w3.org/2000/svg" width="38" height="24" viewBox="0 0 38 24" role="img" aria-labelledby="pi-pragmapay"><title id="pi-pragmapay">PragmaPay</title><path d="M35 0H3a2.946 2.946 0 00-3 3v18a3.009 3.009 0 003 3h32a2.946 2.946 0 003-3V3a3.009 3.009 0 00-3-3z" opacity=".07"/><path d="M35 1a2.006 2.006 0 012 2v18a2.006 2.006 0 01-2 2H3a2.006 2.006 0 01-2-2V3a2.006 2.006 0 012-2h32" fill="#fff"/><g><path d="M6.538 12.716l.053.039a1.544 1.544 0 001.119-.377 1.458 1.458 0 00.346-1 1.473 1.473 0 00-.233-.727H5.457a.629.629 0 00-.629.629V13.197a.462.462 0 00.462.462h.719l.056-.411a.464.464 0 01.5-.481" fill="#fff"/><path d="M33.984 11.576l-.6 1.228-.669-1.228h-.709l1.028 1.837-.793 1.468h.689l1.742-3.3zM30.725 12.045a.588.588 0 00-.6.576v.033a.6.6 0 001.2.03v-.03a.588.588 0 00-.566-.609h-.033m.539-.19v-.28h.609v2.161h-.609v-.276a.775.775 0 01-.664.349 1.1 1.1 0 01-1.1-1.153 1.081 1.081 0 011.073-1.148.783.783 0 01.694.349M27.894 10.966v.978h.265a.665.665 0 00.425-.1.5.5 0 00.18-.389.458.458 0 00-.185-.379.781.781 0 00-.459-.1zm-.649-.559h.969a1.193 1.193 0 01.878.255 1.132 1.132 0 01.065 1.547 1.142 1.142 0 01-.844.295h-.419v1.233h-.649zM25.593 12.045a.588.588 0 00-.6.576v.033a.6.6 0 001.2.03v-.03a.588.588 0 00-.566-.609h-.033m.539-.19v-.28h.609v2.161h-.609v-.275a.775.775 0 01-.665.349 1.1 1.1 0 01-1.1-1.153 1.081 1.081 0 011.073-1.148.783.783 0 01.694.349M20.697 13.741v-2.166h.609v.245a.8.8 0 01.644-.314.714.714 0 01.684.394.8.8 0 01.694-.394.686.686 0 01.584.265.909.909 0 01.15.609v1.361h-.609v-1.183a.654.654 0 00-.1-.424.307.307 0 00-.25-.11.358.358 0 00-.335.19.824.824 0 00-.085.419v1.1h-.609v-1.175a.654.654 0 00-.1-.424.307.307 0 00-.25-.11.357.357 0 00-.334.19.821.821 0 00-.085.419v1.1zM19.147 12.045a.587.587 0 00-.4.15.593.593 0 00-.195.459.6.6 0 00.16.424.591.591 0 00.439.19.612.612 0 00.4-.15.636.636 0 00.195-.464.615.615 0 00-.175-.434.555.555 0 00-.424-.175m.529-.19v-.28h.609v2.062a1.239 1.239 0 01-.3.943 1.149 1.149 0 01-.854.3 1.178 1.178 0 01-.809-.25 1.2 1.2 0 01-.349-.644h.659a.517.517 0 00.15.26.537.537 0 00.369.115.514.514 0 00.369-.135.609.609 0 00.155-.479v-.3a.757.757 0 01-.664.36 1.024 1.024 0 01-.749-.295 1.188 1.188 0 01-.345-.859 1.2 1.2 0 01.335-.858 1.058 1.058 0 01.744-.29.761.761 0 01.679.349M16.464 12.045a.588.588 0 00-.6.576v.033a.6.6 0 001.2.03v-.03a.588.588 0 00-.566-.609h-.033m.539-.19v-.28h.609v2.161h-.609v-.275a.775.775 0 01-.665.349 1.1 1.1 0 01-1.1-1.153 1.081 1.081 0 011.073-1.148.783.783 0 01.694.349M13.761 13.737v-2.163h.609v.324a.729.729 0 01.27-.3.662.662 0 01.359-.095.745.745 0 01.26.05l-.08.569a.457.457 0 00-.284-.08.5.5 0 00-.4.175.743.743 0 00-.12.479v1.038zM12.001 10.966v.978h.265a.665.665 0 00.424-.1.5.5 0 00.18-.389.459.459 0 00-.185-.379.782.782 0 00-.459-.1zm-.649-.559h.968a1.194 1.194 0 01.878.255 1.132 1.132 0 01.065 1.547 1.141 1.141 0 01-.844.295H12v1.233h-.649z" fill="#0e2639"/><path d="M8.561 10.657h-.734a1.492 1.492 0 01-.175 1.679 1.48 1.48 0 01-1.094.382h-.017a.527.527 0 00-.527.527v.415h2.55a.694.694 0 00.694-.694v-1.615a.694.694 0 00-.694-.694" fill="#f43454"/><path d="M5.522 13.66h-.23a.462.462 0 01-.462-.46v-.187V11.286a.629.629 0 01.627-.629h2.366a1.378 1.378 0 00-.259-.327A1.548 1.548 0 006.425 10H5.01A1.01 1.01 0 004 11.01v2.442a.884.884 0 00.9.865h.651a.462.462 0 00.462-.462v-.2z" fill="#3e4cb4"/></g></svg>