<svg xmlns="http://www.w3.org/2000/svg" viewBox="0 0 38 24" width="38" height="24" role="img" aria-labelledby="pi-progressiveleasing"><title id="pi-progressiveleasing">Progressive Leasing</title><path opacity=".07" d="M35 0H3C1.3 0 0 1.3 0 3v18c0 1.7 1.4 3 3 3h32c1.7 0 3-1.3 3-3V3c0-1.7-1.4-3-3-3z" fill="#000"/><path d="M35 1c1.1 0 2 .9 2 2v18c0 1.1-.9 2-2 2H3c-1.1 0-2-.9-2-2V3c0-1.1.9-2 2-2h32z" fill="#fff"/><path fill="#0093c9" d="M9.51 7.23L6.66 5.54a.829.829 0 00-.78 0L3.1 7.18a.79.79 0 00-.39.68v7.66c0 .23.12.45.32.57l2.58 1.55c.11.06.22.1.34.1s.22-.03.33-.09c.21-.12.34-.33.34-.58v-3.62l2.89-1.71c.22-.13.38-.42.38-.67V7.9c0-.25-.16-.54-.38-.67m-3.43 9.84c0 .06-.04.09-.06.11-.02.01-.07.03-.12 0l-2.58-1.55s-.06-.06-.06-.1V8.26c0-.1.1-.16.19-.11l2.56 1.51s.08.08.08.14v7.28l-.01-.01zm3.27-6c0 .06-.06.18-.12.21L6.8 12.71c-.08.05-.19-.01-.19-.11V9.79c0-.25-.13-.48-.35-.6L3.68 7.67c-.08-.05-.08-.17 0-.21l2.46-1.45c.05-.03.17-.03.23 0L9.22 7.7c.06.03.12.14.12.21v3.17l.01-.01z"/><path d="M13.06 9.69h.15c.65 0 .95-.24.95-.74 0-.47-.3-.7-.91-.7h-.19v1.44zm-.37 1.5V7.97h.02c.08-.01.34-.05.56-.05.82 0 1.27.36 1.27 1.03s-.47 1.07-1.29 1.07h-.18v1.19h-.37l-.01-.02z"/><path d="M13.04 9.71h.17c.66 0 .97-.25.97-.76 0-.41-.24-.72-.93-.72-.06 0-.14 0-.21.01v1.47zm0 1.46h-.33V7.99c.14-.02.37-.05.56-.05.88 0 1.25.41 1.25 1.01 0 .68-.48 1.05-1.27 1.05-.06 0-.13 0-.2-.01v1.19l-.01-.01zm1.99.02V9.04c.26-.17.57-.26.88-.26.13 0 .26.02.39.05h.02v.36h-.03c-.15-.06-.32-.07-.41-.07-.2 0-.37.04-.5.11v1.95h-.36l.01.01z"/><path d="M15.37 11.17h-.32V9.05a1.61 1.61 0 011.26-.2v.32c-.14-.05-.3-.06-.41-.06-.23 0-.4.05-.52.12v1.95l-.01-.01zm2.36-2.08c-.49 0-.83.38-.83.92s.34.92.83.92.83-.38.83-.92-.34-.92-.83-.92m0 2.16c-.7 0-1.19-.51-1.19-1.24s.49-1.24 1.19-1.24 1.19.51 1.19 1.24-.49 1.24-1.19 1.24"/><path d="M17.73 9.07c-.49 0-.84.37-.84.94s.35.94.84.94.84-.37.84-.94-.35-.94-.84-.94m0-.28c.7 0 1.17.5 1.17 1.22s-.48 1.22-1.17 1.22-1.17-.5-1.17-1.22.48-1.22 1.17-1.22m2.99.31c-.64 0-1 .33-1 .89s.37.89.96.89c.19 0 .31-.03.46-.08V9.16c-.13-.04-.27-.06-.42-.06m-.31 3.11a1.7 1.7 0 01-.73-.15h-.01v-.35h.03c.23.12.49.19.71.19.27 0 .73-.1.73-.76-.1.04-.3.07-.46.07-.83 0-1.32-.46-1.32-1.22s.52-1.23 1.36-1.23c.24 0 .56.06.77.15h.01v2.28c0 .74-.56 1.01-1.09 1.01"/><path d="M21.16 9.15a1.45 1.45 0 00-.44-.07c-.65 0-1.02.34-1.02.91s.37.91.98.91c.19 0 .32-.03.48-.09V9.14v.01zm0 1.94c-.08.05-.29.1-.48.1-.76 0-1.3-.4-1.3-1.2 0-.75.52-1.21 1.34-1.21.24 0 .56.06.76.15v2.26c0 .71-.53.99-1.07.99-.28 0-.55-.06-.72-.14v-.3c.2.1.47.18.72.18.39 0 .75-.19.75-.78v-.05zm1.1.1V9.04a1.617 1.617 0 011.28-.21h.02v.36h-.03c-.15-.06-.32-.07-.41-.07-.2 0-.37.04-.5.11v1.95h-.36v.01z"/><path d="M22.6 11.17h-.32V9.05a1.61 1.61 0 011.26-.2v.32c-.14-.05-.3-.06-.41-.06-.23 0-.4.05-.52.12v1.95l-.01-.01zm2.93-1.43c-.03-.43-.24-.64-.65-.64-.36 0-.63.25-.72.64h1.38-.01zm-.55 1.51c-.72 0-1.21-.5-1.21-1.24s.48-1.24 1.13-1.24 1 .39 1 1.04v.24h-1.76c0 .58.43.88.85.88.31 0 .54-.07.78-.26l.03-.02v.37c-.2.15-.49.23-.81.23"/><path d="M25.55 9.76c-.02-.49-.28-.68-.67-.68-.36 0-.66.25-.75.68h1.42zm-1.44.26c0 .58.41.92.87.92.33 0 .56-.09.8-.26V11c-.21.16-.51.22-.8.22-.67 0-1.19-.46-1.19-1.22 0-.7.48-1.22 1.11-1.22.59 0 .98.35.98 1.02v.22h-1.77zm2.92 1.23c-.26 0-.52-.07-.67-.19v-.42l.03.03c.21.19.41.27.64.27.31 0 .46-.12.46-.35 0-.26-.18-.33-.56-.46-.44-.15-.6-.34-.6-.7 0-.4.29-.65.75-.65.26 0 .48.06.65.18v.41l-.03-.03c-.16-.13-.34-.25-.62-.25-.25 0-.4.13-.4.34s.12.31.47.42c.43.13.69.29.69.72s-.31.69-.82.69"/><path d="M26.38 10.68c.2.18.4.28.66.28.29 0 .48-.11.48-.37 0-.28-.2-.35-.57-.48-.41-.14-.59-.31-.59-.68 0-.41.31-.63.73-.63.23 0 .45.05.64.18v.35c-.18-.15-.37-.25-.64-.25s-.42.14-.42.36.13.33.49.44c.41.12.68.28.68.7 0 .46-.36.67-.8.67-.26 0-.51-.07-.66-.19v-.38zm2.61.57c-.26 0-.52-.07-.67-.19v-.42l.03.03c.21.19.41.27.64.27.31 0 .46-.12.46-.35 0-.26-.18-.33-.56-.46-.44-.15-.6-.34-.6-.7 0-.4.29-.65.75-.65.26 0 .48.06.65.18v.41l-.03-.03c-.16-.13-.34-.25-.62-.25-.25 0-.4.13-.4.34s.12.31.47.42c.43.13.69.3.69.72s-.31.69-.82.69"/><path d="M28.33 10.68c.2.18.4.28.66.28.29 0 .48-.11.48-.37 0-.28-.2-.35-.57-.48-.41-.14-.59-.31-.59-.68 0-.41.31-.63.73-.63.23 0 .45.05.64.18v.35c-.18-.15-.37-.25-.64-.25s-.42.14-.42.36.13.33.49.44c.41.12.68.28.68.7 0 .46-.36.67-.8.67-.26 0-.51-.07-.66-.19v-.38zm2.26-2.3c-.14 0-.26-.12-.26-.26s.12-.26.26-.26.26.12.26.26-.12.26-.26.26m-.18.44h.36v2.37h-.36V8.82z"/><path d="M30.75 11.17h-.32V8.84h.32v2.33zm-.4-3.06c0-.13.11-.24.24-.24s.24.11.24.24-.11.24-.24.24-.24-.11-.24-.24m1.73 3.08l-.93-2.37h.38l.74 2 .75-2h.37l-.93 2.37h-.38z"/><path d="M32.09 11.17l-.91-2.33h.33l.76 2.03.76-2.03h.33l-.91 2.33h-.36zm3.26-1.43c-.03-.43-.24-.64-.65-.64-.36 0-.63.25-.72.64h1.38-.01zm-.55 1.51c-.72 0-1.21-.5-1.21-1.24s.48-1.24 1.13-1.24 1 .39 1 1.04v.24h-1.76c0 .58.43.88.85.88.31 0 .54-.07.78-.26l.03-.02v.37c-.2.15-.49.23-.81.23"/><path d="M35.38 9.76c-.02-.49-.28-.68-.67-.68-.36 0-.66.25-.75.68h1.42zm-1.45.26c0 .58.41.92.87.92.33 0 .56-.09.8-.26V11c-.21.16-.51.22-.8.22-.67 0-1.19-.46-1.19-1.22 0-.7.48-1.22 1.11-1.22.59 0 .98.35.98 1.02v.22h-1.77zm-21.24 6.05v-3.22h.37v2.89h1.37v.33h-1.74z"/><path d="M12.71 12.87h.33v2.89h1.37v.29h-1.7v-3.18zm3.72 1.74c-.03-.43-.24-.64-.65-.64-.36 0-.63.25-.72.64h1.38-.01zm-.56 1.51c-.72 0-1.21-.5-1.21-1.24s.48-1.24 1.13-1.24 1 .39 1 1.04v.24h-1.76c0 .58.43.88.85.88.31 0 .54-.07.78-.26l.03-.02v.37c-.2.15-.49.23-.81.23"/><path d="M16.45 14.63c-.02-.49-.28-.68-.67-.68-.36 0-.66.25-.75.68h1.42zm-1.44.27c0 .58.41.92.87.92.33 0 .56-.09.8-.26v.32c-.21.16-.51.22-.8.22-.67 0-1.19-.46-1.19-1.22 0-.7.48-1.22 1.11-1.22.59 0 .98.35.98 1.02v.22h-1.77zm3.37.08c-.3 0-.81.05-.81.42 0 .33.4.4.73.4.09 0 .2-.01.31-.03v-.79h-.23zm-.1 1.13c-.7 0-1.07-.25-1.07-.71s.41-.72 1.15-.72h.24v-.26c0-.28-.17-.43-.47-.43-.28 0-.49.09-.68.18l-.03.02v-.35h.01c.22-.12.48-.19.73-.19.53 0 .8.25.8.75v1.62h-.01c-.2.06-.45.09-.67.09"/><path d="M18.62 14.96h-.24c-.48 0-.83.13-.83.44s.32.42.75.42c.1 0 .21-.01.33-.03v-.83h-.01zm0-.55c0-.3-.19-.45-.49-.45-.27 0-.47.07-.68.19v-.3c.2-.11.45-.18.72-.18.47 0 .78.21.78.73v1.61c-.21.06-.47.09-.66.09-.63 0-1.05-.2-1.05-.69 0-.46.42-.7 1.13-.7h.26v-.28l-.01-.02zm1.61 1.71c-.26 0-.52-.07-.67-.19v-.42l.03.03c.21.19.41.27.64.27.31 0 .46-.12.46-.35 0-.26-.18-.33-.56-.46-.44-.15-.6-.34-.6-.7 0-.4.29-.65.75-.65.26 0 .48.06.65.18v.41l-.03-.03c-.16-.13-.34-.25-.62-.25-.25 0-.4.13-.4.34s.12.31.47.42c.43.13.69.3.69.72s-.31.69-.82.69"/><path d="M19.57 15.55c.2.18.4.28.66.28.29 0 .48-.11.48-.37 0-.28-.2-.35-.57-.48-.41-.14-.59-.31-.59-.68 0-.41.31-.63.73-.63.23 0 .45.05.64.18v.35c-.18-.15-.37-.25-.64-.25s-.42.14-.42.36.13.33.49.44c.41.12.68.28.68.7 0 .46-.36.67-.8.67-.26 0-.51-.07-.66-.19v-.38zm2.26-2.3c-.14 0-.26-.12-.26-.26s.12-.26.26-.26.26.12.26.26-.12.26-.26.26m-.18.44h.36v2.37h-.36v-2.37z"/><path d="M21.99 16.05h-.32v-2.33h.32v2.33zm-.4-3.06c0-.13.11-.24.24-.24s.24.11.24.24-.11.24-.24.24-.24-.11-.24-.24m2.78 3.08v-1.53c0-.37-.21-.56-.63-.56-.2 0-.4.03-.61.08v2h-.36v-2.24h.01c.31-.12.67-.18.99-.18.64 0 .97.28.97.83v1.59h-.36l-.01.01z"/><path d="M22.79 13.84c.31-.11.66-.18.98-.18.59 0 .95.23.95.81v1.57h-.32v-1.51c0-.48-.34-.58-.65-.58-.25 0-.47.04-.63.09v2h-.32v-2.21l-.01.01zm3.86.13c-.64 0-1 .33-1 .89s.37.89.96.89c.19 0 .31-.03.46-.08v-1.64c-.13-.04-.27-.06-.42-.06m-.31 3.11c-.26 0-.54-.05-.73-.15h-.01v-.35h.03c.23.12.49.19.71.19.27 0 .73-.1.73-.76-.1.04-.3.07-.46.07-.83 0-1.32-.46-1.32-1.22s.52-1.23 1.36-1.23c.24 0 .56.06.77.15h.01v2.28c0 .74-.56 1.01-1.09 1.01"/><path d="M27.09 14.02a1.45 1.45 0 00-.44-.07c-.65 0-1.02.34-1.02.91s.37.91.98.91c.19 0 .32-.03.48-.09v-1.67.01zm0 1.95c-.08.05-.29.1-.48.1-.76 0-1.3-.4-1.3-1.2 0-.75.52-1.21 1.34-1.21.24 0 .56.06.76.15v2.26c0 .71-.53.99-1.07.99-.28 0-.55-.06-.72-.14v-.3c.2.1.47.18.72.18.38 0 .75-.19.75-.78v-.05z"/><path fill="#4a4f54" d="M28.93 14.36l-.15-.48-.08.48h-.11l.1-.61h.14l.15.49.15-.49h.14l.1.61h-.11l-.08-.48-.14.48h-.11zm-.57 0h-.11v-.52h-.2v-.09h.5v.09h-.19v.52z"/></svg>