<svg xmlns="http://www.w3.org/2000/svg" role="img" viewBox="0 0 38 24" width="38" height="24" aria-labelledby="pi-przelewytwofourpaynlversion"><title id="pi-przelewytwofourpaynlversion">Przelewy24 (PAY. version)</title><path d="M35 0H3C1.3 0 0 1.3 0 3v18c0 1.7 1.4 3 3 3h32c1.7 0 3-1.3 3-3V3c0-1.7-1.4-3-3-3z" fill="#000" fill-rule="nonzero" opacity=".07" vector-effect="non-scaling-stroke"/><path d="M35.138 1c1.1 0 2 .9 2 2v18c0 1.1-.9 2-2 2h-32c-1.1 0-2-.9-2-2V3c0-1.1.9-2 2-2h32" fill="#fff" fill-rule="nonzero" vector-effect="non-scaling-stroke"/><path d="M12.89 8.13a12.212 12.212 0 012.292-1.035l-.144-.84a16.264 16.264 0 00-2.954 1.258l.805.617h0zM21.997 7.679l2.834-1.537a15.455 15.455 0 00-4.543-.646h-.018l-.652 1.3a7.97 7.97 0 012.38.883h0zM11.362 7.943a11.312 11.312 0 00-1.91 1.435h1.578a14.01 14.01 0 011.134-.808l-.802-.627h0zM19.35 5.508a16.968 16.968 0 00-3.688.575l.107.84a8.588 8.588 0 013.213-.24l.369-1.175zM26.359 6.735L22.67 8.1a5.02 5.02 0 01.52.424h5.462s-.618-.95-2.293-1.79h0z" fill="#a9abaa" stroke="null"/><path d="M15.296 11.406a1.128 1.128 0 00-.369-.231 3.024 3.024 0 00-.497-.137 5.832 5.832 0 00-.565-.06c-.137-.009-.223-.009-.223-.009h-3.239L9.17 18.44h1.157l.454-2.766 2.244.008s.874.034 1.49-.291c.618-.326.79-1.071.79-1.071s.068-.274.128-.617c.06-.368.128-.814.154-1.054.017-.102.026-.17.026-.17s.017-.078.017-.198c0-.163-.026-.411-.155-.651-.06-.077-.11-.154-.18-.223h0zm-.891 1.32c0 .017-.103.616-.24 1.327-.052.275-.257.42-.497.472-.394.085-.823.068-.823.068l-1.876-.008.411-2.485 1.697.009h.274c.18 0 .42.008.625.034.172.026.309.06.351.111.06.069.078.163.086.249.009.111-.008.214-.008.223z" fill="#D13239" stroke="null"/><path d="M16.75 13.58h1.165l.069-.454s.128-.823.402-.977c.086-.051.232-.094.403-.128.308-.052.694-.06 1.01-.052.49.017.669.026 1.166.077.497.06.368.532.368.532l-.094.71s-.043.318-.154.515c-.103.18-.377.3-.54.35-.385.13-1.705.463-1.705.463l-1.036.3s-.634.189-.994.574c-.36.394-.497.84-.548 1.08-.052.231-.326 1.85-.326 1.85h5.594l.189-1.114-4.42.009.076-.454s.052-.471.24-.625c.06-.052.086-.112.446-.24.214-.077.934-.266.934-.266l1.67-.454s.908-.231 1.268-.737c.36-.497.497-1.447.497-1.447s.094-.926.026-1.217c-.078-.291-.352-.634-.677-.788-.334-.146-.677-.24-1.688-.223-1.002.017-1.508.06-2.013.249-.514.188-.805.53-.994 1.01-.214.472-.334 1.457-.334 1.457h0zM27.91 15.542l.79-4.695H27.31l-4.326 4.643-.197 1.174h3.778l-.274 1.653h1.165l.274-1.653h1.07l.19-1.122h-1.08zm-1.147 0H24.32l2.973-3.17-.531 3.17z" fill="#b3b2b1" stroke="null"/><path d="M-53.722-7.44h.569l.176-.052.176.052h.569l-.46.033.175.053-.46-.033-.46.033.175-.053-.46-.033zM-29.534 24.342h.569l.176-.54.175.54h.57l-.46.334.175.54-.46-.333-.46.334.175-.54-.46-.335zM-19.502 19.807h.57l.175-.54.176.54h.569l-.46.334.175.54-.46-.334-.46.335.175-.541-.46-.334zM-28.71 31.626h.57l.175-.54.176.54h.57l-.461.334.176.54-.46-.334-.461.335.176-.541-.46-.334zM-34.344 16.096h.569l.176-.54.175.54h.57l-.46.334.175.541-.46-.334-.46.334.175-.54-.46-.335z" fill="#fff"/></svg>
