<svg width="38" height="24" viewBox="0 0 38 24" aria-labelledby="pi-pse" role="img" fill="none" xmlns="http://www.w3.org/2000/svg"><title id="pi-pse">Pagos Electrónicos Seguros (PSE)</title><g clip-path="url(#pi-clip0_15_22)"><path opacity=".07" d="M35 0H3C1.3 0 0 1.3 0 3v18c0 1.7 1.4 3 3 3h32c1.7 0 3-1.3 3-3V3c0-1.7-1.4-3-3-3z" fill="#000"/><path d="M35 1c1.1 0 2 .9 2 2v18c0 1.1-.9 2-2 2H3c-1.1 0-2-.9-2-2V3c0-1.1.9-2 2-2h32z" fill="#fff"/><path d="M26.31 14.636h-3.084a.18.18 0 01-.124-.05.168.168 0 01-.038-.188.17.17 0 01.094-.094.183.183 0 01.068-.014h3.069c.117-.023.927-.225.963-1.164.037-.93-.504-1.024-.592-1.033h-1.98c-.794-.13-.96-.835-.936-1.21-.005-.974.828-1.41 1.27-1.504a.196.196 0 01.037-.004h2.778a.18.18 0 01.124.051.169.169 0 01.039.187.171.171 0 01-.095.094.183.183 0 01-.068.014h-2.756c-.135.033-.985.283-.978 1.167v.012c-.002.03-.039.727.63.847h1.953c.01 0 .977.073.927 1.392a1.5 1.5 0 01-.359.966c-.23.273-.552.46-.909.53l-.032.001zm5.814.02h-2.847c-.006 0-.012 0-.019-.003-.374-.038-1.089-.297-1.104-.988-.017-.735.483-2.97.504-3.064.002-.009.003-.016.007-.023.017-.047.435-1.133 1.362-1.133h2.048a.15.15 0 01.049.008c.037.01.876.257.876.971 0 .6-.177 1.614-.187 1.657a.168.168 0 01-.058.1.178.178 0 01-.111.042l-3.962.033c-.1.556-.183 1.113-.177 1.4.013.537.695.642.784.653h2.837a.18.18 0 01.123.052.168.168 0 010 .243.182.182 0 01-.125.051zm-3.127-3.969c-.02.089-.137.619-.253 1.222l3.746-.032c.05-.3.157-1.013.157-1.454 0-.405-.492-.596-.602-.632h-2.019c-.647 0-.989.797-1.03.896zm-11.113 6.237l-.032-.003a.178.178 0 01-.113-.072.167.167 0 01-.027-.128l.558-3.046c.14-.762.282-1.523.388-2.095.055-.285.098-.524.131-.69a3.32 3.32 0 01.063-.289h-.003c.197-.534.814-1.106 1.268-1.177.67.002 1.339 0 2.008-.003.17-.004 1.078.335.971 1.045 0 .005 0 .013-.002.018l-.488 2.944a.08.08 0 01-.004.018c-.012.038-.268.907-1.122 1.16a.158.158 0 01-.045.008l-1.8.05h-.02c-.029-.003-.598-.064-1.055-.633-.195 1.051-.389 2.105-.506 2.75a.164.164 0 01-.058.102.175.175 0 01-.112.04zm.769-3.387c.355.67.905.77.987.781l1.763-.05c.614-.194.836-.83.86-.908l.486-2.922c.05-.326-.456-.675-.663-.672l-.95.002h-.68c-.128 0-.22 0-.287-.005-.296.05-.824.515-.987.949-.18.94-.357 1.883-.53 2.825z" fill="#0660AA"/><path d="M15.518 8.691a.463.463 0 01-.141.34.493.493 0 01-.8-.157.463.463 0 01-.036-.183.47.47 0 01.141-.339.503.503 0 01.348-.144c.27 0 .488.216.488.483zm-1.595-1.157a.507.507 0 00.347-.143.476.476 0 00-.159-.783.507.507 0 00-.188-.038.507.507 0 00-.348.143.475.475 0 00-.14.34c0 .265.218.48.488.48zm-.624 1.157a.463.463 0 01-.14.34.493.493 0 01-.837-.34.47.47 0 01.141-.34.503.503 0 01.348-.143c.131.002.256.054.347.144a.47.47 0 01.141.34zm1.673 7.052a.506.506 0 00.348-.143.477.477 0 00-.16-.784.508.508 0 00-.188-.038.509.509 0 00-.348.143.475.475 0 00-.14.34c0 .266.218.482.488.482zm-1.052-1.541a.508.508 0 00.347-.143.476.476 0 00-.159-.783.507.507 0 00-.188-.038.507.507 0 00-.348.144.475.475 0 00-.14.339c0 .265.218.481.488.481zm-2.158-.082a.403.403 0 00.375-.552.393.393 0 00-.219-.215.415.415 0 00-.443.087.388.388 0 00-.116.28c0 .22.18.4.403.4zm1.484 1.14a.389.389 0 01-.117.28.416.416 0 01-.287.12.415.415 0 01-.287-.12.39.39 0 01-.117-.28c0-.22.18-.399.404-.399.223 0 .404.179.404.4zm-1.511 2.088a.402.402 0 00.375-.55.395.395 0 00-.22-.216.42.42 0 00-.155-.031.42.42 0 00-.287.118.395.395 0 00-.117.28c0 .22.18.4.404.4zm-1.047-1.779a.324.324 0 00.223-.091.306.306 0 00-.102-.502.326.326 0 00-.121-.025.322.322 0 00-.223.092.3.3 0 00-.09.217c0 .171.14.31.313.31zm-3.85-3.232a.327.327 0 00.222-.092.306.306 0 000-.435.321.321 0 00-.222-.091.325.325 0 00-.223.091.305.305 0 00-.09.217c0 .172.14.31.313.31zm.56-1.648a.322.322 0 00.223-.092.301.301 0 00.067-.334.306.306 0 00-.17-.167.325.325 0 00-.12-.025.321.321 0 00-.223.092.3.3 0 00-.09.217c0 .172.141.309.314.309zm1.375-1.998a.31.31 0 01-.434.285.317.317 0 01-.17-.167.31.31 0 01.411-.402.315.315 0 01.17.167.296.296 0 01.023.117zM9.85 7.088a.31.31 0 01-.434.286.317.317 0 01-.17-.168.31.31 0 01.29-.426.31.31 0 01.314.308zm-.283 10.17a.321.321 0 00.222-.092.3.3 0 00.09-.217.301.301 0 00-.09-.217.322.322 0 00-.222-.092.322.322 0 00-.222.092.301.301 0 00-.09.217c0 .172.14.309.312.309zM8.49 15.569a.321.321 0 00.222-.092.3.3 0 00.09-.217.301.301 0 00-.09-.217.322.322 0 00-.222-.091.322.322 0 00-.223.091.301.301 0 00-.09.217c0 .171.14.31.313.31zm-1.107-1.54a.328.328 0 00.223-.091.305.305 0 00-.102-.503.325.325 0 00-.121-.024.321.321 0 00-.222.092.301.301 0 00-.09.217c0 .171.14.31.312.31zm-.591 1.391a.166.166 0 00.115-.047.156.156 0 00.046-.113.153.153 0 00-.047-.111.163.163 0 00-.264.05.16.16 0 00.15.22zm-1.008-1.54a.168.168 0 00.115-.048.158.158 0 00-.054-.259.166.166 0 00-.124 0 .164.164 0 00-.087.086.16.16 0 00.15.22zm-.46-1.882a.154.154 0 01-.047.113.163.163 0 01-.265-.052.161.161 0 01.15-.22c.088 0 .162.073.162.16zm.413-1.456a.167.167 0 00.116-.047.157.157 0 00-.052-.259.166.166 0 00-.125 0 .161.161 0 00-.087.086.16.16 0 00.149.22zM6.83 8.866a.167.167 0 00.115-.048.157.157 0 00.035-.172.157.157 0 00-.087-.086.167.167 0 00-.063-.013.167.167 0 00-.115.047.157.157 0 00-.046.113.16.16 0 00.161.159zm2.723 5.254a.403.403 0 00.374-.552.394.394 0 00-.218-.215.418.418 0 00-.156-.031.418.418 0 00-.287.118.394.394 0 00-.117.28c0 .22.18.4.404.4zM8.414 12.43a.401.401 0 00.375-.55.392.392 0 00-.219-.216.42.42 0 00-.156-.031.42.42 0 00-.287.118.392.392 0 00-.117.28c0 .221.181.399.404.399zm1.526-2.05a.389.389 0 01-.117.28.416.416 0 01-.287.117.416.416 0 01-.287-.118.389.389 0 01-.117-.279c0-.221.181-.4.404-.4.224 0 .404.18.404.4zm.718-1.291a.401.401 0 00.375-.55.393.393 0 00-.22-.216.42.42 0 00-.155-.032.42.42 0 00-.288.119.394.394 0 00-.116.28c0 .22.18.399.404.399zm1.062-1.631a.4.4 0 00.374-.55.393.393 0 00-.218-.217.42.42 0 00-.156-.032.42.42 0 00-.288.119.393.393 0 00-.116.28c0 .22.18.4.404.4zm-1.09 5.055a.506.506 0 00.347-.143.476.476 0 00-.159-.783.507.507 0 00-.188-.037.509.509 0 00-.348.143.475.475 0 00-.14.339c0 .265.218.481.488.481zm1.09-1.652a.509.509 0 00.348-.143.475.475 0 00-.16-.782.508.508 0 00-.188-.038.507.507 0 00-.347.143.476.476 0 00-.141.338c0 .266.218.482.488.482zm2.2 6.57a.506.506 0 00.347-.144.475.475 0 00-.159-.782.507.507 0 00-.188-.038.508.508 0 00-.347.143.477.477 0 00-.141.338c0 .267.218.482.488.482z" fill="#FDB718"/><path d="M18.11 11.862h-7.234v.296h7.234v-.296zm-3.754-1.63H12.08v.297h2.275v-.296z" fill="#FDB718"/><path d="M15.622 12.141l-1.54-1.908h.429l1.54 1.908h-.429zm.156 1.431h-1.427v.297h1.427v-.296z" fill="#FDB718"/><path d="M15.184 13.869l1.53-1.729h.44l-1.527 1.729h-.443z" fill="#FDB718"/></g><defs><clipPath id="pi-clip0_15_22"><path fill="#fff" d="M0 0h38v24H0z"/></clipPath></defs></svg>