<svg viewBox="0 0 38 24" xmlns="http://www.w3.org/2000/svg" width="38" height="24" role="img" aria-labelledby="pi-publicbank"><title id="pi-publicbank">Public Bank</title><path opacity=".07" d="M35 0H3C1.3 0 0 1.3 0 3v18c0 1.7 1.4 3 3 3h32c1.7 0 3-1.3 3-3V3c0-1.7-1.4-3-3-3z"/><path fill="#FFF" d="M35 1c1.1 0 2 .9 2 2v18c0 1.1-.9 2-2 2H3c-1.1 0-2-.9-2-2V3c0-1.1.9-2 2-2h32"/><path fill="#E32728" d="M26.993 6.535L22.383 2h-6.691l-4.684 4.61v4.758l.744.669-.744.669v4.758L15.617 22h6.84l4.535-4.461v-4.907l-.669-.595.669-.595V6.535h.001zm-7.956 14.052l-5.502-5.502.595-.595 1.487 1.413h6.84l1.487-1.487.669.669-5.576 5.502zm-2.453-8.55l2.453-2.454 2.528 2.454-2.528 2.453-2.453-2.453zm7.36-2.453l-1.561-1.487h-6.691L14.13 9.658l-.595-.669 5.502-5.502 5.576 5.502-.669.595z"/></svg>