<svg xmlns="http://www.w3.org/2000/svg" role="img" viewBox="0 0 38 24" width="38" height="24" aria-labelledby="pi-publicbank_pbe"><title id="pi-publicbank_pbe">Public Bank PBe</title><g clip-path="url(#pi-publicbank_pbe-a)"><path fill="#000" d="M35 0H3C1.3 0 0 1.3 0 3v18c0 1.7 1.4 3 3 3h32c1.7 0 3-1.3 3-3V3c0-1.7-1.4-3-3-3Z" opacity=".07"/><path fill="#fff" d="M35 1c1.1 0 2 .9 2 2v18c0 1.1-.9 2-2 2H3c-1.1 0-2-.9-2-2V3c0-1.1.9-2 2-2h32Z"/><path fill="#E42126" fill-rule="evenodd" d="M25.788 7.628 22.1 4h-5.353L13 7.688v3.806l.595.536-.595.535v3.807L16.688 20h5.472l3.628-3.569v-3.925l-.535-.476.535-.476V7.628ZM19.424 18.87l-4.402-4.402.476-.476 1.19 1.13h5.472l1.19-1.189.535.535-4.461 4.402Zm-1.963-6.84 1.963-1.963 2.022 1.963-2.022 1.963-1.963-1.963Zm5.888-1.963L22.1 8.877h-5.353l-1.249 1.25-.476-.536 4.402-4.401 4.46 4.401-.535.476Z" clip-rule="evenodd"/></g><defs><clipPath id="pi-publicbank_pbe-a"><path fill="#fff" d="M0 0h38v24H0z"/></clipPath></defs></svg>
