<svg xmlns="http://www.w3.org/2000/svg" viewBox="0 0 38 24" width="38" height="24" role="img" aria-labelledby="pi-purdeygiftcard"><title id="pi-purdeygiftcard">Purdey Giftcard</title><path opacity=".07" d="M35 0H3C1.3 0 0 1.3 0 3v18c0 1.7 1.4 3 3 3h32c1.7 0 3-1.3 3-3V3c0-1.7-1.4-3-3-3z"/><path d="M35 1c1.1 0 2 .9 2 2v18c0 1.1-.9 2-2 2H3c-1.1 0-2-.9-2-2V3c0-1.1.9-2 2-2h32z" fill="#fff"/><path d="M6.36 9.345v1.26c0 .177.018.307.058.387s.102.133.196.16.245.049.454.058v.138a19.644 19.644 0 00-1.028-.023l-.895.023v-.138c.169-.01.29-.027.37-.058a.244.244 0 00.155-.16c.027-.08.04-.21.04-.388V7.133c0-.178-.013-.307-.04-.383a.244.244 0 00-.156-.16 1.414 1.414 0 00-.37-.058v-.143l.855.023.757-.01.303-.008c.547 0 .966.125 1.255.374s.436.583.436 1.006c0 .258-.058.503-.173.739s-.308.431-.584.591-.636.24-1.09.24h-.539zm.191-2.764a.27.27 0 00-.15.173c-.028.085-.041.21-.041.379v2.074h.467c.459 0 .775-.12.948-.37.174-.244.263-.574.263-.983 0-.454-.089-.788-.272-1.002s-.476-.32-.894-.32a.842.842 0 00-.325.049zm6.979-.049a1.068 1.068 0 00-.365.071.309.309 0 00-.16.196c-.027.089-.04.227-.04.4v2.11c0 .339-.022.623-.067.864a1.88 1.88 0 01-.222.618c-.116.2-.29.36-.516.477a1.64 1.64 0 01-.766.173c-.512 0-.908-.124-1.175-.378a1.45 1.45 0 01-.414-.65c-.071-.245-.107-.605-.107-1.086V7.128c0-.178-.013-.307-.04-.382a.244.244 0 00-.156-.16 1.414 1.414 0 00-.37-.059v-.142l.896.022.89-.022v.142c-.17.01-.29.027-.37.058a.244.244 0 00-.155.16 1.32 1.32 0 00-.04.383v2.32a4.87 4.87 0 00.075.93 1.09 1.09 0 00.32.596c.16.151.397.222.713.222.494 0 .84-.16 1.041-.476s.303-.765.303-1.335V7.2c0-.254-.045-.423-.138-.517s-.258-.147-.503-.156v-.142l.712.022.65-.022v.142zM18.342 11a1.22 1.22 0 01-.32.343.76.76 0 01-.428.107.68.68 0 01-.472-.169c-.124-.111-.218-.307-.276-.588l-.156-.698a4.938 4.938 0 00-.155-.561.742.742 0 00-.223-.316c-.098-.08-.236-.12-.414-.12h-.663v1.61c0 .179.013.308.04.388s.08.134.156.16.2.05.37.058v.138a14.85 14.85 0 00-.89-.022l-.895.022v-.138c.169-.009.289-.027.369-.058a.244.244 0 00.156-.16c.026-.08.04-.21.04-.387V7.137c0-.178-.014-.307-.04-.383a.244.244 0 00-.156-.16 1.414 1.414 0 00-.37-.058v-.142l.855.022.757-.009.302-.009c.543 0 .957.112 1.251.339s.436.52.436.876a1.27 1.27 0 01-.565 1.05c-.205.148-.467.246-.797.3l.085.012c.307.054.534.147.672.28s.245.352.307.646l.174.712c.044.214.098.365.147.45s.12.125.209.125c.08 0 .147-.023.2-.063s.116-.111.187-.205l.107.076zm-2.92-4.42a.27.27 0 00-.151.174 1.33 1.33 0 00-.04.379v1.722h.467c.463 0 .779-.102.952-.307s.259-.49.259-.854c0-.383-.09-.673-.272-.868s-.48-.294-.89-.294a.842.842 0 00-.325.049zm6.894.433c.41.414.615 1.014.615 1.802 0 .508-.103.953-.303 1.335a2.1 2.1 0 01-.872.886c-.382.209-.833.312-1.362.312l-.405-.01a18.998 18.998 0 00-.575-.013l-.867.023v-.138c.169-.01.289-.027.369-.058a.244.244 0 00.156-.16c.026-.08.04-.21.04-.388V7.133c0-.178-.014-.307-.04-.383a.244.244 0 00-.156-.16 1.414 1.414 0 00-.37-.058v-.143a8.36 8.36 0 00.681.023l.597-.01.636-.013c.828 0 1.447.205 1.856.62zm-2.354-.446a.27.27 0 00-.151.174c-.027.085-.04.21-.04.378v3.503c0 .17.013.294.04.379a.27.27 0 00.15.173.877.877 0 00.335.05c.494 0 .885-.09 1.17-.272s.485-.441.597-.788.173-.788.173-1.322-.062-.975-.187-1.313a1.423 1.423 0 00-.614-.761c-.285-.17-.663-.254-1.144-.254a.842.842 0 00-.325.049zm7.224 4.781l-1.603-.023-2.03.023v-.138c.17-.01.29-.027.37-.058a.244.244 0 00.156-.16c.027-.08.04-.21.04-.388V7.133c0-.178-.013-.307-.04-.383a.244.244 0 00-.156-.16 1.414 1.414 0 00-.37-.058v-.143l2.03.023 1.465-.023a8.336 8.336 0 00-.05.828c0 .183.01.325.023.437h-.16a3.366 3.366 0 00-.125-.677.57.57 0 00-.258-.32c-.12-.067-.307-.103-.552-.103h-.583c-.17 0-.29.013-.37.04a.247.247 0 00-.155.156 1.32 1.32 0 00-.04.383v1.651h.463c.164 0 .289-.04.378-.116a.569.569 0 00.178-.271A2.74 2.74 0 0025.873 8l.022-.138h.16a9.632 9.632 0 00-.022.658v.339l.04.992h-.16l-.04-.338c-.023-.191-.09-.338-.192-.436s-.249-.147-.436-.147h-.463v1.682c0 .178.014.307.04.388s.08.133.156.155.2.04.37.04h.511c.29 0 .512-.04.663-.115a.7.7 0 00.334-.37c.072-.169.12-.423.156-.752h.16a4.874 4.874 0 00-.022.503 9.71 9.71 0 00.049.895zm4.451-4.958v.142a.575.575 0 00-.272.178 2.265 2.265 0 00-.29.445l-1.099 2.176v1.273c0 .178.014.308.04.388s.08.133.156.16.2.049.37.058v.138a14.85 14.85 0 00-.89-.023l-.895.023v-.138c.169-.01.29-.027.37-.058a.244.244 0 00.155-.16c.027-.08.04-.21.04-.388v-1.05l-1.42-2.626c-.084-.156-.156-.258-.222-.312a.289.289 0 00-.187-.08V6.39l.614.023.98-.023v.147c-.326 0-.49.09-.49.267 0 .072.022.152.07.245l1.162 2.235.895-1.78c.125-.25.187-.45.187-.602a.3.3 0 00-.156-.28c-.102-.058-.258-.085-.463-.09V6.39l.806.023.525-.023zm-26.47 6.177c.178.076.37.192.583.339.063.044.107.07.138.07.09 0 .147-.142.174-.427h.16l-.027 1.612h-.16a4.726 4.726 0 00-.133-.615 1.23 1.23 0 00-.219-.422 1.383 1.383 0 00-.53-.4 1.645 1.645 0 00-.68-.148c-.307 0-.579.103-.815.303s-.414.485-.538.859-.187.805-.187 1.3c0 .84.133 1.455.4 1.847s.69.583 1.264.583c.28 0 .521-.072.73-.218a.476.476 0 00.165-.165.51.51 0 00.04-.223v-.672c0-.196-.018-.338-.058-.427a.318.318 0 00-.196-.182 1.798 1.798 0 00-.454-.063v-.138l.989.022.73-.022v.138a.549.549 0 00-.236.058c-.05.027-.08.08-.098.16a2.05 2.05 0 00-.023.388v1.388h-.142a.824.824 0 00-.058-.271c-.031-.085-.076-.13-.133-.13a.2.2 0 00-.085.023c-.027.013-.076.049-.147.098a1.932 1.932 0 01-.507.285c-.174.062-.37.093-.583.093-.481 0-.895-.098-1.238-.298a1.967 1.967 0 01-.787-.86c-.183-.373-.272-.818-.272-1.334s.098-1.002.29-1.402c.19-.405.462-.713.8-.93a2.11 2.11 0 011.162-.326c.276 0 .503.04.681.116zm3.69.12c-.17.01-.29.027-.37.058a.244.244 0 00-.155.16 1.32 1.32 0 00-.04.383v3.472c0 .178.013.307.04.387a.24.24 0 00.156.16c.075.027.2.05.369.058v.138a14.85 14.85 0 00-.89-.022l-.895.022v-.138c.17-.009.29-.026.37-.058a.244.244 0 00.155-.16c.027-.08.04-.209.04-.387v-3.472c0-.178-.013-.307-.04-.382a.244.244 0 00-.155-.16 1.414 1.414 0 00-.37-.059v-.142l.895.022.89-.022zm4.033.757l.022.574h-.16a4.356 4.356 0 00-.139-.8.69.69 0 00-.293-.388c-.138-.08-.356-.125-.646-.125h-.44c-.17 0-.29.014-.37.04a.247.247 0 00-.155.156 1.32 1.32 0 00-.04.383v1.722h.511c.165 0 .29-.04.379-.115a.569.569 0 00.178-.272 2.74 2.74 0 00.075-.396l.023-.142h.16a9.63 9.63 0 00-.022.658v.339l.04.992h-.16l-.04-.338c-.023-.192-.09-.338-.192-.436s-.25-.147-.436-.147h-.512v1.611c0 .178.018.307.058.387s.102.134.196.16.244.05.454.058v.138a19.644 19.644 0 00-1.029-.022l-.894.022v-.138c.169-.009.29-.026.37-.058a.244.244 0 00.155-.16c.027-.08.04-.209.04-.387v-3.472c0-.178-.013-.307-.04-.382a.244.244 0 00-.156-.16 1.414 1.414 0 00-.37-.059v-.142a73.78 73.78 0 002.03.022l1.465-.022a9.799 9.799 0 00-.05.895zm4.34 0l.021.574h-.16c-.036-.36-.084-.627-.142-.8a.69.69 0 00-.294-.388c-.143-.08-.356-.125-.645-.125h-.379v3.984c0 .196.018.338.058.427a.307.307 0 00.196.183 1.86 1.86 0 00.454.062v.138a19.644 19.644 0 00-1.028-.022l-1.037.022v-.138a1.82 1.82 0 00.454-.062.307.307 0 00.195-.183 1.22 1.22 0 00.058-.427v-3.984h-.378c-.29 0-.503.04-.645.125a.662.662 0 00-.294.387c-.058.174-.102.44-.138.801h-.16l.022-.574a9.71 9.71 0 00-.049-.895 64.06 64.06 0 001.976.023l1.967-.023a9.798 9.798 0 00-.048.895zm3.564-.872c.196.08.387.191.574.338.054.04.094.062.134.062.093 0 .156-.138.182-.418h.16l-.026 1.611h-.16a6.587 6.587 0 00-.138-.654 1.161 1.161 0 00-.21-.383 1.278 1.278 0 00-.534-.41 1.818 1.818 0 00-.703-.137c-.302 0-.57.102-.797.302s-.4.485-.53.86c-.124.369-.186.805-.186 1.303s.067.944.205 1.309.325.64.565.828a1.27 1.27 0 00.814.285c.232 0 .459-.045.681-.134a1.12 1.12 0 00.517-.4c.093-.13.16-.272.204-.419a4.82 4.82 0 00.12-.685h.16l.028 1.682h-.16a1.438 1.438 0 00-.059-.32c-.022-.067-.062-.094-.106-.094a.297.297 0 00-.147.058c-.21.151-.41.263-.601.338a1.888 1.888 0 01-.694.116 2.22 2.22 0 01-1.167-.303c-.333-.2-.592-.49-.779-.872-.182-.378-.275-.832-.275-1.362s.093-.97.284-1.366a2.21 2.21 0 01.793-.926c.338-.223.72-.33 1.152-.33.28 0 .517.04.713.12zm5.96 4.793v.138a10.774 10.774 0 00-.748-.022l-.894.022v-.138c.178-.009.302-.03.382-.066s.116-.098.116-.192a.911.911 0 00-.085-.33l-.427-1.148h-1.696l-.284.744c-.094.253-.143.445-.143.574 0 .147.05.25.151.316s.254.102.459.107v.138a16.078 16.078 0 00-.806-.022l-.525.022v-.138c.232-.058.418-.258.552-.61l1.647-4.242h.111l1.71 4.407c.11.289.27.44.484.45zm-1.718-1.873l-.783-2.092-.797 2.092h1.584zm6.155 1.664c-.106.16-.213.272-.32.343a.76.76 0 01-.427.107.68.68 0 01-.472-.17c-.125-.11-.218-.307-.276-.587l-.156-.699a4.938 4.938 0 00-.156-.56.742.742 0 00-.222-.317c-.098-.08-.236-.12-.414-.12h-.663v1.611c0 .178.013.308.04.388s.08.133.156.16.2.049.369.058v.138a14.85 14.85 0 00-.89-.022l-.895.022v-.138c.17-.01.29-.027.37-.058a.244.244 0 00.155-.16c.027-.08.04-.21.04-.388v-3.471c0-.178-.013-.307-.04-.383a.244.244 0 00-.155-.16 1.413 1.413 0 00-.37-.058v-.143l.855.023.756-.01.303-.008c.543 0 .957.111 1.25.338s.437.52.437.877a1.27 1.27 0 01-.565 1.05c-.205.147-.468.245-.797.299l.085.013c.307.053.534.147.672.28s.244.352.307.646l.173.712c.045.214.098.365.147.45s.12.124.21.124c.08 0 .146-.022.2-.062s.115-.112.187-.205l.106.076zm-2.915-4.42a.27.27 0 00-.151.174c-.027.085-.04.21-.04.378v1.723h.467c.463 0 .779-.103.953-.307s.258-.49.258-.855c0-.383-.09-.672-.272-.868s-.48-.294-.89-.294a.842.842 0 00-.325.05zm6.894.432c.41.414.615 1.015.615 1.803 0 .507-.103.952-.303 1.335s-.49.677-.872.886-.833.311-1.362.311l-.405-.009a18.998 18.998 0 00-.574-.013l-.868.022v-.138c.169-.009.289-.026.37-.058a.244.244 0 00.155-.16c.027-.08.04-.209.04-.387v-3.472c0-.178-.013-.307-.04-.382a.244.244 0 00-.156-.16 1.414 1.414 0 00-.37-.059v-.142l.682.022.596-.009.637-.013c.827 0 1.446.205 1.856.619zm-2.354-.445a.27.27 0 00-.151.174c-.027.084-.04.209-.04.378v3.503c0 .169.013.294.04.378a.27.27 0 00.151.174.877.877 0 00.334.049c.494 0 .886-.09 1.17-.272s.486-.44.597-.788.173-.787.173-1.322-.062-.974-.187-1.313a1.423 1.423 0 00-.614-.76c-.285-.17-.663-.254-1.144-.254a.842.842 0 00-.325.049z" fill="#231f20"/></svg>