<svg viewBox="0 0 38 24" xmlns="http://www.w3.org/2000/svg" role="img" width="38" height="24" aria-labelledby="pi-qasitli"><title id="pi-qasitli">Qasitli</title><path opacity=".07" d="M35 0H3C1.3 0 0 1.3 0 3v18c0 1.7 1.4 3 3 3h32c1.7 0 3-1.3 3-3V3c0-1.7-1.4-3-3-3z"/><path fill="#fff" d="M35 1c1.1 0 2 .9 2 2v18c0 1.1-.9 2-2 2H3c-1.1 0-2-.9-2-2V3c0-1.1.9-2 2-2h32"/><g transform="matrix(.01613 0 0 .01531 .425 3.922)"><ellipse rx="484.485" ry="474.524" transform="matrix(.99252 0 0 1.0105 585.107 527.5)" fill="#e3302d"/><ellipse rx="314.236" ry="313.33" transform="matrix(1.01153 0 0 1.03035 590.54 527.5)" fill="#fff"/><ellipse rx="271.674" ry="266.24" transform="matrix(.8628 0 0 .87953 589.937 527.5)" fill="#e3302d"/><rect width="329.329" height="322.984" rx="0" ry="0" transform="translate(598.525 527.5)" fill="#e3302d"/><ellipse rx="41.772" ry="41.166" transform="matrix(1.10283 0 0 1.11311 855.345 615.36)" fill="#fff"/><ellipse rx="41.772" ry="41.166" transform="matrix(1.10283 0 0 1.11311 679.507 791.184)" fill="#fff"/><path d="M675.395 559.152l-56.733 56.207 232.482 235.474 61.05-59.65-236.8-232.031z" fill="#fff"/><ellipse rx="46.162" ry="43.364" transform="matrix(1.01344 0 0 1.06566 1690.865 506.282)" fill="#e3302d"/><ellipse rx="46.162" ry="43.364" transform="matrix(1.01344 0 0 1.0729 2151.534 512.626)" fill="#e3302d"/><path d="M1319.36 791.184v45.822h34.18V587.743h-27.186l-2.369 45.945-79.424-45.945q-67.22-16.992-126.003 50.129s-47.42 105.263 28.224 173.148c0 0 25.214 21.91 86.31 25.986 0 0 52.088-8.441 86.268-45.822z" fill="#8b8e8e"/><ellipse rx="85.826" ry="91.645" transform="matrix(1.09321 0 0 1.03997 1229.456 710.667)" fill="#fff"/><path d="M1591.6 633.688q-51.295-26.768-94.528-18.329s-35.906.403-44.699 37.018c0 0-7.327 26.403 28.578 31.509 0 0 118.709 25.647 109.916 33.707.732 0 16.853 10.992 22.715 36.639 0 0 5.862 40.188-35.173 68.147 0 0-48.362 24.55-115.777 6.595 0 0-46.897-14.49-49.828-23l14.655-26.095q25.647 21.05 69.613 26.096s48.363 3.841 76.208-14.791c0 0 16.854-24.65 0-45.823 0 0-12.457-12.048-83.536-23.371 0 0-85-13.772-68.147-74.01 0 0-2.931-34.44 41.035-52.759 0 0 24.181-14.308 76.208-10.893 0 0 45.432 8.34 67.415 19.686l-14.656 29.674z" fill="#8b8e8e"/><rect width="37.961" height="247.679" rx="0" ry="0" transform="translate(1675.216 589.327)" fill="#8b8e8e"/><rect width="37.961" height="247.679" rx="0" ry="0" transform="translate(2128.156 589.327)" fill="#8b8e8e"/><path d="M1985.804 486.66v288.157q5.176 59.816 77.647 59.816s25.882.936 31.058-5.659l-.862-23q-20.706 6.139-46.589 0s-33.647-8.177-27.607-51.742V486.66h-33.647zm-188.528 40.84v259.16q5.176 53.797 77.647 53.797s25.882.843 31.058-5.089l-.862-20.685q-20.706 5.52-46.588 0s-33.647-7.355-27.608-46.536V527.5h-33.647z" fill="#8b8e8e"/><rect width="72.763" height="30.707" rx="0" ry="0" transform="matrix(1 0 0 1.04764 1829.218 583.19)" fill="#8b8e8e"/></g></svg>