<svg xmlns="http://www.w3.org/2000/svg" role="img" viewBox="0 0 38 24" width="38" height="24" aria-labelledby="pi-qliro"><title id="pi-qliro">Qliro</title><path d="M3,0h32c1.66,0,3,1.34,3,3v18c0,1.66-1.34,3-3,3H3c-1.66,0-3-1.34-3-3V3C0,1.34,1.34,0,3,0Z" style="fill:#000; isolation:isolate; opacity:.07; stroke-width:0px;"/><path d="M1,3c0-1.1.9-2,2-2h32c1.1,0,2,.9,2,2v18c0,1.1-.9,2-2,2H3c-1.1,0-2-.9-2-2V3Z" style="fill:#000; stroke-width:0px;"/><path d="M10.52,15.04h-.08l.64,1.36h-1.62l-.63-1.36h-.39c-.47,0-.84-.13-1.1-.38-.25-.25-.38-.62-.38-1.1v-4.13c0-.47.13-.84.38-1.1s.62-.38,1.1-.38h2.09c.47,0,.84.13,1.1.38.25.25.38.62.38,1.1v4.13c0,.47-.13.84-.38,1.1-.25.25-.62.38-1.1.38ZM8.49,9.52v3.95c0,.17.08.25.25.25h1.47c.17,0,.25-.08.25-.25v-3.95c0-.17-.08-.25-.25-.25h-1.47c-.17,0-.25.08-.25.25ZM12.88,15v-7.01h1.54v5.67h2.68v1.33h-4.21ZM17.78,15v-7.01h1.54v7.01h-1.54ZM23.59,15l-.79-2.64h-.99v2.64h-1.54v-7.01h3.47c.47,0,.84.13,1.1.38.25.25.38.62.38,1.1v1.42c0,.74-.29,1.2-.88,1.4l.9,2.71h-1.66ZM23.43,9.3h-1.62v1.76h1.62c.17,0,.25-.08.25-.25v-1.26c0-.17-.08-.25-.25-.25ZM29.57,15.04h-2.09c-.47,0-.84-.13-1.1-.38s-.38-.62-.38-1.1v-4.13c0-.47.13-.84.38-1.1.25-.25.62-.38,1.1-.38h2.09c.47,0,.84.13,1.1.38.25.25.38.62.38,1.1v4.13c0,.47-.13.84-.38,1.1-.26.25-.62.38-1.1.38ZM27.54,9.52v3.95c0,.17.08.25.25.25h1.47c.17,0,.25-.08.25-.25v-3.95c0-.17-.09-.25-.25-.25h-1.47c-.17,0-.25.08-.25.25Z" style="fill:#00ffc2; stroke-width:0px;"/></svg>