<svg xmlns="http://www.w3.org/2000/svg" width="38" height="24" viewBox="0 0 38 24" fill="none" role="img" aria-labelledby="pi-qpay"><title id="pi-qpay">Qpay</title><g clip-path="url(#pi-qpay-clip)"><path d="M35 .5H3A2.5 2.5 0 00.5 3v18A2.5 2.5 0 003 23.5h32a2.5 2.5 0 002.5-2.5V3A2.5 2.5 0 0035 .5z" stroke="#000" stroke-opacity=".07"/><rect x="1" y="1" width="36" height="22" rx="2" fill="#FEFEFE"/><path d="M9.147 6.248h1.114l.52.069.545.114.521.16.569.23.544.275.427.275.308.229.26.206.521.504.213.253.308.412.26.413.238.435.19.458.165.481.118.505.072.504.023.32v.642l-.07.665-.12.55-.165.527-.119.252-.094-.023-.782-.298-.118-.023-.142.321-.143.23-.142.251-.094.046-.237-.16-.616-.39h-.095l-.19.252-.212.23-.095.045-.379-.343-.355-.344.023-.092.214-.229.236-.367.166-.298.948.367h.07l.119-.367.095-.32.07-.023.427.068.569.115.07.023.048-.32.024-.665-1.114-.023v.206l-.07.481-.048.092-1.018-.184v-.39l.023-.09v-.207l-.07-.527-.12-.39-.26-.527-.19-.252-.283-.32-.308-.253-.308-.183-.38-.183-.378-.115-.379-.069-.497-.023-.403.046-.403.092-.379.137-.378.207-.261.183-.284.252-.237.275-.213.32-.19.413-.118.413-.047.229v.756l.142.573.142.344.19.344.236.298.213.229.284.229.356.206.284.138.426.137.38.069H10l.521-.115.474-.183.284-.092.213.023.237.092.166.16.284.367.663.87.213.276.332.435.379.481.237.321.355.459.213.297.047.16-.047.047-.237-.023-.995-.367-.876-.344-.237-.091-.142.023-.308.114-.592.16-.473.092-.616.07h-.806l-.615-.07-.545-.114-.497-.138-.38-.137-.686-.321-.45-.275-.45-.32-.332-.299-.166-.137v-.046l-.07-.023-.166-.183-.308-.344-.38-.55-.283-.481-.237-.527-.213-.642-.143-.642-.047-.458v-.894l.071-.596.142-.596.237-.687.26-.55.261-.435.26-.367.19-.23.213-.228.166-.184.284-.275.26-.206.332-.252.45-.275.427-.23.355-.16.568-.206.545-.137.569-.092.236-.023z" fill="#042D5D"/><path d="M19.663 8.654h1.232l.473.069.38.115.45.206.26.183.237.206.237.298.213.436.118.412.024.183v.917l-.095.436-.118.32-.214.367-.213.252-.236.206-.261.184-.426.183-.38.115-.473.068-1.397.023v2.407l-.048.16-.213.046h-.947l-.26-.046-.048-.046v-7.54l.024-.091.118-.023 1.563-.046z" fill="#062E5E"/><path d="M26.224 10.67h.615l.45.092.356.138.26.16.237.207.213.32.142.367.048.298.023 2.773.071.344.095.206.142.16-.023.115-.143.252-.189.252-.166.138-.166-.023-.355-.115-.237-.16-.19-.184-.094-.114-.095.023-.236.206-.356.206-.355.138-.474.091h-.308l-.45-.068-.355-.138-.26-.183-.19-.184-.213-.32-.142-.367-.048-.23v-.435l.095-.435.119-.275.142-.23.26-.251.332-.207.308-.137.308-.092.284-.046.521-.022.616.022.26.023-.023-.573-.072-.229-.118-.16-.237-.138-.213-.046h-.379l-.45.07-.64.16-.378.114H24.4l-.166-.252-.142-.366-.024-.115v-.252l.119-.069.592-.206.568-.138.592-.091.285-.023z" fill="#042D5D"/><path d="M29.942 10.717h.403l.19.068.165.115.142.23.095.228.284 1.009.213.779.26.94.19.824.095.482.047-.023.213-.848.545-2.131.332-1.307.095-.275.165-.046.214-.022h.45l.402.068.166.07-.024.251-.19.665-.283 1.008-.19.665-.308 1.077-.284 1.008-.26.894-.214.619-.26.55-.19.32-.213.253-.26.252-.308.183-.284.114-.45.092-.308.023h-.332l-.592-.069-.403-.114-.07-.115.047-.412.118-.344.142-.183.45.091.379.046h.308l.308-.092.237-.137.213-.252.19-.367.141-.412-.047-.023-.284-.046-.26-.092-.19-.16-.142-.183-.166-.482-.26-.893-.356-1.192-.284-.94-.355-1.214-.071-.23v-.114l.19-.092.307-.091.142-.023z" fill="#052E5D"/><path d="M19.497 9.8h1.16l.332.069.285.137.19.207.165.32.118.436.024.298-.071.458-.142.367-.166.252-.166.137-.237.115-.331.069-.592.023h-.592l-.024-.16.024-2.705.023-.023zM26.01 13.925h.782l.284.023v1.008l-.213.184-.26.16-.285.115-.236.046h-.26l-.214-.07-.166-.137-.118-.229-.048-.206v-.207l.095-.297.213-.23.19-.114.237-.046z" fill="#FEFEFE"/><path d="M14.097 15.277l.143.046.639.412.118.07v.068h-.047l-.047.115-.427.504-.213.229-.095-.023-.236-.206-.143-.16-.118-.115-.19-.16.048-.092.213-.23.166-.206.19-.252z" fill="#072F5E"/></g><defs><clipPath id="pi-qpay-clip"><path fill="#fff" d="M0 0h38v24H0z"/></clipPath></defs></svg>