<svg xmlns="http://www.w3.org/2000/svg" role="img" viewBox="0 0 38 24" width="38" height="24" aria-labelledby="pi-qrpaymentslip"><title id="pi-qrpaymentslip">QR Paymentslip</title><path fill="#000" opacity=".07" d="M35 0H3C1.3 0 0 1.3 0 3v18c0 1.7 1.4 3 3 3h32c1.7 0 3-1.3 3-3V3c0-1.7-1.4-3-3-3z"/><path d="M35 23H3c-1.1 0-2-.9-2-2V3c0-1.1.9-2 2-2h32c1.1 0 2 .9 2 2v18c0 1.1-.9 2-2 2z" fill="#fff"/><path d="M14.5 1H35c1.1 0 2 .9 2 2v18c0 1.1-.9 2-2 2H14.5V1z" fill="#d3d3d3"/><g fill="#000"><path d="M7.3 9.7c-.3 0-.6.2-.9.2-.7 0-1.3-.3-1.8-.9-1.2-.1-2.2-1.1-2.2-2.3s1-2.3 2.3-2.3 2.4 1 2.4 2.3-.6 1.8-1.4 2.1c.2.2.4.2.7.2s.4 0 .7-.1v.8zM4.9 8c.7 0 1.3-.6 1.3-1.3s-.6-1.4-1.3-1.4-1.3.6-1.3 1.4S4.2 8 4.9 8zM9.4 7.3h-.5v1.6h-1V4.4h1.8c1.1 0 1.6.7 1.6 1.5S11 7 10.4 7.2l1 1.7h-1.2l-.9-1.6zm-.5-.9h.7c.5 0 .6-.3.6-.6s-.2-.5-.6-.5h-.8v1.1z"/></g><rect x="2.7" y="17" width="6.8" height="1.3" rx=".7" ry=".7" fill="#1d1d1b"/><rect x="2.7" y="19.5" width="4.7" height="1.5" rx=".7" ry=".7" fill="#1d1d1b"/><rect x="17" y="19.5" width="4.7" height="1.5" rx=".7" ry=".7" fill="#1d1d1b"/><rect x="29.4" y="4.4" width="3.7" height="1.5" rx=".7" ry=".7" fill="#1d1d1b"/><rect x="29.3" y="7.5" width="5.7" height="1.5" rx=".7" ry=".7" fill="#1d1d1b"/><rect x="29.3" y="10.7" width="4" height="1.5" rx=".7" ry=".7" fill="#1d1d1b"/><rect x="29.3" y="13.8" width="4" height="1.5" rx=".7" ry=".7" fill="#1d1d1b"/><path fill="#ea0000" d="M17 4.3h11v11H17z"/><path fill="#fff" d="M18.6 6h1.6v1.6h-1.6zM21.7 6h1.6v1.6h-1.6zM23.3 7.5h1.6v1.6h-1.6zM18.6 12.2h1.6v1.6h-1.6zM20.2 10.6h1.6v1.6h-1.6zM18.6 9h1.6v1.6h-1.6zM23.3 10.6h1.6v1.6h-1.6z"/><path fill="#fff" d="M24.9 9h1.6v1.6h-1.6zM24.9 12.2h1.6v1.6h-1.6zM24.9 6h1.6v1.6h-1.6zM21.7 12.2h1.6v1.6h-1.6zM20.2 7.5h1.6v1.6h-1.6z"/></svg>