<svg xmlns="http://www.w3.org/2000/svg" role="img" viewBox="0 0 38 24" width="38" height="24" aria-labelledby="pi-qrph"><title id="pi-qrph">QR Ph</title><path fill="#000" opacity=".07" d="M35 0H3C1.3 0 0 1.3 0 3v18c0 1.7 1.4 3 3 3h32c1.7 0 3-1.3 3-3V3c0-1.7-1.4-3-3-3z"/><path fill="#fff" d="M35 1c1.1 0 2 .9 2 2v18c0 1.1-.9 2-2 2H3c-1.1 0-2-.9-2-2V3c0-1.1.9-2 2-2h32"/><path d="M13.722 8.636a3.497 3.497 0 00-1.53.536 3.857 3.857 0 00-.767.751 3.312 3.312 0 00-.592 1.745 3.329 3.329 0 00.578 2.231 3.261 3.261 0 002.878 1.254 4.273 4.273 0 00.756-.096 2.399 2.399 0 01.477.41l.44.42 1.066.003c.934 0 1.062-.005 1.037-.034a48.566 48.566 0 00-.842-.765l-.817-.732.15-.15a3.09 3.09 0 00.826-1.583 5.256 5.256 0 00.048-1.263 3.029 3.029 0 00-.782-1.765 2.8 2.8 0 00-1.024-.724 4.063 4.063 0 00-1.902-.238zm.91 1.26a1.666 1.666 0 011.171 1.454 3.765 3.765 0 01-.073 1.412 1.67 1.67 0 01-.803.983 1.613 1.613 0 01-.791.166 1.48 1.48 0 01-1.096-.402 1.927 1.927 0 01-.594-1.336 2.66 2.66 0 01.216-1.39 1.622 1.622 0 011.206-.92 2.58 2.58 0 01.764.033zM18.363 11.884v3.165h1.524v-2.441l.282.01c.562.023.571.033 1.754 1.868l.364.564h1.744l-.038-.061c-.121-.189-1.331-1.95-1.415-2.062a2.2 2.2 0 00-.751-.666c-.1-.04-.127-.078-.057-.078a2.551 2.551 0 00.671-.305 1.774 1.774 0 00.726-.934 1.343 1.343 0 00.05-.523 1.311 1.311 0 00-.062-.548 1.535 1.535 0 00-1.148-1c-.446-.129-.485-.13-2.125-.14l-1.519-.011v3.162zm2.623-2.057a.866.866 0 01.473.258.74.74 0 01.168.539.633.633 0 01-.07.354 1.008 1.008 0 01-.723.542 4.59 4.59 0 01-.542.025h-.405v-1.75h.473a3.55 3.55 0 01.626.032z" fill="#d01f2e"/><path d="M24.187 11.884v3.165h1.524v-2.184h.541c.963-.003 1.485-.127 2.018-.485a2.684 2.684 0 00.566-.569 2.087 2.087 0 00.29-1.346 1.852 1.852 0 00-.185-.685c-.25-.52-.703-.826-1.47-.992-.216-.045-.293-.048-1.753-.057l-1.531-.01v3.163zm2.636-2.015a1.135 1.135 0 01.457.246 1.063 1.063 0 01-.007 1.367c-.23.223-.489.291-1.117.291h-.446V9.811l.496.011a3.294 3.294 0 01.617.046zM29.897 11.886v3.163h1.546v-2.57h2.798v2.57h1.524V8.724h-1.524l-.005 1.256-.007 1.258-1.392.007-1.394.005V8.724h-1.546v3.162z" fill="#1f4288"/><ellipse cx="5.865" cy="11.756" fill="#ff0" rx="1.709" ry="1.701"/><path d="M7.087 8.752l-.952-.642h-2.21a1.686 1.686 0 00-1.69 1.682v2.924h1.29V9.772a.378.378 0 01.38-.377h2.23l.952-.643z" fill="#1f4288"/><path d="M4.661 14.747l.953.642h2.21a1.686 1.686 0 001.69-1.682v-2.924h-1.29v2.944a.378.378 0 01-.38.377h-2.23l-.953.643z" fill="#d01f2e"/></svg>