<svg xmlns="http://www.w3.org/2000/svg" role="img" viewBox="0 0 38 24" width="38" height="24" aria-labelledby="pi-rabbitlinepay"><title id="pi-rabbitlinepay">Rabbit Line Pay</title><g clip-path="url(#pi-rabbitlinepay-a)"><path opacity=".07" d="M35 0H3C1.3 0 0 1.3 0 3v18c0 1.7 1.3 3 3 3h32c1.7 0 3-1.3 3-3V3c0-1.7-1.3-3-3-3Z" fill="#000"/><path d="M35 1c1.1 0 2 .9 2 2v18c0 1.1-.9 2-2 2H3c-1.1 0-2-.9-2-2V3c0-1.1.9-2 2-2h32Z" fill="#fff"/><path fill-rule="evenodd" clip-rule="evenodd" d="M9.265 11.248c.16-.099.305-.143.475-.143.564 0 1.042.5 1.042 1.091 0 .625-.494 1.115-1.124 1.115-.64 0-1.105-.492-1.105-1.169V10.27h.568v1.07l.144-.092Zm-.149.964a.551.551 0 1 0 1.103 0 .551.551 0 0 0-1.102 0ZM5.997 12.222c0-.625.496-1.113 1.127-1.113.642 0 1.108.486 1.108 1.158v.992h-.574v-.199l-.14.101a.717.717 0 0 1-.48.16c-.574 0-1.041-.494-1.041-1.1Zm.569-.01a.55.55 0 1 0 1.098.002.55.55 0 0 0-1.098-.002ZM12.246 11.105a.857.857 0 0 0-.475.143l-.144.091V10.27h-.568v1.872c0 .677.464 1.169 1.106 1.169.629 0 1.124-.49 1.124-1.115 0-.592-.478-1.091-1.043-1.091Zm-.073 1.658a.55.55 0 1 1 .002-1.102.55.55 0 0 1-.002 1.102Z" fill="#08BF5B"/><path d="M14.166 13.259h-.564V11.17h.564v2.088ZM15.677 11.687v-.495h-.572v-.922h-.561v2.178c0 .35.064.522.251.664.162.117.294.147.645.147h.237v-.498h-.179c-.305 0-.393-.084-.393-.372v-.703h.572ZM4.704 12.271c0-.68.457-1.173 1.108-1.173l.026.001h.013l-.001.575-.01-.001h-.006c-.006-.002-.013-.002-.019-.002-.343 0-.546.25-.546.668v.92h-.564v-.988ZM28.01 11.038c.191 0 .331.152.331.35 0 .198-.14.35-.33.35h-.434v-.7h.434ZM30.211 11.762c.27 0 .465.183.465.476 0 .292-.195.476-.465.476-.269 0-.463-.184-.463-.476 0-.293.194-.476.463-.476Z" fill="#08BF5B"/><path fill-rule="evenodd" clip-rule="evenodd" d="M3.065 15.325h31.87c.036 0 .065-.029.065-.065V8.066A.065.065 0 0 0 34.935 8H3.065A.065.065 0 0 0 3 8.066v7.194c0 .036.029.065.065.065Zm13.555-.615H3.604V8.682H16.62v6.028Zm11.366-2.342a.99.99 0 0 0 1.009-.988.99.99 0 0 0-1.009-.988h-.966a.097.097 0 0 0-.097.098v2.672c0 .054.044.097.098.097h.436a.097.097 0 0 0 .097-.097v-.794h.433Zm3.33.84v-1.946a.05.05 0 0 0-.051-.05h-.514a.05.05 0 0 0-.051.05v.143c-.135-.156-.337-.25-.612-.25-.537 0-.98.471-.98 1.083 0 .611.443 1.084.98 1.084.275 0 .477-.095.612-.25v.135a.05.05 0 0 0 .051.051h.514a.05.05 0 0 0 .05-.05Zm1.424-.8.446-1.143a.084.084 0 0 1 .078-.053h.54a.05.05 0 0 1 .047.069l-1.093 2.761a.084.084 0 0 1-.078.053l-.525-.003a.05.05 0 0 1-.048-.069l.3-.754-.815-1.988a.05.05 0 0 1 .046-.069h.554c.033 0 .064.02.077.052l.47 1.145Zm-13.302.85a.098.098 0 0 0 .098-.097v-.458a.098.098 0 0 0-.098-.098h-1.172V10.49a.098.098 0 0 0-.098-.097h-.46a.098.098 0 0 0-.098.097v2.671a.1.1 0 0 0 .027.068.1.1 0 0 0 .071.03h1.73Zm1.023 0a.098.098 0 0 0 .098-.098v-2.67a.098.098 0 0 0-.098-.098h-.458a.098.098 0 0 0-.098.098l.001 2.67c0 .055.044.098.098.098h.457Zm2.939 0a.098.098 0 0 0 .097-.097v-2.67a.098.098 0 0 0-.098-.098h-.455a.098.098 0 0 0-.098.097v1.635l-1.209-1.688-.008-.011a.062.062 0 0 0-.007-.006l-.006-.007-.008-.005-.026-.012-.018-.003H21.092a.098.098 0 0 0-.098.097v2.671c0 .054.044.098.098.098h.455a.098.098 0 0 0 .098-.098v-1.652l1.222 1.708c.007.01.016.018.025.024l.02.01a.099.099 0 0 0 .036.007h.451Zm2.36-2.213a.098.098 0 0 0 .097-.098v-.456a.098.098 0 0 0-.098-.098h-1.73c-.026 0-.05.01-.069.027a.099.099 0 0 0-.03.07v2.67c0 .026.01.05.028.069l.004.003a.096.096 0 0 0 .066.027h1.731a.098.098 0 0 0 .098-.098v-.459a.098.098 0 0 0-.098-.098h-1.173v-.452h1.173a.098.098 0 0 0 .098-.099v-.457a.098.098 0 0 0-.098-.097h-1.173v-.454h1.173Z" fill="#08BF5B"/></g><defs><clipPath id="pi-rabbitlinepay-a"><path fill="#fff" d="M0 0h38v24H0z"/></clipPath></defs></svg>