<svg xmlns="http://www.w3.org/2000/svg" role="img" viewBox="0 0 38 24" width="38" height="24" aria-labelledby="pi-rakuten_pay"><title id="pi-rakuten_pay">Rakuten Pay</title><path d="M35 0H3C1.3 0 0 1.3 0 3v18c0 1.7 1.4 3 3 3h32c1.7 0 3-1.3 3-3V3c0-1.7-1.4-3-3-3z" opacity=".07"/><path fill="#fff" d="M35 1c1.1 0 2 .9 2 2v18c0 1.1-.9 2-2 2H3c-1.1 0-2-.9-2-2V3c0-1.1.9-2 2-2h32"/><path fill="#bf0000" d="M4.213 17.143l-1.461-1.226h10.243zm1.663-1.528v-2.716h1.177l2.038 2.716h2.083l-2.463-3.277a3.019 3.019 0 00-1.749-5.48H4.209v8.758zm0-7.095h1.086a1.357 1.357 0 110 2.715H5.876zm13.237-.543a3.845 3.845 0 00-2.393-.682h-2.778v7.7h1.682v-2.523h1.1a3.845 3.845 0 002.393-.682 2.483 2.483 0 000-3.814m-1.284 2.849a2.318 2.318 0 01-1.213.284h-.992V8.658h.992a2.318 2.318 0 011.213.284 1.02 1.02 0 01.47.948 1.008 1.008 0 01-.47.936m7.878-1.146a2.151 2.151 0 00-.834-.919 2.365 2.365 0 00-1.265-.346 2.674 2.674 0 00-1.506.443 3.124 3.124 0 00-1.07 1.233 4.391 4.391 0 000 3.651 3.124 3.124 0 001.07 1.232 2.673 2.673 0 001.506.443 2.4 2.4 0 001.265-.339 2.112 2.112 0 00.834-.913l.131 1.109h1.4v-6.7h-1.4zm-.541 3.684a1.555 1.555 0 01-2.38 0 2.152 2.152 0 01-.47-1.441 2.179 2.179 0 01.47-1.448 1.542 1.542 0 012.38 0 2.2 2.2 0 01.463 1.448 2.173 2.173 0 01-.463 1.441m10.079-5.065h-1.734l-1.735 4.016-1.734-4.016h-1.891l2.726 5.634-1.5 2.963h1.7z"/></svg>