<svg xmlns="http://www.w3.org/2000/svg" role="img" viewBox="0 0 38 24" width="38" height="24" aria-labelledby="pi-rapidtransfer"><title id="pi-rapidtransfer">Rapid Transfer</title><g clip-path="url(#pi-rapidtransfer-clip0_15_70)"><path d="M35 .001H3c-1.7 0-3 1.3-3 3v18C0 22.7 1.4 24 3 24h32c1.7 0 3-1.3 3-3V3c0-1.7-1.4-3-3-3v.001z" fill="#000" fill-opacity=".07"/><path d="M35 1c1.1 0 2.001.9 2.001 2v18a2.006 2.006 0 01-2 2H3a2.007 2.007 0 01-2-2V3c0-1.1.9-2 2.001-2h32z" fill="#fff"/><path d="M30.602 16h-.69v-.121h.687c.175 0 .258-.09.258-.276v-.242h-.945v-.121h2.075v.4c0 .238-.116.356-.338.356h-.406c-.198 0-.284-.087-.329-.217-.034.137-.122.22-.312.22zm1.274-.363v-.276h-.91v.242c0 .182.086.273.258.273h.43c.148 0 .22-.078.22-.24h.002zm.109-.697h-.11v-.503h-.854v.487h-.11v-.487h-.892v.508h-.11v-.629h2.075l.001.623zm0-.885h-.11v-.49h-.854v.475h-.11v-.474h-1v-.122h2.074v.611zm-1.437-.913h-.323c-.218 0-.33-.121-.33-.357v-.068c0-.236.114-.357.327-.357h.422v.122h-.424c-.143 0-.214.08-.214.238v.06c0 .16.071.24.213.24h.323c.128 0 .19-.04.261-.139l.246-.334a.388.388 0 01.358-.183h.264c.217 0 .329.118.329.356v.06c0 .235-.113.356-.326.356h-.358v-.121h.361c.143 0 .214-.078.214-.239v-.053c0-.158-.071-.238-.213-.238h-.267c-.125 0-.187.04-.261.14l-.243.334a.39.39 0 01-.36.183zm-.636-1.212l1.785-.596-1.414.013h-.37v-.115h2.074v.124l-1.79.592 1.42-.01h.37v.115h-2.075v-.124z" fill="#231F20"/><path d="M28.952 16v-4.965L27.152 16h1.8z" fill="#66C18F"/><path d="M29.912 10.971v-.114l.441-.081v-.518l-.441-.077v-.118l2.084.39v.125l-2.084.393zm.55-.691v.474l1.316-.238-1.315-.236zm.14-.477h-.69v-.121h.687c.175 0 .258-.09.258-.276v-.242h-.945v-.12h2.075v.4c0 .238-.116.356-.338.356h-.406c-.198 0-.284-.087-.329-.217-.034.136-.122.22-.312.22zm1.273-.363v-.276h-.91v.242c0 .183.086.273.258.273h.43c.15 0 .222-.078.222-.239zm-3.381-1.16c-.12-.18-.322-.278-.57-.278H25.84L23.055 16h2.171c.5 0 1.044-.404 1.215-.9l2.11-6.139c.087-.255.067-.497-.057-.681zm-3.1 6.822h-.98l2.15-6.202h.97l-.485 1.403-1.655 4.799zm4.517-6.747h1.964V8h.109v.831h-.11v-.356H29.91l.001-.121zM23 8.001L20.194 16h1.048l2.796-7.998H23zm-11.384.961c.091-.253.075-.502-.045-.684-.117-.179-.317-.278-.563-.278H8.946L6 15.999h1.049l1.155-3.146h.532l-.567 3.146h1.077l.541-3.267a1.48 1.48 0 00.744-.79l1.085-2.98zm-1.021-.05l-1.125 3.08h-.95l1.131-3.08h.944zm5.723-.632c-.118-.18-.319-.278-.565-.278h-1.238c-.493 0-1.04.403-1.22.898L10.72 16h1.049l1.137-3.146h1.01L12.787 16h1.061l2.519-7.038c.09-.252.073-.5-.048-.683zm-.98.62l-1.1 3.056H13.23L14.334 8.9h1.004zm5.639-.62c-.12-.18-.32-.278-.567-.278h-2.003l-2.853 7.997h1.048l.886-2.493h1.038c.497 0 1.044-.404 1.219-.9l1.283-3.645c.09-.255.072-.497-.051-.682zm-.97.63l-1.295 3.66h-.893l1.301-3.66h.887z" fill="#231F20"/></g><defs><clipPath id="pi-rapidtransfer-clip0_15_70"><path fill="#fff" d="M0 0h38v24H0z"/></clipPath></defs></svg>