<svg viewBox="0 0 38 24" xmlns="http://www.w3.org/2000/svg" role="img" width="38" height="24" aria-labelledby="pi-ratepay"><title id="pi-ratepay">RatePay</title><path opacity=".07" d="M35 0H3C1.3 0 0 1.3 0 3v18c0 1.7 1.4 3 3 3h32c1.7 0 3-1.3 3-3V3c0-1.7-1.4-3-3-3z"/><path fill="#fff" d="M35 1c1.1 0 2 .9 2 2v18c0 1.1-.9 2-2 2H3c-1.1 0-2-.9-2-2V3c0-1.1.9-2 2-2h32"/><path fill-rule="evenodd" clip-rule="evenodd" fill="#E4003E" d="M18.775 19a7.371 7.371 0 01-2.793-.546l9.12-9.248c.385.835.577 1.755.577 2.762 0 1.926-.663 3.575-1.99 4.945-1.349 1.349-2.987 2.044-4.914 2.087zM14.794 6.188A6.987 6.987 0 0118.647 5a6.9 6.9 0 013.597.996l-6.423 6.583-3.5-3.372a6.664 6.664 0 012.473-3.019z"/></svg>
