<svg viewBox="0 0 38 24" width="38" height="24" role="img" aria-labelledby="pi-ratypekao" xmlns="http://www.w3.org/2000/svg" fill="none"><title id="pi-ratypekao">Raty Pekao</title><g clip-path="url(#pi-ratypekao-A)"><path d="M35 .001H3c-1.7 0-3 1.3-3 3v18A3.01 3.01 0 003 24h32c1.7 0 3-1.3 3-3V3a3.01 3.01 0 00-3-3v.001z" fill="#000" fill-opacity=".07"/><path d="M35 1a2.01 2.01 0 012.001 2v18a2.002 2.002 0 01-2 2H3a2.006 2.006 0 01-2-2V3c0-1.1.9-2 2.001-2H35z" fill="#fff"/><path d="M24.647 10.599s1.922.735 1.689 3.493a.16.16 0 00.024 0c.08-.177 1.203-2.584-.574-3.696 0 0 .718-1.772-.625-3.415-.683-.836-1.934-1.634-4.225-1.299 0 0-2.835-4.751-7.225-1.633 0 0 .332.891-.355 1.826l.017.01c.666-.392 3.839-3.356 7.28.184.001.001 5.435-.503 3.994 4.53zm-6.844.304s1.396-1.701 2.977-.149c0 0 1.068-1.302 2.733-.555.755.339 1.852 1.449.644 3.804h-.026c0-.001.493-1.996-.95-2.902-.582-.365-1.649-.29-2.717.887 0 0-.507-.941-1.36-.679 0 0 .107 1.38-.746 2.781-.001.002-.026-.001-.026 0s.497-2.152-.529-3.188zm-5.231.461s1.785-1.453 3.268-.787c.946.425 1.194 1.597 1.012 3.424 0 0 .025.002.025 0 .136-.321 1.889-3.591-.783-4.581-.504-.188-1.211-.247-2.485.223l-1.182-3.41s1.875-2.551-1.209-3.138l-.002.022c.301.168 2.138 1.338.08 2.736l1.275 5.511zm18.575 4.152H6.852v.222h24.296v-.222z" fill="#de1e26"/><g fill="#000"><path d="M8.077 17.267a2.34 2.34 0 01.603.068 1.15 1.15 0 01.412.194.75.75 0 01.236.307 1.05 1.05 0 01.075.407.81.81 0 01-.04.253.75.75 0 01-.123.229.89.89 0 01-.208.191 1.145 1.145 0 01-.296.141c.521.112.782.39.782.835 0 .157-.029.301-.088.433a.96.96 0 01-.255.339 1.2 1.2 0 01-.413.222c-.164.053-.35.079-.56.079h-1.35v-3.697h1.224zm-.626.47v1.155h.598c.256 0 .447-.05.572-.149s.189-.242.189-.429c0-.204-.06-.351-.177-.441s-.304-.136-.556-.136l-.626.001zm.741 2.752a1.07 1.07 0 00.341-.047.63.63 0 00.228-.129.48.48 0 00.128-.194.73.73 0 00.04-.24.51.51 0 00-.177-.412c-.118-.1-.306-.15-.561-.15h-.739v1.173h.741zm1.613-1.784a1.49 1.49 0 011.053-.414 1.03 1.03 0 01.4.073.8.8 0 01.294.207c.079.089.14.195.182.317a1.26 1.26 0 01.063.407v1.664h-.245c-.053 0-.093-.008-.12-.025s-.05-.049-.069-.099l-.053-.213a2.27 2.27 0 01-.197.16 1.3 1.3 0 01-.201.12.95.95 0 01-.222.073 1.32 1.32 0 01-.262.025.965.965 0 01-.295-.044.65.65 0 01-.236-.132.62.62 0 01-.157-.22.752.752 0 01-.058-.308.6.6 0 01.08-.295.74.74 0 01.266-.258 1.72 1.72 0 01.488-.189c.202-.05.451-.078.747-.085v-.174c0-.188-.04-.329-.12-.421s-.198-.139-.353-.139a.77.77 0 00-.266.04 1.08 1.08 0 00-.186.086l-.141.086a.231.231 0 01-.13.04.157.157 0 01-.096-.03.24.24 0 01-.065-.073l-.101-.181zm1.457 1.11c-.196.007-.361.023-.496.047s-.244.057-.327.095-.144.084-.18.137a.3.3 0 00-.055.174c0 .062.01.114.029.158s.047.079.082.108.076.049.123.062.098.019.155.019a.785.785 0 00.369-.081 1.14 1.14 0 00.3-.235l.001-.485zm1.509-1.128a1.75 1.75 0 01.175-.158 1.023 1.023 0 01.66-.229.92.92 0 01.377.072.76.76 0 01.274.203c.075.088.13.192.168.314a1.38 1.38 0 01.056.404v1.666h-.547v-1.666c0-.176-.041-.313-.122-.411s-.204-.146-.369-.146a.71.71 0 00-.341.084 1.168 1.168 0 00-.295.231v1.908h-.55V18.34h.332c.075 0 .123.035.143.105l.039.241zm2.723-1.527v2.203h.118c.037 0 .068-.005.092-.015s.049-.031.074-.064l.731-.84c.026-.035.053-.06.084-.077s.07-.026.118-.026h.498l-.879.996a.67.67 0 01-.169.159.49.49 0 01.09.081c.026.03.05.063.074.102l.938 1.281h-.491a.259.259 0 01-.113-.022.2.2 0 01-.083-.081l-.754-1.027c-.026-.04-.051-.065-.077-.076s-.064-.017-.115-.017h-.136v1.222h-.55v-3.8h.549zm4.279.107c.241 0 .448.028.625.084s.322.136.437.237.201.224.257.367a1.28 1.28 0 01.084.474c0 .176-.03.338-.09.484a1.02 1.02 0 01-.266.377 1.25 1.25 0 01-.438.247 1.906 1.906 0 01-.609.089h-.547v1.338h-.598v-3.697h1.145zm0 1.885a1.11 1.11 0 00.352-.051.71.71 0 00.253-.145.594.594 0 00.152-.227.82.82 0 00.051-.298.8.8 0 00-.05-.29.56.56 0 00-.15-.218.663.663 0 00-.252-.137 1.19 1.19 0 00-.357-.048h-.547v1.415h.547zm1.966.542a1.33 1.33 0 00.069.386.787.787 0 00.157.271.61.61 0 00.235.16.84.84 0 00.306.052.93.93 0 00.278-.037 1.25 1.25 0 00.204-.082l.149-.082a.218.218 0 01.112-.037.12.12 0 01.103.051l.156.203a1 1 0 01-.22.195 1.324 1.324 0 01-.261.13 1.49 1.49 0 01-.284.072 1.846 1.846 0 01-.283.022 1.35 1.35 0 01-.502-.091 1.12 1.12 0 01-.401-.268 1.24 1.24 0 01-.266-.439 1.75 1.75 0 01-.096-.604 1.47 1.47 0 01.086-.509c.057-.157.139-.295.245-.41a1.16 1.16 0 01.388-.276 1.26 1.26 0 01.517-.102 1.23 1.23 0 01.445.078c.136.052.254.129.353.23s.176.224.231.371a1.41 1.41 0 01.083.499c0 .086-.009.143-.028.172s-.053.044-.102.044h-1.674zm1.311-.339c0-.092-.014-.179-.04-.258s-.065-.149-.116-.208a.53.53 0 00-.19-.139.65.65 0 00-.262-.05c-.199 0-.356.057-.47.172s-.187.276-.217.483h1.295zm1.379-2.195v2.203h.117c.038 0 .068-.005.092-.015s.048-.031.074-.064l.731-.84c.026-.035.053-.06.085-.077s.07-.026.118-.026h.498l-.879.996a.67.67 0 01-.169.159.5.5 0 01.09.081c.026.03.05.063.074.102l.938 1.281h-.491c-.044 0-.082-.007-.114-.022s-.059-.041-.083-.081l-.754-1.027c-.026-.04-.051-.065-.077-.076s-.064-.017-.115-.017h-.136v1.222h-.55v-3.8h.549z"/><path d="M26.304 18.705a1.49 1.49 0 011.053-.414 1.03 1.03 0 01.4.073.8.8 0 01.294.207c.079.089.14.195.182.317a1.26 1.26 0 01.063.407v1.664h-.245c-.053 0-.093-.008-.12-.025s-.05-.049-.069-.099l-.053-.213a2.27 2.27 0 01-.197.16c-.065.047-.131.087-.201.12s-.143.057-.222.073-.167.025-.262.025a.97.97 0 01-.295-.044.65.65 0 01-.236-.132.62.62 0 01-.157-.22.752.752 0 01-.058-.308.6.6 0 01.08-.295.74.74 0 01.266-.258 1.72 1.72 0 01.488-.189c.202-.05.451-.078.747-.085v-.174c0-.188-.04-.329-.12-.421s-.198-.139-.353-.139a.77.77 0 00-.266.04 1.13 1.13 0 00-.187.086l-.14.086a.232.232 0 01-.131.04c-.037 0-.069-.01-.096-.03s-.049-.044-.065-.073l-.1-.181zm1.457 1.11c-.196.007-.361.023-.496.047s-.244.057-.327.095-.144.084-.18.137a.3.3 0 00-.055.174c0 .062.01.114.029.158s.047.079.082.108.076.049.123.062.098.019.155.019a.785.785 0 00.369-.081 1.14 1.14 0 00.3-.235l.001-.485zm2.122-1.516c.193 0 .367.031.523.095a1.13 1.13 0 01.399.269 1.21 1.21 0 01.255.424 1.65 1.65 0 01.09.56 1.65 1.65 0 01-.09.56 1.2 1.2 0 01-.255.425 1.11 1.11 0 01-.399.271c-.156.063-.33.095-.523.095a1.38 1.38 0 01-.525-.095 1.14 1.14 0 01-.4-.271 1.186 1.186 0 01-.255-.425 1.65 1.65 0 01-.09-.56 1.65 1.65 0 01.09-.56c.059-.166.145-.307.255-.424a1.13 1.13 0 01.4-.269 1.39 1.39 0 01.525-.095zm0 2.267c.235 0 .41-.079.525-.237s.172-.385.172-.679-.058-.521-.172-.682-.29-.24-.525-.24-.416.08-.531.24-.174.387-.174.682.058.521.174.679.293.237.531.237z"/></g></g><defs><clipPath id="pi-ratypekao-A"><path fill="#fff" d="M0 0h38v24H0z"/></clipPath></defs></svg>
