<svg xmlns="http://www.w3.org/2000/svg" role="img" width="38" height="24" viewBox="0 0 38 24" version="1.1" aria-labelledby="pi-rcbc"><title id="pi-rcbc">RCBC</title><path opacity=".07" d="M35 0H3C1.3 0 0 1.3 0 3v18c0 1.7 1.4 3 3 3h32c1.7 0 3-1.3 3-3V3c0-1.7-1.4-3-3-3z"/><path fill="#fff" d="M35 1c1.1 0 2 .9 2 2v18c0 1.1-.9 2-2 2H3c-1.1 0-2-.9-2-2V3c0-1.1.9-2 2-2h32"/><path fill-rule="evenodd" clip-rule="evenodd" d="M12.535 11.262h2.016c.57 0 1.015.144 1.308.398.239.215.375.512.375.856v.011c0 .657-.445 1.047-1.074 1.207l1.223 1.508h-.945l-1.114-1.39h-.996v1.39h-.793v-3.98Zm1.961 1.972c.566 0 .93-.261.93-.668v-.007c0-.43-.348-.66-.938-.66h-1.16v1.335h1.168Zm2.441.028v-.012c0-1.133.965-2.059 2.336-2.059.832 0 1.34.258 1.774.621l-.512.516c-.363-.293-.75-.492-1.27-.492-.859 0-1.492.625-1.492 1.402v.012c0 .781.625 1.41 1.493 1.41.558 0 .914-.191 1.3-.512l.512.457c-.473.43-.992.704-1.84.704-1.316 0-2.3-.903-2.3-2.047h-.001Zm4.844-2h2.032c.519 0 .925.125 1.187.351.2.176.3.39.3.66v.012c0 .477-.308.735-.644.887.528.16.899.426.899.965v.011c0 .711-.668 1.094-1.676 1.094H21.78l.001-3.98Zm2.727 1.125c0-.313-.285-.508-.797-.508h-1.145v1.059h1.086c.512 0 .856-.176.856-.54v-.011Zm-.68 1.144h-1.262v1.09h1.32c.544 0 .872-.187.872-.547v-.011c0-.336-.305-.532-.93-.532Zm2.43-.27v-.011c0-1.133.965-2.059 2.336-2.059.836 0 1.34.258 1.773.621l-.512.516c-.359-.293-.75-.492-1.265-.492-.863 0-1.496.625-1.496 1.402v.012c0 .781.629 1.41 1.496 1.41.555 0 .91-.191 1.3-.512l.508.457c-.468.43-.988.704-1.835.704-1.32 0-2.305-.903-2.305-2.047v-.001Zm-10.445 7.25-8.211-4.167V8.008l8.214-4.168 8.207 4.34v2.77h-.707V8.53L15.81 4.56 8.305 8.367v7.621l7.508 3.809 7.503-3.809v-.437h.707v.793l-8.21 4.167Z" fill="#3783D9"/></svg>
