<svg viewBox="0 0 38 24" xmlns="http://www.w3.org/2000/svg" role="img" width="38" height="24" aria-labelledby="pi-reka"><title id="pi-reka">Reka</title><path d="M35 0H3C1.3 0 0 1.3 0 3v18c0 1.7 1.4 3 3 3h32c1.7 0 3-1.3 3-3V3c0-1.7-1.4-3-3-3z" opacity=".07"/><path d="M35 1c1.1 0 2 .9 2 2v18c0 1.1-.9 2-2 2H3c-1.1 0-2-.9-2-2V3c0-1.1.9-2 2-2h32" fill="#fff"/><path d="M9.8 9.9c-.7 0-1.4.3-1.9 1.2v-1H5.7l-.9 6.6h2.3l.4-2.7c.2-1.5 1-2.1 1.7-2.1.4 0 .7.1.8.2l.9-2c-.2 0-.6-.2-1.1-.2" fill="#113180" fill-rule="evenodd"/><path d="M23 16.8h2.6l-2-3.7c1.3-.7 2.2-1.8 2.7-2.9h-2.5c-.6 1-1.6 1.9-2.6 2.5L22 7h-2.3l-1.4 9.8h2.3l.5-3.5 1.9 3.5" fill="#d81130" fill-rule="evenodd"/><path d="M15.4 12.8H13c.2-.8.8-1.4 1.5-1.4 1 0 1 .7.9 1.4m-.6-2.9c-2.5 0-4.1 1.7-4.1 4 0 1.7 1.1 3.1 3.4 3.1 1.4 0 2.5-.5 3.2-1l-1.1-1.3c-.3.2-.8.6-1.7.6-.8 0-1.4-.5-1.5-1.4h4.5c.7-3.2-1.1-4-2.7-4" fill="#113180" fill-rule="evenodd"/><path d="M29.3 15.5c-.6 0-.8-.3-.8-.7 0-.9 1.1-1 2.3-1-.2 1-.7 1.7-1.5 1.7m1-5.6c-1.3 0-2.6.4-3.3 1.2l1.1 1.2c.5-.6 1.1-.8 1.8-.8.8 0 1.1.5 1 1.3H30c-2.6 0-3.9.8-3.9 2.4 0 1 .9 1.8 2 1.8 1.2 0 1.8-.5 2.2-.9v.7h2.2l.6-3.9c.4-2-.6-3-2.8-3" fill="#d81130" fill-rule="evenodd"/></svg>