<svg role="img" aria-labelledby="pi-resolvepay" width="38" height="24" viewBox="0 0 38 24" fill="none" xmlns="http://www.w3.org/2000/svg"><title id="pi-resolvepay">Resolve Pay</title><g clip-path="url(#clip0_17506_909)"><rect x="1" y="1" width="36" height="22" rx="2" fill="#fff"/><rect x="1" y="1" width="36" height="22" rx="2" fill="#fff"/><path fill-rule="evenodd" clip-rule="evenodd" d="M13.296 16.048l3.268-3.265L19 15.216l6.49-6.482 1.971 1.969a1.84 1.84 0 010 2.606l-7.157 7.15c-.723.721-1.884.721-2.607 0l-4.4-4.411z" fill="#0F2454"/><path fill-rule="evenodd" clip-rule="evenodd" d="M18.992 8.772l-2.417 2.423-.794.794-3.276 3.265-1.964-1.962A1.836 1.836 0 0110 11.99c0-.49.195-.96.54-1.303l7.158-7.146a1.835 1.835 0 012.6 0l4.408 4.4-3.277 3.265-2.436-2.433z" fill="#0F2454"/></g><rect x=".5" y=".5" width="37" height="23" rx="2.5" stroke="#000" stroke-opacity=".07"/><defs><clipPath id="pi-resolvepay-clip0_17506_909"><rect x="1" y="1" width="36" height="22" rx="2" fill="#fff"/></clipPath></defs></svg>