<svg xmlns="http://www.w3.org/2000/svg" role="img" viewBox="0 0 38 24" width="38" height="24" aria-labelledby="pi-rietumu"><title id="pi-rietumu">Rietumu</title><path d="M35 0H3C1.3 0 0 1.3 0 3v18c0 1.7 1.4 3 3 3h32c1.7 0 3-1.3 3-3V3c0-1.7-1.4-3-3-3z" fill-opacity=".07" fill-rule="nonzero"/><path d="M35 1c1.1 0 2 .9 2 2v18c0 1.1-.9 2-2 2H3c-1.1 0-2-.9-2-2V3c0-1.1.9-2 2-2h32" fill="#0082ca" fill-rule="nonzero"/><path d="M30.446 14.378s-.649.173-1.756.173h-.096c-1.329-.014-2.705-.259-4.089-.731l-.481-.168c-3.123-1.071-4.688-1.606-6.322-1.833l-.005-.005a.132.132 0 01-.1-.127c0-.059.037-.109.1-.123h.005c1.506-.24 4.153-.903 4.929-2.677.204-.467.199-.853-.009-1.144-.296-.408-.999-.626-2.024-.626h-.1c-1.934.027-4.589.807-6.041 1.779-2.396 1.606-3.467 3.504-3.467 4.684 0 1.215 1.312 1.647 1.366 1.66h.009c.005-.031.468-3.244 2.296-5.282 1.166-1.298 2.892-2.147 4.389-2.165h.045c.527 0 .985.104 1.375.308.4.21.572.536.495.918-.208.998-2.129 2.269-5.287 2.649l-.028.005c-.058.009-.086.037-.095.082-.009.068.095.099.095.099 1.29.369 2.664.99 4.126 1.653 2.269 1.025 4.611 2.087 6.825 2.264-1.874 1.938-5.15 3.164-8.781 3.046-5.355-.172-9.503-3.223-9.503-6.821 0-3.599 4.148-6.649 9.503-6.822 5.632-.181 10.425 2.869 10.425 6.822 0 .394-.051.776-.141 1.152.318-.027.921-.168 1.08-.849.004-.099.013-.204.013-.299 0-4.861-5.245-8.595-11.386-8.355C12.006 3.872 7.522 7.607 7.522 12c0 4.393 4.48 8.128 10.289 8.355 4.425.173 8.387-1.72 10.248-4.611 1.924-.245 2.387-1.298 2.41-1.348l.009-.018h-.032z" fill="#fff" fill-rule="nonzero"/></svg>