<svg viewBox="0 0 38 24" xmlns="http://www.w3.org/2000/svg" width="38" height="24" role="img" aria-labelledby="pi-rupay"><title id="pi-rupay">RuPay</title><g fill="none" fill-rule="evenodd"><rect stroke-opacity=".07" stroke="#000" fill="#FFF" x=".5" y=".5" width="37" height="23" rx="3"/><path fill="#097A44" d="M32 15.77l2-7.41 2 3.82z"/><path fill="#F46F20" d="M30.76 15.79l2-7.4 2 3.82z"/><path d="M20.67 8.2a2 2 0 0 0-1.56-.56h-3l-1.95 6.81h1.75l.66-2.31h1.23a3.4 3.4 0 0 0 1.9-.5 2.93 2.93 0 0 0 1.12-1.72 1.77 1.77 0 0 0-.15-1.72zm-3.21.94h1.12a.76.76 0 0 1 .55.15c.11.11.07.35 0 .53a1.08 1.08 0 0 1-.4.62 1.21 1.21 0 0 1-.7.2H17l.46-1.5zM9.14 9a1.64 1.64 0 0 0-.2-.61 1.3 1.3 0 0 0-.58-.53 2.75 2.75 0 0 0-1.08-.18H4l-2 6.75h1.73l.72-2.52H5.7c.47 0 .58.1.6.13.02.03.09.15 0 .65l-.16.6a3.35 3.35 0 0 0-.11.59v.55h1.79l.12-.43-.11-.08s-.07-.05-.06-.2c.027-.19.07-.377.13-.56l.1-.42a2.14 2.14 0 0 0 .1-1.11.88.88 0 0 0-.26-.41 2 2 0 0 0 .68-.54 2.79 2.79 0 0 0 .53-1c.07-.22.101-.45.09-.68zm-1.86.83a.84.84 0 0 1-.5.6 1.79 1.79 0 0 1-.64.09H4.86l.38-1.33h1.43a1.1 1.1 0 0 1 .53.09c.05 0 .21.07.08.5v.05zm4.9 2.17a2.11 2.11 0 0 1-.3.67 1 1 0 0 1-.87.43c-.34 0-.36-.14-.38-.2a1.24 1.24 0 0 1 .07-.52l.89-3.11H9.9l-.86 3a3 3 0 0 0-.15 1.32c.08.42.4.91 1.41.91.247.004.493-.03.73-.1a2.51 2.51 0 0 0 .6-.29l-.08.3h1.62l1.47-5.13H13L12.18 12zm12.93 1.1l.63-2.18c.24-.83-.07-1.21-.37-1.39A2.75 2.75 0 0 0 24 9.2a2.87 2.87 0 0 0-2 .68 2.75 2.75 0 0 0-.69 1.1l-.09.26h1.61v-.11a1.15 1.15 0 0 1 .25-.37.84.84 0 0 1 .56-.17.89.89 0 0 1 .46.08v.18c0 .06 0 .15-.25.23a2.13 2.13 0 0 1-.48.1l-.44.05a4 4 0 0 0-1.25.32c-.57.271-.99.78-1.15 1.39a1.25 1.25 0 0 0 .17 1.22c.289.307.7.468 1.12.44a2.43 2.43 0 0 0 1.07-.25l.4-.23v.33H25l.13-.48-.13-.07a.61.61 0 0 1 0-.22c0-.25.07-.43.11-.58zm-2.92-.1a.62.62 0 0 1 .34-.4 2.17 2.17 0 0 1 .57-.15l.29-.05.3-.07v.07a1.24 1.24 0 0 1-.51.75 1.44 1.44 0 0 1-.72.21.34.34 0 0 1-.25-.08.55.55 0 0 1-.02-.28zm7.91-3.68l-1.69 3v-3h-1.8l.39 5.13-.12.19a.8.8 0 0 1-.23.25.64.64 0 0 1-.24.08h-.68l-.39 1.37h.83a2 2 0 0 0 1.29-.34 9.55 9.55 0 0 0 1.27-1.71l3.17-5-1.8.03z" fill="#302F82"/></g></svg>