<svg width="38" height="24" viewBox="0 0 38 24" role="img" aria-labelledby="pi-rvrpas" version="1.1" xmlns="http://www.w3.org/2000/svg"><title id="pi-rvrpas">RVR-PAS</title><defs><clipPath id="pi-rvrpas-clippath"><rect width="100" height="100" rx="9.24" ry="9.24" x="0" y="0"/></clipPath></defs><path opacity=".07" d="M35 0H3C1.3 0 0 1.3 0 3v18c0 1.7 1.4 3 3 3h32c1.7 0 3-1.3 3-3V3c0-1.7-1.4-3-3-3z" fill="#000" display="inline"/><path d="M35 1c1.1 0 2 .9 2 2v18c0 1.1-.9 2-2 2H3c-1.1 0-2-.9-2-2V3c0-1.1.9-2 2-2h32z" fill="#fff"/><g clip-path="url(#pi-rvrpas-clippath)" transform="translate(1.013 .977) scale(.22003)" stroke-width="4.545"><g stroke-width="4.296" fill="#3baae1" transform="matrix(1.1192 0 0 1 14.184 0)"><circle cx="-31.61" cy="41.02" r="87.39" display="inline"/><path d="M35.03 78.1h22.35S79.82 0 44.07-13.7C6.39-13.7 2.95 32.67 2.95 32.67z"/><path d="M49.24-13.62h-82.68v52.18L11.53 64.1l23.5 14"/></g></g><path d="M5.078 8.274c.6 0 1.082.16 1.442.52.361.322.561.762.561 1.323s-.4 1.323-1.042 1.603l1.323 2.445H6.28l-1.202-2.284h-.682v2.284h-.921V8.314h1.683zm-.762.882v1.843h.762c.64 0 1.042-.32 1.042-.922 0-.6-.401-.921-1.042-.921zm8.657-.882l-2.325 5.851h-.882L7.442 8.274h1.002l1.643 4.168.12.4.12-.4 1.644-4.168zm2.404 0c.601 0 1.082.16 1.443.52.36.322.56.762.56 1.323s-.4 1.323-1.041 1.603l1.322 2.445H16.58l-1.202-2.284h-.681v2.284h-.922V8.314h1.683zm-.721.882v1.843h.761c.641 0 1.042-.32 1.042-.922 0-.6-.4-.921-1.042-.921z" fill="#fff"/><path d="M23.432 10.959c.401-.561.802-.882 1.363-.882s1.202.601 1.202 1.443c0 1.363-1.082 2.605-2.164 2.605s-.841-.28-1.042-.801l-.44 1.562v.16c0 .121.12.241.4.241h.24l-.08.32h-2.003l.08-.32h.12c.28 0 .48-.12.561-.4l1.162-4.048v-.12c0-.16-.16-.24-.4-.24h-.321l.08-.281 1.363-.08-.2.841zm-.32 1.202c-.08.28-.12.561-.12.802 0 .52.28.841.761.841s.681-.2.922-.56c.36-.482.6-1.243.6-1.884s-.32-.842-.72-.842-1.123.601-1.443 1.683zm6.773-1.242l.24-.721.641-.08-.881 3.125v.24c0 .121.04.241.16.241.2 0 .561-.4.842-1.042l.24.12c-.44.882-.882 1.363-1.323 1.363-.44 0-.52-.28-.52-.601v-.16c-.321.48-.762.761-1.203.761-.801 0-1.443-.641-1.443-1.563s1.123-2.485 2.165-2.485.961.361 1.082.842zm-2.525 1.843c0 .642.28 1.002.801 1.002s.962-.4 1.243-1.282c.16-.44.24-.842.24-1.162 0-.521-.4-.922-.841-.922-.762 0-1.483 1.122-1.483 2.364zm5.971-.24c-.922-.32-1.443-.44-1.443-1.122 0-.681.682-1.323 1.483-1.323s1.203.321 1.203.842-.2.52-.441.52c-.24 0-.401-.16-.401-.4s.04-.2.12-.32v-.04c0-.16-.2-.281-.56-.281-.562 0-.963.32-.963.761s.2.441.481.521c.882.28 1.443.441 1.443 1.163 0 .721-.641 1.322-1.643 1.322s-1.323-.4-1.323-.962.2-.56.481-.56.401.2.401.4 0 .16-.08.2c-.08.08-.16.16-.16.24 0 .201.28.361.72.361.602 0 1.003-.36 1.003-.801s-.16-.44-.401-.561z" fill="#1d1d1b"/></svg>