<svg xmlns="http://www.w3.org/2000/svg" role="img" viewBox="0 0 38 24" width="38" height="24" aria-labelledby="pi-s-pankki"><title id="pi-s-pankki">S Pankki</title><path fill="#000" opacity=".07" d="M35 0H3C1.3 0 0 1.3 0 3v18c0 1.7 1.4 3 3 3h32c1.7 0 3-1.3 3-3V3c0-1.7-1.4-3-3-3z"/><path fill="#fff" d="M35 1c1.1 0 2 .9 2 2v18c0 1.1-.9 2-2 2H3c-1.1 0-2-.9-2-2V3c0-1.1.9-2 2-2h32"/><path d="M13.79 8.08a1.58 1.58 0 011.21.48 1.86 1.86 0 01.44 1.3v1.82a2 2 0 01-.44 1.37 1.56 1.56 0 01-1.25.51H13V15h-1.41V8.08zm.15 4a.7.7 0 00.13-.46V10c0-.39-.16-.59-.48-.59H13v2.88h.6a.41.41 0 00.34-.19zM18.72 8.08L20.13 15h-1.41l-.25-1.41H17L16.78 15h-1.39l1.43-6.93zm-1 1.43l-.5 2.86h1zM22 8.08l1.33 4.08V8.08h1.33V15h-1.38l-1.42-4.22V15h-1.33V8.08zM26.68 8.08v4l.1-.3 1.27-3.73h1.42l-1.24 3.56 1.3 3.39h-1.42l-.87-2.3-.56 1.3v1h-1.35V8.08zM31.29 8.08v4l.1-.3 1.26-3.73h1.42l-1.24 3.56 1.3 3.39h-1.42l-.87-2.3-.55 1.3v1h-1.36V8.08zM36 8.08V15h-1.46V8.08zM5.42 7.53a4.06 4.06 0 012.95-1.16h.82V5.6h-.82a4.72 4.72 0 00-4.88 4.89v2a.9.9 0 010 .23.66.66 0 01-.19.37.64.64 0 01-.28.17l-.26.06h-.74v2.4h.71a3.27 3.27 0 002.37-.89A3.14 3.14 0 006 12.6v-2.11a2.34 2.34 0 012.38-2.41h.11V9a2.61 2.61 0 00-.57.1 1.46 1.46 0 00-.58.35 1.43 1.43 0 00-.41 1v2.15a4.06 4.06 0 01-1.17 3 4 4 0 01-2.94 1.16H2v.77h.82a4.81 4.81 0 003.49-1.38 4.8 4.8 0 001.38-3.55v-2a1.5 1.5 0 010-.22.72.72 0 01.21-.38.78.78 0 01.28-.17l.26-.06h.75V7.32h-.72a3.25 3.25 0 00-2.36.89 3.11 3.11 0 00-.9 2.28v2.11a2.42 2.42 0 01-.68 1.73 2.41 2.41 0 01-1.72.67h-.12v-.94a2.41 2.41 0 00.57-.1 1.31 1.31 0 00.58-.33 1.44 1.44 0 00.42-1v-2.14a4 4 0 011.16-2.96z" fill="#00b262"/></svg>