<svg xmlns="http://www.w3.org/2000/svg" role="img" viewBox="0 0 38 24" width="38" height="24" aria-labelledby="pi-saastopankki"><title id="pi-saastopankki">Säästöpankki</title><path fill="#000" opacity=".07" d="M35 0H3C1.3 0 0 1.3 0 3v18c0 1.7 1.4 3 3 3h32c1.7 0 3-1.3 3-3V3c0-1.7-1.4-3-3-3z"/><path fill="#fff" d="M35 1c1.1 0 2 .9 2 2v18c0 1.1-.9 2-2 2H3c-1.1 0-2-.9-2-2V3c0-1.1.9-2 2-2h32"/><path d="M20.38 12.69a7.58 7.58 0 00-1.54 4.47h-.07a7.79 7.79 0 00-1.47-4.47h-2.8a5.59 5.59 0 010 9h8.6a5.59 5.59 0 010-9h-2.72zm0 0" fill="#01abce"/><path d="M13.46 7.1v.14h-.15a5.31 5.31 0 00-5 5.31 5.52 5.52 0 007.13 5.24v-.7a3.83 3.83 0 00-.35-1.81 3.08 3.08 0 01-3.49-.56 3.65 3.65 0 01-.84-2.17 3 3 0 013.08-3.07 3.73 3.73 0 011.67.35l1 .34-.35-1a3.86 3.86 0 01-.35-1.75 3.04 3.04 0 016.08 0 5.71 5.71 0 01-.28 1.75l-.42 1 1-.41a5.71 5.71 0 011.75-.28 3 3 0 013 3 3 3 0 01-3 3.08 2.77 2.77 0 01-1.33-.28 4.26 4.26 0 00-.35 2.51l1.68.21a5.52 5.52 0 005.45-5.45 5.37 5.37 0 00-5-5.38h-.07V7.1A5.43 5.43 0 0013.46 7z" fill="#01abce"/><path fill="none" d="M8.28 2h21.43v20.5H8.28z"/></svg>