<svg width="38" height="24" viewBox="0 0 38 24" fill="none" xmlns="http://www.w3.org/2000/svg" role="img" aria-labelledby="pi-sadapay"><title id="pi-sadapay">Sadapay</title><g clip-path="url(#pi-sadapay-clip0)"><path d="M35 .5H3A2.5 2.5 0 00.5 3v18A2.5 2.5 0 003 23.5h32a2.5 2.5 0 002.5-2.5V3A2.5 2.5 0 0035 .5z" stroke="#000" stroke-opacity=".07"/><g clip-path="url(#pi-sadapay-clip1)"><path d="M1 1h36v22H1V1z" fill="#FFFDFD"/><path d="M13.505 13.008h1.303l.521.07.379.114.379.183.118.069v.046l.095.045.119.115.213.23.19.32.141.367.095.435v.481l-.071.413-.095.298-.095.206-.118.23h-.047l-.048.114-.237.252-.118.091h-.047v.046h-.071v.046l-.356.184-.402.114-.26.046-.711.023h-1.374l-.071-.046-.024-.367v-3.941l.024-.138.095-.023.473-.023z" fill="#144D6A"/><path d="M18.384 3.338h.332l.166.091 1.373 1.33.166.183.876.848.26.206.261.275.237.32.19.344.142.459.047.252v.504l-.095.435-.118.298-.213.367-.213.252-.285.298-1.136 1.1-.213.137-.119.046h-.237l-.19-.091-.141-.16-.048-.115v-.23l.071-.183.26-.275.782-.756.19-.16.095-.115h.047l.047-.092.237-.275.142-.275.071-.32v-.298l-.07-.321-.166-.321-.214-.23-.213-.16-.19-.114-.378-.092h-.38l-.283.069-.332.16-.237.184-1.397 1.352-.142.091-.071.023h-.285l-.189-.091-.142-.16-.047-.138v-.252l.094-.184.758-.733.024-.046h.047l.048-.092h.047l.047-.091h.048l.023-.07.19-.16.213-.206.19-.16.355-.23.331-.16.332-.091.142-.023-.142-.16-.237-.207-.26-.252-.19-.16-.332-.321-.165-.184-.166-.252v-.275l.118-.183.166-.138.071-.022z" fill="#FF7C67"/><path d="M17.082 4.667h.165l.19.091.166.184.07.183v.16l-.165.252-.308.298-.166.184-.45.435-.166.138-.165.183-.237.23-.19.297-.07.206-.048.298v.252l.095.367.118.23.26.274.261.183.284.115.213.046h.403l.284-.069.332-.16.332-.275 1.302-1.26.284-.138.213.023.214.137.142.206v.253l-.095.183-.26.275-.38.39-.426.412-.19.16-.355.344-.331.206-.45.23-.355.091.047.092 1.255 1.215.142.229.024.046v.16l-.142.229-.19.16-.07.023h-.261l-.19-.114-.236-.207-.38-.389-2.036-1.97-.19-.161-.308-.39-.213-.367-.118-.32-.071-.344v-.55l.118-.504.166-.39.213-.298.26-.298.545-.527.119-.137.19-.16.497-.482.236-.137.072-.023z" fill="#3DDCC3"/><path d="M19.734 13.008h.119l.094.092.308.642.758 1.558.332.688.45.916.26.55-.023.069-.38.046h-.236l-.237-.069-.142-.16-.237-.55-.142-.115h-1.8l-.071.023v.046h-.047l-.024.114-.26.482-.214.183-.118.023h-.498l-.142-.046.048-.137.165-.344.166-.367.142-.275.213-.435.143-.298.26-.527.19-.367.07-.16.119-.275.119-.207.07-.183.19-.344.071-.16.095-.206.118-.184.071-.023zM9.621 13.008l.166.023.118.16.26.574.404.825.307.641.403.825.308.642.213.435.166.39-.047.023h-.664l-.19-.023-.189-.367-.07-.114-.095-.23-.072-.114-.07-.023H8.745l-.071.023-.048.114-.165.321-.095.207-.071.16-.095.046h-.853l.048-.115.284-.596.166-.343.19-.367.07-.16.213-.459.166-.298.071-.16.119-.23.07-.16.167-.343.142-.275.07-.16.12-.23.07-.183.237-.436.071-.023z" fill="#144D6A"/><path d="M23.69 13.008h.97l.427.092.284.138.237.183.166.229.118.23.071.251.024.138v.344l-.095.32-.142.275-.166.184-.095.091-.213.115-.047.046-.379.114-.19.023-.544.023h-.427l-.07.069-.024.046v.16l.024.183v.367l-.024.138v.275l.024.183-.024.206-.071.092-.071.023-.308-.023-.095-.069-.024-.298.024-.802-.024-.687v-1.513l.024-1.1.119-.023.52-.023z" fill="#144F6B"/><path d="M5.003 12.917h.308l.426.091.213.092.237.138.237.206.165.206-.047.092-.213.137-.142.115-.19.046-.165-.07v-.045l-.095-.046-.19-.137-.213-.046h-.237l-.236.069-.19.114-.095.138v.275l.071.137.142.115.237.114.308.115.26.114.309.115.379.23.142.09.118.138.071.07.142.205.071.253.024.114v.298l-.071.32-.095.207-.095.16h-.047l-.047.115-.19.137h-.047v.046l-.237.115-.497.114-.332.023-.45-.045-.331-.092-.308-.137-.308-.23-.237-.252-.142-.252.047-.114.355-.23.143-.068.142.023.19.275.236.183.284.114.237.046.379-.023.284-.091.19-.206.047-.161v-.16l-.095-.23-.19-.16-.378-.183-.616-.23-.355-.183-.332-.252-.19-.252-.094-.275-.024-.275.048-.298.07-.229.143-.23.118-.137.119-.045v-.046l.26-.138.308-.091.26-.046z" fill="#144D6A"/><path d="M28.616 13.008h.095v.046h.047l.355.802.403.894.308.688.118.252.71 1.604.095.229-.023.023h-.427l-.142-.046-.213-.39-.142-.366-.118-.23v-.045l-.095-.023h-1.942l-.071.069-.095.183-.071.16-.166.413-.047.114h-.048l-.047.092-.047.046-.19.023h-.355l.047-.115.119-.252.426-.962.379-.825.237-.527.07-.16.12-.276.189-.412.284-.642.118-.252.119-.115z" fill="#144E6A"/><path d="M14.263 13.764h.426l.403.046.284.092.26.138.261.252.119.183.118.32.071.39-.023.344-.095.39-.142.275-.119.16-.118.115-.095.023v.045l-.355.16-.142.047-.166.023-.616.023h-.497l-.071-.092v-2.842l.07-.069.427-.023z" fill="#FFFDFD"/><path d="M21.203 5.72l.19.138.26.23.213.252.19.252.189.343.142.459.047.252v.504l-.095.435-.118.298-.213.367-.213.252-.285.298-1.136 1.1-.213.137-.119.046h-.237l-.19-.091-.141-.16-.048-.115v-.23l.071-.183.26-.275.782-.756.19-.16.095-.115h.047l.047-.092.237-.275.142-.275.071-.32v-.299l-.07-.32-.095-.207.023-.045.119.229.07.252.024.504h.048l.07-.206.072-.367.047-.115.024-.343-.119-.619-.094-.252-.095-.183.024-.07h-.048l-.094-.137-.071-.091V5.72z" fill="#FF9F8C"/><path d="M17.082 4.667h.165l.19.091.166.184.07.183v.16l-.165.252-.308.298-.166.184-.45.435-.166.138-.165.183-.237.23-.19.297-.07.206-.048.298v.252l.024.23-.048-.07-.023-.137v-.32l.023-.23-.047.023-.119.23-.07.366-.024.275v.481l.07.298.12.344v.16l.046.115-.189-.138-.213-.229-.26-.366-.19-.367-.095-.298-.047-.252v-.55l.118-.504.166-.39.213-.298.26-.298.545-.527.119-.137.19-.16.497-.482.236-.137.072-.023z" fill="#64ECD1"/><path d="M31.245 12.986h.19l.047.022v.046h.047l.213.321.355.573.237.39.308.504.166.252h.047l.166-.275.024-.069h.047l.047-.137.048-.092h.047l.048-.138.26-.412.024-.069h.047l.024-.114h.047l.048-.138.118-.206.166-.252.118-.115.119-.069h.331l.119.023-.024.092-.118.23-.119.183-.166.252-.118.206-.308.481-.118.206-.071.138h-.048l-.023.114h-.048l-.047.138-.142.23-.19.297-.047.092v.504l-.024 1.283-.118.069h-.308l-.119-.046-.023-.114v-1.559l-.095-.298-.166-.298v-.046h-.047l-.119-.229-.165-.229-.142-.252-.143-.206-.142-.252-.402-.665-.142-.206.023-.115.26-.046z" fill="#144D6A"/><path d="M19.876 7.37l.213.024.214.137.142.207v.252l-.095.183-.26.275-.38.39-.426.412-.19.16-.355.344-.331.206-.19.07-.45-.024h-.236l-.19-.046-.213-.114-.213-.16-.119-.092-.19-.23.025-.091h.71l.284-.069.332-.16.332-.275 1.302-1.26.284-.138z" fill="#2EC7B5"/><path d="M23.666 13.512h1.018l.26.07.261.182.142.207.095.252v.32l-.095.276-.165.229-.237.16-.19.069h-1.137l-.023-.046v-1.673l.07-.046z" fill="#FFFDFD"/><path d="M28.592 14.131h.048l.142.275.142.344.166.344.094.252.119.229.094.23.024.114-.616.023h-.852l-.119-.023.024-.115.118-.229.095-.252.095-.183.095-.253.142-.274.094-.253.095-.229z" fill="#FFFDFC"/><path d="M9.645 14.567l.07.046.143.297.07.16.12.253.118.275.142.252-.024.092H9.053l.023-.16.119-.253.166-.344.213-.48.07-.138zM19.71 14.613l.119.023.118.252.095.229.19.366.094.207.071.206-.047.023h-1.232l.048-.138.26-.504.214-.481.07-.183z" fill="#FFFDFD"/><path d="M18.526 5.881l.048.023-.237.183-.355.321-1.208 1.17-.095.182v.207l.047.183-.07-.069-.024-.091v-.253l.094-.183.758-.733.024-.046h.047l.048-.092h.047l.047-.091h.048l.023-.07.19-.16.213-.206.19-.16.165-.115z" fill="#FF9F8C"/><path d="M18.526 5.881l.048.023-.237.183-.355.321-.45.436-.024-.069h.047l.048-.092h.047l.047-.091h.048l.023-.07.19-.16.213-.206.19-.16.165-.115zM19.474 5.4l.095.046-.024.092-.356.091-.378.138-.19.114-.047-.023.308-.183.236-.092.403-.091-.047-.092z" fill="#FF9F8C"/><path d="M17.768 6.523l.072.023-.308.298-.024-.069h.047l.048-.092h.047l.047-.091h.048l.023-.069z" fill="#FF917D"/></g></g><defs><clipPath id="pi-sadapay-clip0"><path fill="#fff" d="M0 0h38v24H0z"/></clipPath><clipPath id="pi-sadapay-clip1"><rect x="1" y="1" width="36" height="22" rx="2" fill="#fff"/></clipPath></defs></svg>