<svg xmlns="http://www.w3.org/2000/svg" role="img" width="38" height="24" fill="none" viewBox="0 0 38 24" aria-labelledby="pi-safetypaybanktransfer"><title id="pi-safetypaybanktransfer">SafetyPay bank transfer</title><g clip-path="url(#pi-safetypaybanktransfer)"><path fill="#000" fill-opacity=".07" d="M35 .001H3c-1.7 0-3 1.3-3 3v18C0 22.7 1.4 24 3 24h32c1.7 0 3-1.3 3-3V3c0-1.7-1.4-3-3-3v.001z"/><path fill="#fff" d="M35 1c1.1 0 2.001.9 2.001 2v18a2.006 2.006 0 01-2 2H3a2.007 2.007 0 01-2-2V3c0-1.1.9-2 2.001-2h32z"/><path fill="#29CFD4" d="M19.506 3.16a.907.907 0 00-1.029 0l-8.063 5.533c-.763.523-.402 1.746.516 1.745h.57l.005 7.433L26.5 17.86l-.005-7.433h.57c.917 0 1.277-1.224.513-1.747l-8.07-5.52z"/><path fill="#29CFD4" d="M11.505 17.87c-.414 0-.75.352-.749.784h.214c-.534.01-.963.465-.963 1.024v.54L28 20.207v-.54c0-.56-.431-1.015-.965-1.024h.214c0-.432-.336-.782-.75-.782l-14.993.01z"/><path fill="#000" fill-opacity=".08" d="M26.497 17.67l-.005-7.145-15.044.01 15.049 7.136z"/><path fill="#086981" d="M10.023 9.246c-.121.602.25 1.29.907 1.29l16.134-.011c.656 0 1.027-.69.905-1.292l-17.946.013zm10.31-2.748a1.484 1.484 0 11-2.966.002 1.484 1.484 0 112.966-.002zM11 18.3a.3.3 0 01.3-.3l15.9-.012a.3.3 0 01.3.3v.7L11 19v-.7zm3.376-4.165c.027.25.235.438.478.433h5.902l-1.536 1.6a.495.495 0 00-.14.35.485.485 0 00.297.455.46.46 0 00.52-.122l2.322-2.428.331-.341-.33-.342-2.323-2.428a.463.463 0 00-.67-.007.5.5 0 00-.007.69l1.537 1.601h-5.903a.463.463 0 00-.34.143.493.493 0 00-.138.35v.046z"/></g><defs><clipPath id="pi-safetypaybanktransfer"><path fill="#fff" d="M0 0h38v24H0z"/></clipPath></defs></svg>