<svg xmlns="http://www.w3.org/2000/svg" role="img" fill="none" viewBox="0 0 38 24" width="38" height="24" aria-labelledby="pi-samsung_card"><title id="pi-samsung_card">Samsung Card</title><rect x="1" y="1" width="36" height="22" rx="2" fill="#fff"/><rect x=".5" y=".5" width="37" height="23" rx="2.5" stroke="#000" stroke-opacity=".07"/><path d="M31.089 13.42c5.68-2.913 4.97-5.696-.812-6.27-6.23-.62-15.329.72-21.673 3.282l-.874.376c-6.603 2.953-5.977 6.078-.083 6.654 6.436.617 16.23-.65 22.639-3.641l.803-.402z" fill="#0060A9"/><path d="M29.863 13.992s-1.086.087-1.112-.79v-1.691s-.136-.934 1.081-.934c0 0 .79-.025 1 .444 0 0 .104.127.076.645h-.848v-.268a.213.213 0 00-.22-.214s-.225.01-.225.19v1.752a.23.23 0 00.444.071.23.23 0 00.015-.088v-.506h-.226v-.473h1.085v.996a.7.7 0 01-.09.33 1.129 1.129 0 01-.98.536zM27.63 10.703h-.844l.06 1.94h-.037l-.856-1.94h-1.024v3.198h.833l-.05-1.956h.038l.886 1.956h.994v-3.198zM22.402 10.69h-.913v2.4s-.095.902 1.186.902c0 0 1.114.014 1.114-.866V10.69h-.894v2.41s.012.263-.233.263a.242.242 0 01-.257-.257l-.003-2.416zM20.438 11.679v-.4s.064-.657-.991-.686c0 0-.83-.054-1.068.392 0 0-.094.1-.094.452v.25a.832.832 0 00.139.476c.08.1.178.184.288.25 0 0 .419.226.67.353 0 0 .253.146.22.376a.25.25 0 01-.266.225.235.235 0 01-.226-.242v-.26h-.902v.395s-.024.756 1.128.756c0 0 1.1.022 1.152-.776v-.327a.84.84 0 00-.39-.747 3.094 3.094 0 00-.37-.196s-.437-.203-.524-.299a.305.305 0 01-.07-.347.218.218 0 01.225-.123s.235.012.235.206v.272h.844zM13.776 10.702l-.07 3.199h.832l.01-2.41h.066l.441 2.409h.874l.437-2.408h.058l.02 2.409h.836l-.09-3.199h-1.392l-.282 1.75h-.065l-.268-1.75h-1.407zM12.813 13.896L12.26 10.7h-1.414l-.553 3.196h.896l.328-2.478h.073l.329 2.478h.895zM9.414 11.679v-.4s.064-.657-.991-.686c0 0-.83-.054-1.068.392 0 0-.094.1-.094.452v.25a.833.833 0 00.139.476c.08.1.178.184.287.25 0 0 .419.226.67.353 0 0 .253.146.225.376a.25.25 0 01-.427.15.236.236 0 01-.063-.167v-.26H7.19v.395s-.025.756 1.128.756c0 0 1.1.022 1.151-.776v-.327a.842.842 0 00-.385-.747 3.137 3.137 0 00-.37-.196s-.437-.203-.525-.299a.306.306 0 01-.07-.347.219.219 0 01.225-.123s.235.012.235.206v.272h.835z" fill="#fff"/></svg>