<svg viewBox="0 0 38 24" xmlns="http://www.w3.org/2000/svg" width="38" height="24" role="img" aria-labelledby="pi-santander"><title id="pi-santander">Santander</title><path fill="#fff" stroke="#000" stroke-width="1.891" d="M-5.445-3.677h48.889v34.42H-5.445z"/><path d="M7 12V0h24v24H7V12z" fill="#fbfbfb"/><path d="M14.946 22.014c-2.608-.566-4.353-1.46-5.648-2.893-1.701-1.884-1.377-4.214.816-5.853 1.068-.8 3.704-2.027 4.35-2.027.22 0 1.33 1.434 2.468 3.187 1.137 1.753 2.17 3.189 2.296 3.19.698.007-.002-1.794-1.67-4.294-1.81-2.714-1.896-2.927-1.898-4.71-.002-2.06.71-3.309 1.733-3.04.437.113.544-.046.545-.818.001-1.111 1.01-2.933 1.625-2.933.244 0 .492.438.59 1.041.093.573 1.003 2.281 2.022 3.797s1.929 3.136 2.022 3.6c.14.704.573 1.036 2.584 1.985 2.837 1.337 3.609 2.307 3.61 4.539.001 1.272-.138 1.583-1.179 2.623-2.625 2.625-8.898 3.771-14.266 2.606zm5.524-11.783c-.808-1.194-1.704-2.584-1.989-3.087-.514-.907-.519-.909-.532-.157-.016.899 3.732 6.556 3.888 5.87.057-.25-.558-1.43-1.367-2.626z" fill="#f5d1cf"/><path d="M14.458 21.707c-6.001-1.51-7.864-5.796-3.714-8.545.735-.487 1.924-1.079 2.643-1.316 1.213-.4 1.331-.39 1.637.137.182.312 1.117 1.742 2.077 3.176.961 1.434 1.751 2.814 1.757 3.066.016.756.901-.609.901-1.39 0-.367-.842-1.947-1.871-3.51-2.127-3.232-2.535-4.877-1.638-6.61.621-1.202 1.17-1.086 1.404.297.097.571 1.02 2.318 2.052 3.882s1.876 2.973 1.876 3.132c0 .159.137.204.304.1.729-.45.204-1.959-1.676-4.82-2.14-3.257-2.435-4.487-1.506-6.283.6-1.159.955-1.134 1.223.086.119.54 1.01 2.162 1.98 3.605s1.882 3.08 2.027 3.639c.223.861.513 1.115 1.911 1.678 3.535 1.42 5.147 3.779 4.096 5.993-.613 1.291-2.663 2.744-4.851 3.437-2.18.69-8.3.832-10.632.246z" fill="#f4b0ae"/><path d="M16.57 21.965c-4.38-.58-8.051-3-8.051-5.306 0-1.749 2.836-4.316 5.186-4.696 1.03-.167 1.062-.137 2.865 2.65 1.002 1.55 1.938 3.14 2.08 3.533.38 1.055 1.11.308 1.11-1.137 0-.891-.413-1.774-1.861-3.978-2.069-3.15-2.438-4.487-1.659-5.994.59-1.142 1.09-1.247 1.09-.23 0 .403.88 2.05 1.959 3.663 1.077 1.612 2.044 3.199 2.148 3.526.291.918.753.377.753-.881 0-.874-.403-1.723-1.788-3.772-2.034-3.01-2.397-4.242-1.723-5.855.454-1.088 1.08-1.204 1.08-.202 0 .284.778 1.678 1.729 3.096.95 1.42 1.956 3.18 2.235 3.914.433 1.139.711 1.412 1.898 1.862 3.089 1.173 4.468 2.559 4.468 4.49 0 3.5-6.866 6.2-13.52 5.317z" fill="#f4908f"/><path d="M14.299 21.403c-3.416-.952-5.484-2.716-5.465-4.66.012-1.31.462-2.189 1.562-3.052.882-.691 3.223-1.825 3.79-1.836.447-.009 4.358 5.77 4.358 6.441 0 .979.609.862 1.123-.216.659-1.382.439-2.016-1.884-5.436-1.486-2.188-1.72-2.725-1.72-3.957 0-1.417.483-2.452.997-2.134.148.091.27.399.27.682 0 .284.888 1.845 1.974 3.47 1.086 1.624 1.974 3.152 1.974 3.397 0 .836.609.822.93-.021.454-1.197.202-1.88-1.847-5-1.888-2.877-2.266-4.332-1.498-5.768.345-.643.896-.517.896.205 0 .245.89 1.774 1.975 3.398 1.086 1.624 1.975 3.245 1.975 3.601 0 .813.46 1.199 2.132 1.789 2.772.978 4.467 2.984 4.114 4.868-.25 1.334-2.056 2.927-4.308 3.8-2.345.909-8.76 1.152-11.348.43z" fill="#f3817c"/><path d="M14.975 21.413c-5.143-1.117-7.555-4.3-5.249-6.927.776-.884 4.423-2.889 4.711-2.59.72.749 4.107 6.254 4.107 6.675 0 .828.756.695 1.167-.206.682-1.497.414-2.397-1.622-5.442-1.647-2.463-1.974-3.164-1.97-4.217.002-.695.124-1.451.27-1.682.311-.492.94-.196.94.444 0 .244.889 1.773 1.975 3.397 1.086 1.624 1.974 3.185 1.974 3.47 0 .813.543.937.93.212.589-1.099.144-2.741-1.308-4.832-2.404-3.464-2.868-4.95-1.938-6.22.403-.552.423-.55.623.078.113.357.972 1.775 1.91 3.151.937 1.376 1.867 3.057 2.068 3.735.333 1.13.517 1.291 2.198 1.933 1.008.385 2.327 1.179 2.929 1.764.924.897 1.095 1.268 1.095 2.375 0 1.657-.771 2.677-2.8 3.705-3.065 1.553-8.036 2.04-12.01 1.177z" fill="#f45c5c"/><path d="M14.299 21.1c-3.017-.842-5.029-2.37-5.183-3.935-.12-1.232.03-1.673.92-2.686.844-.961 3.686-2.483 4.24-2.27.474.184 3.754 5.275 4.024 6.247.365 1.32.947 1.245 1.603-.21.706-1.564.519-2.193-1.55-5.213-1.972-2.88-2.4-4.075-1.91-5.329l.341-.869.281.734c.155.404 1.08 1.91 2.056 3.346.976 1.437 1.871 3.055 1.99 3.595.282 1.285.697 1.245 1.268-.123.62-1.484.398-2.174-1.729-5.353-1.524-2.279-1.802-2.902-1.802-4.041 0-.741.103-1.338.228-1.326.42.04 3.868 5.523 4.33 6.883.413 1.22.614 1.407 2.206 2.048 2.36.95 3.159 1.512 3.738 2.632 1.075 2.079-.326 4.13-3.718 5.445-2.33.904-8.753 1.144-11.333.425z" fill="#f32e2e"/><path d="M15.753 21.128c-3.657-.764-6.022-2.27-6.46-4.115-.252-1.065.728-2.522 2.32-3.45 2.515-1.463 2.621-1.427 4.5 1.54.92 1.45 1.785 3.054 1.923 3.564.139.51.375 1.055.525 1.21.424.437 1.364-.598 1.768-1.947.444-1.482.102-2.416-2.04-5.56-1.467-2.152-2.064-3.61-1.713-4.178.306-.494 4.023 5.264 4.227 6.546.23 1.446.274 1.492 1.036 1.084.73-.39.99-1.102 1.013-2.77.015-1.026-.298-1.702-1.841-3.982-1.435-2.12-1.86-3-1.86-3.855 0-1.087.04-1.05 1.976 1.844 1.086 1.624 1.974 3.15 1.974 3.39 0 1 .484 1.434 2.91 2.608 2.643 1.28 3.47 2.173 3.47 3.748 0 3.133-7.744 5.572-13.728 4.323z" fill="#f80505"/></svg>