<svg xmlns="http://www.w3.org/2000/svg" viewBox="0 0 38 24" width="38" height="24" role="img" aria-labelledby="pi-satisfi"><title id="pi-satisfi">SatisFi</title><path fill="#000" opacity=".07" d="M35 0H3C1.3 0 0 1.3 0 3v18c0 1.7 1.4 3 3 3h32c1.7 0 3-1.3 3-3V3c0-1.7-1.4-3-3-3z"/><path fill="#fff" d="M35 1c1.1 0 2 .9 2 2v18c0 1.1-.9 2-2 2H3c-1.1 0-2-.9-2-2V3c0-1.1.9-2 2-2h32"/><path d="M8.765 6.33a1.478 1.478 0 00-1.392-.88A1.281 1.281 0 006.03 6.68c0 .72.72 1.04 1.27 1.287l.541.234c1.04.468 1.921.986 1.921 2.273a2.494 2.494 0 01-2.463 2.5h-.066a2.464 2.464 0 01-2.52-2.087l.875-.247c.084.84.782 1.486 1.626 1.503a1.62 1.62 0 001.654-1.577c0-.948-.739-1.27-1.49-1.613l-.492-.21C5.943 8.306 5.13 7.833 5.13 6.67a2.119 2.119 0 012.26-2.056 2.322 2.322 0 012.095 1.23l-.72.486z" fill="#1D1D1B"/><path fill-rule="evenodd" clip-rule="evenodd" d="M14.836 12.84h.857V7.796h-.857v.714a2.186 2.186 0 00-1.724-.856c-1.514 0-2.426 1.232-2.426 2.673a2.464 2.464 0 002.414 2.648 2.1 2.1 0 001.736-.838v.703zm-1.644-.647c-1.071 0-1.65-.937-1.65-1.928a1.718 1.718 0 011.644-1.835 1.688 1.688 0 011.693 1.848c0 1.022-.615 1.915-1.687 1.915z" fill="#1D1D1B"/><path d="M18.18 12.84h-.856V8.589h-.523v-.794h.523v-1.81h.857v1.81h.904v.795h-.904v4.25zm6.522-3.874a.813.813 0 00-.683-.517.616.616 0 00-.617.56c0 .468.58.616 1.165.88a1.533 1.533 0 011.164 1.448 1.65 1.65 0 01-1.707 1.645 1.848 1.848 0 01-1.779-1.288l.77-.308c.216.474.468.806 1.028.806a.77.77 0 00.819-.806c0-1.126-2.272-.74-2.272-2.328a1.435 1.435 0 011.496-1.428c.593.02 1.118.387 1.343.936l-.727.4zm3.147-3.38v2.407h2.69v.837h-2.69v4.01h-.905V4.754h3.695v.831h-2.79z" fill="#1D1D1B"/><circle cx="20.447" cy="5.899" r=".61" fill="#4C8A32"/><path d="M32.246 12.84a5.678 5.678 0 01-11.356 0V7.796h-.874v5.044a6.553 6.553 0 0013.105 0V7.796h-.875v5.044z" fill="#4C8A32"/><circle cx="32.677" cy="5.899" r=".61" fill="#4C8A32"/><path d="M5.994 15.242v.757h-.08v-.758h-.1v-.08h.093v-.394c0-.234.117-.283.222-.283h.067v.074h-.061c-.067 0-.141.03-.141.221v.382h.202v.08h-.202zm.394-.08h.08v.11a.191.191 0 01.252-.117l-.037.08a.116.116 0 00-.061 0c-.173 0-.173.227-.173.327v.45h-.062v-.85z" fill="#3B3C43"/><path fill-rule="evenodd" clip-rule="evenodd" d="M7.343 16.018a.438.438 0 00.437-.438v-.013a.43.43 0 00-.438-.425.438.438 0 000 .875zm-.007-.783a.351.351 0 11.013.702.351.351 0 01-.013-.702z" fill="#3B3C43"/><path d="M8.063 15.161h.08v.105a.26.26 0 01.388-.074.21.21 0 01.092.11.253.253 0 01.246-.153.26.26 0 01.185.074.303.303 0 01.074.228v.554h-.105v-.567a.247.247 0 00-.049-.172.154.154 0 00-.123-.043c-.222 0-.222.222-.222.27V16H8.53v-.537c0-.055 0-.233-.185-.233s-.215.123-.215.289v.48h-.063l-.005-.837zm2.543-.296a.283.283 0 00-.265-.166.24.24 0 00-.252.228c0 .147.098.197.234.265.095.039.185.085.27.142a.29.29 0 01.142.264.4.4 0 01-.412.394.394.394 0 01-.315-.142.443.443 0 01-.086-.147l.056-.006a.351.351 0 00.332.246.314.314 0 00.327-.302.24.24 0 00-.13-.214l-.233-.118a.511.511 0 01-.24-.184.283.283 0 01-.037-.155.32.32 0 01.32-.339.358.358 0 01.332.191l-.043.043zm.702 1.145l-.4-.849h.086l.35.745.303-.745h.098l-.548 1.305H11.1l.209-.456zm.646-.849h.08v.13a.283.283 0 01.253-.149.253.253 0 01.234.118.426.426 0 01.043.209v.53h-.08v-.53a.315.315 0 00-.036-.167.16.16 0 00-.161-.08.222.222 0 00-.203.118.401.401 0 00-.043.222v.437h-.08l-.007-.838zm1.62.197a.393.393 0 00-.295-.135.358.358 0 00-.34.382.363.363 0 00.34.338.438.438 0 00.295-.153v.11a.468.468 0 01-.308.117.43.43 0 01-.431-.437.438.438 0 01.72-.333l.02.11zm.265-.85h.08v.783a.29.29 0 01.26-.149.26.26 0 01.232.118.418.418 0 01.037.209v.53h-.08v-.53a.308.308 0 00-.03-.167.179.179 0 00-.167-.08.203.203 0 00-.203.118.467.467 0 00-.049.222v.437h-.08v-1.49zm.948.653h.08v.111a.197.197 0 01.185-.13.142.142 0 01.087 0l-.043.068h-.056c-.172 0-.172.222-.172.327v.45h-.08v-.826z" fill="#3B3C43"/><path fill-rule="evenodd" clip-rule="evenodd" d="M15.305 15.58a.438.438 0 10.874 0 .438.438 0 00-.874 0zm.438-.35c.193 0 .35.156.35.35a.351.351 0 01-.345.345.358.358 0 01-.357-.345c0-.194.157-.35.351-.35z" fill="#3B3C43"/><path d="M16.456 15.161h.08v.13a.283.283 0 01.253-.149.253.253 0 01.234.118.425.425 0 01.043.209v.53h-.086v-.53a.308.308 0 00-.031-.167.179.179 0 00-.166-.08.203.203 0 00-.203.118.4.4 0 00-.043.222v.437h-.087l.006-.838zm1.213.85l-.4-.85h.098l.352.745.302-.745h.092l-.548 1.305h-.092l.196-.456z" fill="#3B3C43"/></svg>