<svg role="img" width="38" height="24" viewBox="0 0 38 24" aria-labelledby="pi-saunaandwellnesscadeau" version="1.1" xmlns="http://www.w3.org/2000/svg"><title id="pi-saunaandwellnesscadeau">Sauna &amp; Wellness cadeaukaart</title><path d="M35 0H3a3 3 0 00-3 3v18a3 3 0 003 3h32a3 3 0 003-3V3a3 3 0 00-3-3z" opacity=".07"/><path d="M35 1a2 2 0 012 2v18a2 2 0 01-2 2H3a2 2 0 01-2-2V3a2 2 0 012-2h32" fill="#03b0e7" fill-opacity="1"/><path d="M26.014 11.386c-1.04 0-1.098.923-1.098 2.464 0 3.216-2.408 4.853-5.898 4.853-3.017 0-5.78-1.58-5.78-4.293 0-2.099 1.605-3.1 2.939-3.274-1.646-.731-2.174-1.599-2.174-2.812 0-1.213.805-2.926 3.8-2.926 2.607 0 3.565 1.118 3.565 2.389 0 .771-.704 1.233-1.175 1.233 0-2.157-1.313-2.694-2.39-2.694-1.196 0-2.293.81-2.293 2.003 0 2.31 3.39 1.964 3.39 3.293 0 .192-.04.5-.332.848-.139-.174-.43-.502-1.254-.502-1.391 0-2.546 1.06-2.546 2.464 0 2.444 2.702 3.37 4.25 3.37 2.96 0 4.547-1.541 4.547-3.37.04-.5.04-.751.04-2.31 0-.578-.196-.674-.725-.674-1.195 0-1.9.444-1.9 1.29 0 .844 1 1.117 1.41 1.117 0 0-.078.905-.94.905-.998 0-1.743-.868-1.743-2.08 0-.81.566-2.157 3.173-2.157h2.98c.936 0 2.067-.415 1.77-1.325-1.202-3.552-4.607-6.117-8.625-6.117-5.025 0-9.097 4.003-9.097 8.94 0 4.938 4.072 8.94 9.097 8.94 5.024 0 9.096-4.002 9.096-8.94 0-.298-.016-.6-.045-.896-.227.16-.502.285-.883.285-.412 0-.629-.02-1.157-.02" fill="#fff" fill-rule="evenodd"/></svg>