<svg width="38" height="24" viewBox="0 0 38 24" fill="none" xmlns="http://www.w3.org/2000/svg" role="img" aria-labelledby="pi-sbpl"><title id="pi-sbpl">ShopBack</title><path opacity=".07" d="M35 0H3C1.3 0 0 1.3 0 3v18c0 1.7 1.4 3 3 3h32c1.7 0 3-1.3 3-3V3c0-1.7-1.4-3-3-3z" fill="#000"/><path d="M35 1c1.1 0 2 .9 2 2v18c0 1.1-.9 2-2 2H3c-1.1 0-2-.9-2-2V3c0-1.1.9-2 2-2h32z" fill="#000"/><path d="M8.621 10.035c0 1.111-.97 1.777-2.118 1.777-.519 0-.985-.126-1.4-.37a1.857 1.857 0 01-.743-.836 2.245 2.245 0 01-.138-.424l1.4-.363.002.006a.95.95 0 00.894.595c.348 0 .518-.104.518-.319 0-.2-.192-.296-.637-.415l-.578-.163C5 9.286 4.547 8.768 4.547 7.968c-.022-.978.948-1.622 1.97-1.607.393 0 .756.096 1.104.281.232.124.417.291.553.498.105.152.195.378.244.587l-1.282.33v-.002l-.003.002c-.104-.26-.297-.385-.578-.385-.23 0-.422.081-.422.259 0 .177.192.266.577.378l.556.155c.904.252 1.356.778 1.356 1.57zm5.822-.948c-.022 1.503 1.178 2.755 2.785 2.725 1.607.03 2.807-1.222 2.785-2.725.022-1.504-1.177-2.755-2.785-2.726-1.607-.03-2.807 1.222-2.785 2.726zm3.985 0c0 .689-.437 1.259-1.2 1.259-.763 0-1.2-.57-1.2-1.26 0-.688.437-1.258 1.2-1.258.763 0 1.2.57 1.2 1.259zm2.208-2.592v5.185h1.555v-1.46h1.037c1.111 0 1.837-.785 1.837-1.874s-.726-1.851-1.837-1.851h-2.592zm2.844 1.859c0 .266-.163.459-.526.459h-.763v-.911h.763c.363 0 .526.192.526.452zm-11.19-1.86V8.47l-1.632.422V6.495H9.103v5.185h1.555v-1.417l1.633-.423v1.84h1.555V6.495H12.29zM4.614 18.347h2.652c1.06 0 1.733-.63 1.733-1.497 0-.733-.415-1.162-.889-1.34.296-.237.444-.57.444-.993 0-.785-.666-1.355-1.681-1.355h-2.26v5.185h.001zm1.556-3.208v-.71h.48c.267 0 .4.155.4.354 0 .2-.133.356-.4.356h-.48zm0 1.934v-.734h.8c.303 0 .474.148.474.363 0 .245-.156.37-.474.37h-.8zm8.288-1.319c-.023 1.504 1.177 2.755 2.785 2.726 1.118 0 2-.526 2.466-1.408l-1.415-.681c-.214.415-.57.622-1.051.622-.756 0-1.2-.593-1.2-1.26 0-.666.444-1.259 1.2-1.259.481 0 .837.208 1.052.622l1.414-.681c-.466-.882-1.348-1.408-2.466-1.408-1.607-.03-2.807 1.222-2.785 2.726v.001zm5.748 2.592h1.555v-2.148h.497l1.133 2.148h1.822l-1.556-2.792 1.415-2.393h-1.733l-1.578 2.718V13.16h-1.555v5.185zm-5.563 0h-1.644l-.3-.822-1.874.485-.123.337H9.058l2.148-5.185h1.289l2.148 5.185zm-2.405-2.074l-.387-1-.474 1.224.86-.223z" fill="#fff"/><path d="M32.83 12.778h-.276l.493-.406c.342-.282.49-.746.349-1.165a1.042 1.042 0 00-.997-.717h-4.366a.092.092 0 01-.065-.157l2.898-2.849c.035-.035.094.005.074.05l-1.009 2.361h1.294l2.424-5.673h-1.163l-5.75 5.655a1.048 1.048 0 00-.217 1.192c.175.38.567.61.984.61h4.258c.086 0 .125.108.058.163l-.99.816a1.189 1.189 0 00-.337.45l-.367.86h2.095a.09.09 0 01.058.161l-4.272 3.519c-.038.03-.09-.01-.072-.054l1.55-3.627.132-.31.591-1.383h-1.293l-3.206 7.504h1.583l6.235-5.136c.353-.29.478-.758.315-1.187a1.075 1.075 0 00-1.01-.677z" fill="#FF3407"/></svg>