<svg xmlns="http://www.w3.org/2000/svg" role="img" viewBox="0 0 38 24" width="38" height="24" aria-labelledby="pi-scalapay"><title id="pi-scalapay">Scalapay</title><path d="M35 1H3a2 2 0 0 0-2 2v18a2 2 0 0 0 2 2h32a2 2 0 0 0 2-2V3a2 2 0 0 0-2-2Z" fill="#F7CBCF"/><path fill-rule="evenodd" clip-rule="evenodd" d="M3 0h32a3 3 0 0 1 3 3v18a3 3 0 0 1-3 3H3a3 3 0 0 1-3-3V3a3 3 0 0 1 3-3Zm0 1h32a2 2 0 0 1 2 2v18a2 2 0 0 1-2 2H3a2 2 0 0 1-2-2V3a2 2 0 0 1 2-2Z" fill="#000" fill-opacity=".07"/><path fill-rule="evenodd" clip-rule="evenodd" d="M4.058 11.31a.223.223 0 0 1 .009-.308l.91-.91a.246.246 0 0 1 .344 0l.696.695c.094.094.25.094.345 0l.675-.676a.246.246 0 0 1 .345 0l.907.907c.085.086.089.22.008.31l-1.93 2.143a.245.245 0 0 1-.361 0l-1.948-2.16Zm5.257 1.482.363-.538c.19.173.483.278.766.278.201 0 .357-.099.357-.238 0-.422-1.354-.272-1.354-1.175 0-.538.519-.874 1.072-.874.362 0 .76.139.944.283l-.351.545a.94.94 0 0 0-.536-.191c-.207 0-.38.08-.38.225 0 .365 1.353.22 1.353 1.193 0 .538-.524.868-1.111.868-.386 0-.795-.133-1.123-.376Zm4.884-.689.576.434c-.329.44-.743.631-1.267.631-.864 0-1.498-.648-1.498-1.459 0-.816.651-1.464 1.503-1.464.484 0 .916.226 1.175.561l-.53.47a.808.808 0 0 0-.645-.336.75.75 0 0 0-.754.77c0 .44.317.764.772.764a.818.818 0 0 0 .668-.37Zm3.081.023v-.84a.857.857 0 0 0-.691-.346c-.438 0-.72.364-.72.77 0 .44.317.764.737.764.282 0 .53-.14.674-.348Zm.749-1.823v2.807h-.72v-.225c-.23.197-.495.283-.778.283-.414 0-.806-.185-1.054-.474a1.512 1.512 0 0 1-.357-.985c0-.827.61-1.464 1.371-1.464.317 0 .6.104.818.283v-.225h.72ZM19.642 9v4.11h-.75V9h.75Zm2.793 3.126v-.84a.857.857 0 0 0-.691-.346c-.438 0-.72.364-.72.77 0 .44.317.764.737.764.282 0 .53-.14.674-.348Zm.749-1.823v2.807h-.72v-.225c-.23.197-.496.283-.778.283-.415 0-.806-.185-1.054-.474a1.512 1.512 0 0 1-.357-.985c0-.827.61-1.464 1.37-1.464.318 0 .6.104.819.283v-.225h.72Zm.864 4.197v-4.197h.72v.225c.218-.18.5-.283.817-.283.76 0 1.371.637 1.371 1.464 0 .383-.132.73-.351.985-.248.29-.645.474-1.06.474-.282 0-.524-.08-.749-.254V14.5h-.748Zm.748-3.213v.84a.817.817 0 0 0 .674.347c.42 0 .737-.325.737-.765 0-.405-.282-.77-.72-.77a.857.857 0 0 0-.69.348Zm4.78.84v-.84a.857.857 0 0 0-.69-.348c-.438 0-.72.365-.72.77 0 .44.316.765.737.765.282 0 .53-.14.674-.348Zm.75-1.824v2.807h-.72v-.225c-.23.197-.496.283-.778.283-.415 0-.806-.185-1.054-.474a1.512 1.512 0 0 1-.357-.985c0-.827.61-1.464 1.37-1.464.317 0 .6.104.819.283v-.225h.72Zm1.75 4.197h-.783l.772-1.673-1.25-2.524h.824l.817 1.684.755-1.684H34L32.076 14.5Z" fill="#272727"/></svg>