<svg width="38" height="24" viewBox="0 0 38 24" role="img" fill="none" xmlns="http://www.w3.org/2000/svg" aria-labelledby="pi-scantopay"><title id="pi-scantopay">Scan to Pay</title><path d="M1 3a2 2 0 012-2h32a2 2 0 012 2v18a2 2 0 01-2 2H3a2 2 0 01-2-2V3z" fill="#fff"/><path d="M0 21V3a3 3 0 013-3v1a2 2 0 00-2 2v18l.01.204A2 2 0 003 23h32l.204-.01A2 2 0 0037 21V3a2 2 0 00-1.796-1.99L35 1V0a3 3 0 013 3v18a3 3 0 01-3 3H3a3 3 0 01-3-3zM35 0v1H3V0h32z" fill="#000" fill-opacity=".07"/><path d="M2.664 12.222h2.177a.33.33 0 00.33-.295l.209-1.9a.334.334 0 00-.331-.37H2.575l-.242 2.197a.333.333 0 00.331.368zm.498-1.978h1.382c.087 0 .153.074.144.16l-.12 1.101a.145.145 0 01-.145.13H3.171a.145.145 0 01-.144-.16l.135-1.232z" fill="url(#pi-scantopay-paint0_linear_2169_12562)"/><path d="M8.116 12.616a.112.112 0 00-.024-.022l-.025-.019a.334.334 0 00-.187-.057H5.407l-.242 2.196a.33.33 0 00.055.22c.006.01.013.018.019.026a.325.325 0 00.257.122h2.179a.33.33 0 00.327-.295l.21-1.9a.324.324 0 00-.096-.271zm-.719 1.754a.328.328 0 01-.005.026.152.152 0 01-.083.09.147.147 0 01-.054.01H6.002a.144.144 0 01-.135-.088.056.056 0 01-.007-.028.145.145 0 01-.002-.045l.135-1.232h1.384c.02 0 .04.005.059.011a.134.134 0 01.044.032l.017.02a.064.064 0 01.013.026c.008.02.013.046.01.07l-.122 1.108z" fill="url(#pi-scantopay-paint1_linear_2169_12562)"/><path d="M5.01 12.692a.324.324 0 00-.294-.174H2.243l-.24 2.196a.322.322 0 00.094.27c.059.06.141.098.235.098H4.51a.33.33 0 00.327-.295l.21-1.9a.325.325 0 00-.038-.195zm-.655.572l-.12 1.103a.145.145 0 01-.144.128H2.838a.145.145 0 01-.144-.16l.137-1.231h1.382c.08 0 .144.066.144.145l-.002.015z" fill="url(#pi-scantopay-paint2_linear_2169_12562)"/><path d="M7.745 11.362l-.016.144a.144.144 0 01-.144.13H6.333a.144.144 0 01-.143-.16l.134-1.232h.34l.063-.588H5.74l-.242 2.198a.333.333 0 00.331.368h2.177a.328.328 0 00.328-.295l.062-.565h-.65z" fill="url(#pi-scantopay-paint3_linear_2169_12562)"/><path d="M9.092 9H6.969l-.207 1.885a.285.285 0 00.283.315h1.869a.283.283 0 00.282-.253l.179-1.63A.285.285 0 009.092 9zm-.538 1.697H7.48a.124.124 0 01-.124-.137l.115-1.057h1.187c.074 0 .132.064.124.138l-.104.946a.124.124 0 01-.124.11z" fill="url(#pi-scantopay-paint4_linear_2169_12562)"/><path d="M9.091 9.001H6.97l-.073.656-.064.587-.07.642a.286.286 0 00.283.315h1.868c.144 0 .268-.11.282-.253l.179-1.63a.285.285 0 00-.283-.316zm-.413 1.587a.125.125 0 01-.123.11H7.48a.125.125 0 01-.124-.137l.035-.317.063-.587.018-.154h1.187c.073 0 .132.065.124.138l-.105.947z" fill="url(#pi-scantopay-paint5_linear_2169_12562)"/><path d="M12.669 12.14a.76.76 0 00-.243-.171 2.317 2.317 0 00-.363-.13 6.24 6.24 0 01-.27-.083.812.812 0 01-.143-.06.198.198 0 01-.07-.068.16.16 0 01-.024-.086.16.16 0 01.018-.078.164.164 0 01.053-.059.25.25 0 01.088-.035.56.56 0 01.316.025 1.062 1.062 0 01.39.233l.378-.422a1.259 1.259 0 00-.276-.193 1.511 1.511 0 00-.712-.17c-.122 0-.241.017-.356.05a.973.973 0 00-.306.151.78.78 0 00-.21.234.649.649 0 00.11.767c.065.066.15.123.253.173.103.049.225.092.366.128.098.027.179.05.242.072.063.02.107.039.134.053.054.033.081.08.081.14 0 .03-.006.055-.018.078a.178.178 0 01-.051.058.25.25 0 01-.083.038.426.426 0 01-.112.014.945.945 0 01-.647-.27l-.435.377c.105.126.246.227.424.301.178.075.384.112.617.112.192 0 .362-.034.512-.101a.86.86 0 00.352-.278.676.676 0 00.128-.407.651.651 0 00-.035-.217.502.502 0 00-.108-.178v.001zm1.382-.595a.571.571 0 01.3-.079.658.658 0 01.405.135.94.94 0 01.148.134l.39-.466a1.032 1.032 0 00-.424-.315 1.495 1.495 0 00-.586-.112 1.18 1.18 0 00-1.053.603c-.105.188-.158.4-.158.636s.053.448.159.635a1.18 1.18 0 001.052.604c.207 0 .4-.038.582-.113.18-.074.322-.176.424-.305l-.386-.471a.814.814 0 01-.155.144.617.617 0 01-.182.087.757.757 0 01-.216.03.55.55 0 01-.5-.301.649.649 0 01-.074-.31c0-.12.024-.226.072-.319a.534.534 0 01.202-.217zm3.245-.361a.827.827 0 00-.397-.293.948.948 0 00-.312-.05.984.984 0 00-.552.16 1.097 1.097 0 00-.382.438c-.093.185-.139.4-.139.641 0 .243.046.448.14.635.092.187.217.334.374.44.157.106.336.16.537.16a.937.937 0 00.718-.33v.289h.727V10.89h-.714v.294zm-.058 1.231a.505.505 0 01-.189.218.528.528 0 01-.287.076.502.502 0 01-.28-.076.51.51 0 01-.187-.218.773.773 0 01-.067-.334c0-.129.022-.24.067-.335a.498.498 0 01.467-.299c.108 0 .207.027.287.08a.52.52 0 01.189.22.773.773 0 01.067.334c0 .128-.022.24-.067.334zm3.282-1.463a.87.87 0 00-.454-.11.979.979 0 00-.684.294.487.487 0 00-.043.049l-.013-.293h-.683v2.383h.718v-1.428c0-.056.012-.109.034-.157a.433.433 0 01.092-.128.393.393 0 01.14-.085.51.51 0 01.175-.03.378.378 0 01.204.044.286.286 0 01.123.14c.027.064.04.143.04.239v1.405h.723v-1.463c0-.21-.031-.387-.094-.532a.686.686 0 00-.278-.328zm2.7-.662h-.718v.602h-.421v.628h.421v1.755h.719V11.52h.462v-.628h-.462v-.602zm2.633.714a1.337 1.337 0 00-.662-.162c-.248 0-.47.054-.662.162a1.218 1.218 0 00-.458.44 1.208 1.208 0 00-.168.637c0 .239.056.452.168.637.112.186.265.332.458.44.193.107.414.162.662.162.248 0 .47-.054.662-.162.193-.108.345-.255.456-.44a1.22 1.22 0 00.166-.637c0-.24-.056-.452-.166-.637a1.201 1.201 0 00-.456-.44zm-.177 1.396a.563.563 0 01-.198.22.521.521 0 01-.287.08.532.532 0 01-.49-.3.651.651 0 01-.067-.319.664.664 0 01.067-.32.532.532 0 01.49-.303.52.52 0 01.287.08c.084.054.15.128.198.222.048.095.07.201.067.321a.65.65 0 01-.067.319zm3.958-1.394a.956.956 0 00-.543-.16c-.138 0-.268.025-.393.075a.895.895 0 00-.307.195c-.012.011-.021.024-.032.036l-.013-.26h-.682v3.37h.723v-1.23a.904.904 0 00.31.207c.122.05.25.076.385.076.207 0 .39-.053.55-.159.16-.106.286-.252.377-.438.091-.185.137-.398.137-.637 0-.24-.046-.455-.137-.64a1.1 1.1 0 00-.375-.435zm-.256 1.407a.51.51 0 01-.471.296.521.521 0 01-.288-.078.522.522 0 01-.188-.218.758.758 0 01-.068-.332c0-.128.023-.236.068-.332a.506.506 0 01.188-.22.529.529 0 01.288-.076c.11 0 .206.026.285.078.08.052.141.126.186.22a.761.761 0 01.067.33.76.76 0 01-.067.332zm2.855-1.229a.827.827 0 00-.397-.293.947.947 0 00-.312-.05.984.984 0 00-.552.16 1.098 1.098 0 00-.382.438c-.093.185-.139.4-.139.641 0 .243.046.448.14.635.092.187.217.334.374.44.157.106.336.16.536.16a.937.937 0 00.719-.33v.289h.727V10.89h-.714v.294zm-.058 1.231a.505.505 0 01-.189.218.529.529 0 01-.287.076.502.502 0 01-.28-.076.51.51 0 01-.187-.218.773.773 0 01-.067-.334c0-.129.022-.24.067-.335a.498.498 0 01.467-.299c.108 0 .207.027.287.08a.52.52 0 01.189.22.773.773 0 01.067.334c0 .128-.022.24-.067.334zm2.975-1.523l-.44 1.261-.067.2a2.375 2.375 0 00-.098-.263l-.503-1.198h-.813l1.063 2.318-.466 1.098h.714l.413-1.032 1.014-2.384h-.817z" fill="#000"/><defs><linearGradient id="pi-scantopay-paint0_linear_2169_12562" x1=".888" y1="13.541" x2="7.324" y2="7.736" gradientUnits="userSpaceOnUse"><stop stop-color="#B4292D"/><stop offset=".22" stop-color="#CB3C29"/><stop offset=".49" stop-color="#E04D27"/><stop offset=".75" stop-color="#EC5725"/><stop offset="1" stop-color="#F15B25"/></linearGradient><linearGradient id="pi-scantopay-paint1_linear_2169_12562" x1="3.589" y1="16.519" x2="10.025" y2="10.713" gradientUnits="userSpaceOnUse"><stop stop-color="#B4292D"/><stop offset=".22" stop-color="#CB3C29"/><stop offset=".49" stop-color="#E04D27"/><stop offset=".75" stop-color="#EC5725"/><stop offset="1" stop-color="#F15B25"/></linearGradient><linearGradient id="pi-scantopay-paint2_linear_2169_12562" x1="2.083" y1="15.024" x2="8.519" y2="9.219" gradientUnits="userSpaceOnUse"><stop stop-color="#B4292D"/><stop offset=".22" stop-color="#CB3C29"/><stop offset=".49" stop-color="#E04D27"/><stop offset=".75" stop-color="#EC5725"/><stop offset="1" stop-color="#F15B25"/></linearGradient><linearGradient id="pi-scantopay-paint3_linear_2169_12562" x1="2.395" y1="15.036" x2="8.83" y2="9.23" gradientUnits="userSpaceOnUse"><stop stop-color="#B4292D"/><stop offset=".22" stop-color="#CB3C29"/><stop offset=".49" stop-color="#E04D27"/><stop offset=".75" stop-color="#EC5725"/><stop offset="1" stop-color="#F15B25"/></linearGradient><linearGradient id="pi-scantopay-paint4_linear_2169_12562" x1="6.76" y1="10.1" x2="9.377" y2="10.1" gradientUnits="userSpaceOnUse"><stop stop-color="#B4292D"/><stop offset=".22" stop-color="#CB3C29"/><stop offset=".49" stop-color="#E04D27"/><stop offset=".75" stop-color="#EC5725"/><stop offset="1" stop-color="#F15B25"/></linearGradient><linearGradient id="pi-scantopay-paint5_linear_2169_12562" x1="6.761" y1="10.101" x2="9.376" y2="10.101" gradientUnits="userSpaceOnUse"><stop stop-color="#B4292D"/><stop offset=".22" stop-color="#CB3C29"/><stop offset=".49" stop-color="#E04D27"/><stop offset=".75" stop-color="#EC5725"/><stop offset="1" stop-color="#F15B25"/></linearGradient></defs></svg>