<svg width="38" height="24" viewBox="0 0 38 24" fill="none" xmlns="http://www.w3.org/2000/svg" role="img" aria-labelledby="pi-screamtruck"><title id="pi-screamtruck">Scream Truck</title><rect x="1" y="1" width="36" height="22" rx="2" fill="#fff"/><rect x=".5" y=".5" width="37" height="23" rx="2.5" stroke="#000" stroke-opacity=".07"/><g clip-path="url(#pi-screamtruck-clip0_551_1452)" fill-rule="evenodd" clip-rule="evenodd" fill="#FF249C"><path d="M6.182 6.767a.877.877 0 00-.407-.282 1.447 1.447 0 00-.486-.091c-.089 0-.181.01-.276.031a1.061 1.061 0 00-.268.1.585.585 0 00-.205.178.454.454 0 00-.08.27c0 .17.064.3.19.39.126.09.285.166.478.23.192.064.398.127.62.19.22.064.427.154.62.27.191.117.35.273.477.47.126.195.19.457.19.786 0 .312-.058.585-.174.818a1.656 1.656 0 01-.47.58 1.986 1.986 0 01-.687.34 3 3 0 01-.825.112c-.363 0-.7-.056-1.01-.167-.311-.11-.6-.29-.869-.54l.876-.969a1.355 1.355 0 001.378.497.994.994 0 00.276-.108.598.598 0 00.198-.182.458.458 0 00.075-.262.477.477 0 00-.194-.401 1.787 1.787 0 00-.485-.25 15.189 15.189 0 00-.632-.207 2.812 2.812 0 01-.631-.278 1.52 1.52 0 01-.486-.46c-.13-.191-.193-.443-.193-.755 0-.302.059-.567.177-.795a1.72 1.72 0 01.474-.571c.197-.154.425-.27.683-.346.258-.077.523-.115.797-.115.316 0 .621.045.916.135.295.09.56.241.798.453l-.845.929zm5.345.087a1.21 1.21 0 00-.446-.341c-.177-.08-.38-.12-.612-.12a1.533 1.533 0 00-1.157.513 1.757 1.757 0 00-.34.576 2.079 2.079 0 00-.122.723c0 .264.041.507.123.726.081.22.193.41.335.572.142.162.31.287.502.377.192.09.398.135.62.135a1.322 1.322 0 001.152-.603l1.026.77c-.236.334-.536.58-.9.739a2.772 2.772 0 01-1.12.238c-.438 0-.84-.069-1.209-.206a2.762 2.762 0 01-.955-.592 2.683 2.683 0 01-.628-.933 3.193 3.193 0 01-.225-1.223c0-.45.075-.858.225-1.224.15-.365.36-.676.628-.933a2.76 2.76 0 01.955-.591 3.423 3.423 0 011.208-.207c.158 0 .322.015.494.044.17.029.34.075.505.139.166.063.325.148.478.254.152.106.29.235.41.389l-.947.778zm2.431.866h.727c.11 0 .227-.004.351-.012.124-.008.236-.032.336-.071a.58.58 0 00.248-.187.57.57 0 00.099-.357.598.598 0 00-.087-.342.584.584 0 00-.22-.195.982.982 0 00-.309-.09 2.51 2.51 0 00-.34-.025h-.805v1.28zm-1.231-2.327h2.163c.284 0 .554.028.81.083.254.056.478.149.67.278.192.13.345.305.458.525.114.22.17.493.17.822 0 .397-.103.734-.308 1.012-.205.278-.505.454-.9.528l1.421 2.375h-1.476l-1.168-2.248h-.609v2.248h-1.231V5.393zm5.084 0h3.798v1.144h-2.566v1.048h2.424V8.73h-2.424v1.143h2.708v1.144h-3.94V5.393zm7.161 1.636l-.679 1.747h1.366l-.687-1.747zm-.474-1.636h1.019l2.431 5.623H26.56l-.482-1.191h-2.17l-.466 1.191h-1.359l2.416-5.623zm3.932 0h1.863l1.287 3.67h.016l1.295-3.67h1.855v5.623h-1.231V6.703h-.016l-1.469 4.313h-.94l-1.412-4.313h-.016v4.313H28.43V5.393zM5.024 13.158h-1.95v-1.34H8.48v1.34H6.53v5.537H5.023v-5.537zm5.533 1.506h.888c.135 0 .278-.005.43-.015.151-.01.288-.038.41-.087a.71.71 0 00.304-.228c.081-.104.121-.25.121-.438a.729.729 0 00-.106-.417.711.711 0 00-.27-.238 1.197 1.197 0 00-.377-.112c-.142-.02-.28-.03-.415-.03h-.985v1.565zM9.05 11.818h2.646c.348 0 .678.034.99.101.312.069.586.182.82.34.236.16.423.373.561.642.139.268.208.604.208 1.005 0 .486-.126.899-.377 1.239-.251.34-.618.555-1.1.646l1.737 2.904H12.73l-1.43-2.749h-.743v2.75H9.05v-6.878zm11.83 4.225c0 .408-.061.784-.184 1.127a2.484 2.484 0 01-.545.894 2.5 2.5 0 01-.903.592 3.36 3.36 0 01-1.246.214 3.4 3.4 0 01-1.255-.214 2.497 2.497 0 01-.903-.592 2.478 2.478 0 01-.546-.894 3.33 3.33 0 01-.183-1.127v-4.225h1.506v4.167c0 .214.034.412.102.593.067.181.162.338.284.47.123.134.27.237.44.312.17.074.356.111.555.111a1.305 1.305 0 00.985-.422 1.42 1.42 0 00.285-.471c.067-.181.101-.38.101-.593v-4.167h1.507v4.225zm5.668-2.438a1.481 1.481 0 00-.545-.418 1.807 1.807 0 00-.749-.145 1.878 1.878 0 00-1.415.626 2.156 2.156 0 00-.415.704c-.1.273-.15.567-.15.885 0 .323.05.62.15.888.1.27.237.502.41.7.174.197.379.351.614.461.235.11.487.165.758.165.309 0 .582-.064.82-.194.239-.13.435-.31.59-.544l1.255.942c-.29.408-.657.71-1.1.904a3.392 3.392 0 01-1.372.291 4.193 4.193 0 01-1.478-.252 3.38 3.38 0 01-1.168-.724 3.284 3.284 0 01-.768-1.141 3.903 3.903 0 01-.275-1.496c0-.551.092-1.05.275-1.497a3.29 3.29 0 01.768-1.141 3.38 3.38 0 011.168-.724 4.204 4.204 0 011.478-.252 3.6 3.6 0 01.604.053c.209.036.415.093.618.17.202.078.397.181.584.31.187.13.354.29.502.477l-1.159.952zm2.009-1.787h1.506v2.856l2.656-2.856h1.97l-3.042 3.196 3.303 3.681h-2.106l-2.781-3.264v3.264h-1.506v-6.877z"/></g><defs><clipPath id="pi-screamtruck-clip0_551_1452"><path fill="#fff" transform="translate(3 5.25)" d="M0 0h32v13.651H0z"/></clipPath></defs></svg>