<svg viewBox="0 0 38 24" xmlns="http://www.w3.org/2000/svg" xmlns:xlink="http://www.w3.org/1999/xlink" version="1" width="38" height="24" role="img" aria-labelledby="pi-seb"><title id="pi-seb">SEB</title><path fill="#fff" stroke-width=".995" d="M0 0h38v24H0z"/><path d="M0 16.24l2.167-1.617c1.517 1.32 2.578 1.51 3.463 1.51 1.01 0 1.959-.215 2.085-.79.095-.455-.284-.821-1.15-1.023-.98-.221-1.8-.41-2.723-.651-2.496-.657-3.204-2.104-3.204-3.406 0-1.794 1.675-3.64 4.726-3.64 3.135 0 4.967 1.795 4.967 1.795l-2.047 1.53c-.967-.835-2.212-.993-2.9-.993-.696 0-1.422.196-1.536.695-.107.487.341.86 1.118 1.075.879.233 1.687.442 2.92.796 1.838.524 3.102 1.32 3.102 3.172 0 2.54-2.256 3.854-5.289 3.854-3.026 0-5.08-1.573-5.699-2.306"/><path d="M11.898 4.172h.708v16.675h-.708z"/><path transform="translate(12.858)" d="M11.898 4.172h.708v16.675h-.708z"/><path d="M14.261 18.212V6.801h9.13v2.61h-5.926v1.819h4.195v2.515h-4.195v1.839h6.09v2.628h-9.294"/><path d="M27.12 18.212V6.807h6.703c1.928 0 3.488 1.125 3.488 2.888 0 1.396-.86 2.211-1.636 2.52 0 0-.05.013-.133.02a.83.83 0 0 1 .133.019c1.352.43 2.325 1.409 2.325 2.887 0 1.89-1.592 3.071-3.551 3.071h-7.33m3.223-2.534h3.128c.556 0 1.004-.448 1.004-1.042 0-.588-.448-1.036-1.004-1.036h-3.128v2.078m0-4.499h2.553c.594 0 1.067-.467 1.067-.998 0-.537-.473-1.005-1.067-1.005h-2.553v2.003"/></svg>
