<svg role="img" viewBox="0 0 38 24" width="38" height="24" aria-labelledby="pi-seicomart" fill="none" xmlns="http://www.w3.org/2000/svg"><title id="pi-seicomart">Seicomart</title><path opacity=".07" d="M35 0H3C1.3 0 0 1.3 0 3v18c0 1.7 1.4 3 3 3h32c1.7 0 3-1.3 3-3V3c0-1.7-1.4-3-3-3z" fill="#000"/><path fill="#fff" d="M35 .9a2 2 0 012 2v18a2 2 0 01-2 2H3a2 2 0 01-2-2v-18a2 2 0 012-2h32"/><path fill="#f08500" d="M1 7.3h36v9.1H1z"/><g fill="#fff"><path d="M6.24 12.28c.05.4.36.55.84.55.27 0 .51-.06.84-.21l.13.67c-.35.14-.78.2-1.15.2-.95 0-1.67-.56-1.67-1.5s.64-1.5 1.53-1.5c1.06 0 1.45.75 1.45 1.6v.18H6.23zm1.09-.56c0-.33-.15-.6-.55-.6-.36 0-.53.27-.55.6h1.1zm4.17 1.05c-.42 0-.75-.29-.76-.77 0-.48.33-.77.76-.77.24 0 .36.05.54.16l.13-.73c-.23-.11-.49-.16-.79-.16-.94 0-1.66.55-1.67 1.5 0 .95.72 1.5 1.67 1.5.3 0 .56-.05.79-.16l-.13-.73c-.18.11-.3.16-.54.16zm-9.39.57c.37.11.75.16 1.28.16.77 0 1.68-.2 1.68-1.17 0-.81-.65-.96-1.22-1.09-.38-.09-.73-.17-.73-.48 0-.16.12-.36.7-.36.32 0 .63.08.89.2l.13-.7c-.35-.13-.75-.19-1.23-.19-.76 0-1.52.35-1.52 1.14 0 .74.6.9 1.12 1.03.38.1.74.19.74.53 0 .4-.47.4-.63.4-.43 0-.82-.11-1.07-.19l-.13.73zm7.35.09v-2.85s-.99-.14-.99.74v2.11h.99zm3.35-2.18s-.04.02-.04.04.02.04.04.04.04-.02.04-.04-.02-.04-.04-.04zm1.5 1.58h.01c.09.02.18.04.26.04.27 0 .48-.13.61-.3h.02v.01c-.09.23-.26.44-.32.49-.04.03-.11.03-.11.03-.23 0-.37-.09-.49-.22 0 0 0-.01-.01-.02v-.02c0-.01.01-.02.03-.02zm.03-.38c.45 0 .53-.26.63-.47 0 0 .12-.25.31-.3v-.01a1.55 1.55 0 00-.44-.79h-.01s-.09.12-.09.33c0 .16.04.3.04.45 0 .09-.01.19-.06.3a.64.64 0 01-.29.33s-.06.04-.21.08c-.02 0-.03.02-.02.04 0 .01.01.02.02.02 0 0 .03.01.1.01z"/><path d="M13.17 11.24c-.31.37-.15.76.11.86.05.02.32.11.46-.25.08-.2.06-.38.14-.58.15-.37.43-.54.7-.59v-.02a1.562 1.562 0 00-2.39 1.32 1.562 1.562 0 002.44 1.29s-.58.16-1.18-.06c-1.07-.41-.72-1.4-.72-1.7 0-.1-.04-.15-.08-.19-.04-.04-.09-.08-.08-.1 0-.03.11-.03.2-.02.11.01.17.03.23.04h.16zm11.55-.14v-.54c-.25 0-.9.03-.9.75v2.11h.98v-1.2c0-.56.18-.97.67-.97h.61v1.18c0 .68.22 1.07 1.1 1.07.25 0 .36-.02.58-.07l-.11-.62s-.09.03-.18.03c-.31 0-.39-.17-.39-.52v-1.07h.69v-.7h-.69v-.83s-.99-.14-.99.74v.09h-.48c-.27 0-.74.13-.88.55s-.01 0-.01 0m-8.29-.53c-.25 0-.9.03-.9.75v2.11h.99v-1.21c0-.62.21-.9.56-.9.28 0 .4.24.4.57v1.54h.99v-1.21c0-.62.21-.9.56-.9.28 0 .4.24.4.57v1.54h.99v-1.69c0-.78-.19-1.24-1.01-1.24-.41 0-.79.16-1.02.55-.15-.37-.49-.55-.9-.55-.45 0-.85.18-1.04.59h-.01v-.52zm7.12 2.85c-.04-.23-.06-.45-.06-.67v-1.07c0-.87-.63-1.19-1.36-1.19-.42 0-.78.06-1.13.2v.67c.28-.15.59-.21.91-.21.36 0 .65.1.65.49-.13-.02-.3-.04-.46-.04-.53 0-1.48.1-1.48.98 0 .62.51.9 1.07.9.41 0 .68-.16.91-.52.19.55.91.45.93.45zm-1.59-.59c-.23 0-.41-.12-.41-.31 0-.27.26-.38.6-.38.15 0 .29.01.42.02 0 .34-.24.68-.61.68z"/></g><path d="M38.58 12c0 2.6-2.1 4.7-4.7 4.7s-4.7-2.1-4.7-4.7 2.1-4.7 4.7-4.7 4.7 2.1 4.7 4.7zm-.72-3.92c-.07 0-.13.06-.13.13s.06.13.13.13.13-.06.13-.13-.06-.13-.13-.13z"/><path fill="#fff" d="M36.46 10.94c-.16-.03-1.38-.36-2.08 1.29-.31.73-.82 1.25-2.07 1.09-.04 0-.07-.03-.08-.07-.01-.05.02-.11.08-.12 0 0 1.03-.14 1.47-1.23.52-1.27-.25-1.94.18-3 .2-.5.65-.6.65-.6-.04 0 .39-.1-.12-.21-.87-.19-2.52.07-3.21 1.76-.25.62-.2 1.17-.44 1.76-.44 1.08-1.24.81-1.39.75-.78-.32-1.24-1.48-.32-2.59v-.02h-.02c-.1.01-.32.04-.49.02-.18-.03-.37-.1-.69-.13-.27-.03-.57-.02-.6.06-.03.07.14.19.25.31.11.11.23.27.23.57 0 .92-1.05 3.9 2.15 5.12 0 0 2.82 1.14 5.66-.74.23-.16.08-.21-.13-.11 0 0-1.97.76-3.01-.15-.01-.02-.03-.03-.03-.05 0-.02-.01-.04 0-.06.01-.03.04-.05.07-.06h.05c1.8.48 2.64-.58 2.93-1.46.31-.94-.12-1.52.95-1.96.24-.1.16-.15.01-.17zm-8.44-.92c-.07 0-.13-.06-.13-.13s.06-.13.13-.13.13.06.13.13-.06.13-.13.13z"/><path d="M31.02 9.76c-.07 0-.13.06-.13.13s.06.13.13.13.13-.06.13-.13-.06-.13-.13-.13z"/></svg>
