<svg xmlns="http://www.w3.org/2000/svg" xmlns:xlink="http://www.w3.org/1999/xlink" version="1.0" id="katman_1" x="0px" y="0px" style="enable-background:new 0 0 1190.55 841.89;" xml:space="preserve" viewBox="238.65 160 712.7 521">
<style type="text/css">
	.st0{fill:#26367D;}
	.st1{clip-path:url(#SVGID_00000165933728503162618370000013584018841918814628_);}
	.st2{fill:#FFFFFF;}
	.st3{fill:#FBBA2C;}
</style>
<path class="st0" d="M302,160h586c34.99,0,63.35,28.36,63.35,63.35v394.3c0,34.99-28.36,63.35-63.35,63.35H302  c-34.99,0-63.35-28.36-63.35-63.35v-394.3C238.65,188.36,267.01,160,302,160z"/>
<g>
	<defs>
		<rect id="SVGID_1_" x="341.04" y="162.96" width="507.9" height="506.81"/>
	</defs>
	<clipPath id="SVGID_00000137126528663880082090000017192719521453020821_">
		<use xlink:href="#SVGID_1_" style="overflow:visible;"/>
	</clipPath>
	<g style="clip-path:url(#SVGID_00000137126528663880082090000017192719521453020821_);">
		<path class="st0" d="M367.09,226.31h455.81c14.38,0,26.04,13.62,26.04,30.41v319.29c0,16.79-11.66,30.41-26.04,30.41H367.09    c-14.38,0-26.05-13.62-26.05-30.41V256.72C341.04,239.93,352.71,226.31,367.09,226.31z"/>
		<path class="st2" d="M404.53,381.92c0,3.22,0,5.34,1.06,8.55c0,1.09,1.05,2.12,1.05,3.22c2.06,13.91,8.3,20.27,21.76,21.38    c9.3,1.08,19.64,2.12,29,3.22c5.18,0,8.3,3.22,8.3,9.58c0,6.38-2.06,10.69-8.3,10.69h-18.64c-6.24,0-8.3-3.22-9.3-12.81h-24.82    v9.66c0,1.08,1.06,3.22,1.06,4.24c1.05,9.6,7.24,16.03,16.58,18.15c6.22,1.09,12.4,1.09,18.64,2.12h18.64    c6.24-1.09,11.4-2.12,17.58-4.24c7.24-2.12,12.42-7.48,13.46-16.03c1.06-7.48,1.06-16.03,1.06-23.5    c-1.05-8.55-5.16-14.94-13.46-17.1l-18.64-3.23c-6.22-1.09-12.42-1.09-18.64-1.09c-7.24,0-9.3-3.22-9.3-9.58    c0-7.48,3.12-9.6,9.3-10.69h10.34c9.3,0,11.4,1.11,12.42,10.69v1.09h24.82v-6.43c0-13.91-6.22-22.47-20.7-24.6    c-14.46-2.12-28.98-2.12-43.46,1.09c-11.4,2.12-16.58,7.48-18.64,20.27C405.55,378.69,404.53,379.8,404.53,381.92z M631.19,458.83    v-27.8h35.18c13.46,0,22.76-8.55,24.82-21.38c1.06-8.55,2.06-17.1,1.06-25.61c-1.06-19.24-10.34-28.82-28.98-29.93    c-17.58-1.09-35.18-1.09-52.82-1.09c-4.12,0-5.18,1.11-5.18,5.35v101.5C613.61,459.92,622.91,459.92,631.19,458.83z     M631.19,407.53V377.6c0,0,2.06-2.12,3.12-2.12h18.64c7.24,1.11,10.36,4.32,10.36,11.78v10.69c0,6.43-2.06,9.58-8.3,9.58H631.19z     M708.83,459.92c1.06-5.34,2.06-11.77,4.18-17.1c0-1.11,2.06-2.14,3.12-2.14h33.1c1.06,0,2.06,2.12,3.12,3.22    c2.06,5.35,3.12,10.69,5.18,16.03h27.94c-1.06-2.12-2.06-5.34-3.12-7.46l-27.94-96.23c0-1.09-2.06-3.22-3.12-3.22h-39.34    c-4.18,12.88-7.24,25.67-11.4,38.49c-6.24,22.41-13.46,45.9-19.64,68.37C680.9,459.87,708.83,459.92,708.83,459.92z     M747.12,421.43h-26.94c4.12-15,8.3-31.01,12.42-45.96h1.05c4.18,15,9.34,29.93,13.46,45.96H747.12z"/>
		<path class="st3" d="M575.35,441.71c-16.6,0-29-7.46-34.18-19.24h37.28l4.12-11.77h-45.58v-8.55l46.59,2.12l5.16-13.86h-49.68    c5.16-14.94,18.64-22.46,36.22-22.46c7.44-0.05,14.81,1.44,21.76,4.26l4.12-14.94c-4.12-2.14-13.46-4.26-26.92-4.26    c-27.95,0-49.71,13.91-56.94,38.49h-12.35l-5.18,11.78h15.52v9.53h-9.3l-6.22,11.78h17.58c6.24,21.37,25.88,34.18,53.82,34.18    c13.46,0,23.82-2.12,27.94-4.26l-3.12-14.94C591.93,440.69,583.63,441.71,575.35,441.71z"/>
	</g>
</g>
</svg>