<svg width="38" height="24" viewBox="0 0 38 24" fill="none" xmlns="http://www.w3.org/2000/svg" role="img" aria-labelledby="pi-sequra"><title id="pi-sequra">SeQura</title><rect x="1" y="1" width="36" height="22" rx="2" fill="#1C1C1C"/><path d="M8.123 12.399c.128.095.232.22.304.366h-.002c.074.161.104.34.086.516a1.03 1.03 0 01-.198.569 1.215 1.215 0 01-.442.358 1.998 1.998 0 01-.592.171 3.22 3.22 0 01-.655.02 2.857 2.857 0 01-.977-.221h-.002a1.716 1.716 0 01-.613-.48.14.14 0 01.027-.203l.43-.302a.154.154 0 01.206.026c.106.117.227.219.36.302.187.108.398.168.613.175h.003c.109.008.218.007.327-.006.104-.01.207-.036.304-.078a.595.595 0 00.22-.154.354.354 0 00.087-.22v-.004a.323.323 0 00-.052-.216.61.61 0 00-.182-.163 1.184 1.184 0 00-.278-.125l-.049-.015a6.344 6.344 0 00-.289-.08c-.204-.053-.4-.11-.587-.173a2.166 2.166 0 01-.496-.232 1.025 1.025 0 01-.334-.345.891.891 0 01-.097-.515v-.004a.918.918 0 01.187-.503c.111-.145.253-.261.416-.341a2.08 2.08 0 01.553-.179 2.53 2.53 0 01.617-.03c.304.017.602.094.877.226.212.102.394.257.528.452a.12.12 0 01-.041.162l-.51.305a.107.107 0 01-.148-.038.997.997 0 00-.347-.294 1.056 1.056 0 00-.452-.117h-.002a1.371 1.371 0 00-.294.01.946.946 0 00-.266.074.566.566 0 00-.194.138.309.309 0 00-.077.194v.002a.218.218 0 00.06.166.727.727 0 00.22.156h.002c.11.055.223.101.34.138.13.042.265.078.406.109.186.044.369.1.548.166.162.056.315.136.455.237z" fill="#fff"/><path fill-rule="evenodd" clip-rule="evenodd" d="M12.574 11.031c.319.37.496.845.499 1.336v.22a.193.193 0 01-.192.196H9.918a1.228 1.228 0 00.685.745 1.193 1.193 0 001.312-.255.212.212 0 01.247-.045l.373.199c.101.053.134.186.06.274-.232.28-.537.494-.883.614-.46.16-.961.143-1.41-.047-.449-.19-.815-.54-1.03-.985a2.086 2.086 0 01-.137-1.434c.125-.478.417-.894.821-1.17a1.968 1.968 0 012.618.352zm-1.342.095c-.298-.04-.6.032-.848.202a1.26 1.26 0 00-.483.64l-.009.027h2.357l-.009-.026a1.268 1.268 0 00-.24-.423 1.23 1.23 0 00-.768-.42z" fill="#fff"/><path d="M19.75 12.712a3.087 3.087 0 01-.72 1.424c.235.084.481.128.73.128.095 0 .172.078.172.175v.533a.174.174 0 01-.172.175 3.007 3.007 0 01-2.148-.9 3.078 3.078 0 01-.889-2.173c0-.097.077-.176.173-.176h.525c.096 0 .173.079.173.176a2.21 2.21 0 00.634 1.548l.023.022.019.017c.317-.304.536-.699.628-1.132a2.214 2.214 0 00-.212-1.493 2.176 2.176 0 00-1.115-1.002 2.144 2.144 0 00-1.491-.033 2.174 2.174 0 00-1.16.95c-.262.444-.36.97-.276 1.481.084.513.345.977.736 1.312.392.336.888.52 1.4.52.074 0 .134.06.134.136v.61c0 .075-.06.137-.134.137a3.02 3.02 0 01-1.964-.73 3.105 3.105 0 01-.645-3.922 3.045 3.045 0 011.626-1.33 3.005 3.005 0 012.091.048 3.05 3.05 0 011.566 1.404c.34.64.446 1.383.296 2.095zM23.492 12.89c.055-.137.084-.283.084-.43v-1.934c0-.107.086-.195.191-.195h.488c.105 0 .191.088.191.195v1.935a2.034 2.034 0 01-.577 1.416 1.97 1.97 0 01-1.393.587 1.964 1.964 0 01-1.395-.587 2.006 2.006 0 01-.577-1.417v-1.934c0-.108.086-.195.192-.195h.487c.105 0 .191.087.191.195v1.934a1.137 1.137 0 00.322.792 1.098 1.098 0 00.779.328 1.086 1.086 0 00.779-.328c.102-.104.183-.227.238-.363zM25.718 10.906c.19-.193.418-.347.667-.451v-.002c.25-.104.517-.158.787-.158.138 0 .25.113.25.253v.373c0 .14-.112.254-.25.254a1.181 1.181 0 00-.843.353 1.201 1.201 0 00-.348.819v1.922a.193.193 0 01-.192.195h-.484a.193.193 0 01-.192-.195V12.23h.008a2.095 2.095 0 01.597-1.324z" fill="#fff"/><path fill-rule="evenodd" clip-rule="evenodd" d="M27.898 12.38c0-1.141.918-2.065 2.049-2.065v-.002c1.13 0 2.05.924 2.046 2.067v1.87a.193.193 0 01-.191.195h-.45a.193.193 0 01-.191-.195v-.208a2.032 2.032 0 01-1.215.402 2.056 2.056 0 01-2.048-2.064zm1.588 1.125c.146.06.303.091.46.09.319 0 .625-.127.851-.355.226-.228.354-.538.356-.862a1.232 1.232 0 00-.356-.86 1.191 1.191 0 00-.85-.354 1.184 1.184 0 00-.852.353 1.224 1.224 0 00.391 1.988z" fill="#fff"/><rect x=".5" y=".5" width="37" height="23" rx="2.5" stroke="#000" stroke-opacity=".07"/></svg>