<svg xmlns="http://www.w3.org/2000/svg" width="38" height="24" viewBox="0 0 38 24" role="img" aria-labelledby="pi-seveneleven"><title id="pi-seveneleven">7-Eleven</title><path d="M35,0H3A3,3,0,0,0,0,3V21a3,3,0,0,0,3,3H35a3,3,0,0,0,3-3V3A3,3,0,0,0,35,0Z" opacity=".07"/><path fill="#fff" d="M35,.9a2,2,0,0,1,2,2v18a2,2,0,0,1-2,2H3a2,2,0,0,1-2-2V2.9a2,2,0,0,1,2-2H35"/><circle fill="#008357" cx="19" cy="11.9" r="9.85"/><path fill="#fff" d="M24.6,18.93a.7.7,0,0,1-.54.53H21.21V20H17.05v-.54H13.94a.69.69,0,0,1-.3-.17.81.81,0,0,1-.22-.43L12.12,6.08a.67.67,0,0,1,.45-.57l12.74,0a.74.74,0,0,1,.56.44.92.92,0,0,1,0,.33Z"/><path fill="#ed1c2e" d="M23.92,10.1a4.27,4.27,0,0,0-2.47,2.79H18a3.64,3.64,0,0,1,.14-.47,7.78,7.78,0,0,1,2.07-3.27,10.36,10.36,0,0,1,2.87-2,4.05,4.05,0,0,1,.55-.2c.09,0,.17-.06.28-.07V10.1"/><path d="M22.84,7a8.48,8.48,0,0,0-1.92,1.2,11.33,11.33,0,0,0-1.79,1.74H14.41v-3Z" fill="#f58220"/><path fill="#008357" d="M20.6,13.16c-.11.81-.23,1.61-.38,2.42h-1.1c-.12-.81-.25-1.61-.36-2.41h.74c.1.6.17,1.21.28,1.79.11-.59.18-1.2.28-1.8h.51m-5,.49H15v.42h.57v.52H15v.48h.57v.5H14.23V13.15h1.33v.51m3,0H18v.42h.57v.52H18v.48h.57v.5H17.28V13.15h1.33v.51m3.51,0h-.58v.42h.57v.52h-.57v.48h.57v.5H20.78V13.15h1.34v.51m-6.3-.51h.74v1.93h.54v.5H15.82V13.15m7.27.27a.68.68,0,0,1,.61-.34c.43,0,.51.31.51.93v1.56h-.74V14.06c0-.22,0-.36-.17-.36s-.21.17-.21.45v1.42h-.74V13.13h.74v.29m-1.17,3c.08,0,.15,0,.15-.1s-.07-.09-.13-.09h-.13v.19h.11m-.11.35h-.09V16.1H22c.15,0,.22.06.22.17a.15.15,0,0,1-.15.17h0l.18.28h-.11l-.16-.27h-.11v.27Zm.11.14a.46.46,0,0,0,.46-.45.45.45,0,0,0-.9,0h0a.44.44,0,0,0,.42.45h0Zm-.54-.49a.55.55,0,0,1,1.09,0,.56.56,0,0,1-.54.56h0a.54.54,0,0,1-.54-.53Z"/><path fill="#ed1c2e" d="M17.29,19.78V18.62c0-.92.11-1.87.24-2.78h3.53c-.13,1.31-.12,2.62-.12,3.94H17.29Z"/></svg>
