<svg width="38" height="24" viewBox="0 0 38 24" fill="none" xmlns="http://www.w3.org/2000/svg" role="img" aria-labelledby="pi-shib"><title id="pi-shib">Shiba Inu</title><path opacity=".07" d="M35 0H3C1.3 0 0 1.3 0 3v18c0 1.7 1.4 3 3 3h32c1.7 0 3-1.3 3-3V3c0-1.7-1.4-3-3-3z" fill="#000"/><path d="M35 1c1.1 0 2 .9 2 2v18c0 1.1-.9 2-2 2H3c-1.1 0-2-.9-2-2V3c0-1.1.9-2 2-2h32z" fill="#fff"/><circle cx="19" cy="12" r="8" fill="#F00500"/><path d="M22.122 12.52c-.006.028-.09.113-.173.175-.246.18-.685.347-1.132.427-.254.047-.509.054-.585.016-.05-.024-.057-.044-.04-.108.038-.134.16-.28.348-.416.096-.07.486-.307.667-.406.299-.164.541-.262.705-.285a.362.362 0 01.133 0c.032.013.068.107.082.22.007.061.004.328-.005.376zM17.93 13.108c-.011.021-.064.045-.125.053-.06.01-.245.004-.35-.008a3.682 3.682 0 01-1.07-.308 1.345 1.345 0 01-.368-.248l-.05-.051-.005-.068a1.854 1.854 0 01.007-.368.483.483 0 01.055-.157c.014-.017.014-.017.078-.017a.77.77 0 01.251.046c.219.068.545.231.941.47.328.195.45.291.545.423.064.082.107.198.09.233zM20.45 15.585c0 .005-.022.09-.049.192a7.131 7.131 0 00-.048.187c-.02.002-.037.003-.057.002h-.057l-.078.185c-.043.101-.082.195-.087.21l-.011.025-.037-.06-.038-.061v-.493l-.014.003a4.85 4.85 0 01-1.509.02 1.182 1.182 0 00-.117-.014c-.002.001 0 .115.003.256l.006.253-.03.046c-.017.025-.033.046-.033.048-.005.005-.023-.023-.064-.105a1.2 1.2 0 01-.1-.27l-.012-.052-.055.003-.055.006-.014-.066a1.919 1.919 0 01-.02-.121l-.005-.057-.047-.041a1.543 1.543 0 00-.058-.05c-.01-.007-.013-.02-.013-.03v-.021l.223.001.222.002.007.023.007.023.077.004.299.009.222.005.057-.089.059-.089h.075l-.002-.185-.002-.185-.098-.043c-.315-.138-.5-.297-.57-.489-.013-.039-.013-.053-.017-.231-.002-.176-.002-.192.01-.232a.259.259 0 01.184-.18c.03-.01.11-.01.53-.01l.495.002.055.027a.31.31 0 01.133.105c.043.056.056.101.056.21 0 .154-.011.288-.027.341a.737.737 0 01-.103.205.947.947 0 01-.399.28l-.043.015.002.187.002.187.04.003.038.004.054.08.051.08h.239c.131 0 .247.002.258.004.018.003.021.001.039-.029l.021-.032h.205c.153-.007.2-.003.2.002z" fill="#000"/><path d="M19.51 16.096c-.034.02-.057.028-.063.024-.005-.001-.03-.023-.057-.042l-.048-.04-.05.054c-.108.117-.112.123-.144.125-.05.005-.06-.004-.12-.095-.033-.046-.057-.085-.057-.085s-.024-.004-.05-.005l-.05-.006-.023.048-.023.048-.041-.012a.876.876 0 01-.095-.038l-.053-.026v-.102l.473.002.474.002.001.048c.002.057.004.055-.074.1z" fill="#000"/><path d="M23.958 13.925c-.002-.007-.002-.02-.004-.04a3.783 3.783 0 00-2.777.86s-.365-1.672-2.073-1.672-2.342 1.672-2.342 1.672c-.957-1.03-2.238-.955-2.7-.888l-.002.034c-.014.258-.007.38.035.543.134.507.545 1.066 1.189 1.614 1.055.896 2.486 1.544 3.57 1.619 1.129.076 2.796-.584 3.906-1.548.175-.155.338-.319.491-.493.11-.128.274-.349.262-.349-.004 0 0-.003.007-.007.006-.004.01-.009.007-.012-.002-.002.002-.008.007-.01.006-.001.01-.005.008-.008-.002-.004 0-.007.007-.01.005-.001.007-.006.005-.01-.002-.003 0-.007.004-.007.003 0 .007-.005.007-.009 0-.003.003-.009.007-.009a.008.008 0 00.007-.007 4.598 4.598 0 00.17-.304c.102-.23.166-.434.196-.639.011-.098.02-.277.013-.32zm-4.448 2.17c-.034.02-.057.029-.063.025-.005-.001-.03-.023-.057-.042l-.048-.04-.05.054c-.108.117-.112.123-.144.125-.05.005-.06-.004-.12-.095-.033-.046-.057-.085-.057-.085s-.024-.004-.05-.005l-.05-.006-.023.048-.023.048-.041-.012a.876.876 0 01-.095-.038l-.053-.026v-.102l.473.002.474.002.001.048c.002.057.004.055-.074.1zm.89-.32a7.131 7.131 0 00-.049.187c-.02.002-.037.004-.057.002h-.057l-.076.187a13.83 13.83 0 00-.087.21l-.011.024-.037-.06-.038-.06v-.493l-.014.003a4.844 4.844 0 01-1.509.02 1.182 1.182 0 00-.117-.014c-.002.001 0 .115.003.256l.006.253-.03.046c-.017.025-.033.046-.033.048-.005.005-.023-.023-.064-.105a1.2 1.2 0 01-.1-.27l-.012-.052-.055.003-.055.006-.014-.066a1.919 1.919 0 01-.02-.121l-.005-.057-.047-.041a1.697 1.697 0 00-.058-.05c-.01-.007-.013-.02-.013-.03v-.022l.223.002.222.002.007.023.007.023.077.004.299.009.222.005.057-.089.059-.089h.075l-.002-.185-.002-.185-.098-.043c-.315-.138-.5-.297-.57-.489-.013-.039-.013-.053-.017-.231-.002-.176-.002-.192.01-.232a.259.259 0 01.184-.181c.03-.009.11-.009.53-.009l.495.002.055.027a.31.31 0 01.133.105c.043.056.056.101.056.21 0 .154-.011.288-.027.341a.737.737 0 01-.103.205.949.949 0 01-.399.28l-.043.015.002.187.002.187.04.003.038.004.054.08.051.08h.239c.131 0 .247.002.258.004.018.003.021.001.039-.029l.021-.032h.205c.158 0 .204.002.204.007-.005-.002-.028.086-.055.185z" fill="#fff"/><path d="M23.944 13.743a5.218 5.218 0 00-.69-2.414.616.616 0 01-.04-.075l-.007-.014c.055-.166.281-.858.46-1.65.245-1.074.4-2.33-.074-2.708 0 0-.818-.06-1.914 1.015a7.35 7.35 0 00-.812.962l-.076-.025a5.554 5.554 0 00-1.36-.263 10.63 10.63 0 00-.825 0 4.802 4.802 0 00-1.397.283 7.245 7.245 0 00-.838-.956c-1.14-1.08-1.99-1.017-1.99-1.017-.501.39-.33 1.702-.07 2.813.17.735.38 1.38.459 1.613a.397.397 0 01-.02.04c-.415.84-.639 1.65-.692 2.51.464-.067 1.744-.144 2.703.888 0 0 .633-1.672 2.341-1.672 1.708 0 2.073 1.672 2.073 1.672a3.792 3.792 0 012.777-.86l-.008-.142zm-8.838-3.106s-.665-1.664-.495-2.614c.029-.16.082-.3.166-.407 0 0 .754.074 1.971 1.426 0 0-.231.113-.54.351l-.004.002a4.278 4.278 0 00-1.098 1.242zm2.824 2.471c-.011.021-.064.045-.125.053-.06.01-.245.004-.35-.008a3.682 3.682 0 01-1.07-.308 1.347 1.347 0 01-.368-.248l-.05-.051-.005-.068a1.86 1.86 0 01.007-.368.483.483 0 01.055-.157c.014-.017.014-.017.078-.017a.77.77 0 01.251.046c.219.068.545.231.941.47.328.195.45.291.545.423.064.082.107.198.09.233zm4.192-.589c-.006.029-.09.114-.173.176-.246.18-.685.347-1.132.427-.254.047-.509.054-.585.016-.05-.024-.057-.044-.04-.108.038-.134.16-.28.348-.416.096-.07.486-.307.667-.406.299-.164.541-.262.705-.285a.364.364 0 01.133 0c.032.013.068.107.082.22.007.061.004.328-.005.376zm-.296-3.126l-.003-.002c-.3-.238-.523-.35-.523-.35 1.176-1.353 1.903-1.427 1.903-1.427.08.108.132.247.16.407.166.95-.476 2.616-.476 2.616a4.239 4.239 0 00-1.06-1.244z" fill="#FFA409"/><path d="M23.365 8.021c-.138-.018-.795-.021-1.539 1.372l-.003-.002c-.3-.238-.523-.35-.523-.35 1.176-1.353 1.903-1.427 1.903-1.427a.945.945 0 01.162.407z" fill="#FF9300"/><path d="M22.889 10.637c-.271-.48-.63-.902-1.063-1.244.744-1.393 1.399-1.39 1.54-1.372.165.952-.477 2.616-.477 2.616zM23.392 8.027l-.027-.006.027.006z" fill="#FF8300"/><path d="M16.748 9.04s-.231.113-.54.351l-.004.002c-.77-1.395-1.449-1.39-1.595-1.372.029-.16.082-.3.166-.407.002 0 .756.074 1.973 1.427z" fill="#FF9300"/><path d="M16.206 9.393c-.338.26-.77.667-1.1 1.244 0 0-.665-1.664-.495-2.616.144-.018.824-.021 1.595 1.372zM14.611 8.021l-.028.006.028-.006z" fill="#FF8300"/><path d="M21.088 11.56s-.57.036-.498-.41c.07-.444.516-.497.64-.48.125.018.623.196.534.57-.089.373-.213.302-.285.32-.07.018-.391 0-.391 0zM16.889 11.56s-.57.036-.498-.41c.07-.444.516-.497.64-.48.125.018.623.196.534.57-.09.373-.214.302-.285.32-.071.018-.391 0-.391 0z" fill="#fff"/></svg>
