<svg xmlns="http://www.w3.org/2000/svg" role="img" fill="none" viewBox="0 0 38 24" width="38" height="24" aria-labelledby="pi-shinhan_card"><title id="pi-shinhan_card">Shinhan Card</title><rect x="1" y="1" width="36" height="22" rx="2" fill="#fff"/><rect x=".5" y=".5" width="37" height="23" rx="2.5" stroke="#000" stroke-opacity=".07"/><path d="M18.585 3.14a8.876 8.876 0 10.815 17.732 8.876 8.876 0 00-.814-17.733z" fill="#E2C294"/><path d="M18.58 3.01a9 9 0 10.84 17.98 9 9 0 00-.84-17.98zm1.058 8.733c1.598 1.476 2.475 2.283 2.475 2.283 2.82 2.346 1.856 4.494.779 5.242-.822.568-1.732.831-2.93.897a.266.266 0 01-.306-.238c0-.2.286-.254.286-.254 2.663-.525 1.887-2.27.941-3.16-.393-.375-4.098-3.573-4.098-3.573-3.535-3.043-3.248-5.416-3.248-5.416.167-2.924 2.726-3.65 4.663-3.482.223.02.35.157.312.347-.038.19-.345.218-.345.218-.616.038-1.166.102-1.585.386-1.562 1.06-1.1 2.835.979 4.82l.824.782s.421.367 1.253 1.159v-.01zm-1.21 7.558c.018.281-.68.408-1.47.33a5.652 5.652 0 01-3.213-1.304 6.21 6.21 0 01-1.829-2.937c-.292-1.014-.413-2.206.069-2.112.15.028.405.682.687 1.156.184.356.436.673.743.93.099.077.436-.679.933-1.11.287-.236.598-.317.65.39.063.865-.095 1.9.159 1.9s.76-.18 1.942-.279c.44-.038.69.046.272.637-.306.465-.698.869-1.154 1.189.994.933 2.189.822 2.211 1.22v-.01zm.784-9.064a2.99 2.99 0 01-.033-1.141c.13-.979.39-1.443.692-2.204.406-1.014-.58-1.623-.418-1.995.22-.508.928.136 1.717.182.68.038 1.082 0 1.607.074.705.093 1.542.332 1.915.76.373.429-.18.888-.809.581-.459-.223-1.037-.086-.697.393.249.319.613.526 1.014.578 1.146.3 1.172 1.398.396 1.968-.883.647-1.776.38-2.138-.89-.178-.631-.624-.953-1.085-.76-.462.192-.183 1.014.164 1.775.69 1.775-1.03 1.706-1.23 1.68a1.431 1.431 0 01-1.095-1z" fill="#0177BF"/></svg>