<svg xmlns="http://www.w3.org/2000/svg" role="img" viewBox="0 0 38 24" width="38" height="24" aria-labelledby="pi-shopeepay"> <title id="pi-shopeepay">ShopeePay</title> <path opacity=".07" d="M35 0H3C1.3 0 0 1.3 0 3v18c0 1.7 1.4 3 3 3h32c1.7 0 3-1.3 3-3V3c0-1.7-1.4-3-3-3z"/> <path fill="#EE4D2D" d="M35 1c1.1 0 2 .9 2 2v18c0 1.1-.9 2-2 2H3c-1.1 0-2-.9-2-2V3c0-1.1.9-2 2-2h32"/> <g clip-path="url(#pi-shopeepay-logo)" fill="#fff"> <path fill-rule="evenodd" clip-rule="evenodd" d="M14.058 17.615h1.24a1.11 1.11 0 0 0 .768-.294 1.017 1.017 0 0 0 .232-1.14 1.056 1.056 0 0 0-.398-.469 1.107 1.107 0 0 0-.6-.177h-1.242v2.08Zm-.668 2.386v-4.94c0-.048.02-.095.056-.13a.198.198 0 0 1 .135-.054h1.723c.454.018.883.205 1.198.523.315.318.49.741.49 1.181 0 .44-.175.864-.49 1.181a1.788 1.788 0 0 1-1.198.524h-1.246V20c0 .049-.02.096-.056.13a.194.194 0 0 1-.136.055h-.285c-.05 0-.1-.02-.135-.054A.182.182 0 0 1 13.39 20Zm7.852 1.535 1.263-2.154-1.513-2.443a.109.109 0 0 1-.003-.112.109.109 0 0 1 .097-.055h.612l1.216 1.956 1.177-1.956h.565a.11.11 0 0 1 .097.055.108.108 0 0 1-.003.112l-2.858 4.763h-.567a.11.11 0 0 1-.087-.06.11.11 0 0 1 .004-.106Zm-2.608-4.144a1.053 1.053 0 0 0-.739.283 1.003 1.003 0 0 0-.318.71c.014.265.132.514.33.696a1.074 1.074 0 0 0 1.459 0c.196-.182.314-.431.328-.695a.997.997 0 0 0-.324-.715 1.047 1.047 0 0 0-.748-.28h.012Zm1.199 2.43v-.287l-.095.075c-.308.25-.697.387-1.098.386a1.67 1.67 0 0 1-1.165-.471 1.587 1.587 0 0 1-.483-1.136c0-.427.174-.836.483-1.137.31-.302.728-.471 1.165-.471.401 0 .79.136 1.098.386l.095.075v-.288a.18.18 0 0 1 .054-.128.188.188 0 0 1 .132-.054h.387v3.215h-.387a.188.188 0 0 1-.126-.047.18.18 0 0 1-.06-.117Z"/> <path d="M21.012 11.076c-.03.275-.132.536-.297.756-.165.22-.386.39-.64.493a2.32 2.32 0 0 1-1.004.173 3.199 3.199 0 0 1-1.367-.354 3.535 3.535 0 0 1-.547-.382c-.04-.032-.058-.059-.022-.113l.224-.327c.031-.055.085-.055.134 0 .05.054.059.045.072.05.43.351.959.556 1.51.585.736 0 1.265-.34 1.346-.854.08-.513-.34-1.05-1.202-1.322a10.92 10.92 0 0 1-1.08-.454 1.427 1.427 0 0 1-.624-.552 1.455 1.455 0 0 1-.214-.811c.065-.402.276-.766.592-1.018a1.595 1.595 0 0 1 1.116-.345 3.102 3.102 0 0 1 1.69.513.094.094 0 0 1 .047.06.097.097 0 0 1-.011.077l-.189.304c-.035.05-.071.055-.13 0a2.536 2.536 0 0 0-1.394-.454 1.044 1.044 0 0 0-.745.226 1.08 1.08 0 0 0-.39.682c0 .455.346.805 1.09 1.064 1.547.5 2.13 1.085 2.018 2.008m2.707-5.766H15.02a.474.474 0 0 1-.443-.3.492.492 0 0 1-.037-.186.22.22 0 0 1 .065-.157.218.218 0 0 1 .155-.065h7.769a.209.209 0 0 0 .2-.134.214.214 0 0 0 .015-.085v-.795a.487.487 0 0 0-.155-.357.476.476 0 0 0-.365-.124l-7.872.704c-.27.025-.523.152-.706.355a1.112 1.112 0 0 0-.285.744v7.67c0 .291.114.57.318.777.203.206.48.322.767.322h9.257c.288 0 .564-.116.767-.322.204-.206.318-.486.318-.777v-6.17c0-.292-.114-.572-.317-.778a1.077 1.077 0 0 0-.768-.322Z"/> </g> <defs> <clipPath id="pi-shopeepay-logo"> <path fill="#fff" transform="translate(8 1)" d="M0 0h22v22H0z"/></clipPath></defs></svg>
