<svg xmlns="http://www.w3.org/2000/svg" width="38" height="24" viewBox="0 0 38 24" role="img" aria-labelledby="pi-siamcommercial"><title id="pi-siamcommercial">Siam Commercial</title><path opacity=".1" d="M35 0H3a3 3 0 0 0-3 3v18a3 3 0 0 0 3 3h32a3 3 0 0 0 3-3V3a3 3 0 0 0-3-3z"/><path fill="#FFF" d="M35 1a2 2 0 0 1 2 2v18a2 2 0 0 1-2 2H3a2 2 0 0 1-2-2V3c0-1.1.9-2 2-2h32"/><g fill="#5D2E8F"><path d="M8 14.5h-.4V16.2c-.3.2-.8.2-1 0a.3.3 0 0 1-.1-.4c0-.2.2-.2.3-.2h.4v-.4h-.6l-.2-.2c0-.1 0-.2.2-.2h.6v-.2-.1a1 1 0 0 0-1 0c-.2.3-.2.7 0 .9h.1c-.3.2-.3.5-.3.8.1.2.3.4.5.4l.7.1c.3 0 .5 0 .7-.3l.1-.1v-1.7-.1zM10.5 15.9l-.5-1.2c0-.2 0-.2-.3-.2l-.5 1.3v.1l-.5-1.4h-.3l.5 2c0 .2 0 .2.2.2l.2-.1.3-1 .2-.5v.1l.5 1.3c0 .2 0 .2.3.2v-.1l.5-1.6.2-.5h-.4l-.4 1.4zM16.3 14.6v1.2c0 .3-.1.4-.4.5-.4.2-.7 0-.7-.4V15l-.1-.4c-.4-.4-1.3-.4-1.7.1v1.8h.6v-.3h-.3V15 15c.3-.2.5-.3.8-.2.2 0 .4.2.4.5v.7l.1.4c.3.3.7.4 1.1.2H16.7v-2.1h-.4zM12.7 14.7c-.2-.3-.9-.3-1.1-.2v.4h.1l.3-.1c.2 0 .5 0 .5.3v1.5h.4v-1.3c0-.2 0-.4-.2-.6zM5.4 14.7a1 1 0 0 0-1.1-.1H4v-.1h-.4v2.2h.4v-.1-1.3l.1-.3.5-.2c.4 0 .6.2.6.5v1.3h.3v-1.4c0-.2 0-.4-.2-.5zM13.6 12.1c.4.4 1 .4 1.5.5l1.2-.2c.2-.1.2-.1.2-.3v-.6c-.6.3-1.1.3-1.7.2-.4 0-.7-.2-.9-.7-.2-.5-.2-1.1 0-1.7.1-.4.4-.6.7-.7h1.8l.1-.6a3.6 3.6 0 0 0-2.1-.2A2 2 0 0 0 12.9 9c-.2.6-.2 1.3 0 1.9 0 .5.2.9.7 1.2zM3.2 13.8h-.7v.2H3v.2c-.2.1-.2.2-.2.3v2.2h.4v-.1-1.8l.1-.5c.1-.2 0-.4-.1-.5zM10.7 11.7H9.5l-.9-.3-.1.8h.1c.6.3 1.2.4 1.8.4l.8-.2c.7-.3 1-.8.9-1.5-.1-.4-.3-.8-.8-1-.3 0-.7-.1-1-.3l-.7-.2-.2-.4c0-.2.2-.3.4-.4H11l.7.1v-.6c.1-.2.1-.1 0-.2l-1-.2a3 3 0 0 0-1.3.2c-.8.2-1 .9-1 1.6.2.3.4.6.8.7l1 .3.7.4c.2.1.2.4 0 .6l-.3.2zM21 13.8c-.3 0-.4.1-.4.4h.4V14h.3v-.2h-.4zM15 14.2h1.7v-.3h-1.8v.3zM18.7 15.1l-.3-.1.4-.4-.3-.1-.8.6h.2l.4.2c.2.1.3.3.3.6 0 .2-.2.4-.4.4h-.5l-.2-.1v-1.6-.1h-.4a328.7 328.7 0 0 0 .1 2.1c.4.1.7.2 1.1 0 .3 0 .6-.2.6-.6.1-.3 0-.6-.2-.9zM21.2 14.5h-.4v1.8h-1.1c-.1-.2-.2-.4 0-.5 0-.2.2-.2.3-.2h.3v-.4H20h-.3V15v-.2H20.4v-.2-.1a1 1 0 0 0-.9.1c-.2.2-.3.5 0 .7l.1.1c-.2.2-.3.3-.3.5 0 .3.1.6.4.7l.8.1c.3 0 .5-.1.7-.3v-.2l.1-1.6v-.1zM20.7 10h-.1c.3-.1.5-.3.6-.6v-.6a1 1 0 0 0-.4-.8c-.4-.2-.8-.2-1.2-.2h-2-.1v4.7h2.3l.8-.1c.8-.3 1-.9.8-1.6 0-.4-.3-.6-.7-.7zm-2.3-1.4H20c.2 0 .4.3.4.5v.2c-.1.3-.3.4-.6.4h-1.4V8.6zm2.1 2.6c0 .3-.2.5-.5.5h-1.6v-1.3h1.7c.3.1.4.3.4.6v.2z"/></g><path fill-rule="evenodd" clip-rule="evenodd" fill="#5D2E8F" d="M11.8 8.7l-.7-.1H9.8c-.2 0-.3.2-.4.4 0 .1 0 .3.2.4l.7.2 1 .4c.5.1.7.5.8 1 0 .6-.2 1-.9 1.4l-.8.2-1.8-.3-.1-.1.1-.8.9.3h1.2l.4-.2v-.6l-.8-.4c-.4 0-.7-.2-1-.3a1 1 0 0 1-.7-.7c-.2-.7 0-1.4.9-1.6a3 3 0 0 1 1.3-.2l1 .2c.1 0 .1 0 0 .2v.6zM16.4 8.7l-.8-.2h-1a1 1 0 0 0-.7.8c-.2.6-.2 1.2 0 1.7s.5.7 1 .7c.5.1 1 0 1.5-.2v.6c.1.2.1.2-.1.3l-1.2.2c-.6 0-1.1-.1-1.5-.5a2 2 0 0 1-.8-1.2c-.1-.7 0-1.3.1-1.9.3-.7.8-1 1.5-1.2l1-.1c.3 0 .7 0 1 .2h.1l-.1.8zM16.3 14.5h.4v2.2h-.4v-.2l-.2.1c-.4.2-.8.1-1-.2a.8.8 0 0 1-.2-.4v-.7c0-.3-.2-.4-.4-.5-.3 0-.5 0-.7.2l-.1 1.2v.1h.3v.4h-.7v-.1V15l.1-.2c.4-.5 1.3-.5 1.7 0l.1.3v.8c0 .4.3.6.7.4.3 0 .4-.2.4-.5v-1.2-.1zM8.4 14.5h.3l.4 1.4v-.1a110.7 110.7 0 0 0 .6-1.3c.3 0 .3 0 .3.2l.4 1.1.5-1.3h.4l-.2.5-.4 1.6s0 .1-.1 0c-.2 0-.2.1-.3-.1l-.4-1.3h-.1l-.2.4-.3 1s0 .1-.2 0H9l-.5-2v-.1zM6.3 15.4c-.3-.2-.3-.6 0-.8.2-.2.5-.2.8-.1v.3h-.5l-.2.2.2.2h.6v.3h-.4l-.3.3c-.2.1-.1.3 0 .4.3.2.8.2 1 0h.1v-1.6-.1H8V16.5c-.3.2-.5.3-.8.3h-.7l-.5-.5c0-.3 0-.6.2-.7h.1zM19.5 15.4h-.1c-.3-.3-.2-.6 0-.8.3-.2.6-.2.9-.1v.3h-.2a2 2 0 0 0-.3 0c-.1 0-.2 0-.2.2l.1.2h.6v.3H20c-.1 0-.3.1-.3.3-.2.1-.1.3 0 .5h1l.1-.2v-1.5-.1h.4V16.4a1 1 0 0 1-.8.3l-.8-.1c-.3-.1-.4-.4-.4-.7 0-.2.1-.3.3-.4zM17.1 14.5h.4V16.2c0 .1 0 .2.2.2h.5c.2-.1.4-.3.4-.5 0-.3 0-.5-.3-.6l-.4-.2h-.2l.7-.6h.1l.3.1-.4.4.3.1c.2.3.3.6.2 1 0 .3-.3.5-.6.6h-1.1v-.2-2zM5.6 16.7h-.3v-.1-1.3c0-.3-.2-.6-.6-.5-.2 0-.4 0-.5.2v.3L4 16.6h-.4v-2.1h.4v.1h.2a1 1 0 0 1 1.1 0c.2.2.2.4.2.6v1.4zM3.2 16.7h-.4v-.1-2l.1-.4v-.1h-.4v-.3h.7c.1 0 .2.3.1.5l-.1.4v1.9zM12.5 16.7v-.1-1.2-.3c0-.2-.3-.3-.5-.3h-.3l-.2.1v-.3c.3-.2 1-.2 1.2.1.2.2.2.4.2.6v1.3h-.4zM15 14.2v-.3h1.7v.3h-1.8zM20.6 14.2c0-.3.1-.4.3-.4h.4v.2h-.2l-.2.2h-.3z"/><path fill="#FAA733" d="M24.7 15.6l2.3 1 .1.1H29l.1-.1V15 15h-.1c-.6.2-1 .4-1.7.4a1 1 0 0 1-.6-.3c-.3-.3-.4-.7-.4-1v-1l.4-1.2c.4-1 1-1.8 1.8-2.5l.8-.6h.3l.6.5c.6.4 1 1 1.4 1.6a5 5 0 0 1 1 3.5c-.2.7-.6 1-1.2 1-.3 0-.6 0-1-.2l-.6-.2v1.6l.1.1h1.9l2.3-1v-.3l-1.2-4.9v-.1l-.6-.5-1-.9L30 7.8a46.7 46.7 0 0 1-.6-.4l-.3.2-1 1-1 1-.9.6-.2.4a1006.4 1006.4 0 0 1-1.2 5z"/><path fill="#5D2E8F" d="M23.2 6v12h12.3V6H23.2zM34 15.5l-2.3 1-.2.1h-1.7l-.1-.1V15l.7.2.9.2c.6 0 1-.3 1.2-1l-.1-1.6a5 5 0 0 0-.9-2l-1.4-1.5-.6-.5h-.3l-.8.6c-.7.7-1.4 1.6-1.8 2.5l-.3 1.1-.1 1c0 .4 0 .8.4 1l.6.4c.6 0 1.1-.2 1.7-.4h.1v1.6l-.1.1H27l-2.4-1v-.3l1.2-4.8.2-.4.8-.7 1.1-1 1-1 .3-.1h.1l.5.4L31.3 9l1 1 .4.4.1.1 1.3 4.9-.1.2z"/></svg>