<svg xmlns="http://www.w3.org/2000/svg" role="img" viewBox="0 0 38 24" width="38" height="24" aria-labelledby="pi-siirto"><title id="pi-siirto">Siirto</title><path fill="#000" opacity=".07" d="M35 0H3C1.3 0 0 1.3 0 3v18c0 1.7 1.4 3 3 3h32c1.7 0 3-1.3 3-3V3c0-1.7-1.4-3-3-3z"/><path fill="#f3a900" d="M35 1c1.1 0 2 .9 2 2v18c0 1.1-.9 2-2 2H3c-1.1 0-2-.9-2-2V3c0-1.1.9-2 2-2h32"/><path d="M30.9 12a3 3 0 00-1.41-1.33 3 3 0 00-2.87.21 2.94 2.94 0 00.82 5.31 3 3 0 003.16-1 3 3 0 00.3-3.19zm-1.47 2.1a1.47 1.47 0 01-1.41.61 1.45 1.45 0 01-1.14-1 1.34 1.34 0 01.35-1.36 1.46 1.46 0 011.55-.35 1.57 1.57 0 01.73.64 1.44 1.44 0 01-.08 1.46z" fill="#fff" fill-rule="evenodd"/><path d="M34.25 14a1.5 1.5 0 010 1.59A1.46 1.46 0 1132 13.77a1.46 1.46 0 012.27.24z" fill="#f5333f" fill-rule="evenodd"/><path d="M23 8.72h-.22l-2.39 2.63v.35h.81v2.42a2.08 2.08 0 00.58 1.58 2.33 2.33 0 001.64.53 4.27 4.27 0 001.58-.35V14.6a2.66 2.66 0 01-1.2.33.84.84 0 01-.65-.25A.93.93 0 0123 14v-2.3h2v-1.21h-2z" fill="#fff" fill-rule="evenodd"/><path d="M9.53 10a6.55 6.55 0 00-2.64-.74c-.75 0-1.22.27-1.22.68 0 1.25 4.24.9 4.24 3.78 0 1.59-1.34 2.51-3.2 2.51a5.7 5.7 0 01-3-.8v-1.77a4.88 4.88 0 002.86 1.07c.79 0 1.22-.28 1.22-.77 0-1.35-4.25-.86-4.25-3.83 0-1.43 1.25-2.37 3.19-2.37a6.82 6.82 0 012.82.64zM12.26 8.73a1 1 0 11-1-1 1 1 0 011 1zm-.09 7.4H10.4v-5.58h1.77zM14.82 8.73a1 1 0 11-1-1 1 1 0 011 1zm-.09 7.4H13v-5.58h1.77zM17.3 12.15c.52-1.17 1.11-1.71 1.79-1.71a1.91 1.91 0 011.21.56l-.49 1.55a2.08 2.08 0 00-1-.42c-.65 0-1.07.61-1.46 1.64v2.41h-1.82v-5.63h1.77z" fill="#fff"/></svg>