<svg xmlns="http://www.w3.org/2000/svg" role="img" viewBox="0 0 38 24" width="38" height="24" aria-labelledby="pi-sikafsa"><title id="pi-sikafsa">Sika FSA</title><path opacity=".07" d="M35 0H3C1.3 0 0 1.3 0 3v18c0 1.7 1.4 3 3 3h32c1.7 0 3-1.3 3-3V3c0-1.7-1.4-3-3-3z" fill="#000"/><path d="M35 1c1.1 0 2 .9 2 2v18c0 1.1-.9 2-2 2H3c-1.1 0-2-.9-2-2V3c0-1.1.9-2 2-2h32z" fill="#84EF84"/><path d="M14.051 7.68v2H9.06v1.7h4.1v2.001h-4.1v2.942H6.602V7.68h7.45zm.683 7.73l.733-1.725c.802.597 1.85.915 2.895.915.768 0 1.255-.298 1.255-.703-.017-1.32-4.622-.335-4.656-3.523-.017-1.62 1.413-2.87 3.436-2.87 1.203 0 2.408.299 3.262.986l-.697 1.795c-.663-.511-1.744-.899-2.668-.899-.627 0-1.047.299-1.047.687.017 1.25 4.656.564 4.708 3.662 0 1.603-1.396 2.765-3.383 2.765-1.466 0-2.81-.352-3.838-1.092v.002zm17.068-7.732v8.646h-2.457V15.09c-.592.899-1.518 1.41-2.72 1.41-2.215 0-3.977-2.024-3.977-4.509 0-2.484 1.762-4.491 3.976-4.491 1.203 0 2.129.51 2.72 1.41V7.676h2.458v.002zm-2.457 4.316c0-1.198-.943-2.13-2.146-2.13a2.125 2.125 0 00-2.145 2.13c0 1.178.96 2.13 2.145 2.13 1.186 0 2.145-.916 2.145-2.13z" fill="#000"/></svg>