<svg xmlns="http://www.w3.org/2000/svg" role="img" viewBox="0 0 38 24" width="38" height="24" aria-labelledby="pi-sikahsa"><title id="pi-sikahsa">Sika HSA</title><path opacity=".07" d="M35 0H3C1.3 0 0 1.3 0 3v18c0 1.7 1.4 3 3 3h32c1.7 0 3-1.3 3-3V3c0-1.7-1.4-3-3-3z" fill="#000"/><path d="M35 1c1.1 0 2 .9 2 2v18c0 1.1-.9 2-2 2H3c-1.1 0-2-.9-2-2V3c0-1.1.9-2 2-2h32z" fill="#84EF84"/><path d="M14.68 15.41l.694-1.726c.76.598 1.751.916 2.742.916.727 0 1.189-.3 1.189-.704-.016-1.321-4.379-.335-4.41-3.525-.016-1.62 1.338-2.871 3.254-2.871 1.14 0 2.281.299 3.09.986l-.66 1.796c-.628-.51-1.652-.899-2.527-.899-.595 0-.992.3-.992.687.016 1.251 4.41.564 4.46 3.665 0 1.603-1.323 2.765-3.206 2.765-1.387 0-2.66-.352-3.634-1.092v.002zm16.922-7.732v8.646H29.09V15.09c-.605.9-1.552 1.41-2.782 1.41-2.264 0-4.065-2.024-4.065-4.508 0-2.485 1.8-4.492 4.065-4.492 1.23 0 2.177.51 2.782 1.41V7.676h2.513v.002zm-2.513 4.316c0-1.198-.964-2.13-2.194-2.13s-2.193.951-2.193 2.13c0 1.178.98 2.13 2.193 2.13s2.194-.916 2.194-2.13zM11.114 7.5v3.459h-2.23V7.5H6.397v9h2.485v-3.459h2.23V16.5h2.485v-9h-2.484z" fill="#000"/></svg>