<svg xmlns="http://www.w3.org/2000/svg" role="img" viewBox="0 0 38 24" width="38" height="24" aria-labelledby="pi-sika"><title id="pi-sika">Sika</title><path opacity=".07" d="M35 0H3C1.3 0 0 1.3 0 3v18c0 1.7 1.4 3 3 3h32c1.7 0 3-1.3 3-3V3c0-1.7-1.4-3-3-3z" fill="#000"/><path d="M35 1c1.1 0 2 .9 2 2v18c0 1.1-.9 2-2 2H3c-1.1 0-2-.9-2-2V3c0-1.1.9-2 2-2h32z" fill="#fff"/><path d="M7.853 10.302c0-.342.372-.606.93-.606.819 0 1.778.343 2.368.792l.62-1.584c-.76-.606-1.828-.869-2.895-.869-1.795 0-3.066 1.103-3.05 2.53.03 2.809 4.117 1.94 4.133 3.104 0 .357-.433.622-1.114.622-.929 0-1.858-.28-2.57-.807l-.65 1.52c.913.653 2.104.963 3.405.963 1.765 0 3.003-1.024 3.003-2.436-.046-2.732-4.164-2.126-4.178-3.23h-.002zm7.407-2.111h-2.182v7.62h2.182v-7.62zm14.935-.001v1.087c-.527-.791-1.346-1.242-2.416-1.242-1.966 0-3.529 1.77-3.529 3.957 0 2.188 1.563 3.973 3.53 3.973 1.067 0 1.888-.45 2.415-1.241v1.086h2.181V8.19h-2.181zm-1.904 5.712a1.893 1.893 0 01-1.902-1.908c0-1.072.851-1.908 1.902-1.908 1.052 0 1.904.836 1.904 1.908a1.884 1.884 0 01-1.904 1.908z" fill="#000"/><path d="M24.289 8.191h-2.68l-2.126 2.718h-.505V8.19h-2.181v7.62h2.181v-2.98h.496l2.26 2.98h2.8l-3.237-3.942 2.992-3.678z" fill="#000"/></svg>