<svg xmlns="http://www.w3.org/2000/svg" role="img" viewBox="0 0 38 24" width="38" height="24" aria-labelledby="pi-simpl"><title id="pi-simpl">Simpl</title><path fill="#000" opacity=".07" d="M35 0H3C1.3 0 0 1.3 0 3v18c0 1.7 1.4 3 3 3h32c1.7 0 3-1.3 3-3V3c0-1.7-1.4-3-3-3z"/><path fill="#fff" d="M35 1c1.1 0 2 .9 2 2v18c0 1.1-.9 2-2 2H3c-1.1 0-2-.9-2-2V3c0-1.1.9-2 2-2h32"/><path d="M38 0H0V24H38V0Z" fill="white"/><path d="M38 0H0V24H38V0Z" fill="white"/><path d="M3 0H35C36.66 0 38 1.34 38 3V21C38 22.66 36.66 24 35 24H3C1.34 24 0 22.66 0 21V3C0 1.34 1.34 0 3 0Z" fill="black" opacity="0.07"/><path d="M1 3C1 1.9 1.9 1 3 1H35C36.1 1 37 1.9 37 3V21C37 22.1 36.1 23 35 23H3C1.9 23 1 22.1 1 21V3Z" fill="white"/><path clip-rule="evenodd" d="M9.75838 9.74225L10.6961 8.82399L10.4924 8.6244C8.84796 7.01415 6.1723 7.01408 4.52789 8.6244C2.95201 10.1675 2.88744 12.6374 4.33195 14.2579L3.39422 15.1761L3.59805 15.3756C5.24245 16.9859 7.91804 16.986 9.56244 15.3756C11.1383 13.8326 11.2029 11.3627 9.75838 9.74225V9.74225ZM4.93617 9.02406C6.28715 7.70114 8.44464 7.63728 9.87353 8.83233L9.3388 9.35595C8.20161 8.44275 6.5203 8.50584 5.45843 9.54558C4.39664 10.5854 4.33213 12.2318 5.26478 13.3453L4.74037 13.8589C3.51997 12.4597 3.58526 10.347 4.93617 9.02406V9.02406ZM9.15538 14.9768C7.80439 16.2997 5.64691 16.3636 4.21802 15.1685L4.75275 14.6449C5.88994 15.5582 7.57125 15.4951 8.63312 14.4553C9.69491 13.4155 9.75941 11.7691 8.82677 10.6555L9.35111 10.142C10.5715 11.5412 10.5064 13.6538 9.15538 14.9768V14.9768Z" fill="#15B79E" fill-rule="evenodd"/><path d="M34.9333 8.65845V14.807H33.7925V8.65845H34.9333Z" fill="#15B79E"/><path d="M30.6557 10.2847C31.276 10.2847 31.7938 10.5085 32.2091 10.9562C32.619 11.3984 32.8239 11.9459 32.8239 12.5985C32.8239 13.2458 32.6164 13.7932 32.201 14.2408C31.7857 14.6885 31.2679 14.9123 30.6477 14.9123C30.103 14.9123 29.6418 14.7074 29.2642 14.2974V16.6194H28.1235V10.398H29.2561V10.94C29.6337 10.5032 30.1002 10.2847 30.6557 10.2847ZM30.4536 13.8686C30.8149 13.8686 31.1088 13.7474 31.3354 13.5046C31.5619 13.262 31.6751 12.9625 31.6751 12.6066C31.6751 12.2506 31.5619 11.9513 31.3354 11.7086C31.1088 11.4659 30.8149 11.3445 30.4536 11.3445C30.0975 11.3445 29.8063 11.4659 29.5798 11.7086C29.3532 11.9513 29.2399 12.2506 29.2399 12.6066C29.2399 12.9625 29.3532 13.262 29.5798 13.5046C29.8063 13.7474 30.0975 13.8686 30.4536 13.8686Z" fill="#15B79E"/><path d="M25.1867 10.2764C25.7153 10.2764 26.1441 10.441 26.473 10.7699C26.8129 11.099 26.9827 11.5574 26.9827 12.1453V14.807H25.8421V12.3557C25.8421 12.0266 25.7611 11.7732 25.5993 11.5951C25.4429 11.4172 25.2299 11.3282 24.9602 11.3282C24.6689 11.3282 24.4343 11.4253 24.2563 11.6194C24.0784 11.8083 23.9894 12.0644 23.9894 12.3881V14.807H22.8487V12.3638C22.8487 12.0401 22.7678 11.7866 22.6059 11.6032C22.4496 11.4198 22.2338 11.3282 21.9588 11.3282C21.6783 11.3282 21.4463 11.4253 21.2629 11.6194C21.0849 11.8136 20.996 12.0725 20.996 12.3961V14.807H19.8552V10.3978H20.9717V11.0289C21.0957 10.7969 21.2791 10.6136 21.5218 10.4787C21.7646 10.3385 22.0289 10.2711 22.3147 10.2764C22.5951 10.2764 22.8513 10.3439 23.0833 10.4787C23.3206 10.6136 23.4959 10.805 23.6091 11.0532C23.7709 10.8104 23.9921 10.6217 24.2725 10.4868C24.553 10.3466 24.8578 10.2764 25.1867 10.2764Z" fill="#15B79E"/><path d="M18.8159 9.20053C18.8159 9.40009 18.7484 9.5673 18.6136 9.70214C18.4788 9.83697 18.3116 9.90433 18.112 9.90433C17.9124 9.90433 17.7452 9.83697 17.6104 9.70214C17.4756 9.5673 17.4082 9.40009 17.4082 9.20053C17.4082 9.00097 17.4756 8.83647 17.6104 8.70702C17.7452 8.57218 17.9124 8.50476 18.112 8.50476C18.3116 8.50476 18.4788 8.57218 18.6136 8.70702C18.7484 8.83647 18.8159 9.00097 18.8159 9.20053ZM18.6784 10.3978V14.807H17.5376V10.3978H18.6784Z" fill="#15B79E"/><path d="M14.3781 14.9042C13.9088 14.9042 13.4747 14.8071 13.0756 14.613C12.6764 14.4187 12.3556 14.1437 12.1128 13.7878L12.8005 12.9545C13.1997 13.51 13.7282 13.7878 14.3862 13.7878C14.6343 13.7878 14.8392 13.7284 15.0011 13.6097C15.1628 13.4911 15.2437 13.3373 15.2437 13.1486C15.2437 12.9005 15.0631 12.6929 14.7016 12.5257C14.6586 12.504 14.4617 12.4259 14.1111 12.291C13.836 12.1832 13.6014 12.0753 13.4072 11.9674C12.7762 11.606 12.4606 11.1099 12.4606 10.4788C12.4606 9.9772 12.6495 9.56187 13.027 9.23292C13.41 8.89853 13.9007 8.73132 14.4995 8.73132C15.2761 8.73132 15.9315 9.001 16.4654 9.54033L15.8263 10.4141C15.6644 10.2415 15.4622 10.1067 15.2194 10.0096C14.9821 9.9071 14.7476 9.85593 14.5156 9.85593C14.2783 9.85593 14.0896 9.90984 13.9493 10.0177C13.8145 10.1201 13.7471 10.2577 13.7471 10.4303C13.7471 10.6622 13.9088 10.859 14.2325 11.0209L14.823 11.2797C15.1574 11.42 15.4002 11.5251 15.5512 11.5953C16.2308 11.9243 16.5705 12.4205 16.5705 13.0838C16.5705 13.6178 16.3683 14.0547 15.9638 14.3945C15.5593 14.7343 15.0307 14.9042 14.3781 14.9042Z" fill="#15B79E"/></svg>