<svg xmlns="http://www.w3.org/2000/svg" role="img" viewBox="0 0 38 24" width="38" height="24" fill="none" aria-labelledby="pi-simplepay" version="1.1"><title id="pi-simplepay">Simple Pay</title><path opacity=".07" d="M35 0H3C1.3 0 0 1.3 0 3v18c0 1.7 1.4 3 3 3h32c1.7 0 3-1.3 3-3V3c0-1.7-1.4-3-3-3z" fill="#000"/><rect x="1" y="1" width="36" height="22" rx="2" fill="#D0F451"/><g fill="#1A1A1A"><path d="M14.262 17c-.48 0-1.001-.027-1.735-.107v-1.215a18.96 18.96 0 001.709.094c1.375 0 2.056-.494 2.056-1.496 0-.667-.32-1.148-1.202-1.709l-1.055-.667c-1.028-.668-1.535-1.455-1.535-2.443C12.5 7.92 13.635 7 15.57 7c.401 0 .842.04 1.376.107v1.161a10.456 10.456 0 00-1.335-.106c-1.202 0-1.816.44-1.816 1.268 0 .574.307 1.001 1.068 1.482l.961.6c1.215.775 1.776 1.643 1.776 2.751 0 1.736-1.228 2.737-3.338 2.737zM19.667 16.893V7.107h2.67c1.976 0 3.218 1.108 3.218 2.897 0 1.749-1.242 2.857-3.218 2.857H20.95v4.032h-1.282zm1.282-5.207h1.362c1.228 0 1.922-.614 1.922-1.682 0-1.055-.694-1.682-1.922-1.682h-1.362v3.364z"/></g></svg>