<svg xmlns="http://www.w3.org/2000/svg" role="img" viewBox="0 0 38 24" width="38" height="24" aria-labelledby="pi-sinpemovil"><title id="pi-sinpemovil">Sinpe Móvil</title><path fill="#000" opacity=".07" d="M35 0H3C1.3 0 0 1.3 0 3v18c0 1.7 1.4 3 3 3h32c1.7 0 3-1.3 3-3V3c0-1.7-1.4-3-3-3z"/><path fill="#fff" d="M35 1c1.1 0 2 .9 2 2v18c0 1.1-.9 2-2 2H3c-1.1 0-2-.9-2-2V3c0-1.1.9-2 2-2h32"/><path d="M6.82 14.18c-.16 0-.31-.02-.46-.05-.15-.03-.29-.09-.41-.16a.922.922 0 01-.3-.29.826.826 0 01-.12-.42v-.03h.97v.03c0 .08.04.15.11.21.05.04.13.07.24.07.08 0 .15-.01.21-.05.06-.03.09-.07.09-.12a.16.16 0 00-.08-.14c-.06-.03-.2-.07-.43-.11-.37-.06-.64-.16-.8-.29-.17-.13-.25-.31-.25-.54 0-.16.04-.3.11-.41.07-.11.17-.2.29-.26.12-.06.25-.11.39-.13.3-.06.6-.05.86 0 .14.02.27.07.39.13s.22.15.3.26c.07.11.12.25.12.4v.03h-.93v-.03c0-.07-.04-.12-.1-.17-.06-.05-.12-.07-.2-.07s-.15.01-.2.04c-.05.02-.07.06-.07.13 0 .02 0 .04.02.06.02.02.04.03.07.05.04.02.16.04.33.08.23.04.4.08.51.12.19.06.34.15.45.26.11.12.17.28.17.48 0 .17-.04.32-.11.44-.08.12-.18.22-.3.29-.12.07-.26.12-.42.15-.15.03-.31.04-.48.04m2.59-2.88H8.36v-.74h1.02v.74zm0 2.82H8.36v-2.6h1.02v2.6zm3.06 0h-1.02v-1.36c0-.16-.02-.29-.06-.36-.03-.07-.11-.11-.23-.11-.04 0-.08 0-.13.02-.04.01-.08.04-.11.07-.04.03-.06.08-.09.14a.78.78 0 00-.03.24v1.37H9.75v-2.6h.98v.28c.19-.23.46-.35.81-.35.25 0 .46.08.63.23.17.15.26.38.26.66v1.77zm2.16-1.06c-.01.08-.04.14-.07.21a.4.4 0 01-.36.21c-.08 0-.16-.02-.22-.06a.364.364 0 01-.14-.16c-.03-.06-.05-.13-.07-.21-.01-.07-.02-.15-.02-.23 0-.09 0-.17.02-.24a.65.65 0 01.07-.21.4.4 0 01.36-.21.38.38 0 01.36.22c.03.06.05.13.07.21.01.07.02.15.02.24s0 .16-.02.24m.92-.72c-.04-.16-.11-.31-.2-.44-.09-.13-.21-.24-.35-.32a.94.94 0 00-.47-.12c-.12 0-.22.01-.3.03-.08.02-.15.05-.21.08-.05.03-.1.07-.14.1-.02.03-.05.06-.08.09v-.24h-.98v3.42h1.02v-1.06c.07.09.16.16.27.21.13.06.26.09.41.09.21 0 .38-.04.53-.12.14-.08.26-.19.35-.32.08-.13.15-.28.18-.43.03-.16.05-.32.05-.48s-.02-.33-.07-.49m2.09.21h-.98v-.03c.05-.3.23-.45.53-.45.13 0 .24.04.32.13.08.09.13.2.13.32v.03zm.93.48c0-.51-.12-.91-.36-1.17-.24-.27-.61-.41-1.11-.41-.2 0-.38.04-.55.11-.17.07-.31.17-.43.29-.12.13-.21.27-.28.44a1.485 1.485 0 00.01 1.1c.07.17.17.31.3.43.13.12.29.2.46.26.18.06.37.09.57.09.3 0 .58-.07.82-.21.24-.14.41-.34.51-.61v-.04h-.95c-.03.07-.08.11-.15.14-.07.03-.15.05-.23.05-.14 0-.25-.04-.33-.13a.517.517 0 01-.13-.31h1.85v-.03zm5.01 1.3h-.27c-.05 0-.1-.05-.1-.1v-1.99c0-.63-.12-1.03-.7-1.03-.5 0-.9.48-1.02.93a1.7 1.7 0 00-.06.48v1.61c0 .06-.04.1-.1.1h-.27a.1.1 0 01-.1-.1v-1.99c0-.65-.11-1.03-.68-1.03-.52 0-.93.5-1.06.99-.03.12-.05.25-.05.42v1.61c0 .06-.04.1-.1.1h-.27c-.05 0-.1-.05-.1-.1v-3.29c0-.06.04-.1.1-.1h.27c.05 0 .1.05.1.1v.43c.27-.36.72-.61 1.11-.61.57 0 .91.23 1.05.72.21-.34.63-.72 1.17-.72 1.04 0 1.16.79 1.16 1.39v2.09c0 .06-.04.1-.1.1m2.19-.35c-.74 0-1.32-.63-1.32-1.43s.58-1.39 1.32-1.39 1.32.61 1.32 1.39S26.47 14 25.73 14m0-3.24c-.98 0-1.74.79-1.74 1.81s.77 1.85 1.74 1.85 1.74-.81 1.74-1.85-.76-1.81-1.74-1.81m.13-.31h-.28s-.07-.02-.09-.05a.09.09 0 010-.1l.43-.73s.05-.05.08-.05h.36s.07.02.09.06c.02.03.01.07 0 .11l-.5.73s-.05.04-.08.04M29 14.34h-.25s-.08-.03-.09-.06l-1.25-3.3v-.1a.09.09 0 01.08-.04h.29s.08.03.09.07l.98 2.58s.02.04.02.07c0-.02.02-.04.02-.06l.98-2.59s.05-.07.09-.07h.28s.06.02.08.04c.02.03.02.06 0 .1l-1.25 3.3s-.05.06-.09.06m1.91-4.14h-.32c-.05 0-.1-.05-.1-.1v-.48c0-.06.04-.1.1-.1h.32c.05 0 .1.05.1.1v.48c0 .06-.04.1-.1.1m-.02 4.14h-.27a.1.1 0 01-.1-.1v-3.29c0-.06.04-.1.1-.1h.27c.05 0 .1.05.1.1v3.29c0 .06-.04.1-.1.1m1.38.02c-.17 0-.72-.06-.72-.79V9.62c0-.06.04-.1.1-.1h.27c.05 0 .1.05.1.1v3.86c0 .41.19.41.28.41h.08c.03 0 .06 0 .08.02.02.02.03.05.03.08v.26s-.03.09-.08.1c-.02 0-.08.01-.14.01"/><path fill="#215aa8" d="M10.88 10.69c.75-1.52 1.58-3.02 2.34-4.25.36-.58.74-1.16 1.12-1.74.27-.4.49-.73.66-.97-.83.98-2.98 3.59-4.91 6.7v.25h.79"/><path d="M25.56 15.14c-.29.72-.57 1.4-.85 2-.27.59-.56 1.19-.86 1.79-.2.4-.37.73-.49.98.52-.81 1.66-2.61 2.8-4.85-.19.05-.39.07-.59.07h-.02z"/><path fill="#215aa8" d="M25.58 15.08h-.05v.02c-.3.73-.58 1.41-.86 2.02-.27.59-.56 1.19-.85 1.79-.44.89-.75 1.45-.75 1.46l.04.03s1.57-2.3 3.14-5.36l.03-.06-.06.02c-.2.06-.42.09-.63.09M28.9 2.44h-.01s-.06-.06-.09-.08c-.3-.21-.67-.33-1.11-.35h-.13c-.36 0-.76.06-1.21.18-.32.08-.65.2-1.01.34l-.05.02c-1.54.62-5.39 2.43-10.84 8.13-.07.07-.14.14-.21.22h.09c.11-.09.22-.19.35-.29.49-.41.99-.82 1.49-1.21l.06-.05c.17-.14.35-.28.54-.43.8-.64 1.67-1.32 2.56-1.94.71-.49 1.44-.93 2.18-1.26 1.09-.49 1.7-.71 2.06-.81.23-.06.36-.08.45-.09h.05s.03-.01.05-.02h.02c.17-.04.35-.06.53-.06h.03c.41 0 .81.1 1.18.28.7.35 1.26.99 1.52 1.79l.09.33c.04.2.06.4.07.61v.47c-.04.66-.14 1.33-.33 2.06s.06 0 .09 0h.35c.19.01.37.1.5.25.01.01.02.03.03.04.59-1.56 1-3.02 1.22-4.32.32-1.87.15-3.15-.52-3.8zm-6.58 12.58c-.45.28-.56.35-1.02.61-.18.11-.37.22-.56.33-1.63.97-3.65 2.19-5.55 2.77-2.04.63-2.54.65-2.79.66h-.1c-.1 0-.2.01-.29.01-1.53 0-2.81-1.18-2.96-2.76-.03-.35-.02-.68.05-1.11.03-.16.06-.32.1-.48v-.04H7.61v.04c-.35.79-.63 1.55-.84 2.26-.56 1.89-.53 3.24.11 4l.05.05c.41.41 1.03.62 1.85.62.57 0 1.24-.1 1.99-.3C15.28 20.5 20.22 17 22.8 15h-.48z"/></svg>
