<svg xmlns="http://www.w3.org/2000/svg" width="38" height="24" viewBox="0 0 38 24" role="img" aria-labelledby="pi-sistecredito"><title id="pi-sistecredito">Sistecredito</title><g><path d="M35,0H3C1.3,0,0,1.3,0,3v18c0,1.7,1.4,3,3,3h32c1.7,0,3-1.3,3-3V3c0-1.7-1.4-3-3-3Z" style="fill:#000; isolation:isolate; opacity:.07; stroke-width:0px;"/><path d="M35,1c1.1,0,2,.9,2,2v18c0,1.1-.9,2-2,2H3c-1.1,0-2-.9-2-2V3c0-1.1.9-2,2-2h32Z" style="fill:#fff; stroke-width:0px;"/><path d="M11.78,11.6v-.84h-.92v-.87l-.66.14c-.02.12-.07.24-.14.35-.13.22-.35.37-.6.42-.01,0-.03,0-.04,0v.8h.43v1.44c-.02.29.09.58.3.78.2.18.5.26.89.26.12,0,.24-.01.35-.03.12-.01.23-.04.35-.07v-.81c-.07.02-.15.04-.23.05-.07.01-.15.02-.22.02-.12.01-.24-.02-.34-.09-.07-.08-.11-.2-.1-.31v-1.25h.92Z" style="fill:#00369c; stroke-width:0px;"/><path d="M1.5,13.68l.48-.68c.18.11.37.2.56.27.16.05.33.08.5.08.13,0,.27-.02.39-.07.08-.03.14-.1.15-.19,0-.06-.03-.12-.08-.15-.08-.05-.16-.08-.25-.08l-.65-.1c-.28-.03-.54-.14-.74-.33-.18-.17-.27-.41-.26-.65-.01-.31.13-.6.38-.78.3-.21.67-.31,1.03-.28.24,0,.48.04.71.1.23.07.45.17.66.29l-.48.64c-.16-.1-.33-.17-.51-.23-.16-.05-.32-.07-.48-.07-.11,0-.21.02-.31.06-.07.03-.11.1-.12.17,0,.06.03.12.09.16.09.05.19.08.3.09l.65.1c.28.03.54.14.75.32.17.16.27.4.26.63,0,.15-.04.31-.11.44-.08.14-.18.26-.31.35-.14.1-.3.18-.47.23-.19.06-.39.09-.59.08-.29,0-.58-.03-.86-.11-.25-.06-.48-.17-.68-.32Z" style="fill:#00369c; stroke-width:0px;"/><path d="M6.15,13.68l.48-.68c.18.11.37.2.56.27.16.05.33.08.5.08.13,0,.27-.02.39-.07.08-.03.14-.1.15-.19,0-.06-.03-.12-.08-.15-.08-.05-.16-.08-.25-.08l-.65-.1c-.28-.03-.54-.14-.74-.33-.18-.17-.27-.41-.26-.65-.01-.31.13-.6.38-.78.3-.21.67-.31,1.03-.28.24,0,.48.04.71.1.23.07.45.17.66.29l-.48.64c-.16-.1-.33-.17-.51-.23-.16-.05-.32-.07-.48-.07-.11,0-.21.02-.31.06-.07.03-.11.1-.12.17,0,.06.03.12.09.16.09.05.19.08.3.09l.65.1c.28.03.54.14.75.32.17.16.27.4.26.63,0,.15-.04.31-.11.44-.08.14-.18.26-.31.35-.14.1-.3.18-.47.23-.19.06-.39.09-.59.08-.29,0-.58-.03-.86-.11-.25-.06-.48-.17-.68-.32h0Z" style="fill:#00369c; stroke-width:0px;"/><path d="M15.19,13.61c-.19.16-.4.29-.63.38-.24.08-.48.12-.73.12-.24,0-.48-.04-.7-.13-.21-.08-.4-.2-.57-.36-.16-.15-.29-.34-.38-.54-.09-.21-.14-.44-.14-.67,0-.23.04-.46.13-.67.08-.2.21-.39.36-.54.16-.15.34-.28.54-.36.21-.09.44-.13.67-.13.45,0,.88.18,1.19.51.15.16.27.36.34.57.08.23.13.47.12.72v.25h-2.34c.07.15.17.28.31.37.15.1.32.15.5.15.13,0,.25-.02.37-.07.11-.04.2-.1.28-.18l.66.59ZM13.73,11.53c-.15,0-.3.04-.43.14-.12.1-.21.23-.25.38h1.37c-.05-.15-.14-.28-.26-.38-.12-.09-.27-.15-.42-.14Z" style="fill:#00369c; stroke-width:0px;"/><path d="M4.78,9.9c.02.31.28.54.58.53.28-.01.51-.24.53-.53h-1.11Z" style="fill:#00369c; stroke-width:0px;"/><path d="M4.83,10.77h1v3.28h-1v-3.28Z" style="fill:#00369c; stroke-width:0px;"/><path d="M32.69,11.6v-.84h-.92v-.87l-.66.14c-.02.12-.07.24-.14.35-.13.22-.35.37-.6.42-.01,0-.03,0-.04,0v.8h.43v1.44c-.02.29.09.58.3.78.2.18.5.26.89.26.12,0,.24-.01.35-.03.12-.01.23-.04.35-.07v-.81c-.07.02-.15.04-.23.05-.07.01-.15.02-.22.02-.12.01-.24-.02-.34-.09-.07-.08-.11-.2-.1-.31v-1.25h.92Z" style="fill:#3ec92b; stroke-width:0px;"/><path d="M17.45,13.24c.13,0,.26-.03.38-.09.13-.07.24-.16.33-.27l.59.62c-.17.19-.37.34-.61.44-.24.1-.49.16-.75.16-.23,0-.47-.04-.68-.13-.64-.26-1.06-.88-1.05-1.57,0-.23.04-.46.13-.67.08-.2.21-.39.37-.54.33-.32.78-.5,1.24-.49.26,0,.53.05.77.16.24.1.45.25.62.45l-.61.64c-.1-.12-.22-.21-.35-.28-.12-.06-.26-.09-.4-.09-.21,0-.41.09-.54.24-.15.16-.23.38-.22.59,0,.22.08.43.23.59.14.16.35.24.56.24h0Z" style="fill:#3ec92b; stroke-width:0px;"/><path d="M19.04,14.04v-3.28h1v.33c.1-.12.23-.23.38-.3.15-.07.32-.11.48-.11.08,0,.15,0,.23.02.05,0,.1.03.15.06v.87c-.07-.03-.15-.05-.22-.07-.08-.02-.17-.03-.25-.03-.15,0-.3.04-.44.11-.13.07-.24.18-.33.3v2.08h-1Z" style="fill:#3ec92b; stroke-width:0px;"/><path d="M22.58,9.9c.01.31.27.54.58.53.29-.01.51-.24.53-.53h-1.11Z" style="fill:#3ec92b; stroke-width:0px;"/><path d="M24.6,13.61c-.19.16-.4.29-.64.38-.24.08-.48.12-.73.12-.24,0-.48-.04-.7-.13-.42-.16-.76-.49-.94-.9-.09-.21-.14-.44-.14-.67,0-.23.04-.46.13-.67.08-.2.21-.39.36-.54.16-.15.34-.28.54-.36.21-.09.44-.13.67-.13.45,0,.88.18,1.19.51.15.16.27.36.34.57.08.23.13.47.12.72v.25h-2.34c.07.15.17.28.31.37.15.1.32.15.5.15.13,0,.25-.02.37-.07.11-.04.2-.1.28-.18l.66.59ZM23.14,11.53c-.15,0-.3.04-.43.14-.12.1-.21.23-.25.38h1.37c-.05-.15-.14-.28-.26-.38-.12-.09-.27-.15-.42-.14h0Z" style="fill:#3ec92b; stroke-width:0px;"/><path d="M27.62,14.04v-.24c-.13.09-.27.16-.42.21-.15.05-.31.07-.46.07-.22,0-.45-.04-.65-.13-.2-.08-.38-.21-.53-.36-.15-.15-.27-.34-.36-.54-.09-.21-.13-.43-.13-.66,0-.23.04-.45.13-.66.17-.4.5-.72.9-.89.35-.14.74-.17,1.11-.07.14.04.27.09.4.16v-.82l1-.22v4.14h-.99ZM26.06,12.4c0,.22.09.44.25.59.16.16.38.24.61.24.13,0,.26-.02.38-.06.12-.04.22-.11.31-.2v-1.15c-.09-.08-.2-.14-.31-.19-.12-.05-.25-.07-.38-.07-.23,0-.45.08-.61.24-.16.15-.25.37-.25.59h0Z" style="fill:#3ec92b; stroke-width:0px;"/><path d="M28.97,9.9c.01.31.27.54.58.53.29-.01.51-.24.53-.53h-1.11Z" style="fill:#3ec92b; stroke-width:0px;"/><path d="M29.02,10.77h1v3.28h-1v-3.28Z" style="fill:#3ec92b; stroke-width:0px;"/><path d="M35.9,11.7c-.08-.03-.16,0-.2.08,0,0,0,0,0,0l-.19.45c.01.06.02.12.02.18,0,.22-.08.43-.23.59-.3.31-.8.32-1.11.02,0,0-.02-.01-.02-.02-.31-.33-.31-.85,0-1.18.3-.31.8-.32,1.11-.02,0,0,.02.02.02.02.05.05.09.1.12.16l.12-.27c.07-.17.27-.25.45-.18,0,0,0,0,0,0l.36.16c-.09-.18-.21-.35-.35-.49-.16-.16-.35-.28-.56-.36-.45-.18-.95-.18-1.39,0-.21.08-.4.21-.56.36-.16.15-.29.34-.38.54-.19.42-.19.91,0,1.33.09.2.22.39.38.54.16.16.35.28.56.36.45.17.95.17,1.39,0,.21-.08.4-.2.56-.36.16-.15.29-.34.38-.54.09-.21.14-.44.14-.67,0-.16-.02-.32-.07-.47l-.53-.23Z" style="fill:#3ec92b; stroke-width:0px;"/></g></svg>
