<svg xmlns="http://www.w3.org/2000/svg" role="img" width="38" height="24" fill="none" viewBox="0 0 38 24" aria-labelledby="pi-skrilldigitalwallet"><title id="pi-skrilldigitalwallet">Skrill Digital Wallet</title><g clip-path="url(#pi-skrilldigitalwallet-a)"><path fill="#000" fill-opacity=".07" d="M35 .001H3c-1.7 0-3 1.3-3 3v18C0 22.7 1.4 24 3 24h32c1.7 0 3-1.3 3-3V3c0-1.7-1.4-3-3-3v.001z"/><path fill="#fff" d="M35 1c1.1 0 2.001.9 2.001 2v18a2.006 2.006 0 01-2 2H3a2.007 2.007 0 01-2-2V3c0-1.1.9-2 2.001-2h32z"/><g clip-path="url(#pi-skrilldigitalwallet-b)"><path fill="#141414" d="M24.738 9.507h1.125V11.2h-1.282c-1.021 0-1.615 1.126-1.615 2.131v4.84h-2.05V9.506h2.05V10.7c.323-.748.951-1.194 1.771-1.194zM5.4 9.249c0-.868.724-1.384 1.483-1.384h.803c.942 0 1.518.541 1.658 1.59h2.19C11.334 7.186 9.728 6 7.738 6h-.881c-1.98 0-3.683 1.358-3.683 3.386 0 4.47 6.44 2.88 6.44 5.45 0 1.082-.907 1.606-1.693 1.606h-.829c-1.09 0-1.788-.764-1.876-1.882H3c.114 2.252 1.771 3.747 3.988 3.747h.873c2.251 0 3.979-1.357 3.979-3.575 0-4.676-6.44-2.922-6.44-5.484zm14.949.258h-2.592L14.58 12.67V6.122h-2.05V18.17h2.05v-2.905l1.004-.98 2.653 3.885h2.4l-3.579-5.423 3.29-3.24zm6.244 8.663h2.051V9.507h-2.05v8.663zm6.365-12.048V18.17H35V6.122h-2.042zm-6.443 2.134h2.217V6.125h-2.217v2.131zm3.308 9.914h2.041V6.122h-2.041V18.17z"/></g></g><defs><clipPath id="pi-skrilldigitalwallet-a"><path fill="#fff" d="M0 0h38v24H0z"/></clipPath><clipPath id="pi-skrilldigitalwallet-b"><path fill="#fff" d="M3 6h32v12.308H3z"/></clipPath></defs></svg>