<svg width="38" height="24" viewBox="0 0 38 24" fill="none" role="img" aria-labelledby="pi-skyro" xmlns="http://www.w3.org/2000/svg"><title id="pi-skyro">Skyro</title><path fill="#5BA6FD" d="M35 1c1.1 0 2 .9 2 2v18c0 1.1-.9 2-2 2H3c-1.1 0-2-.9-2-2V3c0-1.1.9-2 2-2h32"/><path d="M19.795 14.615l1.521-4.242h1.566l-3.397 9.411h-1.552l1.11-3.098-2.549-6.313h1.76l1.54 4.242zm-12.6-7.834c.887 0 1.744.3 2.569.903l-.878 1.319a2.595 2.595 0 00-1.774-.669c-.42 0-.748.09-.984.271-.232.181-.348.434-.348.758 0 .257.08.48.24.67.16.188.366.344.619.466.256.118.538.234.845.348.312.113.621.246.928.397.307.147.588.322.84.524.257.202.465.476.625.82.16.342.24.742.24 1.2 0 .88-.278 1.582-.834 2.107-.555.527-1.35.79-2.386.79-.408 0-.786-.044-1.135-.132-.345-.089-.71-.264-1.093-.525a4.31 4.31 0 01-1.047-1.04l1.06-1.1c.16.186.303.34.43.462.13.122.288.25.473.384.19.13.393.23.612.297.223.067.46.1.713.1.5 0 .878-.125 1.13-.377.253-.257.379-.554.379-.89a.984.984 0 00-.151-.537 1.256 1.256 0 00-.398-.404 3.49 3.49 0 00-.575-.316 13.47 13.47 0 00-.682-.284 32.83 32.83 0 01-.713-.303 4.957 4.957 0 01-.681-.384 3.676 3.676 0 01-.574-.5 2.146 2.146 0 01-.399-.688 2.731 2.731 0 01-.144-.915c0-.85.286-1.521.858-2.013.576-.493 1.321-.739 2.234-.739zm23.35 3.476c.597 0 1.147.143 1.647.43.505.281.9.668 1.187 1.16.29.493.436 1.032.436 1.617 0 .58-.146 1.119-.436 1.615a3.18 3.18 0 01-1.187 1.175c-.5.286-1.05.429-1.647.429a3.252 3.252 0 01-2.828-1.604 3.18 3.18 0 01-.429-1.615c0-.892.315-1.65.946-2.273.636-.622 1.406-.934 2.31-.934zm-18.542 2.498l2.223-2.379h2.038l-2.689 2.809 2.948 3.333h-2.09l-2.43-2.74v2.74h-1.59v-9.57h1.59v5.807zm15.193-.977c-.4 0-.743.023-1.029.07-.282.046-.51.11-.682.195a.964.964 0 00-.403.335 1.277 1.277 0 00-.196.454c-.034.156-.05.348-.05.575v3.106h-1.59V10.37h1.59v.454c.294-.218.61-.368.946-.448.341-.08.813-.12 1.414-.12v1.521zm3.349 0c-.463 0-.863.169-1.2.505a1.615 1.615 0 00-.498 1.18c0 .46.166.857.499 1.193.336.333.736.5 1.199.5.471 0 .873-.167 1.205-.5a1.64 1.64 0 00.499-1.192c0-.455-.167-.848-.499-1.18a1.632 1.632 0 00-1.205-.506z" fill="#fff"/><path fill="#000" opacity=".07" d="M35 0H3C1.3 0 0 1.3 0 3v18c0 1.7 1.4 3 3 3h32c1.7 0 3-1.3 3-3V3c0-1.7-1.4-3-3-3z"/></svg>