<svg xmlns="http://www.w3.org/2000/svg" role="img" viewBox="0 0 38 24" width="38" height="24" aria-labelledby="pi-slicefnbo"><title id="pi-slicefnbo">Slice by FNBO</title><path fill="#000" opacity=".07" d="M35 0H3C1.3 0 0 1.3 0 3v18c0 1.7 1.4 3 3 3h32c1.7 0 3-1.3 3-3V3c0-1.7-1.4-3-3-3z"/><path fill="#fff" d="M35 1c1.1 0 2 .9 2 2v18c0 1.1-.9 2-2 2H3c-1.1 0-2-.9-2-2V3c0-1.1.9-2 2-2h32"/><g id="pi-logo"><g id="pi-text" fill="#006341"><path d="M16.038 13.156c-.925-.185-1.282-.283-1.282-.555 0-.27.246-.505.801-.505s.974.271 1.134.678l1.492-.629c-.444-.863-1.233-1.43-2.614-1.43-1.528-.024-2.527.9-2.527 1.936 0 1.319 1.11 1.7 2.22 1.898.714.136 1.318.234 1.318.567 0 .296-.296.555-.85.555-.604 0-1.073-.271-1.295-.838l-1.615.628c.444 1.085 1.344 1.664 2.836 1.664 1.775.025 2.613-1.158 2.613-2.058 0-1.332-1.196-1.701-2.231-1.91zM18.701 8.003h1.689v8.999h-1.689zM21.006 10.839h1.689v6.164h-1.689zM26.33 12.318c.654 0 1.221.407 1.455.986l1.504-.641c-.48-1.146-1.565-1.948-2.97-1.948a3.188 3.188 0 00-3.193 3.205 3.188 3.188 0 003.192 3.205c1.406 0 2.49-.8 2.971-1.947l-1.504-.641c-.234.58-.801.986-1.454.986-.888 0-1.578-.715-1.578-1.603 0-.887.69-1.602 1.578-1.602zM35.86 13.908c0-1.775-1.295-3.193-3.181-3.193a3.199 3.199 0 00-3.205 3.205c0 1.775 1.331 3.205 3.254 3.205 1.369 0 2.342-.678 2.873-1.64l-1.344-.8a1.632 1.632 0 01-1.516.961c-.888 0-1.443-.444-1.64-1.122h4.758v-.616zm-4.685-.74c.259-.579.801-.973 1.516-.973s1.245.332 1.467.973h-2.983zM21.844 8.188c-.604 0-1.011.42-1.011 1.023s.407 1.011 1.01 1.011 1.024-.407 1.024-1.01-.42-1.024-1.023-1.024z"/></g><g id="pi-icon" fill="#bfd130"><path d="M5.058 17.016c.5.107.969-.281.969-.792v-4.307L2.333 15.61a5.838 5.838 0 002.725 1.406zM11.238 11.013c.511 0 .9-.47.792-.97a5.838 5.838 0 00-1.405-2.724L6.93 11.013h4.307zM11.238 11.542H6.93l3.045 3.046a.808.808 0 001.25-.13c.39-.605.658-1.265.804-1.946a.806.806 0 00-.792-.97zM6.557 11.917v4.307c0 .51.469.899.969.792a5.836 5.836 0 001.946-.805.808.808 0 00.13-1.249l-3.045-3.045zM7.304 7.87a1.016 1.016 0 00-1.359-.935 1.013 1.013 0 00-.605 1.299l.979 2.69.93-2.705c.039-.112.057-.23.055-.349zM3.773 12.041l2.139-.778-2.15-.74A.807.807 0 002.74 11.56a.805.805 0 001.032.481z"/></g></g></svg>