<svg xmlns="http://www.w3.org/2000/svg" role="img" viewBox="0 0 38 24" width="38" height="24" aria-labelledby="pi-smartpay"><title id="pi-smartpay">Smartpay</title><path opacity=".07" d="M35 0H3C1.3 0 0 1.3 0 3v18c0 1.7 1.4 3 3 3h32c1.7 0 3-1.3 3-3V3c0-1.7-1.4-3-3-3Z" /><path d="M35 1c1.1 0 2 .9 2 2v18c0 1.1-.9 2-2 2H3c-1.1 0-2-.9-2-2V3c0-1.1.9-2 2-2h32Z" fill="#fff" /><path fill-rule="evenodd" clip-rule="evenodd" d="m19.072 3.671-6.564 3.796a.892.892 0 0 0 .024 1.62l6.81 2.905 3.753-1.601s-4.197-5.92-4.204-5.92a.637.637 0 0 1-.101-.319c0-.201.12-.385.282-.481Z" fill="#2DB2B2" /><path fill-rule="evenodd" clip-rule="evenodd" d="m23.095 10.39-3.754 1.601 6.81 2.905a.93.93 0 0 1 .3.218l-3.356-4.724Z" fill="#7280FF" /><path fill-rule="evenodd" clip-rule="evenodd" d="m18.89 4.47 4.204 5.92 3.055-1.303a.892.892 0 0 0 .082-1.591v-.004L19.608 3.67a.552.552 0 0 0-.819.482c0 .123.027.228.101.32Z" fill="#00D5E0" /><path fill-rule="evenodd" clip-rule="evenodd" d="m19.792 19.512-4.204-5.92-3.055 1.304a.892.892 0 0 0-.082 1.59v.004l6.623 3.824a.552.552 0 0 0 .819-.483.483.483 0 0 0-.101-.319Z" fill="#FFC000" /><path fill-rule="evenodd" clip-rule="evenodd" d="m19.61 20.312 6.565-3.796a.892.892 0 0 0-.024-1.62l-6.81-2.905-3.753 1.601 4.204 5.92a.637.637 0 0 1 .101.319c0 .201-.12.385-.282.481Z" fill="#FF3F8F" /><path fill-rule="evenodd" clip-rule="evenodd" d="m15.588 13.592 3.753-1.6-6.81-2.905a.91.91 0 0 1-.298-.216l3.355 4.721Z" fill="#7280FF" /></svg>
