<svg xmlns="http://www.w3.org/2000/svg" role="img" viewBox="0 0 38 24" width="38" height="24" aria-labelledby="pi-snapmint"><title id="pi-snapmint">Snapmint</title><g clip-path="url(#pi-snapmint-clip0_708_9709)"><path opacity=".07" d="M35 0H3C1.3 0 0 1.3 0 3v18c0 1.7 1.4 3 3 3h32c1.7 0 3-1.3 3-3V3c0-1.7-1.4-3-3-3z" fill="#000"/><path d="M35 1c1.1 0 2 .9 2 2v18c0 1.1-.9 2-2 2H3c-1.1 0-2-.9-2-2V3c0-1.1.9-2 2-2h32z" fill="#014751"/><path d="M5.394 7.401a.789.789 0 00-.05-.29.538.538 0 00-.175-.237 1.393 1.393 0 00-.353-.21 4.917 4.917 0 00-.581-.217 6.436 6.436 0 01-.737-.279 2.894 2.894 0 01-.601-.36 1.537 1.537 0 01-.4-.474 1.325 1.325 0 01-.143-.628c0-.233.049-.445.147-.636.1-.191.243-.355.427-.492.183-.14.4-.247.647-.322.251-.075.528-.113.83-.113.419 0 .781.077 1.086.23.308.152.546.358.714.62.168.26.252.554.252.88H5.394a.94.94 0 00-.112-.466.765.765 0 00-.334-.317 1.192 1.192 0 00-.558-.117 1.33 1.33 0 00-.543.097.733.733 0 00-.322.264.686.686 0 00-.105.372.54.54 0 00.074.28c.049.08.123.156.22.228.1.07.22.136.365.198.148.06.318.119.512.178.31.093.582.197.815.31.235.114.43.244.585.388a1.42 1.42 0 01.473 1.106c0 .243-.047.46-.143.651a1.379 1.379 0 01-.411.489 1.907 1.907 0 01-.644.306 3.07 3.07 0 01-.834.105 3.12 3.12 0 01-.814-.109 2.477 2.477 0 01-.725-.333 1.702 1.702 0 01-.52-.567 1.62 1.62 0 01-.194-.806h1.07c0 .178.029.33.086.457.06.125.142.227.248.307.109.077.235.134.38.17.145.037.301.055.47.055.217 0 .395-.03.535-.09a.694.694 0 00.318-.255.656.656 0 00.108-.373zm2.82-1.834v3.3H7.19V4.671h.961l.062.896zM8.05 6.618h-.303a2.77 2.77 0 01.124-.83c.08-.248.193-.461.338-.64a1.502 1.502 0 011.198-.554c.201 0 .384.028.547.085.162.057.302.147.418.271.12.125.21.287.272.489.065.2.097.445.097.737v2.691H9.71V6.168a1.01 1.01 0 00-.085-.454.476.476 0 00-.24-.236.935.935 0 00-.384-.07.856.856 0 00-.415.097.858.858 0 00-.295.26 1.28 1.28 0 00-.178.384 1.702 1.702 0 00-.062.469zm5.906 1.357V6.04a.852.852 0 00-.074-.368.533.533 0 00-.225-.24.774.774 0 00-.384-.086.871.871 0 00-.36.07.532.532 0 00-.233.198.511.511 0 00-.082.287h-1.027c0-.174.041-.338.124-.493.083-.158.2-.297.353-.419.155-.124.34-.22.554-.29.217-.07.46-.105.73-.105a2.1 2.1 0 01.849.163c.25.106.447.266.59.48.144.215.216.485.216.81v1.831c0 .21.013.39.039.54.029.147.07.275.124.383v.066h-1.043a1.545 1.545 0 01-.113-.403 3.156 3.156 0 01-.038-.489zm.143-1.663l.008.608h-.648c-.16 0-.3.017-.422.05a.782.782 0 00-.299.14.566.566 0 00-.175.218.66.66 0 00.012.562c.05.083.12.149.21.198a.72.72 0 00.325.07.932.932 0 00.787-.38.585.585 0 00.12-.303l.295.442a1.71 1.71 0 01-.162.337c-.073.12-.166.23-.28.334-.113.103-.25.189-.41.256-.161.067-.347.1-.56.1-.27 0-.514-.054-.728-.162a1.292 1.292 0 01-.508-.446 1.145 1.145 0 01-.186-.644c0-.222.041-.419.124-.59a1.13 1.13 0 01.368-.43c.163-.119.365-.208.605-.267.243-.062.521-.093.834-.093h.69zm2.835-.834v5.002h-1.028V4.671h.95l.078.807zm2.695 1.249v.081c0 .305-.036.588-.108.85-.07.258-.174.484-.31.678a1.474 1.474 0 01-.512.45 1.479 1.479 0 01-.699.159 1.46 1.46 0 01-.674-.148 1.39 1.39 0 01-.485-.426 2.353 2.353 0 01-.318-.64 4.775 4.775 0 01-.175-.803v-.26c.04-.307.097-.587.175-.837a2.31 2.31 0 01.318-.656c.132-.186.292-.33.48-.43.192-.1.416-.151.672-.151.266 0 .5.05.702.15.204.102.376.246.515.435.14.189.245.414.315.675.07.261.104.552.104.873zm-1.027.081v-.081a2.51 2.51 0 00-.05-.516c-.035-.16-.086-.3-.156-.42a.773.773 0 00-.271-.282.765.765 0 00-.404-.101.978.978 0 00-.407.078.715.715 0 00-.28.22 1.11 1.11 0 00-.17.342 2.09 2.09 0 00-.077.43v.644c.023.191.068.363.135.516a.855.855 0 00.295.364c.132.09.303.136.512.136a.743.743 0 00.403-.105.805.805 0 00.272-.287c.07-.124.12-.266.151-.426.031-.16.046-.331.046-.512zm2.795-1.276v3.335h-1.023V4.671h.965l.058.861zm-.15 1.086h-.315c0-.292.035-.561.105-.807a1.92 1.92 0 01.318-.64c.14-.183.311-.325.516-.426.206-.1.446-.151.717-.151.189 0 .362.028.52.085.157.054.293.14.407.26.116.116.206.269.268.457.062.187.093.41.093.671v2.8h-1.024V6.172c0-.196-.029-.35-.086-.461a.46.46 0 00-.236-.233.903.903 0 00-.372-.07.841.841 0 00-.415.097.8.8 0 00-.283.26 1.233 1.233 0 00-.163.384c-.034.144-.05.3-.05.469zm2.551-.19l-.423.077a2.63 2.63 0 01.109-.74c.07-.233.172-.436.306-.609a1.43 1.43 0 01.508-.411c.204-.1.44-.151.706-.151.207 0 .393.03.559.089.168.057.311.148.43.275.119.124.21.286.271.485.065.199.097.442.097.729v2.695H25.33V6.168c0-.204-.029-.36-.085-.47a.445.445 0 00-.237-.224.928.928 0 00-.365-.066.763.763 0 00-.636.299c-.07.093-.122.201-.159.325a1.48 1.48 0 00-.05.396zm4.568-1.757v4.196H27.34V4.671h1.027zM27.27 3.574c0-.153.052-.28.155-.38a.593.593 0 01.427-.152c.178 0 .319.05.422.152.106.1.16.227.16.38 0 .15-.054.275-.16.376a.58.58 0 01-.422.151.593.593 0 01-.427-.151.504.504 0 01-.155-.376zm3.079 1.993v3.3h-1.024V4.671h.962l.062.896zm-.163 1.051h-.302c.002-.305.043-.582.124-.83a1.96 1.96 0 01.337-.64 1.505 1.505 0 011.198-.554c.202 0 .384.028.547.085.163.057.303.147.419.271.119.125.21.287.271.489.065.2.097.445.097.737v2.691h-1.031V6.168c0-.191-.029-.342-.085-.454a.476.476 0 00-.24-.236.935.935 0 00-.385-.07.856.856 0 00-.415.097.859.859 0 00-.294.26 1.28 1.28 0 00-.179.384 1.704 1.704 0 00-.062.469zm5.58-1.947v.737h-2.404v-.737h2.404zm-1.76-1.031h1.028v4.017c0 .124.016.22.05.287a.26.26 0 00.151.136.738.738 0 00.24.035c.068 0 .13-.004.187-.012.057-.008.105-.015.143-.023l.004.768a2.157 2.157 0 01-.651.097c-.23 0-.432-.039-.605-.117a.865.865 0 01-.404-.384c-.095-.178-.143-.413-.143-.705v-4.1zM7.833 15.38v1.481c0 .583-.069 1.09-.206 1.52a2.831 2.831 0 01-.58 1.07 2.314 2.314 0 01-.89.63 3.063 3.063 0 01-1.143.206c-.334 0-.646-.043-.935-.128a2.496 2.496 0 01-.786-.401 2.583 2.583 0 01-.596-.68 3.294 3.294 0 01-.384-.958 5.41 5.41 0 01-.134-1.259V15.38c0-.586.067-1.093.2-1.52.138-.431.333-.788.585-1.07a2.36 2.36 0 01.897-.63 3.063 3.063 0 011.142-.205c.334 0 .645.044.93.133a2.38 2.38 0 011.381 1.075c.168.271.296.593.385.964.09.368.134.786.134 1.253zm-1.877 1.71v-1.95c0-.26-.015-.487-.045-.68a1.963 1.963 0 00-.122-.49.972.972 0 00-.195-.323.68.68 0 00-.268-.184.822.822 0 00-.323-.061.84.84 0 00-.4.095.758.758 0 00-.296.29 1.654 1.654 0 00-.19.534c-.04.223-.06.496-.06.819v1.95c0 .263.012.493.038.69.03.193.07.359.123.496.056.134.122.243.2.329a.705.705 0 00.268.178.941.941 0 00.718-.034.759.759 0 00.296-.29c.085-.137.148-.317.189-.54.044-.226.067-.503.067-.83zm2.869-3.036v-.43c0-.308.066-.588.2-.84a1.5 1.5 0 01.602-.608c.267-.152.6-.228.997-.228.408 0 .746.076 1.014.228.267.153.466.355.596.608.133.252.2.532.2.84v.43c0 .3-.067.577-.2.83-.13.252-.329.454-.596.607-.264.152-.596.228-.998.228-.404 0-.74-.076-1.008-.228a1.54 1.54 0 01-.607-.607c-.134-.253-.2-.53-.2-.83zm1.203-.43v.43c0 .111.022.217.067.317.044.1.111.182.2.245.093.06.206.09.34.09.137 0 .249-.03.334-.09a.563.563 0 00.19-.245.774.774 0 00.066-.317v-.43a.802.802 0 00-.066-.328.515.515 0 00-.195-.24.574.574 0 00-.34-.094.554.554 0 00-.53.334.802.802 0 00-.066.329zm2.646 4.992v-.43c0-.304.067-.582.2-.835a1.54 1.54 0 01.607-.607c.271-.152.606-.228 1.003-.228.409 0 .745.076 1.008.228.268.152.466.355.596.607.134.253.201.531.201.836v.429c0 .304-.067.583-.2.835-.13.253-.327.455-.591.608-.264.152-.596.228-.997.228-.405 0-.743-.076-1.014-.228a1.531 1.531 0 01-.613-.608 1.758 1.758 0 01-.2-.835zm1.209-.43v.43a.65.65 0 00.083.323c.056.1.13.182.223.245.093.06.195.09.306.09.171 0 .297-.03.38-.09a.432.432 0 00.166-.245c.03-.1.045-.208.045-.323v-.43a.786.786 0 00-.067-.322.564.564 0 00-.535-.334.563.563 0 00-.535.334.786.786 0 00-.066.323zm1.069-4.957l-3.96 6.34-.875-.44 3.96-6.34.875.44zm8.044 5.443v1.503h-4.323v-1.503h4.323zm-3.627-6.607v8.11h-1.955v-8.11h1.955zm3.07 3.22v1.454h-3.766v-1.454h3.766zm.573-3.22v1.51h-4.339v-1.51h4.34zm1.755 0h1.593l1.81 5.643 1.811-5.643h1.593l-2.757 8.11h-1.292l-2.758-8.11zm-.97 0h1.65l.306 6.217v1.893h-1.955v-8.11zm7.098 0h1.654v8.11h-1.96v-1.893l.306-6.217zm4.985 0v8.11h-1.95v-8.11h1.95z" fill="#AFE137"/></g><defs><clipPath id="pi-snapmint-clip0_708_9709"><path fill="#fff" d="M0 0h38v24H0z"/></clipPath></defs></svg>
