<svg width="38" height="24" viewBox="0 0 38 24" fill="none" xmlns="http://www.w3.org/2000/svg" role="img" aria-labelledby="pi-societegenerale"><title id="pi-societegenerale">Societe Generale</title><g clip-path="url(#clip0_39_296)"><path opacity=".07" d="M35 0H3C1.3 0 0 1.3 0 3v18c0 1.7 1.4 3 3 3h32c1.7 0 3-1.3 3-3V3c0-1.7-1.4-3-3-3z" fill="#000"/><path d="M35 1c1.1 0 2 .9 2 2v18c0 1.1-.9 2-2 2H3c-1.1 0-2-.9-2-2V3c0-1.1.9-2 2-2h32z" fill="#fff"/><g clip-path="url(#clip1_39_296)"><path d="M11 4h16v8.192H11V4z" fill="#E60028"/><path d="M11 11.973h16V20H11v-8.027z" fill="#000"/><path d="M13.775 11.514h10.4v.967h-10.4v-.967z" fill="#fff"/></g></g><defs><clipPath id="pi-societegenerale-clip0_39_296"><path fill="#fff" d="M0 0h38v24H0z"/></clipPath><clipPath id="pi-societegenerale-clip1_39_296"><path fill="#fff" transform="translate(11 4)" d="M0 0h16v16H0z"/></clipPath></defs></svg>