<svg viewBox="0 0 38 24" xmlns="http://www.w3.org/2000/svg" width="38" height="24" role="img" aria-labelledby="pi-solana"><title id="pi-solana">Solana</title><defs><linearGradient gradientTransform="matrix(.14959 0 0 .14959 11.446 5.418)" gradientUnits="userSpaceOnUse" id="pi-solana-a" x1="8.526" x2="88.993" y1="90.097" y2="-3.016"><stop offset=".08" stop-color="#9945ff"/><stop offset=".3" stop-color="#8752f3"/><stop offset=".5" stop-color="#5497d5"/><stop offset=".6" stop-color="#43b4ca"/><stop offset=".72" stop-color="#28e0b9"/><stop offset=".97" stop-color="#19fb9b"/></linearGradient></defs><g fill-rule="evenodd"><path d="M35 0H3a3 3 0 0 0-3 3v18a3 3 0 0 0 3 3h32a3 3 0 0 0 3-3V3a3 3 0 0 0-3-3Z" opacity=".07"/><path d="M35 1a2 2 0 0 1 2 2v18a2 2 0 0 1-2 2H3a2 2 0 0 1-2-2V3a2 2 0 0 1 2-2h32" fill="#fff"/><path d="m26.476 15.797-2.494 2.606a.58.58 0 0 1-.423.179H11.735a.295.295 0 0 1-.158-.046.285.285 0 0 1-.107-.124.275.275 0 0 1 .054-.305l2.496-2.605a.58.58 0 0 1 .422-.18h11.823c.056 0 .111.016.159.046.047.03.084.073.106.124a.276.276 0 0 1-.054.305Zm-2.494-5.248a.579.579 0 0 0-.423-.179H11.735a.295.295 0 0 0-.158.046.275.275 0 0 0-.053.428l2.496 2.607a.58.58 0 0 0 .422.179h11.823a.296.296 0 0 0 .159-.046.276.276 0 0 0 .053-.428l-2.495-2.607ZM11.735 8.678H23.56a.593.593 0 0 0 .423-.18l2.494-2.605a.28.28 0 0 0 .054-.305.285.285 0 0 0-.107-.124.296.296 0 0 0-.158-.046H14.442a.593.593 0 0 0-.422.18l-2.496 2.605a.278.278 0 0 0 .053.428c.047.03.102.047.158.047Z" fill="url(#pi-solana-a)"/></g></svg>
