<svg xmlns="http://www.w3.org/2000/svg" width="38" height="24" viewBox="0 0 38 24" role="img" aria-labelledby="pi-solanapay"><title id="pi-solanapay">Solana Pay</title><defs><linearGradient id="pi-solanapay-g" x1="3.45" y1="10.46" x2="10.4" y2="18.46" gradientTransform="matrix(1 0 0 -1 0 26)" gradientUnits="userSpaceOnUse"><stop offset=".08" stop-color="#9945ff"/><stop offset=".3" stop-color="#8752f3"/><stop offset=".5" stop-color="#5497d5"/><stop offset=".6" stop-color="#43b4ca"/><stop offset=".72" stop-color="#28e0b9"/><stop offset=".97" stop-color="#19fb9b"/></linearGradient></defs><path d="M35 0H3a3 3 0 00-3 3v18a3 3 0 003 3h32a3 3 0 003-3V3a3 3 0 00-3-3z" style="isolation:isolate" opacity=".07"/><path d="M35 1a2 2 0 012 2v18a2 2 0 01-2 2H3a2 2 0 01-2-2V3a2 2 0 012-2h32" fill="#fff"/><path d="M32 13.79l-1.91-4.13h-1.57l2.7 5.57v.17a1 1 0 01-.41.54 1 1 0 01-.66.17 1.74 1.74 0 01-.77-.21l-.25 1.19a3 3 0 001.14.23 2.24 2.24 0 002.28-1.57l2.85-6.09h-1.55zm-13.37-6.1H14.1v7.59h1.48v-2.79h3c1.65 0 2.74-.83 2.74-2.4s-1.04-2.4-2.69-2.4zm-.08 3.47h-3V9h3c.86 0 1.35.39 1.35 1.08s-.49 1.08-1.35 1.08zm9.03 2.68v-2.29c0-1.35-1-2.05-2.63-2.05a2.91 2.91 0 00-2.87 1.6l1.22.43a1.64 1.64 0 011.59-.84c.93 0 1.32.38 1.32.84v.15l-2.2.25c-1.27.13-2.11.7-2.11 1.72s1 1.72 2.23 1.72a3.2 3.2 0 002.23-.81c.22.54.45.9 1.95.71v-1.13c-.6.14-.73 0-.73-.3zm-1.35-.72c0 .73-1 1.12-1.89 1.12-.66 0-1.05-.21-1.05-.63s.32-.57.95-.64l2-.24z"/><path d="M11.29 13.5a.17.17 0 010 .1.12.12 0 010 .08l-1.43 1.5a.28.28 0 01-.11.08.31.31 0 01-.13 0H2.8a.11.11 0 01-.08 0 .23.23 0 01-.07-.07.14.14 0 010-.09.36.36 0 010-.09l1.43-1.5a.29.29 0 01.12-.07.28.28 0 01.13 0h6.85a.11.11 0 01.11.06zm-1.47-2.85l-.11-.08H2.72a.23.23 0 00-.07.07.17.17 0 000 .1.2.2 0 000 .08l1.43 1.5a.5.5 0 00.12.08.28.28 0 00.13 0h6.85a.13.13 0 00.06-.07.14.14 0 000-.09.15.15 0 000-.09zm-7.1-1.11a.11.11 0 00.08 0h6.91l.11-.08L11.25 8a.12.12 0 000-.08.17.17 0 000-.1.13.13 0 00-.06-.07H4.36a.34.34 0 00-.14 0l-.11.08L2.69 9.3a.17.17 0 000 .17.27.27 0 00.08.07z" fill="url(#pi-solanapay-g)"/></svg>