<svg role="img" viewBox="0 0 38 24" width="38" height="24" aria-labelledby="pi-solanapayhelio" fill="none" xmlns="http://www.w3.org/2000/svg"><title id="pi-solanapayhelio">Solana Pay</title><g clip-path="url(#pi-solanapayhelio-clip)"><path d="M35 0H3C1.3 0 0 1.3 0 3v18c0 1.7 1.4 3 3 3h32c1.7 0 3-1.3 3-3V3c0-1.7-1.4-3-3-3z" fill="#000" fill-opacity=".07"/><path d="M35 1c1.1 0 2 .9 2 2v18c0 1.1-.9 2-2 2H3c-1.1 0-2-.9-2-2V3c0-1.1.9-2 2-2h32z" fill="#fff"/><path d="M28.781 7.68l-1.435-3.167h-1.191l2.05 4.273-.037.129a.772.772 0 01-.307.417.756.756 0 01-.499.126 1.198 1.198 0 01-.586-.16l-.19.916a2.3 2.3 0 00.867.176c.82 0 1.316-.305 1.726-1.204l2.17-4.673H30.2L28.782 7.68zM18.639 3.004h-3.44v5.821h1.127v-2.14h2.313c1.256 0 2.083-.64 2.083-1.84 0-1.2-.827-1.84-2.083-1.84zm-.062 2.663h-2.255v-1.66h2.255c.652 0 1.025.3 1.025.83 0 .529-.373.83-1.025.83zm6.859 2.054V5.968c0-1.038-.736-1.575-2-1.575-1.024 0-1.922.483-2.174 1.226l.926.332c.138-.371.616-.645 1.21-.645.705 0 1.003.29 1.003.645v.114l-1.677.187c-.966.104-1.602.542-1.602 1.324 0 .857.728 1.318 1.694 1.318a2.414 2.414 0 001.693-.623c.168.415.34.693 1.487.546V7.95c-.46.112-.56 0-.56-.229zm-1.025-.556c0 .565-.781.863-1.435.863-.498 0-.798-.161-.798-.483 0-.322.246-.438.722-.494l1.515-.179-.004.293z" fill="#000"/><path d="M13.066 7.46a.12.12 0 010 .075.129.129 0 01-.033.064L11.948 8.75a.256.256 0 01-.184.079H6.62a.128.128 0 01-.068-.02.139.139 0 01-.047-.055.117.117 0 010-.07.134.134 0 01.031-.065l1.087-1.152a.256.256 0 01.184-.079h5.136a.12.12 0 01.07.021c.023.01.042.027.053.05zM11.95 5.272a.29.29 0 00-.083-.058.28.28 0 00-.101-.02H6.62a.128.128 0 00-.115.074.12.12 0 000 .07.119.119 0 00.031.065l1.087 1.154a.29.29 0 00.084.058c.032.013.066.02.1.02h5.136a.12.12 0 00.07-.02.106.106 0 00.045-.054.12.12 0 00-.023-.135L11.95 5.272zm-5.398-.85c.02.012.044.018.068.018h5.146a.257.257 0 00.184-.079l1.085-1.151a.13.13 0 00.033-.065.12.12 0 000-.07.106.106 0 00-.045-.054.12.12 0 00-.07-.021H7.8a.256.256 0 00-.185.079L6.53 4.235a.12.12 0 00-.033.064.117.117 0 000 .07c.013.023.033.04.055.053z" fill="url(#pi-solanapay-gradient)"/><path d="M18.983 11.237l1.192 2.006h-.131l-1.14-1.926-1.106 1.926h-.131l1.174-2.035-1.174-1.978h.13l1.124 1.899 1.123-1.899h.13l-1.19 2.007zm-7.227 10.036v-3.02c0-.688-.36-.904-.927-.904a1.448 1.448 0 00-1.13.586v3.338H8.391v-6.85h1.306v2.536a2.299 2.299 0 011.749-.77c1.09 0 1.615.596 1.615 1.561v3.523h-1.306zm4.684.084c-1.514 0-2.614-1.043-2.614-2.664 0-1.62 1.072-2.664 2.613-2.664 1.504 0 2.567 1.016 2.567 2.552a3.13 3.13 0 01-.038.503H15.16c.066.764.592 1.192 1.253 1.192.564 0 .874-.279 1.044-.62h1.419c-.282.947-1.147 1.701-2.438 1.701zm-1.27-3.148h2.476c-.02-.68-.564-1.108-1.241-1.108-.63 0-1.128.4-1.232 1.108h-.003zm4.515-3.786h1.274v6.85h-1.274v-6.85zm2.123.337c0-.426.338-.76.808-.76.47 0 .805.33.805.76s-.348.761-.808.761c-.46 0-.805-.337-.805-.76zm.14 1.374h1.317v5.139h-1.316v-5.14z" fill="#000"/><path d="M28.272 18.567a1.535 1.535 0 00-.482-1.029 1.548 1.548 0 00-2.6 1.029h-1.174a2.7 2.7 0 01.796-1.914 2.723 2.723 0 013.842 0 2.7 2.7 0 01.796 1.914h-1.178zm-1.482 2.875a2.695 2.695 0 01-2.435-1.537l1.056-.493a1.535 1.535 0 001.345.864 1.53 1.53 0 001.382-.804l1.057.493a2.715 2.715 0 01-2.405 1.477z" fill="#F76C1B"/></g><defs><linearGradient id="pi-solanapay-gradient" x1="7.047" y1="8.968" x2="12.39" y2="2.887" gradientUnits="userSpaceOnUse"><stop offset=".08" stop-color="#9945FF"/><stop offset=".3" stop-color="#8752F3"/><stop offset=".5" stop-color="#5497D5"/><stop offset=".6" stop-color="#43B4CA"/><stop offset=".72" stop-color="#28E0B9"/><stop offset=".97" stop-color="#19FB9B"/></linearGradient><clipPath id="pi-solanapayhelio-clip"><path fill="#fff" d="M0 0h38v24H0z"/></clipPath></defs></svg>
