<svg width="38" height="24" viewBox="0 0 38 24" fill="none" xmlns="http://www.w3.org/2000/svg" role="img" aria-labelledby="pi-sparkasse"><title id="pi-sparkasse">Sparkasse</title><g clip-path="url(#clip0_39_161)"><path opacity=".07" d="M35 0H3C1.3 0 0 1.3 0 3v18c0 1.7 1.4 3 3 3h32c1.7 0 3-1.3 3-3V3c0-1.7-1.4-3-3-3z" fill="#000"/><path d="M35 1c1.1 0 2 .9 2 2v18c0 1.1-.9 2-2 2H3c-1.1 0-2-.9-2-2V3c0-1.1.9-2 2-2h32z" fill="#fff"/><path d="M16.842 6.36c.124.272.291.509.5.715.21.205.456.365.742.481.285.117.59.174.91.174a2.363 2.363 0 001.647-.655 2.26 2.26 0 00.5-.714 2.11 2.11 0 00.181-.87c0-.31-.06-.6-.18-.872a2.254 2.254 0 00-.501-.713 2.343 2.343 0 00-1.646-.656c-.322 0-.626.058-.91.174a2.27 2.27 0 00-.742.482c-.21.205-.377.442-.501.713a2.063 2.063 0 00-.187.871c0 .31.061.6.187.87zM12.18 19.38c.12.272.287.509.5.714a2.342 2.342 0 001.647.656h9.345c.322 0 .625-.058.91-.174a2.27 2.27 0 001.237-1.195 2.11 2.11 0 00.18-.871v-4.944H15.256V12.22H26v-.894c0-.31-.06-.6-.18-.87a2.31 2.31 0 00-.495-.715 2.287 2.287 0 00-.741-.482 2.383 2.383 0 00-.91-.173h-9.346a2.363 2.363 0 00-1.647.655c-.213.206-.38.443-.5.714a2.11 2.11 0 00-.181.87v4.945h10.721v1.346H12v.894c0 .31.06.6.18.87z" fill="red"/></g><defs><clipPath id="pi-sparkasse-clip0_39_161"><path fill="#fff" d="M0 0h38v24H0z"/></clipPath></defs></svg>