<svg width="38" height="24" viewBox="0 0 38 24" fill="none" xmlns="http://www.w3.org/2000/svg" role="img" aria-labelledby="pi-spaylater"><title id="pi-spaylater">SPayLater</title><rect width="38" height="24" rx="3" fill="#000" fill-opacity=".07"/><rect x="1" y="1" width="36" height="22" rx="2" fill="#EE4D2D"/><path d="M11.047 11.428c-.61-.196-.68-.433-.68-.59.013-.283.289-.5.654-.513.32 0 .6.085.882.265.13.078.204.011.249-.046l.005-.007.067-.098.003-.003.079-.116c.04-.074.063-.162-.06-.25a2.29 2.29 0 00-.356-.184 2.29 2.29 0 00-.888-.165c-.694.015-1.245.476-1.28 1.074-.024.437.196.787.655 1.043.133.07.583.237.777.294.535.155.81.428.756.746-.049.288-.368.482-.81.496a1.693 1.693 0 01-.978-.354l-.05-.037c-.035-.023-.088-.054-.15-.042-.045.008-.083.037-.116.087a23.956 23.956 0 00-.148.224c-.078.116-.02.187.04.238.13.104.292.211.406.266a2.362 2.362 0 001.06.24c.22 0 .48-.055.68-.143a1.16 1.16 0 00.704-.957c.072-.691-.377-1.13-1.501-1.466v-.002zm3.7-1.635h-1.429a.197.197 0 00-.196.196v3.775c0 .083.067.15.15.15h.361a.15.15 0 00.15-.15v-.973h.964a1.514 1.514 0 001.497-1.499c0-.816-.671-1.489-1.497-1.5m.825 1.49a.828.828 0 01-.832.827h-.957v-1.654h.96c.457 0 .829.37.829.827m7.328-.26h-.511l-.96 1.596-.997-1.596h-.55a.15.15 0 00-.132.078.15.15 0 00.003.154l1.262 2.043-1.05 1.805a.15.15 0 00-.001.152.15.15 0 00.131.076h.513l2.422-4.079a.15.15 0 00.001-.152.15.15 0 00-.132-.077m-4.144.198v.136a1.507 1.507 0 00-.947-.332c-.815 0-1.478.644-1.478 1.435 0 .79.663 1.456 1.478 1.456.347 0 .682-.118.947-.333v.136c0 .109.088.197.197.197h.4v-2.891h-.4a.197.197 0 00-.197.196zm-.95.44c.46 0 .835.36.835.8a.842.842 0 01-.835.822.84.84 0 01-.836-.822c0-.445.375-.8.835-.8zm7.833 1.62l-.012-.04h-1.33V9.936a.15.15 0 00-.15-.15h-.377a.15.15 0 00-.15.15v3.975h2.472l-.111-.1c-.003-.003-.247-.225-.341-.53m2.486-2.06v.06a1.059 1.059 0 00-.276-.17 1.293 1.293 0 00-.506-.095 1.34 1.34 0 00-1.26.854c-.072.178-.11.382-.11.604 0 .198.035.385.1.559.066.174.16.328.279.458a1.318 1.318 0 00.991.422c.202 0 .365-.031.51-.094.1-.043.191-.098.272-.163v.063c0 .109.088.197.197.197h.434v-2.892h-.434a.197.197 0 00-.197.197m-.476.49a.75.75 0 01.414.414c.04.1.062.216.062.343 0 .128-.02.244-.06.345a.683.683 0 01-.403.41.82.82 0 01-.294.053.703.703 0 01-.534-.217c-.14-.145-.21-.342-.21-.584 0-.242.07-.451.212-.596a.71.71 0 01.519-.224c.102 0 .201.018.293.056m3.139 1.585a.15.15 0 00-.186-.061.452.452 0 01-.349.019c-.07-.034-.108-.1-.117-.206a5.504 5.504 0 01-.016-.452v-.908h.61a.15.15 0 00.15-.15V11.2a.15.15 0 00-.15-.15h-.61v-.732a.15.15 0 00-.15-.15h-.352a.15.15 0 00-.15.15v.732h-.189a.15.15 0 00-.15.15v.34c0 .082.067.15.15.15h.189v.964c0 .207.005.366.016.476.011.114.035.219.071.314.06.142.155.259.283.348a.79.79 0 00.461.135c.107 0 .216-.014.327-.04a1.17 1.17 0 00.268-.104.15.15 0 00.059-.21l-.165-.276zm2.785-1.843a1.321 1.321 0 00-.991-.442c-.21 0-.406.038-.58.113a1.31 1.31 0 00-.728.771c-.067.175-.1.364-.1.561 0 .223.038.428.113.608.074.18.176.337.301.466.127.13.278.232.45.3.172.069.355.103.544.103.16 0 .305-.014.432-.043.127-.028.243-.067.343-.116a1.868 1.868 0 00.44-.289.15.15 0 00.026-.2l-.173-.249a.15.15 0 00-.22-.028 1.623 1.623 0 01-.32.21 1.093 1.093 0 01-.514.103.845.845 0 01-.483-.17.708.708 0 01-.268-.415h2.084l.009-.175a1.57 1.57 0 00-.08-.618 1.477 1.477 0 00-.284-.49m-1.73.703a.625.625 0 01.238-.373.788.788 0 01.48-.154.73.73 0 01.485.166.709.709 0 01.215.36h-1.418zm4.1-1.132c-.24 0-.44.042-.596.125a.99.99 0 00-.287.24v-.213a.15.15 0 00-.15-.15h-.339a.15.15 0 00-.15.15v2.587c0 .083.067.15.15.15h.34a.15.15 0 00.15-.15v-.994c0-.152.016-.296.049-.427a.964.964 0 01.154-.338.763.763 0 01.268-.247.938.938 0 01.41-.08H36v-.653h-.058z" fill="#fff"/><path d="M14.747 9.793h-1.429a.197.197 0 00-.196.196v3.775c0 .083.067.15.15.15h.361a.15.15 0 00.15-.15v-.973h.964a1.514 1.514 0 001.497-1.499c0-.816-.671-1.489-1.497-1.5m.825 1.49a.828.828 0 01-.832.827h-.957v-1.654h.96c.457 0 .829.37.829.827m7.328-.26h-.511l-.96 1.596-.997-1.596h-.55a.15.15 0 00-.132.078.15.15 0 00.003.154l1.262 2.043-1.05 1.805a.15.15 0 00-.001.152.15.15 0 00.131.076h.513l2.422-4.079a.15.15 0 00.001-.152.15.15 0 00-.132-.077m-4.144.198v.136a1.507 1.507 0 00-.947-.332c-.815 0-1.478.644-1.478 1.435 0 .79.663 1.456 1.478 1.456.347 0 .682-.118.947-.333v.136c0 .109.088.197.197.197h.4v-2.891h-.4a.197.197 0 00-.197.196zm-.95.44c.46 0 .835.36.835.8a.842.842 0 01-.835.822.84.84 0 01-.836-.822c0-.445.375-.8.835-.8zm7.833 1.62l-.012-.04h-1.33V9.936a.15.15 0 00-.15-.15h-.377a.15.15 0 00-.15.15v3.975h2.472l-.111-.1c-.003-.003-.247-.225-.341-.53m2.486-2.06v.06a1.059 1.059 0 00-.276-.17 1.293 1.293 0 00-.506-.095 1.34 1.34 0 00-1.26.854c-.072.178-.11.382-.11.604 0 .198.035.385.1.559.066.174.16.328.279.458a1.318 1.318 0 00.991.422c.202 0 .365-.031.51-.094.1-.043.191-.098.272-.163v.063c0 .109.088.197.197.197h.434v-2.892h-.434a.197.197 0 00-.197.197m-.476.49a.75.75 0 01.414.414c.04.1.062.216.062.343 0 .128-.02.244-.06.345a.683.683 0 01-.403.41.82.82 0 01-.294.053.703.703 0 01-.534-.217c-.14-.145-.21-.342-.21-.584 0-.242.07-.451.212-.596a.71.71 0 01.519-.224c.102 0 .201.018.293.056m3.139 1.585a.15.15 0 00-.186-.061.452.452 0 01-.349.019c-.07-.034-.108-.1-.117-.206a5.504 5.504 0 01-.016-.452v-.908h.61a.15.15 0 00.15-.15V11.2a.15.15 0 00-.15-.15h-.61v-.732a.15.15 0 00-.15-.15h-.352a.15.15 0 00-.15.15v.732h-.189a.15.15 0 00-.15.15v.34c0 .082.067.15.15.15h.189v.964c0 .207.005.366.016.476.011.114.035.219.071.314.06.142.155.259.283.348a.79.79 0 00.461.135c.107 0 .216-.014.327-.04a1.17 1.17 0 00.268-.104.15.15 0 00.059-.21l-.165-.276zm2.785-1.843a1.321 1.321 0 00-.991-.442c-.21 0-.406.038-.58.113a1.31 1.31 0 00-.728.771c-.067.175-.1.364-.1.561 0 .223.038.428.113.608.074.18.176.337.301.466.127.13.278.232.45.3.172.069.355.103.544.103.16 0 .305-.014.432-.043.127-.028.243-.067.343-.116a1.868 1.868 0 00.44-.289.15.15 0 00.026-.2l-.173-.249a.15.15 0 00-.22-.028 1.623 1.623 0 01-.32.21 1.093 1.093 0 01-.514.103.845.845 0 01-.483-.17.708.708 0 01-.268-.415h2.084l.009-.175a1.57 1.57 0 00-.08-.618 1.477 1.477 0 00-.284-.49m-1.73.703a.625.625 0 01.238-.373.788.788 0 01.48-.154.73.73 0 01.485.166.709.709 0 01.215.36h-1.418zm4.1-1.132c-.24 0-.44.042-.596.125a.99.99 0 00-.287.24v-.213a.15.15 0 00-.15-.15h-.339a.15.15 0 00-.15.15v2.587c0 .083.067.15.15.15h.34a.15.15 0 00.15-.15v-.994c0-.152.016-.296.049-.427a.964.964 0 01.154-.338.763.763 0 01.268-.247.938.938 0 01.41-.08H36v-.653h-.058zM5.225 9.91l2.394-.116v-.26c0-.28-.2-.48-.447-.449l-2.1.274c.078.17.131.356.153.55zm2.46.232H5.236a1.8 1.8 0 01-1.922 1.76v1.484c0 .303.246.548.549.548h3.822c.28 0 .506-.227.506-.506v-2.78a.506.506 0 00-.506-.506zm-.23 2.278a.383.383 0 11.001-.765.383.383 0 010 .765z" fill="#fff"/><path d="M3.44 8.67a1.44 1.44 0 100 2.879 1.44 1.44 0 000-2.879zm.863 1.62a.129.129 0 01-.092.041h-.76a.14.14 0 01-.14-.14V9.164c0-.072.06-.131.134-.127a.13.13 0 01.121.13v.907h.642a.13.13 0 01.13.122.127.127 0 01-.035.095z" fill="#fff"/></svg>