<svg xmlns="http://www.w3.org/2000/svg" role="img" viewBox="0 0 38 24" width="38" height="24" aria-labelledby="pi-spei"><title id="pi-spei">SPEI</title><path fill="#000" opacity=".07" d="M35 0H3C1.3 0 0 1.3 0 3v18c0 1.7 1.4 3 3 3h32c1.7 0 3-1.3 3-3V3c0-1.7-1.4-3-3-3z"/><path fill="#fff" d="M35 1c1.1 0 2 .9 2 2v18c0 1.1-.9 2-2 2H3c-1.1 0-2-.9-2-2V3c0-1.1.9-2 2-2h32"/><path d="M20.715 8.135v8.358h7.429v-1.804h-4.651v-1.94h4.214v-1.69h-4.214v-.863h4.65v-2.06h-7.428z" fill="#F2911A"/><path d="M33.067 9.094v-.688h.321c.083 0 .14 0 .173.015a.254.254 0 01.091.068c.025.03.033.068.033.106 0 .053-.016.09-.05.128-.032.038-.082.053-.148.06a.32.32 0 01.083.061c.024.023.05.06.082.114l.09.136h-.18l-.108-.151c-.041-.053-.066-.091-.082-.099-.017-.007-.033-.022-.05-.03-.016-.008-.041-.008-.074-.008h-.033v.288h-.148zm.148-.393h.115c.075 0 .116 0 .132-.008.017-.008.033-.015.042-.03a.103.103 0 00.016-.053c0-.023 0-.046-.016-.053-.017-.008-.033-.023-.058-.03h-.223V8.7h-.008z" fill="#323183"/><path d="M33.355 9.425a.646.646 0 11.002-1.292.646.646 0 01-.002 1.292zm0-1.165a.522.522 0 00-.52.52c0 .286.234.52.52.52.286 0 .52-.234.52-.52a.523.523 0 00-.52-.52zM6.499 13.501l-2.342.124-.022-.008c.204.78.365 1.704 1.014 2.155.65.452 1.656.678 2.765.678 1.218 0 2.02-.27 2.648-.809.628-.538.941-1.186.941-1.936 0-.692-.226-1.23-.678-1.617-.452-.378-1.13-.764-2.284-1.026-1.145-.262-1.386-.342-1.583-.488-.138-.109-.211-.24-.211-.393 0-.175.087-.32.248-.437.248-.16.387-.21.693-.21.306 0 .59.123.832.29.248.168.313.495.4.816l2.342-.124c-.204-.714-.357-1.47-.897-1.835-.54-.364-1.313-.546-2.487-.546-1.175 0-1.912.124-2.473.604-.555.481-.898.954-.898 1.668 0 .793.139 1.281.78 1.725.46.32 1.197.67 2.94 1.056.373.087.614.306.723.408.102.109.153.24.153.407a.691.691 0 01-.284.583c-.278.204-.329.306-.89.306-.504 0-.65-.11-.934-.328-.277-.219-.401-.64-.496-1.063z" fill="#323183"/><path fill-rule="evenodd" clip-rule="evenodd" d="M12.366 8.143c-.011.027-.011 8.27 0 8.31l.008.03 1.36-.004 1.36-.003.004-1.515.003-1.514.771-.007c.967-.01 1.441-.04 1.826-.114.364-.07.777-.25 1.094-.477.15-.107.39-.342.496-.488.34-.461.477-.877.497-1.5a3.057 3.057 0 00-.126-1.017 9.105 9.105 0 01-.067-.228c-.084-.3-.22-.554-.406-.755-.125-.136-.27-.23-.578-.378-.531-.253-.746-.305-1.401-.336a130.51 130.51 0 00-2.57-.02c-2.085-.005-2.264-.004-2.271.016zm3.807 1.702c.295.016.413.039.555.106.17.08.277.21.363.44.045.122.089.364.089.49 0 .252-.19.535-.436.65-.216.101-.413.125-1.13.135l-.54.008V9.857l.099-.001.302-.011a5.72 5.72 0 01.698 0z" fill="#323183"/><path d="M30.112 10.93h-1.04V8.126h2.92v3.32l-1.88-2.3v1.786zM30.112 12.716h-1.04v3.766h2.92v-4.341l-1.88 2.299v-1.724z" fill="#323183"/></svg>