<svg xmlns="http://www.w3.org/2000/svg" width="38" height="24" role="img" viewBox="0 0 38 24" aria-labelledby="pi-splitit"><title id="pi-splitit">Splitit</title><path opacity=".07" d="M35 0H3C1.3 0 0 1.3 0 3v18c0 1.7 1.4 3 3 3h32c1.7 0 3-1.3 3-3V3c0-1.7-1.4-3-3-3z"/><path fill="#fff" d="M35 1c1.1 0 2 .9 2 2v18c0 1.1-.9 2-2 2H3c-1.1 0-2-.9-2-2V3c0-1.1.9-2 2-2h32"/><path d="M13.675 14.75a4.634 4.634 0 01-1.959-.436l.175-1.025c.562.32 1.25.517 1.794.517.407 0 .601-.125.601-.33 0-.223-.135-.32-.805-.472-1.193-.286-1.697-.58-1.697-1.4 0-.81.66-1.354 1.823-1.354.64 0 1.261.116 1.756.32l-.184 1.026c-.514-.259-1.106-.41-1.562-.41-.35 0-.504.116-.504.285 0 .178.136.276.805.446 1.26.311 1.707.605 1.707 1.416 0 .918-.689 1.417-1.95 1.417M18.69 11.426c-.32 0-.573.179-.815.446v1.657c.203.09.368.134.669.134.495 0 .863-.348.863-1.194 0-.73-.3-1.043-.718-1.043m.185 3.297c-.427 0-.728-.07-1-.15v1.558l-1.464.205v-6.024h1.29l.097.58c.33-.339.757-.669 1.368-.669.98 0 1.707.678 1.707 2.157 0 1.657-.95 2.343-1.998 2.343M21.677 14.618v-6.22l1.474-.213v6.433zM24.314 14.679h1.474v-4.367h-1.474zM28.988 14.741c-1.019 0-1.727-.338-1.727-1.452v-1.88h-.63v-1.097h.63v-1.3l1.455-.206v1.506h.902l.184 1.097h-1.086v1.666c0 .356.184.517.582.517.126 0 .242-.018.35-.045l.183 1.105c-.232.063-.456.09-.843.09" fill="#12110C"/><path fill="#A77BCA" d="M30.868 14.679h.63v-4.215h-.63zM34.36 14.75c-.718 0-1.193-.258-1.193-1.033v-2.754h-.708v-.5h.708v-1.46l.63-.098v1.559h1.058l.087.499h-1.145v2.656c0 .427.185.614.68.614.145 0 .32-.026.426-.044l.097.49a2.69 2.69 0 01-.64.071"/><path d="M25.622 8.97c0 .29-.256.526-.572.526-.315 0-.571-.236-.571-.526 0-.29.256-.525.571-.525.316 0 .572.235.572.525" fill="#12110C"/><path d="M31.703 8.972c0 .264-.232.478-.52.478-.286 0-.519-.214-.519-.478 0-.263.233-.477.52-.477.287 0 .52.214.52.477M9.84 8.88a4.226 4.226 0 00-.57-.365c-2-1.06-4.555-.431-5.71 1.405-1.153 1.837-.469 4.185 1.53 5.246.204.108.415.198.628.271L9.84 8.88z" fill="#A77BCA"/><path d="M3.653 16.12c.176.134.366.256.57.365 1.999 1.06 4.554.431 5.708-1.405 1.154-1.837.47-4.185-1.53-5.245a4.384 4.384 0 00-.628-.272l-4.12 6.558z" fill="#582E5A"/><path d="M8.402 9.835a4.384 4.384 0 00-.628-.272l-3.28 5.218a4.217 4.217 0 001.225.656l3.279-5.218a4.222 4.222 0 00-.596-.384" fill="#311C41"/></svg>