<svg xmlns="http://www.w3.org/2000/svg" role="img" viewBox="0 0 38 24" width="38" height="24" aria-labelledby="pi-spotii"><title id="pi-spotii">Spotii</title><path opacity=".07" fill="#000" d="M35 0H3C1.3 0 0 1.3 0 3v18c0 1.7 1.4 3 3 3h32c1.7 0 3-1.3 3-3V3c0-1.7-1.4-3-3-3z"/><path fill="#fff" d="M35 1c1.1 0 2 .9 2 2v18c0 1.1-.9 2-2 2H3c-1.1 0-2-.9-2-2V3c0-1.1.9-2 2-2h32"/><g transform="matrix(.81069 0 0 .81069 3.562 2.26)"><path d="M27.77 10.864V9.359a2.43 2.43 0 00.87-.079c-.026-.609 0-1.216.08-1.82l1.424.791c.079.34.105.682.08 1.03h.87v1.583h-.87c-.014.607 0 1.214.039 1.82.186.311.463.47.831.475v1.505c-1.183.194-1.988-.255-2.414-1.346a38.092 38.092 0 01-.04-2.454h-.87z" clip-rule="evenodd" fill="#ff4d45" fill-rule="evenodd"/><path d="M3.127 14.102a7.537 7.537 0 01-.831-1.346c-.452-1.208-.333-2.342.356-3.404 1.323-.644 2.643-.63 3.959.04.25.185.488.383.712.593a76.915 76.915 0 01-4.196 4.117zm9.555-4.7c.94-.19 1.746.048 2.415.712.122.215.215.439.277.673-.44.127-.89.219-1.346.277-.025-.416-.25-.6-.673-.554-.455-.019-.614.192-.475.634.5.184 1.015.33 1.544.435 1.014.537 1.265 1.315.752 2.335-.736.775-1.62 1-2.652.673-.726-.227-1.122-.715-1.188-1.464a7.978 7.978 0 011.267-.238c.104.58.447.805 1.03.673.307-.139.386-.363.237-.673a3.302 3.302 0 00-1.188-.356c-1.124-.334-1.506-1.06-1.148-2.177.28-.453.663-.77 1.148-.95z" clip-rule="evenodd" fill="#ff4c45" fill-rule="evenodd"/><path d="M17.679 16.568h-.08c-.457-.295-.932-.56-1.424-.792V9.364h1.504a.384.384 0 00.08.317c1.272-.628 2.367-.39 3.285.712.643 1.214.564 2.375-.238 3.483-.926.88-1.942 1.012-3.048.396-.079.763-.105 1.53-.079 2.296zm6.507-7.269c2.198.098 3.187 1.233 2.969 3.404-.42 1.277-1.304 1.936-2.652 1.98-1.622-.17-2.492-1.068-2.613-2.693.139-1.431.904-2.329 2.296-2.691z" clip-rule="evenodd" fill="#ff4b44" fill-rule="evenodd"/><path d="M32.304 9.538c.47.206.918.444 1.346.712v4.434h-1.425c-.026-1.73 0-3.445.08-5.146z" clip-rule="evenodd" fill="#ff4a43" fill-rule="evenodd"/><path d="M5.325 7.442h1.108A4.74 4.74 0 018.729 8.59c-.463.45-.912.912-1.346 1.386 1.315 1.574 1.447 3.237.396 4.987-.005-.043-.031-.07-.08-.079-1.68.682-3.21.445-4.591-.712v-.08a76.915 76.915 0 004.196-4.116 7.838 7.838 0 00-.713-.594c-1.316-.67-2.635-.683-3.958-.04.072-.166.165-.324.277-.475a4.928 4.928 0 012.415-1.425z" clip-rule="evenodd" fill="#ffc3bd" fill-rule="evenodd"/><path d="M24.252 10.804c.646-.052 1.108.212 1.386.792.181 1.296-.36 1.837-1.623 1.623-.905-.906-.826-1.711.237-2.415zm-5.475-.03c.646-.052 1.108.212 1.386.792.181 1.296-.36 1.837-1.623 1.623-.905-.906-.826-1.711.237-2.415z" clip-rule="evenodd" fill="snow" fill-rule="evenodd"/><path d="M34.847 10.792c.453.28.928.517 1.425.713v3.166h-1.504c-.026-1.307 0-2.6.079-3.879z" clip-rule="evenodd" fill="#ff4b43" fill-rule="evenodd"/><path d="M3.08 14.175c1.38 1.157 2.91 1.395 4.59.713.049.01.075.036.08.079a4.07 4.07 0 01-2.692 1.662H3.95a4.153 4.153 0 01-2.137-1.108l1.266-1.346z" clip-rule="evenodd" fill="#ff4b44" fill-rule="evenodd"/><circle r=".747" transform="translate(32.946 8.145)" fill="#ff4a43"/><circle r=".747" transform="translate(35.526 9.585)" fill="#ff4a43"/></g></svg>