<svg xmlns="http://www.w3.org/2000/svg" role="img" viewBox="0 0 38 24" width="38" height="24" aria-labelledby="pi-spraypay"><title id="pi-spraypay">Spraypay</title><path opacity=".07" d="M35 0H3C1.3 0 0 1.3 0 3v18c0 1.7 1.4 3 3 3h32c1.7 0 3-1.3 3-3V3c0-1.7-1.4-3-3-3z"/><path d="M35 1c1.1 0 2 .9 2 2v18c0 1.1-.9 2-2 2H3c-1.1 0-2-.9-2-2V3c0-1.1.9-2 2-2h32" fill="#fff"/><ellipse cx="4.334" cy="12.379" rx=".456" ry=".397" fill="#0057a5"/><ellipse cx="5.093" cy="13.697" rx=".456" ry=".397" fill="#0057a5"/><ellipse cx="6.512" cy="14.509" rx=".456" ry=".397" fill="#0057a5"/><ellipse cx="8.205" cy="14.597" rx=".456" ry=".397" fill="#0057a5"/><ellipse cx="9.722" cy="13.934" rx=".456" ry=".397" fill="#0057a5"/><ellipse cx="10.656" cy="12.702" rx=".456" ry=".397" fill="#0057a5"/><ellipse cx="10.754" cy="11.227" rx=".456" ry=".397" fill="#0057a5"/><ellipse cx="6.883" cy="9.009" rx=".456" ry=".397" fill="#0057a5"/><ellipse cx="5.366" cy="9.672" rx=".456" ry=".397" fill="#0057a5"/><ellipse cx="4.432" cy="10.904" rx=".456" ry=".397" fill="#0057a5"/><ellipse cx="3.666" cy="13.479" rx=".603" ry=".525" fill="#0057a5"/><ellipse cx="5.156" cy="14.939" rx=".603" ry=".525" fill="#0057a5"/><ellipse cx="7.287" cy="15.553" rx=".603" ry=".525" fill="#0057a5"/><ellipse cx="9.485" cy="15.159" rx=".603" ry=".525" fill="#0057a5"/><ellipse cx="11.163" cy="13.862" rx=".603" ry=".525" fill="#0057a5"/><ellipse cx="11.869" cy="12.008" rx=".603" ry=".525" fill="#0057a5"/><ellipse cx="7.794" cy="8.022" rx=".603" ry=".525" fill="#0057a5"/><ellipse cx="5.596" cy="8.416" rx=".603" ry=".525" fill="#0057a5"/><ellipse cx="3.918" cy="9.712" rx=".603" ry=".525" fill="#0057a5"/><ellipse cx="3.212" cy="11.567" rx=".603" ry=".525" fill="#0057a5"/><ellipse cx="3.386" cy="14.982" rx=".773" ry=".672" fill="#0057a5"/><ellipse cx="5.788" cy="16.358" rx=".773" ry=".672" fill="#0057a5"/><ellipse cx="8.656" cy="16.504" rx=".773" ry=".672" fill="#0057a5"/><ellipse cx="11.228" cy="15.382" rx=".773" ry=".672" fill="#0057a5"/><ellipse cx="12.807" cy="13.295" rx=".773" ry=".672" fill="#0057a5"/><ellipse cx="12.977" cy="10.797" rx=".773" ry=".672" fill="#0057a5"/><ellipse cx="9.286" cy="7.186" rx=".773" ry=".672" fill="#0057a5"/><ellipse cx="6.416" cy="7.038" rx=".773" ry=".672" fill="#0057a5"/><ellipse cx="3.847" cy="8.16" rx=".773" ry=".672" fill="#0057a5"/><ellipse cx="2.265" cy="10.249" rx=".773" ry=".672" fill="#0057a5"/><ellipse cx="2.097" cy="12.746" rx=".773" ry=".672" fill="#0057a5"/><path d="M11.954 6.92c-.277-.162-.652-.096-.836.145-.167.218-.12.504.094.675l-.377.606c-.032.047-.012.11.049.14a.13.13 0 0 0 .078.008c.034-.006.067-.022.083-.057l.37-.59c.255.08.548.003.706-.2.184-.24.11-.566-.167-.728zM15.868 5.99a.856.856 0 0 0-1.09-.062c-.32.245-.353.669-.072.949.11.109.25.179.4.21l-.022.828c-.002.054.049.103.118.105.03 0 .052-.01.074-.026.027-.02.047-.044.045-.081l.026-.81a.816.816 0 0 0 .452-.166.612.612 0 0 0 .069-.947zM11.762 8.978a.505.505 0 0 0-.644-.037.362.362 0 0 0-.042.56c.087.087.21.132.335.134l.24.72c.015.053.08.086.149.07a.12.12 0 0 0 .062-.042c.02-.025.03-.056.014-.09l-.233-.709a.47.47 0 0 0 .076-.046c.19-.144.21-.395.043-.56zM8.724 8.721c-.24-.07-.499.041-.58.249a.363.363 0 0 0 .13.424l-.417.67c-.032.047-.011.111.049.14a.13.13 0 0 0 .078.008c.034-.006.067-.021.083-.056l.422-.673c.221.039.445-.07.518-.26.083-.206-.047-.432-.283-.502zM14.447 8.8c.217-.149.293-.415.165-.64-.147-.26-.509-.366-.806-.238-.297.129-.42.444-.273.702.132.23.43.34.704.272l.373.665c.025.048.096.072.161.047a.105.105 0 0 0 .051-.053c.014-.027.018-.06-.004-.09zM17.865 9.296s.525.52 1.161.52c.255 0 .512-.08.512-.327 0-.488-2.297-.542-2.297-1.924 0-.795.802-1.326 1.808-1.326.672 0 1.617.284 1.617.956v.482h-1.135v-.194c0-.16-.261-.258-.496-.258-.255 0-.518.093-.518.295 0 .536 2.296.463 2.296 1.912 0 .735-.659 1.363-1.8 1.363-1.19 0-1.85-.727-1.85-.727zM21.62 8.575c0-.085-.056-.136-.156-.136h-.27v-.894h1.056c.355 0 .476.142.476.278v.057h.013s.32-.407 1.093-.407c.991 0 1.644.679 1.644 1.666 0 1.005-.73 1.66-1.703 1.66-.596 0-.929-.272-.929-.272h-.013s.013.11.013.272v1.16h-1.226V8.575zm1.908 1.338c.382 0 .715-.273.715-.758 0-.475-.29-.784-.715-.784-.369 0-.717.235-.717.784 0 .382.234.758.717.758zM26.213 8.575c0-.085-.056-.136-.156-.136h-.27v-.894h1.085c.333 0 .518.117.518.406v.168c0 .099-.013.159-.013.159h.013c.157-.432.617-.79 1.162-.79.071 0 .14.013.14.013v1.047s-.098-.02-.247-.02c-.29 0-.767.08-.943.557a1.26 1.26 0 0 0-.065.431v1.203h-1.226V8.575zM30.976 8.723h.049v-.037c0-.301-.163-.414-.467-.414-.156 0-.32.031-.32.154v.142h-1.134v-.352c0-.71 1.034-.747 1.454-.747 1.276 0 1.693.568 1.693 1.295v.925c0 .086.056.136.157.136h.27v.894h-1.063c-.355 0-.483-.19-.483-.332v-.057h-.013s-.255.463-1.021.463c-.681 0-1.24-.395-1.24-1.024 0-.941 1.553-1.046 2.118-1.046zm-.539 1.258c.32 0 .604-.302.604-.562V9.37h-.114c-.389 0-.836.094-.836.346 0 .148.105.265.346.265zM33.657 11.13c.199 0 .424-.05.545-.316l.042-.093-1.155-2.183c-.042-.08-.071-.099-.156-.099h-.134v-.894h.893c.206 0 .356.094.425.259l.538 1.282c.072.173.134.494.134.494h.014s.065-.32.12-.494l.405-1.282c.049-.167.241-.259.433-.259h.914v.894h-.134c-.085 0-.134.02-.17.1l-1.106 2.522c-.313.704-.943.956-1.523.956-.63 0-1.028-.338-1.028-.338l.44-.752c0-.002.212.202.503.202z" fill="#0057a5"/><path d="M17.623 13.125h-.46V12.2h2.46c.985 0 1.65.63 1.65 1.518s-.665 1.53-1.65 1.53h-.73v1.362h-1.27zm1.745 1.198c.411 0 .61-.253.61-.605s-.199-.593-.588-.593h-.496v1.198zM23.57 14.612h.05v-.037c0-.301-.164-.414-.468-.414-.156 0-.319.031-.319.154v.142h-1.135v-.352c0-.71 1.034-.746 1.454-.746 1.276 0 1.694.567 1.694 1.294v.925c0 .086.056.136.156.136h.27v.894H24.21c-.355 0-.482-.19-.482-.332v-.056h-.014s-.255.462-1.02.462c-.682 0-1.24-.394-1.24-1.024-.003-.94 1.55-1.046 2.117-1.046zm-.538 1.258c.32 0 .603-.304.603-.562v-.049h-.114c-.389 0-.835.094-.835.346-.003.148.105.265.346.265zM26.249 17.016c.199 0 .424-.048.545-.314l.042-.094-1.155-2.182c-.042-.08-.071-.1-.156-.1h-.134v-.894h.893c.206 0 .356.094.425.259l.538 1.283c.072.173.134.493.134.493h.014s.065-.32.12-.493l.405-1.283c.049-.167.241-.259.433-.259h.914v.894h-.134c-.085 0-.134.02-.17.1l-1.106 2.522c-.313.704-.943.957-1.523.957-.63 0-1.028-.339-1.028-.339l.44-.752s.212.202.503.202z" fill="#00853e"/></svg>