<svg width="38" height="24" viewBox="0 0 38 24" fill="none" xmlns="http://www.w3.org/2000/svg" role="img" aria-labelledby="pi-sslcommerz"><title id="pi-sslcommerz">Sslcommerz</title><g clip-path="url(#pi-sslcommerz-clip)"><rect x="1" y="1" width="36" height="22" rx="2" fill="#2A5DAC"/><path d="M13.729 5h8.834l.284.069.237.114.26.207.166.229.119.252.024.091v.482l-.095.229-.19.252-.544.527-.048.069h-.047l-.047.091-.806.78-.166.183-.52.504-.024.046h-.048l-.047.092-.521.504-.166.183-.71.688.023.091.356.344.19.16.212.207.19.16.095.092v.046l-.048.023-4.358.252-.118-.023v-.642l.047-3.712.095.022.355.344.19.16.237.23.189.16.071.069.095-.023.284-.275.166-.183.308-.298.165-.184.285-.274.023-.07-4.784.024-.308-.046-.213-.16-.142-.207-.095-.229-.047-.275V5.71l.07-.275.143-.206.19-.16.189-.069z" fill="#FDFDFD"/><path d="M15.766 10.362h.047v.642l-.024 1.42 1.516-.068.616-.023-.047.092-.19.16-.544.527-.024.046h5.779l.308.092.236.206.095.184.024.114v.94l-.047.252-.142.252-.143.114-.213.092-.118.023-.9.023h-8.621l-.356-.069-.26-.137-.213-.184-.166-.252-.095-.229-.023-.092v-.412l.094-.23.19-.251.213-.207.024-.045h.047l.047-.092.593-.573.165-.183.308-.298.024-.046h.047l.048-.092.426-.412.166-.184.568-.55.166-.183.379-.367zM14.818 17.65h2.369l.023.252v1.97l-.047.047h-2.416l-.047-.023-.024-.734V17.72l.024-.046.118-.023zM17.708 17.65h.308l.095.092.023.045h.095l.071-.114.521-.023h.616l.118.046.095.091.118-.022.048-.092.19-.023h1.444l.047.023.024.069v2.154l-.047.023h-.64l-.023-.825v-.963l-.735-.023-.023 1.788-.024.023-.64.023-.047-.046-.024-.848v-.94h-.71l-.024 1.765-.047.046h-.663l-.024-.55-.024-1.215-.023-.023-.19-.023-.047-.046v-.366l.142-.046zM22.232 17.65h.165l.095.023.047.114h.119l.071-.114.616-.023h.45l.165.023.143.114.094-.022.048-.092.142-.023h1.516l.047.069v2.154l-.047.046h-.616l-.024-.023-.024-1.306v-.459h-.71l-.024.115-.023 1.65-.024.023h-.663l-.024-.046-.024-1.33v-.435h-.71l-.024 1.788-.024.023h-.686l-.024-.848v-.94l-.213-.023-.071-.046-.024-.068v-.252l.047-.07.214-.022zM26.518 17.65h2.298l.024.023v1.146l-.024.023-.237.023-1.468.022.023.482.024.046.118.022h.71l.048-.252.071-.068h.663l.072.045v.71l-.237.024h-2.227l-.023-.023v-2.2l.165-.023zM6.197 17.65h2.677l.023.023v.39l-.023.022-1.8.023v.367l.023.069.048.023h1.302l.403.023.024.114v1.123l-.024.069-.047.023H6.22l-.047-.046v-.413l.094-.046 1.611-.022.095-.023-.024-.367H6.268l-.094-.046v-1.283l.023-.023zM3.047 17.65h2.677l.023.023v.39l-.047.022-1.705.023-.071.023-.024.275.047.138.048.023h1.61l.095.045v1.284l-.047.023H3.047l-.023-.046v-.436l.07-.023 1.73-.022-.024-.321-.024-.046-1.681-.023-.071-.023L3 18.085v-.39l.047-.045zM11.929 17.65h2.321l.047.046v.733l-.023.023h-.687l-.047-.023-.072-.344h-.876l.024 1.284.024.068h.828l.048-.114.047-.206.095-.023h.616l.047.023v.779l-.047.023h-2.392l-.048-.092v-2.154l.095-.023zM9.347 17.65h.569l.166.046.023 1.673.095.046h.355l.048-.023.047-.275.047-.046h.735l.047.046v.756l-.071.046h-2.06l-.048-.046v-2.2l.047-.023zM29.147 17.65h.427l.07.023.072.092.118-.023.095-.092h1.397l.071.069v.664l-.07.046h-.735l-.047-.069-.048-.252-.047-.023h-.213l-.118.023-.024 1.719-.024.046-.118.023h-.521l-.048-.046-.023-1.352-.024-.39-.213-.069-.048-.137v-.183l.071-.07zM31.753 17.65h2.131l.119.069.023.023v.206l-.142.183-.71.688.236.229v.069h-.947l-.047-.023v-.871l.095.046.118.137.095-.023.213-.229.047-.069-1.231-.023-.048-.137v-.23l.048-.045z" fill="#FDFDFD"/><path d="M15.434 18.108h1.042l.024.069v1.283h-1.066l-.023-.023v-1.306l.023-.023z" fill="#2A5DAC"/><path d="M32.203 18.864h.047l.024.07v.343l.45-.023-.024.183h1.232l.094.046v.367l-.047.069-.071.023h-2.155l-.19-.092-.047-.138.142-.229.213-.229.237-.298.095-.091z" fill="#FDFDFD"/><path d="M27.134 18.063h.83l.07.022v.413l-.023.023h-.853l-.071-.046v-.367l.047-.046z" fill="#2A5DAC"/><path d="M35 .5H3A2.5 2.5 0 00.5 3v18A2.5 2.5 0 003 23.5h32a2.5 2.5 0 002.5-2.5V3A2.5 2.5 0 0035 .5z" stroke="#000" stroke-opacity=".07"/></g><defs><clipPath id="pi-sslcommerz-clip"><path fill="#fff" d="M0 0h38v24H0z"/></clipPath></defs></svg>