<svg xmlns="http://www.w3.org/2000/svg" viewBox="0 0 38 24" width="38" height="24" role="img" aria-labelledby="pi-stadspasrotterdam"><title id="pi-stadspasrotterdam">Stadspas Rotterdam</title><path opacity=".07" d="M35 0H3C1.3 0 0 1.3 0 3v18c0 1.7 1.4 3 3 3h32c1.7 0 3-1.3 3-3V3c0-1.7-1.4-3-3-3z" fill="#000" display="inline"/><path d="M35 1c1.1 0 2 .9 2 2v18c0 1.1-.9 2-2 2H3c-1.1 0-2-.9-2-2V3c0-1.1.9-2 2-2z" fill="#faea25" display="inline" fill-opacity="1"/><path d="M7.67 8.234c0-.259-.185-.407-.48-.407h-.666s-.037 0-.037.037l-.185.998s0 .037.037.037h.665c.37 0 .666-.259.666-.665m-.444 3.437c-.074 0-.074 0-.11-.074l-.444-1.7h-.554s-.037 0-.037.037l-.296 1.663c0 .037 0 .074-.074.074H4.639s-.074 0-.074-.074l.85-4.767c0-.037 0-.074.074-.074h1.922c.96 0 1.478.517 1.478 1.256 0 .74-.443 1.405-1.072 1.7l.518 1.885c0 .037 0 .074-.074.074H7.189z" fill="#009540"/><path d="M10.552 10.488c.11-.222.222-.813.222-1.035 0-.221-.111-.443-.37-.443-.258 0-.37.11-.48.333-.111.221-.222.813-.222 1.034 0 .222.111.444.37.444.258 0 .37-.111.48-.333m-1.995-.037c0-.406.11-.998.295-1.404.333-.702.961-.96 1.7-.96.74 0 1.404.443 1.404 1.293 0 .85-.11.997-.295 1.404-.333.702-.961.96-1.7.96-.74 0-1.404-.443-1.404-1.293m4.582 1.257c-.924 0-1.146-.407-.998-1.33L12.4 9.01v-.037h-.185c-.037 0-.074 0-.037-.074l.11-.702c0-.037 0-.074.075-.074h.185s.037 0 .073-.037l.148-.924a.08.08 0 01.074-.074h1.035c.037 0 .074 0 .037.074l-.148.924v.037h.222c.037 0 .074 0 .074.074l-.111.702a.08.08 0 01-.074.074h-.222l-.037.037-.258 1.33c-.074.296 0 .37.258.37h.148c.037 0 .074 0 .074.074l-.148.85a.08.08 0 01-.074.074h-.406zm2.032 0c-.924 0-1.145-.407-.997-1.33l.258-1.368v-.037h-.185c-.036 0-.073 0-.036-.074l.11-.702c0-.037 0-.074.074-.074h.185s.037 0 .074-.037l.148-.924a.08.08 0 01.074-.074h1.034s.074 0 .037.074l-.147.924v.037h.332c.037 0 .074 0 .074.074l-.11.702a.08.08 0 01-.075.074h-.37l-.036.037-.259 1.33c-.074.296 0 .37.259.37h.148c.037 0 .073 0 .073.074l-.147.85a.08.08 0 01-.074.074h-.407zm3.031-2.181s.037 0 .073-.037v-.147c0-.296-.147-.407-.443-.407-.296 0-.443.111-.554.333 0 .074-.037.148-.074.258v.037h.924zm-2.218.924c0-.443.111-.998.296-1.404.333-.665.85-.998 1.7-.998s1.367.444 1.367 1.257 0 .443-.11.85a.08.08 0 01-.075.074H17.13s-.037 0-.037.036v.074c0 .333.222.48.591.48.37 0 .555-.11.813-.295h.111l.407.518v.11c-.407.37-.887.592-1.553.592-.665 0-1.44-.444-1.44-1.294m3.325 1.219s-.074 0-.074-.073l.592-3.363a.08.08 0 01.073-.074h1.035c.037 0 .074 0 .074.074l-.074.333c.222-.296.554-.48.96-.48.407 0 .334.036.444.147 0 0 .037.074 0 .11l-.554.962s-.074.037-.11 0a.645.645 0 00-.444-.148c-.296 0-.48.222-.555.665l-.332 1.81c0 .038 0 .075-.074.075h-1.035zm4.656-1.182c.111-.185.222-.813.222-1.035 0-.221-.11-.443-.37-.443-.258 0-.369.11-.48.333-.11.184-.222.813-.222 1.034 0 .222.111.444.37.444s.37-.111.48-.333m-.11 1.183c-.037 0-.074 0-.074-.074v-.259c.037 0 0 0 0 0-.185.259-.518.444-.961.444-.702 0-.998-.444-.998-1.146a4.2 4.2 0 01.37-1.774c.258-.554.665-.776 1.256-.776s.702.185.813.444l.296-1.663c0-.037 0-.074.074-.074h1.034c.037 0 .074 0 .074.074l-.85 4.767c0 .037 0 .074-.074.074H23.82zm3.584-1.146v-.222c.037 0 0-.037 0-.037h-.406c-.37 0-.555.148-.555.407s.111.259.37.259c.37 0 .554-.148.591-.407m-.11 1.146c-.038 0-.075 0-.075-.074v-.222c-.221.222-.517.37-.96.37-.444 0-.924-.333-.924-.887 0-.887.59-1.33 1.663-1.33h.554s.037 0 .074-.038v-.11c.074-.26 0-.37-.555-.37-.554 0-.59.074-.776.185h-.073l-.26-.628c0-.037 0-.074.038-.111.332-.222.85-.333 1.404-.333 1.072 0 1.552.333 1.367 1.294l-.406 2.217c0 .037 0 .074-.074.074h-.96zm5.505-.001c-.037 0-.074 0-.074-.073l.37-2.033c.074-.332 0-.554-.296-.554-.295 0-.48.185-.517.517l-.37 2.033c0 .037 0 .074-.073.074h-1.035c-.037 0-.074 0-.074-.074l.37-2.033c.073-.332 0-.554-.333-.554s-.444.185-.517.517l-.37 2.033c0 .037 0 .074-.074.074h-1.035s-.074 0-.074-.074l.592-3.363c0-.037 0-.074.074-.074h1.034c.037 0 .074 0 .074.074v.259c-.037 0 0 0 0 0 .185-.222.518-.444.961-.444.444 0 .702.148.813.444.259-.259.665-.444 1.146-.444.813 0 1.071.518.923 1.33l-.406 2.218c0 .037 0 .074-.074.074h-1.035z" fill="#009540"/><path d="M6.118 14.664c.11-.185.221-.813.221-1.035 0-.221-.11-.443-.37-.443-.258 0-.369.11-.48.332-.11.185-.221.813-.221 1.035 0 .222.11.444.37.444.258 0 .369-.111.48-.333m-2.44 2.513s-.073 0-.073-.074l.813-4.693c0-.037 0-.074.074-.074h1.034c.037 0 .074 0 .074.074v.258h-.037c.185-.258.518-.443.961-.443.665 0 .998.443.998 1.146a4.2 4.2 0 01-.37 1.773c-.258.555-.665.776-1.256.776s-.702-.184-.813-.443l-.296 1.552c0 .037 0 .074-.074.074H3.68zm5.802-2.476v-.222c.037 0 0-.037 0-.037h-.406c-.37 0-.554.148-.554.407 0 .258.11.258.37.258.369 0 .553-.147.59-.406m-.147 1.182c-.037 0-.074 0-.074-.073v-.222c-.222.222-.518.37-.961.37-.444 0-.924-.333-.924-.887 0-.887.591-1.33 1.663-1.33h.554s.037 0 .074-.038v-.11c.074-.26 0-.37-.554-.37s-.591.074-.776.185H8.26l-.259-.629c0-.037 0-.074.037-.11.333-.222.85-.333 1.404-.333 1.072 0 1.552.332 1.368 1.293l-.407 2.218c0 .037 0 .073-.074.073h-.96zm1.33-.48v-.11l.591-.555h.111c.333.259.665.37 1.035.37.37 0 .48-.148.48-.333 0-.185-.074-.185-.37-.222h-.369c-.628-.11-.998-.443-.998-.924 0-.85.665-1.367 1.663-1.367s1.109.222 1.405.443v.111l-.518.555h-.11a1.577 1.577 0 00-.888-.26c-.37 0-.443.149-.443.297 0 .147.074.184.333.184h.37c.738.111 1.07.48 1.07.924 0 .85-.664 1.441-1.773 1.441s-1.257-.258-1.552-.554" display="inline" fill="#e5007e"/></svg>