<svg viewBox="0 0 38 24" xmlns="http://www.w3.org/2000/svg" role="img" width="38" height="24" aria-labelledby="pi-stadspasamsterdam"><title id="pi-stadspasamsterdam">Stadspas Amsterdam</title><path d="M35 0H3C1.3 0 0 1.3 0 3v18c0 1.7 1.4 3 3 3h32c1.7 0 3-1.3 3-3V3c0-1.7-1.4-3-3-3" opacity=".07"/><path fill="#fff" d="M35 1c1.1 0 2 .9 2 2v18c0 1.1-.9 2-2 2H3c-1.1 0-2-.9-2-2V3c0-1.1.9-2 2-2z"/><path fill="#fefefe" d="M22.244 19.59h.049c.073 0 .145 0 .194-.048-.073 0-.146.048-.194.048z"/><path fill="#941b80" d="M21.784 4.749h-7.287v4.77h3.196l-6.707 6.706 4.02 4.019 6.754-6.755v3.341h4.77V4.75h-4.77z"/></svg>