<svg xmlns="http://www.w3.org/2000/svg" role="img" viewBox="0 0 38 24" width="38" height="24" aria-labelledby="pi-standardchartered"><title id="pi-standardchartered">Standard Chartered</title><g clip-path="url(#pi-standardchartered-a)"><path fill="#000" d="M35 0H3C1.3 0 0 1.3 0 3v18c0 1.7 1.4 3 3 3h32c1.7 0 3-1.3 3-3V3c0-1.7-1.4-3-3-3Z" opacity=".07"/><path fill="#fff" d="M35 1c1.1 0 2 .9 2 2v18c0 1.1-.9 2-2 2H3c-1.1 0-2-.9-2-2V3c0-1.1.9-2 2-2h32Z"/><path fill="#38D200" fill-rule="evenodd" d="m14.671 11.63 8.688 5.692c.67.44.859 1.342.422 2.017a1.443 1.443 0 0 1-2.004.424l-6.694-4.384s-.84-.485-1.032-1.39c-.27-1.27.62-2.358.62-2.358Zm7.653-4.508a1.43 1.43 0 0 1 1.426 1.436 1.43 1.43 0 0 1-1.426 1.435 1.453 1.453 0 0 1-.826-.265l-1.787-1.17 1.787-1.17c.241-.173.53-.266.826-.266Z" clip-rule="evenodd"/><path fill="#0473EA" fill-rule="evenodd" d="M15.425 17.14c.295.002.583.094.825.264l1.783 1.166-1.783 1.166a1.42 1.42 0 0 1-.825.264C14.637 20 14 19.36 14 18.57c0-.79.638-1.43 1.425-1.43Zm5.67-12.48a1.453 1.453 0 0 1-.424 2.008l-3.078 2.013 5.245 3.429s.944.543 1.13 1.46c.249 1.224-.544 2.242-.612 2.327l-.005.005-7.908-5.17s-1.023-.62-1.023-2.055c0-1.43 1.023-2.042 1.023-2.042l3.653-2.4a1.442 1.442 0 0 1 2 .425Z" clip-rule="evenodd"/></g><defs><clipPath id="pi-standardchartered-a"><path fill="#fff" d="M0 0h38v24H0z"/></clipPath></defs></svg>
