<svg width="38" height="24" viewBox="0 0 38 24" fill="none" xmlns="http://www.w3.org/2000/svg" role="img" aria-labelledby="pi-statestreet"><title id="pi-statestreet">State Street</title><g clip-path="url(#pi-statestreet-clip0_10417_218949)"><path opacity=".07" d="M35 0H3C1.3 0 0 1.3 0 3v18c0 1.7 1.4 3 3 3h32c1.7 0 3-1.3 3-3V3c0-1.7-1.4-3-3-3z" fill="#000"/><path d="M35 1c1.1 0 2 .9 2 2v18c0 1.1-.9 2-2 2H3c-1.1 0-2-.9-2-2V3c0-1.1.9-2 2-2h32z" fill="#fff"/><path d="M18.194 6.255c2.368-.82 4.864-1.716 7.895-1.716v2.096c-2.651 0-4.844.78-7.213 1.598-2.34.82-4.845 1.716-7.876 1.716V7.853c2.651 0 4.845-.78 7.194-1.598zM11 11.002h15.09v2.115H11v-2.115zm0 6.482c2.651 0 4.845-.78 7.194-1.599 2.368-.819 4.864-1.715 7.895-1.715v2.095c-2.651 0-4.844.78-7.213 1.599-2.35.819-4.845 1.716-7.876 1.716v-2.096z" fill="#001AFF"/></g><defs><clipPath id="pi-statestreet-clip0_10417_218949"><path fill="#fff" d="M0 0h38v24H0z"/></clipPath></defs></svg>