<svg xmlns="http://www.w3.org/2000/svg" width="38" height="24" viewBox="0 0 38 24" role="img" aria-labelledby="pi-stcpay"><title id="pi-stcpay">Stcpay</title><path d="M35 0H3a2.946 2.946 0 00-3 3v18a3.009 3.009 0 003 3h32a2.946 2.946 0 003-3V3a3.009 3.009 0 00-3-3z" opacity=".07"/><path d="M35 1a2.006 2.006 0 012 2v18a2.006 2.006 0 01-2 2H3a2.006 2.006 0 01-2-2V3a2.006 2.006 0 012-2h32" fill="#fff"/><path d="M23.513 13.871V8.955h.834v.393a1.344 1.344 0 011.095-.49 1.883 1.883 0 010 3.736 1.339 1.339 0 01-1.095-.5v1.772zm.834-3.6v.9a1.033 1.033 0 00.951.634c.554 0 .924-.414.924-1.089s-.369-1.076-.924-1.076a1.007 1.007 0 00-.951.632zm3.28 1.214a1.041 1.041 0 01.985-1.089l1.415-.179v-.179a.283.283 0 00-.308-.324h-1.778v-.759h1.813c.718 0 1.114.352 1.114.979v2.557h-.841v-.433a1.367 1.367 0 01-1.169.537 1.115 1.115 0 01-1.231-1.11zm1.436.435a1.039 1.039 0 00.964-.593v-.448l-1.08.151c-.3.041-.465.2-.465.455 0 .276.212.435.581.435zm2.413 1.192h.608a.382.382 0 00.41-.31l.109-.31-1.286-3.537h.869l.8 2.462h.02l.766-2.462h.86l-1.408 4.061c-.192.558-.445.855-1.067.855h-.677z" fill="#08ab7c"/><path d="M6.058 16.303a3.231 3.231 0 002.289-.812 2.11 2.11 0 00.623-1.522 1.969 1.969 0 00-.58-1.42 3.01 3.01 0 00-1.594-.782L5.68 11.55c-.464-.087-.725-.319-.725-.638 0-.42.405-.71 1.058-.71a1.371 1.371 0 01.985.363 1.081 1.081 0 01.275.594l1.609-.363a1.951 1.951 0 00-.594-1.2 3.214 3.214 0 00-2.29-.855 3.115 3.115 0 00-2.13.754 2.111 2.111 0 00-.681 1.565 1.812 1.812 0 00.522 1.333 3.132 3.132 0 001.523.77l1.1.261c.551.131.8.333.8.7 0 .449-.406.71-1.072.71a1.5 1.5 0 01-1.116-.42 1 1 0 01-.29-.666l-1.652.362a2.056 2.056 0 00.623 1.275 3.343 3.343 0 002.433.918zm12.23 0a3.446 3.446 0 002.464-.942 3.21 3.21 0 00.869-1.463l-1.7-.566a1.634 1.634 0 01-.449.754 1.652 1.652 0 01-1.188.45 1.819 1.819 0 01-1.29-.522 2.1 2.1 0 01-.536-1.493 2.076 2.076 0 01.536-1.492 1.771 1.771 0 011.275-.507 1.539 1.539 0 011.145.435 1.852 1.852 0 01.435.768l1.724-.58a3.262 3.262 0 00-.812-1.434 3.53 3.53 0 00-2.536-.971 3.675 3.675 0 00-2.623 1.058 3.958 3.958 0 00.029 5.448 3.721 3.721 0 002.657 1.057zm-5.854 0a2.429 2.429 0 001.522-.435v-1.565a1.673 1.673 0 01-.971.29.814.814 0 01-.942-.956V7H10.13v1.956h3.825v1.855H10.13V14.1a2.21 2.21 0 00.565 1.58 2.38 2.38 0 001.738.623z" fill="#4f008c"/></svg>
