<svg xmlns="http://www.w3.org/2000/svg" role="img" viewBox="0 0 38 24" width="38" height="24" aria-labelledby="pi-stoov"><title id="pi-stoov">Stoov</title><path opacity=".07" d="M35 0H3C1.3 0 0 1.3 0 3v18c0 1.7 1.4 3 3 3h32c1.7 0 3-1.3 3-3V3c0-1.7-1.4-3-3-3z"/><path fill="#fff" d="M35 1c1.1 0 2 .9 2 2v18c0 1.1-.9 2-2 2H3c-1.1 0-2-.9-2-2V3c0-1.1.9-2 2-2h32"/><path fill="#ef4823" stroke="null" d="M11.928 14.425c-.315 0-.735-.094-.735-.911v-2.84h1.686a.233.233 0 00.232-.232V9.57a.233.233 0 00-.232-.233h-1.686V8.185a.116.116 0 00-.198-.083l-2.243 2.204a.232.232 0 00-.07.166v.087c0 .064.052.116.116.116h.939v2.56c0 .566.026.942.08 1.15.052.207.121.378.202.51a1.475 1.475 0 00.308.355c.387.34.877.513 1.456.513.564 0 1.093-.136 1.572-.405a.128.128 0 00.065-.112v-1.121a.128.128 0 00-.194-.11c-.456.272-.893.41-1.298.41h0zm5.48-4.984c-.961 0-1.773.31-2.412.922-.64.614-.966 1.39-.966 2.31 0 .911.322 1.682.955 2.29.633.608 1.43.917 2.37.917.97 0 1.785-.304 2.427-.901.643-.6.97-1.365.97-2.272 0-.932-.321-1.719-.955-2.336-.632-.617-1.436-.93-2.389-.93zm1.343 4.541c-.35.345-.805.52-1.356.52-.557 0-1.016-.172-1.367-.514-.356-.344-.528-.779-.528-1.328 0-.547.174-1.002.517-1.353.347-.355.78-.528 1.325-.528.563 0 1.017.174 1.387.53.368.357.547.794.547 1.338 0 .549-.172.986-.525 1.335zm6.043-4.541c-.961 0-1.773.31-2.412.922-.64.614-.966 1.39-.966 2.31 0 .911.322 1.682.955 2.29.633.608 1.43.917 2.37.917.97 0 1.786-.304 2.427-.901.643-.6.97-1.365.97-2.272 0-.932-.321-1.719-.955-2.336-.632-.617-1.436-.93-2.389-.93zm1.343 4.541c-.349.345-.805.52-1.356.52-.556 0-1.016-.172-1.367-.514-.355-.344-.528-.779-.528-1.328 0-.547.174-1.002.517-1.353.347-.355.78-.528 1.324-.528.564 0 1.017.174 1.387.53.369.357.547.794.547 1.338 0 .549-.17.986-.524 1.335zm6.515-4.503l-1.433 3.392-1.49-3.395a.233.233 0 00-.212-.139h-1.085a.232.232 0 00-.213.327l2.65 5.96c.037.084.12.139.212.139h.27a.232.232 0 00.214-.14l2.587-5.96a.232.232 0 00-.213-.326h-1.073a.233.233 0 00-.214.142h0zM6.667 11.926l-.43-.244c-.314-.174-.534-.323-.654-.44-.105-.104-.156-.205-.156-.312 0-.12.05-.212.159-.286.12-.084.284-.126.49-.126.426 0 .992.211 1.68.627a.129.129 0 00.195-.11V9.918a.232.232 0 00-.136-.21C7.5 9.56 6.683 9.22 5.997 9.22c-.6 0-1.098.158-1.482.47a1.53 1.53 0 00-.59 1.24c0 .388.13.75.386 1.078.252.322.761.694 1.556 1.136.375.213.62.376.727.483a.466.466 0 01.137.347c0 .128-.07.237-.214.336a.983.983 0 01-.573.162c-.224 0-.503-.082-.844-.21-.282-.107-.683-.354-.946-.525a.174.174 0 00-.27.146v1.142c0 .092.055.175.14.213.257.113.8.347 1.017.406.29.08.626.12.996.12.638 0 1.17-.17 1.58-.506.419-.342.63-.787.63-1.322 0-.741-.531-1.417-1.58-2.01zM34.184 15.26c0 .347-.272.619-.627.619a.62.62 0 01-.63-.62c0-.339.28-.611.63-.611.356 0 .627.272.627.612h0zm-1.1 0c0 .272.201.488.478.488a.468.468 0 00.466-.485c0-.272-.197-.492-.47-.492a.476.476 0 00-.474.489zm.377.32h-.142v-.611a1.25 1.25 0 01.235-.018c.115 0 .167.018.212.044a.17.17 0 01.06.134c0 .068-.052.12-.127.142v.008c.06.023.094.067.113.15.018.092.03.13.044.152h-.153c-.018-.022-.03-.078-.048-.15-.011-.066-.049-.096-.127-.096h-.067v.246h0zm.003-.346h.068c.078 0 .142-.026.142-.09 0-.055-.041-.092-.13-.092a.339.339 0 00-.08.007v.175h0z"/></svg>