<svg id="pi-sumas_pay-Capa_1" xmlns="http://www.w3.org/2000/svg" width="38" height="24" viewBox="0 0 38 24" role="img" aria-labelledby="pi-sumas"><title id="pi-sumas">Sumas</title><path fill="#000" opacity=".07" d="M35 0H3C1.3 0 0 1.3 0 3v18c0 1.7 1.4 3 3 3h32c1.7 0 3-1.3 3-3V3c0-1.7-1.4-3-3-3z"/><path fill="#ff921e" d="M35 1c1.1 0 2 .9 2 2v18c0 1.1-.9 2-2 2H3c-1.1 0-2-.9-2-2V3c0-1.1.9-2 2-2h32"/><path fill="#370eff" d="M8.78 10.94h5.2c.44 0 .66-.2.66-.53s-.22-.52-.67-.52h-2.38c-1.68 0-3.03-1.14-3.03-3.16s1.59-3.16 3.19-3.16h5.92v2.65h-5.12c-.39 0-.66.14-.66.5s.27.53.66.53h2.23c1.92 0 3.19 1.13 3.19 3.15s-1.43 3.19-3.29 3.19l-5.91-.05v-2.6z"/><path fill="#370eff" d="M18.68 9.07v-5.5h3.35v5.45c0 1.26.66 1.92 1.67 1.92s1.63-.66 1.63-1.92V3.57h3.35v5.51c0 3.38-2.38 4.65-5.05 4.65s-4.95-1.27-4.95-4.65"/><path fill="#370eff" d="M8.78 14.61h1.98l1.43 1.82h.08l1.43-1.82h1.98v5.77h-1.96v-3.22h-.06l-1.39 1.56h-.09l-1.39-1.56h-.06v3.22H8.78v-5.77z"/><path fill="#370eff" d="M20.57 19.73h-2.08l-.19.67h-2.19l1.93-5.78h3l1.93 5.78h-2.19l-.19-.67zm-.43-1.55l-.56-2.01h-.09l-.56 2.01h1.21z"/><path fill="#370eff" d="M23.34 18.85h3.32c.25 0 .35-.13.35-.3s-.11-.28-.36-.28h-1.5c-1.09 0-1.92-.55-1.92-1.82s1.1-1.84 2.02-1.84h3.45v1.54h-3.15c-.24 0-.33.12-.33.28s.09.28.33.28h1.28c1.37 0 2.17.71 2.17 1.79s-.82 1.87-2.14 1.87h-3.53v-1.54z"/></svg>