<svg viewBox="0 0 38 24" xmlns="http://www.w3.org/2000/svg" width="38" height="24" role="img" aria-labelledby="pi-sunkus"><title id="pi-sunkus">Sunkus</title><defs><style>.d{fill:#c9222e}</style></defs><path d="M35 0H3a3 3 0 0 0-3 3v18a3 3 0 0 0 3 3h32a3 3 0 0 0 3-3V3a3 3 0 0 0-3-3z" fill="#e8e8e8"/><path d="M35 1a2 2 0 0 1 2 2v18a2 2 0 0 1-2 2H3a2 2 0 0 1-2-2V3a2 2 0 0 1 2-2h32" fill="#fff"/><path d="M6.76 11.92l-1-2.18-1.4.56.1.2a2.21 2.21 0 0 0-1.32.5 2 2 0 0 0-.31 2.7c1 1.26 2.75.51 2.75 1s-.92-.12-.92-.12l-1.14.51.93 2.18 1.24-.54-.12-.27a3.11 3.11 0 0 0 1.63-.49 2 2 0 0 0 .39-2.11C7 12.12 4.43 13 4.75 12.28c.12-.28.71.22.71.22l1.3-.58zm.08-2.36s1 3.84 1.13 4.37a1.64 1.64 0 0 0 2 1.38c.68-.15.85-.46.85-.46l.05.14 2.13-.62-.51-1.72h-.29l-1-4.25-1.9.49s.87 3.36.93 3.67c.1.48-.42.55-.54.1S8.76 9 8.76 9l-1.92.51zM12.45 8l.09 2H13l.25 4.37 1.93-.19s-.23-3.52-.24-3.88.51-.44.53-.08.24 3.89.24 3.89l2-.15s-.27-3.91-.31-4.54a1.59 1.59 0 0 0-1.6-1.65 2.34 2.34 0 0 0-1.14.31v-.17L12.45 8z"/><path d="M17.5 7.1a2.4 2.4 0 0 1-.24-3.4.83.83 0 0 1 .37-1 .86.86 0 0 1 1.1.24 2.78 2.78 0 0 1 2.42 1l1.11-.52c.76-.34 1.23.61.53 1l-2.16 1.1.53.07a17.39 17.39 0 0 1 .29 5.76s.92 0 .92-.8a1.91 1.91 0 0 0-.66-1.31L23.47 8a3.77 3.77 0 0 1 1.48 2.8c0 2.12-2.3 2.68-2.3 2.68a18.32 18.32 0 0 1 1.57 2.83l.62-.23S25 17.68 25 18c0 .51.41.39.75 0 .5-.64 2-1.25 2.5-.21a1.59 1.59 0 0 1-1.09 2.1 13.34 13.34 0 0 1-2.27.3c-.17.12 0 .53 0 .53l-1.31.59a1.22 1.22 0 0 1-.63-.68c-.24-.54.27-1.11 0-1.53s-1.09-1.75-1.09-1.75l.34-.15a13.35 13.35 0 0 0-1.63-2.8 12.61 12.61 0 0 1-1.27 2.33l.46.42s-1.26 1-1.41 1.09-.41.48.08.48a2.39 2.39 0 0 1 1.61.53 1.25 1.25 0 0 1-1.15 2.14 3.73 3.73 0 0 1-2.22-1.87c-.14-.36-.49 0-.59.15l-1.15-.83a1.18 1.18 0 0 1 .34-1c.42-.36.93-.36 1.09-.68s.89-1.91.89-1.91l.31.2A12.37 12.37 0 0 0 19 7.57h-1v-.73l-.52.27zm17.18 6.54l.88-2.21-1.38-.6-.07.22a2.22 2.22 0 0 0-1.29-.66 2 2 0 0 0-2.14 1.68c-.23 1.56 1.57 2.32 1.21 2.68s-.56-.74-.56-.74l-1.16-.45-.89 2.19 1.26.5.11-.28a3.11 3.11 0 0 0 1.49.82 2 2 0 0 0 1.77-1.2c.81-1.63-1.64-2.85-.89-3.13.29-.11.34.66.34.66l1.33.52z"/><path d="M26 8.38s-1 3.83-1.2 4.35a1.64 1.64 0 0 0 1.06 2.2 1.24 1.24 0 0 0 1 0v.14l2.16.54.42-1.74-.24-.16 1.24-4.19-2-.52s-.93 3.35-1 3.65c-.15.46-.64.26-.52-.18s1-3.6 1-3.6L26 8.38z"/><path d="M5.62 10.22l.69 1.53-.78.36s-.73-.5-1.07-.08a.53.53 0 0 0 .13.79c.43.29 2.75-.19 2.81 1.75S5 16.08 5 16.08l.15.42-.55.27-.6-1.52.67-.25c.47.32 1.16.44 1.29-.13s-.38-.74-.92-.7a1.84 1.84 0 0 1-2.23-1.66c-.05-.92.73-1.82 2.23-1.61l-.14-.4.73-.28zm1.64-.43l1.25-.33s.74 2.81.88 3.38a.622.622 0 1 0 1.17-.42c-.2-.78-.81-3.29-.81-3.29L11 8.8l1 4.22h.34l.32 1.08-1.51.42-.15-.37a1.7 1.7 0 0 1-1.31.85 1.31 1.31 0 0 1-1.36-1.11c-.22-.75-1.07-4.09-1.07-4.09zm27.83 1.86l-.6 1.56-.8-.3s-.16-.87-.7-.82a.53.53 0 0 0-.47.65c.1.51 2.07 1.83.73 3.23s-2.74-.62-2.74-.62l-.19.4-.57-.2.62-1.55.68.28c.1.56.5 1.14 1 .83s.26-.79-.14-1.15a1.84 1.84 0 0 1-.39-2.75c.61-.68 1.81-.76 2.71.46l.16-.36.71.32zm-8.88-2.86l1.25.34s-.76 2.8-.93 3.37a.62.62 0 1 0 1.22.22c.21-.78.94-3.26.94-3.26l1.21.33-1.26 4.15.29.18-.27 1.1-1.52-.39.08-.4a1.69 1.69 0 0 1-1.5.09 1.32 1.32 0 0 1-.63-1.64c.19-.76 1.12-4.08 1.12-4.08zm-13.4-.45l1.59-.08v.38a3 3 0 0 1 1.37-.54A1.33 1.33 0 0 1 17 9.37c.08.47.31 4.28.31 4.28l-1.35.1s-.21-3.14-.23-3.53a.59.59 0 1 0-1.17 0c0 .94.19 3.61.19 3.61l-1.22.1-.24-4.3h-.46z" fill="#3ba658"/><path class="d" d="M17.56 6.68a2 2 0 0 1 .06-2.83s-.2-.6.15-.79a.63.63 0 0 1 .84.28c.87-.36 1.92.4 2.46 1.11l1.31-.64c.38-.19.52.2.19.33s-5 2.54-5 2.54z"/><path d="M18.38 6.7L20 5.89l.93.1a18.63 18.63 0 0 1 .07 5.79s1.55.08 1.72-.91a1.93 1.93 0 0 0-.5-1.54l1.16-.82a3.32 3.32 0 0 1 1.16 2.27C24.51 13 22 13.27 22 13.27a14.05 14.05 0 0 1 1.86 3.17l-1.34.56a10.88 10.88 0 0 0-2.09-3.3A21 21 0 0 1 19 16.41l-1.15-.84a12.17 12.17 0 0 0 1.51-8.43h-.9l-.05-.45z" fill="#f3d835"/><path class="d" d="M22.42 17.39l2.1-.84s.12 1.49.14 1.68c0 .38.63.82 1.18.11s1.72-1 2-.51c.61 1.11-.74 2-2.43 1.91-1.23-.08-.94.74-.94.74l-.84.37a.83.83 0 0 1-.37-.93c.15-.71 0-1 0-1.08s-.81-1.45-.81-1.45zm-5-1.74L19.2 17s-1 .86-1.18 1c-.39.31-.34.95.39 1 1.51 0 2 1 1.48 1.67s-.92.4-1.42.17a3.37 3.37 0 0 1-1.68-1.73.37.37 0 0 0-.57-.1l-.25.18-.71-.55s-.14-.42.49-.76.67-.23 1-.71.67-1.48.67-1.48z"/></svg>