<svg xmlns="http://www.w3.org/2000/svg" role="img" viewBox="0 0 38 24" width="38" height="24" aria-labelledby="pi-superpayments"> <title id="pi-superpayments">Super Payments</title> <g clip-path="url(#pi-superpayments-a)"> <path fill="#000" d="M35 0H3C1.3 0 0 1.3 0 3v18c0 1.7 1.4 3 3 3h32c1.7 0 3-1.3 3-3V3c0-1.7-1.4-3-3-3Z" opacity=".07"/> <path fill="#FF7506" d="M35.001 1C36.101 1 37 1.9 37 3v17.999C37 22.1 36.1 23 35.001 23h-32C1.9 23 1 22.1 1 20.999V3.001c0-1.1.9-2 2-2L35.001 1Z"/> <path fill="#fff" d="M31.581 15.433v-4.569c0-1.367 1.082-2.474 2.418-2.474H35.5v1.394h-1.1c-.963 0-1.442.487-1.442 1.466v4.183H31.58Zm-2.126-2.094H30.9a3.55 3.55 0 0 1-1.093 1.515c-.526.447-1.195.669-1.998.669-1 0-1.823-.337-2.47-1.014-.646-.676-.967-1.558-.967-2.646 0-1.091.321-1.973.968-2.65.646-.674 1.468-1.013 2.466-1.013.936 0 1.72.329 2.352.986.631.657.947 1.478.947 2.466 0 .084-.014.25-.042.505l-.025.197h-5.293c.075.603.297 1.08.674 1.438.377.357.875.548 1.389.534a1.84 1.84 0 0 0 1.023-.289 1.6 1.6 0 0 0 .624-.698Zm-3.71-2.042h4.057a2.257 2.257 0 0 0-.65-1.378 1.854 1.854 0 0 0-1.346-.522c-.567 0-1.025.172-1.373.514-.35.343-.578.805-.688 1.386ZM17.198 18.2V8.34h1.236l.069 1.03c.147-.167.345-1.17 2.269-1.17.916 0 1.673.334 2.269 1 .594.669.893 1.553.893 2.663 0 1.106-.3 1.994-.893 2.66-.596.667-1.353 1-2.27 1-.915 0-1.653-.329-2.13-.986h-.068V18.2h-1.375Zm1.944-4.607c.38.443.854.663 1.425.663.27.005.536-.052.782-.166a1.84 1.84 0 0 0 .64-.497c.378-.439.569-1.017.569-1.73 0-.716-.188-1.294-.57-1.733a1.824 1.824 0 0 0-.638-.498 1.758 1.758 0 0 0-.783-.165 1.78 1.78 0 0 0-.783.166 1.842 1.842 0 0 0-.642.496c-.378.442-.569 1.018-.569 1.734 0 .711.19 1.291.57 1.73Zm-8.734-1.029V8.341h1.375v4.226c0 .459.158.856.476 1.19.316.332.707.5 1.174.5.505 0 .927-.168 1.272-.5.162-.149.292-.332.381-.537a1.64 1.64 0 0 0 .135-.653V8.34h1.373v7.039h-1.237l-.151-.919s-.143.393-.564.639a2.7 2.7 0 0 1-1.482.421c-.835 0-1.502-.264-2.001-.797-.5-.529-.748-1.25-.748-2.16l-.003.001Zm-6.85 2.833H2.5v-1.471h1.059c.295.004.584-.08.833-.245.249-.164.444-.4.564-.678l1.1-2.814a3.003 3.003 0 0 1 1.09-1.35 2.886 2.886 0 0 1 1.638-.5h1.075V9.81H8.787a1.472 1.472 0 0 0-.836.244c-.248.165-.444.4-.564.679l-1.1 2.814a3.003 3.003 0 0 1-1.09 1.35 2.897 2.897 0 0 1-1.638.5Z"/> </g> <defs> <clipPath id="pi-superpayments-a"><path fill="#fff" d="M0 0h38v24H0z"/></clipPath> </defs> </svg>
