<svg width="38" height="24" viewBox="0 0 38 24" fill="none" xmlns="http://www.w3.org/2000/svg" role="img" aria-labelledby="pi-suyool"><title id="pi-suyool">Suyool</title><g clip-path="url(#pi-suyool-clip0)"><path d="M35 .5H3A2.5 2.5 0 00.5 3v18A2.5 2.5 0 003 23.5h32a2.5 2.5 0 002.5-2.5V3A2.5 2.5 0 0035 .5z" stroke="#000" stroke-opacity=".07"/><g clip-path="url(#pi-suyool-clip1)"><path d="M1 1h36v22H1V1z" fill="#354371"/><path d="M6.045 7.76H6.4l.521.07.379.114.379.183.284.183.26.252.214.321.142.321.095.367.047.298v.16l-.024.023H7.324l-.024-.023-.071-.344-.142-.252-.19-.16-.26-.115-.26-.046h-.261l-.284.046-.237.115-.119.092-.142.275v.297l.095.16.19.161.284.16.544.253.735.344.379.183.331.183.26.207.261.252.213.343.142.39.048.32v.459l-.071.367-.119.32-.213.344-.284.298-.237.184-.403.206-.355.114-.402.07-.237.022h-.427l-.426-.046-.426-.114-.403-.16-.284-.184-.284-.252-.213-.275-.19-.367-.095-.252-.094-.413-.048-.297v-.115l.024-.023h1.374l.047.138.095.343.118.207.213.229.237.137.166.069.142.023h.497l.285-.069.284-.137.19-.207.07-.16.024-.16-.024-.252-.142-.275-.19-.16-.378-.207-.805-.367-.616-.275-.38-.206-.283-.206-.237-.207-.19-.252-.165-.343-.095-.367v-.55l.095-.367.165-.366.213-.275.237-.23.237-.16.38-.183.354-.115.498-.069zM15.4 9.869h1.255l.024.023.024 3.483.07.23.166.251.214.184.26.114.19.046h.402l.237-.069.26-.137.095-.092h.048l.047-.092.142-.16.19-.344.118-.412.024-.184.023-2.818.024-.023h1.208l.047.046v7.402l-.047.114-1.09 1.054-.118.046v-3.529l-.26.138-.427.183-.402.092-.213.023h-.308l-.403-.046-.426-.138-.356-.183-.213-.16-.165-.138-.214-.252-.19-.298-.165-.436-.071-.343-.024-.207V9.893l.024-.023zM9.692 9.869h1.232l.047.069v3.391l.071.23.119.206.165.183.213.137.214.092.094.023h.45l.285-.092.236-.137.071-.069h.048l.047-.092.166-.206.213-.435.071-.298.024-.298V9.892l.024-.023h1.255l.024.023v5.362l-.024.023h-1.208l-.024-.046v-.252l-.355.206-.403.16-.331.07-.213.023h-.285l-.402-.046-.38-.115-.402-.183-.237-.184-.213-.183-.237-.298-.213-.39-.118-.389-.048-.275V9.892l.024-.023zM32.382 5.583h.047l.024 8.457.094.412.095.23.19.251.165.16.308.184.142.092v1.192l-.047.022-.687-.252-.426-.229-.308-.252-.213-.206-.237-.344-.166-.367-.142-.527-.047-.344-.024-.641-.024-4.56V6.797l1.256-1.215zM28.782 9.067l.094.023.38.206.284.206.284.252.26.298.237.367.166.343.118.344.071.298.024.184v.71l-.118.573-.166.435-.237.413-.213.275-.284.298-.332.252-.308.183-.45.206-.379.115-.52.069h-.498l-.569-.092-.426-.138-.545-.274-.284-.207-.284-.252-.213-.252-.237-.344-.142-.252.023-.114.782-.757h.047l.048-.091.095-.046.165.458.166.321.19.23.189.183.332.206.308.137.307.07h.64l.402-.116.403-.206.19-.16h.047l.047-.092.19-.206.19-.32.118-.322.047-.32v-.39l-.071-.39-.118-.298-.166-.275-.26-.298-.285-.206-.379-.183-.284-.115.047-.114.19-.16.687-.665z" fill="#FEFEFE"/><path d="M23.666 9.113h.805l.403.068.497.16.45.23.379.275.237.206.26.298.213.32.143.23-.024.137-.924.894-.07-.045-.096-.321-.189-.367-.142-.206-.19-.207-.26-.183-.355-.183-.356-.092h-.71l-.355.092-.332.16-.213.16-.237.207-.237.32-.142.322-.071.252-.024.16v.527l.071.344.166.367.19.274.094.092v.046h.048v.046l.095.046.213.16.236.138.427.16v.092l-.853.825-.118.023-.355-.184-.38-.275-.378-.366-.237-.321-.213-.367-.143-.367-.118-.504-.024-.16v-.642l.095-.504.119-.367.189-.366.19-.298.189-.23.284-.297.38-.275.354-.207.474-.183.403-.092.142-.022z" fill="#FEFEFE"/></g></g><defs><clipPath id="pi-suyool-clip0"><path fill="#fff" d="M0 0h38v24H0z"/></clipPath><clipPath id="pi-suyool-clip1"><rect x="1" y="1" width="36" height="22" rx="2" fill="#fff"/></clipPath></defs></svg>