<svg xmlns="http://www.w3.org/2000/svg" role="img" viewBox="0 0 38 24" width="38" height="24" aria-labelledby="pi-sveab2bfaktura"><title id="pi-sveab2bfaktura">Svea B2B Faktura</title><path opacity=".07" d="M35 0H3C1.3 0 0 1.3 0 3v18c0 1.7 1.4 3 3 3h32c1.7 0 3-1.3 3-3V3c0-1.7-1.4-3-3-3z"/><path fill="#fff" d="M35 1c1.1 0 2 .9 2 2v18c0 1.1-.9 2-2 2H3c-1.1 0-2-.9-2-2V3c0-1.1.9-2 2-2h32"/><path fill="#002c50" d="M14.69 15.09c-.26 0-.29-.13-.29-.22s.11-.29.36-.29h1.34V14h-1.42c-.63 0-.93.26-.93.83s.28.78.89.78h.58c.26 0 .34.06.34.26s-.06.25-.38.25h-1.41v.59h1.5c.64 0 .93-.26.93-.82s-.25-.78-.86-.78M18.36 14.02l-.75 1.86-.74-1.86h-.72l1.16 2.71h.63l1.11-2.71h-.69zM21.06 14.51l.05-.52h-.95c-.86 0-1.26.44-1.26 1.4a1.31 1.31 0 00.41 1.07 1.15 1.15 0 00.83.24h1v-.59h-.89c-.37 0-.52-.14-.53-.51h1.42V15H19.6a.48.48 0 01.54-.5M22.59 14.72l.31.8h-.61zm-.3-.73l-1.13 2.71h.72l.22-.59h1l.22.59h.75L22.93 14z"/><path fill="#00abc8" d="M23.86 17.89h-10a.12.12 0 01-.12-.12v-.43a.13.13 0 01.12-.13h10a.13.13 0 01.13.13v.43a.14.14 0 01-.13.13"/><path fill="#00325c" d="M3.31 10.61a.25.25 0 01-.06-.19V6.67a.21.21 0 01.24-.24h1.2a1.68 1.68 0 011.08.29 1 1 0 01.35.78.9.9 0 01-.19.56 1.16 1.16 0 01-.46.36 1 1 0 01.59.35 1 1 0 01.23.64 1.13 1.13 0 01-.38.91 1.73 1.73 0 01-1.13.31H3.49a.24.24 0 01-.18-.02zM4.6 8.12A.56.56 0 005 8a.39.39 0 00.15-.32c0-.3-.18-.45-.55-.45h-.42v.9zm.18 1.75a.65.65 0 00.41-.12.5.5 0 00.14-.37.39.39 0 00-.17-.38.81.81 0 00-.48-.12h-.5v1zM6.63 10.47a1.47 1.47 0 010-.34v-.09l1.5-1.87a1 1 0 00.23-.58.47.47 0 00-.16-.37.66.66 0 00-.41-.12.65.65 0 00-.29.05 2.1 2.1 0 00-.26.13.36.36 0 01-.15.08.3.3 0 01-.24-.15.5.5 0 01-.11-.27c0-.17.12-.31.37-.41a2.19 2.19 0 01.83-.15 1.38 1.38 0 011 .33 1.12 1.12 0 01.34.86 1.5 1.5 0 01-.37 1L7.76 10h1.39c.07 0 .12 0 .14.07a.44.44 0 01.05.23v.1a.44.44 0 01-.05.23c0 .05-.07.07-.14.07h-2.4s-.08-.1-.12-.23zM10.13 10.61a.25.25 0 01-.06-.19V6.67a.24.24 0 01.06-.18.25.25 0 01.19-.06h1.19a1.71 1.71 0 011.09.29 1 1 0 01.16 1.34 1.19 1.19 0 01-.47.36.93.93 0 01.59.35 1 1 0 01.23.64 1.13 1.13 0 01-.38.91 1.73 1.73 0 01-1.13.31h-1.28a.26.26 0 01-.19-.02zm1.29-2.49a.6.6 0 00.42-.12.39.39 0 00.16-.33c0-.3-.18-.45-.55-.45H11v.9zm.18 1.75a.63.63 0 00.4-.12.46.46 0 00.14-.37A.39.39 0 0012 9a.81.81 0 00-.48-.12H11v1zM15.11 10.48V6.67a.21.21 0 01.24-.24h2a.16.16 0 01.14.07.47.47 0 010 .23v.19a.45.45 0 010 .23.14.14 0 01-.14.07H16v.89h1.3a.14.14 0 01.14.07.45.45 0 010 .23v.19a.47.47 0 010 .23.16.16 0 01-.14.07H16v1.58c0 .13-.12.2-.36.2h-.21c-.2 0-.32-.07-.32-.2zM18.16 10.47a.93.93 0 01-.16-.64 1 1 0 01.3-.83 2.11 2.11 0 011.38-.32v-.2a.28.28 0 00-.11-.26.56.56 0 00-.36-.09 1.79 1.79 0 00-.36 0 1.69 1.69 0 00-.27.1.44.44 0 01-.14 0 .21.21 0 01-.14-.09 1.32 1.32 0 01-.12-.2.45.45 0 01-.06-.19c0-.07.05-.13.15-.2a1.42 1.42 0 01.42-.16 2.68 2.68 0 01.59-.06 1.5 1.5 0 011 .27.92.92 0 01.31.74v2a.93.93 0 010 .14c0 .06-.08.11-.24.14a2.58 2.58 0 01-.44.05.16.16 0 01-.15-.09.6.6 0 01-.06-.19v-.14a.63.63 0 01-.14.18 1.27 1.27 0 01-.31.19 1 1 0 01-.44.09.88.88 0 01-.65-.24zm1.3-.57a.74.74 0 00.22-.28v-.33q-.84 0-.84.45a.22.22 0 00.08.19.29.29 0 00.22.08.56.56 0 00.32-.11zM24.11 10.59c0 .06-.11.09-.34.09h-.26q-.3 0-.36-.12l-.84-1.39v1.3c0 .13-.12.2-.36.2h-.17c-.24 0-.36-.07-.36-.2V6.3c0-.13.12-.2.36-.2h.17c.24 0 .36.07.36.2v2.39L23 7.6a.3.3 0 01.13-.09H23.59c.23 0 .34 0 .34.09a.28.28 0 010 .12l-.84 1.2 1 1.56a.27.27 0 01.02.11zM24.61 9.73V8.21h-.1a.14.14 0 01-.14-.07.47.47 0 010-.23V7.8a.47.47 0 010-.23.16.16 0 01.14-.07h.1l.07-.57c0-.13.13-.2.33-.2h.19c.2 0 .3.07.3.2v.57h.3a.17.17 0 01.14.07.63.63 0 010 .23v.11a.63.63 0 010 .23.15.15 0 01-.14.07h-.3v1.54a.37.37 0 00.05.2.22.22 0 00.17.06h.16s.07 0 .1.09a1.18 1.18 0 01.07.2v.15c0 .19-.19.29-.58.29-.57-.03-.86-.35-.86-1.01zM26.78 10.47a1.09 1.09 0 01-.21-.74V7.68c0-.13.12-.19.36-.19h.17c.24 0 .36.06.36.19V9.6a.38.38 0 00.09.28.34.34 0 00.27.1.44.44 0 00.29-.11.82.82 0 00.2-.25V7.68c0-.13.12-.19.36-.19h.17c.24 0 .36.06.36.19V9.6a3.87 3.87 0 000 .42v.32a.76.76 0 010 .14c0 .06-.08.11-.24.14a2.47 2.47 0 01-.43.05.15.15 0 01-.15-.09 1.07 1.07 0 01-.07-.19v-.14a1.27 1.27 0 01-.39.33 1 1 0 01-.52.13.87.87 0 01-.62-.24zM30 10.48V8.57v-.41-.32a1.05 1.05 0 010-.13c0-.06.08-.11.24-.14a2.58 2.58 0 01.44-.05.16.16 0 01.15.08.64.64 0 01.06.18v.13a1.14 1.14 0 01.27-.33.56.56 0 01.39-.13.34.34 0 01.27.1.39.39 0 01.07.23 1.57 1.57 0 01-.05.32c0 .12-.08.19-.13.19H31.42a.5.5 0 00-.29.09 1.2 1.2 0 00-.19.21v1.94c0 .13-.12.2-.37.2h-.16c-.34-.05-.41-.12-.41-.25zM32.26 10.47a.94.94 0 01-.26-.64 1 1 0 01.4-.83 2.07 2.07 0 011.38-.32v-.2a.3.3 0 00-.11-.26.6.6 0 00-.36-.09 1.79 1.79 0 00-.36 0 1.83 1.83 0 00-.28.1.37.37 0 01-.14 0s-.08 0-.13-.09a1.37 1.37 0 01-.13-.2.59.59 0 01-.05-.19c0-.07.05-.13.15-.2a1.42 1.42 0 01.42-.16 2.68 2.68 0 01.59-.06 1.5 1.5 0 011 .27 1 1 0 01.31.74v2a.93.93 0 010 .14c0 .06-.08.11-.25.14a2.37 2.37 0 01-.43.05.16.16 0 01-.15-.09.6.6 0 01-.06-.19.58.58 0 010-.14.7.7 0 01-.15.18 1 1 0 01-.3.19 1 1 0 01-.44.09.86.86 0 01-.65-.24zm1.3-.57a.74.74 0 00.22-.28v-.33c-.56 0-.85.15-.85.45a.26.26 0 00.08.19.32.32 0 00.23.08.56.56 0 00.32-.11z"/></svg>