<svg xmlns="http://www.w3.org/2000/svg" role="img" viewBox="0 0 38 24" width="38" height="24" aria-labelledby="pi-sveaostukonto"><title id="pi-sveaostukonto">Svea Ostukonto</title><path opacity=".07" d="M35 0H3C1.3 0 0 1.3 0 3v18c0 1.7 1.4 3 3 3h32c1.7 0 3-1.3 3-3V3c0-1.7-1.4-3-3-3z"/><path fill="#fff" d="M35 1c1.1 0 2 .9 2 2v18c0 1.1-.9 2-2 2H3c-1.1 0-2-.9-2-2V3c0-1.1.9-2 2-2h32"/><path fill="#002c50" d="M14.64 15.05c-.25 0-.28-.13-.28-.23 0-.2.1-.29.36-.29h1.35v-.6h-1.43c-.64 0-.94.27-.94.84 0 .54.28.79.89.79h.58c.26 0 .35.06.35.26 0 .16-.06.25-.38.25h-1.42v.6h1.51c.64 0 .94-.27.94-.83s-.25-.78-.87-.78M18.34 13.97l-.76 1.87-.74-1.87h-.73l1.17 2.73h.63l1.12-2.73h-.69zM21.05 14.47l.05-.53h-.95c-.86 0-1.27.45-1.27 1.41 0 .5.14.85.42 1.08s.54.24.83.24h.97v-.6h-.9c-.37 0-.52-.14-.53-.51h1.43v-.6h-1.52c.03-.34.21-.5.55-.5M22.6 14.67l.31.8h-.61l.3-.8zm-.3-.73l-1.14 2.73h.73l.22-.6h1.01l.23.6h.75l-1.15-2.73h-.64z"/><path fill="#00abc8" d="M23.87 17.87H13.84c-.07 0-.12-.05-.13-.12v-.44c0-.07.06-.13.13-.13h10.07c.07 0 .13.06.13.13v.44c0 .07-.06.13-.13.13"/><path fill="#00325c" d="M5.75 9.97c-.33-.37-.5-.9-.5-1.59s.17-1.22.5-1.59.81-.56 1.43-.56 1.09.19 1.42.56.5.9.5 1.59-.17 1.22-.5 1.59c-.33.37-.8.55-1.42.55s-1.1-.19-1.43-.55zm2.15-.58c.16-.23.25-.57.25-1.01s-.08-.78-.25-1.01-.41-.35-.73-.35-.56.12-.73.35-.25.57-.25 1.01.08.78.25 1.01.41.35.73.35.56-.12.73-.35zM9.87 10.41c-.21-.08-.31-.17-.31-.29 0-.08.04-.18.11-.29.08-.11.14-.17.2-.17.03 0 .08.02.13.05.08.04.16.06.23.09.07.02.15.03.24.03.11 0 .2-.02.26-.07.06-.04.09-.11.09-.19 0-.07-.02-.13-.07-.17s-.09-.08-.14-.1-.15-.06-.31-.12c-.2-.08-.37-.18-.5-.31s-.19-.32-.19-.59c0-.31.1-.55.29-.72.2-.17.46-.26.8-.26.21 0 .42.03.61.09s.29.15.29.26c0 .08-.03.17-.09.29-.06.12-.12.18-.17.18-.02 0-.07-.02-.17-.06a.897.897 0 00-.34-.06c-.21 0-.32.07-.32.21 0 .09.04.16.1.2.07.05.18.1.33.16.02.01.06.03.11.05.05.02.1.04.13.06.16.08.29.18.38.31s.14.3.14.52c0 .31-.1.56-.31.75s-.5.28-.86.28c-.25 0-.48-.04-.68-.11zM12.31 9.55V8.04h-.1c-.06 0-.11-.02-.14-.07-.03-.05-.04-.12-.04-.23v-.1c0-.1.01-.18.04-.23.03-.05.07-.07.14-.07h.1l.08-.57c.02-.13.13-.19.32-.19h.19c.2 0 .3.06.3.19v.57h.29c.06 0 .11.02.14.07.03.05.04.12.04.23v.1c0 .1-.01.18-.04.23-.03.05-.07.07-.14.07h-.29v1.52c0 .09.02.16.05.2.03.04.09.06.17.06.02 0 .05 0 .08-.01.03 0 .06-.01.08-.01.04 0 .07.03.1.09s.05.13.07.2c.02.07.02.12.02.14 0 .2-.19.29-.58.29-.58 0-.88-.32-.88-.97zM14.47 10.29c-.14-.16-.22-.4-.22-.73V7.53c0-.13.12-.19.36-.19h.17c.24 0 .36.06.36.19v1.9c0 .12.03.22.08.28.06.06.15.09.28.09.11 0 .2-.03.29-.1.08-.07.15-.15.2-.24V7.53c0-.13.12-.19.36-.19h.17c.24 0 .36.06.36.19v1.9c0 .18 0 .32.02.42 0 .1.02.2.04.32.01.05.02.1.02.13 0 .06-.08.11-.24.14-.16.03-.3.05-.43.05-.07 0-.12-.03-.15-.09a.603.603 0 01-.06-.19.783.783 0 00-.03-.14 1.135 1.135 0 01-.89.45c-.3 0-.52-.08-.67-.24zM20.34 10.4c0 .06-.11.09-.34.09h-.25c-.2 0-.32-.04-.36-.11L18.56 9h-.02v1.3c0 .13-.12.19-.36.19h-.17c-.24 0-.36-.06-.36-.19V6.15c0-.13.12-.19.36-.19h.17c.24 0 .36.06.36.19v2.38h.02l.73-1.08s.08-.08.13-.09.13-.02.23-.02h.22c.22 0 .34.03.34.09 0 .03-.02.07-.05.12l-.83 1.19.98 1.55s.05.09.05.13zM20.99 10.11c-.25-.28-.37-.68-.37-1.2s.12-.92.37-1.2.61-.41 1.09-.41.84.14 1.08.41.37.68.37 1.2-.12.92-.37 1.2c-.25.28-.61.42-1.08.42s-.84-.14-1.09-.42zm1.5-.52c.09-.15.13-.38.13-.69s-.04-.53-.13-.68c-.09-.15-.23-.23-.42-.23s-.33.08-.42.23c-.09.15-.14.38-.14.68 0 .61.19.92.56.92.19 0 .33-.08.42-.23zM24.15 10.3V8.4c0-.18 0-.31-.01-.4-.01-.09-.02-.2-.04-.31-.01-.06-.02-.1-.02-.13 0-.06.08-.11.24-.14.16-.03.3-.05.43-.05.07 0 .12.03.15.08s.05.11.06.18c.01.06.02.11.03.13.1-.13.22-.24.38-.32.16-.09.33-.13.51-.13.3 0 .52.08.67.24.14.16.22.4.22.74v2.03c0 .13-.12.19-.36.19h-.17c-.24 0-.36-.06-.36-.19v-1.9c0-.12-.03-.22-.08-.28-.06-.06-.15-.09-.28-.09-.11 0-.2.04-.29.1-.08.07-.15.15-.2.24v1.93c0 .13-.12.19-.36.19h-.17c-.24 0-.36-.06-.36-.19zM27.59 9.55V8.04h-.1c-.06 0-.11-.02-.14-.07-.03-.05-.04-.12-.04-.23v-.1c0-.1.01-.18.04-.23.03-.05.07-.07.14-.07h.1l.08-.57c.02-.13.13-.19.32-.19h.19c.2 0 .3.06.3.19v.57h.29c.06 0 .11.02.14.07.03.05.04.12.04.23v.1c0 .1-.01.18-.04.23-.03.05-.07.07-.14.07h-.29v1.52c0 .09.02.16.05.2.03.04.09.06.17.06.02 0 .05 0 .08-.01.03 0 .06-.01.08-.01.04 0 .07.03.1.09s.05.13.07.2c.02.07.02.12.02.14 0 .2-.19.29-.58.29-.58 0-.88-.32-.88-.97zM29.8 10.11c-.25-.28-.37-.68-.37-1.2s.12-.92.37-1.2.61-.41 1.09-.41.84.14 1.08.41.37.68.37 1.2-.12.92-.37 1.2c-.25.28-.61.42-1.08.42s-.84-.14-1.09-.42zm1.5-.52c.09-.15.13-.38.13-.69s-.04-.53-.13-.68c-.09-.15-.23-.23-.42-.23s-.33.08-.42.23c-.09.15-.14.38-.14.68 0 .61.19.92.56.92.19 0 .33-.08.42-.23z"/></svg>
