<svg xmlns="http://www.w3.org/2000/svg" role="img" viewBox="0 0 38 24" width="38" height="24" aria-labelledby="pi-sveapartpayment"><title id="pi-sveapartpayment">Svea Part Payment</title><path opacity=".07" d="M35 0H3C1.3 0 0 1.3 0 3v18c0 1.7 1.4 3 3 3h32c1.7 0 3-1.3 3-3V3c0-1.7-1.4-3-3-3z"/><path fill="#fff" d="M35 1c1.1 0 2 .9 2 2v18c0 1.1-.9 2-2 2H3c-1.1 0-2-.9-2-2V3c0-1.1.9-2 2-2h32"/><path fill="#002c50" d="M14.51 15c-.26 0-.29-.13-.29-.23s.11-.29.36-.29H16v-.6h-1.49c-.65 0-.95.27-.95.85s.28.79.9.79h.59c.27 0 .36.07.36.27s-.07.21-.41.21h-1.43v.61h1.54c.65 0 .95-.27.95-.84s-.25-.8-.88-.8"/><path fill="#002c50" d="M18.27 13.89l-.77 1.9-.75-1.9H16l1.2 2.78h.63l1.14-2.78h-.7zM21 14.4l.05-.53h-1c-.87 0-1.28.45-1.28 1.43a1.31 1.31 0 00.42 1.09 1.15 1.15 0 00.84.25h1V16h-.91c-.37 0-.52-.14-.54-.52h1.45v-.6h-1.5a.49.49 0 01.56-.51M22.59 14.61l.32.82h-.62zm-.3-.74l-1.16 2.77h.73l.23-.61h1l.23.61h.76l-1.17-2.77z"/><path fill="#00abc8" d="M23.89 17.85H13.7a.12.12 0 01-.13-.12v-.44a.13.13 0 01.13-.13h10.23a.13.13 0 01.13.13v.44a.14.14 0 01-.14.13"/><path fill="#00325c" d="M.91 10.28V6.39A.25.25 0 011 6.2a.25.25 0 01.19-.06h1.3a1.92 1.92 0 011 .28 1.18 1.18 0 01.44 1.08 1.26 1.26 0 01-.26.84 1.3 1.3 0 01-.58.4 2 2 0 01-.57.11h-.66v1.43c0 .13-.12.2-.37.2h-.21c-.28 0-.37-.07-.37-.2zM2.41 8a.66.66 0 00.38-.11A.48.48 0 003 7.5a.49.49 0 00-.16-.43.6.6 0 00-.43-.07h-.55v1zM4.49 10.27a.92.92 0 01-.22-.65 1.08 1.08 0 01.36-.83A2.24 2.24 0 016 8.47v-.21A.3.3 0 005.93 8a.61.61 0 00-.37-.09 1.4 1.4 0 00-.37 0 1.83 1.83 0 00-.28.1l-.14.06s-.09 0-.14-.1a1.07 1.07 0 01-.13-.17.59.59 0 010-.19c0-.07 0-.14.15-.2A1.25 1.25 0 015 7.25a2.77 2.77 0 01.6-.06 1.54 1.54 0 011 .27 1 1 0 01.4.76v1.92a.78.78 0 010 .14c0 .06-.08.11-.25.15a2.47 2.47 0 01-.44 0 .17.17 0 01-.16-.08 1.17 1.17 0 01-.06-.2v-.14a.66.66 0 01-.15.17 1 1 0 01-.31.21 1.06 1.06 0 01-.45.09.86.86 0 01-.69-.21zm1.32-.59A.6.6 0 006 9.41v-.34c-.57 0-.86.15-.86.45a.23.23 0 00.08.2.32.32 0 00.23.07.5.5 0 00.36-.11zM7.76 10.28v-2a2.25 2.25 0 000-.41v-.33a.72.72 0 010-.13c0-.06.08-.11.25-.15a2.47 2.47 0 01.44 0 .16.16 0 01.15.09.75.75 0 01.07.18.78.78 0 000 .14 1.09 1.09 0 01.27-.35.65.65 0 01.4-.12.31.31 0 01.27.1.32.32 0 01.08.23 1.48 1.48 0 01-.05.32c0 .13-.09.2-.14.2L9.33 8h-.16a.43.43 0 00-.29.1.57.57 0 00-.2.21v2c0 .13-.13.2-.38.2h-.17c-.25-.03-.37-.1-.37-.23zM10.12 9.52V8H10a.16.16 0 01-.15-.08.55.55 0 010-.23v-.1a.65.65 0 010-.24.16.16 0 01.15-.11h.1l.08-.59c0-.13.13-.2.33-.2h.19c.21 0 .31.07.31.2v.59h.3c.07 0 .12 0 .14.07a.48.48 0 010 .24v.1a.41.41 0 010 .23.14.14 0 01-.14.08H11v1.57a.34.34 0 00.05.2.22.22 0 00.17.06h.17s.07 0 .1.09a1 1 0 01.07.21v.14c0 .21-.2.31-.59.31-.55-.02-.85-.36-.85-1.02zM13.66 10.28V6.39a.22.22 0 01.25-.25h1.3a1.9 1.9 0 011 .28 1.18 1.18 0 01.45 1.08 1.26 1.26 0 01-.26.84 1.3 1.3 0 01-.58.4 2 2 0 01-.57.11h-.66v1.43c0 .13-.12.2-.37.2H14c-.21 0-.34-.07-.34-.2zM15.16 8a.66.66 0 00.38-.11.48.48 0 00.16-.42.49.49 0 00-.16-.43.6.6 0 00-.38-.04h-.55v1zM17.24 10.27a.92.92 0 01-.24-.65 1.08 1.08 0 01.36-.83 2.24 2.24 0 011.41-.32v-.21a.3.3 0 00-.09-.26.61.61 0 00-.37-.09 1.4 1.4 0 00-.37 0 1.83 1.83 0 00-.28.1l-.14.06s-.09 0-.14-.1a1.07 1.07 0 01-.13-.21.59.59 0 01-.05-.19c0-.07.05-.14.15-.2a1.33 1.33 0 01.43-.16 2.77 2.77 0 01.6-.06 1.54 1.54 0 011 .27 1 1 0 01.32.76v1.96a.36.36 0 010 .14c0 .06-.08.11-.25.15a2.47 2.47 0 01-.44 0 .15.15 0 01-.15-.08.68.68 0 01-.07-.2.61.61 0 000-.14.66.66 0 01-.15.17 1 1 0 01-.31.21 1.06 1.06 0 01-.45.09.86.86 0 01-.64-.21zm1.32-.59a.6.6 0 00.23-.27v-.34c-.57 0-.86.15-.86.45a.23.23 0 00.08.2.32.32 0 00.23.07.5.5 0 00.32-.11zM23.08 7.36a.52.52 0 010 .11l-1.42 4.14c0 .09-.14.13-.34.13h-.11c-.25 0-.37 0-.37-.13a.43.43 0 010-.11l.39-1-1-3v-.11c0-.02.13-.14.38-.14h.19c.21 0 .32 0 .35.13l.37 1.15c0 .11.09.36.17.74.09-.39.14-.64.18-.74l.36-1.15c0-.08.15-.13.35-.13h.15c.27-.03.35.02.35.11zM27.71 7.43a1.1 1.1 0 01.22.76v2.09c0 .13-.12.2-.37.2h-.17c-.25 0-.37-.07-.37-.2v-2a.44.44 0 00-.08-.28.35.35 0 00-.29-.1.58.58 0 00-.48.35v2c0 .13-.13.2-.37.2h-.18c-.24 0-.37-.07-.37-.2v-2a.44.44 0 00-.08-.25.34.34 0 00-.28-.1.44.44 0 00-.29.11.69.69 0 00-.2.25v2c0 .13-.12.2-.37.2h-.18c-.24 0-.37-.07-.37-.2v-2-.41-.33a1.05 1.05 0 010-.13c0-.06.08-.11.25-.15a2.58 2.58 0 01.44 0 .16.16 0 01.16.09.48.48 0 01.06.18.58.58 0 010 .14 1.17 1.17 0 01.39-.34 1.06 1.06 0 01.52-.13 1 1 0 01.53.11.7.7 0 01.29.36 1.15 1.15 0 01.41-.34 1.13 1.13 0 01.47-.12.86.86 0 01.71.24zM29 10.08a1.7 1.7 0 01-.4-1.21 1.77 1.77 0 01.4-1.28 1.47 1.47 0 011.1-.4 1.14 1.14 0 011 .44 1.89 1.89 0 01.33 1.15c0 .05 0 .12-.13.22s-.15.15-.19.15h-1.56a.71.71 0 00.21.5.75.75 0 00.5.14 1 1 0 00.31 0 1.76 1.76 0 00.3-.1.47.47 0 01.13-.09s.08 0 .13.09a.57.57 0 01.13.21.38.38 0 01.06.17c0 .1-.07.18-.19.25a1.46 1.46 0 01-.46.15 2.9 2.9 0 01-.47 0 1.57 1.57 0 01-1.2-.39zm1.55-1.55a.83.83 0 00-.11-.45.4.4 0 00-.34-.17c-.3 0-.49.21-.55.62zM32.06 10.28v-2a3.81 3.81 0 000-.41v-.33a1.05 1.05 0 010-.13c0-.06.09-.11.25-.15a2.69 2.69 0 01.44 0 .16.16 0 01.16.09.48.48 0 01.06.18.58.58 0 010 .14 1.12 1.12 0 01.4-.34 1.06 1.06 0 01.52-.13.9.9 0 01.69.24 1.1 1.1 0 01.22.76v2.09c0 .13-.12.2-.37.2h-.17c-.25 0-.37-.07-.37-.2v-2a.39.39 0 00-.14-.29.34.34 0 00-.28-.1.46.46 0 00-.3.11.82.82 0 00-.2.25v2c0 .13-.12.2-.37.2h-.17c-.25.02-.37-.05-.37-.18zM35.59 9.52V8h-.1a.16.16 0 01-.14-.08.43.43 0 010-.23v-.1a.49.49 0 010-.24.15.15 0 01.14-.07h.1l.08-.59c0-.13.13-.2.34-.2h.19c.2 0 .31.07.31.2v.59h.3a.14.14 0 01.14.07.49.49 0 010 .24v.1a.43.43 0 010 .23.15.15 0 01-.14.08h-.3v1.53a.28.28 0 00.05.2.21.21 0 00.17.06h.17s.07 0 .09.09a.65.65 0 01.07.21.7.7 0 010 .14c0 .21-.2.31-.6.31-.57-.02-.87-.36-.87-1.02z"/></svg>