<svg xmlns="http://www.w3.org/2000/svg" role="img" viewBox="0 0 38 24" width="38" height="24" aria-labelledby="pi-sveafaktura"><title id="pi-sveafaktura">Svea Faktura</title><path opacity=".07" d="M35 0H3C1.3 0 0 1.3 0 3v18c0 1.7 1.4 3 3 3h32c1.7 0 3-1.3 3-3V3c0-1.7-1.4-3-3-3z"/><path fill="#fff" d="M35 1c1.1 0 2 .9 2 2v18c0 1.1-.9 2-2 2H3c-1.1 0-2-.9-2-2V3c0-1.1.9-2 2-2h32"/><path fill="#002c50" d="M14.72 15.07c-.25 0-.28-.13-.28-.23s.1-.28.35-.28h1.33V14h-1.41c-.62 0-.92.27-.92.83s.28.77.88.77h.58c.26 0 .34.06.34.26s-.06.25-.38.25h-1.4v.59h1.49c.63 0 .92-.26.92-.82s-.24-.77-.85-.77M18.37 14l-.75 1.85-.73-1.85h-.72l1.16 2.7h.62l1.1-2.7h-.68zM21 14.5l.05-.53h-.94c-.85 0-1.25.45-1.25 1.4a1.3 1.3 0 00.41 1.06 1.13 1.13 0 00.82.24h1v-.59h-.88c-.36 0-.51-.14-.53-.51h1.41V15h-1.5a.48.48 0 01.54-.49M22.57 14.7l.3.79h-.6zm-.3-.73l-1.13 2.7h.72l.22-.59h1l.22.59h.7L22.9 14z"/><path fill="#00abc8" d="M23.82 17.85h-9.89a.13.13 0 01-.12-.12v-.43a.13.13 0 01.12-.13h9.93a.13.13 0 01.13.13v.43a.12.12 0 01-.13.12"/><path fill="#00325c" d="M9.26 10.49V6.71a.24.24 0 01.05-.18.25.25 0 01.19-.06h2a.16.16 0 01.14.08.41.41 0 010 .22V7a.47.47 0 010 .23.15.15 0 01-.14.07h-1.32v.88h1.25a.15.15 0 01.14.07.59.59 0 010 .23v.18a.59.59 0 010 .23.15.15 0 01-.14.07h-1.25v1.57c0 .13-.12.2-.36.2h-.2c-.24-.04-.36-.11-.36-.24zM12.28 10.48a.92.92 0 01-.21-.63 1 1 0 01.35-.8 2.14 2.14 0 011.37-.32v-.2a.3.3 0 00-.11-.26.64.64 0 00-.36-.08 1.25 1.25 0 00-.35 0 1.83 1.83 0 00-.28.1l-.13.05a.21.21 0 01-.14-.09 1.05 1.05 0 01-.12-.21.38.38 0 01-.06-.18c0-.07 0-.13.15-.2a1.44 1.44 0 01.42-.15 2.58 2.58 0 01.58-.06 1.56 1.56 0 011 .26 1 1 0 01.3.74v1.17a4.19 4.19 0 000 .42v.32a.62.62 0 010 .13c0 .06-.08.11-.24.14a2.37 2.37 0 01-.43 0 .16.16 0 01-.15-.09.53.53 0 01-.06-.19v-.13a.8.8 0 01-.14.17 1.19 1.19 0 01-.3.19 1 1 0 01-.44.09.88.88 0 01-.65-.19zm1.29-.57a.58.58 0 00.22-.27v-.33q-.84 0-.84.45A.26.26 0 0013 10a.31.31 0 00.22.07.56.56 0 00.35-.16zM18.19 10.6c0 .06-.12.09-.35.09h-.25q-.29 0-.36-.12l-.83-1.38v1.29c0 .13-.12.2-.36.2h-.16c-.24 0-.36-.07-.36-.2V6.34c0-.13.12-.19.36-.19H16c.24 0 .36.06.36.19v2.38l.72-1.08a.28.28 0 01.14-.1h.45c.23 0 .34 0 .34.09a.17.17 0 01-.06.12l-.83 1.19 1 1.55a.27.27 0 01.07.11zM18.68 9.75V8.24h-.1a.17.17 0 01-.14-.07.63.63 0 010-.23v-.1a.59.59 0 010-.23.15.15 0 01.14-.07h.1l.08-.54c0-.13.12-.2.32-.2h.19c.2 0 .3.07.3.2v.57h.29a.14.14 0 01.14.07.45.45 0 010 .23v.1a.47.47 0 010 .23.16.16 0 01-.14.07h-.29v1.49a.28.28 0 00.05.2.2.2 0 00.16.06H20s.06 0 .09.09a1.07 1.07 0 01.07.19v.15c0 .19-.19.29-.57.29-.59-.02-.91-.34-.91-.99zM20.84 10.49a1.11 1.11 0 01-.22-.74v-2c0-.13.12-.2.36-.2h.17c.24 0 .36.07.36.2v1.9a.39.39 0 00.09.28.34.34 0 00.27.09.43.43 0 00.29-.1.92.92 0 00.19-.25V7.72c0-.13.12-.2.36-.2h.17c.24 0 .36.07.36.2v1.9a4.19 4.19 0 000 .42v.32a.32.32 0 010 .13c0 .06-.08.11-.24.14a2.47 2.47 0 01-.43 0 .16.16 0 01-.15-.09.53.53 0 01-.06-.19.53.53 0 010-.13 1.35 1.35 0 01-.38.32 1 1 0 01-.51.13.89.89 0 01-.63-.18zM24 10.49v-1.9-.4-.32a1 1 0 010-.12c0-.07.08-.12.25-.15a2.37 2.37 0 01.42 0 .14.14 0 01.15.08 1.34 1.34 0 01.07.18.49.49 0 000 .13 1 1 0 01.26-.33.61.61 0 01.39-.12.31.31 0 01.27.1.34.34 0 01.07.22 1.48 1.48 0 01-.05.32c0 .12-.08.19-.13.19H25.41a.47.47 0 00-.28.09.8.8 0 00-.2.21v1.92c0 .13-.12.2-.36.2h-.17c-.3-.1-.4-.17-.4-.3zM26.27 10.48a.92.92 0 01-.21-.63 1 1 0 01.35-.8 2.14 2.14 0 011.37-.32v-.2a.3.3 0 00-.11-.26.62.62 0 00-.35-.08 1.28 1.28 0 00-.36 0 1.69 1.69 0 00-.27.1l-.14.05a.17.17 0 01-.13-.09 1.07 1.07 0 01-.13-.21.35.35 0 01-.05-.18c0-.07.05-.13.15-.2a1.36 1.36 0 01.41-.15 2.65 2.65 0 01.58-.06 1.56 1.56 0 011 .26 1 1 0 01.3.74v1.17a4.19 4.19 0 000 .42v.32a.62.62 0 010 .13c0 .06-.08.11-.24.14a2.37 2.37 0 01-.43 0 .16.16 0 01-.15-.09.53.53 0 01-.06-.19v-.13a.8.8 0 01-.14.17 1 1 0 01-.3.19 1 1 0 01-.44.09.88.88 0 01-.65-.19zm1.29-.57a.58.58 0 00.22-.27v-.33q-.84 0-.84.45A.26.26 0 0027 10a.31.31 0 00.22.07.54.54 0 00.34-.16z"/></svg>