<svg xmlns="http://www.w3.org/2000/svg" role="img" viewBox="0 0 38 24" width="38" height="24" aria-labelledby="pi-svealasku"><title id="pi-svealasku">Svea Lasku</title><path opacity=".07" d="M35 0H3C1.3 0 0 1.3 0 3v18c0 1.7 1.4 3 3 3h32c1.7 0 3-1.3 3-3V3c0-1.7-1.4-3-3-3z"/><path fill="#fff" d="M35 1c1.1 0 2 .9 2 2v18c0 1.1-.9 2-2 2H3c-1.1 0-2-.9-2-2V3c0-1.1.9-2 2-2h32"/><path fill="#002c50" d="M14.86 15.06c-.25 0-.28-.13-.28-.23s.1-.28.35-.28h1.33V14h-1.41c-.62 0-.92.26-.92.82s.28.77.88.77h.57c.26 0 .34.06.34.26s-.06.24-.37.24H14v.59h1.49c.63 0 .92-.26.92-.81s-.25-.77-.85-.77M18.5 13.99l-.75 1.84-.73-1.84h-.72l1.15 2.69h.62l1.1-2.69h-.67zM21.16 14.49l.05-.52h-.94c-.85 0-1.24.44-1.24 1.38a1.28 1.28 0 00.4 1.06 1.13 1.13 0 00.82.24h1v-.59h-.88c-.36 0-.51-.13-.53-.5h1.41V15h-1.5a.49.49 0 01.54-.49M22.68 14.69l.3.79h-.6zm-.3-.72l-1.12 2.68H22l.22-.59h1l.22.59h.74L23 14z"/><path fill="#00abc8" d="M23.93 17.83h-9.86a.13.13 0 01-.12-.12v-.43a.13.13 0 01.12-.13H24a.12.12 0 01.12.13v.43a.12.12 0 01-.12.12"/><path fill="#00325c" d="M12 10.62a.23.23 0 01-.06-.18V6.67c0-.12.12-.19.36-.19h.2c.24 0 .36.07.36.19V9.9h1.3a.14.14 0 01.13.07.45.45 0 010 .23v.18a.47.47 0 010 .23.14.14 0 01-.13.07h-2a.24.24 0 01-.16-.06zM14.89 10.49a.89.89 0 01-.22-.64 1 1 0 01.33-.79 2.14 2.14 0 011.37-.32v-.2a.3.3 0 00-.11-.25.56.56 0 00-.36-.09 1.23 1.23 0 00-.35.05 1.71 1.71 0 00-.27.09.44.44 0 01-.14.05.16.16 0 01-.14-.08 1.07 1.07 0 01-.13-.21.41.41 0 01-.05-.18c0-.07.05-.14.15-.2a1.34 1.34 0 01.41-.16A2.58 2.58 0 0116 7.5a1.45 1.45 0 011 .27.94.94 0 01.31.73V10.36a.83.83 0 010 .13c0 .07-.08.12-.25.15a2.37 2.37 0 01-.42 0 .16.16 0 01-.15-.09 1.07 1.07 0 01-.07-.19v-.14a.69.69 0 01-.15.17 1.13 1.13 0 01-.29.2 1 1 0 01-.44.09.84.84 0 01-.65-.19zm1.28-.57a.64.64 0 00.22-.27v-.33c-.56 0-.84.15-.84.44a.28.28 0 00.08.2.36.36 0 00.22.07.56.56 0 00.32-.11zM18.18 10.61c-.21-.07-.31-.17-.31-.29A.5.5 0 0118 10c.08-.11.14-.17.2-.17a.34.34 0 01.14.05l.23.08a.61.61 0 00.24 0 .4.4 0 00.26-.07.2.2 0 00.09-.18.27.27 0 00-.07-.18.71.71 0 00-.14-.1l-.31-.12a1.33 1.33 0 01-.49-.31.79.79 0 01-.19-.59 1 1 0 01.29-.72A1.18 1.18 0 0119 7.5a2 2 0 01.6.09c.2.06.29.15.29.26a.67.67 0 01-.09.29c0 .12-.11.18-.16.18l-.18-.06a.9.9 0 00-.34-.06c-.21 0-.31.07-.31.21a.23.23 0 00.1.2 1.69 1.69 0 00.33.16l.11.05.13.06a1 1 0 01.38.31.81.81 0 01.14.51 1 1 0 01-.31.75 1.27 1.27 0 01-.86.28 1.87 1.87 0 01-.65-.12zM23.24 10.6c0 .06-.12.09-.34.09h-.25c-.2 0-.32 0-.36-.11l-.83-1.38v1.3c0 .13-.12.19-.36.19h-.16c-.24 0-.36-.06-.36-.19V6.36c0-.13.12-.19.36-.19h.16c.24 0 .36.06.36.19v2.37l.72-1.09a.21.21 0 01.13-.09h.46q.33 0 .33.09a.28.28 0 01-.05.12l-.83 1.18 1 1.55a.24.24 0 01.02.11zM23.84 10.49a1 1 0 01-.22-.73v-2c0-.13.12-.19.36-.19h.17c.24 0 .36.06.36.19v1.9a.41.41 0 00.08.28.37.37 0 00.27.09.44.44 0 00.29-.11.72.72 0 00.19-.24V7.73c0-.13.12-.19.36-.19h.17c.24 0 .36.06.36.19v2.63a.83.83 0 010 .13q0 .11-.24.15a2.47 2.47 0 01-.43 0 .16.16 0 01-.15-.09.6.6 0 01-.06-.19.58.58 0 010-.14 1.12 1.12 0 01-.38.33 1.14 1.14 0 01-.51.13.83.83 0 01-.62-.19z"/></svg>