<svg xmlns="http://www.w3.org/2000/svg" role="img" viewBox="0 0 38 24" width="38" height="24" fill="none" aria-labelledby="pi-sveacheckout"><title id="pi-sveacheckout">Svea Checkout</title><rect x="1" y="1" width="36" height="22" rx="2" fill="#fff"/><rect x=".5" y=".5" width="37" height="23" rx="2.5" stroke="#000" stroke-opacity=".07"/><path d="M7.412 9.466H5.096c-.837 0-.935-.42-.935-.735 0-.655.342-.922 1.179-.922h4.486V6H5.085C2.98 6 2 6.86 2 8.707c0 1.736.932 2.545 2.934 2.545h2.062c.812 0 1.072.193 1.072.794 0 .5-.188.77-1.188.77H2.336v1.808h4.822c2.096 0 3.073-.842 3.073-2.65 0-1.78-.816-2.508-2.819-2.508zM17.29 6l-2.447 5.908L12.452 6h-2.346l3.77 8.627h2.026l3.613-8.626h-2.224zM23.156 7.776h3.038V6h-3.073c-2.784 0-4.081 1.418-4.081 4.462 0 1.572.437 2.684 1.337 3.397.885.709 1.745.766 2.698.766h3.12v-1.775h-3.04c-1.256 0-1.76-.465-1.81-1.702h4.85V9.374h-4.829c.108-1.089.68-1.598 1.79-1.598zM30.241 6l-3.662 8.626h2.218l.742-1.976h3.385l.764 1.976H36l-3.688-8.625h-2.07zm-.009 4.841l.978-2.564 1.017 2.564h-1.995z" fill="#00325C"/><path d="M35.583 16.278H2.697a.416.416 0 00-.417.415v1.418c0 .23.187.415.417.415h32.886c.23 0 .416-.186.416-.415v-1.418a.416.416 0 00-.416-.415z" fill="#00AECE"/></svg>