<svg xmlns="http://www.w3.org/2000/svg" role="img" viewBox="0 0 38 24" width="38" height="24" aria-labelledby="pi-sveaeramaksu"><title id="pi-sveaeramaksu">Svea Erämaksu</title><path opacity=".07" d="M35 0H3C1.3 0 0 1.3 0 3v18c0 1.7 1.4 3 3 3h32c1.7 0 3-1.3 3-3V3c0-1.7-1.4-3-3-3z"/><path fill="#fff" d="M35 1c1.1 0 2 .9 2 2v18c0 1.1-.9 2-2 2H3c-1.1 0-2-.9-2-2V3c0-1.1.9-2 2-2h32"/><path fill="#002c50" d="M14.69 15.08c-.25 0-.28-.13-.28-.23s.1-.28.35-.28h1.33V14h-1.41c-.63 0-.92.26-.92.83s.28.78.88.78h.58c.26 0 .34.06.34.25s-.06.25-.38.25h-1.41v.59h1.5c.64 0 .93-.26.93-.82s-.25-.77-.86-.77M18.35 14.01l-.75 1.85-.74-1.85h-.72l1.16 2.7h.62l1.11-2.7h-.68zM21 14.5v-.52h-.94c-.86 0-1.26.44-1.26 1.4a1.3 1.3 0 00.41 1.06 1.15 1.15 0 00.83.24h1v-.59h-.89c-.36 0-.51-.14-.52-.5h1.41V15h-1.47a.49.49 0 01.55-.49M22.56 14.71l.31.79h-.61zm-.3-.73l-1.13 2.7h.72l.22-.59h1l.23.59h.7L22.89 14z"/><path fill="#00abc8" d="M23.82 17.87H13.9a.14.14 0 01-.13-.12v-.43a.13.13 0 01.13-.13h10a.13.13 0 01.13.13v.43a.12.12 0 01-.13.12"/><path fill="#00325c" d="M6.37 10.61a.23.23 0 01-.06-.18V6.7a.25.25 0 01.06-.19.22.22 0 01.18-.06h2.11a.15.15 0 01.14.08.45.45 0 010 .23v.18a.45.45 0 010 .23.14.14 0 01-.14.07H7.24v.88H8.5a.15.15 0 01.14.07.45.45 0 010 .23v.18a.43.43 0 010 .23.16.16 0 01-.14.08H7.24v1h1.43a.17.17 0 01.14.07.47.47 0 010 .23v.19a.47.47 0 010 .23.15.15 0 01-.14.07H6.55a.22.22 0 01-.18-.09zM9.51 10.49V8.58v-.41-.31a1.05 1.05 0 010-.13c0-.06.08-.11.24-.14a1.83 1.83 0 01.43 0 .14.14 0 01.15.08.75.75 0 01.07.18v.13a1.14 1.14 0 01.27-.33.58.58 0 01.33-.18.34.34 0 01.27.1.37.37 0 01.07.23 1 1 0 010 .31c0 .13-.08.19-.13.19a.37.37 0 01-.13 0 .53.53 0 00-.44.07.8.8 0 00-.2.21v1.93c0 .13-.12.19-.36.19h-.21c-.24-.02-.36-.08-.36-.21zM11.81 10.48a1 1 0 01-.21-.64A1 1 0 0112 9a2.12 2.12 0 011.37-.32v-.2a.29.29 0 00-.11-.26.64.64 0 00-.36-.08 1.25 1.25 0 00-.35 0 1.51 1.51 0 00-.28.1h-.14s-.08 0-.13-.09a1.07 1.07 0 01-.13-.21.62.62 0 01-.05-.18c0-.07.05-.14.15-.2a1.42 1.42 0 01.42-.16 2.58 2.58 0 01.58-.06 1.5 1.5 0 011 .27.94.94 0 01.31.74v2a.83.83 0 010 .13c0 .07-.08.12-.25.15a2.37 2.37 0 01-.43 0 .16.16 0 01-.15-.09.6.6 0 01-.06-.19.78.78 0 000-.14.61.61 0 01-.14.17 1.2 1.2 0 01-.3.2 1 1 0 01-.44.09.86.86 0 01-.7-.19zM12.08 7v-.36c0-.13.12-.2.36-.2s.37.07.37.2V7c0 .13-.12.19-.37.19s-.36-.06-.36-.19zm1 2.91a.66.66 0 00.22-.28V9.3q-.84 0-.84.45a.26.26 0 00.08.19.31.31 0 00.22.07.55.55 0 00.34-.1zM13.17 7v-.36c0-.13.12-.2.36-.2s.36.07.36.2V7c0 .13-.12.19-.36.19s-.36-.06-.36-.19zM19.12 7.71a1.09 1.09 0 01.21.74v2c0 .13-.12.19-.36.19h-.17c-.24 0-.36-.06-.36-.19V8.58a.39.39 0 00-.08-.28.34.34 0 00-.27-.09.56.56 0 00-.48.34v1.94c0 .13-.12.19-.36.19h-.17c-.24 0-.36-.06-.36-.19V8.58a.44.44 0 00-.08-.28.35.35 0 00-.27-.09.43.43 0 00-.29.1.79.79 0 00-.19.25v1.93c0 .13-.12.19-.36.19h-.17c-.24 0-.36-.06-.36-.19V8.58a4 4 0 000-.41v-.31a.72.72 0 010-.13c0-.06.08-.11.24-.14a1.78 1.78 0 01.43 0 .16.16 0 01.15.08.48.48 0 01.06.18.53.53 0 010 .13 1.35 1.35 0 01.38-.33 1.14 1.14 0 01.51-.13 1.07 1.07 0 01.51.11.68.68 0 01.29.35 1.15 1.15 0 01.93-.46.83.83 0 01.62.19zM20.2 10.48a1 1 0 01-.2-.64 1 1 0 01.36-.8 2.12 2.12 0 011.37-.32v-.2a.29.29 0 00-.11-.26.64.64 0 00-.36-.08 1.37 1.37 0 00-.36 0 1.69 1.69 0 00-.27.1h-.14s-.08 0-.13-.09a1.07 1.07 0 01-.13-.21.62.62 0 01-.05-.18c0-.07.05-.14.15-.2a1.42 1.42 0 01.42-.16 2.58 2.58 0 01.58-.06 1.5 1.5 0 011 .27.94.94 0 01.3.74v1.22a3.87 3.87 0 000 .42v.32a.83.83 0 010 .13c0 .07-.08.12-.25.15a2.37 2.37 0 01-.43 0 .16.16 0 01-.15-.09.6.6 0 01-.06-.19v-.14a.61.61 0 01-.14.17 1.42 1.42 0 01-.3.2 1 1 0 01-.44.09.86.86 0 01-.66-.19zm1.29-.57a.74.74 0 00.22-.28V9.3q-.84 0-.84.45a.26.26 0 00.08.19.29.29 0 00.22.07.55.55 0 00.32-.1zM26.12 10.59c0 .06-.11.09-.34.09h-.25c-.2 0-.32 0-.37-.11l-.83-1.39v1.3c0 .13-.12.19-.36.19h-.17c-.24 0-.36-.06-.36-.19V6.32c0-.13.12-.19.36-.19h.17c.24 0 .36.06.36.19v2.39l.73-1.09a.18.18 0 01.13-.09h.46q.33 0 .33.09a.28.28 0 01-.05.12l-.84 1.19 1 1.56a.17.17 0 01.03.1zM26.65 10.6c-.21-.07-.31-.17-.31-.29a.59.59 0 01.11-.29c.08-.12.15-.17.21-.17a.3.3 0 01.13 0L27 10a.9.9 0 00.25 0 .44.44 0 00.25-.06.23.23 0 00.09-.19.24.24 0 00-.06-.17.53.53 0 00-.15-.11l-.3-.12a1.37 1.37 0 01-.5-.31.79.79 0 01-.19-.59.93.93 0 01.3-.73 1.17 1.17 0 01.8-.26 2.1 2.1 0 01.61.09c.19.06.29.15.29.26a.71.71 0 01-.09.3c-.06.12-.12.18-.17.18L28 8.23a1 1 0 00-.35-.06c-.21 0-.32.07-.32.21a.25.25 0 00.11.21 2.58 2.58 0 00.33.16l.11.05.13.06a1 1 0 01.39.31.89.89 0 01.14.52 1 1 0 01-.31.75 1.25 1.25 0 01-.87.28 1.92 1.92 0 01-.71-.12zM29.21 10.48a1.09 1.09 0 01-.21-.74v-2c0-.13.12-.19.37-.19h.16c.24 0 .37.06.37.19v1.87a.31.31 0 00.36.37.4.4 0 00.28-.1.82.82 0 00.2-.25V7.7c0-.13.12-.19.36-.19h.17c.24 0 .36.06.36.19v2.65a.34.34 0 010 .13q0 .11-.24.15a2.47 2.47 0 01-.43 0 .16.16 0 01-.15-.09 1.07 1.07 0 01-.07-.19v-.14a1.27 1.27 0 01-.39.33 1.1 1.1 0 01-.51.13.87.87 0 01-.63-.19z"/></svg>