<svg xmlns="http://www.w3.org/2000/svg" role="img" viewBox="0 0 38 24" width="38" height="24" aria-labelledby="pi-sveadelbetalning"><title id="pi-sveadelbetalning">Svea Delbetalning</title><path opacity=".07" d="M35 0H3C1.3 0 0 1.3 0 3v18c0 1.7 1.4 3 3 3h32c1.7 0 3-1.3 3-3V3c0-1.7-1.4-3-3-3z"/><path fill="#fff" d="M35 1c1.1 0 2 .9 2 2v18c0 1.1-.9 2-2 2H3c-1.1 0-2-.9-2-2V3c0-1.1.9-2 2-2h32"/><path fill="#002c50" d="M14.52 15.1c-.25 0-.28-.13-.28-.23s.1-.28.35-.28h1.35V14h-1.42c-.64 0-.94.27-.94.84s.28.78.89.78h.58c.27 0 .35.06.35.26s-.06.25-.38.25H13.6v.6h1.51c.64 0 .94-.27.94-.83s-.25-.78-.87-.78M18.23 14.02l-.77 1.87-.74-1.87h-.73l1.17 2.72h.63l1.12-2.72h-.68zM20.93 14.52L21 14h-1c-.86 0-1.27.45-1.27 1.41a1.28 1.28 0 00.42 1.07 1.16 1.16 0 00.83.25h1v-.6h-.9c-.37 0-.52-.14-.53-.51H21V15h-1.54a.49.49 0 01.55-.51M22.48 14.73l.32.8h-.62zm-.3-.74L21 16.72h.73l.22-.6h1l.23.6H24L22.82 14z"/><path fill="#00abc8" d="M23.76 17.91h-10a.12.12 0 01-.12-.12v-.44a.12.12 0 01.12-.12H23.8a.13.13 0 01.13.12v.44a.13.13 0 01-.13.12"/><path fill="#00325c" d="M1.89 10.6a.23.23 0 01-.06-.18V6.66a.25.25 0 01.06-.19.26.26 0 01.19 0h1.29A1.86 1.86 0 014.81 7a2.24 2.24 0 01.5 1.58 2.21 2.21 0 01-.5 1.57 1.83 1.83 0 01-1.44.55H2.08a.25.25 0 01-.19-.1zm1.48-.73a.88.88 0 00.74-.34 1.72 1.72 0 00.25-1 1.72 1.72 0 00-.25-1 .85.85 0 00-.74-.34h-.6v2.68zM6.23 10.28a1.68 1.68 0 01-.39-1.18 1.76 1.76 0 01.39-1.26 1.43 1.43 0 011.09-.4 1.17 1.17 0 011 .44A1.87 1.87 0 018.63 9a.46.46 0 01-.13.21c-.08.1-.14.14-.18.14H6.77a.66.66 0 00.23.5.72.72 0 00.49.15 1.06 1.06 0 00.31 0l.29-.1h.13a.21.21 0 01.14.09.82.82 0 01.12.2.38.38 0 01.06.17c0 .1-.07.18-.19.24a1.49 1.49 0 01-.45.15 2.79 2.79 0 01-.46.05 1.52 1.52 0 01-1.21-.52zm1.52-1.52a.74.74 0 00-.11-.44.36.36 0 00-.32-.17c-.3 0-.49.2-.55.61zM9.24 9.73V6.28c0-.13.12-.19.36-.19h.17c.24 0 .37.06.37.19v3.46a.28.28 0 000 .2.2.2 0 00.16.06h.17s.07 0 .09.09a.59.59 0 01.07.2.7.7 0 010 .14c0 .2-.2.3-.59.3-.51-.02-.8-.35-.8-1zM12.23 10.58a.78.78 0 01-.32-.33l-.06.27a.19.19 0 01-.11.12.81.81 0 01-.25 0h-.07c-.24 0-.36-.06-.36-.19V6.28c0-.13.12-.19.36-.19h.17c.24 0 .37.06.37.19v1.35a1 1 0 01.61-.19 1.14 1.14 0 01.95.44 1.93 1.93 0 01.33 1.19 2.38 2.38 0 01-.14.89 1.26 1.26 0 01-.41.56.92.92 0 01-.58.19.9.9 0 01-.49-.13zm.71-1.51c0-.61-.18-.92-.56-.92a.79.79 0 00-.42.12v1.35a.58.58 0 00.49.36c.33.02.49-.31.49-.91zM14.75 10.28a1.68 1.68 0 01-.39-1.18 1.76 1.76 0 01.39-1.26 1.46 1.46 0 011.09-.4 1.14 1.14 0 011 .44A1.87 1.87 0 0117.15 9a.39.39 0 01-.13.21c-.08.1-.14.14-.18.14h-1.55a.66.66 0 00.21.49.72.72 0 00.5.16 1.06 1.06 0 00.31 0l.29-.1h.13a.21.21 0 01.14.09 1.37 1.37 0 01.13.2.51.51 0 01.05.17c0 .1-.06.18-.19.24a1.49 1.49 0 01-.45.15 2.68 2.68 0 01-.45.05 1.54 1.54 0 01-1.21-.52zm1.52-1.52a.74.74 0 00-.11-.44.36.36 0 00-.32-.17c-.3 0-.48.2-.55.61zM17.84 9.73V8.2h-.09a.16.16 0 01-.14-.07.47.47 0 010-.23v-.11a.47.47 0 010-.23.14.14 0 01.14-.07h.09l.08-.58c0-.13.13-.19.33-.19h.19c.2 0 .3.06.3.19v.58H19a.15.15 0 01.14.07.47.47 0 010 .23v.11a.47.47 0 010 .23.17.17 0 01-.14.07h-.3v1.54a.34.34 0 00.05.2.22.22 0 00.25.06h.16s.07 0 .1.09a.93.93 0 01.07.2v.14c0 .2-.19.3-.58.3-.61-.02-.91-.35-.91-1zM19.92 10.47a1 1 0 01-.21-.65 1 1 0 01.35-.8 2.12 2.12 0 011.39-.32v-.2a.34.34 0 00-.11-.27.7.7 0 00-.34-.08 1.37 1.37 0 00-.36 0 1.69 1.69 0 00-.27.1.44.44 0 01-.14.05.21.21 0 01-.14-.09 1.05 1.05 0 01-.15-.21.46.46 0 01-.06-.18c0-.07.05-.14.15-.2a1.27 1.27 0 01.42-.16 2.74 2.74 0 01.55-.02 1.51 1.51 0 011 .27 1 1 0 01.3.74v1.14a4.26 4.26 0 000 .43v.32a.83.83 0 010 .13c0 .07-.08.12-.25.15a2.47 2.47 0 01-.43.05.16.16 0 01-.15-.09 1.07 1.07 0 01-.07-.19v-.14l-.15.17a1 1 0 01-.3.2 1.06 1.06 0 01-.45.09.88.88 0 01-.58-.24zm1.3-.58a.67.67 0 00.23-.27v-.34c-.57 0-.85.15-.85.45a.24.24 0 00.08.2.29.29 0 00.22.07.56.56 0 00.32-.11zM23.14 9.73V6.28c0-.13.12-.19.36-.19h.17c.25 0 .37.06.37.19v3.46a.28.28 0 00.05.2.21.21 0 00.17.06h.16s.07 0 .1.09a1 1 0 01.06.2.7.7 0 010 .14c0 .2-.2.3-.58.3-.57-.02-.86-.35-.86-1zM24.93 10.48V8.56v-.41-.32a1.05 1.05 0 010-.13c0-.06.08-.11.25-.14a1.78 1.78 0 01.43 0 .15.15 0 01.15.08.75.75 0 01.07.18v.13a1.27 1.27 0 01.39-.33 1.06 1.06 0 01.52-.13.86.86 0 01.67.24 1.06 1.06 0 01.22.74v2.06c0 .13-.12.19-.36.19h-.17c-.25 0-.37-.06-.37-.19V8.56a.48.48 0 00-.08-.29.38.38 0 00-.28-.09.44.44 0 00-.29.11.91.91 0 00-.2.24v2c0 .13-.12.19-.36.19h-.22c-.24-.05-.37-.11-.37-.24zM28.29 6.86v-.43c0-.15.15-.22.45-.22s.45.07.45.22v.43c0 .16-.15.23-.45.23s-.45-.09-.45-.23zm0 3.62V7.67c0-.13.13-.19.37-.19h.17c.24 0 .36.06.36.19v2.81c0 .13-.12.19-.36.19h-.17c-.24 0-.37-.06-.37-.19zM29.92 10.48V8.56v-.41a2.79 2.79 0 010-.32.37.37 0 010-.13c0-.06.08-.11.24-.14a1.85 1.85 0 01.44 0 .15.15 0 01.15.08.48.48 0 01.06.18.53.53 0 010 .13 1.27 1.27 0 01.39-.33 1 1 0 01.51-.13.88.88 0 01.68.24 1.11 1.11 0 01.21.74v2.06c0 .13-.12.19-.36.19H32c-.24 0-.36-.06-.36-.19V8.56a.42.42 0 00-.09-.29.36.36 0 00-.28-.09.46.46 0 00-.29.11.88.88 0 00-.19.24v2c0 .13-.12.19-.37.19h-.17c-.25-.05-.33-.11-.33-.24zM33.07 11.11a.68.68 0 01.14-.42 1 1 0 01.41-.28.44.44 0 01-.2-.18.6.6 0 01-.06-.27.47.47 0 01.09-.28.69.69 0 01.27-.23.94.94 0 01-.49-.9 1 1 0 01.36-.82 1.59 1.59 0 01.94-.26 2.42 2.42 0 01.47 0h1a.13.13 0 01.13.07.46.46 0 01.05.23v.13c0 .19-.05.28-.15.28h-.26a.48.48 0 01.07.16.57.57 0 010 .18 1 1 0 01-.35.81 1.45 1.45 0 01-.89.26c-.25 0-.37.06-.37.17s0 .11.13.14a2.52 2.52 0 00.43.09 1.92 1.92 0 01.34 0 1.7 1.7 0 01.68.27.72.72 0 01.26.61.84.84 0 01-.2.54 1.32 1.32 0 01-.55.36 2.52 2.52 0 01-.82.13q-1.43.1-1.43-.79zm2 .05a.24.24 0 00.15-.22c0-.09-.06-.16-.2-.2a3 3 0 00-.73-.1.57.57 0 00-.24.14.26.26 0 00-.09.18.21.21 0 00.16.2 1.12 1.12 0 00.48.08 1.17 1.17 0 00.45-.08zm-.18-2.32a.41.41 0 00.11-.32.4.4 0 00-.13-.32.46.46 0 00-.33-.11.47.47 0 00-.33.11.39.39 0 00-.12.32.41.41 0 00.12.32.52.52 0 00.33.1.5.5 0 00.33-.1z"/></svg>