<svg xmlns="http://www.w3.org/2000/svg" role="img" viewBox="0 0 38 24" width="38" height="24" aria-labelledby="pi-sveab2binvoice"><title id="pi-sveab2binvoice">Svea B2B Invoice</title><path opacity=".07" d="M35 0H3C1.3 0 0 1.3 0 3v18c0 1.7 1.4 3 3 3h32c1.7 0 3-1.3 3-3V3c0-1.7-1.4-3-3-3z"/><path fill="#fff" d="M35 1c1.1 0 2 .9 2 2v18c0 1.1-.9 2-2 2H3c-1.1 0-2-.9-2-2V3c0-1.1.9-2 2-2h32"/><path fill="#002c50" d="M14.62 15c-.25 0-.28-.13-.28-.23s.1-.28.36-.28H16v-.6h-1.38c-.64 0-.93.27-.93.84s.28.78.88.78h.59c.26 0 .34.06.34.26s-.06.25-.38.25H13.7v.59h1.51c.64 0 .93-.26.93-.82s-.25-.78-.86-.78M18.31 13.96l-.76 1.86-.74-1.86h-.72l1.17 2.72h.62L19 13.96h-.69zM21 14.46v-.53h-.95c-.86 0-1.26.45-1.26 1.41a1.29 1.29 0 00.41 1.07 1.15 1.15 0 00.83.24h1v-.59h-.89c-.37 0-.52-.14-.54-.51h1.43V15h-1.49a.49.49 0 01.55-.5M22.55 14.66l.31.8h-.61zm-.3-.73l-1.14 2.72h.72l.22-.59h1l.23.59H24l-1.15-2.72z"/><path fill="#00abc8" d="M23.81 17.84h-10a.13.13 0 01-.13-.12v-.43a.14.14 0 01.13-.13h10a.13.13 0 01.12.13v.43a.13.13 0 01-.13.13"/><path fill="#00325c" d="M3.82 10.54a.23.23 0 01-.06-.18V6.6A.21.21 0 014 6.36h1.2a1.7 1.7 0 011.09.28 1 1 0 01.34.79 1 1 0 01-.18.57 1.1 1.1 0 01-.45.35 1 1 0 01.59.36.94.94 0 01.23.63 1.09 1.09 0 01-.38.91 1.68 1.68 0 01-1.13.32H4a.24.24 0 01-.18-.03zm1.29-2.49a.6.6 0 00.42-.13.39.39 0 00.15-.32c0-.3-.19-.45-.56-.45h-.43v.9zm.18 1.76a.58.58 0 00.41-.13.44.44 0 00.14-.36.41.41 0 00-.16-.32.87.87 0 00-.49-.12h-.5v1zM7.15 10.41a1.16 1.16 0 01-.06-.34.14.14 0 010-.09L8.64 8.1a.88.88 0 00.23-.58.47.47 0 00-.15-.37.66.66 0 00-.41-.15.65.65 0 00-.29 0 2.19 2.19 0 00-.27.13.36.36 0 01-.15.08.3.3 0 01-.24-.15.48.48 0 01-.1-.27c0-.17.12-.31.37-.41a2.16 2.16 0 01.83-.15 1.38 1.38 0 011 .33 1.12 1.12 0 01.34.86 1.54 1.54 0 01-.37 1L8.27 9.89h1.4a.14.14 0 01.14.08.41.41 0 010 .23v.1a.46.46 0 010 .23c0 .05-.07.07-.14.07H7.26s-.08-.06-.11-.19zM10.65 10.54a.23.23 0 01-.05-.18V6.6a.24.24 0 01.05-.18.25.25 0 01.19-.06H12a1.68 1.68 0 011.08.28 1 1 0 01.35.79.9.9 0 01-.19.56 1 1 0 01-.47.36 1 1 0 01.59.36 1 1 0 01.23.63 1.12 1.12 0 01-.38.91 1.69 1.69 0 01-1.14.32h-1.23a.25.25 0 01-.19-.03zM12 8.05a.59.59 0 00.41-.13.39.39 0 00.15-.32c0-.3-.18-.45-.55-.45h-.43v.9zm.17 1.76a.56.56 0 00.41-.13.45.45 0 00.15-.36.42.42 0 00-.22-.32.81.81 0 00-.51-.16h-.5v1zM15.57 10.42V6.54c0-.13.12-.2.36-.2h.22c.24 0 .36.07.36.2v3.88c0 .13-.12.2-.36.2h-.22c-.24 0-.36-.07-.36-.2zM17.27 10.42V8.5v-.41-.32a.83.83 0 010-.13c0-.06.08-.11.25-.14a2.37 2.37 0 01.43 0 .16.16 0 01.15.08.64.64 0 01.06.18.66.66 0 010 .13 1.39 1.39 0 01.39-.32 1 1 0 01.45-.19.88.88 0 01.68.24 1.12 1.12 0 01.21.75v2.05c0 .13-.12.19-.36.19h-.17c-.24 0-.36-.06-.36-.19V8.5a.38.38 0 00-.09-.28.33.33 0 00-.28-.1.43.43 0 00-.28.11.76.76 0 00-.2.24v1.95c0 .13-.12.19-.36.19h-.17c-.23 0-.35-.06-.35-.19zM21.3 10.49l-1-2.83a.36.36 0 010-.11c0-.09.13-.13.37-.13h.2c.2 0 .32 0 .34.13l.36 1.12c0 .06.06.22.12.47l.05.26c.07-.35.12-.6.16-.73l.36-1.12c0-.09.14-.13.34-.13h.15c.25 0 .37 0 .37.13a.52.52 0 010 .11l-1 2.83c0 .08-.15.12-.34.12h-.2c-.13 0-.25-.04-.28-.12zM23.84 10.23A1.78 1.78 0 0123.47 9a1.75 1.75 0 01.37-1.21 1.4 1.4 0 011.1-.42A1.38 1.38 0 0126 7.8a1.75 1.75 0 01.4 1.2 1.78 1.78 0 01-.4 1.23 1.38 1.38 0 01-1.09.42 1.4 1.4 0 01-1.07-.42zm1.52-.52A1.44 1.44 0 0025.5 9a1.42 1.42 0 00-.14-.69.46.46 0 00-.42-.23.49.49 0 00-.43.23 1.42 1.42 0 00-.14.69q0 .93.57.93a.46.46 0 00.42-.22zM27 6.81v-.43c0-.15.15-.23.45-.23s.44.08.44.23v.43c0 .15-.15.23-.44.23S27 7 27 6.81zm0 3.61V7.61c0-.13.12-.19.36-.19h.17c.24 0 .36.06.36.19v2.81c0 .13-.12.19-.36.19h-.17c-.22 0-.36-.06-.36-.19zM28.9 10.25A1.66 1.66 0 0128.52 9a1.8 1.8 0 01.38-1.2 1.5 1.5 0 011.18-.42 1.91 1.91 0 01.68.12c.22.07.32.17.32.3a.6.6 0 01-.12.28c-.08.13-.15.19-.2.19h-.11a1.22 1.22 0 00-.24-.1.79.79 0 00-.28 0 .62.62 0 00-.53.23 1.25 1.25 0 00-.16.69 1.19 1.19 0 00.16.7.52.52 0 00.49.23 1.2 1.2 0 00.28 0l.21-.07H30.79a.19.19 0 01.14.08 1.37 1.37 0 01.13.2.62.62 0 01.05.18q0 .15-.21.24a1.49 1.49 0 01-.45.14 2.41 2.41 0 01-.4 0 1.49 1.49 0 01-1.15-.54zM31.85 10.22A1.68 1.68 0 0131.46 9a1.76 1.76 0 01.39-1.26 1.46 1.46 0 011.08-.4 1.14 1.14 0 011 .44A1.89 1.89 0 0134.24 9a.38.38 0 01-.12.21c-.09.1-.15.14-.19.14h-1.54a.68.68 0 00.2.5.79.79 0 00.49.14 1 1 0 00.31 0 2 2 0 00.29-.1.47.47 0 01.14-.05s.08 0 .13.09a1.37 1.37 0 01.13.2.58.58 0 01.05.17c0 .1-.06.18-.19.24a1.32 1.32 0 01-.45.15 2.68 2.68 0 01-.45.05 1.52 1.52 0 01-1.19-.52zm1.52-1.52a.82.82 0 00-.11-.44.37.37 0 00-.33-.17c-.3 0-.48.21-.54.61z"/></svg>