<svg xmlns="http://www.w3.org/2000/svg" role="img" viewBox="0 0 38 24" width="38" height="24" aria-labelledby="pi-sveayrityslasku"><title id="pi-sveayrityslasku">Svea Yrityslasku</title><path opacity=".07" d="M35 0H3C1.3 0 0 1.3 0 3v18c0 1.7 1.4 3 3 3h32c1.7 0 3-1.3 3-3V3c0-1.7-1.4-3-3-3z"/><path fill="#fff" d="M35 1c1.1 0 2 .9 2 2v18c0 1.1-.9 2-2 2H3c-1.1 0-2-.9-2-2V3c0-1.1.9-2 2-2h32"/><path fill="#002c50" d="M14.74 15.1c-.26 0-.29-.13-.29-.23s.11-.28.36-.28h1.34V14h-1.42c-.63 0-.93.27-.93.84s.28.78.89.78h.58c.26 0 .34.06.34.26s-.06.25-.38.25h-1.41v.6h1.51c.63 0 .93-.27.93-.83s-.25-.78-.86-.78M18.43 14.02l-.76 1.86-.74-1.86h-.73l1.17 2.72H18l1.11-2.72h-.68zM21.12 14.52l.05-.53h-1c-.86 0-1.26.45-1.26 1.41a1.28 1.28 0 00.42 1.07 1.14 1.14 0 00.82.25h1v-.6h-.89c-.37 0-.52-.14-.53-.51h1.42V15h-1.49a.48.48 0 01.54-.5M22.66 14.72l.31.8h-.61zm-.3-.73l-1.13 2.73H22l.22-.6h1l.22.6h.75L23 14z"/><path fill="#00abc8" d="M23.93 17.91h-10a.13.13 0 01-.12-.13v-.43a.11.11 0 01.12-.12H24a.12.12 0 01.13.12v.43a.13.13 0 01-.13.13"/><path fill="#00325c" d="M6 10.48V8.62L4.77 6.68a.37.37 0 01-.06-.15q0-.12.39-.12h.26c.19 0 .32 0 .36.11l.74 1.3.75-1.3c0-.08.16-.11.36-.11h.22c.25 0 .38 0 .38.12a.37.37 0 01-.05.15l-1.21 2v1.84c0 .13-.12.19-.37.19h-.2c-.24-.04-.34-.1-.34-.23zM8.51 10.48V8.56a3.81 3.81 0 000-.41v-.32a.72.72 0 010-.13c0-.06.08-.11.24-.14a2.58 2.58 0 01.44 0 .16.16 0 01.15.08.64.64 0 01.06.18.63.63 0 000 .13.89.89 0 01.27-.33.56.56 0 01.33-.18.34.34 0 01.27.1.39.39 0 01.07.23 1.09 1.09 0 010 .32c0 .13-.08.19-.13.19H9.92a.5.5 0 00-.29.09.9.9 0 00-.19.21v2c0 .13-.12.19-.37.19h-.2c-.24-.1-.36-.16-.36-.29zM10.71 6.87v-.43c0-.15.15-.23.45-.23s.45.08.45.23v.43c0 .15-.15.23-.45.23s-.45-.1-.45-.23zm0 3.61V7.67c0-.13.12-.19.36-.19h.17c.25 0 .37.06.37.19v2.81c0 .13-.12.19-.37.19h-.17c-.24 0-.36-.06-.36-.19zM12.43 9.73V8.2h-.1a.14.14 0 01-.14-.07.47.47 0 010-.23v-.11a.47.47 0 010-.23.16.16 0 01.14-.07h.1l.07-.57c0-.13.13-.2.33-.2H13c.2 0 .3.07.3.2v.57h.3a.17.17 0 01.14.07.47.47 0 010 .23v.11a.47.47 0 010 .23.15.15 0 01-.14.07h-.3v1.54a.34.34 0 000 .2.22.22 0 00.17.06h.16s.07 0 .1.09a.93.93 0 01.07.2v.14c0 .2-.19.3-.58.3-.5-.02-.79-.35-.79-1zM16.92 7.61a.45.45 0 010 .11l-1.39 4.06c0 .09-.14.13-.34.13h-.11c-.24 0-.36 0-.36-.13a.26.26 0 010-.11l.38-1-1-2.94a.45.45 0 010-.11c0-.09.13-.13.37-.13h.2c.19 0 .31 0 .34.13l.35 1.12a5.87 5.87 0 01.17.73 6.39 6.39 0 01.17-.73l.36-1.12c0-.09.14-.13.33-.13h.15c.26-.01.38.03.38.12zM17.45 10.59c-.21-.07-.31-.17-.31-.29a.55.55 0 01.11-.3c.08-.11.15-.17.21-.17a.36.36 0 01.13.05l.23.09a1 1 0 00.25 0 .4.4 0 00.26-.07.2.2 0 00.09-.18.21.21 0 00-.07-.18.45.45 0 00-.14-.1 2 2 0 00-.31-.12 1.39 1.39 0 01-.5-.32.81.81 0 01-.19-.59.91.91 0 01.3-.73 1.12 1.12 0 01.8-.27 2.11 2.11 0 01.62.09c.19.06.29.15.29.26a.71.71 0 01-.09.3c-.06.12-.12.18-.17.18l-.18-.06a.9.9 0 00-.34-.06c-.21 0-.32.07-.32.21a.21.21 0 00.1.2 1.62 1.62 0 00.33.17h.12l.13.06a1 1 0 01.39.31.91.91 0 01.14.52 1 1 0 01-.31.76 1.27 1.27 0 01-.88.28 1.92 1.92 0 01-.69-.04zM19.83 9.73V6.28c0-.12.12-.19.37-.19h.17c.24 0 .36.07.36.19v3.46a.34.34 0 00.05.2.22.22 0 00.22.06h.16s.07 0 .1.09a.93.93 0 01.07.2v.14c0 .2-.19.3-.58.3-.62-.02-.92-.35-.92-1zM21.72 10.47a1 1 0 01-.21-.65 1 1 0 01.35-.8 2.12 2.12 0 011.39-.32v-.2a.29.29 0 00-.12-.26.56.56 0 00-.36-.09 2 2 0 00-.36 0 1.69 1.69 0 00-.27.1l-.14.1s-.09 0-.14-.1a1.32 1.32 0 01-.12-.2.45.45 0 01-.06-.19c0-.07.05-.13.15-.2a1.54 1.54 0 01.42-.16 2.74 2.74 0 01.59-.06 1.47 1.47 0 011 .27.93.93 0 01.31.75v1.13a4.26 4.26 0 000 .43v.32a.83.83 0 010 .13c0 .07-.09.12-.25.15a2.47 2.47 0 01-.43.05.14.14 0 01-.15-.09 1.07 1.07 0 01-.07-.19v-.14l-.15.17a1 1 0 01-.3.2 1.06 1.06 0 01-.45.09.88.88 0 01-.63-.24zM23 9.89a.67.67 0 00.23-.27v-.33c-.57 0-.85.14-.85.44a.24.24 0 00.08.2.29.29 0 00.22.07.56.56 0 00.32-.11zM25.06 10.59c-.21-.07-.32-.17-.32-.29a.58.58 0 01.12-.3c.08-.11.14-.17.21-.17a.36.36 0 01.13.05l.23.09a.9.9 0 00.25 0 .4.4 0 00.26-.07.2.2 0 00.06-.15.21.21 0 000-.18.45.45 0 00-.14-.1l-.31-.12A1.31 1.31 0 0125 9a.81.81 0 01-.19-.59.94.94 0 01.29-.73 1.17 1.17 0 01.81-.27 2.16 2.16 0 01.62.09c.19.06.29.15.29.26a.71.71 0 01-.09.3c-.06.12-.12.18-.17.18l-.18-.06a.9.9 0 00-.34-.06c-.22 0-.32.07-.32.21a.21.21 0 00.1.2 1.62 1.62 0 00.33.17h.12l.13.06a1 1 0 01.39.31.91.91 0 01.14.52 1 1 0 01-.32.76 1.25 1.25 0 01-.87.28 1.92 1.92 0 01-.68-.04zM30.19 10.58c0 .06-.12.09-.35.09h-.25c-.2 0-.32 0-.37-.11l-.84-1.4v1.31c0 .13-.12.19-.37.19h-.17c-.24 0-.36-.06-.36-.19V6.28c0-.12.12-.19.36-.19H28c.25 0 .37.07.37.19v2.41l.73-1.1a.26.26 0 01.14-.09h.46c.23 0 .34 0 .34.09a.22.22 0 01-.06.12l-.84 1.2 1 1.57a.24.24 0 01.05.1zM30.79 10.47a1.11 1.11 0 01-.21-.74V7.67c0-.13.12-.19.36-.19h.17c.24 0 .36.06.36.19v1.92a.42.42 0 00.09.29.36.36 0 00.28.09.37.37 0 00.28-.11.76.76 0 00.2-.24V7.67c0-.13.12-.19.37-.19h.17c.24 0 .36.06.36.19v2.67a.34.34 0 010 .13q0 .1-.24.15a2.58 2.58 0 01-.44.05.16.16 0 01-.15-.09.6.6 0 01-.06-.19.7.7 0 010-.14 1.35 1.35 0 01-.38.33 1.06 1.06 0 01-.52.13.88.88 0 01-.64-.24z"/></svg>