<svg xmlns="http://www.w3.org/2000/svg" role="img" viewBox="0 0 38 24" width="38" height="24" aria-labelledby="pi-sveainvoice"><title id="pi-sveainvoice">Svea Invoice</title><path opacity=".07" d="M35 0H3C1.3 0 0 1.3 0 3v18c0 1.7 1.4 3 3 3h32c1.7 0 3-1.3 3-3V3c0-1.7-1.4-3-3-3z"/><path fill="#fff" d="M35 1c1.1 0 2 .9 2 2v18c0 1.1-.9 2-2 2H3c-1.1 0-2-.9-2-2V3c0-1.1.9-2 2-2h32"/><path fill="#002c50" d="M14.64 15.05c-.25 0-.28-.13-.28-.23s.1-.28.35-.28h1.35v-.6h-1.42c-.64 0-.94.27-.94.84s.28.78.89.78h.59c.26 0 .34.06.34.26s-.06.26-.38.26h-1.42v.59h1.51c.64 0 .94-.26.94-.83s-.25-.78-.87-.78M18.34 13.97l-.76 1.87-.74-1.87h-.73l1.17 2.73h.63l1.12-2.73h-.69zM21.05 14.47l.05-.53h-1c-.87 0-1.27.45-1.27 1.41a1.3 1.3 0 00.42 1.08 1.15 1.15 0 00.83.24h1v-.59h-.89c-.37 0-.52-.15-.54-.52h1.45V15h-1.52a.49.49 0 01.55-.51M22.6 14.67l.31.81h-.61zm-.3-.73l-1.15 2.73h.73l.22-.59h1l.22.59h.75l-1.14-2.73z"/><path fill="#00abc8" d="M23.87 17.87h-10a.12.12 0 01-.12-.12v-.44a.13.13 0 01.12-.13h10.04a.13.13 0 01.13.13v.44a.12.12 0 01-.13.12"/><path fill="#00325c" d="M9.62 10.41V6.52c0-.14.13-.2.37-.2h.21c.25 0 .37.06.37.2v3.89c0 .14-.12.2-.37.2H10c-.25 0-.38-.06-.38-.2zM11.33 10.41V8.48v-.41-.32a1 1 0 010-.12c0-.07.08-.12.25-.15a2.47 2.47 0 01.43-.05.17.17 0 01.16.08 1.27 1.27 0 01.06.18.78.78 0 000 .14 1.07 1.07 0 01.39-.33 1 1 0 01.51-.14.88.88 0 01.68.24 1.07 1.07 0 01.22.75v2.06c0 .13-.12.2-.37.2h-.17c-.24 0-.36-.07-.36-.2V8.48A.39.39 0 0013 8.2a.36.36 0 00-.28-.09.45.45 0 00-.29.1.76.76 0 00-.19.25v1.95c0 .13-.13.2-.37.2h-.17c-.24 0-.37-.07-.37-.2zM15.38 10.48l-1-2.84a.89.89 0 010-.11c0-.09.12-.13.37-.13H15c.2 0 .31 0 .34.13l.36 1.12q0 .11.12.48l.05.26c.07-.36.13-.6.17-.74l.36-1.12c0-.09.14-.13.34-.13h.15c.24 0 .36 0 .36.13a.45.45 0 010 .11l-1 2.84c0 .08-.14.13-.34.13h-.2c-.18 0-.3-.05-.33-.13zM17.93 10.22A1.78 1.78 0 0117.55 9a1.78 1.78 0 01.38-1.22A1.4 1.4 0 0119 7.36a1.39 1.39 0 011.1.42A1.78 1.78 0 0120.51 9a1.78 1.78 0 01-.38 1.22 1.39 1.39 0 01-1.1.42 1.4 1.4 0 01-1.1-.42zm1.53-.52a1.45 1.45 0 00.13-.7 1.38 1.38 0 00-.13-.69.46.46 0 00-.46-.23.44.44 0 00-.42.23 1.27 1.27 0 00-.14.69c0 .62.19.93.56.93a.48.48 0 00.46-.23zM21.12 6.79v-.44c0-.15.15-.22.45-.22s.45.07.45.22v.44c0 .15-.15.23-.45.23s-.45-.08-.45-.23zm0 3.62V7.6c0-.13.12-.2.37-.2h.17c.24 0 .36.07.36.2v2.81c0 .13-.12.2-.36.2h-.17c-.25 0-.37-.07-.37-.2zM23 10.25A1.75 1.75 0 0122.63 9 1.81 1.81 0 0123 7.78a1.52 1.52 0 011.18-.42 2 2 0 01.7.12c.21.07.31.17.31.3a.6.6 0 01-.12.28c-.08.13-.15.19-.2.19h-.11l-.24-.1a1.17 1.17 0 00-.29 0 .59.59 0 00-.52.22 1.19 1.19 0 00-.16.7 1.28 1.28 0 00.15.7.54.54 0 00.5.23 1.2 1.2 0 00.28 0l.21-.07H24.9a.23.23 0 01.14.08 1.37 1.37 0 01.13.2.62.62 0 01.05.18c0 .1-.07.18-.2.25a1.64 1.64 0 01-.46.13 2.41 2.41 0 01-.41 0 1.52 1.52 0 01-1.15-.52zM26 10.22A1.72 1.72 0 0125.58 9 1.73 1.73 0 0126 7.77a1.47 1.47 0 011.09-.41 1.17 1.17 0 011 .44 1.89 1.89 0 01.32 1.13c0 .05-.05.12-.13.22s-.14.14-.18.14h-1.59a.71.71 0 00.21.5.79.79 0 00.49.14 1 1 0 00.31 0 2.11 2.11 0 00.3-.1h.13a.21.21 0 01.14.09.82.82 0 01.12.2.46.46 0 01.06.18c0 .09-.07.17-.19.24a2.37 2.37 0 01-.45.15 2.77 2.77 0 01-.46 0 1.58 1.58 0 01-1.17-.47zm1.5-1.53a.83.83 0 00-.11-.45.36.36 0 00-.33-.16c-.3 0-.48.2-.55.61z"/></svg>