<svg role="img" viewBox="0 0 38 24" width="38" height="24" aria-labelledby="pi-swissbilling" xmlns="http://www.w3.org/2000/svg"><title id="pi-swissbilling">swissbilling</title><path fill="#000" opacity=".07" d="M35 0H3C1.3 0 0 1.3 0 3v18c0 1.7 1.4 3 3 3h32c1.7 0 3-1.3 3-3V3c0-1.7-1.4-3-3-3z"/><path fill="#fff" d="M35 1c1.1 0 2 .9 2 2v18c0 1.1-.9 2-2 2H3c-1.1 0-2-.9-2-2V3c0-1.1.9-2 2-2h32"/><g id="pi-surface" stroke="none" fill-rule="nonzero" fill="#e31927" fill-opacity="1"><path d="M31.21 3.703c0 .332-.136.461-.405.461-.262 0-.39-.133-.39-.46 0-.321.128-.458.39-.458.27 0 .406.117.406.457zm.247 1.953c0 .285-.21.371-.602.371-.402 0-.546-.078-.546-.336 0-.093.039-.195.093-.261h.817c.168 0 .238.035.238.226zm.527-.043c0-.535-.289-.683-.738-.683h-.707c-.094 0-.137-.024-.137-.117 0-.063.043-.165.118-.274.082.024.214.043.34.043.515 0 .874-.281.874-.844 0-.16-.039-.304-.113-.402V3.3l.309-.016c.03-.125.039-.277.039-.41h-.778a1.684 1.684 0 00-.41-.05c-.582 0-.91.366-.91.898 0 .297.102.52.285.652-.133.219-.238.43-.273.57.035.13.105.27.164.367-.18.149-.258.313-.258.497 0 .414.277.68 1.05.68.782 0 1.145-.352 1.145-.876zm-2.699-.183V3.613c0-.586-.344-.789-.734-.789-.235 0-.45.055-.703.29h-.028v-.255c-.175 0-.402.016-.554.036V5.43h.554V3.488a.875.875 0 01.528-.168c.293 0 .382.121.382.344V5.43zm-2.726 0V2.875h-.555V5.43zm.039-3.235c0-.175-.102-.34-.317-.34-.215 0-.316.168-.316.34 0 .172.101.328.312.328.215 0 .32-.152.32-.328zM25.297 5.43V1.79c-.176 0-.399.019-.555.038V5.43zm-1.258 0V1.79c-.176 0-.398.019-.555.038V5.43zm-1.262 0V2.875h-.554V5.43zm.04-3.235c0-.175-.102-.34-.317-.34-.215 0-.316.168-.316.34 0 .172.101.328.312.328.215 0 .32-.152.32-.328zM21.09 4.11c0 .653-.176.887-.578.887a.718.718 0 01-.407-.11v-1.39a.746.746 0 01.493-.176c.32 0 .492.176.492.79zm.594-.054c0-.89-.399-1.23-.914-1.23a.822.822 0 00-.633.269h-.032V1.789c-.175 0-.398.02-.554.04v3.359c.262.203.61.292.988.292.719 0 1.145-.515 1.145-1.425zm-2.73.718c0-.78-1.231-.726-1.231-1.253 0-.301.18-.454.52-.454.202 0 .41.024.585.086a.94.94 0 00.047-.254 2.172 2.172 0 00-.566-.074c-.489 0-.856.266-.856.727 0 .715 1.23.605 1.23 1.254 0 .277-.152.433-.535.433-.238 0-.468-.039-.671-.14-.032.07-.055.16-.075.238.188.105.457.144.68.144.484 0 .871-.234.871-.707zm-2.017 0c0-.78-1.23-.726-1.23-1.253 0-.301.18-.454.52-.454.207 0 .41.024.585.086a.94.94 0 00.047-.254 2.165 2.165 0 00-.562-.074c-.492 0-.856.266-.856.727 0 .715 1.23.605 1.23 1.254 0 .277-.155.433-.534.433-.239 0-.473-.039-.672-.14-.035.07-.059.16-.078.238.187.105.457.144.68.144.488 0 .87-.234.87-.707zM14.75 2.13c0-.102-.059-.184-.168-.184-.11 0-.168.082-.168.184 0 .105.059.183.164.183.113 0 .172-.074.172-.183zm-.04 3.3V2.876h-.257V5.43zm-.917-2.538a1.008 1.008 0 00-.23-.028l-.47 1.95c-.027.125-.058.23-.073.363h-.012a2.368 2.368 0 00-.078-.352l-.649-1.949h-.242l-.629 1.938c-.039.125-.062.242-.082.363h-.015a3.295 3.295 0 00-.063-.352l-.477-1.96c-.07 0-.187.011-.242.027.168.836.406 1.757.649 2.539h.265l.625-1.93a1.49 1.49 0 00.075-.332h.015c.016.129.043.234.074.328l.641 1.934h.258c.262-.813.48-1.653.66-2.54zM10.09 4.773c0-.78-1.23-.726-1.23-1.253 0-.301.18-.454.523-.454.203 0 .406.024.582.086a.946.946 0 00.05-.254 2.193 2.193 0 00-.566-.074c-.492 0-.855.266-.855.727 0 .715 1.23.605 1.23 1.254 0 .277-.156.433-.535.433-.238 0-.473-.039-.672-.14-.035.07-.058.16-.078.238.191.105.457.144.68.144.488 0 .87-.234.87-.707M6.43 2.793L3.234 6.008s-.265.265-.53.004c-.005 0-.005-.004-.005-.004L1.406 4.707s-.265-.266 0-.535c.266-.27.535 0 .535 0l1.024 1.031 2.93-2.945s.246-.246.511.02c.27.269.024.515.024.515zm1.508 1.2C7.938 1.788 6.16 0 3.967 0 1.779 0 0 1.79 0 3.992 0 6.2 1.777 7.988 3.969 7.988c2.191 0 3.969-1.789 3.969-3.996" transform="translate(3.174 7.385)"/></g></svg>