<svg version="1.1" xmlns="http://www.w3.org/2000/svg" x="0" y="0" role="img" viewBox="0 0 38 24" width="38" height="24" aria-labelledby="pi-sympl" xml:space="preserve"><title id="pi-sympl">Sympl</title><path opacity=".07" d="M35 0H3C1.3 0 0 1.3 0 3v18c0 1.7 1.4 3 3 3h32c1.7 0 3-1.3 3-3V3c0-1.7-1.4-3-3-3z"/><path fill="#FFF" d="M35 1c1.1 0 2 .9 2 2v18c0 1.1-.9 2-2 2H3c-1.1 0-2-.9-2-2V3c0-1.1.9-2 2-2h32"/><g fill="#FF395A"><path d="M32.1 7.3c0-.5.3-.9.8-.9.7 0 .9.6.9 1.2v5.9h.7l-.3 1.3h-.8c-1 0-1.4-.1-1.4-1.2.1-2 .1-4.1.1-6.3z"/><circle cx="8.5" cy="8.8" r=".8"/><path d="M8.3 16.1c.8.2 1-.4 1.3-1 1.3-3.2 2.2-5.4 2.7-6.6.1-.4.4-.6.6-.6.4 0 .7.2.7.6.1.4-.2 1-.4 1.4-.9 2.3-1.6 4.2-2.1 5.6-.4 1-.8 1.7-1.9 1.8-.6.1-2.1.2-1.9-.7 0-.5.6-.5 1-.5zM1.6 13.3v-.2c.1-.3.3-.6.6-.6.6-.1.7.4 1 .7.5.7 1.8.9 2.4.4.3-.2.4-.6.2-.8-.2-.4-.7-.6-1.1-.6-.7-.3-1.3-.4-1.8-.6-2-.7-1.4-3 .5-3.4.8-.2 1.7-.1 2.5.2.5.2 1.1.5 1.2 1.1.2.8-1 1-1.4.5-.6-.7-1.3-1-2.1-.6-.5.1-.6.6-.1.9.2.1.5.3.8.4.2 0 .6.2 1.2.3.9.3 1.8.8 1.8 1.9-.1 1.9-2.1 2.3-3.6 2.1-.9-.1-2-.6-2.1-1.7zM19.8 9.1s.1 0 0 0c.1 0 .1 0 0 0 .6-.7 1.4-1.1 2.3-1 1.5.1 1.9 1 1.9 2.4V14c0 .5-.2.9-.6 1-.8.2-1.1-.5-1.1-1.2V11c0-.5 0-1.3-.5-1.6-.5-.3-1.1 0-1.5.4-.3.5-.3 1.2-.3 1.7v2.3c0 .6-.3 1.3-1 1.1-.5-.1-.7-.4-.7-.9v-3.1c0-.9-.2-1.8-1.4-1.5-.7.2-.8 1.1-.9 1.8v2.7c0 .6-.2 1-.7 1.1s-1-.4-1-.9v-5c0-.4.1-.7.5-.9.6-.3 1.1.1 1.1.6v.3c1.1-1.3 3.1-1.5 3.9 0zM26.5 9.1c0 .1.1.1 0 0 1.8-2 4.5-.9 5 1.5.3 1.3 0 2.9-1 3.7-.8.7-2.3 1-3.3.2-.2-.1-.4-.4-.6-.6v2.7c0 .7-.6 1.2-1.2.8-.1 0-.2-.1-.2-.2-.1-.2-.2-.5-.2-.7V9.1c0-.3 0-.6.1-.6.2-.5.8-.6 1.2-.3.2.2.3.7.2.9zm.5.9c-.6.8-.6 2.5.2 3.3.5.5 1.2.6 1.8.3 1.1-.6 1.2-3 .2-3.8-.7-.7-1.6-.5-2.2.2zM36.4 14.1v.2c-.2.7-1.1.6-1.8.6l.3-1.3c.7 0 1.4-.1 1.5.5z"/></g></svg>