<svg xmlns="http://www.w3.org/2000/svg" viewBox="0 0 38 24" width="38" height="24" role="img" aria-labelledby="pi-synchrony_pay"><title id="pi-synchrony_pay">Synchrony Pay</title><path fill="#000" opacity=".07" d="M35 0H3C1.3 0 0 1.3 0 3v18c0 1.7 1.4 3 3 3h32c1.7 0 3-1.3 3-3V3c0-1.7-1.4-3-3-3z"/><path fill="#fff" d="M35 1c1.1 0 2 .9 2 2v18c0 1.1-.9 2-2 2H3c-1.1 0-2-.9-2-2V3c0-1.1.9-2 2-2h32"/><path d="M35 0H3C1.3 0 0 1.3 0 3v18c0 1.7 1.4 3 3 3h32c1.7 0 3-1.3 3-3V3c0-1.7-1.4-3-3-3z" opacity=".07" fill="#000"/><path d="M35 1c1.1 0 2 .9 2 2v18c0 1.1-.9 2-2 2H3c-1.1 0-2-.9-2-2V3c0-1.1.9-2 2-2h32" fill="#fff"/><mask height="14" width="4" y="5" x="5" maskUnits="userSpaceOnUse" id="pi-synchrony_pay-mask0_1765_4748"><path fill="#fff" d="M5.835 5.195h2.491v13.23H5.835V5.194v.001z" clip-rule="evenodd" fill-rule="evenodd"/></mask><g mask="url(#pi-synchrony_pay-mask0_1765_4748)"><path fill="#FAC90D" d="M9.233 17.617c.001.322-.063.455-.415.434-.592-.034-1.187-.02-1.78-.027-.11-.141-.08-.309-.08-.468V6.433c0-.157-.037-.325.078-.466.62-.005 1.241.003 1.86-.019.275-.01.337.085.335.343-.011 1.375-.006 2.75-.006 4.126 0 2.4-.005 4.8.008 7.2z" clip-rule="evenodd" fill-rule="evenodd"/></g><path fill="#FAC90D" d="M12.66 11.699c.004.24-.06.33-.315.324a32.021 32.021 0 00-1.739-.001c-.23.005-.306-.074-.305-.3.006-1.833.006-3.664 0-5.496 0-.21.066-.281.279-.277a34.489 34.489 0 001.738-.002c.26-.007.35.063.344.335-.015.903-.006 1.806-.006 2.708 0 .903-.007 1.806.004 2.709z" clip-rule="evenodd" fill-rule="evenodd"/><mask height="8" width="3" y="11" x="2" maskUnits="userSpaceOnUse" id="pi-synchrony_pay-mask1_1765_4748"><path fill="#fff" d="M2 11.875h2.513v6.542H2v-6.542z" clip-rule="evenodd" fill-rule="evenodd"/></mask><g mask="url(#pi-synchrony_pay-mask1_1765_4748)"><path fill="#FAC90D" d="M5.66 18.024c-.647.007-1.293.007-1.939.022-.214.005-.278-.08-.277-.285.01-1.883.016-3.768.023-5.653.682-.092 1.369-.021 2.053-.037.249-.005.217.197.219.351.006.62.003 1.24.003 1.86l-.001 3.275c-.001.16.029.326-.082.467z" clip-rule="evenodd" fill-rule="evenodd"/></g><path fill="#FAC90D" d="M7.038 18.024c-.288-.024-.149-.25-.15-.373-.009-2.425-.007-4.85-.007-7.275 0-1.36-.003-2.721.006-4.082 0-.113-.118-.32.15-.327l.001 12.057zm-1.242-.237c0 .101.036.231-.137.237.001-1.83-.006-3.66.008-5.49.003-.327-.078-.451-.424-.435-.591.027-1.184.009-1.776.009.029-.107.119-.094.196-.094.62-.002 1.24.006 1.86-.004.213-.005.278.071.277.279-.005 1.833-.003 3.666-.004 5.5v-.002z" clip-rule="evenodd" fill-rule="evenodd"/><rect fill="#393840" rx=".774" height="12.035" width="18.761" y="5.947" x="15.795"/><path fill="#fff" d="M20.263 12.845v1.951h-1.141V9.26h2.16c.416 0 .78.076 1.095.229.316.152.56.368.73.65.17.278.254.596.254.954 0 .542-.186.97-.558 1.285-.37.312-.884.467-1.54.467h-1zm0-.924h1.018c.302 0 .531-.07.688-.212.16-.142.24-.345.24-.609 0-.27-.08-.49-.24-.658-.159-.167-.38-.253-.661-.258h-1.045v1.738-.001zm6.152 2.875a1.219 1.219 0 01-.11-.369c-.266.297-.613.445-1.039.445-.402 0-.737-.116-1.003-.35a1.127 1.127 0 01-.396-.882c0-.435.161-.77.483-1.003.324-.234.792-.352 1.403-.355h.506v-.235c0-.19-.05-.342-.148-.456-.097-.114-.25-.172-.46-.172-.185 0-.332.045-.438.134a.455.455 0 00-.155.365h-1.1c0-.238.074-.46.22-.661.148-.204.356-.362.624-.476a2.251 2.251 0 01.906-.175c.506 0 .908.128 1.205.384.299.254.448.61.448 1.072v1.784c.003.39.058.686.165.886v.064h-1.111zm-.909-.764a.967.967 0 00.449-.106.723.723 0 00.304-.293v-.707h-.412c-.549 0-.841.19-.877.57l-.004.064c0 .137.048.25.145.338.096.09.228.134.395.134zm4.175-.79l.76-2.56h1.18l-1.655 4.753-.091.217c-.246.537-.652.806-1.217.806-.16 0-.322-.024-.486-.072v-.833l.167.004c.208 0 .363-.032.464-.096a.62.62 0 00.243-.315l.13-.339-1.442-4.125h1.183l.764 2.56z"/></svg>