<svg aria-labelledby="pi-synchrony" role="img" viewBox="0 0 38 24" width="38" height="24" xmlns="http://www.w3.org/2000/svg"><title id="pi-synchrony">Synchrony</title><path fill="#000" opacity=".07" d="M35 0H3C1.3 0 0 1.3 0 3v18c0 1.7 1.4 3 3 3h32c1.7 0 3-1.3 3-3V3c0-1.7-1.4-3-3-3z"/><path fill="#fff" d="M35 1c1.1 0 2 .9 2 2v18c0 1.1-.9 2-2 2H3c-1.1 0-2-.9-2-2V3c0-1.1.9-2 2-2h32"/><path d="M7.333 8.311H5.897v3.719h1.436zM3.107 12.03H1.672v3.718h1.435zm2.113 3.718H3.784V8.311H5.22z" fill="#fbc600"/><path fill="#3b3d44" d="M14.23 10.382l-.998 2.703-1.167-2.703h-.477l1.39 3.273-.435 1.287h.484l1.672-4.56zm21.79 0l-.997 2.703-1.167-2.703h-.477l1.39 3.273-.434 1.287h.483l1.672-4.56zm-25.654 1.385c-.733-.12-.861-.251-.861-.517 0-.286.296-.477.724-.477.447 0 .699.163.77.513l.005.018h.48l-.009-.064c-.098-.579-.538-.899-1.238-.899-.698 0-1.203.382-1.203.908 0 .688.583.843 1.233.952.612.105.8.191.8.553 0 .333-.3.539-.768.539-.638 0-.835-.336-.885-.631h-.493c.06.655.586 1.063 1.377 1.063.737 0 1.252-.404 1.252-.983 0-.714-.56-.868-1.184-.975zm16.19-1.432c-.427 0-.77.177-.995.406v-.359h-.46v3.29h.46v-1.966c0-.464.332-.933.967-.933a1.036 1.036 0 01.323.046v-.458a1.658 1.658 0 00-.294-.025zm-6.764 2.946c-.644 0-1.112-.517-1.112-1.228v-.046c0-.715.47-1.233 1.119-1.233.449 0 .804.243.98.633h.495a1.513 1.513 0 00-1.475-1.065c-.903 0-1.584.716-1.584 1.666v.046c0 .934.69 1.666 1.572 1.666.765 0 1.37-.518 1.535-1.257h-.477c-.139.496-.534.818-1.052.818zm12.24-2.945c-.43 0-.771.175-.998.405v-.359h-.46v3.29h.46v-1.966c0-.464.333-.933.968-.933.535 0 .782.284.782.893v2.006h.462v-2c0-.862-.432-1.336-1.215-1.336zm-2.442 1.711v-.046c0-.724-.453-1.228-1.102-1.228s-1.118.52-1.118 1.233v.046c0 .711.469 1.229 1.113 1.229.652 0 1.107-.508 1.107-1.234zm.466-.046v.046c0 .953-.678 1.672-1.579 1.672-.882 0-1.573-.732-1.573-1.666v-.046c0-.95.681-1.666 1.584-1.666.91 0 1.568.699 1.568 1.66zm-6.843-1.665c-.428 0-.77.175-.996.405V8.935h-.461v4.737h.461v-1.966c0-.464.333-.933.968-.933.534 0 .782.284.782.893v2.006h.46v-2c0-.862-.43-1.336-1.214-1.336zm-5.452 1.335v2h-.46v-2.005c0-.61-.249-.893-.783-.893-.635 0-.968.47-.968.933v1.966h-.46v-3.29h.46v.359a1.386 1.386 0 01.997-.405c.783 0 1.215.474 1.215 1.335z"/></svg>