<svg xmlns="http://www.w3.org/2000/svg" role="img" viewBox="0 0 38 24" width="38" height="24" aria-labelledby="pi-tabby"><title id="pi-tabby">Tabby</title><path opacity=".07" fill="#000" d="M35 0H3C1.3 0 0 1.3 0 3v18c0 1.7 1.4 3 3 3h32c1.7 0 3-1.3 3-3V3c0-1.7-1.4-3-3-3z"/><path fill="#5AFEAE" d="M35 1c1.1 0 2 .9 2 2v18c0 1.1-.9 2-2 2H3c-1.1 0-2-.9-2-2V3c0-1.1.9-2 2-2h32"/><g fill="#292929"><path d="M29.696 9.498l-1.74 6.638v.021h1.362l1.738-6.639h-1.361zM8.208 13.267c-.21.105-.419.146-.65.146-.48 0-.753-.083-.796-.48V9.538l-1.214.147c.817-.168 1.277-.796 1.277-1.445v-.398h-1.36v1.865l-.084.02v3.435c.042.963.691 1.55 1.717 1.55.378 0 .775-.084 1.09-.23l.02-1.215z"/><path d="M8.592 9.117l-3.812.587v.963l3.812-.586v-.964zm0 1.425l-3.812.586v.92l3.812-.585v-.921zm4.272.44c-.063-1.069-.733-1.718-1.822-1.718-.629 0-1.151.25-1.508.712s-.544 1.13-.544 1.948.189 1.486.544 1.947.88.691 1.508.691c1.089 0 1.76-.628 1.822-1.716v1.612h1.362V9.39l-1.362.209v1.382zm.083.942c0 .942-.502 1.57-1.277 1.57-.796 0-1.277-.586-1.277-1.57s.481-1.571 1.277-1.571c.378 0 .712.146.943.44.209.272.334.67.334 1.13zm5.237-2.66c-1.09 0-1.76.628-1.823 1.717V7.903L15 8.113v6.345h1.361v-1.613c.063 1.089.733 1.717 1.823 1.717 1.277 0 2.051-.984 2.051-2.638s-.774-2.66-2.051-2.66zm-.608 4.23c-.775 0-1.277-.607-1.277-1.57 0-.461.125-.859.334-1.13.231-.295.545-.441.943-.441.796 0 1.277.586 1.277 1.57s-.48 1.571-1.277 1.571zm6.345-4.23c-1.088 0-1.76.628-1.821 1.717V7.903l-1.362.21v6.345H22.1v-1.613c.062 1.089.733 1.717 1.821 1.717 1.278 0 2.053-.984 2.053-2.638s-.775-2.66-2.052-2.66zm-.607 4.23c-.775 0-1.278-.607-1.278-1.57 0-.461.126-.859.335-1.13.232-.295.545-.441.943-.441.796 0 1.278.586 1.278 1.57s-.482 1.571-1.278 1.571zm2.66-4.125h1.444l1.174 5.089h-1.3l-1.32-5.089zm6.367.524v-.4h-.169V9.41h.44v.084h-.168v.398h-.103zm.292 0V9.39h.168l.084.23c.02.063.042.084.042.104 0-.02.02-.04.041-.104l.084-.23h.168v.502h-.105v-.398l-.146.398h-.106l-.125-.398v.398h-.105z"/></g></svg>