<svg xmlns="http://www.w3.org/2000/svg" role="img" viewBox="0 0 38 24" width="38" height="24" aria-labelledby="pi-tabit" fill="none"><title id="pi-tabit">Tabit</title><g clip-path="url(#pi-207_46)"><path opacity=".07" d="M35 0H3C1.3 0 0 1.3 0 3v18c0 1.7 1.4 3 3 3h32c1.7 0 3-1.3 3-3V3c0-1.7-1.4-3-3-3z" fill="#000"/><path d="M35 1c1.1 0 2 .9 2 2v18c0 1.1-.9 2-2 2H3c-1.1 0-2-.9-2-2V3c0-1.1.9-2 2-2h32z" fill="#fff"/><g clip-path="url(#pi-207_45)"><path d="M8.647 15.046c-.289.05-.582.08-.877.088-.48 0-.75-.164-.75-.543v-2.554l-1.862-.652h3.564v-1.25H7.024V8.39H5.138v1.744H3.936v1.252h1.202v3.325c0 1.38 1.132 1.84 2.151 1.84.368 0 1.231-.051 1.5-.24l-.142-1.265zm7.786.057v-3.3c0-1.39-1.598-1.87-3.183-1.87a8.52 8.52 0 00-3.226.657l.58 1.251c.514-.24 1.613-.581 2.49-.581.835 0 1.458.29 1.458.935v.62c-.515-.354-1.246-.506-1.981-.506-1.93 0-3.028.898-3.028 2.049 0 1.2 1.06 2.098 2.73 2.098 1.203 0 1.812-.417 2.316-.86.038.24.095.476.17.709h1.872a3.583 3.583 0 01-.198-1.202m-1.885-.569a2.957 2.957 0 01-1.868.683c-.792 0-1.26-.345-1.26-.86 0-.467.411-.86 1.529-.86.707 0 1.302.216 1.599.443v.595zm7.292-4.602c-.68 0-1.387.316-1.953.822V7.46h-1.896v7.093a7.581 7.581 0 01-.155 1.757h1.782a6.49 6.49 0 00.085-.733c.425.43 1.175.91 2.137.91 1.84 0 3.353-1.302 3.353-3.287 0-1.985-1.528-3.262-3.353-3.262m-.283 5.133c-.82 0-1.43-.46-1.672-.682v-2.332c.495-.43 1.103-.695 1.672-.695.9 0 1.599.708 1.599 1.833 0 1.126-.708 1.872-1.6 1.872" fill="#13436D"/><path d="M27.274 7.345c-.643 0-1.117.417-1.117.92 0 .502.48.897 1.117.897s1.132-.405 1.132-.898-.495-.92-1.132-.92zm.949 2.789H26.34v6.17h1.881v-6.17zm4.163-.001V8.39h-1.882v1.744h-1.202v1.252h4.782v-1.252h-1.698z" fill="#4AB5D8"/><path d="M34.155 16.303c-.269.19-1.132.24-1.5.24-1.019 0-2.15-.46-2.15-1.833v-3.325l1.881.656v2.545c0 .38.27.544.75.544.295-.01.588-.039.877-.089l.142 1.262zm-.709-7.869v.057h.122v.243h.074v-.243h.12v-.057h-.316zm.648 0l-.109.165-.11-.165h-.071v.3h.072V8.56h.002l.094.14h.02l.095-.14h.002v.174h.075v-.3h-.07z" fill="#4AB5D8"/></g></g><defs><clipPath id="pi-207_46"><path fill="#fff" d="M0 0h38v24H0z"/></clipPath><clipPath id="pi-207_45"><path fill="#fff" transform="translate(4 7)" d="M0 0h31v10H0z"/></clipPath></defs></svg>