<svg xmlns="http://www.w3.org/2000/svg" width="38" height="24" viewBox="0 0 38 24" fill="none" role="img" aria-labelledby="pi-tafi"><title id="pi-tafi">Tafi</title><g fill="none" fill-rule="nonzero"><rect width="38" height="24" rx="2.5" fill="#000" fill-opacity=".07"/><rect x="1" y="1" width="36" height="22" rx="1.5" fill="#fff"/><path fill="#FF80B2" d="M10.9 17.72l-.41-1.49a.504.504 0 00-.61-.35c-.22.06-.49.1-.7.1-.52 0-.79-.32-.79-.96v-3.05h1.69c.27 0 .5-.22.5-.5V10c0-.27-.22-.5-.5-.5H8.4V7.7a.57.57 0 00-.63-.56l-.63.07c-.93.1-1.63.88-1.63 1.82v.46H4.48c-.27 0-.5.22-.5.5v1.47c0 .27.22.5.5.5h1.03v3.05c0 1.28.32 2.23.95 2.83.53.51 1.29.77 2.25.77h.27c.61-.03 1.07-.12 1.58-.29.25-.09.39-.35.32-.6zm9.57-8.27h-1.04c-.52 0-.97.3-1.16.75-.53-.59-1.43-.95-2.46-.95-1.34-.02-2.54.43-3.39 1.26-.85.84-1.31 2.02-1.31 3.41s.44 2.59 1.29 3.43c.82.82 1.96 1.25 3.3 1.25h.04c.86-.02 1.92-.35 2.56-1.04.21.56.72 1.05 1.31 1.05h.86c.27 0 .5-.22.5-.5V9.94c0-.27-.22-.5-.5-.5zm-2.31 4.57c0 .98-.78 1.99-2.09 1.99-1.24 0-2.07-.83-2.07-2.07s.83-2.09 2.07-2.09c1.04 0 2.09.67 2.09 2.18z"/><path fill="#020202" d="M31.71 7.11l.63 1.27 1.4.2c.25.04.36.35.17.53l-1.01.99.24 1.39c.04.25-.22.45-.45.33l-1.25-.66-1.25.66a.31.31 0 01-.45-.33l.24-1.39-1.01-.99a.313.313 0 01.17-.53l1.4-.2.63-1.27c.11-.23.44-.23.56 0z"/><path fill="#FF80B2" d="M32.65 12.49l-1.09-.57a.319.319 0 00-.27 0l-1.07.56h-.02a.42.42 0 00-.21.36v5.27c0 .28.22.51.5.51h1.88c.27 0 .5-.23.5-.51v-5.27c0-.15-.08-.28-.21-.35zm-3.52-6.36c-.74-.43-1.41-.61-2.23-.61-.96 0-1.84.3-2.49.84-.77.65-1.18 1.62-1.18 2.81v.32h-1.02c-.27 0-.5.22-.5.5v1.48c0 .27.22.5.5.5h1.02v6.16c0 .27.22.5.5.5h.64c.96 0 1.74-.78 1.74-1.74v-4.91H28c.27 0 .5-.22.5-.5V10c0-.27-.22-.5-.5-.5h-1.89v-.32c0-.94.59-1.14 1.08-1.14.3 0 .61.07.9.19.24.11.53 0 .65-.24l.59-1.21c.11-.23.03-.52-.2-.65z"/></g></svg>