<svg xmlns="http://www.w3.org/2000/svg" role="img" viewBox="0 0 38 24" width="38" height="24" fill="none" aria-labelledby="pi-taly"><title id="pi-taly">Taly</title><g clip-path="url(#pi-a)"><path fill="#000" d="M35 0H3C1.3 0 0 1.3 0 3v18c0 1.7 1.4 3 3 3h32c1.7 0 3-1.3 3-3V3c0-1.7-1.4-3-3-3Z" opacity=".07"/><path fill="#131D2B" d="M35 1c1.1 0 2 .9 2 2v18c0 1.1-.9 2-2 2H3c-1.1 0-2-.9-2-2V3c0-1.1.9-2 2-2h32Z"/><path fill="#0E6FF7" d="M4.885 15.415v-6.15a1.466 1.466 0 0 1 .727-1.266l3.969-2.312a1.463 1.463 0 0 1 2.204 1.265v.032L7.919 9.232a1.46 1.46 0 0 0-.724 1.262v6.115l-.117.068a1.46 1.46 0 0 1-2.193-1.262Z"/><path fill="#CAD1DB" d="M7.848 9.278c-.298.201-.515.502-.61.848a1.71 1.71 0 0 0-.045.369v6.124l-.114.069a1.46 1.46 0 0 1-2.194-1.264v-2.65c0-1.953 2.494-3.193 2.963-3.496Z"/><path fill="#fff" d="M18.094 15.572a5.484 5.484 0 0 1-1.226.105c-.4-.013-.758-.09-1.073-.233a1.462 1.462 0 0 1-.71-.675 1.973 1.973 0 0 1-.234-.833 34.12 34.12 0 0 1-.012-.969V7.114h1.287v5.792c0 .266.002.497.006.693.009.196.051.361.13.496.146.254.38.399.698.435.323.033.7.019 1.134-.042v1.084Zm-4.524-5.59V8.954h4.524v1.03H13.57ZM20.5 15.756c-.49 0-.9-.09-1.231-.27a1.92 1.92 0 0 1-.754-.723 2.015 2.015 0 0 1-.252-.993c0-.335.06-.629.178-.882a1.7 1.7 0 0 1 .527-.644 2.82 2.82 0 0 1 .858-.435 9.396 9.396 0 0 1 1-.227c.371-.065.761-.126 1.17-.184a449.2 449.2 0 0 0 1.226-.171l-.466.257c.008-.519-.102-.903-.33-1.152-.226-.253-.614-.38-1.165-.38-.348 0-.666.082-.956.245-.29.16-.493.425-.607.797l-1.195-.368c.163-.568.474-1.02.931-1.354.462-.335 1.075-.503 1.839-.503.592 0 1.107.102 1.544.307.442.2.764.518.969.956.106.216.171.445.196.686.024.241.037.5.037.778v4.076h-1.134V14.06l.22.196c-.273.506-.623.884-1.048 1.133-.42.246-.94.368-1.556.368Zm.227-1.048c.364 0 .677-.063.938-.19.262-.13.472-.296.631-.496.16-.2.264-.409.313-.626.07-.196.108-.416.116-.661.013-.245.019-.442.019-.589l.417.153c-.405.062-.773.117-1.104.166-.33.049-.63.098-.9.147-.266.045-.503.1-.712.165a2.403 2.403 0 0 0-.471.221c-.135.086-.244.19-.325.313a.82.82 0 0 0-.117.447c0 .172.043.331.129.478a.903.903 0 0 0 .392.343c.176.086.4.13.674.13ZM24.875 15.572V7.115h1.28v8.457h-1.28ZM28.243 18.514l1.28-3.487.019 1.03-2.887-7.104h1.336l2.158 5.486h-.393l2.06-5.486h1.3l-3.654 9.561h-1.22Z"/></g><defs><clipPath id="pi-a"><rect width="38" height="24" fill="#fff" rx="2"/></clipPath></defs></svg>