<svg xmlns="http://www.w3.org/2000/svg" width="38" height="24" fill="none" aria-labelledby="pi-tamara" viewBox="0 0 38 24" role="img"><title id="pi-tamara">Tamara</title><path fill="#000" d="M35 0H3C1.3 0 0 1.3 0 3v18c0 1.7 1.4 3 3 3h32c1.7 0 3-1.3 3-3V3c0-1.7-1.4-3-3-3Z" opacity=".07"/><path fill="#000" d="M35 1c1.1 0 2 .9 2 2v18c0 1.1-.9 2-2 2H3c-1.1 0-2-.9-2-2V3c0-1.1.9-2 2-2h32Z"/><path fill="#fff" d="M8.242 8.91a5.389 5.389 0 0 0-1.127 1.77l7.805 6.473a5.72 5.72 0 0 0 1.053-.84l.154-.162c2.963-3.087 1.017-6.437-.16-7.563a5.343 5.343 0 0 0-7.564.16l-.154.161h-.007ZM24.357 17.9a5.406 5.406 0 1 0 0-10.812 5.406 5.406 0 0 0 0 10.811Z"/></svg>