<svg xmlns="http://www.w3.org/2000/svg" role="img" viewBox="0 0 38 24" width="38" height="24" fill="none" aria-labelledby="pi-tandympayment"><title id="pi-tandympayment">Tandym Payment</title><path opacity=".07" d="M35 0H3C1.3 0 0 1.3 0 3v18c0 1.7 1.4 3 3 3h32c1.7 0 3-1.3 3-3V3c0-1.7-1.4-3-3-3z" fill="#000"/><path d="M35 1c1.1 0 2 .9 2 2v18c0 1.1-.9 2-2 2H3c-1.1 0-2-.9-2-2V3c0-1.1.9-2 2-2h32z" fill="#fff"/><path fill-rule="evenodd" clip-rule="evenodd" d="M13.26 7.853v5.29l8.096 4.675v-.943l1.26.727v1.567c0 .459-.323.645-.72.415l-9.176-5.298c-.398-.23-.72-.787-.72-1.246V6.503c0-.46.322-.645.72-.416l9.176 5.298c.397.23.72.788.72 1.247v1.374l-1.26-.727v-.75L13.26 7.852z" fill="#17413A"/><path fill-rule="evenodd" clip-rule="evenodd" d="M15.044 4.831c0-.459.322-.645.72-.415l9.176 5.298c.397.23.72.787.72 1.246v6.537c0 .46-.322.645-.72.416l-9.176-5.298c-.397-.23-.72-.788-.72-1.247V9.831l1.26.727v.914l8.096 4.675v-5.29l-8.096-4.675v1.004l-1.26-.728V4.831z" fill="#17413A"/></svg>
