<svg width="38" height="24" role="img" viewBox="0 0 38 24" fill="none" xmlns="http://www.w3.org/2000/svg" aria-labelledby="pi-tappay"><title id="pi-tappay">TapPay</title><path opacity=".07" d="M35 0H3C1.3 0 0 1.3 0 3v18c0 1.7 1.4 3 3 3h32c1.7 0 3-1.3 3-3V3c0-1.7-1.4-3-3-3z" fill="#000"/><path d="M35 1c1.1 0 2 .9 2 2v18c0 1.1-.9 2-2 2H3c-1.1 0-2-.9-2-2V3c0-1.1.9-2 2-2h32z" fill="#fff"/><path d="M13.004 6v11.993h11.995V6H13.004zM22 14.994h-5.996V8.999H22v5.995z" fill="#75C8D1"/><path d="M16 14.994V8.999h6L25 6H13v11.993l3-3z" fill="#F5A83B"/></svg>