<svg xmlns="http://www.w3.org/2000/svg" role="img" viewBox="0 0 38 24" width="38" height="24" aria-labelledby="pi-tasacero"><title id="pi-tasacero">Tasa Cero</title><g clip-path="url(#pi-tasacero-a)"><path opacity=".07" d="M35 0H3C1.3 0 0 1.3 0 3v18c0 1.7 1.4 3 3 3h32c1.7 0 3-1.3 3-3V3c0-1.7-1.4-3-3-3Z" fill="#000"/><path d="M35 1c1.1 0 2 .9 2 2v18c0 1.1-.9 2-2 2H3c-1.1 0-2-.9-2-2V3c0-1.1.9-2 2-2h32Z" fill="#fff"/><path fill-rule="evenodd" clip-rule="evenodd" d="M35.82 9.22H2.18v5.778h33.64V9.22ZM2.345 14.834v-5.45h22.227v5.45H2.345Z" fill="#EE363D"/><path d="M30.939 11.675v-.007c.181-.077.304-.234.304-.49 0-.36-.248-.588-.745-.588h-.928v2.289h.942c.573 0 .815-.255.815-.665 0-.29-.132-.469-.388-.539Zm-.875-.651h.416c.192 0 .273.067.273.249 0 .178-.08.252-.262.252h-.431v-.501h.004Zm.454 1.435h-.451v-.556h.441c.22 0 .308.08.308.269-.003.217-.096.287-.298.287Zm2.212-1.869h-.612l-.791 2.289h.542l.13-.448h.826l.13.448h.57l-.795-2.289Zm-.605 1.414.227-.78.064-.242h.01l.06.242.22.78h-.581Zm2.436.452c-.416 0-.563-.162-.563-.732 0-.543.143-.707.556-.707.171 0 .371.032.49.077v-.444a1.54 1.54 0 0 0-.521-.095c-.732 0-1.065.406-1.065 1.165 0 .816.34 1.197 1.03 1.197.199 0 .42-.052.566-.126v-.44a1.329 1.329 0 0 1-.493.104v.001Zm.21.93c0-.146.038-.192.15-.192.046 0 .102.007.133.021v-.119a.415.415 0 0 0-.14-.024c-.196 0-.287.108-.287.315 0 .22.091.322.28.322a.37.37 0 0 0 .155-.035v-.12a.392.392 0 0 1-.133.028c-.116.004-.158-.038-.158-.196Zm-5.075 0c0-.146.038-.192.15-.192.046 0 .102.007.134.021v-.119a.415.415 0 0 0-.14-.024c-.197 0-.288.108-.288.315 0 .22.091.322.28.322a.37.37 0 0 0 .154-.035v-.12a.392.392 0 0 1-.133.028c-.115.004-.157-.038-.157-.196Zm.766.057c.067-.021.105-.081.105-.168 0-.133-.076-.193-.23-.193h-.228v.616h.14v-.231h.088l.108.231h.161l-.144-.255Zm-.125-.077h-.084v-.168h.087c.06 0 .084.02.084.08-.003.07-.028.088-.087.088Zm.507.073h.227v-.112h-.227v-.123h.27l-.004-.122h-.406v.616h.42l.004-.119h-.284v-.14Zm.63-.357h-.231v.616h.231c.182 0 .276-.088.276-.312 0-.21-.08-.304-.276-.304Zm0 .493h-.091v-.367h.091c.098 0 .133.035.133.182-.003.157-.038.185-.133.185Zm.637-.5c-.192 0-.273.098-.273.319 0 .22.08.318.273.318s.27-.095.27-.319c0-.22-.078-.318-.27-.318Zm0 .511c-.094 0-.126-.039-.126-.196 0-.158.032-.193.126-.193.095 0 .126.039.126.193 0 .157-.032.196-.126.196Zm.717-.143-.024.063-.025-.063-.143-.361h-.15v.616h.122v-.312l-.003-.066h.003l.021.063.126.315h.094l.127-.319.02-.063.004.004v.378h.126v-.616h-.154l-.144.361Zm.76-.361h-.165l-.213.616h.147l.035-.119h.224l.035.119h.154l-.217-.616Zm-.161.381.063-.21.017-.066h.004l.017.067.06.21-.161-.001Zm.364-.381-.003.126h.164v.49h.14v-.49h.165l-.004-.126h-.462Zm.57.616h.144v-.616h-.144v.616Zm-6.919-2.611 1.229.983-.33.809h-.899v-1.792Zm-.165-.581-2.128.574v.959l2.128-.913v-.62Zm0 .794-2.128.917v1.064l2.128-1.298V11.3Zm-.577 2.398h1.396v-.655h-.713l-.683.655Zm.577-1.523-2.128 1.299v.224h1.316l.813-.78v-.742l-.001-.001Z" fill="#fff"/><path d="M13.568 11.874c0-.976.688-1.648 1.603-1.648.384 0 .725.093.98.29.256.199.42.497.459.895l.005.058h-.828l-.007-.046c-.025-.179-.087-.31-.183-.397-.096-.086-.232-.135-.419-.135a.67.67 0 0 0-.548.254c-.13.165-.208.41-.208.726v.035c0 .316.073.559.202.721.127.16.314.248.557.248.161.008.32-.04.45-.136a.62.62 0 0 0 .216-.417l.006-.045h.8l-.005.058c-.04.399-.204.706-.461.912-.257.206-.601.308-.995.308-.524 0-.932-.161-1.209-.452-.276-.29-.415-.703-.415-1.194v-.035ZM5.58 10.275H3.074v.655h.843v2.572h.82V10.93h.843v-.655Z" fill="#EE363D"/><path fill-rule="evenodd" clip-rule="evenodd" d="M6.596 11.062c-.285 0-.543.061-.737.197h-.001a.806.806 0 0 0-.34.633l-.004.056h.702l.005-.046a.31.31 0 0 1 .093-.201c.051-.045.128-.075.243-.075.135 0 .209.035.252.089.046.058.067.147.067.278v.039H6.67c-.354 0-.663.051-.883.174a.662.662 0 0 0-.36.613c0 .254.093.442.247.562.166.12.368.18.572.17.298 0 .497-.094.637-.231v.186h.721v-1.544c0-.322-.103-.551-.288-.697-.181-.145-.434-.203-.72-.203Zm-.441 1.719a.234.234 0 0 1 .032-.126.22.22 0 0 1 .092-.08c.088-.043.222-.063.405-.063h.192v.14a.318.318 0 0 1-.123.258.5.5 0 0 1-.318.095c-.108 0-.176-.026-.218-.064-.04-.036-.062-.089-.062-.16ZM10.52 11.259c.194-.136.453-.197.738-.197.286 0 .539.058.72.203.185.146.288.375.288.697v1.544h-.721v-.186c-.14.137-.339.231-.637.231-.217.002-.422-.05-.573-.17-.154-.121-.246-.308-.246-.562 0-.286.134-.487.36-.613.22-.123.529-.174.883-.174h.206v-.039c0-.131-.021-.22-.067-.278-.043-.054-.117-.089-.252-.089-.115 0-.192.03-.243.075a.31.31 0 0 0-.093.201l-.005.046h-.702l.004-.056a.807.807 0 0 1 .34-.633Zm.325 1.396a.233.233 0 0 0-.031.126c0 .071.021.124.062.16.041.038.11.064.218.064a.5.5 0 0 0 .319-.095.318.318 0 0 0 .121-.258v-.14h-.192c-.182 0-.317.02-.405.063a.22.22 0 0 0-.092.08ZM18.031 11.062c-.345 0-.653.122-.875.34-.222.218-.354.53-.354.903v.035c0 .377.129.682.353.892.223.211.536.323.893.323.319 0 .585-.07.782-.21a.87.87 0 0 0 .362-.606l.009-.06h-.706l-.009.042a.307.307 0 0 1-.121.2.51.51 0 0 1-.303.077.483.483 0 0 1-.367-.14.587.587 0 0 1-.143-.353h1.644v-.228c0-.42-.134-.725-.351-.925-.217-.2-.509-.29-.814-.29Zm.438.948h-.9a.562.562 0 0 1 .148-.285.433.433 0 0 1 .313-.12c.141 0 .245.039.317.11a.487.487 0 0 1 .122.295Z" fill="#EE363D"/><path d="M20.985 11.08v.697h-.053c-.231-.002-.402.035-.514.117-.109.079-.172.207-.172.415v1.197h-.739v-2.391h.74v.294a.778.778 0 0 1 .201-.197c.13-.086.29-.13.483-.132h.054Z" fill="#EE363D"/><path fill-rule="evenodd" clip-rule="evenodd" d="M22.371 11.062c-.355 0-.671.121-.898.337a1.215 1.215 0 0 0-.363.899v.035a1.194 1.194 0 0 0 .363.891c.226.213.54.331.89.331.331.008.653-.111.898-.334.227-.215.363-.525.363-.899v-.034c0-.371-.134-.678-.36-.893a1.277 1.277 0 0 0-.893-.333Zm-.508 1.222c0-.211.051-.37.137-.475a.455.455 0 0 1 .37-.162.45.45 0 0 1 .372.167c.086.107.136.27.136.48v.032c0 .208-.05.368-.136.475a.455.455 0 0 1-.372.165.45.45 0 0 1-.373-.166c-.085-.108-.134-.269-.134-.481v-.035Z" fill="#EE363D"/><path d="M8.228 11.216c.178-.13.416-.19.657-.19.258 0 .492.047.67.17.18.124.296.32.325.602l.007.06h-.684l-.008-.045c-.015-.088-.046-.144-.09-.18-.046-.035-.114-.056-.217-.056a.333.333 0 0 0-.206.056.16.16 0 0 0-.063.133c0 .03.006.05.015.067.01.017.026.033.054.05.06.033.161.059.326.083.287.042.52.101.682.22.167.123.251.304.251.57 0 .267-.095.476-.275.617-.178.14-.431.207-.74.207-.314-.002-.57-.074-.751-.216-.183-.145-.285-.357-.296-.625l-.003-.056h.69l.006.047c.012.1.04.167.09.21.049.045.128.073.26.073.118 0 .195-.023.241-.057.044-.032.066-.079.066-.143a.14.14 0 0 0-.019-.075.17.17 0 0 0-.063-.058 1.024 1.024 0 0 0-.335-.09c-.305-.048-.529-.118-.675-.241-.151-.127-.214-.303-.214-.542 0-.263.119-.461.299-.591Z" fill="#EE363D"/></g><defs><clipPath id="pi-tasacero-a"><path fill="#fff" d="M0 0h38v24H0z"/></clipPath></defs></svg>