<svg xmlns="http://www.w3.org/2000/svg" role="img" width="38" height="24" viewBox="0 0 38 24" aria-labelledby="pi-tbibank"><title id="pi-tbibank">tbi bank</title><path d="M35.167 1H2.833A1.838 1.838 0 001 2.836v18.328A1.84 1.84 0 002.833 23h32.334A1.84 1.84 0 0037 21.164V2.836A1.838 1.838 0 0035.167 1z" fill="#fff"/><path fill-rule="evenodd" clip-rule="evenodd" d="M12.808 10.938l.96.007-.003 3.524h-.97l.013-3.531zM8.79 9.448h.965v1.82c.07-.039.113-.09.195-.144.211-.137.41-.223.68-.25 1.122-.113 1.915.758 1.89 1.887-.018.777-.424 1.347-.932 1.605-.7.352-1.34.156-1.888-.293v.39h-.914l.004-5.015zm-2.363.57l.949.004.004.907h1.066l.004.879H7.389c-.028.187-.032 1.336 0 1.515.078.48.668.317 1.058.211v.828c-.082.117-.328.14-.48.157a1.913 1.913 0 01-.578-.012c-1.333-.258-.926-1.785-.953-2.703H5.52v-.875h.895l.012-.911zm6.657-.812c.816-.281 1.18.957.402 1.203-.82.258-1.18-.941-.402-1.203zm-10.51-.64v6.812c0 1.172.11 2.07.922 2.879.813.805 1.65.949 2.853.949h6.813c1.172 0 2.07-.11 2.88-.922a3.13 3.13 0 00.738-1.144c.149-.395.21-1.168.21-1.707V8.62c0-1.172-.112-2.066-.921-2.879-.813-.804-1.649-.949-2.852-.949H6.404c-.583 0-1.239.05-1.7.187-.44.13-.89.45-1.18.735a3.19 3.19 0 00-.742 1.144c-.144.395-.207 1.168-.207 1.707v.001z" fill="#0D0D0D"/><path fill-rule="evenodd" clip-rule="evenodd" d="M10.447 11.773c1.184-.253 1.453 1.598.371 1.852-1.18.277-1.558-1.594-.37-1.852zm-1.66 2.692h.915v-.39c.547.448 1.188.644 1.887.292.508-.258.914-.828.934-1.605.023-1.13-.77-2-1.89-1.887-.27.027-.47.113-.68.25-.083.055-.126.105-.196.145V9.45h-.965l-.005 5.015z" fill="#F60"/><path fill-rule="evenodd" clip-rule="evenodd" d="M21.833 13.887c-.453 0-.605-.004-.933-.332-.622-.614-.29-2.032.765-2.032.328 0 .64.141.805.32.406.442.418 1.223.074 1.653-.16.2-.45.39-.71.39l-.001.001zm-1.914.59h.676v-.45c.172.114.273.332.8.47.368.093.786.062 1.087-.075.59-.266 1.043-.906 1.043-1.55 0-.599-.055-1.052-.5-1.497-.504-.508-1.192-.637-1.883-.348-.274.114-.367.254-.52.356V9.438h-.703v5.039zm12.221 0c.89 0 .742.203.73-.957-.004-.282.012-.223.16-.372.086-.085.2-.187.29-.246.062.09.117.168.19.258l.602.777c.529.708.301.54 1.32.54-.041-.16-1.327-1.684-1.577-2.055l1.11-1.086a1.86 1.86 0 00.383-.379h-.477c-.23 0-.36-.035-.46.047-.09.074-.142.144-.25.23l-.763.73c-.114.114-.39.395-.528.485V9.75c.004-.383.117-.313-.73-.313v5.04zm-6.618-.536c-.29 0-.79.032-.79-.504 0-.714 1.282-.402 1.778-.734 0 .485.004.598-.223.879-.133.168-.468.36-.765.36v-.001zm-1.435-2.054c.176.015.512.187.646.199.073-.309.464-.594.847-.594.37 0 .93.074.93.508 0 .313-.4.297-.66.328-.657.086-1.849.106-1.849 1.164 0 1.102 1.31 1.242 2 .903.325-.16.38-.293.536-.395v.477h.645v-2.422c0-.98-1.488-1.672-2.673-.758-.207.156-.3.36-.422.59z" fill="#0C0C0C"/><path fill-rule="evenodd" clip-rule="evenodd" d="M6.415 10.93h-.894v.875h.914c.027.918-.38 2.445.953 2.703.183.035.39.035.578.012.152-.016.398-.04.48-.157v-.828c-.39.106-.98.27-1.058-.21-.032-.18-.028-1.329 0-1.516H8.45l-.004-.88H7.381l-.004-.906-.95-.003-.012.91z" fill="#F60"/><path fill-rule="evenodd" clip-rule="evenodd" d="M28.674 11.41v-.453h-.676v3.52c.914 0 .735.175.735-.872v-.988c-.004-.617.355-1.066.898-1.066.3 0 .492-.004.71.215.118.113.247.332.247.543v2.168h.676c.066 0 .086-.02.086-.086v-1.715c0-.992-.375-1.801-1.465-1.801-.242 0-.55.07-.711.156a1.96 1.96 0 00-.258.168c-.101.078-.148.149-.242.211z" fill="#0C0C0C"/><path fill-rule="evenodd" clip-rule="evenodd" d="M12.796 14.469h.969l.004-3.524-.961-.008-.012 3.532z" fill="#F60"/><path fill-rule="evenodd" clip-rule="evenodd" d="M10.447 11.773c-1.187.258-.808 2.13.37 1.852 1.083-.254.814-2.105-.37-1.852z" fill="#0D0D0D"/><path fill-rule="evenodd" clip-rule="evenodd" d="M13.085 9.207c-.777.262-.418 1.461.402 1.203.778-.246.414-1.484-.402-1.203z" fill="#F60"/><path fill-rule="evenodd" clip-rule="evenodd" d="M2.837 0H35.17c1.101 0 2.19.728 2.616 1.753.143.343.216.711.217 1.083v18.328c0 .372-.074.74-.217 1.083a2.75 2.75 0 01-1.532 1.537A2.826 2.826 0 0135.17 24H2.837c-1.23 0-2.159-.654-2.616-1.753a2.83 2.83 0 01-.217-1.083V2.836A2.831 2.831 0 012.837 0zm0 1H35.17c1.008 0 1.833.824 1.833 1.836v18.328A1.838 1.838 0 0135.17 23H2.837a1.839 1.839 0 01-1.833-1.836V2.836C1.004 1.824 1.828 1 2.837 1z" fill="#000" fill-opacity=".07"/></svg>