<svg role="img" xmlns="http://www.w3.org/2000/svg" viewBox="0 0 38 24" width="38" height="24" aria-labelledby="pi-tcf"><title id="pi-tcf">Telefónica Consumer Finance</title><path opacity=".07" d="M35 0H3C1.3 0 0 1.3 0 3v18c0 1.7 1.4 3 3 3h32c1.7 0 3-1.3 3-3V3c0-1.7-1.4-3-3-3z"/><path fill="#fff" d="M35 1c1.1 0 2 .9 2 2v18c0 1.1-.9 2-2 2H3c-1.1 0-2-.9-2-2V3c0-1.1.9-2 2-2h32"/><path fill="#06f" d="M5.997 14.159a.918.918 0 10-1.836 0 .918.918 0 001.836 0zm11.786.695a.605.605 0 01-.232-.241.73.73 0 01-.084-.353v-.972h.243v.972a.46.46 0 00.058.23.43.43 0 00.379.223.475.475 0 00.407-.23.42.42 0 00.063-.223v-.972h.243v1.62h-.21l-.033-.178h-.016a.647.647 0 01-.486.21.64.64 0 01-.332-.086zm-4.988-.021a.746.746 0 01-.28-.298.901.901 0 01-.103-.437c0-.164.034-.31.103-.438a.759.759 0 01.675-.405.753.753 0 01.676.405.92.92 0 01.102.438c0 .164-.034.31-.102.437a.748.748 0 01-.676.405.746.746 0 01-.395-.107zm9.412 0a.746.746 0 01-.28-.298.912.912 0 01-.102-.437.92.92 0 01.102-.438.759.759 0 011.055-.304.707.707 0 01.268.277.814.814 0 01.098.4.634.634 0 01-.017.178h-1.263a.544.544 0 00.175.365.515.515 0 00.359.137.493.493 0 00.261-.068.448.448 0 00.177-.191h.259a.722.722 0 01-.264.36.735.735 0 01-.433.126.748.748 0 01-.395-.107zm12.652 0a.753.753 0 01-.28-.298.912.912 0 01-.102-.437.92.92 0 01.102-.438.759.759 0 01.676-.405.739.739 0 01.648.378.814.814 0 01.097.4.644.644 0 01-.016.178H34.72a.549.549 0 00.175.365.52.52 0 00.36.137.498.498 0 00.261-.068.452.452 0 00.176-.191h.259a.722.722 0 01-.264.36.734.734 0 01-.432.126.75.75 0 01-.396-.107zm-18.641.038a.562.562 0 01-.227-.185.427.427 0 01-.079-.248h.243c0 .076.036.14.108.194a.487.487 0 00.297.081.506.506 0 00.286-.069c.069-.047.103-.104.103-.174a.204.204 0 00-.067-.157.429.429 0 00-.209-.086l-.275-.048c-.303-.052-.454-.203-.454-.454 0-.136.051-.248.154-.337.103-.088.251-.133.446-.133a.76.76 0 01.332.07c.096.046.17.109.222.186.051.078.077.16.077.247h-.243c0-.076-.035-.141-.107-.195a.453.453 0 00-.281-.081.431.431 0 00-.265.07.21.21 0 00-.092.173c0 .061.02.109.06.146.04.037.106.064.199.081l.276.049c.162.028.281.081.356.158a.427.427 0 01.114.311.416.416 0 01-.164.337c-.109.089-.265.133-.468.133a.797.797 0 01-.342-.069zm13.346-.072a.463.463 0 01-.158-.361c0-.162.054-.289.161-.381.107-.092.269-.137.488-.137h.437v-.049a.385.385 0 00-.104-.285.385.385 0 00-.285-.104.465.465 0 00-.283.08.273.273 0 00-.122.196h-.243a.502.502 0 01.088-.248.532.532 0 01.222-.185.775.775 0 01.338-.07c.197 0 .351.055.463.164.113.109.169.26.169.452v1.037h-.211l-.032-.195h-.016a.476.476 0 01-.19.158.676.676 0 01-.312.069.589.589 0 01-.41-.141zm-18.882-.006a1.05 1.05 0 01-.393-.413 1.24 1.24 0 01-.145-.606c0-.227.048-.429.145-.606a1.05 1.05 0 01.941-.561c.244 0 .456.068.637.204.18.137.302.322.367.558h-.275a.754.754 0 00-.279-.381.757.757 0 00-.45-.138.782.782 0 00-.417.117.823.823 0 00-.299.327c-.074.141-.11.301-.11.48s.036.339.11.479a.79.79 0 00.716.444.746.746 0 00.729-.534h.275a1.03 1.03 0 01-.367.57 1.02 1.02 0 01-.637.207c-.199 0-.381-.049-.548-.147zm22.509.04a.746.746 0 01-.28-.298.912.912 0 01-.102-.437.92.92 0 01.102-.438.759.759 0 01.675-.405c.179 0 .333.05.46.148a.695.695 0 01.253.403h-.243a.436.436 0 00-.173-.24.52.52 0 00-.297-.084.509.509 0 00-.463.293.701.701 0 00-.071.323c0 .121.023.228.071.322a.52.52 0 00.194.217.5.5 0 00.269.076.502.502 0 00.298-.087.455.455 0 00.172-.253h.243a.718.718 0 01-.253.417.722.722 0 01-.46.15.746.746 0 01-.395-.107zm-5.502.075v-1.62h.211l.032.178h.016a.642.642 0 01.486-.211c.124 0 .234.029.333.086a.605.605 0 01.231.242.728.728 0 01.084.353v.972h-.242v-.972a.46.46 0 00-.218-.394.42.42 0 00-.22-.06.463.463 0 00-.235.063.492.492 0 00-.172.167.424.424 0 00-.063.224v.972h-.243zm-8.44 0v-1.62h.211l.032.178h.016a.617.617 0 01.178-.146.486.486 0 01.243-.065c.115 0 .214.028.297.085a.463.463 0 01.173.191h.016a.6.6 0 01.213-.191.617.617 0 01.322-.085.565.565 0 01.509.305.703.703 0 01.074.327v1.021h-.243v-1.021a.417.417 0 00-.102-.293.347.347 0 00-.27-.112.39.39 0 00-.198.054.402.402 0 00-.207.351v1.021h-.243v-1.021a.417.417 0 00-.102-.293.35.35 0 00-.271-.112.393.393 0 00-.198.054.4.4 0 00-.15.147.388.388 0 00-.057.204v1.021h-.243zm6.334 0h-.259V12.64h1.426v.243h-1.167v.761h1.102v.243h-1.102v1.021zm-11.324 0v-1.62h.211l.032.178h.017a.643.643 0 01.486-.211c.123 0 .233.029.332.086a.605.605 0 01.231.242.728.728 0 01.085.353v.972h-.243v-.972a.46.46 0 00-.218-.394.42.42 0 00-.22-.06.463.463 0 00-.235.063.492.492 0 00-.172.167.424.424 0 00-.063.224v.972h-.243zm16.865 0v-1.62h.21l.033.178h.016a.65.65 0 01.486-.211.65.65 0 01.332.086.608.608 0 01.232.242.728.728 0 01.084.353v.972h-.243v-.972a.46.46 0 00-.058-.23.44.44 0 00-.614-.161.475.475 0 00-.172.167.424.424 0 00-.063.224v.972h-.243zm-7.485 0v-1.62h.211l.032.162h.016a.392.392 0 01.12-.123.369.369 0 01.188-.039h.276v.227h-.243c-.113 0-.2.03-.263.092-.063.061-.094.15-.094.264v1.037h-.243zm3.661 0h-.243v-1.62h.243v1.62zm-13.841-.271a.52.52 0 00.194-.217.697.697 0 00.072-.322.701.701 0 00-.072-.323.509.509 0 00-.732-.217.526.526 0 00-.194.217.701.701 0 00-.072.323c0 .121.024.228.072.322a.52.52 0 00.194.217.5.5 0 00.269.076.5.5 0 00.269-.076zm16.895-.058a.49.49 0 00.138-.368v-.065h-.437c-.139 0-.241.027-.307.081a.26.26 0 00-.099.211c0 .082.029.149.085.199.056.051.136.076.24.076a.519.519 0 00.38-.134zm-7.249-.595a.537.537 0 00-.154-.361.473.473 0 00-.349-.141.5.5 0 00-.362.141.573.573 0 00-.172.361h1.037zm12.652 0a.537.537 0 00-.154-.361.473.473 0 00-.348-.141.5.5 0 00-.363.141.578.578 0 00-.172.361h1.037zm-8.695-1.059a.161.161 0 01-.043-.117.16.16 0 01.043-.118.162.162 0 01.119-.044.16.16 0 01.116.044c.03.029.046.069.046.118a.159.159 0 01-.046.117.158.158 0 01-.116.045.158.158 0 01-.119-.045zM5.997 12a.918.918 0 10-1.837-.001.918.918 0 001.837.001zm9.796-.758a.771.771 0 01-.762.518c-.486 0-.843-.356-.843-.859 0-.502.357-.859.843-.859.454 0 .811.357.811.827 0 .049-.007.087-.01.117l-.006.045h-1.232c.035.23.207.389.437.389.192 0 .308-.11.341-.178h.421zm-2.544 0a.773.773 0 01-.762.518c-.486 0-.843-.356-.843-.859 0-.502.357-.859.843-.859.454 0 .81.357.81.827 0 .049-.006.087-.009.117l-.007.045h-1.232c.036.23.208.389.438.389.191 0 .308-.11.34-.178h.422zm9.82-.13c-.052.259-.256.648-.778.648-.486 0-.843-.356-.843-.859 0-.502.357-.859.843-.859.522 0 .726.389.778.632h-.405a.378.378 0 00-.373-.259c-.243 0-.438.194-.438.486s.195.487.438.487.337-.163.373-.276h.405zm-4.346-.211c0 .503-.357.859-.843.859s-.843-.356-.843-.859c0-.502.357-.859.843-.859s.843.357.843.859zm5.571.665h-.016a.472.472 0 01-.113.097.651.651 0 01-.357.097c-.376 0-.6-.23-.6-.502 0-.324.227-.551.681-.551h.373v-.033c0-.181-.11-.308-.292-.308-.181 0-.275.117-.292.211h-.405c.036-.272.256-.535.697-.535.422 0 .697.279.697.632v1.054h-.34l-.033-.162zM13.946 9.459h-.406v2.269h.406V9.459zm-3.223.405h-.68v-.405h1.783v.405h-.681v1.864h-.422V9.864zm5.492.6h-.276v-.389h.276v-.244c0-.246.158-.405.405-.405h.356v.357h-.243a.11.11 0 00-.113.113v.179h.356v.389h-.356v1.264h-.405v-1.264zm2.751-.389h.373l.032.162h.016a.59.59 0 01.111-.098.622.622 0 01.343-.097c.373 0 .649.276.649.697v.989h-.406v-.956a.34.34 0 00-.356-.357.34.34 0 00-.357.357v.956h-.405v-1.653zm2.239 0H20.8v1.653h.405v-1.653zm3.057.94h-.34c-.211 0-.308.081-.308.21 0 .13.094.211.259.211.246 0 .389-.142.389-.373v-.048zm-5.944-.114c0-.292-.195-.486-.438-.486s-.438.194-.438.486.195.487.438.487.438-.195.438-.487zm-14.48-1.06a.92.92 0 10-1.838 0 .92.92 0 001.838 0zm2.159 0A.918.918 0 104.16 9.84a.918.918 0 001.837.001zm2.16 0a.92.92 0 10-1.838 0 .92.92 0 001.838 0zm7.28.914c-.036-.21-.175-.372-.406-.372-.246 0-.389.162-.437.372h.843zm-2.545 0c-.036-.21-.175-.372-.405-.372-.247 0-.389.162-.438.372h.843zm5.134-1.377h.421l-.389.47h-.34l.308-.47zm3.216.219a.24.24 0 10-.48 0 .24.24 0 00.48 0z"/></svg>