<svg width="38" height="24" viewBox="0 0 38 24" fill="none" xmlns="http://www.w3.org/2000/svg" role="img" aria-labelledby="pi-td"><title id="pi-td">TD</title><g clip-path="url(#pi-td-clip0_10420_219279)"><path opacity=".07" d="M35 0H3C1.3 0 0 1.3 0 3v18c0 1.7 1.4 3 3 3h32c1.7 0 3-1.3 3-3V3c0-1.7-1.4-3-3-3z" fill="#000"/><path d="M35 1c1.1 0 2 .9 2 2v18c0 1.1-.9 2-2 2H3c-1.1 0-2-.9-2-2V3c0-1.1.9-2 2-2h32z" fill="#fff"/><path d="M9.487 20h19.027V4H9.487v16zm12.49-3.461h-4.433v-7.51h2.227v6.181h2.14c1.478 0 2.1-.966 2.1-3.443 0-2.496-.707-3.22-2.206-3.22h-4.882v7.992h-2.206V8.547h-3.233v-1.33h11.005c2.656 0 3.92 1.288 3.92 4.53 0 4.268-1.886 4.792-4.432 4.792z" fill="#54B848"/></g><defs><clipPath id="pi-td-clip0_10420_219279"><path fill="#fff" d="M0 0h38v24H0z"/></clipPath></defs></svg>