<svg xmlns="http://www.w3.org/2000/svg" role="img" viewBox="0 0 38 24" width="38" height="24" aria-labelledby="pi-tendopay"><title id="pi-tendopay">TendoPay</title><path fill="#000" opacity=".07" d="M35 0H3C1.3 0 0 1.3 0 3v18c0 1.7 1.4 3 3 3h32c1.7 0 3-1.3 3-3V3c0-1.7-1.4-3-3-3z"/><path fill="#fff" d="M35 1c1.1 0 2 .9 2 2v18c0 1.1-.9 2-2 2H3c-1.1 0-2-.9-2-2V3c0-1.1.9-2 2-2h32"/><g fill="#28a5f1"><path d="M2.3 14c-.005-.81-.012-1.9-.017-2.4l-.008-.9h-.32c-.18 0-.55-.004-.84-.008l-.52-.009v-1.1h4.8l-.009.27c-.004.15-.008.39-.008.55v.28l-1.6.007-.007 4.7h-.23c-.13 0-.44.004-.69.008l-.46.009z"/><path d="M6.7 15c-.25-.034-.47-.1-.7-.22-.53-.27-.92-.67-1.1-1.2-.076-.18-.097-.3-.11-.61-.034-.66.089-1.1.45-1.6.12-.16.34-.37.48-.47.23-.15.53-.27.86-.34.15-.032.19-.035.44-.035s.28.003.42.035c.079.019.18.049.23.067.19.073.5.27.63.41.19.19.41.57.51.88.083.26.091.32.098.78l.007.42h-1.4c-.76 0-1.4.004-1.4.01 0 .005.008.045.019.09.058.24.27.5.51.62.32.16.75.18 1.2.06.14-.04.34-.12.53-.21a.83.83 0 01.15-.065c.004.004.01.24.013.52l.005.51-.25.084c-.67.22-1.1.29-1.6.23zm.9-2.7c-.008-.31-.25-.62-.53-.68a1.234 1.234 0 00-.39.005.73.73 0 00-.47.34.704.704 0 00-.12.33l-.01.086.73.003c.4.002.75.004.77.003.032 0 .033-.002.03-.089zM24 12V9.1l.88-.003c1.4-.005 1.6-.001 1.9.055.28.055.52.15.76.31.34.22.48.38.64.69.14.28.18.48.19.87l.006.29-.04.15c-.098.37-.29.72-.52.93-.18.17-.46.34-.69.42-.28.093-.5.12-1.2.12l-.56.006v2h-1.3zm2.2-.21c.23-.039.35-.079.43-.14a.848.848 0 00.23-.29c.12-.24.13-.55.008-.81-.09-.2-.44-.38-.82-.43a2.872 2.872 0 00-.69.019l-.028.006.007.82c.004.45.009.82.01.83a.91.91 0 00.1.016c.15.017.61.006.75-.018zM30 15a.966.966 0 01-.34-.11c-.31-.15-.55-.46-.64-.8-.12-.47.008-.93.36-1.3.25-.24.57-.4.98-.5.27-.064.39-.078.77-.085l.35-.006.007-.03a.72.72 0 00-.046-.27c-.059-.13-.27-.27-.48-.32a1.833 1.833 0 00-.59.02c-.23.05-.55.16-.9.32l-.14.064v-1l.073-.033c.11-.05.59-.2.74-.24.41-.095.85-.12 1.2-.057.67.11 1.1.5 1.3 1.1l.04.12v3.1h-1.2l.008-.13c.007-.094.005-.13-.006-.13-.008 0-.079.029-.16.065-.38.17-.44.19-.66.23-.14.024-.54.035-.68.018zm1-1c.044-.014.15-.065.23-.12.084-.05.17-.1.2-.11l.048-.024v-.38c0-.21-.005-.38-.01-.39a1.698 1.698 0 00-.17-.022 1.745 1.745 0 00-.54.034c-.19.051-.38.18-.45.31a.701.701 0 00-.042.35c.036.19.21.33.46.37.056.01.19-.005.27-.03zM34 17c.003-.005.19-.47.41-1l.41-1-.78-2c-.43-1.1-.78-2-.79-2-.006-.021.032-.022.67-.022h.67l.014.041c.008.023.2.57.44 1.2.29.82.42 1.2.43 1.2.006-.01.21-.55.45-1.2l.44-1.2 1.3-.007-.098.25c-.054.14-.59 1.5-1.2 3.1l-1.1 2.8h-.66c-.36 0-.65-.004-.65-.009zM21 15a2.36 2.36 0 01-2-1.6c-.17-.55-.12-1.1.14-1.6.099-.2.21-.36.39-.54.26-.27.57-.46.92-.58.84-.27 1.7-.06 2.3.57.32.32.52.72.6 1.2.037.21.037.53 0 .74-.15.81-.72 1.5-1.5 1.7-.29.094-.65.14-.93.11zm.49-1.1c.29-.098.54-.39.63-.75.039-.15.048-.41.021-.57-.14-.81-.95-1.2-1.5-.64-.35.35-.45.95-.22 1.4.027.057.066.13.088.16.14.2.35.35.55.39.093.02.31.006.41-.027zM16 15c-.23-.036-.53-.19-.79-.39-.43-.33-.61-.65-.74-1.3-.082-.39-.079-.69.009-1.1.13-.64.5-1.1 1.1-1.4.25-.13.41-.17.81-.17.25 0 .29.004.38.028.13.035.3.1.41.16.16.09.19.11.22.11.019 0 .022-.026.03-.22.005-.12.008-.59.008-1v-.82h1.3v6.1h-1.3l-.003-.092c-.004-.088-.006-.092-.036-.096a.193.193 0 00-.09.029c-.17.098-.43.19-.64.24-.14.029-.5.042-.61.024zm.91-1.1a.89.89 0 00.4-.23l.074-.068v-1.5l-.048-.045c-.12-.11-.29-.21-.41-.25a1.134 1.134 0 00-.44 0c-.31.08-.56.32-.65.63-.028.088-.041.54-.021.7.017.14.071.28.15.4.14.21.24.29.44.34.12.031.4.034.51.006zM9.5 13v-2.1h1.3l-.007.16a.678.678 0 00.002.16c.005-.002.11-.053.22-.11.24-.12.39-.18.59-.23.12-.03.15-.033.38-.033.35 0 .47.027.77.18.14.07.17.091.28.2.07.07.15.16.18.2.07.095.18.31.24.46l.046.12v3.1h-1.3l-.009-2.7-.056-.11c-.096-.19-.21-.29-.42-.33a.977.977 0 00-.44.028.864.864 0 00-.34.19l-.1.084v2.9h-1.3z"/></g></svg>