<svg width="38" height="24" viewBox="0 0 38 24" fill="none" role="img" xmlns="http://www.w3.org/2000/svg" aria-labelledby="pi-tensile"><title id="pi-tensile">Tensile</title><path fill="#000" opacity=".07" d="M35 0H3C1.3 0 0 1.3 0 3v18c0 1.7 1.4 3 3 3h32c1.7 0 3-1.3 3-3V3c0-1.7-1.4-3-3-3z"/><path fill="#fff" d="M35 1c1.1 0 2 .9 2 2v18c0 1.1-.9 2-2 2H3c-1.1 0-2-.9-2-2V3c0-1.1.9-2 2-2h32"/><path d="M31 9.281C31 4.312 26.792 3 24.563 3H13.437C8.345 3 7 7.106 7 9.281v.863h5.553V21h6.437c.058 0 1.615 0 3.17-.769 1.365-.675 2.96-2.025 3.23-4.744C27.156 15.245 31 14.12 31 9.282z" fill="#131515"/><path d="M14.321 10.144v5.493c1.134-1.068 2.594-1.575 3.805-1.725v-3.768H14.32z" fill="#F9F8F7"/><path d="M19.01 15.581s-1.25.019-2.44.619c-1.25.619-1.98 1.669-2.191 3.094h4.611s1.25-.02 2.44-.62c1.25-.618 1.98-1.668 2.191-3.093H19.01z" fill="#85FFA7"/><path d="M19.01 8.419s1.249-.02 2.44-.62c1.249-.618 1.98-1.668 2.19-3.093H13.457c-1.921 0-3.285.731-4.054 2.194a5.242 5.242 0 00-.519 1.519H19.01z" fill="#FFB342"/><path d="M27.003 5.325A6.722 6.722 0 0025.39 4.8c-.307 2.606-1.883 3.919-3.209 4.575-.845.412-1.69.6-2.286.694v3.787h4.688s1.25-.019 2.44-.619c1.5-.75 2.249-2.08 2.249-3.956 0-1.875-.788-3.206-2.268-3.956z" fill="#0D99FF"/></svg>