<svg xmlns="http://www.w3.org/2000/svg" role="img" viewBox="0 0 38 24" width="38" height="24" aria-labelledby="pi-thanachartbank"><title id="pi-thanachartbank">Thanachart Bank</title><g clip-path="url(#pi-thanachartbank-a)"><path fill="#000" d="M35 0H3C1.3 0 0 1.3 0 3v18c0 1.7 1.4 3 3 3h32c1.7 0 3-1.3 3-3V3c0-1.7-1.4-3-3-3Z" opacity=".07"/><path fill="#fff" d="M35 1c1.1 0 2 .9 2 2v18c0 1.1-.9 2-2 2H3c-1.1 0-2-.9-2-2V3c0-1.1.9-2 2-2h32Z"/><path fill="#F37021" d="M5.05 10.06C6.063 7.5 9.158 7 11.04 7h8.388c-.916 2.31-3.53 2.948-5.414 3.05-.146.01-.577.016-.577.016l-8.388-.006Z"/><path fill="#231F20" d="M4.06 15.66c-.47-1.59 1.882-3.64 5.254-4.578.66-.186 1.334-.318 2.016-.396a3.405 3.405 0 0 0-2.152 1.71 27.81 27.81 0 0 1-1.403 2.483c-.66.916-1.156.898-1.156.898 3.043.29 4.728-.938 5.343-2.105a29.64 29.64 0 0 1 1.056-2.01c.177-.39.468-.72.836-.943 1.273.21 2.179.742 2.416 1.543.47 1.59-1.883 3.64-5.254 4.578-3.372.939-6.486.41-6.956-1.18Z"/><path fill="#F37021" d="M19.052 14.89v-.326h1.74v.326h-.637v1.704h-.467V14.89h-.636Zm2.271.652v1.052h-.419v-2.028h.419v.725a.886.886 0 0 1 .505-.185.454.454 0 0 1 .519.49v1h-.418v-.95c0-.196-.074-.258-.216-.258a.577.577 0 0 0-.39.154Z"/><path fill="#F37021" fill-rule="evenodd" d="M23.91 16.595a.55.55 0 0 1-.033-.21v-.689c0-.438-.203-.581-.674-.59a.846.846 0 0 0-.654.267l.27.171a.472.472 0 0 1 .384-.18c.148 0 .256.062.256.175v.123c-.681.068-1.005.242-1.005.573 0 .2.159.388.476.388.192 0 .381-.053.546-.154l.026.126h.408Zm-.451-.385a.787.787 0 0 1-.384.154c-.118 0-.203-.061-.203-.171 0-.204.304-.252.582-.297h.005v.314Z" clip-rule="evenodd"/><path fill="#F37021" d="M24.544 15.541v1.053h-.418v-1.46h.385v.158c.16-.11.346-.173.54-.186a.456.456 0 0 1 .519.489v1h-.42v-.95c0-.196-.074-.258-.215-.258a.578.578 0 0 0-.391.154Z"/><path fill="#F37021" fill-rule="evenodd" d="M27.131 16.595a.545.545 0 0 1-.033-.21v-.689c0-.438-.203-.581-.674-.59a.845.845 0 0 0-.654.267l.27.171a.472.472 0 0 1 .384-.18c.148 0 .256.062.256.175v.123c-.681.068-1.005.242-1.005.573 0 .2.159.388.476.388.192 0 .381-.053.546-.154l.026.126h.408Zm-.451-.385a.787.787 0 0 1-.384.154c-.118 0-.203-.061-.203-.171 0-.204.304-.252.582-.297h.005v.314Z" clip-rule="evenodd"/><path fill="#F37021" d="M28.393 15.201a.77.77 0 0 1 .272.295l-.345.113a.347.347 0 0 0-.345-.222c-.234 0-.345.151-.345.477 0 .326.111.478.358.478a.426.426 0 0 0 .37-.233l.317.148a.742.742 0 0 1-.7.365.77.77 0 1 1 .418-1.421Zm.889 1.394v-1.052a.577.577 0 0 1 .39-.155c.142 0 .216.062.216.258v.95h.418v-1a.455.455 0 0 0-.519-.489.886.886 0 0 0-.506.186v-.725h-.418v2.028l.419-.002Z"/><path fill="#F37021" fill-rule="evenodd" d="M31.835 16.384a.547.547 0 0 0 .034.21l-.408.001-.027-.126a1.033 1.033 0 0 1-.546.154c-.317 0-.475-.188-.475-.388 0-.331.323-.505 1.004-.573v-.123c0-.113-.108-.174-.256-.174a.474.474 0 0 0-.384.18l-.27-.172a.846.846 0 0 1 .654-.266c.472.008.674.151.674.59v.687Zm-.802-.02a.787.787 0 0 0 .384-.154v-.315l-.004.001c-.279.045-.582.093-.582.297 0 .11.084.171.202.171Z" clip-rule="evenodd"/><path fill="#F37021" d="M32.476 16.594v-.887a.495.495 0 0 1 .464-.234v-.367a.524.524 0 0 0-.492.278h-.007v-.25h-.384v1.46h.419Zm.52-1.179v-.281h.242v-.483h.418v.483H34v.28h-.344v.826c0 .078.047.101.152.101a1.11 1.11 0 0 0 .192-.028v.286a3.05 3.05 0 0 1-.33.023c-.31 0-.432-.13-.432-.337v-.87h-.242Z"/><path fill="#231F20" d="M21.275 12.664c0 .29-.28.376-.619.376h-.717v-.822h-.796l-.002 1.388h1.877c.533 0 1.051-.312 1.051-.848 0-.637-.22-.851-.83-1.03a5.546 5.546 0 0 0-.492-.109c-.414-.08-.837-.16-.801-.333l.006-.032c.023-.125.028-.15.49-.211.51-.012 1.019.008 1.525.057v-.549c-.08 0-.172-.01-.293-.022-.23-.025-.56-.06-1.096-.06-.99 0-1.457.21-1.483.805-.01.392.38.602.729.712.145.045.31.08.476.116.485.104.975.21.975.562Zm3.24.476c-.152.321-.718.506-1.073.506-.854 0-1.191-.537-1.191-1.244v-1.851h.802v1.866c0 .391.136.646.617.646a.781.781 0 0 0 .845-.807v-1.705h.778v3.057h-.778v-.469Zm3.879-2.017a.996.996 0 0 0 .212-.573h-.83v.054c0 .415-.397.73-.786.876a.896.896 0 0 1 .812.914c0 .393-.152.714-.667.714-.44 0-.634-.17-.634-.56V10.55h-.785v1.921c0 .853.548 1.175 1.445 1.175.887 0 1.445-.369 1.445-1.183a.947.947 0 0 0-.719-.998.997.997 0 0 0 .507-.342Zm1.361.372c0-.433-.39-.412-.758-.392a4.217 4.217 0 0 1-.222.008v-.56h.676c.591 0 1.09.168 1.09.775v2.282h-.786v-2.113Zm4.14 2.113h-.778v-2.504a.84.84 0 0 1-.591.315.772.772 0 0 1-.584-.308c-.38 0-.413.784-.413.991 0 .616.355.96 1.022.96v.546c-1.04-.015-1.8-.384-1.8-1.46 0-.883.347-1.597 1.42-1.597a.582.582 0 0 0 .414.276.565.565 0 0 0 .413-.276h.897v3.057Z"/></g><defs><clipPath id="pi-thanachartbank-a"><path fill="#fff" d="M0 0h38v24H0z"/></clipPath></defs></svg>
