<svg width="38" height="24" viewBox="0 0 38 24" role="img" aria-labelledby="pi-timepayment" fill="none" xmlns="http://www.w3.org/2000/svg"><title id="pi-timepayment">TimePayment</title><g clip-path="url(#pi-clip0_102_2)"><path opacity=".07" d="M35 0H3C1.3 0 0 1.3 0 3v18c0 1.7 1.4 3 3 3h32c1.7 0 3-1.3 3-3V3c0-1.7-1.4-3-3-3z" fill="#000"/><path d="M35 1c1.1 0 2 .9 2 2v18c0 1.1-.9 2-2 2H3c-1.1 0-2-.9-2-2V3c0-1.1.9-2 2-2h32z" fill="#fff"/><path d="M8.447 13.357h-.818l.36-2.622h-.853l.115-.73 2.464-.001-.114.73h-.793l-.361 2.623zM11.55 10.832l-.021.178c.202-.218.389-.244.597-.244.306 0 .485.161.551.324.171-.189.335-.323.655-.323.256 0 .44.09.564.242.152.188.18.429.14.695l-.243 1.652h-.734l.224-1.493c.03-.184.035-.412-.197-.412-.273 0-.353.227-.39.5l-.199 1.405h-.73l.227-1.514c.024-.157.065-.386-.21-.39-.255-.003-.334.203-.362.39l-.22 1.513-.742.001.38-2.524h.71zM24.92 10.832l-.022.178c.201-.218.389-.244.596-.244.307 0 .486.161.552.324.171-.189.335-.323.655-.323.256 0 .44.09.564.242.151.188.18.429.14.695l-.243 1.652h-.735l.225-1.493c.03-.184.035-.412-.197-.412-.273 0-.353.227-.39.5l-.199 1.405h-.73l.227-1.514c.024-.157.065-.386-.21-.39-.255-.003-.334.203-.362.39l-.22 1.513-.743.001.38-2.524h.712zM17.409 13.355h-.838l.453-3.353h1.132c.325 0 .713-.03.98.136.287.187.402.455.361.925-.027.32-.204.75-.44.943-.273.223-.55.254-.91.255l-.59.002-.148 1.092zm.652-1.762c.233 0 .499-.028.554-.496.035-.3-.213-.415-.446-.415h-.386l-.108.91h.386v.001zM20.694 13.357c-.04-.113-.072-.134-.077-.155-.139.144-.262.223-.594.227-.506.008-.8-.385-.762-.785.045-.417.218-.653.578-.774.279-.093.63-.1.95-.124l.002-.02c.026-.237.036-.389-.263-.387-.185 0-.274.136-.327.357l-.718-.033c.14-.755.622-.897 1.205-.897.287 0 .519.069.7.248.239.234.178.555.137.931l-.115.868c-.022.196-.072.355-.021.544h-.695zm.012-1.066c-.23.028-.646.038-.682.291-.012.125.058.23.205.224.341-.012.416-.204.472-.464l.005-.051zM22.795 13.458c-.325.6-.37.708-1.006.726l-.274-.01-.081-.005.132-.63.16.014c.13 0 .327.035.364-.159.014-.073-.008-.155-.02-.223l-.357-2.332.772-.005.132 1.453.648-1.453h.746l-1.216 2.624zM16.45 12.665c-.238.592-.69.763-1.127.763-.351 0-.642-.11-.84-.32-.228-.243-.328-.662-.306-1.034.025-.425.136-.775.42-1.02.229-.219.485-.286.794-.284.46.004 1.108.248 1.1 1.293v.253l-1.56.001c.012.176.086.452.383.452.222 0 .356-.074.5-.362l.636.258zm-.73-.88c-.025-.219-.143-.34-.349-.338-.2.003-.336.1-.39.339h.739zM29.8 12.665c-.238.592-.69.763-1.127.763-.35 0-.641-.11-.84-.32-.228-.243-.327-.662-.306-1.034.025-.425.137-.775.42-1.02.23-.219.485-.286.794-.284.46.004 1.108.248 1.1 1.293v.253l-1.56.001c.012.176.087.452.383.452.222 0 .356-.074.5-.362l.636.258zm-.73-.88c-.024-.219-.143-.34-.349-.338-.2.003-.335.1-.39.339h.739zM30.919 10.831l-.017.18h.01c.163-.213.46-.243.579-.243.234 0 .466.09.588.283.13.207.104.477.071.739l-.21 1.568-.713-.001.192-1.499c.036-.23-.028-.409-.22-.409-.269 0-.353.247-.38.454l-.2 1.454-.71-.002.335-2.524h.675zM32.287 11.44l.08-.605h.282l.09-.645h.705l-.087.645h.346l-.074.606h-.354l-.111.847c-.014.175-.061.327.029.383.062.04.253.03.354.023l-.089.661s-.042.023-.205.034c-.297.022-.62-.04-.789-.239-.133-.157-.082-.38-.02-.781l.117-.928h-.274zM4.498 10.005h2.486l-.109.746H4.387l.11-.746zM4.305 11.31h2.486l-.108.746H4.195l.11-.746zM4.11 12.613h2.487l-.11.746H4l.11-.746zM9.788 10.695l.1-.691h.7l-.099.692h-.7zM9.43 13.356l.35-2.524h.702l-.352 2.525-.7-.001zM33.656 13.18a.175.175 0 01.086-.152.168.168 0 01.172 0 .174.174 0 01.064.237.17.17 0 01-.238.065.174.174 0 01-.085-.15zm.028 0a.145.145 0 00.216.126.144.144 0 00.072-.126.144.144 0 00-.072-.127.14.14 0 00-.144 0 .143.143 0 00-.053.053.144.144 0 00-.02.074zm.214-.042c0 .027-.012.045-.035.054l.054.092h-.048l-.044-.08h-.02v.08h-.044v-.21h.06c.026 0 .046.006.058.017.013.01.019.026.019.047zm-.094.032h.016c.011 0 .02-.002.026-.008.005-.005.008-.013.008-.023 0-.011-.003-.019-.008-.023-.006-.005-.015-.007-.027-.007h-.015v.061z" fill="#319304"/></g><defs><clipPath id="pi-clip0_102_2"><path fill="#fff" d="M0 0h38v24H0z"/></clipPath></defs></svg>