<svg viewBox="0 0 38 24" xmlns="http://www.w3.org/2000/svg" role="img" width="38" height="24" aria-labelledby="pi-tiptop"><title id="pi-tiptop">TipTop</title><path opacity=".07" d="M35 0H3C1.3 0 0 1.3 0 3v18c0 1.7 1.4 3 3 3h32c1.7 0 3-1.3 3-3V3c0-1.7-1.4-3-3-3z"/><path fill="#8638E5" d="M35 1c1.1 0 2 .9 2 2v18c0 1.1-.9 2-2 2H3c-1.1 0-2-.9-2-2V3c0-1.1.9-2 2-2h32"/><path d="M6.625 8.38H5V7.074h4.78v1.304H8.152v6.349H6.624V8.379h.001zM12.591 9.227h1.355l.108.706a1.34 1.34 0 01.531-.576c.253-.159.57-.24.954-.24.347 0 .665.07.953.207.289.138.538.333.748.587.21.255.374.556.493.908.12.352.179.738.179 1.158 0 .42-.054.815-.163 1.163a2.749 2.749 0 01-.466.902c-.202.255-.45.45-.747.588a2.344 2.344 0 01-.997.206c-.145 0-.291-.02-.44-.06a2.062 2.062 0 01-.427-.168 1.672 1.672 0 01-.369-.261 1.176 1.176 0 01-.249-.326v2.859h-1.463V9.227zm3.858 2.75c0-.565-.114-.984-.341-1.256a1.076 1.076 0 00-.862-.407c-.347 0-.65.136-.867.407-.216.272-.325.69-.325 1.256 0 .565.108.972.325 1.24.217.267.505.401.867.401s.634-.134.862-.402c.227-.267.34-.68.34-1.239zM27.002 11.977c0 .428-.064.815-.19 1.163a2.673 2.673 0 01-.536.902c-.232.255-.51.45-.84.588-.329.137-.692.206-1.089.206s-.781-.07-1.11-.207a2.335 2.335 0 01-.84-.586 2.618 2.618 0 01-.531-.903 3.465 3.465 0 01-.184-1.163c0-.428.06-.806.184-1.158.123-.352.3-.654.53-.908.232-.254.511-.45.84-.587a2.86 2.86 0 011.111-.206c.412 0 .76.07 1.09.212.328.141.607.337.839.587.232.25.41.55.536.902.126.352.19.738.19 1.158zm-1.463 0c0-.559-.112-.974-.336-1.25a1.054 1.054 0 00-.856-.413 1.08 1.08 0 00-.872.413c-.22.276-.33.691-.33 1.25s.11.984.33 1.256c.22.271.51.407.872.407s.633-.136.856-.407c.224-.272.336-.69.336-1.256zM27.68 9.227h1.354l.108.706a1.34 1.34 0 01.531-.576c.254-.159.57-.24.954-.24.347 0 .665.07.954.207.288.138.537.333.747.587.21.255.374.556.493.908.12.352.179.738.179 1.158 0 .42-.054.815-.163 1.163a2.749 2.749 0 01-.466.902c-.201.255-.45.45-.747.588a2.344 2.344 0 01-.997.206c-.145 0-.291-.02-.439-.06a2.062 2.062 0 01-.428-.168 1.672 1.672 0 01-.368-.261 1.174 1.174 0 01-.25-.326v2.859H27.68V9.227zm3.857 2.75c0-.565-.114-.984-.341-1.256a1.076 1.076 0 00-.862-.407c-.346 0-.65.136-.866.407-.217.272-.326.69-.326 1.256 0 .565.109.972.326 1.24.216.267.505.401.866.401.362 0 .634-.134.862-.402.227-.267.341-.68.341-1.239zM11.785 9.227v5.501h-1.463v-5.5h1.463zM10.215 7.848c0-.24.081-.44.244-.603a.802.802 0 01.59-.245.82.82 0 01.596.245.81.81 0 01.25.603c0 .24-.083.43-.25.592a.82.82 0 01-.596.245.802.802 0 01-.59-.245.808.808 0 01-.244-.592zM18.1 10.312V9.229h.899V7.696h1.463v1.533h.9v1.083h-.9v2.852c0 .16.026.277.076.354.05.076.147.114.292.114l.114-.006c.061-.004.125-.01.19-.016l.249-.022v1.142c-.34.036-.581.055-.726.06a12.49 12.49 0 01-.25.005c-.505 0-.866-.136-1.083-.408-.217-.271-.325-.647-.325-1.125v-2.95h-.9z" fill="#fff"/></svg>