<svg xmlns="http://www.w3.org/2000/svg" role="img" viewBox="0 0 38 24" width="38" height="24" aria-labelledby="pi-todopay"><title id="pi-todopay">Todopay</title><path opacity=".07" d="M35 0H3C1.3 0 0 1.3 0 3v18c0 1.7 1.4 3 3 3h32c1.7 0 3-1.3 3-3V3c0-1.7-1.4-3-3-3z"/><path fill="#fff" d="M35 1c1.1 0 2 .9 2 2v18c0 1.1-.9 2-2 2H3c-1.1 0-2-.9-2-2V3c0-1.1.9-2 2-2h32"/><path fill="#438840" d="M31.1 13v.4c-.1.3-.3.5-.6.5s-.5-.2-.6-.4c-.1-.3-.1-.6-.2-1s-.1-.8-.3-1.2c-.1-.2-.1-.4-.2-.6-.1-.3-.1-.6.2-.8.2-.2.3-.4.1-.6 0-.2-.2-.3-.5-.2-.5.1-.6-.3-.8-.5-1.2-1.7-2.7-3.1-4.6-4-4.1-1.8-7.8-1.2-11.2 1.6-.9.7-1.6 1.5-2.2 2.4-.2.4-.5.6-.9.5-.2-.1-.4 0-.5.2-.1.2-.1.4.1.6.4.3.3.7.2 1.1-.3.8-.4 1.7-.5 2.5-.1.3-.3.5-.7.5-.4-.1-.6-.3-.6-.7V13c.1-.7.3-1.4.5-2.1 0-.2 0-.4-.1-.5-.6-1.1 0-2.2 1.2-2.5.3-.1.4-.3.6-.5 2.1-2.8 4.8-4.5 8.3-5 3.6-.4 6.8.7 9.5 3.2.6.6 1.2 1.2 1.7 1.9.1.2.3.3.5.3 1.2.3 1.7 1.4 1.2 2.4-.1.2-.1.4-.1.6.1.3.1.7.3 1.1.1.4.1.8.2 1.1z"/><path fill="#E96C25" d="M20.3 9.7c0 .1 0 .1-.1.2-.2.4-.6.6-1 .6-.3 0-.8-.3-1-.6-.1-.2-.1-.4 0-.6.2-.2.5-.3.7-.1.2.1.3.1.4 0 .5-.1 1 .1 1 .5z"/><path fill="#4B8C43" d="M20.3 12.9c-.3 0-.6-.1-.8-.3-.2-.2-.3-.2-.6 0-.8.6-1.9.2-2.1-.8 0-.2-.1-.3.1-.4.2-.1.3.1.3.3.1.5.4.8.9.8s.8-.3.9-.8c0-.1 0-.3.2-.3s.2.1.2.3c.1.5.4.8.9.8s.8-.3.8-.8c0-.1.1-.3.3-.3.2 0 .2.2.2.3 0 .6-.7 1.2-1.3 1.2z"/><path fill="#5B944E" d="M24.2 11.2c.3 0 .5 0 .7.1.1.1.2.1.2.2s-.2.2-.3.1c-.4-.1-.8-.1-1.2 0-.1 0-.2 0-.3-.2 0-.1.1-.2.2-.3.2.1.5.1.7.1zm.1 1.1c.3.1.5.1.7.3.1.1.2.1.1.3-.1.1-.2.1-.3.1-.4-.2-.8-.2-1.2-.2-.1 0-.2-.1-.2-.2s.1-.2.2-.2c.2-.2.4-.2.7-.1z"/><path fill="#539148" d="M14.2 11.2c.2 0 .5 0 .7.1.1.1.2.1.2.3-.1.1-.2.2-.3.1-.4-.1-.7-.1-1.1 0-.1 0-.3 0-.3-.1-.1-.2.1-.2.2-.3.2-.1.4-.1.6-.1z"/><path fill="#549148" d="M24.6 10.6c-.3 0-.6.1-.9.2-.1.1-.3.1-.4-.1-.1-.2 0-.3.2-.3.3-.2.7-.3 1.1-.2.2 0 .4 0 .4.3 0 .2-.2.1-.4.1z"/><path fill="#56924A" d="M14 10.2c.3 0 .6.1.9.2.1.1.3.2.2.4-.1.2-.3.1-.4.1-.3-.1-.6-.2-.9-.2-.2 0-.3.1-.4-.1 0-.2.2-.2.3-.3.1-.2.2-.1.3-.1z"/><path fill="#539148" d="M14.5 12.2h.2c.2 0 .4 0 .4.2 0 .3-.3.2-.4.2-.3 0-.6 0-.9.2-.1.1-.3.1-.4-.1-.1-.2.1-.3.2-.3.3-.1.6-.2.9-.2z"/><circle fill="#418940" cx="17" cy="8.4" r="1"/><circle fill="none" stroke="#448A40" stroke-width=".5" stroke-miterlimit="10" cx="16.6" cy="8.3" r="1.4"/><circle fill="#418940" cx="21.2" cy="8.4" r="1"/><circle fill="none" stroke="#448A40" stroke-width=".5" stroke-miterlimit="10" cx="21.8" cy="8.4" r="1.4"/><path fill="#056C49" d="M6.7 21.3c.4-1 .6-1.9.6-2.5 0-.1 0-.3.1-1.4v-1.9h5.3v2.1H8.4c0 .5 0 1-.1 1.7-.1.8-.3 1.5-.5 2H6.7z"/><path fill="#fff" d="M8.3 16.4h3.2v.3H8.3z"/><path fill="#056C49" d="M8.5 18.7h4.2v2.6H8.5z"/><path fill="#fff" d="M9.4 19.3h.9v.5h-.9zm1.5 0h.9v.5h-.9zm-1.5 1h.9v.5h-.9zm1.5 0h.9v.5h-.9z"/><path fill="#056C49" d="M9.9 18.7l-.8-.5V18h1.2l.2.6h.2l.1-.6h1.3v.2l-.8.5"/><path fill="#ED8023" d="M20.5 16.5v-1.1h.9v1.1h.7v.9h-.7v.8l.7-.3v.8l-.7.3v1.4s.2.9-1.3.8v-.8h.4v-1.1l-.7.1-.2-1 .9-.1v-1h-.8v-.9l.8.1z"/><path fill="#ED8023" d="M23.1 15.5l-.9 4.6h-.5l.2 1 2.8-.6.2.6H26l-1.1-2.8h-1l.5 1.3-1.2.4.9-4.4zm6.3 1.2s.9.8 1 4h.8s.3-1.7-.9-4h-.9zm-2-.2h-.8s-.6 2.8 0 4c.6 1.2 2.1.6 2.4.2v-1s-1.4 1.4-1.8-.1c0 0-.1-1.4.2-3.1z"/><path fill="#0B6E4A" d="M16.8 19l-.1 1.3h.3s.4-.7 1.2-.5c.8.2.2.7 0 .7H17v.4s1.4.3 1.9-.3 0-1.2-.5-1.3-.8 0-1.2.4l.1-.7h-.5z"/><path fill="#0B6E4A" d="M16.9 18.5h1.8v.5h-1.8zm1.9-2.5v-.4h-2.4v.4h1s-1 .9-.1 1.7c0 0 .3.3 1.1.2v-.4s-1.4.1-1.1-.9c0 0 .4-.6.7-.6h.8zm-5.2 5s.5-1 .5-1.7h-.5V19h.6v-.6h.5l-.1.6s1-.2 1 .7c0 .9-.1 1-.5 1.3 0 0-.2.1-.7-.1v-.4s.8.4.8-.5c0 0 0-.5-.1-.6h-.6l-.4 1.6h-.5z"/><path fill="#0B6E4A" d="M15.4 18.7h.5s.2.6.3 1.3h-.4s.1-.8-.4-1.3zm-.1-3.1h.6s.3 1 .4 2h-.5c-.1 0 0-1.3-.5-2zm-1.4-.1h.4s-.2 1.7 0 1.8c0 0 .1.4.6.1 0 0 0 .1.2-.2h.2v.5s-.3.4-.9.3c-.6-.2-.5-1.1-.5-1.1v-1.4z"/></svg>