<svg xmlns="http://www.w3.org/2000/svg" role="img" fill="none" viewBox="0 0 38 24" width="38" height="24" aria-labelledby="pi-toss"><title id="pi-toss">Toss</title><rect x="1" y="1" width="36" height="22" rx="2" fill="#fff"/><rect x=".5" y=".5" width="37" height="23" rx="2.5" stroke="#000" stroke-opacity=".07"/><path d="M14.337 9.908h.968V8.775L16.621 8v1.908h1.375v1.18H16.62v2.151c0 .552.233.746.572.746a.687.687 0 00.483-.194l.61 1.046a2.064 2.064 0 01-1.248.397c-1.094 0-1.733-.523-1.733-1.947V11.09h-.968V9.908zm8.322 2.595c0-.813-.64-1.462-1.433-1.462-.803 0-1.432.649-1.432 1.462 0 .814.629 1.463 1.432 1.463.794 0 1.433-.65 1.433-1.463zm-4.2.01c0-1.51 1.19-2.721 2.758-2.721 1.558 0 2.768 1.21 2.768 2.72 0 1.502-1.191 2.722-2.768 2.722-1.568 0-2.759-1.22-2.759-2.721zm5.801 1.423l1.287-.503c.232.465.649.707 1.2.707.543 0 .833-.262.833-.572 0-.377-.562-.465-1.23-.6-.88-.184-1.858-.455-1.858-1.56 0-.88.852-1.646 2.14-1.636 1.102 0 1.76.416 2.245 1.114l-1.22.494c-.213-.349-.542-.552-1.026-.552-.523 0-.775.213-.775.503 0 .33.427.417 1.191.581.871.175 1.896.475 1.896 1.598 0 .814-.726 1.733-2.245 1.724-1.238 0-2.022-.465-2.438-1.298zm5.029 0l1.287-.503c.232.465.648.707 1.2.707.542 0 .832-.262.832-.572 0-.377-.561-.465-1.229-.6-.88-.184-1.858-.455-1.858-1.56 0-.88.852-1.646 2.139-1.636 1.103 0 1.761.416 2.245 1.114l-1.22.494c-.213-.349-.542-.552-1.026-.552-.522 0-.774.213-.774.503 0 .33.426.417 1.19.581.872.175 1.897.475 1.897 1.598 0 .814-.726 1.733-2.246 1.724-1.237 0-2.021-.465-2.437-1.298zm-16.673-1.875a3.616 3.616 0 01-3.617 3.621 3.62 3.62 0 01-3.283-2.091A5.825 5.825 0 004 14.393a10.95 10.95 0 011.159-3.302c.75-1.355 1.878-2.52 3.59-2.633a3.607 3.607 0 013.867 3.604z" fill="#0050FF"/></svg>