<svg viewBox="0 0 38 24" role="img" width="38" height="24" aria-labelledby="pi-tpay" fill="none" xmlns="http://www.w3.org/2000/svg" ><title id="pi-tpay">Tpay</title><g clip-path="url(#pi-tpay-clip0_2330_1595)"><path d="M35 .001H3c-1.7 0-3 1.3-3 3v18C0 22.7 1.4 24 3 24h32c1.7 0 3-1.3 3-3V3c0-1.7-1.4-3-3-3v.001z" fill="#000" fill-opacity=".07"/><path d="M35 1c1.1 0 2.001.9 2.001 2v18a2.006 2.006 0 01-2 2H3a2.007 2.007 0 01-2-2V3c0-1.1.9-2 2.001-2H35z" fill="#fff"/><path d="M13.646 9.79a3.23 3.23 0 011.016-.836c.41-.21.867-.317 1.33-.31.392-.01.78.07 1.133.236.309.152.578.373.783.646.213.29.367.617.453.964.098.383.147.776.144 1.171a5.319 5.319 0 01-.27 1.703 4.587 4.587 0 01-.747 1.407 3.589 3.589 0 01-1.133.955 3.043 3.043 0 01-1.453.351 2.973 2.973 0 01-1.35-.283 2.41 2.41 0 01-.96-.929l-.783 3.607h-1.563l2.074-9.61h1.522l-.196.929zm-.672 3.42c-.022.43.126.85.411 1.177.274.296.686.444 1.235.444.337.006.668-.086.952-.262a2.27 2.27 0 00.707-.707c.203-.315.352-.66.445-1.022.101-.39.152-.79.151-1.192 0-.564-.128-.994-.385-1.291a1.259 1.259 0 00-1-.445 2.087 2.087 0 00-.807.153 2.36 2.36 0 00-.686.43 2.581 2.581 0 00-.52.647c-.145.25-.249.52-.31.8-.1.416-.164.84-.191 1.268h-.002zM21.03 16.037c-.631 0-1.134-.165-1.51-.494-.376-.33-.563-.803-.562-1.42a2.162 2.162 0 01.328-1.235c.222-.325.525-.59.88-.766.396-.199.82-.335 1.26-.404.49-.082.984-.13 1.48-.148l1.302-.055.042-.215c.026-.152.04-.305.041-.459a.978.978 0 00-.288-.753c-.193-.18-.503-.27-.947-.27-.494 0-.87.066-1.125.196s-.452.383-.59.76l-1.412-.148c.229-.717.613-1.226 1.152-1.527.54-.302 1.253-.452 2.139-.451.832 0 1.467.186 1.906.558.439.372.663.895.672 1.568 0 .131-.01.261-.027.391a8.715 8.715 0 01-.07.418l-.924 4.278h-1.484l.193-.915c-.31.308-.66.574-1.043.788a2.921 2.921 0 01-1.414.303zm2.948-3.502l-1.056.053a7.63 7.63 0 00-1.152.142 2.293 2.293 0 00-.742.275c-.169.102-.304.25-.39.425-.082.18-.121.375-.118.572a.824.824 0 00.252.598c.167.164.42.247.755.247a2.542 2.542 0 001.501-.473 2.11 2.11 0 00.522-.539 2 2 0 00.294-.708l.132-.593h.002zM28.44 8.86l.906 5.048L32.2 8.861h1.783l-4.598 7.43c-.219.358-.422.675-.61.948-.166.25-.364.478-.589.68-.2.175-.43.314-.68.41a2.43 2.43 0 01-.88.142 3.05 3.05 0 01-1.184-.228l.41-1.158c.101.036.216.07.344.1.134.032.273.048.411.048a.971.971 0 00.665-.223c.226-.22.418-.472.57-.747l.412-.686-1.543-6.716h1.728zM8.221 13.626l-.048.235a1.03 1.03 0 00-.022.208c0 .261.067.441.199.539a.89.89 0 00.543.148c.288.001.574-.04.85-.123l.233 1.145a4.624 4.624 0 01-1.44.213c-.63 0-1.116-.139-1.454-.417-.339-.279-.507-.7-.503-1.265 0-.25.032-.5.095-.74l.755-3.5H4.016l.26-1.212h3.41l.411-1.88H9.66L9.25 8.86h1.913l-.26 1.212H8.989l-.768 3.553z" fill="#072653"/></g><defs><clipPath id="pi-tpay-clip0_2330_1595"><path fill="#fff" d="M0 0h38v24H0z"/></clipPath></defs></svg>
