<svg xmlns="http://www.w3.org/2000/svg" role="img" viewBox="0 0 38 24" width="38" height="24" aria-labelledby="pi-trevipay"><title id="pi-trevipay">TreviPay</title><path fill="#000" opacity=".07" d="M35 0H3C1.3 0 0 1.3 0 3v18c0 1.7 1.4 3 3 3h32c1.7 0 3-1.3 3-3V3c0-1.7-1.4-3-3-3z"/><path fill="#fff" d="M35 1c1.1 0 2 .9 2 2v18c0 1.1-.9 2-2 2H3c-1.1 0-2-.9-2-2V3c0-1.1.9-2 2-2h32"/><path d="M11.245 12.978l.178-1.134a2.671 2.671 0 01-.692.095c-.436 0-.712-.156-.712-.606a.878.878 0 01.02-.215l.256-1.605h1.247l.178-1.096h-1.266l.178-1.076H9.326l-.178 1.076h-.67L8.3 9.513h.67l-.277 1.744a2.67 2.67 0 00-.04.39c0 .92.614 1.468 1.663 1.468.315.005.63-.04.93-.137m6.687-2.66h-1.96c.18-.549.614-.958 1.168-.958a.768.768 0 01.831.684v.078a.695.695 0 01-.04.196zm1.246-.061a1.87 1.87 0 00-1.82-1.937h-.139c-1.424 0-2.532 1.174-2.532 2.681 0 1.33.89 2.171 2.295 2.171a3.67 3.67 0 001.584-.352l.198-1.114a3.096 3.096 0 01-1.504.41c-.712 0-1.226-.332-1.306-.997h3.108c.06-.294.118-.587.118-.86" fill="#003CE6"/><path d="M25.016 7.857a.773.773 0 00.771-.783.706.706 0 00-.237-.548.722.722 0 00-.554-.235.792.792 0 00-.792.783.843.843 0 00.812.783" fill="#00D4FF"/><path d="M20.129 13.037h1.424l2.374-4.616h-1.424l-1.464 3.266h-.02l-.554-3.266H19.08l1.049 4.616zM12.235 8.42l-.712 4.616h1.345l.334-2.268c.119-.88.653-1.212 1.246-1.212.133.003.266.016.396.039l.198-1.233a1.133 1.133 0 00-.356-.061 1.671 1.671 0 00-1.362.765l-.02-.665h-1.07v.02zm10.841-1.603a1.413 1.413 0 001.425-1.409 1.405 1.405 0 00-.415-.997 1.384 1.384 0 00-1.01-.41 1.41 1.41 0 00-1.318 1.948c.071.172.177.327.31.457.27.262.632.41 1.008.411zm.278 6.22h1.345l.791-4.616h-1.345l-.791 4.616z" fill="#003CE6"/><path d="M21.91 14.719c.553 0 .969.391.95 1.036-.02.704-.495 1.408-1.247 1.408-.554 0-.97-.391-.95-1.056 0-.743.534-1.389 1.246-1.389v.001zm2.65-1.074h-1.303l-.139.724a1.57 1.57 0 00-1.446-.845c-1.226 0-2.335 1.154-2.354 2.757-.04 1.29.752 2.093 1.74 2.093.634 0 1.148-.293 1.564-.822l-.12.724h1.267l.792-4.63zm5.125-.002H28.24l-1.485 2.993h-.02l-.613-2.993h-1.365l1.069 4.322L24.738 20h1.425l3.522-6.357zm-12.9 1.076c.554 0 .95.372.95 1.017 0 .782-.515 1.447-1.227 1.447-.594 0-.95-.41-.95-1.056-.02-.763.515-1.408 1.227-1.408zm-2.176-1.074L13.639 20h1.346l.376-2.465a1.49 1.49 0 001.345.841c1.246 0 2.354-1.173 2.354-2.777 0-1.29-.792-2.072-1.76-2.072a1.873 1.873 0 00-1.564.841l.12-.723h-1.247z" fill="#00D4FF"/><path d="M11.245 12.978l.178-1.134a2.671 2.671 0 01-.692.095c-.436 0-.712-.156-.712-.606a.878.878 0 01.02-.215l.256-1.605h1.247l.178-1.096h-1.266l.178-1.076H9.326l-.178 1.076h-.67L8.3 9.513h.67l-.277 1.744a2.67 2.67 0 00-.04.39c0 .92.614 1.468 1.663 1.468.315.005.63-.04.93-.137m6.687-2.66h-1.96c.18-.549.614-.958 1.168-.958a.768.768 0 01.831.684v.078a.695.695 0 01-.04.196zm1.246-.061a1.87 1.87 0 00-1.82-1.937h-.139c-1.424 0-2.532 1.174-2.532 2.681 0 1.33.89 2.171 2.295 2.171a3.67 3.67 0 001.584-.352l.198-1.114a3.096 3.096 0 01-1.504.41c-.712 0-1.226-.332-1.306-.997h3.108c.06-.294.118-.587.118-.86" fill="#003CE6"/><path d="M25.016 7.857a.773.773 0 00.771-.783.706.706 0 00-.237-.548.722.722 0 00-.554-.235.792.792 0 00-.792.783.843.843 0 00.812.783" fill="#00D4FF"/><path d="M20.129 13.037h1.424l2.374-4.616h-1.424l-1.464 3.266h-.02l-.554-3.266H19.08l1.049 4.616zM12.235 8.42l-.712 4.616h1.345l.334-2.268c.119-.88.653-1.212 1.246-1.212.133.003.266.016.396.039l.198-1.233a1.133 1.133 0 00-.356-.061 1.671 1.671 0 00-1.362.765l-.02-.665h-1.07v.02zm10.841-1.603a1.413 1.413 0 001.425-1.409 1.405 1.405 0 00-.415-.997 1.384 1.384 0 00-1.01-.41 1.41 1.41 0 00-1.318 1.948c.071.172.177.327.31.457.27.262.632.41 1.008.411zm.278 6.22h1.345l.791-4.616h-1.345l-.791 4.616z" fill="#003CE6"/><path d="M21.91 14.719c.553 0 .969.391.95 1.036-.02.704-.495 1.408-1.247 1.408-.554 0-.97-.391-.95-1.056 0-.743.534-1.389 1.246-1.389v.001zm2.65-1.074h-1.303l-.139.724a1.57 1.57 0 00-1.446-.845c-1.226 0-2.335 1.154-2.354 2.757-.04 1.29.752 2.093 1.74 2.093.634 0 1.148-.293 1.564-.822l-.12.724h1.267l.792-4.63zm5.125-.002H28.24l-1.485 2.993h-.02l-.613-2.993h-1.365l1.069 4.322L24.738 20h1.425l3.522-6.357zm-12.9 1.076c.554 0 .95.372.95 1.017 0 .782-.515 1.447-1.227 1.447-.594 0-.95-.41-.95-1.056-.02-.763.515-1.408 1.227-1.408zm-2.176-1.074L13.639 20h1.346l.376-2.465a1.49 1.49 0 001.345.841c1.246 0 2.354-1.173 2.354-2.777 0-1.29-.792-2.072-1.76-2.072a1.873 1.873 0 00-1.564.841l.12-.723h-1.247z" fill="#00D4FF"/></svg>