<svg xmlns="http://www.w3.org/2000/svg" role="img" viewBox="0 0 38 24" width="38" height="24" aria-labelledby="pi-truemed"><title id="pi-truemed">Truemed</title><g clip-path="url(#pi-a)"><path fill="#000" d="M35 0H3C1.3 0 0 1.3 0 3v18c0 1.7 1.4 3 3 3h32c1.7 0 3-1.3 3-3V3c0-1.7-1.4-3-3-3Z" opacity=".07"/><path fill="#fff" d="M35 1c1.1 0 2 .9 2 2v18c0 1.1-.9 2-2 2H3c-1.1 0-2-.9-2-2V3c0-1.1.9-2 2-2h32Z"/><path fill="#183B43" d="M18.939 6.945a1.447 1.447 0 1 0 0 2.893 1.447 1.447 0 0 0 0-2.893Z"/><path fill="#183B43" d="m18.538 12.42-4.178 4.362a6.596 6.596 0 0 1-1.915-3.584 7.04 7.04 0 0 1-.097-.775l6.19-.002Zm-6.14-1.338a6.67 6.67 0 0 1 6.616-5.745 6.61 6.61 0 0 1 3.774 1.183 6.675 6.675 0 0 1 2.808 4.562H12.397Zm10.173 6.547a6.68 6.68 0 0 1-7.153-.012l3.57-3.725 3.583 3.737Zm3.078-5.208a6.708 6.708 0 0 1-2.026 4.374l-4.19-4.37 6.216-.004Zm-2.098-7.002a8.003 8.003 0 0 0-11.132 2.034 7.998 7.998 0 0 0 2.034 11.128 8.003 8.003 0 0 0 11.13-2.03A8.009 8.009 0 0 0 23.55 5.418Z"/></g><defs><clipPath id="pi-a"><path fill="#fff" d="M0 0h38v24H0z"/></clipPath></defs></svg>