<svg xmlns="http://www.w3.org/2000/svg" role="img" viewBox="0 0 38 24" width="38" height="24" aria-labelledby="pi-truemoney_pay"><title id="pi-truemoney_pay">TrueMoney Pay</title><g clip-path="url(#pi-truemoney_pay-a)"><path fill="#000" d="M35 0H3C1.3 0 0 1.3 0 3v18c0 1.7 1.4 3 3 3h32c1.7 0 3-1.3 3-3V3c0-1.7-1.4-3-3-3Z" opacity=".07"/><path fill="#fff" d="M35 1c1.1 0 2 .9 2 2v18c0 1.1-.9 2-2 2H3c-1.1 0-2-.9-2-2V3c0-1.1.9-2 2-2h32Z"/><path fill="#EC1D24" fill-rule="evenodd" d="M15.193 6.53c-.089-.292-.398-.53-.691-.53H9.395c-.293 0-.46.238-.371.53l2.884 9.612c.088.293.397.531.69.531h4.193c.294 0 .624-.238.738-.53l.31-.8-2.646-8.812Z" clip-rule="evenodd"/><path fill="#9D0B0F" fill-rule="evenodd" d="M21.232 8.904H16.19c-.334 0-.477.238-.58.53l-2.353 6.707-.001.003c-.106.292-.425.528-.717.528h5.966c.293 0 .614-.239.718-.532l2.353-6.705c.103-.293-.051-.53-.344-.53Z" clip-rule="evenodd"/><path fill="#FFCD02" fill-rule="evenodd" d="M21.968 9.432c-.088-.293-.397-.53-.691-.53H16.17c-.293 0-.46.237-.37.53l2.395 8.037c.088.293.398.53.691.53h4.193c.294 0 .623-.237.738-.53l.309-.799-2.158-7.238Z" clip-rule="evenodd"/><path fill="#F58425" fill-rule="evenodd" d="M29.187 7.204h-5.42c-.293 0-.623.238-.737.531l-3.417 9.734-.002.006c-.117.29-.443.525-.735.525h6.481c.293 0 .623-.238.737-.531l3.417-9.734c.114-.293-.031-.53-.324-.53Z" clip-rule="evenodd"/></g><defs><clipPath id="pi-truemoney_pay-a"><path fill="#fff" d="M0 0h38v24H0z"/></clipPath></defs></svg>
