<svg xmlns="http://www.w3.org/2000/svg" role="img" viewBox="0 0 38 24" width="38" height="24" aria-labelledby="pi-truelayer"><title id="pi-truelayer">TrueLayer</title><path fill="#000" opacity=".07" d="M35 0H3C1.3 0 0 1.3 0 3v18c0 1.7 1.4 3 3 3h32c1.7 0 3-1.3 3-3V3c0-1.7-1.4-3-3-3z"/><path fill="#BBB9FB" d="M35 1c1.1 0 2 .9 2 2v18c0 1.1-.9 2-2 2H3c-1.1 0-2-.9-2-2V3c0-1.1.9-2 2-2h32"/><g clip-path="url(#clip0_2762_505)"><path d="M11.863 16.27l6.56 3.657c.555.325.808.097 1.036-.003l6.957-3.909c.248-.153.418-.286.418-.559 0-.266-.21-.409-.337-.486l-1.873-1.225 1.78-1.012c.288-.142.596-.461.596-.859V9.181c0-.7-.41-.92-.606-1.026L19.57 4.298c-.591-.382-1.074-.13-1.274 0l-6.847 3.899c-.307.203-.405.422-.403.645.003.336.357.59.405.62l1.778 1.036-1.89 1.128c-.295.177-.316.505-.316.505-.021.147-.022 2.626-.022 2.626 0 .65.06 1.074.863 1.512zm13.736-.76l-6.666 3.655-6.445-3.557 2.022-1.135 4.182 2.342c.127.088.356.082.475.018l4.513-2.556 1.92 1.233zm.567-3.9l-1.801-1.085L26.16 9.48l.005 2.13zm-6.74-6.303l6.14 3.506-2.014 1.206-4.129-2.45.004-2.262zm-.495 3.03l3.725 2.211-3.725 2.106h-.004l-3.809-2.153 3.809-2.165h.004zm-6.747.503l6.261-3.541v2.27L14.1 9.97l-1.916-1.13zm1.98 2.204l4.522 2.556c.145.08.33.08.476.002l4.344-2.55 1.963 1.167-6.543 3.66-6.66-3.757 1.897-1.078zm-2.281 1.93l1.751.98-1.751.995v-1.975z" fill="#1F1F25"/></g></svg>