<svg width="38" height="24" viewBox="0 0 38 24" fill="none" xmlns="http://www.w3.org/2000/svg" role="img" aria-labelledby="pi-truist"><title id="pi-truist">Truist</title><g clip-path="url(#pi-truist-clip0_10420_219327)"><path opacity=".07" d="M35 0H3C1.3 0 0 1.3 0 3v18c0 1.7 1.4 3 3 3h32c1.7 0 3-1.3 3-3V3c0-1.7-1.4-3-3-3z" fill="#000"/><path d="M35 1c1.1 0 2 .9 2 2v18c0 1.1-.9 2-2 2H3c-1.1 0-2-.9-2-2V3c0-1.1.9-2 2-2h32z" fill="#fff"/><path fill-rule="evenodd" clip-rule="evenodd" d="M19.171 5.528c5.394.009 5.526.011 5.759.116.13.059.293.173.363.254.07.08.161.273.206.427.07.242.08 1.026.083 5.681 0 4.292-.016 5.45-.072 5.64a1.666 1.666 0 01-.179.401c-.06.09-.23.222-.64.428h-5.574c-3.064 0-5.663-.018-5.775-.04a1.067 1.067 0 01-.398-.213 1.447 1.447 0 01-.296-.388c-.092-.203-.096-.52-.096-5.828 0-5.309.004-5.625.096-5.828.054-.117.188-.292.296-.388.116-.1.28-.186.398-.204.112-.018.227-.04.256-.05.031-.01 2.538-.015 5.573-.008zm-5.49 5.864h3.23V9.038h1.292v5.936h-1.292V12.62h-3.23v4.76h10.767l-.026-4.733h-3.23l-.027 2.327h-1.293V9.038h1.293v2.354l3.257-.027.02-4.733H13.68v4.76z" fill="#2D1A47"/></g><defs><clipPath id="pi-truist-clip0_10420_219327"><path fill="#fff" d="M0 0h38v24H0z"/></clipPath></defs></svg>