<svg width="38" height="24" viewBox="0 0 38 24" xmlns="http://www.w3.org/2000/svg" role="img" aria-labelledby="pi-twisto"><title id="pi-twisto">Twisto</title><path fill="#000" opacity=".07" d="M35 0H3C1.3 0 0 1.3 0 3v18c0 1.7 1.4 3 3 3h32c1.7 0 3-1.3 3-3V3c0-1.7-1.4-3-3-3z"/><path fill="#fff" d="M35 1c1.1 0 2 .9 2 2v18c0 1.1-.9 2-2 2H3c-1.1 0-2-.9-2-2V3c0-1.1.9-2 2-2h32"/><path d="M19.489 15.992v.482h-.126v-.093a.449.449 0 01-.293.109c-.177 0-.282-.105-.282-.245s.116-.242.33-.242h.245c-.002-.158-.088-.233-.238-.233a.375.375 0 00-.234.084l-.06-.095a.499.499 0 01.31-.103c.217 0 .348.117.348.336zm-.126.258v-.141h-.232c-.153 0-.209.064-.209.136 0 .072.06.134.173.134a.37.37 0 00.268-.128M29.68 15.705l-.082.086a.306.306 0 00-.22-.093c-.16 0-.282.125-.282.297s.121.299.283.299c.087 0 .165-.04.222-.094l.078.086a.388.388 0 01-.297.126.401.401 0 01-.415-.418.4.4 0 01.415-.416c.118 0 .225.044.297.125v.002zM30.668 16.072a.41.41 0 01-.422.418.41.41 0 01-.422-.418.41.41 0 01.422-.416.41.41 0 01.422.416zm-.715 0c0 .174.126.299.293.299a.287.287 0 00.293-.299.287.287 0 00-.293-.297.288.288 0 00-.293.297zM32.26 15.976v.498h-.126v-.456c0-.153-.084-.242-.232-.242a.236.236 0 00-.246.245v.453h-.126v-.456c0-.153-.084-.242-.231-.242a.236.236 0 00-.246.245v.453h-.127v-.802h.126v.114a.316.316 0 01.27-.13c.14 0 .249.063.3.168.065-.125.19-.168.303-.168.199 0 .335.126.335.32zM33.39 16.071c0 .241-.176.418-.401.418a.355.355 0 01-.292-.134v.457h-.127V15.67h.127v.119a.353.353 0 01.292-.134c.226 0 .4.175.4.416zm-.702 0c0 .17.118.299.285.299.168 0 .287-.133.287-.299 0-.166-.116-.297-.287-.297-.17 0-.285.128-.285.297zM34.288 15.992v.482h-.126v-.093a.449.449 0 01-.293.109c-.176 0-.282-.105-.282-.245s.116-.242.33-.242h.245c-.002-.158-.088-.233-.238-.233a.372.372 0 00-.233.084l-.06-.095a.499.499 0 01.31-.103c.216 0 .347.117.347.336zm-.126.258v-.141h-.231c-.154 0-.21.064-.21.136 0 .072.06.134.173.134a.37.37 0 00.268-.128M35.26 15.976v.498h-.126v-.456c0-.153-.085-.242-.232-.242a.236.236 0 00-.246.245v.453h-.126v-.802h.125v.114a.316.316 0 01.27-.13c.198 0 .334.126.334.32zM35.597 16.8h-.14l.299-.516-.37-.628h.142l.299.503.283-.503h.14l-.654 1.144h.001z" fill="#656565"/><path fill-rule="evenodd" clip-rule="evenodd" d="M27.327 15.807l-.476-.529h-.115v1.22h.318v-.543l.258.271h.034l.26-.27v.542h.317v-1.22h-.111l-.485.529zm-2.977.26c.307-.209.22-.784-.257-.786h-.534v1.217h.148l.162-.358h.161l.209.358h.347v-.045l-.238-.386h.002zm-.257-.204h-.223v-.304c.073 0 .15-.002.223 0 .177.002.168.304 0 .304zm-1.297.635h.305v-.045l-.55-1.187h-.133l-.547 1.187v.045h.304l.071-.153h.48l.07.153zm-.172-.419h-.278l.137-.32.141.32zm-1.888.419l.163-.311h.223c.582 0 .582-.904 0-.906h-.534v1.217h.148zm.385-.59H20.9v-.348c.07 0 .15-.002.222 0 .181.002.17.347 0 .347zm4.852.59h.304v-.045l-.549-1.187h-.133l-.548 1.187v.045h.305l.07-.153h.48l.071.153zm-.172-.419h-.278l.137-.32.141.32z" fill="#420A87"/><path d="M16.17 12.627V10.89h.866v-.884h-.865v-1.08h-1.097v1.08h-.598v.884h.598v1.88c0 .883.51 1.274 1.304 1.274.302 0 .563-.054.706-.125v-.973a.886.886 0 01-.475.142c-.26-.017-.438-.16-.438-.463m2.365-2.62h-1.097l1.198 3.948h1.008l.652-2.425.652 2.425h1.007l1.198-3.949h-1.061l-.706 2.515-.665-2.515h-.83l-.651 2.515-.706-2.515zm5.206 0h1.096v3.966h-1.096v-3.967zm4.115 1.612l-.813-.196c-.248-.071-.355-.16-.355-.32 0-.249.267-.374.527-.374.374 0 .546.178.617.392h1.043c-.142-.741-.687-1.221-1.677-1.221-.884 0-1.571.516-1.571 1.292 0 .677.42.972 1.025 1.115l.795.178c.284.071.403.16.403.338 0 .267-.232.392-.564.392-.332 0-.58-.16-.67-.445h-1.091c.125.813.794 1.275 1.767 1.275.919 0 1.625-.48 1.625-1.293 0-.581-.374-.972-1.061-1.132m3.124 1.007v-1.737h.866v-.884h-.866V8.925h-1.096v1.08h-.6v.883h.6v1.88c0 .883.51 1.274 1.304 1.274.302 0 .563-.054.706-.125v-.973a.886.886 0 01-.475.142c-.278-.017-.439-.16-.439-.463m3.268-2.709c-1.15 0-2.063.92-2.063 2.07s.919 2.07 2.063 2.07a2.06 2.06 0 002.063-2.07c0-1.15-.919-2.07-2.063-2.07zm0 3.066a1.022 1.022 0 01-1.008-1.008 1.02 1.02 0 011.008-1.008 1.02 1.02 0 011.008 1.008c0 .546-.463 1.008-1.008 1.008zm-9.955-4.607c.302 0 .545.243.545.551a.545.545 0 11-1.09 0c0-.308.242-.551.545-.551zM4.995 9.94v6.587h3.28V6.65H1.71v3.29h3.285z" fill="#420A87"/><path d="M8.29 6.65a3.284 3.284 0 003.285 3.291V6.65H8.289z" fill="#49A4A6"/></svg>