<svg role="img" viewBox="0 0 38 24" width="38" height="24" aria-labelledby="pi-twoinvoice" version="1.1" id="pi-twoinvoice-svg22" xmlns="http://www.w3.org/2000/svg"><title id="pi-twoinvoice">Two Business Invoice</title><defs id="pi-twoinvoice-defs22"><clipPath id="pi-twoinvoice-clip0_18_5683"><path fill="#fff" id="pi-twoinvoice-rect63" d="M0 0h96v32H0z"/></clipPath></defs><path fill="#000" opacity=".07" d="M35 0H3C1.3 0 0 1.3 0 3v18c0 1.7 1.4 3 3 3h32c1.7 0 3-1.3 3-3V3c0-1.7-1.4-3-3-3z" id="pi-twoinvoice-path1"/><path fill="#fff" d="M35 1c1.1 0 2 .9 2 2v18c0 1.1-.9 2-2 2H3c-1.1 0-2-.9-2-2V3c0-1.1.9-2 2-2h32" id="pi-twoinvoice-path2"/><g clip-path="url(#clip0_18_5683)" id="pi-twoinvoice-g61" transform="translate(4.268 7.16) scale(.3065)" display="inline"><path d="M0 8.053V0h6.522v8.053h5.323v5.515H6.522v8.855c0 2.368 1.035 3.354 3.51 3.354h2.96v5.769H8.818C2.564 31.546 0 28.729 0 23.36z" fill="#0e113a" id="pi-twoinvoice-path53" fill-opacity="1"/><path d="M23.123 31.308L15.296 8.054h6.658l5.038 16.411 6.29-16.41h6.794l6.252 16.41 5.038-16.41h6.707l-7.831 23.253H43.01l-6.344-16.414-6.289 16.414z" fill="#0e113a" id="pi-twoinvoice-path55" fill-opacity="1" stroke="none"/><path d="M61.42 28.496c-2.341-2.372-3.51-5.277-3.51-8.825 0-3.549 1.169-6.442 3.466-8.766s5.49-3.534 9.447-3.534c3.959 0 7.155 1.162 9.448 3.49 2.294 2.327 3.51 5.276 3.51 8.825 0 3.548-1.172 6.482-3.51 8.825-2.338 2.342-5.445 3.49-9.448 3.49-3.913-.016-7.065-1.181-9.403-3.505zm9.403-2.225c2.024 0 3.644-.629 4.81-1.838 1.165-1.21 1.756-2.817 1.756-4.74s-.588-3.534-1.757-4.74c-1.169-1.206-2.789-1.838-4.809-1.838s-3.643.625-4.808 1.838c-1.166 1.214-1.754 2.817-1.754 4.74s.585 3.534 1.754 4.74c1.169 1.206 2.785 1.838 4.809 1.838z" fill="#0e113a" id="pi-twoinvoice-path57" fill-opacity="1"/><circle cx="92.267" cy="28.267" r="3.733" fill="#fbce49" id="pi-twoinvoice-circle59"/></g></svg>
