<svg role="img" viewBox="0 0 38 24" width="38" height="24" aria-labelledby="pi-ubp" xmlns="http://www.w3.org/2000/svg"><title id="pi-ubp">UBP</title><path fill="#000" opacity=".07" d="M35 0H3C1.3 0 0 1.3 0 3v18c0 1.7 1.4 3 3 3h32c1.7 0 3-1.3 3-3V3c0-1.7-1.4-3-3-3z"/><path fill="#fff" d="M35 1c1.1 0 2 .9 2 2v18c0 1.1-.9 2-2 2H3c-1.1 0-2-.9-2-2V3c0-1.1.9-2 2-2h32"/><path fill-rule="evenodd" clip-rule="evenodd" d="M22.653 12.476c-.757-.099-1.087-.138-1.087-.138V9.643l1.418.346c.754.149 1.138.697 1.138 1.354 0 .658-.585 1.247-1.47 1.133zm3.037 1.114s.874-.869.874-2.505c0-1.365-.92-2.878-2.542-3.448l-5.33-1.89-.017 9.246s.002 1.34-1.492 1.622c-1 .19-1.975-.715-1.975-1.84.002 0 .006-7.288.002-10.275L11 3v12.173c0 4.349 3.945 6.188 6.369 5.769 2.893-.5 4.197-2.736 4.197-5.155v-.859l2.041.07c.675 0 1.177.588 1.177 1.206 0 .547-.382 1.136-1.168 1.204l-1.122.086a6.665 6.665 0 01-1.444 2.775l3.286-.58c1.324-.24 2.863-1.39 2.863-3.287 0-.809-.274-1.993-1.51-2.812z" fill="#FF8000"/></svg>