<svg xmlns="http://www.w3.org/2000/svg" fill="none" role="img" viewBox="0 0 38 24" width="38" height="24" aria-labelledby="pi-underpay"><title id="pi-underpay">Underpay</title><path fill="#000" opacity=".07" d="M35 0H3C1.3 0 0 1.3 0 3v18c0 1.7 1.4 3 3 3h32c1.7 0 3-1.3 3-3V3c0-1.7-1.4-3-3-3z"/><path fill="#fff" d="M35 1c1.1 0 2 .9 2 2v18c0 1.1-.9 2-2 2H3c-1.1 0-2-.9-2-2V3c0-1.1.9-2 2-2h32"/><rect x="1" y="1" width="36" height="22" rx="2" fill="#FFEB69"/><path fill-rule="evenodd" clip-rule="evenodd" d="M24.298 4.34c1.145.543 2.006 1.707 2.313 3.126.505 2.329-.388 6.085-2.058 8.66l-.37.57.357.214c.415.25 1.116.454 1.556.455h.307V20h-.373c-.663 0-2.095-.428-2.948-.88l-.832-.443-.542.343c-1.791 1.13-4.247 1.261-6.203.328-2.887-1.377-4.064-4.827-3.256-9.54.34-1.988 1.554-5.284 1.815-5.638.241 0 1.133.036 2.75.036 0 .067-.244.721-.542 1.455-.955 2.35-1.467 4.684-1.463 6.677.004 2.362.73 4.04 2.05 4.732.64.336 2.454.348 3.161.021l.476-.22-.342-.493c-1.506-2.175-2.42-5.222-2.311-7.714.078-1.816.654-3.068 1.788-3.887.9-.65 1.502-.812 2.87-.771 1 .03 1.261.079 1.797.333zm-2.655 2.258c-.676.31-.953.89-1.017 2.132-.086 1.687.366 3.618 1.235 5.272l.453.862.2-.258c.274-.356.809-1.718 1.115-2.838.206-.755.255-1.226.26-2.47.004-1.347-.023-1.59-.226-1.969-.447-.84-1.194-1.11-2.02-.73z" fill="#141414"/></svg>