<svg viewBox="0 0 38 24" xmlns="http://www.w3.org/2000/svg" width="38" height="24" role="img" aria-labelledby="pi-unipay"><title id="pi-unipay">UniPAY</title><style>.st2{fill:#da2e69}</style><path d="M35 0H3C1.3 0 0 1.3 0 3v18c0 1.7 1.4 3 3 3h32c1.7 0 3-1.3 3-3V3c0-1.7-1.4-3-3-3z" opacity=".07"/><path d="M35 1c1.1 0 2 .9 2 2v18c0 1.1-.9 2-2 2H3c-1.1 0-2-.9-2-2V3c0-1.1.9-2 2-2h32" fill="#fff"/><path class="st2" d="M28 8.9h2.3l.8 2 1.3-2h2.3l-2.9 3.9-.4 2.1h-2.1l.4-2.1zM25 8.9h2.1l1.1 6h-1.9l-.1-.8h-1.4l.6-1.3h.7l-.3-2.1-2 4.2h-1.9zM19.9 10.1l-.3 1.5h.8c.6 0 .9-.2 1-.7.1-.5-.2-.7-.7-.7h-.8zm-1.7-1.2h3c1.3 0 2.4.3 2.1 2-.3 1.5-1.2 2-2.9 2h-1.1l-.3 2h-1.9l1.1-6zM15.9 8.9h1.7l-.3 1.2h-1.7zM15.6 10.5h1.6l-.8 4.4h-1.7zM10.1 10.5h1.5l-.2.8c.4-.6 1-1 1.8-1 .4 0 .8.2 1.1.4.4.4.4 1.1.2 1.9l-.4 2.3h-1.7l.4-2.3c.2-.8-.4-.8-.7-.8-.4 0-.7.3-.8.8l-.4 2.3H9.2l.9-4.4zM5.7 15.1c1.7 0 2.9-.6 3.4-2.9l.6-3.4H7.8l-.6 3.4c-.2.8-.4 1.5-1.3 1.5s-.8-.8-.6-1.5l.6-3.4H4l-.6 3.4c-.5 2.3 1.2 2.9 2.3 2.9z"/></svg>
