<svg width="38" height="24" viewBox="0 0 38 24" fill="none" xmlns="http://www.w3.org/2000/svg" role="img" aria-labelledby="pi-unzerdirectdebit"><title id="pi-unzerdirectdebit">Unzer Direct Debit</title><g clip-path="url(#pi-unzerdirectdebit)"><path opacity=".07" d="M35 0H3C1.3 0 0 1.3 0 3v18c0 1.7 1.4 3 3 3h32c1.7 0 3-1.3 3-3V3c0-1.7-1.4-3-3-3z" fill="#000"/><path d="M35 1c1.1 0 2 .9 2 2v18c0 1.1-.9 2-2 2H3c-1.1 0-2-.9-2-2V3c0-1.1.9-2 2-2h32z" fill="#FC1154"/><path d="M16.89 6.724v4.797h-1.756V7.51c0-.984-.653-1.518-1.267-1.518-.535 0-.945.291-1.347.933v4.602h-1.755v-3.54c-.18.074-.364.125-.535.173-.1 2.038-1.381 3.496-3.115 3.496C5.308 11.656 4 10.082 4 7.926v-3.76h1.751v3.752c0 .806.356 1.756 1.364 1.756.928 0 1.304-.803 1.36-1.562-.734-.347-1.186-1.175-1.186-2.285 0-1.145.757-1.818 1.488-1.818.932 0 1.456 1.046 1.452 2.09 0 0 .254-.104.535-.281V4.165h1.755v.633c.6-.55 1.155-.798 1.794-.798.711 0 1.355.282 1.836.78.482.505.74 1.194.74 1.944h.002zm.703-.82h2.973l-3.133 4.194v1.415h5.57V9.774H19.85l3.153-4.252v-1.37h-5.41v1.752zm11.1-.88c.595.677.9 1.631.9 2.76v.684h-4.721c.126.906.703 1.448 1.556 1.448.706 0 1.32-.32 1.593-.84l.008-.01h.005l1.38.7-.01.008c-.547 1.193-1.648 1.873-3.006 1.873-1.957 0-3.265-1.535-3.265-3.816 0-1.072.347-2.061.983-2.768.288-.331.64-.596 1.034-.776.393-.181.818-.274 1.248-.274.932.01 1.718.356 2.295 1.01zm-.81 1.9c-.147-.763-.698-1.22-1.485-1.22-.72 0-1.266.456-1.476 1.22h2.96zM34 4.109c-.239-.078-.502-.078-.502-.078-.577 0-1.137.247-1.61.72v-.594h-1.751v7.356h1.751v-4.56c.347-.737.878-1.143 1.498-1.143 0 0 .279 0 .451.06L34 4.109zM4.71 17.568c0-.963.61-1.427 1.208-1.427.31 0 .539.117.718.282v-1.488h.682v4.009h-.682v-.287c-.162.195-.396.338-.756.338-.543.004-1.17-.455-1.17-1.427zm1.919.13v-.264c0-.408-.272-.66-.598-.66-.364 0-.636.278-.636.794s.272.79.64.79c.33 0 .594-.244.594-.66zm1.212-2.246c0-.248.18-.451.397-.451.218 0 .398.203.398.45 0 .244-.176.447-.397.447-.219 0-.398-.203-.398-.446zm.054 3.495v-2.745h.682v2.745h-.682zm1.263 0v-2.745h.682v.329c.159-.217.389-.385.673-.385a.507.507 0 01.238.047l-.092.608-.033.039c-.043-.01-.1-.032-.167-.032-.264 0-.49.162-.627.491v1.648h-.674zm1.786-1.379c0-.855.594-1.427 1.254-1.427.723 0 1.225.525 1.225 1.41v.204h-1.83c.036.377.27.62.626.62.313 0 .477-.174.556-.422l.573.061.033.062c-.188.61-.589.91-1.174.91-.732.013-1.263-.559-1.263-1.418zm1.83-.308a.593.593 0 00-.186-.394.552.552 0 00-.398-.148c-.285 0-.527.213-.582.543h1.166zm.974.308c0-.85.565-1.427 1.276-1.427.644 0 1.083.4 1.197 1.02l-.043.052-.564.064c-.062-.285-.255-.48-.589-.48-.348 0-.615.268-.615.758 0 .495.271.764.614.764.335 0 .503-.182.59-.482l.564.065.043.048c-.147.655-.57 1.024-1.197 1.024-.71.025-1.275-.56-1.275-1.406zm3.099.594v-1.331h-.43v-.638h.43v-.78h.092l.59.225v.555h.519v.638h-.52v1.262c0 .178.101.273.268.273.075 0 .126-.017.193-.038l.033.022v.588a1.49 1.49 0 01-.43.053c-.439.008-.745-.247-.745-.829zm2.568-.594c0-.963.614-1.427 1.213-1.427.305 0 .535.117.715.282v-1.488h.685v4.009h-.685v-.287c-.16.195-.398.338-.757.338-.544.004-1.171-.455-1.171-1.427zm1.927.13v-.264c0-.408-.263-.66-.598-.66-.36 0-.631.278-.631.794s.272.79.64.79c.318 0 .588-.244.588-.66zm1.159-.13c0-.855.588-1.427 1.254-1.427.723 0 1.225.525 1.225 1.41v.204h-1.83c.032.377.27.62.626.62.313 0 .473-.174.556-.422l.573.061.033.062c-.188.61-.589.91-1.175.91-.736.013-1.262-.559-1.262-1.418zm1.835-.308a.594.594 0 00-.186-.394.552.552 0 00-.399-.148c-.285 0-.527.213-.586.543h1.172zm1.782 1.388v.3h-.682V14.94h.682v1.531c.184-.173.417-.322.764-.322.594 0 1.162.46 1.162 1.428 0 .963-.605 1.422-1.145 1.422a.96.96 0 01-.429-.084.995.995 0 01-.352-.267zm1.233-1.08c0-.516-.272-.794-.628-.794-.333 0-.601.252-.601.66v.264c0 .416.284.66.589.66.368 0 .64-.274.64-.789v-.001zm1.087-2.116c0-.248.18-.451.396-.451.223 0 .399.203.399.45 0 .244-.176.447-.398.447-.217 0-.397-.203-.397-.446zm.054 3.495v-2.745h.682v2.745h-.682zm1.497-.785v-1.331h-.431v-.638h.431v-.78h.088l.594.225v.555h.514v.638h-.514v1.262c0 .178.096.273.263.273.075 0 .126-.017.196-.038l.033.022v.588a1.51 1.51 0 01-.43.053c-.439.008-.744-.247-.744-.829z" fill="#fff"/></g><defs><clipPath id="pi-unzerdirectdebit"><path fill="#fff" d="M0 0h38v24H0z"/></clipPath></defs></svg>