<svg width="38" height="24" viewBox="0 0 38 24" fill="none" xmlns="http://www.w3.org/2000/svg" role="img" aria-labelledby="pi-unzerbanktransfer"><title id="pi-unzerbanktransfer">Unzer Direct Bank Transfer</title><g clip-path="url(#pi-unzerbanktransfer)"><path opacity=".07" d="M35 0H3C1.3 0 0 1.3 0 3v18c0 1.7 1.4 3 3 3h32c1.7 0 3-1.3 3-3V3c0-1.7-1.4-3-3-3z" fill="#000"/><path d="M35 1c1.1 0 2 .9 2 2v18c0 1.1-.9 2-2 2H3c-1.1 0-2-.9-2-2V3c0-1.1.9-2 2-2h32z" fill="#FC1154"/><path d="M17.69 7.503v4.408h-1.67V8.225c0-.904-.625-1.395-1.207-1.395-.51 0-.905.268-1.287.858v4.229H11.85V8.663a4.402 4.402 0 01-.51.16c-.091 1.872-1.31 3.212-2.965 3.212-1.726 0-2.973-1.447-2.973-3.428V5.152h1.673V8.6c0 .74.34 1.614 1.3 1.614.885 0 1.24-.738 1.296-1.436-.699-.318-1.13-1.08-1.13-2.1 0-1.052.722-1.67 1.419-1.67.889 0 1.387.961 1.38 1.921 0 0 .246-.095.51-.259V5.152h1.673v.582c.571-.506 1.1-.734 1.71-.734.677 0 1.296.26 1.755.721.457.46.7 1.092.7 1.782h.002zm.674-.753h2.834l-2.986 3.854v1.3h5.31v-1.598h-3.006l3.005-3.903v-1.26h-5.157V6.75zm10.581-.81c.564.623.857 1.5.857 2.536v.63h-4.5c.121.832.671 1.33 1.484 1.33.674 0 1.26-.294 1.518-.772l.009-.008h.004l1.315.642-.008.01c-.527 1.093-1.575 1.723-2.866 1.723-1.866 0-3.112-1.415-3.112-3.508 0-.987.33-1.893.932-2.542a2.943 2.943 0 012.18-.965c.885.004 1.638.323 2.188.925zm-.775 1.747c-.141-.701-.663-1.12-1.412-1.12-.686 0-1.207.418-1.407 1.12h2.819zM34 5.1c-.224-.071-.474-.071-.474-.071-.55 0-1.084.226-1.535.66v-.545h-1.673v6.76h1.673v-4.19c.33-.677.834-1.05 1.427-1.05 0 0 .264 0 .431.058L34 5.1zM4.649 18.46v.276H4v-3.684h.649v1.407a1.03 1.03 0 01.73-.296c.562 0 1.108.424 1.108 1.313 0 .884-.578 1.307-1.096 1.307a.955.955 0 01-.742-.323zm1.172-.992c0-.475-.259-.73-.598-.73-.319 0-.578.232-.578.606v.243c0 .383.271.606.566.606.351 0 .61-.251.61-.725zm.996 0c0-.885.582-1.312 1.156-1.312.291 0 .51.108.682.26v-.208h.65v2.523h-.65v-.263c-.151.179-.378.31-.722.31-.518.005-1.116-.418-1.116-1.31zm1.834.119v-.243c0-.374-.26-.606-.574-.606-.343 0-.602.255-.602.73 0 .474.26.725.61.725.31 0 .566-.224.566-.606zm1.224 1.148v-2.523h.649v.331c.184-.207.439-.383.774-.383.518 0 .8.363.8.854v1.725h-.65V17.22c0-.296-.13-.447-.377-.447-.224 0-.439.175-.551.382v1.595h-.642v-.016h-.003zm2.782 0V15.05h.65v1.982h.027l.665-.82h.77l-.888 1.112.944 1.41h-.774l-.709-1.056h-.027v1.056h-.658zm3.714-.722V16.79h-.41v-.586h.41v-.717h.088l.561.207v.51h.495v.586h-.495v1.16c0 .163.096.251.256.251.071 0 .12-.016.183-.036l.032.02v.542a1.47 1.47 0 01-.41.048c-.41.008-.71-.227-.71-.762zm1.599.722v-2.523h.65v.303c.154-.2.374-.35.645-.35.092 0 .172.015.223.043l-.084.555-.036.035c-.04-.008-.091-.028-.155-.028-.255 0-.466.152-.598.455v1.51h-.645zm1.706-1.267c0-.885.585-1.312 1.155-1.312.291 0 .51.108.682.26v-.208h.653v2.523h-.653v-.263c-.152.179-.378.31-.721.31-.51.005-1.117-.418-1.117-1.31zm1.836.119v-.243c0-.374-.25-.606-.57-.606-.342 0-.601.255-.601.73 0 .474.259.725.61.725.303 0 .561-.224.561-.606zm1.229 1.148v-2.523h.65v.331c.183-.207.438-.383.772-.383.518 0 .802.363.802.854v1.725h-.65V17.22c0-.296-.133-.447-.379-.447-.227 0-.438.175-.55.382v1.595h-.641v-.016h-.004zm2.622-.694l.02-.063.494-.16c.056.252.195.427.506.427.192 0 .33-.096.33-.247 0-.16-.106-.227-.51-.347-.469-.12-.736-.35-.736-.761 0-.403.33-.721.832-.721.495 0 .817.242.914.66l-.029.057-.49.131c-.048-.24-.199-.359-.398-.359-.156 0-.271.076-.271.196 0 .16.179.223.602.35.458.14.697.339.697.75 0 .47-.367.837-.929.837-.574-.008-.913-.297-1.032-.75zm2.538.694v-1.937h-.39v-.585h.39V15.8c0-.56.395-.797.806-.797.131 0 .24.02.331.048v.546l-.033.028a.488.488 0 00-.21-.044c-.14 0-.24.08-.24.263v.375h.475v.581h-.475v1.939h-.652l-.002-.005zm1.347-1.267c0-.786.567-1.312 1.197-1.312.689 0 1.167.483 1.167 1.296v.187h-1.744c.034.347.258.57.597.57.299 0 .454-.16.53-.387l.546.056.032.056c-.18.561-.562.836-1.12.836-.698.013-1.205-.513-1.205-1.302zm1.747-.283a.537.537 0 00-.554-.5c-.271 0-.506.197-.558.5h1.112zm1.048 1.55v-2.523h.65v.303c.155-.2.374-.35.646-.35.092 0 .171.015.222.043l-.083.555-.036.035c-.04-.008-.092-.028-.16-.028-.25 0-.461.152-.597.455v1.51h-.642z" fill="#fff"/></g><defs><clipPath id="pi-unzerbanktransfer"><path fill="#fff" d="M0 0h38v24H0z"/></clipPath></defs></svg>