<svg width="38" height="24" viewBox="0 0 38 24" fill="none" xmlns="http://www.w3.org/2000/svg" role="img" aria-labelledby="pi-unzerprepayment"><title id="pi-unzerprepayment">Unzer Prepayment</title><g clip-path="url(#pi-unzerprepayment)"><path opacity=".07" d="M35 0H3C1.3 0 0 1.3 0 3v18c0 1.7 1.4 3 3 3h32c1.7 0 3-1.3 3-3V3c0-1.7-1.4-3-3-3z" fill="#000"/><path d="M35 1c1.1 0 2 .9 2 2v18c0 1.1-.9 2-2 2H3c-1.1 0-2-.9-2-2V3c0-1.1.9-2 2-2h32z" fill="#FC1154"/><path d="M16.888 7.55v4.485h-1.75v-3.75c0-.923-.657-1.422-1.268-1.422-.534 0-.948.271-1.35.872v4.302h-1.755V8.731a6.041 6.041 0 01-.535.162c-.099 1.901-1.377 3.264-3.113 3.264C5.307 12.157 4 10.685 4 8.67V5.155h1.752v3.511c0 .754.358 1.639 1.365 1.639.925 0 1.303-.748 1.358-1.457-.732-.324-1.185-1.098-1.185-2.14 0-1.07.76-1.7 1.491-1.7.933 0 1.453.981 1.45 1.955 0 0 .255-.093.534-.264V5.155h1.755v.591c.598-.51 1.154-.746 1.795-.746.709 0 1.357.264 1.838.734.48.467.735 1.11.735 1.817zm.706-.77h2.97l-3.133 3.921v1.327h5.57V10.4h-3.154l3.154-3.974v-1.28h-5.408V6.78zm11.102-.819c.59.63.896 1.525.896 2.579v.637h-4.718c.125.851.705 1.354 1.554 1.354.708 0 1.323-.3 1.594-.782l.004-.008h.008l1.377.653-.004.007c-.551 1.11-1.652 1.752-3.01 1.752-1.957 0-3.262-1.435-3.262-3.569 0-1.004.345-1.93.979-2.586.297-.313.653-.56 1.045-.73a3.093 3.093 0 011.238-.251c.933.004 1.72.328 2.299.944zm-.816 1.772c-.145-.709-.695-1.135-1.483-1.135-.717 0-1.264.425-1.476 1.135h2.959zM34 5.102c-.237-.073-.5-.073-.5-.073-.579 0-1.138.235-1.61.673v-.556h-1.755v6.882h1.755V7.76c.347-.689.878-1.069 1.495-1.069 0 0 .28 0 .454.06L34 5.102zM4 20v-3.589h.681v.275c.173-.182.417-.328.787-.328.544 0 1.141.434 1.141 1.334 0 .9-.624 1.334-1.224 1.334a1.04 1.04 0 01-.704-.263V20H4zm1.913-2.315c0-.484-.272-.739-.642-.739a.551.551 0 00-.426.172.586.586 0 00-.164.44v.252c0 .38.272.616.607.616.353 0 .624-.26.624-.742l.001.001zm1.169 1.288v-2.562h.685v.303a.872.872 0 01.297-.257.844.844 0 01.376-.099c.098 0 .181.016.236.045l-.091.564-.035.036c-.04-.008-.095-.029-.166-.029-.264 0-.487.155-.625.463v1.536h-.677zm1.79-1.289c0-.8.59-1.334 1.252-1.334.724 0 1.223.491 1.223 1.319v.19h-1.83c.036.352.273.58.627.58.315 0 .476-.163.559-.395l.57.057.035.058c-.188.57-.59.85-1.177.85-.731.017-1.259-.518-1.259-1.325zm1.83-.283c-.035-.309-.271-.508-.586-.508-.14 0-.275.05-.382.143a.609.609 0 00-.2.365h1.169zM11.802 20v-3.589h.685v.275c.172-.182.416-.328.786-.328.544 0 1.141.434 1.141 1.334 0 .9-.622 1.334-1.227 1.334-.284 0-.536-.109-.701-.263V20H11.8zm1.916-2.315c0-.484-.272-.739-.642-.739a.551.551 0 00-.426.172.584.584 0 00-.164.44v.252c0 .38.272.616.606.616.354 0 .626-.26.626-.742v.001zm1.043 0c0-.9.614-1.335 1.212-1.335.307 0 .536.11.716.264v-.21h.68v2.561h-.68v-.263c-.161.182-.397.316-.76.316-.543.008-1.168-.426-1.168-1.334v.001zm1.928.125v-.252c0-.38-.272-.612-.598-.612-.362 0-.633.255-.633.738s.272.742.64.742a.555.555 0 00.427-.174.59.59 0 00.164-.442zM18.31 20l.417-1.091-1-2.499h.78l.491 1.274.027.374h.044l.618-1.648h.723L19.025 20h-.715zm2.486-1.027v-2.562h.681v.3a.909.909 0 01.322-.263.881.881 0 01.403-.09c.307 0 .5.139.614.357.212-.24.48-.357.779-.357.508 0 .786.32.786.828v1.787h-.683V17.34c0-.227-.09-.365-.31-.365-.205 0-.351.122-.46.322v1.677h-.682v-1.625c0-.228-.087-.374-.303-.374-.202 0-.366.155-.457.349v1.65h-.69zm4.038-1.289c0-.8.59-1.334 1.251-1.334.726 0 1.224.491 1.224 1.319v.19h-1.837c.035.352.272.58.625.58.316 0 .477-.163.56-.395l.57.057.035.058c-.188.57-.594.85-1.177.85-.723.017-1.25-.518-1.25-1.325zm1.83-.283c-.036-.309-.271-.508-.586-.508a.576.576 0 00-.383.143.609.609 0 00-.2.365h1.17zm1.099 1.572v-2.562h.68v.337c.19-.215.46-.39.81-.39.544 0 .843.365.843.864v1.76h-.685v-1.545c0-.304-.138-.455-.393-.455-.24 0-.461.175-.58.386v1.622h-.676v-.017zm3.069-.734v-1.244h-.434v-.592h.434v-.734h.09l.59.21v.524h.516v.592h-.515v1.18c0 .17.098.255.268.255a.508.508 0 00.192-.036l.035.024v.547a1.555 1.555 0 01-.433.053c-.436.008-.743-.235-.743-.779z" fill="#fff"/></g><defs><clipPath id="pi-unzerprepayment"><path fill="#fff" d="M0 0h38v24H0z"/></clipPath></defs></svg>