<svg role="img" viewBox="0 0 38 24" width="38" height="24" aria-labelledby="pi-uobezpay" xmlns="http://www.w3.org/2000/svg" xml:space="preserve" version="1.1"><title id="pi-uobezpay">UOB EZPay</title><g stroke="null"><path fill="#000" opacity=".07" d="M35 0H3C1.3 0 0 1.3 0 3v18c0 1.7 1.4 3 3 3h32c1.7 0 3-1.3 3-3V3c0-1.7-1.4-3-3-3z"/><path fill="#fff" d="M35 1c1.1 0 2 .9 2 2v18c0 1.1-.9 2-2 2H3c-1.1 0-2-.9-2-2V3c0-1.1.9-2 2-2h32"/><path stroke="null" fill="#EB202D" d="M9.25 13.23c-.003.277.297.308.477.308h.096c.02 0 .033 0 .055-.004.428-.027.422-.216.422-.303V2.713c.003-.276-.296-.31-.477-.31h-.096c-.18 0-.48.034-.476.31v10.518zm-5.596 0c-.003.277.296.308.477.308h.096c.02 0 .032 0 .055-.004.425-.027.421-.216.421-.303V2.713c.004-.276-.296-.31-.476-.31h-.096c-.18 0-.48.034-.477.31 0 .06-.003.114-.003.174v10.17c0 .003 0 .011.003.03v.144zm1.866 0c-.002.277.297.308.477.308h.097c.016 0 .032 0 .054-.004.425-.027.422-.216.422-.303V2.713c.003-.276-.296-.31-.476-.31h-.097c-.18 0-.48.034-.476.31v10.518zm1.867 0c-.003.277.296.308.477.308h.096c.016 0 .032 0 .052-.004.428-.027.421-.216.421-.303V2.713c.003-.276-.296-.31-.476-.31H7.86c-.18 0-.48.034-.476.31 0 .06-.003.114-.003.174v10.17c0 .003 0 .011.003.03v.144h.003z"/><path stroke="null" fill="#EB202D" d="M2.509 7.353c-.235-.004-.261.348-.261.56v.114c0 .023 0 .038.003.06.023.504.184.5.258.5h8.936c.235.004.264-.348.264-.56v-.114c0-.212-.029-.564-.264-.56-.051 0-.096-.004-.148-.004h-8.64c-.004 0-.01 0-.026.004h-.122z"/><path stroke="null" fill="#223C77" d="M24.743 3.217c-2.517 0-3.637 1.458-3.637 4.727 0 3.192 1.168 4.757 3.576 4.776h.116c2.41-.016 3.581-1.576 3.581-4.776 0-3.269-1.123-4.727-3.636-4.727m.01 8.105h-.02c-1.445 0-2.008-.95-2.008-3.39 0-2.412.54-3.31 1.992-3.31h.048c1.452 0 1.992.898 1.992 3.31 0 2.44-.563 3.39-2.005 3.39M14.641 12c.512.462 1.204.659 2.32.659h.071c1.126 0 1.822-.197 2.327-.659.734-.659.86-1.432.86-2.916V3.75c0-.08.002-.174-.072-.261-.116-.137-.373-.209-.766-.209-.389 0-.646.068-.76.209-.073.087-.073.185-.07.265v5.571c0 .928 0 1.121-.35 1.462-.323.31-.812.348-1.201.348-.39 0-.875-.037-1.197-.348-.348-.337-.348-.526-.348-1.44v-5.59c0-.08.003-.174-.07-.265-.116-.136-.374-.208-.763-.208-.393 0-.65.068-.763.208-.074.087-.074.186-.07.262v5.332c-.007 1.481.118 2.254.852 2.913m20.02-8.165c-.415-.363-.91-.492-1.895-.492H29.53c-.148 0-.267.14-.267.314v8.628c0 .174.12.314.267.314h3.392c.92 0 1.564-.034 2.102-.51.598-.546.727-1.444.727-2.103 0-.867-.248-1.553-.695-1.932-.196-.17-.425-.272-.644-.363l-.148-.06.142-.08c.66-.371.901-.887.891-1.905-.006-.47-.096-1.341-.637-1.81m-3.749.802h1.805c.937 0 1.01.557 1.01 1.288 0 .871-.34 1.242-1.135 1.242h-1.68v-2.53zm1.77 6.636h-1.77V8.48h1.899c1.052 0 1.264.542 1.264 1.41 0 1.173-.366 1.382-1.393 1.382"/><path d="M9.52 21.597v-5.51h2.444v.5h-1.95v1.984h1.599v.5h-1.6v2.023h2.208v.5h-2.7v.003zm3.502 0v-.128l1.616-3.254.421-.848c.145-.288.28-.55.41-.788l-.007-.008h-2.247v-.484h2.951v.128l-1.628 3.269c-.132.265-.27.542-.415.826-.145.284-.28.549-.409.791l.007.008h2.516v.485h-3.215v.003zm9.098-4.014c0 .235-.039.447-.113.628a1.52 1.52 0 01-.299.47 1.301 1.301 0 01-.428.295c-.16.065-.328.099-.499.099h-.843v2.522h-.492v-5.51h1.306c.177 0 .348.034.515.098.168.068.312.163.441.296.129.128.229.287.306.47.067.185.106.393.106.632zm-.499 0c0-.156-.026-.296-.077-.42a.89.89 0 00-.505-.504 1 1 0 00-.37-.069h-.734v1.985h.763a1 1 0 00.35-.064.818.818 0 00.293-.194 1.033 1.033 0 00.28-.734zm4.235 4.014l-.534-1.545H23.34l-.528 1.545h-.483l1.938-5.62h.154l1.937 5.62h-.502zm-1.261-3.715a6.85 6.85 0 01-.129-.405c-.042-.144-.08-.292-.122-.44h-.016a12.91 12.91 0 01-.257.845l-.567 1.685h1.644l-.553-1.685zm3.981 1.166v2.55h-.483v-2.55l-1.783-2.961h.544l1.014 1.685.241.413c.087.151.167.292.241.424h.016l.235-.42c.084-.148.168-.288.251-.42l1.02-1.686h.506l-1.802 2.965z" stroke="null" fill="#00377B"/></g></svg>