<svg role="img" viewBox="0 0 38 24" width="38" height="24" aria-labelledby="pi-upas" version="1.1" xmlns:xlink="http://www.w3.org/1999/xlink" xmlns="http://www.w3.org/2000/svg"><title id="pi-upas">U-Pas</title><defs><linearGradient id="pi-upas-Gradient_4" data-name="pi-upas-Gradient 4" x1="60.6" y1="47.6" x2="25.3" y2="9.8" gradientUnits="userSpaceOnUse"><stop offset="0" stop-color="#ed6305"/><stop offset=".9" stop-color="#c10057"/></linearGradient><linearGradient id="pi-upas-Gradient_12" data-name="pi-upas-Gradient 12" x1="25.5" y1="76.5" x2="39.9" y2="76.5" gradientUnits="userSpaceOnUse"><stop offset=".1" stop-color="#e61d0f"/><stop offset=".9" stop-color="#ea4909"/></linearGradient><linearGradient id="pi-upas-Gradient_121" data-name="pi-upas-Gradient 12" x1="42" y1="74.1" x2="56.5" y2="74.1" xlink:href="#pi-upas-Gradient_12"/><linearGradient id="pi-upas-Gradient_122" data-name="pi-upas-Gradient 12" x1="59" y1="74.1" x2="72.2" y2="74.1" xlink:href="#pi-upas-Gradient_12"/><linearGradient id="pi-upas-Gradient_125" data-name="pi-upas-Gradient 12" x1="37" y1="51.4" x2="66.7" y2="102.9" xlink:href="#pi-upas-Gradient_12"/><linearGradient xlink:href="#pi-upas-Gradient_12" id="pi-upas-linearGradient17" gradientUnits="userSpaceOnUse" x1="25.5" y1="76.5" x2="39.9" y2="76.5"/><clipPath id="pi-upas-clippath-2"><path d="M64.3 70.2c-.2.2-.4.8-.3 1 2.2 2.2 7.8.9 8.2 5.2.4 4.8-5.2 5.2-8.9 4.7-1.4-.2-4.8-2-4.2-3.7.6-1.7 3.1-.5 3.7-.4.9.2 1.4 1.2 2.6 1.3 1.1 0 2.6-.5 1.8-1.8s-7.4-.4-7.8-4.8c-.4-4.4 8.8-6.2 11.6-2.9 2 2.4-.5 2.6-2.5 2.3-2-.3-2.9-2.2-4.2-.9z" clip-path="url(#clippath-1)"/></clipPath></defs><path fill="#000" opacity=".07" d="M35 0H3C1.3 0 0 1.3 0 3v18c0 1.7 1.4 3 3 3h32c1.7 0 3-1.3 3-3V3c0-1.7-1.4-3-3-3z"/><path fill="#b8e1ec" d="M35 1c1.1 0 2 .9 2 2v18c0 1.1-.9 2-2 2H3c-1.1 0-2-.9-2-2V3c0-1.1.9-2 2-2h32" fill-opacity="1"/><g stroke-width="3.629"><path d="M75.8 59.9c-5.9 1.6-12.1.7-17.4-2.2-14.3 8-32.8-1-34-17.8-.3-5-.4-13.4 0-18.3s6.2-9 11.6-7.1c9.2 3.4 4 18.1 5.5 25.5 1.5 7.4 9.5 5.2 10.7 0 .6-5.9-.4-12.4.1-18.2.9-10.5 16.1-10.3 17-.5 1.1 11.4-2.8 25 3.9 35.1.3.5 2.8 3.2 2.5 3.5z" fill="url(#pi-upas-Gradient_4)" transform="translate(5.215 -1.781) scale(.27553)"/><g stroke-width="3.629"><path d="M25.6 86.1V67.6c.4-.8 4.9-1 4.5 1 2.4-2.8 7.7-2.1 9.1 1.5 2.1 5.4-.3 13.3-7.4 10.8l-1.5-1.2v6l-.4.4h-4.2zm6.1-15.4c-2 .6-2 5.9-.4 6.7 1.6.8 3.2 0 3.5-1.5.3-1.5.2-6.1-3.1-5.2z" fill="url(#pi-upas-linearGradient17)" transform="translate(5.215 -1.781) scale(.27553)"/><path d="M51.9 81.2v-1.3c-.9.3-1.4 1-2.5 1.2-5.8 1-7.7-3.2-7.3-8.3.5-5.4 5.5-8 9.6-4.2.1-2.2 3.5-1.9 4.8-.9v13.1l-.4.4zm-3.5-10.5c-2 .5-2 3.6-1.7 5.2.3 1.6 4.2 2.6 5 .2.9-2.6.2-6.2-3.3-5.4z" fill="url(#pi-upas-Gradient_121)" transform="translate(5.215 -1.781) scale(.27553)"/><path d="M64.3 70.2c-.2.2-.4.8-.3 1 2.2 2.2 7.8.9 8.2 5.2.4 4.8-5.2 5.2-8.9 4.7-1.4-.2-4.8-2-4.2-3.7.6-1.7 3.1-.5 3.7-.4.9.2 1.4 1.2 2.6 1.3 1.1 0 2.6-.5 1.8-1.8s-7.4-.4-7.8-4.8c-.4-4.4 8.8-6.2 11.6-2.9 2 2.4-.5 2.6-2.5 2.3-2-.3-2.9-2.2-4.2-.9z" fill="url(#pi-upas-Gradient_122)" transform="translate(5.215 -1.781) scale(.27553)"/><g clip-path="url(#pi-upas-clippath-2)" stroke-width="3.629" transform="translate(5.215 -1.781) scale(.27553)"><path fill="url(#pi-upas-Gradient_125)" d="M16 64.5h70.8v24H16z"/></g></g></g></svg>