<svg width="38" height="24" viewBox="0 0 38 24" role="img" fill="none" xmlns="http://www.w3.org/2000/svg" aria-labelledby="pi-upgradeflexpay"><title id="pi-upgradeflexpay">Flex Pay</title><rect x="1" y="1" width="36" height="22" rx="2" fill="#fff"/><rect x=".5" y=".5" width="37" height="23" rx="2.5" stroke="#000" stroke-opacity=".07"/><path d="M20.985 12.242l1.29-1.765h-.828l-.89 1.247-.885-1.247h-.848l1.295 1.78-1.352 1.851h.824l.947-1.332.947 1.332h.852l-1.352-1.866z" fill="#0E680E"/><path d="M6.479 8.116v4.755a2.17 2.17 0 01-2.622 2.122A3.056 3.056 0 009.11 12.87V8.117H6.479z" fill="#169E03"/><path d="M4.309 14.184A1.308 1.308 0 013 12.876V8.959h2.618v3.917c0 .723-.586 1.308-1.31 1.308z" fill="#0E680E"/><path d="M26.587 12.295c0 1.147-.848 1.918-1.8 1.918-.547 0-1.003-.19-1.318-.519v1.723h-.761v-4.94h.761v.419c.314-.329.767-.52 1.319-.52.951 0 1.799.777 1.799 1.919zm-.738 0c0-.762-.519-1.242-1.185-1.242-.6 0-1.195.485-1.195 1.242s.595 1.242 1.195 1.242c.666 0 1.185-.476 1.185-1.242zm4.931 1.813h-.762v-.419c-.314.329-.771.52-1.318.52-.952 0-1.8-.767-1.8-1.919 0-1.152.848-1.918 1.8-1.918.547 0 1.004.19 1.318.519v-.419h.761v3.636zm-.757-1.813c0-.762-.595-1.242-1.195-1.242-.666 0-1.185.485-1.185 1.242s.519 1.242 1.185 1.242c.6 0 1.195-.476 1.195-1.242z" fill="#169E03"/><path d="M17.858 13.07c-.257.386-.623.481-.98.481-.533 0-1.023-.404-1.1-1.075h2.942v-.262c-.038-1.09-.843-1.837-1.814-1.837-1.023 0-1.88.766-1.88 1.923 0 1.156.862 1.908 1.852 1.908.804 0 1.447-.38 1.747-1.142h-.767v.005zm-.952-2.022c.5 0 .914.295 1.033.885h-2.137c.114-.585.628-.885 1.104-.885z" fill="#0E680E"/><path d="M34.263 10.477v1.76c-.005.736-.576 1.201-1.156 1.201-.645 0-1.147-.46-1.147-1.202v-1.76h-.714v1.76c0 1.106.82 1.856 1.74 1.856.53 0 .973-.184 1.277-.502v.088c0 .65-.42 1.206-1.082 1.206-.663 0-.908-.276-1.17-.686l-.567.373c.281.525.71.981 1.737.981 1.096 0 1.819-.834 1.819-1.856v-3.22h-.737z" fill="#169E03"/><path d="M14.589 8.107h-.743v6.001h.743V8.107zm-2.475 1.527c0-.637.342-.866.8-.866.209 0 .366.034.494.086v-.647a1.681 1.681 0 00-.614-.1c-.809 0-1.408.504-1.408 1.551v.568h-.633v.647h.633v3.23h.728v-3.23h1.147v-.647h-1.147v-.592z" fill="#0E680E"/></svg>