<svg xmlns="http://www.w3.org/2000/svg" role="img" width="38" viewBox="0 0 38 24" height="24" aria-labelledby="pi-urbo"><title id="pi-urbo">Urbo</title><path d="M35 0H3C1.3 0 0 1.3 0 3v18c0 1.7 1.4 3 3 3h32c1.7 0 3-1.3 3-3V3c0-1.7-1.4-3-3-3Z" style="fill-opacity:.07;fill-rule:nonzero"/><path d="M35 1c1.1 0 2 .9 2 2v18c0 1.1-.9 2-2 2H3c-1.1 0-2-.9-2-2V3c0-1.1.9-2 2-2h32Z" style="fill:#fff;fill-rule:nonzero"/><path d="M352.328 0c-30.015 0-54.432 24.487-54.432 54.574S322.319 109 352.328 109c30.01 0 54.557-24.422 54.557-54.426S382.409 0 352.328 0ZM86.073 1.786V67.66c0 11.512-9.358 20.87-20.853 20.87-11.495 0-20.853-9.358-20.853-20.87V27.428L23.898 39.242v28.424c0 22.8 18.539 41.333 41.322 41.333 22.782 0 41.321-18.154 41.321-41.333V1.786H86.073Zm194.039 50.708c4.191-5.404 6.552-12.187 6.552-19.231 0-17.361-14.235-31.478-31.738-31.478H212.67v105.419h46.116c17.425 0 31.602-14.117 31.602-31.478 0-9.068-3.801-17.425-10.276-23.232Zm-101.494 8.973c10.216-5.404 17.059-16.159 17.059-27.944 0-17.491-14.301-31.738-31.874-31.738h-42.387v105.419h20.468V64.545h15.431l23.819 42.659h23.842l-26.358-45.737Zm173.71 27.077c-18.734 0-33.969-15.248-33.969-33.97s15.235-33.97 33.969-33.97 33.97 14.922 33.97 33.97-15.236 33.97-33.97 33.97Zm-82.545-12.868c-.002 6.108-4.955 11.06-11.063 11.06h-25.452v-22.12h25.452c6.108 0 11.061 4.953 11.063 11.06Zm0 .003v-.006.006Zm-36.509-53.284h22.132c6.108 0 11.063 4.955 11.063 11.063 0 6.109-4.955 11.063-11.063 11.063h-22.132V22.395Zm-58.201 11.066c-.002 6.108-4.956 11.06-11.063 11.06h-22.132v-22.12h22.132c6.107 0 11.061 4.953 11.063 11.06Zm0 .003v-.006.006ZM0 1.785l23.712 13.691v.018L44.37 27.421V1.785H0Z" style="fill:#23715f;fill-rule:nonzero" transform="matrix(.06547 0 0 .06547 5.68 8.432)"/></svg>
