<svg xmlns="http://www.w3.org/2000/svg" role="img" viewBox="0 0 38 24" width="38" height="24" aria-labelledby="pi-urpay"><title id="pi-urpay">Urpay</title><path opacity=".07" fill="#000" d="M35 0H3C1.3 0 0 1.3 0 3v18c0 1.7 1.4 3 3 3h32c1.7 0 3-1.3 3-3V3c0-1.7-1.4-3-3-3z"/><path fill="#fff" d="M35 1c1.1 0 2 .9 2 2v18c0 1.1-.9 2-2 2H3c-1.1 0-2-.9-2-2V3c0-1.1.9-2 2-2h32"/><g clip-rule="evenodd" fill="#253e8b" fill-rule="evenodd"><path d="M9.681 3.45h3.631v2.235c-1.398-.024-2.793 0-4.19.07-1.764.662-2.694 1.942-2.791 3.839H4.236c.145-3.542 1.96-5.59 5.445-6.144z" opacity=".902"/><path d="M10.802 7.499h3.491V9.59c-.978-.022-1.956 0-2.932.071-.41.092-.749.38-.907.768-.07 2.046-.094 4.095-.07 6.143H8.149c-.062-2.288.009-4.57.21-6.841.492-1.123 1.306-1.868 2.442-2.234z" opacity=".906"/><path d="M4.264 11.42H6.36c-.023 1.537 0 3.073.07 4.608.727 2.12 2.146 2.795 4.258 2.025.817-.491 1.306-1.213 1.467-2.164.07-1.489.093-2.979.07-4.468h2.094c.023 1.722 0 3.444-.07 5.166-.992 3.115-3.11 4.394-6.354 3.84-1.892-.549-3.078-1.782-3.56-3.7-.07-1.769-.093-3.538-.07-5.307z" opacity=".917"/><path d="M17.54 9.816h.697c-.023.792 0 1.584.07 2.373.593.74 1.198.74 1.815 0 .07-.789.093-1.581.07-2.373h.698c.024.886 0 1.77-.07 2.653-.264.75-.8 1.075-1.605.977-.707.031-1.242-.248-1.606-.837-.07-.93-.093-1.862-.07-2.793zm4.312-.018h1.675v.697a3.427 3.427 0 00-1.326.14c-.07.93-.093 1.862-.07 2.793h-.698a36.89 36.89 0 01.07-3.212c.141-.116.26-.258.349-.418zm2.383.046c2.328-.395 3.142.536 2.443 2.793-.48.471-1.062.658-1.745.558v-.698c1.012.075 1.408-.391 1.187-1.397a.977.977 0 00-.349-.489 1.83 1.83 0 00-1.186.07 47.254 47.254 0 00-.07 3.631h-.698c-.024-1.351 0-2.7.069-4.05.141-.116.26-.258.35-.418zm3.352-.035c.7-.023 1.398 0 2.094.07.492.464.678 1.045.559 1.745l-.07 1.257-.35.42a5.575 5.575 0 01-2.094.07c-.742-.752-.742-1.497 0-2.235a8.508 8.508 0 011.536-.07v.698c-.375-.023-.747 0-1.117.07-.372.28-.372.558 0 .838.428.103.847.08 1.257-.07.629-1.838.024-2.49-1.815-1.956a1.121 1.121 0 010-.836zm3.083.007h.698c-.023.699 0 1.397.07 2.094.235.518.632.681 1.186.49a.973.973 0 00.35-.49c.07-.697.093-1.394.07-2.094h.698a19.323 19.323 0 01-.21 3.91 1.61 1.61 0 01-.628.488 5.65 5.65 0 01-1.955-.07v-.698a4.45 4.45 0 011.187.14c.3-.022.556-.139.768-.349l-1.396-.14a1.07 1.07 0 01-.768-.768 22.704 22.704 0 01-.07-2.513z"/></g></svg>