<svg width="38" height="24" viewBox="0 0 38 24" fill="none" xmlns="http://www.w3.org/2000/svg" role="img" aria-labelledby="pi-usaa"><title id="pi-usaa">USAA</title><g clip-path="url(#pi-usaa-clip0_10420_219348)"><path opacity=".07" d="M35 0H3C1.3 0 0 1.3 0 3v18c0 1.7 1.4 3 3 3h32c1.7 0 3-1.3 3-3V3c0-1.7-1.4-3-3-3z" fill="#000"/><path d="M35 1c1.1 0 2 .9 2 2v18c0 1.1-.9 2-2 2H3c-1.1 0-2-.9-2-2V3c0-1.1.9-2 2-2h32z" fill="#fff"/><path d="M25.943 15.517c-.478 0-.865.359-.865.802 0 .442.387.8.865.8.477 0 .864-.358.864-.8 0-.443-.387-.802-.864-.802zm0 1.458c-.392 0-.71-.294-.71-.656 0-.363.318-.658.71-.658.392 0 .708.295.708.658 0 .362-.316.656-.708.656zM11.238 15.62v2.576c0 1.439.895 1.678 1.645 1.678 1.108 0 1.622-.72 1.622-1.692v-2.561h-.734v2.648c0 .334-.111.959-.888.946-.707-.012-.837-.65-.837-1.06v-2.534h-.808zm6.332.17s-.469-.228-1-.228c-.664 0-1.497.333-1.497 1.246 0 .633.475.932.798 1.087.172.082.381.173.553.264.089.048.441.164.441.539 0 .4-.446.537-.647.537-.716 0-1.203-.32-1.203-.32l.075.804s.293.145 1.168.147c.834-.003 1.436-.529 1.436-1.253 0-.558-.388-.889-.719-1.047-.26-.125-.412-.193-.638-.298-.227-.104-.46-.285-.46-.565 0-.301.28-.517.693-.517.607 0 .851.27 1 .354v-.75zm5.97-.175h-.88l.14.348-1.367 3.58-1.41-3.928h-.88l.139.348-1.456 3.817h.795l.254-.727h1.506l.254.727h1.503l.255-.727H23.9l.253.727h.882l-1.496-4.165zm-4.466 2.874l.585-1.631.521 1.631h-1.106zm3.518 0l.583-1.631.523 1.631h-1.106z" fill="#12395C"/><path d="M26.114 16.343s.172-.059.172-.214c0-.157-.157-.245-.35-.245-.194 0-.311.044-.311.044v.767h.23v-.28h.068l.242.277h.292l-.343-.35zm-.154-.059h-.106v-.255s.19-.016.19.11c0 .127-.084.145-.084.145zm-14.767-5.349l.037 1.302s.325-.236.69-.236c.365 0 .776.258.776.258l3.262 1.87.277-1.175-3.54-2.03s-.41-.255-.775-.255c-.366 0-.727.266-.727.266z" fill="#12395C"/><path d="M11.193 9.233l.037 1.302s.325-.236.69-.236c.365 0 .776.258.776.258l3.614 2.073.275-1.177-3.89-2.23s-.41-.257-.775-.257c-.366 0-.727.268-.727.268z" fill="#12395C"/><path d="M11.193 7.532l.037 1.302s.325-.236.69-.236c.365 0 .776.257.776.257l3.967 2.275.275-1.176-4.242-2.433s-.41-.256-.776-.256c-.366 0-.727.267-.727.267z" fill="#12395C"/><path d="M17.992 5.461l.363 1.536 4.969 2.848s.39.257.774.257.728-.268.728-.268l-.038-1.302s-.311.236-.69.236c-.38 0-.774-.257-.774-.257L19.48 6.307l-.265-.989c0-.041.037-.061.052-.064l.65-.2c.088 0 .139.074.139.136l.034.071c.024.012.122-.035.128-.039v-.389a.488.488 0 00-.494-.488h-.65s-.095-.218-.372-.218h-1.235c-.326 0-.404.301-.404.301l-.858 3.405-3.51-2.013s-.38-.257-.775-.257c-.396 0-.727.267-.727.267l.037 1.302s.293-.236.69-.236c.396 0 .776.258.776.258l4.318 2.475.978-4.168z" fill="#12395C"/><path d="M18.453 7.419l.362 1.543 4.508 2.584s.404.258.775.258c.37 0 .728-.269.728-.269l-.038-1.301s-.288.236-.69.236c-.402 0-.774-.257-.774-.257L18.453 7.42z" fill="#12395C"/><path d="M18.915 9.385l.363 1.543 4.045 2.32s.404.257.775.257c.37 0 .728-.269.728-.269l-.038-1.301s-.288.236-.69.236c-.402 0-.775-.256-.775-.256l-4.408-2.53z" fill="#12395C"/><path d="M19.377 11.353l.362 1.541 3.584 2.055s.404.257.775.257c.37 0 .728-.268.728-.268l-.038-1.3s-.288.235-.69.235c-.402 0-.775-.257-.775-.257l-3.946-2.263z" fill="#12395C"/></g><defs><clipPath id="pi-usaa-clip0_10420_219348"><path fill="#fff" d="M0 0h38v24H0z"/></clipPath></defs></svg>