<svg width="38" height="24" viewBox="0 0 38 24" fill="none" xmlns="http://www.w3.org/2000/svg" aria-labelledby="pi-usdc" role="img"><title id="pi-usdc">USDC</title><g clip-path="url(#pi-usdc-clip0)"><path opacity=".07" d="M35 0H3C1.3 0 0 1.3 0 3v18c0 1.7 1.4 3 3 3h32c1.7 0 3-1.3 3-3V3c0-1.7-1.4-3-3-3z" fill="#000"/><path d="M35 1c1.1 0 2 .9 2 2v18c0 1.1-.9 2-2 2H3c-1.1 0-2-.9-2-2V3c0-1.1.9-2 2-2h32z" fill="#fff"/><path d="M19 20.2a8.2 8.2 0 100-16.4 8.2 8.2 0 000 16.4z" fill="#0B53BF"/><path d="M20.98 13.054c0-1.035-.629-1.384-1.847-1.552-.9-.13-1.075-.34-1.075-.76s.305-.682.888-.682c.53 0 .837.184.963.612a.225.225 0 00.214.164h.466a.208.208 0 00.208-.242c-.148-.675-.603-1.082-1.317-1.209v-.712a.222.222 0 00-.221-.222h-.445a.222.222 0 00-.222.222v.687c-.886.125-1.447.71-1.447 1.462 0 .97.592 1.348 1.828 1.515.84.138 1.08.32 1.08.797 0 .478-.406.798-.98.798-.773 0-1.035-.338-1.122-.777a.224.224 0 00-.218-.18h-.505a.206.206 0 00-.206.24c.13.74.604 1.28 1.57 1.41v.702a.222.222 0 00.222.222h.445a.222.222 0 00.221-.222v-.7c.917-.146 1.5-.779 1.5-1.573z" fill="#fff"/><path d="M17.32 16.597a4.896 4.896 0 010-9.195.354.354 0 00.211-.308v-.458a.232.232 0 00-.208-.253.231.231 0 00-.118.02 5.874 5.874 0 000 11.193.231.231 0 00.326-.233v-.456a.354.354 0 00-.21-.309l-.001-.001zm3.474-10.193a.232.232 0 00-.326.233v.457a.352.352 0 00.211.308 4.896 4.896 0 010 9.196.325.325 0 00-.21.309v.457a.233.233 0 00.326.233 5.874 5.874 0 000-11.193h-.001z" fill="#fff"/></g><defs><clipPath id="pi-usdc-clip0"><path fill="#fff" d="M0 0h38v24H0z"/></clipPath></defs></svg>
