<svg width="38" height="24" viewBox="0 0 38 24" fill="none" xmlns="http://www.w3.org/2000/svg" role="img" aria-labelledby="pi-usdp"><title id="pi-usdp">Pax Dollar</title><path opacity=".07" d="M35 0H3C1.3 0 0 1.3 0 3v18c0 1.7 1.4 3 3 3h32c1.7 0 3-1.3 3-3V3c0-1.7-1.4-3-3-3z" fill="#000"/><path d="M35 1c1.1 0 2 .9 2 2v18c0 1.1-.9 2-2 2H3c-1.1 0-2-.9-2-2V3c0-1.1.9-2 2-2h32z" fill="#fff"/><circle cx="19" cy="12" r="8" fill="url(#pi-paint0_linear_3_214)"/><path fill-rule="evenodd" clip-rule="evenodd" d="M19.667 7.2H18.35v4.196h1.317v.987H18.35v4.195h1.317V7.2z" fill="#fff"/><path fill-rule="evenodd" clip-rule="evenodd" d="M17.034 10.655c0-.38.106-.585.223-.697.121-.116.331-.208.682-.208h4.072v-.987h-4.319c-.513 0-1.002.135-1.364.482-.366.35-.528.845-.528 1.41 0 .59.2 1.062.602 1.366.377.284.854.362 1.29.362h.658v-.987h-.411c-.345 0-.567-.067-.695-.163-.1-.076-.21-.221-.21-.578zm2.633.74v.988h.699c.22 0 .35.087.444.221.107.153.173.386.173.643a.943.943 0 01-.17.5.52.52 0 01-.447.24h-4.443v.987h4.607c.581 0 1.08-.3 1.333-.654.242-.338.354-.748.354-1.073 0-.402-.099-.848-.352-1.209-.266-.38-.772-.642-1.335-.642h-.863z" fill="#fff"/><defs><linearGradient id="pi-paint0_linear_3_214" x1="11" y1="14.24" x2="25.08" y2="6.88" gradientUnits="userSpaceOnUse"><stop stop-color="#004A28"/><stop offset=".495" stop-color="#00A14E"/><stop offset="1" stop-color="#93D536"/></linearGradient></defs></svg>
