<svg xmlns="http://www.w3.org/2000/svg" role="img" viewBox="0 0 38 24" width="38" height="24" aria-labelledby="pi-usdt"><title id="pi-usdt">USDT</title><path fill="#000" opacity=".07" d="M35 0H3C1.3 0 0 1.3 0 3v18c0 1.7 1.4 3 3 3h32c1.7 0 3-1.3 3-3V3c0-1.7-1.4-3-3-3z"/><path fill="#fff" d="M35 1c1.1 0 2 .9 2 2v18c0 1.1-.9 2-2 2H3c-1.1 0-2-.9-2-2V3c0-1.1.9-2 2-2h32"/><g fill-rule="evenodd"><path d="M12.962 4.439l-3.249 6.825a.132.132 0 00.029.154l8.775 8.409a.134.134 0 00.186 0l8.775-8.409a.132.132 0 00.028-.154l-3.249-6.825a.131.131 0 00-.12-.077H13.083a.131.131 0 00-.12.077z" fill="#50af95"/><path d="M19.737 11.964c-.063.005-.388.024-1.114.024-.578 0-.987-.017-1.131-.024-2.232-.097-3.898-.486-3.898-.952s1.666-.853 3.898-.953v1.518c.145.011.564.036 1.141.036.693 0 1.04-.029 1.103-.035v-1.517c2.226.099 3.888.487 3.888.952s-1.66.852-3.889.95zm0-2.06V8.546h3.108V6.475h-8.461v2.071h3.107v1.357c-2.526.117-4.425.617-4.425 1.216s1.899 1.1 4.425 1.216v4.352h2.246v-4.354c2.52-.116 4.416-.615 4.416-1.215s-1.894-1.098-4.416-1.215zm0 0z" fill="#fff"/></g></svg>
