<svg xmlns="http://www.w3.org/2000/svg" width="38" height="24" viewBox="0 0 38 24" fill="none" role="img" aria-labelledby="pi-uzcard"><title id="pi-uzcard">Uzcard</title><g clip-path="url(#pi-uzcard-clip0_2120_85)"><g clip-path="url(#pi-uzcard-clip1_2120_85)"><path d="M1 1h36v22H1V1z" fill="#20407A"/><path d="M14.69 3.452h2.652l.119.069.023.046.024.756.024 5.202.07.504.143.413.165.275.143.16.236.16.261.115.26.069h.38l.284-.069.379-.183.26-.252.19-.367.07-.206.072-.436.023-1.146.024-.297.024-.023h3.079l.023.023v1.214l-.047.573-.095.619-.118.458-.213.55-.166.298-.19.275-.189.23-.19.205-.189.16-.331.253-.308.183-.356.16-.497.161-.213.046-.142.046h-.213l-.143.046-.165.022-.427.023h-1.042l-.52-.045-.38-.07-.095-.045-.26-.046-.616-.252-.379-.206-.331-.252-.285-.252-.284-.344-.237-.367-.213-.435-.19-.55-.118-.504-.094-.825-.024-.62V3.59l.118-.115.213-.023zm15.963 12.031H32.5l.45.069.379.138.284.16.237.206.19.206.189.321.118.344.048.206v.596l-.095.39-.142.32-.19.276-.237.229-.307.183-.308.138-.332.091-.402.046h-1.658l-.071-.046v-3.873zm-5.472 0h2.156l.284.069.308.16.166.138.213.32.095.276.023.137v.298l-.07.321-.143.275-.166.183-.308.184-.19.046.285.504.308.504.355.596.332.55.142.206v.069h-.947l-.095-.115-.284-.481-.38-.665-.33-.573-.261-.458-.64-.023v1.375l-.047.023h-.758l-.071-.046v-3.85l.023-.023zm-4.594 0h1.042l.118.23.356.916.331.825.45 1.123.26.642.048.16-.237.023h-.663l-.07-.023-.143-.344-.119-.298h-1.492l-.236.023-.166.436-.095.206h-.71L19 19.379l.142-.367.403-1.03.379-.94.402-1.009.213-.504.048-.046z" fill="#FEFEFD"/><path d="M20.753 3.43h.236l.119.068.07.39.096.366.19.413.165.252.213.252.308.252.332.183.355.138.426.114.332.07.023.022.024 1.535-.047.07-3.103.022-.024-.023V3.613l.119-.115.166-.069zM5.429 15.46l.781.023.024.023v2.498l-.047.298-.095.275-.142.252-.26.275-.261.16-.38.138-.236.046-.284.023h-.284l-.403-.046-.355-.115-.26-.137-.238-.183-.189-.252-.118-.276-.095-.39-.024-.55v-1.26l.024-.779h.852l.024.023v2.36l.047.23.119.229.166.183.26.138.19.046h.331l.26-.092.214-.138.19-.252.07-.183.024-.23v-2.314l.095-.023zm3.055.023h3.008l.024.023v.504l-.024.16-.284.39-.332.436-.213.275-.331.435-.237.321-.213.275-.237.32.687.024 1.207.023.024.023v.664l-.047.046H8.508l-.024-.023-.023-.619.047-.114.284-.367.663-.87.213-.276.664-.87.047-.07-1.255.024h-.64l-.023-.092v-.596l.023-.046zm6.869-.068h.568l.355.068.38.16.33.23.214.23.142.205v.07l-.568.274-.071.046-.119-.023-.095-.137-.165-.16-.214-.116-.165-.068-.119-.023h-.284l-.284.069-.308.16-.213.183-.166.252-.118.275-.024.115v.458l.095.275.166.252.213.23.331.183.26.069h.38l.26-.092.237-.138.19-.206.07-.091.119.045.592.275.024.07-.213.251-.213.23-.237.16-.38.183-.284.069-.236.023h-.285l-.379-.046-.355-.115-.355-.183-.308-.252-.19-.206-.189-.298-.142-.344-.071-.275-.024-.23v-.205l.048-.344.094-.275.19-.367.213-.252.237-.229.331-.206.26-.115.332-.091.143-.023z" fill="#FEFEFD"/><path d="M32.003 16.194h.26l.403.046.284.114.213.16.166.184.142.275.047.16v.55l-.094.298-.166.252-.19.184-.236.137-.19.069-.26.046h-.616l-.237-.023-.024-.023V16.24l.024-.023.474-.023z" fill="#21407A"/><path d="M21.937 3.452h.64l.615.023.308.023.095.092v1.604h-.166l-.332-.092-.355-.137-.308-.207-.19-.183-.189-.298-.118-.298-.071-.183-.048-.206.024-.115.095-.023z" fill="#AF7950"/><path d="M34.584 14.681h.782l.07.023v.848l-.07.183-.142.207-.213.137-.119.046-.26.023-.308-.092-.19-.16-.095-.115-.094-.229v-.298l.07-.183.166-.206.214-.138.19-.046z" fill="#FEFEFD"/><path d="M26.603 16.194l.544.023.19.091.118.138.071.16v.275l-.095.184-.165.137-.142.069h-1.09v-1.054l.569-.023zm-5.519.16h.047l.356.94.237.641v.07h-1.185l-.07-.047.165-.435.355-.94.095-.229z" fill="#21407A"/></g><path d="M35 .5H3A2.5 2.5 0 00.5 3v18A2.5 2.5 0 003 23.5h32a2.5 2.5 0 002.5-2.5V3A2.5 2.5 0 0035 .5z" stroke="#000" stroke-opacity=".07"/></g><defs><clipPath id="pi-uzcard-clip0_2120_85"><path fill="#fff" d="M0 0h38v24H0z"/></clipPath><clipPath id="pi-uzcard-clip1_2120_85"><rect x="1" y="1" width="36" height="22" rx="2" fill="#fff"/></clipPath></defs></svg>