<svg xmlns="http://www.w3.org/2000/svg" role="img" viewBox="0 0 38 24" width="38" height="24" aria-labelledby="pi-v_pay"><title id="pi-v_pay">V PAY</title><g fill="none" fill-rule="evenodd"><g transform="translate(1 1)"><rect stroke="#1C3378" fill="#1C3378" x="-.5" y="-.5" width="37" height="23" rx="2"/><path d="M36 2v11.783H0V2C0 .9.9 0 2 0h32c1.1 0 2 .9 2 2z" fill="#FFF" fill-rule="nonzero"/></g><g fill-rule="nonzero"><path d="M25.228 2.046l-4.82 11.507h-3.15l-2.373-9.185c-.143-.565-.269-.772-.705-1.013-.719-.385-1.9-.75-2.94-.978l.07-.331h5.065c.646 0 1.227.429 1.374 1.17l1.255 6.659 3.097-7.83h3.127" fill="#1C3378"/><g fill="#FFF"><path d="M13.445 19.444c.118.033.275.042.47.042.722 0 1.161-.37 1.161-1.015 0-.612-.406-.94-1.075-.94-.263 0-.453.026-.556.05v1.863zm-.955-2.565c.345-.066.823-.115 1.474-.115.706 0 1.221.155 1.558.45.314.269.517.701.517 1.218 0 .522-.157.954-.455 1.25-.384.4-.986.587-1.668.587-.178 0-.345-.01-.47-.033v2.077h-.956v-5.434zM19.666 19.992l-.414-1.356c-.103-.335-.188-.711-.268-1.03h-.015c-.078.319-.157.704-.25 1.03l-.407 1.356h1.354zm-1.511.76l-.455 1.561h-.994l1.691-5.508h1.23l1.717 5.508h-1.035l-.478-1.562h-1.676zM23.373 22.313v-2.298l-1.669-3.21H22.8l.636 1.412c.18.411.311.72.455 1.097h.013c.134-.353.285-.696.463-1.097l.636-1.412h1.089l-1.756 3.187v2.321h-.962z"/></g></g></g></svg>
