<svg xmlns="http://www.w3.org/2000/svg" role="img" viewBox="0 0 38 24" width="38" height="24" aria-labelledby="pi-valu"><title id="pi-valu">VaLU</title><g clip-path="url(#pi-valu-a)"><path fill="#000" d="M35 0H3C1.3 0 0 1.3 0 3v18c0 1.7 1.4 3 3 3h32c1.7 0 3-1.3 3-3V3c0-1.7-1.4-3-3-3Z" opacity=".07"/><path fill="#fff" d="M35 1c1.1 0 2 .9 2 2v18c0 1.1-.9 2-2 2H3c-1.1 0-2-.9-2-2V3c0-1.1.9-2 2-2h32Z"/><path fill="#00C4B3" d="M21.56 13.948v1.61a3.254 3.254 0 0 1-3.258-3.259V9.344A.342.342 0 0 1 18.644 9h.92c.19 0 .343.154.343.344v2.954c0 .918.742 1.65 1.655 1.65h-.001Zm-3.983-1.771a3.28 3.28 0 0 0-3.675-3.151c-1.486.178-2.686 1.399-2.848 2.89a3.268 3.268 0 0 0 3.253 3.64 2 2 0 0 0 1.354-.56.178.178 0 0 1 .3.134l-.002.43h1.618v-3.383Zm-3.276 1.76c-.92 0-1.67-.741-1.67-1.655 0-.915.75-1.654 1.67-1.654.922 0 1.671.742 1.671 1.653 0 .912-.747 1.657-1.67 1.657ZM9.417 9.233l-1.656 4.505c-.078.223-.279.234-.364.013l-1.75-4.527a.347.347 0 0 0-.319-.222h-.984a.344.344 0 0 0-.32.467l2.32 6.092h2.483l2.255-6.097A.344.344 0 0 0 10.76 9l-1.02.002a.342.342 0 0 0-.323.23Zm19.38.112v2.965a3.251 3.251 0 0 1-3.262 3.25 3.245 3.245 0 0 1-3.256-3.25V9.344c0-.19.152-.344.342-.344h.92c.19 0 .343.154.343.344v2.955l-.001.01a1.64 1.64 0 0 0 1.652 1.643c.912 0 1.66-.724 1.66-1.643l-.002-.01V9.344c0-.19.154-.344.342-.344h.92c.19 0 .343.154.343.344Z"/><path fill="#FF5100" d="m32.868 12.986.34-.237a.193.193 0 0 0 .047-.268l-.572-.827a.148.148 0 0 1 .121-.231h1.004A.192.192 0 0 0 34 11.23v-.414a.192.192 0 0 0-.192-.193h-1.004a.147.147 0 0 1-.121-.231l.572-.827a.193.193 0 0 0-.048-.268l-.339-.237a.192.192 0 0 0-.268.049l-.84 1.213-.84-1.213a.192.192 0 0 0-.267-.049l-.34.237a.194.194 0 0 0-.047.268l.572.827a.148.148 0 0 1-.121.231h-1.004a.192.192 0 0 0-.192.193v.414c0 .107.086.193.192.193h1.004c.119 0 .188.134.121.232l-.572.827a.193.193 0 0 0 .048.267l.34.237c.086.06.207.039.267-.049l.84-1.213.84 1.213c.06.088.18.109.267.049Z"/></g><defs><clipPath id="pi-valu-a"><path fill="#fff" d="M0 0h38v24H0z"/></clipPath></defs></svg>
