<svg role="img" viewBox="0 0 38 24" width="38" height="24" fill="none" aria-labelledby="pi-ventipay" xmlns="http://www.w3.org/2000/svg"><title id="pi-ventipay">VentiPay</title><g clip-path="url(#pi-ventipay)"><rect width="38" height="24" rx="3" fill="#FFFFFF"/><rect x=".5" y=".5" width="37" height="23" rx="2.5" stroke="#000" stroke-opacity=".07"/></g><defs><clipPath id="pi-ventipay"><path fill="#fff" d="M0 0h38v24H0z"/></clipPath></defs><g fill="#65db95"><path d="M32.128 9.997l.952-.562c.469-.276.75-.776.75-1.317a.924.924 0 00-.927-.921.929.929 0 00-.926.926v1.385c-.005 0-.005.396-.005.396 0 .078.088.13.156.088zM22.67 8.993c-.625 0-1.15.197-1.557.536a.36.36 0 01-.562-.14.362.362 0 00-.333-.225h-1.15a.08.08 0 00-.078.078v4.94c0 .693.562 1.255 1.254 1.255h.51a.08.08 0 00.078-.078v-3.384c0-.853.453-1.327 1.161-1.327s1.125.49 1.125 1.327v2.202c0 .692.562 1.255 1.254 1.255h.5a.08.08 0 00.078-.079v-3.716c0-1.64-.75-2.644-2.285-2.644zM30.65 13.719a1.6 1.6 0 01-.838.229c-.583 0-.943-.297-.943-.994v-2.155a.08.08 0 01.078-.078h1.65a.08.08 0 00.079-.078V9.237a.08.08 0 00-.078-.078h-1.65a.08.08 0 01-.079-.078V7.306a.11.11 0 00-.109-.11h-1.593a.08.08 0 00-.078.079V9.08a.08.08 0 01-.078.078h-1.093a.08.08 0 00-.078.078v1.406a.08.08 0 00.078.078h1.046a.08.08 0 01.078.078v2.53a2.27 2.27 0 002.28 2.27h.037c.78 0 1.416-.641 1.416-1.422v-.396c0-.057-.063-.098-.115-.067zM6.585 9.16a1.101 1.101 0 00-.78-.298c-.916 0-1.51.969-1.093 1.786l.983 1.92 1.099-2.139c.208-.411.14-.921-.214-1.265zM9.714 8.862h-1.9c-.052 0-.083.032.036.089a.912.912 0 01.417.4c.13.256.13.558 0 .818l-1.5 2.925a1.29 1.29 0 000 1.172l.615 1.192a.252.252 0 00.448 0l1.785-3.483v.01l.926-1.806a.902.902 0 00-.832-1.317zM14.576 8.993c-1.973 0-3.212 1.395-3.212 3.331s1.228 3.28 3.238 3.28 2.384-.573 2.894-1.583c.02-.042 0-.089-.037-.11-.41-.213-.983-.515-1.306-.686-.052.02-.078.026-.13.046-.276.604-.74.885-1.38.885s-1.29-.489-1.442-1.265a.078.078 0 01.078-.093h3.379c.557 0 1.004-.448 1.004-1.005v-.042c0-.026-.015-.364-.046-.5-.323-1.295-1.338-2.258-3.04-2.258zm1.26 2.581h-2.562c-.047 0-.088-.046-.078-.093.146-.677.698-1.057 1.348-1.057s1.208.364 1.364 1.057a.078.078 0 01-.078.093zM33.684 9.997l-1.093.64c-.385.224-.624.64-.624 1.083v2.238c0 .812.66 1.474 1.473 1.474h.213a.184.184 0 00.182-.183v-5.168a.102.102 0 00-.15-.089z"/></g></svg>