<svg viewBox="0 0 38 24" xmlns="http://www.w3.org/2000/svg" role="img" width="38" height="24" aria-labelledby="pi-venusplcc"><title id="pi-venusplcc">Venus Credit Card</title><path d="M35 0H3C1.3 0 0 1.3 0 3v18c0 1.7 1.4 3 3 3h32c1.7 0 3-1.3 3-3V3c0-1.7-1.4-3-3-3z" opacity=".07"/><path d="M35 1c1.1 0 2 .9 2 2v18c0 1.1-.9 2-2 2H3c-1.1 0-2-.9-2-2V3c0-1.1.9-2 2-2h32" fill="#fdb515"/><g fill="#fff"><path d="M8.04 10.88l-1.81 3.65-2.1-4.66H3.1c.18.1.35.37.48.6l2.23 4.91h.27l2.79-5.52H7.85c.26.31.36.69.19 1.02zm13.42-.36v3.73l-4-4.39h-.63c.12.16.28.41.28.61v4.91h.57a.926.926 0 01-.3-.66v-3.83l4.09 4.5h.26V9.86h-.56c.17.18.29.41.29.66zm7.06.01v2.83c0 .9-.8 1.78-1.75 1.78-1.09 0-1.76-1.02-1.76-1.9V9.87h-1.05c.13.18.27.38.27.6v2.91c0 1.24 1 2.1 2.27 2.1 1.28 0 2.3-.97 2.3-2.1V9.86h-.57c.18.18.29.42.29.67zm5.3 2.15c-.57-.28-1.4-.48-1.86-.69-.46-.22-.69-.55-.69-.94 0-.59.56-1.04 1.38-1.04.76 0 1.27.55 1.27 1.06l.09.05.34-.53c-.35-.42-.75-.84-1.7-.84-1.11 0-1.94.71-1.94 1.47 0 .67.41 1.13.93 1.36.5.22 1.28.43 1.77.66.49.23.72.54.72.9 0 .57-.63 1.06-1.52 1.06-1.05 0-1.52-.54-1.57-1.08l-.07-.04-.26.47c.37.53 1.07.91 1.9.91 1.22 0 2.1-.78 2.1-1.54.01-.39-.27-.94-.89-1.24zm-19.98 2.44h-2.3v-2.36h1.78c.38 0 .68.3.68.3v-.86s-.29.29-.68.29h-1.78v-2.36h2.01c.86 0 1.1.39 1.1.39l.09-.04-.18-.62h-4.12c.13.16.28.42.28.63v4.26c0 .21-.14.44-.29.62h4.31l.19-.62-.09-.04c.02.02-.24.41-1 .41zm20.9-4.92c-.02-.06-.05-.08-.07-.08.04-.01.07-.02.07-.07 0-.06-.05-.07-.12-.07h-.09V10c.02 0 .03 0 .03.03v.17c0 .02-.01.04-.03.04v.01h.1v-.01c-.02 0-.03-.01-.03-.04v-.06h.02s.03 0 .05.03c.03.08.02.08.08.08h.03v-.01c0-.01-.03-.01-.04-.04zm-.12-.08h-.01V10h.01c.03 0 .06 0 .06.06s-.02.06-.06.06z"/><path d="M34.64 9.87c-.14 0-.25.11-.25.25s.11.25.25.25.25-.11.25-.25-.11-.25-.25-.25zm0 .45a.2.2 0 01-.2-.2c0-.11.09-.2.2-.2.11 0 .2.09.2.2a.2.2 0 01-.2.2z"/></g></svg>