<svg width="38" height="24" fill="none" xmlns="http://www.w3.org/2000/svg" role="img" aria-labelledby="pi-verifonebnpl" viewBox="0 0 38 24"><title id="pi-verifonebnpl">Verifone BNPL</title><g clip-path="url(#clip0_5_1120)"><mask id="pi-verifonebnpl-mask0_5_1120" style="mask-type:luminance" maskUnits="userSpaceOnUse" x="0" y="0" width="38" height="24"><path d="M0 0h38v24H0V0z" fill="#fff"/></mask><g mask="url(#mask0_5_1120)"><path opacity=".07" d="M35 0H3C1.3 0 0 1.3 0 3v18c0 1.7 1.4 3 3 3h32c1.7 0 3-1.3 3-3V3c0-1.7-1.4-3-3-3z" fill="#000"/><path d="M35 1c1.1 0 2 .9 2 2v18c0 1.1-.9 2-2 2H3c-1.1 0-2-.9-2-2V3c0-1.1.9-2 2-2h32z" fill="#fff"/><path d="M21.948 7.97h-7.834m7.834 8.813h-7.834" stroke="#1234FF" stroke-width=".979" stroke-miterlimit="10"/><path d="M20 8.449v1.303c0 .058-.05.117-.089.146l-.058.06L18.03 11.7l-1.88-1.802s-.088-.088-.088-.146V8.449H20zm.969-.97h-5.876v2.282c0 .333.157.647.402.872l2.536 2.419 2.537-2.42c.254-.224.41-.528.41-.87V7.478h-.009z" fill="#1234FF"/><path d="M18.031 13.052l1.822 1.743.058.059c.03.03.088.088.088.147v1.302h-3.936v-1.302c0-.059.049-.118.107-.167l1.861-1.782zm0-1.352l-2.536 2.42a1.147 1.147 0 00-.402.871v2.282h5.876V14.99c0-.333-.157-.646-.411-.872L18.02 11.7h.01z" fill="#1234FF"/><path d="M20.48 15.53s-2.273-1.587-4.897 0v1.253h4.896v-1.254z" fill="#1234FF"/><path d="M27.99 7.44l-.861 2.34a.56.56 0 01-.715.334l-2.35-.842" stroke="#1234FF" stroke-width=".979" stroke-miterlimit="10"/><path d="M23.33 19.045a8.816 8.816 0 01-5.299 1.773 8.815 8.815 0 118.55-10.959" stroke="#1234FF" stroke-width=".979" stroke-miterlimit="10"/><path d="M29.783 16.293a4.897 4.897 0 10-9.793 0 4.897 4.897 0 009.793 0z" fill="#1234FF"/><path d="M20.969 15.314h3.917m-3.917 1.959h3.917m1.469-3.506a2.879 2.879 0 00-1.469-.412 2.934 2.934 0 00-2.938 2.938 2.934 2.934 0 002.938 2.938 2.88 2.88 0 001.47-.411" stroke="#fff" stroke-width=".979" stroke-miterlimit="10"/><path d="M21.948 7.97h-7.834m7.834 8.813h-7.834" stroke="#333" stroke-width=".979" stroke-miterlimit="10"/><path d="M20 8.449v1.303c0 .058-.05.117-.089.146l-.058.06L18.03 11.7l-1.88-1.802s-.088-.088-.088-.146V8.449H20zm.969-.97h-5.876v2.282c0 .333.157.647.402.872l2.536 2.419 2.537-2.42c.254-.224.41-.528.41-.87V7.478h-.009z" fill="#333"/><path d="M18.031 13.052l1.822 1.743.058.059c.03.03.088.088.088.147v1.302h-3.936v-1.302c0-.059.049-.118.107-.167l1.861-1.782zm0-1.352l-2.536 2.42a1.147 1.147 0 00-.402.871v2.282h5.876V14.99c0-.333-.157-.646-.411-.872L18.02 11.7h.01z" fill="#333"/><path d="M20.48 15.53s-2.273-1.587-4.897 0v1.253h4.896v-1.254z" fill="#333"/><path d="M27.99 7.44l-.861 2.34a.56.56 0 01-.715.334l-2.35-.842" stroke="#333" stroke-width=".979" stroke-miterlimit="10"/><path d="M23.33 19.045a8.816 8.816 0 01-5.299 1.773 8.815 8.815 0 118.55-10.959" stroke="#333" stroke-width=".979" stroke-miterlimit="10"/><path d="M29.783 16.293a4.897 4.897 0 10-9.793 0 4.897 4.897 0 009.793 0z" fill="#333"/><path d="M20.969 15.314h3.917m-3.917 1.959h3.917m1.469-3.506a2.879 2.879 0 00-1.469-.412 2.934 2.934 0 00-2.938 2.938 2.934 2.934 0 002.938 2.938 2.88 2.88 0 001.47-.411" stroke="#fff" stroke-width=".979" stroke-miterlimit="10"/></g></g><defs><clipPath id="pi-verifonebnpl-clip0_5_1120"><path fill="#fff" d="M0 0h38v24H0z"/></clipPath></defs></svg>
