<svg xmlns="http://www.w3.org/2000/svg" role="img" viewBox="0 0 38 24" width="38" height="24" aria-labelledby="pi-verve"><title id="pi-verve">Verve</title><path opacity=".07" d="M35 0H3C1.3 0 0 1.3 0 3v18c0 1.7 1.4 3 3 3h32c1.7 0 3-1.3 3-3V3c0-1.7-1.4-3-3-3z"/><path fill="#1b3753" d="M35 1c1.1 0 2 .9 2 2v18c0 1.1-.9 2-2 2H3c-1.1 0-2-.9-2-2V3c0-1.1.9-2 2-2h32"/><circle fill="#d73e2c" cx="8.14" cy="11.78" r="5.74"/><path fill="#fff" d="M8.14 14.23a84.719 84.719 0 01-2.22-5.62H3.95s1.2 3.49 3.42 7.85h1.54c2.22-4.36 3.42-7.85 3.42-7.85h-1.97s-.94 2.72-2.22 5.62zm27.41-.36h-3.83s.09 1.29 1.79 1.29c.85 0 1.7-.26 1.7-.26l.17 1.37s-.85.34-2.04.34c-1.7 0-3.24-.86-3.24-3.26 0-1.89 1.19-3.09 2.9-3.09 2.55 0 2.73 2.57 2.55 3.6zm-2.64-2.41c-1.11 0-1.19 1.2-1.19 1.2h2.38s-.09-1.2-1.19-1.2zm-10.59.38l.26-1.37s-1.97-.6-3.58.51v5.46h1.7V12c.68-.51 1.62-.17 1.62-.17zm-4.65 2.03h-3.83s.09 1.29 1.79 1.29c.85 0 1.7-.26 1.7-.26l.17 1.37s-.85.34-2.04.34c-1.7 0-3.24-.86-3.24-3.26 0-1.89 1.19-3.09 2.9-3.09 2.55 0 2.73 2.57 2.55 3.6zm-2.64-2.41c-1.11 0-1.19 1.2-1.19 1.2h2.38s-.09-1.2-1.19-1.2zm11.44 2.94c-.53-1.29-.96-2.62-1.28-3.98h-1.71s.85 3.3 2.31 6.03h1.37c1.45-2.73 2.31-6.03 2.31-6.03h-1.71c-.32 1.36-.75 2.69-1.28 3.98z"/></svg>