<svg viewBox="0 0 38 24" width="38" height="24" role="img" aria-labelledby="pi-vippspaynlversion" version="1.1" xmlns="http://www.w3.org/2000/svg"><title id="pi-vippspaynlversion">Vipps</title><path fill="#000" opacity=".07" d="M35 0H3C1.3 0 0 1.3 0 3v18c0 1.7 1.4 3 3 3h32c1.7 0 3-1.3 3-3V3c0-1.7-1.4-3-3-3z"/><path fill="#ff5b24" d="M35 1c1.1 0 2 .9 2 2v18c0 1.1-.9 2-2 2H3c-1.1 0-2-.9-2-2V3c0-1.1.9-2 2-2h32" fill-opacity="1"/><path d="M19.46 16.258c2.886 0 4.525-1.404 6.086-3.434.857-1.092 1.952-1.326 2.73-.704.78.623.858 1.796 0 2.887-2.264 2.966-5.15 4.761-8.817 4.761-3.978 0-7.49-2.186-9.912-6.009-.703-1.013-.547-2.108.235-2.652s1.952-.313 2.652.779c1.717 2.574 4.057 4.37 7.022 4.37zm5.382-9.596c0 1.404-1.091 2.34-2.34 2.34-1.247 0-2.339-.936-2.339-2.34s1.092-2.34 2.34-2.34a2.346 2.346 0 012.34 2.34z" fill="#fff"/></svg>