<svg xmlns="http://www.w3.org/2000/svg" width="38" height="24" viewBox="-36 25 38 24" role="img" aria-labelledby="pi-visaelectron"><title id="pi-visaelectron">Visa Electron</title><path fill="#005B9B" d="M2 47.5c0 .8-.7 1.5-1.5 1.5h-35c-.8 0-1.5-.7-1.5-1.5v-21c0-.8.7-1.5 1.5-1.5h35c.8 0 1.5.7 1.5 1.5v21z"/><path fill="#FBAA28" d="M-24.5 38c3.4-1.4 8.1-2.8 14.3-1.4l.1-1.6c-6.6-.7-11.3 1.4-14.4 2.9v.1z"/><path fill="#fff" d="M-30.6 39.1h3.2v1h-2v.9h2v.9h-2v.9h2v.9h-3.2v-4.6zm4-.3h1.2v5h-1.2v-5zm5.1 4.6c-.4.3-1 .5-1.5.5-1.2 0-1.8-.9-1.8-1.7 0-1 .8-1.9 1.8-1.9 1.3 0 1.7.9 1.7 2.1h-2.3c0 .3.2.7.8.7.4 0 .6-.1.9-.3l.4.6zm-.8-1.8c0-.3-.2-.7-.6-.7-.4 0-.6.3-.7.7h1.3zm4.5 1.9c-.3.2-.8.3-1.2.3-1.1 0-1.8-.6-1.8-1.7s.8-1.9 1.9-1.9c.4 0 .9.1 1.1.3l-.4.8c-.2-.1-.4-.1-.5-.1-.6 0-1 .3-1 .9 0 .5.4.9.9.9.2 0 .4-.1.6-.2l.4.7zm.4-3.1h.5v-1.1h1.1v1.1h.9v.8h-.9v1.2c0 .3.1.4.3.4.2 0 .3-.1.4-.2l.3.8c-.3.2-.7.3-1.1.3-.9 0-1-.6-1-1.4V41h-.5v-.6zm3.2 0h1.2v.5c.2-.3.4-.6.8-.6h.4l-.2 1.2c-.1 0-.2-.1-.4-.1-.4 0-.7.3-.7.4v1.9h-1.2l.1-3.3zm4.5-.1c1.2 0 1.9.8 1.9 1.8s-.6 1.8-1.9 1.8c-1.2 0-1.9-.8-1.9-1.8s.6-1.8 1.9-1.8m0 2.7c.6 0 .7-.5.7-.9s-.2-.9-.7-.9c-.6 0-.7.5-.7.9s.1.9.7.9m2.5-2.6H-6v.4c.3-.3.7-.5 1.1-.5.7 0 1.1.4 1.1 1.3v2.2H-5v-2c0-.3-.1-.5-.4-.5-.2 0-.5.2-.6.3v2.2h-1.2v-3.4zm-13.9-6.9l1.5-4.8h1.3l-1.5 4.8h-1.3zm-.5-4.8l-1.2 2c-.3.5-.5.8-.6 1.1v-1.3l-.1-1.9h-2.2v.1c.6 0 .9.3 1 .9l.4 3.8h1.3l2.7-4.8h-1.3v.1zm10.1 4.8v-.7h-1.6l-.3.7h-1.4l2.6-4.8h1.7l.4 4.8h-1.4zm-.2-2.9v-1.1c-.1.2-.4 1-.6 1.3l-.5 1.1h1.1v-1.3zm-5.2 3c-.9 0-1.5-.3-2-.6l.6-.9c.4.2.7.5 1.4.5.2 0 .4-.1.6-.3.2-.3 0-.5-.5-.8l-.3-.2c-.8-.5-1.1-1-.7-1.9.2-.5.8-1 1.8-1 .7 0 1.3.3 1.7.6l-.7 1c-.4-.3-.7-.4-1-.4s-.5.1-.6.2c-.1.3 0 .5.4.7l.3.2c.9.6 1.2 1.2.9 1.7-.4 1-1.1 1.2-1.9 1.2"/></svg>