<svg width="38" height="24" viewBox="0 0 38 24" fill="none" xmlns="http://www.w3.org/2000/svg" role="img" aria-labelledby="pi-vodafone"><title id="pi-vodafone">Vodafone</title><g clip-path="url(#pi-vodafone-clip0)"><path d="M35 .5H3A2.5 2.5 0 00.5 3v18A2.5 2.5 0 003 23.5h32a2.5 2.5 0 002.5-2.5V3A2.5 2.5 0 0035 .5z" stroke="#000" stroke-opacity=".07"/><g clip-path="url(#pi-vodafone-clip1)"><path d="M1 1h36v22H1V1z" fill="#F2140A"/><path d="M18.503 2.604h.97l.474.046.735.137.615.184.19.091v.023l-.616.023-.687.092-.568.137-.545.184-.474.206-.402.206-.38.23-.425.32-.166.138-.119.137-.118.115h-.047l-.048.092-.237.275-.213.297-.237.39-.213.435-.19.55-.094.436-.024.16v.802l.095.505.142.435.166.367.284.412.284.321.166.16.403.298.379.207.473.183.45.114.119.023h.876l.569-.114.45-.16.402-.207.284-.206.237-.206.119-.115.26-.32.237-.39.142-.344.095-.344.047-.252v-.619l-.07-.435-.12-.367-.189-.39-.213-.274-.26-.275-.38-.275-.378-.207-.474-.183-.568-.183-.048-.138.048-.39.142-.412.19-.344.189-.229.26-.275.332-.229.379-.183.426-.138.308.115.331.183.261.16.355.253.26.206.285.252.284.275.26.32.214.276.26.412.26.504.238.642.118.527.071.436.024.32v.459l-.047.458-.095.504-.142.504-.19.482-.237.435-.19.321-.283.39-.285.32-.047.07h-.047l-.048.09-.213.207-.26.206-.356.275-.52.321-.403.206-.569.23-.52.16-.522.114-.52.07-.427.022h-.38l-.639-.046-.544-.091-.616-.16-.497-.184-.592-.275-.498-.298-.402-.298-.261-.229-.19-.16L14.5 12v-.046h-.047l-.166-.183-.332-.413-.284-.435-.237-.435-.19-.459-.141-.458-.119-.573-.047-.504V7.92l.07-.619.143-.573.166-.481.19-.413.213-.39.284-.412.26-.32.284-.298.38-.367.33-.252.404-.275.426-.23.379-.183.473-.183.545-.16.616-.115.403-.046zM14.5 16.285h.971l.024.023v5.065h-.924l-.024-.046-.023-.206-.119.069-.19.137-.236.092-.213.046h-.38l-.402-.092-.26-.138-.237-.183-.19-.206-.19-.321-.117-.298-.072-.298-.023-.229v-.367l.07-.39.12-.32.189-.32.213-.23.19-.16.236-.138.308-.115.237-.045h.568l.427.091v-.94l.023-.458.024-.023zM24.14 17.569h.592l.402.091.38.184.212.16.237.23.19.32.118.275.095.39v.573l-.095.412-.166.367-.19.252-.212.23-.237.16-.308.137-.213.069-.308.046h-.45l-.355-.07-.285-.114-.284-.16-.26-.23-.213-.297-.166-.344-.095-.32-.024-.138v-.573l.095-.367.118-.298.166-.275.213-.229.213-.183.285-.16.284-.092.26-.046zM9.455 17.546l.474.046.379.114.332.184.284.252.19.252.165.343.095.298.023.138v.664l-.094.367-.095.252-.166.275-.213.252-.26.206-.403.184-.284.069-.166.023h-.45l-.355-.07-.285-.114-.237-.137-.236-.207-.166-.183-.19-.32-.142-.413-.047-.252v-.527l.095-.413.19-.412.165-.23.047-.068h.048l.047-.092.237-.183.379-.184.26-.068.38-.046zM32.808 17.569h.521l.403.091.331.16.26.207.19.252.142.275.119.39.047.39v.412l-.047.023h-2.535l.095.344.142.229.19.16.237.092.284.046h.237l.402-.07.285-.114.26-.114.047.023.214.641v.115l-.332.16-.426.115-.498.069h-.45l-.473-.092-.285-.115-.308-.206-.213-.206-.19-.298-.117-.252-.095-.367-.024-.229v-.298l.047-.412.142-.413.143-.252.19-.23.165-.16.26-.16.261-.115.379-.091zM17.555 17.569h.616l.332.069.378.183.214.206.166.275.094.344.024.275v2.429l-.024.023h-.876l-.047-.115v-.137l-.143.069-.236.16-.285.092-.142.023h-.379l-.308-.07-.355-.183-.237-.229-.166-.32-.047-.16v-.46l.119-.274.19-.252.236-.184.284-.137.38-.115.78-.114h.237l-.047-.275-.095-.184-.118-.091-.237-.07h-.308l-.331.093-.332.16-.095.069h-.07l-.261-.527-.024-.16.332-.184.355-.138.426-.091zM28.805 17.637h.569l.331.07.26.137.238.206.142.23.095.228.094.459v2.406l-.023.023h-.948l-.047-.069-.024-2.2-.095-.344-.094-.137V18.6l-.095-.046-.166-.091-.095-.024h-.307l-.261.092-.26.184-.072.045-.023.07L28 21.395h-.971l-.024-.023v-3.644l.877-.023.047.023.024.252.568-.275.284-.069zM21.558 16.217h.45l.474.091.142.07-.024.274-.071.481-.166-.023-.19-.045h-.355l-.213.114-.095.138-.047.229v.16l.83.023v.756h-.83v2.521l-.024.39h-.947l-.024-.023-.023-2.177v-.71h-.474l-.047-.115.023-.642h.498v-.275l.047-.344.118-.32.143-.207.213-.183.26-.115.332-.068zM3.25 17.752h1.09l.142.298.236.55.427.985.237.527.047-.045.355-.848.427-1.009.189-.435.047-.023h.995l-.024.115-.379.848-.307.687-.427.94-.308.687-.165.344-.024.023h-.853l-.07-.069-.309-.642-.26-.572-.403-.871-.426-.917-.237-.527v-.046z" fill="#FEFEFD"/><path d="M24.258 18.37h.355l.213.07.142.091.166.16.142.276.095.39v.228l-.047.298-.119.298-.142.206-.166.138-.19.092-.094.023h-.355l-.237-.092-.142-.092-.166-.183-.118-.252-.071-.252-.024-.344.071-.39.118-.252.143-.183.213-.16.213-.07zM9.337 18.37h.331l.237.07.213.16.166.252.119.367.023.343-.047.321-.118.321-.143.183-.189.16-.26.093H9.36l-.237-.07-.213-.16-.143-.183-.118-.275-.047-.23v-.457l.094-.344.119-.206.19-.207.212-.114.119-.023zM13.695 18.394h.379l.26.069.119.068.023.115v1.673l-.165.183-.285.138-.094.023h-.285l-.26-.092-.237-.206-.142-.23-.095-.298-.024-.137v-.367l.095-.343.142-.23.143-.16.236-.138.19-.068zM18.313 19.608l.071.023v.71l-.095.115-.236.138-.214.068h-.355l-.213-.091-.118-.138-.048-.114.024-.23.142-.206.19-.114.355-.092.497-.069zM32.926 18.325h.26l.19.069.19.137.142.207.095.274-.024.07h-1.16l-.356-.024.024-.16.118-.23.119-.137.237-.16.165-.046z" fill="#F2140A"/></g></g><defs><clipPath id="pi-vodafone-clip0"><path fill="#fff" d="M0 0h38v24H0z"/></clipPath><clipPath id="pi-vodafone-clip1"><rect x="1" y="1" width="36" height="22" rx="2" fill="#fff"/></clipPath></defs></svg>