<svg width="38" height="24" viewBox="0 0 38 24" fill="none" xmlns="http://www.w3.org/2000/svg" role="img" aria-labelledby="pi-volt"><title id="pi-volt">Volt</title><g clip-path="url(#clip0_39_149)"><path opacity=".07" d="M35 0H3C1.3 0 0 1.3 0 3v18c0 1.7 1.4 3 3 3h32c1.7 0 3-1.3 3-3V3c0-1.7-1.4-3-3-3z" fill="#000"/><path d="M35 1c1.1 0 2 .9 2 2v18c0 1.1-.9 2-2 2H3c-1.1 0-2-.9-2-2V3c0-1.1.9-2 2-2h32z" fill="#131735"/><path d="M14.264 9.234l-4.048 8.475-4.047-8.475h1.793l2.254 4.835 2.257-4.835h1.79zM14.264 5.551H6.172v1.484h8.092V5.55zM25.75 5.55h-1.642v11.952h1.643V5.55zM30.066 9.233v-2.2h-1.643v2.2h-1.34v1.483h1.34v6.786h1.643v-6.786h.62c.372 0 .71-.218.874-.563l.44-.92h-1.934zM18.47 9.149c-2.363 0-4.278 1.887-4.278 4.216s1.915 4.216 4.278 4.216c2.362 0 4.278-1.887 4.278-4.216s-1.916-4.216-4.278-4.216zm0 6.85c-1.467 0-2.657-1.18-2.657-2.634s1.19-2.633 2.657-2.633 2.656 1.179 2.656 2.633-1.19 2.633-2.656 2.633z" fill="#6AE69E"/></g><defs><clipPath id="pi-volt-clip0_39_149"><path fill="#fff" d="M0 0h38v24H0z"/></clipPath></defs></svg>