<svg xmlns="http://www.w3.org/2000/svg" role="img" viewBox="0 0 38 24" width="38" height="24" aria-labelledby="pi-vvv_giftcard"> <title id="pi-vvv_giftcard">VVV Giftcard</title> <mask id="pi-vvv_giftcard-a" maskUnits="userSpaceOnUse" x="0" y="0" width="38" height="24"> <path d="M35 0H3C1.3 0 0 1.3 0 3v18c0 1.7 1.4 3 3 3h32c1.7 0 3-1.3 3-3V3c0-1.7-1.4-3-3-3z" fill="#fff"/> </mask> <g mask="url(#pi-vvv_giftcard-a)"> <g transform="translate(1 -1) scale(1.1 1.1)"> <path d="M35.6 0H0v24.7h35.6V0z" transform="translate(-2.1 -.634)" fill="url(#pi-vvv_giftcard-paint0_linear)"/> <path d="M31.333 0L17.267 24.333c-1.7 2.934-5.934 2.934-7.6 0L0 7.633 4.467 0h26.866z" transform="translate(15.833)" fill="url(#pi-vvv_giftcard-paint1_linear)"/> <path d="M8.833 0L4.399 7.633 0 0h8.833z" transform="translate(11.467)" fill="url(#pi-vvv_giftcard-paint2_linear)"/> <path d="M15.8 0l4.4 7.633-4.4 7.634c-1.533 2.666-5.433 2.666-6.967 0L0 0h15.8z" transform="translate(-4.333)" fill="url(#pi-vvv_giftcard-paint3_linear)"/> <path d="M2.65 20.925h18.066c2.033 0 3.3-2.2 2.3-3.967L13.949 1.325c-1.033-1.767-3.567-1.767-4.567 0L.35 16.958c-1 1.767.267 3.967 2.3 3.967z" transform="translate(4.084 15.175)" fill="url(#pi-vvv_giftcard-paint4_linear)"/> <path d="M0 1.9L1.5 0h13.083L16.5 1.9 9 15.75H7.083L0 1.9z" transform="translate(7.75 4.5)" fill="#000" filter="url(#pi-vvv_giftcard-filter0_d)"/> <path d="M7.75 6.4l1.5-1.9h13.083l1.917 1.9-7.5 13.85h-1.917L7.75 6.4z" fill="#20419A"/> <path d="M21.065 11.697a.843.843 0 0 1-.731.425.845.845 0 0 1-.73-.428l-2.612-4.591a.856.856 0 0 1 .31-1.163.838.838 0 0 1 1.151.314l1.885 3.312 1.896-3.306a.84.84 0 0 1 1.153-.31c.402.237.54.758.306 1.165l-2.628 4.582zm-4.363 7.613a.84.84 0 0 1-1.46-.002l-2.612-4.591a.858.858 0 0 1 .31-1.164.838.838 0 0 1 1.151.314l1.885 3.312 1.896-3.305a.838.838 0 0 1 1.152-.31c.403.236.54.757.307 1.164l-2.629 4.582zm-5.821-7.566l-2.612-4.59a.857.857 0 0 1 .31-1.164.838.838 0 0 1 1.15.314l1.886 3.312L13.51 6.31A.839.839 0 0 1 14.662 6c.403.237.54.758.307 1.165l-2.628 4.582a.84.84 0 0 1-1.46-.003zM22.814 4.5H9.186a2.18 2.18 0 0 0-1.884 1.089 2.228 2.228 0 0 0-.026 2.193l6.65 12.083A2.184 2.184 0 0 0 15.815 21a2.182 2.182 0 0 0 1.911-1.095l6.977-12.083a2.227 2.227 0 0 0 .007-2.213A2.181 2.181 0 0 0 22.814 4.5z" fill="#fff"/> </g> </g> <defs> <filter id="pi-vvv_giftcard-filter0_d" x="3.75" y="1.5" width="24.5" height="23.75" filterUnits="userSpaceOnUse" color-interpolation-filters="sRGB"> <feFlood flood-opacity="0" result="BackgroundImageFix"/> <feColorMatrix in="SourceAlpha" values="0 0 0 0 0 0 0 0 0 0 0 0 0 0 0 0 0 0 255 0"/> <feOffset dy="1"/> <feGaussianBlur stdDeviation="2"/> <feColorMatrix values="0 0 0 0 0 0 0 0 0 0 0 0 0 0 0 0 0 0 0.29563 0"/> <feBlend in2="BackgroundImageFix" result="effect1_dropShadow"/> <feBlend in="SourceGraphic" in2="effect1_dropShadow" result="shape"/> </filter> <linearGradient id="pi-vvv_giftcard-paint0_linear" x2="1" gradientUnits="userSpaceOnUse" gradientTransform="scale(-13.4633 -9.34092) rotate(-16.107 -6.972 5.181)"> <stop offset=".002" stop-color="#83D0F5"/> <stop offset=".467" stop-color="#0F99D6"/> <stop offset="1" stop-color="#263680"/> </linearGradient> <linearGradient id="pi-vvv_giftcard-paint1_linear" x2="1" gradientUnits="userSpaceOnUse" gradientTransform="matrix(4.45329 11.4306 -13.49837 3.7711 20.46 -3.131)"> <stop stop-color="#0F99D6"/><stop offset="1" stop-color="#263680"/> </linearGradient><linearGradient id="pi-vvv_giftcard-paint2_linear" x2="1" gradientUnits="userSpaceOnUse" gradientTransform="scale(-7.21422 -6.23472) rotate(82.168 .51 -.707)"> <stop stop-color="#E3127E"/> <stop offset=".005" stop-color="#E3127E"/> <stop offset="1" stop-color="#6F237F"/> </linearGradient> <linearGradient id="pi-vvv_giftcard-paint3_linear" x2="1" gradientUnits="userSpaceOnUse" gradientTransform="scale(-16.5887 -14.1798) rotate(68.915 .606 -.828)"> <stop stop-color="#FBBF07"/> <stop offset=".47" stop-color="#EF8A09"/> <stop offset="1" stop-color="#E74517"/> </linearGradient> <linearGradient id="pi-vvv_giftcard-paint4_linear" x2="1" gradientUnits="userSpaceOnUse" gradientTransform="matrix(1.37159 8.10027 -9.04473 1.22836 13.49 1.677)"> <stop stop-color="#98C12C"/> <stop offset=".999" stop-color="#0A873C"/> <stop offset="1" stop-color="#0A873C"/> </linearGradient> </defs> </svg>
