<svg xmlns="http://www.w3.org/2000/svg" role="img" viewBox="0 0 38 24" width="38" height="24" aria-labelledby="pi-vvvcadeaukaartpaynlversion"><title id="pi-vvvcadeaukaartpaynlversion">VVV Cadeaukaart (PAY. version)</title><defs><linearGradient y2="0" x2=".5" y1="1" x1=".5" id="pi-vvvcadeaukaartpaynlversion_gradient_darkblue"><stop stop-color="#223782" offset="0"/><stop stop-color="#0093d3" offset="1"/></linearGradient><linearGradient y2="0" x2=".5" y1="1" x1=".5" id="pi-vvvcadeaukaartpaynlversion_gradient_lightblue"><stop stop-color="#61cdf5" offset="0"/><stop stop-color="#32a1d5" offset="1"/></linearGradient><linearGradient y2=".841" x2=".757" y1=".204" x1=".098" id="pi-vvvcadeaukaartpaynlversion_gradient_blue"><stop stop-color="#005fbe" offset="0"/><stop stop-color="#0d9fd1" offset="1"/></linearGradient><linearGradient y2=".749" x2=".902" y1=".113" x1="-.084" id="pi-vvvcadeaukaartpaynlversion_gradient_orange"><stop stop-color="#f65f00" offset="0"/><stop stop-color="#fdb700" offset="1"/></linearGradient><linearGradient y2=".651" x2=".833" y1="-.21" x1=".167" id="pi-vvvcadeaukaartpaynlversion_gradient_purple"><stop stop-color="#811c85" offset="0"/><stop stop-color="#ae2078" offset="1"/></linearGradient><linearGradient y2="0" x2=".5" y1="1" x1=".5" id="pi-vvvcadeaukaartpaynlversion_gradient_green"><stop stop-color="#009d23" offset="0"/><stop stop-color="#7eb500" offset="1"/></linearGradient></defs><path d="M35.085.043h-32c-1.7 0-3 1.3-3 3v18c0 1.7 1.4 3 3 3h32c1.7 0 3-1.3 3-3v-18c0-1.7-1.4-3-3-3z" fill="#000" fill-rule="nonzero" opacity=".07" vector-effect="non-scaling-stroke"/><path d="M23.21 1.907l2.886-.923 4.065-.013 3.862-.01c1.314.028 2.834-.145 2.996 2.11l-.04 17.16c.263 3.066-1.764 2.722-1.994 2.74l-4.665.025-7.16-9.925-3.867-7.185 2.057-2.468 1.028-1.235.514-.617.318.34h0z" fill="url(#pi-vvvcadeaukaartpaynlversion_gradient_darkblue)" stroke="null"/><path d="M22.67 12.257l2.246 2.561 7.828 8.177H27.99l-8.106-7.335 2.787-3.403h0z" fill="url(#pi-vvvcadeaukaartpaynlversion_gradient_lightblue)" stroke="null"/><path d="M1.019 14.784c-.01 1.555-.045 3.701-.055 5.256-.133 2.193.768 3.006 2.507 2.983l5.775-.027 8.056-8.772-3.36-2.612L1.02 14.784z" fill="url(#pi-vvvcadeaukaartpaynlversion_gradient_blue)" stroke="null"/><path fill="url(#pi-vvvcadeaukaartpaynlversion_gradient_orange)" d="M16.182 1.016H3.511C2.81.992 1.029.893.99 3.153v12.525s4.804 1.952 7.585 1.567c4.473-.628 5.287-3.793 5.287-3.793l4.37-7.115-2.05-5.32z" stroke="null"/><path d="M11.815 1.03l6.288 6.793H20L26.35.99l-14.535.04z" fill="url(#pi-vvvcadeaukaartpaynlversion_gradient_purple)" stroke="null"/><path d="M16.711 13.533l-7.465 9.463h18.846l-6.88-7.614-4.5-1.849h0z" fill="url(#pi-vvvcadeaukaartpaynlversion_gradient_green)" stroke="null"/><path stroke="null" d="M13.066 5.373c-1.974-.025-2.905 1.348-1.904 3.236l5.849 9.914c.766 1.154 2.515 1.176 3.23-.028.511-.864 5.958-10.16 5.958-10.16.793-1.548-.167-2.965-2.057-2.955l-11.076-.007" fill="#fff"/><path stroke="null" d="M11.833 7.72l2.388 4.05c.314.46 1.145.414 1.403-.012.212-.351 2.433-4.15 2.433-4.15.472-.92-.987-1.84-1.659-.763l-1.504 2.687-1.502-2.777c-.584-.942-2.154-.157-1.56.965M25.281 7.72l-2.39 4.05c-.313.46-1.143.414-1.4-.012-.214-.351-2.435-4.15-2.435-4.15-.471-.92.987-1.84 1.66-.763l1.503 2.687 1.503-2.777c.583-.942 2.154-.157 1.559.965M15.494 13.93l2.39 4.047c.314.462 1.144.417 1.401-.01.214-.35 2.436-4.15 2.436-4.15.47-.92-.989-1.84-1.661-.762l-1.503 2.686-1.504-2.777c-.583-.942-2.153-.157-1.559.966" fill="#004b85"/></svg>
