<svg xmlns="http://www.w3.org/2000/svg" role="img" viewBox="0 0 38 24" width="38" height="24" fill="none" aria-labelledby="pi-wallet"><title id="pi-wallet">Wallet</title><g clip-path="url(#pi-wallet)"><rect width="38" height="24" rx="3" fill="#F5F5F5" /><rect x=".5" y=".5" width="37" height="23" rx="2.5" stroke="#000" stroke-opacity=".07" /><path d="M4 4a1 1 0 0 0 0 2h30a1 1 0 1 0 0-2H4ZM34 8a1 1 0 1 1 0 2h-4.556c-2.328 0-4.161 2.013-5.758 3.766l-.258.283A5.985 5.985 0 0 1 19 16a5.985 5.985 0 0 1-4.428-1.951l-.258-.283C12.717 12.013 10.884 10 8.556 10H4a1 1 0 1 1 0-2h30Z" fill="#707070" /></g><defs><clipPath id="pi-wallet"><path fill="#fff" d="M0 0h38v24H0z"/></clipPath></defs></svg>