<svg xmlns="http://www.w3.org/2000/svg" role="img" viewBox="0 0 38 24" width="38" height="24" aria-labelledby="pi-walley"><title id="pi-walley">Walley</title><path fill="#000" opacity=".07" d="M35 0H3C1.3 0 0 1.3 0 3v18c0 1.7 1.4 3 3 3h32c1.7 0 3-1.3 3-3V3c0-1.7-1.4-3-3-3z"/><path fill="#fff" d="M35 1c1.1 0 2 .9 2 2v18c0 1.1-.9 2-2 2H3c-1.1 0-2-.9-2-2V3c0-1.1.9-2 2-2h32"/><path d="M11.5 9.39v3.28L8.16 11a.51.51 0 00-.45 0l-3.34 1.67V9.39H1.76l1.55.9v3.28a.46.46 0 00.69.35l4-2 3.94 2a.46.46 0 00.69-.35V9.39zM19.34 11.71V14h-1.12v-.56a6.84 6.84 0 01-2.9.69c-1.36 0-2.11-.46-2.11-1.5s1.26-1.56 2.68-1.56a9.1 9.1 0 012.33.33c0-1-1.22-1.11-1.88-1.11a8 8 0 00-2.43.39l-.33-.84a9.78 9.78 0 012.9-.45c1.88 0 2.84.59 2.86 2.33zm-1.12 1v-.45a8.2 8.2 0 00-2.22-.35c-1 0-1.59.19-1.59.67s.48.63 1.27.63a8.7 8.7 0 002.55-.54zM20 8h1.11v6H20zM21.84 8H23v6h-1.16zM28.48 12.47h1.16c-.27 1-1.3 1.64-2.95 1.64-1.85 0-3.13-.76-3.13-2.36s1.33-2.35 3.06-2.35 3.08.67 3.08 2.6h-5c.11.85.8 1.19 2 1.19s1.56-.29 1.77-.72zm-3.69-1.26h3.69c-.2-.66-.83-1-1.86-1s-1.62.28-1.83 1z"/><path d="M35 9.4h1.26l-2.69 4.9C33 15.4 32.38 16 31.19 16a7.43 7.43 0 01-1.56-.18v-1a6.28 6.28 0 001.36.17c.67 0 1-.19 1.44-1v-.07h-.61L29.33 9.4h1.28l2.18 4z"/></svg>