<svg width="38" height="24" viewBox="0 0 38 24" fill="none" xmlns="http://www.w3.org/2000/svg" role="img" aria-labelledby="pi-wbtc"><title id="pi-wbtc">Wrapped Bitcoin</title><path opacity=".07" d="M35 0H3C1.3 0 0 1.3 0 3v18c0 1.7 1.4 3 3 3h32c1.7 0 3-1.3 3-3V3c0-1.7-1.4-3-3-3z" fill="#000"/><path d="M35 1c1.1 0 2 .9 2 2v18c0 1.1-.9 2-2 2H3c-1.1 0-2-.9-2-2V3c0-1.1.9-2 2-2h32z" fill="#fff"/><path fill-rule="evenodd" clip-rule="evenodd" d="M19 4c2.136 0 4.076.837 5.511 2.201A8 8 0 0119 20a8 8 0 010-16z" fill="#282A47"/><path d="M23.959 7.335l-.437.437a6.177 6.177 0 010 8.337l.437.436a6.801 6.801 0 000-9.22v.01zM14.782 7.373a6.178 6.178 0 018.337 0l.437-.436a6.801 6.801 0 00-9.22 0l.446.436zM14.373 16.113a6.177 6.177 0 010-8.333l-.436-.436a6.802 6.802 0 000 9.22l.436-.45zM23.113 16.516a6.177 6.177 0 01-8.337 0l-.436.437a6.801 6.801 0 009.22 0l-.447-.437z" fill="#54588C"/><path fill-rule="evenodd" clip-rule="evenodd" d="M21.701 10.49c-.087-.91-.873-1.216-1.866-1.309V7.927h-.768v1.23h-.614v-1.23h-.762V9.19h-1.558v.822s.567-.01.559 0a.397.397 0 01.436.337v3.456a.269.269 0 01-.093.188.266.266 0 01-.198.067c.01.008-.558 0-.558 0l-.146.917h1.543v1.283h.768v-1.264h.614v1.258h.77v-1.268c1.297-.078 2.202-.398 2.315-1.613.092-.977-.368-1.414-1.102-1.59.446-.22.723-.627.66-1.293zm-1.076 2.732c0 .876-1.378.856-2.007.847l-.149-.002v-1.693l.192-.003c.646-.014 1.964-.043 1.964.85zM18.6 11.605c.527.009 1.667.03 1.667-.769 0-.818-1.104-.789-1.641-.775l-.156.003v1.539c.037 0 .08 0 .13.002z" fill="#fff"/></svg>
