<svg xmlns="http://www.w3.org/2000/svg" role="img" viewBox="0 0 38 24" width="38" height="24" aria-labelledby="pi-webshopgiftcard"> <title id="pi-webshopgiftcard">Webshop Giftcard</title> <path fill="#000" opacity=".07" d="M35 0H3C1.3 0 0 1.3 0 3v18c0 1.7 1.4 3 3 3h32c1.7 0 3-1.3 3-3V3c0-1.7-1.4-3-3-3z"/> <path fill="#fff" d="M35 1c1.1 0 2 .9 2 2v18c0 1.1-.9 2-2 2H3c-1.1 0-2-.9-2-2V3c0-1.1.9-2 2-2h32"/> <g clip-rule="evenodd" fill-rule="evenodd" transform="translate(1.6 -1.6) scale(1.1 1.1)"> <path d="m5.22875 4.72173-.27511-3.18365-.0085-.0952-1.98994-1.4193558c-.09134-.0527599-.20819-.01376361-.26195.0868818l-2.6666022 5.001574c-.05376.10065-.02358834.22538.0672002.27843l1.848412.85935 1.00635-.46796z" fill="#ffe252" transform="translate(8.19202 5.93549)"/> <path d="m3.21353 6.28646 1.92768-.89605c.09079-.05305.12069-.1775.06693-.27843l-2.66633-5.001574c-.05404-.10064541-.17143-.1396417-.26195-.0868818l-1.990213 1.4193558-.289647 3.34996z" fill="#33a2db" transform="translate(18.176 5.93549)"/> <path d="m.223269 1.89936-.223269 2.58695c0 .10867.0894169.1967.199954.1967h5.476936c.11054 0 .19996-.08831.19996-.1967l-.21669-2.50839-2.77385-1.97792z" fill="#c9529e" transform="translate(12.8 15.2258)"/> <path d="m5.14121.896057-1.92768-.896057-.17856.0831545-3.03497 1.4104655.28992 3.34996 1.98994 1.41907c.09024.05305.20791.01434.26195-.08688l2.6666-5.00129c.05349-.10093.02359-.225663-.0672-.278423z" fill="#37559a" transform="translate(18.176 12.129)"/> <path d="m4.9522 4.80172.11081-1.28229.17225-1.98911-3.29307-1.53032-1.8481382.859355c-.09133712.05276-.1209603.177495-.0674746.277845l2.6668828 5.00187c.05348.10064.1706.13993.26194.08659z" fill="#f37b46" transform="translate(8.19202 12.129)"/> <path d="m.216411 2.70509 2.721739 1.94093.56612-.40373 2.15616-1.5372.21669-2.508674c0-.1086743-.08997-.196416-.20023-.196416h-5.476936c-.1105371 0-.199954.0880285-.199954.196416z" fill="#6bbd45" transform="translate(12.8 5.16129)"/> </g> </svg>