<svg xmlns="http://www.w3.org/2000/svg" role="img" viewBox="0 0 38 24" width="38" height="24" aria-labelledby="pi-wechatpaynlversion"><title id="pi-wechatpaynlversion">WeChat (PAY. version)</title><path d="M35 0H3C1.3 0 0 1.3 0 3v18c0 1.7 1.4 3 3 3h32c1.7 0 3-1.3 3-3V3c0-1.7-1.4-3-3-3z" fill="#000" fill-rule="nonzero" opacity=".07" vector-effect="non-scaling-stroke"/><path d="M35 1c1.1 0 2 .9 2 2v18c0 1.1-.9 2-2 2H3c-1.1 0-2-.9-2-2V3c0-1.1.9-2 2-2h32" fill="#0a0" fill-rule="nonzero" vector-effect="non-scaling-stroke"/><path d="M15.149 18.535l-.174.099-.505.293-.223.13-.29.165c-.174.098-.345.205-.518.298a.29.29 0 01-.337-.145.394.394 0 010-.311l.137-.518c.044-.171.091-.342.138-.518.023-.094.049-.187.07-.28a1.77 1.77 0 00.064-.26.588.588 0 00-.064-.336.66.66 0 00-.169-.181c-.119-.088-.238-.179-.355-.26s-.178-.15-.259-.227-.16-.143-.238-.218-.205-.202-.3-.308-.153-.169-.226-.26-.135-.165-.2-.258a6.975 6.975 0 01-.3-.425c-.02-.029-.039-.06-.057-.088a5.49 5.49 0 01-.29-.518c-.062-.125-.122-.26-.176-.373a7.853 7.853 0 01-.246-.66c-.055-.17-.091-.333-.13-.5s-.062-.345-.083-.519a5.852 5.852 0 01.021-1.554 6.544 6.544 0 01.24-1.018c.058-.177.125-.348.195-.519v-.015c.08-.171.16-.342.26-.505a6.842 6.842 0 01.691-1.036l.09-.112c.117-.137.239-.259.363-.396l.14-.138c.13-.13.26-.259.404-.367l.125-.101a8.29 8.29 0 011.013-.7c.14-.083.282-.16.424-.233l.099-.052c.168-.083.337-.16.518-.233a9.067 9.067 0 011.036-.365 10.319 10.319 0 012.529-.391h.492c.365 0 .73.038 1.093.085.171.023.342.05.518.08s.342.07.518.112.345.085.518.14a9.36 9.36 0 011.037.378c.17.075.336.158.518.24h0c.168.091.336.182.5.283a7.974 7.974 0 011.036.73l.028.024c.161.14.322.28.472.433l.078.077c.121.122.235.26.35.386l-.2.088-.228.101-.518.226-.446.2-.065.025-.518.23-1.036.46-1.023.455-.518.228-.319.143-.2.088-.518.23-.422.19-.085.038-.518.228-1.037.459-.777.352a1.324 1.324 0 01-.24.083.876.876 0 01-.519-.065c-.039-.018-.075-.041-.111-.062l-.404-.225-.33-.239-.194-.137-.497-.357h-.013l-.363-.26a.49.49 0 00-.155-.067.29.29 0 00-.298.345c.145.34.306.673.456 1.01l.24.518.094.207c.047.101.093.2.137.3l.234.519.147.326c.029.063.057.127.088.19a3.368 3.368 0 00.26.538.904.904 0 00.16.122.583.583 0 00.547-.026l.176-.103.324-.187 1.036-.593.443-.26.072-.04.518-.296.29-.168.226-.13q.259-.15.518-.295l.156-.09.36-.21 1.036-.594.391-.225.117-.068.518-.298.259-.155.243-.137q.518-.303 1.036-.601l.485-.283.039-.02.5-.309.36-.21.145-.082c.163-.091.319-.192.487-.26.057.12.132.231.197.35.09.171.179.347.259.518a4.62 4.62 0 01.197.513c.054.166.1.332.142.498s.07.342.096.518a4.922 4.922 0 01.052.518c0 .17.013.344 0 .518s-.018.342-.036.518-.05.34-.083.518-.08.34-.13.518a6.24 6.24 0 01-.417 1.036 6.72 6.72 0 01-.65 1.037c-.044.057-.088.114-.135.168q-.14.171-.287.334c-.073.075-.143.15-.215.223s-.218.207-.33.308l-.178.153c-.145.122-.298.241-.454.353l-.07.049c-.168.119-.339.23-.518.337l-.207.121-.298.125a7.27 7.27 0 01-.518.243l-.259.104-.259.106a8.09 8.09 0 01-1.034.31c-.178.045-.305.068-.458.102h-.034c-.17.028-.342.057-.518.08a9.038 9.038 0 01-1.036.08c-.174.003-.345 0-.518 0s-.342 0-.518-.023-.345-.028-.518-.052-.288-.044-.438-.06l-.166-.028c-.132-.028-.26-.054-.396-.085-.177-.042-.348-.088-.519-.135a.81.81 0 00-.518.034" fill="#fff" stroke="null"/></svg>
