<svg xmlns="http://www.w3.org/2000/svg" role="img" viewBox="0 0 38 24" width="38" height="24" aria-labelledby="pi-wegetfinancing"><title id="pi-wegetfinancing">WeGetFinancing</title><g clip-path="url(#pi-wegetfinancing-a)"><path fill="#000" d="M35 0H3C1.3 0 0 1.3 0 3v18c0 1.7 1.4 3 3 3h32c1.7 0 3-1.3 3-3V3c0-1.7-1.4-3-3-3Z" opacity=".07"/><path fill="#fff" d="M35 1c1.1 0 2 .9 2 2v18c0 1.1-.9 2-2 2H3c-1.1 0-2-.9-2-2V3c0-1.1.9-2 2-2h32Z"/><path fill="#3973B9" fill-rule="evenodd" d="M24.68 13.49c-1.592 4.11-4.425 5.06-8.133 4.495 2.505 1.302 7.292.236 8.586-4.369l1.322.673c-.468 2.507-2.666 4.99-6.163 5.59-3.98.682-7.173-1.61-8.457-4.352.172.057.293.094.41.14 1.547.582 3.138.958 4.799.892 2.589-.103 4.504-1.278 5.628-3.655.053-.114.093-.233.15-.373l1.859.96Z" clip-rule="evenodd"/><path fill="#AAA6A5" fill-rule="evenodd" d="M13.51 15.527c-.694-.257-1.298-.473-1.893-.71-.085-.034-.158-.163-.188-.26-.868-2.824-.433-5.426 1.445-7.713 1.679-2.043 3.903-2.964 6.54-2.832 1.371.069 2.635.508 3.789 1.275l-1.031 1.079c-2.94-1.433-5.62-1.156-7.929 1.204-1.734 1.776-2.495 4.896-.733 7.957Z" clip-rule="evenodd"/><path fill="#3973B9" fill-rule="evenodd" d="M21.29 12.566c.003.472.007.954.004 1.434 0 .05-.042.107-.08.148a5.177 5.177 0 0 1-1.992 1.396l-.044-8.391 2.09-.011c.008 1.379.017 2.73.014 4.083" clip-rule="evenodd"/><path fill="#AAA6A5" fill-rule="evenodd" d="m16.507 9 2.065-.011c.008.124.023.236.024.347.01 2.024.017 4.047.038 6.07.002.264-.055.407-.34.436-.572.06-1.142.141-1.751.217a7538.63 7538.63 0 0 0-.036-7.06Z" clip-rule="evenodd"/><path fill="#3973B9" fill-rule="evenodd" d="M15.94 16.007c-.681-.134-1.333-.257-1.982-.397-.058-.012-.132-.128-.133-.196a741.147 741.147 0 0 1-.011-4.644c0-.007.012-.017.035-.047l2.063-.011.028 5.295Z" clip-rule="evenodd"/></g><defs><clipPath id="pi-wegetfinancing-a"><path fill="#fff" d="M0 0h38v24H0z"/></clipPath></defs></svg>
