<svg width="38" height="24" viewBox="0 0 38 24" fill="none" xmlns="http://www.w3.org/2000/svg" role="img" aria-labelledby="pi-wellsfargo"><title id="pi-wellsfargo">Wells Fargo</title><g clip-path="url(#pi-wellsfargo-clip0_10420_219333)"><path opacity=".07" d="M35 0H3C1.3 0 0 1.3 0 3v18c0 1.7 1.4 3 3 3h32c1.7 0 3-1.3 3-3V3c0-1.7-1.4-3-3-3z" fill="#000"/><path d="M35 1c1.1 0 2 .9 2 2v18c0 1.1-.9 2-2 2H3c-1.1 0-2-.9-2-2V3c0-1.1.9-2 2-2h32z" fill="#fff"/><path d="M30.092 15.607c0-1.206-.497-1.908-1.417-1.908s-1.416.702-1.416 1.908c0 1.212.49 1.907 1.416 1.907.927 0 1.417-.695 1.417-1.907zm1.117 0c0 1.484-1.056 2.526-2.534 2.526-1.47 0-2.533-1.042-2.533-2.526 0-1.478 1.069-2.527 2.533-2.527 1.471 0 2.534 1.049 2.534 2.527zm-7.656.217c0 .136.02.225.075.334h.81v1.205c-.265.11-.53.157-.803.157-.98 0-1.492-.701-1.492-1.913 0-1.213.511-1.914 1.438-1.914.62 0 .98.306 1.191.837l.075.19h.49v-1.218a3.985 3.985 0 00-1.804-.422c-1.499 0-2.506 1-2.506 2.533 0 1.54.98 2.52 2.506 2.52.606 0 1.233-.17 1.907-.504v-2.125h-1.812a.638.638 0 00-.075.32zm-4.141-1.24c0-.496-.307-.762-.92-.762h-.803v1.532h.803c.607 0 .92-.279.92-.77zm-5.333 1.39l-.668-1.805-.667 1.805h1.335zm6.654 1.485a.562.562 0 01.061.28c0 .115-.02.204-.06.279a4.2 4.2 0 01-.532.033c-.66 0-.98-.272-1.056-.905l-.027-.239c-.081-.688-.306-.953-1.055-.953h-.375v1.45h.647v.593h-4.284v-.592h.558l-.313-.852h-1.771l-.313.852h.572v.592H10.98v-.592h.477l1.668-4.176h.906l1.703 4.176h.94v-3.583h-.579v-.593h2.738c.974 0 1.607.484 1.607 1.26 0 .77-.633 1.179-1.246 1.206v.02c.62.048.872.395.933.934l.027.252c.041.395.123.572.436.572a.857.857 0 00.143-.014zm-10.38-3.637c.456 0 .613.198.763.77l.047.183h.49V13.23H7.548v.593h.58v3.583h-.58v.592h2.275v-.592H9.14v-1.39h1.403a.71.71 0 00.074-.34.68.68 0 00-.074-.327H9.14v-1.526h1.212zm20.693-4.38c0-.75-.457-1.267-1.315-1.464l-.865-.198c-.504-.116-.715-.313-.715-.647 0-.402.32-.654.947-.654.626 0 .994.225 1.137.756l.062.232h.49V6.289a3.812 3.812 0 00-1.73-.422c-1.165 0-1.914.558-1.914 1.457 0 .695.436 1.205 1.274 1.39l.865.19c.551.123.756.34.756.702 0 .442-.334.688-1.002.688-.756 0-1.144-.3-1.314-.872l-.089-.293h-.49v1.335c.62.306 1.212.443 2.01.443 1.144 0 1.893-.573 1.893-1.465zm-4.36-.3h-.49l-.055.239c-.136.606-.326.796-.776.796h-.946V6.596h.647v-.592h-2.241v.592h.579v3.583h-.58v.592h3.862V9.142zm-4.29 0h-.491l-.055.239c-.136.606-.326.796-.776.796h-.947V6.596h.647v-.592h-2.24v.592h.578v3.583h-.578v.592h3.861V9.142zM8.534 10.77l-1.2-4.175H6.79v-.592h2.22v.592h-.64l.797 2.874.953-3.466h.981l.974 3.473.783-2.88h-.667v-.593h5.776v1.546h-.49l-.048-.184c-.15-.572-.307-.77-.763-.77h-1.13v1.437h1.369a.68.68 0 01.074.327c0 .136-.02.225-.074.34h-1.37v1.479h1.179c.442 0 .64-.191.776-.797l.055-.239h.49v1.628h-4.093v-.592h.579V6.595h-.94l-1.193 4.175h-.946l-.967-3.46-.995 3.46h-.946z" fill="#DD1E25"/></g><defs><clipPath id="pi-wellsfargo-clip0_10420_219333"><path fill="#fff" d="M0 0h38v24H0z"/></clipPath></defs></svg>