<svg xmlns="http://www.w3.org/2000/svg" role="img" viewBox="0 0 38 24" width="38" height="24" aria-labelledby="pi-whishpay"><title id="pi-whishpay">Whish Pay</title><path fill="#000" opacity=".07" d="M35 0H3C1.3 0 0 1.3 0 3v18c0 1.7 1.4 3 3 3h32c1.7 0 3-1.3 3-3V3c0-1.7-1.4-3-3-3z"/><path fill="#EB0045" d="M35 1c1.1 0 2 .9 2 2v18c0 1.1-.9 2-2 2H3c-1.1 0-2-.9-2-2V3c0-1.1.9-2 2-2h32"/><path fill="#FFF" d="M21 9.3c0-.4-.4-.8-.8-.8-.4-.1-.8.2-.9.6-.1.4-.3.8-.4 1.3-.1.2-.1.4-.2.5-.1.3-.2.5-.2.8l-.1.2-.1-.2c-.1-.2-.2-.4-.2-.6-.1-.2-.1-.3-.2-.5l-.6-1.5c-.1-.3-.4-.5-.8-.5s-.7.2-.8.5c-.1.2-.1.3-.2.5-.2.6-.4 1.2-.7 1.8l-.2.6v-.1c0-.1-.1-.2-.1-.3-.1-.2-.2-.5-.2-.7-.2-.5-.3-1.1-.5-1.6-.1-.4-.4-.6-.8-.6H8.9v.1l3.1.7H4.2s-.1 0-.1.1v.1l8 1.1h-10s-.1 0-.1.1v.1l10.6 1.6H6.2v.1l7.1 1.3H9v.1l5.2 1.3h.3c.4 0 .7-.2.8-.5.2-.4.3-.8.5-1.2l.1-.2.3-.9.2-.4v.1c0 .1.1.2.1.2.1.3.2.5.3.8.2.5.4 1.1.7 1.7.2.4.5.6.8.6.1 0 .2 0 .3-.1.4-.1.5-.4.6-.7.5-1.4 1-2.8 1.6-4.6.2-.5.3-.7.2-.9zM26.4 11.2c0-1-.8-1.4-1.9-1.4h-1.7l-1.1 5.6h.9l.4-2.1h.8c1.5-.1 2.6-.7 2.6-2.1zm-2.5 1.3h-.7l.4-2h.7c.7 0 1.1.2 1.1.8.1.8-.5 1.2-1.5 1.2zm4.6-2.8l-3 5.6h1l.8-1.6h1.8l.1 1.6h1l-.6-5.6h-1.1zm-.8 3.4l.4-.8c.3-.6.5-1.1.8-1.8 0 .6.1 1.2.1 1.8l.1.8h-1.4zm6.7-3.4l-.9 1.5c-.3.4-.5.8-.7 1.2-.1-.4-.2-.8-.2-1.2l-.3-1.5h-1l.9 3.5-.4 2.1h.9l.4-2.1 2.4-3.5h-1.1z"/></svg>