<svg xmlns="http://www.w3.org/2000/svg" role="img" viewBox="0 0 38 24" width="38" height="24" aria-labelledby="pi-whishcheckout"><title id="pi-whishcheckout">Whish Checkout</title><path fill="#000" opacity=".07" d="M35 0H3C1.3 0 0 1.3 0 3v18c0 1.7 1.4 3 3 3h32c1.7 0 3-1.3 3-3V3c0-1.7-1.4-3-3-3z"/><path fill="#fff" d="M35 1c1.1 0 2 .9 2 2v18c0 1.1-.9 2-2 2H3c-1.1 0-2-.9-2-2V3c0-1.1.9-2 2-2h32"/><path fill="#e81c48" d="M16.638 7.92h18.896v6.458c-.258.877-.863 1.481-1.759 1.702H18.447c-1.05-.256-1.73-1.046-1.811-2.126l.002-6.034zm3.203 3.016c-1.479.238-1.071 3.067.556 1.866-.233-.49-.225-.252-.516-.222-.712.074-.325-1.308.189-1.147.076.023.12.148.202.135.049-.007.317-.219.328-.276.056-.296-.54-.391-.759-.356zm5.901.63c.08.036.619-.249.241-.515-.578-.406-1.4.178-1.492.812-.103.706.131 1.342.964 1.21.166-.026.522-.181.435-.374-.156-.347-.235-.155-.435-.125-.786.118-.383-1.362.218-1.116.061.025.062.105.07.108zm3.247-.63c-1.081.146-1.306 2.05-.214 2.14 1.39.117 1.674-2.335.214-2.14zm-7.426.038c-.095.017-.522-.025-.55.002-.076.073-.287 1.803-.405 2.05.13-.023.465.044.556-.021.091-.066.105-.77.177-.783l.523.004-.15.8.558-.029.397-2.023c-.102.02-.506-.031-.548.005-.046.039-.082.615-.15.717-.049.073-.444.007-.559.028l.151-.75zm2.814 0h-1.306l-.402 2.052h1.357c.022 0 .043-.404.05-.45h-.754c.042-.576.358-.253.672-.358.116-.039.092-.37.132-.493h-.603c-.163-.524.712-.206.804-.301.015-.016.03-.377.05-.45zm2.714 0h-.552l-.403 2.052c.13-.023.466.044.557-.021.097-.07.031-.697.373-.73.043 0 .202.72.231.746.043.037.492-.015.598.005l-.435-1.177.737-.875c-.164.028-.526-.052-.653.025-.133.08-.365.541-.553.626l.1-.651zm3.92 0c-.117.024-.476-.038-.546.006-.055.035-.251 1.135-.258 1.272-.027.614.314.9.926.82.859-.113.74-1.464.983-2.074-.109-.014-.466-.068-.545-.018-.06.038-.216 1.17-.306 1.373-.08.184-.311.34-.46.152-.162-.205.206-1.23.206-1.53zm2.915 0h-1.533c-.073 0-.115.368-.125.45l.503.026-.303 1.576c.146-.026.4.037.523.003.098-.027.275-1.545.334-1.602.033-.032.524.024.55-.003.016-.016.03-.377.051-.45z"/><path fill="#e81c48" d="M15.934 7.92l.001 6.232c.085.762.449 1.372.954 1.928H2.466V9.672c.243-.908.894-1.527 1.809-1.752h11.66zm-5.653 2.303H7.994l.063.112 1.244.388H5.557c-.031 0-.097.104-.076.15l3.77.501H4.425c-.038.175.248.081.335.142l4.64.71H6.587l.128.147 3.138.603H8.094c-.018.108.048.12.127.15.496.192 2.088.572 2.625.638.234.029.463.053.609-.169.204-.31.322-.932.507-1.296.024-.048.032-.12.102-.124.07.055.41 1.273.603 1.478.098.103.189.12.326.128.401.021.427-.122.567-.441.266-.602.618-1.629.792-2.266.111-.41.087-.855-.453-.856-.571-.001-.67 1.113-.855 1.557-.02.048-.005.114-.074.1-.104-.318-.444-1.554-.74-1.642-.782-.23-.884 1.01-1.118 1.519-.023.05-.031.117-.102.123-.12-.34-.36-1.573-.73-1.652zM28.711 12.514c-.121-.121-.063-.59.002-.751.094-.237.425-.513.6-.225.283.464-.256 1.318-.602.976z"/></svg>