<svg xmlns="http://www.w3.org/2000/svg" role="img" viewBox="0 0 38 24" width="38" height="24" aria-labelledby="pi-wise"><title id="pi-wise">Wise</title><g><path d="M35,0L3,0C1.3,0 0,1.3 0,3L0,21C0,22.7 1.4,24 3,24L35,24C36.7,24 38,22.7 38,21L38,3C38,1.3 36.6,0 35,0Z" style="fill-opacity:0.07;fill-rule:nonzero;"/><path d="M35,1C36.1,1 37,1.9 37,3L37,21C37,22.1 36.1,23 35,23L3,23C1.9,23 1,22.1 1,21L1,3C1,1.9 1.9,1 3,1L35,1Z" style="fill:white;fill-rule:nonzero;"/><g transform="matrix(0.254598,0,0,0.254598,5.57478,8.94482)"><path d="M58.738,0.359L65.236,0.359L61.966,23.681L55.468,23.681L58.739,0.359L58.738,0.359ZM50.545,0.359L46.16,13.794L44.247,0.359L39.702,0.359L33.96,13.754L33.243,0.36L26.944,0.36L29.137,23.682L34.36,23.682L40.818,8.932L43.09,23.682L48.233,23.682L56.725,0.359L50.545,0.359ZM105.103,13.914L89.674,13.914C89.754,16.944 91.568,18.937 94.239,18.937C96.253,18.937 97.847,17.86 99.083,15.807L104.291,18.175C102.501,21.702 98.729,24 94.08,24C87.741,24 83.535,19.734 83.535,12.877C83.535,5.342 88.478,0 95.455,0C101.595,0 105.462,4.146 105.462,10.605C105.462,11.681 105.342,12.757 105.103,13.914ZM99.323,9.448C99.323,6.738 97.807,5.023 95.376,5.023C92.864,5.023 90.791,6.817 90.232,9.448L99.323,9.448ZM6.632,7.387L0,15.139L11.844,15.139L13.174,11.484L8.1,11.484L11.2,7.898L11.21,7.803L9.194,4.332L18.266,4.332L11.234,23.682L16.046,23.682L24.538,0.358L2.6,0.358L6.633,7.386L6.632,7.387ZM75.8,5.023C78.092,5.023 80.1,6.256 81.855,8.369L82.776,1.794C81.143,0.688 78.93,0 76,0C70.18,0 66.91,3.409 66.91,7.734C66.91,10.734 68.585,12.568 71.336,13.754L72.651,14.352C75.103,15.399 75.761,15.917 75.761,17.023C75.761,18.169 74.655,18.897 72.971,18.897C70.189,18.907 67.937,17.482 66.243,15.05L65.303,21.749C67.234,23.22 69.708,24 72.97,24C78.502,24 81.9,20.81 81.9,16.385C81.9,13.375 80.565,11.442 77.196,9.927L75.761,9.249C73.767,8.362 73.09,7.874 73.09,6.897C73.09,5.841 74.017,5.023 75.8,5.023Z" style="fill:rgb(22,51,0);fill-rule:nonzero;"/></g></g></svg>