<svg xmlns="http://www.w3.org/2000/svg" role="img" viewBox="0 0 38 24" width="38" height="24" aria-labelledby="pi-wissel"><title id="pi-wissel">Wissel.nl</title><path d="M35 0H3C1.3 0 0 1.3 0 3v18c0 1.7 1.4 3 3 3h32c1.7 0 3-1.3 3-3V3c0-1.7-1.4-3-3-3" opacity=".07"/><path fill="#ea9e2f" d="M35 1c1.1 0 2 .9 2 2v18c0 1.1-.9 2-2 2H3c-1.1 0-2-.9-2-2V3c0-1.1.9-2 2-2z"/><path fill="#fff" d="M-2.838 18.715h.569l.176-.541.176.54h.569l-.46.335.175.54-.46-.334-.46.334.175-.54zM-9.438 21.1h.569l.176-.541.176.54h.569l-.46.335.175.54-.46-.334-.46.334.175-.54z"/><path fill="#fff" d="M32.277 14.424c.057-.82.11-1.685.177-2.583a1.09 1.09 0 0 0-.841-1.13c-.032-.011-.057-.011-.089-.011-1.795-.213-3.6-.266-4.976-.29a1.065 1.065 0 0 0-1.074.986c-.056.82-.11 1.685-.177 2.583a1.09 1.09 0 0 0 .842 1.13c.031.012.056.012.088.012 1.795.212 3.601.265 4.976.29.555 0 1.042-.432 1.074-.987z"/><path fill="#95d9f1" d="M30.825 14.668q-2.693 0-5.386-.3a.86.86 0 0 1-.753-.887c.067-1.23.134-2.47.187-3.714.022-.432.4-.81.83-.81q2.694 0 5.387.3a.86.86 0 0 1 .752.888c-.067 1.23-.134 2.47-.187 3.714a.85.85 0 0 1-.83.81z"/><path fill="#fff" d="M33.973 11.523c-.155-1.152-.321-2.371-.487-3.626-.1-.742-.753-1.318-1.485-1.318h-.12c-2.537.223-5.064.664-6.972 1.007-.778.145-1.318.898-1.209 1.661.156 1.152.322 2.371.488 3.626.099.742.752 1.318 1.484 1.318h.12c2.538-.223 5.064-.664 6.973-1.007.777-.145 1.318-.898 1.208-1.661z" /><path fill="#7db545" d="M32.63 12.587c-2.282.42-4.576.798-6.87.996a.874.874 0 0 1-.908-.752c-.166-1.24-.332-2.46-.498-3.68a.866.866 0 0 1 .685-.943c2.283-.42 4.577-.799 6.87-.997a.874.874 0 0 1 .909.753c.166 1.24.332 2.46.498 3.68.067.43-.254.85-.686.943z"/><path fill="#fff" d="M27.997 15.191a.85.85 0 0 0-.498-.675v-.01c.021-.322.057-.644.078-.955.032-.31.056-.664.088-1.007l.01-.077c.047-.608.1-1.24.135-1.874.032-.653-.276-1.074-.898-1.265-.43-.134-1.053-.212-1.43.11-.29.254-.301.608-.312.72-.01.312-.032.623-.056.944-.01-.01-.032-.02-.046-.031a4 4 0 0 0-.488-.244c-.477-.198-1.007-.198-1.52-.135-.487.068-.986.223-1.374.545-.156.134-.3.265-.431.42a1.4 1.4 0 0 0-.255-.353 1.87 1.87 0 0 0-.799-.467c-.908-.265-2.095-.067-2.78.633a1.2 1.2 0 0 0-.213-.244c-.4-.332-.887-.498-1.452-.498-.166 0-.333.01-.52.046-.442.067-1.064.212-1.551.731-.046-.077-.089-.155-.145-.222.021-.011.032-.022.046-.032.442-.322.632-.919.442-1.386-.188-.455-.7-.763-1.252-.763h-.067c-.555.021-1.24.364-1.396.93-.144.487-.01.83.12 1.042a.8.8 0 0 0-.197-.067c-.3-.067-.566-.134-.866-.156h-.134c-.577 0-.82.276-.93.555a1.7 1.7 0 0 0-.353-.3c-.378-.233-.753-.265-1.11-.265h-.378c-.389 0-.71.198-.866.52a1 1 0 0 0-.587-.365 8 8 0 0 0-1.152-.155h-.077a.87.87 0 0 0-.665.276c-.177.212-.233.477-.155.809.046.198.099.4.145.597l.031.145c.089.322.166.643.255.965.166.643.343 1.307.509 1.961.134.534.487.898.954.997.41.088.83.099 1.22.099.42 0 .71-.379.798-.665.177.332.488.555.887.633.187.046.4.056.622.067h.046c.664 0 .975-.212 1.23-.841.077-.187.155-.378.222-.566l.01-.031c.022-.067.057-.135.079-.198q-.046.747.353 1.198c.276.3.675.442 1.173.442.198 0 .654 0 .898-.354q.047.034.11.067a3.5 3.5 0 0 0 1.607.378c.39 0 .789-.067 1.142-.176.254-.089.488-.223.686-.389.045.032.077.057.134.088a3.5 3.5 0 0 0 2.947.29c.4-.134.732-.389.954-.731.4.487.965.798 1.64.876.198.021.389.032.555.032.7 0 1.265-.187 1.739-.576.056-.046.099-.089.145-.135.12.213.29.379.477.499q.368.233.82.233c.243 0 .477-.057.72-.155.622-.255.986-.866.92-1.474zm-14.185 1.24c-.021-.01-.032-.01-.057-.02.022 0 .046.01.057.02zm.12.047c.021.01.046.01.067.02-.021-.01-.046-.01-.067-.02zm.18.053c.022.01.046.01.067.02a.2.2 0 0 1-.067-.02zm.188.056c.02 0 .046.01.067.01-.021 0-.046-.01-.067-.01zm.198.046c.02 0 .031.01.056.01-.021-.01-.032-.01-.056-.01zm.243.032h.032zm.191.01H15a.08.08 0 0 1-.067 0zm.188.011h.056zm.31-.01zm.255-.032s.032 0 .046-.01c-.01.01-.021.01-.046.01zm.286-.046s.032-.01.046-.01c-.01 0-.032 0-.046.01z"/><path d="M7.949 12.919c-.01.067-.021.12-.032.187-.056.322-.12.643-.187.976-.12.607-.244 1.219-.378 1.816-.021.099-.145.244-.223.244-.364 0-.742-.01-1.095-.088-.255-.057-.42-.276-.499-.555l-.763-2.926c-.067-.234-.12-.467-.177-.7-.056-.255.01-.364.265-.343.354.021.721.067 1.064.145.244.046.332.254.343.488.046.52.056 1.053.166 1.572.021.089.046.188.088.265l.032.032c.265.11.42-1.318.456-1.474q.07-.381.156-.763.067-.299.364-.3c.399.01.798-.057 1.162.176.198.12.322.276.343.51.057.508.099 1.02.177 1.53.01.077.02.155.067.212.11.197.254.088.3-.078.078-.255.089-.544.135-.81q.086-.547.155-1.095c.057-.389.12-.467.509-.442.254.01.509.078.763.134.234.057.332.234.29.456-.088.39-.166.778-.31 1.142-.301.82-.644 1.64-.966 2.449-.166.41-.254.466-.7.466-.166 0-.342-.01-.508-.056-.3-.057-.488-.255-.545-.555-.11-.597-.197-1.209-.29-1.806-.02-.166-.045-.343-.056-.509a8 8 0 0 0-.078-.456M15.342 16.255c-.544.01-1.085-.11-1.474-.311-.388-.212-.455-.587-.155-.919.155-.177.343-.177.534-.067.321.198.675.276 1.042.223.156-.022.322-.057.343-.255.021-.177-.078-.265-.223-.332-.31-.145-.597-.3-.908-.442-.753-.343-.866-1.364-.509-1.94.322-.534.82-.72 1.385-.799.534-.077 1.054-.046 1.51.322.233.187.332.742.176 1.053-.11.223-.608.442-.866.343-.088-.032-.134-.166-.198-.265-.088-.12-.155-.311-.275-.364-.187-.089-.41-.046-.576.12-.156.156-.177.332 0 .466.212.145.442.276.675.364.3.11.586.223.82.467.29.29.441.71.388 1.12-.099.866-.876 1.198-1.685 1.22zM12.582 16.177c-.664 0-.975-.332-.93-.986.078-1.141.177-2.283.255-3.424.01-.198.11-.29.29-.276.212.01.431.021.643.067.311.078.477.389.442.788-.078 1.163-.166 2.34-.244 3.503-.01.275-.088.332-.456.332zM12.681 11.078a.75.75 0 0 1-.597-.177c-.177-.166-.198-.41-.134-.633.067-.244.455-.477.84-.498.322-.01.633.145.732.389.078.198 0 .498-.233.664-.177.12-.4.233-.608.255zM24.33 14.725a.46.46 0 0 0-.344.155c-.198.276-.441.354-.763.3-.332-.056-.477-.29-.576-.565-.067-.187 0-.275.212-.3.42-.057.841-.11 1.251-.233.82-.255 1.22-.82 1.096-1.65-.032-.255-.11-.52-.364-.676a2.35 2.35 0 0 0-1.407-.332c-.442.032-.919.145-1.265.431-.887.732-1.12 1.707-1.021 2.792.02.212.098.42.197.608.3.576.8.887 1.442.965.665.077 1.297.031 1.841-.41a.6.6 0 0 0 .213-.654c-.078-.244-.255-.42-.51-.431zm-1.651-1.375c.02-.212.212-.509.29-.622.176-.233.554-.223.71-.046.233.265.078.587-.187.742-.188.11-.598.343-.778.1a.23.23 0 0 1-.032-.178zM19.463 11.41c.43-.01.851.078 1.173.389.244.233.322.664.187.954-.099.233-.477.43-.788.42-.166 0-.254-.067-.29-.233-.077-.378-.321-.544-.674-.41-.12.046-.266.187-.29.311-.021.11.067.3.166.354.212.134.466.233.71.31.442.156.799.4 1.007.842.276.576.01 1.473-.763 1.728-.841.275-1.675.212-2.449-.244-.255-.145-.29-.378-.134-.643.187-.322.378-.4.653-.244.343.198.71.29 1.096.212.11-.021.254-.12.29-.223.056-.145-.046-.265-.198-.343q-.548-.251-1.064-.52a.91.91 0 0 1-.477-.621c-.11-.544-.12-1.074.29-1.51.353-.363.852-.508 1.34-.543.077.01.144.01.211.01zM25.517 14.89q.101-1.428.197-2.858c.046-.587.089-1.188.11-1.785.01-.254.099-.364.353-.343.198.022.4.011.587.068.353.11.488.275.467.653a51 51 0 0 1-.135 1.93c-.056.654-.12 1.307-.166 1.961-.021.276.057.51.354.622.067.021.134.12.144.188.046.342-.176.685-.508.83-.732.311-1.375-.088-1.407-.876 0-.12.01-.255 0-.39.01 0 0 0 0 0z"/><path d="M29.56 9.537c.031.021.077.046.109.067.134.088.099.099.212-.032.29-.353.898-.31 1.13.078.012.046.033.088.047.134.021.145.032.3.056.442 0 .088.011.177.011.265s0 .166.01.254c0 .223.057.488-.166.633-.077.046-.176.067-.265.046-.031-.01-.077-.021-.099-.046-.056-.046-.077-.134-.088-.212-.032-.254.1-1.198-.321-1.209a.3.3 0 0 0-.212.11c-.135.145-.135.332-.135.509 0 .254-.01.498-.01.753 0 .155 0 .29-.188.31-.067.011-.12 0-.187-.01-.3-.046-.29-.467-.311-.7-.046-.4-.046-.81-.01-1.208 0-.032.01-.068.02-.1.022-.067.089-.098.156-.12a.32.32 0 0 1 .244.032zM31.468 9.728c-.021-.265-.032-.545-.057-.799-.01-.145-.046-.311.11-.4.134-.077.353-.098.456.032a.7.7 0 0 1 .11.322c.01.166.01.343.02.509 0 .046 0 .088.011.12.01.29.01.576.046.866.01.11.021.276.088.378.067.088.177.166.156.3-.032.213-.343.354-.534.255-.343-.177-.321-.71-.353-1.032a5 5 0 0 1-.057-.555zM28.485 11.81a.3.3 0 0 1-.254-.079c-.078-.077-.089-.176-.057-.275.032-.11.198-.212.364-.223.145 0 .276.067.322.166a.26.26 0 0 1-.1.29.55.55 0 0 1-.275.12z"/></svg>