<svg viewBox="0 0 38 24" xmlns="http://www.w3.org/2000/svg" width="38" height="24" role="img" aria-labelledby="pi-worldchain"><title id="pi-worldchain">World Chain</title><rect width="38" height="24" fill-opacity=".07" rx="3"/><rect width="36" height="22" x="1" y="1" fill="#fff" rx="2"/><path fill="none" d="M3 0h32c1.7 0 3 1.3 3 3v18c0 1.7-1.3 3-3 3H3c-1.7 0-3-1.3-3-3V3c0-1.7 1.3-3 3-3Z"/><path fill="#fff" fill-rule="evenodd" d="M3 1h32c1.1 0 2 .9 2 2v18c0 1.1-.9 2-2 2H3c-1.1 0-2-.9-2-2V3c0-1.1.9-2 2-2Z"/><path d="M25.9 9.1c-.4-.9-.9-1.7-1.6-2.4-.7-.7-1.5-1.2-2.4-1.6-.9-.4-1.9-.6-2.9-.6s-2 .2-2.9.6c-.9.4-1.7.9-2.4 1.6-.7.7-1.2 1.5-1.6 2.4-.4.9-.6 1.9-.6 2.9s.2 2 .6 2.9c.4.9.9 1.7 1.6 2.4.7.7 1.5 1.2 2.4 1.6.9.4 1.9.6 2.9.6s2-.2 2.9-.6c.9-.4 1.7-.9 2.4-1.6.7-.7 1.2-1.5 1.6-2.4.4-.9.6-1.9.6-2.9s-.2-2-.6-2.9Zm-9.4 2.2c.3-1.2 1.4-2.1 2.7-2.1h5.2c.3.6.5 1.3.6 2.1h-8.5Zm8.5 1.4c0 .7-.3 1.4-.6 2.1h-5.2c-1.3 0-2.4-.9-2.7-2.1H25Zm-10.3-5c1.1-1.1 2.7-1.8 4.3-1.8s3.1.6 4.3 1.8l.1.1h-4.2c-1.1 0-2.2.4-3 1.2-.6.6-1 1.4-1.2 2.3h-2.1c.2-1.4.8-2.6 1.7-3.6ZM19 18.1c-1.6 0-3.1-.6-4.3-1.8-1-1-1.6-2.2-1.7-3.6h2.1c.1.8.5 1.6 1.2 2.3.8.8 1.8 1.2 3 1.2h4.2l-.1.1c-1.1 1.1-2.7 1.8-4.3 1.8Z"/></svg>
