<svg viewBox="0 0 38 24" xmlns="http://www.w3.org/2000/svg" width="38" height="24" role="img" aria-labelledby="pi-xendit"><title id="pi-xendit">Xendit</title><path d="M35 0H3C1.3 0 0 1.3 0 3v18c0 1.7 1.4 3 3 3h32c1.7 0 3-1.3 3-3V3c0-1.7-1.4-3-3-3z" fill="#000" fill-opacity=".07"/><path d="M35 1c1.1 0 2 .9 2 2v18c0 1.1-.9 2-2 2H3c-1.1 0-2-.9-2-2V3c0-1.1.9-2 2-2h32z" fill="#fff"/><path d="M7.914 7.404H5.238l-2.76 4.782 2.76 4.782.546-.942-2.214-3.84 2.214-3.834h1.584zm-.912 9.564l.54-.942h1.584l2.214-3.84-2.214-3.834.546-.948 2.76 4.782-2.76 4.782zm-1.002-6.318l.54-.936-.786-1.362-.546.936zm3.096-2.298l.546.942-3.888 6.732-.546-.942zm-.258 5.352l-.546.942.804 1.38.546-.936z" fill="#446CB3"/><path d="M6.03 10.65l.54-.936-.786-1.362-.546.936zm3.096-2.298l.546.942-3.888 6.732-.546-.942zm-.258 5.352l-.546.942.804 1.38.546-.936z" fill="#D24D57"/><path d="M16.229 10.162l-1.059 1.537-1.064-1.537h-.844l1.474 2.066-1.55 2.167h.844l1.14-1.631 1.128 1.631h.844l-1.55-2.167 1.475-2.066zm3.201.554c.308 0 .547.101.711.296.158.19.246.467.252.82h-2.047c.037-.34.15-.612.327-.807.19-.208.441-.309.756-.309zm.007-.63c-.567 0-1.027.202-1.361.605-.334.397-.504.945-.504 1.62 0 .673.182 1.202.541 1.58.36.378.864.574 1.487.574.284 0 .523-.02.725-.063.201-.044.416-.114.636-.208l.032-.013v-.674l-.076.032a3.294 3.294 0 01-1.298.277c-.403 0-.724-.12-.945-.36-.214-.232-.334-.573-.353-1.014h2.848v-.447c0-.567-.158-1.033-.466-1.38-.309-.352-.737-.529-1.267-.529zm4.898 0c-.29 0-.56.057-.794.17-.207.101-.384.24-.51.416l-.094-.516h-.605v4.233h.73v-2.217c0-.523.095-.901.29-1.122.19-.22.498-.334.908-.334.308 0 .535.076.68.233.145.158.214.397.214.719v2.721h.731v-2.747c0-.541-.132-.938-.39-1.19-.259-.24-.65-.366-1.16-.366zm4.347 3.749c-.359 0-.623-.126-.806-.378-.183-.259-.277-.65-.277-1.16 0-.503.094-.9.283-1.178.183-.27.448-.403.8-.403.41 0 .706.12.889.353.189.24.283.649.283 1.216v.132c0 .504-.094.87-.277 1.09-.19.22-.485.328-.895.328zm1.16-3.673l.012.29.019.189c-.302-.372-.73-.561-1.273-.561-.554 0-.989.195-1.297.586-.31.384-.467.926-.467 1.619 0 .687.158 1.228.46 1.606.309.378.75.574 1.304.574.561 0 .996-.196 1.292-.586l.075.51h.612V8.43h-.731l-.006 1.733zm2.334-1.537a.43.43 0 00-.302.113c-.082.076-.12.195-.12.353 0 .157.038.27.12.353.082.082.182.12.302.12a.404.404 0 00.296-.12c.082-.082.126-.196.126-.353 0-.158-.044-.271-.126-.353a.425.425 0 00-.296-.113zm-.371 5.771h.737v-4.234h-.737zm3.893-.624c-.057.019-.139.031-.24.05-.1.013-.201.025-.315.025-.189 0-.34-.056-.447-.182-.107-.12-.164-.303-.164-.536v-2.375h1.197v-.592h-1.197v-.958h-.453l-.271.895-.599.264v.391h.593v2.4c0 .87.422 1.317 1.253 1.317.107 0 .227-.013.366-.031.138-.026.24-.05.315-.089l.031-.012v-.586l-.07.019z" fill="#446CB3"/></svg>