<svg xmlns="http://www.w3.org/2000/svg" role="img" viewBox="0 0 38 24" width="38" height="24" aria-labelledby="pi-yappy"><title id="pi-yappy">yappy</title><path fill="#000" opacity=".07" d="M35 0H3C1.3 0 0 1.3 0 3v18c0 1.7 1.4 3 3 3h32c1.7 0 3-1.3 3-3V3c0-1.7-1.4-3-3-3z"/><path fill="#fff" d="M35 1c1.1 0 2 .9 2 2v18c0 1.1-.9 2-2 2H3c-1.1 0-2-.9-2-2V3c0-1.1.9-2 2-2h32"/><path d="M13.417 6.133l4.058 3.912c.14-1.587-.712-2.368.991-2.303.328 0 .393-.26.197-.39-1.391-.805-2.987-1.227-4.81-1.227-.144 0-.29.003-.436.008z" fill="url(#paint0_linear_6_154)"/><path d="M18.451 8.503c-.36-.053-.476.223-.28.398 1.51 1.202 3.358 1.952 5.58 2.2l-3.827-4.974c-.416 1.726.394 2.726-1.473 2.376z" fill="url(#id-id-paint1_linear_6_154)"/><path d="M19.873 6.404c-.336 2.238 1.219 4.323 3.472 4.657 2.253.333 4.352-1.211 4.687-3.45.336-2.238-1.218-4.323-3.471-4.657a4.179 4.179 0 00-.613-.045c-2.01 0-3.77 1.46-4.075 3.495z" fill="url(#pi-paint2_linear_6_154)"/><path d="M10.082 9.792c0 2.03 1.657 3.677 3.7 3.677 2.045 0 3.702-1.646 3.702-3.677 0-2.03-1.657-3.677-3.701-3.677s-3.701 1.646-3.701 3.677z" fill="url(#pi-paint3_linear_6_154)"/><path d="M22.85 17.348c-.014.264.021.55.16.813.13.249.325.424.625.443.324.021.631-.046.79-.349.296-.57.328-1.164.017-1.741-.153-.283-.422-.42-.746-.4a.79.79 0 00-.712.489c-.107.23-.136.469-.134.745zm.042 1.858v.968c-.001.21.008.419-.023.627-.044.296-.227.467-.523.481-.315.015-.55-.156-.609-.445a.869.869 0 01-.015-.172c0-1.63-.003-3.262 0-4.893.002-.4.236-.598.63-.552.18.021.325.1.386.274.046.132.09.125.195.052.901-.63 2.116-.385 2.594.583.454.92.416 1.868-.159 2.741-.536.816-1.737.793-2.306.42-.046-.03-.079-.086-.17-.084zM18.108 17.326c-.012.319.038.608.184.873.168.303.433.43.778.407.338-.021.584-.18.704-.491.186-.48.198-.971.011-1.456a.861.861 0 00-.787-.55.843.843 0 00-.796.598c-.07.206-.112.417-.094.619zm.044 1.85c0 .527.004 1.024-.001 1.52-.004.43-.305.66-.726.564-.281-.064-.42-.255-.42-.596-.002-1.097 0-2.193 0-3.29 0-.54-.004-1.081.002-1.622.004-.424.346-.647.75-.499.113.043.21.108.243.228.037.134.07.15.2.065.642-.428 1.315-.459 1.99-.081.354.198.59.517.718.895.262.768.264 1.534-.11 2.27-.473.928-1.71 1.205-2.556.585-.016-.011-.037-.017-.09-.04zM13.937 18.768c.588.001 1.093-.572 1.011-1.142-.013-.09-.046-.09-.113-.057-.206.103-.434.108-.655.144-.215.035-.432.065-.625.174a.434.434 0 00-.236.43c.012.193.125.32.3.39.1.04.207.066.318.061zm2.168-1.398c.015.535-.054 1.107.14 1.662.057.162-.043.31-.183.41-.271.196-.688.12-.853-.176-.076-.135-.118-.128-.237-.057-.68.401-1.394.467-2.128.164-.818-.339-.952-1.353-.26-1.906.355-.284.78-.368 1.216-.424.251-.033.504-.059.756-.088.21-.025.358-.123.385-.345.025-.215-.076-.354-.272-.443a1.15 1.15 0 00-1.218.206c-.08.073-.154.153-.24.219a.488.488 0 01-.655-.02c-.156-.137-.19-.38-.069-.596.164-.29.422-.475.732-.583.756-.262 1.512-.26 2.254.044.433.178.642.52.633.991-.006.303-.001.606-.001.942zM10.037 18.225l.504-1.834c.063-.23.123-.46.188-.688.111-.387.42-.568.778-.46.33.1.473.416.345.787-.472 1.37-.94 2.743-1.426 4.11-.154.433-.359.854-.862.988-.304.08-.618.105-.915-.04a.474.474 0 01-.27-.557c.048-.202.225-.325.477-.333.486-.016.667-.305.502-.768a393.01 393.01 0 01-1.199-3.433c-.107-.313.004-.59.265-.72.338-.17.727-.016.836.354.182.615.343 1.237.515 1.855.068.249.14.497.21.745l.053-.006zM28.045 18.22c.216-.792.435-1.584.648-2.378.072-.265.154-.515.452-.616a.555.555 0 01.587.122c.156.146.228.339.157.553a94.24 94.24 0 01-.511 1.518c-.294.846-.591 1.69-.89 2.534-.11.314-.233.618-.457.878-.322.376-.887.415-1.286.294-.279-.084-.406-.312-.362-.566.038-.222.229-.354.522-.361.415-.01.621-.318.485-.702a454.868 454.868 0 01-1.212-3.476c-.125-.361-.024-.611.279-.77.23-.121.545-.043.724.174.067.082.092.178.12.276.209.765.417 1.531.628 2.297.02.075.05.149.074.224h.042z" fill="#005B9B"/><defs><linearGradient id="pi-paint0_linear_6_154" x1="15.34" y1="8.154" x2="17.832" y2="6.611" gradientUnits="userSpaceOnUse"><stop stop-color="#3490CF"/><stop offset=".336" stop-color="#3490CF"/><stop offset=".794" stop-color="#47C1F1"/><stop offset="1" stop-color="#47C1F1"/></linearGradient><linearGradient id="pi-paint1_linear_6_154" x1="21.573" y1="8.688" x2="17.793" y2="9.758" gradientUnits="userSpaceOnUse"><stop stop-color="#F6A13C"/><stop offset=".29" stop-color="#F6A13C"/><stop offset=".629" stop-color="#F07F46"/><stop offset="1" stop-color="#F07F46"/></linearGradient><linearGradient id="pi-paint2_linear_6_154" x1="26.385" y1="3.765" x2="21.448" y2="10.433" gradientUnits="userSpaceOnUse"><stop stop-color="#F6A13C"/><stop offset="1" stop-color="#F07F46"/></linearGradient><linearGradient id="pi-paint3_linear_6_154" x1="14.924" y1="7.262" x2="12.137" y2="13.523" gradientUnits="userSpaceOnUse"><stop stop-color="#47C1F1"/><stop offset=".824" stop-color="#3490CF"/><stop offset="1" stop-color="#3490CF"/></linearGradient></defs></svg>