<svg version="1.1" xmlns="http://www.w3.org/2000/svg" width="38" height="24" role="img" aria-labelledby="pi-ymobile" viewBox="0 0 38 24"><title id="pi-ymobile">Y!Mobile</title><path fill="#fff" d="M0 0h38v24H0z"/><path opacity=".07" fill-rule="evenodd" clip-rule="evenodd" d="M35 0H3C1.3 0 0 1.3 0 3v18c0 1.7 1.4 3 3 3h32c1.7 0 3-1.3 3-3V3c0-1.7-1.4-3-3-3z" fill="#000"/><path fill-rule="evenodd" clip-rule="evenodd" d="M35 1c1.1 0 2 .9 2 2v18c0 1.1-.9 2-2 2H3c-1.1 0-2-.9-2-2V3c0-1.1.9-2 2-2h32z" fill="#fff"/><path d="M15.72 11.923h.904v.452c.207-.267.48-.51.936-.51.413 0 .728.181.893.503a1.309 1.309 0 011.042-.503c.668 0 1.07.403 1.07 1.166v2.066h-.902v-1.771c0-.426-.19-.645-.527-.645s-.542.219-.542.645v1.77h-.903v-1.77c0-.426-.19-.645-.527-.645s-.542.219-.542.645v1.77h-.903l.002-3.173zm5.374 1.604v-.01c0-.912.735-1.652 1.723-1.652.988 0 1.71.728 1.71 1.64v.012c0 .911-.733 1.652-1.722 1.652s-1.71-.728-1.71-1.64v-.002zm2.546.002v-.012c0-.467-.337-.877-.835-.877-.515 0-.823.397-.823.865v.012c0 .468.338.876.835.876.515 0 .823-.397.823-.865m2.319 1.154v.415h-.904v-4.322h.904v1.604a1.165 1.165 0 01.989-.515c.74 0 1.445.58 1.445 1.64v.013c0 1.06-.693 1.64-1.445 1.64a1.219 1.219 0 01-.99-.474v-.001zm1.535-1.165v-.012c0-.527-.355-.876-.775-.876-.42 0-.775.346-.775.875v.013c0 .526.35.876.77.876.42 0 .775-.344.775-.876m1.41-2.742h.947v.8h-.947v-.8zm.026 1.149h.903v3.173h-.903v-3.173zm2.429-1.149h-.9v4.32h.9v-4.32zm.532 2.752v-.01c0-.904.645-1.653 1.57-1.653 1.059 0 1.544.823 1.544 1.723 0 .071-.006.154-.012.237H32.78c.09.408.373.621.775.621.301 0 .52-.09.77-.325l.514.452c-.295.366-.722.591-1.296.591-.953 0-1.658-.668-1.658-1.64l.001.004zm2.237-.269c-.053-.403-.29-.674-.669-.674-.378 0-.615.266-.686.674h1.355zM12.46 10.174c-.168.017-.861.173-1.094.223-.25.066-2.647 1.942-2.8 2.374-.034.15 0 1.763 0 1.763l1.354.09-.048.452c-.187-.017-1.452-.015-2.236-.015-.4 0-1.62.044-2.03.033l.05-.427c.3.016.6-.012.89-.083.24-.064.412-.159.412-.4v-1.398c-.083-.25-2.077-2.759-2.592-3.162C4.216 9.576 3.233 9.47 3 9.42L3.049 9h4.548l-.065.387c-.196.05-1.163.065-1.413.134.65.967 1.677 2.21 2.01 2.694.18-.271 1.927-1.487 1.976-1.87-.249-.05-1.077-.17-1.21-.17l-.08-.428h3.928l-.284.427zm-.664 4.946l-.52-.136.361-.839.505.18.484.13-.362.819-.468-.154zm1.04-1.384l-.749-.229 1.204-3.93 1.697.52-.333.542-1.82 3.097z" fill="#F03"/></svg>