<svg xmlns="http://www.w3.org/2000/svg" role="img" viewBox="0 0 38 24" width="38" height="24" aria-labelledby="pi-younitedpay"><title id="pi-younitedpay">Younited Pay</title><path fill="#000" opacity=".07" d="M35 0H3C1.3 0 0 1.3 0 3v18c0 1.7 1.4 3 3 3h32c1.7 0 3-1.3 3-3V3c0-1.7-1.4-3-3-3z"/><path fill="#fff" d="M35 1c1.1 0 2 .9 2 2v18c0 1.1-.9 2-2 2H3c-1.1 0-2-.9-2-2V3c0-1.1.9-2 2-2h32"/><path fill="#b8a2ce" d="M32.8 12c0-5-4-8.8-8.9-9.1l-12.8-.8 3.4 5.7L5.4 12l9.1 4.1-3.4 5.7 12.7-.7c5-.5 9-4.1 9-9.1"/><path fill="#000" d="M20.9 17.9v-5L17 6.7h3.9l1.7 3.4 1.6-3.4h3.9l-3.8 6.2v5h-3.4z"/></svg>