<svg viewBox="0 0 38 24" xmlns="http://www.w3.org/2000/svg" role="img" width="38" height="24" aria-labelledby="pi-zalopay"><title id="pi-zalopay">ZaloPay</title><path opacity=".07" d="M35 0H3C1.3 0 0 1.3 0 3v18c0 1.7 1.4 3 3 3h32c1.7 0 3-1.3 3-3V3c0-1.7-1.4-3-3-3z"/><path fill="#fff" d="M35 1c1.1 0 2 .9 2 2v18c0 1.1-.9 2-2 2H3c-1.1 0-2-.9-2-2V3c0-1.1.9-2 2-2h32"/><path data-name="Path 8473" d="M13.478 10.847a.587.587 0 00-.438-.176.6.6 0 00-.57.375 1.3 1.3 0 00-1.047-.45 1.719 1.719 0 00-1.34.615 2.344 2.344 0 000 3 1.718 1.718 0 001.34.615 1.3 1.3 0 001.047-.45.6.6 0 00.57.375.585.585 0 00.438-.176.594.594 0 00.172-.431v-2.866a.6.6 0 00-.172-.431m-1.27 2.574a.8.8 0 01-1.227 0 1.245 1.245 0 010-1.421.8.8 0 011.227 0 1.244 1.244 0 010 1.421" fill="#0fa8e0"/><path data-name="Path 8474" d="M14.945 14.521a.66.66 0 01-.875 0 .542.542 0 01-.172-.406v-4.83a.543.543 0 01.172-.406.66.66 0 01.875 0 .543.543 0 01.172.406v4.83a.543.543 0 01-.172.406" fill="#0fa8e0"/><path data-name="Path 8475" d="M18.923 11.211a1.972 1.972 0 00-1.493-.615 1.946 1.946 0 00-1.48.607 2.265 2.265 0 000 3.015 1.946 1.946 0 001.48.608 1.972 1.972 0 001.493-.615 2.281 2.281 0 000-3m-.879 2.21a.8.8 0 01-1.227 0 1.244 1.244 0 010-1.421.8.8 0 011.227 0 1.245 1.245 0 010 1.421" fill="#0fa8e0"/><path data-name="Path 8476" d="M8.979 10.93a2.47 2.47 0 00.646-1.052q0-.627-.842-.627H5.825a.839.839 0 00-.54.154.517.517 0 000 .8.839.839 0 00.54.154h2.032l-2.602 3.156a.915.915 0 00-.255.548q0 .687.969.687h3.052q.731 0 .731-.576t-.731-.575H6.777z" fill="#0fa8e0"/><path data-name="Path 8477" d="M23.258 10.292h-.817v1.7h.817a.785.785 0 00.6-.24.925.925 0 000-1.217.785.785 0 00-.6-.24" fill="#32b34a"/><path data-name="Path 8478" d="M27.241 11.79a.729.729 0 00-.61.286 1.238 1.238 0 000 1.413.795.795 0 001.22 0 1.237 1.237 0 000-1.413.729.729 0 00-.61-.286" fill="#32b34a"/><path data-name="Path 8479" d="M32.885 8H21.046a.7.7 0 00-.715.684v6.632a.7.7 0 00.715.684h9.346a.411.411 0 01-.148-.314.782.782 0 01.069-.308l.441-.937-1.219-2.91a.677.677 0 01-.054-.271.4.4 0 01.169-.323.565.565 0 01.353-.132.545.545 0 01.552.374l.759 1.986.813-1.986a.553.553 0 01.552-.374.565.565 0 01.353.132.4.4 0 01.169.323.68.68 0 01-.054.271l-1.805 4.191a.837.837 0 01-.178.277h1.723a.7.7 0 00.715-.684V8.684A.7.7 0 0032.885 8m-8.366 4.462a2.064 2.064 0 01-1.409.49h-.889v1.256a.572.572 0 01-.168.44.674.674 0 01-.865 0 .571.571 0 01-.168-.44v-4.3q0-.6.624-.6h1.417a2.148 2.148 0 011.469.509 1.675 1.675 0 01.58 1.32 1.657 1.657 0 01-.593 1.324m4.637 1.693a.552.552 0 01-.171.41.637.637 0 01-1-.189 1.323 1.323 0 01-1.042.428 1.742 1.742 0 01-1.333-.585 2.025 2.025 0 01-.54-1.426 2.025 2.025 0 01.54-1.426 1.743 1.743 0 011.333-.585 1.324 1.324 0 011.042.428.637.637 0 011-.189.553.553 0 01.171.41z" fill="#32b34a"/></svg>