<svg width="38" height="24" viewBox="0 0 38 24" fill="none" xmlns="http://www.w3.org/2000/svg" role="img" aria-labelledby="pi-zamtel"><title id="pi-zamtel">zamtel</title><g clip-path="url(#pi-zamtel-clip0)"><path d="M35 .5H3A2.5 2.5 0 00.5 3v18A2.5 2.5 0 003 23.5h32a2.5 2.5 0 002.5-2.5V3A2.5 2.5 0 0035 .5z" stroke="#000" stroke-opacity=".07"/><g clip-path="url(#pi-zamtel-clip1)"><rect x="1" y="1" width="36" height="22" rx="2" fill="#fff"/><path d="M1 1h36v22H1V1z" fill="#FDFDFD"/><path d="M10.829 8.173l.497.023.427.069.355.091.284.115.355.183.237.184.19.183.213.32.118.253.119.366.047.253.024.366v2.223l-.024 1.1h-1.54l-.023-.023-.024-.596h-.047l-.142.184-.19.16-.331.183-.332.115-.284.046-.545.023-.426-.046-.308-.069-.403-.16-.355-.206v.297l-.024.07-.047.022H3.582l-.024-.023v-.985l.024-.069h.047v-.046h.047l.048-.091.047-.07h.047l.048-.09.26-.299.213-.252.237-.252.142-.183.095-.115h.047l.048-.091.26-.298.166-.207h.048l.047-.091.284-.321.119-.16.118-.115.26-.298.166-.183.071-.115H4.41l-.781-.023-.024-.023.024-1.214h4.997l.024.091-.047.321.165-.046.237-.114.569-.184.497-.114.758-.069zM24.234 7.05h1.658l.024.023v1.33h1.42l.025.022v1.1l-.024.115-.142.045H26.01l-.072.023v2.384l.095.275.119.16.213.115.118.023h.26l.356-.092.19-.092.047.046.237.55.19.504-.048.092-.355.16-.308.092-.285.046-.26.023h-.237l-.379-.046-.331-.069-.356-.137-.26-.16-.237-.207-.19-.23-.142-.274-.094-.321-.048-.344-.023-2.543-.569.045.095.459.024.366v3.048l-.024.321h-1.634l-.048-.046V11.06l-.023-.55-.095-.32-.119-.184V9.96h-.047l-.095-.114-.213-.115-.213-.068-.142-.023H20.8l-.379.091-.213.115-.118.092-.143.183-.094.206-.095.298-.024.16-.047 3.094-.024.023h-1.61l-.048-.046v-2.933l-.023-.367-.071-.298-.166-.298-.213-.183-.308-.114-.142-.023h-.403l-.308.091-.237.138-.095.091h-.047l-.047.092-.142.252-.095.367-.024.183-.023 2.842-.024.206h-1.634l-.024-.023-.024-3.643v-.803l.024-1.145h1.587l.023.022v.55l.095-.045.237-.207.332-.183.45-.16.379-.07.402-.022.498.069.402.137.403.206.213.16.166.184.047.046v.069l.119.023.26-.275.332-.23.497-.229.332-.091.355-.046.355-.023.427.046.355.091.284.115.26.138.237.183.166.16.095.115.071.023-.024-.23v-.366l.024-.046h.876V7.05z" fill="#019F3C"/><path d="M33.068 6.156h1.61l.048.046v7.448l-.023.252h-1.658l-.024-.046v-2.268l-.024-.023h-4.215l.023.137.19.367.165.183.261.183.332.138.308.069h.615l.356-.07.284-.09.308-.184.19-.16.094.022.284.298.166.184v.046l.07.022.167.184.142.137-.024.115-.142.114h-.047v.046l-.38.252-.354.184-.427.137-.355.069-.19.023h-.852l-.592-.092-.332-.091-.284-.115-.332-.16-.26-.16v-.047l-.095-.046-.237-.183v-.046l-.07-.023-.238-.298-.213-.366-.142-.367-.095-.412-.023-.252v-.573l.07-.39.12-.367.236-.458h.047l.024-.092.166-.206.142-.16.19-.16.236-.184.356-.206.402-.16.426-.115.38-.046h.663l.402.069.497.16.38.183.284.184.236.206.166.16.237.321.284.573.024.023v-1.26l.024-2.636.023-.023z" fill="#019F3C"/><path d="M8.532 9.319l.118.023.237.435.095.206.118-.046.213-.137.497-.183.38-.092.236-.023h.45l.38.069.212.091.19.115.19.23.118.228.047.207v.114l-.047.046h-1.658l-.426.046-.474.114-.355.138-.237.137-.213.184h-.048l-.047.091-.119.16-.142.345-.047.229v.573l-.024.023H5.713l.024-.115.284-.298.024-.046h.047l.047-.091.261-.298.142-.184h.047l.048-.091.52-.596.025-.046h.047l.047-.092.19-.229h.047l.071-.137h.048l.047-.092.166-.206h.047l.047-.092.308-.344.26-.32.025-.046z" fill="#FDFDFD"/><path d="M24.613 14.59h.332l.237.045.284.138.213.183.19.367.023.137v.252l-.071.276-.166.252-.166.16-.284.138-.19.045h-.45l-.307-.091-.237-.16-.166-.184-.118-.252-.047-.252.023-.298.119-.275.189-.23.26-.16.214-.068.118-.023zM11.871 14.59h.332l.284.068.19.092.236.206.142.23.071.229v.366l-.094.275-.19.252-.19.138-.189.091-.213.046h-.45l-.237-.068-.237-.138-.118-.092-.166-.229-.095-.275v-.366l.071-.23.143-.229.165-.16.19-.115.213-.068.142-.023zM13.505 14.613h.83l.425.023.214.068.19.16.07.184v.16l-.07.16-.096.115-.047.023v.046l.213.16.095.207v.206l-.071.183-.19.16-.165.07-.166.023h-1.255v-1.925l.023-.023z" fill="#010403"/><path d="M21.108 14.613h.331l.072.023.355.595.355.573.308-.481.403-.665.07-.045h.332l.024.366v1.582h-.45v-1.009l.024-.114-.072.068-.378.619-.142.183-.072.07-.165-.047-.166-.229-.19-.32-.19-.299-.023 1.078h-.45v-1.925l.024-.023z" fill="#010804"/><path d="M8.366 14.613h.331l.095.091.403.665.26.412.048.023.047-.114.403-.665.237-.39.047-.022h.332l.023.023v1.925h-.426v-1.123h-.048l-.047.114-.19.321-.26.412-.07.07-.12.022-.165-.137-.403-.665-.047-.114h-.048v1.1h-.426v-1.925l.024-.023z" fill="#010302"/><path d="M29.966 9.433h.331l.403.092.237.115.19.137.118.115v.046h.047l.142.229.119.252.023.16-.047.023h-2.771l-.047-.092.165-.39.142-.205.095-.115.19-.137.331-.16.332-.07zM10.758 11.542h1.208l.047.068-.024.527-.118.23-.26.275-.214.114-.19.069-.236.046h-.474l-.213-.046-.213-.115-.19-.206-.07-.206v-.184l.094-.252.19-.16.19-.092.26-.045.213-.023z" fill="#FDFDFD"/><path d="M26.271 14.613h.332l.118.091.26.321.261.298.213.252.119.16.047.023v-1.122l.024-.023h.426l.024.023v1.077l-.024.848h-.355l-.119-.115-.284-.321-.26-.32-.237-.276-.095-.091-.024 1.123h-.45v-1.925l.024-.023z" fill="#010503"/><path d="M28.568 14.613h1.398l.118.023v.252l-.023.091-1.019.023-.024.39h.924l.024.091v.23l-.048.045h-.9v.436h1.09l.023.069-.023.297h-1.54l-.023-.068v-1.857l.023-.022z" fill="#010604"/><path d="M18.36 14.613h1.516v.206l-.023.16-1.019.023-.023.39h.923l.024.114-.024.252h-.924l.024.413 1.066.023.024.046-.024.32h-1.54v-1.947z" fill="#010302"/><path d="M30.226 14.613h.474l.142.206.26.435.12.184.046.022.048-.114.142-.23.142-.251.142-.23.047-.022h.427l-.048.114-.378.619-.214.344-.094.137-.024.092-.024.642h-.45l-.024-.711-.639-1.031-.095-.138v-.068zM16.632 14.613h.45l.023 1.558.995.023v.367h-1.492v-1.925l.024-.023z" fill="#010604"/><path d="M24.637 14.98h.331l.237.114.142.16.072.184v.32l-.119.23-.19.16-.213.069h-.19l-.236-.07-.19-.16-.094-.183-.024-.114v-.207l.095-.252.095-.114.19-.115.094-.023zM11.871 14.98h.332l.213.09.19.207.047.138v.366l-.095.183-.095.115-.237.115-.118.023h-.166l-.213-.07-.142-.09-.142-.207-.024-.069v-.367l.118-.229.19-.16.142-.046z" fill="#FDFDFD"/><path d="M15.708 14.613h.45v1.948h-.474v-1.925l.024-.023z" fill="#010704"/><path d="M13.955 15.736h.64l.166.045.094.115v.16l-.094.115-.095.046h-.71v-.481zM13.955 14.956h.545l.166.046.095.092v.16l-.095.115-.142.046h-.569v-.459z" fill="#FDFDFD"/></g></g><defs><clipPath id="pi-zamtel-clip0"><path fill="#fff" d="M0 0h38v24H0z"/></clipPath><clipPath id="pi-zamtel-clip1"><rect x="1" y="1" width="36" height="22" rx="2" fill="#fff"/></clipPath></defs></svg>