<svg width="38" height="24" viewBox="0 0 38 24" role="img" xmlns="http://www.w3.org/2000/svg" aria-labelledby="pi-zaver"> <title id="pi-zaver">Zaver</title><rect x="0.5" y="0.5" width="37" height="23" rx="3" fill="#fff" stroke="#000" stroke-opacity="0.07" stroke-width="1"/> <g transform="translate(2,6) scale(0.045)"> <path d="M220.234 54.3111V38.2507H312.82V54.7744L245.52 144.034H314.382V160.094H220.092V143.57L291.523 54.4656H220.234V54.3111Z" fill="#0A1018"/> <path d="M419.728 74.9134V137.041C420.297 142.745 424.99 146.599 434.374 147.832L433.237 162.478C420.297 162.478 410.344 159.241 403.945 152.92C389.299 159.241 374.084 162.478 359.438 162.478C347.778 162.478 339.531 159.241 333.132 152.92C326.734 146.599 324.316 137.658 324.316 125.633C324.316 113.608 327.302 105.283 333.701 99.579C338.536 94.8004 346.356 91.7172 356.31 89.8672C360.007 89.0964 370.814 88.0173 370.814 88.0173L401.528 85.0882V74.9134C401.528 66.5886 399.821 60.8846 396.266 57.1847C392.712 53.3306 387.45 52.0974 381.62 52.0974C370.529 52.0974 359.438 52.5599 348.063 53.7932C345.645 54.1015 331.71 55.6431 331.71 55.6431L331.284 40.6894C349.485 37.452 365.268 35.6019 379.345 35.6019C393.422 35.6019 403.376 38.8394 409.775 45.16C416.174 51.4807 419.728 61.5013 419.728 74.9134ZM342.233 124.091C342.233 139.199 348.631 146.137 360.86 146.137C371.951 146.137 382.9 144.287 393.991 140.433L399.821 138.583V98.809L363.135 102.663C355.599 103.279 350.338 105.129 346.783 108.983C344.081 112.221 342.233 117.154 342.233 124.091Z" fill="#0A1018"/> <path d="M431.313 38.2507H451.21L480.345 144.034H489.725L518.86 38.2507H538.189L503.085 160.094H465.707L431.313 38.2507Z" fill="#0A1018"/> <path d="M640.802 143.341L641.371 157.83C622.739 160.296 606.525 161.683 593.013 161.683C574.95 161.683 562.718 156.597 555.18 146.578C547.641 136.56 544.228 120.684 544.228 99.259C544.228 57.0265 561.722 35.6019 596 35.6019C612.925 35.6019 625.157 40.0718 633.264 49.474C641.656 57.9513 645.78 71.6692 646.065 90.0111C646.065 90.3194 645.922 94.6352 645.638 98.334C645.354 102.342 644.927 106.041 644.927 106.041H563.429C563.429 119.297 565.705 129.315 570.967 135.635C575.661 141.954 584.337 145.037 596.569 145.037C604.676 145.191 626.864 144.112 640.802 143.341ZM628.144 92.4772C628.144 77.3721 625.868 67.1993 620.606 60.8798C615.912 54.5603 607.805 51.4777 596.711 51.4777C585.617 51.4777 577.51 54.5603 572.247 60.8798C566.985 67.1993 564.14 77.8345 564.14 91.7066H628.144V92.4772Z" fill="#0A1018"/> <path d="M664.506 161.065V39.8169H682.707V56.1893C696.927 46.7675 711.289 40.4348 727.216 37.1912V55.1082C720.248 56.3438 706.739 60.5142 688.964 69.0093L682.565 72.0984V161.683H664.363V161.065H664.506Z" fill="#0A1018"/> <path d="M95 184.708C148.572 184.708 192 141.279 192 87.7077C192 34.1361 148.572 0.707764 95 0.707764C41.4284 0.707764 0 34.1361 0 87.7077C0 141.279 41.4284 184.708 95 184.708Z" fill="#EF3466"/> <path fill-rule="evenodd" clip-rule="evenodd" d="M108.211 80.8472C107.573 82.2831 105.978 83.2403 104.383 83.2403H59.0546C58.3428 83.2403 57.9351 84.0517 58.3597 84.6231L106.267 149.086C106.549 149.465 106.474 150.001 106.099 150.289L100.655 154.469C100.262 154.771 99.694 154.662 99.439 154.237L45.37 81.4853C44.2535 80.2089 44.094 78.454 44.8915 77.0181C45.2105 76.3799 46.1674 74.944 48.7194 74.944H94.0754C94.782 74.944 95.1911 74.143 94.7769 73.5703L63.7396 30.6525C63.4598 30.2656 63.5458 29.7253 63.9318 29.4444L69.5525 25.3554C69.9386 25.0745 70.4792 25.1593 70.7608 25.5449L107.892 76.3798C108.849 77.6562 109.008 79.4113 108.211 80.8472Z" fill="white"/> </g> </svg>