<svg xmlns="http://www.w3.org/2000/svg" role="img" viewBox="0 0 38 24" width="38" height="24" aria-labelledby="pi-zingala"><title id="pi-zingala">Zingala</title><path d="M35 0H3C1.3 0 0 1.3 0 3v18c0 1.7 1.4 3 3 3h32c1.7 0 3-1.3 3-3V3c0-1.7-1.4-3-3-3z" opacity=".07"/><path fill="#fff" d="M35 1c1.1 0 2 .9 2 2v18c0 1.1-.9 2-2 2H3c-1.1 0-2-.9-2-2V3c0-1.1.9-2 2-2h32"/><path fill="#919497" d="M9.861 20.055c-2.77.769-5.728-2.119-5.514-5.072.038-.513.018-1.032.054-1.652.055-.159.044-.207-.001-.246-.004-.075-.009-.149.045-.295.214-.304.349-.56.532-.759a26.815 26.815 0 0 1 1.714-1.706c.236.006.398.007.56.007 1.131.004 1.127.004 1.134 1.32.006 1.763.018 3.527.025 5.374-.013 2.109.156 2.452 1.451 3.029z"/><path fill="#E4486E" d="M8.426 4.839c3.414-.539 5.942 2.744 5.249 6.855-.578 1.224-1.021 2.416-2.257 2.891-.261-.015-.45-.019-.639-.02-1.068-.004-1.066-.004-1.07-1.194-.006-1.796-.015-3.592-.014-5.473.156-1.389-.114-2.466-1.269-3.059z"/><path fill="#ED94A1" d="M8.362 4.82c1.219.612 1.489 1.689 1.283 3.096a109.44 109.44 0 0 1-3.029 2.405c-.548.569-1.102 1.128-1.639 1.71-.183.199-.318.455-.526.703-.021-1.379-.187-2.825.083-4.16.434-2.159 1.842-3.359 3.828-3.754z"/><path fill="#C3C5C9" d="M11.491 14.596c1.163-.486 1.606-1.678 2.184-2.821.09 1.773.384 3.609-.362 5.353-.684 1.6-1.821 2.529-3.389 2.931-1.358-.581-1.527-.924-1.463-3.057 1.048-.873 2.039-1.64 3.03-2.406z"/><path fill="#ED94A1" d="M4.388 13.128c.057-.004.068.044.024.119-.024-.014-.03-.043-.024-.119z"/><path fill="#FEFAFC" d="M11.418 14.585a70.312 70.312 0 0 1-2.953 2.335 164.276 164.276 0 0 1-.08-5.268c-.007-1.316-.003-1.316-1.134-1.32a20.4 20.4 0 0 1-.56-.007A73.175 73.175 0 0 1 9.636 8c.058 1.779.067 3.575.073 5.371.004 1.19.002 1.19 1.07 1.194.189.001.378.005.639.02z"/><path fill="#8B8988" d="M21.178 14.633c.036-.004.049.016.062.034-.029-.004-.058-.008-.062-.034z"/><path fill="#3e3a3a" d="M19.078 9.672a.313.313 0 0 0-.233.098.326.326 0 0 0-.095.235c0 .091.032.17.095.235a.314.314 0 0 0 .233.099c.09 0 .169-.033.232-.099a.326.326 0 0 0 .095-.235.327.327 0 0 0-.095-.235.313.313 0 0 0-.232-.098m2.256.956a.984.984 0 0 0-.712.277.96.96 0 0 0-.304.703v1.728h.562V11.45c0-.164.044-.283.13-.357a.485.485 0 0 1 .324-.113c.127 0 .237.038.324.113.086.074.13.194.13.357v1.886h.562v-1.728a.95.95 0 0 0-.304-.704.995.995 0 0 0-.712-.276m7.63 2.708h.563V9.625h-.562zm-10.168 0h.563v-2.662h-.563zm5.866-.776c0 .164-.044.284-.13.357a.485.485 0 0 1-.324.113.483.483 0 0 1-.324-.113c-.086-.074-.13-.193-.13-.357v-1.11c0-.163.044-.283.13-.357a.484.484 0 0 1 .324-.113c.128 0 .237.038.325.113.085.074.129.194.129.357v1.11zm.258-1.655a.985.985 0 0 0-.712-.277.985.985 0 0 0-.712.277.96.96 0 0 0-.304.704v.793a.95.95 0 0 0 .304.704.994.994 0 0 0 .712.276.727.727 0 0 0 .454-.136v.27c0 .165-.043.285-.128.356a.486.486 0 0 1-.326.114h-.467l-.223.266v.087h.69a.984.984 0 0 0 .712-.278.959.959 0 0 0 .304-.703v-1.75a.954.954 0 0 0-.304-.703zm2.39 2.008c-.07.078-.178.117-.318.117-.132 0-.235-.039-.306-.115-.075-.08-.113-.238-.113-.467 0-.223.038-.378.111-.46a.39.39 0 0 1 .305-.122c.125 0 .231.04.314.119.085.087.128.239.128.452 0 .229-.04.389-.12.476zm.391-2.008a.983.983 0 0 0-.712-.277h-.5l-.223.266v.086l.75.001a.476.476 0 0 1 .298.113c.085.073.129.193.129.356v.21a.76.76 0 0 0-.453-.145c-.281-.001-.514.088-.692.265a.911.911 0 0 0-.278.668c0 .251.086.471.255.655.17.185.385.28.688.28.196 0 .38-.075.48-.196v.144h.562v-1.723a.954.954 0 0 0-.304-.703zm-11.773.036v.086h1.205l-1.265 2.225v.084h1.84l.223-.267v-.086H16.67l1.256-2.213.006-.011v-.085H16.15Zm15.732 1.972c-.07.078-.178.117-.319.117-.132 0-.234-.039-.305-.115-.076-.08-.114-.238-.114-.467 0-.223.038-.378.112-.46a.39.39 0 0 1 .305-.122c.125 0 .23.04.313.119.085.087.129.239.129.452 0 .229-.04.389-.12.476zm.39-2.008a.983.983 0 0 0-.711-.277h-.5l-.223.266v.086l.75.001a.477.477 0 0 1 .297.113c.086.073.13.193.13.356l-.001.21a.761.761 0 0 0-.453-.145.945.945 0 0 0-.692.265.91.91 0 0 0-.277.668c0 .251.085.471.255.655.17.185.384.28.688.28.195 0 .38-.075.48-.196v.144h.561v-1.723a.955.955 0 0 0-.303-.703z"/></svg>
