<svg xmlns="http://www.w3.org/2000/svg" role="img" fill="none" viewBox="0 0 38 24" width="38" height="24" aria-labelledby="pi-zinia"><title id="pi-zinia">Zinia</title><g clip-path="url(#clip0_4997_114)"><path d="M35 1c1.1 0 2 .9 2 2v18c0 1.1-.9 2-2 2H3c-1.1 0-2-.9-2-2V3c0-1.1.9-2 2-2h32z" fill="#fff"/><rect x=".5" y=".5" width="37" height="23" rx="2.5" stroke="#000" stroke-opacity=".07"/><path d="M10.332 16.515a.662.662 0 00-.097-.323l-.51-.885a.75.75 0 01-.083-.214l-.022.04a.714.714 0 000 .71l.41.712a.713.713 0 010 .71l-.021.036a.64.64 0 00-.083-.214l-.375-.65-.24-.415a.804.804 0 01-.083-.213l-.022.035a.705.705 0 000 .706l.41.711a.714.714 0 010 .712l-.022.035a.641.641 0 00-.083-.214l-.502-.89a.71.71 0 01-.095-.384c-.55.144-.925.445-.925.798 0 .489.733.886 1.636.886.903 0 1.636-.397 1.636-.886-.004-.353-.384-.659-.93-.803zm1.544 1.514c.004-.126.026-.213.057-.31.17.08.392.118.563.118.283 0 .445-.091.445-.274 0-.18-.118-.262-.406-.389l-.157-.07c-.288-.126-.485-.288-.485-.615 0-.349.245-.576.742-.576.2 0 .389.026.563.087a1.14 1.14 0 01-.061.306 1.56 1.56 0 00-.502-.087c-.266 0-.388.104-.388.266 0 .161.118.253.336.345l.166.07c.388.165.554.34.554.636 0 .354-.266.598-.79.598-.262.013-.467-.022-.637-.105zm3.067-1.466V18.1h-.31l-.017-.183c-.087.135-.218.222-.432.222-.406 0-.676-.296-.676-.811 0-.541.288-.847.855-.847.218-.004.401.022.58.083zm-.34 1.187v-.964a1.334 1.334 0 00-.244-.018c-.35 0-.515.214-.515.559 0 .314.126.532.427.532a.54.54 0 00.332-.109zm2.068-.685v1.03h-.336v-.973c0-.244-.079-.358-.419-.358-.078 0-.174.009-.266.026v1.31h-.336v-1.537c.214-.052.45-.087.615-.087.563 0 .742.218.742.59zm.938.781c.1 0 .192-.017.266-.048a3.001 3.001 0 01-.04.284.719.719 0 01-.283.048c-.327 0-.536-.149-.536-.524v-1.614c.104-.035.235-.048.336-.048v.58h.532c-.005.105-.018.2-.03.288h-.502v.75c-.005.21.091.284.257.284zm1.81-1.283V18.1h-.31l-.017-.183c-.087.135-.218.222-.431.222-.406 0-.677-.296-.677-.811 0-.541.288-.847.855-.847.223-.004.402.022.58.083zm-.335 1.187v-.964a1.333 1.333 0 00-.245-.018c-.349 0-.514.214-.514.559 0 .314.126.532.427.532a.55.55 0 00.332-.109zm2.063-.685v1.03h-.335v-.973c0-.244-.08-.358-.42-.358-.078 0-.174.009-.265.026v1.31h-.336v-1.537c.213-.052.449-.087.615-.087.563 0 .741.218.741.59zm1.715-1.117V18.1h-.31l-.017-.196c-.087.144-.218.231-.44.231-.407 0-.677-.297-.677-.811 0-.541.288-.847.855-.847.087 0 .17.009.253.026v-.506a.98.98 0 01.336-.048zm-.336 1.793v-.946a1.423 1.423 0 00-.27-.03c-.336 0-.493.209-.493.558 0 .314.126.532.427.532a.49.49 0 00.336-.114zm2.033-.3h-1.077c.043.274.205.405.501.405.184 0 .371-.04.541-.118-.013.087-.03.205-.052.306-.153.07-.319.1-.497.1-.568 0-.838-.314-.838-.838 0-.458.214-.82.75-.82.485 0 .69.319.69.703.004.096-.005.174-.018.261zm-1.082-.28h.764c0-.253-.135-.401-.367-.401-.244 0-.37.14-.397.401zm2.265-.672c0 .1-.013.223-.03.288a2.284 2.284 0 00-.254-.013c-.083 0-.166.004-.249.018v1.313h-.336v-1.536c.144-.048.389-.087.576-.087.105.004.223.008.293.017zM5.454 17.493c0 .384-.24.606-.794.606h-.616v-2.116a3.32 3.32 0 01.515-.044c.572 0 .799.214.799.559A.52.52 0 015 16.99c.28.052.454.244.454.502zm-1.196-1.335v.741h.384c.332 0 .497-.157.497-.38 0-.222-.122-.383-.575-.383-.1.004-.197.009-.306.022zm.977 1.343c0-.248-.191-.401-.575-.401h-.402v.798h.38c.41 0 .597-.126.597-.397zm1.824-.986l-.685 1.759c-.118.31-.27.45-.536.45a.47.47 0 01-.14-.018c.004-.066.009-.131.017-.188.03.004.066.013.1.013.206 0 .302-.087.407-.393l-.66-1.623h.232l.532 1.348.506-1.348h.227zM18.285 8.156c.476.467.716 1.208.716 2.238v3.5h-1.353v-3.426c0-.606-.126-1.06-.388-1.374-.257-.319-.633-.476-1.13-.476-.532 0-.947.184-1.243.554-.306.371-.454.877-.454 1.523v3.203h-1.335V8.195c0-.366.296-.659.659-.659h.004c.362 0 .654.297.654.655v.174c.48-.606 1.157-.907 2.038-.907.746.008 1.357.24 1.832.698zM32.496 5.516l-.04.092c-.004.004-.004.008-.004.013-.013.03-.026.057-.035.087-.022.048-.04.092-.056.14-.014.03-.022.056-.035.087l-.079.183c-.004.005-.004.009-.004.013-.105.205-.136.428.043.607.18.179.402.148.602.043.005 0 .01-.004.014-.004.03-.013.056-.026.087-.035.083-.035.166-.07.253-.105l.157-.065c.576-.166.803-.868.37-1.305-.379-.414-1.081-.261-1.273.25zM31.217 6.245c-.013-.035-.03-.07-.043-.105-.013-.03-.026-.057-.035-.087l-.079-.184a1.902 1.902 0 01-.056-.14c0-.003-.005-.008-.005-.012-.009-.022-.022-.048-.03-.07-.014-.035-.03-.07-.044-.1-.175-.537-.89-.716-1.283-.306-.419.397-.222 1.126.323 1.283.03.013.057.026.087.035l.21.087.087.035c.022.009.048.022.07.03.061.027.122.053.183.075.332.222.785-.175.615-.541zM33.504 8.134c-.018-.01-.035-.013-.048-.022l-.044-.018-.223-.091-.152-.066c-.018-.008-.04-.013-.057-.022-.03-.013-.057-.021-.087-.034-.03-.014-.066-.027-.096-.04-.42-.2-.803.258-.572.65.022.048.04.096.061.149 0 .004.005.008.005.013.008.022.021.048.03.07.022.048.04.091.057.14 0 .004.004.008.004.012.018.048.04.096.057.14.598 1.5 2.434-.1 1.065-.881zM30.903 9.142c.013-.035.03-.07.044-.105.009-.022.022-.048.03-.07.005-.004.005-.009.005-.013.043-.105.091-.214.135-.323l.035-.087.04-.092c.209-.353-.197-.798-.568-.624-.004.005-.009.005-.013.005l-.153.065-.087.035c-.11.044-.214.092-.323.135-.03.014-.057.027-.087.035-.546.162-.75.89-.332 1.287.388.397 1.087.253 1.274-.248zM11.684 5.237c.75.78-.388 1.876-1.165 1.152-.746-.781.384-1.876 1.165-1.152zm-.61 2.312a.642.642 0 01.693.642v5.707h-1.335V8.19c0-.35.292-.642.641-.642zM21.448 5.237c.75.78-.388 1.876-1.165 1.152-.75-.781.389-1.876 1.165-1.152zm-.602 2.312a.642.642 0 01.694.642v5.707h-1.335V8.19a.637.637 0 01.641-.642zM28.525 12.728c-.794.04.384-3.787-.977-4.655-1.344-1.109-4.638-.738-4.76 1.409h1.313c.157-1.017 1.776-1.165 2.44-.628.37.257.396.785.374 1.221-1.038.005-2.91-.126-3.617.528-.872.602-.96 2.238-.047 2.867 1.034.794 3.097.667 3.808-.598-.021.886.681 1.065 1.475 1.017.764-.005.742-1.152-.009-1.161zm-1.614-1.435c.061 1.356-1.57 2.068-2.635 1.383-.44-.31-.41-1.087.017-1.366.458-.397 2.02-.196 2.614-.244l.004.226zM9.503 12.72H5.794L9.18 8.693c.37-.428.043-1.157-.533-1.14H4.075v1.179h3.469l-3.36 3.988c-.388.423-.13 1.186.48 1.178h4.843l-.004-1.178z" fill="#053840"/></g><defs><clipPath id="pi-zinia-clip0_4997_114"><path fill="#fff" d="M0 0h38v24H0z"/></clipPath></defs></svg>
