<svg xmlns="http://www.w3.org/2000/svg" role="img" viewBox="0 0 38 24" width="38" height="24" aria-labelledby="pi-zoodpay"><title id="pi-zoodpay">ZoodPay</title><path opacity=".07" fill="#000" d="M35 0H3C1.3 0 0 1.3 0 3v18c0 1.7 1.4 3 3 3h32c1.7 0 3-1.3 3-3V3c0-1.7-1.4-3-3-3z"/><path fill="#fff" d="M35 1c1.1 0 2 .9 2 2v18c0 1.1-.9 2-2 2H3c-1.1 0-2-.9-2-2V3c0-1.1.9-2 2-2h32"/><g clip-rule="evenodd" fill="#303493" fill-rule="evenodd"><path d="M17.182 5.112c-1.17-.007-2.342 0-3.513.02a.441.441 0 00-.22.22c-.026.705-.026 1.41 0 2.115.033.14.12.227.26.26l6.149.04a607.156 607.156 0 00-6.648 8.085 19.325 19.325 0 000 1.757c.058.098.131.185.22.26 1.25.02 2.501.026 3.752.02v2.155c-1.184.007-2.369 0-3.553-.02-2.062-.186-3.267-1.297-3.613-3.333-.046-1.73-.066-3.46-.06-5.191-.006-1.77.014-3.54.06-5.31.4-1.971 1.605-3.043 3.613-3.214 1.184-.02 2.369-.027 3.553-.02v2.156z"/><path d="M19.818 17.888c1.237.007 2.475 0 3.713-.02a.61.61 0 00.26-.26c.026-.691.026-1.383 0-2.075a.484.484 0 00-.3-.26l-6.349-.04c2.208-2.665 4.41-5.333 6.608-8.005.045-.323.065-.65.06-.978l-.02-.859a.419.419 0 00-.26-.26c-1.237-.02-2.475-.026-3.712-.02V2.957c1.184-.007 2.369 0 3.553.02 2.008.171 3.213 1.243 3.613 3.214.046 1.77.066 3.54.06 5.31.006 1.731-.014 3.461-.06 5.19-.346 2.038-1.55 3.149-3.613 3.334-1.184.02-2.369.027-3.553.02v-2.156z"/></g></svg>