<svg xmlns="http://www.w3.org/2000/svg" width="38" height="24" aria-labelledby="pi-zulilycreditcard" role="img" viewBox="0 0 38 24"><title id="pi-zulilycreditcard">Zulily Credit Card</title><defs><clipPath id="pi-clippath"><rect fill="none" x=".98" y="1" width="36.09" height="22.02" rx="1.51" ry="1.51"/></clipPath><clipPath id="pi-clippath-3"><path fill="none" d="M5.22 5.43h27.56v13.13H5.22z"/></clipPath><linearGradient id="pi-linear-gradient" x1="1.76" y1="1.87" x2="35.59" y2="21.75" gradientUnits="userSpaceOnUse"><stop offset="0" stop-color="#8a1a9b"/><stop offset="1" stop-color="#8a1a9b" stop-opacity="0"/></linearGradient></defs><g clip-path="url(#pi-clippath)"><path fill="#490e67" d="M.98 1h36.09v22.02H.98z"/><path fill="url(#pi-linear-gradient)" d="M.98 1h36.09v22.02H.98z"/></g><g clip-path="url(#pi-clippath-3)" fill="#fff"><path d="M9.9 15.49c-.82-.05-2.11.34-2.65.38 0-.3 3.82-4.87 3.82-5.97-.38-2.16-3.04.55-4.68.35-.4.06-1.09-.46-1.17.11.38 1.53 3.99-.27 4.17-.13-.2.9-5.64 6-3.26 7.12.7-.06 3.89-1.89 5.27-.88.89-.46-.38-1.01-1.5-.97m12.22-6.16c.77-.46.89-1.7-.42-1.42-.8.24-.58 1.8.42 1.42"/><path d="M32.78 12.49c-.19-.78-1.26 1.16-1.71 1.32.03-.23.48-3.41.49-3.77-1.17-2.39-2.63 4.1-3.64 3.87-.41 0 .47-2.33.47-3.58-.95-1.6-1.79 1.56-1.83 2.74-1.34 2.91-2.08 1.04-1.81-1.37 5.7-7.71-1.23-8.85-1.28.73-.38.94-.99 2.27-1.51 2.3-.72-.59.23-3.79.15-4.15-.22-.46-1.39-.44-1.26.32-.54 2.71-3.01 7.33-2.54 1.28 5.62-7.49-1.55-8.75-1.4.87-.37 1.01-1.42 2.6-1.53 1.07-.17-.85.92-3.5.19-3.84-1.62-.54-1.69 3.87-2.87 4.35-.86 0 .07-3.06.07-3.53-1.26-1.6-1.89 1.88-1.78 2.54.08 3.12 2.98 1.39 3.12-.33-.31 1.35 1.68 3.34 2.88.83.21 2.87 3.06 1.65 3.56-.44-.19 2.43 2.53 2.01 2.99-.15.03 2.42 2.39 2.1 3.21.48 1.24 1.57 2.85-.97 3.26-2.11 0 .65-.14 1.61-.36 2.58-6.08 4.08.06 6.36 1.24.17.58-.53 1.9-1.77 1.91-2.2M19.64 6.49c.87 1.35-.69 4.06-1.29 4.71.1-1.3.75-4.71 1.29-4.71m6.48-.53c.97 1.2-.52 3.72-1.22 4.56.27-1.84.82-4.56 1.22-4.56m1.71 12.06c-1.17-.5.87-2.07 1.6-2.71-.41 1.45-1 2.71-1.6 2.71"/></g><path fill="#000" opacity=".07" d="M35 0H3C1.3 0 0 1.3 0 3v18c0 1.7 1.4 3 3 3h32c1.7 0 3-1.3 3-3V3c0-1.7-1.4-3-3-3z"/></svg>