<svg xmlns="http://www.w3.org/2000/svg" role="img" viewBox="0 0 38 24" width="38" height="24" aria-labelledby="pi-zustaina"><title id="pi-zustaina">Zustaina</title><path opacity=".07" d="M35 0H3C1.3 0 0 1.3 0 3v18c0 1.7 1.4 3 3 3h32c1.7 0 3-1.3 3-3V3c0-1.7-1.4-3-3-3z"/><path d="M35 1c1.1 0 2 .9 2 2v18c0 1.1-.9 2-2 2H3c-1.1 0-2-.9-2-2V3c0-1.1.9-2 2-2h32z" fill="#2f5252"/><path fill="#FFF" opacity=".2" d="M32.531 20.868c-.03-.411-.03-4.364-.09-4.775-.06-8.38-8.072-14.703-15.755-12.395 0 1.391-.06 2.814 0 4.237.299 6.356 4.125 11.352 9.716 12.711 1.854.443 4.216.253 6.129.222"/><path fill="#FFF" d="M9.331 9.358v.696c0 .253-.06.442-.21.632-.777.949-1.554 1.866-2.301 2.814-.06.032-.09.064-.12.158H8.524c.508 0 .867.443.807 1.012H5.384v-.822c.06-.316.27-.537.45-.759.687-.853 1.404-1.707 2.092-2.561a.435.435 0 00.09-.126H6.282c-.539 0-.778-.19-.927-.728v-.031-.253c1.345-.032 2.66-.032 3.976-.032zM23.592 9.358c.06 0 .09.032.15.032.418.126.717.506.747.948v.348c-.748.158-1.286-.38-1.286-1.043v-.285h.389zM26.133 11.002v.348c.03 0 .03-.031.06-.031.538-.728 1.584-.57 2.063.284.12.221.18.474.18.727v2.309h-.808c-.12 0-.15-.032-.15-.158v-1.834c0-.348-.179-.601-.448-.696-.419-.158-.837.19-.837.632v2.024h-.987v-.158-2.783c0-.284.09-.41.33-.506.149 0 .358-.063.597-.158zM10.676 11.034v1.992c0 .348.21.6.509.696.299.063.598-.064.717-.348.06-.095.06-.222.06-.348v-1.265c0-.253.09-.41.329-.506.21-.063.418-.158.628-.221v3.636c-.36.032-.688.032-.957-.284-.03.031-.06.031-.06.063-.448.38-.927.443-1.405.221-.508-.253-.777-.695-.777-1.265v-1.644c0-.221.09-.38.299-.442.209-.127.418-.222.657-.285zM16.058 11.508c-.24.127-.449.285-.658.411-.06.032-.15 0-.21-.031-.179-.127-.328-.158-.537-.127a.329.329 0 00-.27.253c0 .158.03.221.21.285.269.095.538.19.807.316a2 2 0 01.329.221c.448.411.478 1.044.06 1.486-.419.443-.927.538-1.495.348a2.195 2.195 0 01-.598-.316c-.12-.063-.18-.221-.299-.316.269-.127.508-.222.747-.348.06-.032.15.032.18.063.21.158.418.19.628.127.12-.032.209-.127.209-.253 0-.127-.06-.222-.18-.253l-.358-.095c-.33-.063-.598-.221-.867-.443-.419-.41-.359-1.075-.09-1.391.329-.443.777-.57 1.316-.506.448 0 .807.19 1.076.57zM18.629 13.69v.98c-.359-.031-.747.064-1.076-.126-.389-.222-.598-.538-.598-1.012v-1.36-.158h-.449v-.948c0-.032.06-.064.09-.064h.359v-.442c0-.285.09-.411.329-.475.209-.063.418-.158.627-.221v1.17h.598v1.012h-.478c-.09 0-.12.031-.12.126v1.17c0 .222.09.316.3.316.149 0 .268 0 .418.032-.03-.032 0-.032 0 0zM24.489 10.781v3.731c0 .19 0 .19-.18.19h-.657c-.09 0-.15-.032-.12-.127v-2.909c0-.253.12-.442.329-.569.18-.126.389-.221.628-.316zM31.634 11.16c0-.126.03-.158.15-.158h.837v3.542c0 .158.03.126-.12.126-.269 0-.538 0-.777-.19-.03-.031-.09 0-.15.032-.927.538-2.092.158-2.54-.854-.39-.853-.15-1.897.627-2.466.538-.38 1.256-.411 1.854-.095.03.032.06.032.12.063zm-1.913 1.645c0 .569.418 1.012.956 1.012.509 0 .957-.443.957-1.012 0-.538-.418-1.012-.957-1.012a1.014 1.014 0 00-.956 1.012zM21.828 11.16c0-.126.03-.158.15-.158h.836v3.542c0 .158.03.126-.12.126-.268 0-.537 0-.776-.19-.03-.031-.09 0-.15.032-.927.538-2.093.158-2.541-.854-.389-.853-.15-1.897.628-2.466.538-.38 1.255-.411 1.853-.095.03.032.06.032.12.063zm-1.913 1.645c0 .569.418 1.012.956 1.012.508 0 .957-.443.957-1.012 0-.538-.419-1.012-.957-1.012a1.014 1.014 0 00-.956 1.012z" class="st2"/></svg>