<svg width="38" height="24" viewBox="0 0 38 24" fill="none" xmlns="http://www.w3.org/2000/svg" role="img" aria-labelledby="pi-ach"><title id="pi-ach">Ach</title><g clip-path="url(#pi-ach-clip0)"><path d="M35 .5H3A2.5 2.5 0 00.5 3v18A2.5 2.5 0 003 23.5h32a2.5 2.5 0 002.5-2.5V3A2.5 2.5 0 0035 .5z" stroke="#000" stroke-opacity=".07"/><g clip-path="url(#pi-ach-clip1)"><path d="M1 1h36v22H1V1z" fill="#F9F459"/><path d="M27.337 3.635h1.516l.19.023v7.082l3.291-.023V3.658l.877-.023h2.178l.214.023V20.41h-3.245l-.024-.023-.024-6.783-1.018-.023h-2.25v6.83h-3.245l-.023-.024-.024-.435V4.025l.024-.367 1.563-.023zm-17.124 0h.142l.048.138.236 1.077.19.825.332 1.467.236 1.1.26 1.168.332 1.49.237 1.054.237 1.077.237 1.054.237 1.077.26 1.17.332 1.466.166.756.284 1.284.095.435v.137l-.024.023-3.292-.023-.071-.068-.237-1.077-.379-1.834-.19-.87-.023-.07-3.53-.022-.046.275-.214.962-.497 2.338-.095.343-.023.023H2.279l.024-.206.473-1.97.403-1.697.355-1.466.355-1.49.403-1.673.497-2.062.403-1.696 1.042-4.354.071-.138 3.908-.023zm9.261-.205h.426l.521.045.616.115.568.183.45.206.38.23.33.251.166.16.19.161.166.184.26.32.19.275.237.39.26.504.237.619.142.435.142.573.119.596.118.848.071.825v.16l-.024.023h-3.292l-.07-.045-.19-1.421-.166-.78-.166-.55-.19-.435-.189-.344-.19-.229-.212-.206-.237-.138-.26-.091-.19-.023h-.332L19 6.363l-.237.137-.213.16-.166.16-.26.345-.26.48-.19.482-.166.527-.166.756-.118.848-.071.71-.024.345v1.512l.047.642.119.985.094.573.166.688.142.435.19.458.142.275.213.321.26.275.237.183.261.115.26.069h.356l.355-.092.355-.183.284-.275.237-.344.19-.39.237-.687.142-.642.095-.527.142-1.146.023-.137.048-.023h3.34v.206l-.096.94-.142.893-.166.71-.189.643-.26.664-.285.573-.237.39-.284.39-.213.251-.26.275-.19.184-.332.252-.236.16-.403.23-.545.229-.473.137-.498.092-.402.046h-.9l-.521-.07-.545-.114-.521-.183-.45-.23-.38-.229-.378-.297-.284-.252-.237-.253-.284-.366-.237-.344-.308-.55-.237-.504-.237-.642-.166-.573-.142-.596-.142-.825-.095-.825-.047-.595-.024-.734v-.825l.024-.641.095-1.077.142-.917.166-.756.19-.642.212-.596.284-.619.285-.504.19-.275.283-.366.285-.321.331-.321.403-.298.355-.23.38-.183.26-.114.568-.183.592-.115.355-.046.356-.023z" fill="#1C1C1B"/><path d="M8.129 8.127l.047.069.119.55.308 1.49.568 2.704.095.458v.092H6.968l.048-.252.568-2.636.237-1.1.19-.848.07-.298.024-.206.024-.023z" fill="#F9F459"/></g></g><defs><clipPath id="pi-ach-clip0"><path fill="#fff" d="M0 0h38v24H0z"/></clipPath><clipPath id="pi-ach-clip1"><rect x="1" y="1" width="36" height="22" rx="2" fill="#fff"/></clipPath></defs></svg>