<svg width="38" height="24" viewBox="0 0 38 24" fill="none" xmlns="http://www.w3.org/2000/svg" role="img" aria-labelledby="pi-achdirectdebit"><title id="pi-achdirectdebit">Ach Direct Debit</title><g clip-path="url(#pi-clip0_4778_42)"><path d="M35.038 0h-32a3 3 0 00-3 3v18a3 3 0 003 3h32a3 3 0 003-3V3a3 3 0 00-3-3z" fill="#000" fill-opacity=".07"/><path d="M35.038 1h-32a2 2 0 00-2 2v18a2 2 0 002 2h32a2 2 0 002-2V3a2 2 0 00-2-2z" fill="#fff"/><path d="M7.916 16l2.264-6.984h2.587L15.116 16h-2.147l-.811-2.71a36.86 36.86 0 01-.492-1.827 95.798 95.798 0 01-.436-1.89h.43c-.13.625-.263 1.255-.398 1.89a26.93 26.93 0 01-.454 1.828L10.034 16H7.916zm1.678-1.34v-1.416h3.844v1.415H9.594zm8.962 1.434a3.563 3.563 0 01-1.72-.413 3.011 3.011 0 01-1.205-1.21c-.293-.534-.44-1.187-.44-1.959 0-.778.15-1.434.45-1.968a2.99 2.99 0 011.214-1.21 3.524 3.524 0 011.701-.412c.435 0 .835.06 1.2.178.369.116.692.286.97.51.279.226.504.503.676.83a3.1 3.1 0 01.323 1.126h-1.922a1.216 1.216 0 00-.122-.408.987.987 0 00-.6-.516 1.449 1.449 0 00-.468-.07c-.316 0-.585.078-.807.234a1.403 1.403 0 00-.497.666c-.112.287-.168.634-.168 1.04 0 .425.057.782.173 1.07.116.287.281.502.497.646.219.144.483.216.792.216.175 0 .331-.024.469-.07.137-.047.258-.115.36-.202.104-.088.187-.192.25-.314.065-.122.109-.258.13-.408h1.922a2.61 2.61 0 01-.248.91 3 3 0 01-1.584 1.495c-.385.16-.833.239-1.346.239zM22.494 16V9.016h1.893v2.653H26.9V9.016h1.894V16H26.9v-2.803h-2.512V16h-1.894z" fill="#000"/></g><defs><clipPath id="pi-clip0_4778_42"><path fill="#fff" d="M0 0h38v24H0z"/></clipPath></defs></svg>