<svg viewBox="0 0 38 24" xmlns="http://www.w3.org/2000/svg" width="38" height="24" role="img" aria-labelledby="pi-adyen"><title id="pi-adyen">Adyen</title><path opacity=".07" d="M35 0H3C1.3 0 0 1.3 0 3v18c0 1.7 1.4 3 3 3h32c1.7 0 3-1.3 3-3V3c0-1.7-1.4-3-3-3z" fill="#000"/><path d="M35 1c1.1 0 2 .9 2 2v18c0 1.1-.9 2-2 2H3c-1.1 0-2-.9-2-2V3c0-1.1.9-2 2-2h32z" fill="#fff"/><path d="M9.668 9.912H6.066v1.147h2.348a.263.263 0 01.262.263v2.031h-.501a.263.263 0 01-.263-.263v-1.457H6.92a.92.92 0 00-.92.92v1.027a.92.92 0 00.92.92h3.668v-3.668a.92.92 0 00-.92-.92zM14.03 13.353h-.502a.263.263 0 01-.263-.263V9.912h-.992a.92.92 0 00-.92.92v2.748a.92.92 0 00.92.92h3.668V8H14.03v5.353zM19.382 13.353h-.502a.263.263 0 01-.262-.263V9.912h-1.912v3.668a.92.92 0 00.92.92h1.756v.574h-2.61v1.338h3.602a.92.92 0 00.92-.92v-5.58h-1.912v3.441zM25.727 9.912h-3.668v3.668a.92.92 0 00.92.92h3.602v-1.147h-2.348a.263.263 0 01-.262-.263V11.06h.501a.263.263 0 01.263.263v1.458h.992a.92.92 0 00.92-.92v-1.028a.92.92 0 00-.92-.92zM31.08 9.912h-3.668V14.5h1.912V11.06h.501a.264.264 0 01.263.263V14.5H32v-3.668a.92.92 0 00-.92-.92z" fill="#0ABF53"/></svg>