<svg viewBox="0 0 38 24" xmlns="http://www.w3.org/2000/svg" height="24" width="38" role="img" aria-labelledby="pi-airtel_money"><title id="pi-airtel_money">Airtel Money</title><g fill-rule="evenodd" fill="none"><path fill="#EDEDED" d="M34.5 24h-31C1.6 24 0 22.4 0 20.5v-17C0 1.6 1.6 0 3.5 0h31C36.4 0 38 1.6 38 3.5v17c0 1.9-1.6 3.5-3.5 3.5z"/><path fill="#fff" d="M3.5 1C2.1 1 1 2.1 1 3.5v17C1 21.9 2.1 23 3.5 23h31c1.4 0 2.5-1.1 2.5-2.5v-17C37 2.1 35.9 1 34.5 1h-31z"/><path fill="#EB2227" d="M22.3 3c.6.1 1.2.2 1.7.3 2.2.4 3.9 2 4.5 4.1.3 1.6.1 3.3-.7 4.7-.9 1.8-2.1 3.3-3.7 4.5-2.1 1.8-4.6 3.2-7.3 4.1-.6.2-1.3.3-1.9.3-1.1.1-2.1-.7-2.2-1.8v-.5c.2-2.1 1.7-3.8 3.8-4.4.5 0 1 0 1.4.2.5.2.8.8.6 1.4-.1.2-.2.3-.3.4-.4.4-.8.8-1.2 1.1s-.7.6-1 1c-.2.2-.3.4-.4.6-.2.4 0 .6.4.6.2 0 .4 0 .6-.1 3.5-1.3 6.3-3.7 8.1-6.9.3-.5.4-1 .4-1.6.1-1.7-1-2.7-2.6-2.2-1.2.4-2.5.9-3.6 1.5-1.2.6-2.4 1.4-3.6 2-.9.5-1.9.8-3 .9-.5.1-1 0-1.4-.1-1-.1-1.8-1.1-1.6-2.3 0-.1 0-.2.1-.3.5-1.4 1.4-2.7 2.6-3.5 2.3-1.8 5-3.1 7.9-3.7.5-.1 1.1-.2 1.6-.3h.8z"/></g></svg>