<svg xmlns="http://www.w3.org/2000/svg" viewBox="0 0 38 24" width="38" height="24" role="img" aria-labelledby="pi-airteltigo_mobile_money"><title id="pi-airteltigo_mobile_money">AirtelTigo Money</title><path d="M35 0H3a3 3 0 00-3 3v18a3 3 0 003 3h32a3 3 0 003-3V3a3 3 0 00-3-3z" style="isolation:isolate" opacity=".07"/><path d="M35 1a2 2 0 012 2v18a2 2 0 01-2 2H3a2 2 0 01-2-2V3a2 2 0 012-2h32" fill="#fff"/><path d="M6.35 8.22a1.66 1.66 0 00-.77-.16 2.35 2.35 0 00-.69.1 4.92 4.92 0 00-1.43.76 2.12 2.12 0 00-.61.72 1 1 0 00-.13.47.52.52 0 00.44.54 1.23 1.23 0 00.43 0 2.3 2.3 0 00.71-.33c.3-.18.59-.38.89-.55a2.18 2.18 0 01.55-.22.45.45 0 01.61.46 1 1 0 01-.14.56 3.65 3.65 0 01-1.56 1.53 1.68 1.68 0 01-.34.15.14.14 0 01-.16 0 .12.12 0 010-.16l.22-.27a4.31 4.31 0 00.37-.37.3.3 0 00-.15-.5.53.53 0 00-.44.06 1.29 1.29 0 00-.58.7.87.87 0 00-.07.45.48.48 0 00.5.44 1.9 1.9 0 00.82-.23 5.93 5.93 0 001.51-1.12 2.84 2.84 0 00.78-1.54 1.37 1.37 0 00-.76-1.49zm5.01 1.57a1 1 0 00-.22-.48 1.21 1.21 0 00-.9-.44 2.59 2.59 0 00-1.42.33.21.21 0 00-.08.06c.08.17.15.35.24.51l.47-.17a1.24 1.24 0 01.69-.06.35.35 0 01.3.28.92.92 0 010 .37h-.57a2.11 2.11 0 00-.61.1 1.15 1.15 0 00-.72 1.49 1.33 1.33 0 001.25.87 2.53 2.53 0 00.72-.08 2.11 2.11 0 00.79-.4.27.27 0 00.1-.22v-1.74a3.11 3.11 0 00-.04-.42zm-1 2.17a.86.86 0 01-.55 0 .49.49 0 01-.31-.3.72.72 0 010-.52.57.57 0 01.44-.35 2.23 2.23 0 01.52 0v.97a.16.16 0 01-.11.24zm10.3-.18a1.63 1.63 0 01-.89.24.63.63 0 01-.67-.51 1.84 1.84 0 01-.06-.4 1.91 1.91 0 010-.24h2a3.17 3.17 0 00-.21-1.27 1 1 0 00-.6-.6 1.61 1.61 0 00-.92-.08 1.29 1.29 0 00-.93.72 2.28 2.28 0 00-.27 1 2.25 2.25 0 00.19 1.12 1.41 1.41 0 001.2.88 2.27 2.27 0 001.5-.35l.07-.06c-.08-.17-.16-.34-.25-.51zm-1.33-2.13a.42.42 0 01.56 0 .82.82 0 01.17.6h-1a.8.8 0 01.27-.6zM17.55 12a.4.4 0 01-.41-.43V9.69c0-.07 0-.1.1-.1h.5v-.65h-.6v-1l-.94.16v3.47a1.18 1.18 0 00.13.56.92.92 0 00.45.42 1.77 1.77 0 001 .07V12zm5.24 0a.34.34 0 01-.26-.27 1.37 1.37 0 010-.19V7.91l-.91.16a.53.53 0 000 .12v3.23a2.5 2.5 0 00.05.47.85.85 0 00.53.64 1.69 1.69 0 00.89.08h.05V12zm-7.42-3.13a2.15 2.15 0 00-1.52.6.3.3 0 00-.1.23v2.87a3.91 3.91 0 00.91 0V9.92a.25.25 0 01.14-.25 1.13 1.13 0 01.7-.13h.18c.09-.19.17-.37.25-.56h-.09a2.67 2.67 0 00-.47-.11zM12.81 9l-.58.09c-.14 0-.14 0-.14.16v3.24a.71.71 0 000 .14H13V8.98zm-.25-1.54a.58.58 0 100 1.16.56.56 0 00.56-.62.55.55 0 00-.56-.54z" fill="#ff000d"/><path d="M35.13 10.07a1.52 1.52 0 00-.91-.91 1.86 1.86 0 00-1-.07 1.56 1.56 0 00-1.11.82 2.45 2.45 0 00-.26 1c0 .16 0 .32.06.47a1.67 1.67 0 00.78 1.12 1.71 1.71 0 00.94.21 1.57 1.57 0 001.42-.9 2.16 2.16 0 00.08-1.74zm-.84 1.43a.67.67 0 01-.5.44.75.75 0 01-.93-.51 1.39 1.39 0 01-.08-.57 1.18 1.18 0 01.08-.53.68.68 0 01.63-.5.76.76 0 01.75.41 1.42 1.42 0 01.13.53 1.65 1.65 0 01-.08.73zm-3.43 1.25a.77.77 0 00.61-.74v-.67a.41.41 0 00-.35-.37 4.68 4.68 0 00-.53 0v.08a3.78 3.78 0 010 .75c0 .18-.07.26-.25.27a2.17 2.17 0 01-.44 0 .91.91 0 01-.75-.61 1.64 1.64 0 01-.08-.54 1 1 0 011-1.05 1.73 1.73 0 011.17.24l.15.05v-.3a.63.63 0 00-.28-.56 1.08 1.08 0 00-.54-.2 2.32 2.32 0 00-.79 0 1.9 1.9 0 00-1.22.76 1.85 1.85 0 00-.32 1.37 1.64 1.64 0 00.82 1.28 2.22 2.22 0 001.8.24zm-5.61-.08a.62.62 0 00.49-.86h-.1a1.48 1.48 0 01-.69.06.48.48 0 01-.4-.5v-1.4c0-.1 0-.11.11-.11h.51a1 1 0 00.24 0 .4.4 0 00.34-.32 1.46 1.46 0 000-.42h-1.2v-.77a.56.56 0 00-.52.13.94.94 0 00-.29.42 1.37 1.37 0 000 .4v2a2 2 0 000 .48 1 1 0 00.72.79 1.63 1.63 0 00.79.1zm-7.02.59c-.07.22-.15.44-.22.67s-.15.44-.22.66-.15.44-.22.66a1.55 1.55 0 00-.07-.23c-.08-.27-.17-.54-.25-.81l-.29-.86s0-.1-.07-.1h-.49c0 .3-.08.58-.12.87s-.08.57-.11.86a7.9 7.9 0 00-.11.85 1.85 1.85 0 00.47 0c.07-.55.14-1.09.2-1.63a.5.5 0 000 .13c.15.48.31.95.46 1.43 0 .06.05.09.11.09h.36a.12.12 0 00.13-.1c.12-.39.25-.78.38-1.17l.12-.38.21 1.64h.55c-.12-.87-.24-1.72-.36-2.57zm13.31 1.36a2.77 2.77 0 01-2.34-1.24v.39a1.35 1.35 0 00.33.87 2.75 2.75 0 003.91.21 1.42 1.42 0 00.46-.85 3 3 0 000-.52.49.49 0 000-.11 2.88 2.88 0 01-2.36 1.25zm-4.27-3.16V9.92a1.93 1.93 0 000-.24.5.5 0 00-.4-.44 1.63 1.63 0 00-.44 0v2.45a1.28 1.28 0 00.1.47 1 1 0 001.22.51.3.3 0 00.2-.21A.85.85 0 0028 12h-.39a.31.31 0 01-.28-.28 1.49 1.49 0 01-.06-.26zm.34 2.61l-.3 1a.69.69 0 010 .13.69.69 0 00-.05-.13c-.11-.33-.22-.65-.34-1 0 0 0-.1-.07-.1a2.78 2.78 0 00-.5 0 2.07 2.07 0 00.08.2c.19.51.39 1 .58 1.52a.28.28 0 010 .25c0 .05 0 .11-.07.16a.39.39 0 01-.39.25h-.19v.38h.22a.79.79 0 00.72-.28 1.62 1.62 0 00.19-.37c.26-.67.51-1.35.76-2a.35.35 0 000-.12h-.37c-.23.04-.23.04-.27.11zM20.85 14a1.12 1.12 0 00-.6 0 .82.82 0 00-.62.52 1.17 1.17 0 00-.09.45 1.11 1.11 0 00.12.52.85.85 0 00.78.48.9.9 0 00.93-.59 1.19 1.19 0 00.07-.56.89.89 0 00-.59-.82zm0 1.29a.33.33 0 01-.34.25.35.35 0 01-.36-.23 1 1 0 01-.06-.57 1 1 0 010-.17.33.33 0 01.32-.25.36.36 0 01.37.2 1 1 0 01.09.48 1.49 1.49 0 01-.02.25zm2.79-.96a.46.46 0 00-.35-.4.73.73 0 00-.67.13l-.12.09v-.19H22v1.87a2.78 2.78 0 00.5 0 1.09 1.09 0 000-.17v-1a.21.21 0 010-.14.42.42 0 01.3-.2.23.23 0 01.3.2.76.76 0 010 .15v1a.92.92 0 000 .16h.48v-1.3a1.5 1.5 0 00.06-.2zm2.28.67v-.41a.73.73 0 00-.64-.68.91.91 0 00-1 .59 1.22 1.22 0 000 .8.8.8 0 00.56.54 1.36 1.36 0 001-.09s.05 0 .08-.06-.1-.2-.16-.3-.16.07-.24.09a.69.69 0 01-.47 0 .41.41 0 01-.23-.46zm-1.19-.34a.46.46 0 01.19-.35.33.33 0 01.36 0 .34.34 0 01.16.34c-.23.02-.44.01-.71.01zm8.88-6.73a1.9 1.9 0 011.55.71 1.92 1.92 0 010-.24.78.78 0 00-.3-.67 1.89 1.89 0 00-1.47-.46 2 2 0 00-1.06.44.88.88 0 00-.31.56.93.93 0 000 .38 2 2 0 011.59-.72zm-6.78.94a.49.49 0 00.51-.5.51.51 0 00-.51-.51.5.5 0 00-.49.5.49.49 0 00.49.51z" fill="#143e7b"/></svg>