<svg viewBox="0 0 38 24" width="38" height="24" role="img" aria-labelledby="pi-arbitrum" xml:space="preserve" version="1.1" xmlns="http://www.w3.org/2000/svg"><title id="pi-arbitrum">Arbitrum</title><rect width="38" height="24" rx="3" fill-opacity=".07" x=".038"/><rect x="1.038" y="1" width="36" height="22" rx="2" fill="#fff" /><path d="M13.147 6.676h11.708v10.648H13.147Z" fill="#fff"/><g transform="translate(7.18 .18) scale(.02364)"><path d="M92 92h816v816H92Z" fill="none" /><path fill="#213147" d="M165.8 340.1V660c0 20.6 10.8 39.2 28.7 49.6l277.1 159.9c17.6 10.1 39.5 10.1 57.1 0l277.1-159.9c17.6-10.1 28.7-29 28.7-49.6V340.1c0-20.6-10.8-39.2-28.7-49.6l-277.1-160c-17.6-10.1-39.5-10.1-57.1 0l-277.1 160c-17.6 10.1-28.4 29-28.4 49.6z"/><path d="m560.4 562-39.5 108.4c-1 2.9-1 6.2 0 9.5l67.9 186.4 78.6-45.4-94.3-258.8c-2.3-6-10.4-6-12.7-.1zm79.3-182.1c-2.3-5.9-10.4-5.9-12.7 0l-39.5 108.4c-1 2.9-1 6.2 0 9.5L698.8 803l78.6-45.4-137.7-377.4Z" fill="#12aaff"/><path d="M500 142.6c2 0 3.9.6 5.5 1.6l299.6 173c3.6 2 5.5 5.9 5.5 9.8v346c0 3.9-2.3 7.8-5.5 9.8l-299.6 173c-1.6 1-3.6 1.6-5.5 1.6s-3.9-.6-5.5-1.6l-299.6-173c-3.6-2-5.5-5.9-5.5-9.8V326.7c0-3.9 2.3-7.8 5.5-9.8l299.6-173c1.6-1 3.6-1.6 5.5-1.6zm0-50.6c-10.8 0-21.2 2.6-31 8.2l-299.6 173c-19.2 11.1-31 31.3-31 53.5v346c0 22.2 11.8 42.4 31 53.5l299.6 173c9.5 5.5 20.2 8.2 31 8.2s21.2-2.6 31-8.2l299.6-173c19.2-11.1 31-31.3 31-53.5v-346c0-22.2-11.8-42.4-31-53.5l-299.9-173c-9.5-5.5-20.2-8.2-31-8.2Z" fill="#9dcced"/><path fill="#213147" d="m301.5 803.2 27.8-75.7 55.5 46-51.9 47.7z"/><path d="M474.5 302.2h-76.1c-5.5 0-10.8 3.6-12.7 8.8L222.9 757.5l78.6 45.4L481.1 311c1.6-4.6-1.6-9.1-6.2-9.1zm133.2 0h-76.1c-5.5 0-10.8 3.6-12.7 8.8l-186 509.8 78.6 45.4L613.9 311c1.6-4.6-1.6-9.1-6.2-9.1z" fill="#fff"/></g></svg>
