<svg viewBox="0 0 38 24" width="38" height="24" role="img" aria-labelledby="pi-avalanche" xml:space="preserve" xmlns="http://www.w3.org/2000/svg"><title id="pi-avalanche">Avalanche</title><rect width="38" height="24" rx="3" fill-opacity=".07" x=".038"/><rect x="1.038" y="1" width="36" height="22" rx="2" fill="#fff"/><path d="M13.147 6.676h11.708v10.648H13.147Z" fill="#fff"/><path d="M28.475 12A9.474 9.474 0 0 1 19 21.475 9.474 9.474 0 0 1 9.525 12 9.474 9.474 0 0 1 19 2.525 9.474 9.474 0 0 1 28.475 12Zm-12.16 3.77h-1.84c-.387 0-.578 0-.693-.075a.473.473 0 0 1-.212-.366c-.007-.137.088-.305.279-.64l4.542-8.002c.193-.34.29-.509.414-.573a.474.474 0 0 1 .423 0c.124.062.221.232.414.573l.934 1.63.005.008c.208.366.314.55.36.744.051.213.051.434 0 .646-.046.195-.15.381-.363.753l-2.384 4.215-.006.011c-.21.368-.317.553-.465.695a1.399 1.399 0 0 1-.565.328c-.192.053-.41.053-.843.053zm4.644 0h2.634c.39 0 .585 0 .702-.078a.47.47 0 0 0 .213-.367c.006-.133-.087-.294-.27-.609l-.02-.033-1.32-2.258-.015-.024c-.186-.315-.28-.472-.399-.534a.469.469 0 0 0-.42 0c-.122.062-.22.228-.412.56l-1.315 2.258-.004.01c-.193.331-.288.497-.281.634a.47.47 0 0 0 .212.368c.11.073.306.073.695.073z" fill-rule="evenodd" clip-rule="evenodd" fill="#e84142"/></svg>
