<svg width="38" height="24" viewBox="0 0 38 24" fill="none" xmlns="http://www.w3.org/2000/svg" role="img" aria-labelledby="pi-banktransfer"><title id="pi-banktransfer">Bank Transfer</title><g clip-path="url(#pi-banktransfer-clip)"><path opacity=".07" d="M35 0H3C1.3 0 0 1.3 0 3v18c0 1.7 1.4 3 3 3h32c1.7 0 3-1.3 3-3V3c0-1.7-1.4-3-3-3z" fill="#000"/><path d="M35 1c1.1 0 2 .9 2 2v18c0 1.1-.9 2-2 2H3c-1.1 0-2-.9-2-2V3c0-1.1.9-2 2-2h32z" fill="#fff"/><path fill-rule="evenodd" clip-rule="evenodd" d="M10 7l-4 2v1h8V9L10 7zM7 10.75v3.5h1v-3.5H7zm2 0v3.5h1v-3.5H9zm2 0v3.5h1.5v-3.5H11zM6 15v1h8v-1H6zM28 7l-4 2v1h8V9l-4-2zm-3 3.75v3.5h1v-3.5h-1zm2 0v3.5h1v-3.5h-1zm2 0v3.5h1.5v-3.5H29zM24 15v1h8v-1h-8z" fill="#4A4A4A"/><path d="M15.5 10h7M15.5 10l1.5-1.25M15.5 10l1.5 1.25" stroke="#4A4A4A" stroke-width=".9" stroke-linecap="round" stroke-linejoin="round"/><path d="M22.5 14h-7M22.5 14l-1.5-1.25M22.5 14l-1.5 1.25" stroke="#4A4A4A" stroke-width=".9" stroke-linecap="round" stroke-linejoin="round"/></g><defs><clipPath id="pi-banktransfer-clip"><path fill="#fff" d="M0 0h38v24H0z"/></clipPath></defs></svg>