<svg xmlns="http://www.w3.org/2000/svg" role="img" viewBox="0 0 38 24" width="38" height="24" aria-labelledby="pi-bankrakyat"><title id="pi-bankrakyat">Bank Rakyat</title><g clip-path="url(#pi-bankrakyat-a)"><path fill="#000" d="M35 0H3C1.3 0 0 1.3 0 3v18c0 1.7 1.4 3 3 3h32c1.7 0 3-1.3 3-3V3c0-1.7-1.4-3-3-3Z" opacity=".07"/><path fill="#fff" d="M35 1c1.1 0 2 .9 2 2v18c0 1.1-.9 2-2 2H3c-1.1 0-2-.9-2-2V3c0-1.1.9-2 2-2h32Z"/><path fill="#F36F20" d="M3 11.222h1.163L5.392 9h1.37l-1.3 2.255.614 1.096H3.651"/><path fill="#F36F20" d="M5.873 11.073 7.07 9h1.367l-.549 1.062 1.265 2.09-.716 1.125-1.264-2.204"/><path fill="#F36F20" d="M3.854 12.68h2.599l.583-1.26 1.228 2.123-.719 1.16L7 13.775H4.506"/><path fill="#354C9E" d="M10.896 10.703h.516c.249 0 .424-.033.53-.103a.335.335 0 0 0 .158-.3.26.26 0 0 0-.052-.16.286.286 0 0 0-.135-.097 1.049 1.049 0 0 0-.314-.032h-.541l-.162.692Zm-.235 1.011h.578c.147 0 .255-.003.303-.012a.733.733 0 0 0 .26-.084.396.396 0 0 0 .156-.152.382.382 0 0 0 .06-.198.274.274 0 0 0-.11-.236c-.074-.053-.216-.081-.423-.081h-.645l-.178.763Zm-.378.25.512-2.203h.77c.141 0 .246.008.314.018.11.015.203.046.283.09a.474.474 0 0 1 .238.415.49.49 0 0 1-.11.32.678.678 0 0 1-.335.211.58.58 0 0 1 .292.176c.068.08.101.172.101.277 0 .12-.04.235-.118.346a.752.752 0 0 1-.315.259.973.973 0 0 1-.43.09h-1.202Zm2.935-.862h.8l-.096-.55a7.702 7.702 0 0 1-.068-.547c-.05.122-.132.274-.243.447l-.393.65Zm-.89.862 1.377-2.203h.393l.394 2.203h-.32l-.117-.634h-.979l-.388.634h-.36Zm2.475 0 .512-2.203h.336l.4.827c.124.252.22.467.292.638.042.101.09.235.141.406.036-.188.07-.38.113-.577l.3-1.294h.323l-.507 2.203h-.331l-.586-1.273a7.983 7.983 0 0 1-.258-.616 5.517 5.517 0 0 1-.104.55l-.306 1.339h-.325Zm2.457 0 .506-2.203h.322l-.243 1.062 1.322-1.062h.458l-1.126.894.826 1.309h-.365l-.701-1.117-.512.407-.168.71m3.021-1.307h.313c.034 0 .105-.01.207-.03a.289.289 0 0 0 .138-.071.271.271 0 0 0 .083-.128c.02-.07.005-.125-.032-.162-.042-.038-.124-.06-.263-.06h-.328l-.119.451Zm-1.1 1.308.58-2.204h1.248c.232 0 .405.021.518.055a.397.397 0 0 1 .244.203.495.495 0 0 1 .017.353.758.758 0 0 1-.168.319.964.964 0 0 1-.294.212 1.187 1.187 0 0 1-.283.09.52.52 0 0 1 .17.082.4.4 0 0 1 .094.114.852.852 0 0 1 .067.138l.196.638h-.85l-.223-.676c-.025-.084-.057-.142-.09-.167a.26.26 0 0 0-.17-.052h-.065l-.235.895H19.5Zm4.181-.838-.054-.793-.472.793h.526Zm.034.476h-.846l-.218.36h-.76l1.479-2.202h.829l.325 2.203h-.783m1.61-2.203h.75l-.22.834 1.004-.834h.997l-1.101.827.563 1.376h-.925l-.272-.903-.485.368-.141.535h-.75m3.156-2.203h.83l.296.74.685-.74h.827l-1.28 1.283-.243.92h-.75l.24-.92m2.928.083-.054-.793-.473.793h.526Zm.033.476h-.846l-.215.36h-.767l1.486-2.202h.826l.328 2.203h-.787m1.198-2.203H35l-.142.544h-.766l-.437 1.659h-.75l.436-1.66h-.767m-1.157 3.182-.137-.148.151-.085.116.1-.13.133Zm2.054-.082.018.23h-.7v-.413l-.229.198v.234h-.911c.014-.135.283-.315.283-.315-.238 0-.515-.334-.515-.334-.051.166-.532.316-.532.316.248.117.234.314.234.314h-.716c0-.447-.515-.464-.515-.464H28.68c.017-.132.348-.315.348-.315.33-.181.184-.396.184-.396-.235-.465-.832-.233-.832-.233l.167.232c.696-.034.017.347.017.347-.362.199-.4.582-.4.582h1.475c.348 0 .3.247.3.247h-2.221v.3H33.8v-.746l-.329.216Zm-1.853-.914-.187-.185-.19.186.19.186.187-.186Z"/><path fill="#354C9E" d="m31.745 13.011.19-.189-.19-.185-.186.185.186.19Zm-.285 1.253.189.19.187-.19-.187-.187-.19.188Zm-7.479 0 .19.19.187-.19-.187-.187-.19.188Zm-.512 0 .187.19.187-.19-.187-.187-.187.188Zm-.985-1.209-.187-.187-.19.187.19.188.187-.188Zm-.702-.187-.186.187.186.188.19-.188-.19-.187Zm10.192 1.447.187.186.187-.186-.187-.187-.187.187Zm.826 0 .188.186.189-.186-.19-.187-.186.187Zm-1.462-1.493-.187-.185-.19.185.19.19.187-.19Zm-4.433.348c-.365-.066-.433.366-.433.366.252-.067.368.164.368.164.065.433-.55.514-.55.514.485.2.816-.231.816-.231.346-.53-.2-.813-.2-.813Z"/><path fill="#354C9E" d="M22.81 13.693a.14.14 0 0 1-.14-.14.14.14 0 0 1 .14-.143c.076 0 .141.063.141.143 0 .076-.065.14-.141.14Zm3.317-.059h-.598c-.198-.295.43-.431.43-.431-.146-.047-.183-.544-.183-.544-.063.345-.594.51-.594.51-.298.136.02.484.02.484h-.536v-.58l-.399.232c.102 0 .102.348.102.348h-1.112v-.697l-.331.117v.18c-.496 0-.663.381-.663.381h-.181l-.28.283h4.605l-.28-.283Z"/></g><defs><clipPath id="pi-bankrakyat-a"><path fill="#fff" d="M0 0h38v24H0z"/></clipPath></defs></svg>
