<svg xmlns="http://www.w3.org/2000/svg" role="img" viewBox="0 0 38 24" width="38" height="24" aria-labelledby="pi-bankmuamalat"><title id="pi-bankmuamalat">Bank Muamalat</title><g clip-path="url(#pi-bankmuamalat-a)"><path fill="#000" d="M35 0H3C1.3 0 0 1.3 0 3v18c0 1.7 1.4 3 3 3h32c1.7 0 3-1.3 3-3V3c0-1.7-1.4-3-3-3Z" opacity=".07"/><path fill="#fff" d="M35 1c1.1 0 2 .9 2 2v18c0 1.1-.9 2-2 2H3c-1.1 0-2-.9-2-2V3c0-1.1.9-2 2-2h32Z"/><path fill="#35337C" fill-rule="evenodd" d="M30.565 18H34v-.427c0-2.552-1.28-4.335-2.535-5.463a9.874 9.874 0 0 0-2.291-1.533 5.753 5.753 0 0 0-.165-.075l-.045-.02-.013-.005-.004-.001h-.002v-.001l-.159.396.159-.396-.015-.006-.016-.005c-1.95-.614-3.026-1.713-3.619-2.645a5.488 5.488 0 0 1-.58-1.209 4.049 4.049 0 0 1-.125-.475v-.003l-.423.064-.422.064v.002l.001.004.002.011.007.037a4.904 4.904 0 0 0 .151.565c.12.364.327.86.669 1.398.687 1.079 1.914 2.313 4.065 2.996l.03.012c.031.014.079.035.14.064a9.024 9.024 0 0 1 2.084 1.395c1.066.959 2.108 2.393 2.239 4.402h-1.727c-.133-2.325-1.34-3.972-2.523-5.036a9.874 9.874 0 0 0-2.291-1.533 5.735 5.735 0 0 0-.164-.075l-.046-.02a.643.643 0 0 0-.013-.005l-.004-.001-.002-.001-.159.396.159-.396-.015-.006-.015-.005c-1.95-.614-3.027-1.713-3.62-2.645a5.486 5.486 0 0 1-.579-1.209 4.04 4.04 0 0 1-.122-.454l-.004-.02v-.004l-.422.064-.422.064v.006l.003.011a2.337 2.337 0 0 0 .033.163c.024.107.064.257.124.439.121.364.327.86.67 1.398.686 1.079 1.913 2.313 4.064 2.996l.03.012c.031.014.079.035.14.064a9.02 9.02 0 0 1 2.084 1.395c1.14 1.025 2.253 2.594 2.253 4.83V18Zm-4.52-6.733Zm2.582 0Zm-6.62-5.135Z" clip-rule="evenodd"/><path fill="#35337C" fill-rule="evenodd" d="M9.163 18h3.435v-.427c0-2.235 1.113-3.804 2.252-4.829a9.02 9.02 0 0 1 2.084-1.395 4.975 4.975 0 0 1 .17-.076c2.15-.683 3.378-1.917 4.065-2.996a6.339 6.339 0 0 0 .669-1.398 4.904 4.904 0 0 0 .158-.602l.002-.011v-.005l-.422-.065-.422-.063v.002l-.004.02a4.075 4.075 0 0 1-.123.455c-.102.31-.28.74-.578 1.209-.593.932-1.67 2.03-3.62 2.645l-.015.005-.014.006.158.396a42.084 42.084 0 0 0-.159-.396h-.002l-.004.002-.013.006c-.01.004-.026.01-.045.02a8.638 8.638 0 0 0-.735.372 9.871 9.871 0 0 0-1.72 1.235c-1.184 1.064-2.39 2.71-2.523 5.037H10.03c.131-2.01 1.173-3.444 2.239-4.403a9.024 9.024 0 0 1 2.084-1.395c.06-.03.108-.05.14-.064.012-.005.022-.01.03-.012 2.15-.683 3.378-1.917 4.065-2.996a6.339 6.339 0 0 0 .669-1.398 4.896 4.896 0 0 0 .157-.602l.002-.011v-.004l.001-.001-.422-.065-.422-.063v.002l-.004.02c-.004.02-.01.052-.02.093a3.99 3.99 0 0 1-.102.362c-.103.31-.281.74-.58 1.209-.592.932-1.67 2.03-3.619 2.645l-.015.005-.015.006.159.396a42.084 42.084 0 0 0-.16-.396h-.001l-.004.002-.013.006a6.355 6.355 0 0 0-.21.094 9.867 9.867 0 0 0-2.291 1.533c-1.255 1.128-2.535 2.91-2.535 5.463V18Zm5.372-6.733Zm2.582 0Zm1.456-5.135Z" clip-rule="evenodd"/><path fill="#35337C" fill-rule="evenodd" d="M25.402 18h3.435v-.427c0-2.552-1.28-4.335-2.535-5.463a9.878 9.878 0 0 0-2.291-1.533 5.735 5.735 0 0 0-.164-.075l-.046-.02-.013-.005-.004-.001-.002-.001-.159.396.159-.396-.015-.006-.015-.005c-1.95-.614-3.027-1.713-3.62-2.645a5.491 5.491 0 0 1-.58-1.209 4.067 4.067 0 0 1-.122-.454l-.003-.02v-.004l-.423.064-.422.064v.002l.001.004.001.005.001.006a2.38 2.38 0 0 0 .033.163c.025.107.064.257.125.439.12.364.326.86.669 1.398.686 1.079 1.914 2.313 4.065 2.996l.03.012c.031.014.079.035.14.064a9.02 9.02 0 0 1 2.084 1.395c1.066.959 2.108 2.393 2.239 4.402h-1.727c-.133-2.325-1.34-3.972-2.522-5.036a9.878 9.878 0 0 0-2.292-1.533 5.735 5.735 0 0 0-.164-.075l-.046-.02-.013-.005-.004-.001-.002-.001-.159.396.159-.396-.015-.006-.015-.005c-1.95-.614-3.027-1.713-3.62-2.645a5.485 5.485 0 0 1-.578-1.209 4.068 4.068 0 0 1-.126-.475v-.003l-.423.064-.422.064v.002l.001.004a.688.688 0 0 1 .009.048 4.897 4.897 0 0 0 .151.565c.12.364.326.86.669 1.398.686 1.079 1.913 2.313 4.064 2.996l.03.012a7.802 7.802 0 0 1 .654.33c.429.244 1 .616 1.57 1.129 1.14 1.025 2.253 2.594 2.253 4.83V18Zm-1.938-6.733Zm-4.038-5.135Zm-2.58 0Z" clip-rule="evenodd"/><path fill="#35337C" fill-rule="evenodd" d="M4 18h3.435v-.427c0-2.235 1.113-3.804 2.252-4.829a9.02 9.02 0 0 1 2.085-1.395c.06-.03.108-.05.14-.064.012-.005.022-.01.03-.012 2.15-.683 3.378-1.917 4.064-2.996a6.339 6.339 0 0 0 .67-1.398 4.932 4.932 0 0 0 .159-.613V6.26l-.421-.065-.422-.063v.002l-.005.02a4.068 4.068 0 0 1-.122.455c-.103.31-.28.74-.579 1.209-.593.932-1.67 2.03-3.619 2.645l-.015.005-.015.006.158.396a42.084 42.084 0 0 0-.159-.396h-.001l-.004.002-.013.006a5.735 5.735 0 0 0-.21.094 9.876 9.876 0 0 0-2.291 1.533c-1.184 1.064-2.39 2.71-2.523 5.036H4.867c.131-2.01 1.173-3.443 2.239-4.402a9.021 9.021 0 0 1 2.084-1.395c.061-.03.108-.05.14-.064.012-.005.022-.01.03-.012 2.15-.683 3.378-1.917 4.065-2.996a6.339 6.339 0 0 0 .669-1.398 4.896 4.896 0 0 0 .157-.602l.002-.011v-.004l.001-.001-.422-.065-.422-.063v.002l-.004.02a4.074 4.074 0 0 1-.122.455c-.103.31-.28.74-.58 1.209-.592.932-1.669 2.03-3.619 2.645l-.015.005-.015.006.159.396a42.708 42.708 0 0 0-.16-.396h-.001l-.004.002-.007.003-.006.003c-.01.004-.026.01-.046.02a8.644 8.644 0 0 0-.735.372 9.87 9.87 0 0 0-1.72 1.235C5.28 13.238 4 15.02 4 17.573V18Zm5.373-6.733Zm2.581 0Zm4.038-5.135Z" clip-rule="evenodd"/><path fill="#35337C" fill-rule="evenodd" d="M14.326 18h9.348v-.427c0-2.552-1.28-4.335-2.535-5.463a9.755 9.755 0 0 0-1.202-.921c1.996-.696 3.154-1.876 3.814-2.912a6.343 6.343 0 0 0 .669-1.398 4.93 4.93 0 0 0 .159-.613v-.005c.001-.001.001-.001-.421-.065l-.422-.063v.002l-.002.01-.002.01c-.004.02-.01.052-.02.093a3.747 3.747 0 0 1-.103.362c-.102.31-.28.74-.579 1.209-.592.932-1.67 2.03-3.618 2.645l-.016.005-.015.006.159.396a42.077 42.077 0 0 0-.159-.396h-.002l-.004.002-.013.006c-.01.004-.026.01-.045.02a5.753 5.753 0 0 0-.317.148 7.252 7.252 0 0 0-.317-.149l-.046-.02c-.005-.002-.01-.003-.012-.005l-.005-.001-.001-.001-.16.396.16-.396-.016-.006-.015-.005c-1.95-.614-3.026-1.713-3.619-2.645a5.488 5.488 0 0 1-.579-1.209 4.067 4.067 0 0 1-.126-.475v-.003l-.422.064-.422.064v.002l.001.004.002.011.006.037.027.126c.025.107.064.257.124.439.121.364.327.86.67 1.398.658 1.036 1.817 2.216 3.813 2.912-.37.24-.786.546-1.202.92-1.254 1.13-2.535 2.912-2.535 5.464V18ZM19 11.618c-.429.243-1 .614-1.568 1.126-1.066.959-2.108 2.393-2.239 4.402h7.614c-.131-2.01-1.173-3.443-2.239-4.402A9.015 9.015 0 0 0 19 11.618Zm-4.736-5.486Z" clip-rule="evenodd"/></g><defs><clipPath id="pi-bankmuamalat-a"><path fill="#fff" d="M0 0h38v24H0z"/></clipPath></defs></svg>
