<svg width="38" height="24" viewBox="0 0 38 24" fill="none" xmlns="http://www.w3.org/2000/svg" role="img" aria-labelledby="pi-becs"><title id="pi-becs">Becs</title><g clip-path="url(#pi-becs-clip0)"><path d="M35 .5H3A2.5 2.5 0 00.5 3v18A2.5 2.5 0 003 23.5h32a2.5 2.5 0 002.5-2.5V3A2.5 2.5 0 0035 .5z" stroke="#000" stroke-opacity=".07"/><g clip-path="url(#pi-becs-clip1)"><path d="M1 1h36v22H1V1z" fill="#F5F0E8"/><path d="M3.084 5.423h3.648l.544.023.356.046.544.114.403.138.497.229.356.23.26.205.355.344.237.321.213.367.19.48.095.413.023.184v.802l-.095.458-.142.367-.189.344-.213.275-.213.229-.214.206-.378.252-.237.138.094.068.285.16.379.299.284.275.237.298.213.366.142.298.142.413.095.48v.918l-.095.55-.142.458-.142.344-.237.412-.284.367-.332.32-.379.276-.379.206-.379.16-.45.138-.568.114-.592.046H3.06V5.446l.023-.023zm19.587-.161h.332l.497.046.497.115.38.137.45.23.378.275.284.252.261.298.284.412.213.367.237.55.19.596.142.618.095.573.07.757v.32h-2.605l-.07-.55-.12-.756-.141-.619-.142-.412-.19-.367-.142-.206-.166-.183-.26-.16-.213-.07-.119-.023h-.237l-.284.07-.26.137-.332.32-.213.321-.19.413-.142.39-.142.55-.118.687-.071.688-.024.412v1.192l.071.87.095.665.142.619.213.619.19.39.213.297.236.23.237.137.285.069h.236l.38-.092.26-.16.237-.253.19-.32.189-.459.165-.641.119-.665.095-.756.047-.138h2.534l.047.023v.275l-.094.87-.119.643-.142.55-.19.55-.212.48-.26.482-.285.39-.284.32-.19.184-.402.298-.403.229-.26.114-.616.184-.403.069-.26.023h-.498l-.426-.046-.38-.07-.568-.183-.45-.229-.331-.229-.332-.275-.26-.275-.26-.344-.285-.458-.237-.481-.213-.573-.19-.688-.142-.733-.07-.527-.072-.985v-1.215l.071-.94.119-.825.142-.618.142-.504.166-.459.19-.412.236-.436.237-.343.237-.298.26-.275.237-.207.403-.275.426-.229.355-.137.569-.138.331-.046.403-.023zm8.337 0h.379l.52.046.45.092.427.137.38.184.283.16.332.252.331.321.261.344.213.367.142.32.119.344.118.573.024.16v.917l-.024.023h-1.397l-1.042-.023-.024-.023-.047-.527-.095-.458-.119-.344-.189-.344-.237-.252-.213-.137-.213-.069-.119-.023h-.331l-.26.069-.238.137-.213.207-.19.366-.07.344v.206l.07.321.12.275.165.252.284.321.284.252.403.298.355.23.521.32.498.32.379.276.331.252.285.252.331.32.26.322.237.343.19.367.166.412.094.367.072.482.023.252v.504l-.047.412-.119.481-.165.413-.214.39-.236.32-.285.298-.237.207-.307.206-.285.16-.45.183-.497.138-.403.069-.355.023h-.474l-.497-.046-.545-.115-.426-.137-.403-.183-.284-.184-.237-.183-.237-.207-.213-.229-.236-.343-.19-.344-.142-.344-.166-.573-.095-.642v-.962h2.487l.024.94.071.458.095.298.165.32.214.23.236.137.261.092.119.023h.45l.284-.069.26-.137.213-.207.142-.229.095-.275.024-.114v-.619l-.071-.298-.142-.32-.237-.345-.284-.297-.19-.184-.331-.252-.403-.275-.521-.32-.284-.184-.403-.275-.379-.298-.26-.206-.521-.504-.26-.321-.238-.344-.19-.344-.165-.412-.095-.367-.047-.275-.024-.275v-.367l.047-.39.143-.55.165-.366.237-.39.26-.32.261-.275.308-.252.355-.23.45-.229.403-.137.497-.115.498-.046zm-19.421.161h6.3v2.2l-.024.023-3.67.023v3.208h3.504v2.177l-.023.023-3.482.023-.024 3.231h3.695l.024.023v2.2h-6.3V5.423z" fill="#191817"/><path d="M5.642 12.756h.9l.379.046.332.092.308.16.284.252.166.184.142.229.118.298.071.298.024.183v.298l-.071.39-.142.343-.166.252-.213.23-.332.206-.26.114-.356.092-.19.023H5.619l-.023-.023v-3.644l.047-.023zm-.024-5.225h1.043l.331.046.308.115.284.16.142.115v.045h.048l.19.253.118.229.07.206.048.298-.024.412-.094.344-.119.23-.19.229-.236.206-.38.183-.402.092-1.113.023-.047-.046V7.554l.023-.023z" fill="#F5F0E8"/></g></g><defs><clipPath id="pi-becs-clip0"><path fill="#fff" d="M0 0h38v24H0z"/></clipPath><clipPath id="pi-becs-clip1"><rect x="1" y="1" width="36" height="22" rx="2" fill="#fff"/></clipPath></defs></svg>