<svg version="1.1" xmlns="http://www.w3.org/2000/svg" x="0" y="0" viewBox="0 0 38 24" xml:space="preserve" width="38" height="24" role="img" aria-labelledby="pi-benefit" ><title id="pi-benefit">Benefit</title><path d="M35 0H3C1.3 0 0 1.3 0 3v18c0 1.7 1.4 3 3 3h32c1.7 0 3-1.3 3-3V3c0-1.7-1.4-3-3-3z" opacity=".07"/><path d="M35 1c1.1 0 2 .9 2 2v18c0 1.1-.9 2-2 2H3c-1.1 0-2-.9-2-2V3c0-1.1.9-2 2-2h32" fill="#fff"/><path d="M1.9 12V3.7c0-.4.1-.9.4-1.2.3-.4.7-.6 1.3-.6h30.9c.4 0 .8.1 1.1.3.4.3.6.8.6 1.4v16.7c0 .3 0 .6-.2.9-.3.5-.7.8-1.3.9H3.6c-.4 0-.8-.1-1.2-.4s-.6-.8-.6-1.3v-.2c.1-2.7.1-5.4.1-8.2zm33.9 0V3.5c-.1-.6-.4-1-.9-1.1-.2 0-.3-.1-.5-.1H3.6c-.3 0-.6.1-.8.3-.4.3-.6.7-.6 1.1v16.9c.1.6.4 1 1 1.1h31.3c.8 0 1.4-.6 1.4-1.5v-4.4c-.1-1.2-.1-2.5-.1-3.8z" fill="#e52934"/><path d="M17.9 15.1c.4 0 .8-.1 1.2-.3 1.1-.6 2.1-1.2 2.9-2.1.3-.3.6-.7.8-1.1 0-.1.1-.1.1 0 .3.2.5.5.8.8v.1l-.6.6-2.7 2.7-1.4 1.4c-.1.1-.1.1-.2 0l-1.6-1.6s-.1-.1 0-.1c.1-.2.2-.2.4-.2.2-.2.2-.2.3-.2z" fill="#e52934"/><path d="M12.8 4.7c0 .3 0 .5.2.6.3.2.6.3.9.3.9.1 1.8.1 2.7-.1.1 0 .2-.1.3-.1.1 0 .1-.1.1-.2s-.1-.1-.1-.2.1-.2.2-.3h.1c.1.1.3.2.3.4.1.2.1.3.3.2H19s0-.1-.1-.1c0 0-.1 0-.1-.1-.3-.2-.4-.5-.1-.8s1-.2 1.2.3c.1.2.1.4.2.7 0 .1.1.1.1.1h2.2c.1 0 .1 0 .1-.1s-.1-.1-.2-.2-.1-.1 0-.2c.2-.2.3-.2.5 0 .2 0 .2.2.3.3 0 .1.1.2.2.2h2.1c.1 0 .1 0 .1-.1s-.1-.1-.1-.1c-.1-.1-.1-.1 0-.2.2-.3.2-.3.5-.1.3.2.3.5.2.9 0 .1-.1.1-.1.1h-8.8c-.3 0-.6.1-.9.2-.8.1-1.6.1-2.4 0-.3 0-.6-.1-.9-.2-.2-.1-.3-.2-.4-.3-.2-.3-.2-.5.1-.7-.1-.2 0-.2.1-.2zm6.3-.1c-.1 0-.1 0-.2.1 0 .1 0 .1.1.1.1.1.3.2.4.2s.2.1.2.1c0-.1 0-.2-.1-.2-.1-.2-.2-.3-.4-.3z" fill="#2c2a2b"/><path d="M16.6 10.3c.1-.2.2-.3.4-.4.7-.7 1.3-1.4 2.1-2.1.1-.1.1-.1.2 0 .6.7 1.3 1.3 1.9 2 .1.1.1.1 0 .1-.7.3-1.5.7-2.1 1.2-.3.2-.6.5-.8.8 0 0 0 .1-.1.1V9.7c0-.1 0-.1-.1-.1-.4.2-.9.5-1.3.7h-.2zm4.4 1.5c0 .7-.1 1.3-.5 1.8s-1 .8-1.6 1c-.3.1-.6-.1-.6-.4-.1-.4-.1-.8 0-1.3.2-.9.8-1.6 1.7-1.9.2-.1.4-.1.6-.1s.4.2.4.4-.1.4 0 .5zm-5 2.3l-.6-.6c-.3-.3-.6-.6-1-.9-.1-.1-.1-.1 0-.2l1.4-1.4s0-.1.1-.1v3c.1.1.1.1.1.2z" fill="#e52934"/><path d="M13.4 18.8v1.7c0 .2-.1.3-.3.3h-.4c-.1 0-.1 0-.1-.1v-.5c0-.2 0-.4-.2-.6v-.1c.2-.1.2-.3.2-.4v-1c0-.1 0-.2.1-.2h.5c.1 0 .2.1.2.3v.6zm-.5 0v.5c0 .1 0 .1.1.1s.2 0 .2-.2v-.9c0-.1-.1-.1-.2-.1s-.1.1-.1.1v.5zm0 1.3v.4c.1 0 .2-.1.2-.2v-.5c0-.1-.1-.1-.2-.1s-.1.1-.1.1c.1.1.1.2.1.3zm4.2-.8v-1.2c0-.1 0-.1.1-.1h.4c.2 0 .3.1.3.3v2.4c0 .1 0 .2-.1.2s-.1 0-.1-.2v-2.3c0-.1 0-.2-.1-.2s-.1.1-.2.1v2.2c0 .1 0 .2-.1.2s-.1 0-.1-.1v-.1c-.1-.4-.1-.8-.1-1.2zm2.6-.5v.5c0 .1 0 .1.1.1h.3c.1 0 .2 0 .2.1s-.1.1-.2.1h-.3c-.1 0-.1 0-.1.1v.6c0 .1.1.1.1.1h.3c.1 0 .2 0 .2.1s-.1.1-.2.1h-.6c-.1 0-.1 0-.1-.1V19.6c0-.1 0-.2-.1-.2s-.1-.1 0-.2.2-.3.2-.5v-1c0-.1 0-.1.1-.1h.6c.1 0 .1 0 .1.1s-.1.1-.1.1h-.3c-.1 0-.1 0-.1.1-.1.5-.1.7-.1.9zm-5.1.7c.2-.1.3-.3.3-.5v-1c0-.1 0-.1.1-.1h.7c.1 0 .1 0 .1.1s-.1.1-.2.1h-.2c-.1 0-.1 0-.1.1v1c0 .1 0 .1.1.1h.4c.1 0 .1.1.1.1 0 .1 0 .1-.1.1h-.4c-.1 0-.1 0-.1.1v.6c0 .1.1.1.1.1h.3s.1 0 .1.1v.1c0 .1-.1.1-.2.1h-.5s-.1 0-.1-.1v-.4c-.1-.1-.1-.4-.4-.6zm6.8 0c.2-.1.3-.3.3-.5v-1c0-.1 0-.1.1-.1h.6s.1 0 .1.1 0 .1-.1.2h-.3c-.1 0-.1 0-.1.1v1c0 .1 0 .1.1.1h.3s.1 0 .1.1 0 .1-.1.1h-.3c-.1 0-.1 0-.1.1v.8c0 .1-.1.1-.1.1-.1 0-.1-.1-.1-.1v-.6c-.2-.1-.2-.3-.4-.4zm4.3-.1v-1.1c0-.1 0-.2-.2-.2-.1 0-.1 0-.1-.1s.1-.1.2-.1h.6c.1 0 .1 0 .1.1s0 .1-.1.1c-.2 0-.2 0-.2.2v2.2c0 .1-.1.1-.1.1-.1 0-.1-.1-.1-.1v-.4c-.1-.2-.1-.4-.1-.7zm-1.9-.1v-1.2c0-.1 0-.2.1-.2s.1 0 .1.1v2.5c0 .1 0 .2-.1.2s-.1 0-.1-.2v-1.2zM20.1 7.1c0-.1 0-.1.1-.2.4-.1.7-.3 1.1-.4h.1c0 .1 0 .2-.1.2-.3.2-.5.3-.8.4-.1 0-.2.1-.3.1-.1 0-.1 0-.1-.1zm4.1.1c0-.1.1-.1.1-.2.3-.1.6-.2.8-.3.1 0 .2-.1.3-.1h.1c0 .1-.1.2-.2.3-.1.1-.3.2-.5.2-.1 0-.3.1-.4.1-.1.1-.2.1-.2 0zm-5.7-.6c0 .1-.1.1-.2.1-.3.1-.5.2-.8.3-.1 0-.1 0-.2.1 0 0-.1.1-.1 0s-.1-.1 0-.2h.1c.3-.1.7-.3 1-.4.2-.1.2 0 .2.1zm1.1-3s-.1.1 0 0c-.1.1-.1.1-.1.2-.1.1-.2.1-.3.1-.1-.1-.3-.1-.4-.2-.1 0-.1-.1 0-.1.2-.2.3-.3.6-.1l.2.1c-.1 0 0 0 0 0zm2.4 0c.2 0 .3.1.5.2 0 .2-.2.3-.4.2-.1 0-.3 0-.4-.1v-.1c0-.1.2-.2.3-.2zm-7.9.7c.2 0 .3.1.5.2v.1c-.2.2-.2.3-.5.2-.1 0-.2-.1-.3-.2 0 0-.1 0 0-.1s.2-.2.3-.2zm1.1-.1c.2 0 .3.1.5.2v.1c-.1.2-.2.3-.5.2-.1 0-.2-.1-.3-.2-.1 0-.1-.1 0-.1 0-.1.1-.2.3-.2zM24.9 6c.2 0 .3.1.4.2v.1l-.2.2H25c-.1-.1-.3-.1-.4-.2-.1 0-.1 0 0-.1s.2-.2.3-.2z" fill="#2c2a2b"/><path d="M20.9 19.4c.1 0 .1.1.1.1 0 .1 0 .1-.1.1s-.2-.1-.2-.2h.2zm2.4.1c0 .1-.1.1-.1.1-.1 0-.1 0-.1-.1s0-.1.1-.1c0 0 .1 0 .1.1zm-6.6 0c0 .1-.1.1-.1.1-.1 0-.1 0-.1-.1s0-.1.1-.1c0 0 .1 0 .1.1zm8.5-.1c0 .1-.1.1-.1.1-.1 0-.1 0-.1-.1s0-.1.1-.1.1.1.1.1zm-6.3.1c0 .1 0 .1-.1.1s-.1-.1-.1-.1c0-.1.1-.1.1-.1.1 0 .1 0 .1.1zm-4.6 0c0 .1 0 .1-.1.1s-.1-.1-.1-.1c0-.1.1-.1.1-.1.1 0 .1 0 .1.1z" fill="#e52934"/></svg>
