<svg width="38" height="24" role="img" xmlns="http://www.w3.org/2000/svg" viewBox="0 0 38 24" aria-labelledby="pi-bizum"><title id="pi-bizum">Bizum</title><path d="M35 0H3C1.3 0 0 1.3 0 3v18a3 3 0 003 3h32c1.7 0 3-1.3 3-3V3a3 3 0 00-3-3z" opacity=".07"/><path fill="#fff" d="M35 1a2 2 0 012 2v18a2 2 0 01-2 2H3a2 2 0 01-2-2V3c0-1.1.9-2 2-2h32"/><path fill="#05c0c7" fill-rule="evenodd" d="M18.81 10.55a.52.52 0 00-.52.51v3.88a.52.52 0 101.05 0v-3.88a.52.52 0 00-.53-.51zm0-1.93a.6.6 0 00-.59.59c0 .32.27.6.6.6a.6.6 0 000-1.2zm5.12 2.44c0-.32-.26-.44-.5-.44h-2.6c-.25 0-.46.2-.46.44 0 .26.2.46.46.46h1.71l-2.21 3.08a.55.55 0 00-.1.31c0 .33.26.5.48.5h2.76c.25 0 .46-.2.46-.45 0-.26-.2-.46-.46-.46H21.6l2.17-3.01a.7.7 0 00.15-.43zm-7.66 2.44c0 .63-.28 1.02-.92 1.02s-.9-.39-.9-1.02v-1.98h.94c.78 0 .88.42.88.9v1.08zm1.05-1.1c0-1.1-.57-1.8-1.9-1.8h-.96V9.14a.52.52 0 00-.52-.52.52.52 0 00-.52.52v4.36c0 1.08.58 1.96 1.95 1.96 1.36 0 1.96-.9 1.96-1.96v-1.11h-.01zm10.7-1.85a.52.52 0 00-.52.52v2.43c0 .63-.28 1.02-.92 1.02-.63 0-.9-.39-.9-1.02v-2.43a.52.52 0 00-.51-.52.52.52 0 00-.53.52v2.43c0 1.08.58 1.96 1.95 1.96s1.96-.9 1.96-1.96v-2.43a.54.54 0 00-.53-.52zM36 12.52c0-1.08-.5-1.96-1.87-1.96-.61 0-1.05.18-1.35.48-.3-.3-.74-.48-1.35-.48-1.36 0-1.87.9-1.87 1.96v2.43c0 .29.24.52.52.52.29 0 .52-.23.52-.52v-2.43c0-.63.2-1.02.83-1.02.63 0 .82.39.82 1.02v2.43c0 .29.24.52.52.52.29 0 .52-.23.52-.52v-2.43c0-.63.2-1.02.83-1.02.64 0 .83.39.83 1.02v2.43c0 .29.23.52.5.52.3 0 .53-.23.53-.52l.02-2.43zM3.87 10.56c.37.27.88.19 1.15-.18l.96-1.33a.82.82 0 10-1.33-.97l-.97 1.33a.83.83 0 00.2 1.15zm4.4-1.88a.82.82 0 00-1.15.18l-3.86 5.32a.82.82 0 101.33.97l3.86-5.32a.81.81 0 00-.18-1.15zM3.5 8.26a.82.82 0 10-1.32-.97.82.82 0 001.32.97zm5.86 7.3a.82.82 0 10-.97 1.33.82.82 0 10.97-1.33zm-1.5-2.1a.82.82 0 00-1.15.17l-.97 1.33a.82.82 0 101.32.97l.98-1.33a.82.82 0 00-.18-1.15z" clip-rule="evenodd"/></svg>