<svg xmlns="http://www.w3.org/2000/svg" role="img" viewBox="0 0 38 24" width="38" height="24" aria-labelledby="pi-boost"><title id="pi-boost">Boost</title><g clip-path="url(#pi-boost-a)"><path fill="#000" d="M35 0H3C1.3 0 0 1.3 0 3v18c0 1.7 1.4 3 3 3h32c1.7 0 3-1.3 3-3V3c0-1.7-1.4-3-3-3Z" opacity=".07"/><path fill="#fff" d="M35 1c1.1 0 2 .9 2 2v18c0 1.1-.9 2-2 2H3c-1.1 0-2-.9-2-2V3c0-1.1.9-2 2-2h32Z"/><path fill="#EE3124" d="M10.7 11.8c.528.108.907.374 1.125.801.144.279.17.534.179.611a.306.306 0 0 0 .003.024c0 .112-.006.181-.016.266-.182 1.34-1.435 1.377-1.574 1.377H7.915c-.496 0-.89-.134-1.168-.4-.267-.278-.405-.672-.405-1.174V10.82c-.006-.053-.022-1.397 1.376-1.584.075-.01.133-.016.219-.016h.048c.005 0 .304.005.63.17.426.214.693.598.8 1.126l.01.085.005.043.006.059c.005.043.01.101.01.213v.854h.902c.08 0 .128.005.165.01l.059.006.043.004a.522.522 0 0 1 .085.012Z"/><path fill="#EE3124" fill-rule="evenodd" d="M5.51 7h7.04c.833 0 1.51.677 1.505 1.515v7.03c0 .833-.677 1.51-1.51 1.51H5.51c-.833 0-1.51-.677-1.51-1.51V8.51C4 7.677 4.677 7 5.51 7Zm5.59 8.866c.261-.07 1.152-.363 1.59-1.18.842-1.498.069-2.634.064-2.634-.785-1.307-2.065-1.345-2.252-1.34a2.68 2.68 0 0 0-1.328-2.245c-.016-.016-.496-.336-1.227-.336-.474 0-.95.133-1.413.395-.822.437-1.11 1.328-1.18 1.59a2.87 2.87 0 0 0-.074.543v2.955c0 .016 0 .23.048.427.032.144.054.219.112.368a2.7 2.7 0 0 0 .539.806l.043.043c.277.277.48.389.656.469.15.064.33.123.475.16.208.053.41.053.41.053h2.998c.25-.016.384-.032.539-.074Zm6.118.229c-.4 0-.762-.07-1.077-.213a2.496 2.496 0 0 1-.816-.571c-.224-.24-.4-.518-.523-.838a2.783 2.783 0 0 1-.181-1.003c0-.346.058-.682.18-1.002.124-.32.3-.603.529-.838a2.553 2.553 0 0 1 1.894-.784c.39 0 .752.075 1.072.213.32.139.597.336.821.571.23.24.406.518.528.838a2.787 2.787 0 0 1 0 2.005c-.122.32-.298.603-.528.838-.229.24-.506.432-.821.57a2.645 2.645 0 0 1-1.078.214Zm0-4.294c-.202 0-.39.043-.57.133a1.53 1.53 0 0 0-.47.357 1.775 1.775 0 0 0-.437 1.19c0 .24.037.464.112.662.075.202.181.378.31.522.133.15.287.267.469.347.176.085.373.128.581.128.208 0 .4-.043.581-.128a1.51 1.51 0 0 0 .47-.352c.133-.15.235-.33.31-.528.074-.203.111-.427.111-.662a1.88 1.88 0 0 0-.112-.656 1.751 1.751 0 0 0-.31-.533 1.378 1.378 0 0 0-.469-.352 1.32 1.32 0 0 0-.576-.128Zm4.673 4.081c.315.144.678.213 1.078.213a2.551 2.551 0 0 0 1.899-.784c.23-.235.405-.518.528-.838a2.788 2.788 0 0 0 0-2.005 2.482 2.482 0 0 0-.528-.838 2.52 2.52 0 0 0-.822-.57 2.69 2.69 0 0 0-1.072-.214 2.551 2.551 0 0 0-1.894.784 2.447 2.447 0 0 0-.528.838c-.122.32-.181.656-.181 1.002 0 .347.059.683.181 1.003a2.48 2.48 0 0 0 1.339 1.408Zm.507-3.948c.181-.09.368-.133.57-.133a1.394 1.394 0 0 1 1.047.48c.133.15.24.33.314.533.075.203.112.422.112.656 0 .235-.037.46-.112.662a1.693 1.693 0 0 1-.315.528 1.48 1.48 0 0 1-.47.352 1.342 1.342 0 0 1-.58.128 1.33 1.33 0 0 1-.582-.128 1.363 1.363 0 0 1-.47-.347 1.637 1.637 0 0 1-.309-.522 1.872 1.872 0 0 1-.112-.662 1.79 1.79 0 0 1 .438-1.19c.133-.149.288-.266.469-.357Z" clip-rule="evenodd"/><path fill="#EE3124" d="M28.271 16.095c-.203 0-.416-.016-.624-.048a4.927 4.927 0 0 1-.619-.139 3.65 3.65 0 0 1-.581-.224 2.913 2.913 0 0 1-.491-.293l-.016-.016.464-.747.021.016c.608.421 1.216.64 1.82.64.314 0 .565-.059.746-.176a.554.554 0 0 0 .267-.496c0-.203-.096-.347-.299-.443-.208-.096-.539-.202-.987-.31a7.798 7.798 0 0 1-.81-.234 2.295 2.295 0 0 1-.555-.272.92.92 0 0 1-.315-.363 1.2 1.2 0 0 1-.096-.501c0-.256.053-.49.155-.693a1.51 1.51 0 0 1 .421-.512c.176-.14.39-.246.63-.315.24-.07.5-.107.778-.107.363 0 .726.059 1.062.176.341.117.65.272.917.475l.022.016-.48.683-.022-.016c-.474-.352-.987-.534-1.52-.534-.261 0-.485.053-.667.166-.181.106-.267.277-.267.512 0 .096.016.181.054.245a.492.492 0 0 0 .176.17c.085.049.197.097.336.14.1.03.218.06.352.095l.165.043c.342.085.646.165.896.25.251.086.46.182.625.294.165.112.288.25.368.406.08.154.117.336.117.554a1.375 1.375 0 0 1-.56 1.147 2 2 0 0 1-.65.315c-.24.059-.524.096-.833.096Zm3.899-.085c.15.048.31.069.475.069.277 0 .533-.043.768-.117.235-.08.427-.155.566-.22l.021-.01-.245-.88-.027.01c-.059.033-.16.075-.293.123a1.222 1.222 0 0 1-.416.075.575.575 0 0 1-.358-.117c-.096-.075-.144-.198-.144-.368v-2.78h1.094v-.864h-1.094V9.283h-1.104v1.648h-.672v.865h.672v3.115c0 .208.032.39.096.533.064.144.16.267.272.358.112.096.245.165.39.208Z"/></g><defs><clipPath id="pi-boost-a"><path fill="#fff" d="M0 0h38v24H0z"/></clipPath></defs></svg>
