<svg viewBox="0 0 38 24" xmlns="http://www.w3.org/2000/svg" width="38" height="24" role="img" aria-labelledby="pi-braintree"><title id="pi-braintree">Braintree</title><path d="M35 1c1.1 0 2 .9 2 2v18c0 1.1-.9 2-2 2H3c-1.1 0-2-.9-2-2V3c0-1.1.9-2 2-2h32z" fill="#fff"/><path d="M4.98 13.426h.702c.542 0 .813-.179.813-.524 0-.339-.29-.524-.856-.524h-.66v1.048zm0-2.526v.973h.616c.462 0 .702-.172.702-.487 0-.32-.246-.486-.708-.486h-.61zM4 13.95v-.524h.413V10.9H4v-.524h1.651c.758 0 1.22.351 1.22.961 0 .4-.234.647-.53.764.425.117.727.42.727.832 0 .653-.505 1.017-1.33 1.017H4zM10.063 12.089c-.062-.21-.216-.333-.42-.333-.474 0-.924.351-.924.992v.678h.912v.524H7.598v-.524h.58v-1.578H7.72v-.523h.992v.443c.167-.308.506-.53.955-.53.506 0 .82.29.912.703l-.517.148zM12.835 12.89a2.157 2.157 0 00-.671-.111c-.346 0-.678.11-.678.425 0 .234.21.345.499.345.4 0 .85-.216.85-.586v-.074zm0-.469v-.148c0-.37-.296-.523-.616-.523-.302 0-.56.123-.77.314l-.358-.388a1.588 1.588 0 011.128-.438c.66 0 1.17.351 1.17 1.017v1.17h.383v.524h-.937v-.277c-.142.228-.524.363-.9.363-.542 0-1.01-.277-1.01-.825 0-.647.635-.894 1.214-.894.283 0 .517.056.696.105zM16.052 10.801h-.61v-.8h.61v.8zm1.01 2.625v.524h-2.65v-.524h1.097v-1.578h-.838v-.523h1.38v2.1h1.01zM17.715 13.426h.4v-1.578h-.375v-.523h.912v.339c.16-.26.493-.425.9-.425.585 0 1.004.37 1.004.967v1.22h.4v.524h-1.361v-.524h.418v-1.072c0-.456-.277-.586-.53-.586-.412 0-.825.308-.825.783v.875h.419v.524h-1.362v-.524zM21.702 11.848h-.684v-.524h.684v-.948h.542v.949h1.275v.523h-1.275v1.103c0 .407.283.573.61.573.308 0 .567-.172.758-.363l.363.375c-.24.26-.61.5-1.121.5-.66 0-1.152-.364-1.152-1.066v-1.122zM26.933 12.089c-.062-.21-.216-.333-.42-.333-.474 0-.924.351-.924.992v.678h.912v.524h-2.033v-.524h.58v-1.578h-.457v-.523h.992v.443c.167-.308.505-.53.955-.53.505 0 .82.29.912.703l-.517.148zM28.393 12.366h1.614a.797.797 0 00-.782-.629c-.42 0-.74.26-.832.629zm2.187 1.183c-.271.283-.752.486-1.288.486-.88 0-1.497-.591-1.497-1.398 0-.807.598-1.399 1.43-1.399.825 0 1.404.635 1.404 1.497v.093h-2.26c.092.437.455.702.93.702.394 0 .733-.16.918-.363l.363.382zM31.763 12.366h1.615a.797.797 0 00-.783-.629c-.419 0-.74.26-.832.629zm2.188 1.183c-.272.283-.752.486-1.288.486-.881 0-1.497-.591-1.497-1.398 0-.807.597-1.399 1.43-1.399.825 0 1.404.635 1.404 1.497v.093h-2.261c.092.437.456.702.93.702.394 0 .733-.16.918-.363l.364.382z" fill="#000"/></svg>