<svg width="38" height="24" role="img" viewBox="0 0 38 24" fill="none" xmlns="http://www.w3.org/2000/svg" aria-labelledby="pi-cartes_bancaires"><title id="pi-cartes_bancaires">Cartes Bancaires</title><rect x="1" y="1" width="36" height="22" rx="2" fill="url(#pi-cartes_bancaires-paint0_linear)"/><rect x=".5" y=".5" width="37" height="23" rx="2.5" stroke="#000" stroke-opacity=".07"/><path fill-rule="evenodd" clip-rule="evenodd" d="M28 9.934c0 1.067-.8 1.932-1.79 1.934v.002h-6.52V8h6.52c.99.002 1.79.867 1.79 1.934zm0 4.104c0 1.067-.8 1.932-1.79 1.934v.003h-6.52v-3.87h6.52c.99.002 1.79.867 1.79 1.933zm-13.224-1.934h4.788v.378c0 1.943-1.46 3.518-3.26 3.518H13.26C11.46 16 10 14.425 10 12.482v-.938c0-1.943 1.46-3.518 3.26-3.518h3.044c1.8 0 3.26 1.575 3.26 3.518v.326h-4.788v.234z" fill="#fff"/><defs><linearGradient id="pi-cartes_bancaires-paint0_linear" x1="37" y1="1" x2="17.422" y2="33.036" gradientUnits="userSpaceOnUse"><stop stop-color="#083969"/><stop offset=".492" stop-color="#007B9D"/><stop offset="1" stop-color="#00A84A"/></linearGradient></defs></svg>