<svg width="38" height="24" viewBox="0 0 38 24" fill="none" role="img" aria-labelledby="pi-cashapppay" xmlns="http://www.w3.org/2000/svg"><title id="pi-cashapppay">Cash App Pay</title><g clip-path="url(#pi-cashapppay-clip0_102_18)"><path opacity=".07" d="M35 0H3C1.3 0 0 1.3 0 3v18c0 1.7 1.4 3 3 3h32c1.7 0 3-1.3 3-3V3c0-1.7-1.4-3-3-3z" fill="#000"/><path d="M35 1c1.1 0 2 .9 2 2v18c0 1.1-.9 2-2 2H3c-1.1 0-2-.9-2-2V3c0-1.1.9-2 2-2h32z" fill="#00D64F"/><path fill-rule="evenodd" clip-rule="evenodd" d="M21.725 2.998c1.807 0 2.71 0 3.683.308a3.823 3.823 0 012.286 2.285c.308.973.308 1.877.308 3.684v5.45c0 1.807 0 2.71-.308 3.683a3.823 3.823 0 01-2.285 2.285c-.973.308-1.877.308-3.684.308h-5.45c-1.807 0-2.71 0-3.683-.308a3.823 3.823 0 01-2.286-2.285C10 17.435 10 16.532 10 14.724v-5.45c0-1.806 0-2.71.307-3.683a3.823 3.823 0 012.286-2.285c.972-.308 1.876-.308 3.683-.308h5.45z" fill="#00D64F"/><path fill-rule="evenodd" clip-rule="evenodd" d="M19.501 8.105c1.137 0 2.227.46 2.94 1.093.18.16.45.159.619-.013l.847-.86a.442.442 0 00-.021-.644 6.699 6.699 0 00-2.272-1.278l.266-1.266a.444.444 0 00-.434-.536h-1.638c-.21 0-.39.147-.434.352l-.24 1.126c-2.176.109-4.02 1.196-4.02 3.425 0 1.93 1.526 2.758 3.137 3.33 1.526.573 2.331.786 2.331 1.592 0 .827-.805 1.315-1.992 1.315-1.083 0-2.217-.358-3.097-1.226a.442.442 0 00-.621-.001l-.91.899a.447.447 0 00.002.638c.71.69 1.609 1.189 2.635 1.469l-.25 1.172a.444.444 0 00.431.537l1.64.013a.443.443 0 00.438-.353l.236-1.128c2.607-.161 4.202-1.579 4.202-3.653 0-1.91-1.59-2.716-3.519-3.373-1.102-.403-2.057-.679-2.057-1.506 0-.806.891-1.124 1.781-1.124z" fill="#fff"/></g><defs><clipPath id="pi-cashapppay-clip0_102_18"><path fill="#fff" d="M0 0h38v24H0z"/></clipPath></defs></svg>
