<svg xmlns="http://www.w3.org/2000/svg" role="img" viewBox="0 0 38 24" width="38" height="24" aria-labelledby="pi-cashappafterpay"><title id="pi-cashappafterpay">Afterpay</title><path id="pi-cashappafterpay-svg_1" d="m35,0l-32,0c-1.7,0 -3,1.3 -3,3l0,18c0,1.7 1.4,3 3,3l32,0c1.7,0 3,-1.3 3,-3l0,-18c0,-1.7 -1.4,-3 -3,-3z" opacity="0.07" fill="#000"/><path id="pi-cashappafterpay-svg_2" d="m35,1c1.1,0 2,0.9 2,2l0,18c0,1.1 -0.9,2 -2,2l-32,0c-1.1,0 -2,-0.9 -2,-2l0,-18c0,-1.1 0.9,-2 2,-2l32,0" fill="#00d64f"/><path id="pi-cashappafterpay-svg_4" fill="#fff" d="m20.19395,10.826c2.529,0.542 3.684,1.59 3.684,3.36c0,2.219 -1.806,3.856 -4.627,4.03l-0.275,1.312a0.277,0.277 0 0 1 -0.271,0.22l-2.17,0a0.277,0.277 0 0 1 -0.27,-0.34l0.349,-1.468c-1.398,-0.398 -2.523,-1.172 -3.18,-2.127a0.277,0.277 0 0 1 0.06,-0.374l1.517,-1.18a0.278,0.278 0 0 1 0.397,0.06c0.804,1.119 2.036,1.781 3.522,1.781c1.336,0 2.348,-0.65 2.348,-1.59c0,-0.722 -0.506,-1.047 -2.204,-1.408c-2.926,-0.614 -4.082,-1.698 -4.082,-3.468c0,-2.053 1.726,-3.605 4.33,-3.806l0.284,-1.356a0.277,0.277 0 0 1 0.271,-0.22l2.141,0c0.177,0 0.308,0.163 0.27,0.336l-0.328,1.519c1.12,0.344 2.032,0.96 2.6,1.722a0.277,0.277 0 0 1 -0.048,0.378l-1.385,1.135a0.278,0.278 0 0 1 -0.394,-0.044c-0.703,-0.87 -1.81,-1.362 -3.01,-1.362c-1.336,0 -2.167,0.578 -2.167,1.41c0,0.686 0.65,1.047 2.637,1.48l0.001,0z"/></svg>