<svg viewBox="0 0 38 24" xmlns="http://www.w3.org/2000/svg" version="1.1" x="0" y="0" width="38" height="24" xml:space="preserve" role="img" stroke-width="0" aria-labelledby="pi-collector_bank"><title id="pi-collector_bank">Collector Bank</title><path d="M38 22c0 1.1-.9 2-2 2H2c-1.1 0-2-.9-2-2V2C0 .9.9 0 2 0h34c1.1 0 2 .9 2 2v20z" fill="#582e87"/><path d="M11.4 7.6c-1.1 0-2 .9-2 1.9 0 .9.7 1.9 2 1.9 1.2 0 2-1 2-1.9 0-1-.9-1.9-2-1.9zm0 3.2c-.8 0-1.3-.6-1.3-1.3 0-.7.5-1.3 1.3-1.3s1.3.6 1.3 1.3c0 .7-.6 1.3-1.3 1.3zM14 6.6h.7v4.7H14zm1.7 0h.7v4.7h-.7zm13.5 1c-1.1 0-2 .9-2 1.9 0 .9.7 1.9 2 1.9 1.2 0 2-1 2-1.9 0-1-.9-1.9-2-1.9zm0 3.2c-.8 0-1.3-.6-1.3-1.3 0-.7.5-1.3 1.3-1.3s1.3.6 1.3 1.3c0 .7-.6 1.3-1.3 1.3zm3.3-2.7v-.3h-.6v3.7h.7v-2c0-.5.2-.8.4-.9.2-.1.4-.1.5-.1v-.9c-.2 0-.7 0-1 .5zm-25.1.2c.5 0 .8.2 1.1.6l.5-.5c-.4-.5-1-.8-1.6-.8-1.1 0-2 .9-2 1.9 0 .9.7 1.9 2 1.9.7 0 1.2-.3 1.6-.8l-.5-.4c-.2.3-.6.6-1.1.6-.8 0-1.3-.6-1.3-1.3 0-.6.5-1.2 1.3-1.2zm15.8 0c.5 0 .8.2 1.1.6l.5-.4c-.4-.5-.9-.8-1.6-.8-1.1 0-2 .9-2 1.9 0 .9.7 1.9 2 1.9.7 0 1.2-.3 1.6-.8l-.5-.4c-.2.3-.6.6-1.1.6-.8 0-1.3-.6-1.3-1.3 0-.7.5-1.3 1.3-1.3zM19 7.6c-1 0-1.9.8-1.9 1.9 0 1 .8 1.9 1.9 1.9.5 0 1.3-.3 1.7-1.1H20c-.2.3-.5.5-.9.5-.5 0-1-.3-1.2-1h3v-.3c-.1-1.1-1-1.9-1.9-1.9zm-1.2 1.7c0-.5.5-1.1 1.2-1.1s1.1.5 1.2 1.1h-2.4zm8.7-2.7h-.7v1.1h-.6v.7h.6v3h.7v-3h.6v-.7h-.6zM7.8 13.5c-.5 0-.9.2-1.3.5v-1.4h-.6v4.7h.7v-.4c.3.3.8.5 1.3.5 1.2 0 2-1 2-1.9-.1-1.1-.9-2-2.1-2zm0 3.2c-.8 0-1.3-.6-1.3-1.3 0-.7.5-1.3 1.3-1.3s1.3.6 1.3 1.3c0 .7-.5 1.3-1.3 1.3zm6.3-1.3v-1.8h-.7v.4c-.3-.3-.8-.5-1.3-.5-1.1 0-2 .9-2 1.9 0 .9.7 1.9 2 1.9.5 0 1-.2 1.3-.5v.4h.7v-1.8zm-2 1.3c-.8 0-1.3-.6-1.3-1.3 0-.7.5-1.3 1.3-1.3s1.3.6 1.3 1.3c0 .7-.5 1.3-1.3 1.3zm4.3-3.2c-.1 0-.7 0-1.1.5v-.4h-.6v3.7h.7v-2c0-.7.4-1.1 1-1.1.9 0 .9.9.9 1.1v2h.7v-2.2c0-.4-.1-.7-.2-.9-.3-.4-.8-.7-1.4-.7m2.2-1h.7V15l1.4-1.4h.8l-1.6 1.6 1.7 2h-.8l-1.5-1.9v1.9h-.7v-4.7z" fill="#fff"/></svg>