<svg xmlns="http://www.w3.org/2000/svg" role="img" viewBox="0 0 38 24" width="38" height="24" aria-labelledby="pi-dai"><title id="pi-dai">DAI</title><path fill="#000" opacity=".07" d="M35 0H3C1.3 0 0 1.3 0 3v18c0 1.7 1.4 3 3 3h32c1.7 0 3-1.3 3-3V3c0-1.7-1.4-3-3-3z"/><path fill="#fff" d="M35 1c1.1 0 2 .9 2 2v18c0 1.1-.9 2-2 2H3c-1.1 0-2-.9-2-2V3c0-1.1.9-2 2-2h32"/><circle cx="19" cy="12" r="8.2" fill="#f5ac37"/><path fill="#FFF" d="M15.002 16.462v-.03-1.17-1.577c0-.066 0-.076-.08-.076h-1.09c-.06 0-.086 0-.086-.08v-.954h1.165c.066 0 .09 0 .09-.086v-.944c0-.06 0-.075-.08-.075h-1.09c-.06 0-.085 0-.085-.08v-.885c0-.055 0-.07.08-.07h1.08c.076 0 .096 0 .096-.095V7.632c0-.08 0-.1.1-.1h3.767a5.6 5.6 0 01.814.09 4.912 4.912 0 011.572.583 4.47 4.47 0 01.884.683 4.892 4.892 0 01.537.668 3.953 3.953 0 01.392.769.13.13 0 00.15.105h.9c.115 0 .115 0 .12.11v.824c0 .08-.03.1-.11.1h-.693c-.07 0-.09 0-.086.091a5.108 5.108 0 010 .92c0 .085 0 .095.096.095h.793c.035.045 0 .09 0 .135a1.005 1.005 0 010 .176v.608c0 .085-.025.11-.1.11h-.95a.126.126 0 00-.145.096 4.018 4.018 0 01-1.055 1.537 6.133 6.133 0 01-.537.432c-.201.115-.397.236-.603.331a5.43 5.43 0 01-1.185.377 6.153 6.153 0 01-1.176.095h-3.485v-.005zm6.936-2.843a1.095 1.095 0 00-.256 0h-5.57c-.076 0-.1 0-.1.1v1.744c0 .08 0 .1.1.1h2.571a1.29 1.29 0 00.367-.025 3.852 3.852 0 001.09-.241 2.01 2.01 0 00.367-.17h.035a3.265 3.265 0 001.401-1.412s.035-.08-.005-.1v.004zm0-3.194a.095.095 0 000-.07 1.979 1.979 0 00-.18-.317 2.577 2.577 0 00-.373-.467 1.23 1.23 0 00-.23-.226 3.606 3.606 0 00-1.507-.763 3.742 3.742 0 00-.854-.096h-2.697c-.076 0-.086.03-.086.096v1.783c0 .075 0 .095.096.095h5.796s.05-.01.06-.04l-.025.005zm-2.813 2.15h3.054c.065 0 .095 0 .1-.086a5.801 5.801 0 000-.934c0-.06-.03-.085-.095-.085h-6.077c-.076 0-.096.025-.096.095v.89c0 .115 0 .115.12.115l2.994.005z"/></svg>