<svg viewBox="0 0 38 24" xmlns="http://www.w3.org/2000/svg" role="img" width="38" height="24" aria-labelledby="pi-dankort"><title id="pi-dankort">Dankort</title><path opacity=".07" d="M35 0H3C1.3 0 0 1.3 0 3v18c0 1.7 1.4 3 3 3h32c1.7 0 3-1.3 3-3V3c0-1.7-1.4-3-3-3z"/><path fill="#fff" d="M35 1c1.1 0 2 .9 2 2v18c0 1.1-.9 2-2 2H3c-1.1 0-2-.9-2-2V3c0-1.1.9-2 2-2h32"/><path fill-rule="evenodd" clip-rule="evenodd" fill="#E31F28" d="M18.309 15.378c.985-.645 1.621-1.641 1.907-2.991l3.145 3.968h6.028a6.858 6.858 0 01-2.394 1.918 6.758 6.758 0 01-3.086.727H12.566a6.792 6.792 0 01-3.086-.728 6.815 6.815 0 01-2.395-1.931h7.089c1.78.001 3.158-.32 4.135-.963zm-3.062-4.623c.254.23.321.568.202 1.013-.15.517-.342.878-.571 1.084-.278.246-.699.37-1.264.37H9.552l1.001-2.765h3.67c.453 0 .794.099 1.024.298zm11.651-5.088a6.9 6.9 0 012.337 1.799h-5.899l-2.979 3.086c-.103-1.12-.639-1.935-1.607-2.443-.834-.429-2.018-.644-3.551-.644H7.24A6.995 6.995 0 0112.566 5h11.343c1.048 0 2.045.222 2.989.667zm-.999 5.814l3.644-3.634a6.99 6.99 0 011.014 1.931c.239.715.357 1.458.357 2.228 0 .723-.107 1.426-.32 2.108a7.016 7.016 0 01-.919 1.858l-3.776-4.491z"/></svg>
