<svg xmlns="http://www.w3.org/2000/svg" version="1" viewBox="0 0 60.705 38.34" width="38" height="24" role="img" aria-labelledby="pi-danske_bank"><title id="pi-danske_bank">Danske Bank</title><path fill="#fff" stroke-width=".849" d="M0 0h60.705v38.34H0z"/><path d="M9.008 18.507c0 2.027-1.089 3.029-3.524 3.029H1.65v-7.592h3.71c2.942 0 3.647 1.435 3.647 3.005zm1.57-.062v-1.298c0-4.142-3.264-4.303-5.453-4.303H.068v9.817h5.49c4.315 0 5.02-2.337 5.02-4.216m8.556 1.793c0 .568-.05 1.088-.705 1.323-.383.148-.927.197-1.842.197s-1.46-.086-1.78-.296c-.223-.136-.31-.359-.31-.829 0-.593.149-.927.433-1.063.284-.136.643-.16 1.756-.16h2.448zm1.484 2.423v-3.858c0-.73 0-1.236-.062-1.607-.074-.383-.198-.655-.507-.89-.717-.557-2.473-.569-3.339-.569-.655 0-2.435.074-3.09.63-.223.186-.273.409-.273.68 0 .174.025.409.037.718h1.447c.025-.173.062-.594.223-.767.197-.185.531-.26 1.52-.26 1.138 0 1.93.038 2.263.223.31.173.297.544.297.829v.667h-3.338c-.903 0-1.942.025-2.51.804-.26.334-.371.766-.371 1.323 0 1.632 1.001 2.176 3.573 2.176 1.335 0 2.213-.21 2.745-.668l.136.57h1.249m8.952-.001v-3.759c0-1.298-.062-1.57-.372-1.805-.296-.222-.89-.358-1.792-.358-.792 0-1.608.098-2.374.309v5.613H23.56v-6.874h1.323l.1.494c.296-.16.519-.284.828-.37.494-.15 1.112-.223 1.94-.223.94 0 1.67.148 2.226.395.544.235.841.68.952 1.2.075.358.112.667.112 1.446v3.932h-1.472m10.918-.421c-.68.347-1.793.495-3.24.495-1 0-1.83-.074-2.472-.247-.693-.16-1.039-.482-1.076-1.076-.025-.309 0-.58.037-.952h1.422c.05.346.05.458.062.532.05.321.025.494.408.618.37.111.964.16 1.719.16.94 0 1.595-.098 2.027-.296.31-.136.458-.383.458-.853 0-.544-.112-.767-.68-.853-.173-.037-.346-.037-.532-.05-.099-.012-.42-.012-.94-.024-.247 0-.531-.025-.865-.037-1.471-.075-3.03-.136-3.03-1.855 0-1.558.953-2.102 3.574-2.102.668 0 1.484.05 1.978.111.569.074 1.002.173 1.31.346.347.198.458.507.458 1.051 0 .149 0 .297-.024.532h-1.435l-.062-.309c-.074-.37-.098-.445-.222-.532-.21-.16-.84-.235-1.731-.235-.89 0-1.397.038-1.805.186-.384.136-.557.383-.557.878 0 .334.124.58.285.692.383.235 2.41.21 3.103.223.742.012 1.224.074 1.645.222.754.26 1.05.754 1.05 1.756 0 .804-.26 1.31-.865 1.62m9.075.42l-3.548-3.252h-.52v3.252h-1.483v-9.817h1.484v5.588h.519l2.943-2.645h1.73l-3.424 3.029 4.265 3.845h-1.966m9.286-4.105h-4.735c.049-.865.234-1.249.568-1.496.347-.247.977-.37 1.904-.37 1.286 0 1.892.284 2.115.877.086.247.148.482.148.99zm1.36 1.954H58.75c-.05.21-.074.742-.272.94-.222.222-.668.32-1.854.32-1.175 0-1.818-.16-2.152-.494-.247-.247-.396-.766-.396-1.57v-.185h6.17c.013-.334.037-.42.037-.693 0-1.137-.16-1.768-.655-2.25-.556-.581-1.632-.866-3.116-.866-1.892 0-3.054.433-3.536 1.385-.284.544-.445 1.31-.445 2.263 0 1.496.396 2.436 1.273 2.905.544.297 1.484.47 2.684.483 1.001 0 1.805-.05 2.683-.31.853-.271 1.063-.754 1.063-1.162 0-.099 0-.432-.025-.766" fill="#03426a" stroke-width=".55"/></svg>