<svg xmlns="http://www.w3.org/2000/svg" role="img" viewBox="0 0 38 24" width="38" height="24" aria-labelledby="pi-deutschebank"><title id="pi-deutschebank">Deutsche Bank</title><g clip-path="url(#pi-deutschebank-a)"><path fill="#000" d="M35 0H3C1.3 0 0 1.3 0 3v18c0 1.7 1.4 3 3 3h32c1.7 0 3-1.3 3-3V3c0-1.7-1.4-3-3-3Z" opacity=".07"/><path fill="#fff" d="M35 1c1.1 0 2 .9 2 2v18c0 1.1-.9 2-2 2H3c-1.1 0-2-.9-2-2V3c0-1.1.9-2 2-2h32Z"/><path fill="#0018A8" d="M13.24 6.24v11.52h11.52V6.24H13.24ZM11 4h16v16H11V4Zm3.52 12.16 6.08-8.32h2.88l-6.08 8.32h-2.88Z"/></g><defs><clipPath id="pi-deutschebank-a"><path fill="#fff" d="M0 0h38v24H0z"/></clipPath></defs></svg>
