<svg xmlns="http://www.w3.org/2000/svg" role="img" viewBox="0 0 38 24" width="38" height="24" aria-labelledby="pi-eft_secure"><title id="pi-eft_secure">EFT Secure</title><path d="M35 0H3a3 3 0 0 0-3 3v18a3 3 0 0 0 3 3h32a3 3 0 0 0 3-3V3a3 3 0 0 0-3-3z" opacity=".07" style="isolation:isolate"/><path d="M35 1a2 2 0 0 1 2 2v18a2 2 0 0 1-2 2H3a2 2 0 0 1-2-2V3a2 2 0 0 1 2-2h32" fill="#fff"/><g mask="url(#a)"><path d="M12.5 9.5H12c-.07 0-.07 0-.07-.07a3 3 0 0 0-.28-1.24A3.14 3.14 0 0 0 9.4 6.37a3.19 3.19 0 0 0-3.84 3.08.06.06 0 0 1-.06.06h-.93v-.06a5 5 0 0 1 0-.56 4 4 0 0 1 .49-1.4 4.23 4.23 0 0 1 2.78-2.13A4 4 0 0 1 9 5.26a4.26 4.26 0 0 1 3.89 3.42 4.46 4.46 0 0 1 .08.75c0 .07 0 .07-.07.07zm6.51.63H34a.68.68 0 0 1 .72.64v4.73a.69.69 0 0 1-.27.57.63.63 0 0 1-.39.13h-30a.68.68 0 0 1-.64-.37.08.08 0 0 0-.07-.07c-.07 0 0 0 0 0v-4.89a.7.7 0 0 1 .23-.58.66.66 0 0 1 .42-.17h15z" fill="#58585a"/></g><path d="M12 13.58v1.29h-.7v-2.53c0-.12 0-.1-.1-.1h-.83v-.56h2.48c.06 0 .06 0 .06.07v.49c0 .07 0 .07-.07.07h-.83v1.29zm-4.28-.32v-1.54c0-.11 0-.1.1-.1h2.03c.1 0 .09 0 .09.09v.49c0 .07 0 .07-.07.07h-1.4v.61c0 .09 0 .06.06 0h1.34v.56H8.46v1.2s0 .06-.05.06h-.66c-.07 0-.07 0-.07-.07v-1.36zm-3.08 0v-1.54a.24.24 0 0 0 0-.06s0-.05.06-.05h2.18c.09 0 .08 0 .08.08v.5c0 .07 0 .07-.07.07H5.42c-.07 0-.07 0-.07.07v.53c0 .07 0 .07.07.07h1.4v.54H5.38v.61c0 .07 0 .07.07.07h1.48c.12 0 .1 0 .1.1v.47c0 .08 0 .07-.07.07H4.65v-1.6zm9.46-2.64H34a.21.21 0 0 1 .21.2v4.68a.21.21 0 0 1-.06.16.17.17 0 0 1-.11 0H14.19c-.12 0-.11 0-.11-.11v-4.66a1.05 1.05 0 0 0-.02-.27z" fill="#fff"/><path d="M23.23 13.85l.45.45v.06a1.71 1.71 0 0 1-1.08.59 1.79 1.79 0 0 1-1.11-.22 1.6 1.6 0 0 1-.82-1.21 1.7 1.7 0 0 1 .12-1 1.65 1.65 0 0 1 1.3-1 1.78 1.78 0 0 1 1.65.56v.07l-.42.48-.17-.09a1.07 1.07 0 0 0-1.42-.12.93.93 0 0 0-.36.7 1.09 1.09 0 0 0 .11.59.92.92 0 0 0 .83.53 1.07 1.07 0 0 0 .85-.38zM16 11.49a2 2 0 0 1 1.18.39c.08.06.07 0 0 .12l-.28.41c0 .07 0 .07-.12 0a1.5 1.5 0 0 0-.56-.25.92.92 0 0 0-.41 0 .3.3 0 0 0-.21.18.27.27 0 0 0 .12.35l.19.08.45.13a2.09 2.09 0 0 1 .51.21.88.88 0 0 1 .46.89 1 1 0 0 1-.82.87 1.89 1.89 0 0 1-1.43-.21 2.48 2.48 0 0 1-.35-.26v-.09l.37-.45h.08a2.2 2.2 0 0 0 .55.35 1 1 0 0 0 .49.07.45.45 0 0 0 .16 0 .3.3 0 0 0 .13-.4.31.31 0 0 0-.13-.13 1.37 1.37 0 0 0-.31-.12c-.18 0-.36-.09-.54-.16l-.29-.13a.76.76 0 0 1-.42-.63 1.31 1.31 0 0 1 0-.4.82.82 0 0 1 .31-.5 1.29 1.29 0 0 1 .65-.25zm8.06 1.15v-1c0-.06 0-.06.06-.06h.64v1.78a1.11 1.11 0 0 0 .08.48.6.6 0 0 0 .43.37.63.63 0 0 0 .78-.4 1.13 1.13 0 0 0 .07-.41v-1.73c0-.11 0-.09.09-.1h.6c.06 0 .06 0 .06.06v1.9a1.52 1.52 0 0 1-.11.59 1.26 1.26 0 0 1-.83.74 1.58 1.58 0 0 1-1 0 1.27 1.27 0 0 1-.85-1 1.79 1.79 0 0 1 0-.38 6.85 6.85 0 0 1 0-.83zm6.79.59v-1.56c0-.1 0-.08.08-.08h2.3v.57h-1.54c-.07 0-.07 0-.07.07v.54c0 .07 0 .07.07.07H33c.12 0 .1 0 .1.1v.46c0 .08 0 .08-.08.08h-1.35c-.06 0-.06 0-.06.06v.56c0 .07 0 .07.07.07h1.59v.56H31c-.1 0-.1 0-.1-.09v-1.6zm-13 0v-1.58c0-.08 0-.07.08-.07h2.32v.61h-1.6V12.81c0 .06 0 .06.07.06H20c.07 0 .07 0 .07.07v.5c0 .07 0 .07-.07.07h-1.29c-.13 0-.13 0-.13.12v.47c0 .08 0 .08.08.08H20.29v.56h-2.38c-.07 0-.07 0-.07-.07v-1.6zm11.79.47l.83 1.17h-.83a.12.12 0 0 1-.11-.06l-.65-.94a.13.13 0 0 0-.12-.07h-.37c-.07 0-.07 0-.07.07v.91c0 .09 0 .08-.08.08h-.59c-.07 0-.07 0-.07-.07v-3.13c0-.1 0-.09.09-.09h1.27a2.36 2.36 0 0 1 .66.09.83.83 0 0 1 .59.53 1.25 1.25 0 0 1 .07.26 1.64 1.64 0 0 1 0 .64.87.87 0 0 1-.5.59h-.07z" fill="#0f75bd"/><path d="M28.3 12.7v-.43c0-.06 0-.06.07-.06h.54a1.11 1.11 0 0 1 .27 0 .34.34 0 0 1 .27.3.75.75 0 0 1 0 .32.36.36 0 0 1-.26.28 1.13 1.13 0 0 1-.31 0h-.53c-.07 0-.07 0-.07-.07v-.39" fill="#fff"/></svg>