<svg role="img" aria-labelledby="pi-elo" width="38" height="24" xmlns="http://www.w3.org/2000/svg" viewBox="0 0 38 24"><title id="pi-elo">Elo</title><g fill-rule="nonzero" fill="none"><path d="M35 0H3C1.3 0 0 1.3 0 3v18c0 1.7 1.4 3 3 3h32c1.7 0 3-1.3 3-3V3c0-1.7-1.4-3-3-3z" fill="#000" opacity=".07"/><path d="M35 1c1.1 0 2 .9 2 2v18c0 1.1-.9 2-2 2H3c-1.1 0-2-.9-2-2V3c0-1.1.9-2 2-2h32" fill="#FFF"/><g fill="#000"><path d="M13.3 15.5c-.6.6-1.4.9-2.3.9-.6 0-1.2-.2-1.6-.5l-1.2 1.9c.8.6 1.8.9 2.8.9 1.5 0 2.9-.6 3.9-1.6l-1.6-1.6zm-2.1-7.7c-3 0-5.5 2.4-5.5 5.4 0 1.1.3 2.2.9 3.1l9.8-4.2c-.6-2.5-2.7-4.3-5.2-4.3zm-3.3 5.8v-.4c0-1.8 1.5-3.2 3.2-3.2 1 0 1.8.5 2.4 1.1l-5.6 2.5zm11.6-8.3v10.5l1.8.8-.9 2.1-1.8-.8c-.4-.2-.7-.4-.9-.7-.2-.3-.3-.7-.3-1.3V5.3h2.1zM26 10.2c.3-.1.7-.2 1-.2 1.5 0 2.8 1.1 3.1 2.6l2.2-.4c-.5-2.5-2.7-4.4-5.3-4.4-.6 0-1.2.1-1.7.3l.7 2.1zm-2.6 7.1l1.5-1.7c-.7-.6-1.1-1.4-1.1-2.4s.4-1.8 1.1-2.4l-1.5-1.7c-1.1 1-1.8 2.5-1.8 4.1 0 1.7.7 3.1 1.8 4.1zm6.7-3.4c-.3 1.5-1.6 2.6-3.1 2.6-.4 0-.7-.1-1-.2l-.7 2.1c.5.2 1.1.3 1.7.3 2.6 0 4.8-1.9 5.3-4.4l-2.2-.4z"/></g></g></svg>