<svg xmlns="http://www.w3.org/2000/svg" role="img" viewBox="0 0 38 24" width="38" height="24" aria-labelledby="pi-eps"> <title id="pi-eps">EPS</title> <path d="M35 0H3C1.3 0 0 1.3 0 3v18c0 1.7 1.4 3 3 3h32c1.7 0 3-1.3 3-3V3c0-1.7-1.4-3-3-3z" opacity=".07"/> <path d="M35 1c1.1 0 2 .9 2 2v18c0 1.1-.9 2-2 2H3c-1.1 0-2-.9-2-2V3c0-1.1.9-2 2-2h32" fill="#fff"/> <path fill="#71706f" d="M27.745 12.32h-2.322a.465.465 0 01-.468-.464c0-.258.21-.484.468-.484h3.535V9.628h-3.535c-1.233 0-2.237 1.006-2.237 2.236s1.004 2.237 2.237 2.237h2.29c.259 0 .469.205.469.462 0 .258-.21.448-.468.448h-4.912c-.417.796-.822 1.478-1.645 1.82h6.588c1.213-.018 2.205-1.045 2.205-2.265 0-1.22-.992-2.23-2.205-2.247z"/> <path fill="#71706f" d="M18.845 9.628c-1.968 0-3.571 1.612-3.571 3.594V20.697h1.782V16.83h1.785c1.968 0 3.565-1.634 3.565-3.615 0-1.98-1.593-3.587-3.561-3.587zm0 5.383h-1.79v-1.796c0-1.003.8-1.82 1.79-1.82s1.796.817 1.796 1.82a1.79 1.79 0 01-1.796 1.796z"/> <path fill="#c8036f" d="M9.634 16.83c-1.685 0-3.101-1.2-3.484-2.768 0 0-.111-.519-.111-.86 0-.342.105-.865.105-.865a3.594 3.594 0 013.482-2.73c1.978 0 3.6 1.608 3.6 3.586v.87H7.973c.31.607.938.948 1.662.948h4.724l.006-5.13c0-.764-.625-1.39-1.39-1.39H6.278c-.764 0-1.39.607-1.39 1.371v6.696c0 .765.626 1.41 1.39 1.41h6.696c.686 0 1.259-.493 1.37-1.138h-4.71z"/> <path fill="#c8036f" d="M9.626 11.31c-.72 0-1.348.44-1.66 1.01h3.32c-.312-.57-.939-1.01-1.66-1.01zM12.659 6.314c0-1.635-1.359-2.96-3.034-2.96-1.647 0-2.987 1.282-3.031 2.879v.91c0 .106.086.21.195.21h1.116c.11 0 .205-.104.205-.21v-.83c0-.815.68-1.48 1.516-1.48.837 0 1.516.665 1.516 1.48v.83c0 .106.089.21.198.21h1.116c.109 0 .202-.104.202-.21v-.83z"/> <g> <path fill="#71706f" d="M20.843 19.142l-.16.914c-.082.462-.384.673-.794.673-.347 0-.616-.226-.538-.672l.161-.914h.249l-.161.913c-.05.285.078.447.32.447.249 0 .462-.148.513-.446l.161-.915h.25zm-.977-.285c0 .076.059.112.121.112.079 0 .164-.057.164-.162 0-.074-.05-.112-.114-.112-.08 0-.17.052-.17.162zm.538-.003c0 .079.06.114.126.114.07 0 .161-.056.161-.159 0-.074-.054-.114-.114-.114-.08 0-.173.052-.173.16zM21.445 19.142l-.112.632a.57.57 0 01.423-.199c.278 0 .47.163.47.465 0 .428-.297.686-.678.686-.148 0-.274-.055-.35-.194l-.042.165h-.218l.276-1.554h.23zm-.175 1.066c-.01.183.11.302.282.302a.444.444 0 00.441-.423c.01-.186-.111-.296-.28-.296a.45.45 0 00-.443.417zM22.68 20.242c-.01.151.11.275.311.275.112 0 .26-.044.34-.12l.126.145a.782.782 0 01-.508.188c-.319 0-.505-.19-.505-.482 0-.388.305-.677.695-.677.356 0 .558.216.437.67h-.896zm.708-.19c.018-.19-.094-.267-.28-.267-.168 0-.323.078-.39.267h.67zM24.193 19.597l-.012.146a.414.414 0 01.357-.17c.107 0 .204.039.255.095l-.139.201a.244.244 0 00-.183-.067.346.346 0 00-.352.3l-.106.595h-.23l.195-1.1h.215zM25.905 19.597l.116.87.422-.87h.257l-.578 1.1h-.27l-.11-.725-.178.36-.192.365h-.27l-.194-1.1h.26l.114.87.424-.87h.199zM26.997 20.242c-.01.151.11.275.311.275.112 0 .26-.044.34-.12l.126.145a.782.782 0 01-.508.188c-.319 0-.505-.19-.505-.482 0-.388.305-.677.695-.677.356 0 .558.216.437.67h-.896zm.708-.19c.018-.19-.094-.267-.28-.267-.168 0-.323.078-.39.267h.67zM28.525 19.597l-.194 1.1H28.1l.195-1.1h.23zm-.204-.3c0 .08.059.12.121.12.09 0 .173-.059.173-.168a.113.113 0 00-.117-.117c-.082 0-.177.054-.177.166zM29.55 19.87c-.072-.081-.164-.104-.274-.104-.152 0-.26.052-.26.148 0 .08.088.114.218.126.201.017.459.085.405.37-.038.205-.244.326-.53.326-.18 0-.353-.04-.47-.204l.151-.163c.083.114.229.161.358.164.11 0 .24-.04.26-.144.02-.098-.067-.136-.228-.152-.188-.018-.394-.087-.394-.296 0-.276.298-.372.522-.372.17 0 .295.038.399.148l-.157.152zM30.278 19.597l-.105.592c-.034.189.051.319.244.319.181 0 .336-.15.367-.334l.101-.576h.231l-.195 1.099h-.208l.015-.16a.573.573 0 01-.412.182c-.271 0-.432-.194-.374-.528l.105-.593h.231zM32.13 20.697l.105-.589c.033-.19-.032-.317-.242-.317-.184 0-.339.148-.37.33l-.1.576h-.232l.195-1.1h.21l-.015.16a.583.583 0 01.403-.176c.27 0 .444.187.384.525l-.106.59h-.233zM32.912 20.848c-.016.152.1.213.296.213.17 0 .354-.095.396-.337l.034-.189c-.1.142-.285.197-.421.197-.283 0-.48-.168-.48-.473 0-.434.323-.685.688-.685.155 0 .294.073.343.199l.038-.176h.224l-.193 1.132c-.071.42-.383.55-.668.55-.34 0-.528-.165-.481-.43h.224zm.065-.633c0 .188.123.302.3.302.477 0 .605-.733.128-.733a.42.42 0 00-.428.43z"/></g></svg>