<svg width="38" height="24" role="img" viewBox="0 0 38 24" fill="none" aria-labelledby="pi-eurobonuscheckout" xmlns="http://www.w3.org/2000/svg"><title id="pi-eurobonuscheckout">Eurobonus Checkout</title><mask id="pi-mask0_0_1" maskUnits="userSpaceOnUse" x="0" y="0" width="38" height="24"><path d="M0 0h38v24H0V0z" fill="#fff"/></mask><g mask="url(#pi-mask0_0_1)"><path opacity=".07" d="M35 0H3C1.3 0 0 1.3 0 3v18c0 1.7 1.4 3 3 3h32c1.7 0 3-1.3 3-3V3c0-1.7-1.4-3-3-3z" fill="#000"/><path d="M35 1c1.1 0 2 .9 2 2v18c0 1.1-.9 2-2 2H3c-1.1 0-2-.9-2-2V3c0-1.1.9-2 2-2h32z" fill="#013EF1"/></g><path fill="#000" d="M35 0H3C1.3 0 0 1.3 0 3v18c0 1.7 1.4 3 3 3h32c1.7 0 3-1.3 3-3V3c0-1.7-1.4-3-3-3" opacity=".07"/><path d="M34.25 1H2.75a.75.75 0 00-.75.75v20.5c0 .414.336.75.75.75h31.5a.75.75 0 00.75-.75V1.75a.75.75 0 00-.75-.75z" fill="#013EF1"/><path d="M12 13V4h5.782v1.608h-3.734v2.039h3.49v1.571h-3.49v2.161h3.927V13H12zm7.046 0V4h3.258c1.043 0 3.477.086 3.477 2.235 0 1.473-1.095 1.878-1.687 2.1.683.208 1.906.589 1.906 2.172C26 12.104 24.61 13 22.459 13h-3.413zm3.13-1.523c.81 0 1.738-.233 1.738-1.19 0-.651-.425-1.204-1.674-1.204h-1.146v2.394h1.081zm.077-3.867c1.378 0 1.52-.823 1.52-1.08 0-.934-.941-1.008-1.418-1.008h-1.262V7.61h1.16zM7.93 16.19a7.87 7.87 0 00-.245-.178 1.885 1.885 0 00-.319-.178 1.949 1.949 0 00-.408-.137 1.935 1.935 0 00-.496-.06c-.297 0-.547.055-.75.165-.202.11-.368.254-.496.433a1.767 1.767 0 00-.282.598 2.773 2.773 0 00-.007 1.308c.05.219.136.42.26.604.123.18.288.329.496.447.213.118.482.177.808.177a2.31 2.31 0 00.823-.144c.119-.048.233-.105.341-.171.114-.066.23-.138.349-.217v.775a4.607 4.607 0 01-.682.276 3.077 3.077 0 01-.883.112c-.4 0-.753-.064-1.06-.19a2.166 2.166 0 01-.764-.533 2.253 2.253 0 01-.46-.782A2.953 2.953 0 014 17.53c0-.306.045-.608.133-.906a2.48 2.48 0 01.43-.815c.198-.24.45-.436.757-.585.311-.149.684-.223 1.12-.223.182 0 .348.013.496.04a2.358 2.358 0 01.734.223c.094.044.18.087.26.131v.795zm1.468-1.098v1.78l.253-.144c.093-.057.197-.107.31-.151.115-.044.236-.081.364-.112.134-.03.272-.046.415-.046.356 0 .613.101.771.302.164.202.245.474.245.815v2.372h-.749v-2.306c0-.219-.037-.377-.11-.473-.075-.097-.204-.145-.386-.145-.168 0-.337.031-.505.092-.168.062-.37.156-.608.283v2.55H8.65v-4.817h.75zm4.675 1.327c.218 0 .423.035.615.105a1.436 1.436 0 01.853.855c.09.219.134.481.134.788v.158h-2.551c.01.158.037.306.082.447.049.135.118.256.207.36a.96.96 0 00.349.237c.138.057.304.086.496.086.134 0 .255-.009.364-.026a1.984 1.984 0 00.585-.217c.09-.048.18-.1.275-.158v.611c-.129.07-.292.14-.49.21-.192.07-.447.105-.763.105-.396 0-.717-.059-.964-.177a1.642 1.642 0 01-.571-.453 1.582 1.582 0 01-.274-.578 2.456 2.456 0 01-.075-.572c0-.28.042-.53.127-.749.089-.219.21-.405.363-.559a1.52 1.52 0 01.541-.348c.213-.083.445-.125.697-.125zm0 .526c-.267 0-.48.085-.638.256a1.145 1.145 0 00-.296.63h1.802c-.015-.1-.04-.203-.075-.308a.857.857 0 00-.155-.282.683.683 0 00-.26-.21.777.777 0 00-.378-.086zm5.02.42a8.262 8.262 0 00-.192-.137 1.514 1.514 0 00-.867-.27 1.13 1.13 0 00-.49.099 1.08 1.08 0 00-.356.269 1.202 1.202 0 00-.215.4 1.668 1.668 0 00-.066.48c0 .101.012.222.037.362.03.14.084.276.163.407.084.127.197.237.34.329.149.092.342.138.579.138.124 0 .235-.01.334-.027.103-.021.2-.05.289-.085a3.16 3.16 0 00.511-.289v.637a4.64 4.64 0 01-.185.092c-.07.035-.156.068-.26.099a2.69 2.69 0 01-.77.111c-.337 0-.62-.052-.853-.157a1.643 1.643 0 01-.556-.42 1.678 1.678 0 01-.304-.572 2.126 2.126 0 01.007-1.295 1.569 1.569 0 01.904-.966c.233-.1.505-.15.816-.15.282 0 .512.032.69.098.178.061.326.127.445.197v.65zm1.487-2.273v2.957l1.49-1.557h.867l-1.26 1.287 1.35 2.13h-.839l-.993-1.643-.615.624v1.018h-.75v-4.816h.75zm4.341 1.327c.282 0 .53.046.742.138.217.092.398.22.54.381.15.158.26.346.335.565a2 2 0 01.118.697c0 .271-.042.517-.126.736a1.493 1.493 0 01-.348.558 1.662 1.662 0 01-.549.362 1.94 1.94 0 01-.712.124 1.95 1.95 0 01-.734-.13 1.61 1.61 0 01-.541-.375 1.624 1.624 0 01-.341-.559 2.094 2.094 0 01-.119-.716c0-.254.037-.49.111-.71a1.535 1.535 0 01.882-.933c.218-.092.465-.138.742-.138zm0 .532a.818.818 0 00-.467.125.959.959 0 00-.296.316c-.07.122-.12.258-.149.407-.03.145-.044.278-.044.4 0 .128.015.264.044.408.03.145.08.28.149.408a.98.98 0 00.289.315.818.818 0 00.467.125.815.815 0 00.482-.132.945.945 0 00.289-.322c.074-.13.123-.269.148-.413a2.08 2.08 0 00.045-.401c0-.127-.018-.263-.052-.408a1.26 1.26 0 00-.156-.4.92.92 0 00-.297-.303.792.792 0 00-.452-.125zm3.063-.46v2.307c0 .18.032.328.097.447.069.113.21.17.422.17a1.4 1.4 0 00.586-.124 5.61 5.61 0 00.512-.257v-2.542h.749v3.416h-.697l-.052-.374c-.074.044-.159.092-.252.144a2.4 2.4 0 01-.312.145 2.522 2.522 0 01-.356.111 1.727 1.727 0 01-.407.046c-.218 0-.393-.037-.527-.111a.965.965 0 01-.319-.276 1.126 1.126 0 01-.155-.361 2 2 0 01-.037-.369v-2.371h.748zm4.215-1.169v1.17h.771v.525h-.77v1.925c0 .175.029.305.088.388.06.083.18.125.364.125.084 0 .15-.007.2-.02l.148-.033v.546c-.06.008-.124.015-.193.02a2.405 2.405 0 01-.267.012c-.232 0-.42-.024-.563-.072a.753.753 0 01-.334-.19.65.65 0 01-.156-.31 2.033 2.033 0 01-.037-.4v-1.99h-.622v-.526h.622v-1.078l.75-.092z" fill="#fff"/></svg>