<svg xmlns="http://www.w3.org/2000/svg" width="38" height="24" viewBox="0 0 38 24" fill="none" role="img" aria-labelledby="pi-ezcash"><title id="pi-ezcash">Ezcash</title><g clip-path="url(#pi-ezcash-clip)"><path d="M35 .5H3A2.5 2.5 0 00.5 3v18A2.5 2.5 0 003 23.5h32a2.5 2.5 0 002.5-2.5V3A2.5 2.5 0 0035 .5z" stroke="#000" stroke-opacity=".07"/><rect x="1" y="1" width="36" height="22" rx="2" fill="#FCE224"/><path d="M19.19 2.765h.307l.285.068.19.115.165.252.118.344.048.275v.206l-.142.412-.19.367-.19.32-.378.574-.995 1.512-.355.55-.285.436-.331.504-.355.55-.308.481-.285.459-.236.366-.284.436-.356.55-.213.32-.19.298-.355.55-.308.482-.213.343-.379.596-.568.917-.403.642-.19.32-.378.62-.332.572-.165.275-.166.32-.095.138-.024.092.26-.092.853-.206.806-.206 2.297-.573 1.516-.367 1.681-.39.711-.16.853-.183.923-.206 1.327-.252.568-.115 1.374-.252 1.658-.275.308-.046h.236l-.023.092-.119.046-1.468.297-1.019.23-1.515.366-.877.23-.52.16-.545.183.26-.023 1.066-.252.284-.069 1.563-.343.427-.069h.118l.024.069-.687.206-1.256.344-1.018.298-.947.275-.687.206-.971.298-1.16.366-.972.321-.474.16-.236.07-.284.114-.095.023v.046l.947-.252.947-.275 1.043-.298 1.61-.39h.26l-.07.046-.569.206-1.208.413-1.776.642-1.232.458-.97.367-1.185.458-1.018.412-1.16.482-.38.16-.497.183-.142.023h-.308l-.308-.091-.237-.16-.166-.161-.142-.23-.118-.343-.048-.23v-.297l.095-.39.19-.435.26-.482.38-.595.212-.344.403-.642.237-.39.402-.641.45-.733.19-.298.402-.642.853-1.375.45-.733.237-.367.853-1.375.402-.642.308-.504.284-.458.403-.642.781-1.26.332-.527.569-.917.331-.527.213-.298-.544.092-1.28.229-2.676.481-.616.16-.379.161-.307.206-.19.252-.118.298.047.138.237.32.142.23.19.435.165.688.095.458.024.16v.367l-.071.115-.19.091-.402.092-1.398.23-.805.137-.876.137-.592.092-.38.069-.9.16h-.094l.07.32.143.482.19.436.236.412.308.367.237.206.237.16.379.184.426.114.166.023h.237l.355-.046.355-.091.308-.115.332-.206.284-.275.19-.298.118-.275.095-.344.094-.687.071-.207.095-.114.166-.092.095-.023h.19l.26.092.19.206.094.206.024.092v.413l-.166.572-.142.367-.237.436-.213.343-.285.321-.26.252-.379.23-.426.183-.45.137-.356.069-.284.023h-.616l-.45-.069-.355-.091-.355-.138-.474-.275-.308-.252-.142-.115-.166-.183-.236-.275-.237-.367-.19-.32-.19-.459-.141-.412-.142-.573-.095-.527-.048-.527V8.86l.048-.504.118-.596.19-.618.213-.482.237-.412.166-.206.307-.298.332-.23.332-.183.402-.16.332-.092.355-.069.213-.023h.569l.473.092.095.023.024-.298.142-.275.166-.16.284-.138.355-.091 3.245-.596 1.184-.207 1.35-.252 1.184-.206.569-.092.236-.022z" fill="#DB2B27"/><path d="M19.071 9.273h.355l.45.046.356.091.45.207.379.275v.068l-.166.16-.166.184-.332.321-.094.115-.119-.046-.26-.184-.332-.137-.19-.046-.213-.023h-.426l-.355.069-.284.115-.332.206-.284.252-.19.206-.19.298-.117.252-.119.367-.024.137v.413l.095.298.142.229.166.16.26.138.309.091.165.023h.427l.426-.068.474-.138.378-.16.332-.138h.071l-.023.138-.237.802-.071.114-.19.115-.308.137-.497.138-.403.069-.592.046-.497-.046-.403-.092-.284-.115-.284-.16-.237-.206-.19-.23-.142-.274-.095-.298-.047-.344v-.275l.071-.458.142-.505.213-.458.19-.32.213-.276.332-.343.236-.207.38-.252.331-.183.521-.183.474-.092.355-.023zM22.884 10.58l.403.022.45.115.237.114.19.16.094.161.095.23.023.114v.344l-.094.527-.19.664-.213.825-.166.55-.07.115H22.6l-.024-.115.095-.275-.118.046-.119.092-.237.137-.379.138-.236.046h-.593l-.284-.07-.26-.137-.19-.206-.095-.229-.023-.092v-.206l.07-.344.143-.32.237-.298.26-.207.237-.137.332-.115.308-.068.213-.023h.426l.497.068.308.092.048-.344-.048-.183-.094-.138-.142-.091-.166-.046h-.687l-.497.092-.45.137-.095-.023.142-.504.071-.23.118-.09.308-.115.498-.115.284-.046.426-.023zM29.895 9.09h.094l-.047.206-.426 1.604-.071.298.19-.16.212-.16.38-.184.33-.092h.57l.355.115.189.137.142.184.095.206.023.091v.505l-.165.687-.237.87-.166.62-.142.458-.095.046h-.331l-.71-.023.046-.23.474-1.74.071-.299v-.252l-.095-.206-.118-.115-.19-.069h-.307l-.26.092-.19.138-.166.16-.166.252-.142.413-.308 1.168-.19.665-.047.046h-.616l-.45-.023.024-.183.308-1.146.213-.802.332-1.238.237-.894.19-.664.07-.16.095-.092.308-.092.687-.137zM26.247 10.602h.663l.427.092.379.137.308.16v.092l-.213.252-.237.275-.119.07-.166-.024-.45-.183-.307-.069H26.2l-.213.092-.119.114-.047.092.024.16.213.138.758.252.402.206.19.16.142.23.024.092v.343l-.143.413-.165.252-.166.183-.308.207-.308.137-.331.092-.142.023h-.758l-.356-.07-.355-.114-.284-.137-.284-.184.023-.114.213-.206.332-.367.118.023.261.16.355.138.403.069h.308l.237-.07.165-.137.048-.091v-.138l-.166-.137-.284-.115-.498-.16-.379-.184-.142-.091-.19-.207-.07-.183-.024-.23.047-.274.119-.298.166-.252.19-.184.236-.16.284-.137.403-.115.118-.023z" fill="#030102"/><path d="M9.574 6.133l.473.046.285.092.284.137.237.184.19.16.189.23.19.297.212.436.095.275v.114l-.592.115-1.019.16-1.515.252-.853.138-.379.046-.024-.023v-.413l.048-.412.095-.344.142-.344.165-.252.214-.252.236-.206.308-.184.332-.137.284-.069.403-.046z" fill="#FDE324"/><path d="M22.15 12.733h.284l.521.092.048.023-.024.229-.095.252-.166.206-.213.184-.308.137-.213.046H21.7l-.213-.069-.142-.114-.048-.115v-.252l.095-.23.213-.205.237-.115.142-.046.166-.023z" fill="#FCE124"/></g><defs><clipPath id="pi-ezcash-clip"><path fill="#fff" d="M0 0h38v24H0z"/></clipPath></defs></svg>