<svg version="1.1" xmlns="http://www.w3.org/2000/svg" x="0" y="0" width="38" height="24" viewBox="0 0 38 24" xml:space="preserve" role="img" aria-labelledby="pi-fpx"><title id="pi-fpx">FPX</title><path opacity=".07" d="M35 0H3C1.3 0 0 1.3 0 3v18c0 1.7 1.4 3 3 3h32c1.7 0 3-1.3 3-3V3c0-1.7-1.4-3-3-3z"/><path fill="#FFF" d="M35 1c1.1 0 2 .9 2 2v18c0 1.1-.9 2-2 2H3c-1.1 0-2-.9-2-2V3c0-1.1.9-2 2-2h32"/><path fill="#242B57" d="M15.095 8.321h4.733v1.434H16.65v1.436h2.942v1.436H16.65v2.752h-1.555zm5.85 0h2.623c.363 0 .709.033 1.037.099.324.066.607.18.852.343.242.163.434.383.578.659.143.275.215.623.215 1.041 0 .413-.068.758-.201 1.039a1.695 1.695 0 0 1-.547.668 2.21 2.21 0 0 1-.83.352c-.316.07-.662.105-1.035.105h-1.133v2.752h-1.559V8.321zm1.559 2.989h1.033c.139 0 .275-.013.402-.04.131-.025.248-.072.35-.132a.728.728 0 0 0 .25-.261.83.83 0 0 0 .094-.415.692.692 0 0 0-.125-.432c-.08-.111-.188-.195-.316-.255s-.275-.098-.436-.114-.314-.024-.459-.024h-.793v1.673zm6.476.38l-2.334-3.369H28.6l1.505 2.472 1.446-2.472h1.885l-2.282 3.339 2.551 3.719H31.75l-1.723-2.842-1.675 2.842h-1.844z"/><path fill="#0286C8" d="M8.285 14.053l-.984-1.332c-.149-.199-.399-.458-.399-.719 0-.266.25-.523.399-.723l.984-1.333a.784.784 0 0 1 .134-.146V8.265c0-1.232-.514-1.544-1.145-.689L5.15 10.448c-.312.428-.854.99-.854 1.554 0 .562.543 1.123.854 1.553l2.125 2.871c.63.855 1.145.543 1.145-.689v-1.535a.882.882 0 0 1-.135-.149"/><path fill="#242B57" d="M12.454 10.448l-2.122-2.874c-.629-.855-1.146-.542-1.146.69V9.8a.784.784 0 0 1 .135.146l.985 1.332c.147.201.399.459.399.725 0 .259-.252.521-.399.72l-.985 1.334a.715.715 0 0 1-.135.145v1.535c0 1.234.516 1.543 1.146.691l2.122-2.873c.316-.428.857-.99.857-1.553 0-.564-.541-1.127-.857-1.554"/></svg>
