<svg xmlns="http://www.w3.org/2000/svg" role="img" viewBox="0 0 38 24" width="38" height="24" aria-labelledby="pi-gcash"><title id="pi-gcash">GCash</title><g clip-path="url(#pi-gcash-a)"><path fill="#000" d="M35 0H3C1.3 0 0 1.3 0 3v18c0 1.7 1.4 3 3 3h32c1.7 0 3-1.3 3-3V3c0-1.7-1.4-3-3-3Z" opacity=".07"/><path fill="#fff" d="M35 1c1.1 0 2 .9 2 2v18c0 1.1-.9 2-2 2H3c-1.1 0-2-.9-2-2V3c0-1.1.9-2 2-2h32Z"/><path fill="#002CB9" fill-rule="evenodd" d="M22.873 11.431a.933.933 0 0 0-.535-.336c-.12-.027-.246-.017-.37-.019-1.015-.001-2.029.002-3.044.003a.916.916 0 0 0-.536.177.917.917 0 0 0-.364.565.924.924 0 0 0 .71 1.09c.142.03.288.02.432.022.636-.004 1.274-.004 1.91-.002-.012.056-.031.11-.052.164a3.227 3.227 0 0 1-1.131 1.503 3.198 3.198 0 0 1-4.263-.442 3.222 3.222 0 0 1-.717-1.288 3.215 3.215 0 0 1 .66-2.965 3.209 3.209 0 0 1 2.663-1.106c.52.036 1.033.202 1.475.48a.923.923 0 0 0 .725.113.949.949 0 0 0 .54-.379.894.894 0 0 0 .156-.504.907.907 0 0 0-.297-.692c-.076-.072-.168-.124-.257-.178a5.021 5.021 0 0 0-2.633-.697 5.147 5.147 0 0 0-1.736.313 4.92 4.92 0 0 0-1.307.723 5.016 5.016 0 0 0-1.682 2.34 5.163 5.163 0 0 0-.007 3.321 5.088 5.088 0 0 0 2.811 3.023 5.06 5.06 0 0 0 5.208-.76 5.083 5.083 0 0 0 1.33-1.691c.333-.681.506-1.44.507-2.2a.927.927 0 0 0-.196-.578Z" clip-rule="evenodd"/><path fill="#007CFF" fill-rule="evenodd" d="M23.206 17.33a.945.945 0 0 0-.754-.632.908.908 0 0 0-.653.157c-.166.124-.332.251-.51.358a6.072 6.072 0 0 1-2.255.864c-.45.08-.91.097-1.367.078a6.248 6.248 0 0 1-1.577-.292 6.153 6.153 0 0 1-2.273-1.338 6.242 6.242 0 0 1-1.376-1.86 6.157 6.157 0 0 1-.597-2.921c.031-.8.22-1.593.556-2.32.096-.198.192-.397.31-.584a5.853 5.853 0 0 1 .785-1.04c.069-.083.152-.154.226-.233a6.21 6.21 0 0 1 2.002-1.296 6.208 6.208 0 0 1 4.694.055c.432.186.843.42 1.221.698.105.073.201.163.322.211a.925.925 0 0 0 .607.047.91.91 0 0 0 .678-.89.91.91 0 0 0-.199-.57 1.349 1.349 0 0 0-.25-.222 7.94 7.94 0 0 0-5.1-1.594 7.905 7.905 0 0 0-4.019 1.259c-.165.102-.32.22-.477.333a7.48 7.48 0 0 0-.821.713 7.973 7.973 0 0 0-1.703 2.462 7.97 7.97 0 0 0-.67 2.923 7.737 7.737 0 0 0 .144 1.84 8.005 8.005 0 0 0 3.342 5.077 7.915 7.915 0 0 0 4.574 1.386c.46 0 .922-.043 1.375-.126a7.886 7.886 0 0 0 3.417-1.512.924.924 0 0 0 .301-.352.927.927 0 0 0 .047-.678Z" clip-rule="evenodd"/><path fill="#6FBBF8" fill-rule="evenodd" d="M25.943 11.02a7.968 7.968 0 0 0-.646-2.314.927.927 0 0 0-.98-.57.913.913 0 0 0-.69.482.933.933 0 0 0-.071.68c.03.104.084.2.123.3a6.192 6.192 0 0 1-.049 4.918c-.026.063-.058.125-.076.192a.914.914 0 0 0 .855 1.173.922.922 0 0 0 .848-.498 7.938 7.938 0 0 0 .667-2.255 8.317 8.317 0 0 0 .02-2.109Z" clip-rule="evenodd"/><path fill="#6FBBF8" fill-rule="evenodd" d="M28.87 10.523c-.16-1.214-.534-2.4-1.09-3.493a.916.916 0 0 0-1.667.088.937.937 0 0 0 .04.768c.048.086.088.177.132.266a9.21 9.21 0 0 1 .767 5.052 9.037 9.037 0 0 1-.916 2.948.935.935 0 0 0-.032.723.919.919 0 0 0 1.548.288c.085-.1.145-.216.2-.334a10.915 10.915 0 0 0 1.113-4.566 10.875 10.875 0 0 0-.096-1.74Z" clip-rule="evenodd"/></g><defs><clipPath id="pi-gcash-a"><path fill="#fff" d="M0 0h38v24H0z"/></clipPath></defs></svg>
