<svg xmlns="http://www.w3.org/2000/svg" width="38" height="24" viewBox="-36 25 38 24" role="img" aria-labelledby="pi-giropay"><title id="pi-giropay">Giropay</title><path fill="#fff" d="M-34.762 26.162h18.019V47.74h-18.019z"/><path fill="#213E7A" d="M-.645 25h-32.709C-34.816 25-36 26.158-36 27.588v18.824C-36 47.833-34.817 49-33.354 49H-.645c1.462 0 2.646-1.167 2.646-2.588V27.588C2.001 26.157.818 25-.645 25zm-16.354 22.588h-16.354c-.664 0-1.203-.527-1.203-1.176V27.588c0-.649.539-1.176 1.203-1.176h16.354v21.176z"/><path fill="#fff" d="M-11.932 37.691c0 .613-.303 1.034-.806 1.034-.444 0-.814-.421-.814-.983 0-.576.326-1.005.814-1.005.517 0 .806.443.806.953v.001zm-2.951 3.517h1.331v-2.091h.015c.252.458.754.628 1.22.628 1.146 0 1.76-.946 1.76-2.084 0-.931-.584-1.943-1.649-1.943-.606 0-1.169.244-1.435.783h-.015v-.695h-1.228v5.402h.001zm6.144-2.77c0-.37.355-.51.806-.51l.562.022c0 .451-.318.909-.821.909-.31 0-.547-.156-.547-.421zm2.685 1.219a4.726 4.726 0 0 1-.074-.909v-1.433c0-1.175-.85-1.596-1.834-1.596-.57 0-1.065.081-1.538.273l.022.901c.37-.207.799-.288 1.228-.288.481 0 .873.14.88.665a3.853 3.853 0 0 0-.621-.052c-.71 0-1.989.141-1.989 1.316 0 .835.68 1.212 1.442 1.212.547 0 .917-.215 1.22-.695h.015l.03.606h1.22-.001zm.598 1.551c.274.059.547.089.828.089 1.221 0 1.509-.939 1.886-1.906l1.413-3.584H-2.66l-.791 2.512h-.015l-.828-2.512h-1.434l1.56 3.938c-.096.34-.347.532-.672.532-.186 0-.348-.022-.525-.081l-.089 1.012h-.002z"/><path fill="#EA2127" d="M-31.294 37.698c0-.524.259-.96.754-.96.599 0 .85.48.85.909 0 .592-.377.99-.85.99-.399 0-.754-.34-.754-.939zm2.891-1.891h-1.206v.694h-.015c-.281-.473-.74-.783-1.309-.783-1.198 0-1.738.857-1.738 2.002 0 1.138.658 1.936 1.716 1.936.532 0 .976-.206 1.294-.658h.015v.207c0 .754-.414 1.116-1.183 1.116-.555 0-.895-.118-1.301-.318l-.067 1.049c.311.11.836.244 1.472.244 1.553 0 2.322-.51 2.322-2.091v-3.399.001zm2.25-1.604h-1.331v.975h1.331v-.975zm-1.331 5.453h1.331v-3.85h-1.331v3.85zm5.037-3.894a2.85 2.85 0 0 0-.451-.044c-.577 0-.91.31-1.139.798h-.015v-.709h-1.213v3.85h1.331v-1.625c0-.754.348-1.205.969-1.205.155 0 .303 0 .451.044l.067-1.108v-.001zm2.292 3.052c-.614 0-.865-.51-.865-1.079 0-.577.251-1.086.865-1.086s.865.51.865 1.086c0 .569-.252 1.079-.865 1.079zm0 .931c1.272 0 2.24-.739 2.24-2.01 0-1.279-.969-2.017-2.24-2.017-1.272 0-2.241.739-2.241 2.017 0 1.271.969 2.01 2.241 2.01z"/></svg>