<svg xmlns="http://www.w3.org/2000/svg" role="img" viewBox="0 0 38 24" width="38" height="24" aria-labelledby="pi-gopay"><title id="pi-gopay">Gopay</title><path fill="#000" opacity=".07" d="M35 0H3C1.3 0 0 1.3 0 3v18c0 1.7 1.4 3 3 3h32c1.7 0 3-1.3 3-3V3c0-1.7-1.4-3-3-3z"/><path fill="#fff" d="M35 1c1.1 0 2 .9 2 2v18c0 1.1-.9 2-2 2H3c-1.1 0-2-.9-2-2V3c0-1.1.9-2 2-2h32"/><circle fill="#00aed6" r="3.642" cy="12" cx="5.958"/><path fill-rule="evenodd" fill="#fff" d="M8.08 11.887a.847.847 0 00-.884-.797h-2.3a.152.152 0 010-.304h2.33a.724.724 0 00-.53-.669 5.906 5.906 0 00-2.054 0 .969.969 0 00-.728.81 7.234 7.234 0 000 2.157 1.023 1.023 0 00.83.81 10.298 10.298 0 002.538 0 .889.889 0 00.705-.765 5.789 5.789 0 00.092-1.242zm-.757.51v.135a.152.152 0 01-.303 0v-.136a.223.223 0 01-.076-.168.228.228 0 01.455 0 .223.223 0 01-.076.168z"/><path d="M12.479 13.813a1.566 1.566 0 001.36.665c.635 0 1.102-.405 1.102-.956v-.29h-.016a1.728 1.728 0 01-1.307.49 2.118 2.118 0 11-.038-4.237 1.82 1.82 0 011.345.474h.016v-.397h1.086v3.945c0 1.147-.91 1.942-2.187 1.942a2.612 2.612 0 01-2.171-.963l.81-.673zm2.416-2.454c0-.46-.52-.88-1.1-.88-.735 0-1.224.444-1.224 1.109a1.071 1.071 0 001.177 1.14c.635 0 1.147-.398 1.147-.895v-.474zm3.975-1.912c1.324 0 2.287.94 2.287 2.141s-.963 2.14-2.286 2.14a2.145 2.145 0 110-4.28zm0 .994a1.147 1.147 0 101.156 1.147 1.098 1.098 0 00-1.155-1.147zm2.899-.879h1.086v.36h.015a1.803 1.803 0 011.307-.475 2.141 2.141 0 01.008 4.282 1.961 1.961 0 01-1.27-.428H22.9v2.033h-1.13V9.562zm2.233.887c-.597 0-1.102.42-1.102.88v.511c0 .49.49.895 1.109.895a1.143 1.143 0 00-.007-2.286zm4.411.749c.742-.1.964-.206.964-.413 0-.268-.283-.428-.719-.428a.956.956 0 00-1.01.726l-1.07-.221c.153-.826 1.002-1.415 2.05-1.415 1.184 0 1.919.604 1.919 1.59v2.577h-1.018v-.443h-.015a1.672 1.672 0 01-1.369.558c-.894 0-1.513-.49-1.513-1.208 0-.757.504-1.147 1.781-1.323zm1.055.428h-.015c-.1.145-.314.23-.864.329-.665.122-.902.252-.902.49 0 .244.199.351.627.351.65 0 1.154-.298 1.154-.688v-.482zm3.127 1.766l-1.873-3.83h1.247l1.23 2.645h.016l1.216-2.645h1.253l-2.805 5.772h-1.247l.963-1.942z"/></svg>