<svg width="38" height="24" viewBox="0 0 38 24" fill="none" xmlns="http://www.w3.org/2000/svg" role="img" aria-labelledby="pi-grabpay"><title id="pi-grabpay">GrabPay</title><rect x="1" y="1" width="36" height="22" rx="2" fill="#00B14F"/><rect x=".5" y=".5" width="37" height="23" rx="2.5" stroke="#000" stroke-opacity=".07"/><path fill-rule="evenodd" clip-rule="evenodd" d="M18.112 12.85c0 2.061 1.456 3.517 3.422 3.517.438 0 .947-.13 1.267-.379v-.698c-.213.178-.734.379-1.267.379-1.61 0-2.7-1.137-2.7-2.818 0-1.599 1.16-2.795 2.7-2.795 1.527 0 2.64 1.125 2.64 2.7v3.41h.71v-3.422c0-1.965-1.385-3.41-3.35-3.41-1.93 0-3.422 1.528-3.422 3.517zm4.689 1.41l-.012-.012c-.296.237-.782.379-1.243.379-.948 0-1.658-.71-1.658-1.764 0-1.007.699-1.776 1.634-1.776 1.006 0 1.622.734 1.622 1.716v3.363h.699v-3.398c0-1.373-.96-2.38-2.31-2.38-1.337 0-2.367 1.007-2.367 2.475 0 1.456 1.018 2.498 2.368 2.462.509-.011 1.03-.2 1.267-.367v-.698zm2.841-3.375c.213-.272.45-.568.699-.817V6.86h-.699v4.025zm1.042-4.025v2.948c.213-.166.45-.367.699-.462V6.86h-.699zm.699 5.73h-.024l-.544.746c.094.853.959 1.99 2.261 1.99 1.326 0 2.285-1.078 2.285-2.487s-.983-2.451-2.332-2.451c-1.315 0-2.072.96-2.605 1.67-.26.343-.71.9-1.208 1.598v1.137a28.013 28.013 0 011.551-2.049c.782-.935 1.255-1.646 2.25-1.646.97 0 1.634.746 1.634 1.741 0 1.03-.628 1.788-1.575 1.788-.995 0-1.693-.912-1.693-1.93v-.107zm-2.167-.52v1.03c.415-.557.77-1.043 1.101-1.445.84-1.03 1.575-1.598 2.712-1.598 1.539 0 2.664 1.16 2.664 2.794 0 1.598-1.101 2.818-2.617 2.818-1.231 0-2.297-.84-2.546-1.99l-.497.675c.39 1.125 1.54 2.013 3.031 2.013 1.918 0 3.327-1.539 3.327-3.516 0-2.001-1.42-3.505-3.362-3.505-2.013 0-2.937 1.504-3.813 2.723zm-10.952 4.096h.699v-3.659c0-1.444.97-2.427 2.38-2.427.473 0 .958.154 1.172.284.13-.154.272-.32.461-.473-.438-.308-1.03-.486-1.67-.486-1.858 0-3.042 1.255-3.042 3.114v3.647zm1.03-3.659v3.66h.699v-3.648c0-.817.532-1.397 1.326-1.397.236 0 .45.06.675.154.094-.225.189-.414.307-.592a1.832 1.832 0 00-.97-.272c-1.196 0-2.037.864-2.037 2.095zm-9.685-.603c0 2.557 1.894 4.463 4.44 4.463 2.32 0 3.741-1.456 3.741-3.812v-1.208h-3.658v.687h2.995v.64c0 1.846-1.148 2.995-3.078 2.995-2.12 0-3.694-1.622-3.694-3.765 0-2.084 1.657-3.73 3.8-3.73 1.019 0 1.942.249 2.64.734v-.699c-.674-.485-1.562-.734-2.64-.734-2.569 0-4.546 1.954-4.546 4.429zm1.1 0c0 1.93 1.457 3.41 3.34 3.41 1.811 0 2.723-1.173 2.723-2.463v-.462h-2.64v.71h1.918c.012.699-.628 1.516-2.001 1.516-1.516 0-2.57-1.125-2.57-2.711 0-1.528 1.137-2.676 2.7-2.676 1.018 0 1.823.248 2.57.77l.047-.036v-.663c-.557-.391-1.504-.77-2.64-.77-1.93 0-3.446 1.492-3.446 3.375z" fill="#fff"/></svg>
