<svg width="38" height="24" viewBox="0 0 38 24" fill="none" xmlns="http://www.w3.org/2000/svg" role="img" aria-labelledby="pi-gusd"><title id="pi-gusd">Gemini Dollar</title><path opacity=".07" d="M35 0H3C1.3 0 0 1.3 0 3v18c0 1.7 1.4 3 3 3h32c1.7 0 3-1.3 3-3V3c0-1.7-1.4-3-3-3z" fill="#000"/><path d="M35 1c1.1 0 2 .9 2 2v18c0 1.1-.9 2-2 2H3c-1.1 0-2-.9-2-2V3c0-1.1.9-2 2-2h32z" fill="#fff"/><circle cx="19" cy="12" r="8" fill="#00DFFE"/><path fill-rule="evenodd" clip-rule="evenodd" d="M20.474 7.2a3.345 3.345 0 00-3.304 2.97 3.345 3.345 0 00-2.97 3.304 3.328 3.328 0 003.326 3.326 3.34 3.34 0 003.304-2.97 3.345 3.345 0 002.97-3.304A3.328 3.328 0 0020.474 7.2zm2.547 3.699a2.588 2.588 0 01-2.169 2.168V10.9h2.169zM14.979 13.1a2.588 2.588 0 012.169-2.174v2.168h-2.169v.006zm5.094.751a2.572 2.572 0 01-2.547 2.197 2.572 2.572 0 01-2.547-2.197h5.094zM20.1 10.9v2.197H17.9v-2.197H20.1zm2.92-.751h-5.094a2.572 2.572 0 012.547-2.197c1.282 0 2.36.937 2.547 2.197z" fill="#fff"/></svg>
