<svg xmlns="http://www.w3.org/2000/svg" role="img" viewBox="0 0 38 24" width="38" height="24" aria-labelledby="pi-handelsbanken"><title id="pi-handelsbanken">Handelsbanken</title><path fill="#000" opacity=".07" d="M35 0H3C1.3 0 0 1.3 0 3v18c0 1.7 1.4 3 3 3h32c1.7 0 3-1.3 3-3V3c0-1.7-1.4-3-3-3z"/><path fill="#005c9b" d="M35 1c1.1 0 2 .9 2 2v18c0 1.1-.9 2-2 2H3c-1.1 0-2-.9-2-2V3c0-1.1.9-2 2-2h32"/><path d="M11.75 3.31v6.55h6.91V3.31h3.75v17.07h-3.75V13h-6.91v7.37H8V3.31zM25.35 9.83a4.14 4.14 0 011.33-1.27 6.07 6.07 0 011.83-.68 10.08 10.08 0 012-.2 13.55 13.55 0 011.89.13 5.88 5.88 0 011.74.51 3.38 3.38 0 011.29 1.07 2.91 2.91 0 01.51 1.8v8a4.63 4.63 0 00.14 1.15h-3.22a3.36 3.36 0 01-.1-.5v-.7a4.49 4.49 0 01-1.91 1.18 7.81 7.81 0 01-2.25.33 6.08 6.08 0 01-1.64-.21 3.92 3.92 0 01-1.34-.67 3.29 3.29 0 01-.9-1.15 4 4 0 01-.36-1.62 3.55 3.55 0 01.37-1.73 3.09 3.09 0 011-1.09 4.38 4.38 0 011.27-.61 13.25 13.25 0 011.52-.32c.51-.08 1-.15 1.5-.19a8.63 8.63 0 001.32-.22 2.48 2.48 0 00.91-.42.94.94 0 00.31-.8 1.76 1.76 0 00-.18-.87 1.31 1.31 0 00-.48-.51 1.88 1.88 0 00-.69-.24 5.53 5.53 0 00-.84-.06 2.53 2.53 0 00-1.57.44 1.9 1.9 0 00-.67 1.44h-3.4a4 4 0 01.62-1.99zm6.65 4.8a6.3 6.3 0 01-.69.18q-.37.07-.78.12l-.81.12a6.87 6.87 0 00-.75.19 2.4 2.4 0 00-.64.32 1.59 1.59 0 00-.44.52 1.85 1.85 0 000 1.55 1.25 1.25 0 00.45.49 1.91 1.91 0 00.67.25 4 4 0 00.78.07 3 3 0 001.55-.33 2.22 2.22 0 00.81-.8 2.51 2.51 0 00.33-.95 6.43 6.43 0 00.06-.76v-1.27a1.57 1.57 0 01-.54.3z" fill="#fff"/></svg>