<svg viewBox="0 0 38 24" xmlns="http://www.w3.org/2000/svg" width="38" height="24" role="img" aria-labelledby="pi-hongleongbank"><title id="pi-hongleongbank">Hong Leong Bank</title><path opacity=".07" d="M35 0H3C1.3 0 0 1.3 0 3v18c0 1.7 1.4 3 3 3h32c1.7 0 3-1.3 3-3V3c0-1.7-1.4-3-3-3z"/><path fill="#FFF" d="M35 1c1.1 0 2 .9 2 2v18c0 1.1-.9 2-2 2H3c-1.1 0-2-.9-2-2V3c0-1.1.9-2 2-2h32"/><path fill="#001548" d="M19.216 2s1.609 3.218 8.152 5.045V9.3s-4.823.314-10.302-6.013L19.216 2z"/><path fill="#001548" d="M15.783 3.826s4.509 6.431 11.692 6.974v2.356s-7.721 0-13.622-8.051l1.93-1.279z"/><path fill="#001548" d="M12.563 5.861s4.938 7.828 14.806 8.793v2.366s-10.19-.539-16.843-9.974l2.037-1.185z"/><path fill="#EC1C24" d="M19.216 22s1.609-3.156 8.152-4.981v-2.311s-4.823-.322-10.302 6.005L19.216 22z"/><path fill="#EC1C24" d="M15.783 20.177s4.509-6.434 11.692-6.97v-2.364s-7.721 0-13.622 8.044l1.93 1.29z"/><path fill="#EC1C24" d="M12.563 18.139s4.938-7.832 14.806-8.8V6.984s-10.19.532-16.843 9.973l2.037 1.182z"/></svg>