<svg xmlns="http://www.w3.org/2000/svg" width="38" height="24" aria-labelledby="pi-inbank" role="img" viewBox="0 0 38 24"><title id="pi-inbank">Inbank</title><path fill="#000" d="M35 0H3C1.3 0 0 1.3 0 3v18c0 1.7 1.4 3 3 3h32c1.7 0 3-1.3 3-3V3c0-1.7-1.4-3-3-3z" opacity=".07"/><path fill="#fff" d="M35 1c1.1 0 2 .9 2 2v18c0 1.1-.9 2-2 2H3c-1.1 0-2-.9-2-2V3c0-1.1.9-2 2-2h32"/><path fill="#21093A" d="M12.173 10.098c-.443 0-.813.14-1.104.419l.048-.27a.048.048 0 0 0-.011-.041.052.052 0 0 0-.04-.018h-.76a.051.051 0 0 0-.05.042l-.623 3.448a.049.049 0 0 0 .011.042c.01.012.025.018.04.018h.76a.051.051 0 0 0 .05-.042l.335-1.849c.109-.604.481-.95 1.021-.95.221 0 .392.062.494.18.108.127.142.32.098.56l-.368 2.041a.048.048 0 0 0 .011.041c.01.012.025.018.04.018h.76a.051.051 0 0 0 .051-.042l.382-2.117c.084-.462.008-.847-.218-1.112-.207-.241-.527-.37-.926-.37l-.001.002Zm-2.909-.29c.14 0 .274-.054.376-.154a.508.508 0 0 0 .008-.74.532.532 0 0 0-.764-.001.512.512 0 0 0 0 .742c.105.099.24.153.38.153Zm.236.38h-.76a.051.051 0 0 0-.05.042l-.623 3.448a.049.049 0 0 0 .012.042c.01.012.024.018.04.018h.759a.051.051 0 0 0 .05-.042l.624-3.449a.049.049 0 0 0-.012-.041.052.052 0 0 0-.04-.018Zm8.668-.09c-.492 0-.888.164-1.18.486V8.86a.051.051 0 0 0-.051-.05h-.76a.051.051 0 0 0-.052.05v4.829c0 .028.024.05.052.05h.76a.051.051 0 0 0 .052-.05v-.351c.29.326.685.49 1.179.49.493 0 .92-.175 1.275-.54.35-.356.528-.802.528-1.324s-.178-.968-.528-1.326a1.707 1.707 0 0 0-1.275-.54v.001Zm.638 2.623c-.2.196-.455.296-.758.296-.302 0-.558-.1-.757-.295a1.027 1.027 0 0 1-.302-.758c0-.304.101-.554.302-.751.197-.2.452-.302.757-.302.306 0 .56.102.758.302.2.197.302.449.302.751s-.099.552-.302.757Zm5.334-2.533h-.76a.051.051 0 0 0-.052.051v.345c-.29-.322-.686-.486-1.178-.486-.492 0-.92.177-1.275.54-.351.358-.529.803-.529 1.325 0 .523.178.968.529 1.326.356.363.773.54 1.275.54.502 0 .889-.165 1.178-.491v.35c0 .029.024.051.052.051h.76a.051.051 0 0 0 .052-.05v-3.45a.051.051 0 0 0-.052-.051Zm-1.113 2.533c-.2.196-.455.296-.758.296s-.558-.1-.758-.295a1.026 1.026 0 0 1-.302-.758c0-.304.102-.554.302-.751.198-.2.453-.302.758-.302s.56.102.758.302c.2.197.301.449.301.751s-.098.552-.301.757Zm3.742-2.623c-.447 0-.796.144-1.038.428v-.287a.051.051 0 0 0-.052-.05h-.76a.051.051 0 0 0-.052.05v3.449c0 .028.024.05.052.05h.76a.051.051 0 0 0 .052-.05v-1.849c0-.607.298-.942.841-.942.468 0 .736.273.736.75v2.04c0 .03.024.052.052.052h.76a.051.051 0 0 0 .052-.051V11.57c0-.894-.55-1.472-1.402-1.472h-.001ZM10.589 7c-1.808 0-2.88.295-3.585.985C6.3 8.675 6 9.727 6 11.5c0 1.774.3 2.824 1.004 3.515.705.69 1.776.985 3.585.985 1.808 0 2.88-.295 3.584-.985.704-.69 1.004-1.742 1.004-3.515 0-1.773-.3-2.824-1.004-3.515-.704-.69-1.776-.985-3.584-.985Zm2.973 7.416c-.52.51-1.437.737-2.973.737-1.537 0-2.454-.227-2.974-.737s-.751-1.409-.751-2.916.231-2.406.751-2.916c.52-.51 1.437-.737 2.974-.737 1.536 0 2.453.227 2.973.737s.752 1.409.752 2.916-.232 2.406-.752 2.916Zm18.424-.762-1.572-1.725 1.516-1.656a.05.05 0 0 0 .01-.055.052.052 0 0 0-.048-.03h-.928a.05.05 0 0 0-.04.017l-1.273 1.423V8.86a.051.051 0 0 0-.052-.05h-.76a.051.051 0 0 0-.051.05v4.829c0 .028.023.05.051.05h.76a.051.051 0 0 0 .052-.05v-1.46l1.351 1.493c.01.011.024.017.04.017h.906c.02 0 .04-.011.047-.03a.05.05 0 0 0-.008-.055Z"/></svg>
