<svg width="38" height="24" viewBox="0 0 38 24" fill="#ffeb00" xmlns="http://www.w3.org/2000/svg" role="img" aria-labelledby="pi-kakao_pay"><title id="pi-kakao_pay">Kakao Pay</title><rect x="1" y="1" width="36" height="22" rx="2" fill="#fff"/><rect x=".5" y=".5" width="37" height="23" rx="2.5" stroke="#000" stroke-opacity=".07"/><g clip-path="url(#pi-clip0)" fill="#1E1E1E"><path d="M9.274 8C6.637 8 4.5 9.68 4.5 11.764c0 1.344.894 2.52 2.238 3.189-.074.252-.47 1.623-.485 1.73 0 0 0 .082.042.11a.145.145 0 00.113 0c.151-.02 1.74-1.137 2.018-1.332.278.039.558.059.84.059 2.636 0 4.773-1.68 4.773-3.764C14.04 9.67 11.91 8 9.274 8zM19.797 8.54a2.87 2.87 0 00-1.087.199 3.857 3.857 0 00-.584.296l-.096-.34h-1.05v8.498h1.356V14.94c.121.031.244.053.368.067.215.024.43.036.646.036a2.7 2.7 0 001.172-.25 2.52 2.52 0 00.888-.705c.248-.318.436-.679.554-1.064.133-.436.198-.89.193-1.346 0-.945-.189-1.705-.558-2.261-.37-.556-.995-.877-1.802-.877zm.983 3.148c0 .708-.143 1.26-.42 1.642-.336.456-.869.62-1.698.512a2.173 2.173 0 01-.323-.067V10.1c.16-.096.333-.174.512-.23.227-.077.464-.117.703-.118a.99.99 0 01.924.44c.2.328.302.826.302 1.489v.008zM25.602 8.54a3.943 3.943 0 00-1.05.146c-.35.097-.686.239-1.001.42l-.157.088.436 1.03.198-.093c.242-.112.494-.2.753-.265.26-.068.527-.103.796-.105a1.03 1.03 0 01.756.235c.157.156.237.441.237.84v.269h-.96c-.802 0-1.423.168-1.849.502a1.824 1.824 0 00-.665 1.524 1.87 1.87 0 00.49 1.377 1.857 1.857 0 001.37.502 3.04 3.04 0 001.034-.21c.258-.095.503-.22.73-.372l.085.485h1.077v-4.024c0-.796-.193-1.394-.573-1.776-.38-.382-.955-.573-1.707-.573zm-.48 5.302a.726.726 0 01-.546-.182.785.785 0 01-.181-.567.777.777 0 01.283-.672c.21-.153.559-.23 1.05-.23h.84v1.101a1.74 1.74 0 01-.246.179 2.68 2.68 0 01-.812.325c-.128.03-.258.045-.389.046zM33.212 8.491l-1.604 4.619-1.585-4.619-1.333.42 2.208 5.807a4.533 4.533 0 01-.564.883c-.25.308-.532.59-.84.84l-.183.15.874.839.14-.097c.48-.331.894-.747 1.224-1.228a7.8 7.8 0 00.882-1.755l2.089-5.47-1.308-.389z"/></g><defs><clipPath id="pi-clip0"><path fill="#fff" d="M3 7h32v10H3z"/></clipPath></defs></svg>
