<svg xmlns="http://www.w3.org/2000/svg" role="img" viewBox="0 0 38 24" width="38" height="24" aria-labelledby="pi-kasikornbank"><title id="pi-kasikornbank">Kasikorn Bank</title><g clip-path="url(#pi-kasikornbank-a)"><path fill="#000" d="M35 0H3C1.3 0 0 1.3 0 3v18c0 1.7 1.4 3 3 3h32c1.7 0 3-1.3 3-3V3c0-1.7-1.4-3-3-3Z" opacity=".07"/><path fill="#fff" d="M35 1c1.1 0 2 .9 2 2v18c0 1.1-.9 2-2 2H3c-1.1 0-2-.9-2-2V3c0-1.1.9-2 2-2h32Z"/><path fill="#98867D" d="M22.821 15.862c-.339-.175-.703-.351-1.242-.351-.477 0-.866.176-1.23.351-.389.176-.79.364-1.33.364-.477 0-.828-.163-1.205-.339-.389-.175-.79-.364-1.343-.364-.476 0-.866.176-1.242.34-.389.175-.803.363-1.33.363h-.088c.05.062.113.138.176.2.54-.012.94-.2 1.33-.376.376-.163.715-.326 1.154-.326.502 0 .866.163 1.255.351.377.176.778.364 1.293.364.577 0 1.004-.2 1.418-.389.364-.163.715-.326 1.154-.326.49 0 .816.163 1.155.326.364.188.753.376 1.38.376.063-.062.113-.138.176-.213h-.163c-.602.013-.966-.175-1.318-.35Z"/><path fill="#98867D" d="M21.579 15.887c-.477 0-.866.176-1.23.351-.389.176-.79.364-1.33.364-.477 0-.828-.163-1.205-.339-.389-.175-.79-.363-1.343-.363-.476 0-.866.175-1.242.338-.339.15-.678.301-1.092.351.063.063.113.126.176.176.376-.063.703-.2 1.004-.339.376-.163.715-.326 1.154-.326.502 0 .866.176 1.255.351.377.176.778.364 1.293.364.577 0 1.004-.2 1.418-.389.364-.163.715-.326 1.154-.326.49 0 .816.163 1.155.326.301.15.602.301 1.041.364.063-.063.126-.125.176-.188-.49-.038-.816-.2-1.13-.351-.35-.176-.702-.364-1.254-.364Z"/><path fill="#98867D" d="M21.579 16.276c-.477 0-.866.175-1.23.351-.389.175-.79.364-1.33.364-.477 0-.828-.163-1.205-.339-.389-.175-.79-.364-1.343-.364-.476 0-.866.176-1.242.339a3.53 3.53 0 0 1-.778.288c.063.05.113.113.176.163.238-.075.464-.175.677-.263.377-.163.716-.326 1.155-.326.502 0 .866.176 1.255.351.376.176.778.364 1.292.364.578 0 1.004-.2 1.418-.389.364-.163.716-.326 1.155-.326.49 0 .816.163 1.154.326.214.113.427.213.69.288.063-.05.126-.112.189-.163-.314-.062-.552-.188-.79-.313-.34-.176-.691-.351-1.243-.351Z"/><path fill="#98867D" d="M21.579 16.652c-.477 0-.866.176-1.23.351-.389.176-.79.364-1.33.364-.477 0-.828-.163-1.205-.339-.389-.175-.79-.363-1.343-.363-.476 0-.866.175-1.242.338-.15.063-.301.138-.452.188l.189.15c.125-.05.238-.1.35-.15.377-.163.716-.326 1.155-.326.502 0 .866.176 1.255.351.377.176.778.364 1.293.364.577 0 1.004-.188 1.418-.389.364-.163.715-.326 1.154-.326.49 0 .816.163 1.155.326.113.063.238.126.364.176l.188-.15a5.223 5.223 0 0 1-.464-.214c-.352-.175-.703-.351-1.255-.351Z"/><path fill="#98867D" d="M21.579 17.04c-.477 0-.866.176-1.23.352-.389.175-.79.364-1.33.364-.477 0-.828-.163-1.205-.34-.389-.187-.79-.363-1.343-.363-.476 0-.866.176-1.242.339-.038.025-.088.038-.125.063.062.05.125.087.188.138.012 0 .012 0 .025-.013.376-.163.715-.326 1.154-.326.502 0 .866.175 1.255.351.377.176.778.364 1.293.364.577 0 1.004-.201 1.418-.377.364-.175.715-.325 1.154-.325.49 0 .816.163 1.155.326.012.012.025.012.05.025.063-.038.126-.088.188-.126-.05-.025-.1-.05-.138-.075-.364-.2-.715-.376-1.267-.376Z"/><path fill="#98867D" d="M20.349 17.768c-.389.176-.79.364-1.33.364-.477 0-.828-.163-1.205-.339-.389-.175-.79-.363-1.343-.363-.389 0-.715.112-1.029.25.076.05.138.088.214.126.25-.1.514-.176.815-.176.502 0 .866.163 1.255.351.377.176.778.364 1.293.364.577 0 1.004-.2 1.418-.389.364-.175.715-.326 1.154-.326.352 0 .603.075.854.188.075-.037.138-.088.213-.125-.289-.138-.615-.264-1.054-.264-.502-.012-.878.164-1.255.339Z"/><path fill="#EC1B2E" d="M19.006 18.721A6.724 6.724 0 0 1 12.28 12a6.724 6.724 0 0 1 6.726-6.721A6.724 6.724 0 0 1 25.733 12a6.724 6.724 0 0 1-6.727 6.721Zm0-14.721C14.59 4 11 7.586 11 12s3.576 8 7.994 8C23.41 20 27 16.426 27 12c0-4.414-3.576-8-7.994-8Z"/><path fill="#00A84F" d="M22.796 10.019c-.05.25-.301.514-.44.627-.313.25-2.384 1.517-2.622 1.805-.238.289-.276.715-.276 1.054v2.432h.326v-.627c0-.213.126-.551.377-.815.426-.451 1.418-1.003 2.058-1.48.54-.4.577-.927.577-1.404V9.944v.075Z"/><path fill="#00A84F" d="M19.47 12.3c.227-.288 2.36-1.592 2.674-1.842.3-.251.665-.627.665-1.104V6.621c0 .388-.214.677-.49 1.04-.313.414-1.744 1.192-2.46 1.68-.702.502-.953.991-.953 1.606v4.965h.314V13.33c-.013-.326.012-.74.25-1.028Zm-1.63-2.82c-.653-.502-1.983-1.568-2.134-1.781-.15-.213-.502-.59-.502-1.053v2.533c0 .363.176 1.015.803 1.48.627.463 1.518 1.128 1.782 1.391.264.263.514.752.514 1.442v2.445h.314V11.06c.025-.778-.125-1.079-.778-1.58Z"/></g><defs><clipPath id="pi-kasikornbank-a"><path fill="#fff" d="M0 0h38v24H0z"/></clipPath></defs></svg>
