<svg xmlns="http://www.w3.org/2000/svg" width="38" height="24" viewBox="0 0 38 24" fill="none" role="img" aria-labelledby="pi-laybuybyklarna"><title xmlns="http://www.w3.org/2000/svg" id="pi-laybuybyklarna">Laybuy by Klarna</title><rect width="36" height="22" rx="2" fill="#751DFF" x="1" y="1"/><path fill="#000" opacity=".07" d="M35 0H3C1.3 0 0 1.3 0 3v18c0 1.7 1.4 3 3 3h32c1.7 0 3-1.3 3-3V3c0-1.7-1.4-3-3-3z"/><path d="M21.361 16.897v-2.145h.536v.812h.011a.562.562 0 01.093-.142.465.465 0 01.156-.11.644.644 0 01.556.044.637.637 0 01.247.27c.063.123.094.279.094.468 0 .182-.03.334-.09.457a.637.637 0 01-.244.277.642.642 0 01-.339.092.558.558 0 01-.22-.04.479.479 0 01-.253-.244h-.017v.26h-.53zm.525-.804c0 .086.012.162.036.226.025.064.06.114.107.15a.273.273 0 00.167.052.27.27 0 00.168-.052.323.323 0 00.104-.15.643.643 0 00.036-.226.634.634 0 00-.036-.226.317.317 0 00-.104-.147.267.267 0 00-.168-.053.274.274 0 00-.168.052.325.325 0 00-.106.146.641.641 0 00-.036.228zM23.61 17.5a1.085 1.085 0 01-.33-.051l.12-.372a.61.61 0 00.142.03.207.207 0 00.11-.02.153.153 0 00.073-.083l.02-.049-.598-1.667h.561l.31 1.148h.018l.314-1.148h.565l-.635 1.763a.734.734 0 01-.13.232.564.564 0 01-.216.16.81.81 0 01-.324.057zm2.173-.603v-2.145h.543v.907h.03l.741-.907h.64l-.796.957.81 1.188h-.65l-.558-.843-.217.262v.58h-.543zm2.703-2.145v2.145h-.535v-2.145h.535zm.816 2.172a.747.747 0 01-.286-.051.442.442 0 01-.196-.157.464.464 0 01-.071-.265.47.47 0 01.049-.226.41.41 0 01.136-.15.659.659 0 01.2-.087 1.28 1.28 0 01.24-.04 3.64 3.64 0 00.232-.027c.058-.01.1-.023.127-.04a.087.087 0 00.04-.077v-.006a.147.147 0 00-.058-.124.255.255 0 00-.156-.044.3.3 0 00-.171.044.193.193 0 00-.083.121l-.494-.017a.546.546 0 01.113-.261.608.608 0 01.252-.182 1 1 0 01.387-.068c.107 0 .206.013.297.037.09.024.17.059.237.105a.455.455 0 01.211.395v1.093h-.504v-.224h-.013a.463.463 0 01-.278.223.725.725 0 01-.21.028zm.165-.335c.058 0 .11-.011.156-.034a.286.286 0 00.112-.092.235.235 0 00.042-.138v-.153a.325.325 0 01-.056.021 1.065 1.065 0 01-.15.033 4.521 4.521 0 01-.077.011.504.504 0 00-.13.036.201.201 0 00-.08.063.149.149 0 00-.028.09c0 .053.02.093.06.121a.26.26 0 00.151.042zm1.169.308v-1.609h.52v.294h.018a.433.433 0 01.15-.237.39.39 0 01.242-.079.58.58 0 01.15.02v.444a.952.952 0 00-.21-.027.36.36 0 00-.172.04.302.302 0 00-.162.28v.874h-.536zm1.835-.917v.917h-.536v-1.609h.51v.296h.018a.457.457 0 01.19-.232.592.592 0 01.322-.085c.118 0 .22.026.308.077a.52.52 0 01.204.212c.049.09.073.195.072.316v1.025h-.536v-.925a.292.292 0 00-.071-.21.259.259 0 00-.199-.075.303.303 0 00-.148.036.242.242 0 00-.1.1.344.344 0 00-.034.156zm1.895.944a.749.749 0 01-.287-.051.44.44 0 01-.196-.157.463.463 0 01-.07-.265.408.408 0 01.185-.376.657.657 0 01.199-.087 1.28 1.28 0 01.24-.04c.096-.01.174-.018.232-.027.058-.01.1-.023.127-.04a.087.087 0 00.04-.077v-.006a.147.147 0 00-.057-.124.254.254 0 00-.157-.044.3.3 0 00-.171.044.194.194 0 00-.082.121l-.495-.017a.549.549 0 01.113-.261.612.612 0 01.252-.182c.108-.045.237-.068.387-.068.108 0 .207.013.297.037a.75.75 0 01.237.105.455.455 0 01.211.395v1.093h-.504v-.224h-.013a.461.461 0 01-.278.223.726.726 0 01-.21.028zm.165-.335a.34.34 0 00.155-.034.285.285 0 00.112-.092.235.235 0 00.042-.138v-.153a.329.329 0 01-.056.021 1.042 1.042 0 01-.149.033 4.262 4.262 0 01-.078.011.507.507 0 00-.13.036.203.203 0 00-.08.063.149.149 0 00-.027.09c0 .053.02.093.059.121a.26.26 0 00.152.042zm-10.736-7.11c-.615 0-1.13.432-1.13 1.223 0 .784.515 1.234 1.13 1.234.625 0 1.121-.44 1.121-1.234s-.496-1.224-1.121-1.224zm-8.806 1.452l-1.019.15c-.31.044-.56.21-.56.545 0 .256.193.501.589.501.514 0 .993-.238.993-1.005v-.191h-.003zM11.755 6.5v6.377h-1.222V6.5h1.222zm-5.49 1.327a1.79 1.79 0 012.453 0c.676.649.674 1.7-.003 2.35l-.028.026-2.665 2.553a.714.714 0 01-.977 0l.016.013-2.86-2.743a.646.646 0 010-.936l.018-.017a.714.714 0 01.959.017l2.294 2.2s.062.06.126 0l2.109-2.023.208-.202a.322.322 0 00.003-.474.369.369 0 00-.504 0l-.203.202-1.16 1.113a.714.714 0 01-.978 0L3.685 8.574a.646.646 0 010-.936l.018-.017a.714.714 0 01.959.017l.836.816s.064.044.11 0l.656-.627zM22.682 6.5v2.519c.203-.307.697-.59 1.368-.59 1.322 0 2.086.978 2.086 2.263 0 1.312-.846 2.29-2.13 2.29-.625 0-1.1-.265-1.34-.634v.529h-1.185V6.5h1.2zm5.061 2.044v2.502c0 .484.258.872.826.872.543 0 .854-.351.854-.855V8.544h1.221v3.549c0 .334.029.634.047.784h-1.168a2.9 2.9 0 01-.036-.467c-.247.405-.771.582-1.25.582-1.093 0-1.718-.767-1.718-1.708v-2.74h1.224zm-13.528-.132c1.433 0 1.965.774 1.965 1.646v2.13c0 .23.028.539.054.689h-1.121a2.748 2.748 0 01-.046-.519c-.23.344-.661.644-1.333.644-.964 0-1.55-.624-1.55-1.302 0-.774.596-1.207 1.35-1.313l1.11-.157c.258-.034.34-.16.34-.307 0-.307-.247-.563-.76-.563-.533 0-.826.327-.865.706l-1.083-.222c.075-.683.728-1.432 1.94-1.432zm18.165.132l1.204 2.536 1.111-2.536H36l-2.84 6.043h-1.293l1.065-2.256-1.919-3.787h1.368zm-14.85 0l1.204 2.536 1.111-2.536h1.304l-2.84 6.043h-1.293l1.065-2.256-1.919-3.787h1.369z" fill="#fff"/></svg>
