<svg xmlns="http://www.w3.org/2000/svg" role="img" viewBox="0 0 38 24" width="38" height="24" aria-labelledby="pi-lunchcheck"><title id="pi-lunchcheck">Lunch-Check</title><path fill="#000" opacity=".07" d="M35 0H3C1.3 0 0 1.3 0 3v18c0 1.7 1.4 3 3 3h32c1.7 0 3-1.3 3-3V3c0-1.7-1.4-3-3-3z"/><path fill="#fff" d="M35 1c1.1 0 2 .9 2 2v18c0 1.1-.9 2-2 2H3c-1.1 0-2-.9-2-2V3c0-1.1.9-2 2-2h32"/><path fill="#CC4417" d="M32.18 9.97h4v4.07h-4z"/><g fill="#FFF"><path d="M33.81 10.65h.74v2.7h-.74z"/><path d="M32.83 11.63h2.7v.74h-2.7z"/></g><g><g fill="#262E3C"><path d="M3.72 12.87l-.02.6H1.82V10.5h.67v2.37h1.23zM6.55 12.41c0 .75-.4 1.12-1.19 1.12-.78 0-1.2-.37-1.2-1.12V10.5h.67v1.9c0 .36.16.52.54.52.37 0 .53-.15.53-.52v-1.9h.66v1.91zM9.17 13.48l-1.15-1.62-.18-.27h-.01V13.47h-.59V10.5h.57l1.06 1.53.18.27h.01l-.01-.32V10.5h.59v2.97h-.47zM12.25 11.15c-.15-.06-.36-.1-.58-.1-.54 0-.72.22-.72.92 0 .75.19.97.73.97.22 0 .41-.04.58-.11l.07.54c-.19.1-.48.16-.74.16-.9 0-1.34-.5-1.34-1.56 0-.99.43-1.52 1.38-1.52.24 0 .52.06.69.12l-.07.58zM14.59 13.48v-1.22h-1.04v1.22h-.67V10.5h.67v1.15h1.04V10.5h.67v2.97h-.67zM17.04 11.75v.46h-1.13v-.46h1.13zM19.58 11.15c-.15-.06-.36-.1-.58-.1-.54 0-.72.22-.72.92 0 .75.19.97.73.97.22 0 .41-.04.58-.11l.07.54c-.19.1-.48.16-.74.16-.9 0-1.34-.5-1.34-1.56 0-.99.43-1.52 1.38-1.52.24 0 .52.06.69.12l-.07.58zM21.92 13.48v-1.22h-1.04v1.22h-.67V10.5h.67v1.15h1.04V10.5h.67v2.97h-.67zM25.35 12.89l-.02.58h-2.02V10.5h1.96l.01.59h-1.3v.59h1.1v.53h-1.1v.68h1.37zM27.77 11.15c-.15-.06-.36-.1-.58-.1-.54 0-.72.22-.72.92 0 .75.19.97.73.97.22 0 .41-.04.58-.11l.07.54c-.19.1-.48.16-.74.16-.9 0-1.34-.5-1.34-1.56 0-.99.43-1.52 1.38-1.52.24 0 .52.06.69.12l-.07.58zM30.12 13.48l-.73-1.25h-.31v1.25h-.68V10.5h.67v1.18h.32l.72-1.18h.77l-.89 1.41.94 1.56h-.81z"/></g></g></svg>