<svg width="38" height="24" viewBox="0 0 38 24" role="img" fill="none" xmlns="http://www.w3.org/2000/svg" aria-labelledby="pi-metrobank"><title id="pi-metrobank">Metro Bank</title><g><path opacity=".07" d="M35 0H3C1.3 0 0 1.3 0 3v18c0 1.7 1.4 3 3 3h32c1.7 0 3-1.3 3-3V3c0-1.7-1.4-3-3-3z" fill="#000"/><path d="M35 1c1.1 0 2 .9 2 2v18c0 1.1-.9 2-2 2H3c-1.1 0-2-.9-2-2V3c0-1.1.9-2 2-2h32z" fill="#fff"/><path d="M6.21 9.015c.111-.052.217.042.308.095.804.541 1.624 1.06 2.427 1.601.216.148.201.506-.022.64-.844.558-1.693 1.106-2.535 1.665a.191.191 0 01-.202.004c-.812-.532-1.625-1.062-2.437-1.592-.127-.08-.28-.18-.282-.35-.033-.177.087-.34.233-.426.839-.542 1.663-1.107 2.51-1.637zm.932 1.08c.134.217.277.428.404.649.15.01.301.008.452 0-.29-.21-.588-.41-.856-.649zm-2.58.65c.147.005.295.012.443 0 .139-.207.266-.42.41-.624-.284.21-.563.424-.853.624zm1.042.004h.407l-.001-.617c-.123.214-.265.415-.406.617zm.955-.598c-.003.2-.003.4 0 .598h.391l-.39-.598zm-1.996 1.142c.287.212.572.426.86.639-.151-.206-.284-.424-.42-.639h-.44zm1.04 0c.14.207.28.413.41.627a30.786 30.786 0 010-.627h-.41zm.958-.002a20.66 20.66 0 00-.003.61c.13-.204.264-.407.399-.608-.132 0-.264-.003-.396-.002zm1.017.001c-.157.211-.292.437-.43.66.268-.245.572-.444.864-.66h-.434zM10.272 10.867l.75-.003c.32.892.644 1.782.922 2.688.082-.377.227-.736.356-1.098.192-.53.389-1.06.585-1.589.247.002.493.002.74-.002.072.964.123 1.929.187 2.893.022.284.035.569.045.854h-.645c-.024-.586-.06-1.172-.09-1.758-.013-.299-.01-.6-.057-.896-.069.295-.175.58-.277.864l-.646 1.771c-.16-.002-.319-.006-.478.004-.248-.672-.47-1.354-.703-2.032a5.225 5.225 0 01-.151-.542c-.064.861-.102 1.725-.16 2.587-.212 0-.423 0-.634-.004.09-1.245.176-2.491.256-3.737zM23.607 10.865h.644c0 .437.002.874 0 1.312.4-.393 1.109-.399 1.514-.01.3.293.416.729.397 1.138-.005.427-.166.88-.523 1.136-.425.326-1.092.306-1.467-.09l-.008.259c-.196 0-.392-.004-.588-.004.033-.265.032-.533.032-.8.002-.98 0-1.96-.001-2.941zm1.103 1.58a.68.68 0 00-.434.46c-.046.205-.022.418-.025.627a.598.598 0 00.6.583c.244.021.47-.147.57-.363.154-.37.138-.845-.134-1.157a.582.582 0 00-.577-.15zM31.989 10.868c.215 0 .43-.005.646-.003-.003.677-.015 1.354.009 2.031.274-.327.545-.657.838-.969.26.016.52.001.78.004-.35.379-.703.756-1.059 1.129.388.514.775 1.03 1.16 1.546-.264.002-.529 0-.794 0-.236-.353-.494-.69-.733-1.041a.236.236 0 00-.087-.08c-.053.063-.124.128-.117.218-.002.301-.002.602 0 .903h-.64c0-1.246.005-2.492-.003-3.738zM17.215 11.51c.21-.073.42-.141.634-.199-.002.206-.002.411-.002.617.192.008.384 0 .577.007.034-.005.058.021.084.04 0 .163.002.326.001.49a58.61 58.61 0 01-.663.001l.002 1.038c.003.15-.01.302.032.447.018.056.051.118.112.135.148.048.305.004.448-.042.027.179.032.36.038.54-.247.077-.518.123-.771.044a.623.623 0 01-.376-.305 1.307 1.307 0 01-.113-.544v-1.313h-.384l.003-.534h.38l-.002-.421z" fill="#023184"/><path d="M3.473 11.803c.008-.122.165-.208.271-.143.239.129.453.296.682.442.618.404 1.221.832 1.85 1.219.119-.057.23-.127.339-.2.699-.468 1.398-.937 2.099-1.402a.401.401 0 01.284-.076c.034.048.07.094.105.14 0 .816-.005 1.631 0 2.446-.004.196-.175.385-.378.379H3.852c-.142.013-.264-.086-.336-.198-.05-.076-.04-.17-.041-.256-.001-.784-.003-1.567-.002-2.35zm3.235 1.96c-.1.057-.194.13-.31.148a.686.686 0 01-.474-.106c-.543-.34-1.087-.68-1.632-1.016-.053-.032-.108-.073-.174-.056-.008.412-.001.823-.005 1.235.077.02.156.034.236.032 1.363-.002 2.726.004 4.089-.007.037-.228.024-.46.025-.689 0-.199.013-.4-.027-.597-.59.329-1.148.71-1.728 1.056zM14.542 12.328c.381-.498 1.18-.614 1.672-.216.373.327.46.87.385 1.34h-1.731c.026.256.175.52.427.612.357.107.743.042 1.081-.096.04.171.095.34.115.516-.43.165-.911.233-1.364.124a1.176 1.176 0 01-.829-.822c-.128-.49-.067-1.048.244-1.458zm.464.309c-.054.092-.09.193-.13.293.374.002.749.002 1.124 0-.023-.097-.044-.196-.088-.286a.474.474 0 00-.41-.256.546.546 0 00-.496.249zM19.572 12.208c.197-.252.54-.395.855-.302-.003.201-.002.402.001.603-.139-.003-.282-.026-.418.012a.586.586 0 00-.334.382c-.037.113-.033.233-.032.35v1.355h-.65c-.006-.892.031-1.785-.014-2.677h.582l.01.277zM21.69 11.9c.344-.06.714.01 1 .214.292.198.468.535.515.88.04.342.009.703-.156 1.01-.172.32-.49.55-.843.629-.403.092-.853.005-1.169-.267-.299-.264-.445-.67-.438-1.063-.008-.377.113-.77.383-1.042.187-.195.44-.322.707-.361zm.073.523a.618.618 0 00-.369.277c-.145.231-.176.519-.135.785.037.274.206.545.477.636a.586.586 0 00.632-.223 1.11 1.11 0 00-.006-1.281.604.604 0 00-.598-.194zM26.64 12.14c.364-.207.796-.314 1.212-.237.246.037.48.173.612.388.15.251.17.553.164.84.005.492-.026.988.052 1.477-.201 0-.402.003-.602.002-.006-.071-.01-.142-.015-.214a1.07 1.07 0 01-.812.268.812.812 0 01-.641-.37.868.868 0 01.203-1.128c.33-.273.779-.29 1.185-.335-.03-.154-.09-.335-.253-.393-.32-.096-.673.006-.934.205-.059-.167-.115-.336-.171-.504zm.598 1.404c-.183.159-.136.518.107.591.22.047.476-.046.591-.245.093-.163.064-.36.057-.539-.258.004-.554.005-.755.193zM29.743 12.18c.332-.335.902-.404 1.295-.139.233.151.364.419.41.686.028.15.018.301.021.452.002.476-.004.952.006 1.427-.215.002-.43.003-.646.002.002-.426.006-.851.003-1.277-.002-.24.023-.503-.117-.714-.101-.16-.314-.208-.489-.164a.587.587 0 00-.427.55c-.002.535 0 1.07 0 1.603-.214.003-.428.003-.642 0 0-.509.003-1.018.002-1.527-.003-.367.01-.736-.03-1.103l.05-.036c.178-.017.357-.005.536-.008l.028.248z" fill="#023184"/></g><defs><clipPath><path fill="#fff" d="M0 0h38v24H0z"/></clipPath></defs></svg>