<svg viewBox="0 0 38 24" xmlns="http://www.w3.org/2000/svg" width="38" height="24" role="img" aria-labelledby="pi-mobilepay"><title id="pi-mobilepay">MobilePay</title><path fill="#000" opacity=".07" d="M35 0H3C1.3 0 0 1.3 0 3v18c0 1.7 1.4 3 3 3h32c1.7 0 3-1.3 3-3V3c0-1.7-1.4-3-3-3z"/><path fill="#fff" d="M35 1c1.1 0 2 .9 2 2v18c0 1.1-.9 2-2 2H3c-1.1 0-2-.9-2-2V3c0-1.1.9-2 2-2h32"/><path fill-rule="evenodd" clip-rule="evenodd" d="M20.05 15.296s2.53-.771 4.282-.776c2.896-.007 4.857 1.15 4.857 1.15V10.06s-1.97-1.02-4.453-1.09c-2.481-.068-4.687 1.012-4.687 1.012v5.313z" fill="#5A78FF"/><path fill-rule="evenodd" clip-rule="evenodd" d="M17.308 9.19l2.082 4.957V9.396s1.646-.882 3.485-1.13c1.84-.249 4.181.08 4.181.08l-1.133-2.707s-2.461-.159-4.69.794c-2.228.952-3.925 2.756-3.925 2.756z" fill="#5A78FF"/><path d="M21.428 5.676l-.82-1.99a1.818 1.818 0 00-2.37-.996l-5.663 2.334a1.818 1.818 0 00-.98 2.376l5.46 13.247a1.818 1.818 0 002.37.995l5.662-2.334a1.817 1.817 0 00.98-2.376l-.677-1.642s-.462-.027-.676-.033c-.226-.006-.644-.001-.644-.001l.88 2.136a.606.606 0 01-.326.793l-5.663 2.333a.606.606 0 01-.79-.331L12.711 6.94a.606.606 0 01.327-.792L18.7 3.814a.606.606 0 01.79.332l.83 2.011s.383-.187.59-.27c.206-.082.518-.211.518-.211z" fill="#5A78FF"/></svg>