<svg xmlns="http://www.w3.org/2000/svg" role="img" viewBox="0 0 38 24" width="38" height="24" aria-labelledby="pi-momopay"><title id="pi-momopay">MoMoPay</title><path opacity=".07" d="M35 0H3C1.3 0 0 1.3 0 3v18c0 1.7 1.4 3 3 3h32c1.7 0 3-1.3 3-3V3c0-1.7-1.4-3-3-3z"/><path fill="#fff" d="M35 1c1.1 0 2 .9 2 2v18c0 1.1-.9 2-2 2H3c-1.1 0-2-.9-2-2V3c0-1.1.9-2 2-2h32"/><path d="M25.919 4H12.081A1.084 1.084 0 0011 5.081v13.838A1.084 1.084 0 0012.081 20h13.838A1.084 1.084 0 0027 18.919V5.081A1.084 1.084 0 0025.919 4z" fill="#a50064" fill-rule="evenodd"/><path d="M22.326 11.47a2.485 2.485 0 10-2.485-2.485 2.483 2.483 0 002.485 2.485zm0-3.544a1.058 1.058 0 11-1.058 1.058 1.058 1.058 0 011.058-1.057zm0 4.62a2.485 2.485 0 102.485 2.485 2.483 2.483 0 00-2.485-2.485zm0 3.544a1.058 1.058 0 111.058-1.058 1.058 1.058 0 01-1.058 1.058zm-5.063-3.544a1.847 1.847 0 00-1.117.374 1.862 1.862 0 00-2.982 1.491v3.111h1.427v-3.128a.421.421 0 01.842 0v3.122h1.43v-3.122a.421.421 0 01.842 0v3.122h1.421v-3.111a1.86 1.86 0 00-1.863-1.859zM17.257 6.5a1.846 1.846 0 00-1.117.374 1.867 1.867 0 00-2.983 1.491v3.1h1.427V8.348a.421.421 0 11.842 0v3.122h1.431V8.348a.421.421 0 01.842 0v3.122h1.427v-3.1a1.862 1.862 0 00-1.869-1.87z" fill="#fff"/></svg>