<svg width="38" height="24" viewBox="0 0 38 24" version="1.1" role="img" aria-labelledby="pi-mybank" xmlns="http://www.w3.org/2000/svg"><title id="pi-mybank">mybank</title><g id="pi-mybank-浅色模式" stroke="none" stroke-width="1" fill="none" fill-rule="evenodd"><g id="pi-mybank-日期选择器" transform="translate(-2210 -2008)"><g id="pi-mybank" transform="translate(2210.5 2008.5)"><rect id="pi-mybank-矩形" fill="#FFF" fill-rule="nonzero" x=".5" y=".5" width="36" height="22" rx="2"/><g id="pi-mybank-logo-vector" transform="translate(4 3)" fill-rule="nonzero"><g id="pi-mybank-编组" transform="translate(18.138 5.303)" fill="#204866"><path d="M1.83 1.166c-1.117-.009-1.64.62-1.64.62-.338.353-.12.826.213.863.479.052.474-.34 1.208-.514.643-.152.672.43.672.43C-.461 2.497-.33 4.75.602 5.227c.894.458 1.735-.118 1.735-.118s.03.311.474.311c.507 0 .507-.495.507-.495V2.734C3.28 1.13 1.83 1.166 1.83 1.166M1.612 4.34s-.72.142-.71-.359c.005-.5 1.31-.472 1.44-.43 0-.004.043.567-.73.789" id="pi-mymank-形状"/><path d="M10.697 4.534l-1.12-1.649.82-.76s.383-.345.068-.685c-.343-.377-.758-.004-.758-.004l-1.034.94V.49A.497.497 0 008.17 0a.497.497 0 00-.503.491v4.435c0 .269.223.49.503.49a.497.497 0 00.503-.49V3.745l.188-.184 1.015 1.554s.328.538.817.193c.367-.26.004-.774.004-.774" id="pi-mybank-路径"/></g><g id="pi-mybank-编组" transform="translate(9.312 6.385)"><path d="M15.952 1.648c0-1.6-1.367-1.827-2.295-1.317v.004A.506.506 0 0013.178 0a.507.507 0 00-.512.5v3.34c0 .273.227.5.512.5.28 0 .513-.222.513-.5l-.005-2.253s.125-.142.323-.284c.479-.33.933-.217.933.35l.015 2.196c0 .274.227.491.502.491a.5.5 0 00.503-.491l-.01-2.2z" id="pi-mybank-路径" fill="#204866"/><path d="M1.247 4.401c.116-.188.135-.325.135-.325L.227 1.124S.02.553.478.383c.489-.18.667.278.701.373.039.094.73 1.898.73 1.898L2.576.76S2.769.17 3.3.383c.44.174.212.75.212.75s-.681 1.974-1.256 3.405c-.343.855-.633.94-.967 1.02C.846 5.668 0 5.61 0 5.072c0-.43.45-.453.652-.449.02 0 .435.038.595-.222" id="pi-mybank-路径" fill="#27BCED"/></g><g id="pi-mybank-编组" fill="#27BCED"><path d="M7.877 5.828L6.824 8.675l-1.15-2.833s-.17-.534-.653-.534c-.556 0-.536.43-.55.534-.015.104 0 4.425 0 4.425s-.006.453.502.453c.522 0 .497-.458.502-.458.005 0 0-2.28 0-2.28l.846 2.28s.126.449.517.44c.391-.01.503-.44.503-.44l.71-2.276v2.276s0 .458.512.458c.498 0 .498-.458.498-.458V5.847s0-.539-.541-.539c-.445.005-.614.425-.643.52-.005.01-.005.019-.005.019" id="pi-mybank-路径"/><path d="M29 12.463H13.546l.004.005a7.112 7.112 0 01-5.364 2.422c-3.895 0-7.05-3.084-7.05-6.89 0-3.806 3.155-6.89 7.05-6.89 2.156 0 4.089.949 5.379 2.437h1.416A8.22 8.22 0 008.186 0C3.663 0 0 3.584 0 8s3.663 8 8.186 8a8.247 8.247 0 005.997-2.564l14.14-.015.677-.958z" id="pi-mybank-路径"/></g><path d="M17.146 7.82c.029-.037.367-.306.338-1.024-.053-1.45-1.343-1.436-1.628-1.44-.46-.015-.735-.01-1.58 0-.716.004-.706.637-.706.637v4.727h2.402c1.285 0 1.763-.69 1.763-1.657 0-.973-.59-1.242-.59-1.242m-2.541-1.464h1.329c.266.004.546.146.546.533 0 .406-.242.534-.546.534h-1.33V6.357zm1.42 3.4h-1.42V8.43h1.42c.344.019.677.189.677.66 0 .487-.304.667-.676.667" id="pi-mybank-形状" fill="#204866"/></g><rect id="pi-mybank-矩形" stroke-opacity=".07" stroke="#000" x="0" y="0" width="37" height="23" rx="2.5"/></g></g></g></svg>