<svg xmlns="http://www.w3.org/2000/svg" role="img" viewBox="0 0 38 24" width="38" height="24" aria-labelledby="pi-nelo"><title id="pi-nelo">Nelo</title><path fill="#000" d="M35 0H3C1.3 0 0 1.3 0 3v18c0 1.7 1.4 3 3 3h32c1.7 0 3-1.3 3-3V3c0-1.7-1.4-3-3-3z" opacity=".07"/><path fill="#067BF2" d="M35 1c1.1 0 2 .9 2 2v18c0 1.1-.9 2-2 2H3c-1.1 0-2-.9-2-2V3c0-1.1.9-2 2-2h32z"/><path fill="#fff" d="M5.5 9.41113h1.37565v1.13837h.02331c.16322-.4032.46633-.71149.90933-.97236.41969-.23716.93264-.35573 1.49223-.35573.34974 0 .67617.04743 1.00258.166.3264.11858.6062.28459.8394.49803.2332.23716.443.52176.5829.87746.1399.3557.2098.7826.2098 1.2806v4.7668h-1.3756v-4.3636c0-.3557-.0466-.6403-.1399-.8775-.0933-.2371-.2099-.4506-.3731-.5929-.16318-.1422-.32639-.2608-.53623-.332-.20985-.0711-.39638-.0948-.62954-.0948-.27979 0-.55958.0474-.79275.1423-.23316.0948-.46632.2371-.65285.4506-.18652.2134-.32642.4505-.41968.7826-.09327.3083-.16322.6877-.16322 1.1146v3.8182H5.5V9.41113zM14.7333 13.6323c0 .3321.0699.6166.2098.8775.1399.2609.3264.498.5363.6878.2331.1897.4896.332.7927.4268.3031.0949.6062.166.9327.166.4196 0 .816-.0948 1.1191-.3083.3265-.2134.6062-.4743.886-.8063l1.0493.8063c-.7695 1.0198-1.842 1.5178-3.241 1.5178-.5829 0-1.0958-.0948-1.5621-.3083-.4664-.1897-.8627-.4743-1.1892-.83-.3264-.3557-.5829-.7589-.7461-1.2332-.1632-.4743-.2565-.9961-.2565-1.5415 0-.5455.0933-1.0672.2798-1.5415.1866-.4743.443-.8775.7928-1.2332.3264-.35575.7228-.61662 1.1891-.83006.4663-.18972.956-.3083 1.5155-.3083.6529 0 1.1892.11858 1.6322.35573.443.23716.816.52173 1.0958.90123.2798.3794.4897.7826.6296 1.2569.1165.4743.1865.9249.1865 1.4229v.498c0 .0237-5.8523.0237-5.8523.0237zm4.3834-1.1146c0-.3083-.07-.5929-.1399-.8537-.0933-.2609-.2099-.4981-.3964-.6878-.1632-.1897-.3964-.3557-.6528-.4506-.2565-.0948-.5596-.166-.9094-.166-.3497 0-.6528.0712-.9326.1897-.2798.1186-.513.3083-.7228.4981-.1865.2134-.3498.4506-.443.6877-.1166.2609-.1632.498-.1632.7589-.0233.0237 4.3601.0237 4.3601.0237zM21.9378 5h1.3757v11.834h-1.3757V5zM27.114 9.52971c-.4664.21343-.8861.47429-1.2358.82999-.3497.3558-.6295.7589-.8161 1.2332-.2098.4744-.3031.9724-.3031 1.5178 0 .5455.0933 1.0435.3031 1.5178.2099.4743.4664.8775.8161 1.2332.1166.1186.2565.2135.3731.332l.6062-1.2332c-.2099-.2134-.3498-.498-.4663-.8063-.1166-.3083-.1633-.664-.1633-1.0435 0-.3794.0467-.7114.1633-1.0434.1165-.3083.2797-.5929.4663-.8064.2098-.2134.4663-.4031.7461-.5217.3031-.1186.6295-.1897 1.0026-.1897.1399 0 .2798.0237.3964.0237l.6062-1.2095c-.3265-.09486-.6529-.14229-1.0026-.14229-.513 0-1.0259.09486-1.4922.3083zM31.3807 10.3597c-.0933-.0949-.2098-.1897-.3031-.2846l-.6295 1.2569c.1632.2135.3031.4506.4197.7352.1165.3083.1632.664.1632 1.0435 0 .3794-.0467.7115-.1632 1.0435-.1166.3083-.2798.5929-.4664.8063-.2098.2134-.4663.4032-.7461.5217-.3031.1423-.6295.1898-1.0026.1898-.1165 0-.2098 0-.3264-.0238l-.6062 1.2332c.3031.0712.6062.1186.9093.1186.5363 0 1.0492-.0948 1.5156-.3083.4663-.2134.886-.4743 1.2357-.83.3498-.3557.6295-.7589.8161-1.2332.2098-.4743.3031-.9724.3031-1.5178 0-.5455-.0933-1.0435-.3031-1.5178-.1866-.4506-.4663-.8775-.8161-1.2332z"/></svg>
