<svg width="38" height="24" role="img" fill="none" aria-labelledby="pi-novalnetdirectdebitach" viewBox="0 0 38 24" xmlns="http://www.w3.org/2000/svg"><title id="pi-novalnetdirectdebitach">Novalnet Direct Debit ACH</title><path fill="#000" opacity=".07" d="M35 0H3C1.3 0 0 1.3 0 3v18c0 1.7 1.4 3 3 3h32c1.7 0 3-1.3 3-3V3c0-1.7-1.4-3-3-3z"/><path fill="#fff" d="M35 1c1.1 0 2 .9 2 2v18c0 1.1-.9 2-2 2H3c-1.1 0-2-.9-2-2V3c0-1.1.9-2 2-2h32"/><path d="M35 1a2 2 0 012 2v18a2 2 0 01-2 2H3a2 2 0 01-2-2V3c0-1.1.9-2 2-2z" fill="#fff"/><path d="M3.38 5.5h31.37v13.31H3.38z" fill="#fff"/><path d="M26.2 18.83h-4q.31-.04.43-.31l.06-.3v-.88h-.4v.88c0 .22-.18.33-.37.23-.1-.05-.1-.14-.1-.22v-.89h-.4v1.01q.02.26.24.39.12.06.25.09h-2.95a.7.7 0 00.41-.25.8.8 0 00.18-.62.6.6 0 00-.2-.42.8.8 0 00-.77-.24.8.8 0 00-.56.44.7.7 0 00-.05.43 1 1 0 00.2.43q.16.16.39.23h-1.49a.6.6 0 00.3-.16q.1-.12.11-.3c.04-.15-.06-.36-.2-.4l-.32-.13c-.08-.03-.11-.12-.06-.17q.07-.06.18-.04l.2.09.16-.3a1 1 0 00-.5-.12c-.4 0-.59.42-.42.72l.09.08.27.11q.1.02.16.08.09.1-.02.17a.2.2 0 01-.23.01l-.22-.12-.14.28s0 .05.02.06l.34.14H3.39v-2.67l.13.03.54-.01 1.72-.02H6.8l1-.01a.1.1 0 00.1-.05l.24-.34.55-.78.72-1 .57-.8q.04-.05.1-.05h1.39v.04l-.09.46-.16.84-.16.86-.13.68q-.06.19.14.18h7.02l-.52-.09a4.2 4.2 0 01-3.41-4.16 6 6 0 01.3-1.94 6.5 6.5 0 011.5-2.5 6.4 6.4 0 012.55-1.65q.6-.21 1.23-.3h-9.21q-.06.02-.08.05l-.65.95-.77 1.14-.77 1.14-.76 1.14-.78 1.15-.76 1.13-.78 1.15-.76 1.12-.8 1.2-.22.3V5.52h31.37v4.32q-.09-.11-.22-.1h-2.81l.06-.4.08-.53.1-.55.07-.53.1-.64.08-.46.07-.4.08-.56q.03-.11-.08-.1l-.33.01-1.9.02-1.32.01c-.1 0-.1.02-.12.11l-.06.46-.09.56a11 11 0 01-.15 1l-.07.45-.09.54-.06.45-.1.56h-2.08l.05-.36.1-.65.08-.52.09-.52.1-.65.11-.72.1-.63q.04-.14-.11-.14h-5.27q.86.1 1.67.4V6l-.14 1.03-.19 1.5-.16 1.23h-.14l-.05-.07q-.22-.23-.45-.44a2.4 2.4 0 00-2.12-.5 2.3 2.3 0 00-1.46.96 2 2 0 00-.36 1.5q.13.81.76 1.34.69.56 1.55.58a2.5 2.5 0 001.85-.73l-.1.53-.51 2.79q-.01.08-.1.1-.6.2-1.25.28l-.82.09h5.66q.07 0 .1-.09l.09-.56.08-.53.08-.53.08-.45.08-.51.09-.55.09-.58h2.1l-.07.45-.08.54-.1.65-.08.55-.12.73-.1.75c-.02.1-.03.1.07.1h3.55q.05-.02.06-.06l.05-.32.14-.83.1-.74.16-.92.14-.9.08-.02.75.01.2.01 1.89-.02c.1 0 .2-.08.21-.18l.04-.26.15-1.08.08-.53.04-.26v8.77H30.4c.23-.05.4-.19.42-.43.03-.22-.02-.39-.27-.48l-.28-.1q-.1-.06-.02-.15.07-.06.16-.04l.21.08.15-.29a1 1 0 00-.55-.12.5.5 0 00-.38.3l-.03.22q0 .25.23.32l.27.1q.15.06.1.17-.07.1-.2.08l-.3-.12-.17.3.07.03.3.13h-3.5a1 1 0 00.42-.26c.25-.28.26-.81-.06-1.07a.8.8 0 00-.73-.2c-.38.08-.67.39-.63.81a1 1 0 00.2.48q.19.17.4.24m-17.56-.26l.08-.59.27.68c.05.14.05.14.21.13l.34-.8.1.8h.4l-.23-1.46h-.38l-.3.75-.29-.74h-.38l-.25 1.45h.4zm20.4.23h.17v-1.46h-.4v.85l-.32-.41-.33-.43-.03-.02h-.38v1.46h.4v-.84l.04.03.45.58c.1.13.17.3.4.24m-15.98-.01h.37v-1.45h-.38v.85l-.03-.01-.56-.73q-.05-.09-.1-.11-.2-.02-.37 0v1.45h.39v-.86l.3.4zm-8.22-.13l-.06.14h.36q.07.01.08-.07l.07-.16.05-.04h.46l.07.2q0 .07.09.07h.35l-.15-.42-.38-1q-.01-.03-.06-.05h-.26c-.12 0-.12 0-.16.12zm-.64-1.3l-.34-.03h-.43v1.46h.38v-.47h.23q.15-.02.29-.08.17-.09.2-.3c.03-.24-.04-.5-.33-.58m6.36 1v.43h.82v-.34h-.43v-.23h.4v-.34h-.4v-.21h.43v-.33h-.82zm-3.66-.98q-.02-.03-.06-.05H6.4l.03.06.4.55q.1.13.1.3v.55h.38v-.62q0-.06.02-.1l.29-.38.24-.36h-.44l-.06.04-.23.35zm7.73.8v-.51h.3v-.33h-.99v.33h.3v1.12h.4zm9.55-.76v-.08h-1v.34h.31v1.11h.39v-1.12h.3zm-4.08 1.04v.33h.83v-.34h-.44v-1.11h-.39zm4.59-.04v.37h.38v-1.45h-.38z" fill="#fff"/><path d="M3.38 5.5H20.3v11.2H3.38z" fill="#fff"/><path d="M3.4 16.03l.2-.31.81-1.2.76-1.12.77-1.15.77-1.13.77-1.15.77-1.14.77-1.14.77-1.14.65-.95q.02-.03.08-.04h9.21a6.4 6.4 0 00-3.77 1.94 6.5 6.5 0 00-1.52 2.5 6 6 0 00-.3 1.94 4.2 4.2 0 003.42 4.16l.52.1h-7.02q-.19 0-.14-.2l.13-.67.16-.86.16-.84.1-.46v-.04h-1.4q-.07-.01-.1.05l-.57.8-.72 1-.55.78-.24.34a.1.1 0 01-.1.05l-1 .01H5.78l-1.72.02-.54.01q-.06 0-.12-.04zm8.79-5.9l.02-.09.28-1.06.05-.23-1.43 2.52.78.04.05-.2z" fill="#33715B"/><path d="M30.79 8.83h3.96v3.93h-3.96z" fill="#fff"/><path d="M32.13 9.75l1.62-.01h.8q.12-.01.2.1l.01.22-.04.26-.08.53-.07.48-.08.6-.04.26a.2.2 0 01-.21.19l-1.89.01h-.2l-.02-.03a1.2 1.2 0 01-.75-.39 1.2 1.2 0 01-.33-1.2q.21-.82 1.05-1zm.93.7c-.26.3-.16.62.22.7l.05.01q.08 0 .14.03.05.02.06.05a.1.1 0 01-.04.08l-.1.04a.5.5 0 01-.31-.09l-.12-.1-.21.39a1 1 0 00.43.17l-.04.23h.31l.02-.17q0-.07.06-.08a.6.6 0 00.45-.38q.15-.4-.28-.5l-.23-.05q-.04-.01-.08-.06l.07-.08q.03-.03.07-.02a.5.5 0 01.33.12l.22-.38-.36-.12.05-.2h-.33l-.02.16q0 .07-.08.1-.14.06-.28.15" fill="#33715B"/><path d="M17.69 16.69h2.62v2.12h-2.62z" fill="#fff"/><path d="M18.56 18.83a1 1 0 01-.4-.23 1 1 0 01-.2-.43.7.7 0 01.06-.43.7.7 0 01.57-.44.8.8 0 01.77.24q.17.17.2.42a.8.8 0 01-.19.62.7.7 0 01-.42.24zm.47-.5a.4.4 0 00.01-.54.4.4 0 00-.57 0c-.17.18-.13.41.01.57a.37.37 0 00.55-.02" fill="#33715B"/><path d="M25.55 16.69h2.62v2.12h-2.62z" fill="#fff"/><path d="M26.22 18.83a1 1 0 01-.4-.23 1 1 0 01-.21-.48c-.04-.43.25-.74.63-.81a.8.8 0 01.73.19c.32.26.3.79.06 1.07a1 1 0 01-.42.25zm-.02-1.1c-.12.07-.22.24-.18.4q.07.25.3.32a.4.4 0 00.39-.13c.12-.13.14-.34.04-.47-.13-.17-.34-.24-.55-.12" fill="#33715B"/><path d="M20.31 16.69h2.62v2.12H20.3z" fill="#fff"/><path d="M21.91 18.83q-.14-.03-.24-.1a.4.4 0 01-.24-.38v-1.01h.38v.89q-.01.13.1.22c.2.1.38 0 .38-.23v-.88h.4v.89l-.06.29c-.07.2-.23.27-.43.3z" fill="#33715B"/><path d="M16.38 16.69h1.31v2.12h-1.31z" fill="#fff"/><path d="M16.79 18.83l-.34-.14q-.03-.03-.02-.06l.14-.28.22.12a.2.2 0 00.22 0q.13-.09.03-.18-.07-.05-.16-.08l-.27-.11q-.06-.03-.09-.08c-.16-.3.02-.72.42-.72q.26 0 .5.12l-.15.3-.21-.1q-.1-.01-.18.05c-.05.04-.02.14.06.17l.32.12c.14.05.24.26.2.42q-.02.15-.12.29a1 1 0 01-.3.15z" fill="#33715B"/><path d="M29.48 16.69h2.62v2.12h-2.62z" fill="#fff"/><path d="M30.12 18.83l-.31-.13q-.04 0-.07-.04l.16-.3q.15.08.32.13.12.03.19-.08.05-.1-.1-.17l-.27-.1q-.23-.07-.23-.32a.5.5 0 01.14-.4.5.5 0 01.27-.12 1 1 0 01.55.12l-.15.3-.2-.09q-.1-.02-.17.04-.09.09.03.15l.27.1c.25.1.3.26.27.48q-.07.36-.43.42zM28 9.74l.1-.56.06-.45.09-.54.06-.45.16-1 .09-.56.06-.45c.01-.1.02-.11.12-.12h1.31l1.91-.03h.33q.12-.02.08.1l-.15.96-.07.45-.11.65-.08.52-.09.55-.08.53-.06.4-.54.02h-3.1z" fill="#33715B"/><path d="M20.31 5.5h6.55v4.64H20.3z" fill="#fff"/><path d="M22.36 9.76l.15-1.24.2-1.5.13-1.02v-.05a7 7 0 00-1.67-.4h5.27q.15 0 .11.14l-.1.63-.12.73-.1.65-.16 1.03-.1.65-.06.36-.1.02zm3.14 2.63l-.1.58-.08.55-.08.5-.08.46-.16 1.06-.1.57q0 .08-.1.08h-5.65l.82-.09q.65-.07 1.26-.28.07-.02.09-.1l.5-2.79.12-.54.09-.02h3.38zm5.81 0l-.13.9-.16.92-.1.74-.14.83-.05.33q0 .03-.06.05h-3.55c-.1 0-.1 0-.08-.1l.1-.75q.08-.37.13-.73l.08-.55.1-.65.15-.98q.11-.03.23-.02h3.39z" fill="#33715B"/><path d="M21.9 12.39q-.3.34-.72.52-.53.23-1.1.22a2.5 2.5 0 01-1.55-.58 2 2 0 01-.76-1.34 2 2 0 01.36-1.5 2.3 2.3 0 011.46-.95 2.4 2.4 0 012.12.49q.23.21.45.45l.04.05h-.93a1 1 0 00-.49.1 1.3 1.3 0 00-.8 1.37 1.3 1.3 0 00.5.9q.34.25.77.26h.61z" fill="#BFD2C9"/><path d="M25.5 12.39l-.1-.01-.98-.01-.09-.04a1 1 0 01-.57-.32 1.3 1.3 0 01-.38-1.13 1.3 1.3 0 01.97-1.09l.05-.03h1.41l.1-.01h.26l-.03.02a1.3 1.3 0 00-.8.5 1.2 1.2 0 00-.27.91q.02.26.14.48.31.58.95.7.02 0 .03.03z" fill="#87AB9C"/><path d="M29.5 12.38l-1.67-.01-.05-.03a1.3 1.3 0 01-.74-.48 1.2 1.2 0 01-.26-.94 1.3 1.3 0 01.5-.9q.27-.2.59-.25l.03-.02h.2l1.38.01-.08.04a1.3 1.3 0 00-.65.45q-.3.39-.28.88.02.47.34.82.26.3.64.39z" fill="#62917E"/><path d="M26.2 12.39l-.04-.03a1.3 1.3 0 01-.95-.7 1 1 0 01-.14-.48 1.2 1.2 0 01.27-.92q.31-.4.8-.49l.04-.02h.85v.02a1.3 1.3 0 00-1.1 1.18q-.05.39.14.73a1.3 1.3 0 00.94.68l.05.03z" fill="#79A191"/><path d="M31.32 12.39l-.1-.02-.07-.03a1.3 1.3 0 01-.64-.4 1.3 1.3 0 01-.34-1c.03-.3.17-.6.39-.81a1.4 1.4 0 01.58-.34q.03 0 .05-.03l.54-.01h.4l-.03.02q-.85.19-1.05 1a1.2 1.2 0 00.33 1.2q.3.32.75.4l.01.01h-.74z" fill="#457D68"/><path d="M27.06 12.39l-.05-.03a1.3 1.3 0 01-.94-.68 1.3 1.3 0 01-.15-.73 1.3 1.3 0 01.53-.95q.26-.18.57-.23l.02-.02h.86l-.03.02a1 1 0 00-.58.25 1.3 1.3 0 00-.5.9 1.2 1.2 0 00.25.94q.29.38.74.48.03 0 .04.03l-.22.02z" fill="#6F9B89"/><path d="M21.91 12.39l-.05-.02-.02-.02a1.2 1.2 0 01-.73-.45 1.3 1.3 0 01-.28-1.01q.12-.78.85-1.06l.17-.07h.83q0 .02-.02.03a1.3 1.3 0 00-.69.43 1.3 1.3 0 00-.28 1.1q.18.8.96 1.02.03 0 .05.04h-.77z" fill="#AAC4B9"/><path d="M7.21 16.69h3.93v2.12H7.21z" fill="#fff"/><path d="M8.64 18.58l-.04.21h-.39l.25-1.45h.38l.29.74.3-.75h.38l.22 1.46h-.39l-.1-.8-.34.8c-.16.01-.15.01-.21-.13l-.27-.68zm20.38.22c-.2.05-.28-.1-.38-.23l-.45-.59-.04-.03v.84h-.4v-1.46h.38l.03.02.32.43.33.4v-.84h.4v1.45z" fill="#33715B"/><path d="M11.14 16.69h2.62v2.12h-2.62z" fill="#fff"/><path d="M13.05 18.79l-.37-.46-.3-.4v.86h-.39v-1.46h.36q.06.03.11.12.3.36.56.73l.03.01v-.85h.38v1.45zm-8.21-.14l.46-1.2c.04-.12.04-.12.16-.12h.25q.04.01.07.05l.38 1 .15.42h-.36q-.07 0-.08-.07l-.07-.2h-.46l-.05.04-.07.16q0 .08-.08.07h-.36zm.84-.45l-.13-.4-.14.44h.25z" fill="#33715B"/><path d="M3.38 16.69h1.21v2.12H3.38z" fill="#fff"/><path d="M4.2 17.36c.3.08.36.34.32.58q-.02.21-.2.3-.13.06-.28.07l-.23.01v.47h-.38v-1.46h.43q.18 0 .35.03m-.4.44v.2h.17a.16.16 0 00.16-.17q-.01-.14-.14-.17h-.18zm6.74.55v-1.01h.82v.33h-.44v.21h.41v.34h-.4v.23h.43v.34h-.82zm-3.66-.96l.23.33.3-.39h.43l-.24.36-.29.39-.01.09-.01.62h-.38v-.55q0-.17-.11-.3l-.4-.56-.02-.05h.44z" fill="#33715B"/><path d="M13.76 16.69h1.31v2.12h-1.3z" fill="#fff"/><path d="M14.63 18.18v.61h-.38v-1.12h-.3v-.33h.98v.33h-.3z" fill="#33715B"/><path d="M22.93 16.69h1.3v2.12h-1.3z" fill="#fff"/><path d="M24.18 17.43v.24h-.3v1.12h-.39v-1.11h-.3v-.34h1zm-4.08 1.03v-1.12h.39v1.11h.44v.34h-.83z" fill="#33715B"/><path d="M24.24 16.69h1.3v2.12h-1.3z" fill="#fff"/><path d="M24.69 18.41v-1.07h.38v1.45h-.38z" fill="#33715B"/><path d="M12.19 10.14l-.25.97-.05.2-.78-.04 1.42-2.52h.01l-.05.23-.27 1.06zm20.88.3l.27-.15q.06-.02.08-.09l.02-.17h.33l-.05.21.36.12-.22.38a.5.5 0 00-.33-.12l-.07.02-.07.08.08.06.23.04q.41.1.28.51a.6.6 0 01-.45.38q-.06.01-.06.08l-.02.17h-.31l.04-.23a1 1 0 01-.43-.17l.2-.39.13.1a.5.5 0 00.31.09l.1-.04.04-.08q0-.02-.06-.05l-.14-.03h-.05c-.38-.1-.48-.41-.21-.71m-14.03 7.89a.4.4 0 01-.43.1l-.13-.1c-.14-.15-.18-.38 0-.55a.4.4 0 01.56 0 .4.4 0 010 .55m7.16-.61c.21-.12.42-.05.55.12.1.13.08.34-.05.47a.4.4 0 01-.38.13q-.23-.06-.3-.31a.4.4 0 01.19-.41" fill="#fff"/><path d="M29.5 12.38l-.05-.04a1.3 1.3 0 01-.64-.4 1.3 1.3 0 01-.34-.81 1.3 1.3 0 01.28-.88 1.3 1.3 0 01.65-.45l.08-.04h.86q0 .03-.03.03a1.32 1.32 0 00-.9 1.74 1.3 1.3 0 00.89.8l.06.04z" fill="#568874"/><path d="M30.37 12.38l-.08-.05a1.3 1.3 0 01-.6-.35 1.32 1.32 0 01.62-2.2l.04-.02h.83l-.04.03a1.3 1.3 0 00-.97 1.15 1.3 1.3 0 00.33 1q.27.3.64.4l.06.03z" fill="#4D826E"/><path d="M22.71 12.38q-.03-.04-.06-.04a1.3 1.3 0 01-.96-1.02 1.3 1.3 0 01.28-1.1q.28-.33.7-.43l.02-.03h.85l-.07.04a1.3 1.3 0 00-.68.46 1.3 1.3 0 00-.27.84q0 .35.19.66.28.45.79.58.03 0 .05.04z" fill="#A0BCB0"/><path d="M23.56 12.38q-.04-.04-.06-.04a1.3 1.3 0 01-.8-.58 1.3 1.3 0 01-.18-.66q-.02-.46.27-.84a1.3 1.3 0 01.68-.46l.08-.04h.84l-.04.03a1.31 1.31 0 00-.59 2.22q.25.24.57.32l.08.04z" fill="#95B5A8"/><path d="M21.83 9.76l-.15.07q-.73.28-.85 1.06a1.3 1.3 0 00.28 1.01q.28.35.73.45l.02.02h-.6q-.44 0-.78-.25a1.3 1.3 0 01-.5-.9 1.3 1.3 0 01.8-1.37 1 1 0 01.48-.1z" fill="#B5CBC1"/><path d="M5.68 18.2l-.02.04h-.25l.14-.43zm-1.88-.4v-.12l.01-.03.18.01c.08 0 .14.1.14.17a.16.16 0 01-.16.16h-.16z" fill="#fff"/></svg>
