<svg xmlns="http://www.w3.org/2000/svg" viewBox="0 0 38 24" width="38" height="24" role="img" aria-labelledby="pi-orangemobilemoney"><title id="pi-orangemobilemoney">Orange Mobile Money</title><path d="M35 0H3C1.3 0 0 1.3 0 3v18c0 1.7 1.4 3 3 3h32c1.7 0 3-1.3 3-3V3c0-1.7-1.4-3-3-3z" style="isolation:isolate" opacity=".07"/><path d="M35 1c1.1 0 2 .9 2 2v18c0 1.1-.9 2-2 2H3c-1.1 0-2-.9-2-2V3c0-1.1.9-2 2-2h32" fill="#fff"/><path d="M16.84 6.84H9.45c-.83 0-1.5.67-1.5 1.5s.67 1.5 1.5 1.5h3.77L7.16 15.9a1.49 1.49 0 000 2.12c.59.59 1.54.59 2.12 0l6.06-6.06v3.77c0 .83.67 1.5 1.5 1.5s1.5-.67 1.5-1.5V8.34c0-.83-.67-1.5-1.5-1.5z" fill-rule="evenodd"/><path d="M21.16 17.16h7.39c.83 0 1.5-.67 1.5-1.5s-.67-1.5-1.5-1.5h-3.77l6.06-6.06c.59-.59.59-1.54 0-2.12a1.49 1.49 0 00-2.12 0l-6.06 6.06V8.27c0-.83-.67-1.5-1.5-1.5s-1.5.67-1.5 1.5v7.39c0 .83.67 1.5 1.5 1.5z" fill="#ff690d" fill-rule="evenodd"/></svg>