<svg xmlns="http://www.w3.org/2000/svg" role="img" viewBox="0 0 38 24" width="38" height="24" aria-labelledby="pi-otpbank"><title id="pi-otpbank">OTP Bank</title><path d="M35 0H3C1.3 0 0 1.3 0 3v18c0 1.7 1.4 3 3 3h32c1.7 0 3-1.3 3-3V3c0-1.7-1.4-3-3-3z" fill="#000" fill-rule="nonzero" opacity=".07"/><path d="M35 1c1.1 0 2 .9 2 2v18c0 1.1-.9 2-2 2H3c-1.1 0-2-.9-2-2V3c0-1.1.9-2 2-2h32" fill="#FFF" fill-rule="nonzero"/><path d="M13.01 11.331c-.303 0-.645.154-.843 1.091-.22 1.043.219 1.11.431 1.11.193 0 .604-.105.809-1.104.143-.698.03-1.097-.397-1.097m1.503 1.097c-.277 1.578-1.259 1.78-2.09 1.78-.82 0-1.577-.566-1.363-1.788.167-.955.734-1.838 2.113-1.771.962.047 1.528.706 1.34 1.78M16.607 14.072l-.052.052c-.206.038-.448.07-.579.07-.486 0-1.199-.073-.897-1.299.204-.828.35-1.448.35-1.448l-.45.013-.039-.052.187-.65.045-.032h.424l.187-.83.045-.045c.483-.11.611-.142 1.055-.27l.04.038-.284 1.12.656-.013.026.045c-.09.27-.116.341-.2.644l-.05.045-.593-.013-.288 1.195c-.182.751-.087.713.095.785.156.061.36-.017.476-.056l.039.032-.193.67zM18.414 13.429c.305.036.637-.064.862-.251.258-.219.49-.67.49-1.158 0-.54-.348-.605-.477-.605-.186 0-.328.096-.463.186l-.412 1.828zm.521-2.465c.168-.116.444-.309.863-.309.643 0 1.074.483 1.074 1.3a2.3 2.3 0 01-.495 1.416c-.637.779-1.442.772-2.124.772l-.366 1.538-.045.032c-.148 0-.29-.006-.438-.006-.219 0-.412.013-.65.02l-.032-.046s.227-.682.509-1.854c.296-1.23.573-2.672.597-2.966l.045-.045 1.1-.18.04.045-.078.283z" fill="#006B3F"/><path d="M21.716 13.628c.364.017.9.007 1.319-.276.476-.329.701-.901.701-1.313 0-.586-.354-.81-.766-.81-.328 0-.56.14-.765.27 0 0-.45 1.971-.49 2.13zm-.786.47c.043-.195.32-1.338.604-2.624.243-1.103.412-1.791.471-2.305l.052-.045.701-.122.032.045-.18.714-.296 1.235c.27-.148.528-.29.94-.29.636 0 1.17.432 1.17 1.243 0 .328-.102.946-.534 1.441-.579.663-1.293.708-2.123.74h-.354l-.45.007-.033-.039zM27.399 11.267c-.097 0-.194-.007-.29-.007-.212 0-.63.013-1.01.27-.676.464-.689 1.294-.689 1.326 0 .31.167.805.753.805.174 0 .461-.041.772-.316l.464-2.078zm.476.817a27.21 27.21 0 00-.4 2.001l-.044.045-.605.013-.032-.045.045-.257c-.11.09-.393.328-.94.328-.656 0-1.19-.463-1.19-1.268 0-.508.244-1.062.514-1.383.599-.702 1.43-.74 2.021-.74l.888.006.032.052-.29 1.248zM31.061 14.092l-.051.038-.656.02-.026-.045c.094-.434.49-1.885.495-2.336.004-.386-.238-.515-.54-.515-.4 0-.663.2-.856.341-.238 1.081-.315 1.422-.521 2.497l-.045.038-.657.02-.032-.045s.195-.788.372-1.607c.138-.641.251-1.17.304-1.61l.045-.046c.302-.039.373-.051.682-.116l.032.045-.09.328c.25-.167.573-.392 1.107-.392.212 0 .907.058.907.836 0 .466-.407 2.094-.47 2.549M33.52 12.172l.997 1.899-.038.051-.715.02-.051-.039c-.167-.452-.894-1.873-.894-1.873-.187.818-.226 1.01-.387 1.86l-.045.039-.65.013-.025-.039s.343-1.427.64-2.748c.14-.617.355-1.595.44-2.188l.046-.038.701-.116.039.045c-.13.445-.74 3.082-.74 3.082.461-.404 1.229-1.21 1.332-1.319l.07-.038h.74l.02.057c-.183.145-.521.45-.644.56l-.836.772z" fill="#50B748"/><path d="M3 12.178A3.178 3.178 0 016.175 9v1.149a2.03 2.03 0 102.033 2.022h1.149A3.178 3.178 0 113 12.178" fill="#006B3F"/><path d="M4.776 12.178a1.41 1.41 0 112.82 0 1.41 1.41 0 01-2.82 0" fill="#50B748"/><path d="M7.164 10.392a.808.808 0 111.616 0 .808.808 0 01-1.616 0" fill="#006B3F"/></svg>
