<svg xmlns="http://www.w3.org/2000/svg" role="img" viewBox="0 0 38 24" width="38" height="24" aria-labelledby="pi-oxxo"><title id="pi-oxxo">OXXO</title><path fill="#000" opacity=".07" d="M35 0H3C1.3 0 0 1.3 0 3v18c0 1.7 1.4 3 3 3h32c1.7 0 3-1.3 3-3V3c0-1.7-1.4-3-3-3z"/><path fill="#fff" d="M35 1c1.1 0 2 .9 2 2v18c0 1.1-.9 2-2 2H3c-1.1 0-2-.9-2-2V3c0-1.1.9-2 2-2h32"/><rect x="1" y="1" width="36" height="22" rx="2" fill="#fff"/><path d="M2 4.402C2 3.076 2.913 2 4.04 2h29.92c.27.001.535.065.783.186.248.122.474.299.663.522.19.223.34.487.441.778.102.29.154.602.153.916v15.196C36 20.924 35.087 22 33.96 22H4.04a1.8 1.8 0 01-.783-.186 2.064 2.064 0 01-.663-.522 2.456 2.456 0 01-.441-.778A2.745 2.745 0 012 19.598V4.402z" fill="#fff"/><path d="M2 4.201C2 2.987 2.842 2 3.871 2H34.12C35.158 2 36 2.986 36 4.201v.073H2v-.073zm34 15.546v.052C36 21.014 35.158 22 34.12 22H3.87C2.841 22 2 21.014 2 19.799v-.052h34z" fill="#FBB110"/><path d="M25.52 11.972c0 2.754 2.121 4.977 4.743 4.977 2.622 0 4.744-2.233 4.744-4.977s-2.13-4.977-4.744-4.977c-2.613 0-4.743 2.233-4.743 4.977zm-22.643 0c0 2.754 2.13 4.977 4.752 4.977 2.623 0 4.744-2.233 4.744-4.977s-2.13-4.977-4.744-4.977c-2.613 0-4.752 2.224-4.752 4.977zm33.105 6.019H12.57c.42-.307.814-.735 1.244-1.312l2.38-3.19 1.038 1.376 1.155-1.619-1.011-1.348L19.8 8.65c.77-1.032-.707-2.242-1.477-1.21l-2.148 2.875-2.183-2.911c-.77-1.024-2.247.186-1.468 1.218l2.461 3.284-2.667 3.572c-.949 1.265-1.897 2.428-3.768 2.521H2V6.01h23.287c-.403.306-.778.716-1.19 1.264l-2.38 3.191-1.039-1.377-1.154 1.619 1.01 1.349-2.424 3.246c-.77 1.033.707 2.242 1.476 1.21l2.148-2.875 2.184 2.912c.77 1.032 2.246-.186 1.468-1.219l-2.462-3.284 2.668-3.572C26.46 7.312 27.328 6.233 28.92 6H36v11.981l-.018.01zm-8.556-6.019c0-1.646 1.271-2.986 2.846-2.986 1.575 0 2.837 1.33 2.837 2.986 0 1.656-1.27 2.977-2.837 2.977-1.566 0-2.846-1.33-2.846-2.977zm-22.634 0c0-1.646 1.271-2.986 2.846-2.986 1.575 0 2.837 1.33 2.837 2.986 0 1.656-1.27 2.977-2.837 2.977-1.566 0-2.846-1.33-2.846-2.977" fill="#E70020"/></svg>