<svg xmlns="http://www.w3.org/2000/svg" role="img" viewBox="0 0 38 24" width="38" height="24" aria-labelledby="pi-paybybankus"><title id="pi-paybybankus">Pay by Bank</title><path fill="#000" opacity=".07" d="M35 0H3C1.3 0 0 1.3 0 3v18c0 1.7 1.4 3 3 3h32c1.7 0 3-1.3 3-3V3c0-1.7-1.4-3-3-3z"/><path fill="#fff" d="M35 1c1.1 0 2 .9 2 2v18c0 1.1-.9 2-2 2H3c-1.1 0-2-.9-2-2V3c0-1.1.9-2 2-2h32"/><path d="M32 7.9H6a4.1 4.1 0 100 8.2h26a4.1 4.1 0 100-8.2z" fill="#E2FF62" stroke="#E2FF62" stroke-width=".2"/><path d="M4.82 14v-3.637h1.296c.282 0 .517.052.703.155.185.103.325.244.417.422.092.178.138.378.138.6 0 .224-.046.426-.14.604a1.015 1.015 0 01-.419.423c-.186.103-.42.154-.701.154h-.892v-.465h.842c.179 0 .324-.03.435-.092a.58.58 0 00.245-.256.834.834 0 00.078-.367.822.822 0 00-.078-.366.56.56 0 00-.247-.25.923.923 0 00-.44-.091h-.689V14h-.549zm3.924.06c-.173 0-.329-.032-.469-.096a.79.79 0 01-.332-.282.81.81 0 01-.12-.453c0-.154.03-.28.088-.38.06-.1.14-.178.24-.236.1-.058.213-.102.338-.131.124-.03.25-.052.38-.068l.397-.046a.586.586 0 00.222-.062c.046-.029.07-.075.07-.139v-.012a.48.48 0 00-.132-.36c-.086-.086-.215-.128-.387-.128-.179 0-.32.04-.423.119a.636.636 0 00-.21.26l-.5-.113a.96.96 0 01.26-.401c.114-.103.246-.178.395-.224a1.547 1.547 0 01.817-.032c.123.025.238.071.345.139a.765.765 0 01.264.289.998.998 0 01.103.485v1.81h-.518v-.372H9.55a.753.753 0 01-.154.202.82.82 0 01-.265.165 1.026 1.026 0 01-.387.066zm.116-.426a.763.763 0 00.376-.087.61.61 0 00.323-.531v-.351a.276.276 0 01-.11.053 1.724 1.724 0 01-.183.04 24.594 24.594 0 01-.364.052 1.314 1.314 0 00-.282.066.484.484 0 00-.202.133.333.333 0 00-.075.227c0 .132.048.231.146.298.097.067.22.1.37.1zm2.175 1.388a1.11 1.11 0 01-.362-.058l.128-.435a.857.857 0 00.259.034.31.31 0 00.2-.086.656.656 0 00.157-.26l.066-.182-.998-2.763h.568l.69 2.117h.029l.69-2.117h.57l-1.123 3.092a1.233 1.233 0 01-.2.36.772.772 0 01-.287.224.941.941 0 01-.387.074zM14.897 14v-3.637h.531v1.351h.032c.031-.056.075-.122.133-.197a.755.755 0 01.242-.195.845.845 0 01.408-.085c.22 0 .417.056.59.167.173.111.308.271.406.481.1.21.15.462.15.756 0 .295-.05.548-.148.759a1.15 1.15 0 01-.405.484 1.049 1.049 0 01-.587.169.868.868 0 01-.407-.084.769.769 0 01-.245-.195 1.482 1.482 0 01-.137-.199h-.044V14h-.519zm.52-1.364c0 .192.028.36.084.504a.766.766 0 00.242.34c.105.08.234.12.387.12a.622.622 0 00.397-.126.782.782 0 00.242-.346 1.37 1.37 0 00.083-.492c0-.18-.027-.341-.081-.485a.743.743 0 00-.242-.339.63.63 0 00-.4-.124.636.636 0 00-.39.119.73.73 0 00-.24.332 1.384 1.384 0 00-.081.497zm2.81 2.386a1.11 1.11 0 01-.362-.058l.128-.435a.857.857 0 00.26.034.31.31 0 00.2-.086.656.656 0 00.156-.26l.066-.182-.998-2.763h.568l.691 2.117h.028l.691-2.117h.57l-1.124 3.092a1.233 1.233 0 01-.199.36.771.771 0 01-.287.224.941.941 0 01-.387.074zM22.09 14v-3.637h1.332c.258 0 .471.043.64.128a.874.874 0 01.506.828c0 .151-.027.279-.083.383a.687.687 0 01-.224.249.988.988 0 01-.305.135v.035c.12.006.239.045.353.117a.837.837 0 01.288.304.945.945 0 01.114.48.964.964 0 01-.132.5.896.896 0 01-.401.35c-.181.085-.413.128-.694.128H22.09zm.549-.47h.791c.263 0 .451-.052.565-.153a.491.491 0 00.17-.382.599.599 0 00-.335-.545.797.797 0 00-.38-.086h-.811v1.165zm0-1.593h.735a.756.756 0 00.332-.071.583.583 0 00.236-.2.528.528 0 00.088-.305.505.505 0 00-.158-.378c-.105-.102-.266-.153-.484-.153h-.75v1.107zm3.473 2.123c-.172 0-.329-.032-.468-.096a.79.79 0 01-.332-.282.81.81 0 01-.121-.453c0-.154.03-.28.089-.38.059-.1.139-.178.24-.236.1-.058.212-.102.337-.131.124-.03.25-.052.38-.068l.397-.046a.585.585 0 00.222-.062c.046-.029.07-.075.07-.139v-.012a.48.48 0 00-.132-.36c-.086-.086-.215-.128-.387-.128-.179 0-.32.04-.422.119a.636.636 0 00-.212.26l-.499-.113a.96.96 0 01.26-.401c.114-.103.246-.178.396-.224a1.547 1.547 0 01.816-.032c.123.025.238.071.345.139a.766.766 0 01.264.289.999.999 0 01.103.485v1.81h-.518v-.372h-.021a.752.752 0 01-.155.202.82.82 0 01-.264.165 1.027 1.027 0 01-.388.066zm.116-.426a.763.763 0 00.376-.087.608.608 0 00.323-.531v-.351a.277.277 0 01-.11.053 1.723 1.723 0 01-.183.04 24.855 24.855 0 01-.364.052 1.313 1.313 0 00-.282.066.483.483 0 00-.202.133.333.333 0 00-.075.227c0 .132.049.231.146.298.097.067.22.1.37.1zm2.468-1.254V14h-.53v-2.728h.509v.444h.034a.78.78 0 01.294-.348.918.918 0 01.51-.131c.186 0 .349.039.488.117.14.077.248.192.325.345.077.152.116.341.116.566V14h-.531v-1.671c0-.198-.052-.352-.155-.463a.547.547 0 00-.424-.17.664.664 0 00-.329.08.575.575 0 00-.225.235.773.773 0 00-.082.37zm2.946.695l-.004-.648h.093l1.086-1.155h.636l-1.24 1.314h-.083l-.488.489zm-.488.925v-3.637h.53V14h-.53zm1.722 0l-.977-1.296.366-.372L33.528 14h-.652z" fill="#18193F"/></svg>