<svg viewBox="0 0 38 24" xmlns="http://www.w3.org/2000/svg" role="img" width="38" height="24" aria-labelledby="pi-paybybankmollie"><title id="pi-paybybankmollie">Pay by Bank</title><path opacity=".07" d="M35 0H3C1.3 0 0 1.3 0 3v18c0 1.7 1.4 3 3 3h32c1.7 0 3-1.3 3-3V3c0-1.7-1.4-3-3-3z"/><path fill="#fff" d="M35 1c1.1 0 2 .9 2 2v18c0 1.1-.9 2-2 2H3c-1.1 0-2-.9-2-2V3c0-1.1.9-2 2-2h32"/><path d="M1 3a2 2 0 012-2h32a2 2 0 012 2v18a2 2 0 01-2 2H3a2 2 0 01-2-2V3z" fill="#fff"/><path fill-rule="evenodd" clip-rule="evenodd" d="M12.397 7.763a.868.868 0 00-.303.24.542.542 0 00.08.704c.117.112.279.168.485.168h12.682c.21 0 .372-.056.484-.167A.542.542 0 0026 8.313a.505.505 0 00-.1-.31.81.81 0 00-.29-.24l-5.742-3.04A1.873 1.873 0 0019 4.5c-.291 0-.578.074-.86.222l-5.743 3.04zm3.183-.2h6.847L19.26 5.886a.563.563 0 00-.26-.074.525.525 0 00-.249.072L15.58 7.562z" fill="#0040FF"/><path d="M14.406 10.188h1.313v5.687h-1.313v-5.688z" fill="#0040FF"/><path d="M13.75 10.713c0-.248 0-.372.077-.449.077-.076.2-.076.448-.076h1.575c.247 0 .371 0 .448.076.077.077.077.201.077.449v.262c0 .247 0 .371-.077.448-.077.077-.2.077-.448.077h-1.575c-.248 0-.371 0-.448-.077-.077-.077-.077-.2-.077-.448v-.262zM13.75 15.088c0-.248 0-.372.077-.449.077-.076.2-.076.448-.076h1.575c.247 0 .371 0 .448.076.077.077.077.201.077.449v.262c0 .247 0 .371-.077.448-.077.077-.2.077-.448.077h-1.575c-.248 0-.371 0-.448-.077-.077-.077-.077-.2-.077-.448v-.262zM18.344 10.188h1.312v5.687h-1.312v-5.688z" fill="#0040FF"/><path d="M17.688 10.713c0-.248 0-.372.076-.449.077-.076.201-.076.448-.076h1.576c.247 0 .37 0 .448.076.076.077.076.201.076.449v.262c0 .247 0 .371-.076.448-.077.077-.201.077-.448.077h-1.576c-.247 0-.37 0-.448-.077-.076-.077-.076-.2-.076-.448v-.262zM17.688 15.088c0-.248 0-.372.076-.449.077-.076.201-.076.448-.076h1.576c.247 0 .37 0 .448.076.076.077.076.201.076.449v.262c0 .247 0 .371-.076.448-.077.077-.201.077-.448.077h-1.576c-.247 0-.37 0-.448-.077-.076-.077-.076-.2-.076-.448v-.262zM22.281 10.188h1.313v5.687H22.28v-5.688z" fill="#0040FF"/><path d="M21.625 10.713c0-.248 0-.372.077-.449.077-.076.2-.076.448-.076h1.575c.247 0 .371 0 .448.076.077.077.077.201.077.449v.262c0 .247 0 .371-.077.448-.077.077-.2.077-.448.077H22.15c-.247 0-.371 0-.448-.077-.077-.077-.077-.2-.077-.448v-.262zM21.625 15.093c0-.247 0-.37.077-.448.077-.077.2-.077.448-.077h1.575c.247 0 .371 0 .448.077.077.077.077.2.077.448v.263c0 .247 0 .371-.077.448-.077.077-.2.077-.448.077H22.15c-.247 0-.371 0-.448-.077-.077-.077-.077-.2-.077-.448v-.263zM12 17.844c0-.363.294-.657.656-.657h12.688a.656.656 0 010 1.313H12.656a.656.656 0 01-.656-.656z" fill="#0040FF"/></svg>
