<svg xmlns="http://www.w3.org/2000/svg" role="img" viewBox="0 0 38 24" width="38" height="24" aria-labelledby="pi-paycash"><title id="pi-paycash">PayCash</title><g clip-path="url(#pi-paycash-a)"><path opacity=".07" d="M35 0H3C1.3 0 0 1.3 0 3v18c0 1.7 1.4 3 3 3h32c1.7 0 3-1.3 3-3V3c0-1.7-1.4-3-3-3Z" fill="#000"/><path d="M35 1c1.1 0 2 .9 2 2v18c0 1.1-.9 2-2 2H3c-1.1 0-2-.9-2-2V3c0-1.1.9-2 2-2h32Z" fill="#fff"/><path fill-rule="evenodd" clip-rule="evenodd" d="M6.828 8.508a3.8 3.8 0 0 0-.833-.086L3.6 8.427l-1.224 5.987 1.307-.002.444-2.144 1.624-.004c.302 0 .602-.048.888-.145.279-.095.526-.233.74-.412a1.938 1.938 0 0 0 .695-1.545c0-.33-.053-.606-.157-.83a1.335 1.335 0 0 0-.432-.536 1.788 1.788 0 0 0-.657-.288Zm-.351 2.476c-.192.171-.456.256-.79.257l-1.34.004.364-1.796 1.121-.002c.114 0 .228.01.34.033.105.02.205.058.297.112.09.054.165.132.214.225a.773.773 0 0 1 .08.373c.002.357-.095.623-.286.794ZM8.74 10.273a1.545 1.545 0 0 0-.466.439 1.514 1.514 0 0 0-.248.681l1.108-.004a.673.673 0 0 1 .307-.48 1.06 1.06 0 0 1 .567-.155c.082 0 .165.007.246.02a.762.762 0 0 1 .243.078.547.547 0 0 1 .187.158.437.437 0 0 1 .076.266c0 .14-.033.244-.1.312a.64.64 0 0 1-.304.16 3.051 3.051 0 0 1-.513.08c-.207.017-.449.043-.727.077-.524.062-.928.219-1.214.47-.285.25-.428.583-.427 1 0 .147.028.292.084.428a.95.95 0 0 0 .26.358c.129.109.278.192.438.245.198.064.405.095.613.09.248 0 .494-.045.726-.132.233-.086.43-.222.592-.406v.425l1.186-.002a.868.868 0 0 1-.042-.25c0-.099.004-.197.011-.296.006-.097.021-.194.046-.288l.378-1.734c.06-.278.09-.52.09-.725.006-.244-.049-.44-.164-.586a1.135 1.135 0 0 0-.437-.34 2.006 2.006 0 0 0-.583-.161 4.77 4.77 0 0 0-.608-.04 3.65 3.65 0 0 0-.709.072 1.998 1.998 0 0 0-.616.24Zm.783 2.253c.173-.011.346-.026.518-.046.172-.02.334-.074.484-.165l-.117.418a3.128 3.128 0 0 1-.125.35c-.1.238-.285.43-.52.538-.125.058-.28.088-.463.088a.862.862 0 0 1-.456-.12.395.395 0 0 1-.197-.361.577.577 0 0 1 .271-.534.955.955 0 0 1 .28-.113c.105-.025.214-.044.325-.055Z" fill="#00609C"/><path d="M12.868 15.664a1.24 1.24 0 0 0 .35-.28 2.5 2.5 0 0 0 .307-.454l2.73-4.912-1.25.003-1.485 3.085h-.016l-.383-3.08-1.216.003.778 4.26a1.136 1.136 0 0 0-.112.174.949.949 0 0 1-.133.187.691.691 0 0 1-.204.151.76.76 0 0 1-.333.063c-.078 0-.158-.008-.238-.025a1.144 1.144 0 0 0-.237-.025l-.198.988c.106.005.21.013.316.023a3.9 3.9 0 0 0 .887-.022c.152-.022.3-.069.437-.139Z" fill="#00609C"/><path d="M20.213 9.727c-.194-.182-.446-.272-.756-.271a1.592 1.592 0 0 0-.854.227c-.242.15-.44.343-.595.579-.155.237-.27.5-.345.79-.076.29-.113.574-.113.85.002.201.028.392.08.57.052.18.131.339.238.477.106.138.242.247.409.329.165.081.366.12.6.12.333-.003.655-.127.904-.348.119-.106.22-.23.301-.37.08-.136.134-.285.162-.44l1.281-.004c-.13.407-.282.752-.458 1.035a2.712 2.712 0 0 1-.594.689 2.11 2.11 0 0 1-.732.384c-.268.08-.56.119-.876.12-.826.002-1.464-.216-1.913-.654-.45-.438-.675-1.072-.678-1.903-.003-.457.07-.911.217-1.344.146-.423.356-.797.629-1.12.274-.324.607-.58 1-.772.394-.19.836-.287 1.324-.288.337-.001.65.045.938.136a2.1 2.1 0 0 1 .746.408c.21.181.372.405.488.674.114.269.17.58.165.932l-1.277.003c-.001-.358-.099-.629-.291-.81v.001Zm2.005.952c.127-.181.282-.328.465-.439.184-.11.39-.191.617-.239.233-.048.47-.072.708-.072.195-.002.398.012.609.04.21.026.405.08.584.16.177.08.322.194.437.34.113.148.168.342.163.587 0 .205-.03.447-.09.726l-.378 1.732c-.025.094-.04.19-.045.288a4.3 4.3 0 0 0-.012.296c0 .071.014.155.042.25l-1.185.002-.001-.425c-.161.183-.358.32-.592.406-.233.088-.475.13-.725.132a1.891 1.891 0 0 1-.613-.09 1.315 1.315 0 0 1-.439-.244.956.956 0 0 1-.26-.357 1.122 1.122 0 0 1-.083-.429c-.002-.417.141-.75.427-1 .285-.25.69-.407 1.214-.47.277-.034.52-.06.726-.077.173-.012.345-.039.514-.08a.644.644 0 0 0 .303-.159c.067-.069.1-.174.1-.313 0-.11-.025-.2-.076-.266a.55.55 0 0 0-.188-.158.79.79 0 0 0-.241-.078 1.572 1.572 0 0 0-.246-.02c-.211.001-.4.052-.567.155a.673.673 0 0 0-.307.48l-1.108.004c.036-.274.119-.5.247-.682Zm1.766 1.768c-.172.02-.344.035-.518.046-.11.012-.22.03-.325.055a.95.95 0 0 0-.28.113.579.579 0 0 0-.271.534c0 .16.066.282.198.361.131.08.283.12.455.12.184 0 .34-.03.464-.09.235-.108.42-.3.52-.537.05-.117.09-.234.125-.35l.115-.418a1.17 1.17 0 0 1-.483.166Zm4.519-1.585c-.103-.102-.27-.153-.504-.153a1.223 1.223 0 0 0-.52.098.337.337 0 0 0-.204.33c0 .094.04.174.12.241.081.067.222.13.421.19l.592.19c.16.05.31.109.446.174.136.067.256.149.36.245a1.054 1.054 0 0 1 .33.812c.002.266-.058.492-.177.678a1.43 1.43 0 0 1-.47.456 2.11 2.11 0 0 1-.658.252c-.245.05-.492.075-.742.075-.216 0-.431-.021-.643-.064a1.929 1.929 0 0 1-.588-.219c-.173-.1-.32-.24-.43-.407a1.135 1.135 0 0 1-.169-.636v-.174l1.092-.002v.14c0 .1.025.185.076.258.05.07.115.131.196.178a1.24 1.24 0 0 0 .846.116.769.769 0 0 0 .242-.088.535.535 0 0 0 .174-.159.423.423 0 0 0 .066-.246c0-.15-.04-.255-.118-.316a1.056 1.056 0 0 0-.308-.157l-.909-.29a3.22 3.22 0 0 1-.396-.157 1.045 1.045 0 0 1-.292-.207.803.803 0 0 1-.183-.3 1.286 1.286 0 0 1-.064-.433 1.093 1.093 0 0 1 .178-.641 1.41 1.41 0 0 1 .462-.422c.193-.11.403-.19.621-.234.226-.048.44-.073.646-.073.233 0 .458.018.676.057.216.038.407.109.571.21.164.103.294.242.389.42.095.177.14.405.135.682l-1.1.003a.6.6 0 0 0-.164-.427Zm3.44-2.503-.44 2.154h.017c.056-.074.12-.141.192-.201.083-.073.184-.14.3-.203.29-.15.613-.225.94-.221.844-.003 1.266.385 1.269 1.16 0 .044-.006.102-.016.172-.011.07-.024.141-.038.214-.013.072-.028.14-.041.205a2.922 2.922 0 0 0-.03.155l-.53 2.537-1.192.004.523-2.537c.01-.066.026-.156.045-.267.02-.111.03-.198.03-.26 0-.128-.062-.234-.182-.317a.676.676 0 0 0-.39-.125 1.04 1.04 0 0 0-.473.106 1.16 1.16 0 0 0-.351.273c-.098.112-.178.24-.243.385a2.346 2.346 0 0 0-.146.445l-.48 2.301-1.183.003 1.226-5.98 1.193-.003Z" fill="#00CD68"/></g><defs><clipPath id="pi-paycash-a"><path fill="#fff" d="M0 0h38v24H0z"/></clipPath></defs></svg>