<svg xmlns="http://www.w3.org/2000/svg" width="38" height="24" viewBox="0 0 38 24" fill="none" role="img" aria-labelledby="pi-payeverpaybybank"><title id="pi-payeverpaybybank">payever Pay by Bank</title><rect width="38" height="24" fill="#fff" rx="3"/><rect width="37" height="23" x=".5" y=".5" stroke="#000" stroke-opacity=".07" rx="2.5"/><path fill="#000" d="M10.67 17.193l1.187-3.096h.87l-2.492 5.971h-.87l.826-1.975-1.6-3.996h.936zm-5.608-2.492q.213-.295.582-.48.375-.19.833-.19.538 0 .973.257.435.258.686.737.25.472.251 1.084 0 .613-.251 1.099-.251.48-.693.752a1.8 1.8 0 01-.966.266q-.471 0-.84-.185a1.6 1.6 0 01-.575-.472v.59H4.22v-5.456h.84zm16.054-.67q.479 0 .832.192.361.183.576.463v-.59h.847v4.063h-.847v-.604a1.7 1.7 0 01-.583.48 1.8 1.8 0 01-.841.19q-.523 0-.958-.265a2 2 0 01-.694-.752 2.37 2.37 0 01-.25-1.099q0-.61.25-1.083a1.87 1.87 0 011.668-.995m-5.785.67q.215-.295.582-.48.377-.191.834-.192.538 0 .973.26.434.257.686.736.25.472.25 1.083 0 .613-.25 1.099-.251.48-.693.752a1.8 1.8 0 01-.966.266q-.472 0-.84-.185a1.6 1.6 0 01-.576-.472v.59h-.84v-5.456h.84zm17.911 2.434q.222 0 .376.154a.52.52 0 01.156.383q0 .228-.156.384a.51.51 0 01-.376.154.52.52 0 01-.382-.154.52.52 0 01-.155-.384.52.52 0 01.155-.383.52.52 0 01.382-.154m-3.433-1.262l1.474-1.776h1.166l-1.873 2.034 1.873 2.028h-1.135l-1.505-1.748v1.748h-.84v-5.456h.84zm-3.432-1.844q.48 0 .856.2.383.198.596.59.214.39.214.943v2.396h-.833v-2.271q0-.546-.272-.833-.273-.295-.745-.295-.473 0-.752.295-.273.288-.273.833v2.271h-.84v-4.062h.84v.464a1.4 1.4 0 01.524-.391q.325-.14.685-.14m-5.085.732q-.325 0-.604.162a1.2 1.2 0 00-.457.465q-.17.301-.17.721t.17.738q.177.317.457.487a1.21 1.21 0 001.209 0 1.2 1.2 0 00.449-.473q.178-.316.178-.736t-.178-.73a1.187 1.187 0 00-1.054-.634M6.293 14.76q-.317 0-.605.162-.281.162-.457.473-.17.31-.17.729 0 .42.17.737.177.31.457.472a1.22 1.22 0 001.21 0q.287-.17.457-.486.176-.317.176-.738 0-.42-.176-.722a1.13 1.13 0 00-.457-.465 1.2 1.2 0 00-.605-.162m10.27 0q-.318 0-.605.162-.28.162-.457.472-.17.31-.17.729 0 .42.17.737.177.31.457.473a1.21 1.21 0 001.21 0q.286-.17.456-.487.177-.317.177-.738 0-.42-.177-.721a1.13 1.13 0 00-.457-.465 1.2 1.2 0 00-.604-.162"/><path fill="#000" stroke="#000" stroke-linejoin="round" stroke-width=".04" d="M4.53 6.01a.33.33 0 01.345.241l.012.065.005.525q.186-.244.424-.437l.132-.096a1.76 1.76 0 012.218.236l.14.153c.31.368.496.827.527 1.312l.008.234a2.278 2.278 0 01-.378 1.274l-.137.19a1.8 1.8 0 01-.943.635l-.167.037a1.7 1.7 0 01-1.252-.253l-.158-.114a2 2 0 01-.238-.223v-.001c-.062-.066-.116-.14-.175-.214v1.986l-.005.067a.34.34 0 01-.208.277l-.061.018a.342.342 0 01-.417-.333V6.35l.006-.065a.34.34 0 01.322-.276zm9.552.009a.35.35 0 01.229.201l.45 1.006.835 1.87.005.01.142-.313 1.142-2.557.037-.069a.34.34 0 01.431-.125l.059.035a.35.35 0 01.123.162.35.35 0 01.01.203l-.022.064-.47 1.051-1.82 4.078a.4.4 0 01-.164.2l-.086.033a.344.344 0 01-.426-.293.35.35 0 01.028-.192l.377-.846.245-.541.008-.038a.1.1 0 00-.01-.038v-.002L13.686 6.52c-.075-.167-.04-.339.096-.442l.068-.04a.35.35 0 01.232-.019zm-1.365-.012a.346.346 0 01.348.355v3.669l-.006.068a.36.36 0 01-.094.18.35.35 0 01-.246.105.346.346 0 01-.345-.353v-.456l-.017.022c-.228.317-.511.562-.868.697l-.158.051a1.68 1.68 0 01-1.496-.261l-.184-.15a2.13 2.13 0 01-.652-1.106l-.04-.187a2.4 2.4 0 01.22-1.518l.092-.168c.23-.38.548-.67.978-.827l.12-.039c.598-.177 1.146-.04 1.64.364l.104.093q.146.143.26.312v-.493a.35.35 0 01.344-.358zm-1.69.595a1.26 1.26 0 00-.803.267l-.095.082c-.303.28-.489.665-.52 1.079-.049.507.08.961.415 1.346l.1.104a1.26 1.26 0 001.791-.042l.117-.13c.25-.312.362-.681.37-1.095l-.01-.174a1.7 1.7 0 00-.367-.92l-.117-.13a1.26 1.26 0 00-.881-.387zm-4.674.001a1.25 1.25 0 00-.76.195l-.093.067c-.357.276-.552.64-.613 1.07l-.017.188c-.025.483.115.914.444 1.272l.103.1c.527.471 1.3.44 1.797-.095l.109-.129c.233-.306.339-.663.346-1.067l-.01-.174a1.68 1.68 0 00-.493-1.053 1.26 1.26 0 00-.813-.374z"/><path fill="#000" fill-opacity=".3" d="M33.78 6.4a1 1 0 01-.094.142c-.077.084-.182.086-.286.082-.506-.018-.904.187-1.197.598-.189.265-.29.582-.29.908-.005.643-.003 1.287-.004 1.93 0 .196-.112.307-.307.31-.113.002-.22-.014-.284-.116a.33.33 0 01-.055-.166 992 992 0 01-.002-3.78.28.28 0 01.267-.28h.114a.27.27 0 01.249.178q.02.05.018.106v.655l.003.063.037-.06c.203-.35.475-.625.846-.793.223-.101.465-.148.709-.136a.28.28 0 01.255.184l.02.044zm-6.69 2.068q.037.234.144.446c.212.415.533.696.99.799.32.072.635.023.942-.08a1.2 1.2 0 00.497-.3c.077-.08.168-.109.27-.067a.28.28 0 01.179.208.29.29 0 01-.08.263 1.889 1.889 0 01-.821.482c-.349.115-.718.15-1.082.101a1.94 1.94 0 01-1.072-.52 2.14 2.14 0 01-.697-1.703c.03-.782.373-1.398 1.038-1.809a1.976 1.976 0 012.437.303c.444.447.652.992.65 1.621a.26.26 0 01-.077.18.26.26 0 01-.178.076h-3.14m2.807-.533a1.7 1.7 0 00-.247-.685c-.33-.525-.927-.769-1.506-.598-.499.146-.818.49-.991.976-.035.097-.054.2-.082.307zm-11.345.533c.095.574.516 1.112 1.135 1.246.285.062.565.028.842-.05a1.35 1.35 0 00.594-.327.23.23 0 01.254-.077.28.28 0 01.195.208.29.29 0 01-.082.274 1.9 1.9 0 01-.772.462c-.4.132-.81.185-1.226.098-.638-.133-1.108-.503-1.414-1.077a2.24 2.24 0 01.254-2.484c.42-.5.96-.76 1.612-.736.735.026 1.293.381 1.682 1.006.214.347.325.75.319 1.158q0 .226-.178.283a.4.4 0 01-.107.015h-3.108m-.01-.534h2.813v-.027a1.64 1.64 0 00-.317-.76c-.319-.41-.736-.602-1.251-.534-.704.095-1.166.704-1.244 1.321m5.649 1.222l.241-.54 1.063-2.381a.33.33 0 01.323-.206.32.32 0 01.295.246.34.34 0 01-.023.229l-1.21 2.712q-.186.412-.368.824c-.063.142-.168.223-.322.224-.154 0-.26-.08-.323-.222L22.296 6.52c-.097-.218.002-.436.22-.485a.32.32 0 01.368.197q.259.577.516 1.156l.768 1.72z"/><path stroke="#000" stroke-linejoin="round" stroke-opacity=".3" stroke-width=".04" d="M20.081 5.993c.676.064 1.195.417 1.562 1.007l.076.134c.167.318.25.674.245 1.035l-.011.107a.3.3 0 01-.036.087.24.24 0 01-.1.09l-.044.019a.4.4 0 01-.057.011l-.056.004h-3.084c.102.559.513 1.077 1.115 1.207l.105.019c.245.033.487 0 .728-.068l.151-.048q.222-.086.402-.243l.03-.03a.25.25 0 01.274-.084h.001a.305.305 0 01.204.381.3.3 0 01-.032.073l-.05.062a1.9 1.9 0 01-.565.387l-.215.08a2.4 2.4 0 01-1.078.126l-.157-.027a2 2 0 01-1.305-.88l-.124-.208a2.26 2.26 0 01.257-2.506l.164-.178a1.93 1.93 0 011.464-.566zm8.59.002c.446.056.86.26 1.178.581h.001c.447.452.658 1.002.655 1.636a.28.28 0 01-.221.27l-.053.005h-3.117q.037.22.137.418l.084.148c.208.329.5.552.894.64l.118.022a1.8 1.8 0 00.813-.102l.135-.05q.198-.089.354-.244l.063-.052a.243.243 0 01.229-.02h-.001a.3.3 0 01.191.223.3.3 0 01-.037.221l-.047.06a1.8 1.8 0 01-.601.403l-.229.084a2.446 2.446 0 01-.953.117l-.138-.015a1.95 1.95 0 01-.967-.423l-.116-.102a2.15 2.15 0 01-.7-1.47l-.003-.248c.03-.789.376-1.41 1.048-1.826l.147-.082a2.006 2.006 0 011.136-.194zm-6.1.013a.34.34 0 01.332.216h-.001l.516 1.155.768 1.72.004.01.224-.503 1.063-2.38.024-.048a.35.35 0 01.32-.17.35.35 0 01.295.209l.017.052.01.061a.4.4 0 01-.012.123l-.021.058-1.211 2.713-.367.823a.4.4 0 01-.134.174.33.33 0 01-.149.058l-.058.004a.35.35 0 01-.283-.135l-.058-.098-1.572-3.524a.4.4 0 01-.008-.32.34.34 0 01.242-.191zm7.062 1.253c-.305-.486-.841-.726-1.377-.616l-.107.026c-.43.126-.725.401-.906.79l-.07.174c-.032.089-.05.181-.075.28h2.774a1.7 1.7 0 00-.15-.495zm-9.844-.628c-.683.091-1.137.679-1.222 1.281h2.768V7.91l-.042-.201a1.6 1.6 0 00-.157-.378l-.114-.172c-.276-.353-.624-.542-1.047-.538zM33.8 6.41l-.003-.002a1 1 0 01-.094.147H33.7a.3.3 0 01-.223.09l-.078-.001a1.3 1.3 0 00-1.068.447l-.113.142a1.538 1.538 0 00-.285.897q-.006.965-.005 1.93l-.006.073a.3.3 0 01-.08.169.3.3 0 01-.169.082l-.072.007c-.1.001-.201-.011-.273-.09l-.028-.036a.35.35 0 01-.057-.176v-.001l-.003-3.78.005-.057a.294.294 0 01.281-.242h.115l.058.007q.028.006.054.017a.3.3 0 01.155.165.3.3 0 01.02.114v.652q0-.003.003-.004l.08-.129c.195-.292.446-.524.774-.673l.173-.066q.266-.084.545-.071a.3.3 0 01.273.196l.024.053h0z"/></svg>
