<svg id="pi-paynowmbank" viewBox="0 0 38 24" width="38" height="24" role="img" aria-labelledby="pi-paynowmbank" xmlns="http://www.w3.org/2000/svg"><title id="pi-paynowmbank">Paynow mBank</title><path fill="#000" opacity=".07" d="M35 0H3C1.3 0 0 1.3 0 3v18c0 1.7 1.4 3 3 3h32c1.7 0 3-1.3 3-3V3c0-1.7-1.4-3-3-3z"/><path fill="#fff" d="M35 1c1.1 0 2 .9 2 2v18c0 1.1-.9 2-2 2H3c-1.1 0-2-.9-2-2V3c0-1.1.9-2 2-2h32"/><path d="M37.9 25.87a16.13 16.13 0 016.25 6.28 19 19 0 012.26 9.43A19 19 0 0144.15 51a16.06 16.06 0 01-6.25 6.28 17.8 17.8 0 01-8.85 2.24q-6.66 0-10.49-4.21v16.26H8.46V31.93H4.57v-7.78h12l.65 5.25c2.5-3.84 6.46-5.77 11.85-5.77a17.8 17.8 0 018.83 2.24zm-4.21 22.74a9.81 9.81 0 002.49-7 9.79 9.79 0 00-2.49-7 8.42 8.42 0 00-6.38-2.62 8.43 8.43 0 00-6.39 2.62 9.79 9.79 0 00-2.49 7 9.81 9.81 0 002.49 7 8.46 8.46 0 006.39 2.62 8.46 8.46 0 006.38-2.62zM88 24.15V59h-9.65v-4q-3.76 4.53-10.89 4.53a18 18 0 01-8.9-2.2A15.76 15.76 0 0152.31 51 19 19 0 0150 41.58a19.06 19.06 0 012.27-9.46 15.74 15.74 0 016.25-6.28 18 18 0 018.9-2.21q6.67 0 10.43 4.22v-3.7zM75.56 48.61a9.74 9.74 0 002.53-7 9.73 9.73 0 00-2.53-7 9.08 9.08 0 00-12.76 0 9.73 9.73 0 00-2.53 7 9.74 9.74 0 002.53 7 9.08 9.08 0 0012.76 0zM131.91 24.15v29q0 9.59-4.85 14.25t-14.13 4.67a34.13 34.13 0 01-9.29-1.24 20.27 20.27 0 01-7.29-3.56l4-7.25a15.46 15.46 0 005.31 2.85 20.76 20.76 0 006.48 1c3.32 0 5.76-.77 7.32-2.33 1.56-1.56 2.33-3.93 2.33-7.12V53.3a13.19 13.19 0 01-4.6 3 15.56 15.56 0 01-5.7 1q-6.87 0-10.88-3.92-4.01-3.92-4-11.76V24.15h10.11v16q0 8.49 7.06 8.49a7.6 7.6 0 005.83-2.37c1.46-1.57 2.2-3.92 2.2-7V24.15zM173.21 27.52q4 3.89 4 11.53V59h-10.13V40.61q0-4.15-1.81-6.19a6.66 6.66 0 00-5.25-2 8.05 8.05 0 00-6.08 2.36c-1.52 1.58-2.27 3.92-2.27 7V59h-10.11V31.93h-3.88v-7.78h12l.52 5.44a12.92 12.92 0 015.25-4.43 16.88 16.88 0 017.32-1.53 14.36 14.36 0 0110.44 3.89zM192.44 57.22a17.09 17.09 0 01-6.83-6.38 17.59 17.59 0 01-2.46-9.26 17.62 17.62 0 012.46-9.27 17.16 17.16 0 016.83-6.38 22.31 22.31 0 0119.73 0 17.21 17.21 0 016.8 6.38 17.62 17.62 0 012.46 9.27 17.59 17.59 0 01-2.43 9.26 17.14 17.14 0 01-6.8 6.38 22.31 22.31 0 01-19.73 0zm16.26-8.61a9.81 9.81 0 002.5-7 9.79 9.79 0 00-2.5-7 8.41 8.41 0 00-6.38-2.62 8.5 8.5 0 00-6.41 2.62 9.68 9.68 0 00-2.53 7 9.7 9.7 0 002.53 7 8.54 8.54 0 006.41 2.62 8.44 8.44 0 006.38-2.62zM283.55 24.15L270.92 59h-9.72l-7.84-21.63L245.27 59h-9.72L223 24.15h9.53l8.22 23.58 8.55-23.58h8.55l8.29 23.58 8.49-23.58z" transform="matrix(.12419 0 0 .12419 1.135 5.477)"/><path fill="#ae0000" stroke-width=".124" d="M21.093 14.922h6.063v1.423h-6.063z"/><path fill="#ff8600" stroke-width=".124" d="M11.733 14.922h9.36v1.423h-9.36z"/><path fill="#0065b1" stroke-width=".124" d="M27.158 14.922h.693v1.423h-.693z"/><path fill="#e90a0a" stroke-width=".124" d="M1.689 14.922h9.005v1.423H1.689z"/><path fill="#008f20" stroke-width=".124" d="M27.849 14.922h8.489v1.423h-8.489z"/><path fill="#26221e" stroke-width=".124" d="M10.693 14.922h1.039v1.423h-1.039z"/></svg>