<svg width="38" height="24" viewBox="0 0 38 24" fill="none" xmlns="http://www.w3.org/2000/svg" role="img" aria-labelledby="pi-paypo"><title id="pi-paypo">PayPo</title><g clip-path="url(#pi-clip0_6_40)"><g clip-path="url(#pi-clip1_6_40)"><path d="M35.15.923H2.85C1.8.923.95 1.75.95 2.77v18.462c0 1.02.85 1.846 1.9 1.846h32.3c1.05 0 1.9-.827 1.9-1.846V2.769c0-1.02-.85-1.846-1.9-1.846z" fill="#fff"/><path d="M35.15.462H2.85C1.538.462.475 1.495.475 2.769v18.462c0 1.274 1.063 2.307 2.375 2.307h32.3c1.312 0 2.375-1.033 2.375-2.307V2.769c0-1.274-1.063-2.307-2.375-2.307z" stroke="#000" stroke-opacity=".07" stroke-linejoin="round"/><path d="M7.458 14.507v-1.879H5.581v1.879h1.877z" fill="#A60585"/><path d="M7.45 11.974V10.08H5.573v1.894H7.45z" fill="#36B587"/><path d="M4.948 14.499v-1.894H3.07v1.894h1.877z" fill="#FAD15C"/><path d="M13.053 9.961c0 1.306-1.04 2.356-2.383 2.356H9.648v2.16H8.092V7.606h2.578c1.342 0 2.383 1.05 2.383 2.355zm-1.556 0c0-.501-.35-.884-.827-.884H9.648v1.768h1.022c.477 0 .827-.382.827-.884zM18.482 9.435v5.04h-1.498v-.473c-.33.382-.819.614-1.488.614-1.308 0-2.387-1.159-2.387-2.66 0-1.502 1.079-2.661 2.387-2.661.67 0 1.158.231 1.488.615v-.474h1.498zm-1.498 2.52c0-.756-.5-1.23-1.188-1.23s-1.189.474-1.189 1.23.5 1.231 1.189 1.231c.688 0 1.188-.475 1.188-1.23zM24.173 9.435l-1.695 4.855c-.556 1.592-1.439 2.222-2.827 2.152v-1.401c.694 0 1.022-.221 1.24-.83l-1.973-4.776h1.637l1.1 3.062.933-3.062h1.585zM29.72 9.961c0 1.306-1.041 2.356-2.384 2.356h-1.022v2.16h-1.556V7.606h2.578c1.342 0 2.384 1.05 2.384 2.355zm-1.557 0c0-.501-.35-.884-.827-.884h-1.022v1.768h1.022c.477 0 .827-.382.827-.884zM29.914 12.024a2.561 2.561 0 012.578-2.592c1.43 0 2.579 1.13 2.579 2.592a2.562 2.562 0 01-2.578 2.592 2.561 2.561 0 01-2.579-2.592zm3.697 0c0-.697-.486-1.159-1.118-1.159-.633 0-1.12.462-1.12 1.159 0 .697.487 1.159 1.12 1.159.632 0 1.118-.462 1.118-1.16z" fill="#000"/></g></g><defs><clipPath id="pi-clip0_6_40"><path fill="#fff" d="M0 0h38v24H0z"/></clipPath><clipPath id="pi-clip1_6_40"><path fill="#fff" d="M0 0h38v24H0z"/></clipPath></defs></svg>