<svg xmlns="http://www.w3.org/2000/svg" role="img" viewBox="0 0 38 24" width="38" height="24" aria-labelledby="pi-payrexxpaybybank"><title id="pi-payrexxpaybybank">Payrexx Pay by Bank</title><path d="M35 0H3C1.3 0 0 1.3 0 3v18c0 1.7 1.4 3 3 3h32c1.7 0 3-1.3 3-3V3c0-1.7-1.4-3-3-3z" fill="#000" opacity=".07"/><path d="M35 1c1.1 0 2 .9 2 2v18c0 1.1-.9 2-2 2H3c-1.1 0-2-.9-2-2V3c0-1.1.9-2 2-2h32" fill="#00AFF0"/><path d="M7.42 11.637c0 .648-.447 1.116-1.136 1.116h-.82V14H4.8v-3.49h1.47c.729 0 1.151.443 1.151 1.127zm-1.157-.508h-.799v1.016h.8c.306 0 .492-.156.492-.508s-.186-.508-.493-.508zM9.541 14a.927.927 0 01-.066-.241c-.17.18-.432.291-.794.291-.548 0-1.051-.276-1.051-.84 0-.583.488-.734 1.06-.784.433-.04.74-.09.74-.302 0-.135-.176-.246-.473-.246-.236 0-.508.105-.568.327h-.664c.066-.493.538-.86 1.217-.86 1.051 0 1.132.679 1.132.885v1.348c0 .125.04.321.075.422h-.608zm-.086-1.006v-.241c-.14.09-.357.136-.628.166-.327.035-.528.105-.528.296 0 .146.17.247.437.247.397 0 .72-.136.72-.468zm3.542-1.584l-1.146 3.063c-.252.673-.649.764-1.192.729v-.604c.332.02.488-.06.598-.357l.076-.196-1.001-2.635h.704l.634 1.87.618-1.87h.71zm4.515 1.298c0 .764-.553 1.347-1.232 1.347-.312 0-.588-.12-.79-.332V14h-.638v-3.741h.669v1.398c.196-.191.462-.302.76-.302.678 0 1.231.583 1.231 1.353zm-.664.005c0-.423-.296-.744-.663-.744-.368 0-.664.331-.664.744 0 .402.296.729.663.729.368 0 .664-.317.664-.73zm3.412-1.303l-1.146 3.063c-.252.673-.65.764-1.192.729v-.604c.332.02.488-.06.598-.357l.076-.196-1.001-2.635h.704l.634 1.87.618-1.87h.71zm4.67 1.564c0 .624-.421 1.026-1.095 1.026h-1.7v-3.49h1.61c.698 0 1.05.362 1.05.946a.814.814 0 01-.342.683c.297.156.478.438.478.835zm-1.186-1.86H22.8v.769h.945c.226 0 .407-.156.407-.387 0-.232-.155-.382-.407-.382zm.508 1.835c0-.292-.186-.458-.523-.458h-.93v.9h.945c.257 0 .508-.1.508-.442zM27.155 14a.927.927 0 01-.065-.241c-.171.18-.433.291-.794.291-.549 0-1.052-.276-1.052-.84 0-.583.488-.734 1.061-.784.433-.04.74-.09.74-.302 0-.135-.176-.246-.473-.246-.236 0-.508.105-.568.327h-.664c.065-.493.538-.86 1.217-.86 1.05 0 1.131.679 1.131.885v1.348c0 .125.04.321.076.422h-.609zm-.085-1.006v-.241c-.14.09-.357.136-.629.166-.327.035-.528.105-.528.296 0 .146.171.247.438.247.397 0 .719-.136.719-.468zm3.56-.508V14h-.663v-1.514c0-.15-.046-.513-.483-.513a.491.491 0 00-.503.513V14h-.664v-2.59h.634v.252a.855.855 0 01.668-.317c.609 0 1.011.457 1.011 1.141zm1.585.423l-.332.347V14h-.664v-3.741h.664v2.092l.85-.94h.915l-.965 1.01L33.703 14h-.844l-.644-1.091z" fill="#fff"/></svg>