<svg xmlns="http://www.w3.org/2000/svg" role="img" width="38" height="24" fill="none" viewBox="0 0 38 24" aria-labelledby="pi-paysafecash"><title id="pi-paysafecash">PaysafeCash</title><g clip-path="url(#pi-paysafecash-a)"><path fill="#000" fill-opacity=".07" d="M35 .001H3c-1.7 0-3 1.3-3 3v18C0 22.7 1.4 24 3 24h32c1.7 0 3-1.3 3-3V3c0-1.7-1.4-3-3-3v.001z"/><path fill="#fff" d="M35 1c1.1 0 2.001.9 2.001 2v18a2.006 2.006 0 01-2 2H3a2.007 2.007 0 01-2-2V3c0-1.1.9-2 2.001-2h32z"/><g clip-path="url(#pi-paysafecash-b)" fill="#141414"><path d="M25.034 12.042c0-1.048.725-1.607 1.4-1.607h.244c.683 0 1.162.516 1.225 1.173h-.57c-.038-.39-.302-.686-.648-.686h-.248c-.402 0-.805.415-.805 1.12 0 .704.389 1.12.798 1.12h.24c.35 0 .616-.31.665-.687h.57c-.053.669-.633 1.174-1.234 1.174h-.241c-.7 0-1.396-.561-1.396-1.607zm-16.474.024v.001a.065.065 0 01-.02.047L6.906 13.68a.035.035 0 01-.024.01h-.01a.034.034 0 01-.035-.033v-1.59a.065.065 0 01-.02.047L5.195 13.67a.07.07 0 01-.048.02h-.002a.07.07 0 01-.049-.02l-1.622-1.556a.065.065 0 01-.02-.047v-.002c0-.017.007-.034.02-.046l1.622-1.557a.07.07 0 01.049-.02h.002a.07.07 0 01.048.02l1.622 1.557c.013.012.02.03.02.046v-1.59c0-.018.016-.032.035-.032h.01c.01 0 .018.003.025.01l1.632 1.565c.013.013.02.03.02.047zm3.966-1.129a.862.862 0 00-.358-.343 1.16 1.16 0 00-.55-.124h-1.355v3.141h.59v-1.205h.766c.21 0 .394-.04.55-.123a.864.864 0 00.357-.342.998.998 0 00.124-.502 1 1 0 00-.124-.502zm-.526.746a.403.403 0 01-.165.173.554.554 0 01-.28.064h-.703v-.963h.704c.165 0 .29.045.373.136.083.09.125.206.125.347 0 .09-.018.17-.054.243zm4.95-.333l-.986 2.62a.922.922 0 01-.283.422.697.697 0 01-.438.135h-.3v-.438h.258a.268.268 0 00.201-.082c.053-.054.147-.286.17-.36L14.7 11.35h.57l.566 1.622c.037-.133.555-1.622.555-1.622h.56zm1.725 1.144c.1.096.15.244.15.443 0 .138-.038.26-.113.368a.761.761 0 01-.306.252.958.958 0 01-.416.091h-.192c-.154 0-.298-.028-.43-.085a.696.696 0 01-.318-.247.78.78 0 01-.117-.408h.543c.01.09.026.204.092.258.075.06.15.076.235.076h.159c.087 0 .16-.021.22-.063.059-.042.088-.107.088-.195a.223.223 0 00-.067-.174.413.413 0 00-.208-.086l-.452-.085a.747.747 0 01-.43-.22.601.601 0 01-.15-.418c0-.131.037-.25.11-.354a.72.72 0 01.295-.242.939.939 0 01.398-.085h.18c.143 0 .276.027.4.082a.76.76 0 01.299.235c.076.1.116.284.12.416h-.53c-.006-.078-.02-.188-.087-.25a.296.296 0 00-.212-.08h-.151c-.08 0-.145.02-.197.062a.205.205 0 00-.077.17c0 .058.021.109.064.152a.354.354 0 00.188.09l.461.092c.201.04.352.108.451.205zm13.444 0c.1.096.15.244.15.443 0 .138-.038.26-.114.368a.762.762 0 01-.305.252.958.958 0 01-.417.091h-.191c-.155 0-.299-.028-.431-.085a.696.696 0 01-.317-.247.78.78 0 01-.117-.408h.542c.01.09.026.204.092.258.075.06.15.076.235.076h.16a.37.37 0 00.219-.063c.06-.042.089-.107.089-.195a.223.223 0 00-.068-.174.413.413 0 00-.208-.086l-.451-.085a.748.748 0 01-.432-.22.602.602 0 01-.148-.418c0-.131.037-.25.11-.354a.721.721 0 01.295-.242.938.938 0 01.397-.085h.18a.97.97 0 01.4.082.758.758 0 01.3.235c.075.1.115.284.118.416h-.528c-.006-.078-.02-.188-.088-.25a.296.296 0 00-.211-.08h-.152c-.08 0-.145.02-.197.062a.205.205 0 00-.077.17c0 .058.021.109.064.152a.354.354 0 00.189.09l.46.092c.201.04.352.108.451.205zm-11.046.666a.126.126 0 01-.08-.047c-.02-.025-.028-.063-.028-.114v-.841c0-.157-.036-.3-.106-.43a.75.75 0 00-.304-.304.953.953 0 00-.467-.11h-.171c-.159 0-.307.032-.444.096a.869.869 0 00-.337.27.657.657 0 00-.136.372h.55c.008-.104.032-.164.103-.224a.396.396 0 01.264-.085h.17a.3.3 0 01.166.05.34.34 0 01.122.142c.03.06.044.128.044.203v.045l-.624.09a1.27 1.27 0 00-.602.235.583.583 0 00-.225.485c0 .131.032.246.097.345a.631.631 0 00.274.229c.119.054.256.08.412.08a.988.988 0 00.442-.093.63.63 0 00.282-.258c.007.109.044.189.112.24.067.05.16.076.277.076h.367v-.442a.91.91 0 01-.158-.01zm-.653-.486a.59.59 0 01-.072.294.498.498 0 01-.2.198.614.614 0 01-.299.071.358.358 0 01-.233-.074.237.237 0 01-.091-.193c0-.099.033-.17.101-.216a.826.826 0 01.314-.105l.48-.085v.11z"/><path d="M14.806 13.16a.126.126 0 01-.081-.047c-.019-.025-.028-.063-.028-.114v-.841c0-.157-.035-.3-.105-.43a.75.75 0 00-.304-.304.952.952 0 00-.468-.11h-.17c-.16 0-.308.032-.445.096a.868.868 0 00-.337.27.656.656 0 00-.135.372h.55c.007-.104.032-.164.102-.224a.396.396 0 01.264-.085h.17c.06 0 .115.017.167.05a.345.345 0 01.121.142c.03.06.045.128.045.203v.045l-.624.09a1.27 1.27 0 00-.603.235.583.583 0 00-.225.485c0 .131.032.246.097.345a.63.63 0 00.274.229.99.99 0 00.412.08.988.988 0 00.442-.093.63.63 0 00.283-.258c.006.109.043.189.11.24.069.05.161.076.278.076h.367v-.442a.91.91 0 01-.158-.01zm-.654-.486a.59.59 0 01-.071.294.499.499 0 01-.201.198.614.614 0 01-.298.071.358.358 0 01-.234-.074.237.237 0 01-.091-.193c0-.099.034-.17.101-.216a.827.827 0 01.315-.105l.48-.085v.11zm16.005.486a.126.126 0 01-.08-.047c-.02-.025-.03-.063-.03-.114v-.841a.89.89 0 00-.104-.43.75.75 0 00-.304-.304.953.953 0 00-.468-.11h-.17c-.16 0-.308.032-.445.096a.868.868 0 00-.336.27.657.657 0 00-.136.372h.55c.007-.104.032-.164.102-.224a.397.397 0 01.264-.085h.17c.06 0 .115.017.167.05a.345.345 0 01.121.142c.03.06.045.128.045.203v.045l-.625.09c-.25.038-.451.117-.601.235a.583.583 0 00-.226.485c0 .131.033.246.097.345a.632.632 0 00.274.229.99.99 0 00.412.08.99.99 0 00.442-.093.63.63 0 00.283-.258c.006.109.043.189.11.24.069.05.161.076.278.076h.367v-.442a.91.91 0 01-.158-.01zm-.654-.486a.6.6 0 01-.071.294.498.498 0 01-.201.198.614.614 0 01-.298.071.357.357 0 01-.234-.074.237.237 0 01-.091-.193c0-.099.034-.17.101-.216a.828.828 0 01.315-.105l.48-.085v.11zm-6.776-.887h-.64v1.824h-.55v-1.824h-.458v-.437h.458v-.213c0-.217.057-.382.17-.496.115-.114.274-.17.48-.17h.54v.437h-.374c-.09 0-.157.023-.2.068-.044.046-.066.116-.066.21v.164h.64v.437zm2.163.613c0-.197-.044-.379-.13-.545a1.032 1.032 0 00-.348-.395.877.877 0 00-.495-.146h-.18a.944.944 0 00-.497.143 1.054 1.054 0 00-.38.41c-.097.177-.145.38-.145.607 0 .228.045.429.134.607.09.179.214.318.372.418a.96.96 0 00.525.149h.173c.164 0 .314-.035.453-.104a.934.934 0 00.34-.283.81.81 0 00.156-.403h-.523a.435.435 0 01-.146.248.407.407 0 01-.275.1h-.173a.38.38 0 01-.247-.091.613.613 0 01-.177-.26.99.99 0 01-.059-.26h1.612c.002-.016.01-.143.01-.195zm-1.6-.193a.847.847 0 01.042-.134.61.61 0 01.184-.256.383.383 0 01.237-.088h.164c.073 0 .141.022.205.063.064.042.115.1.154.174a.568.568 0 01.061.242H23.29zm9.152-1.737h.55v1.204a.743.743 0 01.603-.358h.204c.409 0 .747.37.747.867v1.428h-.55v-1.347c0-.266-.145-.477-.375-.477h-.162c-.272 0-.467.281-.467.621v1.203h-.55v-3.14z"/></g></g><defs><clipPath id="pi-paysafecash-a"><path fill="#fff" d="M0 0h38v24H0z"/></clipPath><clipPath id="pi-paysafecash-b"><path fill="#fff" d="M3 10h32v5H3z"/></clipPath></defs></svg>