<svg viewBox="0 0 38 24" xmlns="http://www.w3.org/2000/svg" role="img" width="38" height="24" aria-labelledby="pi-revolut"><title id="pi-revolut">Revolut</title><path fill="#000" opacity=".07" d="M35 0H3C1.3 0 0 1.3 0 3v18c0 1.7 1.4 3 3 3h32c1.7 0 3-1.3 3-3V3c0-1.7-1.4-3-3-3z"/><path fill="#fff" d="M35 1c1.1 0 2 .9 2 2v18c0 1.1-.9 2-2 2H3c-1.1 0-2-.9-2-2V3c0-1.1.9-2 2-2h32"/><path d="M24.041 8h1.096v6.115h-1.096V8zm8.876 2.576v-.949h-1.133V8.39h-1.096v4.51c0 .415.104.731.31.94.205.208.526.314.952.314h.967v-.949h-.708c-.154 0-.264-.034-.329-.1-.058-.062-.096-.216-.096-.394v-2.135h1.133zM17.73 9.627l-1.134 3.298-1.133-3.298h-1.151l1.635 4.488h1.298l1.636-4.488h-1.152zm11.171 2.249c0 .284-.043.53-.127.734a1.004 1.004 0 01-.36.461.987.987 0 01-.561.156c-.314 0-.55-.103-.703-.306-.155-.205-.233-.516-.233-.924v-2.37h-1.096v2.49c0 .389.049.718.144.978.096.262.228.475.392.633.163.157.354.271.567.338.212.067.44.101.678.101.343 0 .626-.062.843-.185a1.9 1.9 0 00.492-.39l.099.523h.961V9.627h-1.096v2.249z" fill="#191C1F"/><path fill-rule="evenodd" clip-rule="evenodd" d="M21.147 9.576c.463 0 .873.097 1.219.288.346.192.618.463.81.806.191.342.288.748.288 1.206 0 .452-.097.854-.288 1.197a2.059 2.059 0 01-.81.805c-.346.192-.756.289-1.219.289-.458 0-.866-.097-1.215-.289a2.05 2.05 0 01-.814-.805 2.425 2.425 0 01-.288-1.197c0-.458.097-.864.288-1.206.192-.343.466-.614.814-.806a2.492 2.492 0 011.215-.288zm0 3.668c.248 0 .463-.058.64-.173.177-.115.317-.278.415-.483.099-.207.149-.446.149-.712 0-.272-.05-.513-.149-.716a1.203 1.203 0 00-.415-.484 1.131 1.131 0 00-.64-.178 1.133 1.133 0 00-1.055.661 1.624 1.624 0 00-.149.717c0 .266.05.506.149.712.099.205.24.368.42.483.179.115.393.173.635.173z" fill="#191C1F"/><path d="M6.14 9.51H5v4.605h1.14V9.51z" fill="#191C1F"/><path d="M7.937 8c.978 0 1.774.795 1.774 1.773 0 .94-.75 1.723-1.684 1.77l1.853 2.572H8.527l-1.85-2.565a.07.07 0 01-.012-.04v-.875a.07.07 0 01.07-.07h1.09a.785.785 0 00.564-.237.785.785 0 00.226-.569c-.008-.427-.375-.775-.818-.775H5V8h2.937z" fill="#191C1F"/><path fill-rule="evenodd" clip-rule="evenodd" d="M13.214 9.838c-.328-.174-.718-.262-1.158-.262-.441 0-.835.097-1.172.288a2.021 2.021 0 00-.788.806c-.186.342-.28.75-.28 1.214 0 .452.096.855.284 1.197.19.344.462.613.81.802.349.188.766.284 1.24.284.378 0 .716-.07 1.007-.21.29-.14.528-.33.705-.565a1.85 1.85 0 00.338-.753l.006-.03h-1.09l-.005.018a.855.855 0 01-.347.483 1.163 1.163 0 01-.665.186c-.22 0-.418-.047-.59-.14a.973.973 0 01-.396-.393 1.38 1.38 0 01-.157-.602v-.036h3.292l.004-.02a1.51 1.51 0 00.022-.194c.003-.063.004-.127.004-.191-.006-.435-.103-.818-.289-1.137a1.934 1.934 0 00-.775-.745zm-.4.845c.188.158.304.382.347.666h-2.168c.025-.184.086-.344.183-.476a1.04 1.04 0 01.384-.32 1.12 1.12 0 01.504-.115c.304 0 .557.082.75.245z" fill="#191C1F"/></svg>