<svg viewBox="0 0 38 24" xmlns="http://www.w3.org/2000/svg" width="38" height="24" role="img" aria-labelledby="pi-rhbbank"><title id="pi-rhbbank">RHB Bank</title><path opacity=".07" d="M35 0H3C1.3 0 0 1.3 0 3v18c0 1.7 1.4 3 3 3h32c1.7 0 3-1.3 3-3V3c0-1.7-1.4-3-3-3z"/><path fill="#FFF" d="M35 1c1.1 0 2 .9 2 2v18c0 1.1-.9 2-2 2H3c-1.1 0-2-.9-2-2V3c0-1.1.9-2 2-2h32"/><path fill="#0068B3" d="M17.784 8.753c-.13 1.039-.258 2.126-.401 3.212-.16 1.215-.31 2.432-.506 3.64-.143.879-.759 1.266-1.598 1.074-.689-.156-.966-.547-.891-1.257.057-.545.117-1.09.181-1.634.034-.29.128-.589-.332-.633-.566-.054-.782.048-.86.507-.087.507-.177 1.019-.204 1.532-.068 1.366-1.36 1.564-2.283 1.417-.265-.043-.249-.268-.227-.456.054-.48.127-.958.191-1.437l.777-5.945c.082-.623.367-1.087.986-1.314.83-.303 1.507.144 1.477 1.062-.022.705-.171 1.406-.264 2.109-.043.32-.088.639-.125.959-.031.275-.013.511.358.547.532.053.748-.033.811-.43.095-.605.154-1.216.236-1.822.056-.415.132-.829.188-1.243.077-.585.455-.924.968-1.098.896-.302 1.512.183 1.518 1.21m-7.161 1.231c-.024.887-.29 2.021-1.468 2.714-.261.153-.132.327-.04.485.244.418.524.815.755 1.24.305.562.229 1.135-.086 1.664-.451.759-1.274.802-1.788.086-.433-.602-.813-1.244-1.224-1.862-.045-.068-.154-.143-.221-.133-.064.009-.145.12-.161.197-.086.445-.139.894-.23 1.337-.149.732-.315.875-1.012.929-1.189.093-1.252.026-1.074-1.149l.786-5.169c.31-2.064 2.045-3.332 4.104-2.996 1.22.197 1.669.818 1.659 2.657m-2.364-.23c.053-.331.043-.656-.338-.794-.286-.103-.592.163-.726.607-.018.061-.03.124-.039.187-.07.539-.144 1.078-.207 1.618-.017.156-.027.324.007.475.088.384.569.522.817.215.152-.188.251-.448.292-.69.093-.534.132-1.078.194-1.618m11.4 6.886c-.516 0-1.032-.007-1.548.002-.387.009-.518-.177-.462-.539.134-.86.263-1.72.398-2.581.18-1.146.353-2.293.55-3.437.352-2.056 2.666-3.03 4.096-2.615 1.277.371 1.962 1.504 1.521 2.753-.191.538-.678 1.007-.747 1.543-.068.532.299 1.103.34 1.667.123 1.744-1.249 3.188-2.986 3.209-.387.005-.775.001-1.162.001v-.003zm1.871-3.573c-.01-.472-.116-.712-.349-.705-.23.007-.461.134-.678.239-.07.033-.122.154-.138.242-.11.628-.243 1.255-.297 1.888-.037.441.425.678.803.428.171-.112.346-.315.39-.507.13-.557.196-1.13.269-1.585m.565-3.474c.018-.546-.293-.798-.732-.602-.182.081-.386.271-.437.452-.141.495-.216 1.008-.295 1.518-.051.327.167.48.453.495.352.017.646-.134.738-.497.117-.469.191-.948.273-1.366"/><path fill="#CF3138" d="M30.013 7.658l-5.071 3.932 4.093 4.868L34 12.448l-3.987-4.79z"/></svg>