<svg xmlns="http://www.w3.org/2000/svg" role="img" viewBox="0 0 38 24" width="38" height="24" aria-labelledby="pi-riverty"><title id="pi-riverty">Riverty</title><path d="M35 0H3C1.3 0 0 1.3 0 3v18c0 1.7 1.4 3 3 3h32c1.7 0 3-1.3 3-3V3c0-1.7-1.4-3-3-3z" fill="#000" fill-rule="nonzero" opacity=".07" vector-effect="non-scaling-stroke"/><path fill="#527a42" d="M35 .813c1.1 0 2 .9 2 2v18c0 1.1-.9 2-2 2H3c-1.1 0-2-.9-2-2v-18c0-1.1.9-2 2-2h32z"/><path fill="#e7e4e2" d="M31.943 10.57l-.79 1.04-.788-1.04h-.897l1.291 1.685v1.399h.717v-1.399l1.291-1.685h-.86.036zM25.56 10.57v.61h1.147v2.474h.717v-2.475h1.148v-.61h-3.013zM22.045 11.897h1.04c.322 0 .466-.108.466-.359s-.144-.359-.466-.359h-1.04v.754-.036zm1.542 1.757l-.753-1.148h-.79v1.148h-.717V10.57h1.83c.717 0 1.111.358 1.111.968s-.215.79-.645.933l.824 1.183h-.86zM16.593 10.57v3.084h2.798v-.61h-2.08V12.4h1.793v-.61H17.31v-.61h2.08v-.61h-2.798zM14.37 10.57l-.897 2.295-.932-2.295h-.753l1.29 3.084h.718l1.291-3.084h-.753.036zM9.564 13.654h.718V10.57h-.718v3.084zM5.26 13.654h.718v-2.367h-.717v2.367zM5.978 11.287h2.367v-.717H5.978v.717z" class="cls-2"/></svg>