<svg width="38" height="24" viewBox="0 0 38 24" fill="none" xmlns="http://www.w3.org/2000/svg" role="img" aria-labelledby="pi-samsung_pay"><title id="pi-samsung_pay">Samsung Pay</title><rect x="1" y="1" width="36" height="22" rx="2" fill="#fff"/><rect x=".5" y=".5" width="37" height="23" rx="2.5" stroke="#000" stroke-opacity=".07"/><g clip-path="url(#pi-clip0)" fill="#000"><path d="M28.767 7.16l.055 3.195H28.8l-.936-3.194h-1.51v4.028h1l-.056-3.306h.022l1.005 3.306h1.45V7.16M9.602 7.16l-.755 4.07h1.101l.557-3.693h.022l.543 3.693h1.094l-.75-4.07M15.754 7.16l-.503 3.113h-.022l-.502-3.112h-1.66l-.09 4.07h1.018l.026-3.66h.023l.68 3.66h1.033l.68-3.659h.022l.026 3.658h1.018l-.09-4.07M7.134 10.082c.04.099.027.224.008.301-.033.136-.126.274-.396.274-.256 0-.41-.147-.41-.37v-.394H5.243v.315c0 .907.715 1.182 1.48 1.182.737 0 1.342-.251 1.44-.931.049-.351.012-.582-.006-.667-.171-.852-1.716-1.107-1.831-1.583a.535.535 0 01-.005-.214c.03-.131.118-.274.373-.274.238 0 .377.148.377.369v.253h1.017v-.287c0-.887-.797-1.026-1.373-1.026-.724 0-1.315.24-1.424.904-.03.182-.033.344.01.549.176.832 1.623 1.072 1.833 1.6zM20.37 10.075a.52.52 0 01.008.297c-.033.135-.125.272-.393.272-.252 0-.405-.146-.405-.367v-.39h-1.082v.312c0 .898.708 1.17 1.465 1.17.729 0 1.329-.249 1.425-.922a1.954 1.954 0 00-.005-.66c-.17-.845-1.7-1.096-1.813-1.568a.51.51 0 01-.005-.211c.029-.13.116-.271.368-.271.237 0 .375.145.375.365v.25h1.006v-.284c0-.878-.789-1.014-1.36-1.014-.715 0-1.302.236-1.408.894-.03.18-.033.34.01.543.174.824 1.607 1.061 1.814 1.584zM23.788 10.62c.283 0 .37-.194.39-.294a.859.859 0 00.01-.156V7.16h1.03v2.918c.002.075-.007.228-.01.267-.071.76-.672 1.007-1.42 1.007-.75 0-1.35-.247-1.421-1.007a3.499 3.499 0 01-.009-.267V7.16h1.03v3.01c-.002.053 0 .112.009.156.02.1.108.295.39.295zM32.28 10.579c.294 0 .396-.187.415-.295a.791.791 0 00.01-.155v-.591h-.418v-.593h1.443v1.09c0 .077-.002.133-.015.268-.068.742-.71 1.007-1.432 1.007s-1.364-.265-1.431-1.007a2.595 2.595 0 01-.015-.267V8.323c0-.072.009-.2.018-.268.09-.76.706-1.006 1.428-1.006s1.355.243 1.43 1.006c.013.13.008.268.009.268v.136h-1.027v-.228s0-.097-.013-.156c-.018-.089-.096-.295-.407-.295-.295 0-.383.196-.406.295a1.012 1.012 0 00-.015.193v1.861c0 .052 0 .109.009.155.02.108.121.295.416.295zM14.123 13.768h1.49c.901 0 1.569.691 1.569 1.55 0 .865-.668 1.556-1.575 1.556h-.673v1.246h-.811v-4.352zm.81.751v1.604h.62a.785.785 0 00.812-.805.783.783 0 00-.811-.799M17.337 16.38c0-1.158.846-1.82 1.729-1.82.46 0 .87.192 1.12.49v-.417h.806v3.487h-.805v-.453a1.446 1.446 0 01-1.132.525c-.841 0-1.718-.674-1.718-1.813zm2.892-.013c0-.59-.447-1.073-1.044-1.073-.595 0-1.055.471-1.055 1.073 0 .608.46 1.085 1.055 1.085.597 0 1.044-.483 1.044-1.085zM22.686 17.947l-1.431-3.314h.858l.972 2.348.918-2.348h.847l-2.08 5.097h-.817"/></g><defs><clipPath id="pi-clip0"><path fill="#fff" d="M5.243 7.03H33.73v12.7H5.243z"/></clipPath></defs></svg>
