<svg xmlns="http://www.w3.org/2000/svg" role="img" viewBox="0 0 38 24" width="38" height="24" aria-labelledby="pi-scotiabank"><title id="pi-scotiabank">Scotiabank</title><g clip-path="url(#pi-clip0_3326_8096)"><path opacity="0.07" d="M35 0H3C1.3 0 0 1.3 0 3V21C0 22.7 1.4 24 3 24H35C36.7 24 38 22.7 38 21V3C38 1.3 36.6 0 35 0Z" fill="black"/><path d="M35 1C36.1 1 37 1.9 37 3V21C37 22.1 36.1 23 35 23H3C1.9 23 1 22.1 1 21V3C1 1.9 1.9 1 3 1H35Z" fill="#EC121F"/><path d="M23.7471 6.98266H19.2189C16.6364 6.98266 14.5096 8.93379 14.2321 11.4424H14.2312C13.8337 10.7237 13.6074 9.89701 13.6074 9.01748C13.6074 6.24644 15.8538 4 18.6248 4H26.439L23.7471 6.98266Z" fill="#F5F5F5"/><path d="M14.6918 17.0173H19.22C21.8025 17.0173 23.9294 15.0663 24.2069 12.5576H24.2077C24.6053 13.2764 24.8315 14.103 24.8315 14.9825C24.8315 17.7536 22.5852 20 19.8141 20H12L14.6918 17.0173Z" fill="#F5F5F5"/><path d="M23.2488 12.0008C23.2488 14.2266 21.4444 16.031 19.2186 16.031C16.9929 16.031 15.1885 14.2266 15.1885 12.0008C15.1885 9.77505 16.9929 7.9707 19.2186 7.9707C21.4444 7.9707 23.2488 9.77505 23.2488 12.0008Z" fill="#F5F5F5"/></g><defs><clipPath id="pi-clip0_3326_8096"><rect width="38" height="24" fill="white"/></clipPath></defs></svg>