<svg width="38" height="24" viewBox="0 0 38 24" role="img" fill="none" xmlns="http://www.w3.org/2000/svg" aria-labelledby="pi-seabankid"><title id="pi-seabankid">SeaBank</title><g clip-path="url(#pi-clip0_97_2505)"><path d="M38-7H0v38h38V-7z" fill="#fff"/><path d="M4.051 14.448c.539-.03.981.159 1.451.358.528.226 1.075.456 1.839.425.137-.005.277-.026.419-.064l.144-.043a.246.246 0 01.16.465c-.238.08-.475.127-.704.133a3.27 3.27 0 01-.273.004c-.733-.021-1.284-.254-1.776-.464-.433-.185-.81-.342-1.225-.322-.351.027-.607.229-.611.23a.247.247 0 01-.346-.04.246.246 0 01.036-.345c.015-.012.373-.295.886-.337zm-.012-.754c.78-.033 1.299.195 1.8.412.474.206.922.402 1.608.374.402-.017.768-.174 1.024-.32l.217-.137a.255.255 0 11.29.419c-.28.192-.847.52-1.511.546-.08.006-.155.005-.23.004-.677-.015-1.149-.219-1.606-.42-.467-.204-.909-.396-1.573-.368-.574.022-1.082.367-1.334.57a.255.255 0 01-.32-.398c.3-.243.912-.654 1.635-.682z" fill="#2673DD"/><path d="M5.735 8.31c1.89 0 3.42 1.53 3.419 3.418 0 .878-.331 1.64-.872 2.244-.212.099-.464.218-.731.233a2.878 2.878 0 01-.242.005 2.939 2.939 0 001.362-2.48 2.945 2.945 0 00-2.942-2.942 2.946 2.946 0 00-2.941 2.942c0 .688.238 1.323.636 1.825-.162.048-.316.11-.457.178a3.42 3.42 0 012.769-5.424zm0 .708a2.693 2.693 0 012.69 2.691 2.698 2.698 0 01-1.575 2.45c-.333-.064-.619-.182-.916-.303l-.007-.002c-.518-.213-1.11-.456-1.964-.404a2.28 2.28 0 00-.254.03 2.68 2.68 0 01-.665-1.77 2.695 2.695 0 012.691-2.692zm.083 1.237a1.069 1.069 0 00-.322.044.863.863 0 00-.277.139.66.66 0 00-.194.232.745.745 0 00-.077.33.684.684 0 00.156.472c.108.126.24.217.398.277.07.03.146.059.227.085.08.027.155.056.222.088a.61.61 0 01.169.118.228.228 0 01.07.174.25.25 0 01-.125.22.515.515 0 01-.288.072.915.915 0 01-.383-.091 1.16 1.16 0 01-.32-.213l-.276.387c.026.029.069.067.128.108a1.453 1.453 0 00.486.256 1.268 1.268 0 00.706.006.856.856 0 00.298-.15.712.712 0 00.278-.576.692.692 0 00-.065-.333.792.792 0 00-.187-.245 1.188 1.188 0 00-.26-.178 2.277 2.277 0 00-.294-.126c-.046-.016-.097-.034-.147-.055a.873.873 0 01-.144-.07.325.325 0 01-.109-.099.223.223 0 01-.039-.131.208.208 0 01.113-.187.437.437 0 01.254-.055.89.89 0 01.314.067c.084.038.166.085.24.14l.271-.381a2.055 2.055 0 00-.363-.227 1.076 1.076 0 00-.454-.098h-.006zM20.928 14.14c-.112 0-.814.005-.83 0v-.428c-.032.028-.052.045-.07.063-.298.282-.657.373-1.057.334a1.472 1.472 0 01-1.167-.763 1.526 1.526 0 01-.182-.565 1.815 1.815 0 01.125-1.026c.248-.544.676-.832 1.272-.878a1.294 1.294 0 011.076.398v-.414h.833v3.278zm8.917-2.771l.024.013a.128.128 0 01.012-.032c.196-.288.482-.404.817-.426.284-.029.57.034.817.18a1.18 1.18 0 01.573.871c.033.255.05.51.05.767.006.435 0 .93 0 1.38v.002h-.809v-.092c0-.415.006-.889-.004-1.304a3.236 3.236 0 00-.065-.565c-.084-.41-.38-.569-.77-.516-.347.048-.56.277-.61.648a3.532 3.532 0 00-.035.456c-.004.434 0 .942 0 1.387-.027.004-.672 0-.802 0v-3.22a.47.47 0 01.006-.058h.796v.509zm-1.401 2.766c-.113 0-.814.006-.83 0v-.427a1.77 1.77 0 00-.07.064c-.299.282-.657.372-1.057.333a1.473 1.473 0 01-1.167-.762 1.528 1.528 0 01-.182-.566 1.816 1.816 0 01.126-1.025c.247-.544.675-.833 1.27-.88a1.293 1.293 0 011.078.4v-.415h.832v3.278zm-5.2-4.242c.269-.009.536.051.775.174.655.361.72 1.225.281 1.72l-.041.05c.058.043.111.08.161.125.313.275.425.629.4 1.036-.027.462-.379.936-1.02 1.066a3.417 3.417 0 01-.635.069c-.51.009-1.08 0-1.59 0v-4.24h1.67zm10.253 2.175c.11-.128.204-.236.296-.347.215-.254.617-.736.724-.852h1.174l-.304.34a256.137 256.137 0 01-.957 1.082.102.102 0 00.021.122c.398.542.791 1.09 1.185 1.634.016.022.03.046.054.082h-1.035c-.03-.03-.552-.791-.82-1.16-.009-.013-.021-.024-.037-.042-.099.097-.197.19-.289.29a.153.153 0 00-.017.093v.817h-.815v-4.23h.82v2.171zm-17.777-1.24c.214 0 .418.04.612.122.194.081.364.199.51.351.146.153.26.34.344.561.083.215.12.462.11.741l-.007.182h-2.398l.008.028a.76.76 0 00.137.277c.06.075.13.138.206.188v.001c.037.022.077.041.118.059l.125.045c.085.02.165.032.24.037.145.004.276-.003.391-.023h.001a2.41 2.41 0 00.168-.04l.147-.049c.095-.039.177-.08.248-.125.061-.044.118-.085.168-.125l.372.524-.263.19a1.785 1.785 0 01-.314.18c-.058.024-.12.045-.188.064l-.214.05c-.152.034-.328.05-.529.05-.219 0-.426-.037-.62-.113a1.691 1.691 0 01-.519-.338 1.657 1.657 0 01-.357-.525 1.707 1.707 0 01-.13-.675c0-.226.033-.437.1-.633a1.469 1.469 0 01.831-.874c.204-.086.439-.13.703-.13zm-3.306-.943c.268.006.5.056.698.152.196.095.384.212.556.35l-.415.584a2.023 2.023 0 00-.372-.218 1.365 1.365 0 00-.485-.105.686.686 0 00-.39.083.321.321 0 00-.176.29c0 .076.019.144.062.202a.6.6 0 00.166.15c.067.044.144.08.223.108.08.03.154.06.228.087.15.052.302.12.452.193.148.077.284.166.403.274v-.001c.12.108.215.234.286.379.07.144.104.316.101.512-.003.191-.042.36-.119.511a1.153 1.153 0 01-.31.38 1.368 1.368 0 01-.46.23 1.858 1.858 0 01-.565.07 1.853 1.853 0 01-.522-.08 2.5 2.5 0 01-.428-.178 2.163 2.163 0 01-.52-.39l.425-.594c.138.129.305.24.495.329.191.089.387.135.59.139a.789.789 0 00.443-.11.387.387 0 00.19-.336.36.36 0 00-.104-.27.962.962 0 00-.261-.182 2.915 2.915 0 00-.341-.136 3.742 3.742 0 01-.352-.129 1.51 1.51 0 01-.611-.427c-.166-.191-.246-.434-.24-.726.003-.19.043-.36.12-.504.077-.145.176-.264.302-.356.123-.092.264-.163.423-.212.16-.05.326-.072.498-.069h.01zm7.678 2.722c.084-.674-.451-1.106-1.061-.951-.38.095-.618.44-.627.858h.003c.008.084.02.167.036.248.156.628.906.749 1.33.448.204-.147.289-.363.319-.603zm7.516-.003c.084-.674-.453-1.106-1.063-.951-.379.095-.617.438-.626.857h.004c.008.084.02.167.035.25.157.627.906.747 1.33.447.204-.147.29-.362.32-.603zm-5.154-.25c-.04 0-.057.011-.057.057v.892c.03 0 .049.004.067.004.279 0 .558 0 .836-.005.107 0 .213-.012.317-.032.347-.068.434-.3.362-.59-.05-.2-.217-.285-.404-.296-.373-.022-.747-.022-1.12-.03zm-6.757-.828a.995.995 0 00-.546.164.7.7 0 00-.192.21v.001l-.02.036a.492.492 0 00-.07.2l-.005.025h1.652l-.005-.026a.567.567 0 00-.088-.237.903.903 0 00-.17-.179c-.139-.125-.325-.19-.556-.194zm6.707.004h.875a.875.875 0 00.192-.028.354.354 0 00.282-.33c.005-.232-.072-.357-.266-.41a1.09 1.09 0 00-.274-.04c-.266-.006-.534-.004-.809-.004v.812z" fill="#EA5F00"/></g><rect x=".5" y=".5" width="37" height="23" rx="2.5" stroke="#000" stroke-opacity=".07"/><defs><clipPath id="pi-clip0_97_2505"><rect width="38" height="24" rx="3" fill="#fff"/></clipPath></defs></svg>