<svg width="38" height="24" viewBox="0 0 38 24" role="img" fill="none" xmlns="http://www.w3.org/2000/svg" aria-labelledby="pi-seabankph"><title id="pi-seabankph">SeaBank</title><g clip-path="url(#pi-clip0_97_2531)"><path d="M38-7H0v38h38V-7z" fill="#fff"/><g clip-path="url(#pi-clip1_97_2531)"><path fill-rule="evenodd" clip-rule="evenodd" d="M10.472 16.338a2.765 2.765 0 01-.783.15c-1.068.044-1.832-.278-2.57-.594-.657-.278-1.273-.542-2.026-.5a2.44 2.44 0 00-1.237.473.346.346 0 00.182.602.345.345 0 00.25-.066c.251-.18.546-.292.854-.322.578-.028 1.104.191 1.71.45.688.292 1.457.619 2.48.649.125.003.255 0 .382-.005.335-.014.666-.076.982-.186a.346.346 0 00.214-.437.342.342 0 00-.437-.214z" fill="#2673DD"/><path fill-rule="evenodd" clip-rule="evenodd" d="M11.566 14.8c-.325.226-.983.607-1.735.638-.959.04-1.584-.235-2.247-.522-.7-.304-1.42-.62-2.512-.576-1.01.04-1.865.614-2.284.954a.354.354 0 00.181.637.352.352 0 00.265-.083c.353-.282 1.064-.764 1.866-.793.928-.038 1.545.23 2.197.516.639.28 1.297.565 2.243.585.105.003.215 0 .322-.007.927-.035 1.719-.493 2.11-.762a.355.355 0 00-.14-.642.356.356 0 00-.266.057V14.8z" fill="#2673DD"/><path fill-rule="evenodd" clip-rule="evenodd" d="M7.443 6.82a4.77 4.77 0 00-4.255 2.602 4.771 4.771 0 00.387 4.973c.206-.1.42-.183.638-.249a4.108 4.108 0 115.43.917c.105 0 .219 0 .335-.007.373-.02.727-.187 1.023-.325.755-.844 1.217-1.909 1.217-3.135a4.778 4.778 0 00-4.775-4.777z" fill="#EA5F00"/><path fill-rule="evenodd" clip-rule="evenodd" d="M7.711 14.564l.01.004c.414.17.815.333 1.28.42a3.761 3.761 0 10-4.388-.948c.117-.02.235-.034.353-.041 1.194-.072 2.02.267 2.745.565zm.27-2.534a.896.896 0 00-.237-.164 2.616 2.616 0 00-.31-.121 3.427 3.427 0 01-.315-.12 1.35 1.35 0 01-.555-.387c-.15-.173-.219-.395-.219-.66 0-.16.035-.316.105-.459a.926.926 0 01.272-.326c.116-.087.247-.152.386-.193a1.48 1.48 0 01.45-.062h.008a1.5 1.5 0 01.635.136c.18.087.349.193.507.316l-.377.532a1.855 1.855 0 00-.337-.195 1.256 1.256 0 00-.438-.094.616.616 0 00-.354.077.287.287 0 00-.159.262.31.31 0 00.053.184c.04.057.092.104.153.137.064.039.131.072.201.098.07.029.142.053.206.077.14.05.277.108.408.175.133.067.256.15.366.25a1.1 1.1 0 01.263.342c.068.145.1.305.09.465a1.004 1.004 0 01-.389.808 1.2 1.2 0 01-.416.21 1.79 1.79 0 01-1.374-.172c-.103-.055-.2-.12-.291-.193a1.16 1.16 0 01-.179-.15l.386-.54c.131.122.283.223.447.296.167.082.35.125.536.128a.715.715 0 00.401-.102.348.348 0 00.174-.306.313.313 0 00-.097-.245v-.004zM15.935 10.155a1.733 1.733 0 00-.368-.25 3.652 3.652 0 00-.413-.176l-.21-.079a.974.974 0 01-.206-.099.546.546 0 01-.152-.137.305.305 0 01-.056-.185.295.295 0 01.16-.263.625.625 0 01.357-.076c.153.005.303.037.444.096.12.054.234.12.34.199l.38-.534a2.662 2.662 0 00-.509-.32 1.536 1.536 0 00-.638-.139h-.008a1.468 1.468 0 00-.455.062c-.14.042-.272.108-.389.195a.947.947 0 00-.275.326c-.073.142-.11.3-.11.46a.946.946 0 00.222.665c.15.175.343.31.56.39.104.046.21.085.32.119.106.035.21.076.312.124.088.041.169.097.239.165a.33.33 0 01.095.248.354.354 0 01-.175.306.72.72 0 01-.405.101 1.304 1.304 0 01-.54-.126 1.729 1.729 0 01-.452-.301l-.388.543c.04.04.098.092.18.163a2.03 2.03 0 00.686.357c.325.095.669.097.995.008.152-.043.295-.114.42-.21a1.02 1.02 0 00.394-.813 1.02 1.02 0 00-.355-.818v-.001zM25.463 10.014c.036-.036.069-.073.1-.113a.704.704 0 00.095-.153.976.976 0 00.072-.216c.02-.1.03-.202.029-.304a1.007 1.007 0 00-.24-.64 1.104 1.104 0 00-.28-.232.913.913 0 00-.368-.12 2.643 2.643 0 00-.296-.024c-.11-.003-.222-.004-.346-.004h-1.017v3.849h1.407c.129 0 .233 0 .315-.008.137-.013.27-.046.398-.099a1.008 1.008 0 00.551-.556c.055-.14.082-.29.079-.442 0-.257-.053-.46-.152-.613a.904.904 0 00-.347-.326zm-1.62-1.139h.625c.085 0 .16.009.221.016a.637.637 0 01.316.126.328.328 0 01.123.271c.003.15-.04.258-.12.321a.666.666 0 01-.319.12c-.073.01-.147.015-.221.013h-.625v-.867zm1.328 2.344c-.096.088-.247.14-.455.153a3.029 3.029 0 01-.244.008h-.629v-.995h.32c.102 0 .195 0 .285-.004.077-.004.155-.004.233 0 .203.01.358.057.47.14a.412.412 0 01.127.158.41.41 0 01.038.197.444.444 0 01-.145.346v-.003zM19.431 9.996a1.488 1.488 0 00-.316-.512 1.358 1.358 0 00-.464-.32 1.641 1.641 0 00-1.201.007 1.348 1.348 0 00-.76.8 1.756 1.756 0 00-.094.579 1.502 1.502 0 00.447 1.097c.138.134.301.24.48.31.178.072.369.108.561.105.162.003.323-.012.482-.044.126-.022.25-.057.368-.105.101-.045.198-.1.288-.164.084-.058.164-.116.24-.175l-.34-.478a2.41 2.41 0 01-.154.113 1.425 1.425 0 01-.514.196 1.349 1.349 0 01-.575-.014.951.951 0 01-.222-.095.825.825 0 01-.187-.17.684.684 0 01-.125-.254l-.008-.026h2.192l.006-.166c.013-.23-.02-.461-.1-.678l-.004-.006zm-2.122.272l.003-.023a.44.44 0 01.066-.182l.018-.032a.63.63 0 01.175-.193.902.902 0 01.5-.15c.21.004.38.063.507.178.058.047.11.101.152.162.044.066.072.14.081.219l.004.024-1.506-.003zM22.019 9.346l-.044-.037a.999.999 0 00-.337-.185 1.267 1.267 0 00-.45-.073 1.308 1.308 0 00-.545.113c-.166.07-.316.174-.438.306-.129.14-.228.306-.292.485-.073.201-.11.413-.105.627-.002.197.034.394.105.578.067.172.167.33.293.465.124.134.273.242.438.32.17.075.356.113.543.112.153.003.305-.02.451-.066.124-.044.238-.111.336-.198l.044-.04v.304h.679V9.138h-.678v.208zm-.063 1.578a.706.706 0 01-.407.414.795.795 0 01-.572 0 .741.741 0 01-.247-.166c-.145-.15-.219-.35-.219-.6a.86.86 0 01.219-.6.701.701 0 01.54-.239.724.724 0 01.52.218c.075.076.131.167.168.266.084.23.084.481 0 .71l-.002-.003zM28.375 9.346l-.044-.037a.992.992 0 00-.336-.185 1.267 1.267 0 00-.451-.073 1.308 1.308 0 00-.544.113c-.166.07-.316.174-.438.306a1.455 1.455 0 00-.293.485c-.073.201-.108.413-.105.627-.001.197.034.394.105.578a1.445 1.445 0 00.73.784c.172.076.358.114.545.113.153.003.306-.02.452-.066.123-.044.238-.111.336-.198l.043-.04v.304h.68V9.15h-.68v.196zm-.063 1.578a.715.715 0 01-.687.463.734.734 0 01-.539-.218c-.145-.15-.219-.35-.219-.6a.857.857 0 01.22-.6.702.702 0 01.54-.239c.096 0 .191.019.28.057.09.035.172.09.24.161a.76.76 0 01.167.263c.084.23.084.481 0 .71l-.002.003zM34.003 10.41l1.231-1.351h-.894l-1.019 1.108V8.168h-.678v3.889h.68v-.882l.225-.253.887 1.135h.841l-1.273-1.648zM32.03 9.732a1.004 1.004 0 00-.356-.463 1.06 1.06 0 00-.657-.197c-.143 0-.285.023-.42.066a.947.947 0 00-.342.179v-.163h-.69v2.903h.689v-1.555c.003-.1.013-.2.028-.299a.787.787 0 01.085-.26.49.49 0 01.183-.174.602.602 0 01.302-.078c.133-.011.265.03.368.116a.574.574 0 01.19.324c.018.083.03.167.035.252.007.1.011.247.011.44v1.235h.674v-1.402c0-.19-.006-.355-.018-.496a1.551 1.551 0 00-.082-.428z" fill="#EA5F00"/><path d="M15.325 15.394h-.952l-.18.498h-.58l.982-2.42h.503l.986 2.42h-.579l-.18-.498zm-.805-.403h.659l-.332-.906-.327.905zM18.168 15.007h-.432v.885h-.517v-2.42h.951c.311 0 .551.064.72.192a.637.637 0 01.254.54.694.694 0 01-.117.412.782.782 0 01-.355.263l.57.988v.023h-.58l-.494-.883zm-.432-.426h.438c.136 0 .241-.01.316-.073a.325.325 0 00.112-.262.334.334 0 00-.024-.146.362.362 0 00-.082-.124c-.07-.065-.179-.087-.325-.087h-.435v.692z" fill="#7A7A7A"/><path fill-rule="evenodd" clip-rule="evenodd" d="M29.303 14.594a1.105 1.105 0 00-.062.382c-.001.129.02.257.062.379a.919.919 0 00.168.293.753.753 0 00.57.258c.091.004.181-.014.264-.052a.632.632 0 00.22-.167v.202h.468v-1.793h-.468v.17a.628.628 0 00-.22-.168.573.573 0 00-.263-.052.752.752 0 00-.57.254.919.919 0 00-.17.294zm.805.876c.237 0 .43-.22.43-.49 0-.271-.193-.49-.43-.49s-.43.219-.43.49c0 .27.193.49.43.49zM19.582 15.533a.611.611 0 00.213.285c.106.08.316.12.474.12.085 0 .17-.013.25-.04a.567.567 0 00.205-.11v.1h.491v-1.78h-.491v.934a1.517 1.517 0 01-.018.184.479.479 0 01-.052.157.292.292 0 01-.11.106.352.352 0 01-.18.048.303.303 0 01-.22-.072.351.351 0 01-.113-.198 1.08 1.08 0 01-.02-.154 3.247 3.247 0 01-.007-.253v-.752h-.48v.858c0 .117.004.218.01.304.004.09.02.178.048.263z" fill="#7A7A7A"/><path d="M22.747 14.546a1.492 1.492 0 00-.188-.014c-.198 0-.327.061-.389.184v1.176h-.523v-1.797h.494l.014.214a.494.494 0 01.436-.247c.055 0 .11.007.163.022l-.007.462zM25.586 15.887h-.516v-2.42h.516v2.42z" fill="#7A7A7A"/><path fill-rule="evenodd" clip-rule="evenodd" d="M28.61 14.586a.88.88 0 00.071-.071.586.586 0 00.12-.231.812.812 0 00.02-.191.57.57 0 00-.17-.403.77.77 0 00-.462-.221 2.346 2.346 0 00-.21-.015 11.93 11.93 0 00-.247-.003h-.683v2.42h.958c.092 0 .166 0 .224-.005.097-.008.192-.029.283-.062a.724.724 0 00.233-.137.699.699 0 00.158-.21.646.646 0 00.058-.278.624.624 0 00-.353-.593zm-1.112-.715h.404c.06 0 .114.005.158.01.08.007.158.034.226.079a.21.21 0 01.067.075c.015.03.022.063.02.095a.226.226 0 01-.085.201.506.506 0 01-.227.076c-.052.007-.105.01-.158.009h-.405v-.545zm.904 1.472a.583.583 0 01-.324.096 2.499 2.499 0 01-.173.005h-.407v-.625h.39c.055-.003.11-.003.166 0 .117 0 .232.03.334.088.038.024.069.058.09.098.02.038.03.08.028.124a.246.246 0 01-.025.118.288.288 0 01-.079.098v-.002zM33.063 14.467a.612.612 0 00-.214-.286c-.105-.08-.315-.12-.473-.12a.816.816 0 00-.251.04.548.548 0 00-.204.11v-.1h-.492v1.78h.492v-.935a1.43 1.43 0 01.017-.183.495.495 0 01.052-.157.3.3 0 01.11-.106.355.355 0 01.18-.048.3.3 0 01.22.067.354.354 0 01.113.198c.01.051.017.103.02.155.005.06.008.133.008.252v.755h.482v-.855a3.86 3.86 0 00-.01-.304.974.974 0 00-.05-.263zM34.441 14.813l.81-.886h-.587l-.669.727v-1.185h-.48v2.427h.48v-.578l.148-.166.581.744h.554l-.837-1.083zM22.975 14.594a1.103 1.103 0 00-.062.382c-.001.13.02.257.062.379a.92.92 0 00.168.293.752.752 0 00.57.258.58.58 0 00.264-.052.636.636 0 00.22-.167v.202h.468v-1.793h-.468v.17a.637.637 0 00-.22-.168.578.578 0 00-.263-.052.75.75 0 00-.57.254.917.917 0 00-.17.294zm.805.876c.237 0 .43-.22.43-.49 0-.272-.193-.49-.43-.49s-.429.219-.429.49c0 .27.192.49.43.49z" fill="#7A7A7A"/></g></g><rect x=".5" y=".5" width="37" height="23" rx="2.5" stroke="#000" stroke-opacity=".07"/><defs><clipPath id="pi-clip0_97_2531"><rect width="38" height="24" rx="3" fill="#fff"/></clipPath><clipPath id="pi-clip1_97_2531"><path fill="#fff" transform="translate(2 6.171)" d="M0 0h34v11.657H0z"/></clipPath></defs></svg>