<svg xmlns="http://www.w3.org/2000/svg" role="img" viewBox="0 0 38 24" width="38" height="24" aria-labelledby="pi-siauliubankas"><title id="pi-siauliubankas">Šiaulių bankas</title><path d="M35 0H3C1.3 0 0 1.3 0 3v18c0 1.7 1.4 3 3 3h32c1.7 0 3-1.3 3-3V3c0-1.7-1.4-3-3-3z" fill-opacity=".07" fill-rule="nonzero"/><path d="M35 1c1.1 0 2 .9 2 2v18c0 1.1-.9 2-2 2H3c-1.1 0-2-.9-2-2V3c0-1.1.9-2 2-2h32" fill="#fff" fill-rule="nonzero"/><g transform="translate(-.078 .143)"><clipPath id="pi-siauliubankas_clip1"><path d="M35 1c1.1 0 2 .9 2 2v18c0 1.1-.9 2-2 2H3c-1.1 0-2-.9-2-2V3c0-1.1.9-2 2-2h32"/></clipPath><g clip-path="url(#pi-siauliubankas_clip1)"><path d="M18.117 15.996l.023-.388c0-.18.022-1.072-.755-1.61-.545-.379-1.321-.662-1.996-1.04a3.24 3.24 0 01-.6-.433v4.408s-.019.273.059.49c.142.39.526.846 1.419.598.13-.034.25-.077.362-.128.673-.303 1.358-.805 1.488-1.897zm1.46.397V11.44s1.178-.6 1.475-.711c.97-.369 2.244.032 2.316 1.653.022.532-.1 1.04-.202 1.285-.205.492-.547.986-1.2 1.423-.788.529-2.389 1.302-2.389 1.302zm-1.437-3.866V8.035s.022-.366-.09-.54c-.103-.16-.327-.332-.777-.281-.882.101-1.834 1.104-2.017 1.435-.386.704-.524 1.808.54 2.615.76.578 2.344 1.263 2.344 1.263zm2.342-6.855c-.742.163-.905.572-.905 1.198v3.048s1.706-.764 2.026-.968c1.852-1.171.837-3.713-1.12-3.278z" fill="#002d64" fill-rule="nonzero"/></g></g></svg>