<svg role="img" aria-labelledby="pi-skeps" width="38" height="24" viewBox="0 0 38 24" fill="none" xmlns="http://www.w3.org/2000/svg"><title id="pi-skeps">Skeps</title><path fill="#000" opacity=".07" d="M35 0H3C1.3 0 0 1.3 0 3v18c0 1.7 1.4 3 3 3h32c1.7 0 3-1.3 3-3V3c0-1.7-1.4-3-3-3z"/><path fill="#36005C" d="M35 1c1.1 0 2 .9 2 2v18c0 1.1-.9 2-2 2H3c-1.1 0-2-.9-2-2V3c0-1.1.9-2 2-2h32"/><g fill="#fff"><path d="M29.072 11.091L27.134 8.79a.515.515 0 00-.395-.184h-2.072l3 3.45a.167.167 0 01.003.22l-2.994 3.406h2.092c.15 0 .294-.066.392-.18l1.912-2.233a1.66 1.66 0 000-2.178zM10.732 6H9.196a.154.154 0 00-.154.154v9.435c0 .085.069.154.154.154h1.536a.154.154 0 00.154-.154V6.154A.154.154 0 0010.732 6z" fill-rule="nonzero"/><path d="M24.522 8.606h-1.536a.154.154 0 00-.154.154v9.435c0 .085.069.154.154.154h1.536a.154.154 0 00.154-.154V8.76a.154.154 0 00-.154-.154zM12.889 12.027l2.994-3.406H13.79a.515.515 0 00-.392.18l-1.912 2.233a1.66 1.66 0 000 2.177l1.937 2.302a.515.515 0 00.395.183h2.073l-3.001-3.45a.167.167 0 01-.002-.22zM5.182 11.292l.763.075c1.583.158 2.258.807 2.258 2.171 0 .85-.276 1.492-.822 1.91-.51.39-1.256.589-2.22.589-1.621 0-2.633-.72-3.092-1.15a.223.223 0 01-.005-.318l.044-.065.757-.884a.191.191 0 01.277-.017l.076.07c.515.476 1.324.795 2.015.795.826 0 1.227-.25 1.227-.767 0-.407-.165-.617-1.102-.708l-.763-.074c-1.573-.162-2.243-.814-2.243-2.178 0-.806.253-1.41.753-1.799.466-.361 1.162-.545 2.07-.545 1.024 0 1.985.318 2.704.894.115.092.109.229.044.316l-.736.872c-.078.098-.193.116-.307.047a3.272 3.272 0 00-1.793-.575c-.668 0-.992.214-.992.655 0 .385.168.596 1.087.686zM33.242 11.367l-.763-.075c-.92-.09-1.087-.301-1.087-.686 0-.44.324-.655.991-.655.724 0 1.4.296 1.794.575.114.07.23.051.307-.047l.736-.872a.225.225 0 00-.044-.316c-.72-.576-1.68-.894-2.704-.894-.908 0-1.604.184-2.07.545-.5.388-.753.993-.753 1.799 0 1.364.67 2.016 2.243 2.178l.763.074c.937.09 1.102.3 1.102.708 0 .516-.401.767-1.227.767-.69 0-1.5-.32-2.015-.795l-.076-.07a.191.191 0 00-.277.017l-.757.884-.044.065a.223.223 0 00.005.318c.459.43 1.47 1.15 3.091 1.15.965 0 1.712-.198 2.22-.589.546-.418.823-1.06.823-1.91 0-1.364-.675-2.013-2.257-2.172z" fill-rule="nonzero"/><path d="M16.577 9.228c.59-.528 1.406-.83 2.242-.83 1.47 0 2.597.758 3.015 2.028.16.495.242.968.242 2.177 0 .136-.098.228-.243.228H17.34v.007c0 .142.073.37.136.521.263.677.805 1.035 1.566 1.035.711 0 1.267-.242 1.698-.738l.03-.033a.2.2 0 01.14-.063c.057 0 .109.024.145.065l.817.94a.191.191 0 01-.001.25 9.327 9.327 0 01-.11.122c-.688.71-1.706 1.1-2.867 1.1-1.721 0-3.463-1.312-3.463-3.82 0-1.283.396-2.317 1.146-2.99zm3.662 2.197v-.01c0-.23-.025-.404-.085-.583-.18-.542-.666-.866-1.32-.866-.653 0-1.167.325-1.374.87-.063.165-.12.334-.12.576v.013h2.899z"/></g></svg>