<svg xmlns="http://www.w3.org/2000/svg" role="img" viewBox="0 0 38 24" width="38" height="24" aria-labelledby="pi-snap_checkout"><title id="pi-snap_checkout">Snap Checkout</title><path fill="#000" opacity=".07" d="M35 0H3C1.3 0 0 1.3 0 3v18c0 1.7 1.4 3 3 3h32c1.7 0 3-1.3 3-3V3c0-1.7-1.4-3-3-3z"/><path fill="#fff" d="M35 1c1.1 0 2 .9 2 2v18c0 1.1-.9 2-2 2H3c-1.1 0-2-.9-2-2V3c0-1.1.9-2 2-2h32"/><mask id="pi-snap_checkout-mask0_28621_51852" style="mask-type:luminance" maskUnits="userSpaceOnUse" x="1" y="4" width="36" height="16"><path d="M36.123 4.376H1.877v15.247h34.246V4.376z" fill="#fff"/></mask><g mask="url(#pi-snap_checkout-mask0_28621_51852)"><path d="M6.134 14.774a2.826 2.826 0 01-1.127-.885 2.204 2.204 0 01-.443-1.251h1.631c.028.323.182.592.464.808.28.217.634.325 1.058.325.423 0 .785-.085 1.029-.256.244-.17.366-.39.366-.656 0-.286-.136-.498-.408-.636-.272-.139-.703-.29-1.293-.457a12.671 12.671 0 01-1.396-.456 2.449 2.449 0 01-.933-.677c-.263-.304-.394-.705-.394-1.202 0-.406.12-.777.36-1.113.239-.337.582-.602 1.029-.795.446-.193.96-.29 1.541-.29.867 0 1.565.218 2.095.656.53.438.813 1.034.85 1.79H8.986a1.122 1.122 0 00-.415-.816c-.249-.202-.585-.304-1.009-.304-.423 0-.733.079-.953.235a.729.729 0 00-.332.622c0 .203.074.373.22.511.148.139.327.247.54.325.211.079.525.178.94.297.552.148 1.006.298 1.362.45.354.152.661.376.92.67.257.295.39.687.4 1.175 0 .434-.12.82-.36 1.16-.239.341-.578.61-1.015.803-.438.193-.952.29-1.542.29-.59 0-1.135-.108-1.61-.325l.002.002zM16.957 7.606c.474.25.845.618 1.113 1.106.267.489.4 1.079.4 1.77v4.492h-1.562v-4.257c0-.682-.171-1.205-.512-1.569-.34-.364-.806-.546-1.396-.546-.59 0-1.058.183-1.403.546-.346.364-.518.887-.518 1.57v4.256h-1.577V7.357h1.576v.871c.259-.313.588-.557.989-.733.4-.174.827-.263 1.278-.263.599 0 1.136.125 1.61.373l.002.001zM19.777 9.099a3.5 3.5 0 011.3-1.376 3.485 3.485 0 011.817-.49c.599 0 1.122.117 1.57.352.446.235.803.528 1.07.878V7.357h1.59v7.616h-1.59V13.84c-.266.36-.63.658-1.091.899-.462.24-.987.359-1.577.359a3.345 3.345 0 01-1.796-.504 3.582 3.582 0 01-1.293-1.41c-.318-.604-.477-1.288-.477-2.054 0-.765.16-1.442.477-2.032zm5.433.69a2.23 2.23 0 00-1.983-1.19 2.24 2.24 0 00-1.983 1.168c-.218.384-.325.837-.325 1.363s.107.987.324 1.383c.217.397.503.698.857.906.354.207.73.311 1.127.311.396 0 .783-.101 1.133-.304.35-.202.634-.5.85-.891.217-.392.325-.85.325-1.376 0-.526-.11-.982-.325-1.368V9.79zM30.98 7.592c.46-.24.982-.36 1.563-.36.663 0 1.268.164 1.817.491.548.327.98.786 1.293 1.376.313.59.47 1.267.47 2.032 0 .766-.157 1.45-.47 2.053a3.51 3.51 0 01-1.293 1.41 3.406 3.406 0 01-1.817.505c-.581 0-1.098-.118-1.549-.352a3.46 3.46 0 01-1.106-.878v4.728h-1.576V7.357h1.576v1.12c.267-.35.631-.645 1.092-.884v-.001zm3.214 2.176a2.226 2.226 0 00-.857-.87 2.302 2.302 0 00-1.14-.298c-.405 0-.772.101-1.126.305-.356.203-.641.497-.857.885-.217.387-.325.843-.325 1.368 0 .525.108.984.325 1.376a2.253 2.253 0 001.983 1.195 2.25 2.25 0 001.14-.311c.355-.207.641-.51.857-.906.217-.396.325-.857.325-1.383s-.108-.979-.325-1.362v.001z" fill="#062D4E"/><path d="M4.798 7.22a.506.506 0 100-1.013.506.506 0 000 1.013z" fill="#1B844A"/><path d="M2.862 10.089a.457.457 0 01-.164-.876l.6-.267a.458.458 0 01.372.837l-.6.267a.455.455 0 01-.208.039z" fill="#062D4E"/><path d="M6.277 6.642a.46.46 0 01-.429-.54L6.08 4.83a.458.458 0 11.901.164L6.75 6.267a.458.458 0 01-.472.375z" fill="#FFCA4D"/><path d="M3.818 8.339a.448.448 0 01-.148-.033l-1.506-.603a.46.46 0 01.34-.85l1.506.602a.46.46 0 01-.192.884z" fill="#3D5CCF"/><path d="M3.93 6.056a.456.456 0 01-.352-.195l-.538-.764a.458.458 0 11.75-.527l.537.764a.458.458 0 01-.396.72v.002zM8.458 17.647H8.03v1.938h-.797v-1.938h-.288v-.661h.288v-.075c0-.32.092-.563.275-.73.184-.165.452-.248.806-.248.059 0 .102.002.13.005v.675c-.152-.01-.259.012-.322.064-.061.053-.093.148-.093.285v.024h.43v.661zM9.382 16.591a.401.401 0 01-.132-.305c0-.12.044-.227.132-.31a.483.483 0 01.343-.124c.139 0 .249.042.337.124a.406.406 0 01.133.31.396.396 0 01-.133.305.476.476 0 01-.337.124.488.488 0 01-.343-.123zm.739.394v2.6h-.797v-2.6h.797zM13.384 17.254c.182.198.273.468.273.814v1.52h-.792v-1.412c0-.174-.045-.31-.135-.405a.474.474 0 00-.363-.145.472.472 0 00-.363.145c-.09.096-.136.231-.136.405v1.411h-.797v-2.6h.797v.345a.84.84 0 01.326-.273c.136-.067.29-.1.461-.1.304 0 .548.098.73.295zM14.535 17.577c.101-.202.239-.357.413-.466.173-.109.368-.163.582-.163.183 0 .344.037.481.112a.833.833 0 01.32.294v-.369h.796v2.6h-.797v-.368a.862.862 0 01-.323.294 1 1 0 01-.482.111c-.211 0-.405-.055-.578-.165a1.143 1.143 0 01-.413-.47 1.566 1.566 0 01-.15-.706c0-.267.05-.502.15-.704h.001zm1.631.238a.537.537 0 00-.403-.173.543.543 0 00-.403.17c-.11.114-.166.27-.166.468s.055.356.166.473c.11.117.244.175.403.175a.535.535 0 00.403-.173c.111-.116.166-.272.166-.47 0-.198-.055-.355-.166-.471zM20.36 17.254c.181.198.272.468.272.814v1.52h-.792v-1.412c0-.174-.045-.31-.135-.405a.474.474 0 00-.363-.145.472.472 0 00-.363.145c-.09.096-.136.231-.136.405v1.411h-.797v-2.6h.797v.345a.84.84 0 01.326-.273c.136-.067.29-.1.461-.1.305 0 .548.098.73.295zM21.523 17.577c.11-.202.264-.357.461-.466.197-.109.423-.163.678-.163.326 0 .599.086.818.256.218.171.362.412.43.723h-.848c-.071-.2-.21-.299-.414-.299a.418.418 0 00-.349.17c-.087.114-.13.276-.13.487 0 .21.043.374.13.487.086.113.203.17.35.17.204 0 .343-.1.413-.299h.848a1.22 1.22 0 01-.433.717c-.221.174-.493.262-.816.262-.255 0-.48-.055-.678-.163a1.147 1.147 0 01-.461-.467 1.46 1.46 0 01-.166-.708c0-.271.055-.506.166-.709v.002zM27.154 18.476h-1.802a.543.543 0 00.155.37.477.477 0 00.338.129c.198 0 .337-.084.414-.252h.848a1.184 1.184 0 01-.662.783c-.17.078-.361.117-.572.117-.256 0-.482-.053-.68-.163a1.158 1.158 0 01-.467-.466 1.438 1.438 0 01-.167-.708c0-.271.054-.507.165-.709.11-.202.265-.357.464-.466a1.4 1.4 0 01.685-.163c.258 0 .475.053.67.158.197.105.35.256.46.453.11.195.166.424.166.685 0 .074-.005.152-.014.232zm-.802-.442a.412.412 0 00-.139-.326.517.517 0 00-.35-.12c-.139 0-.245.038-.337.116a.519.519 0 00-.17.33h.997z" fill="#1B844A"/></g></svg>