<svg width="38" height="24" viewBox="0 0 38 24" fill="none" xmlns="http://www.w3.org/2000/svg" role="img" aria-labelledby="pi-sofort"><title id="pi-sofort">SOFORT</title><path opacity=".07" d="M35 0H3C1.3 0 0 1.3 0 3v18c0 1.7 1.4 3 3 3h32c1.7 0 3-1.3 3-3V3c0-1.7-1.4-3-3-3Z" fill="#000"/><path d="M35 1c1.1 0 2 .9 2 2v18c0 1.1-.9 2-2 2H3c-1.1 0-2-.9-2-2V3c0-1.1.9-2 2-2h32Z" fill="#fff"/><path d="M33.555 20H3L5.322 5H36l-2.445 15Z" fill="#393A41"/><path d="M13.116 10c-1.403 0-2.47 1.243-2.47 2.725 0 1.34.875 2.274 2.066 2.274 1.403 0 2.462-1.278 2.462-2.76.008-1.349-.867-2.239-2.058-2.239Zm-.315 3.738c-.538 0-.912-.423-.912-1.076 0-.723.463-1.41 1.132-1.41.536 0 .911.441.911 1.094.008.731-.462 1.392-1.132 1.392ZM21.56 10c-1.402 0-2.461 1.243-2.461 2.725 0 1.34.875 2.274 2.066 2.274 1.403 0 2.463-1.278 2.463-2.76C23.636 10.89 22.76 10 21.562 10Zm-.307 3.738c-.537 0-.912-.423-.912-1.076 0-.723.463-1.41 1.133-1.41.535 0 .911.441.911 1.094 0 .731-.463 1.392-1.133 1.392Zm6.506-2.16c0-.9-.581-1.472-1.64-1.472h-1.485l-.654 4.787h1.25l.206-1.508h.059l.66 1.508h1.434l-.918-1.676c.684-.282 1.087-.89 1.087-1.638Zm-2 .795h-.183l.139-1.007h.169c.39 0 .595.142.595.45 0 .363-.293.557-.72.557Zm-16.547-.354c-.477-.292-.581-.362-.581-.521 0-.193.19-.29.448-.29.302 0 .758.043 1.206.554.108-.4.287-.777.529-1.11-.63-.431-1.22-.652-1.756-.652-1.066 0-1.683.687-1.683 1.516 0 .715.447 1.085.977 1.412.478.29.595.387.595.564 0 .194-.198.3-.463.3-.456 0-.986-.344-1.301-.697L7 14.426c.417.378.954.582 1.507.574 1.103 0 1.699-.671 1.699-1.527 0-.705-.382-1.084-.993-1.454Zm9.263.184h-1.47l.117-.837h1.572c.2-.491.513-.923.912-1.26h-2.573c-.573 0-1.058.467-1.14 1.102l-.499 3.694h1.25l.206-1.508h1.485l.11-.82c.007-.132.015-.247.03-.37Zm9.312-2.096c.338.308.544.74.588 1.26h1.044l-.477 3.526h1.249l.477-3.527h1.162l.169-1.26h-4.212Z" fill="#EDEDED"/></svg>