<svg version="1.1" xmlns="http://www.w3.org/2000/svg" width="38" height="24" role="img" aria-labelledby="pi-softbank" viewBox="0 0 38 24"><title id="pi-softbank">Softbank</title><path fill="#fff" d="M0 0h38v24H0z"/><path fill="#fff" d="M0 0h38v24H0z"/><path opacity=".07" fill-rule="evenodd" clip-rule="evenodd" d="M35 0H3C1.3 0 0 1.3 0 3v18c0 1.7 1.4 3 3 3h32c1.7 0 3-1.3 3-3V3c0-1.7-1.4-3-3-3z" fill="#000"/><path fill-rule="evenodd" clip-rule="evenodd" d="M35 1c1.1 0 2 .9 2 2v18c0 1.1-.9 2-2 2H3c-1.1 0-2-.9-2-2V3c0-1.1.9-2 2-2h32z" fill="#fff"/><path d="M3 10v1.566h6.36V10H3zm0 3.12v1.566h6.36V13.12H3z" fill="#BBBCBE"/><path d="M12.826 10c-.496 0-.836.121-1.064.299a.928.928 0 00-.383.753c0 .235.078.445.192.61.184.26.712.544 1.1.74.368.185.716.334.92.575a.81.81 0 01.203.573.804.804 0 01-.323.658 1.259 1.259 0 01-.765.239c-.673 0-1.027-.2-1.23-.98l-.228.06c.083.279.157.55.215.944a3.69 3.69 0 001.184.215c.565 0 .989-.165 1.255-.407.241-.216.358-.506.358-.836 0-.312-.141-.6-.275-.753-.273-.312-.64-.464-1.135-.718-.4-.203-.649-.343-.813-.502a.758.758 0 01-.215-.502.61.61 0 01.227-.49c.178-.151.436-.239.753-.239.75 0 .883.23 1.016.885l.227-.06a17.992 17.992 0 01-.155-.885A2.831 2.831 0 0012.826 10zm9.085.084v.19c.475 0 .514.034.514.491v3.168c0 .45-.039.478-.514.478v.18h2.068c.66 0 1.031-.154 1.279-.395.254-.242.358-.555.358-.873 0-.35-.177-.6-.406-.777-.273-.21-.638-.322-1.052-.335V12.2c.4-.058.67-.188.86-.36a.956.956 0 00.311-.728.88.88 0 00-.406-.741c-.343-.23-.719-.287-1.303-.287h-1.71zm-2.642.107a.906.906 0 00-.645.251c-.21.216-.311.51-.311.897v.394h-.466v.204h.466v2.068c0 .388-.034.43-.479.43v.155h1.423v-.155c-.477 0-.502-.037-.502-.418v-2.08h.8v-.204h-.8v-.37c0-.452.076-.685.203-.837a.398.398 0 01.311-.143c.197 0 .277.134.347.275.07.14.135.274.286.274.116 0 .18-.063.18-.19 0-.115-.091-.274-.275-.395a.905.905 0 00-.538-.156zm13.555 0a1.833 1.833 0 01-.765.263v.132c.344 0 .383.05.383.418v3.013c0 .368-.014.418-.383.418v.155h1.184v-.155c-.35 0-.359-.05-.359-.418v-.67l.347-.359 1.04 1.602H35v-.155c-.19.006-.338-.016-.478-.24l-.968-1.47.669-.645c.146-.14.247-.185.43-.191v-.156h-.944v.156c.306 0 .267.104.096.263l-.909.884h-.012v-2.809l-.06-.036zm-9.742.144h.61c.445 0 .73.092.908.239.14.114.24.37.24.585 0 .305-.104.53-.288.682-.23.19-.59.275-1.028.275h-.633V10.55c0-.172.027-.215.191-.215zm-2.498.597c-.082.667-.352.823-.753.861v.144h.478v2.08c0 .495.298.645.621.645a.89.89 0 00.622-.227l-.096-.144c-.127.096-.247.156-.394.156-.222 0-.31-.156-.31-.454v-2.056h.669v-.204h-.67v-.8h-.167zm-4.47.73c-.408 0-.71.117-.957.346-.254.247-.383.646-.383 1.148 0 .578.147.96.395 1.195.254.223.563.311.944.311.4 0 .703-.095.957-.323.241-.235.394-.61.394-1.183 0-.502-.146-.888-.394-1.136-.248-.235-.532-.358-.957-.358zm11.08 0a1.35 1.35 0 00-.717.179c-.204.12-.335.29-.335.442 0 .096.059.191.18.191.133 0 .195-.066.227-.155.058-.14.108-.248.191-.31a.644.644 0 01.43-.144c.21 0 .36.064.455.191.083.108.107.296.107.442v.275l-.37.084c-.407.088-.728.224-.945.37-.279.184-.394.414-.394.706 0 .241.098.417.25.538a.938.938 0 00.587.191c.419 0 .669-.143.884-.347h.024c.058.21.197.323.418.323a.831.831 0 00.383-.084l-.036-.155a.307.307 0 01-.167.048c-.127 0-.192-.12-.192-.407v-1.494c0-.28-.05-.449-.215-.633-.159-.178-.383-.251-.765-.251zm2.343 0c-.21.152-.426.218-.705.263v.143c.336-.006.37.038.37.406v1.543c0 .381-.028.418-.37.418v.155h1.112v-.155c-.3 0-.311-.037-.311-.418v-1.53c.254-.35.546-.598.813-.598.17 0 .287.049.37.131.12.128.144.326.144.574v1.423c0 .381-.018.418-.323.418v.155h1.076v-.155c-.286 0-.311-.05-.311-.407V12.57c0-.336-.08-.565-.227-.705-.14-.134-.337-.203-.61-.203-.35 0-.678.202-.932.525h-.012l-.024-.49-.06-.035zm-13.436.203c.267 0 .487.084.634.263.17.222.263.538.263 1.028 0 .514-.117.836-.275 1.04a.78.78 0 01-.61.275.806.806 0 01-.621-.275c-.16-.204-.263-.526-.263-1.04 0-.49.092-.806.263-1.028.152-.179.355-.263.61-.263zm6.79.49h.789c.52 0 .877.09 1.1.263a.842.842 0 01.346.693c0 .331-.098.571-.25.73-.217.222-.506.31-.957.31h-.79c-.196 0-.238-.044-.238-.31v-1.686zm4.841.61v1.123c-.16.159-.37.335-.681.335a.614.614 0 01-.43-.155c-.096-.095-.132-.23-.132-.395 0-.292.171-.465.418-.598.235-.146.552-.234.825-.31z" fill="#212121"/></svg>