<svg xmlns="http://www.w3.org/2000/svg" role="img" viewBox="0 0 38 24" width="38" height="24" fill="none" aria-labelledby="pi-storecredit"><title id="pi-storecredit">Store Credit</title><g clip-path="url(#pi-storecredit)"><rect width="38" height="24" rx="3" fill="#F5F5F5" /><rect x=".5" y=".5" width="37" height="23" rx="2.5" stroke="#000" stroke-opacity=".07" /><path d="m11.469 5.386-.414.532c-.684.878-1.17 2.048-.558 2.977.384.583 1.065 1.098 2.272 1.093 2.77.012 3.185-3.715 3.185-3.715S16.23 10 19 10c2.77 0 3.046-3.727 3.046-3.727s.416 3.727 3.185 3.715c1.207.005 1.888-.51 2.272-1.093.612-.93.126-2.099-.558-2.977l-.414-.532a1 1 0 0 0-.79-.386H12.259a1 1 0 0 0-.789.386ZM13 12v-.017a4.497 4.497 0 0 0 1.87-.477c.083.146.13.314.13.494v5h3v-3a1 1 0 1 1 2 0v3h3v-5c0-.18.047-.348.13-.494a4.497 4.497 0 0 0 1.87.477V17a1 1 0 1 1 0 2H13a1 1 0 1 1 0-2v-5ZM3 11a1 1 0 0 1 1-1h2a1 1 0 0 1 1 1v2a1 1 0 0 1-1 1H4a1 1 0 0 1-1-1v-2ZM32 10a1 1 0 0 0-1 1v2a1 1 0 0 0 1 1h2a1 1 0 0 0 1-1v-2a1 1 0 0 0-1-1h-2Z" fill="#707070" /></g><defs><clipPath id="pi-storecredit"><path fill="#fff" d="M0 0h38v24H0z"/></clipPath></defs></svg>