<svg viewBox="0 0 38 24" xmlns="http://www.w3.org/2000/svg" width="38" height="24" role="img" aria-labelledby="pi-stripe"><title id="pi-stripe">Stripe</title><path opacity=".07" d="M35 0H3C1.3 0 0 1.3 0 3v18c0 1.7 1.4 3 3 3h32c1.7 0 3-1.3 3-3V3c0-1.7-1.4-3-3-3z" fill="#000"/><path d="M35 1c1.1 0 2 .9 2 2v18c0 1.1-.9 2-2 2H3c-1.1 0-2-.9-2-2V3c0-1.1.9-2 2-2h32z" fill="#fff"/><path fill-rule="evenodd" clip-rule="evenodd" d="M32 12.59c0-1.849-.896-3.308-2.607-3.308-1.72 0-2.76 1.46-2.76 3.294 0 2.173 1.229 3.271 2.99 3.271.86 0 1.51-.195 2.001-.47v-1.444c-.49.246-1.054.398-1.769.398-.7 0-1.322-.246-1.401-1.098h3.532c0-.094.014-.47.014-.643zm-3.568-.686c0-.816.499-1.156.954-1.156.44 0 .91.34.91 1.156h-1.864zm-4.586-2.622a2.04 2.04 0 00-1.415.564l-.094-.448h-1.59v8.42l1.806-.382.008-2.044c.26.188.642.455 1.278.455 1.293 0 2.47-1.04 2.47-3.33-.007-2.094-1.199-3.235-2.463-3.235zm-.433 4.976c-.426 0-.68-.151-.852-.34l-.008-2.679c.188-.209.448-.353.86-.353.657 0 1.112.736 1.112 1.682 0 .968-.448 1.69-1.112 1.69zm-5.15-5.402l1.813-.39V7l-1.813.383v1.473zm0 .549h1.813v6.32h-1.813v-6.32zm-1.942.534l-.116-.534h-1.56v6.32h1.806v-4.283c.426-.556 1.148-.455 1.372-.376V9.405c-.231-.087-1.076-.246-1.502.534zm-3.612-2.101l-1.762.375-.007 5.785c0 1.07.802 1.856 1.87 1.856.593 0 1.026-.108 1.264-.238V14.15c-.23.094-1.372.426-1.372-.643v-2.564h1.372V9.405h-1.372l.007-1.567zm-4.882 3.401c0-.281.231-.39.614-.39.549 0 1.242.167 1.791.463V9.614a4.763 4.763 0 00-1.79-.332C6.974 9.282 6 10.048 6 11.326c0 1.993 2.744 1.676 2.744 2.535 0 .332-.288.44-.693.44-.6 0-1.365-.245-1.972-.577v1.719c.672.289 1.351.411 1.972.411 1.502 0 2.535-.743 2.535-2.036-.007-2.152-2.759-1.77-2.759-2.579z" fill="#635BFF"/></svg>