<svg width="38" height="24" viewBox="0 0 38 24" fill="none" xmlns="http://www.w3.org/2000/svg" role="img" aria-labelledby="pi-swish"><title id="pi-swish">Swish</title><path opacity=".07" d="M35 0H3C1.3 0 0 1.3 0 3v18c0 1.7 1.4 3 3 3h32c1.7 0 3-1.3 3-3V3c0-1.7-1.4-3-3-3z" fill="#000"/><path d="M35 1c1.1 0 2 .9 2 2v18c0 1.1-.9 2-2 2H3c-1.1 0-2-.9-2-2V3c0-1.1.9-2 2-2h32z" fill="#fff"/><path fill-rule="evenodd" clip-rule="evenodd" d="M25.239 15.231c.025-.241.037-.487.037-.737 0-.168-.009-.334-.024-.495a5.662 5.662 0 00-.049-.544c-.209-1.489-.868-2.79-1.979-3.901a7.384 7.384 0 00-1.389-1.1l1.545-1.92c.193.153.382.322.567.507a6.865 6.865 0 011.291 1.727c.509.975.762 2.05.762 3.226 0 .354-.02.701-.061 1.039a6.87 6.87 0 01-.7 2.198z" fill="url(#pi-swish-paint0_radial_765_9)"/><path fill-rule="evenodd" clip-rule="evenodd" d="M21.836 8.455c.49.298.954.665 1.389 1.1 1.11 1.111 1.77 2.412 1.979 3.901.024.178.041.359.049.544.016.161.024.327.024.495 0 .25-.012.496-.037.737a7.633 7.633 0 01-1.291 1.728C22.58 18.319 20.932 19 19 19a6.93 6.93 0 01-2.728-.531 5.772 5.772 0 001.882.302c1.601 0 2.969-.567 4.103-1.703.379-.378.697-.785.954-1.22.032-.064.064-.125.097-.182.435-.813.651-1.715.651-2.705 0-1.603-.567-2.972-1.702-4.107a9.383 9.383 0 00-.421-.399z" fill="url(#pi-swish-paint1_radial_765_9)"/><path fill-rule="evenodd" clip-rule="evenodd" d="M16.164 15.533a7.245 7.245 0 01-1.255-1.015c-1.159-1.159-1.827-2.521-2.004-4.083a2.773 2.773 0 01-.024-.362 5.01 5.01 0 01-.024-.496c0-.386.027-.757.084-1.111.308-.52.68-1 1.11-1.426C15.42 5.681 17.069 5 19 5c1.07 0 2.052.206 2.944.616a5.926 5.926 0 00-2.063-.351c-1.601 0-2.969.564-4.103 1.691-.367.37-.687.784-.954 1.232a8.204 8.204 0 00-.169.327c-.386.772-.579 1.626-.579 2.56 0 1.603.567 2.972 1.702 4.108.128.121.257.237.386.35z" fill="url(#pi-swish-paint2_radial_765_9)"/><path fill-rule="evenodd" clip-rule="evenodd" d="M12.941 8.467a6.993 6.993 0 00-.084 1.111c0 .169.008.334.024.496 0 .121.008.241.024.362.177 1.562.845 2.923 2.004 4.083.394.396.813.733 1.255 1.015l-1.557 1.934c-.185-.162-.37-.331-.555-.508a7.52 7.52 0 01-1.159-1.51c-.596-1.024-.893-2.176-.893-3.456 0-.218.008-.431.024-.64a6.596 6.596 0 01.917-2.887z" fill="url(#pi-swish-paint3_radial_765_9)"/><defs><radialGradient id="pi-swish-paint0_radial_765_9" cx="0" cy="0" r="1" gradientUnits="userSpaceOnUse" gradientTransform="matrix(7.80944 0 0 7.81623 22.9 7.79)"><stop stop-color="#FDD626"/><stop offset=".365" stop-color="#F17345"/><stop offset=".663" stop-color="#F00912"/><stop offset=".878" stop-color="#EE0920"/><stop offset="1" stop-color="#E30767"/></radialGradient><radialGradient id="pi-swish-paint1_radial_765_9" cx="0" cy="0" r="1" gradientUnits="userSpaceOnUse" gradientTransform="matrix(11.3723 0 0 11.3789 22.404 8.926)"><stop stop-color="#FDD626"/><stop offset=".314" stop-color="#EB5253"/><stop offset=".506" stop-color="#EB4F65"/><stop offset=".639" stop-color="#E739CB"/><stop offset=".8" stop-color="#9E16EC"/><stop offset="1" stop-color="#5702F0"/></radialGradient><radialGradient id="pi-swish-paint2_radial_765_9" cx="0" cy="0" r="1" gradientUnits="userSpaceOnUse" gradientTransform="matrix(11.214 0 0 11.2237 15.21 14.578)"><stop stop-color="#424EE9"/><stop offset=".392" stop-color="#58C9BE"/><stop offset=".765" stop-color="#6CD82E"/><stop offset="1" stop-color="#E5DB2A"/></radialGradient><radialGradient id="pi-swish-paint3_radial_765_9" cx="0" cy="0" r="1" gradientUnits="userSpaceOnUse" gradientTransform="matrix(8.09806 0 0 8.10511 15.344 16.199)"><stop offset=".086" stop-color="#424EE9"/><stop offset=".447" stop-color="#58C9BE"/><stop offset=".71" stop-color="#59CAB5"/><stop offset="1" stop-color="#8CE785"/></radialGradient></defs></svg>