<svg viewBox="-36 25 38 24" xmlns="http://www.w3.org/2000/svg" width="38" height="24" role="img" aria-labelledby="pi-unionpay"><title id="pi-unionpay">Union Pay</title><path fill="#005B9A" d="M-36 46.8v.7-.7zM-18.3 25v24h-7.2c-1.3 0-2.1-1-1.8-2.3l4.4-19.4c.3-1.3 1.9-2.3 3.2-2.3h1.4zm12.6 0c-1.3 0-2.9 1-3.2 2.3l-4.5 19.4c-.3 1.3.5 2.3 1.8 2.3h-4.9V25h10.8z"/><path fill="#E9292D" d="M-19.7 25c-1.3 0-2.9 1.1-3.2 2.3l-4.4 19.4c-.3 1.3.5 2.3 1.8 2.3h-8.9c-.8 0-1.5-.6-1.5-1.4v-21c0-.8.7-1.6 1.5-1.6h14.7z"/><path fill="#0E73B9" d="M-5.7 25c-1.3 0-2.9 1.1-3.2 2.3l-4.4 19.4c-.3 1.3.5 2.3 1.8 2.3H-26h.5c-1.3 0-2.1-1-1.8-2.3l4.4-19.4c.3-1.3 1.9-2.3 3.2-2.3h14z"/><path fill="#059DA4" d="M2 26.6v21c0 .8-.6 1.4-1.5 1.4h-12.1c-1.3 0-2.1-1.1-1.8-2.3l4.5-19.4C-8.6 26-7 25-5.7 25H.5c.9 0 1.5.7 1.5 1.6z"/><path fill="#fff" d="M-21.122 38.645h.14c.14 0 .28-.07.28-.14l.42-.63h1.19l-.21.35h1.4l-.21.63h-1.68c-.21.28-.42.42-.7.42h-.84l.21-.63m-.21.91h3.01l-.21.7h-1.19l-.21.7h1.19l-.21.7h-1.19l-.28 1.05c-.07.14 0 .28.28.21h.98l-.21.7h-1.89c-.35 0-.49-.21-.35-.63l.35-1.33h-.77l.21-.7h.77l.21-.7h-.7l.21-.7zm4.83-1.75v.42s.56-.42 1.12-.42h1.96l-.77 2.66c-.07.28-.35.49-.77.49h-2.24l-.49 1.89c0 .07 0 .14.14.14h.42l-.14.56h-1.12c-.42 0-.56-.14-.49-.35l1.47-5.39h.91zm1.68.77h-1.75l-.21.7s.28-.21.77-.21h1.05l.14-.49zm-.63 1.68c.14 0 .21 0 .21-.14l.14-.35h-1.75l-.14.56 1.54-.07zm-1.19.84h.98v.42h.28c.14 0 .21-.07.21-.14l.07-.28h.84l-.14.49c-.07.35-.35.49-.77.56h-.56v.77c0 .14.07.21.35.21h.49l-.14.56h-1.19c-.35 0-.49-.14-.49-.49l.07-2.1zm4.2-2.45l.21-.84h1.19l-.07.28s.56-.28 1.05-.28h1.47l-.21.84h-.21l-1.12 3.85h.21l-.21.77h-.21l-.07.35h-1.19l.07-.35h-2.17l.21-.77h.21l1.12-3.85h-.28m1.26 0l-.28 1.05s.49-.21.91-.28c.07-.35.21-.77.21-.77h-.84zm-.49 1.54l-.28 1.12s.56-.28.98-.28c.14-.42.21-.77.21-.77l-.91-.07zm.21 2.31l.21-.77h-.84l-.21.77h.84zm2.87-4.69h1.12l.07.42c0 .07.07.14.21.14h.21l-.21.7h-.77c-.28 0-.49-.07-.49-.35l-.14-.91zm-.35 1.47h3.57l-.21.77h-1.19l-.21.7h1.12l-.21.77h-1.26l-.28.42h.63l.14.84c0 .07.07.14.21.14h.21l-.21.7h-.7c-.35 0-.56-.07-.56-.35l-.14-.77-.56.84c-.14.21-.35.35-.63.35h-1.05l.21-.7h.35c.14 0 .21-.07.35-.21l.84-1.26h-1.05l.21-.77h1.19l.21-.7h-1.19l.21-.77zm-19.74-5.04c-.14.7-.42 1.19-.91 1.54-.49.35-1.12.56-1.89.56-.7 0-1.26-.21-1.54-.56-.21-.28-.35-.56-.35-.98 0-.14 0-.35.07-.56l.84-3.92h1.19l-.77 3.92v.28c0 .21.07.35.14.49.14.21.35.28.7.28s.7-.07.91-.28c.21-.21.42-.42.49-.77l.77-3.92h1.19l-.84 3.92m1.12-1.54h.84l-.07.49.14-.14c.28-.28.63-.42 1.05-.42.35 0 .63.14.77.35.14.21.21.49.14.91l-.49 2.38h-.91l.42-2.17c.07-.28.07-.49 0-.56-.07-.14-.21-.14-.35-.14-.21 0-.42.07-.56.21-.14.14-.28.35-.28.63l-.42 2.03h-.91l.63-3.57m9.8 0h.84l-.07.49.14-.14c.28-.28.63-.42 1.05-.42.35 0 .63.14.77.35s.21.49.14.91l-.49 2.38h-.91l.42-2.24c.07-.21 0-.42-.07-.49-.07-.14-.21-.14-.35-.14-.21 0-.42.07-.56.21-.14.14-.28.35-.28.63l-.42 2.03h-.91l.7-3.57m-5.81 0h.98l-.77 3.5h-.98l.77-3.5m.35-1.33h.98l-.21.84h-.98l.21-.84zm1.4 4.55c-.21-.21-.35-.56-.35-.98v-.21c0-.07 0-.21.07-.28.14-.56.35-1.05.7-1.33.35-.35.84-.49 1.33-.49.42 0 .77.14 1.05.35.21.21.35.56.35.98v.21c0 .07 0 .21-.07.28-.14.56-.35.98-.7 1.33-.35.35-.84.49-1.33.49-.35 0-.7-.14-1.05-.35m1.89-.7c.14-.21.28-.49.35-.84v-.35c0-.21-.07-.35-.14-.49a.635.635 0 0 0-.49-.21c-.28 0-.49.07-.63.28-.14.21-.28.49-.35.84v.28c0 .21.07.35.14.49.14.14.28.21.49.21.28.07.42 0 .63-.21m6.51-4.69h2.52c.49 0 .84.14 1.12.35.28.21.35.56.35.91v.28c0 .07 0 .21-.07.28-.07.49-.35.98-.7 1.26-.42.35-.84.49-1.4.49h-1.4l-.42 2.03h-1.19l1.19-5.6m.56 2.59h1.12c.28 0 .49-.07.7-.21.14-.14.28-.35.35-.63v-.28c0-.21-.07-.35-.21-.42-.14-.07-.35-.14-.7-.14h-.91l-.35 1.68zm8.68 3.71c-.35.77-.7 1.26-.91 1.47-.21.21-.63.7-1.61.7l.07-.63c.84-.28 1.26-1.4 1.54-1.96l-.28-3.78h1.19l.07 2.38.91-2.31h1.05l-2.03 4.13m-2.94-3.85l-.42.28c-.42-.35-.84-.56-1.54-.21-.98.49-1.89 4.13.91 2.94l.14.21h1.12l.7-3.29-.91.07m-.56 1.82c-.21.56-.56.84-.91.77-.28-.14-.35-.63-.21-1.19.21-.56.56-.84.91-.77.28.14.35.63.21 1.19"/></svg>