<svg xmlns="http://www.w3.org/2000/svg" role="img" viewBox="0 0 38 24" width="38" height="24" aria-labelledby="pi-upi"><title id="pi-upi">UPI</title><path opacity=".07" d="M35 0H3C1.3 0 0 1.3 0 3v18c0 1.7 1.4 3 3 3h32c1.7 0 3-1.3 3-3V3c0-1.7-1.4-3-3-3z"/><path fill="#fff" d="M35 1c1.1 0 2 .9 2 2v18c0 1.1-.9 2-2 2H3c-1.1 0-2-.9-2-2V3c0-1.1.9-2 2-2h32"/><path fill="#097939" d="M 30.296875 17.160156 L 34.832031 11.933594 L 32.683594 6.527344 Z M 30.296875 17.160156 "/><path fill="#ed752e" d="M 28.769531 17.160156 L 33.304688 11.933594 L 31.15625 6.527344 Z M 28.769531 17.160156 "/><path fill="#747474" d="M 7.097656 6.589844 L 5.1875 15.179688 L 11.964844 15.238281 L 13.828125 6.589844 L 15.546875 6.589844 L 13.3125 16.644531 C 13.226562 17.027344 12.902344 17.339844 12.585938 17.339844 L 3.898438 17.339844 C 3.371094 17.339844 3.058594 16.820312 3.203125 16.179688 L 5.332031 6.589844 Z M 28.054688 6.527344 L 29.773438 6.527344 L 27.386719 17.339844 L 25.617188 17.339844 Z M 15.738281 11.03125 L 24.332031 10.972656 L 24.902344 8.691406 L 16.167969 8.691406 L 16.691406 6.585938 L 26.003906 6.480469 C 26.582031 6.472656 26.925781 7.039062 26.773438 7.746094 L 25.898438 11.796875 C 25.742188 12.503906 25.148438 13.074219 24.570312 13.074219 L 16.882812 13.074219 L 15.976562 17.519531 L 14.304688 17.519531 Z M 15.738281 11.03125 "/></svg>
