<svg width="38" height="24" viewBox="0 0 38 24" fill="none" xmlns="http://www.w3.org/2000/svg" role="img" aria-labelledby="pi-usbank"><title id="pi-usbank">US Bank</title><g clip-path="url(#pi-usbank-clip0_10417_218944)"><path opacity=".07" d="M35 0H3C1.3 0 0 1.3 0 3v18c0 1.7 1.4 3 3 3h32c1.7 0 3-1.3 3-3V3c0-1.7-1.4-3-3-3z" fill="#000"/><path d="M35 1c1.1 0 2 .9 2 2v18c0 1.1-.9 2-2 2H3c-1.1 0-2-.9-2-2V3c0-1.1.9-2 2-2h32z" fill="#fff"/><path fill-rule="evenodd" clip-rule="evenodd" d="M10 6v10.886l9.204 3.146 9.225-3.146V6H10z" fill="#D62A43"/><path fill-rule="evenodd" clip-rule="evenodd" d="M19.182 16.54H16.36v-.97c-.56.776-1.358 1.186-2.5 1.186-1.359 0-2.652-.84-2.652-2.608v-5.26h2.931v4.052c0 .863.108 1.488.97 1.488.475 0 1.143-.238 1.143-1.488V8.888h2.931v7.652zm5.454-5.41c-.044-.259-.13-.431-.345-.56a.928.928 0 00-.669-.26c-.366 0-.862.109-.862.604 0 .238.172.345.345.41.496.216 1.595.259 2.587.604.926.302 1.788.862 1.788 2.112 0 2.134-2.004 2.716-3.88 2.716-1.81 0-3.772-.733-3.836-2.716h2.78c.044.28.152.496.389.69.129.108.41.215.776.215.366 0 .991-.129.991-.582 0-.452-.28-.56-1.638-.797-2.22-.388-3.126-1.121-3.126-2.414 0-1.94 2.091-2.436 3.622-2.436 1.68 0 3.664.453 3.729 2.414h-2.651z" fill="#fff"/></g><defs><clipPath id="pi-usbank-clip0_10417_218944"><path fill="#fff" d="M0 0h38v24H0z"/></clipPath></defs></svg>