<svg xmlns="http://www.w3.org/2000/svg" width="38" height="24" aria-labelledby="pi-vipps" role="img" viewBox="0 0 38 24"><title id="pi-vipps">Vipps</title><path fill="#000" d="M35 0H3C1.3 0 0 1.3 0 3v18c0 1.7 1.4 3 3 3h32c1.7 0 3-1.3 3-3V3c0-1.7-1.4-3-3-3z" opacity=".07"/><path fill="#fff" d="M35 1c1.1 0 2 .9 2 2v18c0 1.1-.9 2-2 2H3c-1.1 0-2-.9-2-2V3c0-1.1.9-2 2-2h32"/><path fill="#ff5b24" d="M3 2h32c.5 0 1 .4 1 1v18c0 .5-.4 1-1 1H3c-.5 0-1-.4-1-1V3c0-.5.4-1 1-1z"/><path fill="#fff" d="m7.45 9.26 1.2 3.52 1.2-3.52h1.4l-2.08 5.22H8.13L6.05 9.26zm6.91 4.38a2.17 2.17 0 0 0 1.84-1.04c.26-.32.59-.4.83-.2a.6.6 0 0 1 0 .88 3.27 3.27 0 0 1-2.67 1.43 3.54 3.54 0 0 1-3-1.81.56.56 0 0 1 .06-.8.57.57 0 0 1 .8.24 2.58 2.58 0 0 0 2.14 1.3zm1.63-2.9a.7.7 0 1 1-.7-.7.71.71 0 0 1 .7.7zm3.31-1.48v.71a1.97 1.97 0 0 1 1.7-.84c1.01 0 2.2.84 2.2 2.67 0 1.9-1.13 2.82-2.31 2.82a1.88 1.88 0 0 1-1.6-.83v2.5h-1.28V9.26zm0 2.6c0 1.05.61 1.62 1.3 1.62.67 0 1.31-.51 1.31-1.62 0-1.09-.64-1.6-1.31-1.6-.69 0-1.3.49-1.3 1.6zm6.13-2.6v.71a1.97 1.97 0 0 1 1.69-.84c1.02 0 2.2.84 2.2 2.67 0 1.9-1.13 2.82-2.3 2.82a1.88 1.88 0 0 1-1.6-.83v2.5h-1.28V9.26zm0 2.6c0 1.05.61 1.62 1.3 1.62.67 0 1.31-.51 1.31-1.62 0-1.09-.64-1.6-1.31-1.6-.69 0-1.3.49-1.3 1.6zm6.6-2.74a2.04 2.04 0 0 1 2.13 1.72l-1.15.18c-.02-.6-.4-.82-.96-.82-.43 0-.76.19-.76.5 0 .24.16.48.66.56l.88.17a1.47 1.47 0 0 1 1.3 1.48 1.8 1.8 0 0 1-1.97 1.7 2.15 2.15 0 0 1-2.31-1.8l1.15-.18c.08.65.48.89 1.14.89.49 0 .82-.2.82-.5 0-.28-.16-.5-.7-.6l-.8-.14a1.54 1.54 0 0 1-1.37-1.5 1.8 1.8 0 0 1 1.93-1.68z"/></svg>