<svg width="38" height="24" viewBox="0 0 38 24" fill="none" xmlns="http://www.w3.org/2000/svg" role="img" aria-labelledby="pi-volksbank"><title id="pi-volksbank">Volksbank</title><g clip-path="url(#clip0_39_168)"><path opacity=".07" d="M35 0H3C1.3 0 0 1.3 0 3v18c0 1.7 1.4 3 3 3h32c1.7 0 3-1.3 3-3V3c0-1.7-1.4-3-3-3z" fill="#000"/><path d="M35 1c1.1 0 2 .9 2 2v18c0 1.1-.9 2-2 2H3c-1.1 0-2-.9-2-2V3c0-1.1.9-2 2-2h32z" fill="#fff"/><g clip-path="url(#clip1_39_168)"><path d="M5.91 3v18h26.18V3H5.91z" fill="#fff"/><path d="M21.852 17.146l-.562 2.959h10.049v-2.959h-9.487zm-15.4.027v2.959h9.977l-.666-2.959H6.451z" fill="#E05F0C"/><path d="M11.354 10.39l-.727-3.06h6.196l2.007 8.785h.086l1.264-5.628c.637-2.555.878-3.157 4.468-3.157h2.582s-.522 2.355-1.171 4.911c-.247.975-2.403.86-2.296-.051.012-.095.114-.78.194-1.268.118-.701-.7-.789-.847-.095-.104.498-.578 2.966-1.02 5.288h9.25V3.5H6.45v12.614h9.033l-1.287-5.72-2.842-.005z" fill="#0A438A"/></g></g><defs><clipPath id="pi-volksbank-clip0_39_168"><path fill="#fff" d="M0 0h38v24H0z"/></clipPath><clipPath id="pi-volksbank-clip1_39_168"><path fill="#fff" transform="translate(5.91 3)" d="M0 0h26.182v18H0z"/></clipPath></defs></svg>