<svg role="img" viewBox="0 0 38 24" width="38" height="24" aria-labelledby="pi-waavepaybybank" fill="none" xmlns="http://www.w3.org/2000/svg"><title id="pi-waavepaybybank">Waave Pay by Bank</title><g clip-path="url(#clip0_715_72196)"><path d="M2.84 1h32.328C36.176 1 37 1.824 37 2.836v18.328A1.838 1.838 0 0135.168 23H2.84a1.838 1.838 0 01-1.832-1.836V2.836C1.008 1.824 1.832 1 2.84 1z" fill="#7971ED" /><path d="M2.832 0H35.16c.781 0 1.492.32 2 .832v.004a2.83 2.83 0 01.832 2v18.328a2.83 2.83 0 01-.832 2v.004a2.816 2.816 0 01-2 .832H2.832c-.781 0-1.492-.32-2-.832v-.004a2.83 2.83 0 01-.832-2V2.836c0-.777.32-1.488.832-2V.832a2.816 2.816 0 012-.832zm0 1H35.16c1.008 0 1.832.824 1.832 1.836v18.328A1.838 1.838 0 0135.16 23H2.832A1.838 1.838 0 011 21.164V2.836C1 1.824 1.824 1 2.832 1z" fill="#000" fill-opacity=".071" /><path d="M31 6.014h-.8c-.33 0-.658.128-.915.34a1.363 1.363 0 00-.458.852 51.368 51.368 0 01-.457 2.85c-.8 4.299-1.244 5.93-2.716 5.93-.658 0-1.515-.355-1.987-2.61-.515-2.397-.743-3.872-1.344-5.135-.743-1.603-1.83-2.227-3.33-2.227-1.501 0-2.602.624-3.33 2.227-.587 1.263-.816 2.738-1.33 5.15C13.847 15.644 12.989 16 12.346 16c-1.472 0-1.915-1.631-2.716-5.93-.214-1.134-.329-1.97-.457-2.85-.043-.34-.2-.638-.458-.865A1.473 1.473 0 007.8 6H7l.043.397c.143 1.12.3 2.397.6 4.028.372 1.986.744 3.873 1.315 5.192.73 1.603 1.83 2.383 3.36 2.383 2.844 0 3.716-2.993 3.945-4.17.671-3.461 1.057-5.816 2.716-5.816 1.658 0 2.058 2.34 2.73 5.816.229 1.191 1.115 4.17 3.945 4.17 1.53 0 2.63-.794 3.36-2.383.6-1.32.942-3.192 1.314-5.192.315-1.645.472-2.907.6-4.028L30.971 6" fill="#fff" /></g><defs><clipPath id="pi-waavepaybybank-clip0_715_72196"><path fill="#fff" d="M0 0h38v24H0z" /></clipPath></defs></svg>