<svg xmlns="http://www.w3.org/2000/svg" role="img" viewBox="0 0 38 24" width="38" height="24" aria-labelledby="pi-wechatpay"><title id="pi-wechatpay">WeChat Pay</title><path fill="#000" opacity=".07" d="M35 0H3C1.3 0 0 1.3 0 3v18c0 1.7 1.4 3 3 3h32c1.7 0 3-1.3 3-3V3c0-1.7-1.4-3-3-3z"/><path fill="#fff" d="M35 1c1.1 0 2 .9 2 2v18c0 1.1-.9 2-2 2H3c-1.1 0-2-.9-2-2V3c0-1.1.9-2 2-2h32"/><path fill="#39B54A" d="M17.1,9.6c-0.1,0-0.1,0-0.2,0.1c-0.2,0-0.3-0.1-0.4-0.2V9.3l-1.3-2.8c0,0,0-0.1,0-0.1c0-0.1,0.1-0.2,0.2-0.2c0.1,0,0.1,0,0.1,0.1L17,7.3c0.1,0.1,0.2,0.1,0.4,0.1c0.1,0,0.2,0,0.2,0l7.1-3.2c-1.5-1.6-3.5-2.5-5.7-2.5c-3.9,0-7,2.6-7,5.9c0,1.8,0.9,3.4,2.4,4.4c0.1,0.1,0.2,0.2,0.2,0.4c0,0,0,0.1,0,0.1c-0.1,0.4-0.3,1.1-0.3,1.2c0,0.1,0,0.1,0,0.2c0,0.1,0.1,0.2,0.2,0.2c0,0,0.1,0,0.1,0l1.5-0.9c0.1-0.1,0.2-0.1,0.4-0.1c0.1,0,0.1,0,0.2,0c0.7,0.2,1.5,0.3,2.3,0.3c3.9,0,7-2.6,7-5.9c0-0.9-0.3-1.8-0.8-2.6L17.1,9.6L17.1,9.6z"/><path fill="#505052" d="M10.5,19.8L10.4,20c-0.1,0.2-0.1,0.4-0.2,0.6c-0.1-0.3-0.1-0.6-0.2-0.9l-0.5-1.8l0,0H9.2l-0.6,1.9c-0.1,0.3-0.2,0.6-0.2,0.9L8.3,20l-0.5-2.1l0,0H7.4l0.9,3.4l0,0h0.3l0.6-1.9c0.1-0.3,0.2-0.6,0.2-0.8c0,0.2,0.1,0.5,0.2,0.8l0.5,1.9l0,0h0.3l1-3.3l0,0h-0.4L10.5,19.8z"/><path fill="#505052" d="M12.6,18.8c-0.7,0-1.1,0.5-1.1,1.3c-0.1,0.6,0.4,1.2,1,1.2c0,0,0.1,0,0.1,0c0.3,0,0.5,0,0.8-0.2h0.1l-0.2-0.2l0,0C13.1,21,12.9,21,12.7,21c-0.5,0-0.8-0.3-0.8-0.9h1.7v0c0,0,0-0.1,0-0.1c0-0.2-0.1-0.5-0.2-0.7C13.2,19,12.9,18.8,12.6,18.8 M11.8,19.8c0-0.4,0.3-0.7,0.7-0.7c0.2,0,0.3,0,0.4,0.2c0.1,0.1,0.2,0.3,0.2,0.5H11.8z"/><path fill="#505052" d="M16.3,20.9L16.3,20.9c-0.2,0.1-0.5,0.1-0.7,0.1c-0.7,0-1.3-0.5-1.3-1.1c0-0.1,0-0.2,0-0.2c-0.1-0.7,0.4-1.4,1.1-1.4c0.1,0,0.2,0,0.2,0c0.2,0,0.4,0,0.6,0.1l0,0l0.2-0.3l0,0c-0.2-0.1-0.5-0.2-0.8-0.2c-0.9,0-1.7,0.7-1.7,1.6c0,0.1,0,0.1,0,0.2c-0.1,0.9,0.5,1.6,1.4,1.7c0.1,0,0.1,0,0.2,0c0.3,0,0.6-0.1,0.9-0.2l0,0L16.3,20.9L16.3,20.9z"/><path fill="#505052" d="M18,18.8c-0.2,0-0.4,0.1-0.5,0.1c-0.1,0.1-0.2,0.1-0.2,0.2v-1.3h-0.4v3.5h0.3v-1.5c0-0.1,0-0.1,0-0.2c0.1-0.3,0.3-0.5,0.6-0.5c0.5,0,0.6,0.5,0.6,0.7v1.4h0.4v-1.5C18.8,18.8,18.1,18.8,18,18.8"/><path fill="#505052" d="M22.1,18.3h-0.4v0.5h-0.4v0.3h0.4v1.4c0,0.2,0,0.4,0.2,0.6c0.1,0.1,0.3,0.2,0.4,0.2c0.1,0,0.2,0,0.4-0.1h0.1L22.6,21l0,0h-0.2c-0.2,0-0.3-0.1-0.3-0.4v-1.5h0.7v-0.3h-0.7L22.1,18.3z"/><path fill="#505052" d="M25.1,17.9c-0.2,0-0.5,0-0.7,0.1l0,0v3.3h0.4v-1.4c0.1,0,0.2,0,0.3,0c0.4,0,0.7-0.1,1-0.4c0.2-0.2,0.3-0.4,0.2-0.7c0-0.3-0.1-0.5-0.3-0.7C25.8,18,25.5,17.8,25.1,17.9 M24.7,18.2c0.1,0,0.3,0,0.4,0c0.5,0,0.8,0.2,0.8,0.7s-0.3,0.7-0.9,0.7c-0.1,0-0.2,0-0.4,0L24.7,18.2z"/><path fill="#505052" d="M30.2,18.8l-0.6,1.5c0,0.1-0.1,0.2-0.1,0.4l-0.1-0.3l-0.6-1.5l0,0h-0.4l0.9,2.2c0,0,0,0.1,0,0.1c0,0,0,0,0,0.1c-0.1,0.2-0.2,0.4-0.4,0.6c-0.1,0.1-0.2,0.2-0.4,0.2h-0.1l0.3,0.3l0,0c0.1-0.1,0.2-0.2,0.3-0.2c0.4-0.4,0.6-0.9,0.8-1.4l0.7-1.8v-0.1L30.2,18.8z"/><path fill="#505052" d="M21,20.7v-0.9c0-0.6-0.3-1-0.9-1c-0.3,0-0.5,0.1-0.7,0.2l0,0l0.2,0.3l0,0c0.2-0.1,0.3-0.2,0.5-0.2l0,0c0.1,0,0.3,0,0.4,0.1c0.1,0.1,0.2,0.3,0.1,0.5c-0.4,0-0.9,0.1-1.2,0.4c-0.2,0.1-0.2,0.3-0.2,0.6c0,0.4,0.3,0.7,0.7,0.7c0,0,0,0,0.1,0c0.3,0,0.5-0.1,0.7-0.3v0.2h0.4v-0.1C21,21,21,20.8,21,20.7 M19.8,20.3c0.3-0.2,0.6-0.3,0.9-0.2l0,0v0.4c0,0,0,0.1,0,0.1C20.6,20.9,20.3,21,20,21c-0.2,0-0.4-0.2-0.4-0.4c0,0,0,0,0-0.1C19.6,20.5,19.7,20.3,19.8,20.3"/><path fill="#505052" d="M28.1,20.7v-0.9c0-0.6-0.3-1-0.9-1c-0.2,0-0.5,0.1-0.7,0.2l0,0l0.2,0.3l0,0c0.2-0.1,0.3-0.1,0.5-0.1l0,0c0.1,0,0.3,0,0.4,0.1c0.1,0.1,0.2,0.3,0.2,0.5c-0.4,0-0.9,0.1-1.2,0.4c-0.1,0.1-0.2,0.4-0.2,0.6c0,0.4,0.3,0.7,0.7,0.7c0,0,0,0,0.1,0c0.3,0,0.5-0.1,0.7-0.3v0.2h0.4v-0.1C28.2,21,28.2,20.8,28.1,20.7 M27.9,20.5c0,0,0,0.1,0,0.1c-0.1,0.3-0.4,0.4-0.6,0.4c-0.2,0-0.4-0.1-0.4-0.4c0,0,0,0,0-0.1c0-0.1,0-0.2,0.1-0.3c0.3-0.2,0.6-0.3,0.9-0.2h0L27.9,20.5z"/></svg>