<svg width="38" height="24" viewBox="0 0 38 24" fill="none" xmlns="http://www.w3.org/2000/svg" role="img" aria-labelledby="pi-xrp"><title id="pi-xrp">XRP</title><path opacity=".07" d="M35 0H3C1.3 0 0 1.3 0 3v18c0 1.7 1.4 3 3 3h32c1.7 0 3-1.3 3-3V3c0-1.7-1.4-3-3-3z" fill="#000"/><path d="M35 1c1.1 0 2 .9 2 2v18c0 1.1-.9 2-2 2H3c-1.1 0-2-.9-2-2V3c0-1.1.9-2 2-2h32z" fill="#fff"/><circle cx="19" cy="12" r="8" fill="#000"/><mask id="pi-mask0_3_355" style="mask-type:alpha" maskUnits="userSpaceOnUse" x="11" y="4" width="16" height="16"><circle cx="19" cy="12" r="8" fill="#fff"/></mask><g mask="url(#mask0_3_355)"><path fill-rule="evenodd" clip-rule="evenodd" d="M22.773 8.632h-1.095l-1.733 1.796a1.305 1.305 0 01-1.893 0L16.32 8.632h-1.095l2.28 2.364a2.06 2.06 0 002.988 0l2.28-2.364zm-7.563 6.576h1.096l1.75-1.812a1.305 1.305 0 011.892 0l1.746 1.812h1.096l-2.295-2.38a2.061 2.061 0 00-2.99 0l-2.294 2.38z" fill="#fff"/></g></svg>
