<?xml version="1.0" encoding="utf-8"?>
<!-- Generator: Adobe Illustrator 24.0.0, SVG Export Plug-In . SVG Version: 6.00 Build 0)  -->
<svg version="1.1" id="Warstwa_1" xmlns="http://www.w3.org/2000/svg" xmlns:xlink="http://www.w3.org/1999/xlink" x="0px" y="0px"
	 viewBox="0 0 644 151" style="enable-background:new 0 0 644 151;" xml:space="preserve">
<style type="text/css">
	.st0{clip-path:url(#SVGID_2_);}
	.st1{fill:#004F91;}
	.st2{fill:#6F9ED4;}
	.st3{fill:#1D1D1B;}
</style>
<g>
	<defs>
		<path id="SVGID_1_" d="M54.8,15.8c0.4-0.5,1.1-0.8,1.7-0.8c1.1,0,1.9,0.9,1.7,2l-5.8,43.8l58.7,10l-54.9,64.9
			c-0.4,0.5-1.1,0.8-1.7,0.8c-1.1,0-1.9-0.9-1.7-2l5.8-43.8l-58.7-10L54.8,15.8z"/>
	</defs>
	<clipPath id="SVGID_2_">
		<use xlink:href="#SVGID_1_"  style="overflow:visible;"/>
	</clipPath>
	<g class="st0">
		<polygon class="st1" points="111.2,70.8 51.9,140.8 58.5,90.8 		"/>
		<polygon class="st2" points="52.5,60.8 111.2,70.8 58.5,90.8 		"/>
		<polygon class="st1" points="52.5,60.8 58.5,90.8 -0.2,80.8 		"/>
		<polygon class="st2" points="59.1,10.8 52.5,60.8 -0.2,80.8 		"/>
	</g>
</g>
<g>
	<path class="st3" d="M137.5,120.5c-10.5-5-14-10.7-12.7-20.8c2.1-15.7,10.3-20.3,31.1-20.3c7.2,0,16.7,0.6,24.6,3.5l-3.1,13.9
		c-6-0.1-15.7-0.2-24.3-0.2c-5,0-6.5,0.5-6.7,2.6c-0.3,1.9,0.9,2.9,5.4,4.7l11.8,5.2c10.8,5,14.1,10.9,12.7,21
		c-2,15.5-9.5,21.1-31,21.1c-4.7,0-14.7-0.3-26.3-3.4l3.3-15.2c11.9,0.3,21.3,0.5,25,0.5c5.5,0,6.9-0.5,7.1-2.4
		c0.3-1.9-0.6-2.8-4.1-4.2L137.5,120.5z"/>
	<path class="st3" d="M244.2,115.3c-3.7,28.4-13.2,35.9-36.9,35.9c-23.6,0-31.1-7.5-27.4-35.9c3.7-28.4,13.2-35.9,36.8-35.9
		C240.5,79.4,248,86.9,244.2,115.3z M202.7,115.3c-2.1,16-0.7,19.8,6.7,19.8c7.4,0,9.8-3.8,11.9-19.8c2.1-16,0.7-19.8-6.7-19.8
		C207.2,95.5,204.8,99.3,202.7,115.3z"/>
	<path class="st3" d="M268.2,129c-0.3,2.1,1.1,3.6,3.7,3.6h23.2l-1.1,16.2c-10.5,1.4-22.6,1.4-33.9,1.4c-10,0-15.6-6.4-14.3-15.7
		l7.1-53.7h21.7L268.2,129z"/>
	<path class="st3" d="M359.6,121.3c-2.9,22-11.7,29.9-33.3,29.9c-23.3,0-30.7-7.9-27.8-29.9l5.3-40.5h21.7l-5.3,40.5
		c-1.5,11.1,0.1,13.8,7.1,13.8c6.9,0,9.2-2.7,10.6-13.8l5.3-40.5h21.7L359.6,121.3z"/>
	<path class="st3" d="M405.8,97l-7,52.8h-21.7l7-52.8h-19.3l2.1-16.2h60.3L425.1,97H405.8z"/>
	<path class="st3" d="M420.5,149.8l9.1-69h21.5l-9.1,69H420.5z"/>
	<path class="st3" d="M515.1,115.3c-3.7,28.4-13.2,35.9-36.9,35.9c-23.6,0-31.1-7.5-27.4-35.9c3.7-28.4,13.2-35.9,36.8-35.9
		C511.3,79.4,518.8,86.9,515.1,115.3z M473.6,115.3c-2.1,16-0.7,19.8,6.7,19.8c7.4,0,9.8-3.8,11.9-19.8c2.1-16,0.7-19.8-6.7-19.8
		S475.7,99.3,473.6,115.3z"/>
	<path class="st3" d="M579.2,142.3c-0.6,4.9-3.6,7.5-8.5,7.5h-8.3c-4.5,0-5.8-2.2-7.6-6.3l-11.9-23.7c-1.5-3.4-2.4-7.6-3-11.8h-0.7
		c0,4.2-0.1,8.6-0.7,12.6l-3.8,29.2h-20l8.1-61.5c0.6-4.9,3.6-7.5,8.5-7.5h8.3c4.5,0,5.7,2.2,7.6,6.3l11.4,22.6
		c1.5,3.3,2.7,7.4,3.7,11.8h0.7c0.1-4.2,0.2-8.3,0.6-12.5l3.7-28.2h19.9L579.2,142.3z"/>
	<path class="st3" d="M601.3,120.5c-10.5-5-14-10.7-12.7-20.8c2.1-15.7,10.3-20.3,31.1-20.3c7.2,0,16.7,0.6,24.6,3.5l-3.1,13.9
		c-6-0.1-15.7-0.2-24.3-0.2c-5,0-6.5,0.5-6.7,2.6c-0.3,1.9,0.9,2.9,5.4,4.7l11.8,5.2c10.8,5,14.1,10.9,12.7,21
		c-2,15.5-9.5,21.1-31,21.1c-4.7,0-14.7-0.3-26.3-3.4l3.3-15.2c11.9,0.3,21.3,0.5,25,0.5c5.5,0,6.9-0.5,7.1-2.4
		c0.3-1.9-0.6-2.8-4.1-4.2L601.3,120.5z"/>
</g>
<g>
	<path class="st3" d="M137.5,41.5c-10.5-5-14-10.7-12.7-20.8C126.9,5,135.1,0.4,155.9,0.4c7.2,0,16.7,0.6,24.6,3.5l-3.1,13.9
		c-6-0.1-15.7-0.2-24.3-0.2c-5,0-6.5,0.5-6.7,2.6c-0.3,1.9,0.9,2.9,5.4,4.7l11.8,5.2c10.8,5,14.1,10.9,12.7,21
		c-2,15.5-9.5,21.1-31,21.1c-4.7,0-14.7-0.3-26.3-3.4l3.3-15.2c11.9,0.3,21.3,0.5,25,0.5c5.5,0,6.9-0.5,7.1-2.4
		c0.3-1.9-0.6-2.8-4.1-4.2L137.5,41.5z"/>
	<path class="st3" d="M186.1,1.8c9.3-0.9,15.5-1,29.3-1c21.9,0,27.9,5.1,25.5,23.5c-2.4,18.2-9.8,23.3-28.7,23.3
		c-3.5,0-7.1-0.2-10.4-0.6l-3.1,23.8H177L186.1,1.8z M210.8,32.3c5.9,0,7.6-1.6,8.5-8c0.9-6.6-0.4-8.2-6.3-8.2h-7l-2.1,16.2H210.8z"
		/>
	<path class="st3" d="M256.3,55.9l-5.5,14.9h-22.1L255,7.4c1.3-3.4,4.5-5.6,8-5.6h19.7c3.5,0,6.1,2.2,6.6,5.6l9.6,63.4h-22.1
		l-1.5-14.9H256.3z M272.2,25.9c-0.2-2.5-0.3-5.4-0.2-7.9h-2.7c-0.6,2.5-1.4,5.4-2.2,7.9l-5.3,14.8h11.9L272.2,25.9z"/>
	<path class="st3" d="M338.6,70.8l-1.8-20.5c-0.3-3.8-1.6-4.7-5.3-4.7h-6.7l-3.3,25.2h-21.3l9.1-69c9.3-0.9,15.6-1,29.4-1
		c20.3,0,28.5,4.9,26.3,21c-1.1,8.3-5.3,15.3-16.2,16.4l-0.1,0.6c3.7,0.5,9.3,2.4,9.9,10.8l2.6,21.2H338.6z M334.3,30.3
		c6.2,0,8-1.4,8.7-7.1c0.8-5.7-0.7-7.1-6.9-7.1h-7.5l-1.9,14.2H334.3z"/>
	<path class="st3" d="M388.4,42c0.2,2.2,0.2,4.4,0,6.3l-3,22.5h-21.7l9.1-69h21.7l-2.3,17.4c-0.4,2.8-1.1,5.9-2.2,8.8h3.8l17.9-26.2
		H435l-19.5,27c-2.1,3.1-4.9,5.3-6.9,6.1l-0.1,0.4c1.8,0.8,4.8,3.8,6,6.8l12.3,28.7h-24.1L392,42H388.4z"/>
</g>
</svg>
