<?xml version="1.0" encoding="utf-8"?>
<!-- Generator: Adobe Illustrator 16.0.0, SVG Export Plug-In . SVG Version: 6.00 Build 0)  -->
<!DOCTYPE svg PUBLIC "-//W3C//DTD SVG 1.1//EN" "http://www.w3.org/Graphics/SVG/1.1/DTD/svg11.dtd">
<svg version="1.1" id="Layer_1" xmlns="http://www.w3.org/2000/svg" xmlns:xlink="http://www.w3.org/1999/xlink" x="0px" y="0px"
	 width="512px" height="512px" viewBox="0 0 512 512" enable-background="new 0 0 512 512" xml:space="preserve">
<path fill="none" stroke="#8BC43F" stroke-width="23" stroke-linecap="round" stroke-miterlimit="10" d="M276.255,11.8v171.373
	 M276.255,183.173l-71.888-65.73 M276.255,183.173l77.338-65.73"/>
<path fill="#0679BC" d="M127.148,188.502h63.717l40.149,94.154h93.207l36.359-81.718c0,0,7.105-21.318,28.424-12.436
	c21.318,8.882,14.212,23.924,14.212,23.924L365.08,315.463c0,0-5.329,15.988-26.647,15.988H212.302c0,0-12.435,0-20.371-17.765
	c-7.935-17.765-35.53-81.719-35.53-81.719h-29.253c0,0-19.542-5.33-19.542-23.095S127.148,188.502,127.148,188.502L127.148,188.502z
	"/>
<circle fill="#0679BC" cx="223.435" cy="383.443" r="26.174"/>
<circle fill="#0679BC" cx="331.091" cy="381.43" r="26.174"/>
<path fill="#8CC43F" d="M321.616,438.988c0,0-20.371,16.818-45.242,16.818c-24.871,0-48.794-21.318-48.794-21.318
	s-19.542-12.436-30.2,0c-10.659,12.436,0,31.029,0,31.029s32.806,34.582,78.995,34.582c46.189,0,74.613-23.095,77.219-26.647
	c2.604-3.553,19.777-27.476,3.671-39.083C341.157,423,321.616,438.988,321.616,438.988L321.616,438.988z"/>
</svg>
