<svg width="38" height="24" viewBox="0 0 38 24" fill="none" xmlns="http://www.w3.org/2000/svg" role="img" aria-labelledby="pi-alipay"><title id="pi-alipay">AliPay</title><path opacity=".07" fill-rule="evenodd" clip-rule="evenodd" d="M35 0H3a3 3 0 00-3 3v18a3 3 0 003 3h32a3 3 0 003-3V3a3 3 0 00-3-3z" fill="#000"/><path fill-rule="evenodd" clip-rule="evenodd" d="M35 1a2 2 0 012 2v18a2 2 0 01-2 2H3a2 2 0 01-2-2V3a2 2 0 012-2h32z" fill="#fff"/><mask id="pi-alipay-mask0" mask-type="alpha" maskUnits="userSpaceOnUse" x="4" y="8" width="9" height="9"><path d="M4 8h8.867v8.842H4V8z" fill="#fff"/></mask><g mask="url(#pi-alipay-mask0)"><path fill-rule="evenodd" clip-rule="evenodd" d="M11.447 8H5.42C4.636 8 4 8.634 4 9.416v6.01c0 .782.636 1.416 1.42 1.416h6.027c.785 0 1.42-.634 1.42-1.416v-6.01c0-.782-.635-1.416-1.42-1.416" fill="#1677FF"/></g><path fill-rule="evenodd" clip-rule="evenodd" d="M6.435 14.628c-1.374 0-1.781-1.059-1.102-1.638.227-.196.64-.291.862-.313.816-.08 1.572.226 2.464.65-.627.802-1.425 1.301-2.224 1.301zm4.886-1.22c-.353-.116-.828-.293-1.356-.48.317-.54.57-1.154.737-1.822h-1.74v-.613h2.133v-.343H8.962V9.128H8.09c-.154 0-.154.148-.154.148v.875H5.78v.343h2.157v.613h-1.78v.343H9.61c-.122.413-.29.812-.498 1.189-1.12-.362-2.317-.655-3.068-.475-.48.116-.79.323-.972.54-.835.993-.236 2.501 1.526 2.501 1.043 0 2.047-.568 2.825-1.505 1.16.546 3.458 1.483 3.458 1.483v-1.335s-.289-.023-1.56-.439" fill="#fff"/><path fill-rule="evenodd" clip-rule="evenodd" d="M29.057 10.137h3.41v.627h1.216v-.747a.313.313 0 00-.314-.305h-1.97v-.584h-1.275v.584h-2.283v1.052h1.216v-.627zm-7.253-1.009l-1.209 2.882h.927v3.428h1.015V10.89h-.368l.763-1.762-1.128.001z" fill="#3E3A39"/><mask id="pi-alipay-mask1" mask-type="alpha" maskUnits="userSpaceOnUse" x="28" y="11" width="6" height="5"><path d="M28.077 11.236h5.806v4.177h-5.806v-4.177z" fill="#fff"/></mask><g mask="url(#pi-alipay-mask1)"><path fill-rule="evenodd" clip-rule="evenodd" d="M33.883 15.397l-.37-1.285a.194.194 0 00-.184-.141h-.984l.286.987h-1.157v-1.912h2.27v-.455h-2.27v-.9h2.27v-.456h-5.666v.455h2.27v.899h-2.27v.456h2.27v1.914h-2.27v.454h5.805l-.005-.015h.005z" fill="#3E3A39"/></g><path fill-rule="evenodd" clip-rule="evenodd" d="M24.58 11.596a.258.258 0 00-.227-.13H23.4l.742 2.103h1.128l-.69-1.973z" fill="#3E3A39"/><path fill-rule="evenodd" clip-rule="evenodd" d="M26.932 9.128h-1.087v1.134h-2.679v.457h2.679v4.077a.188.188 0 01-.176.171h-.551v.471h1.408a.429.429 0 00.406-.422v-4.298h.441v-.456h-.441V9.128zm-6.964 2.145h-2.037v-.742h2.361v-.462h-2.36v-.94h-1.053a.214.214 0 00-.209.22v.72h-2.345v.462h2.345v.742h-1.979v.463h3.942s-.219.867-1.3 1.799c-.968-.745-1.293-1.34-1.293-1.34h-1.057c.429.754 1.037 1.358 1.69 1.837-.6.397-1.38.781-2.389 1.088v.553s1.556-.299 3.059-1.2c.94.55 1.958.954 3.018 1.2v-.524a12.48 12.48 0 01-2.337-1.133c.872-.657 1.636-1.55 1.942-2.743" fill="#3E3A39"/></svg>
