<svg xmlns="http://www.w3.org/2000/svg" role="img" viewBox="0 0 38 24" width="38" height="24" aria-labelledby="pi-alliancebank"><title id="pi-alliancebank">Alliance Bank</title>  <g clip-path="url(#pi-alliancebank-a)"><path fill="#000" d="M35 0H3C1.3 0 0 1.3 0 3v18c0 1.7 1.4 3 3 3h32c1.7 0 3-1.3 3-3V3c0-1.7-1.4-3-3-3Z" opacity=".07"/><path fill="#fff" d="M35 1c1.1 0 2 .9 2 2v18c0 1.1-.9 2-2 2H3c-1.1 0-2-.9-2-2V3c0-1.1.9-2 2-2h32Z"/><path fill="#2A3768" d="M26.47 5.755H11.614V20H26.47V5.755Z"/><path fill="#E20613" d="M26.47 18.04H11.614V20H26.47v-1.96Z"/><path fill="#2A3768" d="M19.099 4 10 18.04h18.197L19.099 4Z"/><path fill="url(#pi-alliancebank-b)" d="M19.099 5.135v8.312l-2.609 4.025h-5.388l7.997-12.337Z"/><path fill="url(#pi-alliancebank-c)" d="M19.099 5.135v8.312l2.608 4.025h5.388L19.1 5.135Z"/></g><defs><linearGradient id="pi-alliancebank-b" x1="19.027" x2="14.772" y1="13.571" y2="11.114" gradientUnits="userSpaceOnUse"><stop stop-color="#636362"/><stop offset=".013" stop-color="#6B6B6A"/><stop offset=".096" stop-color="#989897"/><stop offset=".179" stop-color="#BDBDBD"/><stop offset=".261" stop-color="#DADADA"/><stop offset=".343" stop-color="#EEE"/><stop offset=".423" stop-color="#FBFBFB"/><stop offset=".5" stop-color="#fff"/></linearGradient><linearGradient id="pi-alliancebank-c" x1="19.17" x2="23.425" y1="13.571" y2="11.114" gradientUnits="userSpaceOnUse"><stop stop-color="#636362"/><stop offset=".013" stop-color="#6B6B6A"/><stop offset=".096" stop-color="#989897"/><stop offset=".179" stop-color="#BDBDBD"/><stop offset=".261" stop-color="#DADADA"/><stop offset=".343" stop-color="#EEE"/><stop offset=".423" stop-color="#FBFBFB"/><stop offset=".5" stop-color="#fff"/></linearGradient><clipPath id="pi-alliancebank-a"><path fill="#fff" d="M0 0h38v24H0z"/></clipPath></defs></svg>
