<svg viewBox="0 0 38 24" xmlns="http://www.w3.org/2000/svg" role="img" width="38" height="24" aria-labelledby="pi-ambank"><title id="pi-ambank">AmBank</title><path opacity=".07" d="M35 0H3C1.3 0 0 1.3 0 3v18c0 1.7 1.4 3 3 3h32c1.7 0 3-1.3 3-3V3c0-1.7-1.4-3-3-3z"/><path fill="#FFF" d="M35 1c1.1 0 2 .9 2 2v18c0 1.1-.9 2-2 2H3c-1.1 0-2-.9-2-2V3c0-1.1.9-2 2-2h32"/><path fill="#EC1C24" d="M25.24 8.564a3.439 3.439 0 0 1 3.439 3.442 3.438 3.438 0 0 1-4.62 3.231v5.436A8.756 8.756 0 0 0 34 12.002a8.754 8.754 0 0 0-14.373-6.713 9.136 9.136 0 0 1 2.567 5.122 3.429 3.429 0 0 1 3.046-1.847"/><path fill="#EC1C24" d="M12.769 20.755a8.71 8.71 0 0 0 2.582-.39v-6.082a3.442 3.442 0 1 1 .86-2.278h.002v8.749h5.323v-8.749h-.002V12c0-4.835-3.928-8.757-8.766-8.757C7.926 3.243 4 7.165 4 12c0 4.834 3.926 8.755 8.769 8.755"/></svg>