<svg xmlns="http://www.w3.org/2000/svg" role="img" viewBox="0 0 38 24" width="38" height="24" aria-labelledby="pi-atome"><title id="pi-atome">Atome</title><path fill="#000" opacity=".07" d="M35 0H3C1.3 0 0 1.3 0 3v18c0 1.7 1.4 3 3 3h32c1.7 0 3-1.3 3-3V3c0-1.7-1.4-3-3-3z"/><path fill="#fff" d="M35 1c1.1 0 2 .9 2 2v18c0 1.1-.9 2-2 2H3c-1.1 0-2-.9-2-2V3c0-1.1.9-2 2-2h32"/><path fill="#F0FF5F" d="M34.832 15.781h-5.34c-.797 0-1.441-.64-1.441-1.437V9.656a1.44 1.44 0 011.441-1.437h5.344c.793 0 1.441.64 1.441 1.437v4.688a1.445 1.445 0 01-1.445 1.437zm0 0"/><path d="M8.566 10.7h1.278l-.442.995h-.836v1.453c0 .372.153.543.477.543l.348.008v1h-.579c-1.015 0-1.449-.394-1.449-1.32v-1.684h-.57V10.7h.57v-.992h1.203zM6.07 13.827l.235.871H5.219l-.153-.558-.054.058a1.848 1.848 0 01-2.7.023c-.378-.386-.585-.929-.585-1.523 0-.594.207-1.136.582-1.527.359-.371.832-.578 1.34-.578.496 0 .96.195 1.304.539l.082.078v-.516H6.07zm-1.207-1.172c-.023-.55-.43-.953-.965-.953-.562 0-.968.418-.968.996 0 .574.406.992.968.992.536 0 .942-.398.965-.949zm9.473.043c0 .594-.23 1.137-.652 1.524a2.23 2.23 0 01-1.516.574 2.24 2.24 0 01-1.52-.574 2.053 2.053 0 01-.652-1.524c0-.594.234-1.136.652-1.523a2.224 2.224 0 011.52-.578c.574 0 1.11.203 1.516.578.421.386.652.93.652 1.523zm-1.203 0c0-.578-.406-.996-.965-.996-.563 0-.969.418-.969.996 0 .574.406.992.969.992.559 0 .965-.418.965-.992zm12.832-.558v1.007h-2.848l.02.059c.09.3.304.512.629.61.261.078.617.074.882-.008.243-.075.383-.153.383-.153l.63.711c-.4.27-.938.43-1.442.43-1.336 0-2.239-.84-2.239-2.098 0-1.222.856-2.101 2.032-2.101 1.011 0 1.726.562 1.953 1.543zm-1.043.144l-.012-.058c-.094-.45-.43-.723-.902-.723-.477 0-.813.27-.906.723l-.012.058zm-5.078-1.687c-.54 0-.969.207-1.242.601l-.036.055-.039-.055c-.265-.394-.675-.601-1.191-.601-.492 0-.89.191-1.16.55l-.031.047-.223-.496h-1.238l.332.75v3.254h1.203v-2.308c0-.5.258-.797.695-.797.43 0 .684.297.684.797v2.308H18.8v-2.308c0-.5.258-.797.691-.797.43 0 .688.297.688.797v2.308h1.203v-2.48c0-.989-.606-1.625-1.54-1.625zm14.578 2.23c.238-.27.465-.582.691-.945h-1.265c-.563.734-1.13 1.101-1.688 1.09-.324-.008-.637-.153-.922-.352l.922-1.547.195.32c.282.403.61.196.75.098.196-.133.356-.273.356-.273l-1.3-2.176-3.376 5.656h1.211l.703-1.18c.414.282.895.485 1.434.497h.058c.5 0 .98-.157 1.442-.477l.691 1.16h1.211zm0 0"/></svg>