<svg viewBox="0 0 38 24" xmlns="http://www.w3.org/2000/svg" width="38" height="24" role="img" aria-labelledby="pi-authorizenet"><title id="pi-authorizenet">Authorize Net</title><path opacity=".07" d="M35 0H3C1.3 0 0 1.3 0 3v18c0 1.7 1.4 3 3 3h32c1.7 0 3-1.3 3-3V3c0-1.7-1.4-3-3-3z" fill="#000"/><path d="M35 1c1.1 0 2 .9 2 2v18c0 1.1-.9 2-2 2H3c-1.1 0-2-.9-2-2V3c0-1.1.9-2 2-2h32z" fill="#fff"/><mask id="pi-authorizenet-mask0_7183_23536" style="mask-type:luminance" maskUnits="userSpaceOnUse" x="4" y="11" width="3" height="3"><path d="M4 11.013h2.803v2.772H4v-2.772z" fill="#fff"/></mask><g mask="url(#pi-authorizenet-mask0_7183_23536)"><path d="M4.852 12.313c0 .14.047.256.141.354a.469.469 0 00.348.146.47.47 0 00.348-.146.488.488 0 00.142-.354.49.49 0 10-.98 0zm.968 1.097v-.041a.807.807 0 01-.267.17.92.92 0 01-.325.058 1.16 1.16 0 01-.874-.372 1.27 1.27 0 01-.355-.912c0-.36.118-.663.355-.911a1.159 1.159 0 011.199-.315.788.788 0 01.267.17v-.044c0-.034.011-.061.032-.083a.114.114 0 01.082-.031h.62c.033 0 .06.01.082.031.021.022.032.05.032.083v2.197a.113.113 0 01-.034.082.104.104 0 01-.077.034h-.619a.116.116 0 01-.082-.034.11.11 0 01-.036-.082z" fill="#19303F"/></g><path d="M8.161 12.84c.111 0 .195-.032.252-.096.057-.064.086-.158.086-.28v-1.266a.09.09 0 01.036-.072.125.125 0 01.083-.03h.612c.03 0 .058.01.083.03a.097.097 0 01.036.072v1.38a.93.93 0 01-.322.73c-.213.193-.5.288-.86.288-.364 0-.656-.096-.876-.29a.928.928 0 01-.33-.728v-1.38c0-.027.011-.05.035-.072.023-.02.05-.03.08-.03h.614c.03 0 .058.01.083.03.025.021.038.045.038.072v1.265a.4.4 0 00.09.279c.061.065.148.097.26.097zm2.58.732c-.265 0-.477-.07-.637-.209-.158-.14-.238-.332-.238-.578v-.987h-.25a.103.103 0 01-.079-.035.117.117 0 01-.033-.083v-.175a.44.44 0 01.015-.127.261.261 0 01.054-.091l.603-.67a.48.48 0 01.13-.109.302.302 0 01.132-.025h.162c.032 0 .06.01.081.033a.106.106 0 01.034.08v.5h.533c.032 0 .06.01.082.033a.107.107 0 01.034.081v.47a.114.114 0 01-.034.083.109.109 0 01-.082.035h-.533v.809c0 .059.015.106.047.14a.17.17 0 00.13.052.306.306 0 00.102-.02.722.722 0 00.126-.06c.048-.027.087-.037.12-.03.033.008.063.032.092.073l.214.321a.183.183 0 01.034.11.138.138 0 01-.042.095.884.884 0 01-.344.208 1.35 1.35 0 01-.453.076zm2.248-1.808a.394.394 0 00-.285.108.386.386 0 00-.111.291v1.246c0 .034-.01.061-.033.083a.111.111 0 01-.081.032h-.62a.111.111 0 01-.082-.032.112.112 0 01-.033-.083v-3.204a.111.111 0 01.114-.114h.62a.11.11 0 01.082.032.11.11 0 01.033.082v1.18a.76.76 0 01.295-.266.887.887 0 01.41-.092c.307 0 .538.092.695.273.157.182.236.446.236.792v1.317c0 .034-.01.061-.031.083a.115.115 0 01-.083.032h-.62a.114.114 0 01-.082-.032.115.115 0 01-.032-.083v-1.246a.393.393 0 00-.109-.291.389.389 0 00-.283-.108m2.301.546c0 .14.046.257.141.354a.468.468 0 00.348.146.47.47 0 00.348-.146.488.488 0 00.142-.353.49.49 0 10-.98 0zm-.853 0c0-.355.13-.658.392-.908.261-.249.577-.374.95-.374s.69.125.95.374c.262.25.392.553.392.909 0 .355-.13.658-.392.908-.26.25-.578.375-.95.375-.373 0-.689-.125-.95-.375a1.213 1.213 0 01-.392-.908zm3.033-1.214h.442c.049 0 .09.01.124.034a.244.244 0 01.084.103l.068.152c.09-.106.182-.188.277-.244a.548.548 0 01.28-.083c.098 0 .172.021.224.065.05.043.07.104.06.185l-.068.554a.244.244 0 01-.062.144.176.176 0 01-.13.048.38.38 0 01-.057-.006l-.089-.022a.816.816 0 00-.1-.026.363.363 0 00-.063-.006.253.253 0 00-.187.069.246.246 0 00-.071.187v1.171a.094.094 0 01-.036.072.119.119 0 01-.08.03h-.618a.11.11 0 01-.114-.112v-2.2a.11.11 0 01.033-.082.114.114 0 01.083-.033" fill="#19303F"/><mask id="pi-authorizenet-mask1_7183_23536" style="mask-type:luminance" maskUnits="userSpaceOnUse" x="19" y="10" width="2" height="2"><path d="M19.15 10h1.008v1.012H19.15V10z" fill="#fff"/></mask><g mask="url(#pi-authorizenet-mask1_7183_23536)"><path d="M20.108 10.464a.433.433 0 01-.14.322.462.462 0 01-.334.135.467.467 0 01-.335-.134.43.43 0 01-.141-.323c0-.125.046-.234.14-.325a.465.465 0 01.336-.138.46.46 0 01.334.138c.093.091.14.2.14.325z" fill="#0073FF"/></g><path d="M22.425 11.76l-.962 1.038h.958c.032 0 .058.012.08.032.02.022.031.049.031.08v.501a.108.108 0 01-.111.112h-1.99a.117.117 0 01-.083-.034.11.11 0 01-.035-.082v-.412c0-.03.003-.053.011-.073a.175.175 0 01.04-.06l.983-1.042h-.879a.116.116 0 01-.117-.116v-.49c0-.031.012-.059.035-.083a.113.113 0 01.082-.035h1.894a.11.11 0 01.082.035.116.116 0 01.034.083v.41a.2.2 0 01-.012.073.212.212 0 01-.041.062m1.092.238h.805a.396.396 0 00-.395-.32.411.411 0 00-.26.09.405.405 0 00-.15.23zm1.526 1.13a.999.999 0 01-.437.34 1.557 1.557 0 01-.633.127c-.387 0-.705-.12-.953-.36a1.213 1.213 0 01-.373-.911c0-.38.117-.691.349-.933.233-.242.54-.363.917-.363.366 0 .662.116.89.349.228.23.342.515.342.853v.139a.22.22 0 01-.035.128.113.113 0 01-.098.047h-1.513a.421.421 0 00.166.267.523.523 0 00.32.098.577.577 0 00.434-.19.15.15 0 01.09-.047.149.149 0 01.097.028l.41.268a.1.1 0 01.05.073.123.123 0 01-.023.087z" fill="#19303F"/><path d="M26.412 13.049a.52.52 0 01-.16.384.528.528 0 01-.387.161.52.52 0 01-.383-.161.523.523 0 01-.16-.384c0-.15.054-.279.16-.385a.523.523 0 01.383-.16c.15 0 .28.054.387.16a.52.52 0 01.16.385z" fill="#FFC200"/><path d="M27.913 11.763a.395.395 0 00-.286.109.39.39 0 00-.111.291v1.246a.11.11 0 01-.032.083.111.111 0 01-.082.031h-.62a.112.112 0 01-.082-.031.112.112 0 01-.032-.083V11.21c0-.033.01-.06.032-.083a.113.113 0 01.082-.031h.62a.11.11 0 01.114.114v.175a.767.767 0 01.295-.266.887.887 0 01.41-.092c.307 0 .538.092.696.273.156.182.235.446.235.792v1.317c0 .034-.01.061-.031.083a.115.115 0 01-.083.031h-.62a.115.115 0 01-.082-.031.115.115 0 01-.031-.083v-1.246a.393.393 0 00-.11-.291.386.386 0 00-.282-.109m2.321.234h.804a.37.37 0 00-.135-.23.398.398 0 00-.259-.09.41.41 0 00-.26.09.4.4 0 00-.15.23zm1.525 1.13a.996.996 0 01-.436.34 1.562 1.562 0 01-.634.127c-.387 0-.705-.12-.953-.36a1.217 1.217 0 01-.373-.911c0-.38.117-.691.35-.933.233-.242.538-.363.917-.363.365 0 .661.116.89.349.227.23.34.515.34.853v.139a.21.21 0 01-.034.128.113.113 0 01-.097.047h-1.513a.422.422 0 00.166.267.52.52 0 00.32.098.576.576 0 00.434-.19.15.15 0 01.09-.047.15.15 0 01.097.028l.41.268a.1.1 0 01.05.073.119.119 0 01-.024.087z" fill="#19303F"/><mask id="pi-authorizenet-mask2_7183_23536" style="mask-type:luminance" maskUnits="userSpaceOnUse" x="31" y="10" width="3" height="4"><path d="M31.75 10.257H34v3.528h-2.25v-3.528z" fill="#fff"/></mask><g mask="url(#pi-authorizenet-mask2_7183_23536)"><path d="M33.16 13.576c-.265 0-.477-.07-.636-.209-.16-.14-.238-.332-.238-.578v-.987h-.251a.102.102 0 01-.079-.034.117.117 0 01-.033-.084v-.175c0-.053.005-.094.015-.126a.258.258 0 01.053-.092l.604-.67a.482.482 0 01.129-.109.306.306 0 01.134-.025h.161a.1.1 0 01.08.033.106.106 0 01.034.081v.5h.534c.031 0 .059.01.082.032a.107.107 0 01.034.081v.47a.114.114 0 01-.034.084.109.109 0 01-.082.034h-.534v.81c0 .058.016.105.048.139a.171.171 0 00.13.052.313.313 0 00.103-.02.749.749 0 00.125-.06c.047-.027.087-.037.12-.03.032.008.063.032.092.074l.214.32a.183.183 0 01.035.11.139.139 0 01-.044.095.877.877 0 01-.343.208c-.142.05-.293.076-.452.076z" fill="#19303F"/></g><path d="M20.06 11.21v2.2a.105.105 0 01-.034.08.11.11 0 01-.083.033h-.615a.113.113 0 01-.116-.114V11.21a.113.113 0 01.116-.114h.615c.034 0 .061.01.083.033a.107.107 0 01.034.081z" fill="#19303F"/></svg>