<svg xmlns="http://www.w3.org/2000/svg" aria-labelledby="pi-bancontact" role="img" viewBox="0 0 38 24" width="38" height="24"><title id="pi-bancontact">Bancontact</title><path fill="#000" opacity=".07" d="M35 0H3C1.3 0 0 1.3 0 3v18c0 1.7 1.4 3 3 3h32c1.7 0 3-1.3 3-3V3c0-1.7-1.4-3-3-3z"/><path fill="#fff" d="M35 1c1.1 0 2 .9 2 2v18c0 1.1-.9 2-2 2H3c-1.1 0-2-.9-2-2V3c0-1.1.9-2 2-2h32"/><path d="M4.703 3.077h28.594c.139 0 .276.023.405.068.128.045.244.11.343.194a.9.9 0 0 1 .229.29c.053.107.08.223.08.34V20.03a.829.829 0 0 1-.31.631 1.164 1.164 0 0 1-.747.262H4.703a1.23 1.23 0 0 1-.405-.068 1.09 1.09 0 0 1-.343-.194.9.9 0 0 1-.229-.29.773.773 0 0 1-.08-.34V3.97c0-.118.027-.234.08-.342a.899.899 0 0 1 .23-.29c.098-.082.214-.148.342-.193a1.23 1.23 0 0 1 .405-.068Z" fill="#fff"/><path d="M6.38 18.562v-3.077h1.125c.818 0 1.344.259 1.344.795 0 .304-.167.515-.401.638.338.132.536.387.536.734 0 .62-.536.91-1.37.91H6.38Zm.724-1.798h.537c.328 0 .468-.136.468-.387 0-.268-.255-.356-.599-.356h-.406v.743Zm0 1.262h.448c.438 0 .693-.093.693-.383 0-.286-.219-.404-.63-.404h-.51v.787Zm3.284.589c-.713 0-1.073-.295-1.073-.69 0-.436.422-.69 1.047-.695.156.002.31.014.464.035v-.105c0-.269-.183-.396-.531-.396a2.128 2.128 0 0 0-.688.105l-.13-.474a3.01 3.01 0 0 1 .9-.132c.767 0 1.147.343 1.147.936v1.222c-.214.093-.615.194-1.136.194Zm.438-.497v-.47a2.06 2.06 0 0 0-.37-.036c-.24 0-.427.08-.427.286 0 .185.156.281.432.281a.947.947 0 0 0 .365-.061Zm1.204.444v-2.106a3.699 3.699 0 0 1 1.177-.193c.76 0 1.198.316 1.198.9v1.399h-.719v-1.354c0-.303-.167-.444-.484-.444a1.267 1.267 0 0 0-.459.079v1.719h-.713Zm4.886-2.167-.135.479a1.834 1.834 0 0 0-.588-.11c-.422 0-.652.25-.652.664 0 .453.24.685.688.685.2-.004.397-.043.578-.114l.115.488a2.035 2.035 0 0 1-.75.128c-.865 0-1.365-.453-1.365-1.17 0-.712.495-1.182 1.323-1.182.27-.001.538.043.787.132Zm1.553 2.22c-.802 0-1.302-.47-1.302-1.178 0-.704.5-1.174 1.302-1.174.807 0 1.297.47 1.297 1.173 0 .708-.49 1.179-1.297 1.179Zm0-.502c.37 0 .563-.259.563-.677 0-.413-.193-.672-.563-.672-.364 0-.568.26-.568.672 0 .418.204.677.568.677Zm1.713.449v-2.106a3.699 3.699 0 0 1 1.177-.193c.76 0 1.198.316 1.198.9v1.399h-.719v-1.354c0-.303-.166-.444-.484-.444a1.268 1.268 0 0 0-.459.079v1.719h-.713Zm3.996.053c-.62 0-.938-.286-.938-.866v-.95h-.354v-.484h.355v-.488l.718-.03v.518h.578v.484h-.578v.94c0 .256.125.374.36.374.093 0 .185-.008.276-.026l.036.488c-.149.028-.3.041-.453.04Zm1.814 0c-.713 0-1.073-.295-1.073-.69 0-.436.422-.69 1.047-.695.155.002.31.014.464.035v-.105c0-.269-.183-.396-.532-.396a2.128 2.128 0 0 0-.687.105l-.13-.474a3.01 3.01 0 0 1 .9-.132c.766 0 1.146.343 1.146.936v1.222c-.213.093-.614.194-1.135.194Zm.438-.497v-.47a2.06 2.06 0 0 0-.37-.036c-.24 0-.427.08-.427.286 0 .185.156.281.432.281a.946.946 0 0 0 .365-.061Zm3.157-1.723-.136.479a1.834 1.834 0 0 0-.588-.11c-.422 0-.651.25-.651.664 0 .453.24.685.687.685.2-.004.397-.043.578-.114l.115.488a2.035 2.035 0 0 1-.75.128c-.865 0-1.365-.453-1.365-1.17 0-.712.495-1.182 1.323-1.182.27-.001.538.043.787.132Zm1.58 2.22c-.62 0-.938-.286-.938-.866v-.95h-.354v-.484h.354v-.488l.72-.03v.518h.577v.484h-.578v.94c0 .256.125.374.36.374.092 0 .185-.008.276-.026l.036.488c-.149.028-.3.041-.453.04Z" fill="#1E3764"/><path d="M11.394 13.946c3.803 0 5.705-2.14 7.606-4.28H6.38v4.28h5.014Z" fill="url(#pi-bancontact-a)"/><path d="M26.607 5.385c-3.804 0-5.705 2.14-7.607 4.28h12.62v-4.28h-5.013Z" fill="url(#pi-bancontact-b)"/><defs><linearGradient id="pi-bancontact-a" x1="8.933" y1="12.003" x2="17.734" y2="8.13" gradientUnits="userSpaceOnUse"><stop stop-color="#005AB9"/><stop offset="1" stop-color="#1E3764"/></linearGradient><linearGradient id="pi-bancontact-b" x1="19.764" y1="10.037" x2="29.171" y2="6.235" gradientUnits="userSpaceOnUse"><stop stop-color="#FBA900"/><stop offset="1" stop-color="#FFD800"/></linearGradient></defs></svg>