<svg xmlns="http://www.w3.org/2000/svg" width="38" height="24" fill="none" viewBox="0 0 38 24" aria-labelledby="pi-chinabank" role="img"><title id="pi-chinabank">Chinabank</title><g clip-path="url(#clip0_1_1272)"><path fill="#000" d="M35 0H3C1.3 0 0 1.3 0 3v18a3 3 0 0 0 3 3h32c1.7 0 3-1.3 3-3V3a3 3 0 0 0-3-3Z" opacity=".07"/><path fill="#fff" d="M35 1a2 2 0 0 1 2 2v18a2 2 0 0 1-2 2H3a2 2 0 0 1-2-2V3c0-1.1.9-2 2-2h32Z"/><mask id="pi-chinabank-mask0_1_1272" width="32" height="3" x="3" y="11" maskUnits="userSpaceOnUse" style="mask-type:luminance"><path fill="#fff" d="M3 11h32v2.83H3V11Z"/></mask><g fill="#FE041F" mask="url(#pi-chinabank-mask0_1_1272)"><path d="M11.2 13.82c-.4-.02-.74-.13-1-.32a1.1 1.1 0 0 1-.45-1.04c.03-.32.18-.61.44-.88.16-.15.3-.25.48-.34.27-.13.55-.2.9-.23h.46c.32.03.56.09.79.2.35.19.55.46.57.8v.05l-.56.03-.57.02v-.04a.65.65 0 0 0-.06-.25c-.06-.11-.14-.17-.3-.2h-.26a.57.57 0 0 0-.4.27c-.04.07-.08.15-.13.33-.08.24-.12.41-.11.56 0 .14.03.21.1.28.03.04.05.05.09.07.1.04.21.06.33.05.12 0 .23-.03.31-.08a.74.74 0 0 0 .2-.2c.03-.03.08-.14.1-.17l.35.03.72.06c0 .03-.02.05-.03.08-.08.15-.18.3-.31.41-.15.14-.32.26-.5.34-.22.1-.48.16-.77.17h-.4Zm2.21-.1a6 6 0 0 1 .03-.14l.39-1.64.06-.29h.85l-.1.38-.08.38h.76l.08-.35.1-.37v-.04h.84v.01l-.41 1.77-.07.29h-.84s0-.05.13-.56l.06-.27h-.76l-.02.1-.16.66-.02.07h-.84Zm2.95 0 .24-1.03.25-1.02v-.02h.82l-.1.44-.37 1.55-.01.08H16.37Zm1.34 0 .4-1.7.08-.36h.79l.2.3.5.82.05.08v-.06c0-.1 0-.16.12-.63l.08-.37.04-.15h.69l-.24 1.03-.24 1.03h-.65l-.05-.06-.18-.26-.4-.58a2.08 2.08 0 0 1-.2-.36l-.02-.04v.06c0 .1 0 .11-.1.5l-.17.74h-.71Zm2.76 0 .18-.28.1-.16.13-.2.15-.23.16-.23.34-.53.28-.44h.92v.01l.04.19.4 1.8v.06h-.85l-.04-.19-.04-.2v-.03h-.78l-.14.22-.14.2h-.71Zm1.63-.85h.09l-.12-.6-.2.3-.18.3H22.09Zm1.34.85.38-1.6.1-.46h1.4c.31.01.48.05.62.14.1.07.18.16.2.27.02.03.02.04.02.1a.3.3 0 0 1-.01.09.43.43 0 0 1-.07.13.8.8 0 0 1-.48.26l-.06.01.05.02c.25.07.4.2.42.37.01.03 0 .1 0 .14a.5.5 0 0 1-.08.2.9.9 0 0 1-.15.15c-.14.1-.35.16-.66.17h-1.68Zm1.52-.46c.1-.02.18-.06.2-.13.06-.1 0-.2-.13-.24l-.32-.02h-.23l-.03.13-.04.18-.02.08H24.95Zm.06-.82c.19-.02.28-.07.3-.16 0-.09-.04-.15-.15-.17-.06-.02-.1-.02-.31-.02h-.2l-.03.17-.04.18H25Zm1.03 1.28.72-1.1.19-.3.23-.35.14-.21.07-.1h.91l.11.51.1.46.24 1.08-.43.01h-.43l-.03-.2-.04-.2v-.02h-.79l-.05.08-.14.21-.08.13h-.72Zm1.69-.85h.03l-.06-.3-.05-.3-.2.3-.2.3h.48Zm1.3.8.47-2v-.02h.79l.21.33.42.65.11.22v-.03l.04-.3.2-.86h.7l-.23.96-.24 1.03-.02.07h-.64l-.15-.21-.54-.79a1.8 1.8 0 0 1-.14-.27l-.02-.04v.05l-.01.18-.13.53-.12.52v.03h-.71v-.06Zm2.96.05.4-1.67.09-.4h.8l-.22.95.03-.03c.07-.1.15-.18.24-.25l.25-.2.35-.3.21-.17h.83l-.4.33-.58.45.2.45.36.83h-.86l-.02-.05-.25-.65-.06-.14-.1.07-.2.17-.14.1-.02.06-.05.24-.05.2H32ZM3.74 13.1l.24-.7.23-.7h1.35c.15 0 .27.03.32.06.07.04.1.11.08.2a.43.43 0 0 1-.24.35.73.73 0 0 1-.17.05l-.06.02h.04c.1.02.17.05.22.1.04.04.05.05.04.13l-.01.1a.53.53 0 0 1-.13.22c-.11.11-.28.16-.6.17h-1.3Zm1.22-.23c.22 0 .29-.03.34-.11a.35.35 0 0 0 .06-.18c0-.05-.04-.07-.1-.08a3.51 3.51 0 0 0-.51-.02h-.36l-.06.2-.07.2h.7Zm.25-.6c.1 0 .16-.02.2-.05.03-.04.07-.1.08-.16 0-.05-.02-.1-.09-.12-.06-.02-.07-.02-.46-.02h-.36l-.12.36h.75Z"/><path d="M3.23 13.77a.38.38 0 0 1-.17-.17c-.05-.1-.04-.22.07-.6l.28-.97.22-.7a.8.8 0 0 1 .35-.3C4.07 11 4.22 11 6.3 11l2.32.04c.19.1.21.24.1.65l-.08.27h-.22c-.19 0-.22 0-.21-.03.06-.17.06-.28-.02-.36l-.05-.04H4.22a.53.53 0 0 0-.29.28l-.21.67c-.18.57-.19.6-.16.67.05.16-.08.15 2.06.15h1.9l.1-.04c.11-.06.23-.17.25-.25 0-.05.01-.05.24-.05.15 0 .23 0 .23.02a2.3 2.3 0 0 1-.15.48.74.74 0 0 1-.35.29c-.1.04-.14.04-2.33.04l-2.28-.02Z"/><path d="M6.54 13.12c-.34 0-.56-.05-.64-.12-.07-.06-.07-.22-.01-.46l.08-.3c.08-.22.2-.36.36-.43.11-.06.3-.1.6-.11h.63c.27.02.38.06.42.15.03.06.03.14 0 .26l-.02.06h-.44l.01-.05c.02-.05.02-.1 0-.13 0-.03-.02-.03-.05-.04a1.26 1.26 0 0 0-.37-.03c-.27 0-.43.01-.5.05-.08.04-.15.17-.23.41-.06.18-.08.3-.08.37v.06c.02.04.1.06.24.08h.47c.17-.02.23-.04.29-.1a.33.33 0 0 0 .08-.16l.01-.02h.45l-.02.04a.73.73 0 0 1-.16.29.5.5 0 0 1-.29.13c-.19.04-.49.06-.83.05Z"/></g></g><defs><clipPath id="pi-chinabank-clip0_1_1272"><path fill="#fff" d="M0 0h38v24H0z"/></clipPath></defs></svg>