<svg xmlns="http://www.w3.org/2000/svg" role="img" viewBox="0 0 38 24" width="38" height="24" aria-labelledby="pi-directbanktransferlatinamerica"><title id="pi-directbanktransferlatinamerica">Direct Bank Transfer Latin America</title><g clip-path="url(#pi-directbanktransferlatinamerica_clip0_24_64)"><path d="M35 .001H3c-1.7 0-3 1.3-3 3v18C0 22.7 1.4 24 3 24h32c1.7 0 3-1.3 3-3V3c0-1.7-1.4-3-3-3v.001z" fill="#000" fill-opacity=".07"/><path d="M35 1c1.1 0 2.001.9 2.001 2v18a2.006 2.006 0 01-2 2H3A2.007 2.007 0 011 21V3c0-1.1.9-2 2.001-2h32z" fill="#fff"/><path d="M14 5.626C13.999 4.732 14.578 4 15.294 4h7.425C23.426 4 24 4.716 24 5.6v12.8c0 .884-.573 1.6-1.281 1.6h-7.438c-.707 0-1.28-.715-1.28-1.6V5.93L14 5.627z" fill="#086981"/><path d="M19.179 19.273a.54.54 0 00.535-.546.54.54 0 00-.535-.545.54.54 0 00-.536.545c0 .302.24.546.536.546zM14.857 6.482c0-.688.477-1.251 1.068-1.251h6.127c.584 0 1.057.55 1.057 1.23v9.847c0 .68-.473 1.23-1.057 1.23h-6.138c-.584 0-1.057-.55-1.057-1.23V6.716v-.234z" fill="#29CFD4"/><path d="M19.311 9.132a.237.237 0 00-.265 0l-2.082 1.4c-.197.133-.104.443.133.443h.147v1.885h3.87v-1.885h.146c.237 0 .33-.31.133-.442l-2.082-1.401zM17.244 12.86a.196.196 0 00-.193.198h.055a.257.257 0 00-.249.26v.137H21.5v-.137a.257.257 0 00-.249-.26h.055a.196.196 0 00-.193-.198h-3.869z" fill="#fff"/><path d="M19.14 17.539h2.912c.584 0 1.057-.551 1.057-1.231V6.462c0-.68-.473-1.231-1.057-1.231h-3.309c3.97 4.5-2.207 8 .397 12.308z" fill="#000" fill-opacity=".08"/></g><defs><clipPath id="pi-directbanktransferlatinamerica_clip0_24_64"><path fill="#fff" d="M0 0h38v24H0z"/></clipPath></defs></svg>