<svg xmlns="http://www.w3.org/2000/svg" role="img" viewBox="0 0 38 24" width="38" height="24" fill="none" aria-labelledby="pi-gift-card"><title id="pi-gift-card">Gift Card</title><g clip-path="url(#pi-gift-card)"><rect width="38" height="24" rx="3" fill="#F5F5F5" /><rect x=".5" y=".5" width="37" height="23" rx="2.5" stroke="#000" stroke-opacity=".07" /><path fill-rule="evenodd" clip-rule="evenodd" d="M15.275 12c.939 1.246 2.296 2 3.725 2a1 1 0 1 1 0 2c-2.002 0-3.75-.932-5-2.397V24h-2V13.603C10.75 15.068 9.002 16 7 16a1 1 0 1 1 0-2c1.43 0 2.786-.754 3.725-2H0v-2h5.385A3.129 3.129 0 0 1 5 8.5C5 6.567 6.79 5 9 5c1.195 0 2.267.458 3 1.185V0h2v6.185C14.733 5.458 15.805 5 17 5c2.21 0 4 1.567 4 3.5a3.13 3.13 0 0 1-.385 1.5H38v2H15.275ZM17 10c1.364 0 2-.914 2-1.5S18.364 7 17 7c-1.364 0-2 .914-2 1.5V10h2Zm-6 0V8.5c0-.586-.636-1.5-2-1.5-1.364 0-2 .914-2 1.5S7.636 10 9 10h2Z" fill="#707070" /></g><defs><clipPath id="pi-gift-card"><path fill="#fff" d="M0 0h38v24H0z"/></clipPath></defs></svg>