<svg xmlns="http://www.w3.org/2000/svg" role="img" width="38" height="24" viewBox="0 0 38 24" aria-labelledby="pi-klarna-pay-later" fill="none"><title id="pi-klarna-pay-later">Klarna Pay Later</title><rect width="38" height="24" rx="2" fill="#FFA8CD"/><rect x=".5" y=".5" width="37" height="23" rx="1.5" stroke="#000" stroke-opacity=".07"/><path d="M30.62 14.755c-.662 0-1.179-.554-1.179-1.226 0-.673.517-1.226 1.18-1.226.663 0 1.18.553 1.18 1.226 0 .672-.517 1.226-1.18 1.226zm-.33 1.295c.565 0 1.286-.217 1.686-1.068l.04.02c-.176.465-.176.742-.176.81v.11h1.423v-4.786H31.84v.109c0 .069 0 .346.175.81l-.039.02c-.4-.85-1.121-1.068-1.687-1.068-1.355 0-2.31 1.088-2.31 2.522 0 1.433.955 2.521 2.31 2.521zm-4.788-5.043c-.643 0-1.15.228-1.56 1.068l-.039-.02c.175-.464.175-.741.175-.81v-.11h-1.423v4.787h1.462V13.4c0-.662.38-1.078.995-1.078.614 0 .917.356.917 1.068v2.532h1.462v-3.046c0-1.088-.838-1.869-1.989-1.869zm-4.963 1.068l-.039-.02c.176-.464.176-.741.176-.81v-.11h-1.424v4.787h1.463l.01-2.304c0-.673.35-1.078.926-1.078.156 0 .282.02.429.06v-1.464c-.644-.139-1.22.109-1.54.94zm-4.65 2.68c-.664 0-1.18-.554-1.18-1.226 0-.673.516-1.226 1.18-1.226.662 0 1.179.553 1.179 1.226 0 .672-.517 1.226-1.18 1.226zm-.332 1.295c.565 0 1.287-.217 1.687-1.068l.038.02c-.175.465-.175.742-.175.81v.11h1.424v-4.786h-1.424v.109c0 .069 0 .346.175.81l-.038.02c-.4-.85-1.122-1.068-1.687-1.068-1.356 0-2.311 1.088-2.311 2.522 0 1.433.955 2.521 2.31 2.521zm-4.349-.128h1.463V9h-1.463v6.922zM10.136 9H8.644c0 1.236-.751 2.343-1.892 3.134l-.448.317V9h-1.55v6.922h1.55V12.49l2.564 3.43h1.892L8.293 12.64c1.121-.82 1.852-2.096 1.843-3.639z" fill="#0B051D"/></svg>