<svg viewBox="0 0 38 24" xmlns="http://www.w3.org/2000/svg" width="38" height="24" role="img" aria-labelledby="pi-maybank"><title id="pi-maybank">Maybank</title><path fill="#FFC80B" d="M2 0h34a2 2 0 0 1 2 2v20a2 2 0 0 1-2 2H2a2 2 0 0 1-2-2V2a2 2 0 0 1 2-2z"/><path fill="#000" d="M7.441 13.794l1.13-3.083.369 3.083h1.193l-.646-4.529H8.031l-.964 2.721-.965-2.721H4.646L4 13.794h1.193l.369-3.083 1.13 3.083h.749zm6.272-3.367l1.535 3.367-.608 1.321h1.322l2.109-4.688h-1.364l-.809 2.354-.821-2.354h-1.364zM34 13.79l-1.396-1.801 1.272-1.562h-1.421l-1.13 1.47V8.893H30.09v4.897h1.235v-1.705l1.268 1.705H34zm-15.73-.17s.653.245 1.57.245 2.11-.284 2.11-1.861-1.584-1.634-1.769-1.634a1.44 1.44 0 0 0-.653.137V8.885H18.27v4.735zm1.257-.607v-1.771c.251-.084 1.158-.311 1.158.84 0 1.172-.931.992-1.158.931m3.097-1.734c1.804-.533 1.804.107 1.804.192v.114c-1.46.012-2.33.43-2.33 1.186 0 .767.81 1.101 1.882 1.101s1.62-.249 1.62-.249v-2.096c0-.738-.476-1.208-1.62-1.208s-1.641.27-1.641.27l.285.69zm.633 1.477c0-.484.92-.519 1.172-.519v.863c-.263.031-1.172.106-1.172-.344m-12.438-1.477c1.804-.533 1.804.107 1.804.192v.114c-1.46.012-2.33.43-2.33 1.186 0 .767.81 1.101 1.882 1.101s1.62-.249 1.62-.249v-2.096c0-.738-.476-1.208-1.62-1.208s-1.641.27-1.641.27l.285.69zm.632 1.477c0-.484.92-.519 1.172-.519v.863c-.263.031-1.172.106-1.172-.344m16.927 1.03h1.243v-2.131c0-1.108-.796-1.342-1.776-1.342s-1.769.27-1.769.27v3.204h1.243v-2.548c.956-.28 1.059.18 1.059.403v2.144z"/></svg>