<svg xmlns="http://www.w3.org/2000/svg" role="img" viewBox="0 0 38 24" width="38" height="24" aria-labelledby="pi-medicinosbankas"><title id="pi-medicinosbankas">Medicinos bankas</title><path d="M35 0H3C1.3 0 0 1.3 0 3v18c0 1.7 1.4 3 3 3h32c1.7 0 3-1.3 3-3V3c0-1.7-1.4-3-3-3z" fill-opacity=".07" fill-rule="nonzero"/><path d="M35 1c1.1 0 2 .9 2 2v18c0 1.1-.9 2-2 2H3c-1.1 0-2-.9-2-2V3c0-1.1.9-2 2-2h32" fill="#fff" fill-rule="nonzero"/><clipPath id="pi-medicinosbankas_clip1"><path d="M35 1c1.1 0 2 .9 2 2v18c0 1.1-.9 2-2 2H3c-1.1 0-2-.9-2-2V3c0-1.1.9-2 2-2h32" clip-rule="nonzero"/></clipPath><g clip-path="url(#pi-medicinosbankas_clip1)"><path d="M24.188 15.34v-.439c.113.04.228.1.34.18l-.34-1.058v-.748h1.019v.122c-.075.01-.112.05-.112.121 0 .016.025.103.075.259.05.159.115.352.193.582l.29.857c.114.339.183.538.202.594.021.069.043.131.065.187.019.06.047.116.075.168a.457.457 0 00.109.134.332.332 0 00.155.066v.121h-1.681v-.121a.3.3 0 00.193-.088.268.268 0 00.075-.199.577.577 0 00-.125-.333 1.138 1.138 0 00-.286-.274 1.156 1.156 0 00-.247-.13zm4.943-1.1l-.1.016a1.001 1.001 0 00-.146-.255 1.296 1.296 0 00-.218-.215 1.06 1.06 0 00-.268-.146.845.845 0 00-.286-.053.612.612 0 00-.34.102.327.327 0 00-.159.284c0 .103.04.18.119.224.074.044.193.094.352.146l.57.172c.162.05.305.109.423.177a.815.815 0 01.283.271.801.801 0 01.103.42c0 .371-.171.667-.517.891-.286.194-.654.29-1.096.29-.184 0-.411-.025-.685-.075a2.043 2.043 0 00-.321-.046.372.372 0 00-.265.115l-.105-1.361.105-.016c.032.187.103.359.21.508.105.152.239.27.4.355a1.09 1.09 0 00.848.081.554.554 0 00.252-.156.39.39 0 00.103-.28c0-.115-.04-.203-.121-.256a1.398 1.398 0 00-.343-.149l-.492-.159c-.262-.084-.452-.171-.567-.265a.792.792 0 01-.212-.264.76.76 0 01-.018-.633c.04-.102.093-.199.162-.283a.964.964 0 01.23-.22c.255-.175.56-.263.915-.263.113 0 .278.022.502.063.14.025.224.04.255.04.137 0 .237-.04.302-.118l.125 1.059zm-4.943-.965v.75l-.03-.102-.309.919c.112 0 .227.018.34.059v.44a1.362 1.362 0 00-.49-.085l-.177.498a1.44 1.44 0 00-.093.393c0 .127.074.2.224.218v.121H22.59v-.006h.01v-.115h-.01v-.003a.412.412 0 00.196-.112.78.78 0 00.134-.178c.031-.062.072-.153.118-.265l.766-2.024a.866.866 0 00.085-.265c0-.071-.038-.112-.11-.121v-.122h.408zm-1.597 3.087v.003c-.106-.003-.184-.034-.234-.094a1.022 1.022 0 01-.152-.29 7.361 7.361 0 00-.28-.712 4.71 4.71 0 00-.34-.62 3.783 3.783 0 00-.452-.56l.25-.213c.326-.277.632-.436.915-.48v-.12h-1.414v.12c.056.004.11.02.156.05a.15.15 0 01.071.131c0 .038-.018.082-.059.134a1.44 1.44 0 01-.13.156l-.137.134-.52.467v-.56c0-.178.018-.309.059-.39.04-.078.109-.118.208-.121l-.006-.122h-1.532v.122c.1 0 .168.037.209.112.04.075.062.202.062.377v1.99c0 .174-.022.299-.062.374-.041.077-.11.115-.21.115v.121h1.567v-.121a.25.25 0 01-.224-.119c-.05-.077-.072-.202-.072-.37v-1.003l.169-.156c.211.25.364.48.47.689.053.105.109.246.168.414.06.168.09.293.09.377 0 .106-.074.162-.224.168v.115h1.654v.006h-.01v-.121l.01-.003zm-9.038-1.022v-.439c.112.04.227.1.34.18l-.34-1.058v-.748h1.018v.122c-.074.01-.112.05-.112.121 0 .016.025.103.075.259a349.694 349.694 0 00.483 1.439l.202.594c.022.069.044.131.066.187.018.06.046.116.074.168a.514.514 0 00.11.134.332.332 0 00.155.066v.121h-1.682v-.121a.3.3 0 00.193-.088.268.268 0 00.075-.199.575.575 0 00-.125-.333 1.138 1.138 0 00-.286-.274 1.158 1.158 0 00-.246-.13zm4.656-1.454c0-.327-.097-.49-.296-.49v-.12h.981v.12c-.1 0-.168.038-.209.113-.04.078-.059.202-.059.377v1.983c0 .175.019.3.06.377.04.075.109.113.208.113v.12h-.98v-.114c.164-.028.248-.122.248-.28a.538.538 0 00-.075-.28 2.128 2.128 0 00-.214-.281l-1.449-1.67v2.022c0 .171.019.296.06.374.037.077.106.115.205.115v.121h-.95v-.121c.1 0 .168-.038.209-.115.04-.075.062-.2.062-.374v-1.99c0-.175-.022-.302-.062-.377-.04-.075-.11-.112-.209-.112v-.122h1.866v.122c-.085.025-.128.068-.128.13 0 .06.065.162.196.315l.536.657v-.613zm-4.656-.61v.75l-.031-.103-.309.919c.113 0 .228.018.34.059v.44a1.362 1.362 0 00-.489-.085l-.177.498a1.438 1.438 0 00-.094.393c0 .127.075.2.224.218v.121h-1.071v-.121a.423.423 0 00.206-.115.774.774 0 00.133-.178c.032-.062.072-.153.119-.265l.766-2.024a.862.862 0 00.084-.265c0-.071-.037-.112-.109-.121v-.122h.408zm-3.348 3.21v-.327a.891.891 0 00.265-.071.56.56 0 00.255-.225.676.676 0 00.094-.364.755.755 0 00-.144-.458 1.083 1.083 0 00-.383-.333l-.087.031v-.358c.106-.053.196-.115.274-.193a.406.406 0 00.13-.3.233.233 0 00-.136-.223.658.658 0 00-.268-.069v-.32h.492c.168 0 .312.009.43.024.118.016.224.06.311.131.09.069.137.178.137.327a.55.55 0 01-.24.452 2.554 2.554 0 01-.582.314c.196.031.377.09.545.175.165.087.3.199.402.342.1.143.153.312.153.508a.798.798 0 01-.128.442.98.98 0 01-.358.324 1.127 1.127 0 01-.411.137 3.943 3.943 0 01-.533.034h-.218zm0-3.21v.32h-.04c-.156 0-.259.025-.312.075-.034.031-.05.106-.05.224v.63c.119-.029.24-.072.362-.125l.04-.02v.36l-.402.133v.968c0 .094.007.162.016.203.01.044.034.075.078.093.04.02.106.028.2.028.036 0 .074-.003.108-.006v.327H8.533v-.121c.1 0 .171-.038.211-.115.038-.075.06-.2.06-.374v-1.99c0-.175-.022-.302-.06-.377-.04-.075-.112-.112-.211-.112v-.122h1.672zm17.68-2.433v-.42a.505.505 0 00.405-.112.75.75 0 00.212-.309c.065-.162.1-.38.1-.645 0-.367-.047-.67-.14-.912a1.156 1.156 0 00-.15-.271.875.875 0 00-.224-.205.504.504 0 00-.203-.075v-.42h.016c.159 0 .311.015.46.043.15.028.297.075.437.14.137.062.258.143.364.237.168.155.3.349.383.576a1.969 1.969 0 01.075 1.159c-.037.149-.09.286-.165.417-.072.13-.159.243-.265.342a1.599 1.599 0 01-.588.337 2.206 2.206 0 01-.701.118h-.016zm4.71-2.323l-.104.012a1.045 1.045 0 00-.364-.47.943.943 0 00-.265-.143.79.79 0 00-.286-.053.62.62 0 00-.343.103.327.327 0 00-.155.283c0 .103.037.177.115.221.077.047.196.096.355.146l.57.172c.161.05.302.112.423.18a.78.78 0 01.28.271.762.762 0 01.106.418c0 .37-.174.67-.516.893-.29.193-.655.29-1.1.29a3.9 3.9 0 01-.682-.075 1.832 1.832 0 00-.32-.05.385.385 0 00-.265.116l-.11-1.358.11-.016c.03.187.1.358.205.508.106.15.24.268.402.355a1.145 1.145 0 00.85.08.592.592 0 00.252-.158.398.398 0 00.1-.277c0-.118-.04-.203-.118-.256a1.44 1.44 0 00-.346-.149l-.492-.162c-.259-.08-.449-.168-.567-.261a.809.809 0 01-.286-.592c0-.1.018-.203.059-.309.037-.102.09-.196.158-.283.07-.087.147-.159.23-.218.256-.177.562-.265.92-.265.109 0 .277.022.501.066.137.025.221.037.252.037.14 0 .24-.037.306-.115l.124 1.059zm-4.71-1.047v.42c-.025-.002-.05-.006-.075-.006a.457.457 0 00-.311.119.864.864 0 00-.218.299c-.075.171-.112.392-.112.663 0 .358.05.664.153.913.062.156.15.283.258.389.09.087.19.137.305.153v.42a2.353 2.353 0 01-.691-.109 1.467 1.467 0 01-.872-.682 1.76 1.76 0 01-.172-.436 1.966 1.966 0 01-.055-.467c0-.256.046-.49.14-.698.09-.208.218-.386.383-.53.165-.146.355-.258.576-.332a2.17 2.17 0 01.691-.116zm-13.78 3.29v-.365a.686.686 0 00.22-.128c.134-.115.237-.265.3-.445.065-.178.099-.365.099-.555 0-.15-.022-.305-.062-.467a1.665 1.665 0 00-.175-.455 1.006 1.006 0 00-.383-.395v-.386l.05.003c.112.01.227.025.34.053a1.507 1.507 0 01.632.305c.199.156.355.352.464.586.112.24.165.485.165.744 0 .221-.037.43-.119.629a1.31 1.31 0 01-.348.504c-.265.234-.66.359-1.184.371zm3.437 0h-1.535v-.122c.097 0 .168-.038.206-.113.04-.074.062-.202.062-.376v-1.99c0-.175-.022-.3-.062-.374-.038-.078-.11-.115-.206-.115V7.55h1.535v.122a.225.225 0 00-.208.115c-.04.078-.06.202-.06.374v1.99c0 .174.02.299.06.373.043.078.112.116.208.116v.121zm3.168.108a.151.151 0 00-.09-.065.57.57 0 00-.144-.013l-.697.05c-.274 0-.536-.037-.782-.112a2.083 2.083 0 01-.664-.333 1.574 1.574 0 01-.454-.555 1.692 1.692 0 01-.165-.76c0-.252.046-.482.14-.681.09-.203.221-.374.386-.511a1.69 1.69 0 01.576-.312 2.3 2.3 0 01.695-.106c.205 0 .439.025.7.075.078.013.14.019.181.019.112 0 .193-.044.246-.131l.277 1.386-.102.028a1.793 1.793 0 00-.246-.473 1.315 1.315 0 00-.377-.356.943.943 0 00-.486-.134.818.818 0 00-.499.156.945.945 0 00-.314.405 1.423 1.423 0 00-.106.539c0 .171.025.342.075.51.05.169.121.318.215.45a1.193 1.193 0 00.937.482 1.019 1.019 0 00.972-.667l.112.04-.386 1.069zm2.005-.109h-1.538v-.121c.1 0 .168-.038.208-.113.041-.074.063-.202.063-.376v-1.99c0-.175-.022-.3-.063-.374-.04-.078-.109-.115-.208-.115V7.55h1.538v.122a.225.225 0 00-.208.115c-.04.078-.06.202-.06.374v1.99c0 .174.02.299.06.373.043.078.112.116.208.116v.121zm2.567-2.6c0-.324-.1-.49-.296-.49v-.12h.98v.12c-.099 0-.167.041-.208.116-.04.075-.062.2-.062.374v1.987c0 .174.022.299.062.373.04.075.11.115.209.115v.122h-.981v-.118c.165-.025.249-.119.249-.278a.53.53 0 00-.075-.28 1.767 1.767 0 00-.215-.28l-1.448-1.67v2.019c0 .174.019.299.06.373.037.078.105.116.202.116v.121h-.947v-.121c.1 0 .168-.038.209-.113.04-.074.059-.202.059-.376v-1.99c0-.175-.019-.3-.06-.377-.04-.075-.109-.112-.208-.112V7.55h1.866v.122c-.085.024-.128.068-.128.133 0 .057.065.163.196.312l.536.66v-.616zm-19.537.04v1.928c0 .18.022.308.066.39.043.077.118.117.227.12v.122h-.965v-.121c.096 0 .165-.038.202-.113.038-.074.056-.199.056-.376v-1.99c0-.178-.018-.302-.056-.377-.037-.075-.103-.112-.202-.112V7.55h1.644v.122c-.075.021-.112.062-.112.118 0 .025.012.072.034.14l.05.125.286.654.352-.695a.735.735 0 00.078-.224c0-.056-.028-.097-.084-.118V7.55H8.87v.122c-.1 0-.168.04-.209.115-.04.075-.059.2-.059.374v1.99c0 .174.019.299.06.376.04.075.108.113.208.113v.121H7.321v-.121c.1 0 .171-.038.215-.116.044-.074.065-.199.065-.373v-1.95l-.937 1.922-.919-1.922zm8.36-.635v.386a.74.74 0 00-.343-.081c-.125 0-.203.04-.23.115a.886.886 0 00-.048.327v1.592c0 .127.007.227.02.299.012.071.043.13.093.17.05.044.127.066.233.066.1 0 .19-.015.274-.043v.364h-1.89v-.121c.1 0 .168-.038.208-.113.041-.074.06-.202.06-.376v-1.99c0-.175-.019-.3-.06-.374-.04-.075-.109-.115-.208-.115V7.55h1.55c.125.003.237.006.34.016zm-5.143 3.195v-.121c.097 0 .169-.038.206-.113.04-.074.062-.202.062-.376v-1.99c0-.175-.022-.3-.062-.374-.037-.075-.11-.115-.206-.115V7.55h2.336c.144 0 .24-.025.287-.078l.249 1.125-.106.034a1.016 1.016 0 00-.39-.555 1.101 1.101 0 00-.66-.205.734.734 0 00-.302.047.227.227 0 00-.121.137c-.016.059-.025.15-.025.267v.278h.286c.169 0 .296-.022.38-.072.085-.047.128-.156.128-.32l.1-.016.215 1.236-.1.013A.919.919 0 0011 9.08a.521.521 0 00-.22-.127 1.253 1.253 0 00-.284-.028h-.265v.94a1.08 1.08 0 00-.006.118c0 .175.04.296.118.362.081.065.2.096.361.096.561 0 .988-.302 1.284-.91l.102.041-.414 1.27c-.053-.052-.15-.08-.293-.08" fill="#074455"/></g></svg>
