<svg viewBox="0 0 38 24" xmlns="http://www.w3.org/2000/svg" height="24" width="38" role="img" aria-labelledby="pi-ola_money"><title id="pi-ola_money">Ola Money</title><g fill-rule="evenodd" fill="none"><path fill="#EDEDED" d="M34.5 24h-31C1.6 24 0 22.4 0 20.5v-17C0 1.6 1.6 0 3.5 0h31C36.4 0 38 1.6 38 3.5v17c0 1.9-1.6 3.5-3.5 3.5z"/><path fill="#fff" d="M3.5 1C2.1 1 1 2.1 1 3.5v17C1 21.9 2.1 23 3.5 23h31c1.4 0 2.5-1.1 2.5-2.5v-17C37 2.1 35.9 1 34.5 1h-31z"/><ellipse rx="8.8" ry="9" cy="12" cx="19" fill="#378F43"/><path fill="#8BC249" d="M19.1 8.8L17 15.4h-2.2l2.1-6.6zm4.1 0l-2.1 6.5h-2.3l2.1-6.6z"/><path fill="#fff" d="M12.7 8.8l2.1 6.6H17l-2-6.6h-2.3zm4.2 0l2.1 6.6h2.3l-2.1-6.6h-2.3zm4.1 0l2.1 6.6h2.3l-2.1-6.6H21z"/></g></svg>