<svg xmlns="http://www.w3.org/2000/svg" role="img" viewBox="0 0 38 24" width="38" height="24" aria-labelledby="pi-payme"><title id="pi-payme">PayMe</title><g clip-path="url(#pi-payme-a)"><path fill="#000" d="M35 0H3C1.3 0 0 1.3 0 3v18c0 1.7 1.4 3 3 3h32c1.7 0 3-1.3 3-3V3c0-1.7-1.4-3-3-3Z" opacity=".07"/><path fill="#fff" d="M35 1c1.1 0 2 .9 2 2v18c0 1.1-.9 2-2 2H3c-1.1 0-2-.9-2-2V3c0-1.1.9-2 2-2h32Z"/><path fill="#DB0011" fill-rule="evenodd" d="M8.432 8.206a2.357 2.357 0 0 0-2.361 2.348c-.001.637.006 2.21.006 2.227 0 .074.06.134.134.134.017 0 1.64-.007 2.215-.006a2.357 2.357 0 0 0 2.361-2.348 2.358 2.358 0 0 0-2.355-2.355Zm-.006 4.434c-.479-.001-1.68.003-2.082.005-.002-.397-.007-1.564-.007-2.09a2.09 2.09 0 0 1 2.095-2.08 2.09 2.09 0 0 1 2.088 2.085 2.089 2.089 0 0 1-2.094 2.08Z" clip-rule="evenodd"/><path fill="#DB0011" fill-rule="evenodd" d="M8.433 7.146c-1.87-.003-3.395 1.527-3.398 3.411 0 .73.006 2.288.009 2.967l-.001.01-.005 3.13c0 .075.06.136.134.137a.135.135 0 0 0 .134-.137l.004-2.678c.51-.002 2.385-.009 3.114-.008 1.871.003 3.396-1.528 3.398-3.412.003-1.883-1.517-3.418-3.389-3.42m-.008 6.56c-.728-.002-2.596.005-3.113.007-.002-.514-.01-2.346-.009-3.155.002-1.734 1.407-3.142 3.13-3.14a3.14 3.14 0 0 1 3.122 3.148c-.003 1.733-1.407 3.142-3.13 3.14Z" clip-rule="evenodd"/><mask id="pi-payme-b" width="9" height="12" x="4" y="6" maskUnits="userSpaceOnUse" style="mask-type:luminance"><path fill="#DB0011" d="M4 6h8.925v11.86H4V6Z"/></mask><g mask="url(#pi-payme-b)"><path fill="#DB0011" fill-rule="evenodd" d="M8.469 6A4.469 4.469 0 0 0 4 10.46c-.002 1.243.013 4.315.013 4.345l-.002 1.847c0 .313.207 1.207 1.135 1.209.993.001 1.218-.858 1.219-1.159 0-.219.016-1.381.021-1.768.69-.002 1.38-.004 2.07-.003a4.469 4.469 0 0 0 4.469-4.46A4.47 4.47 0 0 0 8.469 6Zm-.012 8.657c-.418 0-1.149 0-2.174.004a.128.128 0 0 0-.037.005l-.031.01a.137.137 0 0 0-.097.129c-.001.066-.023 1.633-.023 1.897 0 .009-.042.886-.949.885-.83-.001-.865-.925-.865-.935l.002-1.848c0-.03-.015-3.102-.013-4.345a4.197 4.197 0 0 1 4.198-4.186 4.197 4.197 0 0 1 4.187 4.198 4.197 4.197 0 0 1-4.198 4.186Z" clip-rule="evenodd"/></g><path fill="#DB0011" fill-rule="evenodd" d="M16.174 9.8h-.806l-.003 1.738h.633c.646.002 1.273-.101 1.274-.902.001-.704-.504-.834-1.098-.835Zm.88 2.089c-.244.09-.538.122-.839.122l-.85-.002-.003 1.997-.601-.001.006-4.671 1.426.002c.397 0 .806.007 1.151.234.377.246.556.673.555 1.112 0 .569-.315 1.014-.846 1.207Zm2.934.476c-.499-.001-1.318.056-1.319.721 0 .4.338.615.71.615.812.001.896-.664.897-1.323-.134-.013-.198-.013-.288-.013Zm.4 1.648a3.714 3.714 0 0 1-.056-.46c-.27.395-.628.53-1.095.53-.6-.002-1.131-.306-1.13-.972 0-.975 1.063-1.09 1.85-1.089.106 0 .213.005.32.014v-.194c0-.504-.178-.789-.71-.79-.396 0-.633.148-.672.575l-.55-.001c.033-.71.603-.942 1.21-.942.825.001 1.228.319 1.227 1.171l-.002 1.202c0 .426.057.808.101.956h-.492Zm2.327 1.23h-.563l.533-1.234-1.371-3.258.64.001 1.013 2.67 1.014-2.667h.57l-1.836 4.488Zm6.883-1.218.006-4.205-1.637 4.203h-.55l-1.632-4.215-.005 4.212h-.544l.006-4.672.96.002 1.517 3.95 1.489-3.946.96.001-.007 4.671h-.563Zm2.997-2.928c-.595-.001-.89.49-.942 1.032l1.791.002c.007-.536-.26-1.034-.85-1.034Zm-.955 1.407v.064c-.001.601.318 1.15.97 1.152.46 0 .762-.284.833-.742h.537c-.129.77-.68 1.124-1.415 1.123-1.004-.002-1.49-.68-1.488-1.65.001-.975.489-1.744 1.537-1.742 1.081.001 1.387.848 1.386 1.798l-2.36-.003ZM8.464 9.266c-.697 0-1.266.579-1.267 1.292 0 .346.004 1.195.004 1.195 0 .057.045.103.1.103l1.16-.003c.697 0 1.266-.579 1.267-1.292 0-.713-.566-1.294-1.264-1.295Zm-.003 2.313-.995.003c-.001-.223-.004-.769-.003-1.024 0-.562.45-1.019 1-1.018.552 0 1 .459 1 1.021A1.01 1.01 0 0 1 8.46 11.58Z" clip-rule="evenodd"/></g><defs><clipPath id="pi-payme-a"><path fill="#fff" d="M0 0h38v24H0z"/></clipPath></defs></svg>
