<svg width="38" height="24" viewBox="0 0 38 24" fill="none" xmlns="http://www.w3.org/2000/svg" role="img" aria-labelledby="pi-rabobank"><title id="pi-rabobank">Rabobank</title><g clip-path="url(#clip0_39_259)"><path opacity=".07" d="M35 0H3C1.3 0 0 1.3 0 3v18c0 1.7 1.4 3 3 3h32c1.7 0 3-1.3 3-3V3c0-1.7-1.4-3-3-3z" fill="#000"/><path d="M35 1c1.1 0 2 .9 2 2v18c0 1.1-.9 2-2 2H3c-1.1 0-2-.9-2-2V3c0-1.1.9-2 2-2h32z" fill="#fff"/><g clip-path="url(#clip1_39_259)" fill="#0006AD"><path d="M13.47 10.819c-.403 0-.699.036-.914.156L12.88 9h-1.012l-1.004 5.908h.878l.152-.287c.081.111.314.351.762.351 1.209 0 1.907-.904 2.095-2.067.242-1.44-.438-2.086-1.28-2.086zm.223 2.049c-.125.941-.59 1.366-1.137 1.366-.34 0-.537-.24-.475-.628l.189-1.21c.071-.451.33-.811.797-.802h.008c.529-.01.753.35.619 1.274zM9.448 10.81c-1.137 0-1.639.553-1.639.553l.35.61s.367-.444 1.101-.444c.412 0 .421.222.376.443l-.08.526c-1.451-.046-2.203.287-2.373 1.274-.144.813.447 1.21 1.11 1.21.34 0 .618-.047.958-.351l.045.286h.869l.009-.065.304-1.772.188-1.09c.153-.885-.295-1.18-1.218-1.18zm-.86 3.544c-.376 0-.519-.268-.456-.628.09-.48.439-.683 1.325-.683-.152 1.19-.304 1.31-.868 1.31zM29.644 10.819c-.707 0-.976.323-1.245.59l.027-.498-.886.009-.663 3.997h1.02l.332-2.114c.117-.73.61-1.283 1.066-1.283.51 0 .51.305.42.757l-.447 2.65h1.012l.457-2.76c.17-.915-.152-1.348-1.093-1.348zM33.352 12.517L35 10.827h-1.182l-1.37 1.496h-.018l.546-3.305h-.985l-.994 5.899H32l.098-.59.206-1.302c.529 0 .833.055 1.066 1.144l.161.73h1.03s-.25-1.117-.42-1.551c-.189-.443-.386-.748-.789-.831zM25.489 10.81c-1.138 0-1.64.553-1.64.553l.35.61s.367-.444 1.102-.444c.412 0 .42.222.376.443l-.08.526c-1.46-.046-2.213.287-2.392 1.274-.143.813.448 1.21 1.11 1.21.34 0 .618-.047.959-.351l.044.286h.878l.01-.065.304-1.772.188-1.09c.16-.876-.287-1.18-1.21-1.18zm-.851 3.544c-.376 0-.52-.268-.457-.628.09-.48.439-.683 1.326-.683-.162 1.19-.314 1.31-.87 1.31zM21.718 10.819c-.403 0-.698.036-.913.156L21.127 9h-1.003l-1.003 5.908h.877l.153-.287c.08.111.313.351.761.351 1.21 0 1.908-.904 2.096-2.067.242-1.431-.43-2.086-1.29-2.086zm.233 2.058c-.125.941-.591 1.366-1.137 1.366-.34 0-.538-.24-.475-.628l.188-1.209c.072-.452.331-.812.797-.803h.009c.52-.018.743.35.618 1.274zM7.102 11.086c.26-1.098-.215-1.957-1.567-1.938h-1.55L3 14.908h1.012l.403-2.308c.931-.028 1.048.212 1.227 1.33l.161.978H6.86c-.125-.6-.206-1.154-.304-1.606-.108-.471-.278-.84-.717-1.016l.045-.01c.734-.175 1.12-.793 1.218-1.19zm-1.962.674h-.6l.314-1.818H5.4c.645 0 .77.433.69.95-.09.508-.475.868-.95.868zM17.553 10.79c-1.558 0-2.22.924-2.382 2.438-.098.96.475 1.772 1.433 1.772 1.487 0 2.087-.739 2.329-2.308.17-.978-.215-1.901-1.38-1.901zm.332 1.976c-.215 1.172-.699 1.505-1.084 1.505-.537 0-.671-.554-.546-1.256.197-1.144.627-1.467 1.093-1.467.69 0 .617.793.537 1.218z"/></g></g><defs><clipPath id="pi-rabobank-clip0_39_259"><path fill="#fff" d="M0 0h38v24H0z"/></clipPath><clipPath id="pi-rabobank-clip1_39_259"><path fill="#fff" transform="translate(3 9)" d="M0 0h32v6H0z"/></clipPath></defs></svg>