<svg width="38" height="24" viewBox="0 0 38 24" fill="none" xmlns="http://www.w3.org/2000/svg" role="img" aria-labelledby="pi-tnmmoney"><title id="pi-tnmmoney">TNMmoney</title><g clip-path="url(#pi-tnmmoney-clip0)"><path d="M35 .5H3A2.5 2.5 0 00.5 3v18A2.5 2.5 0 003 23.5h32a2.5 2.5 0 002.5-2.5V3A2.5 2.5 0 0035 .5z" stroke="#000" stroke-opacity=".07"/><g clip-path="url(#pi-tnmmoney-clip1)"><rect x="1" y="1" width="36" height="22" rx="2" fill="#fff"/><path d="M1 1h36v22H1V1z" fill="#FDFDFD"/><path d="M6.874 6.592l.331.023 2.132.343 5.045.78 1.136.183.356.069.023.091-.07.504h.615l.142.046-.047.115-.166.137-.047-.045h-.19l-.237.091-.19.115-.07.137-.663 2.544-.45 1.673-.521 1.948-.498 1.81-.047.138-.45-.207-1.042-.504-.545-.252-.118-.046v.39l-.119.183-.142.092H10.9l-.118-.275-.143-.458-.094-.23-.095-.114v-.046l-.118-.046-.024.78-.071.297-.024.207-.07.022-.096-.091-.023-.069v-.16l.047-.321-.095-.138-.237-.32-.047-.184-.047-.229-.095-.137-.118-.023-.119.229-.118-.023-.119-.069-.047-.252-.118-.092-.664-.343-.97-.482-.664-.32-.45-.23-1.942-.94-.024-.09.45-1.032.332-.756.426-.986.474-1.1.332-.779.355-.825.308-.733zM25.49 10.236h1.136l.024.022v.596l.095-.091.166-.184.26-.16.355-.115.308-.046h.427l.402.07.308.114.284.16.237.206.142.16.095-.114.166-.183.19-.16.189-.092.355-.092.237-.023h.237l.45.046.402.092.308.16.19.184.165.252.095.297v3.3h-1.16l-.024-.022-.024-2.957-.07-.229-.143-.183-.213-.092-.118-.023h-.64l-.237.069-.19.137-.118.184-.023.069-.024.779-.024 2.246h-1.137l-.023-3.094-.071-.16-.19-.161-.19-.092-.236-.046h-.284l-.356.092-.331.206-.166.184-.071.16-.024.16-.023 1.536v1.169h-1.114v-4.332z" fill="#46A452"/><path d="M10.829 9.96h.19l.165.046.071.046.403.046.521.183.379.115.26.114.166-.022.142-.115.166.023.237.183.071.023h.64l.615-.183-.047.229-.403 1.467-.994 3.529-.237.825-.048.206-.07.023-.38-.183-.758-.344-.544-.23-.119-.091.024-.298-.071-.092.024-.137.07-.069.048-.206.024-1.008.118-.092v-.183l-.166-.505v-.641l.024-.207-.095.023-.023 1.49-.048.069-.095-.275v-.298l.048-.252v-.252l-.142-.482-.048-.137v-.252l.072-.527v-.298l-.119-.069-.047-.825-.048-.206v-.138l.024-.023zM6.258 9.09l.118.023.26.114.546.138.07.023h.237l.356-.046.355-.023h.379l.64.046.047.023v.068l-.237.046-.995-.023-.379.023v.046l.427.023 1.042.023.118.069.095.114v.367h.047l.048-.55.023-.046h.048l.023.046v.527l-.07.596-.072.252-.047.298-.024.046h-.047v-.825H9.17l-.071.458-.213.733-.071.39-.024.458-.095.298-.284.413-.024.091v.206l.071.207-.142.366-.023.16-.071.047-.948-.459-.45-.229-1.61-.78-.403-.205-.024-.092.285-.665.284-.687.402-.963.356-.847.118-.275.024-.023z" fill="#FEFEFE"/><path d="M22.79 10.12h.805l.308.07.284.137.237.183.19.23.117.229.024.069.024.94v.687l-.024 1.375-.023.48h-1.114l-.047-3.093-.071-.183-.095-.115-.19-.114-.212-.07-.403-.022-.403.046-.236.069-.19.137-.142.183-.048.115-.023.16v2.865h-1.09l-.023-.046.023-4.24h1.09v.665l.047-.046.095-.229.213-.23.332-.16.331-.068.213-.023zM16.537 9.319h1.113l.024.046v.94h1.776l.024.022v.802l-1.777.023v2.338l.048.183.118.092.19.045h.236l.214-.045.118-.115.024-.069.023-.664.024-.023h.947l.048.023v.504l-.024.55-.095.229-.165.183-.19.115-.166.046-.852.069h-.285l-.52-.023-.332-.07-.237-.09-.19-.161-.047-.115-.023-.183v-2.865h-.616l-.024-.023.024-.825h.592v-.94z" fill="#46A452"/><path d="M7.134 7.004l.403.046 1.066.16 1.8.275 2.534.367.284.069v.023l-.781.023-.664-.023h-1.444l-.119.068.095.023.758.023 1.231.023.024.046-.308.046h-1.895l-.379.023-.26-.069-.071-.023H9.1l-1.113.115-1.066.16-.284.069h-.119l.071-.23.214-.48.26-.62.071-.114zM14.879 9.113l.213.022.118.023-.047.23-.166.595-.047.07-.19.022h-.284l-.26-.069-.048-.137h-.307l-.427-.023-.19-.069.024-.046.38-.091h.236l.592.045.545.023-.047-.137-.19-.138-.024-.114.095-.184.024-.022zM9.29 12.596l.118.023v.229l-.095.32-.142.345-.071.412v.183l.166.505v.114l-.095.023-.142-.069-.118-.046-.024-.045h.19l-.095-.321-.048-.321.024-.206.07-.298V13.1l.214-.435.047-.07zM14.784 8.127h.19l.236.046.237.069.024.068-.142.344-.071.115h-.426l-.19-.092-.095-.092.048-.091.379-.115.26-.046.071-.068-.379-.092-.142-.023v-.023zM11.326 9.456l.166.023.142.069.45.046h.498l.426.046.118.068.024.07-.284-.024-.071.046h-.26l-.261-.046V9.8l-.142.023-.237-.138-.142-.068-.285-.023-.142-.069v-.069zM9.905 10.808l.119.023.047.046.047.504v.252l-.094.16-.048.047h-.118l-.024-.023.024-.207.095-.16-.024-.115-.047-.16v-.344l.023-.023zM12.037 8.883h.213v.046l-.213.046-.237.069-.142.114-.853-.023-.023-.068.047-.115.284.023.119.069.26-.023.19-.046.165-.069.19-.023zM10.379 8.31l.829.023.047.07-.142.045-.19-.023h-.26v.069h-.047l-.024-.046-.071-.023h-.426v-.069l.047-.023.237-.023zM9.621 8.906h.213l.048.023v.046l-.166.046-.616.023h-.355v-.069l.118-.023.71-.023.048-.023zM10.379 11.404h.071l.047.367.024.366-.071.023-.071-.068-.024-.436-.047-.183.07-.069zM10.568 8.883l.095.023-.024.138-.118.091h-.26l-.071-.068v-.115h.213l.165-.069z" fill="#FEFEFE"/><path d="M9.692 16.17l.095.047.07.16.048.367v.114l-.094-.046-.071-.183-.048-.458z" fill="#46A452"/><path d="M9.74 12.183l.118.023.024.023v.504l-.048.092h-.023l-.024-.367-.071-.114.024-.16zM6.424 8.7l.07.023v.046l.356.046-.047.045-.285.07-.213.022.095-.23.024-.022z" fill="#FEFEFE"/><path d="M9.432 15.667l.118.023.071.068v.069l-.095-.023-.094-.091v-.046z" fill="#46A452"/></g></g><defs><clipPath id="pi-tnmmoney-clip0"><path fill="#fff" d="M0 0h38v24H0z"/></clipPath><clipPath id="pi-tnmmoney-clip1"><rect x="1" y="1" width="36" height="22" rx="2" fill="#fff"/></clipPath></defs></svg>