<svg version="1.1" xmlns="http://www.w3.org/2000/svg" viewBox="0 0 38 24" width="38" height="24" role="img" aria-labelledby="pi-trustly" overflow="visible" xml:space="preserve"><title id="pi-trustly">Trustly</title><g fill="#0EE06E"><path d="M3 23.5A2.503 2.503 0 01.5 21V3C.5 1.622 1.622.5 3 .5h32c1.379 0 2.5 1.122 2.5 2.5v18c0 1.379-1.121 2.5-2.5 2.5H3z"/><path d="M35 1a2 2 0 012 2v18a2 2 0 01-2 2H3a2 2 0 01-2-2V3a2 2 0 012-2h32m0-1H3C1.346 0 0 1.346 0 3v18c0 1.654 1.346 3 3 3h32c1.654 0 3-1.346 3-3V3c0-1.654-1.346-3-3-3z"/></g><path d="M10.457 18.715v-3.789H9.091v-.831h3.632v.831h-1.366v3.789h-.9zM12.622 18.715V15.36h.835v.531c.217-.448.489-.531.78-.531h.328v.84h-.286c-.425 0-.798.245-.798.988v1.523h-.858l-.001.004zM15.035 17.502v-2.137h.858v1.934c0 .429.222.715.614.715.378 0 .66-.286.66-.711V15.36h.863v3.355h-.83v-.425c-.217.337-.549.498-.969.498-.706.001-1.196-.47-1.196-1.286zM18.483 17.765l.757-.171c.037.295.277.494.678.494.328 0 .517-.138.517-.318 0-.148-.088-.245-.406-.323l-.545-.125c-.637-.148-.937-.448-.937-1.006 0-.568.475-1.02 1.343-1.02.918 0 1.297.545 1.348.937l-.757.166c-.037-.208-.194-.429-.609-.429-.272 0-.475.125-.475.305 0 .157.12.245.305.291l.738.175c.577.138.854.475.854.969 0 .54-.438 1.071-1.371 1.071-1.015-.001-1.394-.606-1.44-1.016zM23.066 18.715c-.577 0-.942-.328-.942-.942v-1.666h-.558v-.747h.558v-.766l.858-.245v1.011h.683v.748h-.683v1.518c0 .245.12.342.369.342h.374v.748l-.659-.001zM24.285 18.715v-4.62h.858v4.62h-.858zM27.986 15.36h.923l-1.417 4.555h-.923l.392-1.2h-.466l-.955-3.355h.923l.729 2.64.794-2.64zM14.265 8.391h3.309v-2.64l2.64 2.64-2.64 2.64v1.347h3.203V8.391h2.945V5.285h-9.457z"/></svg>