<svg viewBox="0 0 38 24" xmlns="http://www.w3.org/2000/svg" role="img" width="38" height="24" aria-labelledby="pi-twint"><title id="pi-twint">Twint</title><path d="M3 0h32a3 3 0 0 1 3 3v17.97a3 3 0 0 1-3 3H3a3 3 0 0 1-3-3V3a3 3 0 0 1 3-3z" fill="#000"/><path fill="#fff" d="M11.822 14.477a.49.49 0 0 1-.22.383L7.31 17.337a.49.49 0 0 1-.442 0L2.576 14.86a.49.49 0 0 1-.22-.383V9.522a.49.49 0 0 1 .22-.382l4.292-2.478a.49.49 0 0 1 .442 0l4.291 2.478a.49.49 0 0 1 .221.382v4.955zM35.645 9.88H31.8v.913h1.378v3.923h1.088v-3.923h1.379v-.914.001zm-17.452-.001h-3.845v.913h1.379v3.923h1.088v-3.923h1.378v-.914.001zm11.12-.154c-1.209 0-1.882.771-1.882 1.887v3.103h1.075V11.59c0-.486.289-.86.819-.86s.815.444.815.86v3.127h1.075v-3.103c0-1.116-.696-1.887-1.904-1.887h.002v-.002zm-4.061.154h1.08v4.836h-1.08V9.879zm-3.644 1.915l.036.215 1.009 2.706h.44l1.375-4.837h-1.063l-.655 2.541-.039.272-.053-.272-.875-2.54h-.35l-.876 2.54-.053.272-.039-.272-.654-2.54h-1.064l1.375 4.836h.44l1.01-2.706.036-.215"/><path fill="#ff4800" d="M9.324 12.012l-1.118 1.64-.573-.878.662-.988c.123-.177.385-.66.082-1.321a1.377 1.377 0 0 0-1.248-.796 1.377 1.377 0 0 0-1.247.796 1.27 1.27 0 0 0 .076 1.3l.674.995.495.716.75 1.145a.428.428 0 0 0 .334.19c.2 0 .322-.179.338-.201l1.754-2.597h-.979zm-2.202.042s-.293-.444-.483-.754a.556.556 0 0 1-.072-.275c0-.305.25-.556.555-.556s.556.251.556.556a.556.556 0 0 1-.072.275c-.187.31-.479.754-.479.754h-.005z"/><path fill="#007ce2" d="M6.046 13.6l-1.099-1.544s-.293-.446-.483-.756a.553.553 0 0 1-.074-.276c0-.304.25-.553.553-.553h.004a.582.582 0 0 1 .161.022l.389-.71a1.376 1.376 0 0 0-1.793.681 1.27 1.27 0 0 0 .076 1.301l1.92 2.847c.016.025.139.204.343.204a.427.427 0 0 0 .337-.2l.58-.884-.498-.734-.417.602z"/></svg>