<svg width="38" height="24" viewBox="0 0 38 24" fill="none" role="img" aria-labelledby="pi-wingbank"><title id="pi-wingbank">Wing Bank</title><rect x="1" y="1" width="36" height="22" rx="2" fill="#AAD039"/><rect x=".5" y=".5" width="37" height="23" rx="2.5" stroke="#000" stroke-width="1" stroke-opacity=".07"/><path d="M4.085 13.86l1.797-4.547h.598l-.098 1.011L4.484 15h-.637l.238-1.14zm.016-4.547l.188 4.628L4.136 15h-.695l-.36-5.688h1.02zm2.86 4.515l1.585-4.515h1.067L7.473 15H6.78l.18-1.172zm-.192-4.515l.383 4.664L7.066 15h-.633L6 10.234l.171-.921h.598zm3.717 1.46L9.756 15H8.744l.735-4.227h1.007zm-.882-1.085a.507.507 0 01.16-.399.595.595 0 01.41-.16.575.575 0 01.398.14.468.468 0 01.172.383.497.497 0 01-.164.395.599.599 0 01-.406.156.584.584 0 01-.399-.137.48.48 0 01-.171-.379zm2.096 2.046L11.133 15h-1.011l.734-4.227h.945l-.101.961zm-.324 1l-.278.004c.031-.252.091-.501.18-.746.088-.247.208-.47.36-.668a1.7 1.7 0 01.558-.469c.219-.114.473-.169.762-.164.231.008.423.056.574.145a.933.933 0 01.355.355c.084.146.137.314.16.504.026.19.028.388.004.594L13.602 15h-1.015l.457-2.723c.015-.145.01-.276-.016-.39a.441.441 0 00-.16-.27c-.084-.068-.206-.103-.367-.105a.881.881 0 00-.454.097c-.13.07-.24.166-.332.286-.09.12-.164.253-.218.402a2.494 2.494 0 00-.121.437zm5.877-1.96h.926l-.7 4.093c-.051.38-.178.706-.378.977-.198.273-.452.48-.762.62a2.297 2.297 0 01-1.586.114 1.862 1.862 0 01-.512-.234 1.637 1.637 0 01-.406-.375l.512-.598c.117.156.255.279.414.367.159.089.336.136.531.14.211.006.397-.032.559-.112a1.04 1.04 0 00.402-.348c.104-.151.175-.33.211-.535l.543-3.195.246-.915zm-3.137 2.19l.012-.081c.031-.266.094-.529.188-.79.093-.262.218-.5.375-.714a1.77 1.77 0 01.582-.508 1.56 1.56 0 01.8-.176c.28.008.506.077.68.207.177.128.313.296.406.504.097.206.16.43.192.672.034.24.044.477.031.711l-.023.223c-.045.24-.116.483-.215.73a2.82 2.82 0 01-.38.676c-.153.206-.338.37-.554.492a1.39 1.39 0 01-.738.172c-.281-.008-.516-.077-.703-.207-.185-.13-.33-.3-.434-.508a2.175 2.175 0 01-.207-.68 3.207 3.207 0 01-.012-.722zm1.024-.085l-.012.086a3.45 3.45 0 00-.015.41c.005.146.028.285.07.418a.74.74 0 00.203.328.601.601 0 00.395.137.903.903 0 00.539-.13c.156-.098.283-.228.382-.39.1-.161.168-.336.207-.523l.09-.617c.01-.128.007-.256-.011-.383a1.01 1.01 0 00-.114-.348.671.671 0 00-.605-.352.822.822 0 00-.477.114 1.104 1.104 0 00-.336.332 1.829 1.829 0 00-.21.45 2.51 2.51 0 00-.106.468z" fill="#fff"/><path d="M21.871 12.465h-1.464l.128-.758 1.153.004c.18 0 .35-.026.512-.078.164-.055.3-.14.41-.258a.833.833 0 00.21-.469c.024-.18.007-.323-.05-.43a.489.489 0 00-.274-.234 1.328 1.328 0 00-.433-.078l-.906-.004-.84 4.84h-1.051l.984-5.688 1.844.004c.242.003.474.033.695.09.224.055.42.14.59.258.172.117.304.272.395.465.093.19.13.423.11.7-.02.299-.108.546-.267.741a1.481 1.481 0 01-.601.446c-.242.101-.5.161-.773.18l-.372.269zM21.4 15h-1.762l.582-.844 1.215.004a1.41 1.41 0 00.508-.098.92.92 0 00.598-.762.917.917 0 00-.028-.429.51.51 0 00-.219-.285.795.795 0 00-.414-.117l-1.14-.004.136-.758 1.34.004.184.289c.247.02.462.086.644.195.185.11.323.258.414.446.094.187.133.409.117.664-.028.4-.147.726-.355.976-.206.25-.469.434-.789.551-.32.115-.664.17-1.031.168zm4.588-.898l.309-1.965a.806.806 0 00-.024-.34.46.46 0 00-.164-.25.54.54 0 00-.328-.098.815.815 0 00-.34.063.697.697 0 00-.258.191.691.691 0 00-.144.305l-1.008.008a1.14 1.14 0 01.2-.594 1.4 1.4 0 01.445-.414 2.258 2.258 0 011.206-.312c.29.005.548.066.774.183.227.117.4.284.52.5.12.213.164.474.133.781l-.301 1.844c-.024.15-.04.307-.051.469-.01.159.01.31.062.457l-.003.07-.997.004a1.54 1.54 0 01-.066-.45 3.74 3.74 0 01.035-.452zm.426-1.676l-.102.613-.582-.004c-.12 0-.24.013-.363.04a1.24 1.24 0 00-.336.124.77.77 0 00-.262.223.694.694 0 00-.128.344.492.492 0 00.035.273.44.44 0 00.164.188.553.553 0 00.27.07 1.041 1.041 0 00.78-.332.85.85 0 00.215-.371l.239.453a1.596 1.596 0 01-.235.422 1.664 1.664 0 01-.343.332 1.586 1.586 0 01-.903.285 1.417 1.417 0 01-.644-.164 1.18 1.18 0 01-.457-.434 1.116 1.116 0 01-.153-.64 1.3 1.3 0 01.207-.688 1.38 1.38 0 01.492-.437c.201-.107.42-.184.657-.23.24-.048.475-.071.707-.071l.742.004zm2.315-.692L28.162 15H27.15l.734-4.227h.945l-.101.961zm-.324 1l-.278.004c.032-.252.091-.501.18-.746.089-.247.208-.47.36-.668a1.7 1.7 0 01.558-.469c.219-.114.473-.169.762-.164a1.2 1.2 0 01.574.145.934.934 0 01.356.355c.083.146.136.314.16.504.026.19.027.388.003.594L30.63 15h-1.015l.457-2.723c.015-.145.01-.276-.016-.39a.44.44 0 00-.16-.27c-.083-.068-.206-.103-.367-.105a.881.881 0 00-.453.097c-.13.07-.241.166-.332.286-.092.12-.165.253-.22.402a2.503 2.503 0 00-.12.437zM33 8.996L31.957 15h-1.012l1.043-6.004H33zm2.297 1.777l-2.137 2.059-1.172 1.04-.191-.872.89-.938 1.317-1.289h1.293zM33.527 15l-.949-2.012.742-.633L34.637 15h-1.11z" fill="#0C6DB6"/></svg>
